<?xml version="1.0" encoding="UTF-8" standalone="no"?>
<!DOCTYPE svg PUBLIC "-//W3C//DTD SVG 1.1//EN"
 "http://www.w3.org/Graphics/SVG/1.1/DTD/svg11.dtd">
<!-- Generated by graphviz version 2.43.0 (0)
 -->
<!-- Title: /home/runner/work/feelpp/feelpp/feelpp/feel/feelcore/application.cpp Pages: 1 -->
<svg width="2991pt" height="117pt"
 viewBox="0.00 0.00 2990.50 117.00" xmlns="http://www.w3.org/2000/svg" xmlns:xlink="http://www.w3.org/1999/xlink">
<g id="graph0" class="graph" transform="scale(1 1) rotate(0) translate(4 113)">
<title>/home/runner/work/feelpp/feelpp/feelpp/feel/feelcore/application.cpp</title>
<polygon fill="white" stroke="transparent" points="-4,4 -4,-113 2986.5,-113 2986.5,4 -4,4"/>
<!-- Node1 -->
<g id="node1" class="node">
<title>Node1</title>
<g id="a_node1"><a xlink:title=" ">
<polygon fill="#bfbfbf" stroke="black" points="1075,-67.5 1075,-108.5 1224,-108.5 1224,-67.5 1075,-67.5"/>
<text text-anchor="start" x="1083" y="-96.5" font-family="Helvetica,sans-Serif" font-size="10.00">/home/runner/work/feelpp</text>
<text text-anchor="start" x="1083" y="-85.5" font-family="Helvetica,sans-Serif" font-size="10.00">/feelpp/feelpp/feel/feelcore</text>
<text text-anchor="middle" x="1149.5" y="-74.5" font-family="Helvetica,sans-Serif" font-size="10.00">/application.cpp</text>
</a>
</g>
</g>
<!-- Node2 -->
<g id="node2" class="node">
<title>Node2</title>
<g id="a_node2"><a xlink:title=" ">
<polygon fill="white" stroke="#bfbfbf" points="0,-6 0,-25 49,-25 49,-6 0,-6"/>
<text text-anchor="middle" x="24.5" y="-13" font-family="Helvetica,sans-Serif" font-size="10.00">cstdlib</text>
</a>
</g>
</g>
<!-- Node1&#45;&gt;Node2 -->
<g id="edge1" class="edge">
<title>Node1&#45;&gt;Node2</title>
<path fill="none" stroke="midnightblue" d="M1074.9,-86.57C861.65,-84.79 252.41,-75.83 58.5,-31 55.98,-30.42 53.42,-29.66 50.88,-28.8"/>
<polygon fill="midnightblue" stroke="midnightblue" points="51.99,-25.47 41.4,-25.09 49.44,-31.99 51.99,-25.47"/>
</g>
<!-- Node3 -->
<g id="node3" class="node">
<title>Node3</title>
<g id="a_node3"><a xlink:title=" ">
<polygon fill="white" stroke="#bfbfbf" points="67.5,-6 67.5,-25 113.5,-25 113.5,-6 67.5,-6"/>
<text text-anchor="middle" x="90.5" y="-13" font-family="Helvetica,sans-Serif" font-size="10.00">locale</text>
</a>
</g>
</g>
<!-- Node1&#45;&gt;Node3 -->
<g id="edge2" class="edge">
<title>Node1&#45;&gt;Node3</title>
<path fill="none" stroke="midnightblue" d="M1074.86,-86.5C870.16,-84.55 303.21,-75.22 122.5,-31 120.29,-30.46 118.04,-29.77 115.81,-28.98"/>
<polygon fill="midnightblue" stroke="midnightblue" points="116.94,-25.66 106.36,-25.09 114.27,-32.13 116.94,-25.66"/>
</g>
<!-- Node4 -->
<g id="node4" class="node">
<title>Node4</title>
<g id="a_node4"><a xlink:title=" ">
<polygon fill="white" stroke="#bfbfbf" points="131.5,-6 131.5,-25 191.5,-25 191.5,-6 131.5,-6"/>
<text text-anchor="middle" x="161.5" y="-13" font-family="Helvetica,sans-Serif" font-size="10.00">iostream</text>
</a>
</g>
</g>
<!-- Node1&#45;&gt;Node4 -->
<g id="edge3" class="edge">
<title>Node1&#45;&gt;Node4</title>
<path fill="none" stroke="midnightblue" d="M1074.78,-85.45C881.22,-80.97 367.05,-66.06 200.5,-31 197.25,-30.32 193.91,-29.41 190.61,-28.38"/>
<polygon fill="midnightblue" stroke="midnightblue" points="191.6,-25.02 181,-25.04 189.3,-31.63 191.6,-25.02"/>
</g>
<!-- Node5 -->
<g id="node5" class="node">
<title>Node5</title>
<g id="a_node5"><a xlink:title=" ">
<polygon fill="white" stroke="#bfbfbf" points="210,-6 210,-25 265,-25 265,-6 210,-6"/>
<text text-anchor="middle" x="237.5" y="-13" font-family="Helvetica,sans-Serif" font-size="10.00">fstream</text>
</a>
</g>
</g>
<!-- Node1&#45;&gt;Node5 -->
<g id="edge4" class="edge">
<title>Node1&#45;&gt;Node5</title>
<path fill="none" stroke="midnightblue" d="M1074.96,-85.19C892.28,-80.27 426.16,-64.71 274.5,-31 271.5,-30.33 268.42,-29.46 265.38,-28.47"/>
<polygon fill="midnightblue" stroke="midnightblue" points="266.56,-25.17 255.97,-25.03 264.16,-31.75 266.56,-25.17"/>
</g>
<!-- Node6 -->
<g id="node6" class="node">
<title>Node6</title>
<g id="a_node6"><a xlink:title=" ">
<polygon fill="white" stroke="#bfbfbf" points="283.5,-6 283.5,-25 339.5,-25 339.5,-6 283.5,-6"/>
<text text-anchor="middle" x="311.5" y="-13" font-family="Helvetica,sans-Serif" font-size="10.00">iomanip</text>
</a>
</g>
</g>
<!-- Node1&#45;&gt;Node6 -->
<g id="edge5" class="edge">
<title>Node1&#45;&gt;Node6</title>
<path fill="none" stroke="midnightblue" d="M1075,-84.68C903.61,-78.86 485.6,-61.89 348.5,-31 345.5,-30.32 342.42,-29.44 339.39,-28.45"/>
<polygon fill="midnightblue" stroke="midnightblue" points="340.57,-25.16 329.98,-25.01 338.17,-31.73 340.57,-25.16"/>
</g>
<!-- Node7 -->
<g id="node7" class="node">
<title>Node7</title>
<g id="a_node7"><a xlink:title=" ">
<polygon fill="white" stroke="#bfbfbf" points="357.5,-6 357.5,-25 413.5,-25 413.5,-6 357.5,-6"/>
<text text-anchor="middle" x="385.5" y="-13" font-family="Helvetica,sans-Serif" font-size="10.00">sstream</text>
</a>
</g>
</g>
<!-- Node1&#45;&gt;Node7 -->
<g id="edge6" class="edge">
<title>Node1&#45;&gt;Node7</title>
<path fill="none" stroke="midnightblue" d="M1074.78,-84.05C915.08,-77.29 545.04,-59.07 422.5,-31 419.66,-30.35 416.76,-29.52 413.88,-28.59"/>
<polygon fill="midnightblue" stroke="midnightblue" points="414.96,-25.26 404.36,-25.13 412.57,-31.84 414.96,-25.26"/>
</g>
<!-- Node8 -->
<g id="node8" class="node">
<title>Node8</title>
<g id="a_node8"><a xlink:title=" ">
<polygon fill="white" stroke="#bfbfbf" points="432,-6 432,-25 563,-25 563,-6 432,-6"/>
<text text-anchor="middle" x="497.5" y="-13" font-family="Helvetica,sans-Serif" font-size="10.00">boost/assign/list_of.hpp</text>
</a>
</g>
</g>
<!-- Node1&#45;&gt;Node8 -->
<g id="edge7" class="edge">
<title>Node1&#45;&gt;Node8</title>
<path fill="none" stroke="midnightblue" d="M1075,-82.02C964.8,-74.15 752.04,-57.01 572.5,-31 564.48,-29.84 556.01,-28.4 547.76,-26.89"/>
<polygon fill="midnightblue" stroke="midnightblue" points="548.34,-23.44 537.86,-25.03 547.04,-30.32 548.34,-23.44"/>
</g>
<!-- Node9 -->
<g id="node9" class="node">
<title>Node9</title>
<g id="a_node9"><a xlink:title=" ">
<polygon fill="white" stroke="#bfbfbf" points="581.5,-6 581.5,-25 685.5,-25 685.5,-6 581.5,-6"/>
<text text-anchor="middle" x="633.5" y="-13" font-family="Helvetica,sans-Serif" font-size="10.00">boost/foreach.hpp</text>
</a>
</g>
</g>
<!-- Node1&#45;&gt;Node9 -->
<g id="edge8" class="edge">
<title>Node1&#45;&gt;Node9</title>
<path fill="none" stroke="midnightblue" d="M1074.64,-80.36C984.15,-71.73 827.47,-54.91 694.5,-31 688.67,-29.95 682.55,-28.69 676.55,-27.36"/>
<polygon fill="midnightblue" stroke="midnightblue" points="677.13,-23.9 666.6,-25.07 675.56,-30.73 677.13,-23.9"/>
</g>
<!-- Node10 -->
<g id="node10" class="node">
<title>Node10</title>
<g id="a_node10"><a xlink:title=" ">
<polygon fill="white" stroke="#bfbfbf" points="704,-6 704,-25 805,-25 805,-6 704,-6"/>
<text text-anchor="middle" x="754.5" y="-13" font-family="Helvetica,sans-Serif" font-size="10.00">boost/format.hpp</text>
</a>
</g>
</g>
<!-- Node1&#45;&gt;Node10 -->
<g id="edge9" class="edge">
<title>Node1&#45;&gt;Node10</title>
<path fill="none" stroke="midnightblue" d="M1074.8,-76.21C1006.51,-65.96 902.85,-49.4 813.5,-31 808.34,-29.94 802.94,-28.74 797.6,-27.49"/>
<polygon fill="midnightblue" stroke="midnightblue" points="798.02,-23.99 787.48,-25.07 796.39,-30.8 798.02,-23.99"/>
</g>
<!-- Node11 -->
<g id="node11" class="node">
<title>Node11</title>
<g id="a_node11"><a xlink:title=" ">
<polygon fill="white" stroke="#bfbfbf" points="823,-0.5 823,-30.5 936,-30.5 936,-0.5 823,-0.5"/>
<text text-anchor="start" x="831" y="-18.5" font-family="Helvetica,sans-Serif" font-size="10.00">boost/property_tree</text>
<text text-anchor="middle" x="879.5" y="-7.5" font-family="Helvetica,sans-Serif" font-size="10.00">/ptree.hpp</text>
</a>
</g>
</g>
<!-- Node1&#45;&gt;Node11 -->
<g id="edge10" class="edge">
<title>Node1&#45;&gt;Node11</title>
<path fill="none" stroke="midnightblue" d="M1074.65,-67.46C1033.36,-56.67 982.63,-43.43 943.24,-33.14"/>
<polygon fill="midnightblue" stroke="midnightblue" points="944.05,-29.74 933.49,-30.6 942.28,-36.51 944.05,-29.74"/>
</g>
<!-- Node12 -->
<g id="node12" class="node">
<title>Node12</title>
<g id="a_node12"><a xlink:title=" ">
<polygon fill="white" stroke="#bfbfbf" points="954,-0.5 954,-30.5 1067,-30.5 1067,-0.5 954,-0.5"/>
<text text-anchor="start" x="962" y="-18.5" font-family="Helvetica,sans-Serif" font-size="10.00">boost/property_tree</text>
<text text-anchor="middle" x="1010.5" y="-7.5" font-family="Helvetica,sans-Serif" font-size="10.00">/xml_parser.hpp</text>
</a>
</g>
</g>
<!-- Node1&#45;&gt;Node12 -->
<g id="edge11" class="edge">
<title>Node1&#45;&gt;Node12</title>
<path fill="none" stroke="midnightblue" d="M1110.78,-67.36C1090.95,-57.3 1066.92,-45.12 1047.36,-35.2"/>
<polygon fill="midnightblue" stroke="midnightblue" points="1048.94,-32.07 1038.44,-30.67 1045.77,-38.31 1048.94,-32.07"/>
</g>
<!-- Node13 -->
<g id="node13" class="node">
<title>Node13</title>
<g id="a_node13"><a xlink:title=" ">
<polygon fill="white" stroke="#bfbfbf" points="1085,-0.5 1085,-30.5 1214,-30.5 1214,-0.5 1085,-0.5"/>
<text text-anchor="start" x="1093" y="-18.5" font-family="Helvetica,sans-Serif" font-size="10.00">boost/program_options</text>
<text text-anchor="middle" x="1149.5" y="-7.5" font-family="Helvetica,sans-Serif" font-size="10.00">/parsers.hpp</text>
</a>
</g>
</g>
<!-- Node1&#45;&gt;Node13 -->
<g id="edge12" class="edge">
<title>Node1&#45;&gt;Node13</title>
<path fill="none" stroke="midnightblue" d="M1149.5,-67.36C1149.5,-59.23 1149.5,-49.7 1149.5,-41.11"/>
<polygon fill="midnightblue" stroke="midnightblue" points="1153,-40.89 1149.5,-30.89 1146,-40.89 1153,-40.89"/>
</g>
<!-- Node14 -->
<g id="node14" class="node">
<title>Node14</title>
<g id="a_node14"><a xlink:title=" ">
<polygon fill="white" stroke="#bfbfbf" points="1232,-0.5 1232,-30.5 1361,-30.5 1361,-0.5 1232,-0.5"/>
<text text-anchor="start" x="1240" y="-18.5" font-family="Helvetica,sans-Serif" font-size="10.00">boost/program_options</text>
<text text-anchor="middle" x="1296.5" y="-7.5" font-family="Helvetica,sans-Serif" font-size="10.00">/variables_map.hpp</text>
</a>
</g>
</g>
<!-- Node1&#45;&gt;Node14 -->
<g id="edge13" class="edge">
<title>Node1&#45;&gt;Node14</title>
<path fill="none" stroke="midnightblue" d="M1190.45,-67.36C1211.52,-57.26 1237.06,-45.01 1257.8,-35.06"/>
<polygon fill="midnightblue" stroke="midnightblue" points="1259.45,-38.15 1266.95,-30.67 1256.42,-31.84 1259.45,-38.15"/>
</g>
<!-- Node15 -->
<g id="node15" class="node">
<title>Node15</title>
<g id="a_node15"><a xlink:title=" ">
<polygon fill="white" stroke="#bfbfbf" points="1379.5,-6 1379.5,-25 1491.5,-25 1491.5,-6 1379.5,-6"/>
<text text-anchor="middle" x="1435.5" y="-13" font-family="Helvetica,sans-Serif" font-size="10.00">boost/tokenizer.hpp</text>
</a>
</g>
</g>
<!-- Node1&#45;&gt;Node15 -->
<g id="edge14" class="edge">
<title>Node1&#45;&gt;Node15</title>
<path fill="none" stroke="midnightblue" d="M1224.27,-68.57C1277.24,-55.51 1346.53,-38.43 1391.04,-27.46"/>
<polygon fill="midnightblue" stroke="midnightblue" points="1392.1,-30.8 1400.97,-25.01 1390.42,-24.01 1392.1,-30.8"/>
</g>
<!-- Node16 -->
<g id="node16" class="node">
<title>Node16</title>
<g id="a_node16"><a xlink:title=" ">
<polygon fill="white" stroke="#bfbfbf" points="1510,-6 1510,-25 1655,-25 1655,-6 1510,-6"/>
<text text-anchor="middle" x="1582.5" y="-13" font-family="Helvetica,sans-Serif" font-size="10.00">boost/token_functions.hpp</text>
</a>
</g>
</g>
<!-- Node1&#45;&gt;Node16 -->
<g id="edge15" class="edge">
<title>Node1&#45;&gt;Node16</title>
<path fill="none" stroke="midnightblue" d="M1224.19,-75.46C1295.29,-64.38 1405.26,-47.02 1500.5,-31 1508.41,-29.67 1516.73,-28.24 1524.93,-26.81"/>
<polygon fill="midnightblue" stroke="midnightblue" points="1525.58,-30.25 1534.83,-25.07 1524.37,-23.35 1525.58,-30.25"/>
</g>
<!-- Node17 -->
<g id="node17" class="node">
<title>Node17</title>
<g id="a_node17"><a xlink:title=" ">
<polygon fill="white" stroke="#bfbfbf" points="1673,-0.5 1673,-30.5 1798,-30.5 1798,-0.5 1673,-0.5"/>
<text text-anchor="start" x="1681" y="-18.5" font-family="Helvetica,sans-Serif" font-size="10.00">boost/algorithm/string</text>
<text text-anchor="middle" x="1735.5" y="-7.5" font-family="Helvetica,sans-Serif" font-size="10.00">/split.hpp</text>
</a>
</g>
</g>
<!-- Node1&#45;&gt;Node17 -->
<g id="edge16" class="edge">
<title>Node1&#45;&gt;Node17</title>
<path fill="none" stroke="midnightblue" d="M1224.41,-81.06C1322.85,-72.76 1501.27,-56.02 1662.72,-31.2"/>
<polygon fill="midnightblue" stroke="midnightblue" points="1663.49,-34.62 1672.84,-29.63 1662.42,-27.7 1663.49,-34.62"/>
</g>
<!-- Node18 -->
<g id="node18" class="node">
<title>Node18</title>
<g id="a_node18"><a xlink:title=" ">
<polygon fill="white" stroke="#bfbfbf" points="1816,-0.5 1816,-30.5 1941,-30.5 1941,-0.5 1816,-0.5"/>
<text text-anchor="start" x="1824" y="-18.5" font-family="Helvetica,sans-Serif" font-size="10.00">boost/algorithm/string</text>
<text text-anchor="middle" x="1878.5" y="-7.5" font-family="Helvetica,sans-Serif" font-size="10.00">/classification.hpp</text>
</a>
</g>
</g>
<!-- Node1&#45;&gt;Node18 -->
<g id="edge17" class="edge">
<title>Node1&#45;&gt;Node18</title>
<path fill="none" stroke="midnightblue" d="M1224.33,-83.48C1344.9,-77.17 1589.73,-61.78 1805.9,-31.13"/>
<polygon fill="midnightblue" stroke="midnightblue" points="1806.45,-34.59 1815.85,-29.71 1805.45,-27.66 1806.45,-34.59"/>
</g>
<!-- Node19 -->
<g id="node19" class="node">
<title>Node19</title>
<g id="a_node19"><a xlink:title=" ">
<polygon fill="white" stroke="#bfbfbf" points="1959,-6 1959,-25 2132,-25 2132,-6 1959,-6"/>
<text text-anchor="middle" x="2045.5" y="-13" font-family="Helvetica,sans-Serif" font-size="10.00">boost/filesystem/operations.hpp</text>
</a>
</g>
</g>
<!-- Node1&#45;&gt;Node19 -->
<g id="edge18" class="edge">
<title>Node1&#45;&gt;Node19</title>
<path fill="none" stroke="midnightblue" d="M1224.22,-83.82C1366.1,-77.32 1684.14,-60.59 1950.5,-31 1961.66,-29.76 1973.51,-28.17 1984.93,-26.5"/>
<polygon fill="midnightblue" stroke="midnightblue" points="1985.45,-29.96 1994.82,-25.02 1984.41,-23.04 1985.45,-29.96"/>
</g>
<!-- Node20 -->
<g id="node20" class="node">
<title>Node20</title>
<g id="a_node20"><a xlink:title=" ">
<polygon fill="white" stroke="#bfbfbf" points="2150.5,-6 2150.5,-25 2310.5,-25 2310.5,-6 2150.5,-6"/>
<text text-anchor="middle" x="2230.5" y="-13" font-family="Helvetica,sans-Serif" font-size="10.00">boost/filesystem/fstream.hpp</text>
</a>
</g>
</g>
<!-- Node1&#45;&gt;Node20 -->
<g id="edge19" class="edge">
<title>Node1&#45;&gt;Node20</title>
<path fill="none" stroke="midnightblue" d="M1224.07,-85.47C1389.6,-81.48 1800.05,-68.35 2141.5,-31 2152,-29.85 2163.14,-28.3 2173.86,-26.64"/>
<polygon fill="midnightblue" stroke="midnightblue" points="2174.65,-30.06 2183.97,-25.03 2173.55,-23.15 2174.65,-30.06"/>
</g>
<!-- Node21 -->
<g id="node21" class="node">
<title>Node21</title>
<g id="a_node21"><a xlink:href="feel_8hpp.html" target="_top" xlink:title="&#45;*&#45; mode: c++; coding: utf&#45;8; tab&#45;width: 4; indent&#45;tabs&#45;mode: nil; c&#45;basic&#45;offset: 4; show&#45;trailing&#45;w...">
<polygon fill="white" stroke="black" points="2329,-6 2329,-25 2450,-25 2450,-6 2329,-6"/>
<text text-anchor="middle" x="2389.5" y="-13" font-family="Helvetica,sans-Serif" font-size="10.00">feel/feelcore/feel.hpp</text>
</a>
</g>
</g>
<!-- Node1&#45;&gt;Node21 -->
<g id="edge20" class="edge">
<title>Node1&#45;&gt;Node21</title>
<path fill="none" stroke="midnightblue" d="M1224.11,-87.46C1409.95,-87.74 1908.19,-83.12 2319.5,-31 2327.38,-30 2335.69,-28.6 2343.73,-27.05"/>
<polygon fill="midnightblue" stroke="midnightblue" points="2344.6,-30.45 2353.71,-25.04 2343.22,-23.58 2344.6,-30.45"/>
</g>
<!-- Node22 -->
<g id="node22" class="node">
<title>Node22</title>
<g id="a_node22"><a xlink:href="environment_8hpp.html" target="_top" xlink:title="&#45;*&#45; mode: c++; coding: utf&#45;8; tab&#45;width: 4; indent&#45;tabs&#45;mode: nil; c&#45;basic&#45;offset: 4; show&#45;trailing&#45;w...">
<polygon fill="white" stroke="black" points="2468.5,-6 2468.5,-25 2632.5,-25 2632.5,-6 2468.5,-6"/>
<text text-anchor="middle" x="2550.5" y="-13" font-family="Helvetica,sans-Serif" font-size="10.00">feel/feelcore/environment.hpp</text>
</a>
</g>
</g>
<!-- Node1&#45;&gt;Node22 -->
<g id="edge21" class="edge">
<title>Node1&#45;&gt;Node22</title>
<path fill="none" stroke="midnightblue" d="M1224.3,-86.82C1424.88,-85.67 1991.23,-78.16 2459.5,-31 2470.47,-29.9 2482.12,-28.33 2493.3,-26.64"/>
<polygon fill="midnightblue" stroke="midnightblue" points="2494.07,-30.07 2503.4,-25.06 2492.98,-23.15 2494.07,-30.07"/>
</g>
<!-- Node23 -->
<g id="node23" class="node">
<title>Node23</title>
<g id="a_node23"><a xlink:href="application_8hpp.html" target="_top" xlink:title=" ">
<polygon fill="white" stroke="black" points="2650.5,-6 2650.5,-25 2806.5,-25 2806.5,-6 2650.5,-6"/>
<text text-anchor="middle" x="2728.5" y="-13" font-family="Helvetica,sans-Serif" font-size="10.00">feel/feelcore/application.hpp</text>
</a>
</g>
</g>
<!-- Node1&#45;&gt;Node23 -->
<g id="edge22" class="edge">
<title>Node1&#45;&gt;Node23</title>
<path fill="none" stroke="midnightblue" d="M1224.25,-87.56C1442.9,-88.47 2099.95,-86.07 2641.5,-31 2652.01,-29.93 2663.16,-28.39 2673.86,-26.7"/>
<polygon fill="midnightblue" stroke="midnightblue" points="2674.64,-30.12 2683.94,-25.05 2673.51,-23.21 2674.64,-30.12"/>
</g>
<!-- Node24 -->
<g id="node24" class="node">
<title>Node24</title>
<g id="a_node24"><a xlink:href="mpicompat_8hpp.html" target="_top" xlink:title=" ">
<polygon fill="white" stroke="black" points="2824.5,-6 2824.5,-25 2982.5,-25 2982.5,-6 2824.5,-6"/>
<text text-anchor="middle" x="2903.5" y="-13" font-family="Helvetica,sans-Serif" font-size="10.00">feel/feelcore/mpicompat.hpp</text>
</a>
</g>
</g>
<!-- Node1&#45;&gt;Node24 -->
<g id="edge23" class="edge">
<title>Node1&#45;&gt;Node24</title>
<path fill="none" stroke="midnightblue" d="M1224.08,-85.78C1505.12,-80.99 2500.14,-62.15 2815.5,-31 2826.35,-29.93 2837.9,-28.35 2848.93,-26.62"/>
<polygon fill="midnightblue" stroke="midnightblue" points="2849.57,-30.06 2858.88,-25 2848.45,-23.15 2849.57,-30.06"/>
</g>
</g>
</svg>
