<?xml version="1.0" encoding="UTF-8" standalone="no"?>
<!DOCTYPE svg PUBLIC "-//W3C//DTD SVG 1.1//EN"
 "http://www.w3.org/Graphics/SVG/1.1/DTD/svg11.dtd">
<!-- Generated by graphviz version 2.43.0 (0)
 -->
<!-- Title: /data/cemosis/github&#45;actions&#45;runner/actions&#45;runner&#45;4/_work/feelpp/feelpp/feelpp/feel/feelcore/applicationxml.cpp Pages: 1 -->
<svg width="183pt" height="128pt"
 viewBox="0.00 0.00 183.00 128.00" xmlns="http://www.w3.org/2000/svg" xmlns:xlink="http://www.w3.org/1999/xlink">
<g id="graph0" class="graph" transform="scale(1 1) rotate(0) translate(4 124)">
<title>/data/cemosis/github&#45;actions&#45;runner/actions&#45;runner&#45;4/_work/feelpp/feelpp/feelpp/feel/feelcore/applicationxml.cpp</title>
<polygon fill="white" stroke="transparent" points="-4,4 -4,-124 179,-124 179,4 -4,4"/>
<!-- Node1 -->
<g id="node1" class="node">
<title>Node1</title>
<g id="a_node1"><a xlink:title=" ">
<polygon fill="#bfbfbf" stroke="black" points="13,-56.5 13,-119.5 162,-119.5 162,-56.5 13,-56.5"/>
<text text-anchor="start" x="21" y="-107.5" font-family="Helvetica,sans-Serif" font-size="10.00">/data/cemosis/github</text>
<text text-anchor="start" x="21" y="-96.5" font-family="Helvetica,sans-Serif" font-size="10.00">&#45;actions&#45;runner/actions</text>
<text text-anchor="start" x="21" y="-85.5" font-family="Helvetica,sans-Serif" font-size="10.00">&#45;runner&#45;4/_work/feelpp</text>
<text text-anchor="start" x="21" y="-74.5" font-family="Helvetica,sans-Serif" font-size="10.00">/feelpp/feelpp/feel/feelcore</text>
<text text-anchor="middle" x="87.5" y="-63.5" font-family="Helvetica,sans-Serif" font-size="10.00">/applicationxml.cpp</text>
</a>
</g>
</g>
<!-- Node2 -->
<g id="node2" class="node">
<title>Node2</title>
<g id="a_node2"><a xlink:href="applicationxml_8hpp.html" target="_top" xlink:title=" ">
<polygon fill="white" stroke="black" points="0,-0.5 0,-19.5 175,-19.5 175,-0.5 0,-0.5"/>
<text text-anchor="middle" x="87.5" y="-7.5" font-family="Helvetica,sans-Serif" font-size="10.00">feel/feelcore/applicationxml.hpp</text>
</a>
</g>
</g>
<!-- Node1&#45;&gt;Node2 -->
<g id="edge1" class="edge">
<title>Node1&#45;&gt;Node2</title>
<path fill="none" stroke="midnightblue" d="M87.5,-56.09C87.5,-47.15 87.5,-37.67 87.5,-29.72"/>
<polygon fill="midnightblue" stroke="midnightblue" points="91,-29.72 87.5,-19.72 84,-29.72 91,-29.72"/>
</g>
</g>
</svg>
