<?xml version="1.0" encoding="UTF-8" standalone="no"?>
<!DOCTYPE svg PUBLIC "-//W3C//DTD SVG 1.1//EN"
 "http://www.w3.org/Graphics/SVG/1.1/DTD/svg11.dtd">
<!-- Generated by graphviz version 2.43.0 (0)
 -->
<!-- Title: /home/runner/work/feelpp/feelpp/feelpp/feel/feelcore/applicationxml.cpp Pages: 1 -->
<svg width="553pt" height="106pt"
 viewBox="0.00 0.00 552.50 106.00" xmlns="http://www.w3.org/2000/svg" xmlns:xlink="http://www.w3.org/1999/xlink">
<g id="graph0" class="graph" transform="scale(1 1) rotate(0) translate(4 102)">
<title>/home/runner/work/feelpp/feelpp/feelpp/feel/feelcore/applicationxml.cpp</title>
<polygon fill="white" stroke="transparent" points="-4,4 -4,-102 548.5,-102 548.5,4 -4,4"/>
<!-- Node1 -->
<g id="node1" class="node">
<title>Node1</title>
<g id="a_node1"><a xlink:title=" ">
<polygon fill="#bfbfbf" stroke="black" points="205,-56.5 205,-97.5 354,-97.5 354,-56.5 205,-56.5"/>
<text text-anchor="start" x="213" y="-85.5" font-family="Helvetica,sans-Serif" font-size="10.00">/home/runner/work/feelpp</text>
<text text-anchor="start" x="213" y="-74.5" font-family="Helvetica,sans-Serif" font-size="10.00">/feelpp/feelpp/feel/feelcore</text>
<text text-anchor="middle" x="279.5" y="-63.5" font-family="Helvetica,sans-Serif" font-size="10.00">/applicationxml.cpp</text>
</a>
</g>
</g>
<!-- Node2 -->
<g id="node2" class="node">
<title>Node2</title>
<g id="a_node2"><a xlink:href="applicationxml_8hpp.html" target="_top" xlink:title=" ">
<polygon fill="white" stroke="black" points="0,-0.5 0,-19.5 175,-19.5 175,-0.5 0,-0.5"/>
<text text-anchor="middle" x="87.5" y="-7.5" font-family="Helvetica,sans-Serif" font-size="10.00">feel/feelcore/applicationxml.hpp</text>
</a>
</g>
</g>
<!-- Node1&#45;&gt;Node2 -->
<g id="edge1" class="edge">
<title>Node1&#45;&gt;Node2</title>
<path fill="none" stroke="midnightblue" d="M221.89,-56.5C189.63,-45.57 150.43,-32.3 122.72,-22.92"/>
<polygon fill="midnightblue" stroke="midnightblue" points="123.65,-19.54 113.06,-19.65 121.41,-26.17 123.65,-19.54"/>
</g>
<!-- Node3 -->
<g id="node3" class="node">
<title>Node3</title>
<g id="a_node3"><a xlink:title=" ">
<polygon fill="white" stroke="#bfbfbf" points="193,-0.5 193,-19.5 366,-19.5 366,-0.5 193,-0.5"/>
<text text-anchor="middle" x="279.5" y="-7.5" font-family="Helvetica,sans-Serif" font-size="10.00">boost/filesystem/operations.hpp</text>
</a>
</g>
</g>
<!-- Node1&#45;&gt;Node3 -->
<g id="edge2" class="edge">
<title>Node1&#45;&gt;Node3</title>
<path fill="none" stroke="midnightblue" d="M279.5,-56.5C279.5,-48.07 279.5,-38.24 279.5,-29.87"/>
<polygon fill="midnightblue" stroke="midnightblue" points="283,-29.65 279.5,-19.65 276,-29.65 283,-29.65"/>
</g>
<!-- Node4 -->
<g id="node4" class="node">
<title>Node4</title>
<g id="a_node4"><a xlink:title=" ">
<polygon fill="white" stroke="#bfbfbf" points="384.5,-0.5 384.5,-19.5 544.5,-19.5 544.5,-0.5 384.5,-0.5"/>
<text text-anchor="middle" x="464.5" y="-7.5" font-family="Helvetica,sans-Serif" font-size="10.00">boost/filesystem/fstream.hpp</text>
</a>
</g>
</g>
<!-- Node1&#45;&gt;Node4 -->
<g id="edge3" class="edge">
<title>Node1&#45;&gt;Node4</title>
<path fill="none" stroke="midnightblue" d="M335.01,-56.5C365.96,-45.62 403.53,-32.42 430.22,-23.05"/>
<polygon fill="midnightblue" stroke="midnightblue" points="431.6,-26.27 439.87,-19.65 429.28,-19.67 431.6,-26.27"/>
</g>
</g>
</svg>
