<?xml version="1.0" encoding="UTF-8" standalone="no"?>
<!DOCTYPE svg PUBLIC "-//W3C//DTD SVG 1.1//EN"
 "http://www.w3.org/Graphics/SVG/1.1/DTD/svg11.dtd">
<!-- Generated by graphviz version 2.43.0 (0)
 -->
<!-- Title: /nvme0/prudhomm/actions&#45;runner/_work/feelpp/feelpp/feelpp/feel/feelcore/checker.cpp Pages: 1 -->
<svg width="1209pt" height="117pt"
 viewBox="0.00 0.00 1209.00 117.00" xmlns="http://www.w3.org/2000/svg" xmlns:xlink="http://www.w3.org/1999/xlink">
<g id="graph0" class="graph" transform="scale(1 1) rotate(0) translate(4 113)">
<title>/nvme0/prudhomm/actions&#45;runner/_work/feelpp/feelpp/feelpp/feel/feelcore/checker.cpp</title>
<polygon fill="white" stroke="transparent" points="-4,4 -4,-113 1205,-113 1205,4 -4,4"/>
<!-- Node1 -->
<g id="node1" class="node">
<title>Node1</title>
<g id="a_node1"><a xlink:title="&#45;*&#45; mode: c++; coding: utf&#45;8; tab&#45;width: 4; indent&#45;tabs&#45;mode: nil; c&#45;basic&#45;offset: 4; show&#45;trailing&#45;w...">
<polygon fill="#bfbfbf" stroke="black" points="591,-67.5 591,-108.5 767,-108.5 767,-67.5 591,-67.5"/>
<text text-anchor="start" x="599" y="-96.5" font-family="Helvetica,sans-Serif" font-size="10.00">/nvme0/prudhomm/actions</text>
<text text-anchor="start" x="599" y="-85.5" font-family="Helvetica,sans-Serif" font-size="10.00">&#45;runner/_work/feelpp/feelpp</text>
<text text-anchor="middle" x="679" y="-74.5" font-family="Helvetica,sans-Serif" font-size="10.00">/feelpp/feel/feelcore/checker.cpp</text>
</a>
</g>
</g>
<!-- Node2 -->
<g id="node2" class="node">
<title>Node2</title>
<g id="a_node2"><a xlink:title=" ">
<polygon fill="white" stroke="#bfbfbf" points="0,-6 0,-25 146,-25 146,-6 0,-6"/>
<text text-anchor="middle" x="73" y="-13" font-family="Helvetica,sans-Serif" font-size="10.00">boost/algorithm/string.hpp</text>
</a>
</g>
</g>
<!-- Node1&#45;&gt;Node2 -->
<g id="edge1" class="edge">
<title>Node1&#45;&gt;Node2</title>
<path fill="none" stroke="midnightblue" d="M590.69,-79.42C486.35,-70.04 307.64,-52.63 155,-31 146.26,-29.76 137.03,-28.29 128.04,-26.77"/>
<polygon fill="midnightblue" stroke="midnightblue" points="128.48,-23.29 118.02,-25.03 127.28,-30.19 128.48,-23.29"/>
</g>
<!-- Node3 -->
<g id="node3" class="node">
<title>Node3</title>
<g id="a_node3"><a xlink:title=" ">
<polygon fill="white" stroke="#bfbfbf" points="164.5,-0.5 164.5,-30.5 277.5,-30.5 277.5,-0.5 164.5,-0.5"/>
<text text-anchor="start" x="172.5" y="-18.5" font-family="Helvetica,sans-Serif" font-size="10.00">boost/property_tree</text>
<text text-anchor="middle" x="221" y="-7.5" font-family="Helvetica,sans-Serif" font-size="10.00">/json_parser.hpp</text>
</a>
</g>
</g>
<!-- Node1&#45;&gt;Node3 -->
<g id="edge2" class="edge">
<title>Node1&#45;&gt;Node3</title>
<path fill="none" stroke="midnightblue" d="M590.74,-76.3C513.42,-66.48 397.85,-50.75 287.78,-31.06"/>
<polygon fill="midnightblue" stroke="midnightblue" points="288.29,-27.6 277.83,-29.27 287.05,-34.48 288.29,-27.6"/>
</g>
<!-- Node4 -->
<g id="node4" class="node">
<title>Node4</title>
<g id="a_node4"><a xlink:href="checker_8hpp.html" target="_top" xlink:title="&#45;*&#45; mode: c++; coding: utf&#45;8; tab&#45;width: 4; indent&#45;tabs&#45;mode: nil; c&#45;basic&#45;offset: 4; show&#45;trailing&#45;w...">
<polygon fill="white" stroke="black" points="296,-6 296,-25 436,-25 436,-6 296,-6"/>
<text text-anchor="middle" x="366" y="-13" font-family="Helvetica,sans-Serif" font-size="10.00">feel/feelcore/checker.hpp</text>
</a>
</g>
</g>
<!-- Node1&#45;&gt;Node4 -->
<g id="edge3" class="edge">
<title>Node1&#45;&gt;Node4</title>
<path fill="none" stroke="midnightblue" d="M592.23,-67.46C534.58,-54.47 461.07,-37.91 413.77,-27.26"/>
<polygon fill="midnightblue" stroke="midnightblue" points="414.32,-23.8 403.8,-25.01 412.78,-30.62 414.32,-23.8"/>
</g>
<!-- Node5 -->
<g id="node5" class="node">
<title>Node5</title>
<g id="a_node5"><a xlink:title=" ">
<polygon fill="white" stroke="#bfbfbf" points="454,-6 454,-25 592,-25 592,-6 454,-6"/>
<text text-anchor="middle" x="523" y="-13" font-family="Helvetica,sans-Serif" font-size="10.00">feel/feelmath/polyfit.hpp</text>
</a>
</g>
</g>
<!-- Node1&#45;&gt;Node5 -->
<g id="edge4" class="edge">
<title>Node1&#45;&gt;Node5</title>
<path fill="none" stroke="midnightblue" d="M635.55,-67.36C608.72,-55.24 575.07,-40.03 551.59,-29.42"/>
<polygon fill="midnightblue" stroke="midnightblue" points="552.75,-26.1 542.19,-25.17 549.86,-32.48 552.75,-26.1"/>
</g>
<!-- Node6 -->
<g id="node6" class="node">
<title>Node6</title>
<g id="a_node6"><a xlink:title=" ">
<polygon fill="white" stroke="#bfbfbf" points="610.5,-6 610.5,-25 747.5,-25 747.5,-6 610.5,-6"/>
<text text-anchor="middle" x="679" y="-13" font-family="Helvetica,sans-Serif" font-size="10.00">feel/feelmath/vector.hpp</text>
</a>
</g>
</g>
<!-- Node1&#45;&gt;Node6 -->
<g id="edge5" class="edge">
<title>Node1&#45;&gt;Node6</title>
<path fill="none" stroke="midnightblue" d="M679,-67.36C679,-57.3 679,-45.1 679,-35.18"/>
<polygon fill="midnightblue" stroke="midnightblue" points="682.5,-35.17 679,-25.17 675.5,-35.17 682.5,-35.17"/>
</g>
<!-- Node7 -->
<g id="node7" class="node">
<title>Node7</title>
<g id="a_node7"><a xlink:title=" ">
<polygon fill="white" stroke="#bfbfbf" points="765.5,-6 765.5,-25 914.5,-25 914.5,-6 765.5,-6"/>
<text text-anchor="middle" x="840" y="-13" font-family="Helvetica,sans-Serif" font-size="10.00">feel/feelpython/pyexpr.hpp</text>
</a>
</g>
</g>
<!-- Node1&#45;&gt;Node7 -->
<g id="edge6" class="edge">
<title>Node1&#45;&gt;Node7</title>
<path fill="none" stroke="midnightblue" d="M723.85,-67.36C751.65,-55.19 786.57,-39.9 810.82,-29.28"/>
<polygon fill="midnightblue" stroke="midnightblue" points="812.44,-32.39 820.19,-25.17 809.63,-25.98 812.44,-32.39"/>
</g>
<!-- Node8 -->
<g id="node8" class="node">
<title>Node8</title>
<g id="a_node8"><a xlink:title=" ">
<polygon fill="white" stroke="#bfbfbf" points="932.5,-6 932.5,-25 999.5,-25 999.5,-6 932.5,-6"/>
<text text-anchor="middle" x="966" y="-13" font-family="Helvetica,sans-Serif" font-size="10.00">fmt/core.h</text>
</a>
</g>
</g>
<!-- Node1&#45;&gt;Node8 -->
<g id="edge7" class="edge">
<title>Node1&#45;&gt;Node8</title>
<path fill="none" stroke="midnightblue" d="M767.18,-69.25C814.07,-59.21 872.51,-45.73 924,-31 926.95,-30.16 929.99,-29.23 933.03,-28.26"/>
<polygon fill="midnightblue" stroke="midnightblue" points="934.21,-31.55 942.6,-25.08 932,-24.91 934.21,-31.55"/>
</g>
<!-- Node9 -->
<g id="node9" class="node">
<title>Node9</title>
<g id="a_node9"><a xlink:title=" ">
<polygon fill="white" stroke="#bfbfbf" points="1017.5,-6 1017.5,-25 1096.5,-25 1096.5,-6 1017.5,-6"/>
<text text-anchor="middle" x="1057" y="-13" font-family="Helvetica,sans-Serif" font-size="10.00">fmt/format.h</text>
</a>
</g>
</g>
<!-- Node1&#45;&gt;Node9 -->
<g id="edge8" class="edge">
<title>Node1&#45;&gt;Node9</title>
<path fill="none" stroke="midnightblue" d="M767.14,-75.11C833.96,-65.36 927.82,-50.07 1009,-31 1012.94,-30.07 1017.03,-29.01 1021.09,-27.88"/>
<polygon fill="midnightblue" stroke="midnightblue" points="1022.38,-31.15 1031,-25 1020.42,-24.43 1022.38,-31.15"/>
</g>
<!-- Node10 -->
<g id="node10" class="node">
<title>Node10</title>
<g id="a_node10"><a xlink:title=" ">
<polygon fill="white" stroke="#bfbfbf" points="1115,-6 1115,-25 1201,-25 1201,-6 1115,-6"/>
<text text-anchor="middle" x="1158" y="-13" font-family="Helvetica,sans-Serif" font-size="10.00">fmt/ostream.h</text>
</a>
</g>
</g>
<!-- Node1&#45;&gt;Node10 -->
<g id="edge9" class="edge">
<title>Node1&#45;&gt;Node10</title>
<path fill="none" stroke="midnightblue" d="M767.11,-79.12C853.87,-70.5 989.88,-54.68 1106,-31 1110.69,-30.04 1115.58,-28.89 1120.4,-27.66"/>
<polygon fill="midnightblue" stroke="midnightblue" points="1121.36,-31.03 1130.11,-25.06 1119.55,-24.27 1121.36,-31.03"/>
</g>
</g>
</svg>
