<?xml version="1.0" encoding="UTF-8" standalone="no"?>
<!DOCTYPE svg PUBLIC "-//W3C//DTD SVG 1.1//EN"
 "http://www.w3.org/Graphics/SVG/1.1/DTD/svg11.dtd">
<!-- Generated by graphviz version 2.43.0 (0)
 -->
<!-- Title: /data/cemosis/github&#45;actions&#45;runner/actions&#45;runner&#45;4/_work/feelpp/feelpp/feelpp/feel/feelcore/checker.cpp Pages: 1 -->
<svg width="1209pt" height="139pt"
 viewBox="0.00 0.00 1209.00 139.00" xmlns="http://www.w3.org/2000/svg" xmlns:xlink="http://www.w3.org/1999/xlink">
<g id="graph0" class="graph" transform="scale(1 1) rotate(0) translate(4 135)">
<title>/data/cemosis/github&#45;actions&#45;runner/actions&#45;runner&#45;4/_work/feelpp/feelpp/feelpp/feel/feelcore/checker.cpp</title>
<polygon fill="white" stroke="transparent" points="-4,4 -4,-135 1205,-135 1205,4 -4,4"/>
<!-- Node1 -->
<g id="node1" class="node">
<title>Node1</title>
<g id="a_node1"><a xlink:title="&#45;*&#45; mode: c++; coding: utf&#45;8; tab&#45;width: 4; indent&#45;tabs&#45;mode: nil; c&#45;basic&#45;offset: 4; show&#45;trailing&#45;w...">
<polygon fill="#bfbfbf" stroke="black" points="604.5,-67.5 604.5,-130.5 753.5,-130.5 753.5,-67.5 604.5,-67.5"/>
<text text-anchor="start" x="612.5" y="-118.5" font-family="Helvetica,sans-Serif" font-size="10.00">/data/cemosis/github</text>
<text text-anchor="start" x="612.5" y="-107.5" font-family="Helvetica,sans-Serif" font-size="10.00">&#45;actions&#45;runner/actions</text>
<text text-anchor="start" x="612.5" y="-96.5" font-family="Helvetica,sans-Serif" font-size="10.00">&#45;runner&#45;4/_work/feelpp</text>
<text text-anchor="start" x="612.5" y="-85.5" font-family="Helvetica,sans-Serif" font-size="10.00">/feelpp/feelpp/feel/feelcore</text>
<text text-anchor="middle" x="679" y="-74.5" font-family="Helvetica,sans-Serif" font-size="10.00">/checker.cpp</text>
</a>
</g>
</g>
<!-- Node2 -->
<g id="node2" class="node">
<title>Node2</title>
<g id="a_node2"><a xlink:title=" ">
<polygon fill="white" stroke="#bfbfbf" points="0,-6 0,-25 146,-25 146,-6 0,-6"/>
<text text-anchor="middle" x="73" y="-13" font-family="Helvetica,sans-Serif" font-size="10.00">boost/algorithm/string.hpp</text>
</a>
</g>
</g>
<!-- Node1&#45;&gt;Node2 -->
<g id="edge1" class="edge">
<title>Node1&#45;&gt;Node2</title>
<path fill="none" stroke="midnightblue" d="M604.22,-89.58C502.41,-77.85 314.58,-55.3 155,-31 146.58,-29.72 137.69,-28.26 128.99,-26.77"/>
<polygon fill="midnightblue" stroke="midnightblue" points="129.36,-23.28 118.91,-25.02 128.16,-30.18 129.36,-23.28"/>
</g>
<!-- Node3 -->
<g id="node3" class="node">
<title>Node3</title>
<g id="a_node3"><a xlink:title=" ">
<polygon fill="white" stroke="#bfbfbf" points="164.5,-0.5 164.5,-30.5 277.5,-30.5 277.5,-0.5 164.5,-0.5"/>
<text text-anchor="start" x="172.5" y="-18.5" font-family="Helvetica,sans-Serif" font-size="10.00">boost/property_tree</text>
<text text-anchor="middle" x="221" y="-7.5" font-family="Helvetica,sans-Serif" font-size="10.00">/json_parser.hpp</text>
</a>
</g>
</g>
<!-- Node1&#45;&gt;Node3 -->
<g id="edge2" class="edge">
<title>Node1&#45;&gt;Node3</title>
<path fill="none" stroke="midnightblue" d="M604.39,-86.32C527.62,-74.05 404.34,-53.69 288,-31.14"/>
<polygon fill="midnightblue" stroke="midnightblue" points="288.33,-27.64 277.85,-29.17 286.99,-34.51 288.33,-27.64"/>
</g>
<!-- Node4 -->
<g id="node4" class="node">
<title>Node4</title>
<g id="a_node4"><a xlink:href="checker_8hpp.html" target="_top" xlink:title="&#45;*&#45; mode: c++; coding: utf&#45;8; tab&#45;width: 4; indent&#45;tabs&#45;mode: nil; c&#45;basic&#45;offset: 4; show&#45;trailing&#45;w...">
<polygon fill="white" stroke="black" points="296,-6 296,-25 436,-25 436,-6 296,-6"/>
<text text-anchor="middle" x="366" y="-13" font-family="Helvetica,sans-Serif" font-size="10.00">feel/feelcore/checker.hpp</text>
</a>
</g>
</g>
<!-- Node1&#45;&gt;Node4 -->
<g id="edge3" class="edge">
<title>Node1&#45;&gt;Node4</title>
<path fill="none" stroke="midnightblue" d="M604.43,-78.58C543.36,-62.68 459.11,-40.74 408.84,-27.65"/>
<polygon fill="midnightblue" stroke="midnightblue" points="409.51,-24.21 398.95,-25.08 407.74,-30.99 409.51,-24.21"/>
</g>
<!-- Node5 -->
<g id="node5" class="node">
<title>Node5</title>
<g id="a_node5"><a xlink:title=" ">
<polygon fill="white" stroke="#bfbfbf" points="454,-6 454,-25 592,-25 592,-6 454,-6"/>
<text text-anchor="middle" x="523" y="-13" font-family="Helvetica,sans-Serif" font-size="10.00">feel/feelmath/polyfit.hpp</text>
</a>
</g>
</g>
<!-- Node1&#45;&gt;Node5 -->
<g id="edge4" class="edge">
<title>Node1&#45;&gt;Node5</title>
<path fill="none" stroke="midnightblue" d="M620.47,-67.42C595.62,-54.44 567.95,-39.98 548.46,-29.8"/>
<polygon fill="midnightblue" stroke="midnightblue" points="549.82,-26.56 539.34,-25.03 546.58,-32.77 549.82,-26.56"/>
</g>
<!-- Node6 -->
<g id="node6" class="node">
<title>Node6</title>
<g id="a_node6"><a xlink:title=" ">
<polygon fill="white" stroke="#bfbfbf" points="610.5,-6 610.5,-25 747.5,-25 747.5,-6 610.5,-6"/>
<text text-anchor="middle" x="679" y="-13" font-family="Helvetica,sans-Serif" font-size="10.00">feel/feelmath/vector.hpp</text>
</a>
</g>
</g>
<!-- Node1&#45;&gt;Node6 -->
<g id="edge5" class="edge">
<title>Node1&#45;&gt;Node6</title>
<path fill="none" stroke="midnightblue" d="M679,-67.19C679,-56.55 679,-44.95 679,-35.53"/>
<polygon fill="midnightblue" stroke="midnightblue" points="682.5,-35.34 679,-25.34 675.5,-35.34 682.5,-35.34"/>
</g>
<!-- Node7 -->
<g id="node7" class="node">
<title>Node7</title>
<g id="a_node7"><a xlink:title=" ">
<polygon fill="white" stroke="#bfbfbf" points="765.5,-6 765.5,-25 914.5,-25 914.5,-6 765.5,-6"/>
<text text-anchor="middle" x="840" y="-13" font-family="Helvetica,sans-Serif" font-size="10.00">feel/feelpython/pyexpr.hpp</text>
</a>
</g>
</g>
<!-- Node1&#45;&gt;Node7 -->
<g id="edge6" class="edge">
<title>Node1&#45;&gt;Node7</title>
<path fill="none" stroke="midnightblue" d="M739.41,-67.42C765.17,-54.38 793.87,-39.85 814,-29.66"/>
<polygon fill="midnightblue" stroke="midnightblue" points="815.8,-32.67 823.14,-25.03 812.64,-26.43 815.8,-32.67"/>
</g>
<!-- Node8 -->
<g id="node8" class="node">
<title>Node8</title>
<g id="a_node8"><a xlink:title=" ">
<polygon fill="white" stroke="#bfbfbf" points="932.5,-6 932.5,-25 999.5,-25 999.5,-6 932.5,-6"/>
<text text-anchor="middle" x="966" y="-13" font-family="Helvetica,sans-Serif" font-size="10.00">fmt/core.h</text>
</a>
</g>
</g>
<!-- Node1&#45;&gt;Node8 -->
<g id="edge7" class="edge">
<title>Node1&#45;&gt;Node8</title>
<path fill="none" stroke="midnightblue" d="M753.61,-78.95C802.34,-66.18 867.23,-48.54 924,-31 926.76,-30.15 929.62,-29.23 932.48,-28.29"/>
<polygon fill="midnightblue" stroke="midnightblue" points="933.74,-31.56 942.1,-25.05 931.51,-24.93 933.74,-31.56"/>
</g>
<!-- Node9 -->
<g id="node9" class="node">
<title>Node9</title>
<g id="a_node9"><a xlink:title=" ">
<polygon fill="white" stroke="#bfbfbf" points="1017.5,-6 1017.5,-25 1096.5,-25 1096.5,-6 1017.5,-6"/>
<text text-anchor="middle" x="1057" y="-13" font-family="Helvetica,sans-Serif" font-size="10.00">fmt/format.h</text>
</a>
</g>
</g>
<!-- Node1&#45;&gt;Node9 -->
<g id="edge8" class="edge">
<title>Node1&#45;&gt;Node9</title>
<path fill="none" stroke="midnightblue" d="M753.82,-84.86C821,-72.58 922.12,-52.89 1009,-31 1012.68,-30.07 1016.49,-29.04 1020.29,-27.97"/>
<polygon fill="midnightblue" stroke="midnightblue" points="1021.59,-31.24 1030.21,-25.07 1019.63,-24.52 1021.59,-31.24"/>
</g>
<!-- Node10 -->
<g id="node10" class="node">
<title>Node10</title>
<g id="a_node10"><a xlink:title=" ">
<polygon fill="white" stroke="#bfbfbf" points="1115,-6 1115,-25 1201,-25 1201,-6 1115,-6"/>
<text text-anchor="middle" x="1158" y="-13" font-family="Helvetica,sans-Serif" font-size="10.00">fmt/ostream.h</text>
</a>
</g>
</g>
<!-- Node1&#45;&gt;Node10 -->
<g id="edge9" class="edge">
<title>Node1&#45;&gt;Node10</title>
<path fill="none" stroke="midnightblue" d="M753.54,-88.98C839.14,-78 983.54,-57.59 1106,-31 1110.5,-30.02 1115.19,-28.89 1119.83,-27.69"/>
<polygon fill="midnightblue" stroke="midnightblue" points="1121.06,-30.98 1129.81,-25 1119.25,-24.22 1121.06,-30.98"/>
</g>
</g>
</svg>
