<?xml version="1.0" encoding="UTF-8" standalone="no"?>
<!DOCTYPE svg PUBLIC "-//W3C//DTD SVG 1.1//EN"
 "http://www.w3.org/Graphics/SVG/1.1/DTD/svg11.dtd">
<!-- Generated by graphviz version 2.43.0 (0)
 -->
<!-- Title: Feel::DofTable&lt; MeshType, FEType, PeriodicityType, MortarType &gt; Pages: 1 -->
<!--zoomable 596 -->
<svg id="main" version="1.1" xmlns="http://www.w3.org/2000/svg" xmlns:xlink="http://www.w3.org/1999/xlink" xml:space="preserve" onload="init(evt)">
<style type="text/css"><![CDATA[
.edge:hover path { stroke: red; }
.edge:hover polygon { stroke: red; fill: red; }
]]></style>
<script type="text/javascript"><![CDATA[
var edges = document.getElementsByTagName('g');
if (edges && edges.length) {
  for (var i=0;i<edges.length;i++) {
    if (edges[i].id.substr(0,4)=='edge') {
      edges[i].setAttribute('class','edge');
    }
  }
}
]]></script>
        <defs>
                <circle id="rim" cx="0" cy="0" r="7"/>
                <circle id="rim2" cx="0" cy="0" r="3.5"/>
                <g id="zoomPlus">
                        <use xlink:href="#rim" fill="#404040">
                                <set attributeName="fill" to="#808080" begin="zoomplus.mouseover" end="zoomplus.mouseout"/>
                        </use>
                        <path d="M-4,0h8M0,-4v8" fill="none" stroke="white" stroke-width="1.5" pointer-events="none"/>
                </g>
                <g id="zoomMin">
                        <use xlink:href="#rim" fill="#404040">
                                <set attributeName="fill" to="#808080" begin="zoomminus.mouseover" end="zoomminus.mouseout"/>
                        </use>
                        <path d="M-4,0h8" fill="none" stroke="white" stroke-width="1.5" pointer-events="none"/>
                </g>
                <g id="dirArrow">
                        <path fill="none" stroke="white" stroke-width="1.5" d="M0,-3.0v7 M-2.5,-0.5L0,-3.0L2.5,-0.5"/>
                </g>
               <g id="resetDef">
                       <use xlink:href="#rim2" fill="#404040">
                               <set attributeName="fill" to="#808080" begin="reset.mouseover" end="reset.mouseout"/>
                       </use>
               </g>
        </defs>

<script type="text/javascript">
var viewWidth = 417;
var viewHeight = 596;
var sectionId = 'dynsection-1';
</script>
<script xlink:href="svgpan.js"/>
<svg id="graph" class="graph">
<g id="viewport">
<title>Feel::DofTable&lt; MeshType, FEType, PeriodicityType, MortarType &gt;</title>
<polygon fill="white" stroke="transparent" points="-4,4 -4,-592 413,-592 413,4 -4,4"/>
<!-- Node1 -->
<g id="node1" class="node">
<title>Node1</title>
<g id="a_node1"><a xlink:title="Local&#45;to&#45;global Degree of Freedom table.">
<polygon fill="#bfbfbf" stroke="black" points="102.5,-0.5 102.5,-178.5 251.5,-178.5 251.5,-0.5 102.5,-0.5"/>
<text text-anchor="start" x="110.5" y="-166.5" font-family="Helvetica,sans-Serif" font-size="10.00">Feel::DofTable&lt; MeshType,</text>
<text text-anchor="start" x="110.5" y="-155.5" font-family="Helvetica,sans-Serif" font-size="10.00"> FEType, PeriodicityType,</text>
<text text-anchor="middle" x="177" y="-144.5" font-family="Helvetica,sans-Serif" font-size="10.00"> MortarType &gt;</text>
<polyline fill="none" stroke="black" points="102.5,-137.5 251.5,-137.5 "/>
<text text-anchor="start" x="110.5" y="-125.5" font-family="Helvetica,sans-Serif" font-size="10.00">+ is_scalar</text>
<text text-anchor="start" x="110.5" y="-114.5" font-family="Helvetica,sans-Serif" font-size="10.00">+ is_tensor2</text>
<text text-anchor="start" x="110.5" y="-103.5" font-family="Helvetica,sans-Serif" font-size="10.00">+ is_tensor2symm</text>
<text text-anchor="start" x="110.5" y="-92.5" font-family="Helvetica,sans-Serif" font-size="10.00">+ is_vectorial</text>
<polyline fill="none" stroke="black" points="102.5,-85.5 251.5,-85.5 "/>
<text text-anchor="start" x="110.5" y="-73.5" font-family="Helvetica,sans-Serif" font-size="10.00">+ beginPeriodicElements()</text>
<text text-anchor="start" x="110.5" y="-62.5" font-family="Helvetica,sans-Serif" font-size="10.00">+ build()</text>
<text text-anchor="start" x="110.5" y="-51.5" font-family="Helvetica,sans-Serif" font-size="10.00">+ build()</text>
<text text-anchor="start" x="110.5" y="-40.5" font-family="Helvetica,sans-Serif" font-size="10.00">+ build()</text>
<text text-anchor="start" x="110.5" y="-29.5" font-family="Helvetica,sans-Serif" font-size="10.00">+ buildBoundaryDofMap()</text>
<text text-anchor="start" x="110.5" y="-18.5" font-family="Helvetica,sans-Serif" font-size="10.00">and 94 more...</text>
<text text-anchor="start" x="110.5" y="-7.5" font-family="Helvetica,sans-Serif" font-size="10.00">+ nDofComponents()</text>
</a>
</g>
</g>
<!-- Node2 -->
<g id="node2" class="node">
<title>Node2</title>
<g id="a_node2"><a xlink:href="classFeel_1_1DofTableBase.html" target="_top" xlink:title=" ">
<polygon fill="white" stroke="#bfbfbf" points="0,-358.5 0,-481.5 140,-481.5 140,-358.5 0,-358.5"/>
<text text-anchor="start" x="8" y="-469.5" font-family="Helvetica,sans-Serif" font-size="10.00">Feel::DofTableBase</text>
<text text-anchor="middle" x="70" y="-458.5" font-family="Helvetica,sans-Serif" font-size="10.00">&lt; MeshType::size_type &gt;</text>
<polyline fill="none" stroke="#bfbfbf" points="0,-451.5 140,-451.5 "/>
<text text-anchor="middle" x="70" y="-439.5" font-family="Helvetica,sans-Serif" font-size="10.00"> </text>
<polyline fill="none" stroke="#bfbfbf" points="0,-432.5 140,-432.5 "/>
<text text-anchor="start" x="8" y="-420.5" font-family="Helvetica,sans-Serif" font-size="10.00">+ DofTableBase()</text>
<text text-anchor="start" x="8" y="-409.5" font-family="Helvetica,sans-Serif" font-size="10.00">+ DofTableBase()</text>
<text text-anchor="start" x="8" y="-398.5" font-family="Helvetica,sans-Serif" font-size="10.00">+ DofTableBase()</text>
<text text-anchor="start" x="8" y="-387.5" font-family="Helvetica,sans-Serif" font-size="10.00">+ DofTableBase()</text>
<text text-anchor="start" x="8" y="-376.5" font-family="Helvetica,sans-Serif" font-size="10.00">+ faceLocalToGlobal()</text>
<text text-anchor="start" x="8" y="-365.5" font-family="Helvetica,sans-Serif" font-size="10.00">and 5 more...</text>
</a>
</g>
</g>
<!-- Node2&#45;&gt;Node1 -->
<g id="edge1" class="edge">
<title>Node2&#45;&gt;Node1</title>
<path fill="none" stroke="midnightblue" d="M92.91,-348.66C109.1,-298.95 130.93,-231.94 148.29,-178.65"/>
<polygon fill="none" stroke="midnightblue" points="89.52,-347.77 89.75,-358.37 96.18,-349.94 89.52,-347.77"/>
</g>
<!-- Node3 -->
<g id="node3" class="node">
<title>Node3</title>
<g id="a_node3"><a xlink:title=" ">
<polygon fill="white" stroke="#bfbfbf" points="6.5,-519.5 6.5,-587.5 133.5,-587.5 133.5,-519.5 6.5,-519.5"/>
<text text-anchor="start" x="14.5" y="-575.5" font-family="Helvetica,sans-Serif" font-size="10.00">DataMap&lt; MeshType::</text>
<text text-anchor="middle" x="70" y="-564.5" font-family="Helvetica,sans-Serif" font-size="10.00">size_type &gt;</text>
<polyline fill="none" stroke="#bfbfbf" points="6.5,-557.5 133.5,-557.5 "/>
<text text-anchor="middle" x="70" y="-545.5" font-family="Helvetica,sans-Serif" font-size="10.00"> </text>
<polyline fill="none" stroke="#bfbfbf" points="6.5,-538.5 133.5,-538.5 "/>
<text text-anchor="middle" x="70" y="-526.5" font-family="Helvetica,sans-Serif" font-size="10.00"> </text>
</a>
</g>
</g>
<!-- Node3&#45;&gt;Node2 -->
<g id="edge2" class="edge">
<title>Node3&#45;&gt;Node2</title>
<path fill="none" stroke="midnightblue" d="M70,-509.25C70,-500.39 70,-490.91 70,-481.57"/>
<polygon fill="none" stroke="midnightblue" points="66.5,-509.32 70,-519.32 73.5,-509.32 66.5,-509.32"/>
</g>
<!-- Node4 -->
<g id="node4" class="node">
<title>Node4</title>
<g id="a_node4"><a xlink:href="classbool.html" target="_top" xlink:title=" ">
<polygon fill="white" stroke="#bfbfbf" points="158,-391.5 158,-448.5 196,-448.5 196,-391.5 158,-391.5"/>
<text text-anchor="middle" x="177" y="-436.5" font-family="Helvetica,sans-Serif" font-size="10.00">bool</text>
<polyline fill="none" stroke="#bfbfbf" points="158,-429.5 196,-429.5 "/>
<text text-anchor="middle" x="177" y="-417.5" font-family="Helvetica,sans-Serif" font-size="10.00"> </text>
<polyline fill="none" stroke="#bfbfbf" points="158,-410.5 196,-410.5 "/>
<text text-anchor="middle" x="177" y="-398.5" font-family="Helvetica,sans-Serif" font-size="10.00"> </text>
</a>
</g>
</g>
<!-- Node4&#45;&gt;Node1 -->
<g id="edge3" class="edge">
<title>Node4&#45;&gt;Node1</title>
<path fill="none" stroke="#404040" d="M177,-391.28C177,-347.5 177,-260.22 177,-190.91"/>
<polygon fill="none" stroke="#404040" points="177,-190.63 173,-184.63 177,-178.63 181,-184.63 177,-190.63"/>
<text text-anchor="middle" x="230.5" y="-332" font-family="Helvetica,sans-Serif" font-size="10.00"> +is_continuous</text>
<text text-anchor="start" x="177" y="-321" font-family="Helvetica,sans-Serif" font-size="10.00">+is_discontinuous</text>
<text text-anchor="middle" x="230.5" y="-310" font-family="Helvetica,sans-Serif" font-size="10.00">_locally</text>
<text text-anchor="start" x="177" y="-299" font-family="Helvetica,sans-Serif" font-size="10.00">+is_discontinuous</text>
<text text-anchor="middle" x="230.5" y="-288" font-family="Helvetica,sans-Serif" font-size="10.00">_totally</text>
<text text-anchor="middle" x="230.5" y="-277" font-family="Helvetica,sans-Serif" font-size="10.00">+is_hcurl_conforming</text>
<text text-anchor="middle" x="230.5" y="-266" font-family="Helvetica,sans-Serif" font-size="10.00">+is_hdiv_conforming</text>
<text text-anchor="middle" x="230.5" y="-255" font-family="Helvetica,sans-Serif" font-size="10.00">+is_modal</text>
<text text-anchor="middle" x="230.5" y="-244" font-family="Helvetica,sans-Serif" font-size="10.00">+is_mortar</text>
<text text-anchor="middle" x="230.5" y="-233" font-family="Helvetica,sans-Serif" font-size="10.00">+is_p0_continuous</text>
<text text-anchor="middle" x="230.5" y="-222" font-family="Helvetica,sans-Serif" font-size="10.00">+is_periodic</text>
<text text-anchor="middle" x="230.5" y="-211" font-family="Helvetica,sans-Serif" font-size="10.00">+is_product</text>
<text text-anchor="middle" x="230.5" y="-200" font-family="Helvetica,sans-Serif" font-size="10.00">...</text>
</g>
<!-- Node5 -->
<g id="node5" class="node">
<title>Node5</title>
<g id="a_node5"><a xlink:title=" ">
<polygon fill="white" stroke="#bfbfbf" points="240,-391.5 240,-448.5 374,-448.5 374,-391.5 240,-391.5"/>
<text text-anchor="middle" x="307" y="-436.5" font-family="Helvetica,sans-Serif" font-size="10.00">static const uint16_type</text>
<polyline fill="none" stroke="#bfbfbf" points="240,-429.5 374,-429.5 "/>
<text text-anchor="middle" x="307" y="-417.5" font-family="Helvetica,sans-Serif" font-size="10.00"> </text>
<polyline fill="none" stroke="#bfbfbf" points="240,-410.5 374,-410.5 "/>
<text text-anchor="middle" x="307" y="-398.5" font-family="Helvetica,sans-Serif" font-size="10.00"> </text>
</a>
</g>
</g>
<!-- Node5&#45;&gt;Node1 -->
<g id="edge4" class="edge">
<title>Node5&#45;&gt;Node1</title>
<path fill="none" stroke="#404040" d="M310.05,-391.46C313.64,-347.86 315.71,-261.31 285,-197 278.55,-183.5 269.65,-170.75 259.69,-159.07"/>
<polygon fill="none" stroke="#404040" points="259.52,-158.89 252.54,-157.09 251.51,-149.95 258.5,-151.75 259.52,-158.89"/>
<text text-anchor="middle" x="360" y="-321" font-family="Helvetica,sans-Serif" font-size="10.00"> +Shape</text>
<text text-anchor="middle" x="360" y="-310" font-family="Helvetica,sans-Serif" font-size="10.00">+nComponents</text>
<text text-anchor="middle" x="360" y="-299" font-family="Helvetica,sans-Serif" font-size="10.00">+nComponents1</text>
<text text-anchor="middle" x="360" y="-288" font-family="Helvetica,sans-Serif" font-size="10.00">+nComponents2</text>
<text text-anchor="middle" x="360" y="-277" font-family="Helvetica,sans-Serif" font-size="10.00">+nDim</text>
<text text-anchor="middle" x="360" y="-266" font-family="Helvetica,sans-Serif" font-size="10.00">+nDofPerEdge</text>
<text text-anchor="middle" x="360" y="-255" font-family="Helvetica,sans-Serif" font-size="10.00">+nDofPerElement</text>
<text text-anchor="middle" x="360" y="-244" font-family="Helvetica,sans-Serif" font-size="10.00">+nOrder</text>
<text text-anchor="middle" x="360" y="-233" font-family="Helvetica,sans-Serif" font-size="10.00">+nRealComponents</text>
<text text-anchor="middle" x="360" y="-222" font-family="Helvetica,sans-Serif" font-size="10.00">+nRealDim</text>
<text text-anchor="middle" x="360" y="-211" font-family="Helvetica,sans-Serif" font-size="10.00">...</text>
</g>
</g>
</svg>
        <g id="navigator" transform="translate(0 0)" fill="#404254">
                <rect fill="#f2f5e9" fill-opacity="0.5" stroke="#606060" stroke-width=".5" x="0" y="0" width="60" height="60"/>
                <use id="zoomplus" xlink:href="#zoomPlus" x="17" y="9" onmousedown="handleZoom(evt,'in')"/>
                <use id="zoomminus" xlink:href="#zoomMin" x="42" y="9" onmousedown="handleZoom(evt,'out')"/>
                <use id="reset" xlink:href="#resetDef" x="30" y="36" onmousedown="handleReset()"/>
                <g id="arrowUp" xlink:href="#dirArrow" transform="translate(30 24)" onmousedown="handlePan(0,-1)">
                  <use xlink:href="#rim" fill="#404040">
                        <set attributeName="fill" to="#808080" begin="arrowUp.mouseover" end="arrowUp.mouseout"/>
                  </use>
                  <path fill="none" stroke="white" stroke-width="1.5" d="M0,-3.0v7 M-2.5,-0.5L0,-3.0L2.5,-0.5"/>
                </g>
                <g id="arrowRight" xlink:href="#dirArrow" transform="rotate(90) translate(36 -43)" onmousedown="handlePan(1,0)">
                  <use xlink:href="#rim" fill="#404040">
                        <set attributeName="fill" to="#808080" begin="arrowRight.mouseover" end="arrowRight.mouseout"/>
                  </use>
                  <path fill="none" stroke="white" stroke-width="1.5" d="M0,-3.0v7 M-2.5,-0.5L0,-3.0L2.5,-0.5"/>
                </g>
                <g id="arrowDown" xlink:href="#dirArrow" transform="rotate(180) translate(-30 -48)" onmousedown="handlePan(0,1)">
                  <use xlink:href="#rim" fill="#404040">
                        <set attributeName="fill" to="#808080" begin="arrowDown.mouseover" end="arrowDown.mouseout"/>
                  </use>
                  <path fill="none" stroke="white" stroke-width="1.5" d="M0,-3.0v7 M-2.5,-0.5L0,-3.0L2.5,-0.5"/>
                </g>
                <g id="arrowLeft" xlink:href="#dirArrow" transform="rotate(270) translate(-36 17)" onmousedown="handlePan(-1,0)">
                  <use xlink:href="#rim" fill="#404040">
                        <set attributeName="fill" to="#808080" begin="arrowLeft.mouseover" end="arrowLeft.mouseout"/>
                  </use>
                  <path fill="none" stroke="white" stroke-width="1.5" d="M0,-3.0v7 M-2.5,-0.5L0,-3.0L2.5,-0.5"/>
                </g>
        </g>
        <svg viewBox="0 0 15 15" width="100%" height="30px" preserveAspectRatio="xMaxYMin meet">
         <g id="arrow_out" transform="scale(0.3 0.3)">
          <a xlink:href="classFeel_1_1DofTable__coll__graph_org.svg" target="_base">
           <rect id="button" ry="5" rx="5" y="6" x="6" height="38" width="38"
                fill="#f2f5e9" fill-opacity="0.5" stroke="#606060" stroke-width="1.0"/>
           <path id="arrow"
             d="M 11.500037,31.436501 C 11.940474,20.09759 22.043105,11.32322 32.158766,21.979434 L 37.068811,17.246167 C 37.068811,17.246167 37.088388,32 37.088388,32 L 22.160133,31.978069 C 22.160133,31.978069 26.997745,27.140456 26.997745,27.140456 C 18.528582,18.264221 13.291696,25.230495 11.500037,31.436501 z"
             style="fill:#404040;"/>
          </a>
         </g>
        </svg>
</svg>
