<?xml version="1.0" encoding="UTF-8" standalone="no"?>
<!DOCTYPE svg PUBLIC "-//W3C//DTD SVG 1.1//EN"
 "http://www.w3.org/Graphics/SVG/1.1/DTD/svg11.dtd">
<!-- Generated by graphviz version 2.43.0 (0)
 -->
<!-- Title: Feel::MeshStructuredSetupWithCoordinates&lt; Dim, RealDim, T, IndexT &gt; Pages: 1 -->
<svg width="911pt" height="525pt"
 viewBox="0.00 0.00 910.50 525.00" xmlns="http://www.w3.org/2000/svg" xmlns:xlink="http://www.w3.org/1999/xlink">
<g id="graph0" class="graph" transform="scale(1 1) rotate(0) translate(4 521)">
<title>Feel::MeshStructuredSetupWithCoordinates&lt; Dim, RealDim, T, IndexT &gt;</title>
<polygon fill="white" stroke="transparent" points="-4,4 -4,-521 906.5,-521 906.5,4 -4,4"/>
<!-- Node1 -->
<g id="node1" class="node">
<title>Node1</title>
<g id="a_node1"><a xlink:title=" ">
<polygon fill="#bfbfbf" stroke="black" points="26,-0.5 26,-90.5 247,-90.5 247,-0.5 26,-0.5"/>
<text text-anchor="start" x="34" y="-78.5" font-family="Helvetica,sans-Serif" font-size="10.00">Feel::MeshStructuredSetup</text>
<text text-anchor="start" x="34" y="-67.5" font-family="Helvetica,sans-Serif" font-size="10.00">WithCoordinates&lt; Dim, RealDim,</text>
<text text-anchor="middle" x="136.5" y="-56.5" font-family="Helvetica,sans-Serif" font-size="10.00"> T, IndexT &gt;</text>
<polyline fill="none" stroke="black" points="26,-49.5 247,-49.5 "/>
<text text-anchor="middle" x="136.5" y="-37.5" font-family="Helvetica,sans-Serif" font-size="10.00"> </text>
<polyline fill="none" stroke="black" points="26,-30.5 247,-30.5 "/>
<text text-anchor="start" x="34" y="-18.5" font-family="Helvetica,sans-Serif" font-size="10.00">+ MeshStructuredSetupWithCoordinates()</text>
<text text-anchor="start" x="34" y="-7.5" font-family="Helvetica,sans-Serif" font-size="10.00">+ pointCoordinates()</text>
</a>
</g>
</g>
<!-- Node2 -->
<g id="node2" class="node">
<title>Node2</title>
<g id="a_node2"><a xlink:href="classFeel_1_1MeshStructuredSetup.html" target="_top" xlink:title=" ">
<polygon fill="white" stroke="black" points="234.5,-128.5 234.5,-273.5 422.5,-273.5 422.5,-128.5 234.5,-128.5"/>
<text text-anchor="start" x="242.5" y="-261.5" font-family="Helvetica,sans-Serif" font-size="10.00">Feel::MeshStructuredSetup</text>
<text text-anchor="middle" x="328.5" y="-250.5" font-family="Helvetica,sans-Serif" font-size="10.00">&lt; Dim, Dim, double, uint32_type &gt;</text>
<polyline fill="none" stroke="black" points="234.5,-243.5 422.5,-243.5 "/>
<text text-anchor="middle" x="328.5" y="-231.5" font-family="Helvetica,sans-Serif" font-size="10.00"> </text>
<polyline fill="none" stroke="black" points="234.5,-224.5 422.5,-224.5 "/>
<text text-anchor="start" x="242.5" y="-212.5" font-family="Helvetica,sans-Serif" font-size="10.00">+ cellId()</text>
<text text-anchor="start" x="242.5" y="-201.5" font-family="Helvetica,sans-Serif" font-size="10.00">+ isCartesian()</text>
<text text-anchor="start" x="242.5" y="-190.5" font-family="Helvetica,sans-Serif" font-size="10.00">+ MeshStructuredSetup()</text>
<text text-anchor="start" x="242.5" y="-179.5" font-family="Helvetica,sans-Serif" font-size="10.00">+ nPointByAxis()</text>
<text text-anchor="start" x="242.5" y="-168.5" font-family="Helvetica,sans-Serif" font-size="10.00">+ pointCoordinates()</text>
<text text-anchor="start" x="242.5" y="-157.5" font-family="Helvetica,sans-Serif" font-size="10.00">and 3 more...</text>
<text text-anchor="start" x="242.5" y="-146.5" font-family="Helvetica,sans-Serif" font-size="10.00">+ New()</text>
<text text-anchor="start" x="242.5" y="-135.5" font-family="Helvetica,sans-Serif" font-size="10.00"># updateDiscretisation()</text>
</a>
</g>
</g>
<!-- Node2&#45;&gt;Node1 -->
<g id="edge1" class="edge">
<title>Node2&#45;&gt;Node1</title>
<path fill="none" stroke="midnightblue" d="M231.01,-122.06C217.5,-111.26 204.03,-100.49 191.67,-90.61"/>
<polygon fill="none" stroke="midnightblue" points="228.97,-124.91 238.96,-128.42 233.34,-119.44 228.97,-124.91"/>
</g>
<!-- Node3 -->
<g id="node3" class="node">
<title>Node3</title>
<g id="a_node3"><a xlink:title=" ">
<polygon fill="white" stroke="#bfbfbf" points="0,-338 0,-395 155,-395 155,-338 0,-338"/>
<text text-anchor="middle" x="77.5" y="-383" font-family="Helvetica,sans-Serif" font-size="10.00">static constexpr uint16_type</text>
<polyline fill="none" stroke="#bfbfbf" points="0,-376 155,-376 "/>
<text text-anchor="middle" x="77.5" y="-364" font-family="Helvetica,sans-Serif" font-size="10.00"> </text>
<polyline fill="none" stroke="#bfbfbf" points="0,-357 155,-357 "/>
<text text-anchor="middle" x="77.5" y="-345" font-family="Helvetica,sans-Serif" font-size="10.00"> </text>
</a>
</g>
</g>
<!-- Node3&#45;&gt;Node1 -->
<g id="edge14" class="edge">
<title>Node3&#45;&gt;Node1</title>
<path fill="none" stroke="#404040" d="M82.63,-337.75C92.31,-285.41 113.43,-171.22 126.16,-102.39"/>
<polygon fill="none" stroke="#404040" points="126.18,-102.31 123.34,-95.68 128.36,-90.51 131.2,-97.14 126.18,-102.31"/>
<text text-anchor="middle" x="150" y="-204" font-family="Helvetica,sans-Serif" font-size="10.00"> +nDim</text>
<text text-anchor="middle" x="150" y="-193" font-family="Helvetica,sans-Serif" font-size="10.00">+nRealDim</text>
</g>
<!-- Node3&#45;&gt;Node2 -->
<g id="edge2" class="edge">
<title>Node3&#45;&gt;Node2</title>
<path fill="none" stroke="#404040" d="M93.96,-337.67C103.92,-322.65 117.73,-304.65 133.5,-292 160.05,-270.7 192.46,-253.15 223.18,-239.38"/>
<polygon fill="none" stroke="#404040" points="223.41,-239.28 227.31,-233.21 234.4,-234.48 230.51,-240.54 223.41,-239.28"/>
<text text-anchor="middle" x="162" y="-306" font-family="Helvetica,sans-Serif" font-size="10.00"> +nDim</text>
<text text-anchor="middle" x="162" y="-295" font-family="Helvetica,sans-Serif" font-size="10.00">+nRealDim</text>
</g>
<!-- Node4 -->
<g id="node4" class="node">
<title>Node4</title>
<g id="a_node4"><a xlink:href="classint.html" target="_top" xlink:title=" ">
<polygon fill="white" stroke="#bfbfbf" points="173,-338 173,-395 202,-395 202,-338 173,-338"/>
<text text-anchor="middle" x="187.5" y="-383" font-family="Helvetica,sans-Serif" font-size="10.00">int</text>
<polyline fill="none" stroke="#bfbfbf" points="173,-376 202,-376 "/>
<text text-anchor="middle" x="187.5" y="-364" font-family="Helvetica,sans-Serif" font-size="10.00"> </text>
<polyline fill="none" stroke="#bfbfbf" points="173,-357 202,-357 "/>
<text text-anchor="middle" x="187.5" y="-345" font-family="Helvetica,sans-Serif" font-size="10.00"> </text>
</a>
</g>
</g>
<!-- Node4&#45;&gt;Node2 -->
<g id="edge3" class="edge">
<title>Node4&#45;&gt;Node2</title>
<path fill="none" stroke="#404040" d="M188.79,-337.83C190.59,-323.21 194.62,-305.54 203.5,-292 209.7,-282.54 217.27,-273.75 225.58,-265.67"/>
<polygon fill="none" stroke="#404040" points="225.64,-265.61 227.36,-258.61 234.49,-257.5 232.77,-264.5 225.64,-265.61"/>
<text text-anchor="middle" x="238.5" y="-300.5" font-family="Helvetica,sans-Serif" font-size="10.00"> +nPointInCell</text>
</g>
<!-- Node5 -->
<g id="node5" class="node">
<title>Node5</title>
<g id="a_node5"><a xlink:title=" ">
<polygon fill="white" stroke="black" points="220,-338 220,-395 285,-395 285,-338 220,-338"/>
<text text-anchor="middle" x="252.5" y="-383" font-family="Helvetica,sans-Serif" font-size="10.00">std::string</text>
<polyline fill="none" stroke="black" points="220,-376 285,-376 "/>
<text text-anchor="middle" x="252.5" y="-364" font-family="Helvetica,sans-Serif" font-size="10.00"> </text>
<polyline fill="none" stroke="black" points="220,-357 285,-357 "/>
<text text-anchor="middle" x="252.5" y="-345" font-family="Helvetica,sans-Serif" font-size="10.00"> </text>
</a>
</g>
</g>
<!-- Node5&#45;&gt;Node2 -->
<g id="edge4" class="edge">
<title>Node5&#45;&gt;Node2</title>
<path fill="none" stroke="#404040" d="M265.39,-337.76C272.29,-322.92 281.19,-303.78 290.12,-284.57"/>
<polygon fill="none" stroke="#404040" points="290.16,-284.49 289.06,-277.36 295.22,-273.61 296.31,-280.73 290.16,-284.49"/>
<text text-anchor="middle" x="314" y="-300.5" font-family="Helvetica,sans-Serif" font-size="10.00"> #M_shape</text>
</g>
<!-- Node6 -->
<g id="node6" class="node">
<title>Node6</title>
<g id="a_node6"><a xlink:title=" ">
<polygon fill="white" stroke="black" points="200.5,-448.5 200.5,-516.5 304.5,-516.5 304.5,-448.5 200.5,-448.5"/>
<text text-anchor="start" x="208.5" y="-504.5" font-family="Helvetica,sans-Serif" font-size="10.00">std::basic_string&lt;</text>
<text text-anchor="middle" x="252.5" y="-493.5" font-family="Helvetica,sans-Serif" font-size="10.00"> Char &gt;</text>
<polyline fill="none" stroke="black" points="200.5,-486.5 304.5,-486.5 "/>
<text text-anchor="middle" x="252.5" y="-474.5" font-family="Helvetica,sans-Serif" font-size="10.00"> </text>
<polyline fill="none" stroke="black" points="200.5,-467.5 304.5,-467.5 "/>
<text text-anchor="middle" x="252.5" y="-455.5" font-family="Helvetica,sans-Serif" font-size="10.00"> </text>
</a>
</g>
</g>
<!-- Node6&#45;&gt;Node5 -->
<g id="edge5" class="edge">
<title>Node6&#45;&gt;Node5</title>
<path fill="none" stroke="midnightblue" d="M252.5,-438.03C252.5,-423.67 252.5,-408.1 252.5,-395.24"/>
<polygon fill="none" stroke="midnightblue" points="249,-438.22 252.5,-448.22 256,-438.22 249,-438.22"/>
</g>
<!-- Node7 -->
<g id="node7" class="node">
<title>Node7</title>
<g id="a_node7"><a xlink:title=" ">
<polygon fill="white" stroke="black" points="303.5,-332.5 303.5,-400.5 439.5,-400.5 439.5,-332.5 303.5,-332.5"/>
<text text-anchor="start" x="311.5" y="-388.5" font-family="Helvetica,sans-Serif" font-size="10.00">std::vector&lt; node_eigen</text>
<text text-anchor="middle" x="371.5" y="-377.5" font-family="Helvetica,sans-Serif" font-size="10.00">_type &gt;</text>
<polyline fill="none" stroke="black" points="303.5,-370.5 439.5,-370.5 "/>
<text text-anchor="middle" x="371.5" y="-358.5" font-family="Helvetica,sans-Serif" font-size="10.00"> </text>
<polyline fill="none" stroke="black" points="303.5,-351.5 439.5,-351.5 "/>
<text text-anchor="middle" x="371.5" y="-339.5" font-family="Helvetica,sans-Serif" font-size="10.00"> </text>
</a>
</g>
</g>
<!-- Node7&#45;&gt;Node2 -->
<g id="edge6" class="edge">
<title>Node7&#45;&gt;Node2</title>
<path fill="none" stroke="#404040" d="M362.8,-332.41C359.2,-318.75 354.86,-302.23 350.49,-285.61"/>
<polygon fill="none" stroke="#404040" points="350.36,-285.13 344.97,-280.35 347.31,-273.53 352.71,-278.31 350.36,-285.13"/>
<text text-anchor="middle" x="411.5" y="-300.5" font-family="Helvetica,sans-Serif" font-size="10.00"> #M_geometricPoints</text>
</g>
<!-- Node8 -->
<g id="node8" class="node">
<title>Node8</title>
<g id="a_node8"><a xlink:title=" ">
<polygon fill="white" stroke="#bfbfbf" points="322.5,-454 322.5,-511 422.5,-511 422.5,-454 322.5,-454"/>
<text text-anchor="middle" x="372.5" y="-499" font-family="Helvetica,sans-Serif" font-size="10.00">node_eigen_type</text>
<polyline fill="none" stroke="#bfbfbf" points="322.5,-492 422.5,-492 "/>
<text text-anchor="middle" x="372.5" y="-480" font-family="Helvetica,sans-Serif" font-size="10.00"> </text>
<polyline fill="none" stroke="#bfbfbf" points="322.5,-473 422.5,-473 "/>
<text text-anchor="middle" x="372.5" y="-461" font-family="Helvetica,sans-Serif" font-size="10.00"> </text>
</a>
</g>
</g>
<!-- Node8&#45;&gt;Node7 -->
<g id="edge7" class="edge">
<title>Node8&#45;&gt;Node7</title>
<path fill="none" stroke="#404040" d="M372.26,-453.9C372.15,-441.59 372.02,-426.76 371.9,-412.89"/>
<polygon fill="none" stroke="#404040" points="371.9,-412.52 367.84,-406.56 371.79,-400.52 375.84,-406.49 371.9,-412.52"/>
<text text-anchor="middle" x="401.5" y="-422" font-family="Helvetica,sans-Serif" font-size="10.00"> +elements</text>
</g>
<!-- Node9 -->
<g id="node9" class="node">
<title>Node9</title>
<g id="a_node9"><a xlink:title=" ">
<polygon fill="white" stroke="black" points="458,-332.5 458,-400.5 583,-400.5 583,-332.5 458,-332.5"/>
<text text-anchor="start" x="466" y="-388.5" font-family="Helvetica,sans-Serif" font-size="10.00">std::vector&lt; std::tuple</text>
<text text-anchor="middle" x="520.5" y="-377.5" font-family="Helvetica,sans-Serif" font-size="10.00">&lt; int, int, int &gt; &gt;</text>
<polyline fill="none" stroke="black" points="458,-370.5 583,-370.5 "/>
<text text-anchor="middle" x="520.5" y="-358.5" font-family="Helvetica,sans-Serif" font-size="10.00"> </text>
<polyline fill="none" stroke="black" points="458,-351.5 583,-351.5 "/>
<text text-anchor="middle" x="520.5" y="-339.5" font-family="Helvetica,sans-Serif" font-size="10.00"> </text>
</a>
</g>
</g>
<!-- Node9&#45;&gt;Node2 -->
<g id="edge8" class="edge">
<title>Node9&#45;&gt;Node2</title>
<path fill="none" stroke="#404040" d="M500.93,-332.28C492.07,-318.85 480.81,-303.78 468.5,-292 457.63,-281.6 445.38,-271.7 432.78,-262.54"/>
<polygon fill="none" stroke="#404040" points="432.41,-262.28 425.2,-262.08 422.61,-255.35 429.82,-255.55 432.41,-262.28"/>
<text text-anchor="middle" x="540" y="-300.5" font-family="Helvetica,sans-Serif" font-size="10.00"> #M_geometricEdges</text>
</g>
<!-- Node10 -->
<g id="node10" class="node">
<title>Node10</title>
<g id="a_node10"><a xlink:title=" ">
<polygon fill="white" stroke="#bfbfbf" points="463.5,-454 463.5,-511 577.5,-511 577.5,-454 463.5,-454"/>
<text text-anchor="middle" x="520.5" y="-499" font-family="Helvetica,sans-Serif" font-size="10.00">tuple&lt; int, int, int &gt;</text>
<polyline fill="none" stroke="#bfbfbf" points="463.5,-492 577.5,-492 "/>
<text text-anchor="middle" x="520.5" y="-480" font-family="Helvetica,sans-Serif" font-size="10.00"> </text>
<polyline fill="none" stroke="#bfbfbf" points="463.5,-473 577.5,-473 "/>
<text text-anchor="middle" x="520.5" y="-461" font-family="Helvetica,sans-Serif" font-size="10.00"> </text>
</a>
</g>
</g>
<!-- Node10&#45;&gt;Node9 -->
<g id="edge9" class="edge">
<title>Node10&#45;&gt;Node9</title>
<path fill="none" stroke="#404040" d="M520.5,-453.9C520.5,-441.59 520.5,-426.76 520.5,-412.89"/>
<polygon fill="none" stroke="#404040" points="520.5,-412.52 516.5,-406.52 520.5,-400.52 524.5,-406.52 520.5,-412.52"/>
<text text-anchor="middle" x="549.5" y="-422" font-family="Helvetica,sans-Serif" font-size="10.00"> +elements</text>
</g>
<!-- Node11 -->
<g id="node11" class="node">
<title>Node11</title>
<g id="a_node11"><a xlink:title=" ">
<polygon fill="white" stroke="black" points="601,-332.5 601,-400.5 708,-400.5 708,-332.5 601,-332.5"/>
<text text-anchor="start" x="609" y="-388.5" font-family="Helvetica,sans-Serif" font-size="10.00">std::vector&lt; index</text>
<text text-anchor="middle" x="654.5" y="-377.5" font-family="Helvetica,sans-Serif" font-size="10.00">_type &gt;</text>
<polyline fill="none" stroke="black" points="601,-370.5 708,-370.5 "/>
<text text-anchor="middle" x="654.5" y="-358.5" font-family="Helvetica,sans-Serif" font-size="10.00"> </text>
<polyline fill="none" stroke="black" points="601,-351.5 708,-351.5 "/>
<text text-anchor="middle" x="654.5" y="-339.5" font-family="Helvetica,sans-Serif" font-size="10.00"> </text>
</a>
</g>
</g>
<!-- Node11&#45;&gt;Node2 -->
<g id="edge10" class="edge">
<title>Node11&#45;&gt;Node2</title>
<path fill="none" stroke="#404040" d="M634.49,-332.22C624.58,-318.13 611.52,-302.57 596.5,-292 548.37,-258.12 486.51,-236.23 434.36,-222.53"/>
<polygon fill="none" stroke="#404040" points="434.33,-222.53 427.53,-224.92 422.7,-219.56 429.51,-217.17 434.33,-222.53"/>
<text text-anchor="middle" x="665" y="-300.5" font-family="Helvetica,sans-Serif" font-size="10.00"> #M_nPointByAxis</text>
</g>
<!-- Node12 -->
<g id="node12" class="node">
<title>Node12</title>
<g id="a_node12"><a xlink:title=" ">
<polygon fill="white" stroke="#bfbfbf" points="619,-454 619,-511 690,-511 690,-454 619,-454"/>
<text text-anchor="middle" x="654.5" y="-499" font-family="Helvetica,sans-Serif" font-size="10.00">index_type</text>
<polyline fill="none" stroke="#bfbfbf" points="619,-492 690,-492 "/>
<text text-anchor="middle" x="654.5" y="-480" font-family="Helvetica,sans-Serif" font-size="10.00"> </text>
<polyline fill="none" stroke="#bfbfbf" points="619,-473 690,-473 "/>
<text text-anchor="middle" x="654.5" y="-461" font-family="Helvetica,sans-Serif" font-size="10.00"> </text>
</a>
</g>
</g>
<!-- Node12&#45;&gt;Node11 -->
<g id="edge11" class="edge">
<title>Node12&#45;&gt;Node11</title>
<path fill="none" stroke="#404040" d="M654.5,-453.9C654.5,-441.59 654.5,-426.76 654.5,-412.89"/>
<polygon fill="none" stroke="#404040" points="654.5,-412.52 650.5,-406.52 654.5,-400.52 658.5,-406.52 654.5,-412.52"/>
<text text-anchor="middle" x="683.5" y="-422" font-family="Helvetica,sans-Serif" font-size="10.00"> +elements</text>
</g>
<!-- Node13 -->
<g id="node13" class="node">
<title>Node13</title>
<g id="a_node13"><a xlink:title=" ">
<polygon fill="white" stroke="black" points="726.5,-332.5 726.5,-400.5 902.5,-400.5 902.5,-332.5 726.5,-332.5"/>
<text text-anchor="start" x="734.5" y="-388.5" font-family="Helvetica,sans-Serif" font-size="10.00">std::vector&lt; std::tuple</text>
<text text-anchor="middle" x="814.5" y="-377.5" font-family="Helvetica,sans-Serif" font-size="10.00">&lt; DivisionEdgeType, double &gt; &gt;</text>
<polyline fill="none" stroke="black" points="726.5,-370.5 902.5,-370.5 "/>
<text text-anchor="middle" x="814.5" y="-358.5" font-family="Helvetica,sans-Serif" font-size="10.00"> </text>
<polyline fill="none" stroke="black" points="726.5,-351.5 902.5,-351.5 "/>
<text text-anchor="middle" x="814.5" y="-339.5" font-family="Helvetica,sans-Serif" font-size="10.00"> </text>
</a>
</g>
</g>
<!-- Node13&#45;&gt;Node2 -->
<g id="edge12" class="edge">
<title>Node13&#45;&gt;Node2</title>
<path fill="none" stroke="#404040" d="M776.92,-332.23C759.08,-317.97 736.81,-302.27 714.5,-292 624.87,-250.74 514.55,-227.46 434.83,-214.97"/>
<polygon fill="none" stroke="#404040" points="434.67,-214.95 428.13,-217.99 422.81,-213.13 429.34,-210.08 434.67,-214.95"/>
<text text-anchor="middle" x="811" y="-300.5" font-family="Helvetica,sans-Serif" font-size="10.00"> #M_discretisationEdges</text>
</g>
<!-- Node14 -->
<g id="node14" class="node">
<title>Node14</title>
<g id="a_node14"><a xlink:title=" ">
<polygon fill="white" stroke="#bfbfbf" points="743.5,-448.5 743.5,-516.5 885.5,-516.5 885.5,-448.5 743.5,-448.5"/>
<text text-anchor="start" x="751.5" y="-504.5" font-family="Helvetica,sans-Serif" font-size="10.00">tuple&lt; DivisionEdgeType,</text>
<text text-anchor="middle" x="814.5" y="-493.5" font-family="Helvetica,sans-Serif" font-size="10.00"> double &gt;</text>
<polyline fill="none" stroke="#bfbfbf" points="743.5,-486.5 885.5,-486.5 "/>
<text text-anchor="middle" x="814.5" y="-474.5" font-family="Helvetica,sans-Serif" font-size="10.00"> </text>
<polyline fill="none" stroke="#bfbfbf" points="743.5,-467.5 885.5,-467.5 "/>
<text text-anchor="middle" x="814.5" y="-455.5" font-family="Helvetica,sans-Serif" font-size="10.00"> </text>
</a>
</g>
</g>
<!-- Node14&#45;&gt;Node13 -->
<g id="edge13" class="edge">
<title>Node14&#45;&gt;Node13</title>
<path fill="none" stroke="#404040" d="M814.5,-448.22C814.5,-437.1 814.5,-424.51 814.5,-412.64"/>
<polygon fill="none" stroke="#404040" points="814.5,-412.62 810.5,-406.62 814.5,-400.62 818.5,-406.62 814.5,-412.62"/>
<text text-anchor="middle" x="843.5" y="-422" font-family="Helvetica,sans-Serif" font-size="10.00"> +elements</text>
</g>
</g>
</svg>
