<?xml version="1.0" encoding="UTF-8" standalone="no"?>
<!DOCTYPE svg PUBLIC "-//W3C//DTD SVG 1.1//EN"
 "http://www.w3.org/Graphics/SVG/1.1/DTD/svg11.dtd">
<!-- Generated by graphviz version 2.43.0 (0)
 -->
<!-- Title: Feel::SensorGaussian&lt; Space &gt; Pages: 1 -->
<svg width="257pt" height="635pt"
 viewBox="0.00 0.00 256.50 635.00" xmlns="http://www.w3.org/2000/svg" xmlns:xlink="http://www.w3.org/1999/xlink">
<g id="graph0" class="graph" transform="scale(1 1) rotate(0) translate(4 631)">
<title>Feel::SensorGaussian&lt; Space &gt;</title>
<polygon fill="white" stroke="transparent" points="-4,4 -4,-631 252.5,-631 252.5,4 -4,4"/>
<!-- Node1 -->
<g id="node1" class="node">
<title>Node1</title>
<g id="a_node1"><a xlink:title="gaussian type sensor">
<polygon fill="#bfbfbf" stroke="black" points="118.5,-0.5 118.5,-123.5 239.5,-123.5 239.5,-0.5 118.5,-0.5"/>
<text text-anchor="start" x="126.5" y="-111.5" font-family="Helvetica,sans-Serif" font-size="10.00">Feel::SensorGaussian</text>
<text text-anchor="middle" x="179" y="-100.5" font-family="Helvetica,sans-Serif" font-size="10.00">&lt; Space &gt;</text>
<polyline fill="none" stroke="black" points="118.5,-93.5 239.5,-93.5 "/>
<text text-anchor="middle" x="179" y="-81.5" font-family="Helvetica,sans-Serif" font-size="10.00"> </text>
<polyline fill="none" stroke="black" points="118.5,-74.5 239.5,-74.5 "/>
<text text-anchor="start" x="126.5" y="-62.5" font-family="Helvetica,sans-Serif" font-size="10.00">+ init()</text>
<text text-anchor="start" x="126.5" y="-51.5" font-family="Helvetica,sans-Serif" font-size="10.00">+ position()</text>
<text text-anchor="start" x="126.5" y="-40.5" font-family="Helvetica,sans-Serif" font-size="10.00">+ radius()</text>
<text text-anchor="start" x="126.5" y="-29.5" font-family="Helvetica,sans-Serif" font-size="10.00">+ SensorGaussian()</text>
<text text-anchor="start" x="126.5" y="-18.5" font-family="Helvetica,sans-Serif" font-size="10.00">+ SensorGaussian()</text>
<text text-anchor="start" x="126.5" y="-7.5" font-family="Helvetica,sans-Serif" font-size="10.00">and 4 more...</text>
</a>
</g>
</g>
<!-- Node2 -->
<g id="node2" class="node">
<title>Node2</title>
<g id="a_node2"><a xlink:href="classFeel_1_1SensorBase.html" target="_top" xlink:title=" ">
<polygon fill="white" stroke="black" points="49,-171.5 49,-283.5 201,-283.5 201,-171.5 49,-171.5"/>
<text text-anchor="middle" x="125" y="-271.5" font-family="Helvetica,sans-Serif" font-size="10.00">Feel::SensorBase&lt; Space &gt;</text>
<polyline fill="none" stroke="black" points="49,-264.5 201,-264.5 "/>
<text text-anchor="middle" x="125" y="-252.5" font-family="Helvetica,sans-Serif" font-size="10.00"> </text>
<polyline fill="none" stroke="black" points="49,-245.5 201,-245.5 "/>
<text text-anchor="start" x="57" y="-233.5" font-family="Helvetica,sans-Serif" font-size="10.00">+ init()</text>
<text text-anchor="start" x="57" y="-222.5" font-family="Helvetica,sans-Serif" font-size="10.00">+ name()</text>
<text text-anchor="start" x="57" y="-211.5" font-family="Helvetica,sans-Serif" font-size="10.00">+ SensorBase()</text>
<text text-anchor="start" x="57" y="-200.5" font-family="Helvetica,sans-Serif" font-size="10.00">+ SensorBase()</text>
<text text-anchor="start" x="57" y="-189.5" font-family="Helvetica,sans-Serif" font-size="10.00">+ setName()</text>
<text text-anchor="start" x="57" y="-178.5" font-family="Helvetica,sans-Serif" font-size="10.00">and 4 more...</text>
</a>
</g>
</g>
<!-- Node2&#45;&gt;Node1 -->
<g id="edge1" class="edge">
<title>Node2&#45;&gt;Node1</title>
<path fill="none" stroke="midnightblue" d="M146.53,-161.31C150.64,-148.88 154.92,-135.91 158.98,-123.63"/>
<polygon fill="none" stroke="midnightblue" points="143.09,-160.55 143.28,-171.15 149.74,-162.75 143.09,-160.55"/>
</g>
<!-- Node3 -->
<g id="node3" class="node">
<title>Node3</title>
<g id="a_node3"><a xlink:href="classFeel_1_1FsFunctionalLinear.html" target="_top" xlink:title=" ">
<polygon fill="white" stroke="black" points="0,-342.5 0,-465.5 134,-465.5 134,-342.5 0,-342.5"/>
<text text-anchor="start" x="8" y="-453.5" font-family="Helvetica,sans-Serif" font-size="10.00">Feel::FsFunctionalLinear</text>
<text text-anchor="middle" x="67" y="-442.5" font-family="Helvetica,sans-Serif" font-size="10.00">&lt; Space &gt;</text>
<polyline fill="none" stroke="black" points="0,-435.5 134,-435.5 "/>
<text text-anchor="middle" x="67" y="-423.5" font-family="Helvetica,sans-Serif" font-size="10.00"> </text>
<polyline fill="none" stroke="black" points="0,-416.5 134,-416.5 "/>
<text text-anchor="start" x="8" y="-404.5" font-family="Helvetica,sans-Serif" font-size="10.00">+ add()</text>
<text text-anchor="start" x="8" y="-393.5" font-family="Helvetica,sans-Serif" font-size="10.00">+ close()</text>
<text text-anchor="start" x="8" y="-382.5" font-family="Helvetica,sans-Serif" font-size="10.00">+ container()</text>
<text text-anchor="start" x="8" y="-371.5" font-family="Helvetica,sans-Serif" font-size="10.00">+ container()</text>
<text text-anchor="start" x="8" y="-360.5" font-family="Helvetica,sans-Serif" font-size="10.00">+ container()</text>
<text text-anchor="start" x="8" y="-349.5" font-family="Helvetica,sans-Serif" font-size="10.00">and 12 more...</text>
</a>
</g>
</g>
<!-- Node3&#45;&gt;Node2 -->
<g id="edge2" class="edge">
<title>Node3&#45;&gt;Node2</title>
<path fill="none" stroke="midnightblue" d="M90.29,-332.92C95.74,-316.54 101.47,-299.31 106.66,-283.67"/>
<polygon fill="none" stroke="midnightblue" points="86.96,-331.86 87.12,-342.46 93.6,-334.07 86.96,-331.86"/>
</g>
<!-- Node4 -->
<g id="node4" class="node">
<title>Node4</title>
<g id="a_node4"><a xlink:href="classFeel_1_1FsFunctional.html" target="_top" xlink:title=" ">
<polygon fill="white" stroke="black" points="12.5,-503.5 12.5,-626.5 117.5,-626.5 117.5,-503.5 12.5,-503.5"/>
<text text-anchor="start" x="20.5" y="-614.5" font-family="Helvetica,sans-Serif" font-size="10.00">Feel::FsFunctional</text>
<text text-anchor="middle" x="65" y="-603.5" font-family="Helvetica,sans-Serif" font-size="10.00">&lt; Space &gt;</text>
<polyline fill="none" stroke="black" points="12.5,-596.5 117.5,-596.5 "/>
<text text-anchor="middle" x="65" y="-584.5" font-family="Helvetica,sans-Serif" font-size="10.00"> </text>
<polyline fill="none" stroke="black" points="12.5,-577.5 117.5,-577.5 "/>
<text text-anchor="start" x="20.5" y="-565.5" font-family="Helvetica,sans-Serif" font-size="10.00">+ FsFunctional()</text>
<text text-anchor="start" x="20.5" y="-554.5" font-family="Helvetica,sans-Serif" font-size="10.00">+ FsFunctional()</text>
<text text-anchor="start" x="20.5" y="-543.5" font-family="Helvetica,sans-Serif" font-size="10.00">+ operator()()</text>
<text text-anchor="start" x="20.5" y="-532.5" font-family="Helvetica,sans-Serif" font-size="10.00">+ setSpace()</text>
<text text-anchor="start" x="20.5" y="-521.5" font-family="Helvetica,sans-Serif" font-size="10.00">+ space()</text>
<text text-anchor="start" x="20.5" y="-510.5" font-family="Helvetica,sans-Serif" font-size="10.00">+ ~FsFunctional()</text>
</a>
</g>
</g>
<!-- Node4&#45;&gt;Node3 -->
<g id="edge3" class="edge">
<title>Node4&#45;&gt;Node3</title>
<path fill="none" stroke="midnightblue" d="M65.89,-493.17C66.01,-483.99 66.12,-474.65 66.24,-465.66"/>
<polygon fill="none" stroke="midnightblue" points="62.39,-493.39 65.76,-503.44 69.39,-493.48 62.39,-493.39"/>
</g>
<!-- Node5 -->
<g id="node5" class="node">
<title>Node5</title>
<g id="a_node5"><a xlink:title="STL class.">
<polygon fill="white" stroke="#bfbfbf" points="154.5,-375.5 154.5,-432.5 219.5,-432.5 219.5,-375.5 154.5,-375.5"/>
<text text-anchor="middle" x="187" y="-420.5" font-family="Helvetica,sans-Serif" font-size="10.00">std::string</text>
<polyline fill="none" stroke="#bfbfbf" points="154.5,-413.5 219.5,-413.5 "/>
<text text-anchor="middle" x="187" y="-401.5" font-family="Helvetica,sans-Serif" font-size="10.00"> </text>
<polyline fill="none" stroke="#bfbfbf" points="154.5,-394.5 219.5,-394.5 "/>
<text text-anchor="middle" x="187" y="-382.5" font-family="Helvetica,sans-Serif" font-size="10.00"> </text>
</a>
</g>
</g>
<!-- Node5&#45;&gt;Node2 -->
<g id="edge4" class="edge">
<title>Node5&#45;&gt;Node2</title>
<path fill="none" stroke="#404040" d="M177.18,-375.35C169.52,-353.81 158.57,-322.99 148.68,-295.14"/>
<polygon fill="none" stroke="#404040" points="148.68,-295.14 142.9,-290.82 144.66,-283.83 150.44,-288.15 148.68,-295.14"/>
<text text-anchor="middle" x="183.5" y="-316" font-family="Helvetica,sans-Serif" font-size="10.00"> #M_type</text>
<text text-anchor="middle" x="183.5" y="-305" font-family="Helvetica,sans-Serif" font-size="10.00">#M_name</text>
</g>
<!-- Node6 -->
<g id="node6" class="node">
<title>Node6</title>
<g id="a_node6"><a xlink:title="STL class.">
<polygon fill="white" stroke="#bfbfbf" points="136,-531 136,-599 240,-599 240,-531 136,-531"/>
<text text-anchor="start" x="144" y="-587" font-family="Helvetica,sans-Serif" font-size="10.00">std::basic_string&lt;</text>
<text text-anchor="middle" x="188" y="-576" font-family="Helvetica,sans-Serif" font-size="10.00"> char &gt;</text>
<polyline fill="none" stroke="#bfbfbf" points="136,-569 240,-569 "/>
<text text-anchor="middle" x="188" y="-557" font-family="Helvetica,sans-Serif" font-size="10.00"> </text>
<polyline fill="none" stroke="#bfbfbf" points="136,-550 240,-550 "/>
<text text-anchor="middle" x="188" y="-538" font-family="Helvetica,sans-Serif" font-size="10.00"> </text>
</a>
</g>
</g>
<!-- Node6&#45;&gt;Node5 -->
<g id="edge5" class="edge">
<title>Node6&#45;&gt;Node5</title>
<path fill="none" stroke="midnightblue" d="M187.73,-520.35C187.55,-492.37 187.33,-456.9 187.17,-432.72"/>
<polygon fill="none" stroke="midnightblue" points="184.23,-520.69 187.79,-530.67 191.23,-520.65 184.23,-520.69"/>
</g>
<!-- Node7 -->
<g id="node7" class="node">
<title>Node7</title>
<g id="a_node7"><a xlink:href="classint.html" target="_top" xlink:title=" ">
<polygon fill="white" stroke="black" points="219.5,-199 219.5,-256 248.5,-256 248.5,-199 219.5,-199"/>
<text text-anchor="middle" x="234" y="-244" font-family="Helvetica,sans-Serif" font-size="10.00">int</text>
<polyline fill="none" stroke="black" points="219.5,-237 248.5,-237 "/>
<text text-anchor="middle" x="234" y="-225" font-family="Helvetica,sans-Serif" font-size="10.00"> </text>
<polyline fill="none" stroke="black" points="219.5,-218 248.5,-218 "/>
<text text-anchor="middle" x="234" y="-206" font-family="Helvetica,sans-Serif" font-size="10.00"> </text>
</a>
</g>
</g>
<!-- Node7&#45;&gt;Node1 -->
<g id="edge6" class="edge">
<title>Node7&#45;&gt;Node1</title>
<path fill="none" stroke="#404040" d="M224.67,-198.76C218.8,-181.31 210.92,-157.9 203.37,-135.45"/>
<polygon fill="none" stroke="#404040" points="203.29,-135.2 197.58,-130.79 199.46,-123.83 205.17,-128.24 203.29,-135.2"/>
<text text-anchor="middle" x="227" y="-145" font-family="Helvetica,sans-Serif" font-size="10.00"> +nDim</text>
</g>
</g>
</svg>
