<?xml version="1.0" encoding="UTF-8" standalone="no"?>
<!DOCTYPE svg PUBLIC "-//W3C//DTD SVG 1.1//EN"
 "http://www.w3.org/Graphics/SVG/1.1/DTD/svg11.dtd">
<!-- Generated by graphviz version 2.43.0 (0)
 -->
<!-- Title: Feel::ExpressionEvaluatorBase&lt; RangeType &gt; Pages: 1 -->
<svg width="167pt" height="237pt"
 viewBox="0.00 0.00 167.00 237.00" xmlns="http://www.w3.org/2000/svg" xmlns:xlink="http://www.w3.org/1999/xlink">
<g id="graph0" class="graph" transform="scale(1 1) rotate(0) translate(4 233)">
<title>Feel::ExpressionEvaluatorBase&lt; RangeType &gt;</title>
<polygon fill="white" stroke="transparent" points="-4,4 -4,-233 163,-233 163,4 -4,4"/>
<!-- Node1 -->
<g id="node1" class="node">
<title>Node1</title>
<g id="a_node1"><a xlink:title=" ">
<polygon fill="#bfbfbf" stroke="black" points="0,-0.5 0,-123.5 159,-123.5 159,-0.5 0,-0.5"/>
<text text-anchor="start" x="8" y="-111.5" font-family="Helvetica,sans-Serif" font-size="10.00">Feel::ExpressionEvaluator</text>
<text text-anchor="middle" x="79.5" y="-100.5" font-family="Helvetica,sans-Serif" font-size="10.00">Base&lt; RangeType &gt;</text>
<polyline fill="none" stroke="black" points="0,-93.5 159,-93.5 "/>
<text text-anchor="middle" x="79.5" y="-81.5" font-family="Helvetica,sans-Serif" font-size="10.00"> </text>
<polyline fill="none" stroke="black" points="0,-74.5 159,-74.5 "/>
<text text-anchor="start" x="8" y="-62.5" font-family="Helvetica,sans-Serif" font-size="10.00">+ component()</text>
<text text-anchor="start" x="8" y="-51.5" font-family="Helvetica,sans-Serif" font-size="10.00">+ eval()</text>
<text text-anchor="start" x="8" y="-40.5" font-family="Helvetica,sans-Serif" font-size="10.00">+ ExpressionEvaluatorBase()</text>
<text text-anchor="start" x="8" y="-29.5" font-family="Helvetica,sans-Serif" font-size="10.00">+ init()</text>
<text text-anchor="start" x="8" y="-18.5" font-family="Helvetica,sans-Serif" font-size="10.00">+ nPoints()</text>
<text text-anchor="start" x="8" y="-7.5" font-family="Helvetica,sans-Serif" font-size="10.00">and 4 more...</text>
</a>
</g>
</g>
<!-- Node2 -->
<g id="node2" class="node">
<title>Node2</title>
<g id="a_node2"><a xlink:title=" ">
<polygon fill="white" stroke="#bfbfbf" points="6.5,-171.5 6.5,-228.5 76.5,-228.5 76.5,-171.5 6.5,-171.5"/>
<text text-anchor="middle" x="41.5" y="-216.5" font-family="Helvetica,sans-Serif" font-size="10.00">RangeType</text>
<polyline fill="none" stroke="#bfbfbf" points="6.5,-209.5 76.5,-209.5 "/>
<text text-anchor="middle" x="41.5" y="-197.5" font-family="Helvetica,sans-Serif" font-size="10.00"> </text>
<polyline fill="none" stroke="#bfbfbf" points="6.5,-190.5 76.5,-190.5 "/>
<text text-anchor="middle" x="41.5" y="-178.5" font-family="Helvetica,sans-Serif" font-size="10.00"> </text>
</a>
</g>
</g>
<!-- Node2&#45;&gt;Node1 -->
<g id="edge1" class="edge">
<title>Node2&#45;&gt;Node1</title>
<path fill="none" stroke="#404040" d="M39.67,-171.46C39.65,-162.02 40.31,-151.45 42.5,-142 43,-139.83 43.57,-137.64 44.2,-135.45"/>
<polygon fill="none" stroke="#404040" points="44.29,-135.18 42.35,-128.23 48.01,-123.77 49.95,-130.72 44.29,-135.18"/>
<text text-anchor="middle" x="69.5" y="-145" font-family="Helvetica,sans-Serif" font-size="10.00"> #M_range</text>
</g>
<!-- Node3 -->
<g id="node3" class="node">
<title>Node3</title>
<g id="a_node3"><a xlink:href="classint.html" target="_top" xlink:title=" ">
<polygon fill="white" stroke="#bfbfbf" points="104,-171.5 104,-228.5 133,-228.5 133,-171.5 104,-171.5"/>
<text text-anchor="middle" x="118.5" y="-216.5" font-family="Helvetica,sans-Serif" font-size="10.00">int</text>
<polyline fill="none" stroke="#bfbfbf" points="104,-209.5 133,-209.5 "/>
<text text-anchor="middle" x="118.5" y="-197.5" font-family="Helvetica,sans-Serif" font-size="10.00"> </text>
<polyline fill="none" stroke="#bfbfbf" points="104,-190.5 133,-190.5 "/>
<text text-anchor="middle" x="118.5" y="-178.5" font-family="Helvetica,sans-Serif" font-size="10.00"> </text>
</a>
</g>
</g>
<!-- Node3&#45;&gt;Node1 -->
<g id="edge2" class="edge">
<title>Node3&#45;&gt;Node1</title>
<path fill="none" stroke="#404040" d="M110.61,-171.48C107.57,-160.9 103.95,-148.27 100.27,-135.42"/>
<polygon fill="none" stroke="#404040" points="100.19,-135.16 94.69,-130.49 96.88,-123.62 102.38,-128.29 100.19,-135.16"/>
<text text-anchor="middle" x="131" y="-145" font-family="Helvetica,sans-Serif" font-size="10.00"> #M_comp</text>
</g>
</g>
</svg>
