<?xml version="1.0" encoding="UTF-8" standalone="no"?>
<!DOCTYPE svg PUBLIC "-//W3C//DTD SVG 1.1//EN"
 "http://www.w3.org/Graphics/SVG/1.1/DTD/svg11.dtd">
<!-- Generated by graphviz version 2.43.0 (0)
 -->
<!-- Title: Feel::OperatorLagrangeP1&lt; SpaceType &gt; Pages: 1 -->
<svg width="307pt" height="651pt"
 viewBox="0.00 0.00 307.00 651.00" xmlns="http://www.w3.org/2000/svg" xmlns:xlink="http://www.w3.org/1999/xlink">
<g id="graph0" class="graph" transform="scale(1 1) rotate(0) translate(4 647)">
<title>Feel::OperatorLagrangeP1&lt; SpaceType &gt;</title>
<polygon fill="white" stroke="transparent" points="-4,4 -4,-647 303,-647 303,4 -4,4"/>
<!-- Node1 -->
<g id="node1" class="node">
<title>Node1</title>
<g id="a_node1"><a xlink:title=" ">
<polygon fill="#bfbfbf" stroke="black" points="98.5,-0.5 98.5,-266.5 241.5,-266.5 241.5,-0.5 98.5,-0.5"/>
<text text-anchor="start" x="106.5" y="-254.5" font-family="Helvetica,sans-Serif" font-size="10.00">Feel::OperatorLagrangeP1</text>
<text text-anchor="middle" x="170" y="-243.5" font-family="Helvetica,sans-Serif" font-size="10.00">&lt; SpaceType &gt;</text>
<polyline fill="none" stroke="black" points="98.5,-236.5 241.5,-236.5 "/>
<text text-anchor="middle" x="170" y="-224.5" font-family="Helvetica,sans-Serif" font-size="10.00"> </text>
<polyline fill="none" stroke="black" points="98.5,-217.5 241.5,-217.5 "/>
<text text-anchor="start" x="106.5" y="-205.5" font-family="Helvetica,sans-Serif" font-size="10.00">* domain_space_type</text>
<text text-anchor="start" x="106.5" y="-194.5" font-family="Helvetica,sans-Serif" font-size="10.00">* domain_space_ptrtype</text>
<text text-anchor="start" x="106.5" y="-183.5" font-family="Helvetica,sans-Serif" font-size="10.00">* domain_mesh_type</text>
<text text-anchor="start" x="106.5" y="-172.5" font-family="Helvetica,sans-Serif" font-size="10.00">* domain_mesh_ptrtype</text>
<text text-anchor="start" x="106.5" y="-161.5" font-family="Helvetica,sans-Serif" font-size="10.00">* value_type</text>
<text text-anchor="start" x="106.5" y="-150.5" font-family="Helvetica,sans-Serif" font-size="10.00">and 18 more...</text>
<text text-anchor="start" x="106.5" y="-139.5" font-family="Helvetica,sans-Serif" font-size="10.00">* M_mesh</text>
<text text-anchor="start" x="106.5" y="-128.5" font-family="Helvetica,sans-Serif" font-size="10.00">* M_el2el</text>
<text text-anchor="start" x="106.5" y="-117.5" font-family="Helvetica,sans-Serif" font-size="10.00">* M_el2pt</text>
<text text-anchor="start" x="106.5" y="-106.5" font-family="Helvetica,sans-Serif" font-size="10.00">* M_gmpc</text>
<text text-anchor="start" x="106.5" y="-95.5" font-family="Helvetica,sans-Serif" font-size="10.00">* M_gmc</text>
<text text-anchor="start" x="106.5" y="-84.5" font-family="Helvetica,sans-Serif" font-size="10.00">and 8 more...</text>
<text text-anchor="start" x="106.5" y="-73.5" font-family="Helvetica,sans-Serif" font-size="10.00">* OperatorLagrangeP1()</text>
<text text-anchor="start" x="106.5" y="-62.5" font-family="Helvetica,sans-Serif" font-size="10.00">* ~OperatorLagrangeP1()</text>
<text text-anchor="start" x="106.5" y="-51.5" font-family="Helvetica,sans-Serif" font-size="10.00">* operator=()</text>
<text text-anchor="start" x="106.5" y="-40.5" font-family="Helvetica,sans-Serif" font-size="10.00">* localDof()</text>
<text text-anchor="start" x="106.5" y="-29.5" font-family="Helvetica,sans-Serif" font-size="10.00">* localDof()</text>
<text text-anchor="start" x="106.5" y="-18.5" font-family="Helvetica,sans-Serif" font-size="10.00">* mesh()</text>
<text text-anchor="start" x="106.5" y="-7.5" font-family="Helvetica,sans-Serif" font-size="10.00">* referenceMesh()</text>
</a>
</g>
</g>
<!-- Node2 -->
<g id="node2" class="node">
<title>Node2</title>
<g id="a_node2"><a xlink:href="classFeel_1_1OperatorLinear.html" target="_top" xlink:title=" ">
<polygon fill="white" stroke="black" points="0,-314.5 0,-459.5 200,-459.5 200,-314.5 0,-314.5"/>
<text text-anchor="start" x="8" y="-447.5" font-family="Helvetica,sans-Serif" font-size="10.00">Feel::OperatorLinear</text>
<text text-anchor="start" x="8" y="-436.5" font-family="Helvetica,sans-Serif" font-size="10.00">&lt; SpaceType, detailOpLagP1</text>
<text text-anchor="start" x="8" y="-425.5" font-family="Helvetica,sans-Serif" font-size="10.00">::SpaceToLagrangeP1Space</text>
<text text-anchor="middle" x="100" y="-414.5" font-family="Helvetica,sans-Serif" font-size="10.00">&lt; SpaceType &gt;::image_space_type &gt;</text>
<polyline fill="none" stroke="black" points="0,-407.5 200,-407.5 "/>
<text text-anchor="middle" x="100" y="-395.5" font-family="Helvetica,sans-Serif" font-size="10.00"> </text>
<polyline fill="none" stroke="black" points="0,-388.5 200,-388.5 "/>
<text text-anchor="start" x="8" y="-376.5" font-family="Helvetica,sans-Serif" font-size="10.00">+ add()</text>
<text text-anchor="start" x="8" y="-365.5" font-family="Helvetica,sans-Serif" font-size="10.00">+ add()</text>
<text text-anchor="start" x="8" y="-354.5" font-family="Helvetica,sans-Serif" font-size="10.00">+ adjoint()</text>
<text text-anchor="start" x="8" y="-343.5" font-family="Helvetica,sans-Serif" font-size="10.00">+ apply()</text>
<text text-anchor="start" x="8" y="-332.5" font-family="Helvetica,sans-Serif" font-size="10.00">+ apply()</text>
<text text-anchor="start" x="8" y="-321.5" font-family="Helvetica,sans-Serif" font-size="10.00">and 29 more...</text>
</a>
</g>
</g>
<!-- Node2&#45;&gt;Node1 -->
<g id="edge1" class="edge">
<title>Node2&#45;&gt;Node1</title>
<path fill="none" stroke="midnightblue" d="M122.74,-304.28C126.1,-292.21 129.64,-279.52 133.19,-266.74"/>
<polygon fill="none" stroke="midnightblue" points="119.28,-303.69 119.97,-314.27 126.02,-305.57 119.28,-303.69"/>
</g>
<!-- Node3 -->
<g id="node3" class="node">
<title>Node3</title>
<g id="a_node3"><a xlink:href="classFeel_1_1Operator.html" target="_top" xlink:title=" ">
<polygon fill="white" stroke="black" points="9.5,-497.5 9.5,-642.5 190.5,-642.5 190.5,-497.5 9.5,-497.5"/>
<text text-anchor="start" x="17.5" y="-630.5" font-family="Helvetica,sans-Serif" font-size="10.00">Feel::Operator&lt; SpaceType,</text>
<text text-anchor="start" x="17.5" y="-619.5" font-family="Helvetica,sans-Serif" font-size="10.00"> detailOpLagP1::SpaceToLagrange</text>
<text text-anchor="start" x="17.5" y="-608.5" font-family="Helvetica,sans-Serif" font-size="10.00">P1Space&lt; SpaceType &gt;::image</text>
<text text-anchor="middle" x="100" y="-597.5" font-family="Helvetica,sans-Serif" font-size="10.00">_space_type &gt;</text>
<polyline fill="none" stroke="black" points="9.5,-590.5 190.5,-590.5 "/>
<text text-anchor="middle" x="100" y="-578.5" font-family="Helvetica,sans-Serif" font-size="10.00"> </text>
<polyline fill="none" stroke="black" points="9.5,-571.5 190.5,-571.5 "/>
<text text-anchor="start" x="17.5" y="-559.5" font-family="Helvetica,sans-Serif" font-size="10.00">+ apply()</text>
<text text-anchor="start" x="17.5" y="-548.5" font-family="Helvetica,sans-Serif" font-size="10.00">+ domainSpace()</text>
<text text-anchor="start" x="17.5" y="-537.5" font-family="Helvetica,sans-Serif" font-size="10.00">+ domainSpace()</text>
<text text-anchor="start" x="17.5" y="-526.5" font-family="Helvetica,sans-Serif" font-size="10.00">+ dualImageSpace()</text>
<text text-anchor="start" x="17.5" y="-515.5" font-family="Helvetica,sans-Serif" font-size="10.00">+ dualImageSpace()</text>
<text text-anchor="start" x="17.5" y="-504.5" font-family="Helvetica,sans-Serif" font-size="10.00">and 10 more...</text>
</a>
</g>
</g>
<!-- Node3&#45;&gt;Node2 -->
<g id="edge2" class="edge">
<title>Node3&#45;&gt;Node2</title>
<path fill="none" stroke="midnightblue" d="M100,-487.46C100,-478.17 100,-468.75 100,-459.61"/>
<polygon fill="none" stroke="midnightblue" points="96.5,-487.46 100,-497.46 103.5,-487.46 96.5,-487.46"/>
</g>
<!-- Node4 -->
<g id="node4" class="node">
<title>Node4</title>
<g id="a_node4"><a xlink:href="classsize__t.html" target="_top" xlink:title=" ">
<polygon fill="white" stroke="black" points="218.5,-358.5 218.5,-415.5 263.5,-415.5 263.5,-358.5 218.5,-358.5"/>
<text text-anchor="middle" x="241" y="-403.5" font-family="Helvetica,sans-Serif" font-size="10.00">size_t</text>
<polyline fill="none" stroke="black" points="218.5,-396.5 263.5,-396.5 "/>
<text text-anchor="middle" x="241" y="-384.5" font-family="Helvetica,sans-Serif" font-size="10.00"> </text>
<polyline fill="none" stroke="black" points="218.5,-377.5 263.5,-377.5 "/>
<text text-anchor="middle" x="241" y="-365.5" font-family="Helvetica,sans-Serif" font-size="10.00"> </text>
</a>
</g>
</g>
<!-- Node4&#45;&gt;Node1 -->
<g id="edge3" class="edge">
<title>Node4&#45;&gt;Node1</title>
<path fill="none" stroke="#404040" d="M233.13,-358.12C227.43,-337.94 219.25,-308.95 210.65,-278.5"/>
<polygon fill="none" stroke="#404040" points="210.6,-278.32 205.12,-273.63 207.34,-266.77 212.82,-271.46 210.6,-278.32"/>
<text text-anchor="middle" x="256" y="-288" font-family="Helvetica,sans-Serif" font-size="10.00"> +gmc_context_v</text>
</g>
</g>
</svg>
