<?xml version="1.0" encoding="UTF-8" standalone="no"?>
<!DOCTYPE svg PUBLIC "-//W3C//DTD SVG 1.1//EN"
 "http://www.w3.org/Graphics/SVG/1.1/DTD/svg11.dtd">
<!-- Generated by graphviz version 2.43.0 (0)
 -->
<!-- Title: Feel::LocalDofSet&lt; NC, SizeT &gt; Pages: 1 -->
<svg width="130pt" height="332pt"
 viewBox="0.00 0.00 130.00 332.00" xmlns="http://www.w3.org/2000/svg" xmlns:xlink="http://www.w3.org/1999/xlink">
<g id="graph0" class="graph" transform="scale(1 1) rotate(0) translate(4 328)">
<title>Feel::LocalDofSet&lt; NC, SizeT &gt;</title>
<polygon fill="white" stroke="transparent" points="-4,4 -4,-328 126,-328 126,4 -4,4"/>
<!-- Node1 -->
<g id="node1" class="node">
<title>Node1</title>
<g id="a_node1"><a xlink:title=" ">
<polygon fill="#bfbfbf" stroke="black" points="6,-0.5 6,-112.5 116,-112.5 116,-0.5 6,-0.5"/>
<text text-anchor="start" x="14" y="-100.5" font-family="Helvetica,sans-Serif" font-size="10.00">Feel::LocalDofSet&lt;</text>
<text text-anchor="middle" x="61" y="-89.5" font-family="Helvetica,sans-Serif" font-size="10.00"> NC, SizeT &gt;</text>
<polyline fill="none" stroke="black" points="6,-82.5 116,-82.5 "/>
<text text-anchor="middle" x="61" y="-70.5" font-family="Helvetica,sans-Serif" font-size="10.00"> </text>
<polyline fill="none" stroke="black" points="6,-63.5 116,-63.5 "/>
<text text-anchor="start" x="14" y="-51.5" font-family="Helvetica,sans-Serif" font-size="10.00">+ LocalDofSet()</text>
<text text-anchor="start" x="14" y="-40.5" font-family="Helvetica,sans-Serif" font-size="10.00">+ LocalDofSet()</text>
<text text-anchor="start" x="14" y="-29.5" font-family="Helvetica,sans-Serif" font-size="10.00">+ update()</text>
<text text-anchor="start" x="14" y="-18.5" font-family="Helvetica,sans-Serif" font-size="10.00">+ update()</text>
<text text-anchor="start" x="14" y="-7.5" font-family="Helvetica,sans-Serif" font-size="10.00">+ nComponents()</text>
</a>
</g>
</g>
<!-- Node2 -->
<g id="node2" class="node">
<title>Node2</title>
<g id="a_node2"><a xlink:title="STL class.">
<polygon fill="white" stroke="#bfbfbf" points="0,-150.5 0,-218.5 122,-218.5 122,-150.5 0,-150.5"/>
<text text-anchor="start" x="8" y="-206.5" font-family="Helvetica,sans-Serif" font-size="10.00">std::vector&lt; LocalDof</text>
<text text-anchor="middle" x="61" y="-195.5" font-family="Helvetica,sans-Serif" font-size="10.00">&lt; 1, uint32_type &gt; &gt;</text>
<polyline fill="none" stroke="#bfbfbf" points="0,-188.5 122,-188.5 "/>
<text text-anchor="middle" x="61" y="-176.5" font-family="Helvetica,sans-Serif" font-size="10.00"> </text>
<polyline fill="none" stroke="#bfbfbf" points="0,-169.5 122,-169.5 "/>
<text text-anchor="middle" x="61" y="-157.5" font-family="Helvetica,sans-Serif" font-size="10.00"> </text>
</a>
</g>
</g>
<!-- Node2&#45;&gt;Node1 -->
<g id="edge1" class="edge">
<title>Node2&#45;&gt;Node1</title>
<path fill="none" stroke="midnightblue" d="M61,-140.31C61,-131.45 61,-122.01 61,-112.79"/>
<polygon fill="none" stroke="midnightblue" points="57.5,-140.39 61,-150.39 64.5,-140.4 57.5,-140.39"/>
</g>
<!-- Node3 -->
<g id="node3" class="node">
<title>Node3</title>
<g id="a_node3"><a xlink:title=" ">
<polygon fill="white" stroke="#bfbfbf" points="46.5,-266.5 46.5,-323.5 75.5,-323.5 75.5,-266.5 46.5,-266.5"/>
<text text-anchor="middle" x="61" y="-311.5" font-family="Helvetica,sans-Serif" font-size="10.00">T</text>
<polyline fill="none" stroke="#bfbfbf" points="46.5,-304.5 75.5,-304.5 "/>
<text text-anchor="middle" x="61" y="-292.5" font-family="Helvetica,sans-Serif" font-size="10.00"> </text>
<polyline fill="none" stroke="#bfbfbf" points="46.5,-285.5 75.5,-285.5 "/>
<text text-anchor="middle" x="61" y="-273.5" font-family="Helvetica,sans-Serif" font-size="10.00"> </text>
</a>
</g>
</g>
<!-- Node3&#45;&gt;Node2 -->
<g id="edge2" class="edge">
<title>Node3&#45;&gt;Node2</title>
<path fill="none" stroke="#404040" d="M61,-266.34C61,-255.53 61,-242.85 61,-230.77"/>
<polygon fill="none" stroke="#404040" points="61,-230.52 57,-224.52 61,-218.52 65,-224.52 61,-230.52"/>
<text text-anchor="middle" x="90" y="-240" font-family="Helvetica,sans-Serif" font-size="10.00"> +elements</text>
</g>
</g>
</svg>
