<?xml version="1.0" encoding="UTF-8" standalone="no"?>
<!DOCTYPE svg PUBLIC "-//W3C//DTD SVG 1.1//EN"
 "http://www.w3.org/Graphics/SVG/1.1/DTD/svg11.dtd">
<!-- Generated by graphviz version 2.43.0 (0)
 -->
<!-- Title: Feel::Mesh1D&lt; Shape, T, IndexT &gt; Pages: 1 -->
<svg width="682pt" height="776pt"
 viewBox="0.00 0.00 682.00 776.00" xmlns="http://www.w3.org/2000/svg" xmlns:xlink="http://www.w3.org/1999/xlink">
<g id="graph0" class="graph" transform="scale(1 1) rotate(0) translate(4 772)">
<title>Feel::Mesh1D&lt; Shape, T, IndexT &gt;</title>
<polygon fill="white" stroke="transparent" points="-4,4 -4,-772 678,-772 678,4 -4,4"/>
<!-- Node1 -->
<g id="node1" class="node">
<title>Node1</title>
<g id="a_node1"><a xlink:title="1D mesh class">
<polygon fill="#bfbfbf" stroke="black" points="239.5,-0.5 239.5,-310.5 400.5,-310.5 400.5,-0.5 239.5,-0.5"/>
<text text-anchor="start" x="247.5" y="-298.5" font-family="Helvetica,sans-Serif" font-size="10.00">Feel::Mesh1D&lt; Shape,</text>
<text text-anchor="middle" x="320" y="-287.5" font-family="Helvetica,sans-Serif" font-size="10.00"> T, IndexT &gt;</text>
<polyline fill="none" stroke="black" points="239.5,-280.5 400.5,-280.5 "/>
<text text-anchor="middle" x="320" y="-268.5" font-family="Helvetica,sans-Serif" font-size="10.00"> </text>
<polyline fill="none" stroke="black" points="239.5,-261.5 400.5,-261.5 "/>
<text text-anchor="start" x="247.5" y="-249.5" font-family="Helvetica,sans-Serif" font-size="10.00">* return_type</text>
<text text-anchor="start" x="247.5" y="-238.5" font-family="Helvetica,sans-Serif" font-size="10.00">* super_visitable</text>
<text text-anchor="start" x="247.5" y="-227.5" font-family="Helvetica,sans-Serif" font-size="10.00">* super</text>
<text text-anchor="start" x="247.5" y="-216.5" font-family="Helvetica,sans-Serif" font-size="10.00">* index_type</text>
<text text-anchor="start" x="247.5" y="-205.5" font-family="Helvetica,sans-Serif" font-size="10.00">* size_type</text>
<text text-anchor="start" x="247.5" y="-194.5" font-family="Helvetica,sans-Serif" font-size="10.00">and 33 more...</text>
<text text-anchor="start" x="247.5" y="-183.5" font-family="Helvetica,sans-Serif" font-size="10.00">* boost::serialization</text>
<text text-anchor="start" x="247.5" y="-172.5" font-family="Helvetica,sans-Serif" font-size="10.00">::access</text>
<text text-anchor="start" x="247.5" y="-161.5" font-family="Helvetica,sans-Serif" font-size="10.00">* faces()</text>
<text text-anchor="start" x="247.5" y="-150.5" font-family="Helvetica,sans-Serif" font-size="10.00">* faces()</text>
<text text-anchor="start" x="247.5" y="-139.5" font-family="Helvetica,sans-Serif" font-size="10.00">* hasFace()</text>
<text text-anchor="start" x="247.5" y="-128.5" font-family="Helvetica,sans-Serif" font-size="10.00">* face()</text>
<text text-anchor="start" x="247.5" y="-117.5" font-family="Helvetica,sans-Serif" font-size="10.00">and 27 more...</text>
<text text-anchor="start" x="247.5" y="-106.5" font-family="Helvetica,sans-Serif" font-size="10.00">* Mesh1D()</text>
<text text-anchor="start" x="247.5" y="-95.5" font-family="Helvetica,sans-Serif" font-size="10.00">* Mesh1D()</text>
<text text-anchor="start" x="247.5" y="-84.5" font-family="Helvetica,sans-Serif" font-size="10.00">* ~Mesh1D()</text>
<text text-anchor="start" x="247.5" y="-73.5" font-family="Helvetica,sans-Serif" font-size="10.00">* operator=()</text>
<text text-anchor="start" x="247.5" y="-62.5" font-family="Helvetica,sans-Serif" font-size="10.00">* isEmpty()</text>
<text text-anchor="start" x="247.5" y="-51.5" font-family="Helvetica,sans-Serif" font-size="10.00">* numElements()</text>
<text text-anchor="start" x="247.5" y="-40.5" font-family="Helvetica,sans-Serif" font-size="10.00">* numLocalFaces()</text>
<text text-anchor="start" x="247.5" y="-29.5" font-family="Helvetica,sans-Serif" font-size="10.00">* numLocalTopologicalFaces()</text>
<text text-anchor="start" x="247.5" y="-18.5" font-family="Helvetica,sans-Serif" font-size="10.00">* numLocalVertices()</text>
<text text-anchor="start" x="247.5" y="-7.5" font-family="Helvetica,sans-Serif" font-size="10.00">and 3 more...</text>
</a>
</g>
</g>
<!-- Node2 -->
<g id="node2" class="node">
<title>Node2</title>
<g id="a_node2"><a xlink:href="classFeel_1_1VisitableBase.html" target="_top" xlink:title=" ">
<polygon fill="white" stroke="black" points="0,-512.5 0,-602.5 126,-602.5 126,-512.5 0,-512.5"/>
<text text-anchor="middle" x="63" y="-590.5" font-family="Helvetica,sans-Serif" font-size="10.00">Feel::VisitableBase&lt;&gt;</text>
<polyline fill="none" stroke="black" points="0,-583.5 126,-583.5 "/>
<text text-anchor="middle" x="63" y="-571.5" font-family="Helvetica,sans-Serif" font-size="10.00"> </text>
<polyline fill="none" stroke="black" points="0,-564.5 126,-564.5 "/>
<text text-anchor="start" x="8" y="-552.5" font-family="Helvetica,sans-Serif" font-size="10.00">+ accept()</text>
<text text-anchor="start" x="8" y="-541.5" font-family="Helvetica,sans-Serif" font-size="10.00">+ accept()</text>
<text text-anchor="start" x="8" y="-530.5" font-family="Helvetica,sans-Serif" font-size="10.00">+ ~VisitableBase()</text>
<text text-anchor="start" x="8" y="-519.5" font-family="Helvetica,sans-Serif" font-size="10.00"># acceptImpl()</text>
</a>
</g>
</g>
<!-- Node2&#45;&gt;Node1 -->
<g id="edge1" class="edge">
<title>Node2&#45;&gt;Node1</title>
<path fill="none" stroke="midnightblue" d="M74.62,-502.39C85.68,-458.31 105.12,-395.64 135,-347 162.87,-301.63 203.25,-258.42 239.18,-224.66"/>
<polygon fill="none" stroke="midnightblue" points="71.17,-501.79 72.19,-512.33 77.97,-503.45 71.17,-501.79"/>
</g>
<!-- Node3 -->
<g id="node3" class="node">
<title>Node3</title>
<g id="a_node3"><a xlink:href="classFeel_1_1MeshBase.html" target="_top" xlink:title=" ">
<polygon fill="white" stroke="black" points="144.5,-347.5 144.5,-767.5 317.5,-767.5 317.5,-347.5 144.5,-347.5"/>
<text text-anchor="start" x="152.5" y="-755.5" font-family="Helvetica,sans-Serif" font-size="10.00">Feel::MeshBase&lt; uint32</text>
<text text-anchor="middle" x="231" y="-744.5" font-family="Helvetica,sans-Serif" font-size="10.00">_type &gt;</text>
<polyline fill="none" stroke="black" points="144.5,-737.5 317.5,-737.5 "/>
<text text-anchor="middle" x="231" y="-725.5" font-family="Helvetica,sans-Serif" font-size="10.00"> </text>
<polyline fill="none" stroke="black" points="144.5,-718.5 317.5,-718.5 "/>
<text text-anchor="start" x="152.5" y="-706.5" font-family="Helvetica,sans-Serif" font-size="10.00">* super</text>
<text text-anchor="start" x="152.5" y="-695.5" font-family="Helvetica,sans-Serif" font-size="10.00">* index_type</text>
<text text-anchor="start" x="152.5" y="-684.5" font-family="Helvetica,sans-Serif" font-size="10.00">* index_t</text>
<text text-anchor="start" x="152.5" y="-673.5" font-family="Helvetica,sans-Serif" font-size="10.00">* size_type</text>
<text text-anchor="start" x="152.5" y="-662.5" font-family="Helvetica,sans-Serif" font-size="10.00">* face_processor_type</text>
<text text-anchor="start" x="152.5" y="-651.5" font-family="Helvetica,sans-Serif" font-size="10.00">* smd_type</text>
<text text-anchor="start" x="152.5" y="-640.5" font-family="Helvetica,sans-Serif" font-size="10.00">* smd_ptrtype</text>
<text text-anchor="start" x="152.5" y="-629.5" font-family="Helvetica,sans-Serif" font-size="10.00">* boost::serialization</text>
<text text-anchor="start" x="152.5" y="-618.5" font-family="Helvetica,sans-Serif" font-size="10.00">::access</text>
<text text-anchor="start" x="152.5" y="-607.5" font-family="Helvetica,sans-Serif" font-size="10.00">* M_markername</text>
<text text-anchor="start" x="152.5" y="-596.5" font-family="Helvetica,sans-Serif" font-size="10.00">* M_topodim</text>
<text text-anchor="start" x="152.5" y="-585.5" font-family="Helvetica,sans-Serif" font-size="10.00">* M_realdim</text>
<text text-anchor="start" x="152.5" y="-574.5" font-family="Helvetica,sans-Serif" font-size="10.00">* M_components</text>
<text text-anchor="start" x="152.5" y="-563.5" font-family="Helvetica,sans-Serif" font-size="10.00">and 66 more...</text>
<text text-anchor="start" x="152.5" y="-552.5" font-family="Helvetica,sans-Serif" font-size="10.00">* MeshBase()</text>
<text text-anchor="start" x="152.5" y="-541.5" font-family="Helvetica,sans-Serif" font-size="10.00">* MeshBase()</text>
<text text-anchor="start" x="152.5" y="-530.5" font-family="Helvetica,sans-Serif" font-size="10.00">* MeshBase()</text>
<text text-anchor="start" x="152.5" y="-519.5" font-family="Helvetica,sans-Serif" font-size="10.00">* MeshBase()</text>
<text text-anchor="start" x="152.5" y="-508.5" font-family="Helvetica,sans-Serif" font-size="10.00">* MeshBase()</text>
<text text-anchor="start" x="152.5" y="-497.5" font-family="Helvetica,sans-Serif" font-size="10.00">* MeshBase()</text>
<text text-anchor="start" x="152.5" y="-486.5" font-family="Helvetica,sans-Serif" font-size="10.00">* ~MeshBase()</text>
<text text-anchor="start" x="152.5" y="-475.5" font-family="Helvetica,sans-Serif" font-size="10.00">* operator=()</text>
<text text-anchor="start" x="152.5" y="-464.5" font-family="Helvetica,sans-Serif" font-size="10.00">* operator=()</text>
<text text-anchor="start" x="152.5" y="-453.5" font-family="Helvetica,sans-Serif" font-size="10.00">* shared_from_this_meshbase()</text>
<text text-anchor="start" x="152.5" y="-442.5" font-family="Helvetica,sans-Serif" font-size="10.00">* shared_from_this_meshbase()</text>
<text text-anchor="start" x="152.5" y="-431.5" font-family="Helvetica,sans-Serif" font-size="10.00">* isUpdatedForUse()</text>
<text text-anchor="start" x="152.5" y="-420.5" font-family="Helvetica,sans-Serif" font-size="10.00">* setTopologicalDimension()</text>
<text text-anchor="start" x="152.5" y="-409.5" font-family="Helvetica,sans-Serif" font-size="10.00">* setRealDimension()</text>
<text text-anchor="start" x="152.5" y="-398.5" font-family="Helvetica,sans-Serif" font-size="10.00">and 14 more...</text>
<text text-anchor="start" x="152.5" y="-387.5" font-family="Helvetica,sans-Serif" font-size="10.00">* setNumberOfPartitions()</text>
<text text-anchor="start" x="152.5" y="-376.5" font-family="Helvetica,sans-Serif" font-size="10.00">* setNumVertices()</text>
<text text-anchor="start" x="152.5" y="-365.5" font-family="Helvetica,sans-Serif" font-size="10.00">* setComponents()</text>
<text text-anchor="start" x="152.5" y="-354.5" font-family="Helvetica,sans-Serif" font-size="10.00">* setParametric()</text>
</a>
</g>
</g>
<!-- Node3&#45;&gt;Node1 -->
<g id="edge2" class="edge">
<title>Node3&#45;&gt;Node1</title>
<path fill="none" stroke="midnightblue" d="M279.71,-337.56C281.73,-328.48 283.74,-319.46 285.72,-310.57"/>
<polygon fill="none" stroke="midnightblue" points="276.28,-336.9 277.52,-347.42 283.11,-338.42 276.28,-336.9"/>
</g>
<!-- Node4 -->
<g id="node4" class="node">
<title>Node4</title>
<g id="a_node4"><a xlink:href="classElements.html" target="_top" xlink:title=" ">
<polygon fill="white" stroke="black" points="336,-523.5 336,-591.5 482,-591.5 482,-523.5 336,-523.5"/>
<text text-anchor="start" x="344" y="-579.5" font-family="Helvetica,sans-Serif" font-size="10.00">Elements&lt; Shape, double,</text>
<text text-anchor="middle" x="409" y="-568.5" font-family="Helvetica,sans-Serif" font-size="10.00"> uint32_type &gt;</text>
<polyline fill="none" stroke="black" points="336,-561.5 482,-561.5 "/>
<text text-anchor="middle" x="409" y="-549.5" font-family="Helvetica,sans-Serif" font-size="10.00"> </text>
<polyline fill="none" stroke="black" points="336,-542.5 482,-542.5 "/>
<text text-anchor="middle" x="409" y="-530.5" font-family="Helvetica,sans-Serif" font-size="10.00"> </text>
</a>
</g>
</g>
<!-- Node4&#45;&gt;Node1 -->
<g id="edge3" class="edge">
<title>Node4&#45;&gt;Node1</title>
<path fill="none" stroke="midnightblue" d="M399.46,-513.61C388.68,-465.17 370.52,-383.57 354.29,-310.59"/>
<polygon fill="none" stroke="midnightblue" points="396.05,-514.42 401.64,-523.43 402.89,-512.9 396.05,-514.42"/>
</g>
<!-- Node5 -->
<g id="node5" class="node">
<title>Node5</title>
<g id="a_node5"><a xlink:href="classPoints.html" target="_top" xlink:title=" ">
<polygon fill="white" stroke="black" points="500,-507 500,-608 674,-608 674,-507 500,-507"/>
<text text-anchor="start" x="508" y="-596" font-family="Helvetica,sans-Serif" font-size="10.00">Points&lt; Shape::nRealDim,</text>
<text text-anchor="start" x="508" y="-585" font-family="Helvetica,sans-Serif" font-size="10.00"> double, uint32_type,</text>
<text text-anchor="start" x="508" y="-574" font-family="Helvetica,sans-Serif" font-size="10.00"> SubFaceOf&lt; Elements&lt; Shape,</text>
<text text-anchor="start" x="508" y="-563" font-family="Helvetica,sans-Serif" font-size="10.00"> double, uint32_type &gt;::element</text>
<text text-anchor="middle" x="587" y="-552" font-family="Helvetica,sans-Serif" font-size="10.00">_type &gt; &gt;</text>
<polyline fill="none" stroke="black" points="500,-545 674,-545 "/>
<text text-anchor="middle" x="587" y="-533" font-family="Helvetica,sans-Serif" font-size="10.00"> </text>
<polyline fill="none" stroke="black" points="500,-526 674,-526 "/>
<text text-anchor="middle" x="587" y="-514" font-family="Helvetica,sans-Serif" font-size="10.00"> </text>
</a>
</g>
</g>
<!-- Node5&#45;&gt;Node1 -->
<g id="edge4" class="edge">
<title>Node5&#45;&gt;Node1</title>
<path fill="none" stroke="midnightblue" d="M565.47,-497.35C548.38,-453.97 522.22,-394.58 491,-347 465.16,-307.61 431.4,-268.18 400.71,-235.49"/>
<polygon fill="none" stroke="midnightblue" points="562.3,-498.86 569.19,-506.9 568.82,-496.32 562.3,-498.86"/>
</g>
</g>
</svg>
