<?xml version="1.0" encoding="UTF-8" standalone="no"?>
<!DOCTYPE svg PUBLIC "-//W3C//DTD SVG 1.1//EN"
 "http://www.w3.org/Graphics/SVG/1.1/DTD/svg11.dtd">
<!-- Generated by graphviz version 2.43.0 (0)
 -->
<!-- Title: Feel::FeelModels::ModelAlgebraic::DataDofEliminationIds Pages: 1 -->
<svg width="386pt" height="303pt"
 viewBox="0.00 0.00 386.00 303.00" xmlns="http://www.w3.org/2000/svg" xmlns:xlink="http://www.w3.org/1999/xlink">
<g id="graph0" class="graph" transform="scale(1 1) rotate(0) translate(4 299)">
<title>Feel::FeelModels::ModelAlgebraic::DataDofEliminationIds</title>
<polygon fill="white" stroke="transparent" points="-4,4 -4,-299 382,-299 382,4 -4,4"/>
<!-- Node1 -->
<g id="node1" class="node">
<title>Node1</title>
<g id="a_node1"><a xlink:title=" ">
<polygon fill="#bfbfbf" stroke="black" points="99,-160.5 99,-294.5 279,-294.5 279,-160.5 99,-160.5"/>
<text text-anchor="start" x="107" y="-282.5" font-family="Helvetica,sans-Serif" font-size="10.00">Feel::FeelModels::ModelAlgebraic</text>
<text text-anchor="middle" x="189" y="-271.5" font-family="Helvetica,sans-Serif" font-size="10.00">::DataDofEliminationIds</text>
<polyline fill="none" stroke="black" points="99,-264.5 279,-264.5 "/>
<text text-anchor="middle" x="189" y="-252.5" font-family="Helvetica,sans-Serif" font-size="10.00"> </text>
<polyline fill="none" stroke="black" points="99,-245.5 279,-245.5 "/>
<text text-anchor="start" x="107" y="-233.5" font-family="Helvetica,sans-Serif" font-size="10.00">+ DataDofEliminationIds()</text>
<text text-anchor="start" x="107" y="-222.5" font-family="Helvetica,sans-Serif" font-size="10.00">+ DataDofEliminationIds()</text>
<text text-anchor="start" x="107" y="-211.5" font-family="Helvetica,sans-Serif" font-size="10.00">+ DataDofEliminationIds()</text>
<text text-anchor="start" x="107" y="-200.5" font-family="Helvetica,sans-Serif" font-size="10.00">+ dofEliminationIds()</text>
<text text-anchor="start" x="107" y="-189.5" font-family="Helvetica,sans-Serif" font-size="10.00">+ dofEliminationIds()</text>
<text text-anchor="start" x="107" y="-178.5" font-family="Helvetica,sans-Serif" font-size="10.00">+ hasDofEliminationIds()</text>
<text text-anchor="start" x="107" y="-167.5" font-family="Helvetica,sans-Serif" font-size="10.00">+ setHasDofEliminationIds()</text>
</a>
</g>
</g>
<!-- Node2 -->
<g id="node2" class="node">
<title>Node2</title>
<g id="a_node2"><a xlink:href="classFeel_1_1FeelModels_1_1ModelAlgebraic_1_1DataUpdateJacobian.html" target="_top" xlink:title=" ">
<polygon fill="white" stroke="black" points="0,-0.5 0,-123.5 180,-123.5 180,-0.5 0,-0.5"/>
<text text-anchor="start" x="8" y="-111.5" font-family="Helvetica,sans-Serif" font-size="10.00">Feel::FeelModels::ModelAlgebraic</text>
<text text-anchor="middle" x="90" y="-100.5" font-family="Helvetica,sans-Serif" font-size="10.00">::DataUpdateJacobian</text>
<polyline fill="none" stroke="black" points="0,-93.5 180,-93.5 "/>
<text text-anchor="middle" x="90" y="-81.5" font-family="Helvetica,sans-Serif" font-size="10.00"> </text>
<polyline fill="none" stroke="black" points="0,-74.5 180,-74.5 "/>
<text text-anchor="start" x="8" y="-62.5" font-family="Helvetica,sans-Serif" font-size="10.00">+ buildCstPart()</text>
<text text-anchor="start" x="8" y="-51.5" font-family="Helvetica,sans-Serif" font-size="10.00">+ currentSolution()</text>
<text text-anchor="start" x="8" y="-40.5" font-family="Helvetica,sans-Serif" font-size="10.00">+ DataUpdateJacobian()</text>
<text text-anchor="start" x="8" y="-29.5" font-family="Helvetica,sans-Serif" font-size="10.00">+ DataUpdateJacobian()</text>
<text text-anchor="start" x="8" y="-18.5" font-family="Helvetica,sans-Serif" font-size="10.00">+ DataUpdateJacobian()</text>
<text text-anchor="start" x="8" y="-7.5" font-family="Helvetica,sans-Serif" font-size="10.00">and 3 more...</text>
</a>
</g>
</g>
<!-- Node1&#45;&gt;Node2 -->
<g id="edge1" class="edge">
<title>Node1&#45;&gt;Node2</title>
<path fill="none" stroke="midnightblue" d="M143.81,-151.87C138.11,-142.45 132.32,-132.9 126.77,-123.73"/>
<polygon fill="none" stroke="midnightblue" points="140.84,-153.73 149.02,-160.47 146.83,-150.1 140.84,-153.73"/>
</g>
<!-- Node3 -->
<g id="node3" class="node">
<title>Node3</title>
<g id="a_node3"><a xlink:href="classFeel_1_1FeelModels_1_1ModelAlgebraic_1_1DataUpdateResidual.html" target="_top" xlink:title=" ">
<polygon fill="white" stroke="black" points="198,-0.5 198,-123.5 378,-123.5 378,-0.5 198,-0.5"/>
<text text-anchor="start" x="206" y="-111.5" font-family="Helvetica,sans-Serif" font-size="10.00">Feel::FeelModels::ModelAlgebraic</text>
<text text-anchor="middle" x="288" y="-100.5" font-family="Helvetica,sans-Serif" font-size="10.00">::DataUpdateResidual</text>
<polyline fill="none" stroke="black" points="198,-93.5 378,-93.5 "/>
<text text-anchor="middle" x="288" y="-81.5" font-family="Helvetica,sans-Serif" font-size="10.00"> </text>
<polyline fill="none" stroke="black" points="198,-74.5 378,-74.5 "/>
<text text-anchor="start" x="206" y="-62.5" font-family="Helvetica,sans-Serif" font-size="10.00">+ buildCstPart()</text>
<text text-anchor="start" x="206" y="-51.5" font-family="Helvetica,sans-Serif" font-size="10.00">+ currentSolution()</text>
<text text-anchor="start" x="206" y="-40.5" font-family="Helvetica,sans-Serif" font-size="10.00">+ DataUpdateResidual()</text>
<text text-anchor="start" x="206" y="-29.5" font-family="Helvetica,sans-Serif" font-size="10.00">+ DataUpdateResidual()</text>
<text text-anchor="start" x="206" y="-18.5" font-family="Helvetica,sans-Serif" font-size="10.00">+ DataUpdateResidual()</text>
<text text-anchor="start" x="206" y="-7.5" font-family="Helvetica,sans-Serif" font-size="10.00">and 6 more...</text>
</a>
</g>
</g>
<!-- Node1&#45;&gt;Node3 -->
<g id="edge2" class="edge">
<title>Node1&#45;&gt;Node3</title>
<path fill="none" stroke="midnightblue" d="M234.19,-151.87C239.89,-142.45 245.68,-132.9 251.23,-123.73"/>
<polygon fill="none" stroke="midnightblue" points="231.17,-150.1 228.98,-160.47 237.16,-153.73 231.17,-150.1"/>
</g>
</g>
</svg>
