<?xml version="1.0" encoding="UTF-8" standalone="no"?>
<!DOCTYPE svg PUBLIC "-//W3C//DTD SVG 1.1//EN"
 "http://www.w3.org/Graphics/SVG/1.1/DTD/svg11.dtd">
<!-- Generated by graphviz version 2.43.0 (0)
 -->
<!-- Title: Feel::MeshSupportBase Pages: 1 -->
<svg width="1182pt" height="303pt"
 viewBox="0.00 0.00 1181.50 303.00" xmlns="http://www.w3.org/2000/svg" xmlns:xlink="http://www.w3.org/1999/xlink">
<g id="graph0" class="graph" transform="scale(1 1) rotate(0) translate(4 299)">
<title>Feel::MeshSupportBase</title>
<polygon fill="white" stroke="transparent" points="-4,4 -4,-299 1177.5,-299 1177.5,4 -4,4"/>
<!-- Node1 -->
<g id="node1" class="node">
<title>Node1</title>
<g id="a_node1"><a xlink:title="Description of a mesh support.">
<polygon fill="#bfbfbf" stroke="black" points="603,-182.5 603,-294.5 734,-294.5 734,-182.5 603,-182.5"/>
<text text-anchor="middle" x="668.5" y="-282.5" font-family="Helvetica,sans-Serif" font-size="10.00">Feel::MeshSupportBase</text>
<polyline fill="none" stroke="black" points="603,-275.5 734,-275.5 "/>
<text text-anchor="middle" x="668.5" y="-263.5" font-family="Helvetica,sans-Serif" font-size="10.00"> </text>
<polyline fill="none" stroke="black" points="603,-256.5 734,-256.5 "/>
<text text-anchor="start" x="611" y="-244.5" font-family="Helvetica,sans-Serif" font-size="10.00">+ hasElement()</text>
<text text-anchor="start" x="611" y="-233.5" font-family="Helvetica,sans-Serif" font-size="10.00">+ hasGhostElement()</text>
<text text-anchor="start" x="611" y="-222.5" font-family="Helvetica,sans-Serif" font-size="10.00">+ isFullSupport()</text>
<text text-anchor="start" x="611" y="-211.5" font-family="Helvetica,sans-Serif" font-size="10.00">+ isPartialSupport()</text>
<text text-anchor="start" x="611" y="-200.5" font-family="Helvetica,sans-Serif" font-size="10.00">+ numElements()</text>
<text text-anchor="start" x="611" y="-189.5" font-family="Helvetica,sans-Serif" font-size="10.00">and 4 more...</text>
</a>
</g>
</g>
<!-- Node2 -->
<g id="node2" class="node">
<title>Node2</title>
<g id="a_node2"><a xlink:href="classFeel_1_1MeshSupport.html" target="_top" xlink:title=" ">
<polygon fill="white" stroke="black" points="0,-6 0,-140 163,-140 163,-6 0,-6"/>
<text text-anchor="start" x="8" y="-128" font-family="Helvetica,sans-Serif" font-size="10.00">Feel::MeshSupport&lt;</text>
<text text-anchor="start" x="8" y="-117" font-family="Helvetica,sans-Serif" font-size="10.00"> decay_type&lt; std::remove</text>
<text text-anchor="middle" x="81.5" y="-106" font-family="Helvetica,sans-Serif" font-size="10.00">_pointer_t&lt; Feel::Mesh &gt; &gt; &gt;</text>
<polyline fill="none" stroke="black" points="0,-99 163,-99 "/>
<text text-anchor="start" x="8" y="-87" font-family="Helvetica,sans-Serif" font-size="10.00">+ nDim</text>
<polyline fill="none" stroke="black" points="0,-80 163,-80 "/>
<text text-anchor="start" x="8" y="-68" font-family="Helvetica,sans-Serif" font-size="10.00">+ hasAnyMarker()</text>
<text text-anchor="start" x="8" y="-57" font-family="Helvetica,sans-Serif" font-size="10.00">+ hasElement()</text>
<text text-anchor="start" x="8" y="-46" font-family="Helvetica,sans-Serif" font-size="10.00">+ hasGhostElement()</text>
<text text-anchor="start" x="8" y="-35" font-family="Helvetica,sans-Serif" font-size="10.00">+ isFullSupport()</text>
<text text-anchor="start" x="8" y="-24" font-family="Helvetica,sans-Serif" font-size="10.00">+ isGhostFace()</text>
<text text-anchor="start" x="8" y="-13" font-family="Helvetica,sans-Serif" font-size="10.00">and 20 more...</text>
</a>
</g>
</g>
<!-- Node1&#45;&gt;Node2 -->
<g id="edge1" class="edge">
<title>Node1&#45;&gt;Node2</title>
<path fill="none" stroke="midnightblue" d="M592.85,-234.83C492.57,-228.82 312.04,-209.3 172.5,-146 168.56,-144.21 164.63,-142.21 160.75,-140.06"/>
<polygon fill="none" stroke="midnightblue" points="592.71,-238.33 602.89,-235.4 593.11,-231.34 592.71,-238.33"/>
</g>
<!-- Node3 -->
<g id="node3" class="node">
<title>Node3</title>
<g id="a_node3"><a xlink:href="classFeel_1_1MeshSupport.html" target="_top" xlink:title=" ">
<polygon fill="white" stroke="black" points="181.5,-6 181.5,-140 345.5,-140 345.5,-6 181.5,-6"/>
<text text-anchor="start" x="189.5" y="-128" font-family="Helvetica,sans-Serif" font-size="10.00">Feel::MeshSupport&lt;</text>
<text text-anchor="start" x="189.5" y="-117" font-family="Helvetica,sans-Serif" font-size="10.00"> decay_type&lt; std::remove</text>
<text text-anchor="middle" x="263.5" y="-106" font-family="Helvetica,sans-Serif" font-size="10.00">_pointer_t&lt; mesh_type &gt; &gt; &gt;</text>
<polyline fill="none" stroke="black" points="181.5,-99 345.5,-99 "/>
<text text-anchor="start" x="189.5" y="-87" font-family="Helvetica,sans-Serif" font-size="10.00">+ nDim</text>
<polyline fill="none" stroke="black" points="181.5,-80 345.5,-80 "/>
<text text-anchor="start" x="189.5" y="-68" font-family="Helvetica,sans-Serif" font-size="10.00">+ hasAnyMarker()</text>
<text text-anchor="start" x="189.5" y="-57" font-family="Helvetica,sans-Serif" font-size="10.00">+ hasElement()</text>
<text text-anchor="start" x="189.5" y="-46" font-family="Helvetica,sans-Serif" font-size="10.00">+ hasGhostElement()</text>
<text text-anchor="start" x="189.5" y="-35" font-family="Helvetica,sans-Serif" font-size="10.00">+ isFullSupport()</text>
<text text-anchor="start" x="189.5" y="-24" font-family="Helvetica,sans-Serif" font-size="10.00">+ isGhostFace()</text>
<text text-anchor="start" x="189.5" y="-13" font-family="Helvetica,sans-Serif" font-size="10.00">and 20 more...</text>
</a>
</g>
</g>
<!-- Node1&#45;&gt;Node3 -->
<g id="edge2" class="edge">
<title>Node1&#45;&gt;Node3</title>
<path fill="none" stroke="midnightblue" d="M593.05,-224.05C527.45,-210.4 431.17,-185.57 354.5,-146 350.92,-144.15 347.34,-142.15 343.79,-140.04"/>
<polygon fill="none" stroke="midnightblue" points="592.4,-227.49 602.9,-226.07 593.8,-220.63 592.4,-227.49"/>
</g>
<!-- Node4 -->
<g id="node4" class="node">
<title>Node4</title>
<g id="a_node4"><a xlink:href="classFeel_1_1MeshSupport.html" target="_top" xlink:title=" ">
<polygon fill="white" stroke="black" points="364,-0.5 364,-145.5 571,-145.5 571,-0.5 364,-0.5"/>
<text text-anchor="start" x="372" y="-133.5" font-family="Helvetica,sans-Serif" font-size="10.00">Feel::MeshSupport&lt;</text>
<text text-anchor="start" x="372" y="-122.5" font-family="Helvetica,sans-Serif" font-size="10.00"> decay_type&lt; std::remove</text>
<text text-anchor="start" x="372" y="-111.5" font-family="Helvetica,sans-Serif" font-size="10.00">_pointer_t&lt; typename dual</text>
<text text-anchor="middle" x="467.5" y="-100.5" font-family="Helvetica,sans-Serif" font-size="10.00">_image_space_type::mesh_type &gt; &gt; &gt;</text>
<polyline fill="none" stroke="black" points="364,-93.5 571,-93.5 "/>
<text text-anchor="start" x="372" y="-81.5" font-family="Helvetica,sans-Serif" font-size="10.00">+ nDim</text>
<polyline fill="none" stroke="black" points="364,-74.5 571,-74.5 "/>
<text text-anchor="start" x="372" y="-62.5" font-family="Helvetica,sans-Serif" font-size="10.00">+ hasAnyMarker()</text>
<text text-anchor="start" x="372" y="-51.5" font-family="Helvetica,sans-Serif" font-size="10.00">+ hasElement()</text>
<text text-anchor="start" x="372" y="-40.5" font-family="Helvetica,sans-Serif" font-size="10.00">+ hasGhostElement()</text>
<text text-anchor="start" x="372" y="-29.5" font-family="Helvetica,sans-Serif" font-size="10.00">+ isFullSupport()</text>
<text text-anchor="start" x="372" y="-18.5" font-family="Helvetica,sans-Serif" font-size="10.00">+ isGhostFace()</text>
<text text-anchor="start" x="372" y="-7.5" font-family="Helvetica,sans-Serif" font-size="10.00">and 20 more...</text>
</a>
</g>
</g>
<!-- Node1&#45;&gt;Node4 -->
<g id="edge3" class="edge">
<title>Node1&#45;&gt;Node4</title>
<path fill="none" stroke="midnightblue" d="M595.07,-177.77C582.24,-167.33 568.78,-156.38 555.6,-145.67"/>
<polygon fill="none" stroke="midnightblue" points="593,-180.6 602.96,-184.19 597.41,-175.16 593,-180.6"/>
</g>
<!-- Node5 -->
<g id="node5" class="node">
<title>Node5</title>
<g id="a_node5"><a xlink:href="classFeel_1_1MeshSupport.html" target="_top" xlink:title=" ">
<polygon fill="white" stroke="black" points="589,-6 589,-140 748,-140 748,-6 589,-6"/>
<text text-anchor="start" x="597" y="-128" font-family="Helvetica,sans-Serif" font-size="10.00">Feel::MeshSupport&lt;</text>
<text text-anchor="start" x="597" y="-117" font-family="Helvetica,sans-Serif" font-size="10.00"> decay_type&lt; std::remove</text>
<text text-anchor="middle" x="668.5" y="-106" font-family="Helvetica,sans-Serif" font-size="10.00">_pointer_t&lt; MeshType &gt; &gt; &gt;</text>
<polyline fill="none" stroke="black" points="589,-99 748,-99 "/>
<text text-anchor="start" x="597" y="-87" font-family="Helvetica,sans-Serif" font-size="10.00">+ nDim</text>
<polyline fill="none" stroke="black" points="589,-80 748,-80 "/>
<text text-anchor="start" x="597" y="-68" font-family="Helvetica,sans-Serif" font-size="10.00">+ hasAnyMarker()</text>
<text text-anchor="start" x="597" y="-57" font-family="Helvetica,sans-Serif" font-size="10.00">+ hasElement()</text>
<text text-anchor="start" x="597" y="-46" font-family="Helvetica,sans-Serif" font-size="10.00">+ hasGhostElement()</text>
<text text-anchor="start" x="597" y="-35" font-family="Helvetica,sans-Serif" font-size="10.00">+ isFullSupport()</text>
<text text-anchor="start" x="597" y="-24" font-family="Helvetica,sans-Serif" font-size="10.00">+ isGhostFace()</text>
<text text-anchor="start" x="597" y="-13" font-family="Helvetica,sans-Serif" font-size="10.00">and 20 more...</text>
</a>
</g>
</g>
<!-- Node1&#45;&gt;Node5 -->
<g id="edge4" class="edge">
<title>Node1&#45;&gt;Node5</title>
<path fill="none" stroke="midnightblue" d="M668.5,-171.83C668.5,-161.36 668.5,-150.52 668.5,-140.05"/>
<polygon fill="none" stroke="midnightblue" points="665,-172.15 668.5,-182.15 672,-172.15 665,-172.15"/>
</g>
<!-- Node6 -->
<g id="node6" class="node">
<title>Node6</title>
<g id="a_node6"><a xlink:href="classFeel_1_1MeshSupport.html" target="_top" xlink:title=" ">
<polygon fill="white" stroke="black" points="766,-11.5 766,-134.5 893,-134.5 893,-11.5 766,-11.5"/>
<text text-anchor="start" x="774" y="-122.5" font-family="Helvetica,sans-Serif" font-size="10.00">Feel::MeshSupport&lt;</text>
<text text-anchor="middle" x="829.5" y="-111.5" font-family="Helvetica,sans-Serif" font-size="10.00"> domain_mesh_type &gt;</text>
<polyline fill="none" stroke="black" points="766,-104.5 893,-104.5 "/>
<text text-anchor="start" x="774" y="-92.5" font-family="Helvetica,sans-Serif" font-size="10.00">+ nDim</text>
<polyline fill="none" stroke="black" points="766,-85.5 893,-85.5 "/>
<text text-anchor="start" x="774" y="-73.5" font-family="Helvetica,sans-Serif" font-size="10.00">+ hasAnyMarker()</text>
<text text-anchor="start" x="774" y="-62.5" font-family="Helvetica,sans-Serif" font-size="10.00">+ hasElement()</text>
<text text-anchor="start" x="774" y="-51.5" font-family="Helvetica,sans-Serif" font-size="10.00">+ hasGhostElement()</text>
<text text-anchor="start" x="774" y="-40.5" font-family="Helvetica,sans-Serif" font-size="10.00">+ isFullSupport()</text>
<text text-anchor="start" x="774" y="-29.5" font-family="Helvetica,sans-Serif" font-size="10.00">+ isGhostFace()</text>
<text text-anchor="start" x="774" y="-18.5" font-family="Helvetica,sans-Serif" font-size="10.00">and 20 more...</text>
</a>
</g>
</g>
<!-- Node1&#45;&gt;Node6 -->
<g id="edge5" class="edge">
<title>Node1&#45;&gt;Node6</title>
<path fill="none" stroke="midnightblue" d="M730.15,-174.89C743.16,-161.68 756.87,-147.76 769.8,-134.63"/>
<polygon fill="none" stroke="midnightblue" points="727.53,-172.57 723.01,-182.15 732.52,-177.48 727.53,-172.57"/>
</g>
<!-- Node7 -->
<g id="node7" class="node">
<title>Node7</title>
<g id="a_node7"><a xlink:href="classFeel_1_1MeshSupport.html" target="_top" xlink:title=" ">
<polygon fill="white" stroke="black" points="911.5,-11.5 911.5,-134.5 1033.5,-134.5 1033.5,-11.5 911.5,-11.5"/>
<text text-anchor="start" x="919.5" y="-122.5" font-family="Helvetica,sans-Serif" font-size="10.00">Feel::MeshSupport&lt;</text>
<text text-anchor="middle" x="972.5" y="-111.5" font-family="Helvetica,sans-Serif" font-size="10.00"> image_mesh_type &gt;</text>
<polyline fill="none" stroke="black" points="911.5,-104.5 1033.5,-104.5 "/>
<text text-anchor="start" x="919.5" y="-92.5" font-family="Helvetica,sans-Serif" font-size="10.00">+ nDim</text>
<polyline fill="none" stroke="black" points="911.5,-85.5 1033.5,-85.5 "/>
<text text-anchor="start" x="919.5" y="-73.5" font-family="Helvetica,sans-Serif" font-size="10.00">+ hasAnyMarker()</text>
<text text-anchor="start" x="919.5" y="-62.5" font-family="Helvetica,sans-Serif" font-size="10.00">+ hasElement()</text>
<text text-anchor="start" x="919.5" y="-51.5" font-family="Helvetica,sans-Serif" font-size="10.00">+ hasGhostElement()</text>
<text text-anchor="start" x="919.5" y="-40.5" font-family="Helvetica,sans-Serif" font-size="10.00">+ isFullSupport()</text>
<text text-anchor="start" x="919.5" y="-29.5" font-family="Helvetica,sans-Serif" font-size="10.00">+ isGhostFace()</text>
<text text-anchor="start" x="919.5" y="-18.5" font-family="Helvetica,sans-Serif" font-size="10.00">and 20 more...</text>
</a>
</g>
</g>
<!-- Node1&#45;&gt;Node7 -->
<g id="edge6" class="edge">
<title>Node1&#45;&gt;Node7</title>
<path fill="none" stroke="midnightblue" d="M743.83,-217.08C791.74,-201.97 853.71,-178.39 902.5,-146 907.58,-142.62 912.59,-138.83 917.43,-134.78"/>
<polygon fill="none" stroke="midnightblue" points="742.66,-213.78 734.14,-220.08 744.73,-220.46 742.66,-213.78"/>
</g>
<!-- Node8 -->
<g id="node8" class="node">
<title>Node8</title>
<g id="a_node8"><a xlink:href="classFeel_1_1MeshSupport.html" target="_top" xlink:title="Description of a mesh support.">
<polygon fill="white" stroke="black" points="1051.5,-11.5 1051.5,-134.5 1173.5,-134.5 1173.5,-11.5 1051.5,-11.5"/>
<text text-anchor="start" x="1059.5" y="-122.5" font-family="Helvetica,sans-Serif" font-size="10.00">Feel::MeshSupport&lt;</text>
<text text-anchor="middle" x="1112.5" y="-111.5" font-family="Helvetica,sans-Serif" font-size="10.00"> MeshType &gt;</text>
<polyline fill="none" stroke="black" points="1051.5,-104.5 1173.5,-104.5 "/>
<text text-anchor="start" x="1059.5" y="-92.5" font-family="Helvetica,sans-Serif" font-size="10.00">+ nDim</text>
<polyline fill="none" stroke="black" points="1051.5,-85.5 1173.5,-85.5 "/>
<text text-anchor="start" x="1059.5" y="-73.5" font-family="Helvetica,sans-Serif" font-size="10.00">+ hasAnyMarker()</text>
<text text-anchor="start" x="1059.5" y="-62.5" font-family="Helvetica,sans-Serif" font-size="10.00">+ hasElement()</text>
<text text-anchor="start" x="1059.5" y="-51.5" font-family="Helvetica,sans-Serif" font-size="10.00">+ hasGhostElement()</text>
<text text-anchor="start" x="1059.5" y="-40.5" font-family="Helvetica,sans-Serif" font-size="10.00">+ isFullSupport()</text>
<text text-anchor="start" x="1059.5" y="-29.5" font-family="Helvetica,sans-Serif" font-size="10.00">+ isGhostFace()</text>
<text text-anchor="start" x="1059.5" y="-18.5" font-family="Helvetica,sans-Serif" font-size="10.00">and 20 more...</text>
</a>
</g>
</g>
<!-- Node1&#45;&gt;Node8 -->
<g id="edge7" class="edge">
<title>Node1&#45;&gt;Node8</title>
<path fill="none" stroke="midnightblue" d="M744.41,-231.34C823.37,-222.2 948.38,-199.85 1042.5,-146 1048.25,-142.71 1053.84,-138.81 1059.18,-134.55"/>
<polygon fill="none" stroke="midnightblue" points="743.61,-227.91 734.06,-232.49 744.39,-234.86 743.61,-227.91"/>
</g>
</g>
</svg>
