<?xml version="1.0" encoding="UTF-8" standalone="no"?>
<!DOCTYPE svg PUBLIC "-//W3C//DTD SVG 1.1//EN"
 "http://www.w3.org/Graphics/SVG/1.1/DTD/svg11.dtd">
<!-- Generated by graphviz version 2.43.0 (0)
 -->
<!-- Title: Feel::Hypercube&lt; Dim, Order, RDim &gt; Pages: 1 -->
<svg width="606pt" height="570pt"
 viewBox="0.00 0.00 606.00 570.00" xmlns="http://www.w3.org/2000/svg" xmlns:xlink="http://www.w3.org/1999/xlink">
<g id="graph0" class="graph" transform="scale(1 1) rotate(0) translate(4 566)">
<title>Feel::Hypercube&lt; Dim, Order, RDim &gt;</title>
<polygon fill="white" stroke="transparent" points="-4,4 -4,-566 602,-566 602,4 -4,4"/>
<!-- Node1 -->
<g id="node1" class="node">
<title>Node1</title>
<g id="a_node1"><a xlink:title=" ">
<polygon fill="#bfbfbf" stroke="black" points="308,-0.5 308,-255.5 450,-255.5 450,-0.5 308,-0.5"/>
<text text-anchor="start" x="316" y="-243.5" font-family="Helvetica,sans-Serif" font-size="10.00">Feel::Hypercube&lt; Dim,</text>
<text text-anchor="middle" x="379" y="-232.5" font-family="Helvetica,sans-Serif" font-size="10.00"> Order, RDim &gt;</text>
<polyline fill="none" stroke="black" points="308,-225.5 450,-225.5 "/>
<text text-anchor="start" x="316" y="-213.5" font-family="Helvetica,sans-Serif" font-size="10.00">+ nbPtsPerVertex</text>
<text text-anchor="start" x="316" y="-202.5" font-family="Helvetica,sans-Serif" font-size="10.00">+ nOrder</text>
<text text-anchor="start" x="316" y="-191.5" font-family="Helvetica,sans-Serif" font-size="10.00">+ nRealDim</text>
<text text-anchor="start" x="316" y="-180.5" font-family="Helvetica,sans-Serif" font-size="10.00">+ numGeometricFaces</text>
<text text-anchor="start" x="316" y="-169.5" font-family="Helvetica,sans-Serif" font-size="10.00">+ numVertices</text>
<text text-anchor="start" x="316" y="-158.5" font-family="Helvetica,sans-Serif" font-size="10.00">and 3 more...</text>
<polyline fill="none" stroke="black" points="308,-151.5 450,-151.5 "/>
<text text-anchor="start" x="316" y="-139.5" font-family="Helvetica,sans-Serif" font-size="10.00">+ dimension()</text>
<text text-anchor="start" x="316" y="-128.5" font-family="Helvetica,sans-Serif" font-size="10.00">+ Hypercube()</text>
<text text-anchor="start" x="316" y="-117.5" font-family="Helvetica,sans-Serif" font-size="10.00">+ Hypercube()</text>
<text text-anchor="start" x="316" y="-106.5" font-family="Helvetica,sans-Serif" font-size="10.00">+ Hypercube()</text>
<text text-anchor="start" x="316" y="-95.5" font-family="Helvetica,sans-Serif" font-size="10.00">+ operator=()</text>
<text text-anchor="start" x="316" y="-84.5" font-family="Helvetica,sans-Serif" font-size="10.00">+ operator=()</text>
<text text-anchor="start" x="316" y="-73.5" font-family="Helvetica,sans-Serif" font-size="10.00">+ topologicalDimension()</text>
<text text-anchor="start" x="316" y="-62.5" font-family="Helvetica,sans-Serif" font-size="10.00">+ e2p()</text>
<text text-anchor="start" x="316" y="-51.5" font-family="Helvetica,sans-Serif" font-size="10.00">+ f2e()</text>
<text text-anchor="start" x="316" y="-40.5" font-family="Helvetica,sans-Serif" font-size="10.00">+ f2p()</text>
<text text-anchor="start" x="316" y="-29.5" font-family="Helvetica,sans-Serif" font-size="10.00">+ name()</text>
<text text-anchor="start" x="316" y="-18.5" font-family="Helvetica,sans-Serif" font-size="10.00">+ nPointsOnEdge()</text>
<text text-anchor="start" x="316" y="-7.5" font-family="Helvetica,sans-Serif" font-size="10.00">and 5 more...</text>
</a>
</g>
</g>
<!-- Node2 -->
<g id="node2" class="node">
<title>Node2</title>
<g id="a_node2"><a xlink:href="classFeel_1_1Convex.html" target="_top" xlink:title=" ">
<polygon fill="white" stroke="black" points="39,-324 39,-425 153,-425 153,-324 39,-324"/>
<text text-anchor="start" x="47" y="-413" font-family="Helvetica,sans-Serif" font-size="10.00">Feel::Convex&lt; Dim,</text>
<text text-anchor="middle" x="96" y="-402" font-family="Helvetica,sans-Serif" font-size="10.00"> 1, Dim &gt;</text>
<polyline fill="none" stroke="black" points="39,-395 153,-395 "/>
<text text-anchor="middle" x="96" y="-383" font-family="Helvetica,sans-Serif" font-size="10.00"> </text>
<polyline fill="none" stroke="black" points="39,-376 153,-376 "/>
<text text-anchor="start" x="47" y="-364" font-family="Helvetica,sans-Serif" font-size="10.00">* Convex()</text>
<text text-anchor="start" x="47" y="-353" font-family="Helvetica,sans-Serif" font-size="10.00">* Convex()</text>
<text text-anchor="start" x="47" y="-342" font-family="Helvetica,sans-Serif" font-size="10.00">* ~Convex()</text>
<text text-anchor="start" x="47" y="-331" font-family="Helvetica,sans-Serif" font-size="10.00">* operator=()</text>
</a>
</g>
</g>
<!-- Node2&#45;&gt;Node1 -->
<g id="edge1" class="edge">
<title>Node2&#45;&gt;Node1</title>
<path fill="none" stroke="midnightblue" d="M137.23,-315.91C148.71,-301.52 161.7,-286.61 175,-274 215.52,-235.58 266.76,-199.2 307.75,-172.49"/>
<polygon fill="none" stroke="midnightblue" points="134.43,-313.8 131.01,-323.83 139.94,-318.12 134.43,-313.8"/>
</g>
<!-- Node3 -->
<g id="node3" class="node">
<title>Node3</title>
<g id="a_node3"><a xlink:href="classFeel_1_1ConvexBase.html" target="_top" xlink:title=" ">
<polygon fill="white" stroke="black" points="0,-504.5 0,-561.5 104,-561.5 104,-504.5 0,-504.5"/>
<text text-anchor="middle" x="52" y="-549.5" font-family="Helvetica,sans-Serif" font-size="10.00">Feel::ConvexBase</text>
<polyline fill="none" stroke="black" points="0,-542.5 104,-542.5 "/>
<text text-anchor="middle" x="52" y="-530.5" font-family="Helvetica,sans-Serif" font-size="10.00"> </text>
<polyline fill="none" stroke="black" points="0,-523.5 104,-523.5 "/>
<text text-anchor="middle" x="52" y="-511.5" font-family="Helvetica,sans-Serif" font-size="10.00"> </text>
</a>
</g>
</g>
<!-- Node3&#45;&gt;Node2 -->
<g id="edge2" class="edge">
<title>Node3&#45;&gt;Node2</title>
<path fill="none" stroke="midnightblue" d="M62.5,-494.66C68.34,-473.89 75.68,-447.77 82,-425.29"/>
<polygon fill="none" stroke="midnightblue" points="59.1,-493.81 59.77,-504.38 65.84,-495.7 59.1,-493.81"/>
</g>
<!-- Node4 -->
<g id="node4" class="node">
<title>Node4</title>
<g id="a_node4"><a xlink:title=" ">
<polygon fill="white" stroke="#bfbfbf" points="122,-504.5 122,-561.5 256,-561.5 256,-504.5 122,-504.5"/>
<text text-anchor="middle" x="189" y="-549.5" font-family="Helvetica,sans-Serif" font-size="10.00">static const uint16_type</text>
<polyline fill="none" stroke="#bfbfbf" points="122,-542.5 256,-542.5 "/>
<text text-anchor="middle" x="189" y="-530.5" font-family="Helvetica,sans-Serif" font-size="10.00"> </text>
<polyline fill="none" stroke="#bfbfbf" points="122,-523.5 256,-523.5 "/>
<text text-anchor="middle" x="189" y="-511.5" font-family="Helvetica,sans-Serif" font-size="10.00"> </text>
</a>
</g>
</g>
<!-- Node4&#45;&gt;Node1 -->
<g id="edge6" class="edge">
<title>Node4&#45;&gt;Node1</title>
<path fill="none" stroke="#404040" d="M184.07,-504.45C177.72,-461.69 170.5,-377.63 198,-314 219.44,-264.38 260.7,-220.54 298.42,-188.01"/>
<polygon fill="none" stroke="#404040" points="298.75,-187.72 300.76,-180.8 307.92,-179.98 305.92,-186.91 298.75,-187.72"/>
<text text-anchor="middle" x="254" y="-427" font-family="Helvetica,sans-Serif" font-size="10.00"> +numPoints</text>
<text text-anchor="middle" x="254" y="-416" font-family="Helvetica,sans-Serif" font-size="10.00">+nbPtsPerFace</text>
<text text-anchor="middle" x="254" y="-405" font-family="Helvetica,sans-Serif" font-size="10.00">+nbPtsPerEdge</text>
<text text-anchor="middle" x="254" y="-394" font-family="Helvetica,sans-Serif" font-size="10.00">+numNormals</text>
<text text-anchor="middle" x="254" y="-383" font-family="Helvetica,sans-Serif" font-size="10.00">+nbPtsPerVolume</text>
<text text-anchor="middle" x="254" y="-372" font-family="Helvetica,sans-Serif" font-size="10.00">+numEdges</text>
<text text-anchor="middle" x="254" y="-361" font-family="Helvetica,sans-Serif" font-size="10.00">+real_dimension</text>
<text text-anchor="middle" x="254" y="-350" font-family="Helvetica,sans-Serif" font-size="10.00">+nDim</text>
<text text-anchor="middle" x="254" y="-339" font-family="Helvetica,sans-Serif" font-size="10.00">+numFaces</text>
<text text-anchor="middle" x="254" y="-328" font-family="Helvetica,sans-Serif" font-size="10.00">+numTopologicalFaces</text>
<text text-anchor="middle" x="254" y="-317" font-family="Helvetica,sans-Serif" font-size="10.00">...</text>
</g>
<!-- Node4&#45;&gt;Node2 -->
<g id="edge3" class="edge">
<title>Node4&#45;&gt;Node2</title>
<path fill="none" stroke="#404040" d="M135.51,-504.38C128.83,-499.05 122.7,-492.93 118,-486 108.32,-471.74 102.7,-454.2 99.49,-437.34"/>
<polygon fill="none" stroke="#404040" points="99.45,-437.08 94.55,-431.79 97.55,-425.23 102.45,-430.53 99.45,-437.08"/>
<text text-anchor="middle" x="146.5" y="-478" font-family="Helvetica,sans-Serif" font-size="10.00"> +nDim</text>
<text text-anchor="middle" x="146.5" y="-467" font-family="Helvetica,sans-Serif" font-size="10.00">+nRealDim</text>
<text text-anchor="middle" x="146.5" y="-456" font-family="Helvetica,sans-Serif" font-size="10.00">+nOrder</text>
</g>
<!-- Node5 -->
<g id="node5" class="node">
<title>Node5</title>
<g id="a_node5"><a xlink:href="classFeel_1_1HypercubeBase.html" target="_top" xlink:title=" ">
<polygon fill="white" stroke="black" points="319.5,-346 319.5,-403 438.5,-403 438.5,-346 319.5,-346"/>
<text text-anchor="middle" x="379" y="-391" font-family="Helvetica,sans-Serif" font-size="10.00">Feel::HypercubeBase</text>
<polyline fill="none" stroke="black" points="319.5,-384 438.5,-384 "/>
<text text-anchor="middle" x="379" y="-372" font-family="Helvetica,sans-Serif" font-size="10.00"> </text>
<polyline fill="none" stroke="black" points="319.5,-365 438.5,-365 "/>
<text text-anchor="middle" x="379" y="-353" font-family="Helvetica,sans-Serif" font-size="10.00"> </text>
</a>
</g>
</g>
<!-- Node5&#45;&gt;Node1 -->
<g id="edge4" class="edge">
<title>Node5&#45;&gt;Node1</title>
<path fill="none" stroke="#8b1a1a" d="M379,-335.79C379,-313.92 379,-284.99 379,-255.71"/>
<polygon fill="none" stroke="#8b1a1a" points="375.5,-335.93 379,-345.93 382.5,-335.93 375.5,-335.93"/>
</g>
<!-- Node6 -->
<g id="node6" class="node">
<title>Node6</title>
<g id="a_node6"><a xlink:href="classsize__t.html" target="_top" xlink:title=" ">
<polygon fill="white" stroke="black" points="456.5,-346 456.5,-403 501.5,-403 501.5,-346 456.5,-346"/>
<text text-anchor="middle" x="479" y="-391" font-family="Helvetica,sans-Serif" font-size="10.00">size_t</text>
<polyline fill="none" stroke="black" points="456.5,-384 501.5,-384 "/>
<text text-anchor="middle" x="479" y="-372" font-family="Helvetica,sans-Serif" font-size="10.00"> </text>
<polyline fill="none" stroke="black" points="456.5,-365 501.5,-365 "/>
<text text-anchor="middle" x="479" y="-353" font-family="Helvetica,sans-Serif" font-size="10.00"> </text>
</a>
</g>
</g>
<!-- Node6&#45;&gt;Node1 -->
<g id="edge5" class="edge">
<title>Node6&#45;&gt;Node1</title>
<path fill="none" stroke="#404040" d="M467.72,-345.93C459.51,-325.85 447.71,-297 435.38,-266.85"/>
<polygon fill="none" stroke="#404040" points="435.37,-266.81 429.39,-262.77 430.82,-255.71 436.8,-259.74 435.37,-266.81"/>
<text text-anchor="middle" x="476.5" y="-288" font-family="Helvetica,sans-Serif" font-size="10.00"> +Geometry</text>
<text text-anchor="middle" x="476.5" y="-277" font-family="Helvetica,sans-Serif" font-size="10.00">+Shape</text>
</g>
<!-- Node7 -->
<g id="node7" class="node">
<title>Node7</title>
<g id="a_node7"><a xlink:href="classbool.html" target="_top" xlink:title=" ">
<polygon fill="white" stroke="black" points="532,-346 532,-403 570,-403 570,-346 532,-346"/>
<text text-anchor="middle" x="551" y="-391" font-family="Helvetica,sans-Serif" font-size="10.00">bool</text>
<polyline fill="none" stroke="black" points="532,-384 570,-384 "/>
<text text-anchor="middle" x="551" y="-372" font-family="Helvetica,sans-Serif" font-size="10.00"> </text>
<polyline fill="none" stroke="black" points="532,-365 570,-365 "/>
<text text-anchor="middle" x="551" y="-353" font-family="Helvetica,sans-Serif" font-size="10.00"> </text>
</a>
</g>
</g>
<!-- Node7&#45;&gt;Node1 -->
<g id="edge7" class="edge">
<title>Node7&#45;&gt;Node1</title>
<path fill="none" stroke="#404040" d="M542.77,-345.64C535.97,-324.96 525.15,-296.55 511,-274 496.18,-250.39 477.34,-227.05 458.56,-206.22"/>
<polygon fill="none" stroke="#404040" points="458.35,-205.99 451.35,-204.27 450.25,-197.14 457.25,-198.86 458.35,-205.99"/>
<text text-anchor="middle" x="560" y="-288" font-family="Helvetica,sans-Serif" font-size="10.00"> +is_hypercube</text>
<text text-anchor="middle" x="560" y="-277" font-family="Helvetica,sans-Serif" font-size="10.00">+is_simplex</text>
</g>
</g>
</svg>
