<?xml version="1.0" encoding="UTF-8" standalone="no"?>
<!DOCTYPE svg PUBLIC "-//W3C//DTD SVG 1.1//EN"
 "http://www.w3.org/Graphics/SVG/1.1/DTD/svg11.dtd">
<!-- Generated by graphviz version 2.43.0 (0)
 -->
<!-- Title: Feel::Geo0D&lt; Dim, T, IndexT &gt; Pages: 1 -->
<!--zoomable 1276 -->
<svg id="main" version="1.1" xmlns="http://www.w3.org/2000/svg" xmlns:xlink="http://www.w3.org/1999/xlink" xml:space="preserve" onload="init(evt)">
<style type="text/css"><![CDATA[
.edge:hover path { stroke: red; }
.edge:hover polygon { stroke: red; fill: red; }
]]></style>
<script type="text/javascript"><![CDATA[
var edges = document.getElementsByTagName('g');
if (edges && edges.length) {
  for (var i=0;i<edges.length;i++) {
    if (edges[i].id.substr(0,4)=='edge') {
      edges[i].setAttribute('class','edge');
    }
  }
}
]]></script>
        <defs>
                <circle id="rim" cx="0" cy="0" r="7"/>
                <circle id="rim2" cx="0" cy="0" r="3.5"/>
                <g id="zoomPlus">
                        <use xlink:href="#rim" fill="#404040">
                                <set attributeName="fill" to="#808080" begin="zoomplus.mouseover" end="zoomplus.mouseout"/>
                        </use>
                        <path d="M-4,0h8M0,-4v8" fill="none" stroke="white" stroke-width="1.5" pointer-events="none"/>
                </g>
                <g id="zoomMin">
                        <use xlink:href="#rim" fill="#404040">
                                <set attributeName="fill" to="#808080" begin="zoomminus.mouseover" end="zoomminus.mouseout"/>
                        </use>
                        <path d="M-4,0h8" fill="none" stroke="white" stroke-width="1.5" pointer-events="none"/>
                </g>
                <g id="dirArrow">
                        <path fill="none" stroke="white" stroke-width="1.5" d="M0,-3.0v7 M-2.5,-0.5L0,-3.0L2.5,-0.5"/>
                </g>
               <g id="resetDef">
                       <use xlink:href="#rim2" fill="#404040">
                               <set attributeName="fill" to="#808080" begin="reset.mouseover" end="reset.mouseout"/>
                       </use>
               </g>
        </defs>

<script type="text/javascript">
var viewWidth = 1157;
var viewHeight = 1276;
var sectionId = 'dynsection-1';
</script>
<script xlink:href="svgpan.js"/>
<svg id="graph" class="graph">
<g id="viewport">
<title>Feel::Geo0D&lt; Dim, T, IndexT &gt;</title>
<polygon fill="white" stroke="transparent" points="-4,4 -4,-1272 1153,-1272 1153,4 -4,4"/>
<!-- Node1 -->
<g id="node1" class="node">
<title>Node1</title>
<g id="a_node1"><a xlink:title=" ">
<polygon fill="#bfbfbf" stroke="black" points="422,-0.5 422,-123.5 544,-123.5 544,-0.5 422,-0.5"/>
<text text-anchor="start" x="430" y="-111.5" font-family="Helvetica,sans-Serif" font-size="10.00">Feel::Geo0D&lt; Dim, T,</text>
<text text-anchor="middle" x="483" y="-100.5" font-family="Helvetica,sans-Serif" font-size="10.00"> IndexT &gt;</text>
<polyline fill="none" stroke="black" points="422,-93.5 544,-93.5 "/>
<text text-anchor="middle" x="483" y="-81.5" font-family="Helvetica,sans-Serif" font-size="10.00"> </text>
<polyline fill="none" stroke="black" points="422,-74.5 544,-74.5 "/>
<text text-anchor="start" x="430" y="-62.5" font-family="Helvetica,sans-Serif" font-size="10.00">+ G()</text>
<text text-anchor="start" x="430" y="-51.5" font-family="Helvetica,sans-Serif" font-size="10.00">+ gDim()</text>
<text text-anchor="start" x="430" y="-40.5" font-family="Helvetica,sans-Serif" font-size="10.00">+ Geo0D()</text>
<text text-anchor="start" x="430" y="-29.5" font-family="Helvetica,sans-Serif" font-size="10.00">+ Geo0D()</text>
<text text-anchor="start" x="430" y="-18.5" font-family="Helvetica,sans-Serif" font-size="10.00">+ Geo0D()</text>
<text text-anchor="start" x="430" y="-7.5" font-family="Helvetica,sans-Serif" font-size="10.00">and 46 more...</text>
</a>
</g>
</g>
<!-- Node2 -->
<g id="node2" class="node">
<title>Node2</title>
<g id="a_node2"><a xlink:title=" ">
<polygon fill="white" stroke="#bfbfbf" points="0,-354 0,-422 154,-422 154,-354 0,-354"/>
<text text-anchor="start" x="8" y="-410" font-family="Helvetica,sans-Serif" font-size="10.00">boost::equality_comparable</text>
<text text-anchor="middle" x="77" y="-399" font-family="Helvetica,sans-Serif" font-size="10.00">&lt; Geo0D&lt; Dim, double &gt; &gt;</text>
<polyline fill="none" stroke="#bfbfbf" points="0,-392 154,-392 "/>
<text text-anchor="middle" x="77" y="-380" font-family="Helvetica,sans-Serif" font-size="10.00"> </text>
<polyline fill="none" stroke="#bfbfbf" points="0,-373 154,-373 "/>
<text text-anchor="middle" x="77" y="-361" font-family="Helvetica,sans-Serif" font-size="10.00"> </text>
</a>
</g>
</g>
<!-- Node2&#45;&gt;Node1 -->
<g id="edge1" class="edge">
<title>Node2&#45;&gt;Node1</title>
<path fill="none" stroke="midnightblue" d="M81.98,-343.95C90.11,-293.23 110.95,-209.7 163,-161 234.59,-94.01 350.85,-72.75 421.77,-66.05"/>
<polygon fill="none" stroke="midnightblue" points="78.5,-343.54 80.48,-353.95 85.43,-344.58 78.5,-343.54"/>
</g>
<!-- Node3 -->
<g id="node3" class="node">
<title>Node3</title>
<g id="a_node3"><a xlink:title=" ">
<polygon fill="white" stroke="#bfbfbf" points="172.5,-354 172.5,-422 331.5,-422 331.5,-354 172.5,-354"/>
<text text-anchor="start" x="180.5" y="-410" font-family="Helvetica,sans-Serif" font-size="10.00">boost::less_than_comparable</text>
<text text-anchor="middle" x="252" y="-399" font-family="Helvetica,sans-Serif" font-size="10.00">&lt; Geo0D&lt; Dim, double &gt; &gt;</text>
<polyline fill="none" stroke="#bfbfbf" points="172.5,-392 331.5,-392 "/>
<text text-anchor="middle" x="252" y="-380" font-family="Helvetica,sans-Serif" font-size="10.00"> </text>
<polyline fill="none" stroke="#bfbfbf" points="172.5,-373 331.5,-373 "/>
<text text-anchor="middle" x="252" y="-361" font-family="Helvetica,sans-Serif" font-size="10.00"> </text>
</a>
</g>
</g>
<!-- Node3&#45;&gt;Node1 -->
<g id="edge2" class="edge">
<title>Node3&#45;&gt;Node1</title>
<path fill="none" stroke="midnightblue" d="M260.64,-344.12C272.13,-295.59 296.27,-216.12 340,-161 361.89,-133.41 393.64,-110.57 421.66,-93.9"/>
<polygon fill="none" stroke="midnightblue" points="257.2,-343.46 258.38,-353.99 264.03,-345.02 257.2,-343.46"/>
</g>
<!-- Node4 -->
<g id="node4" class="node">
<title>Node4</title>
<g id="a_node4"><a xlink:title=" ">
<polygon fill="white" stroke="#bfbfbf" points="349.5,-348.5 349.5,-427.5 508.5,-427.5 508.5,-348.5 349.5,-348.5"/>
<text text-anchor="start" x="357.5" y="-415.5" font-family="Helvetica,sans-Serif" font-size="10.00">boost::less_than_comparable</text>
<text text-anchor="start" x="357.5" y="-404.5" font-family="Helvetica,sans-Serif" font-size="10.00">&lt; Geo0D&lt; Dim, double &gt;,</text>
<text text-anchor="middle" x="429" y="-393.5" font-family="Helvetica,sans-Serif" font-size="10.00"> uint32_type &gt;</text>
<polyline fill="none" stroke="#bfbfbf" points="349.5,-386.5 508.5,-386.5 "/>
<text text-anchor="middle" x="429" y="-374.5" font-family="Helvetica,sans-Serif" font-size="10.00"> </text>
<polyline fill="none" stroke="#bfbfbf" points="349.5,-367.5 508.5,-367.5 "/>
<text text-anchor="middle" x="429" y="-355.5" font-family="Helvetica,sans-Serif" font-size="10.00"> </text>
</a>
</g>
</g>
<!-- Node4&#45;&gt;Node1 -->
<g id="edge3" class="edge">
<title>Node4&#45;&gt;Node1</title>
<path fill="none" stroke="midnightblue" d="M437.11,-338.34C446.67,-280.99 462.55,-185.68 472.9,-123.6"/>
<polygon fill="none" stroke="midnightblue" points="433.65,-337.8 435.46,-348.24 440.56,-338.95 433.65,-337.8"/>
</g>
<!-- Node5 -->
<g id="node5" class="node">
<title>Node5</title>
<g id="a_node5"><a xlink:href="classFeel_1_1GeoEntity.html" target="_top" xlink:title=" ">
<polygon fill="white" stroke="black" points="527,-161.5 527,-614.5 715,-614.5 715,-161.5 527,-161.5"/>
<text text-anchor="start" x="535" y="-602.5" font-family="Helvetica,sans-Serif" font-size="10.00">Feel::GeoEntity&lt; Simplex</text>
<text text-anchor="start" x="535" y="-591.5" font-family="Helvetica,sans-Serif" font-size="10.00">&lt; 0, 1, Dim &gt;, double,</text>
<text text-anchor="middle" x="621" y="-580.5" font-family="Helvetica,sans-Serif" font-size="10.00"> uint32_type &gt;</text>
<polyline fill="none" stroke="black" points="527,-573.5 715,-573.5 "/>
<text text-anchor="middle" x="621" y="-561.5" font-family="Helvetica,sans-Serif" font-size="10.00"> </text>
<polyline fill="none" stroke="black" points="527,-554.5 715,-554.5 "/>
<text text-anchor="start" x="535" y="-542.5" font-family="Helvetica,sans-Serif" font-size="10.00">* super</text>
<text text-anchor="start" x="535" y="-531.5" font-family="Helvetica,sans-Serif" font-size="10.00">* GeoShape</text>
<text text-anchor="start" x="535" y="-520.5" font-family="Helvetica,sans-Serif" font-size="10.00">* self_type</text>
<text text-anchor="start" x="535" y="-509.5" font-family="Helvetica,sans-Serif" font-size="10.00">* value_type</text>
<text text-anchor="start" x="535" y="-498.5" font-family="Helvetica,sans-Serif" font-size="10.00">* index_type</text>
<text text-anchor="start" x="535" y="-487.5" font-family="Helvetica,sans-Serif" font-size="10.00">and 12 more...</text>
<text text-anchor="start" x="535" y="-476.5" font-family="Helvetica,sans-Serif" font-size="10.00">* boost::serialization</text>
<text text-anchor="start" x="535" y="-465.5" font-family="Helvetica,sans-Serif" font-size="10.00">::access</text>
<text text-anchor="start" x="535" y="-454.5" font-family="Helvetica,sans-Serif" font-size="10.00">* M_id</text>
<text text-anchor="start" x="535" y="-443.5" font-family="Helvetica,sans-Serif" font-size="10.00">* M_entity</text>
<text text-anchor="start" x="535" y="-432.5" font-family="Helvetica,sans-Serif" font-size="10.00">* M_boundaryEntityDimension</text>
<text text-anchor="start" x="535" y="-421.5" font-family="Helvetica,sans-Serif" font-size="10.00">* M_pid</text>
<text text-anchor="start" x="535" y="-410.5" font-family="Helvetica,sans-Serif" font-size="10.00">and 41 more...</text>
<text text-anchor="start" x="535" y="-399.5" font-family="Helvetica,sans-Serif" font-size="10.00">* GeoEntity()</text>
<text text-anchor="start" x="535" y="-388.5" font-family="Helvetica,sans-Serif" font-size="10.00">* GeoEntity()</text>
<text text-anchor="start" x="535" y="-377.5" font-family="Helvetica,sans-Serif" font-size="10.00">* GeoEntity()</text>
<text text-anchor="start" x="535" y="-366.5" font-family="Helvetica,sans-Serif" font-size="10.00">* GeoEntity()</text>
<text text-anchor="start" x="535" y="-355.5" font-family="Helvetica,sans-Serif" font-size="10.00">* operator=()</text>
<text text-anchor="start" x="535" y="-344.5" font-family="Helvetica,sans-Serif" font-size="10.00">* operator=()</text>
<text text-anchor="start" x="535" y="-333.5" font-family="Helvetica,sans-Serif" font-size="10.00">* ~GeoEntity()</text>
<text text-anchor="start" x="535" y="-322.5" font-family="Helvetica,sans-Serif" font-size="10.00">* operator==()</text>
<text text-anchor="start" x="535" y="-311.5" font-family="Helvetica,sans-Serif" font-size="10.00">* operator&lt;()</text>
<text text-anchor="start" x="535" y="-300.5" font-family="Helvetica,sans-Serif" font-size="10.00">* operator&lt;()</text>
<text text-anchor="start" x="535" y="-289.5" font-family="Helvetica,sans-Serif" font-size="10.00">* id()</text>
<text text-anchor="start" x="535" y="-278.5" font-family="Helvetica,sans-Serif" font-size="10.00">* refDim()</text>
<text text-anchor="start" x="535" y="-267.5" font-family="Helvetica,sans-Serif" font-size="10.00">* nPoints()</text>
<text text-anchor="start" x="535" y="-256.5" font-family="Helvetica,sans-Serif" font-size="10.00">* nVertices()</text>
<text text-anchor="start" x="535" y="-245.5" font-family="Helvetica,sans-Serif" font-size="10.00">* nEdges()</text>
<text text-anchor="start" x="535" y="-234.5" font-family="Helvetica,sans-Serif" font-size="10.00">and 42 more...</text>
<text text-anchor="start" x="535" y="-223.5" font-family="Helvetica,sans-Serif" font-size="10.00">* setId()</text>
<text text-anchor="start" x="535" y="-212.5" font-family="Helvetica,sans-Serif" font-size="10.00">* setOnBoundary()</text>
<text text-anchor="start" x="535" y="-201.5" font-family="Helvetica,sans-Serif" font-size="10.00">* setNumberOfPartitions()</text>
<text text-anchor="start" x="535" y="-190.5" font-family="Helvetica,sans-Serif" font-size="10.00">* setNumberOfNeighborPartitions()</text>
<text text-anchor="start" x="535" y="-179.5" font-family="Helvetica,sans-Serif" font-size="10.00">* setNeighborPartitionIds()</text>
<text text-anchor="start" x="535" y="-168.5" font-family="Helvetica,sans-Serif" font-size="10.00">* addNeighborPartitionId()</text>
</a>
</g>
</g>
<!-- Node5&#45;&gt;Node1 -->
<g id="edge4" class="edge">
<title>Node5&#45;&gt;Node1</title>
<path fill="none" stroke="midnightblue" d="M522.84,-156.53C517.89,-144.93 513.2,-133.89 508.87,-123.75"/>
<polygon fill="none" stroke="midnightblue" points="519.71,-158.13 526.85,-165.96 526.16,-155.39 519.71,-158.13"/>
</g>
<!-- Node6 -->
<g id="node6" class="node">
<title>Node6</title>
<g id="a_node6"><a xlink:title=" ">
<polygon fill="white" stroke="#bfbfbf" points="822,-717.5 822,-807.5 974,-807.5 974,-717.5 822,-717.5"/>
<text text-anchor="start" x="830" y="-795.5" font-family="Helvetica,sans-Serif" font-size="10.00">boost::equality_comparable</text>
<text text-anchor="start" x="830" y="-784.5" font-family="Helvetica,sans-Serif" font-size="10.00">&lt; GeoEntity&lt; Simplex&lt; 0,</text>
<text text-anchor="start" x="830" y="-773.5" font-family="Helvetica,sans-Serif" font-size="10.00"> 1, Dim &gt;, double, uint32</text>
<text text-anchor="middle" x="898" y="-762.5" font-family="Helvetica,sans-Serif" font-size="10.00">_type &gt; &gt;</text>
<polyline fill="none" stroke="#bfbfbf" points="822,-755.5 974,-755.5 "/>
<text text-anchor="middle" x="898" y="-743.5" font-family="Helvetica,sans-Serif" font-size="10.00"> </text>
<polyline fill="none" stroke="#bfbfbf" points="822,-736.5 974,-736.5 "/>
<text text-anchor="middle" x="898" y="-724.5" font-family="Helvetica,sans-Serif" font-size="10.00"> </text>
</a>
</g>
</g>
<!-- Node6&#45;&gt;Node5 -->
<g id="edge5" class="edge">
<title>Node6&#45;&gt;Node5</title>
<path fill="none" stroke="#8b1a1a" d="M859.12,-709.22C821.95,-659.23 764.44,-581.89 715.25,-515.74"/>
<polygon fill="none" stroke="#8b1a1a" points="856.36,-711.37 865.14,-717.31 861.98,-707.19 856.36,-711.37"/>
</g>
<!-- Node7 -->
<g id="node7" class="node">
<title>Node7</title>
<g id="a_node7"><a xlink:title=" ">
<polygon fill="white" stroke="#bfbfbf" points="276.5,-717.5 276.5,-807.5 435.5,-807.5 435.5,-717.5 276.5,-717.5"/>
<text text-anchor="start" x="284.5" y="-795.5" font-family="Helvetica,sans-Serif" font-size="10.00">boost::less_than_comparable</text>
<text text-anchor="start" x="284.5" y="-784.5" font-family="Helvetica,sans-Serif" font-size="10.00">&lt; GeoEntity&lt; Simplex&lt; 0,</text>
<text text-anchor="start" x="284.5" y="-773.5" font-family="Helvetica,sans-Serif" font-size="10.00"> 1, Dim &gt;, double, uint32</text>
<text text-anchor="middle" x="356" y="-762.5" font-family="Helvetica,sans-Serif" font-size="10.00">_type &gt; &gt;</text>
<polyline fill="none" stroke="#bfbfbf" points="276.5,-755.5 435.5,-755.5 "/>
<text text-anchor="middle" x="356" y="-743.5" font-family="Helvetica,sans-Serif" font-size="10.00"> </text>
<polyline fill="none" stroke="#bfbfbf" points="276.5,-736.5 435.5,-736.5 "/>
<text text-anchor="middle" x="356" y="-724.5" font-family="Helvetica,sans-Serif" font-size="10.00"> </text>
</a>
</g>
</g>
<!-- Node7&#45;&gt;Node5 -->
<g id="edge6" class="edge">
<title>Node7&#45;&gt;Node5</title>
<path fill="none" stroke="#8b1a1a" d="M386.65,-708.59C404.22,-682.46 428.45,-652.45 457,-633 480.01,-617.32 495.99,-633.26 517,-615 520.42,-612.03 523.74,-608.91 526.95,-605.68"/>
<polygon fill="none" stroke="#8b1a1a" points="383.5,-707 380.95,-717.28 389.36,-710.84 383.5,-707"/>
</g>
<!-- Node8 -->
<g id="node8" class="node">
<title>Node8</title>
<g id="a_node8"><a xlink:title=" ">
<polygon fill="white" stroke="#bfbfbf" points="99.5,-717.5 99.5,-807.5 258.5,-807.5 258.5,-717.5 99.5,-717.5"/>
<text text-anchor="start" x="107.5" y="-795.5" font-family="Helvetica,sans-Serif" font-size="10.00">boost::less_than_comparable</text>
<text text-anchor="start" x="107.5" y="-784.5" font-family="Helvetica,sans-Serif" font-size="10.00">&lt; GeoEntity&lt; Simplex&lt; 0,</text>
<text text-anchor="start" x="107.5" y="-773.5" font-family="Helvetica,sans-Serif" font-size="10.00"> 1, Dim &gt;, double, uint32</text>
<text text-anchor="middle" x="179" y="-762.5" font-family="Helvetica,sans-Serif" font-size="10.00">_type &gt;, uint32_type &gt;</text>
<polyline fill="none" stroke="#bfbfbf" points="99.5,-755.5 258.5,-755.5 "/>
<text text-anchor="middle" x="179" y="-743.5" font-family="Helvetica,sans-Serif" font-size="10.00"> </text>
<polyline fill="none" stroke="#bfbfbf" points="99.5,-736.5 258.5,-736.5 "/>
<text text-anchor="middle" x="179" y="-724.5" font-family="Helvetica,sans-Serif" font-size="10.00"> </text>
</a>
</g>
</g>
<!-- Node8&#45;&gt;Node5 -->
<g id="edge7" class="edge">
<title>Node8&#45;&gt;Node5</title>
<path fill="none" stroke="#8b1a1a" d="M214.06,-709.35C228.46,-691.73 246.56,-673.6 267,-662 279.29,-655.02 505.86,-623.69 517,-615 520.4,-612.34 523.7,-609.55 526.9,-606.63"/>
<polygon fill="none" stroke="#8b1a1a" points="211.16,-707.37 207.71,-717.39 216.65,-711.71 211.16,-707.37"/>
</g>
<!-- Node9 -->
<g id="node9" class="node">
<title>Node9</title>
<g id="a_node9"><a xlink:href="classFeel_1_1Simplex.html" target="_top" xlink:title=" ">
<polygon fill="white" stroke="black" points="550,-662.5 550,-862.5 692,-862.5 692,-662.5 550,-662.5"/>
<text text-anchor="start" x="558" y="-850.5" font-family="Helvetica,sans-Serif" font-size="10.00">Feel::Simplex&lt; 0, 1,</text>
<text text-anchor="middle" x="621" y="-839.5" font-family="Helvetica,sans-Serif" font-size="10.00"> Dim &gt;</text>
<polyline fill="none" stroke="black" points="550,-832.5 692,-832.5 "/>
<text text-anchor="start" x="558" y="-820.5" font-family="Helvetica,sans-Serif" font-size="10.00">+ nbPtsPerVertex</text>
<polyline fill="none" stroke="black" points="550,-813.5 692,-813.5 "/>
<text text-anchor="start" x="558" y="-801.5" font-family="Helvetica,sans-Serif" font-size="10.00">+ dimension()</text>
<text text-anchor="start" x="558" y="-790.5" font-family="Helvetica,sans-Serif" font-size="10.00">+ operator=()</text>
<text text-anchor="start" x="558" y="-779.5" font-family="Helvetica,sans-Serif" font-size="10.00">+ operator=()</text>
<text text-anchor="start" x="558" y="-768.5" font-family="Helvetica,sans-Serif" font-size="10.00">+ Simplex()</text>
<text text-anchor="start" x="558" y="-757.5" font-family="Helvetica,sans-Serif" font-size="10.00">+ Simplex()</text>
<text text-anchor="start" x="558" y="-746.5" font-family="Helvetica,sans-Serif" font-size="10.00">+ Simplex()</text>
<text text-anchor="start" x="558" y="-735.5" font-family="Helvetica,sans-Serif" font-size="10.00">+ topologicalDimension()</text>
<text text-anchor="start" x="558" y="-724.5" font-family="Helvetica,sans-Serif" font-size="10.00">+ e2p()</text>
<text text-anchor="start" x="558" y="-713.5" font-family="Helvetica,sans-Serif" font-size="10.00">+ f2e()</text>
<text text-anchor="start" x="558" y="-702.5" font-family="Helvetica,sans-Serif" font-size="10.00">+ f2eLoc()</text>
<text text-anchor="start" x="558" y="-691.5" font-family="Helvetica,sans-Serif" font-size="10.00">+ f2p()</text>
<text text-anchor="start" x="558" y="-680.5" font-family="Helvetica,sans-Serif" font-size="10.00">+ getShape()</text>
<text text-anchor="start" x="558" y="-669.5" font-family="Helvetica,sans-Serif" font-size="10.00">and 12 more...</text>
</a>
</g>
</g>
<!-- Node9&#45;&gt;Node5 -->
<g id="edge8" class="edge">
<title>Node9&#45;&gt;Node5</title>
<path fill="none" stroke="midnightblue" d="M621,-652.13C621,-640.03 621,-627.4 621,-614.51"/>
<polygon fill="none" stroke="midnightblue" points="617.5,-652.17 621,-662.17 624.5,-652.17 617.5,-652.17"/>
</g>
<!-- Node10 -->
<g id="node10" class="node">
<title>Node10</title>
<g id="a_node10"><a xlink:href="classFeel_1_1Convex.html" target="_top" xlink:title="Convex base class.">
<polygon fill="white" stroke="black" points="866,-1030 866,-1131 980,-1131 980,-1030 866,-1030"/>
<text text-anchor="start" x="874" y="-1119" font-family="Helvetica,sans-Serif" font-size="10.00">Feel::Convex&lt; Dim,</text>
<text text-anchor="middle" x="923" y="-1108" font-family="Helvetica,sans-Serif" font-size="10.00"> Order, RDim &gt;</text>
<polyline fill="none" stroke="black" points="866,-1101 980,-1101 "/>
<text text-anchor="middle" x="923" y="-1089" font-family="Helvetica,sans-Serif" font-size="10.00"> </text>
<polyline fill="none" stroke="black" points="866,-1082 980,-1082 "/>
<text text-anchor="start" x="874" y="-1070" font-family="Helvetica,sans-Serif" font-size="10.00">* Convex()</text>
<text text-anchor="start" x="874" y="-1059" font-family="Helvetica,sans-Serif" font-size="10.00">* Convex()</text>
<text text-anchor="start" x="874" y="-1048" font-family="Helvetica,sans-Serif" font-size="10.00">* ~Convex()</text>
<text text-anchor="start" x="874" y="-1037" font-family="Helvetica,sans-Serif" font-size="10.00">* operator=()</text>
</a>
</g>
</g>
<!-- Node10&#45;&gt;Node9 -->
<g id="edge9" class="edge">
<title>Node10&#45;&gt;Node9</title>
<path fill="none" stroke="midnightblue" d="M863.67,-1024.01C861.46,-1022.59 859.24,-1021.25 857,-1020 832.33,-1006.19 815.38,-1022.57 796,-1002 758.15,-961.82 805.94,-921.09 768,-881 748.28,-860.16 730.11,-878.56 706,-863 701.23,-859.92 696.58,-856.49 692.07,-852.81"/>
<polygon fill="none" stroke="midnightblue" points="861.84,-1026.99 872.06,-1029.77 865.8,-1021.22 861.84,-1026.99"/>
</g>
<!-- Node11 -->
<g id="node11" class="node">
<title>Node11</title>
<g id="a_node11"><a xlink:href="classFeel_1_1ConvexBase.html" target="_top" xlink:title=" ">
<polygon fill="white" stroke="black" points="1045,-1210.5 1045,-1267.5 1149,-1267.5 1149,-1210.5 1045,-1210.5"/>
<text text-anchor="middle" x="1097" y="-1255.5" font-family="Helvetica,sans-Serif" font-size="10.00">Feel::ConvexBase</text>
<polyline fill="none" stroke="black" points="1045,-1248.5 1149,-1248.5 "/>
<text text-anchor="middle" x="1097" y="-1236.5" font-family="Helvetica,sans-Serif" font-size="10.00"> </text>
<polyline fill="none" stroke="black" points="1045,-1229.5 1149,-1229.5 "/>
<text text-anchor="middle" x="1097" y="-1217.5" font-family="Helvetica,sans-Serif" font-size="10.00"> </text>
</a>
</g>
</g>
<!-- Node11&#45;&gt;Node10 -->
<g id="edge10" class="edge">
<title>Node11&#45;&gt;Node10</title>
<path fill="none" stroke="midnightblue" d="M1058.62,-1203.56C1037.98,-1185.03 1012.09,-1161.78 989,-1141 985.44,-1137.8 981.78,-1134.5 978.09,-1131.18"/>
<polygon fill="none" stroke="midnightblue" points="1056.48,-1206.34 1066.26,-1210.42 1061.16,-1201.14 1056.48,-1206.34"/>
</g>
<!-- Node12 -->
<g id="node12" class="node">
<title>Node12</title>
<g id="a_node12"><a xlink:title=" ">
<polygon fill="white" stroke="#bfbfbf" points="630,-1210.5 630,-1267.5 764,-1267.5 764,-1210.5 630,-1210.5"/>
<text text-anchor="middle" x="697" y="-1255.5" font-family="Helvetica,sans-Serif" font-size="10.00">static const uint16_type</text>
<polyline fill="none" stroke="#bfbfbf" points="630,-1248.5 764,-1248.5 "/>
<text text-anchor="middle" x="697" y="-1236.5" font-family="Helvetica,sans-Serif" font-size="10.00"> </text>
<polyline fill="none" stroke="#bfbfbf" points="630,-1229.5 764,-1229.5 "/>
<text text-anchor="middle" x="697" y="-1217.5" font-family="Helvetica,sans-Serif" font-size="10.00"> </text>
</a>
</g>
</g>
<!-- Node12&#45;&gt;Node1 -->
<g id="edge21" class="edge">
<title>Node12&#45;&gt;Node1</title>
<path fill="none" stroke="#404040" d="M764.24,-1236.39C841.12,-1231.05 966.44,-1211.22 1045,-1141 1066.65,-1121.65 1072,-1110.54 1072,-1081.5 1072,-1081.5 1072,-1081.5 1072,-387 1072,-154.2 714.39,-87.48 556.47,-69.36"/>
<polygon fill="none" stroke="#404040" points="556.02,-69.31 549.62,-72.63 544.09,-68 550.49,-64.68 556.02,-69.31"/>
<text text-anchor="middle" x="1091" y="-760" font-family="Helvetica,sans-Serif" font-size="10.00"> +nDim</text>
</g>
<!-- Node12&#45;&gt;Node5 -->
<g id="edge18" class="edge">
<title>Node12&#45;&gt;Node5</title>
<path fill="none" stroke="#404040" d="M629.64,-1232.79C509.45,-1222.24 264.57,-1194.66 200,-1141 97.81,-1056.07 114.88,-993.53 90,-863 73.27,-775.25 30.39,-728.53 90,-662 105.93,-644.23 497.64,-628.96 517,-615 517.1,-614.93 517.21,-614.85 517.31,-614.77"/>
<polygon fill="none" stroke="#404040" points="517.24,-614.83 519.49,-607.98 526.68,-607.42 524.43,-614.27 517.24,-614.83"/>
<text text-anchor="middle" x="168.5" y="-994" font-family="Helvetica,sans-Serif" font-size="10.00"> +numPoints</text>
<text text-anchor="middle" x="168.5" y="-983" font-family="Helvetica,sans-Serif" font-size="10.00">+nbPtsPerFace</text>
<text text-anchor="middle" x="168.5" y="-972" font-family="Helvetica,sans-Serif" font-size="10.00">+nbPtsPerEdge</text>
<text text-anchor="middle" x="168.5" y="-961" font-family="Helvetica,sans-Serif" font-size="10.00">+numNormals</text>
<text text-anchor="middle" x="168.5" y="-950" font-family="Helvetica,sans-Serif" font-size="10.00">+nbPtsPerVolume</text>
<text text-anchor="middle" x="168.5" y="-939" font-family="Helvetica,sans-Serif" font-size="10.00">+numEdges</text>
<text text-anchor="middle" x="168.5" y="-928" font-family="Helvetica,sans-Serif" font-size="10.00">+nDim</text>
<text text-anchor="middle" x="168.5" y="-917" font-family="Helvetica,sans-Serif" font-size="10.00">+numFaces</text>
<text text-anchor="middle" x="168.5" y="-906" font-family="Helvetica,sans-Serif" font-size="10.00">+numTopologicalFaces</text>
<text text-anchor="middle" x="168.5" y="-895" font-family="Helvetica,sans-Serif" font-size="10.00">+numGeometricFaces</text>
<text text-anchor="middle" x="168.5" y="-884" font-family="Helvetica,sans-Serif" font-size="10.00">...</text>
</g>
<!-- Node12&#45;&gt;Node9 -->
<g id="edge15" class="edge">
<title>Node12&#45;&gt;Node9</title>
<path fill="none" stroke="#404040" d="M671.69,-1210.2C656.8,-1191.96 639.32,-1166.78 631,-1141 615.63,-1093.33 615.04,-968.07 617.07,-874.84"/>
<polygon fill="none" stroke="#404040" points="617.07,-874.77 613.21,-868.67 617.35,-862.77 621.21,-868.86 617.07,-874.77"/>
<text text-anchor="middle" x="690.5" y="-1133" font-family="Helvetica,sans-Serif" font-size="10.00"> +numPoints</text>
<text text-anchor="middle" x="690.5" y="-1122" font-family="Helvetica,sans-Serif" font-size="10.00">+nbPtsPerFace</text>
<text text-anchor="middle" x="690.5" y="-1111" font-family="Helvetica,sans-Serif" font-size="10.00">+nbPtsPerEdge</text>
<text text-anchor="middle" x="690.5" y="-1100" font-family="Helvetica,sans-Serif" font-size="10.00">+numNormals</text>
<text text-anchor="middle" x="690.5" y="-1089" font-family="Helvetica,sans-Serif" font-size="10.00">+nbPtsPerVolume</text>
<text text-anchor="middle" x="690.5" y="-1078" font-family="Helvetica,sans-Serif" font-size="10.00">+real_dimension</text>
<text text-anchor="middle" x="690.5" y="-1067" font-family="Helvetica,sans-Serif" font-size="10.00">+nDim</text>
<text text-anchor="middle" x="690.5" y="-1056" font-family="Helvetica,sans-Serif" font-size="10.00">+topological_dimension</text>
<text text-anchor="middle" x="690.5" y="-1045" font-family="Helvetica,sans-Serif" font-size="10.00">+nRealDim</text>
<text text-anchor="middle" x="690.5" y="-1034" font-family="Helvetica,sans-Serif" font-size="10.00">+nOrder</text>
<text text-anchor="middle" x="690.5" y="-1023" font-family="Helvetica,sans-Serif" font-size="10.00">...</text>
</g>
<!-- Node12&#45;&gt;Node10 -->
<g id="edge11" class="edge">
<title>Node12&#45;&gt;Node10</title>
<path fill="none" stroke="#404040" d="M747.94,-1210.4C780.18,-1192.14 822.2,-1166.87 857,-1141 858.05,-1140.22 859.11,-1139.42 860.16,-1138.61"/>
<polygon fill="none" stroke="#404040" points="860.28,-1138.52 862.49,-1131.66 869.68,-1131.07 867.46,-1137.93 860.28,-1138.52"/>
<text text-anchor="middle" x="855.5" y="-1184" font-family="Helvetica,sans-Serif" font-size="10.00"> +nDim</text>
<text text-anchor="middle" x="855.5" y="-1173" font-family="Helvetica,sans-Serif" font-size="10.00">+nRealDim</text>
<text text-anchor="middle" x="855.5" y="-1162" font-family="Helvetica,sans-Serif" font-size="10.00">+nOrder</text>
</g>
<!-- Node13 -->
<g id="node13" class="node">
<title>Node13</title>
<g id="a_node13"><a xlink:href="classFeel_1_1SimplexBase.html" target="_top" xlink:title=" ">
<polygon fill="white" stroke="black" points="349.5,-1052 349.5,-1109 456.5,-1109 456.5,-1052 349.5,-1052"/>
<text text-anchor="middle" x="403" y="-1097" font-family="Helvetica,sans-Serif" font-size="10.00">Feel::SimplexBase</text>
<polyline fill="none" stroke="black" points="349.5,-1090 456.5,-1090 "/>
<text text-anchor="middle" x="403" y="-1078" font-family="Helvetica,sans-Serif" font-size="10.00"> </text>
<polyline fill="none" stroke="black" points="349.5,-1071 456.5,-1071 "/>
<text text-anchor="middle" x="403" y="-1059" font-family="Helvetica,sans-Serif" font-size="10.00"> </text>
</a>
</g>
</g>
<!-- Node13&#45;&gt;Node9 -->
<g id="edge12" class="edge">
<title>Node13&#45;&gt;Node9</title>
<path fill="none" stroke="#8b1a1a" d="M435.06,-1044.91C444.45,-1036.03 455.12,-1027.01 466,-1020 483.76,-1008.55 496.31,-1018.09 510,-1002 545.77,-959.96 515.43,-931.37 538,-881 541.47,-873.25 545.49,-865.49 549.84,-857.85"/>
<polygon fill="none" stroke="#8b1a1a" points="432.54,-1042.47 427.83,-1051.96 437.43,-1047.48 432.54,-1042.47"/>
</g>
<!-- Node14 -->
<g id="node14" class="node">
<title>Node14</title>
<g id="a_node14"><a xlink:href="classstatic_01constexpr_01int.html" target="_top" xlink:title=" ">
<polygon fill="white" stroke="black" points="475,-1052 475,-1109 585,-1109 585,-1052 475,-1052"/>
<text text-anchor="middle" x="530" y="-1097" font-family="Helvetica,sans-Serif" font-size="10.00">static constexpr int</text>
<polyline fill="none" stroke="black" points="475,-1090 585,-1090 "/>
<text text-anchor="middle" x="530" y="-1078" font-family="Helvetica,sans-Serif" font-size="10.00"> </text>
<polyline fill="none" stroke="black" points="475,-1071 585,-1071 "/>
<text text-anchor="middle" x="530" y="-1059" font-family="Helvetica,sans-Serif" font-size="10.00"> </text>
</a>
</g>
</g>
<!-- Node14&#45;&gt;Node9 -->
<g id="edge13" class="edge">
<title>Node14&#45;&gt;Node9</title>
<path fill="none" stroke="#404040" d="M532.69,-1051.88C537.44,-1005.06 547.8,-912.18 558,-881 558.74,-878.73 559.53,-876.45 560.35,-874.17"/>
<polygon fill="none" stroke="#404040" points="560.43,-873.96 558.86,-866.92 564.75,-862.76 566.33,-869.8 560.43,-873.96"/>
<text text-anchor="middle" x="582.5" y="-944.5" font-family="Helvetica,sans-Serif" font-size="10.00"> +Shape</text>
<text text-anchor="middle" x="582.5" y="-933.5" font-family="Helvetica,sans-Serif" font-size="10.00">+shape_v</text>
</g>
<!-- Node15 -->
<g id="node15" class="node">
<title>Node15</title>
<g id="a_node15"><a xlink:href="classstatic_01const_01int.html" target="_top" xlink:title=" ">
<polygon fill="white" stroke="black" points="758.5,-1052 758.5,-1109 847.5,-1109 847.5,-1052 758.5,-1052"/>
<text text-anchor="middle" x="803" y="-1097" font-family="Helvetica,sans-Serif" font-size="10.00">static const int</text>
<polyline fill="none" stroke="black" points="758.5,-1090 847.5,-1090 "/>
<text text-anchor="middle" x="803" y="-1078" font-family="Helvetica,sans-Serif" font-size="10.00"> </text>
<polyline fill="none" stroke="black" points="758.5,-1071 847.5,-1071 "/>
<text text-anchor="middle" x="803" y="-1059" font-family="Helvetica,sans-Serif" font-size="10.00"> </text>
</a>
</g>
</g>
<!-- Node15&#45;&gt;Node9 -->
<g id="edge14" class="edge">
<title>Node15&#45;&gt;Node9</title>
<path fill="none" stroke="#404040" d="M781.88,-1051.85C771.66,-1040.31 758.47,-1027.8 744,-1020 708.48,-1000.84 682.7,-1031.35 655,-1002 650.3,-997.02 641.51,-934.71 634.04,-875.03"/>
<polygon fill="none" stroke="#404040" points="634,-874.66 629.29,-869.2 632.52,-862.75 637.23,-868.21 634,-874.66"/>
<text text-anchor="middle" x="711.5" y="-966.5" font-family="Helvetica,sans-Serif" font-size="10.00"> +numEdges</text>
<text text-anchor="middle" x="711.5" y="-955.5" font-family="Helvetica,sans-Serif" font-size="10.00">+numFaces</text>
<text text-anchor="middle" x="711.5" y="-944.5" font-family="Helvetica,sans-Serif" font-size="10.00">+numTopologicalFaces</text>
<text text-anchor="middle" x="711.5" y="-933.5" font-family="Helvetica,sans-Serif" font-size="10.00">+numGeometricFaces</text>
<text text-anchor="middle" x="711.5" y="-922.5" font-family="Helvetica,sans-Serif" font-size="10.00">+numVolumes</text>
<text text-anchor="middle" x="711.5" y="-911.5" font-family="Helvetica,sans-Serif" font-size="10.00">+numVertices</text>
</g>
<!-- Node16 -->
<g id="node16" class="node">
<title>Node16</title>
<g id="a_node16"><a xlink:href="classbool.html" target="_top" xlink:title=" ">
<polygon fill="white" stroke="black" points="998,-1052 998,-1109 1036,-1109 1036,-1052 998,-1052"/>
<text text-anchor="middle" x="1017" y="-1097" font-family="Helvetica,sans-Serif" font-size="10.00">bool</text>
<polyline fill="none" stroke="black" points="998,-1090 1036,-1090 "/>
<text text-anchor="middle" x="1017" y="-1078" font-family="Helvetica,sans-Serif" font-size="10.00"> </text>
<polyline fill="none" stroke="black" points="998,-1071 1036,-1071 "/>
<text text-anchor="middle" x="1017" y="-1059" font-family="Helvetica,sans-Serif" font-size="10.00"> </text>
</a>
</g>
</g>
<!-- Node16&#45;&gt;Node1 -->
<g id="edge22" class="edge">
<title>Node16&#45;&gt;Node1</title>
<path fill="none" stroke="#404040" d="M1018.44,-1051.97C1021.21,-984.17 1023.78,-804.26 983,-662 913.92,-421.04 909.12,-330.01 724,-161 676.73,-117.84 607.94,-92.44 555.95,-78.35"/>
<polygon fill="none" stroke="#404040" points="555.73,-78.3 548.92,-80.65 544.12,-75.26 550.94,-72.91 555.73,-78.3"/>
<text text-anchor="middle" x="1008" y="-636" font-family="Helvetica,sans-Serif" font-size="10.00"> +is_simplex</text>
</g>
<!-- Node16&#45;&gt;Node5 -->
<g id="edge19" class="edge">
<title>Node16&#45;&gt;Node5</title>
<path fill="none" stroke="#404040" d="M1005.12,-1051.75C1000.46,-1041.57 994.83,-1030.08 989,-1020 951.27,-954.8 956.67,-919.64 892,-881 862.23,-863.21 762.26,-886.75 737,-863 670.88,-800.83 721.79,-750.34 701,-662 698.26,-650.37 695.33,-638.5 692.26,-626.55"/>
<polygon fill="none" stroke="#404040" points="692.16,-626.18 686.79,-621.37 689.15,-614.56 694.53,-619.36 692.16,-626.18"/>
<text text-anchor="middle" x="775" y="-765.5" font-family="Helvetica,sans-Serif" font-size="10.00"> +is_hypercube</text>
<text text-anchor="middle" x="775" y="-754.5" font-family="Helvetica,sans-Serif" font-size="10.00">+is_simplex</text>
</g>
<!-- Node16&#45;&gt;Node9 -->
<g id="edge16" class="edge">
<title>Node16&#45;&gt;Node9</title>
<path fill="none" stroke="#404040" d="M1010.51,-1051.84C1006.33,-1040.16 999.61,-1027.53 989,-1020 957.48,-997.63 844.46,-1028.16 816,-1002 775.7,-964.96 831.39,-920.02 793,-881 765.31,-852.85 739.99,-883.09 706,-863 704.65,-862.2 703.32,-861.38 701.99,-860.52"/>
<polygon fill="none" stroke="#404040" points="701.85,-860.43 694.64,-860.22 692.06,-853.49 699.27,-853.69 701.85,-860.43"/>
<text text-anchor="middle" x="854" y="-944.5" font-family="Helvetica,sans-Serif" font-size="10.00"> +is_hypercube</text>
<text text-anchor="middle" x="854" y="-933.5" font-family="Helvetica,sans-Serif" font-size="10.00">+is_simplex</text>
</g>
<!-- Node17 -->
<g id="node17" class="node">
<title>Node17</title>
<g id="a_node17"><a xlink:title=" ">
<polygon fill="white" stroke="#bfbfbf" points="209,-1052 209,-1109 331,-1109 331,-1052 209,-1052"/>
<text text-anchor="middle" x="270" y="-1097" font-family="Helvetica,sans-Serif" font-size="10.00">static const size_type</text>
<polyline fill="none" stroke="#bfbfbf" points="209,-1090 331,-1090 "/>
<text text-anchor="middle" x="270" y="-1078" font-family="Helvetica,sans-Serif" font-size="10.00"> </text>
<polyline fill="none" stroke="#bfbfbf" points="209,-1071 331,-1071 "/>
<text text-anchor="middle" x="270" y="-1059" font-family="Helvetica,sans-Serif" font-size="10.00"> </text>
</a>
</g>
</g>
<!-- Node17&#45;&gt;Node5 -->
<g id="edge20" class="edge">
<title>Node17&#45;&gt;Node5</title>
<path fill="none" stroke="#404040" d="M291.95,-1051.75C322.47,-1013.24 379.55,-941.52 429,-881 435.59,-872.94 439.6,-872.44 444,-863 482.33,-780.73 442.82,-744.79 480,-662 490.89,-637.75 503.12,-637.68 517,-615 518.25,-612.96 519.49,-610.91 520.72,-608.84"/>
<polygon fill="none" stroke="#404040" points="520.79,-608.72 520.37,-601.52 526.85,-598.36 527.28,-605.56 520.79,-608.72"/>
<text text-anchor="middle" x="510.5" y="-765.5" font-family="Helvetica,sans-Serif" font-size="10.00"> +Geometry</text>
<text text-anchor="middle" x="510.5" y="-754.5" font-family="Helvetica,sans-Serif" font-size="10.00">+Shape</text>
</g>
<!-- Node17&#45;&gt;Node9 -->
<g id="edge17" class="edge">
<title>Node17&#45;&gt;Node9</title>
<path fill="none" stroke="#404040" d="M295.97,-1051.96C308.28,-1040.45 323.81,-1027.93 340,-1020 375.07,-1002.82 399.09,-1030.3 426,-1002 463.51,-962.55 407.28,-920.25 445,-881 473.57,-851.28 500.42,-883.83 536,-863 537.35,-862.21 538.69,-861.39 540.02,-860.54"/>
<polygon fill="none" stroke="#404040" points="540.16,-860.45 542.76,-853.72 549.97,-853.54 547.36,-860.27 540.16,-860.45"/>
<text text-anchor="middle" x="475.5" y="-939" font-family="Helvetica,sans-Serif" font-size="10.00"> +Geometry</text>
</g>
</g>
</svg>
        <g id="navigator" transform="translate(0 0)" fill="#404254">
                <rect fill="#f2f5e9" fill-opacity="0.5" stroke="#606060" stroke-width=".5" x="0" y="0" width="60" height="60"/>
                <use id="zoomplus" xlink:href="#zoomPlus" x="17" y="9" onmousedown="handleZoom(evt,'in')"/>
                <use id="zoomminus" xlink:href="#zoomMin" x="42" y="9" onmousedown="handleZoom(evt,'out')"/>
                <use id="reset" xlink:href="#resetDef" x="30" y="36" onmousedown="handleReset()"/>
                <g id="arrowUp" xlink:href="#dirArrow" transform="translate(30 24)" onmousedown="handlePan(0,-1)">
                  <use xlink:href="#rim" fill="#404040">
                        <set attributeName="fill" to="#808080" begin="arrowUp.mouseover" end="arrowUp.mouseout"/>
                  </use>
                  <path fill="none" stroke="white" stroke-width="1.5" d="M0,-3.0v7 M-2.5,-0.5L0,-3.0L2.5,-0.5"/>
                </g>
                <g id="arrowRight" xlink:href="#dirArrow" transform="rotate(90) translate(36 -43)" onmousedown="handlePan(1,0)">
                  <use xlink:href="#rim" fill="#404040">
                        <set attributeName="fill" to="#808080" begin="arrowRight.mouseover" end="arrowRight.mouseout"/>
                  </use>
                  <path fill="none" stroke="white" stroke-width="1.5" d="M0,-3.0v7 M-2.5,-0.5L0,-3.0L2.5,-0.5"/>
                </g>
                <g id="arrowDown" xlink:href="#dirArrow" transform="rotate(180) translate(-30 -48)" onmousedown="handlePan(0,1)">
                  <use xlink:href="#rim" fill="#404040">
                        <set attributeName="fill" to="#808080" begin="arrowDown.mouseover" end="arrowDown.mouseout"/>
                  </use>
                  <path fill="none" stroke="white" stroke-width="1.5" d="M0,-3.0v7 M-2.5,-0.5L0,-3.0L2.5,-0.5"/>
                </g>
                <g id="arrowLeft" xlink:href="#dirArrow" transform="rotate(270) translate(-36 17)" onmousedown="handlePan(-1,0)">
                  <use xlink:href="#rim" fill="#404040">
                        <set attributeName="fill" to="#808080" begin="arrowLeft.mouseover" end="arrowLeft.mouseout"/>
                  </use>
                  <path fill="none" stroke="white" stroke-width="1.5" d="M0,-3.0v7 M-2.5,-0.5L0,-3.0L2.5,-0.5"/>
                </g>
        </g>
        <svg viewBox="0 0 15 15" width="100%" height="30px" preserveAspectRatio="xMaxYMin meet">
         <g id="arrow_out" transform="scale(0.3 0.3)">
          <a xlink:href="classFeel_1_1Geo0D__coll__graph_org.svg" target="_base">
           <rect id="button" ry="5" rx="5" y="6" x="6" height="38" width="38"
                fill="#f2f5e9" fill-opacity="0.5" stroke="#606060" stroke-width="1.0"/>
           <path id="arrow"
             d="M 11.500037,31.436501 C 11.940474,20.09759 22.043105,11.32322 32.158766,21.979434 L 37.068811,17.246167 C 37.068811,17.246167 37.088388,32 37.088388,32 L 22.160133,31.978069 C 22.160133,31.978069 26.997745,27.140456 26.997745,27.140456 C 18.528582,18.264221 13.291696,25.230495 11.500037,31.436501 z"
             style="fill:#404040;"/>
          </a>
         </g>
        </svg>
</svg>
