<?xml version="1.0" encoding="UTF-8" standalone="no"?>
<!DOCTYPE svg PUBLIC "-//W3C//DTD SVG 1.1//EN"
 "http://www.w3.org/Graphics/SVG/1.1/DTD/svg11.dtd">
<!-- Generated by graphviz version 2.43.0 (0)
 -->
<!-- Title: Feel::Mesh2D&lt; Shape, T, IndexT &gt; Pages: 1 -->
<svg width="857pt" height="1217pt"
 viewBox="0.00 0.00 856.50 1217.00" xmlns="http://www.w3.org/2000/svg" xmlns:xlink="http://www.w3.org/1999/xlink">
<g id="graph0" class="graph" transform="scale(1 1) rotate(0) translate(4 1213)">
<title>Feel::Mesh2D&lt; Shape, T, IndexT &gt;</title>
<polygon fill="white" stroke="transparent" points="-4,4 -4,-1213 852.5,-1213 852.5,4 -4,4"/>
<!-- Node1 -->
<g id="node1" class="node">
<title>Node1</title>
<g id="a_node1"><a xlink:title="2D mesh class">
<polygon fill="#bfbfbf" stroke="black" points="316,-0.5 316,-332.5 478,-332.5 478,-0.5 316,-0.5"/>
<text text-anchor="start" x="324" y="-320.5" font-family="Helvetica,sans-Serif" font-size="10.00">Feel::Mesh2D&lt; Shape,</text>
<text text-anchor="middle" x="397" y="-309.5" font-family="Helvetica,sans-Serif" font-size="10.00"> T, IndexT &gt;</text>
<polyline fill="none" stroke="black" points="316,-302.5 478,-302.5 "/>
<text text-anchor="middle" x="397" y="-290.5" font-family="Helvetica,sans-Serif" font-size="10.00"> </text>
<polyline fill="none" stroke="black" points="316,-283.5 478,-283.5 "/>
<text text-anchor="start" x="324" y="-271.5" font-family="Helvetica,sans-Serif" font-size="10.00">* return_type</text>
<text text-anchor="start" x="324" y="-260.5" font-family="Helvetica,sans-Serif" font-size="10.00">* super_visitable</text>
<text text-anchor="start" x="324" y="-249.5" font-family="Helvetica,sans-Serif" font-size="10.00">* super</text>
<text text-anchor="start" x="324" y="-238.5" font-family="Helvetica,sans-Serif" font-size="10.00">* index_type</text>
<text text-anchor="start" x="324" y="-227.5" font-family="Helvetica,sans-Serif" font-size="10.00">* size_type</text>
<text text-anchor="start" x="324" y="-216.5" font-family="Helvetica,sans-Serif" font-size="10.00">and 28 more...</text>
<text text-anchor="start" x="324" y="-205.5" font-family="Helvetica,sans-Serif" font-size="10.00">* boost::serialization</text>
<text text-anchor="start" x="324" y="-194.5" font-family="Helvetica,sans-Serif" font-size="10.00">::access</text>
<text text-anchor="start" x="324" y="-183.5" font-family="Helvetica,sans-Serif" font-size="10.00">* beginEdge()</text>
<text text-anchor="start" x="324" y="-172.5" font-family="Helvetica,sans-Serif" font-size="10.00">* endEdge()</text>
<text text-anchor="start" x="324" y="-161.5" font-family="Helvetica,sans-Serif" font-size="10.00">* edges()</text>
<text text-anchor="start" x="324" y="-150.5" font-family="Helvetica,sans-Serif" font-size="10.00">* setWorldComm()</text>
<text text-anchor="start" x="324" y="-139.5" font-family="Helvetica,sans-Serif" font-size="10.00">and 8 more...</text>
<text text-anchor="start" x="324" y="-128.5" font-family="Helvetica,sans-Serif" font-size="10.00">* Mesh2D()</text>
<text text-anchor="start" x="324" y="-117.5" font-family="Helvetica,sans-Serif" font-size="10.00">* Mesh2D()</text>
<text text-anchor="start" x="324" y="-106.5" font-family="Helvetica,sans-Serif" font-size="10.00">* Mesh2D()</text>
<text text-anchor="start" x="324" y="-95.5" font-family="Helvetica,sans-Serif" font-size="10.00">* ~Mesh2D()</text>
<text text-anchor="start" x="324" y="-84.5" font-family="Helvetica,sans-Serif" font-size="10.00">* operator=()</text>
<text text-anchor="start" x="324" y="-73.5" font-family="Helvetica,sans-Serif" font-size="10.00">* operator=()</text>
<text text-anchor="start" x="324" y="-62.5" font-family="Helvetica,sans-Serif" font-size="10.00">* isEmpty()</text>
<text text-anchor="start" x="324" y="-51.5" font-family="Helvetica,sans-Serif" font-size="10.00">* numElements()</text>
<text text-anchor="start" x="324" y="-40.5" font-family="Helvetica,sans-Serif" font-size="10.00">* numLocalEdges()</text>
<text text-anchor="start" x="324" y="-29.5" font-family="Helvetica,sans-Serif" font-size="10.00">* numLocalFaces()</text>
<text text-anchor="start" x="324" y="-18.5" font-family="Helvetica,sans-Serif" font-size="10.00">* numLocalTopologicalFaces()</text>
<text text-anchor="start" x="324" y="-7.5" font-family="Helvetica,sans-Serif" font-size="10.00">and 4 more...</text>
</a>
</g>
</g>
<!-- Node2 -->
<g id="node2" class="node">
<title>Node2</title>
<g id="a_node2"><a xlink:href="classFeel_1_1VisitableBase.html" target="_top" xlink:title=" ">
<polygon fill="white" stroke="#bfbfbf" points="0,-529 0,-630 110,-630 110,-529 0,-529"/>
<text text-anchor="start" x="8" y="-618" font-family="Helvetica,sans-Serif" font-size="10.00">Feel::VisitableBase</text>
<text text-anchor="middle" x="55" y="-607" font-family="Helvetica,sans-Serif" font-size="10.00">&lt; R, CatchAll &gt;</text>
<polyline fill="none" stroke="#bfbfbf" points="0,-600 110,-600 "/>
<text text-anchor="middle" x="55" y="-588" font-family="Helvetica,sans-Serif" font-size="10.00"> </text>
<polyline fill="none" stroke="#bfbfbf" points="0,-581 110,-581 "/>
<text text-anchor="start" x="8" y="-569" font-family="Helvetica,sans-Serif" font-size="10.00">+ accept()</text>
<text text-anchor="start" x="8" y="-558" font-family="Helvetica,sans-Serif" font-size="10.00">+ accept()</text>
<text text-anchor="start" x="8" y="-547" font-family="Helvetica,sans-Serif" font-size="10.00">+ ~VisitableBase()</text>
<text text-anchor="start" x="8" y="-536" font-family="Helvetica,sans-Serif" font-size="10.00"># acceptImpl()</text>
</a>
</g>
</g>
<!-- Node2&#45;&gt;Node1 -->
<g id="edge1" class="edge">
<title>Node2&#45;&gt;Node1</title>
<path fill="none" stroke="midnightblue" d="M62.79,-518.69C70.95,-474.12 87.22,-413.51 119,-369 169.74,-297.93 253.45,-242.21 315.78,-207.55"/>
<polygon fill="none" stroke="midnightblue" points="59.3,-518.35 61.03,-528.8 66.2,-519.55 59.3,-518.35"/>
</g>
<!-- Node3 -->
<g id="node3" class="node">
<title>Node3</title>
<g id="a_node3"><a xlink:href="classFeel_1_1MeshBase.html" target="_top" xlink:title=" ">
<polygon fill="white" stroke="black" points="128.5,-369.5 128.5,-789.5 301.5,-789.5 301.5,-369.5 128.5,-369.5"/>
<text text-anchor="start" x="136.5" y="-777.5" font-family="Helvetica,sans-Serif" font-size="10.00">Feel::MeshBase&lt; uint32</text>
<text text-anchor="middle" x="215" y="-766.5" font-family="Helvetica,sans-Serif" font-size="10.00">_type &gt;</text>
<polyline fill="none" stroke="black" points="128.5,-759.5 301.5,-759.5 "/>
<text text-anchor="middle" x="215" y="-747.5" font-family="Helvetica,sans-Serif" font-size="10.00"> </text>
<polyline fill="none" stroke="black" points="128.5,-740.5 301.5,-740.5 "/>
<text text-anchor="start" x="136.5" y="-728.5" font-family="Helvetica,sans-Serif" font-size="10.00">* super</text>
<text text-anchor="start" x="136.5" y="-717.5" font-family="Helvetica,sans-Serif" font-size="10.00">* index_type</text>
<text text-anchor="start" x="136.5" y="-706.5" font-family="Helvetica,sans-Serif" font-size="10.00">* index_t</text>
<text text-anchor="start" x="136.5" y="-695.5" font-family="Helvetica,sans-Serif" font-size="10.00">* size_type</text>
<text text-anchor="start" x="136.5" y="-684.5" font-family="Helvetica,sans-Serif" font-size="10.00">* face_processor_type</text>
<text text-anchor="start" x="136.5" y="-673.5" font-family="Helvetica,sans-Serif" font-size="10.00">* smd_type</text>
<text text-anchor="start" x="136.5" y="-662.5" font-family="Helvetica,sans-Serif" font-size="10.00">* smd_ptrtype</text>
<text text-anchor="start" x="136.5" y="-651.5" font-family="Helvetica,sans-Serif" font-size="10.00">* boost::serialization</text>
<text text-anchor="start" x="136.5" y="-640.5" font-family="Helvetica,sans-Serif" font-size="10.00">::access</text>
<text text-anchor="start" x="136.5" y="-629.5" font-family="Helvetica,sans-Serif" font-size="10.00">* M_markername</text>
<text text-anchor="start" x="136.5" y="-618.5" font-family="Helvetica,sans-Serif" font-size="10.00">* M_topodim</text>
<text text-anchor="start" x="136.5" y="-607.5" font-family="Helvetica,sans-Serif" font-size="10.00">* M_realdim</text>
<text text-anchor="start" x="136.5" y="-596.5" font-family="Helvetica,sans-Serif" font-size="10.00">* M_components</text>
<text text-anchor="start" x="136.5" y="-585.5" font-family="Helvetica,sans-Serif" font-size="10.00">and 66 more...</text>
<text text-anchor="start" x="136.5" y="-574.5" font-family="Helvetica,sans-Serif" font-size="10.00">* MeshBase()</text>
<text text-anchor="start" x="136.5" y="-563.5" font-family="Helvetica,sans-Serif" font-size="10.00">* MeshBase()</text>
<text text-anchor="start" x="136.5" y="-552.5" font-family="Helvetica,sans-Serif" font-size="10.00">* MeshBase()</text>
<text text-anchor="start" x="136.5" y="-541.5" font-family="Helvetica,sans-Serif" font-size="10.00">* MeshBase()</text>
<text text-anchor="start" x="136.5" y="-530.5" font-family="Helvetica,sans-Serif" font-size="10.00">* MeshBase()</text>
<text text-anchor="start" x="136.5" y="-519.5" font-family="Helvetica,sans-Serif" font-size="10.00">* MeshBase()</text>
<text text-anchor="start" x="136.5" y="-508.5" font-family="Helvetica,sans-Serif" font-size="10.00">* ~MeshBase()</text>
<text text-anchor="start" x="136.5" y="-497.5" font-family="Helvetica,sans-Serif" font-size="10.00">* operator=()</text>
<text text-anchor="start" x="136.5" y="-486.5" font-family="Helvetica,sans-Serif" font-size="10.00">* operator=()</text>
<text text-anchor="start" x="136.5" y="-475.5" font-family="Helvetica,sans-Serif" font-size="10.00">* shared_from_this_meshbase()</text>
<text text-anchor="start" x="136.5" y="-464.5" font-family="Helvetica,sans-Serif" font-size="10.00">* shared_from_this_meshbase()</text>
<text text-anchor="start" x="136.5" y="-453.5" font-family="Helvetica,sans-Serif" font-size="10.00">* isUpdatedForUse()</text>
<text text-anchor="start" x="136.5" y="-442.5" font-family="Helvetica,sans-Serif" font-size="10.00">* setTopologicalDimension()</text>
<text text-anchor="start" x="136.5" y="-431.5" font-family="Helvetica,sans-Serif" font-size="10.00">* setRealDimension()</text>
<text text-anchor="start" x="136.5" y="-420.5" font-family="Helvetica,sans-Serif" font-size="10.00">and 14 more...</text>
<text text-anchor="start" x="136.5" y="-409.5" font-family="Helvetica,sans-Serif" font-size="10.00">* setNumberOfPartitions()</text>
<text text-anchor="start" x="136.5" y="-398.5" font-family="Helvetica,sans-Serif" font-size="10.00">* setNumVertices()</text>
<text text-anchor="start" x="136.5" y="-387.5" font-family="Helvetica,sans-Serif" font-size="10.00">* setComponents()</text>
<text text-anchor="start" x="136.5" y="-376.5" font-family="Helvetica,sans-Serif" font-size="10.00">* setParametric()</text>
</a>
</g>
</g>
<!-- Node3&#45;&gt;Node1 -->
<g id="edge2" class="edge">
<title>Node3&#45;&gt;Node1</title>
<path fill="none" stroke="midnightblue" d="M305.81,-373.44C311.88,-359.72 317.96,-346 323.92,-332.52"/>
<polygon fill="none" stroke="midnightblue" points="302.45,-372.37 301.6,-382.93 308.85,-375.2 302.45,-372.37"/>
</g>
<!-- Node4 -->
<g id="node4" class="node">
<title>Node4</title>
<g id="a_node4"><a xlink:href="classFeel_1_1CommObject.html" target="_top" xlink:title=" ">
<polygon fill="white" stroke="#bfbfbf" points="81.5,-914.5 81.5,-1026.5 188.5,-1026.5 188.5,-914.5 81.5,-914.5"/>
<text text-anchor="middle" x="135" y="-1014.5" font-family="Helvetica,sans-Serif" font-size="10.00">Feel::CommObject</text>
<polyline fill="none" stroke="#bfbfbf" points="81.5,-1007.5 188.5,-1007.5 "/>
<text text-anchor="middle" x="135" y="-995.5" font-family="Helvetica,sans-Serif" font-size="10.00"> </text>
<polyline fill="none" stroke="#bfbfbf" points="81.5,-988.5 188.5,-988.5 "/>
<text text-anchor="start" x="89.5" y="-976.5" font-family="Helvetica,sans-Serif" font-size="10.00">+ comm()</text>
<text text-anchor="start" x="89.5" y="-965.5" font-family="Helvetica,sans-Serif" font-size="10.00">+ CommObject()</text>
<text text-anchor="start" x="89.5" y="-954.5" font-family="Helvetica,sans-Serif" font-size="10.00">+ CommObject()</text>
<text text-anchor="start" x="89.5" y="-943.5" font-family="Helvetica,sans-Serif" font-size="10.00">+ CommObject()</text>
<text text-anchor="start" x="89.5" y="-932.5" font-family="Helvetica,sans-Serif" font-size="10.00">+ CommObject()</text>
<text text-anchor="start" x="89.5" y="-921.5" font-family="Helvetica,sans-Serif" font-size="10.00">and 13 more...</text>
</a>
</g>
</g>
<!-- Node4&#45;&gt;Node3 -->
<g id="edge3" class="edge">
<title>Node4&#45;&gt;Node3</title>
<path fill="none" stroke="midnightblue" d="M148.46,-904.06C155.07,-871.92 163.44,-831.23 171.99,-789.63"/>
<polygon fill="none" stroke="midnightblue" points="144.96,-903.68 146.38,-914.18 151.82,-905.09 144.96,-903.68"/>
</g>
<!-- Node5 -->
<g id="node5" class="node">
<title>Node5</title>
<g id="a_node5"><a xlink:href="classFeel_1_1JournalWatcher.html" target="_top" xlink:title=" ">
<polygon fill="white" stroke="#bfbfbf" points="206.5,-826.5 206.5,-1114.5 383.5,-1114.5 383.5,-826.5 206.5,-826.5"/>
<text text-anchor="middle" x="295" y="-1102.5" font-family="Helvetica,sans-Serif" font-size="10.00">Feel::JournalWatcher</text>
<polyline fill="none" stroke="#bfbfbf" points="206.5,-1095.5 383.5,-1095.5 "/>
<text text-anchor="middle" x="295" y="-1083.5" font-family="Helvetica,sans-Serif" font-size="10.00"> </text>
<polyline fill="none" stroke="#bfbfbf" points="206.5,-1076.5 383.5,-1076.5 "/>
<text text-anchor="start" x="214.5" y="-1064.5" font-family="Helvetica,sans-Serif" font-size="10.00">* M_journal_is_connected</text>
<text text-anchor="start" x="214.5" y="-1053.5" font-family="Helvetica,sans-Serif" font-size="10.00">* M_category</text>
<text text-anchor="start" x="214.5" y="-1042.5" font-family="Helvetica,sans-Serif" font-size="10.00">* M_name</text>
<text text-anchor="start" x="214.5" y="-1031.5" font-family="Helvetica,sans-Serif" font-size="10.00">* M_function_updateInformation</text>
<text text-anchor="start" x="214.5" y="-1020.5" font-family="Helvetica,sans-Serif" font-size="10.00">Object</text>
<text text-anchor="start" x="214.5" y="-1009.5" font-family="Helvetica,sans-Serif" font-size="10.00">* M_informationObject</text>
<text text-anchor="start" x="214.5" y="-998.5" font-family="Helvetica,sans-Serif" font-size="10.00">* S_counterObjectByCategory</text>
<text text-anchor="start" x="214.5" y="-987.5" font-family="Helvetica,sans-Serif" font-size="10.00">* JournalWatcher()</text>
<text text-anchor="start" x="214.5" y="-976.5" font-family="Helvetica,sans-Serif" font-size="10.00">* JournalWatcher()</text>
<text text-anchor="start" x="214.5" y="-965.5" font-family="Helvetica,sans-Serif" font-size="10.00">* JournalWatcher()</text>
<text text-anchor="start" x="214.5" y="-954.5" font-family="Helvetica,sans-Serif" font-size="10.00">* JournalWatcher()</text>
<text text-anchor="start" x="214.5" y="-943.5" font-family="Helvetica,sans-Serif" font-size="10.00">* ~JournalWatcher()</text>
<text text-anchor="start" x="214.5" y="-932.5" font-family="Helvetica,sans-Serif" font-size="10.00">* journalIsConnected()</text>
<text text-anchor="start" x="214.5" y="-921.5" font-family="Helvetica,sans-Serif" font-size="10.00">* journalWatcherInstanceName()</text>
<text text-anchor="start" x="214.5" y="-910.5" font-family="Helvetica,sans-Serif" font-size="10.00">* journalSection()</text>
<text text-anchor="start" x="214.5" y="-899.5" font-family="Helvetica,sans-Serif" font-size="10.00">* informationObject()</text>
<text text-anchor="start" x="214.5" y="-888.5" font-family="Helvetica,sans-Serif" font-size="10.00">* journalConnect()</text>
<text text-anchor="start" x="214.5" y="-877.5" font-family="Helvetica,sans-Serif" font-size="10.00">* journalDisconnect()</text>
<text text-anchor="start" x="214.5" y="-866.5" font-family="Helvetica,sans-Serif" font-size="10.00">* updateInformationObject()</text>
<text text-anchor="start" x="214.5" y="-855.5" font-family="Helvetica,sans-Serif" font-size="10.00">* setInformationObject()</text>
<text text-anchor="start" x="214.5" y="-844.5" font-family="Helvetica,sans-Serif" font-size="10.00">* putInformationObject()</text>
<text text-anchor="start" x="214.5" y="-833.5" font-family="Helvetica,sans-Serif" font-size="10.00">and 4 more...</text>
</a>
</g>
</g>
<!-- Node5&#45;&gt;Node3 -->
<g id="edge4" class="edge">
<title>Node5&#45;&gt;Node3</title>
<path fill="none" stroke="midnightblue" d="M263.51,-816.39C261.69,-807.55 259.85,-798.59 258,-789.6"/>
<polygon fill="none" stroke="midnightblue" points="260.11,-817.22 265.55,-826.31 266.97,-815.81 260.11,-817.22"/>
</g>
<!-- Node6 -->
<g id="node6" class="node">
<title>Node6</title>
<g id="a_node6"><a xlink:title=" ">
<polygon fill="white" stroke="#bfbfbf" points="241.5,-1151.5 241.5,-1208.5 348.5,-1208.5 348.5,-1151.5 241.5,-1151.5"/>
<text text-anchor="middle" x="295" y="-1196.5" font-family="Helvetica,sans-Serif" font-size="10.00">Event::SlotHandler</text>
<polyline fill="none" stroke="#bfbfbf" points="241.5,-1189.5 348.5,-1189.5 "/>
<text text-anchor="middle" x="295" y="-1177.5" font-family="Helvetica,sans-Serif" font-size="10.00"> </text>
<polyline fill="none" stroke="#bfbfbf" points="241.5,-1170.5 348.5,-1170.5 "/>
<text text-anchor="middle" x="295" y="-1158.5" font-family="Helvetica,sans-Serif" font-size="10.00"> </text>
</a>
</g>
</g>
<!-- Node6&#45;&gt;Node5 -->
<g id="edge5" class="edge">
<title>Node6&#45;&gt;Node5</title>
<path fill="none" stroke="midnightblue" d="M295,-1141.38C295,-1133.29 295,-1124.28 295,-1114.76"/>
<polygon fill="none" stroke="midnightblue" points="291.5,-1141.45 295,-1151.45 298.5,-1141.45 291.5,-1141.45"/>
</g>
<!-- Node7 -->
<g id="node7" class="node">
<title>Node7</title>
<g id="a_node7"><a xlink:href="classElements.html" target="_top" xlink:title=" ">
<polygon fill="white" stroke="#bfbfbf" points="320,-551 320,-608 474,-608 474,-551 320,-551"/>
<text text-anchor="middle" x="397" y="-596" font-family="Helvetica,sans-Serif" font-size="10.00">Elements&lt; Shape, double &gt;</text>
<polyline fill="none" stroke="#bfbfbf" points="320,-589 474,-589 "/>
<text text-anchor="middle" x="397" y="-577" font-family="Helvetica,sans-Serif" font-size="10.00"> </text>
<polyline fill="none" stroke="#bfbfbf" points="320,-570 474,-570 "/>
<text text-anchor="middle" x="397" y="-558" font-family="Helvetica,sans-Serif" font-size="10.00"> </text>
</a>
</g>
</g>
<!-- Node7&#45;&gt;Node1 -->
<g id="edge6" class="edge">
<title>Node7&#45;&gt;Node1</title>
<path fill="none" stroke="midnightblue" d="M397,-540.81C397,-493.46 397,-409.12 397,-332.58"/>
<polygon fill="none" stroke="midnightblue" points="393.5,-540.89 397,-550.89 400.5,-540.89 393.5,-540.89"/>
</g>
<!-- Node8 -->
<g id="node8" class="node">
<title>Node8</title>
<g id="a_node8"><a xlink:href="classPoints.html" target="_top" xlink:title=" ">
<polygon fill="white" stroke="#bfbfbf" points="492.5,-545.5 492.5,-613.5 637.5,-613.5 637.5,-545.5 492.5,-545.5"/>
<text text-anchor="start" x="500.5" y="-601.5" font-family="Helvetica,sans-Serif" font-size="10.00">Points&lt; Shape::nRealDim,</text>
<text text-anchor="middle" x="565" y="-590.5" font-family="Helvetica,sans-Serif" font-size="10.00"> double &gt;</text>
<polyline fill="none" stroke="#bfbfbf" points="492.5,-583.5 637.5,-583.5 "/>
<text text-anchor="middle" x="565" y="-571.5" font-family="Helvetica,sans-Serif" font-size="10.00"> </text>
<polyline fill="none" stroke="#bfbfbf" points="492.5,-564.5 637.5,-564.5 "/>
<text text-anchor="middle" x="565" y="-552.5" font-family="Helvetica,sans-Serif" font-size="10.00"> </text>
</a>
</g>
</g>
<!-- Node8&#45;&gt;Node1 -->
<g id="edge7" class="edge">
<title>Node8&#45;&gt;Node1</title>
<path fill="none" stroke="midnightblue" d="M548.76,-535.9C532.48,-493.47 506.53,-426.52 483,-369 478.14,-357.12 473.07,-344.87 467.92,-332.55"/>
<polygon fill="none" stroke="midnightblue" points="545.54,-537.27 552.38,-545.36 552.07,-534.77 545.54,-537.27"/>
</g>
<!-- Node9 -->
<g id="node9" class="node">
<title>Node9</title>
<g id="a_node9"><a xlink:href="classFaces.html" target="_top" xlink:title=" ">
<polygon fill="white" stroke="#bfbfbf" points="655.5,-534.5 655.5,-624.5 848.5,-624.5 848.5,-534.5 655.5,-534.5"/>
<text text-anchor="start" x="663.5" y="-612.5" font-family="Helvetica,sans-Serif" font-size="10.00">Faces&lt; Shape::template</text>
<text text-anchor="start" x="663.5" y="-601.5" font-family="Helvetica,sans-Serif" font-size="10.00"> shape&lt; 1, Shape::nOrder,</text>
<text text-anchor="start" x="663.5" y="-590.5" font-family="Helvetica,sans-Serif" font-size="10.00"> Shape::nRealDim &gt;, Elements</text>
<text text-anchor="middle" x="752" y="-579.5" font-family="Helvetica,sans-Serif" font-size="10.00">&lt; Shape, double &gt;::element_type &gt;</text>
<polyline fill="none" stroke="#bfbfbf" points="655.5,-572.5 848.5,-572.5 "/>
<text text-anchor="middle" x="752" y="-560.5" font-family="Helvetica,sans-Serif" font-size="10.00"> </text>
<polyline fill="none" stroke="#bfbfbf" points="655.5,-553.5 848.5,-553.5 "/>
<text text-anchor="middle" x="752" y="-541.5" font-family="Helvetica,sans-Serif" font-size="10.00"> </text>
</a>
</g>
</g>
<!-- Node9&#45;&gt;Node1 -->
<g id="edge8" class="edge">
<title>Node9&#45;&gt;Node1</title>
<path fill="none" stroke="midnightblue" d="M732.6,-524.92C714.77,-480.26 685.3,-416.51 647,-369 599.15,-309.65 531.09,-256.21 478.06,-219.3"/>
<polygon fill="none" stroke="midnightblue" points="729.42,-526.4 736.34,-534.43 735.94,-523.84 729.42,-526.4"/>
</g>
</g>
</svg>
