<?xml version="1.0" encoding="UTF-8" standalone="no"?>
<!DOCTYPE svg PUBLIC "-//W3C//DTD SVG 1.1//EN"
 "http://www.w3.org/Graphics/SVG/1.1/DTD/svg11.dtd">
<!-- Generated by graphviz version 2.43.0 (0)
 -->
<!-- Title: Feel::FsFunctionalLinear&lt; Space &gt; Pages: 1 -->
<svg width="753pt" height="623pt"
 viewBox="0.00 0.00 752.50 623.00" xmlns="http://www.w3.org/2000/svg" xmlns:xlink="http://www.w3.org/1999/xlink">
<g id="graph0" class="graph" transform="scale(1 1) rotate(0) translate(4 619)">
<title>Feel::FsFunctionalLinear&lt; Space &gt;</title>
<polygon fill="white" stroke="transparent" points="-4,4 -4,-619 748.5,-619 748.5,4 -4,4"/>
<!-- Node1 -->
<g id="node1" class="node">
<title>Node1</title>
<g id="a_node1"><a xlink:title=" ">
<polygon fill="#bfbfbf" stroke="black" points="243,-331.5 243,-454.5 377,-454.5 377,-331.5 243,-331.5"/>
<text text-anchor="start" x="251" y="-442.5" font-family="Helvetica,sans-Serif" font-size="10.00">Feel::FsFunctionalLinear</text>
<text text-anchor="middle" x="310" y="-431.5" font-family="Helvetica,sans-Serif" font-size="10.00">&lt; Space &gt;</text>
<polyline fill="none" stroke="black" points="243,-424.5 377,-424.5 "/>
<text text-anchor="middle" x="310" y="-412.5" font-family="Helvetica,sans-Serif" font-size="10.00"> </text>
<polyline fill="none" stroke="black" points="243,-405.5 377,-405.5 "/>
<text text-anchor="start" x="251" y="-393.5" font-family="Helvetica,sans-Serif" font-size="10.00">+ add()</text>
<text text-anchor="start" x="251" y="-382.5" font-family="Helvetica,sans-Serif" font-size="10.00">+ close()</text>
<text text-anchor="start" x="251" y="-371.5" font-family="Helvetica,sans-Serif" font-size="10.00">+ container()</text>
<text text-anchor="start" x="251" y="-360.5" font-family="Helvetica,sans-Serif" font-size="10.00">+ container()</text>
<text text-anchor="start" x="251" y="-349.5" font-family="Helvetica,sans-Serif" font-size="10.00">+ container()</text>
<text text-anchor="start" x="251" y="-338.5" font-family="Helvetica,sans-Serif" font-size="10.00">and 12 more...</text>
</a>
</g>
</g>
<!-- Node3 -->
<g id="node3" class="node">
<title>Node3</title>
<g id="a_node3"><a xlink:href="classFeel_1_1FsFunctionalLinearComposite.html" target="_top" xlink:title=" ">
<polygon fill="white" stroke="black" points="0,-171.5 0,-294.5 134,-294.5 134,-171.5 0,-171.5"/>
<text text-anchor="start" x="8" y="-282.5" font-family="Helvetica,sans-Serif" font-size="10.00">Feel::FsFunctionalLinear</text>
<text text-anchor="middle" x="67" y="-271.5" font-family="Helvetica,sans-Serif" font-size="10.00">Composite&lt; Space &gt;</text>
<polyline fill="none" stroke="black" points="0,-264.5 134,-264.5 "/>
<text text-anchor="middle" x="67" y="-252.5" font-family="Helvetica,sans-Serif" font-size="10.00"> </text>
<polyline fill="none" stroke="black" points="0,-245.5 134,-245.5 "/>
<text text-anchor="start" x="8" y="-233.5" font-family="Helvetica,sans-Serif" font-size="10.00">+ addElement()</text>
<text text-anchor="start" x="8" y="-222.5" font-family="Helvetica,sans-Serif" font-size="10.00">+ addElement()</text>
<text text-anchor="start" x="8" y="-211.5" font-family="Helvetica,sans-Serif" font-size="10.00">+ addElement()</text>
<text text-anchor="start" x="8" y="-200.5" font-family="Helvetica,sans-Serif" font-size="10.00">+ addList()</text>
<text text-anchor="start" x="8" y="-189.5" font-family="Helvetica,sans-Serif" font-size="10.00">+ addList()</text>
<text text-anchor="start" x="8" y="-178.5" font-family="Helvetica,sans-Serif" font-size="10.00">and 19 more...</text>
</a>
</g>
</g>
<!-- Node1&#45;&gt;Node3 -->
<g id="edge2" class="edge">
<title>Node1&#45;&gt;Node3</title>
<path fill="none" stroke="midnightblue" d="M233.88,-350.99C204.85,-334.52 171.81,-314.77 143,-295 140.07,-292.99 137.11,-290.9 134.14,-288.75"/>
<polygon fill="none" stroke="midnightblue" points="232.33,-354.13 242.76,-355.99 235.77,-348.03 232.33,-354.13"/>
</g>
<!-- Node4 -->
<g id="node4" class="node">
<title>Node4</title>
<g id="a_node4"><a xlink:href="classFeel_1_1FsFunctionalLinearFree.html" target="_top" xlink:title=" ">
<polygon fill="white" stroke="black" points="152,-171.5 152,-294.5 300,-294.5 300,-171.5 152,-171.5"/>
<text text-anchor="start" x="160" y="-282.5" font-family="Helvetica,sans-Serif" font-size="10.00">Feel::FsFunctionalLinear</text>
<text text-anchor="middle" x="226" y="-271.5" font-family="Helvetica,sans-Serif" font-size="10.00">Free&lt; Space &gt;</text>
<polyline fill="none" stroke="black" points="152,-264.5 300,-264.5 "/>
<text text-anchor="middle" x="226" y="-252.5" font-family="Helvetica,sans-Serif" font-size="10.00"> </text>
<polyline fill="none" stroke="black" points="152,-245.5 300,-245.5 "/>
<text text-anchor="start" x="160" y="-233.5" font-family="Helvetica,sans-Serif" font-size="10.00">+ container()</text>
<text text-anchor="start" x="160" y="-222.5" font-family="Helvetica,sans-Serif" font-size="10.00">+ containerPtr()</text>
<text text-anchor="start" x="160" y="-211.5" font-family="Helvetica,sans-Serif" font-size="10.00">+ expr()</text>
<text text-anchor="start" x="160" y="-200.5" font-family="Helvetica,sans-Serif" font-size="10.00">+ FsFunctionalLinearFree()</text>
<text text-anchor="start" x="160" y="-189.5" font-family="Helvetica,sans-Serif" font-size="10.00">+ FsFunctionalLinearFree()</text>
<text text-anchor="start" x="160" y="-178.5" font-family="Helvetica,sans-Serif" font-size="10.00">and 3 more...</text>
</a>
</g>
</g>
<!-- Node1&#45;&gt;Node4 -->
<g id="edge3" class="edge">
<title>Node1&#45;&gt;Node4</title>
<path fill="none" stroke="midnightblue" d="M272.93,-322.26C268.05,-313.09 263.08,-303.74 258.29,-294.73"/>
<polygon fill="none" stroke="midnightblue" points="269.98,-324.18 277.76,-331.36 276.16,-320.89 269.98,-324.18"/>
</g>
<!-- Node5 -->
<g id="node5" class="node">
<title>Node5</title>
<g id="a_node5"><a xlink:href="classFeel_1_1SensorBase.html" target="_top" xlink:title="base class for sensors">
<polygon fill="white" stroke="black" points="318,-171.5 318,-294.5 470,-294.5 470,-171.5 318,-171.5"/>
<text text-anchor="middle" x="394" y="-282.5" font-family="Helvetica,sans-Serif" font-size="10.00">Feel::SensorBase&lt; Space &gt;</text>
<polyline fill="none" stroke="black" points="318,-275.5 470,-275.5 "/>
<text text-anchor="start" x="326" y="-263.5" font-family="Helvetica,sans-Serif" font-size="10.00"># M_name</text>
<text text-anchor="start" x="326" y="-252.5" font-family="Helvetica,sans-Serif" font-size="10.00"># M_type</text>
<polyline fill="none" stroke="black" points="318,-245.5 470,-245.5 "/>
<text text-anchor="start" x="326" y="-233.5" font-family="Helvetica,sans-Serif" font-size="10.00">+ init()</text>
<text text-anchor="start" x="326" y="-222.5" font-family="Helvetica,sans-Serif" font-size="10.00">+ name()</text>
<text text-anchor="start" x="326" y="-211.5" font-family="Helvetica,sans-Serif" font-size="10.00">+ SensorBase()</text>
<text text-anchor="start" x="326" y="-200.5" font-family="Helvetica,sans-Serif" font-size="10.00">+ SensorBase()</text>
<text text-anchor="start" x="326" y="-189.5" font-family="Helvetica,sans-Serif" font-size="10.00">+ setName()</text>
<text text-anchor="start" x="326" y="-178.5" font-family="Helvetica,sans-Serif" font-size="10.00">and 4 more...</text>
</a>
</g>
</g>
<!-- Node1&#45;&gt;Node5 -->
<g id="edge4" class="edge">
<title>Node1&#45;&gt;Node5</title>
<path fill="none" stroke="midnightblue" d="M347.07,-322.26C351.95,-313.09 356.92,-303.74 361.71,-294.73"/>
<polygon fill="none" stroke="midnightblue" points="343.84,-320.89 342.24,-331.36 350.02,-324.18 343.84,-320.89"/>
</g>
<!-- Node6 -->
<g id="node6" class="node">
<title>Node6</title>
<g id="a_node6"><a xlink:href="classFeel_1_1SensorBase.html" target="_top" xlink:title=" ">
<polygon fill="white" stroke="black" points="488.5,-171.5 488.5,-294.5 613.5,-294.5 613.5,-171.5 488.5,-171.5"/>
<text text-anchor="middle" x="551" y="-282.5" font-family="Helvetica,sans-Serif" font-size="10.00">SensorBase&lt; Space &gt;</text>
<polyline fill="none" stroke="black" points="488.5,-275.5 613.5,-275.5 "/>
<text text-anchor="start" x="496.5" y="-263.5" font-family="Helvetica,sans-Serif" font-size="10.00"># M_name</text>
<text text-anchor="start" x="496.5" y="-252.5" font-family="Helvetica,sans-Serif" font-size="10.00"># M_type</text>
<polyline fill="none" stroke="black" points="488.5,-245.5 613.5,-245.5 "/>
<text text-anchor="start" x="496.5" y="-233.5" font-family="Helvetica,sans-Serif" font-size="10.00">+ init()</text>
<text text-anchor="start" x="496.5" y="-222.5" font-family="Helvetica,sans-Serif" font-size="10.00">+ name()</text>
<text text-anchor="start" x="496.5" y="-211.5" font-family="Helvetica,sans-Serif" font-size="10.00">+ SensorBase()</text>
<text text-anchor="start" x="496.5" y="-200.5" font-family="Helvetica,sans-Serif" font-size="10.00">+ SensorBase()</text>
<text text-anchor="start" x="496.5" y="-189.5" font-family="Helvetica,sans-Serif" font-size="10.00">+ setName()</text>
<text text-anchor="start" x="496.5" y="-178.5" font-family="Helvetica,sans-Serif" font-size="10.00">and 4 more...</text>
</a>
</g>
</g>
<!-- Node1&#45;&gt;Node6 -->
<g id="edge5" class="edge">
<title>Node1&#45;&gt;Node6</title>
<path fill="none" stroke="midnightblue" d="M386.2,-352.14C415.9,-335.61 449.77,-315.52 479,-295 482.08,-292.84 485.2,-290.57 488.3,-288.23"/>
<polygon fill="none" stroke="midnightblue" points="384.18,-349.25 377.12,-357.15 387.57,-355.38 384.18,-349.25"/>
</g>
<!-- Node2 -->
<g id="node2" class="node">
<title>Node2</title>
<g id="a_node2"><a xlink:href="classFeel_1_1FsFunctional.html" target="_top" xlink:title=" ">
<polygon fill="white" stroke="black" points="257.5,-491.5 257.5,-614.5 362.5,-614.5 362.5,-491.5 257.5,-491.5"/>
<text text-anchor="start" x="265.5" y="-602.5" font-family="Helvetica,sans-Serif" font-size="10.00">Feel::FsFunctional</text>
<text text-anchor="middle" x="310" y="-591.5" font-family="Helvetica,sans-Serif" font-size="10.00">&lt; Space &gt;</text>
<polyline fill="none" stroke="black" points="257.5,-584.5 362.5,-584.5 "/>
<text text-anchor="middle" x="310" y="-572.5" font-family="Helvetica,sans-Serif" font-size="10.00"> </text>
<polyline fill="none" stroke="black" points="257.5,-565.5 362.5,-565.5 "/>
<text text-anchor="start" x="265.5" y="-553.5" font-family="Helvetica,sans-Serif" font-size="10.00">+ FsFunctional()</text>
<text text-anchor="start" x="265.5" y="-542.5" font-family="Helvetica,sans-Serif" font-size="10.00">+ FsFunctional()</text>
<text text-anchor="start" x="265.5" y="-531.5" font-family="Helvetica,sans-Serif" font-size="10.00">+ operator()()</text>
<text text-anchor="start" x="265.5" y="-520.5" font-family="Helvetica,sans-Serif" font-size="10.00">+ setSpace()</text>
<text text-anchor="start" x="265.5" y="-509.5" font-family="Helvetica,sans-Serif" font-size="10.00">+ space()</text>
<text text-anchor="start" x="265.5" y="-498.5" font-family="Helvetica,sans-Serif" font-size="10.00">+ ~FsFunctional()</text>
</a>
</g>
</g>
<!-- Node2&#45;&gt;Node1 -->
<g id="edge1" class="edge">
<title>Node2&#45;&gt;Node1</title>
<path fill="none" stroke="midnightblue" d="M310,-481.12C310,-472.31 310,-463.37 310,-454.73"/>
<polygon fill="none" stroke="midnightblue" points="306.5,-481.36 310,-491.36 313.5,-481.36 306.5,-481.36"/>
</g>
<!-- Node7 -->
<g id="node7" class="node">
<title>Node7</title>
<g id="a_node7"><a xlink:href="classFeel_1_1SensorGaussian.html" target="_top" xlink:title="gaussian type sensor">
<polygon fill="white" stroke="black" points="349.5,-6 349.5,-129 470.5,-129 470.5,-6 349.5,-6"/>
<text text-anchor="start" x="357.5" y="-117" font-family="Helvetica,sans-Serif" font-size="10.00">Feel::SensorGaussian</text>
<text text-anchor="middle" x="410" y="-106" font-family="Helvetica,sans-Serif" font-size="10.00">&lt; Space &gt;</text>
<polyline fill="none" stroke="black" points="349.5,-99 470.5,-99 "/>
<text text-anchor="start" x="357.5" y="-87" font-family="Helvetica,sans-Serif" font-size="10.00">+ nDim</text>
<polyline fill="none" stroke="black" points="349.5,-80 470.5,-80 "/>
<text text-anchor="start" x="357.5" y="-68" font-family="Helvetica,sans-Serif" font-size="10.00">+ init()</text>
<text text-anchor="start" x="357.5" y="-57" font-family="Helvetica,sans-Serif" font-size="10.00">+ position()</text>
<text text-anchor="start" x="357.5" y="-46" font-family="Helvetica,sans-Serif" font-size="10.00">+ radius()</text>
<text text-anchor="start" x="357.5" y="-35" font-family="Helvetica,sans-Serif" font-size="10.00">+ SensorGaussian()</text>
<text text-anchor="start" x="357.5" y="-24" font-family="Helvetica,sans-Serif" font-size="10.00">+ SensorGaussian()</text>
<text text-anchor="start" x="357.5" y="-13" font-family="Helvetica,sans-Serif" font-size="10.00">and 4 more...</text>
</a>
</g>
</g>
<!-- Node6&#45;&gt;Node7 -->
<g id="edge6" class="edge">
<title>Node6&#45;&gt;Node7</title>
<path fill="none" stroke="midnightblue" d="M491.78,-163.33C481.99,-151.98 471.91,-140.29 462.31,-129.16"/>
<polygon fill="none" stroke="midnightblue" points="489.32,-165.83 498.5,-171.12 494.62,-161.26 489.32,-165.83"/>
</g>
<!-- Node8 -->
<g id="node8" class="node">
<title>Node8</title>
<g id="a_node8"><a xlink:href="classFeel_1_1SensorPointwise.html" target="_top" xlink:title="pointwise type sensor">
<polygon fill="white" stroke="black" points="489,-6 489,-129 613,-129 613,-6 489,-6"/>
<text text-anchor="start" x="497" y="-117" font-family="Helvetica,sans-Serif" font-size="10.00">Feel::SensorPointwise</text>
<text text-anchor="middle" x="551" y="-106" font-family="Helvetica,sans-Serif" font-size="10.00">&lt; Space &gt;</text>
<polyline fill="none" stroke="black" points="489,-99 613,-99 "/>
<text text-anchor="middle" x="551" y="-87" font-family="Helvetica,sans-Serif" font-size="10.00"> </text>
<polyline fill="none" stroke="black" points="489,-80 613,-80 "/>
<text text-anchor="start" x="497" y="-68" font-family="Helvetica,sans-Serif" font-size="10.00">+ init()</text>
<text text-anchor="start" x="497" y="-57" font-family="Helvetica,sans-Serif" font-size="10.00">+ position()</text>
<text text-anchor="start" x="497" y="-46" font-family="Helvetica,sans-Serif" font-size="10.00">+ SensorPointwise()</text>
<text text-anchor="start" x="497" y="-35" font-family="Helvetica,sans-Serif" font-size="10.00">+ SensorPointwise()</text>
<text text-anchor="start" x="497" y="-24" font-family="Helvetica,sans-Serif" font-size="10.00">+ setPosition()</text>
<text text-anchor="start" x="497" y="-13" font-family="Helvetica,sans-Serif" font-size="10.00">+ ~SensorPointwise()</text>
</a>
</g>
</g>
<!-- Node6&#45;&gt;Node8 -->
<g id="edge7" class="edge">
<title>Node6&#45;&gt;Node8</title>
<path fill="none" stroke="midnightblue" d="M551,-161.03C551,-150.41 551,-139.54 551,-129.16"/>
<polygon fill="none" stroke="midnightblue" points="547.5,-161.12 551,-171.12 554.5,-161.12 547.5,-161.12"/>
</g>
<!-- Node9 -->
<g id="node9" class="node">
<title>Node9</title>
<g id="a_node9"><a xlink:href="classFeel_1_1SensorSurface.html" target="_top" xlink:title="surface type sensor">
<polygon fill="white" stroke="black" points="631.5,-0.5 631.5,-134.5 744.5,-134.5 744.5,-0.5 631.5,-0.5"/>
<text text-anchor="start" x="639.5" y="-122.5" font-family="Helvetica,sans-Serif" font-size="10.00">Feel::SensorSurface</text>
<text text-anchor="middle" x="688" y="-111.5" font-family="Helvetica,sans-Serif" font-size="10.00">&lt; Space &gt;</text>
<polyline fill="none" stroke="black" points="631.5,-104.5 744.5,-104.5 "/>
<text text-anchor="start" x="639.5" y="-92.5" font-family="Helvetica,sans-Serif" font-size="10.00">+ nDim</text>
<polyline fill="none" stroke="black" points="631.5,-85.5 744.5,-85.5 "/>
<text text-anchor="start" x="639.5" y="-73.5" font-family="Helvetica,sans-Serif" font-size="10.00">+ init()</text>
<text text-anchor="start" x="639.5" y="-62.5" font-family="Helvetica,sans-Serif" font-size="10.00">+ markers()</text>
<text text-anchor="start" x="639.5" y="-51.5" font-family="Helvetica,sans-Serif" font-size="10.00">+ SensorSurface()</text>
<text text-anchor="start" x="639.5" y="-40.5" font-family="Helvetica,sans-Serif" font-size="10.00">+ SensorSurface()</text>
<text text-anchor="start" x="639.5" y="-29.5" font-family="Helvetica,sans-Serif" font-size="10.00">+ setMarkers()</text>
<text text-anchor="start" x="639.5" y="-18.5" font-family="Helvetica,sans-Serif" font-size="10.00">+ to_json()</text>
<text text-anchor="start" x="639.5" y="-7.5" font-family="Helvetica,sans-Serif" font-size="10.00">+ ~SensorSurface()</text>
</a>
</g>
</g>
<!-- Node6&#45;&gt;Node9 -->
<g id="edge8" class="edge">
<title>Node6&#45;&gt;Node9</title>
<path fill="none" stroke="midnightblue" d="M608.62,-163.23C616.55,-153.77 624.68,-144.06 632.58,-134.64"/>
<polygon fill="none" stroke="midnightblue" points="605.75,-161.21 602.01,-171.12 611.12,-165.7 605.75,-161.21"/>
</g>
</g>
</svg>
