<?xml version="1.0" encoding="UTF-8" standalone="no"?>
<!DOCTYPE svg PUBLIC "-//W3C//DTD SVG 1.1//EN"
 "http://www.w3.org/Graphics/SVG/1.1/DTD/svg11.dtd">
<!-- Generated by graphviz version 2.43.0 (0)
 -->
<!-- Title: nlohmann::detail::exception Pages: 1 -->
<svg width="235pt" height="215pt"
 viewBox="0.00 0.00 234.50 215.00" xmlns="http://www.w3.org/2000/svg" xmlns:xlink="http://www.w3.org/1999/xlink">
<g id="graph0" class="graph" transform="scale(1 1) rotate(0) translate(4 211)">
<title>nlohmann::detail::exception</title>
<polygon fill="white" stroke="transparent" points="-4,4 -4,-211 230.5,-211 230.5,4 -4,4"/>
<!-- Node1 -->
<g id="node1" class="node">
<title>Node1</title>
<g id="a_node1"><a xlink:title="general exception of the basic_json class">
<polygon fill="#bfbfbf" stroke="black" points="42.5,-0.5 42.5,-101.5 195.5,-101.5 195.5,-0.5 42.5,-0.5"/>
<text text-anchor="middle" x="119" y="-89.5" font-family="Helvetica,sans-Serif" font-size="10.00">nlohmann::detail::exception</text>
<polyline fill="none" stroke="black" points="42.5,-82.5 195.5,-82.5 "/>
<text text-anchor="middle" x="119" y="-70.5" font-family="Helvetica,sans-Serif" font-size="10.00"> </text>
<polyline fill="none" stroke="black" points="42.5,-63.5 195.5,-63.5 "/>
<text text-anchor="start" x="50.5" y="-51.5" font-family="Helvetica,sans-Serif" font-size="10.00">+ what()</text>
<text text-anchor="start" x="50.5" y="-40.5" font-family="Helvetica,sans-Serif" font-size="10.00"># __attribute__()</text>
<text text-anchor="start" x="50.5" y="-29.5" font-family="Helvetica,sans-Serif" font-size="10.00"># m()</text>
<text text-anchor="start" x="50.5" y="-18.5" font-family="Helvetica,sans-Serif" font-size="10.00"># diagnostics()</text>
<text text-anchor="start" x="50.5" y="-7.5" font-family="Helvetica,sans-Serif" font-size="10.00"># name()</text>
</a>
</g>
</g>
<!-- Node2 -->
<g id="node2" class="node">
<title>Node2</title>
<g id="a_node2"><a xlink:title=" ">
<polygon fill="white" stroke="black" points="0,-149.5 0,-206.5 86,-206.5 86,-149.5 0,-149.5"/>
<text text-anchor="middle" x="43" y="-194.5" font-family="Helvetica,sans-Serif" font-size="10.00">std::exception</text>
<polyline fill="none" stroke="black" points="0,-187.5 86,-187.5 "/>
<text text-anchor="middle" x="43" y="-175.5" font-family="Helvetica,sans-Serif" font-size="10.00"> </text>
<polyline fill="none" stroke="black" points="0,-168.5 86,-168.5 "/>
<text text-anchor="middle" x="43" y="-156.5" font-family="Helvetica,sans-Serif" font-size="10.00"> </text>
</a>
</g>
</g>
<!-- Node2&#45;&gt;Node1 -->
<g id="edge1" class="edge">
<title>Node2&#45;&gt;Node1</title>
<path fill="none" stroke="midnightblue" d="M65.27,-140.37C72.6,-128.31 80.89,-114.68 88.72,-101.8"/>
<polygon fill="none" stroke="midnightblue" points="62.07,-138.9 59.87,-149.26 68.05,-142.53 62.07,-138.9"/>
</g>
<!-- Node3 -->
<g id="node3" class="node">
<title>Node3</title>
<g id="a_node3"><a xlink:href="classint.html" target="_top" xlink:title=" ">
<polygon fill="white" stroke="#bfbfbf" points="104.5,-149.5 104.5,-206.5 133.5,-206.5 133.5,-149.5 104.5,-149.5"/>
<text text-anchor="middle" x="119" y="-194.5" font-family="Helvetica,sans-Serif" font-size="10.00">int</text>
<polyline fill="none" stroke="#bfbfbf" points="104.5,-187.5 133.5,-187.5 "/>
<text text-anchor="middle" x="119" y="-175.5" font-family="Helvetica,sans-Serif" font-size="10.00"> </text>
<polyline fill="none" stroke="#bfbfbf" points="104.5,-168.5 133.5,-168.5 "/>
<text text-anchor="middle" x="119" y="-156.5" font-family="Helvetica,sans-Serif" font-size="10.00"> </text>
</a>
</g>
</g>
<!-- Node3&#45;&gt;Node1 -->
<g id="edge2" class="edge">
<title>Node3&#45;&gt;Node1</title>
<path fill="none" stroke="#404040" d="M119,-149.26C119,-138.79 119,-126.42 119,-114.07"/>
<polygon fill="none" stroke="#404040" points="119,-113.8 115,-107.8 119,-101.8 123,-107.8 119,-113.8"/>
<text text-anchor="middle" x="129.5" y="-123" font-family="Helvetica,sans-Serif" font-size="10.00"> +id</text>
</g>
<!-- Node4 -->
<g id="node4" class="node">
<title>Node4</title>
<g id="a_node4"><a xlink:title=" ">
<polygon fill="white" stroke="#bfbfbf" points="151.5,-149.5 151.5,-206.5 226.5,-206.5 226.5,-149.5 151.5,-149.5"/>
<text text-anchor="middle" x="189" y="-194.5" font-family="Helvetica,sans-Serif" font-size="10.00">const char *</text>
<polyline fill="none" stroke="#bfbfbf" points="151.5,-187.5 226.5,-187.5 "/>
<text text-anchor="middle" x="189" y="-175.5" font-family="Helvetica,sans-Serif" font-size="10.00"> </text>
<polyline fill="none" stroke="#bfbfbf" points="151.5,-168.5 226.5,-168.5 "/>
<text text-anchor="middle" x="189" y="-156.5" font-family="Helvetica,sans-Serif" font-size="10.00"> </text>
</a>
</g>
</g>
<!-- Node4&#45;&gt;Node1 -->
<g id="edge3" class="edge">
<title>Node4&#45;&gt;Node1</title>
<path fill="none" stroke="#404040" d="M173.46,-149.26C167.36,-138.36 160.1,-125.39 152.9,-112.53"/>
<polygon fill="none" stroke="#404040" points="152.75,-112.27 146.33,-108.99 146.89,-101.8 153.31,-105.08 152.75,-112.27"/>
<text text-anchor="middle" x="190.5" y="-123" font-family="Helvetica,sans-Serif" font-size="10.00"> #what_arg</text>
</g>
</g>
</svg>
