<?xml version="1.0" encoding="UTF-8" standalone="no"?>
<!DOCTYPE svg PUBLIC "-//W3C//DTD SVG 1.1//EN"
 "http://www.w3.org/Graphics/SVG/1.1/DTD/svg11.dtd">
<!-- Generated by graphviz version 2.43.0 (0)
 -->
<!-- Title: Feel::FeelModels::FluidMechanics&lt; ConvexType, BasisVelocityType, BasisPressureType &gt;::Body Pages: 1 -->
<svg width="226pt" height="270pt"
 viewBox="0.00 0.00 226.00 270.00" xmlns="http://www.w3.org/2000/svg" xmlns:xlink="http://www.w3.org/1999/xlink">
<g id="graph0" class="graph" transform="scale(1 1) rotate(0) translate(4 266)">
<title>Feel::FeelModels::FluidMechanics&lt; ConvexType, BasisVelocityType, BasisPressureType &gt;::Body</title>
<polygon fill="white" stroke="transparent" points="-4,4 -4,-266 222,-266 222,4 -4,4"/>
<!-- Node1 -->
<g id="node1" class="node">
<title>Node1</title>
<g id="a_node1"><a xlink:title="Body base class.">
<polygon fill="#bfbfbf" stroke="black" points="0,-0.5 0,-156.5 218,-156.5 218,-0.5 0,-0.5"/>
<text text-anchor="start" x="8" y="-144.5" font-family="Helvetica,sans-Serif" font-size="10.00">Feel::FeelModels::FluidMechanics</text>
<text text-anchor="start" x="8" y="-133.5" font-family="Helvetica,sans-Serif" font-size="10.00">&lt; ConvexType, BasisVelocityType,</text>
<text text-anchor="middle" x="109" y="-122.5" font-family="Helvetica,sans-Serif" font-size="10.00"> BasisPressureType &gt;::Body</text>
<polyline fill="none" stroke="black" points="0,-115.5 218,-115.5 "/>
<text text-anchor="middle" x="109" y="-103.5" font-family="Helvetica,sans-Serif" font-size="10.00"> </text>
<polyline fill="none" stroke="black" points="0,-96.5 218,-96.5 "/>
<text text-anchor="start" x="8" y="-84.5" font-family="Helvetica,sans-Serif" font-size="10.00">+ addRigidTranslationToCurrent</text>
<text text-anchor="start" x="8" y="-73.5" font-family="Helvetica,sans-Serif" font-size="10.00">Displacement()</text>
<text text-anchor="start" x="8" y="-62.5" font-family="Helvetica,sans-Serif" font-size="10.00">+ applyRemesh()</text>
<text text-anchor="start" x="8" y="-51.5" font-family="Helvetica,sans-Serif" font-size="10.00">+ applyRotationToCurrentDisplacement()</text>
<text text-anchor="start" x="8" y="-40.5" font-family="Helvetica,sans-Serif" font-size="10.00">+ Body()</text>
<text text-anchor="start" x="8" y="-29.5" font-family="Helvetica,sans-Serif" font-size="10.00">+ Body()</text>
<text text-anchor="start" x="8" y="-18.5" font-family="Helvetica,sans-Serif" font-size="10.00">and 47 more...</text>
<text text-anchor="start" x="8" y="-7.5" font-family="Helvetica,sans-Serif" font-size="10.00">+ rigidRotationMatrix()</text>
</a>
</g>
</g>
<!-- Node2 -->
<g id="node2" class="node">
<title>Node2</title>
<g id="a_node2"><a xlink:href="classint.html" target="_top" xlink:title=" ">
<polygon fill="white" stroke="#bfbfbf" points="94.5,-204.5 94.5,-261.5 123.5,-261.5 123.5,-204.5 94.5,-204.5"/>
<text text-anchor="middle" x="109" y="-249.5" font-family="Helvetica,sans-Serif" font-size="10.00">int</text>
<polyline fill="none" stroke="#bfbfbf" points="94.5,-242.5 123.5,-242.5 "/>
<text text-anchor="middle" x="109" y="-230.5" font-family="Helvetica,sans-Serif" font-size="10.00"> </text>
<polyline fill="none" stroke="#bfbfbf" points="94.5,-223.5 123.5,-223.5 "/>
<text text-anchor="middle" x="109" y="-211.5" font-family="Helvetica,sans-Serif" font-size="10.00"> </text>
</a>
</g>
</g>
<!-- Node2&#45;&gt;Node1 -->
<g id="edge1" class="edge">
<title>Node2&#45;&gt;Node1</title>
<path fill="none" stroke="#404040" d="M109,-204.38C109,-194.11 109,-181.81 109,-168.99"/>
<polygon fill="none" stroke="#404040" points="109,-168.6 105,-162.6 109,-156.6 113,-162.6 109,-168.6"/>
<text text-anchor="middle" x="148.5" y="-178" font-family="Helvetica,sans-Serif" font-size="10.00"> +nDimRotation</text>
</g>
</g>
</svg>
