<?xml version="1.0" encoding="UTF-8" standalone="no"?>
<!DOCTYPE svg PUBLIC "-//W3C//DTD SVG 1.1//EN"
 "http://www.w3.org/Graphics/SVG/1.1/DTD/svg11.dtd">
<!-- Generated by graphviz version 2.43.0 (0)
 -->
<!-- Title: Feel::FeelModels::ElectricBoundaryConditions::Ground Pages: 1 -->
<svg width="625pt" height="1184pt"
 viewBox="0.00 0.00 624.99 1184.00" xmlns="http://www.w3.org/2000/svg" xmlns:xlink="http://www.w3.org/1999/xlink">
<g id="graph0" class="graph" transform="scale(1 1) rotate(0) translate(4 1180)">
<title>Feel::FeelModels::ElectricBoundaryConditions::Ground</title>
<polygon fill="white" stroke="transparent" points="-4,4 -4,-1180 620.99,-1180 620.99,4 -4,4"/>
<!-- Node1 -->
<g id="node1" class="node">
<title>Node1</title>
<g id="a_node1"><a xlink:title=" ">
<polygon fill="#bfbfbf" stroke="black" points="274.49,-0.5 274.49,-134.5 416.49,-134.5 416.49,-0.5 274.49,-0.5"/>
<text text-anchor="start" x="282.49" y="-122.5" font-family="Helvetica,sans-Serif" font-size="10.00">Feel::FeelModels::Electric</text>
<text text-anchor="middle" x="345.49" y="-111.5" font-family="Helvetica,sans-Serif" font-size="10.00">BoundaryConditions::Ground</text>
<polyline fill="none" stroke="black" points="274.49,-104.5 416.49,-104.5 "/>
<text text-anchor="middle" x="345.49" y="-92.5" font-family="Helvetica,sans-Serif" font-size="10.00"> </text>
<polyline fill="none" stroke="black" points="274.49,-85.5 416.49,-85.5 "/>
<text text-anchor="start" x="282.49" y="-73.5" font-family="Helvetica,sans-Serif" font-size="10.00">+ Ground()</text>
<text text-anchor="start" x="282.49" y="-62.5" font-family="Helvetica,sans-Serif" font-size="10.00">+ Ground()</text>
<text text-anchor="start" x="282.49" y="-51.5" font-family="Helvetica,sans-Serif" font-size="10.00">+ Ground()</text>
<text text-anchor="start" x="282.49" y="-40.5" font-family="Helvetica,sans-Serif" font-size="10.00">+ setup()</text>
<text text-anchor="start" x="282.49" y="-29.5" font-family="Helvetica,sans-Serif" font-size="10.00">+ type()</text>
<text text-anchor="start" x="282.49" y="-18.5" font-family="Helvetica,sans-Serif" font-size="10.00">+ updateInformationObject()</text>
<text text-anchor="start" x="282.49" y="-7.5" font-family="Helvetica,sans-Serif" font-size="10.00">+ tabulateInformations()</text>
</a>
</g>
</g>
<!-- Node2 -->
<g id="node2" class="node">
<title>Node2</title>
<g id="a_node2"><a xlink:href="classFeel_1_1FeelModels_1_1ElectricBoundaryConditions_1_1ElectricPotentialImposed.html" target="_top" xlink:title=" ">
<polygon fill="white" stroke="#bfbfbf" points="254.49,-172.5 254.49,-284.5 436.49,-284.5 436.49,-172.5 254.49,-172.5"/>
<text text-anchor="start" x="262.49" y="-272.5" font-family="Helvetica,sans-Serif" font-size="10.00">Feel::FeelModels::Electric</text>
<text text-anchor="start" x="262.49" y="-261.5" font-family="Helvetica,sans-Serif" font-size="10.00">BoundaryConditions::ElectricPotential</text>
<text text-anchor="middle" x="345.49" y="-250.5" font-family="Helvetica,sans-Serif" font-size="10.00">Imposed</text>
<polyline fill="none" stroke="#bfbfbf" points="254.49,-243.5 436.49,-243.5 "/>
<text text-anchor="middle" x="345.49" y="-231.5" font-family="Helvetica,sans-Serif" font-size="10.00"> </text>
<polyline fill="none" stroke="#bfbfbf" points="254.49,-224.5 436.49,-224.5 "/>
<text text-anchor="start" x="262.49" y="-212.5" font-family="Helvetica,sans-Serif" font-size="10.00">+ ElectricPotentialImposed()</text>
<text text-anchor="start" x="262.49" y="-201.5" font-family="Helvetica,sans-Serif" font-size="10.00">+ ElectricPotentialImposed()</text>
<text text-anchor="start" x="262.49" y="-190.5" font-family="Helvetica,sans-Serif" font-size="10.00">+ ElectricPotentialImposed()</text>
<text text-anchor="start" x="262.49" y="-179.5" font-family="Helvetica,sans-Serif" font-size="10.00">+ type()</text>
</a>
</g>
</g>
<!-- Node2&#45;&gt;Node1 -->
<g id="edge1" class="edge">
<title>Node2&#45;&gt;Node1</title>
<path fill="none" stroke="midnightblue" d="M345.49,-162.17C345.49,-153.04 345.49,-143.65 345.49,-134.51"/>
<polygon fill="none" stroke="midnightblue" points="341.99,-162.34 345.49,-172.34 348.99,-162.34 341.99,-162.34"/>
</g>
<!-- Node3 -->
<g id="node3" class="node">
<title>Node3</title>
<g id="a_node3"><a xlink:href="classFeel_1_1FeelModels_1_1GenericDirichletBoundaryCondition.html" target="_top" xlink:title=" ">
<polygon fill="white" stroke="#bfbfbf" points="272.99,-322.5 272.99,-478.5 417.99,-478.5 417.99,-322.5 272.99,-322.5"/>
<text text-anchor="start" x="280.99" y="-466.5" font-family="Helvetica,sans-Serif" font-size="10.00">Feel::FeelModels::Generic</text>
<text text-anchor="start" x="280.99" y="-455.5" font-family="Helvetica,sans-Serif" font-size="10.00">DirichletBoundaryCondition</text>
<text text-anchor="middle" x="345.49" y="-444.5" font-family="Helvetica,sans-Serif" font-size="10.00">&lt; 1, 1 &gt;</text>
<polyline fill="none" stroke="#bfbfbf" points="272.99,-437.5 417.99,-437.5 "/>
<text text-anchor="middle" x="345.49" y="-425.5" font-family="Helvetica,sans-Serif" font-size="10.00"> </text>
<polyline fill="none" stroke="#bfbfbf" points="272.99,-418.5 417.99,-418.5 "/>
<text text-anchor="start" x="280.99" y="-406.5" font-family="Helvetica,sans-Serif" font-size="10.00">+ applyDofEliminationLinear()</text>
<text text-anchor="start" x="280.99" y="-395.5" font-family="Helvetica,sans-Serif" font-size="10.00">+ applyNewtonInitialGuess()</text>
<text text-anchor="start" x="280.99" y="-384.5" font-family="Helvetica,sans-Serif" font-size="10.00">+ expr()</text>
<text text-anchor="start" x="280.99" y="-373.5" font-family="Helvetica,sans-Serif" font-size="10.00">+ exprComponent()</text>
<text text-anchor="start" x="280.99" y="-362.5" font-family="Helvetica,sans-Serif" font-size="10.00">+ GenericDirichletBoundary</text>
<text text-anchor="start" x="280.99" y="-351.5" font-family="Helvetica,sans-Serif" font-size="10.00">Condition()</text>
<text text-anchor="start" x="280.99" y="-340.5" font-family="Helvetica,sans-Serif" font-size="10.00">and 12 more...</text>
<text text-anchor="start" x="280.99" y="-329.5" font-family="Helvetica,sans-Serif" font-size="10.00">+ tabulateInformations()</text>
</a>
</g>
</g>
<!-- Node3&#45;&gt;Node2 -->
<g id="edge2" class="edge">
<title>Node3&#45;&gt;Node2</title>
<path fill="none" stroke="midnightblue" d="M345.49,-312.35C345.49,-303.02 345.49,-293.73 345.49,-284.93"/>
<polygon fill="none" stroke="midnightblue" points="341.99,-312.46 345.49,-322.46 348.99,-312.46 341.99,-312.46"/>
</g>
<!-- Node4 -->
<g id="node4" class="node">
<title>Node4</title>
<g id="a_node4"><a xlink:title=" ">
<polygon fill="white" stroke="black" points="31.49,-670 31.49,-727 91.49,-727 91.49,-670 31.49,-670"/>
<text text-anchor="middle" x="61.49" y="-715" font-family="Helvetica,sans-Serif" font-size="10.00">std::string</text>
<polyline fill="none" stroke="black" points="31.49,-708 91.49,-708 "/>
<text text-anchor="middle" x="61.49" y="-696" font-family="Helvetica,sans-Serif" font-size="10.00"> </text>
<polyline fill="none" stroke="black" points="31.49,-689 91.49,-689 "/>
<text text-anchor="middle" x="61.49" y="-677" font-family="Helvetica,sans-Serif" font-size="10.00"> </text>
</a>
</g>
</g>
<!-- Node4&#45;&gt;Node3 -->
<g id="edge3" class="edge">
<title>Node4&#45;&gt;Node3</title>
<path fill="none" stroke="#404040" d="M40.39,-669.92C15.65,-633.95 -18.31,-570.4 12.49,-526 68.01,-445.97 181.62,-417.3 260.61,-407.08"/>
<polygon fill="none" stroke="#404040" points="261.06,-407.02 266.54,-402.33 272.97,-405.59 267.49,-410.28 261.06,-407.02"/>
<text text-anchor="middle" x="35.49" y="-558" font-family="Helvetica,sans-Serif" font-size="10.00"> #M_name</text>
</g>
<!-- Node12 -->
<g id="node12" class="node">
<title>Node12</title>
<g id="a_node12"><a xlink:title=" ">
<polygon fill="white" stroke="black" points="67.99,-532 67.99,-589 178.99,-589 178.99,-532 67.99,-532"/>
<text text-anchor="middle" x="123.49" y="-577" font-family="Helvetica,sans-Serif" font-size="10.00">std::set&lt; std::string &gt;</text>
<polyline fill="none" stroke="black" points="67.99,-570 178.99,-570 "/>
<text text-anchor="middle" x="123.49" y="-558" font-family="Helvetica,sans-Serif" font-size="10.00"> </text>
<polyline fill="none" stroke="black" points="67.99,-551 178.99,-551 "/>
<text text-anchor="middle" x="123.49" y="-539" font-family="Helvetica,sans-Serif" font-size="10.00"> </text>
</a>
</g>
</g>
<!-- Node4&#45;&gt;Node12 -->
<g id="edge12" class="edge">
<title>Node4&#45;&gt;Node12</title>
<path fill="none" stroke="#404040" d="M74.04,-669.98C83.14,-650.02 95.58,-622.74 105.7,-600.53"/>
<polygon fill="none" stroke="#404040" points="105.78,-600.37 104.63,-593.25 110.75,-589.45 111.9,-596.57 105.78,-600.37"/>
<text text-anchor="middle" x="115.99" y="-616" font-family="Helvetica,sans-Serif" font-size="10.00"> +keys</text>
</g>
<!-- Node5 -->
<g id="node5" class="node">
<title>Node5</title>
<g id="a_node5"><a xlink:title=" ">
<polygon fill="white" stroke="black" points="13.99,-902.5 13.99,-970.5 108.99,-970.5 108.99,-902.5 13.99,-902.5"/>
<text text-anchor="start" x="21.99" y="-958.5" font-family="Helvetica,sans-Serif" font-size="10.00">std::basic_string&lt;</text>
<text text-anchor="middle" x="61.49" y="-947.5" font-family="Helvetica,sans-Serif" font-size="10.00"> Char &gt;</text>
<polyline fill="none" stroke="black" points="13.99,-940.5 108.99,-940.5 "/>
<text text-anchor="middle" x="61.49" y="-928.5" font-family="Helvetica,sans-Serif" font-size="10.00"> </text>
<polyline fill="none" stroke="black" points="13.99,-921.5 108.99,-921.5 "/>
<text text-anchor="middle" x="61.49" y="-909.5" font-family="Helvetica,sans-Serif" font-size="10.00"> </text>
</a>
</g>
</g>
<!-- Node5&#45;&gt;Node4 -->
<g id="edge4" class="edge">
<title>Node5&#45;&gt;Node4</title>
<path fill="none" stroke="midnightblue" d="M61.49,-892.33C61.49,-844.23 61.49,-767.89 61.49,-727.19"/>
<polygon fill="none" stroke="midnightblue" points="57.99,-892.44 61.49,-902.44 64.99,-892.44 57.99,-892.44"/>
</g>
<!-- Node6 -->
<g id="node6" class="node">
<title>Node6</title>
<g id="a_node6"><a xlink:title=" ">
<polygon fill="white" stroke="black" points="196.99,-526.5 196.99,-594.5 333.99,-594.5 333.99,-526.5 196.99,-526.5"/>
<text text-anchor="start" x="204.99" y="-582.5" font-family="Helvetica,sans-Serif" font-size="10.00">std::weak_ptr&lt; Feel</text>
<text text-anchor="middle" x="265.49" y="-571.5" font-family="Helvetica,sans-Serif" font-size="10.00">::FeelModels::ModelBase &gt;</text>
<polyline fill="none" stroke="black" points="196.99,-564.5 333.99,-564.5 "/>
<text text-anchor="middle" x="265.49" y="-552.5" font-family="Helvetica,sans-Serif" font-size="10.00"> </text>
<polyline fill="none" stroke="black" points="196.99,-545.5 333.99,-545.5 "/>
<text text-anchor="start" x="204.99" y="-533.5" font-family="Helvetica,sans-Serif" font-size="10.00">+ operator&#45;&gt;()</text>
</a>
</g>
</g>
<!-- Node6&#45;&gt;Node3 -->
<g id="edge5" class="edge">
<title>Node6&#45;&gt;Node3</title>
<path fill="none" stroke="#404040" d="M278.39,-526.41C282.36,-516.82 286.9,-506.4 291.49,-497 292.68,-494.57 293.91,-492.11 295.16,-489.64"/>
<polygon fill="none" stroke="#404040" points="295.28,-489.4 294.48,-482.23 300.79,-478.74 301.59,-485.91 295.28,-489.4"/>
<text text-anchor="middle" x="332.49" y="-500" font-family="Helvetica,sans-Serif" font-size="10.00"> #M_toolboxParent</text>
</g>
<!-- Node7 -->
<g id="node7" class="node">
<title>Node7</title>
<g id="a_node7"><a xlink:href="classFeel_1_1FeelModels_1_1ModelBase.html" target="_top" xlink:title="Model base class.">
<polygon fill="white" stroke="black" points="179.99,-642.5 179.99,-754.5 350.99,-754.5 350.99,-642.5 179.99,-642.5"/>
<text text-anchor="middle" x="265.49" y="-742.5" font-family="Helvetica,sans-Serif" font-size="10.00">Feel::FeelModels::ModelBase</text>
<polyline fill="none" stroke="black" points="179.99,-735.5 350.99,-735.5 "/>
<text text-anchor="middle" x="265.49" y="-723.5" font-family="Helvetica,sans-Serif" font-size="10.00"> </text>
<polyline fill="none" stroke="black" points="179.99,-716.5 350.99,-716.5 "/>
<text text-anchor="start" x="187.99" y="-704.5" font-family="Helvetica,sans-Serif" font-size="10.00">+ addParameterInModelProperties()</text>
<text text-anchor="start" x="187.99" y="-693.5" font-family="Helvetica,sans-Serif" font-size="10.00">+ addTimerTool()</text>
<text text-anchor="start" x="187.99" y="-682.5" font-family="Helvetica,sans-Serif" font-size="10.00">+ clovm()</text>
<text text-anchor="start" x="187.99" y="-671.5" font-family="Helvetica,sans-Serif" font-size="10.00">+ createWorldsComm()</text>
<text text-anchor="start" x="187.99" y="-660.5" font-family="Helvetica,sans-Serif" font-size="10.00">+ hasModelProperties()</text>
<text text-anchor="start" x="187.99" y="-649.5" font-family="Helvetica,sans-Serif" font-size="10.00">and 54 more...</text>
</a>
</g>
</g>
<!-- Node7&#45;&gt;Node6 -->
<g id="edge6" class="edge">
<title>Node7&#45;&gt;Node6</title>
<path fill="none" stroke="#404040" d="M265.49,-642.18C265.49,-630.43 265.49,-618.15 265.49,-606.82"/>
<polygon fill="none" stroke="#404040" points="265.49,-606.51 261.49,-600.51 265.49,-594.51 269.49,-600.51 265.49,-606.51"/>
<text text-anchor="middle" x="275.99" y="-616" font-family="Helvetica,sans-Serif" font-size="10.00"> +ptr</text>
</g>
<!-- Node8 -->
<g id="node8" class="node">
<title>Node8</title>
<g id="a_node8"><a xlink:href="classFeel_1_1JournalWatcher.html" target="_top" xlink:title=" ">
<polygon fill="white" stroke="#bfbfbf" points="156.49,-792.5 156.49,-1080.5 314.49,-1080.5 314.49,-792.5 156.49,-792.5"/>
<text text-anchor="middle" x="235.49" y="-1068.5" font-family="Helvetica,sans-Serif" font-size="10.00">Feel::JournalWatcher</text>
<polyline fill="none" stroke="#bfbfbf" points="156.49,-1061.5 314.49,-1061.5 "/>
<text text-anchor="middle" x="235.49" y="-1049.5" font-family="Helvetica,sans-Serif" font-size="10.00"> </text>
<polyline fill="none" stroke="#bfbfbf" points="156.49,-1042.5 314.49,-1042.5 "/>
<text text-anchor="start" x="164.49" y="-1030.5" font-family="Helvetica,sans-Serif" font-size="10.00">* M_journal_is_connected</text>
<text text-anchor="start" x="164.49" y="-1019.5" font-family="Helvetica,sans-Serif" font-size="10.00">* M_category</text>
<text text-anchor="start" x="164.49" y="-1008.5" font-family="Helvetica,sans-Serif" font-size="10.00">* M_name</text>
<text text-anchor="start" x="164.49" y="-997.5" font-family="Helvetica,sans-Serif" font-size="10.00">* M_function_updateInformation</text>
<text text-anchor="start" x="164.49" y="-986.5" font-family="Helvetica,sans-Serif" font-size="10.00">Object</text>
<text text-anchor="start" x="164.49" y="-975.5" font-family="Helvetica,sans-Serif" font-size="10.00">* M_informationObject</text>
<text text-anchor="start" x="164.49" y="-964.5" font-family="Helvetica,sans-Serif" font-size="10.00">* S_counterObjectByCategory</text>
<text text-anchor="start" x="164.49" y="-953.5" font-family="Helvetica,sans-Serif" font-size="10.00">* JournalWatcher()</text>
<text text-anchor="start" x="164.49" y="-942.5" font-family="Helvetica,sans-Serif" font-size="10.00">* JournalWatcher()</text>
<text text-anchor="start" x="164.49" y="-931.5" font-family="Helvetica,sans-Serif" font-size="10.00">* JournalWatcher()</text>
<text text-anchor="start" x="164.49" y="-920.5" font-family="Helvetica,sans-Serif" font-size="10.00">* JournalWatcher()</text>
<text text-anchor="start" x="164.49" y="-909.5" font-family="Helvetica,sans-Serif" font-size="10.00">* ~JournalWatcher()</text>
<text text-anchor="start" x="164.49" y="-898.5" font-family="Helvetica,sans-Serif" font-size="10.00">* journalIsConnected()</text>
<text text-anchor="start" x="164.49" y="-887.5" font-family="Helvetica,sans-Serif" font-size="10.00">* journalWatcherInstanceName()</text>
<text text-anchor="start" x="164.49" y="-876.5" font-family="Helvetica,sans-Serif" font-size="10.00">* journalSection()</text>
<text text-anchor="start" x="164.49" y="-865.5" font-family="Helvetica,sans-Serif" font-size="10.00">* informationObject()</text>
<text text-anchor="start" x="164.49" y="-854.5" font-family="Helvetica,sans-Serif" font-size="10.00">* journalConnect()</text>
<text text-anchor="start" x="164.49" y="-843.5" font-family="Helvetica,sans-Serif" font-size="10.00">* journalDisconnect()</text>
<text text-anchor="start" x="164.49" y="-832.5" font-family="Helvetica,sans-Serif" font-size="10.00">* updateInformationObject()</text>
<text text-anchor="start" x="164.49" y="-821.5" font-family="Helvetica,sans-Serif" font-size="10.00">* setInformationObject()</text>
<text text-anchor="start" x="164.49" y="-810.5" font-family="Helvetica,sans-Serif" font-size="10.00">* putInformationObject()</text>
<text text-anchor="start" x="164.49" y="-799.5" font-family="Helvetica,sans-Serif" font-size="10.00">and 4 more...</text>
</a>
</g>
</g>
<!-- Node8&#45;&gt;Node7 -->
<g id="edge7" class="edge">
<title>Node8&#45;&gt;Node7</title>
<path fill="none" stroke="midnightblue" d="M254.97,-782.28C256.2,-772.64 257.38,-763.35 258.48,-754.69"/>
<polygon fill="none" stroke="midnightblue" points="251.47,-782.07 253.68,-792.43 258.41,-782.96 251.47,-782.07"/>
</g>
<!-- Node9 -->
<g id="node9" class="node">
<title>Node9</title>
<g id="a_node9"><a xlink:title=" ">
<polygon fill="white" stroke="#bfbfbf" points="185.99,-1118.5 185.99,-1175.5 284.99,-1175.5 284.99,-1118.5 185.99,-1118.5"/>
<text text-anchor="middle" x="235.49" y="-1163.5" font-family="Helvetica,sans-Serif" font-size="10.00">Event::SlotHandler</text>
<polyline fill="none" stroke="#bfbfbf" points="185.99,-1156.5 284.99,-1156.5 "/>
<text text-anchor="middle" x="235.49" y="-1144.5" font-family="Helvetica,sans-Serif" font-size="10.00"> </text>
<polyline fill="none" stroke="#bfbfbf" points="185.99,-1137.5 284.99,-1137.5 "/>
<text text-anchor="middle" x="235.49" y="-1125.5" font-family="Helvetica,sans-Serif" font-size="10.00"> </text>
</a>
</g>
</g>
<!-- Node9&#45;&gt;Node8 -->
<g id="edge8" class="edge">
<title>Node9&#45;&gt;Node8</title>
<path fill="none" stroke="midnightblue" d="M235.49,-1108.25C235.49,-1099.86 235.49,-1090.49 235.49,-1080.57"/>
<polygon fill="none" stroke="midnightblue" points="231.99,-1108.31 235.49,-1118.31 238.99,-1108.31 231.99,-1108.31"/>
</g>
<!-- Node10 -->
<g id="node10" class="node">
<title>Node10</title>
<g id="a_node10"><a xlink:title=" ">
<polygon fill="white" stroke="#bfbfbf" points="332.99,-902.5 332.99,-970.5 461.99,-970.5 461.99,-902.5 332.99,-902.5"/>
<text text-anchor="start" x="340.99" y="-958.5" font-family="Helvetica,sans-Serif" font-size="10.00">std::enable_shared</text>
<text text-anchor="middle" x="397.49" y="-947.5" font-family="Helvetica,sans-Serif" font-size="10.00">_from_this&lt; ModelBase &gt;</text>
<polyline fill="none" stroke="#bfbfbf" points="332.99,-940.5 461.99,-940.5 "/>
<text text-anchor="middle" x="397.49" y="-928.5" font-family="Helvetica,sans-Serif" font-size="10.00"> </text>
<polyline fill="none" stroke="#bfbfbf" points="332.99,-921.5 461.99,-921.5 "/>
<text text-anchor="middle" x="397.49" y="-909.5" font-family="Helvetica,sans-Serif" font-size="10.00"> </text>
</a>
</g>
</g>
<!-- Node10&#45;&gt;Node7 -->
<g id="edge9" class="edge">
<title>Node10&#45;&gt;Node7</title>
<path fill="none" stroke="midnightblue" d="M376.91,-893.31C362.54,-864.46 342.6,-825.51 323.49,-792 316.55,-779.81 308.77,-766.94 301.23,-754.8"/>
<polygon fill="none" stroke="midnightblue" points="373.79,-894.9 381.37,-902.31 380.06,-891.8 373.79,-894.9"/>
</g>
<!-- Node11 -->
<g id="node11" class="node">
<title>Node11</title>
<g id="a_node11"><a xlink:title=" ">
<polygon fill="white" stroke="#bfbfbf" points="352.49,-532 352.49,-589 444.49,-589 444.49,-532 352.49,-532"/>
<text text-anchor="middle" x="398.49" y="-577" font-family="Helvetica,sans-Serif" font-size="10.00">ModelExpression</text>
<polyline fill="none" stroke="#bfbfbf" points="352.49,-570 444.49,-570 "/>
<text text-anchor="middle" x="398.49" y="-558" font-family="Helvetica,sans-Serif" font-size="10.00"> </text>
<polyline fill="none" stroke="#bfbfbf" points="352.49,-551 444.49,-551 "/>
<text text-anchor="middle" x="398.49" y="-539" font-family="Helvetica,sans-Serif" font-size="10.00"> </text>
</a>
</g>
</g>
<!-- Node11&#45;&gt;Node3 -->
<g id="edge10" class="edge">
<title>Node11&#45;&gt;Node3</title>
<path fill="none" stroke="#404040" d="M389.26,-531.98C385.27,-520.07 380.35,-505.4 375.26,-490.25"/>
<polygon fill="none" stroke="#404040" points="375.17,-489.97 369.47,-485.56 371.36,-478.6 377.06,-483.01 375.17,-489.97"/>
<text text-anchor="middle" x="403.99" y="-500" font-family="Helvetica,sans-Serif" font-size="10.00"> #M_mexpr</text>
</g>
<!-- Node12&#45;&gt;Node3 -->
<g id="edge11" class="edge">
<title>Node12&#45;&gt;Node3</title>
<path fill="none" stroke="#404040" d="M162.16,-531.98C189.87,-512.26 228.21,-484.97 262.68,-460.44"/>
<polygon fill="none" stroke="#404040" points="262.98,-460.23 265.55,-453.49 272.76,-453.27 270.19,-460.01 262.98,-460.23"/>
<text text-anchor="middle" x="237.49" y="-500" font-family="Helvetica,sans-Serif" font-size="10.00"> #M_markers</text>
</g>
<!-- Node13 -->
<g id="node13" class="node">
<title>Node13</title>
<g id="a_node13"><a xlink:title=" ">
<polygon fill="white" stroke="#bfbfbf" points="462.49,-532 462.49,-589 550.49,-589 550.49,-532 462.49,-532"/>
<text text-anchor="middle" x="506.49" y="-577" font-family="Helvetica,sans-Serif" font-size="10.00">ComponentType</text>
<polyline fill="none" stroke="#bfbfbf" points="462.49,-570 550.49,-570 "/>
<text text-anchor="middle" x="506.49" y="-558" font-family="Helvetica,sans-Serif" font-size="10.00"> </text>
<polyline fill="none" stroke="#bfbfbf" points="462.49,-551 550.49,-551 "/>
<text text-anchor="middle" x="506.49" y="-539" font-family="Helvetica,sans-Serif" font-size="10.00"> </text>
</a>
</g>
</g>
<!-- Node13&#45;&gt;Node3 -->
<g id="edge13" class="edge">
<title>Node13&#45;&gt;Node3</title>
<path fill="none" stroke="#404040" d="M478.45,-531.98C463.98,-517.78 445.52,-499.66 426.98,-481.46"/>
<polygon fill="none" stroke="#404040" points="426.74,-481.23 419.66,-479.89 418.18,-472.83 425.26,-474.18 426.74,-481.23"/>
<text text-anchor="middle" x="472.49" y="-500" font-family="Helvetica,sans-Serif" font-size="10.00"> #M_comp</text>
</g>
<!-- Node14 -->
<g id="node14" class="node">
<title>Node14</title>
<g id="a_node14"><a xlink:title=" ">
<polygon fill="white" stroke="#bfbfbf" points="567.99,-532 567.99,-589 616.99,-589 616.99,-532 567.99,-532"/>
<text text-anchor="middle" x="592.49" y="-577" font-family="Helvetica,sans-Serif" font-size="10.00">Method</text>
<polyline fill="none" stroke="#bfbfbf" points="567.99,-570 616.99,-570 "/>
<text text-anchor="middle" x="592.49" y="-558" font-family="Helvetica,sans-Serif" font-size="10.00"> </text>
<polyline fill="none" stroke="#bfbfbf" points="567.99,-551 616.99,-551 "/>
<text text-anchor="middle" x="592.49" y="-539" font-family="Helvetica,sans-Serif" font-size="10.00"> </text>
</a>
</g>
</g>
<!-- Node14&#45;&gt;Node3 -->
<g id="edge14" class="edge">
<title>Node14&#45;&gt;Node3</title>
<path fill="none" stroke="#404040" d="M567.92,-533.16C565.17,-530.64 562.33,-528.2 559.49,-526 519.13,-494.68 470.1,-465.6 429.17,-443.43"/>
<polygon fill="none" stroke="#404040" points="428.98,-443.33 421.8,-444.02 418.4,-437.66 425.58,-436.97 428.98,-443.33"/>
<text text-anchor="middle" x="558.99" y="-500" font-family="Helvetica,sans-Serif" font-size="10.00"> #M_method</text>
</g>
</g>
</svg>
