<?xml version="1.0" encoding="UTF-8" standalone="no"?>
<!DOCTYPE svg PUBLIC "-//W3C//DTD SVG 1.1//EN"
 "http://www.w3.org/Graphics/SVG/1.1/DTD/svg11.dtd">
<!-- Generated by graphviz version 2.43.0 (0)
 -->
<!-- Title: Feel::FeelModels::CoefficientFormPDE&lt; ConvexType, BasisUnknownType &gt; Pages: 1 -->
<!--zoomable 1521 -->
<svg id="main" version="1.1" xmlns="http://www.w3.org/2000/svg" xmlns:xlink="http://www.w3.org/1999/xlink" xml:space="preserve" onload="init(evt)">
<style type="text/css"><![CDATA[
.edge:hover path { stroke: red; }
.edge:hover polygon { stroke: red; fill: red; }
]]></style>
<script type="text/javascript"><![CDATA[
var edges = document.getElementsByTagName('g');
if (edges && edges.length) {
  for (var i=0;i<edges.length;i++) {
    if (edges[i].id.substr(0,4)=='edge') {
      edges[i].setAttribute('class','edge');
    }
  }
}
]]></script>
        <defs>
                <circle id="rim" cx="0" cy="0" r="7"/>
                <circle id="rim2" cx="0" cy="0" r="3.5"/>
                <g id="zoomPlus">
                        <use xlink:href="#rim" fill="#404040">
                                <set attributeName="fill" to="#808080" begin="zoomplus.mouseover" end="zoomplus.mouseout"/>
                        </use>
                        <path d="M-4,0h8M0,-4v8" fill="none" stroke="white" stroke-width="1.5" pointer-events="none"/>
                </g>
                <g id="zoomMin">
                        <use xlink:href="#rim" fill="#404040">
                                <set attributeName="fill" to="#808080" begin="zoomminus.mouseover" end="zoomminus.mouseout"/>
                        </use>
                        <path d="M-4,0h8" fill="none" stroke="white" stroke-width="1.5" pointer-events="none"/>
                </g>
                <g id="dirArrow">
                        <path fill="none" stroke="white" stroke-width="1.5" d="M0,-3.0v7 M-2.5,-0.5L0,-3.0L2.5,-0.5"/>
                </g>
               <g id="resetDef">
                       <use xlink:href="#rim2" fill="#404040">
                               <set attributeName="fill" to="#808080" begin="reset.mouseover" end="reset.mouseout"/>
                       </use>
               </g>
        </defs>

<script type="text/javascript">
var viewWidth = 613;
var viewHeight = 1521;
var sectionId = 'dynsection-0';
</script>
<script xlink:href="svgpan.js"/>
<svg id="graph" class="graph">
<g id="viewport">
<title>Feel::FeelModels::CoefficientFormPDE&lt; ConvexType, BasisUnknownType &gt;</title>
<polygon fill="white" stroke="transparent" points="-4,4 -4,-1517 609,-1517 609,4 -4,4"/>
<!-- Node1 -->
<g id="node1" class="node">
<title>Node1</title>
<g id="a_node1"><a xlink:title="class for a single CoefficientFormPDE">
<polygon fill="#bfbfbf" stroke="black" points="258,-0.5 258,-189.5 467,-189.5 467,-0.5 258,-0.5"/>
<text text-anchor="start" x="266" y="-177.5" font-family="Helvetica,sans-Serif" font-size="10.00">Feel::FeelModels::Coefficient</text>
<text text-anchor="start" x="266" y="-166.5" font-family="Helvetica,sans-Serif" font-size="10.00">FormPDE&lt; ConvexType, BasisUnknown</text>
<text text-anchor="middle" x="362.5" y="-155.5" font-family="Helvetica,sans-Serif" font-size="10.00">Type &gt;</text>
<polyline fill="none" stroke="black" points="258,-148.5 467,-148.5 "/>
<text text-anchor="start" x="266" y="-136.5" font-family="Helvetica,sans-Serif" font-size="10.00">+ nDim</text>
<text text-anchor="start" x="266" y="-125.5" font-family="Helvetica,sans-Serif" font-size="10.00">+ nOrderGeo</text>
<text text-anchor="start" x="266" y="-114.5" font-family="Helvetica,sans-Serif" font-size="10.00">+ nOrderUnknown</text>
<text text-anchor="start" x="266" y="-103.5" font-family="Helvetica,sans-Serif" font-size="10.00">+ nRealDim</text>
<text text-anchor="start" x="266" y="-92.5" font-family="Helvetica,sans-Serif" font-size="10.00">+ unknown_is_scalar</text>
<text text-anchor="start" x="266" y="-81.5" font-family="Helvetica,sans-Serif" font-size="10.00">+ unknown_is_vectorial</text>
<polyline fill="none" stroke="black" points="258,-74.5 467,-74.5 "/>
<text text-anchor="start" x="266" y="-62.5" font-family="Helvetica,sans-Serif" font-size="10.00">+ buildBlockMatrixGraph()</text>
<text text-anchor="start" x="266" y="-51.5" font-family="Helvetica,sans-Serif" font-size="10.00">+ CoefficientFormPDE()</text>
<text text-anchor="start" x="266" y="-40.5" font-family="Helvetica,sans-Serif" font-size="10.00">+ executePostProcessMeasures()</text>
<text text-anchor="start" x="266" y="-29.5" font-family="Helvetica,sans-Serif" font-size="10.00">+ exportResults()</text>
<text text-anchor="start" x="266" y="-18.5" font-family="Helvetica,sans-Serif" font-size="10.00">+ exportResults()</text>
<text text-anchor="start" x="266" y="-7.5" font-family="Helvetica,sans-Serif" font-size="10.00">and 38 more...</text>
</a>
</g>
</g>
<!-- Node2 -->
<g id="node2" class="node">
<title>Node2</title>
<g id="a_node2"><a xlink:href="classFeel_1_1FeelModels_1_1CoefficientFormPDEBase.html" target="_top" xlink:title=" ">
<polygon fill="white" stroke="#bfbfbf" points="253.5,-226.5 253.5,-492.5 471.5,-492.5 471.5,-226.5 253.5,-226.5"/>
<text text-anchor="start" x="261.5" y="-480.5" font-family="Helvetica,sans-Serif" font-size="10.00">Feel::FeelModels::Coefficient</text>
<text text-anchor="middle" x="362.5" y="-469.5" font-family="Helvetica,sans-Serif" font-size="10.00">FormPDEBase&lt; ConvexType &gt;</text>
<polyline fill="none" stroke="#bfbfbf" points="253.5,-462.5 471.5,-462.5 "/>
<text text-anchor="start" x="261.5" y="-450.5" font-family="Helvetica,sans-Serif" font-size="10.00">+ nDim</text>
<text text-anchor="start" x="261.5" y="-439.5" font-family="Helvetica,sans-Serif" font-size="10.00">+ nOrderGeo</text>
<text text-anchor="start" x="261.5" y="-428.5" font-family="Helvetica,sans-Serif" font-size="10.00">+ nRealDim</text>
<text text-anchor="start" x="261.5" y="-417.5" font-family="Helvetica,sans-Serif" font-size="10.00"># M_applyStabilization</text>
<text text-anchor="start" x="261.5" y="-406.5" font-family="Helvetica,sans-Serif" font-size="10.00"># M_exporter</text>
<text text-anchor="start" x="261.5" y="-395.5" font-family="Helvetica,sans-Serif" font-size="10.00"># M_materialsProperties</text>
<text text-anchor="start" x="261.5" y="-384.5" font-family="Helvetica,sans-Serif" font-size="10.00"># M_rangeMeshElements</text>
<text text-anchor="start" x="261.5" y="-373.5" font-family="Helvetica,sans-Serif" font-size="10.00"># M_stabilizationDoAssembly</text>
<text text-anchor="start" x="261.5" y="-362.5" font-family="Helvetica,sans-Serif" font-size="10.00">WithGradDiffusionCoeff</text>
<text text-anchor="start" x="261.5" y="-351.5" font-family="Helvetica,sans-Serif" font-size="10.00">and 6 more...</text>
<polyline fill="none" stroke="#bfbfbf" points="253.5,-344.5 471.5,-344.5 "/>
<text text-anchor="start" x="261.5" y="-332.5" font-family="Helvetica,sans-Serif" font-size="10.00">+ applyStabilization()</text>
<text text-anchor="start" x="261.5" y="-321.5" font-family="Helvetica,sans-Serif" font-size="10.00">+ CoefficientFormPDEBase()</text>
<text text-anchor="start" x="261.5" y="-310.5" font-family="Helvetica,sans-Serif" font-size="10.00">+ hasSymbolDependencyInCoefficients()</text>
<text text-anchor="start" x="261.5" y="-299.5" font-family="Helvetica,sans-Serif" font-size="10.00">+ materialsProperties()</text>
<text text-anchor="start" x="261.5" y="-288.5" font-family="Helvetica,sans-Serif" font-size="10.00">+ materialsProperties()</text>
<text text-anchor="start" x="261.5" y="-277.5" font-family="Helvetica,sans-Serif" font-size="10.00">and 16 more...</text>
<text text-anchor="start" x="261.5" y="-266.5" font-family="Helvetica,sans-Serif" font-size="10.00"># initBasePostProcess()</text>
<text text-anchor="start" x="261.5" y="-255.5" font-family="Helvetica,sans-Serif" font-size="10.00"># initMaterialProperties()</text>
<text text-anchor="start" x="261.5" y="-244.5" font-family="Helvetica,sans-Serif" font-size="10.00"># initMesh()</text>
<text text-anchor="start" x="261.5" y="-233.5" font-family="Helvetica,sans-Serif" font-size="10.00"># loadParameterFromOptionsVm()</text>
</a>
</g>
</g>
<!-- Node2&#45;&gt;Node1 -->
<g id="edge1" class="edge">
<title>Node2&#45;&gt;Node1</title>
<path fill="none" stroke="midnightblue" d="M362.5,-216.33C362.5,-207.36 362.5,-198.46 362.5,-189.8"/>
<polygon fill="none" stroke="midnightblue" points="359,-216.48 362.5,-226.48 366,-216.48 359,-216.48"/>
</g>
<!-- Node3 -->
<g id="node3" class="node">
<title>Node3</title>
<g id="a_node3"><a xlink:href="classFeel_1_1FeelModels_1_1ModelNumerical.html" target="_top" xlink:title="Handles some numerical model aspects: timestepping, mesh and properties.">
<polygon fill="white" stroke="black" points="159.5,-529.5 159.5,-740.5 361.5,-740.5 361.5,-529.5 159.5,-529.5"/>
<text text-anchor="middle" x="260.5" y="-728.5" font-family="Helvetica,sans-Serif" font-size="10.00">Feel::FeelModels::ModelNumerical</text>
<polyline fill="none" stroke="black" points="159.5,-721.5 361.5,-721.5 "/>
<text text-anchor="middle" x="260.5" y="-709.5" font-family="Helvetica,sans-Serif" font-size="10.00"> </text>
<polyline fill="none" stroke="black" points="159.5,-702.5 361.5,-702.5 "/>
<text text-anchor="start" x="167.5" y="-690.5" font-family="Helvetica,sans-Serif" font-size="10.00">+ checkResults()</text>
<text text-anchor="start" x="167.5" y="-679.5" font-family="Helvetica,sans-Serif" font-size="10.00">+ checkResults()</text>
<text text-anchor="start" x="167.5" y="-668.5" font-family="Helvetica,sans-Serif" font-size="10.00">+ createBdf()</text>
<text text-anchor="start" x="167.5" y="-657.5" font-family="Helvetica,sans-Serif" font-size="10.00">+ currentTime()</text>
<text text-anchor="start" x="167.5" y="-646.5" font-family="Helvetica,sans-Serif" font-size="10.00">+ doRestart()</text>
<text text-anchor="start" x="167.5" y="-635.5" font-family="Helvetica,sans-Serif" font-size="10.00">and 53 more...</text>
<text text-anchor="start" x="167.5" y="-624.5" font-family="Helvetica,sans-Serif" font-size="10.00"># addPostProcessExportsAll</text>
<text text-anchor="start" x="167.5" y="-613.5" font-family="Helvetica,sans-Serif" font-size="10.00">FieldsAvailable()</text>
<text text-anchor="start" x="167.5" y="-602.5" font-family="Helvetica,sans-Serif" font-size="10.00"># addPostProcessExportsAll</text>
<text text-anchor="start" x="167.5" y="-591.5" font-family="Helvetica,sans-Serif" font-size="10.00">FieldsAvailable()</text>
<text text-anchor="start" x="167.5" y="-580.5" font-family="Helvetica,sans-Serif" font-size="10.00"># addPostProcessMeasuresQuantities</text>
<text text-anchor="start" x="167.5" y="-569.5" font-family="Helvetica,sans-Serif" font-size="10.00">AllNamesAvailable()</text>
<text text-anchor="start" x="167.5" y="-558.5" font-family="Helvetica,sans-Serif" font-size="10.00"># initPostProcess()</text>
<text text-anchor="start" x="167.5" y="-547.5" font-family="Helvetica,sans-Serif" font-size="10.00"># initPostProcessMeshes()</text>
<text text-anchor="start" x="167.5" y="-536.5" font-family="Helvetica,sans-Serif" font-size="10.00">and 10 more...</text>
</a>
</g>
</g>
<!-- Node3&#45;&gt;Node2 -->
<g id="edge2" class="edge">
<title>Node3&#45;&gt;Node2</title>
<path fill="none" stroke="midnightblue" d="M303,-520.04C306.38,-510.97 309.82,-501.76 313.24,-492.58"/>
<polygon fill="none" stroke="midnightblue" points="299.71,-518.84 299.5,-529.43 306.27,-521.28 299.71,-518.84"/>
</g>
<!-- Node4 -->
<g id="node4" class="node">
<title>Node4</title>
<g id="a_node4"><a xlink:href="classFeel_1_1FeelModels_1_1ModelBase.html" target="_top" xlink:title="Model base class.">
<polygon fill="white" stroke="black" points="193,-981.5 193,-1093.5 386,-1093.5 386,-981.5 193,-981.5"/>
<text text-anchor="middle" x="289.5" y="-1081.5" font-family="Helvetica,sans-Serif" font-size="10.00">Feel::FeelModels::ModelBase</text>
<polyline fill="none" stroke="black" points="193,-1074.5 386,-1074.5 "/>
<text text-anchor="middle" x="289.5" y="-1062.5" font-family="Helvetica,sans-Serif" font-size="10.00"> </text>
<polyline fill="none" stroke="black" points="193,-1055.5 386,-1055.5 "/>
<text text-anchor="start" x="201" y="-1043.5" font-family="Helvetica,sans-Serif" font-size="10.00">+ addParameterInModelProperties()</text>
<text text-anchor="start" x="201" y="-1032.5" font-family="Helvetica,sans-Serif" font-size="10.00">+ addTimerTool()</text>
<text text-anchor="start" x="201" y="-1021.5" font-family="Helvetica,sans-Serif" font-size="10.00">+ clovm()</text>
<text text-anchor="start" x="201" y="-1010.5" font-family="Helvetica,sans-Serif" font-size="10.00">+ createWorldsComm()</text>
<text text-anchor="start" x="201" y="-999.5" font-family="Helvetica,sans-Serif" font-size="10.00">+ hasModelProperties()</text>
<text text-anchor="start" x="201" y="-988.5" font-family="Helvetica,sans-Serif" font-size="10.00">and 53 more...</text>
</a>
</g>
</g>
<!-- Node4&#45;&gt;Node3 -->
<g id="edge3" class="edge">
<title>Node4&#45;&gt;Node3</title>
<path fill="none" stroke="midnightblue" d="M238.62,-972.52C233.68,-963.67 229.42,-954.39 226.5,-945 205.95,-878.91 214.52,-801.48 228.19,-740.67"/>
<polygon fill="none" stroke="midnightblue" points="235.66,-974.38 243.77,-981.2 241.68,-970.81 235.66,-974.38"/>
</g>
<!-- Node8 -->
<g id="node8" class="node">
<title>Node8</title>
<g id="a_node8"><a xlink:href="classFeel_1_1FeelModels_1_1ModelAlgebraic.html" target="_top" xlink:title=" ">
<polygon fill="white" stroke="#bfbfbf" points="235.5,-805 235.5,-917 415.5,-917 415.5,-805 235.5,-805"/>
<text text-anchor="middle" x="325.5" y="-905" font-family="Helvetica,sans-Serif" font-size="10.00">Feel::FeelModels::ModelAlgebraic</text>
<polyline fill="none" stroke="#bfbfbf" points="235.5,-898 415.5,-898 "/>
<text text-anchor="middle" x="325.5" y="-886" font-family="Helvetica,sans-Serif" font-size="10.00"> </text>
<polyline fill="none" stroke="#bfbfbf" points="235.5,-879 415.5,-879 "/>
<text text-anchor="start" x="243.5" y="-867" font-family="Helvetica,sans-Serif" font-size="10.00">+ algebraicBackend()</text>
<text text-anchor="start" x="243.5" y="-856" font-family="Helvetica,sans-Serif" font-size="10.00">+ algebraicBlockVectorSolution()</text>
<text text-anchor="start" x="243.5" y="-845" font-family="Helvetica,sans-Serif" font-size="10.00">+ algebraicFactory()</text>
<text text-anchor="start" x="243.5" y="-834" font-family="Helvetica,sans-Serif" font-size="10.00">+ backend()</text>
<text text-anchor="start" x="243.5" y="-823" font-family="Helvetica,sans-Serif" font-size="10.00">+ blockPattern()</text>
<text text-anchor="start" x="243.5" y="-812" font-family="Helvetica,sans-Serif" font-size="10.00">and 75 more...</text>
</a>
</g>
</g>
<!-- Node4&#45;&gt;Node8 -->
<g id="edge8" class="edge">
<title>Node4&#45;&gt;Node8</title>
<path fill="none" stroke="midnightblue" d="M303.01,-971.02C306.67,-953.28 310.59,-934.26 314.12,-917.15"/>
<polygon fill="none" stroke="midnightblue" points="299.48,-970.79 300.89,-981.29 306.34,-972.2 299.48,-970.79"/>
</g>
<!-- Node9 -->
<g id="node9" class="node">
<title>Node9</title>
<g id="a_node9"><a xlink:href="classFeel_1_1FeelModels_1_1ModelMeshes.html" target="_top" xlink:title=" ">
<polygon fill="white" stroke="black" points="0,-794 0,-928 179,-928 179,-794 0,-794"/>
<text text-anchor="start" x="8" y="-916" font-family="Helvetica,sans-Serif" font-size="10.00">Feel::FeelModels::ModelMeshes</text>
<text text-anchor="middle" x="89.5" y="-905" font-family="Helvetica,sans-Serif" font-size="10.00">&lt; ModelAlgebraic::index_type &gt;</text>
<polyline fill="none" stroke="black" points="0,-898 179,-898 "/>
<text text-anchor="middle" x="89.5" y="-886" font-family="Helvetica,sans-Serif" font-size="10.00"> </text>
<polyline fill="none" stroke="black" points="0,-879 179,-879 "/>
<text text-anchor="start" x="8" y="-867" font-family="Helvetica,sans-Serif" font-size="10.00">+ applyRemesh()</text>
<text text-anchor="start" x="8" y="-856" font-family="Helvetica,sans-Serif" font-size="10.00">+ hasMeshMotion()</text>
<text text-anchor="start" x="8" y="-845" font-family="Helvetica,sans-Serif" font-size="10.00">+ hasModelMesh()</text>
<text text-anchor="start" x="8" y="-834" font-family="Helvetica,sans-Serif" font-size="10.00">+ initMeasurePointsEvaluation</text>
<text text-anchor="start" x="8" y="-823" font-family="Helvetica,sans-Serif" font-size="10.00">Tool()</text>
<text text-anchor="start" x="8" y="-812" font-family="Helvetica,sans-Serif" font-size="10.00">+ measurePointsEvaluationTool()</text>
<text text-anchor="start" x="8" y="-801" font-family="Helvetica,sans-Serif" font-size="10.00">and 23 more...</text>
</a>
</g>
</g>
<!-- Node4&#45;&gt;Node9 -->
<g id="edge11" class="edge">
<title>Node4&#45;&gt;Node9</title>
<path fill="none" stroke="midnightblue" d="M218.41,-974.47C201.2,-959.46 182.74,-943.35 165.33,-928.16"/>
<polygon fill="none" stroke="midnightblue" points="216.38,-977.35 226.22,-981.29 220.98,-972.08 216.38,-977.35"/>
</g>
<!-- Node12 -->
<g id="node12" class="node">
<title>Node12</title>
<g id="a_node12"><a xlink:href="classFeel_1_1FeelModels_1_1ModelPhysics.html" target="_top" xlink:title="Physic set Model.">
<polygon fill="white" stroke="black" points="434,-777.5 434,-944.5 605,-944.5 605,-777.5 434,-777.5"/>
<text text-anchor="start" x="442" y="-932.5" font-family="Helvetica,sans-Serif" font-size="10.00">Feel::FeelModels::ModelPhysics</text>
<text text-anchor="middle" x="519.5" y="-921.5" font-family="Helvetica,sans-Serif" font-size="10.00">&lt; Dim &gt;</text>
<polyline fill="none" stroke="black" points="434,-914.5 605,-914.5 "/>
<text text-anchor="start" x="442" y="-902.5" font-family="Helvetica,sans-Serif" font-size="10.00">+ nDim</text>
<text text-anchor="start" x="442" y="-891.5" font-family="Helvetica,sans-Serif" font-size="10.00"># M_physicModeling</text>
<text text-anchor="start" x="442" y="-880.5" font-family="Helvetica,sans-Serif" font-size="10.00"># M_physics</text>
<polyline fill="none" stroke="black" points="434,-873.5 605,-873.5 "/>
<text text-anchor="start" x="442" y="-861.5" font-family="Helvetica,sans-Serif" font-size="10.00">+ addPhysics()</text>
<text text-anchor="start" x="442" y="-850.5" font-family="Helvetica,sans-Serif" font-size="10.00">+ hasPhysic()</text>
<text text-anchor="start" x="442" y="-839.5" font-family="Helvetica,sans-Serif" font-size="10.00">+ initPhysics()</text>
<text text-anchor="start" x="442" y="-828.5" font-family="Helvetica,sans-Serif" font-size="10.00">+ initPhysics()</text>
<text text-anchor="start" x="442" y="-817.5" font-family="Helvetica,sans-Serif" font-size="10.00">+ ModelPhysics()</text>
<text text-anchor="start" x="442" y="-806.5" font-family="Helvetica,sans-Serif" font-size="10.00">and 18 more...</text>
<text text-anchor="start" x="442" y="-795.5" font-family="Helvetica,sans-Serif" font-size="10.00"># initPhysics()</text>
<text text-anchor="start" x="442" y="-784.5" font-family="Helvetica,sans-Serif" font-size="10.00"># updatePhysics()</text>
</a>
</g>
</g>
<!-- Node4&#45;&gt;Node12 -->
<g id="edge14" class="edge">
<title>Node4&#45;&gt;Node12</title>
<path fill="none" stroke="midnightblue" d="M382.54,-975.64C396.8,-965.68 411.19,-955.26 424.5,-945 427.62,-942.59 430.77,-940.11 433.94,-937.58"/>
<polygon fill="none" stroke="midnightblue" points="380.39,-972.87 374.17,-981.44 384.38,-978.62 380.39,-972.87"/>
</g>
<!-- Node5 -->
<g id="node5" class="node">
<title>Node5</title>
<g id="a_node5"><a xlink:href="classFeel_1_1JournalWatcher.html" target="_top" xlink:title=" ">
<polygon fill="white" stroke="#bfbfbf" points="111,-1130.5 111,-1418.5 288,-1418.5 288,-1130.5 111,-1130.5"/>
<text text-anchor="middle" x="199.5" y="-1406.5" font-family="Helvetica,sans-Serif" font-size="10.00">Feel::JournalWatcher</text>
<polyline fill="none" stroke="#bfbfbf" points="111,-1399.5 288,-1399.5 "/>
<text text-anchor="middle" x="199.5" y="-1387.5" font-family="Helvetica,sans-Serif" font-size="10.00"> </text>
<polyline fill="none" stroke="#bfbfbf" points="111,-1380.5 288,-1380.5 "/>
<text text-anchor="start" x="119" y="-1368.5" font-family="Helvetica,sans-Serif" font-size="10.00">* M_journal_is_connected</text>
<text text-anchor="start" x="119" y="-1357.5" font-family="Helvetica,sans-Serif" font-size="10.00">* M_category</text>
<text text-anchor="start" x="119" y="-1346.5" font-family="Helvetica,sans-Serif" font-size="10.00">* M_name</text>
<text text-anchor="start" x="119" y="-1335.5" font-family="Helvetica,sans-Serif" font-size="10.00">* M_function_updateInformation</text>
<text text-anchor="start" x="119" y="-1324.5" font-family="Helvetica,sans-Serif" font-size="10.00">Object</text>
<text text-anchor="start" x="119" y="-1313.5" font-family="Helvetica,sans-Serif" font-size="10.00">* M_informationObject</text>
<text text-anchor="start" x="119" y="-1302.5" font-family="Helvetica,sans-Serif" font-size="10.00">* S_counterObjectByCategory</text>
<text text-anchor="start" x="119" y="-1291.5" font-family="Helvetica,sans-Serif" font-size="10.00">* JournalWatcher()</text>
<text text-anchor="start" x="119" y="-1280.5" font-family="Helvetica,sans-Serif" font-size="10.00">* JournalWatcher()</text>
<text text-anchor="start" x="119" y="-1269.5" font-family="Helvetica,sans-Serif" font-size="10.00">* JournalWatcher()</text>
<text text-anchor="start" x="119" y="-1258.5" font-family="Helvetica,sans-Serif" font-size="10.00">* JournalWatcher()</text>
<text text-anchor="start" x="119" y="-1247.5" font-family="Helvetica,sans-Serif" font-size="10.00">* ~JournalWatcher()</text>
<text text-anchor="start" x="119" y="-1236.5" font-family="Helvetica,sans-Serif" font-size="10.00">* journalIsConnected()</text>
<text text-anchor="start" x="119" y="-1225.5" font-family="Helvetica,sans-Serif" font-size="10.00">* journalWatcherInstanceName()</text>
<text text-anchor="start" x="119" y="-1214.5" font-family="Helvetica,sans-Serif" font-size="10.00">* journalSection()</text>
<text text-anchor="start" x="119" y="-1203.5" font-family="Helvetica,sans-Serif" font-size="10.00">* informationObject()</text>
<text text-anchor="start" x="119" y="-1192.5" font-family="Helvetica,sans-Serif" font-size="10.00">* journalConnect()</text>
<text text-anchor="start" x="119" y="-1181.5" font-family="Helvetica,sans-Serif" font-size="10.00">* journalDisconnect()</text>
<text text-anchor="start" x="119" y="-1170.5" font-family="Helvetica,sans-Serif" font-size="10.00">* updateInformationObject()</text>
<text text-anchor="start" x="119" y="-1159.5" font-family="Helvetica,sans-Serif" font-size="10.00">* setInformationObject()</text>
<text text-anchor="start" x="119" y="-1148.5" font-family="Helvetica,sans-Serif" font-size="10.00">* putInformationObject()</text>
<text text-anchor="start" x="119" y="-1137.5" font-family="Helvetica,sans-Serif" font-size="10.00">and 4 more...</text>
</a>
</g>
</g>
<!-- Node5&#45;&gt;Node4 -->
<g id="edge4" class="edge">
<title>Node5&#45;&gt;Node4</title>
<path fill="none" stroke="midnightblue" d="M258,-1120.76C261.64,-1111.25 265.15,-1102.08 268.42,-1093.53"/>
<polygon fill="none" stroke="midnightblue" points="254.63,-1119.78 254.32,-1130.37 261.16,-1122.28 254.63,-1119.78"/>
</g>
<!-- Node6 -->
<g id="node6" class="node">
<title>Node6</title>
<g id="a_node6"><a xlink:title=" ">
<polygon fill="white" stroke="#bfbfbf" points="146,-1455.5 146,-1512.5 253,-1512.5 253,-1455.5 146,-1455.5"/>
<text text-anchor="middle" x="199.5" y="-1500.5" font-family="Helvetica,sans-Serif" font-size="10.00">Event::SlotHandler</text>
<polyline fill="none" stroke="#bfbfbf" points="146,-1493.5 253,-1493.5 "/>
<text text-anchor="middle" x="199.5" y="-1481.5" font-family="Helvetica,sans-Serif" font-size="10.00"> </text>
<polyline fill="none" stroke="#bfbfbf" points="146,-1474.5 253,-1474.5 "/>
<text text-anchor="middle" x="199.5" y="-1462.5" font-family="Helvetica,sans-Serif" font-size="10.00"> </text>
</a>
</g>
</g>
<!-- Node6&#45;&gt;Node5 -->
<g id="edge5" class="edge">
<title>Node6&#45;&gt;Node5</title>
<path fill="none" stroke="midnightblue" d="M199.5,-1445.38C199.5,-1437.29 199.5,-1428.28 199.5,-1418.76"/>
<polygon fill="none" stroke="midnightblue" points="196,-1445.45 199.5,-1455.45 203,-1445.45 196,-1445.45"/>
</g>
<!-- Node7 -->
<g id="node7" class="node">
<title>Node7</title>
<g id="a_node7"><a xlink:title=" ">
<polygon fill="white" stroke="#bfbfbf" points="306,-1240.5 306,-1308.5 451,-1308.5 451,-1240.5 306,-1240.5"/>
<text text-anchor="start" x="314" y="-1296.5" font-family="Helvetica,sans-Serif" font-size="10.00">std::enable_shared</text>
<text text-anchor="middle" x="378.5" y="-1285.5" font-family="Helvetica,sans-Serif" font-size="10.00">_from_this&lt; ModelBase &gt;</text>
<polyline fill="none" stroke="#bfbfbf" points="306,-1278.5 451,-1278.5 "/>
<text text-anchor="middle" x="378.5" y="-1266.5" font-family="Helvetica,sans-Serif" font-size="10.00"> </text>
<polyline fill="none" stroke="#bfbfbf" points="306,-1259.5 451,-1259.5 "/>
<text text-anchor="middle" x="378.5" y="-1247.5" font-family="Helvetica,sans-Serif" font-size="10.00"> </text>
</a>
</g>
</g>
<!-- Node7&#45;&gt;Node4 -->
<g id="edge6" class="edge">
<title>Node7&#45;&gt;Node4</title>
<path fill="none" stroke="midnightblue" d="M362.39,-1230.97C347.82,-1192.5 326.29,-1135.63 310.4,-1093.68"/>
<polygon fill="none" stroke="midnightblue" points="359.12,-1232.22 365.94,-1240.33 365.67,-1229.74 359.12,-1232.22"/>
</g>
<!-- Node8&#45;&gt;Node3 -->
<g id="edge7" class="edge">
<title>Node8&#45;&gt;Node3</title>
<path fill="none" stroke="midnightblue" d="M306.67,-795.12C301.73,-778.1 296.28,-759.31 290.9,-740.78"/>
<polygon fill="none" stroke="midnightblue" points="303.37,-796.29 309.52,-804.92 310.09,-794.34 303.37,-796.29"/>
</g>
<!-- Node9&#45;&gt;Node3 -->
<g id="edge9" class="edge">
<title>Node9&#45;&gt;Node3</title>
<path fill="none" stroke="midnightblue" d="M146.46,-785.39C157.39,-771.07 169.02,-755.84 180.51,-740.78"/>
<polygon fill="none" stroke="midnightblue" points="143.4,-783.63 140.11,-793.7 148.96,-787.88 143.4,-783.63"/>
</g>
<!-- Node10 -->
<g id="node10" class="node">
<title>Node10</title>
<g id="a_node10"><a xlink:title=" ">
<polygon fill="white" stroke="black" points="39,-1003.5 39,-1071.5 140,-1071.5 140,-1003.5 39,-1003.5"/>
<text text-anchor="middle" x="89.5" y="-1059.5" font-family="Helvetica,sans-Serif" font-size="10.00">std::map&lt; K, T &gt;</text>
<polyline fill="none" stroke="black" points="39,-1052.5 140,-1052.5 "/>
<text text-anchor="start" x="47" y="-1040.5" font-family="Helvetica,sans-Serif" font-size="10.00">+ elements</text>
<text text-anchor="start" x="47" y="-1029.5" font-family="Helvetica,sans-Serif" font-size="10.00">+ keys</text>
<polyline fill="none" stroke="black" points="39,-1022.5 140,-1022.5 "/>
<text text-anchor="middle" x="89.5" y="-1010.5" font-family="Helvetica,sans-Serif" font-size="10.00"> </text>
</a>
</g>
</g>
<!-- Node10&#45;&gt;Node9 -->
<g id="edge10" class="edge">
<title>Node10&#45;&gt;Node9</title>
<path fill="none" stroke="darkgreen" d="M89.5,-993.14C89.5,-973.59 89.5,-950.05 89.5,-928.35"/>
<polygon fill="none" stroke="darkgreen" points="86,-993.27 89.5,-1003.27 93,-993.27 86,-993.27"/>
</g>
<!-- Node11 -->
<g id="node11" class="node">
<title>Node11</title>
<g id="a_node11"><a xlink:href="classFeel_1_1FeelModels_1_1ModelGenericPDE.html" target="_top" xlink:title=" ">
<polygon fill="white" stroke="black" points="406.5,-573.5 406.5,-696.5 578.5,-696.5 578.5,-573.5 406.5,-573.5"/>
<text text-anchor="start" x="414.5" y="-684.5" font-family="Helvetica,sans-Serif" font-size="10.00">Feel::FeelModels::ModelGeneric</text>
<text text-anchor="middle" x="492.5" y="-673.5" font-family="Helvetica,sans-Serif" font-size="10.00">PDE&lt; ConvexType::nDim &gt;</text>
<polyline fill="none" stroke="black" points="406.5,-666.5 578.5,-666.5 "/>
<text text-anchor="middle" x="492.5" y="-654.5" font-family="Helvetica,sans-Serif" font-size="10.00"> </text>
<polyline fill="none" stroke="black" points="406.5,-647.5 578.5,-647.5 "/>
<text text-anchor="start" x="414.5" y="-635.5" font-family="Helvetica,sans-Serif" font-size="10.00">+ equationName()</text>
<text text-anchor="start" x="414.5" y="-624.5" font-family="Helvetica,sans-Serif" font-size="10.00">+ ModelGenericPDE()</text>
<text text-anchor="start" x="414.5" y="-613.5" font-family="Helvetica,sans-Serif" font-size="10.00">+ ModelGenericPDE()</text>
<text text-anchor="start" x="414.5" y="-602.5" font-family="Helvetica,sans-Serif" font-size="10.00">+ ModelGenericPDE()</text>
<text text-anchor="start" x="414.5" y="-591.5" font-family="Helvetica,sans-Serif" font-size="10.00">+ physic()</text>
<text text-anchor="start" x="414.5" y="-580.5" font-family="Helvetica,sans-Serif" font-size="10.00">and 3 more...</text>
</a>
</g>
</g>
<!-- Node11&#45;&gt;Node2 -->
<g id="edge12" class="edge">
<title>Node11&#45;&gt;Node2</title>
<path fill="none" stroke="midnightblue" d="M459.29,-564.13C448.9,-542.27 437.07,-517.38 425.33,-492.69"/>
<polygon fill="none" stroke="midnightblue" points="456.19,-565.77 463.65,-573.3 462.52,-562.77 456.19,-565.77"/>
</g>
<!-- Node12&#45;&gt;Node11 -->
<g id="edge13" class="edge">
<title>Node12&#45;&gt;Node11</title>
<path fill="none" stroke="midnightblue" d="M508.31,-767.13C505.44,-743.36 502.43,-718.41 499.82,-696.73"/>
<polygon fill="none" stroke="midnightblue" points="504.85,-767.72 509.52,-777.23 511.8,-766.88 504.85,-767.72"/>
</g>
</g>
</svg>
        <g id="navigator" transform="translate(0 0)" fill="#404254">
                <rect fill="#f2f5e9" fill-opacity="0.5" stroke="#606060" stroke-width=".5" x="0" y="0" width="60" height="60"/>
                <use id="zoomplus" xlink:href="#zoomPlus" x="17" y="9" onmousedown="handleZoom(evt,'in')"/>
                <use id="zoomminus" xlink:href="#zoomMin" x="42" y="9" onmousedown="handleZoom(evt,'out')"/>
                <use id="reset" xlink:href="#resetDef" x="30" y="36" onmousedown="handleReset()"/>
                <g id="arrowUp" xlink:href="#dirArrow" transform="translate(30 24)" onmousedown="handlePan(0,-1)">
                  <use xlink:href="#rim" fill="#404040">
                        <set attributeName="fill" to="#808080" begin="arrowUp.mouseover" end="arrowUp.mouseout"/>
                  </use>
                  <path fill="none" stroke="white" stroke-width="1.5" d="M0,-3.0v7 M-2.5,-0.5L0,-3.0L2.5,-0.5"/>
                </g>
                <g id="arrowRight" xlink:href="#dirArrow" transform="rotate(90) translate(36 -43)" onmousedown="handlePan(1,0)">
                  <use xlink:href="#rim" fill="#404040">
                        <set attributeName="fill" to="#808080" begin="arrowRight.mouseover" end="arrowRight.mouseout"/>
                  </use>
                  <path fill="none" stroke="white" stroke-width="1.5" d="M0,-3.0v7 M-2.5,-0.5L0,-3.0L2.5,-0.5"/>
                </g>
                <g id="arrowDown" xlink:href="#dirArrow" transform="rotate(180) translate(-30 -48)" onmousedown="handlePan(0,1)">
                  <use xlink:href="#rim" fill="#404040">
                        <set attributeName="fill" to="#808080" begin="arrowDown.mouseover" end="arrowDown.mouseout"/>
                  </use>
                  <path fill="none" stroke="white" stroke-width="1.5" d="M0,-3.0v7 M-2.5,-0.5L0,-3.0L2.5,-0.5"/>
                </g>
                <g id="arrowLeft" xlink:href="#dirArrow" transform="rotate(270) translate(-36 17)" onmousedown="handlePan(-1,0)">
                  <use xlink:href="#rim" fill="#404040">
                        <set attributeName="fill" to="#808080" begin="arrowLeft.mouseover" end="arrowLeft.mouseout"/>
                  </use>
                  <path fill="none" stroke="white" stroke-width="1.5" d="M0,-3.0v7 M-2.5,-0.5L0,-3.0L2.5,-0.5"/>
                </g>
        </g>
        <svg viewBox="0 0 15 15" width="100%" height="30px" preserveAspectRatio="xMaxYMin meet">
         <g id="arrow_out" transform="scale(0.3 0.3)">
          <a xlink:href="classFeel_1_1FeelModels_1_1CoefficientFormPDE__inherit__graph_org.svg" target="_base">
           <rect id="button" ry="5" rx="5" y="6" x="6" height="38" width="38"
                fill="#f2f5e9" fill-opacity="0.5" stroke="#606060" stroke-width="1.0"/>
           <path id="arrow"
             d="M 11.500037,31.436501 C 11.940474,20.09759 22.043105,11.32322 32.158766,21.979434 L 37.068811,17.246167 C 37.068811,17.246167 37.088388,32 37.088388,32 L 22.160133,31.978069 C 22.160133,31.978069 26.997745,27.140456 26.997745,27.140456 C 18.528582,18.264221 13.291696,25.230495 11.500037,31.436501 z"
             style="fill:#404040;"/>
          </a>
         </g>
        </svg>
</svg>
