<?xml version="1.0" encoding="UTF-8" standalone="no"?>
<!DOCTYPE svg PUBLIC "-//W3C//DTD SVG 1.1//EN"
 "http://www.w3.org/Graphics/SVG/1.1/DTD/svg11.dtd">
<!-- Generated by graphviz version 2.43.0 (0)
 -->
<!-- Title: Feel::RangeBase&lt; IndexT &gt; Pages: 1 -->
<!--zoomable 1135 -->
<svg id="main" version="1.1" xmlns="http://www.w3.org/2000/svg" xmlns:xlink="http://www.w3.org/1999/xlink" xml:space="preserve" onload="init(evt)">
<style type="text/css"><![CDATA[
.edge:hover path { stroke: red; }
.edge:hover polygon { stroke: red; fill: red; }
]]></style>
<script type="text/javascript"><![CDATA[
var edges = document.getElementsByTagName('g');
if (edges && edges.length) {
  for (var i=0;i<edges.length;i++) {
    if (edges[i].id.substr(0,4)=='edge') {
      edges[i].setAttribute('class','edge');
    }
  }
}
]]></script>
        <defs>
                <circle id="rim" cx="0" cy="0" r="7"/>
                <circle id="rim2" cx="0" cy="0" r="3.5"/>
                <g id="zoomPlus">
                        <use xlink:href="#rim" fill="#404040">
                                <set attributeName="fill" to="#808080" begin="zoomplus.mouseover" end="zoomplus.mouseout"/>
                        </use>
                        <path d="M-4,0h8M0,-4v8" fill="none" stroke="white" stroke-width="1.5" pointer-events="none"/>
                </g>
                <g id="zoomMin">
                        <use xlink:href="#rim" fill="#404040">
                                <set attributeName="fill" to="#808080" begin="zoomminus.mouseover" end="zoomminus.mouseout"/>
                        </use>
                        <path d="M-4,0h8" fill="none" stroke="white" stroke-width="1.5" pointer-events="none"/>
                </g>
                <g id="dirArrow">
                        <path fill="none" stroke="white" stroke-width="1.5" d="M0,-3.0v7 M-2.5,-0.5L0,-3.0L2.5,-0.5"/>
                </g>
               <g id="resetDef">
                       <use xlink:href="#rim2" fill="#404040">
                               <set attributeName="fill" to="#808080" begin="reset.mouseover" end="reset.mouseout"/>
                       </use>
               </g>
        </defs>

<script type="text/javascript">
var viewWidth = 553;
var viewHeight = 1135;
var sectionId = 'dynsection-1';
</script>
<script xlink:href="svgpan.js"/>
<svg id="graph" class="graph">
<g id="viewport">
<title>Feel::RangeBase&lt; IndexT &gt;</title>
<polygon fill="white" stroke="transparent" points="-4,4 -4,-1131 549,-1131 549,4 -4,4"/>
<!-- Node1 -->
<g id="node1" class="node">
<title>Node1</title>
<g id="a_node1"><a xlink:title="RangeBase class.">
<polygon fill="#bfbfbf" stroke="black" points="15,-0.5 15,-112.5 168,-112.5 168,-0.5 15,-0.5"/>
<text text-anchor="middle" x="91.5" y="-100.5" font-family="Helvetica,sans-Serif" font-size="10.00">Feel::RangeBase&lt; IndexT &gt;</text>
<polyline fill="none" stroke="black" points="15,-93.5 168,-93.5 "/>
<text text-anchor="middle" x="91.5" y="-81.5" font-family="Helvetica,sans-Serif" font-size="10.00"> </text>
<polyline fill="none" stroke="black" points="15,-74.5 168,-74.5 "/>
<text text-anchor="start" x="23" y="-62.5" font-family="Helvetica,sans-Serif" font-size="10.00">+ meshBase()</text>
<text text-anchor="start" x="23" y="-51.5" font-family="Helvetica,sans-Serif" font-size="10.00">+ operator=()</text>
<text text-anchor="start" x="23" y="-40.5" font-family="Helvetica,sans-Serif" font-size="10.00">+ operator=()</text>
<text text-anchor="start" x="23" y="-29.5" font-family="Helvetica,sans-Serif" font-size="10.00">+ RangeBase()</text>
<text text-anchor="start" x="23" y="-18.5" font-family="Helvetica,sans-Serif" font-size="10.00">+ RangeBase()</text>
<text text-anchor="start" x="23" y="-7.5" font-family="Helvetica,sans-Serif" font-size="10.00">and 8 more...</text>
</a>
</g>
</g>
<!-- Node2 -->
<g id="node2" class="node">
<title>Node2</title>
<g id="a_node2"><a xlink:href="classFeel_1_1CommObject.html" target="_top" xlink:title=" ">
<polygon fill="white" stroke="#bfbfbf" points="0,-705.5 0,-817.5 107,-817.5 107,-705.5 0,-705.5"/>
<text text-anchor="middle" x="53.5" y="-805.5" font-family="Helvetica,sans-Serif" font-size="10.00">Feel::CommObject</text>
<polyline fill="none" stroke="#bfbfbf" points="0,-798.5 107,-798.5 "/>
<text text-anchor="middle" x="53.5" y="-786.5" font-family="Helvetica,sans-Serif" font-size="10.00"> </text>
<polyline fill="none" stroke="#bfbfbf" points="0,-779.5 107,-779.5 "/>
<text text-anchor="start" x="8" y="-767.5" font-family="Helvetica,sans-Serif" font-size="10.00">+ comm()</text>
<text text-anchor="start" x="8" y="-756.5" font-family="Helvetica,sans-Serif" font-size="10.00">+ CommObject()</text>
<text text-anchor="start" x="8" y="-745.5" font-family="Helvetica,sans-Serif" font-size="10.00">+ CommObject()</text>
<text text-anchor="start" x="8" y="-734.5" font-family="Helvetica,sans-Serif" font-size="10.00">+ CommObject()</text>
<text text-anchor="start" x="8" y="-723.5" font-family="Helvetica,sans-Serif" font-size="10.00">+ CommObject()</text>
<text text-anchor="start" x="8" y="-712.5" font-family="Helvetica,sans-Serif" font-size="10.00">and 13 more...</text>
</a>
</g>
</g>
<!-- Node2&#45;&gt;Node1 -->
<g id="edge1" class="edge">
<title>Node2&#45;&gt;Node1</title>
<path fill="none" stroke="midnightblue" d="M57.04,-694.96C64.47,-557.47 81.58,-241.04 88.51,-112.89"/>
<polygon fill="none" stroke="midnightblue" points="53.53,-695.16 56.48,-705.34 60.52,-695.54 53.53,-695.16"/>
</g>
<!-- Node3 -->
<g id="node3" class="node">
<title>Node3</title>
<g id="a_node3"><a xlink:href="classFeel_1_1MeshBase.html" target="_top" xlink:title=" ">
<polygon fill="white" stroke="black" points="115,-160.5 115,-569.5 288,-569.5 288,-160.5 115,-160.5"/>
<text text-anchor="middle" x="201.5" y="-557.5" font-family="Helvetica,sans-Serif" font-size="10.00">Feel::MeshBase&lt; index_t &gt;</text>
<polyline fill="none" stroke="black" points="115,-550.5 288,-550.5 "/>
<text text-anchor="middle" x="201.5" y="-538.5" font-family="Helvetica,sans-Serif" font-size="10.00"> </text>
<polyline fill="none" stroke="black" points="115,-531.5 288,-531.5 "/>
<text text-anchor="start" x="123" y="-519.5" font-family="Helvetica,sans-Serif" font-size="10.00">* super</text>
<text text-anchor="start" x="123" y="-508.5" font-family="Helvetica,sans-Serif" font-size="10.00">* index_type</text>
<text text-anchor="start" x="123" y="-497.5" font-family="Helvetica,sans-Serif" font-size="10.00">* index_t</text>
<text text-anchor="start" x="123" y="-486.5" font-family="Helvetica,sans-Serif" font-size="10.00">* size_type</text>
<text text-anchor="start" x="123" y="-475.5" font-family="Helvetica,sans-Serif" font-size="10.00">* face_processor_type</text>
<text text-anchor="start" x="123" y="-464.5" font-family="Helvetica,sans-Serif" font-size="10.00">* smd_type</text>
<text text-anchor="start" x="123" y="-453.5" font-family="Helvetica,sans-Serif" font-size="10.00">* smd_ptrtype</text>
<text text-anchor="start" x="123" y="-442.5" font-family="Helvetica,sans-Serif" font-size="10.00">* boost::serialization</text>
<text text-anchor="start" x="123" y="-431.5" font-family="Helvetica,sans-Serif" font-size="10.00">::access</text>
<text text-anchor="start" x="123" y="-420.5" font-family="Helvetica,sans-Serif" font-size="10.00">* M_topodim</text>
<text text-anchor="start" x="123" y="-409.5" font-family="Helvetica,sans-Serif" font-size="10.00">* M_realdim</text>
<text text-anchor="start" x="123" y="-398.5" font-family="Helvetica,sans-Serif" font-size="10.00">* M_components</text>
<text text-anchor="start" x="123" y="-387.5" font-family="Helvetica,sans-Serif" font-size="10.00">* M_is_updated</text>
<text text-anchor="start" x="123" y="-376.5" font-family="Helvetica,sans-Serif" font-size="10.00">and 65 more...</text>
<text text-anchor="start" x="123" y="-365.5" font-family="Helvetica,sans-Serif" font-size="10.00">* MeshBase()</text>
<text text-anchor="start" x="123" y="-354.5" font-family="Helvetica,sans-Serif" font-size="10.00">* MeshBase()</text>
<text text-anchor="start" x="123" y="-343.5" font-family="Helvetica,sans-Serif" font-size="10.00">* MeshBase()</text>
<text text-anchor="start" x="123" y="-332.5" font-family="Helvetica,sans-Serif" font-size="10.00">* MeshBase()</text>
<text text-anchor="start" x="123" y="-321.5" font-family="Helvetica,sans-Serif" font-size="10.00">* MeshBase()</text>
<text text-anchor="start" x="123" y="-310.5" font-family="Helvetica,sans-Serif" font-size="10.00">* MeshBase()</text>
<text text-anchor="start" x="123" y="-299.5" font-family="Helvetica,sans-Serif" font-size="10.00">* ~MeshBase()</text>
<text text-anchor="start" x="123" y="-288.5" font-family="Helvetica,sans-Serif" font-size="10.00">* operator=()</text>
<text text-anchor="start" x="123" y="-277.5" font-family="Helvetica,sans-Serif" font-size="10.00">* operator=()</text>
<text text-anchor="start" x="123" y="-266.5" font-family="Helvetica,sans-Serif" font-size="10.00">* shared_from_this_meshbase()</text>
<text text-anchor="start" x="123" y="-255.5" font-family="Helvetica,sans-Serif" font-size="10.00">* shared_from_this_meshbase()</text>
<text text-anchor="start" x="123" y="-244.5" font-family="Helvetica,sans-Serif" font-size="10.00">* isUpdatedForUse()</text>
<text text-anchor="start" x="123" y="-233.5" font-family="Helvetica,sans-Serif" font-size="10.00">* setTopologicalDimension()</text>
<text text-anchor="start" x="123" y="-222.5" font-family="Helvetica,sans-Serif" font-size="10.00">* setRealDimension()</text>
<text text-anchor="start" x="123" y="-211.5" font-family="Helvetica,sans-Serif" font-size="10.00">and 14 more...</text>
<text text-anchor="start" x="123" y="-200.5" font-family="Helvetica,sans-Serif" font-size="10.00">* setNumberOfPartitions()</text>
<text text-anchor="start" x="123" y="-189.5" font-family="Helvetica,sans-Serif" font-size="10.00">* setNumVertices()</text>
<text text-anchor="start" x="123" y="-178.5" font-family="Helvetica,sans-Serif" font-size="10.00">* setComponents()</text>
<text text-anchor="start" x="123" y="-167.5" font-family="Helvetica,sans-Serif" font-size="10.00">* setParametric()</text>
</a>
</g>
</g>
<!-- Node2&#45;&gt;Node3 -->
<g id="edge3" class="edge">
<title>Node2&#45;&gt;Node3</title>
<path fill="none" stroke="midnightblue" d="M77.83,-695.65C90.95,-660.67 107.95,-615.37 125.11,-569.62"/>
<polygon fill="none" stroke="midnightblue" points="74.47,-694.64 74.23,-705.23 81.02,-697.1 74.47,-694.64"/>
</g>
<!-- Node3&#45;&gt;Node1 -->
<g id="edge2" class="edge">
<title>Node3&#45;&gt;Node1</title>
<path fill="none" stroke="#404040" d="M128.43,-160.41C123.84,-147.61 119.43,-135.34 115.37,-124.01"/>
<polygon fill="none" stroke="#404040" points="115.31,-123.85 109.52,-119.55 111.26,-112.56 117.05,-116.85 115.31,-123.85"/>
<text text-anchor="middle" x="162.5" y="-134" font-family="Helvetica,sans-Serif" font-size="10.00"> #M_mesh_base</text>
</g>
<!-- Node4 -->
<g id="node4" class="node">
<title>Node4</title>
<g id="a_node4"><a xlink:href="classFeel_1_1JournalWatcher.html" target="_top" xlink:title=" ">
<polygon fill="white" stroke="#bfbfbf" points="125,-617.5 125,-905.5 302,-905.5 302,-617.5 125,-617.5"/>
<text text-anchor="middle" x="213.5" y="-893.5" font-family="Helvetica,sans-Serif" font-size="10.00">Feel::JournalWatcher</text>
<polyline fill="none" stroke="#bfbfbf" points="125,-886.5 302,-886.5 "/>
<text text-anchor="middle" x="213.5" y="-874.5" font-family="Helvetica,sans-Serif" font-size="10.00"> </text>
<polyline fill="none" stroke="#bfbfbf" points="125,-867.5 302,-867.5 "/>
<text text-anchor="start" x="133" y="-855.5" font-family="Helvetica,sans-Serif" font-size="10.00">* M_journal_is_connected</text>
<text text-anchor="start" x="133" y="-844.5" font-family="Helvetica,sans-Serif" font-size="10.00">* M_category</text>
<text text-anchor="start" x="133" y="-833.5" font-family="Helvetica,sans-Serif" font-size="10.00">* M_name</text>
<text text-anchor="start" x="133" y="-822.5" font-family="Helvetica,sans-Serif" font-size="10.00">* M_function_updateInformation</text>
<text text-anchor="start" x="133" y="-811.5" font-family="Helvetica,sans-Serif" font-size="10.00">Object</text>
<text text-anchor="start" x="133" y="-800.5" font-family="Helvetica,sans-Serif" font-size="10.00">* M_informationObject</text>
<text text-anchor="start" x="133" y="-789.5" font-family="Helvetica,sans-Serif" font-size="10.00">* S_counterObjectByCategory</text>
<text text-anchor="start" x="133" y="-778.5" font-family="Helvetica,sans-Serif" font-size="10.00">* JournalWatcher()</text>
<text text-anchor="start" x="133" y="-767.5" font-family="Helvetica,sans-Serif" font-size="10.00">* JournalWatcher()</text>
<text text-anchor="start" x="133" y="-756.5" font-family="Helvetica,sans-Serif" font-size="10.00">* JournalWatcher()</text>
<text text-anchor="start" x="133" y="-745.5" font-family="Helvetica,sans-Serif" font-size="10.00">* JournalWatcher()</text>
<text text-anchor="start" x="133" y="-734.5" font-family="Helvetica,sans-Serif" font-size="10.00">* ~JournalWatcher()</text>
<text text-anchor="start" x="133" y="-723.5" font-family="Helvetica,sans-Serif" font-size="10.00">* journalIsConnected()</text>
<text text-anchor="start" x="133" y="-712.5" font-family="Helvetica,sans-Serif" font-size="10.00">* journalWatcherInstanceName()</text>
<text text-anchor="start" x="133" y="-701.5" font-family="Helvetica,sans-Serif" font-size="10.00">* journalSection()</text>
<text text-anchor="start" x="133" y="-690.5" font-family="Helvetica,sans-Serif" font-size="10.00">* informationObject()</text>
<text text-anchor="start" x="133" y="-679.5" font-family="Helvetica,sans-Serif" font-size="10.00">* journalConnect()</text>
<text text-anchor="start" x="133" y="-668.5" font-family="Helvetica,sans-Serif" font-size="10.00">* journalDisconnect()</text>
<text text-anchor="start" x="133" y="-657.5" font-family="Helvetica,sans-Serif" font-size="10.00">* updateInformationObject()</text>
<text text-anchor="start" x="133" y="-646.5" font-family="Helvetica,sans-Serif" font-size="10.00">* setInformationObject()</text>
<text text-anchor="start" x="133" y="-635.5" font-family="Helvetica,sans-Serif" font-size="10.00">* putInformationObject()</text>
<text text-anchor="start" x="133" y="-624.5" font-family="Helvetica,sans-Serif" font-size="10.00">and 4 more...</text>
</a>
</g>
</g>
<!-- Node4&#45;&gt;Node3 -->
<g id="edge4" class="edge">
<title>Node4&#45;&gt;Node3</title>
<path fill="none" stroke="midnightblue" d="M208.83,-606.98C208.46,-594.69 208.08,-582.16 207.69,-569.6"/>
<polygon fill="none" stroke="midnightblue" points="205.34,-607.35 209.14,-617.24 212.34,-607.14 205.34,-607.35"/>
</g>
<!-- Node5 -->
<g id="node5" class="node">
<title>Node5</title>
<g id="a_node5"><a xlink:title=" ">
<polygon fill="white" stroke="#bfbfbf" points="160,-953.5 160,-1010.5 267,-1010.5 267,-953.5 160,-953.5"/>
<text text-anchor="middle" x="213.5" y="-998.5" font-family="Helvetica,sans-Serif" font-size="10.00">Event::SlotHandler</text>
<polyline fill="none" stroke="#bfbfbf" points="160,-991.5 267,-991.5 "/>
<text text-anchor="middle" x="213.5" y="-979.5" font-family="Helvetica,sans-Serif" font-size="10.00"> </text>
<polyline fill="none" stroke="#bfbfbf" points="160,-972.5 267,-972.5 "/>
<text text-anchor="middle" x="213.5" y="-960.5" font-family="Helvetica,sans-Serif" font-size="10.00"> </text>
</a>
</g>
</g>
<!-- Node5&#45;&gt;Node4 -->
<g id="edge5" class="edge">
<title>Node5&#45;&gt;Node4</title>
<path fill="none" stroke="midnightblue" d="M213.5,-943.3C213.5,-932.26 213.5,-919.47 213.5,-905.9"/>
<polygon fill="none" stroke="midnightblue" points="210,-943.33 213.5,-953.33 217,-943.33 210,-943.33"/>
</g>
<!-- Node6 -->
<g id="node6" class="node">
<title>Node6</title>
<g id="a_node6"><a xlink:title=" ">
<polygon fill="white" stroke="black" points="320.5,-727.5 320.5,-795.5 472.5,-795.5 472.5,-727.5 320.5,-727.5"/>
<text text-anchor="start" x="328.5" y="-783.5" font-family="Helvetica,sans-Serif" font-size="10.00">std::map&lt; std::string,</text>
<text text-anchor="middle" x="396.5" y="-772.5" font-family="Helvetica,sans-Serif" font-size="10.00"> std::vector&lt; size_type &gt; &gt;</text>
<polyline fill="none" stroke="black" points="320.5,-765.5 472.5,-765.5 "/>
<text text-anchor="middle" x="396.5" y="-753.5" font-family="Helvetica,sans-Serif" font-size="10.00"> </text>
<polyline fill="none" stroke="black" points="320.5,-746.5 472.5,-746.5 "/>
<text text-anchor="middle" x="396.5" y="-734.5" font-family="Helvetica,sans-Serif" font-size="10.00"> </text>
</a>
</g>
</g>
<!-- Node6&#45;&gt;Node3 -->
<g id="edge6" class="edge">
<title>Node6&#45;&gt;Node3</title>
<path fill="none" stroke="#404040" d="M380.04,-727.21C360.6,-687.88 326.71,-619.31 293.64,-552.42"/>
<polygon fill="none" stroke="#404040" points="293.45,-552.02 287.21,-548.42 288.13,-541.26 294.38,-544.87 293.45,-552.02"/>
<text text-anchor="middle" x="360.5" y="-591" font-family="Helvetica,sans-Serif" font-size="10.00"> #M_markername</text>
</g>
<!-- Node7 -->
<g id="node7" class="node">
<title>Node7</title>
<g id="a_node7"><a xlink:title=" ">
<polygon fill="white" stroke="black" points="325,-953.5 325,-1010.5 390,-1010.5 390,-953.5 325,-953.5"/>
<text text-anchor="middle" x="357.5" y="-998.5" font-family="Helvetica,sans-Serif" font-size="10.00">std::string</text>
<polyline fill="none" stroke="black" points="325,-991.5 390,-991.5 "/>
<text text-anchor="middle" x="357.5" y="-979.5" font-family="Helvetica,sans-Serif" font-size="10.00"> </text>
<polyline fill="none" stroke="black" points="325,-972.5 390,-972.5 "/>
<text text-anchor="middle" x="357.5" y="-960.5" font-family="Helvetica,sans-Serif" font-size="10.00"> </text>
</a>
</g>
</g>
<!-- Node7&#45;&gt;Node6 -->
<g id="edge7" class="edge">
<title>Node7&#45;&gt;Node6</title>
<path fill="none" stroke="#404040" d="M362.44,-953.33C368.98,-916.67 380.61,-851.54 388.43,-807.69"/>
<polygon fill="none" stroke="#404040" points="388.47,-807.47 385.59,-800.86 390.58,-795.65 393.47,-802.26 388.47,-807.47"/>
<text text-anchor="middle" x="384.5" y="-927" font-family="Helvetica,sans-Serif" font-size="10.00"> +keys</text>
</g>
<!-- Node8 -->
<g id="node8" class="node">
<title>Node8</title>
<g id="a_node8"><a xlink:title=" ">
<polygon fill="white" stroke="black" points="305.5,-1058.5 305.5,-1126.5 409.5,-1126.5 409.5,-1058.5 305.5,-1058.5"/>
<text text-anchor="start" x="313.5" y="-1114.5" font-family="Helvetica,sans-Serif" font-size="10.00">std::basic_string&lt;</text>
<text text-anchor="middle" x="357.5" y="-1103.5" font-family="Helvetica,sans-Serif" font-size="10.00"> Char &gt;</text>
<polyline fill="none" stroke="black" points="305.5,-1096.5 409.5,-1096.5 "/>
<text text-anchor="middle" x="357.5" y="-1084.5" font-family="Helvetica,sans-Serif" font-size="10.00"> </text>
<polyline fill="none" stroke="black" points="305.5,-1077.5 409.5,-1077.5 "/>
<text text-anchor="middle" x="357.5" y="-1065.5" font-family="Helvetica,sans-Serif" font-size="10.00"> </text>
</a>
</g>
</g>
<!-- Node8&#45;&gt;Node7 -->
<g id="edge8" class="edge">
<title>Node8&#45;&gt;Node7</title>
<path fill="none" stroke="midnightblue" d="M357.5,-1048.06C357.5,-1035.51 357.5,-1022.15 357.5,-1010.83"/>
<polygon fill="none" stroke="midnightblue" points="354,-1048.36 357.5,-1058.36 361,-1048.36 354,-1048.36"/>
</g>
<!-- Node9 -->
<g id="node9" class="node">
<title>Node9</title>
<g id="a_node9"><a xlink:title=" ">
<polygon fill="white" stroke="black" points="408,-953.5 408,-1010.5 545,-1010.5 545,-953.5 408,-953.5"/>
<text text-anchor="middle" x="476.5" y="-998.5" font-family="Helvetica,sans-Serif" font-size="10.00">std::vector&lt; size_type &gt;</text>
<polyline fill="none" stroke="black" points="408,-991.5 545,-991.5 "/>
<text text-anchor="middle" x="476.5" y="-979.5" font-family="Helvetica,sans-Serif" font-size="10.00"> </text>
<polyline fill="none" stroke="black" points="408,-972.5 545,-972.5 "/>
<text text-anchor="middle" x="476.5" y="-960.5" font-family="Helvetica,sans-Serif" font-size="10.00"> </text>
</a>
</g>
</g>
<!-- Node9&#45;&gt;Node6 -->
<g id="edge9" class="edge">
<title>Node9&#45;&gt;Node6</title>
<path fill="none" stroke="#404040" d="M466.37,-953.33C452.89,-916.51 428.89,-850.98 412.84,-807.13"/>
<polygon fill="none" stroke="#404040" points="412.76,-806.92 406.94,-802.66 408.64,-795.65 414.46,-799.91 412.76,-806.92"/>
<text text-anchor="middle" x="488.5" y="-927" font-family="Helvetica,sans-Serif" font-size="10.00"> +elements</text>
</g>
<!-- Node10 -->
<g id="node10" class="node">
<title>Node10</title>
<g id="a_node10"><a xlink:title=" ">
<polygon fill="white" stroke="#bfbfbf" points="445,-1064 445,-1121 508,-1121 508,-1064 445,-1064"/>
<text text-anchor="middle" x="476.5" y="-1109" font-family="Helvetica,sans-Serif" font-size="10.00">size_type</text>
<polyline fill="none" stroke="#bfbfbf" points="445,-1102 508,-1102 "/>
<text text-anchor="middle" x="476.5" y="-1090" font-family="Helvetica,sans-Serif" font-size="10.00"> </text>
<polyline fill="none" stroke="#bfbfbf" points="445,-1083 508,-1083 "/>
<text text-anchor="middle" x="476.5" y="-1071" font-family="Helvetica,sans-Serif" font-size="10.00"> </text>
</a>
</g>
</g>
<!-- Node10&#45;&gt;Node9 -->
<g id="edge10" class="edge">
<title>Node10&#45;&gt;Node9</title>
<path fill="none" stroke="#404040" d="M476.5,-1063.84C476.5,-1051.34 476.5,-1036.34 476.5,-1022.68"/>
<polygon fill="none" stroke="#404040" points="476.5,-1022.61 472.5,-1016.61 476.5,-1010.61 480.5,-1016.61 476.5,-1022.61"/>
<text text-anchor="middle" x="505.5" y="-1032" font-family="Helvetica,sans-Serif" font-size="10.00"> +elements</text>
</g>
</g>
</svg>
        <g id="navigator" transform="translate(0 0)" fill="#404254">
                <rect fill="#f2f5e9" fill-opacity="0.5" stroke="#606060" stroke-width=".5" x="0" y="0" width="60" height="60"/>
                <use id="zoomplus" xlink:href="#zoomPlus" x="17" y="9" onmousedown="handleZoom(evt,'in')"/>
                <use id="zoomminus" xlink:href="#zoomMin" x="42" y="9" onmousedown="handleZoom(evt,'out')"/>
                <use id="reset" xlink:href="#resetDef" x="30" y="36" onmousedown="handleReset()"/>
                <g id="arrowUp" xlink:href="#dirArrow" transform="translate(30 24)" onmousedown="handlePan(0,-1)">
                  <use xlink:href="#rim" fill="#404040">
                        <set attributeName="fill" to="#808080" begin="arrowUp.mouseover" end="arrowUp.mouseout"/>
                  </use>
                  <path fill="none" stroke="white" stroke-width="1.5" d="M0,-3.0v7 M-2.5,-0.5L0,-3.0L2.5,-0.5"/>
                </g>
                <g id="arrowRight" xlink:href="#dirArrow" transform="rotate(90) translate(36 -43)" onmousedown="handlePan(1,0)">
                  <use xlink:href="#rim" fill="#404040">
                        <set attributeName="fill" to="#808080" begin="arrowRight.mouseover" end="arrowRight.mouseout"/>
                  </use>
                  <path fill="none" stroke="white" stroke-width="1.5" d="M0,-3.0v7 M-2.5,-0.5L0,-3.0L2.5,-0.5"/>
                </g>
                <g id="arrowDown" xlink:href="#dirArrow" transform="rotate(180) translate(-30 -48)" onmousedown="handlePan(0,1)">
                  <use xlink:href="#rim" fill="#404040">
                        <set attributeName="fill" to="#808080" begin="arrowDown.mouseover" end="arrowDown.mouseout"/>
                  </use>
                  <path fill="none" stroke="white" stroke-width="1.5" d="M0,-3.0v7 M-2.5,-0.5L0,-3.0L2.5,-0.5"/>
                </g>
                <g id="arrowLeft" xlink:href="#dirArrow" transform="rotate(270) translate(-36 17)" onmousedown="handlePan(-1,0)">
                  <use xlink:href="#rim" fill="#404040">
                        <set attributeName="fill" to="#808080" begin="arrowLeft.mouseover" end="arrowLeft.mouseout"/>
                  </use>
                  <path fill="none" stroke="white" stroke-width="1.5" d="M0,-3.0v7 M-2.5,-0.5L0,-3.0L2.5,-0.5"/>
                </g>
        </g>
        <svg viewBox="0 0 15 15" width="100%" height="30px" preserveAspectRatio="xMaxYMin meet">
         <g id="arrow_out" transform="scale(0.3 0.3)">
          <a xlink:href="classFeel_1_1RangeBase__coll__graph_org.svg" target="_base">
           <rect id="button" ry="5" rx="5" y="6" x="6" height="38" width="38"
                fill="#f2f5e9" fill-opacity="0.5" stroke="#606060" stroke-width="1.0"/>
           <path id="arrow"
             d="M 11.500037,31.436501 C 11.940474,20.09759 22.043105,11.32322 32.158766,21.979434 L 37.068811,17.246167 C 37.068811,17.246167 37.088388,32 37.088388,32 L 22.160133,31.978069 C 22.160133,31.978069 26.997745,27.140456 26.997745,27.140456 C 18.528582,18.264221 13.291696,25.230495 11.500037,31.436501 z"
             style="fill:#404040;"/>
          </a>
         </g>
        </svg>
</svg>
