<?xml version="1.0" encoding="UTF-8" standalone="no"?>
<!DOCTYPE svg PUBLIC "-//W3C//DTD SVG 1.1//EN"
 "http://www.w3.org/Graphics/SVG/1.1/DTD/svg11.dtd">
<!-- Generated by graphviz version 2.43.0 (0)
 -->
<!-- Title: Feel::vf::GinacMatrix&lt; M, N, Order, SymbolsExprType &gt; Pages: 1 -->
<svg width="1155pt" height="916pt"
 viewBox="0.00 0.00 1154.50 916.00" xmlns="http://www.w3.org/2000/svg" xmlns:xlink="http://www.w3.org/1999/xlink">
<g id="graph0" class="graph" transform="scale(1 1) rotate(0) translate(4 912)">
<title>Feel::vf::GinacMatrix&lt; M, N, Order, SymbolsExprType &gt;</title>
<polygon fill="white" stroke="transparent" points="-4,4 -4,-912 1150.5,-912 1150.5,4 -4,4"/>
<!-- Node1 -->
<g id="node1" class="node">
<title>Node1</title>
<g id="a_node1"><a xlink:title="Handle Ginac matrix expression.">
<polygon fill="#bfbfbf" stroke="black" points="807,-0.5 807,-376.5 994,-376.5 994,-0.5 807,-0.5"/>
<text text-anchor="start" x="815" y="-364.5" font-family="Helvetica,sans-Serif" font-size="10.00">Feel::vf::GinacMatrix</text>
<text text-anchor="middle" x="900.5" y="-353.5" font-family="Helvetica,sans-Serif" font-size="10.00">&lt; M, N, Order, SymbolsExprType &gt;</text>
<polyline fill="none" stroke="black" points="807,-346.5 994,-346.5 "/>
<text text-anchor="middle" x="900.5" y="-334.5" font-family="Helvetica,sans-Serif" font-size="10.00"> </text>
<polyline fill="none" stroke="black" points="807,-327.5 994,-327.5 "/>
<text text-anchor="start" x="815" y="-315.5" font-family="Helvetica,sans-Serif" font-size="10.00">* super</text>
<text text-anchor="start" x="815" y="-304.5" font-family="Helvetica,sans-Serif" font-size="10.00">* symbols_expression</text>
<text text-anchor="start" x="815" y="-293.5" font-family="Helvetica,sans-Serif" font-size="10.00">_storage_type</text>
<text text-anchor="start" x="815" y="-282.5" font-family="Helvetica,sans-Serif" font-size="10.00">* symbols_expression_type</text>
<text text-anchor="start" x="815" y="-271.5" font-family="Helvetica,sans-Serif" font-size="10.00">* symbols_expression</text>
<text text-anchor="start" x="815" y="-260.5" font-family="Helvetica,sans-Serif" font-size="10.00">_tuple_type</text>
<text text-anchor="start" x="815" y="-249.5" font-family="Helvetica,sans-Serif" font-size="10.00">* test_basis</text>
<text text-anchor="start" x="815" y="-238.5" font-family="Helvetica,sans-Serif" font-size="10.00">and 7 more...</text>
<text text-anchor="start" x="815" y="-227.5" font-family="Helvetica,sans-Serif" font-size="10.00">* M_fun</text>
<text text-anchor="start" x="815" y="-216.5" font-family="Helvetica,sans-Serif" font-size="10.00">* M_cfun</text>
<text text-anchor="start" x="815" y="-205.5" font-family="Helvetica,sans-Serif" font-size="10.00">* M_filename</text>
<text text-anchor="start" x="815" y="-194.5" font-family="Helvetica,sans-Serif" font-size="10.00">* M_exprDesc</text>
<text text-anchor="start" x="815" y="-183.5" font-family="Helvetica,sans-Serif" font-size="10.00">* M_expr</text>
<text text-anchor="start" x="815" y="-172.5" font-family="Helvetica,sans-Serif" font-size="10.00">and 21 more...</text>
<text text-anchor="start" x="815" y="-161.5" font-family="Helvetica,sans-Serif" font-size="10.00">* GinacMatrix()</text>
<text text-anchor="start" x="815" y="-150.5" font-family="Helvetica,sans-Serif" font-size="10.00">* GinacMatrix()</text>
<text text-anchor="start" x="815" y="-139.5" font-family="Helvetica,sans-Serif" font-size="10.00">* GinacMatrix()</text>
<text text-anchor="start" x="815" y="-128.5" font-family="Helvetica,sans-Serif" font-size="10.00">* GinacMatrix()</text>
<text text-anchor="start" x="815" y="-117.5" font-family="Helvetica,sans-Serif" font-size="10.00">* GinacMatrix()</text>
<text text-anchor="start" x="815" y="-106.5" font-family="Helvetica,sans-Serif" font-size="10.00">* GinacMatrix()</text>
<text text-anchor="start" x="815" y="-95.5" font-family="Helvetica,sans-Serif" font-size="10.00">* GinacMatrix()</text>
<text text-anchor="start" x="815" y="-84.5" font-family="Helvetica,sans-Serif" font-size="10.00">* operator=()</text>
<text text-anchor="start" x="815" y="-73.5" font-family="Helvetica,sans-Serif" font-size="10.00">* operator=()</text>
<text text-anchor="start" x="815" y="-62.5" font-family="Helvetica,sans-Serif" font-size="10.00">* polynomialOrder()</text>
<text text-anchor="start" x="815" y="-51.5" font-family="Helvetica,sans-Serif" font-size="10.00">* isPolynomial()</text>
<text text-anchor="start" x="815" y="-40.5" font-family="Helvetica,sans-Serif" font-size="10.00">* symbolsExpression()</text>
<text text-anchor="start" x="815" y="-29.5" font-family="Helvetica,sans-Serif" font-size="10.00">* symbolsExpression()</text>
<text text-anchor="start" x="815" y="-18.5" font-family="Helvetica,sans-Serif" font-size="10.00">* symbolsExpressionStorage()</text>
<text text-anchor="start" x="815" y="-7.5" font-family="Helvetica,sans-Serif" font-size="10.00">and 10 more...</text>
</a>
</g>
</g>
<!-- Node2 -->
<g id="node2" class="node">
<title>Node2</title>
<g id="a_node2"><a xlink:href="classFeel_1_1vf_1_1GiNaCBase.html" target="_top" xlink:title=" ">
<polygon fill="white" stroke="#bfbfbf" points="437.5,-424.5 437.5,-536.5 583.5,-536.5 583.5,-424.5 437.5,-424.5"/>
<text text-anchor="middle" x="510.5" y="-524.5" font-family="Helvetica,sans-Serif" font-size="10.00">Feel::vf::GiNaCBase</text>
<polyline fill="none" stroke="#bfbfbf" points="437.5,-517.5 583.5,-517.5 "/>
<text text-anchor="middle" x="510.5" y="-505.5" font-family="Helvetica,sans-Serif" font-size="10.00"> </text>
<polyline fill="none" stroke="#bfbfbf" points="437.5,-498.5 583.5,-498.5 "/>
<text text-anchor="start" x="445.5" y="-486.5" font-family="Helvetica,sans-Serif" font-size="10.00">+ dynamicContext()</text>
<text text-anchor="start" x="445.5" y="-475.5" font-family="Helvetica,sans-Serif" font-size="10.00">+ eraseParameterValues()</text>
<text text-anchor="start" x="445.5" y="-464.5" font-family="Helvetica,sans-Serif" font-size="10.00">+ GiNaCBase()</text>
<text text-anchor="start" x="445.5" y="-453.5" font-family="Helvetica,sans-Serif" font-size="10.00">+ GiNaCBase()</text>
<text text-anchor="start" x="445.5" y="-442.5" font-family="Helvetica,sans-Serif" font-size="10.00">+ GiNaCBase()</text>
<text text-anchor="start" x="445.5" y="-431.5" font-family="Helvetica,sans-Serif" font-size="10.00">and 16 more...</text>
</a>
</g>
</g>
<!-- Node2&#45;&gt;Node1 -->
<g id="edge1" class="edge">
<title>Node2&#45;&gt;Node1</title>
<path fill="none" stroke="midnightblue" d="M592.14,-418.79C654.78,-372.22 741.31,-307.87 806.77,-259.2"/>
<polygon fill="none" stroke="midnightblue" points="589.79,-416.18 583.86,-424.95 593.97,-421.79 589.79,-416.18"/>
</g>
<!-- Node3 -->
<g id="node3" class="node">
<title>Node3</title>
<g id="a_node3"><a xlink:href="classFeel_1_1vf_1_1ExprDynamicBase.html" target="_top" xlink:title=" ">
<polygon fill="white" stroke="#bfbfbf" points="0,-606.5 0,-685.5 147,-685.5 147,-606.5 0,-606.5"/>
<text text-anchor="middle" x="73.5" y="-673.5" font-family="Helvetica,sans-Serif" font-size="10.00">Feel::vf::ExprDynamicBase</text>
<polyline fill="none" stroke="#bfbfbf" points="0,-666.5 147,-666.5 "/>
<text text-anchor="middle" x="73.5" y="-654.5" font-family="Helvetica,sans-Serif" font-size="10.00"> </text>
<polyline fill="none" stroke="#bfbfbf" points="0,-647.5 147,-647.5 "/>
<text text-anchor="start" x="8" y="-635.5" font-family="Helvetica,sans-Serif" font-size="10.00">+ dynamicContext()</text>
<text text-anchor="start" x="8" y="-624.5" font-family="Helvetica,sans-Serif" font-size="10.00">+ ExprDynamicBase()</text>
<text text-anchor="start" x="8" y="-613.5" font-family="Helvetica,sans-Serif" font-size="10.00">+ ExprDynamicBase()</text>
</a>
</g>
</g>
<!-- Node3&#45;&gt;Node2 -->
<g id="edge2" class="edge">
<title>Node3&#45;&gt;Node2</title>
<path fill="none" stroke="midnightblue" d="M155.8,-601.82C187.96,-585.9 225.46,-568.48 260.5,-555 318.77,-532.58 386.86,-512.98 437.26,-499.66"/>
<polygon fill="none" stroke="midnightblue" points="153.84,-598.89 146.45,-606.48 156.96,-605.15 153.84,-598.89"/>
</g>
<!-- Node4 -->
<g id="node4" class="node">
<title>Node4</title>
<g id="a_node4"><a xlink:title=" ">
<polygon fill="white" stroke="black" points="165.5,-612 165.5,-680 275.5,-680 275.5,-612 165.5,-612"/>
<text text-anchor="start" x="173.5" y="-668" font-family="Helvetica,sans-Serif" font-size="10.00">std::vector&lt; GiNaC</text>
<text text-anchor="middle" x="220.5" y="-657" font-family="Helvetica,sans-Serif" font-size="10.00">::symbol &gt;</text>
<polyline fill="none" stroke="black" points="165.5,-650 275.5,-650 "/>
<text text-anchor="middle" x="220.5" y="-638" font-family="Helvetica,sans-Serif" font-size="10.00"> </text>
<polyline fill="none" stroke="black" points="165.5,-631 275.5,-631 "/>
<text text-anchor="middle" x="220.5" y="-619" font-family="Helvetica,sans-Serif" font-size="10.00"> </text>
</a>
</g>
</g>
<!-- Node4&#45;&gt;Node2 -->
<g id="edge3" class="edge">
<title>Node4&#45;&gt;Node2</title>
<path fill="none" stroke="#404040" d="M243.49,-611.61C257.96,-592.75 278.1,-570.01 300.5,-555 338.17,-529.75 385.46,-512.2 425.62,-500.6"/>
<polygon fill="none" stroke="#404040" points="425.74,-500.57 430.44,-495.1 437.29,-497.34 432.59,-502.81 425.74,-500.57"/>
<text text-anchor="middle" x="326.5" y="-569" font-family="Helvetica,sans-Serif" font-size="10.00"> #M_syms</text>
</g>
<!-- Node5 -->
<g id="node5" class="node">
<title>Node5</title>
<g id="a_node5"><a xlink:title=" ">
<polygon fill="white" stroke="#bfbfbf" points="194,-739 194,-796 247,-796 247,-739 194,-739"/>
<text text-anchor="middle" x="220.5" y="-784" font-family="Helvetica,sans-Serif" font-size="10.00">symbol</text>
<polyline fill="none" stroke="#bfbfbf" points="194,-777 247,-777 "/>
<text text-anchor="middle" x="220.5" y="-765" font-family="Helvetica,sans-Serif" font-size="10.00"> </text>
<polyline fill="none" stroke="#bfbfbf" points="194,-758 247,-758 "/>
<text text-anchor="middle" x="220.5" y="-746" font-family="Helvetica,sans-Serif" font-size="10.00"> </text>
</a>
</g>
</g>
<!-- Node5&#45;&gt;Node4 -->
<g id="edge4" class="edge">
<title>Node5&#45;&gt;Node4</title>
<path fill="none" stroke="#404040" d="M220.5,-738.78C220.5,-724.97 220.5,-707.9 220.5,-692.25"/>
<polygon fill="none" stroke="#404040" points="220.5,-692.09 216.5,-686.09 220.5,-680.09 224.5,-686.09 220.5,-692.09"/>
<text text-anchor="middle" x="249.5" y="-707" font-family="Helvetica,sans-Serif" font-size="10.00"> +elements</text>
</g>
<!-- Node6 -->
<g id="node6" class="node">
<title>Node6</title>
<g id="a_node6"><a xlink:title=" ">
<polygon fill="white" stroke="#bfbfbf" points="294,-612 294,-680 413,-680 413,-612 294,-612"/>
<text text-anchor="start" x="302" y="-668" font-family="Helvetica,sans-Serif" font-size="10.00">Matrix&lt; value_type,</text>
<text text-anchor="middle" x="353.5" y="-657" font-family="Helvetica,sans-Serif" font-size="10.00"> Eigen::Dynamic, 1 &gt;</text>
<polyline fill="none" stroke="#bfbfbf" points="294,-650 413,-650 "/>
<text text-anchor="middle" x="353.5" y="-638" font-family="Helvetica,sans-Serif" font-size="10.00"> </text>
<polyline fill="none" stroke="#bfbfbf" points="294,-631 413,-631 "/>
<text text-anchor="middle" x="353.5" y="-619" font-family="Helvetica,sans-Serif" font-size="10.00"> </text>
</a>
</g>
</g>
<!-- Node6&#45;&gt;Node2 -->
<g id="edge5" class="edge">
<title>Node6&#45;&gt;Node2</title>
<path fill="none" stroke="#404040" d="M352.51,-611.85C353.54,-593.53 357.58,-571.25 369.5,-555 383.82,-535.49 404.87,-520.72 426.37,-509.73"/>
<polygon fill="none" stroke="#404040" points="426.46,-509.69 430.13,-503.48 437.27,-504.48 433.6,-510.69 426.46,-509.69"/>
<text text-anchor="middle" x="401" y="-569" font-family="Helvetica,sans-Serif" font-size="10.00"> #M_params</text>
</g>
<!-- Node7 -->
<g id="node7" class="node">
<title>Node7</title>
<g id="a_node7"><a xlink:title=" ">
<polygon fill="white" stroke="black" points="431.5,-606.5 431.5,-685.5 553.5,-685.5 553.5,-606.5 431.5,-606.5"/>
<text text-anchor="start" x="439.5" y="-673.5" font-family="Helvetica,sans-Serif" font-size="10.00">std::set&lt; std::pair</text>
<text text-anchor="start" x="439.5" y="-662.5" font-family="Helvetica,sans-Serif" font-size="10.00">&lt; uint16_type, uint16</text>
<text text-anchor="middle" x="492.5" y="-651.5" font-family="Helvetica,sans-Serif" font-size="10.00">_type &gt; &gt;</text>
<polyline fill="none" stroke="black" points="431.5,-644.5 553.5,-644.5 "/>
<text text-anchor="middle" x="492.5" y="-632.5" font-family="Helvetica,sans-Serif" font-size="10.00"> </text>
<polyline fill="none" stroke="black" points="431.5,-625.5 553.5,-625.5 "/>
<text text-anchor="middle" x="492.5" y="-613.5" font-family="Helvetica,sans-Serif" font-size="10.00"> </text>
</a>
</g>
</g>
<!-- Node7&#45;&gt;Node2 -->
<g id="edge6" class="edge">
<title>Node7&#45;&gt;Node2</title>
<path fill="none" stroke="#404040" d="M450.86,-606.47C446.66,-600.7 443.02,-594.49 440.5,-588 435.2,-574.32 435.05,-568.62 440.5,-555 441.58,-552.31 442.8,-549.66 444.16,-547.06"/>
<polygon fill="none" stroke="#404040" points="444.22,-546.95 443.87,-539.75 450.38,-536.65 450.74,-543.85 444.22,-546.95"/>
<text text-anchor="middle" x="500" y="-580" font-family="Helvetica,sans-Serif" font-size="10.00"> #M_indexSymbolGeom</text>
<text text-anchor="middle" x="500" y="-569" font-family="Helvetica,sans-Serif" font-size="10.00">#M_indexSymbolN</text>
<text text-anchor="middle" x="500" y="-558" font-family="Helvetica,sans-Serif" font-size="10.00">#M_indexSymbolXYZ</text>
</g>
<!-- Node8 -->
<g id="node8" class="node">
<title>Node8</title>
<g id="a_node8"><a xlink:title=" ">
<polygon fill="white" stroke="#bfbfbf" points="439,-733.5 439,-801.5 546,-801.5 546,-733.5 439,-733.5"/>
<text text-anchor="start" x="447" y="-789.5" font-family="Helvetica,sans-Serif" font-size="10.00">pair&lt; uint16_type,</text>
<text text-anchor="middle" x="492.5" y="-778.5" font-family="Helvetica,sans-Serif" font-size="10.00"> uint16_type &gt;</text>
<polyline fill="none" stroke="#bfbfbf" points="439,-771.5 546,-771.5 "/>
<text text-anchor="middle" x="492.5" y="-759.5" font-family="Helvetica,sans-Serif" font-size="10.00"> </text>
<polyline fill="none" stroke="#bfbfbf" points="439,-752.5 546,-752.5 "/>
<text text-anchor="middle" x="492.5" y="-740.5" font-family="Helvetica,sans-Serif" font-size="10.00"> </text>
</a>
</g>
</g>
<!-- Node8&#45;&gt;Node7 -->
<g id="edge7" class="edge">
<title>Node8&#45;&gt;Node7</title>
<path fill="none" stroke="#404040" d="M492.5,-733.21C492.5,-722.24 492.5,-709.78 492.5,-697.81"/>
<polygon fill="none" stroke="#404040" points="492.5,-697.6 488.5,-691.6 492.5,-685.6 496.5,-691.6 492.5,-697.6"/>
<text text-anchor="middle" x="509.5" y="-707" font-family="Helvetica,sans-Serif" font-size="10.00"> +keys</text>
</g>
<!-- Node9 -->
<g id="node9" class="node">
<title>Node9</title>
<g id="a_node9"><a xlink:title=" ">
<polygon fill="white" stroke="black" points="571.5,-612 571.5,-680 693.5,-680 693.5,-612 571.5,-612"/>
<text text-anchor="start" x="579.5" y="-668" font-family="Helvetica,sans-Serif" font-size="10.00">std::map&lt; std::string,</text>
<text text-anchor="middle" x="632.5" y="-657" font-family="Helvetica,sans-Serif" font-size="10.00"> value_type &gt;</text>
<polyline fill="none" stroke="black" points="571.5,-650 693.5,-650 "/>
<text text-anchor="middle" x="632.5" y="-638" font-family="Helvetica,sans-Serif" font-size="10.00"> </text>
<polyline fill="none" stroke="black" points="571.5,-631 693.5,-631 "/>
<text text-anchor="middle" x="632.5" y="-619" font-family="Helvetica,sans-Serif" font-size="10.00"> </text>
</a>
</g>
</g>
<!-- Node9&#45;&gt;Node2 -->
<g id="edge8" class="edge">
<title>Node9&#45;&gt;Node2</title>
<path fill="none" stroke="#404040" d="M602.17,-611.83C595.5,-604.16 588.61,-595.92 582.5,-588 579.07,-583.56 567.24,-566.19 554.12,-546.72"/>
<polygon fill="none" stroke="#404040" points="554.1,-546.69 547.43,-543.94 547.4,-536.73 554.07,-539.48 554.1,-546.69"/>
<text text-anchor="middle" x="647.5" y="-569" font-family="Helvetica,sans-Serif" font-size="10.00"> #M_symbolNameToValue</text>
</g>
<!-- Node10 -->
<g id="node10" class="node">
<title>Node10</title>
<g id="a_node10"><a xlink:title=" ">
<polygon fill="white" stroke="black" points="582,-739 582,-796 647,-796 647,-739 582,-739"/>
<text text-anchor="middle" x="614.5" y="-784" font-family="Helvetica,sans-Serif" font-size="10.00">std::string</text>
<polyline fill="none" stroke="black" points="582,-777 647,-777 "/>
<text text-anchor="middle" x="614.5" y="-765" font-family="Helvetica,sans-Serif" font-size="10.00"> </text>
<polyline fill="none" stroke="black" points="582,-758 647,-758 "/>
<text text-anchor="middle" x="614.5" y="-746" font-family="Helvetica,sans-Serif" font-size="10.00"> </text>
</a>
</g>
</g>
<!-- Node10&#45;&gt;Node9 -->
<g id="edge9" class="edge">
<title>Node10&#45;&gt;Node9</title>
<path fill="none" stroke="#404040" d="M618.67,-738.78C620.76,-724.97 623.33,-707.9 625.68,-692.25"/>
<polygon fill="none" stroke="#404040" points="625.73,-691.96 622.67,-685.43 627.52,-680.09 630.58,-686.62 625.73,-691.96"/>
<text text-anchor="middle" x="640.5" y="-707" font-family="Helvetica,sans-Serif" font-size="10.00"> +keys</text>
</g>
<!-- Node11 -->
<g id="node11" class="node">
<title>Node11</title>
<g id="a_node11"><a xlink:title=" ">
<polygon fill="white" stroke="black" points="562.5,-839.5 562.5,-907.5 666.5,-907.5 666.5,-839.5 562.5,-839.5"/>
<text text-anchor="start" x="570.5" y="-895.5" font-family="Helvetica,sans-Serif" font-size="10.00">std::basic_string&lt;</text>
<text text-anchor="middle" x="614.5" y="-884.5" font-family="Helvetica,sans-Serif" font-size="10.00"> Char &gt;</text>
<polyline fill="none" stroke="black" points="562.5,-877.5 666.5,-877.5 "/>
<text text-anchor="middle" x="614.5" y="-865.5" font-family="Helvetica,sans-Serif" font-size="10.00"> </text>
<polyline fill="none" stroke="black" points="562.5,-858.5 666.5,-858.5 "/>
<text text-anchor="middle" x="614.5" y="-846.5" font-family="Helvetica,sans-Serif" font-size="10.00"> </text>
</a>
</g>
</g>
<!-- Node11&#45;&gt;Node10 -->
<g id="edge10" class="edge">
<title>Node11&#45;&gt;Node10</title>
<path fill="none" stroke="midnightblue" d="M614.5,-829.25C614.5,-818.05 614.5,-806.3 614.5,-796.15"/>
<polygon fill="none" stroke="midnightblue" points="611,-829.31 614.5,-839.31 618,-829.31 611,-829.31"/>
</g>
<!-- Node12 -->
<g id="node12" class="node">
<title>Node12</title>
<g id="a_node12"><a xlink:title=" ">
<polygon fill="white" stroke="#bfbfbf" points="665.5,-739 665.5,-796 715.5,-796 715.5,-739 665.5,-739"/>
<text text-anchor="middle" x="690.5" y="-784" font-family="Helvetica,sans-Serif" font-size="10.00">double</text>
<polyline fill="none" stroke="#bfbfbf" points="665.5,-777 715.5,-777 "/>
<text text-anchor="middle" x="690.5" y="-765" font-family="Helvetica,sans-Serif" font-size="10.00"> </text>
<polyline fill="none" stroke="#bfbfbf" points="665.5,-758 715.5,-758 "/>
<text text-anchor="middle" x="690.5" y="-746" font-family="Helvetica,sans-Serif" font-size="10.00"> </text>
</a>
</g>
</g>
<!-- Node12&#45;&gt;Node9 -->
<g id="edge11" class="edge">
<title>Node12&#45;&gt;Node9</title>
<path fill="none" stroke="#404040" d="M677.87,-738.71C672.86,-727.84 666.99,-715.3 661.5,-704 659.43,-699.74 657.24,-695.32 655.04,-690.91"/>
<polygon fill="none" stroke="#404040" points="654.97,-690.77 648.7,-687.21 649.57,-680.05 655.84,-683.61 654.97,-690.77"/>
<text text-anchor="middle" x="695.5" y="-707" font-family="Helvetica,sans-Serif" font-size="10.00"> +elements</text>
</g>
<!-- Node13 -->
<g id="node13" class="node">
<title>Node13</title>
<g id="a_node13"><a xlink:href="classsize__t.html" target="_top" xlink:title=" ">
<polygon fill="white" stroke="#bfbfbf" points="751,-617.5 751,-674.5 796,-674.5 796,-617.5 751,-617.5"/>
<text text-anchor="middle" x="773.5" y="-662.5" font-family="Helvetica,sans-Serif" font-size="10.00">size_t</text>
<polyline fill="none" stroke="#bfbfbf" points="751,-655.5 796,-655.5 "/>
<text text-anchor="middle" x="773.5" y="-643.5" font-family="Helvetica,sans-Serif" font-size="10.00"> </text>
<polyline fill="none" stroke="#bfbfbf" points="751,-636.5 796,-636.5 "/>
<text text-anchor="middle" x="773.5" y="-624.5" font-family="Helvetica,sans-Serif" font-size="10.00"> </text>
</a>
</g>
</g>
<!-- Node13&#45;&gt;Node1 -->
<g id="edge15" class="edge">
<title>Node13&#45;&gt;Node1</title>
<path fill="none" stroke="#404040" d="M786.76,-617.24C790.85,-608.06 795.15,-597.71 798.5,-588 820.55,-524.04 840.24,-452.85 856.31,-388.54"/>
<polygon fill="none" stroke="#404040" points="856.38,-388.26 853.94,-381.48 859.27,-376.62 861.71,-383.4 856.38,-388.26"/>
<text text-anchor="middle" x="872" y="-478" font-family="Helvetica,sans-Serif" font-size="10.00"> +context</text>
</g>
<!-- Node13&#45;&gt;Node2 -->
<g id="edge12" class="edge">
<title>Node13&#45;&gt;Node2</title>
<path fill="none" stroke="#404040" d="M755.15,-617.5C737.74,-591.46 714,-556.17 712.5,-555 678.49,-528.49 634.03,-510.94 595.48,-499.66"/>
<polygon fill="none" stroke="#404040" points="595.28,-499.6 588.42,-501.83 583.72,-496.36 590.58,-494.13 595.28,-499.6"/>
<text text-anchor="middle" x="767" y="-569" font-family="Helvetica,sans-Serif" font-size="10.00"> #M_context</text>
</g>
<!-- Node14 -->
<g id="node14" class="node">
<title>Node14</title>
<g id="a_node14"><a xlink:href="classbool.html" target="_top" xlink:title=" ">
<polygon fill="white" stroke="#bfbfbf" points="872.5,-617.5 872.5,-674.5 910.5,-674.5 910.5,-617.5 872.5,-617.5"/>
<text text-anchor="middle" x="891.5" y="-662.5" font-family="Helvetica,sans-Serif" font-size="10.00">bool</text>
<polyline fill="none" stroke="#bfbfbf" points="872.5,-655.5 910.5,-655.5 "/>
<text text-anchor="middle" x="891.5" y="-643.5" font-family="Helvetica,sans-Serif" font-size="10.00"> </text>
<polyline fill="none" stroke="#bfbfbf" points="872.5,-636.5 910.5,-636.5 "/>
<text text-anchor="middle" x="891.5" y="-624.5" font-family="Helvetica,sans-Serif" font-size="10.00"> </text>
</a>
</g>
</g>
<!-- Node14&#45;&gt;Node1 -->
<g id="edge16" class="edge">
<title>Node14&#45;&gt;Node1</title>
<path fill="none" stroke="#404040" d="M910.63,-638.25C930.92,-629.95 961.88,-613.69 975.5,-588 994.29,-552.54 981.47,-469.62 961.46,-388.54"/>
<polygon fill="none" stroke="#404040" points="961.39,-388.24 956.04,-383.4 958.46,-376.6 963.8,-381.45 961.39,-388.24"/>
<text text-anchor="middle" x="1027.5" y="-489" font-family="Helvetica,sans-Serif" font-size="10.00"> +has_test_basis</text>
<text text-anchor="middle" x="1027.5" y="-478" font-family="Helvetica,sans-Serif" font-size="10.00">+has_trial_basis</text>
<text text-anchor="middle" x="1027.5" y="-467" font-family="Helvetica,sans-Serif" font-size="10.00">+is_terminal</text>
</g>
<!-- Node14&#45;&gt;Node2 -->
<g id="edge13" class="edge">
<title>Node14&#45;&gt;Node2</title>
<path fill="none" stroke="#404040" d="M872.42,-619.07C856.08,-598.69 830.74,-571.13 802.5,-555 738.58,-518.51 656.64,-499.92 595.84,-490.59"/>
<polygon fill="none" stroke="#404040" points="595.46,-490.53 588.94,-493.61 583.59,-488.78 590.11,-485.7 595.46,-490.53"/>
<text text-anchor="middle" x="908" y="-569" font-family="Helvetica,sans-Serif" font-size="10.00"> #M_isNumericExpression</text>
</g>
<!-- Node15 -->
<g id="node15" class="node">
<title>Node15</title>
<g id="a_node15"><a xlink:href="classint.html" target="_top" xlink:title=" ">
<polygon fill="white" stroke="#bfbfbf" points="1092,-452 1092,-509 1121,-509 1121,-452 1092,-452"/>
<text text-anchor="middle" x="1106.5" y="-497" font-family="Helvetica,sans-Serif" font-size="10.00">int</text>
<polyline fill="none" stroke="#bfbfbf" points="1092,-490 1121,-490 "/>
<text text-anchor="middle" x="1106.5" y="-478" font-family="Helvetica,sans-Serif" font-size="10.00"> </text>
<polyline fill="none" stroke="#bfbfbf" points="1092,-471 1121,-471 "/>
<text text-anchor="middle" x="1106.5" y="-459" font-family="Helvetica,sans-Serif" font-size="10.00"> </text>
</a>
</g>
</g>
<!-- Node15&#45;&gt;Node1 -->
<g id="edge14" class="edge">
<title>Node15&#45;&gt;Node1</title>
<path fill="none" stroke="#404040" d="M1093.21,-451.9C1088.55,-442.83 1083.08,-432.82 1077.5,-424 1054.44,-387.55 1027.31,-349.6 1001.31,-315.11"/>
<polygon fill="none" stroke="#404040" points="1001.26,-315.05 994.44,-312.68 994.01,-305.48 1000.82,-307.85 1001.26,-315.05"/>
<text text-anchor="middle" x="1105.5" y="-398" font-family="Helvetica,sans-Serif" font-size="10.00"> +nSymbolsExpr</text>
</g>
</g>
</svg>
