<?xml version="1.0" encoding="UTF-8" standalone="no"?>
<!DOCTYPE svg PUBLIC "-//W3C//DTD SVG 1.1//EN"
 "http://www.w3.org/Graphics/SVG/1.1/DTD/svg11.dtd">
<!-- Generated by graphviz version 2.43.0 (0)
 -->
<!-- Title: Feel::GeoEntity&lt; Entity, T, IndexT &gt; Pages: 1 -->
<svg width="1003pt" height="688pt"
 viewBox="0.00 0.00 1003.00 688.00" xmlns="http://www.w3.org/2000/svg" xmlns:xlink="http://www.w3.org/1999/xlink">
<g id="graph0" class="graph" transform="scale(1 1) rotate(0) translate(4 684)">
<title>Feel::GeoEntity&lt; Entity, T, IndexT &gt;</title>
<polygon fill="white" stroke="transparent" points="-4,4 -4,-684 999,-684 999,4 -4,4"/>
<!-- Node1 -->
<g id="node1" class="node">
<title>Node1</title>
<g id="a_node1"><a xlink:title="base class for all geometric entities">
<polygon fill="#bfbfbf" stroke="black" points="473.5,-0.5 473.5,-442.5 622.5,-442.5 622.5,-0.5 473.5,-0.5"/>
<text text-anchor="start" x="481.5" y="-430.5" font-family="Helvetica,sans-Serif" font-size="10.00">Feel::GeoEntity&lt; Entity,</text>
<text text-anchor="middle" x="548" y="-419.5" font-family="Helvetica,sans-Serif" font-size="10.00"> T, IndexT &gt;</text>
<polyline fill="none" stroke="black" points="473.5,-412.5 622.5,-412.5 "/>
<text text-anchor="middle" x="548" y="-400.5" font-family="Helvetica,sans-Serif" font-size="10.00"> </text>
<polyline fill="none" stroke="black" points="473.5,-393.5 622.5,-393.5 "/>
<text text-anchor="start" x="481.5" y="-381.5" font-family="Helvetica,sans-Serif" font-size="10.00">* super</text>
<text text-anchor="start" x="481.5" y="-370.5" font-family="Helvetica,sans-Serif" font-size="10.00">* GeoShape</text>
<text text-anchor="start" x="481.5" y="-359.5" font-family="Helvetica,sans-Serif" font-size="10.00">* self_type</text>
<text text-anchor="start" x="481.5" y="-348.5" font-family="Helvetica,sans-Serif" font-size="10.00">* value_type</text>
<text text-anchor="start" x="481.5" y="-337.5" font-family="Helvetica,sans-Serif" font-size="10.00">* index_type</text>
<text text-anchor="start" x="481.5" y="-326.5" font-family="Helvetica,sans-Serif" font-size="10.00">and 12 more...</text>
<text text-anchor="start" x="481.5" y="-315.5" font-family="Helvetica,sans-Serif" font-size="10.00">* boost::serialization</text>
<text text-anchor="start" x="481.5" y="-304.5" font-family="Helvetica,sans-Serif" font-size="10.00">::access</text>
<text text-anchor="start" x="481.5" y="-293.5" font-family="Helvetica,sans-Serif" font-size="10.00">* M_id</text>
<text text-anchor="start" x="481.5" y="-282.5" font-family="Helvetica,sans-Serif" font-size="10.00">* M_entity</text>
<text text-anchor="start" x="481.5" y="-271.5" font-family="Helvetica,sans-Serif" font-size="10.00">* M_boundaryEntityDimension</text>
<text text-anchor="start" x="481.5" y="-260.5" font-family="Helvetica,sans-Serif" font-size="10.00">* M_pid</text>
<text text-anchor="start" x="481.5" y="-249.5" font-family="Helvetica,sans-Serif" font-size="10.00">and 34 more...</text>
<text text-anchor="start" x="481.5" y="-238.5" font-family="Helvetica,sans-Serif" font-size="10.00">* GeoEntity()</text>
<text text-anchor="start" x="481.5" y="-227.5" font-family="Helvetica,sans-Serif" font-size="10.00">* GeoEntity()</text>
<text text-anchor="start" x="481.5" y="-216.5" font-family="Helvetica,sans-Serif" font-size="10.00">* GeoEntity()</text>
<text text-anchor="start" x="481.5" y="-205.5" font-family="Helvetica,sans-Serif" font-size="10.00">* GeoEntity()</text>
<text text-anchor="start" x="481.5" y="-194.5" font-family="Helvetica,sans-Serif" font-size="10.00">* operator=()</text>
<text text-anchor="start" x="481.5" y="-183.5" font-family="Helvetica,sans-Serif" font-size="10.00">* operator=()</text>
<text text-anchor="start" x="481.5" y="-172.5" font-family="Helvetica,sans-Serif" font-size="10.00">* ~GeoEntity()</text>
<text text-anchor="start" x="481.5" y="-161.5" font-family="Helvetica,sans-Serif" font-size="10.00">* operator==()</text>
<text text-anchor="start" x="481.5" y="-150.5" font-family="Helvetica,sans-Serif" font-size="10.00">* operator&lt;()</text>
<text text-anchor="start" x="481.5" y="-139.5" font-family="Helvetica,sans-Serif" font-size="10.00">* operator&lt;()</text>
<text text-anchor="start" x="481.5" y="-128.5" font-family="Helvetica,sans-Serif" font-size="10.00">* id()</text>
<text text-anchor="start" x="481.5" y="-117.5" font-family="Helvetica,sans-Serif" font-size="10.00">* refDim()</text>
<text text-anchor="start" x="481.5" y="-106.5" font-family="Helvetica,sans-Serif" font-size="10.00">* nPoints()</text>
<text text-anchor="start" x="481.5" y="-95.5" font-family="Helvetica,sans-Serif" font-size="10.00">* nVertices()</text>
<text text-anchor="start" x="481.5" y="-84.5" font-family="Helvetica,sans-Serif" font-size="10.00">* nEdges()</text>
<text text-anchor="start" x="481.5" y="-73.5" font-family="Helvetica,sans-Serif" font-size="10.00">and 36 more...</text>
<text text-anchor="start" x="481.5" y="-62.5" font-family="Helvetica,sans-Serif" font-size="10.00">* setId()</text>
<text text-anchor="start" x="481.5" y="-51.5" font-family="Helvetica,sans-Serif" font-size="10.00">* setOnBoundary()</text>
<text text-anchor="start" x="481.5" y="-40.5" font-family="Helvetica,sans-Serif" font-size="10.00">* setIdInOtherPartitions()</text>
<text text-anchor="start" x="481.5" y="-29.5" font-family="Helvetica,sans-Serif" font-size="10.00">* setIdInOtherPartitions()</text>
<text text-anchor="start" x="481.5" y="-18.5" font-family="Helvetica,sans-Serif" font-size="10.00">* setIdInOtherPartitions()</text>
<text text-anchor="start" x="481.5" y="-7.5" font-family="Helvetica,sans-Serif" font-size="10.00">and 3 more...</text>
</a>
</g>
</g>
<!-- Node2 -->
<g id="node2" class="node">
<title>Node2</title>
<g id="a_node2"><a xlink:title=" ">
<polygon fill="white" stroke="#bfbfbf" points="0,-600.5 0,-679.5 140,-679.5 140,-600.5 0,-600.5"/>
<text text-anchor="start" x="8" y="-667.5" font-family="Helvetica,sans-Serif" font-size="10.00">boost::equality_comparable</text>
<text text-anchor="start" x="8" y="-656.5" font-family="Helvetica,sans-Serif" font-size="10.00">&lt; GeoEntity&lt; Entity, double,</text>
<text text-anchor="middle" x="70" y="-645.5" font-family="Helvetica,sans-Serif" font-size="10.00"> uint32_type &gt; &gt;</text>
<polyline fill="none" stroke="#bfbfbf" points="0,-638.5 140,-638.5 "/>
<text text-anchor="middle" x="70" y="-626.5" font-family="Helvetica,sans-Serif" font-size="10.00"> </text>
<polyline fill="none" stroke="#bfbfbf" points="0,-619.5 140,-619.5 "/>
<text text-anchor="middle" x="70" y="-607.5" font-family="Helvetica,sans-Serif" font-size="10.00"> </text>
</a>
</g>
</g>
<!-- Node2&#45;&gt;Node1 -->
<g id="edge1" class="edge">
<title>Node2&#45;&gt;Node1</title>
<path fill="none" stroke="#8b1a1a" d="M121.59,-593.63C162.58,-557.61 221.39,-506 273,-461 340.75,-401.92 418.12,-334.85 473.5,-286.92"/>
<polygon fill="none" stroke="#8b1a1a" points="119.1,-591.16 113.89,-600.39 123.72,-596.42 119.1,-591.16"/>
</g>
<!-- Node3 -->
<g id="node3" class="node">
<title>Node3</title>
<g id="a_node3"><a xlink:title=" ">
<polygon fill="white" stroke="#bfbfbf" points="158,-600.5 158,-679.5 302,-679.5 302,-600.5 158,-600.5"/>
<text text-anchor="start" x="166" y="-667.5" font-family="Helvetica,sans-Serif" font-size="10.00">boost::less_than_comparable</text>
<text text-anchor="start" x="166" y="-656.5" font-family="Helvetica,sans-Serif" font-size="10.00">&lt; GeoEntity&lt; Entity, double,</text>
<text text-anchor="middle" x="230" y="-645.5" font-family="Helvetica,sans-Serif" font-size="10.00"> uint32_type &gt; &gt;</text>
<polyline fill="none" stroke="#bfbfbf" points="158,-638.5 302,-638.5 "/>
<text text-anchor="middle" x="230" y="-626.5" font-family="Helvetica,sans-Serif" font-size="10.00"> </text>
<polyline fill="none" stroke="#bfbfbf" points="158,-619.5 302,-619.5 "/>
<text text-anchor="middle" x="230" y="-607.5" font-family="Helvetica,sans-Serif" font-size="10.00"> </text>
</a>
</g>
</g>
<!-- Node3&#45;&gt;Node1 -->
<g id="edge2" class="edge">
<title>Node3&#45;&gt;Node1</title>
<path fill="none" stroke="#8b1a1a" d="M265.82,-592.08C315.9,-526.5 408.02,-405.84 473.37,-320.24"/>
<polygon fill="none" stroke="#8b1a1a" points="262.92,-590.12 259.63,-600.19 268.48,-594.37 262.92,-590.12"/>
</g>
<!-- Node4 -->
<g id="node4" class="node">
<title>Node4</title>
<g id="a_node4"><a xlink:title=" ">
<polygon fill="white" stroke="#bfbfbf" points="320,-600.5 320,-679.5 464,-679.5 464,-600.5 320,-600.5"/>
<text text-anchor="start" x="328" y="-667.5" font-family="Helvetica,sans-Serif" font-size="10.00">boost::less_than_comparable</text>
<text text-anchor="start" x="328" y="-656.5" font-family="Helvetica,sans-Serif" font-size="10.00">&lt; GeoEntity&lt; Entity, double,</text>
<text text-anchor="middle" x="392" y="-645.5" font-family="Helvetica,sans-Serif" font-size="10.00"> uint32_type &gt;, uint32_type &gt;</text>
<polyline fill="none" stroke="#bfbfbf" points="320,-638.5 464,-638.5 "/>
<text text-anchor="middle" x="392" y="-626.5" font-family="Helvetica,sans-Serif" font-size="10.00"> </text>
<polyline fill="none" stroke="#bfbfbf" points="320,-619.5 464,-619.5 "/>
<text text-anchor="middle" x="392" y="-607.5" font-family="Helvetica,sans-Serif" font-size="10.00"> </text>
</a>
</g>
</g>
<!-- Node4&#45;&gt;Node1 -->
<g id="edge3" class="edge">
<title>Node4&#45;&gt;Node1</title>
<path fill="none" stroke="#8b1a1a" d="M410.06,-590.77C425.81,-548.72 449.77,-484.76 473.32,-421.88"/>
<polygon fill="none" stroke="#8b1a1a" points="406.77,-589.6 406.54,-600.19 413.32,-592.05 406.77,-589.6"/>
</g>
<!-- Node5 -->
<g id="node5" class="node">
<title>Node5</title>
<g id="a_node5"><a xlink:href="classFeel_1_1Entity.html" target="_top" xlink:title=" ">
<polygon fill="white" stroke="#bfbfbf" points="482.5,-611.5 482.5,-668.5 613.5,-668.5 613.5,-611.5 482.5,-611.5"/>
<text text-anchor="middle" x="548" y="-656.5" font-family="Helvetica,sans-Serif" font-size="10.00">Feel::Entity&lt; ShapeE, T &gt;</text>
<polyline fill="none" stroke="#bfbfbf" points="482.5,-649.5 613.5,-649.5 "/>
<text text-anchor="middle" x="548" y="-637.5" font-family="Helvetica,sans-Serif" font-size="10.00"> </text>
<polyline fill="none" stroke="#bfbfbf" points="482.5,-630.5 613.5,-630.5 "/>
<text text-anchor="middle" x="548" y="-618.5" font-family="Helvetica,sans-Serif" font-size="10.00"> </text>
</a>
</g>
</g>
<!-- Node5&#45;&gt;Node1 -->
<g id="edge4" class="edge">
<title>Node5&#45;&gt;Node1</title>
<path fill="none" stroke="midnightblue" d="M548,-601.01C548,-563.79 548,-503.86 548,-442.56"/>
<polygon fill="none" stroke="midnightblue" points="544.5,-601.35 548,-611.35 551.5,-601.35 544.5,-601.35"/>
</g>
<!-- Node6 -->
<g id="node6" class="node">
<title>Node6</title>
<g id="a_node6"><a xlink:title=" ">
<polygon fill="white" stroke="#bfbfbf" points="631.5,-611.5 631.5,-668.5 744.5,-668.5 744.5,-611.5 631.5,-611.5"/>
<text text-anchor="middle" x="688" y="-656.5" font-family="Helvetica,sans-Serif" font-size="10.00">static const size_type</text>
<polyline fill="none" stroke="#bfbfbf" points="631.5,-649.5 744.5,-649.5 "/>
<text text-anchor="middle" x="688" y="-637.5" font-family="Helvetica,sans-Serif" font-size="10.00"> </text>
<polyline fill="none" stroke="#bfbfbf" points="631.5,-630.5 744.5,-630.5 "/>
<text text-anchor="middle" x="688" y="-618.5" font-family="Helvetica,sans-Serif" font-size="10.00"> </text>
</a>
</g>
</g>
<!-- Node6&#45;&gt;Node1 -->
<g id="edge5" class="edge">
<title>Node6&#45;&gt;Node1</title>
<path fill="none" stroke="#404040" d="M678.71,-611.35C667.37,-577.63 647.08,-517.25 625.81,-453.98"/>
<polygon fill="none" stroke="#404040" points="625.79,-453.94 620.09,-449.52 621.97,-442.56 627.67,-446.97 625.79,-453.94"/>
<text text-anchor="middle" x="693" y="-524.5" font-family="Helvetica,sans-Serif" font-size="10.00"> +Geometry</text>
<text text-anchor="middle" x="693" y="-513.5" font-family="Helvetica,sans-Serif" font-size="10.00">+Shape</text>
</g>
<!-- Node7 -->
<g id="node7" class="node">
<title>Node7</title>
<g id="a_node7"><a xlink:title=" ">
<polygon fill="white" stroke="#bfbfbf" points="762.5,-611.5 762.5,-668.5 883.5,-668.5 883.5,-611.5 762.5,-611.5"/>
<text text-anchor="middle" x="823" y="-656.5" font-family="Helvetica,sans-Serif" font-size="10.00">static const uint16_type</text>
<polyline fill="none" stroke="#bfbfbf" points="762.5,-649.5 883.5,-649.5 "/>
<text text-anchor="middle" x="823" y="-637.5" font-family="Helvetica,sans-Serif" font-size="10.00"> </text>
<polyline fill="none" stroke="#bfbfbf" points="762.5,-630.5 883.5,-630.5 "/>
<text text-anchor="middle" x="823" y="-618.5" font-family="Helvetica,sans-Serif" font-size="10.00"> </text>
</a>
</g>
</g>
<!-- Node7&#45;&gt;Node1 -->
<g id="edge6" class="edge">
<title>Node7&#45;&gt;Node1</title>
<path fill="none" stroke="#404040" d="M808.76,-611.25C790.21,-575.71 756.22,-512.55 723,-461 694.28,-416.44 660.27,-369.04 629.91,-328.33"/>
<polygon fill="none" stroke="#404040" points="629.87,-328.28 623.07,-325.87 622.68,-318.67 629.47,-321.08 629.87,-328.28"/>
<text text-anchor="middle" x="839.5" y="-574" font-family="Helvetica,sans-Serif" font-size="10.00"> +nDim</text>
<text text-anchor="middle" x="839.5" y="-563" font-family="Helvetica,sans-Serif" font-size="10.00">+nOrder</text>
<text text-anchor="middle" x="839.5" y="-552" font-family="Helvetica,sans-Serif" font-size="10.00">+nRealDim</text>
<text text-anchor="middle" x="839.5" y="-541" font-family="Helvetica,sans-Serif" font-size="10.00">+nbPtsPerEdge</text>
<text text-anchor="middle" x="839.5" y="-530" font-family="Helvetica,sans-Serif" font-size="10.00">+nbPtsPerFace</text>
<text text-anchor="middle" x="839.5" y="-519" font-family="Helvetica,sans-Serif" font-size="10.00">+nbPtsPerVertex</text>
<text text-anchor="middle" x="839.5" y="-508" font-family="Helvetica,sans-Serif" font-size="10.00">+nbPtsPerVolume</text>
<text text-anchor="middle" x="839.5" y="-497" font-family="Helvetica,sans-Serif" font-size="10.00">+numEdges</text>
<text text-anchor="middle" x="839.5" y="-486" font-family="Helvetica,sans-Serif" font-size="10.00">+numFaces</text>
<text text-anchor="middle" x="839.5" y="-475" font-family="Helvetica,sans-Serif" font-size="10.00">+numGeometricFaces</text>
<text text-anchor="middle" x="839.5" y="-464" font-family="Helvetica,sans-Serif" font-size="10.00">...</text>
</g>
<!-- Node8 -->
<g id="node8" class="node">
<title>Node8</title>
<g id="a_node8"><a xlink:href="classbool.html" target="_top" xlink:title=" ">
<polygon fill="white" stroke="#bfbfbf" points="913.5,-611.5 913.5,-668.5 948.5,-668.5 948.5,-611.5 913.5,-611.5"/>
<text text-anchor="middle" x="931" y="-656.5" font-family="Helvetica,sans-Serif" font-size="10.00">bool</text>
<polyline fill="none" stroke="#bfbfbf" points="913.5,-649.5 948.5,-649.5 "/>
<text text-anchor="middle" x="931" y="-637.5" font-family="Helvetica,sans-Serif" font-size="10.00"> </text>
<polyline fill="none" stroke="#bfbfbf" points="913.5,-630.5 948.5,-630.5 "/>
<text text-anchor="middle" x="931" y="-618.5" font-family="Helvetica,sans-Serif" font-size="10.00"> </text>
</a>
</g>
</g>
<!-- Node8&#45;&gt;Node1 -->
<g id="edge7" class="edge">
<title>Node8&#45;&gt;Node1</title>
<path fill="none" stroke="#404040" d="M931.03,-611.27C929.8,-574.05 922.98,-507.26 892,-461 828.37,-365.99 713,-297.67 633.53,-259.13"/>
<polygon fill="none" stroke="#404040" points="633.39,-259.06 626.26,-260.08 622.57,-253.89 629.7,-252.87 633.39,-259.06"/>
<text text-anchor="middle" x="961.5" y="-524.5" font-family="Helvetica,sans-Serif" font-size="10.00"> +is_hypercube</text>
<text text-anchor="middle" x="961.5" y="-513.5" font-family="Helvetica,sans-Serif" font-size="10.00">+is_simplex</text>
</g>
</g>
</svg>
