<?xml version="1.0" encoding="UTF-8" standalone="no"?>
<!DOCTYPE svg PUBLIC "-//W3C//DTD SVG 1.1//EN"
 "http://www.w3.org/Graphics/SVG/1.1/DTD/svg11.dtd">
<!-- Generated by graphviz version 2.43.0 (0)
 -->
<!-- Title: Feel::FeelModels::Electric&lt; ConvexType, BasisPotentialType &gt; Pages: 1 -->
<svg width="1033pt" height="1479pt"
 viewBox="0.00 0.00 1033.00 1479.00" xmlns="http://www.w3.org/2000/svg" xmlns:xlink="http://www.w3.org/1999/xlink">
<g id="graph0" class="graph" transform="scale(1 1) rotate(0) translate(4 1475)">
<title>Feel::FeelModels::Electric&lt; ConvexType, BasisPotentialType &gt;</title>
<polygon fill="white" stroke="transparent" points="-4,4 -4,-1475 1029,-1475 1029,4 -4,4"/>
<!-- Node1 -->
<g id="node1" class="node">
<title>Node1</title>
<g id="a_node1"><a xlink:title="Toolbox Electric.">
<polygon fill="#bfbfbf" stroke="black" points="639.5,-0.5 639.5,-123.5 836.5,-123.5 836.5,-0.5 639.5,-0.5"/>
<text text-anchor="start" x="647.5" y="-111.5" font-family="Helvetica,sans-Serif" font-size="10.00">Feel::FeelModels::Electric</text>
<text text-anchor="middle" x="738" y="-100.5" font-family="Helvetica,sans-Serif" font-size="10.00">&lt; ConvexType, BasisPotentialType &gt;</text>
<polyline fill="none" stroke="black" points="639.5,-93.5 836.5,-93.5 "/>
<text text-anchor="middle" x="738" y="-81.5" font-family="Helvetica,sans-Serif" font-size="10.00"> </text>
<polyline fill="none" stroke="black" points="639.5,-74.5 836.5,-74.5 "/>
<text text-anchor="start" x="647.5" y="-62.5" font-family="Helvetica,sans-Serif" font-size="10.00">+ buildBlockMatrixGraph()</text>
<text text-anchor="start" x="647.5" y="-51.5" font-family="Helvetica,sans-Serif" font-size="10.00">+ currentDensityExpr()</text>
<text text-anchor="start" x="647.5" y="-40.5" font-family="Helvetica,sans-Serif" font-size="10.00">+ currentDensityExpr()</text>
<text text-anchor="start" x="647.5" y="-29.5" font-family="Helvetica,sans-Serif" font-size="10.00">+ Electric()</text>
<text text-anchor="start" x="647.5" y="-18.5" font-family="Helvetica,sans-Serif" font-size="10.00">+ electricFieldExpr()</text>
<text text-anchor="start" x="647.5" y="-7.5" font-family="Helvetica,sans-Serif" font-size="10.00">and 51 more...</text>
</a>
</g>
</g>
<!-- Node2 -->
<g id="node2" class="node">
<title>Node2</title>
<g id="a_node2"><a xlink:href="classFeel_1_1FeelModels_1_1ModelNumerical.html" target="_top" xlink:title="Handles some numerical model aspects: timestepping, mesh and properties.">
<polygon fill="white" stroke="black" points="254,-354.5 254,-565.5 456,-565.5 456,-354.5 254,-354.5"/>
<text text-anchor="middle" x="355" y="-553.5" font-family="Helvetica,sans-Serif" font-size="10.00">Feel::FeelModels::ModelNumerical</text>
<polyline fill="none" stroke="black" points="254,-546.5 456,-546.5 "/>
<text text-anchor="middle" x="355" y="-534.5" font-family="Helvetica,sans-Serif" font-size="10.00"> </text>
<polyline fill="none" stroke="black" points="254,-527.5 456,-527.5 "/>
<text text-anchor="start" x="262" y="-515.5" font-family="Helvetica,sans-Serif" font-size="10.00">+ checkResults()</text>
<text text-anchor="start" x="262" y="-504.5" font-family="Helvetica,sans-Serif" font-size="10.00">+ checkResults()</text>
<text text-anchor="start" x="262" y="-493.5" font-family="Helvetica,sans-Serif" font-size="10.00">+ createBdf()</text>
<text text-anchor="start" x="262" y="-482.5" font-family="Helvetica,sans-Serif" font-size="10.00">+ currentTime()</text>
<text text-anchor="start" x="262" y="-471.5" font-family="Helvetica,sans-Serif" font-size="10.00">+ doRestart()</text>
<text text-anchor="start" x="262" y="-460.5" font-family="Helvetica,sans-Serif" font-size="10.00">and 53 more...</text>
<text text-anchor="start" x="262" y="-449.5" font-family="Helvetica,sans-Serif" font-size="10.00"># addPostProcessExportsAll</text>
<text text-anchor="start" x="262" y="-438.5" font-family="Helvetica,sans-Serif" font-size="10.00">FieldsAvailable()</text>
<text text-anchor="start" x="262" y="-427.5" font-family="Helvetica,sans-Serif" font-size="10.00"># addPostProcessExportsAll</text>
<text text-anchor="start" x="262" y="-416.5" font-family="Helvetica,sans-Serif" font-size="10.00">FieldsAvailable()</text>
<text text-anchor="start" x="262" y="-405.5" font-family="Helvetica,sans-Serif" font-size="10.00"># addPostProcessMeasuresQuantities</text>
<text text-anchor="start" x="262" y="-394.5" font-family="Helvetica,sans-Serif" font-size="10.00">AllNamesAvailable()</text>
<text text-anchor="start" x="262" y="-383.5" font-family="Helvetica,sans-Serif" font-size="10.00"># initPostProcess()</text>
<text text-anchor="start" x="262" y="-372.5" font-family="Helvetica,sans-Serif" font-size="10.00"># initPostProcessMeshes()</text>
<text text-anchor="start" x="262" y="-361.5" font-family="Helvetica,sans-Serif" font-size="10.00">and 10 more...</text>
</a>
</g>
</g>
<!-- Node2&#45;&gt;Node1 -->
<g id="edge1" class="edge">
<title>Node2&#45;&gt;Node1</title>
<path fill="none" stroke="midnightblue" d="M463.29,-347.04C533.39,-274.55 621.97,-182.97 679.29,-123.7"/>
<polygon fill="none" stroke="midnightblue" points="460.57,-344.82 456.13,-354.44 465.6,-349.68 460.57,-344.82"/>
</g>
<!-- Node3 -->
<g id="node3" class="node">
<title>Node3</title>
<g id="a_node3"><a xlink:href="classFeel_1_1FeelModels_1_1ModelBase.html" target="_top" xlink:title=" ">
<polygon fill="white" stroke="black" points="263,-878 263,-990 455,-990 455,-878 263,-878"/>
<text text-anchor="middle" x="359" y="-978" font-family="Helvetica,sans-Serif" font-size="10.00">Feel::FeelModels::ModelBase</text>
<polyline fill="none" stroke="black" points="263,-971 455,-971 "/>
<text text-anchor="middle" x="359" y="-959" font-family="Helvetica,sans-Serif" font-size="10.00"> </text>
<polyline fill="none" stroke="black" points="263,-952 455,-952 "/>
<text text-anchor="start" x="271" y="-940" font-family="Helvetica,sans-Serif" font-size="10.00">+ addParameterInModelProperties()</text>
<text text-anchor="start" x="271" y="-929" font-family="Helvetica,sans-Serif" font-size="10.00">+ addTimerTool()</text>
<text text-anchor="start" x="271" y="-918" font-family="Helvetica,sans-Serif" font-size="10.00">+ clovm()</text>
<text text-anchor="start" x="271" y="-907" font-family="Helvetica,sans-Serif" font-size="10.00">+ createWorldsComm()</text>
<text text-anchor="start" x="271" y="-896" font-family="Helvetica,sans-Serif" font-size="10.00">+ hasModelProperties()</text>
<text text-anchor="start" x="271" y="-885" font-family="Helvetica,sans-Serif" font-size="10.00">and 53 more...</text>
</a>
</g>
</g>
<!-- Node3&#45;&gt;Node2 -->
<g id="edge2" class="edge">
<title>Node3&#45;&gt;Node2</title>
<path fill="none" stroke="midnightblue" d="M381.05,-868.2C389.03,-841.53 397.05,-810.12 401,-781 408.41,-726.39 407.34,-711.75 401,-657 397.53,-627.05 391.18,-595.04 384.28,-565.75"/>
<polygon fill="none" stroke="midnightblue" points="377.69,-867.22 378.12,-877.8 384.39,-869.26 377.69,-867.22"/>
</g>
<!-- Node7 -->
<g id="node7" class="node">
<title>Node7</title>
<g id="a_node7"><a xlink:href="classFeel_1_1FeelModels_1_1ModelAlgebraic.html" target="_top" xlink:title=" ">
<polygon fill="white" stroke="black" points="0,-663 0,-775 180,-775 180,-663 0,-663"/>
<text text-anchor="middle" x="90" y="-763" font-family="Helvetica,sans-Serif" font-size="10.00">Feel::FeelModels::ModelAlgebraic</text>
<polyline fill="none" stroke="black" points="0,-756 180,-756 "/>
<text text-anchor="middle" x="90" y="-744" font-family="Helvetica,sans-Serif" font-size="10.00"> </text>
<polyline fill="none" stroke="black" points="0,-737 180,-737 "/>
<text text-anchor="start" x="8" y="-725" font-family="Helvetica,sans-Serif" font-size="10.00">+ algebraicBackend()</text>
<text text-anchor="start" x="8" y="-714" font-family="Helvetica,sans-Serif" font-size="10.00">+ algebraicBlockVectorSolution()</text>
<text text-anchor="start" x="8" y="-703" font-family="Helvetica,sans-Serif" font-size="10.00">+ algebraicFactory()</text>
<text text-anchor="start" x="8" y="-692" font-family="Helvetica,sans-Serif" font-size="10.00">+ backend()</text>
<text text-anchor="start" x="8" y="-681" font-family="Helvetica,sans-Serif" font-size="10.00">+ blockPattern()</text>
<text text-anchor="start" x="8" y="-670" font-family="Helvetica,sans-Serif" font-size="10.00">and 75 more...</text>
</a>
</g>
</g>
<!-- Node3&#45;&gt;Node7 -->
<g id="edge7" class="edge">
<title>Node3&#45;&gt;Node7</title>
<path fill="none" stroke="midnightblue" d="M281.31,-871.48C242.95,-841.11 197.03,-804.75 159.8,-775.27"/>
<polygon fill="none" stroke="midnightblue" points="279.36,-874.41 289.38,-877.87 283.71,-868.92 279.36,-874.41"/>
</g>
<!-- Node4 -->
<g id="node4" class="node">
<title>Node4</title>
<g id="a_node4"><a xlink:href="classFeel_1_1JournalWatcher.html" target="_top" xlink:title=" ">
<polygon fill="white" stroke="black" points="458,-1087.5 458,-1375.5 634,-1375.5 634,-1087.5 458,-1087.5"/>
<text text-anchor="middle" x="546" y="-1363.5" font-family="Helvetica,sans-Serif" font-size="10.00">Feel::JournalWatcher</text>
<polyline fill="none" stroke="black" points="458,-1356.5 634,-1356.5 "/>
<text text-anchor="middle" x="546" y="-1344.5" font-family="Helvetica,sans-Serif" font-size="10.00"> </text>
<polyline fill="none" stroke="black" points="458,-1337.5 634,-1337.5 "/>
<text text-anchor="start" x="466" y="-1325.5" font-family="Helvetica,sans-Serif" font-size="10.00">* JournalWatcher()</text>
<text text-anchor="start" x="466" y="-1314.5" font-family="Helvetica,sans-Serif" font-size="10.00">* JournalWatcher()</text>
<text text-anchor="start" x="466" y="-1303.5" font-family="Helvetica,sans-Serif" font-size="10.00">* JournalWatcher()</text>
<text text-anchor="start" x="466" y="-1292.5" font-family="Helvetica,sans-Serif" font-size="10.00">* JournalWatcher()</text>
<text text-anchor="start" x="466" y="-1281.5" font-family="Helvetica,sans-Serif" font-size="10.00">* ~JournalWatcher()</text>
<text text-anchor="start" x="466" y="-1270.5" font-family="Helvetica,sans-Serif" font-size="10.00">* journalIsConnected()</text>
<text text-anchor="start" x="466" y="-1259.5" font-family="Helvetica,sans-Serif" font-size="10.00">* journalWatcherInstanceName()</text>
<text text-anchor="start" x="466" y="-1248.5" font-family="Helvetica,sans-Serif" font-size="10.00">* journalSection()</text>
<text text-anchor="start" x="466" y="-1237.5" font-family="Helvetica,sans-Serif" font-size="10.00">* informationObject()</text>
<text text-anchor="start" x="466" y="-1226.5" font-family="Helvetica,sans-Serif" font-size="10.00">* journalConnect()</text>
<text text-anchor="start" x="466" y="-1215.5" font-family="Helvetica,sans-Serif" font-size="10.00">* journalDisconnect()</text>
<text text-anchor="start" x="466" y="-1204.5" font-family="Helvetica,sans-Serif" font-size="10.00">* updateInformationObject()</text>
<text text-anchor="start" x="466" y="-1193.5" font-family="Helvetica,sans-Serif" font-size="10.00">* setInformationObject()</text>
<text text-anchor="start" x="466" y="-1182.5" font-family="Helvetica,sans-Serif" font-size="10.00">* putInformationObject()</text>
<text text-anchor="start" x="466" y="-1171.5" font-family="Helvetica,sans-Serif" font-size="10.00">and 4 more...</text>
<text text-anchor="start" x="466" y="-1160.5" font-family="Helvetica,sans-Serif" font-size="10.00">* M_journal_is_connected</text>
<text text-anchor="start" x="466" y="-1149.5" font-family="Helvetica,sans-Serif" font-size="10.00">* M_category</text>
<text text-anchor="start" x="466" y="-1138.5" font-family="Helvetica,sans-Serif" font-size="10.00">* M_name</text>
<text text-anchor="start" x="466" y="-1127.5" font-family="Helvetica,sans-Serif" font-size="10.00">* M_function_updateInformation</text>
<text text-anchor="start" x="466" y="-1116.5" font-family="Helvetica,sans-Serif" font-size="10.00">Object</text>
<text text-anchor="start" x="466" y="-1105.5" font-family="Helvetica,sans-Serif" font-size="10.00">* M_informationObject</text>
<text text-anchor="start" x="466" y="-1094.5" font-family="Helvetica,sans-Serif" font-size="10.00">* S_counterObjectByCategory</text>
</a>
</g>
</g>
<!-- Node4&#45;&gt;Node3 -->
<g id="edge3" class="edge">
<title>Node4&#45;&gt;Node3</title>
<path fill="none" stroke="midnightblue" d="M452.37,-1082.55C431.47,-1049.52 410.58,-1016.51 393.87,-990.1"/>
<polygon fill="none" stroke="midnightblue" points="449.67,-1084.82 457.98,-1091.4 455.59,-1081.08 449.67,-1084.82"/>
</g>
<!-- Node15 -->
<g id="node15" class="node">
<title>Node15</title>
<g id="a_node15"><a xlink:href="classFeel_1_1FeelModels_1_1ModelPhysic.html" target="_top" xlink:title=" ">
<polygon fill="white" stroke="black" points="473.5,-828.5 473.5,-1039.5 664.5,-1039.5 664.5,-828.5 473.5,-828.5"/>
<text text-anchor="start" x="481.5" y="-1027.5" font-family="Helvetica,sans-Serif" font-size="10.00">Feel::FeelModels::ModelPhysic</text>
<text text-anchor="middle" x="569" y="-1016.5" font-family="Helvetica,sans-Serif" font-size="10.00">&lt; nDim &gt;</text>
<polyline fill="none" stroke="black" points="473.5,-1009.5 664.5,-1009.5 "/>
<text text-anchor="middle" x="569" y="-997.5" font-family="Helvetica,sans-Serif" font-size="10.00"> </text>
<polyline fill="none" stroke="black" points="473.5,-990.5 664.5,-990.5 "/>
<text text-anchor="start" x="481.5" y="-978.5" font-family="Helvetica,sans-Serif" font-size="10.00">+ addMaterialNames()</text>
<text text-anchor="start" x="481.5" y="-967.5" font-family="Helvetica,sans-Serif" font-size="10.00">+ addMaterialPropertyDescription()</text>
<text text-anchor="start" x="481.5" y="-956.5" font-family="Helvetica,sans-Serif" font-size="10.00">+ addParameter()</text>
<text text-anchor="start" x="481.5" y="-945.5" font-family="Helvetica,sans-Serif" font-size="10.00">+ addParameter()</text>
<text text-anchor="start" x="481.5" y="-934.5" font-family="Helvetica,sans-Serif" font-size="10.00">+ addParameter()</text>
<text text-anchor="start" x="481.5" y="-923.5" font-family="Helvetica,sans-Serif" font-size="10.00">and 28 more...</text>
<text text-anchor="start" x="481.5" y="-912.5" font-family="Helvetica,sans-Serif" font-size="10.00">+ New()</text>
<text text-anchor="start" x="481.5" y="-901.5" font-family="Helvetica,sans-Serif" font-size="10.00"># parameterModelExpr()</text>
<text text-anchor="start" x="481.5" y="-890.5" font-family="Helvetica,sans-Serif" font-size="10.00"># updateTabulateInformations</text>
<text text-anchor="start" x="481.5" y="-879.5" font-family="Helvetica,sans-Serif" font-size="10.00">Basic()</text>
<text text-anchor="start" x="481.5" y="-868.5" font-family="Helvetica,sans-Serif" font-size="10.00"># updateTabulateInformations</text>
<text text-anchor="start" x="481.5" y="-857.5" font-family="Helvetica,sans-Serif" font-size="10.00">Parameters()</text>
<text text-anchor="start" x="481.5" y="-846.5" font-family="Helvetica,sans-Serif" font-size="10.00"># updateTabulateInformations</text>
<text text-anchor="start" x="481.5" y="-835.5" font-family="Helvetica,sans-Serif" font-size="10.00">Subphysics()</text>
</a>
</g>
</g>
<!-- Node4&#45;&gt;Node15 -->
<g id="edge16" class="edge">
<title>Node4&#45;&gt;Node15</title>
<path fill="none" stroke="midnightblue" d="M557.95,-1076.93C558.94,-1064.29 559.92,-1051.7 560.86,-1039.54"/>
<polygon fill="none" stroke="midnightblue" points="554.45,-1076.84 557.16,-1087.08 561.43,-1077.38 554.45,-1076.84"/>
</g>
<!-- Node5 -->
<g id="node5" class="node">
<title>Node5</title>
<g id="a_node5"><a xlink:title=" ">
<polygon fill="white" stroke="#bfbfbf" points="492.5,-1413.5 492.5,-1470.5 599.5,-1470.5 599.5,-1413.5 492.5,-1413.5"/>
<text text-anchor="middle" x="546" y="-1458.5" font-family="Helvetica,sans-Serif" font-size="10.00">Event::SlotHandler</text>
<polyline fill="none" stroke="#bfbfbf" points="492.5,-1451.5 599.5,-1451.5 "/>
<text text-anchor="middle" x="546" y="-1439.5" font-family="Helvetica,sans-Serif" font-size="10.00"> </text>
<polyline fill="none" stroke="#bfbfbf" points="492.5,-1432.5 599.5,-1432.5 "/>
<text text-anchor="middle" x="546" y="-1420.5" font-family="Helvetica,sans-Serif" font-size="10.00"> </text>
</a>
</g>
</g>
<!-- Node5&#45;&gt;Node4 -->
<g id="edge4" class="edge">
<title>Node5&#45;&gt;Node4</title>
<path fill="none" stroke="midnightblue" d="M546,-1403.25C546,-1394.86 546,-1385.49 546,-1375.57"/>
<polygon fill="none" stroke="midnightblue" points="542.5,-1403.31 546,-1413.31 549.5,-1403.31 542.5,-1403.31"/>
</g>
<!-- Node6 -->
<g id="node6" class="node">
<title>Node6</title>
<g id="a_node6"><a xlink:title=" ">
<polygon fill="white" stroke="#bfbfbf" points="286.5,-1197.5 286.5,-1265.5 431.5,-1265.5 431.5,-1197.5 286.5,-1197.5"/>
<text text-anchor="start" x="294.5" y="-1253.5" font-family="Helvetica,sans-Serif" font-size="10.00">std::enable_shared</text>
<text text-anchor="middle" x="359" y="-1242.5" font-family="Helvetica,sans-Serif" font-size="10.00">_from_this&lt; ModelBase &gt;</text>
<polyline fill="none" stroke="#bfbfbf" points="286.5,-1235.5 431.5,-1235.5 "/>
<text text-anchor="middle" x="359" y="-1223.5" font-family="Helvetica,sans-Serif" font-size="10.00"> </text>
<polyline fill="none" stroke="#bfbfbf" points="286.5,-1216.5 431.5,-1216.5 "/>
<text text-anchor="middle" x="359" y="-1204.5" font-family="Helvetica,sans-Serif" font-size="10.00"> </text>
</a>
</g>
</g>
<!-- Node6&#45;&gt;Node3 -->
<g id="edge5" class="edge">
<title>Node6&#45;&gt;Node3</title>
<path fill="none" stroke="midnightblue" d="M359,-1187.2C359,-1134.99 359,-1047.16 359,-990.15"/>
<polygon fill="none" stroke="midnightblue" points="355.5,-1187.46 359,-1197.46 362.5,-1187.46 355.5,-1187.46"/>
</g>
<!-- Node7&#45;&gt;Node2 -->
<g id="edge6" class="edge">
<title>Node7&#45;&gt;Node2</title>
<path fill="none" stroke="midnightblue" d="M154.3,-655.64C184.19,-626.65 220.44,-591.5 253.86,-559.08"/>
<polygon fill="none" stroke="midnightblue" points="151.59,-653.39 146.85,-662.87 156.46,-658.42 151.59,-653.39"/>
</g>
<!-- Node8 -->
<g id="node8" class="node">
<title>Node8</title>
<g id="a_node8"><a xlink:href="classFeel_1_1FeelModels_1_1ModelMeshes.html" target="_top" xlink:title=" ">
<polygon fill="white" stroke="black" points="198,-657.5 198,-780.5 392,-780.5 392,-657.5 198,-657.5"/>
<text text-anchor="start" x="206" y="-768.5" font-family="Helvetica,sans-Serif" font-size="10.00">Feel::FeelModels::ModelMeshes</text>
<text text-anchor="middle" x="295" y="-757.5" font-family="Helvetica,sans-Serif" font-size="10.00">&lt; ModelAlgebraic::index_type &gt;</text>
<polyline fill="none" stroke="black" points="198,-750.5 392,-750.5 "/>
<text text-anchor="middle" x="295" y="-738.5" font-family="Helvetica,sans-Serif" font-size="10.00"> </text>
<polyline fill="none" stroke="black" points="198,-731.5 392,-731.5 "/>
<text text-anchor="start" x="206" y="-719.5" font-family="Helvetica,sans-Serif" font-size="10.00">+ applyRemesh()</text>
<text text-anchor="start" x="206" y="-708.5" font-family="Helvetica,sans-Serif" font-size="10.00">+ hasMeshMotion()</text>
<text text-anchor="start" x="206" y="-697.5" font-family="Helvetica,sans-Serif" font-size="10.00">+ hasModelMesh()</text>
<text text-anchor="start" x="206" y="-686.5" font-family="Helvetica,sans-Serif" font-size="10.00">+ initMeasurePointsEvaluationTool()</text>
<text text-anchor="start" x="206" y="-675.5" font-family="Helvetica,sans-Serif" font-size="10.00">+ measurePointsEvaluationTool()</text>
<text text-anchor="start" x="206" y="-664.5" font-family="Helvetica,sans-Serif" font-size="10.00">and 23 more...</text>
</a>
</g>
</g>
<!-- Node8&#45;&gt;Node2 -->
<g id="edge8" class="edge">
<title>Node8&#45;&gt;Node2</title>
<path fill="none" stroke="midnightblue" d="M311.44,-647.57C317.34,-622.3 324.13,-593.23 330.56,-565.68"/>
<polygon fill="none" stroke="midnightblue" points="308.01,-646.89 309.14,-657.42 314.83,-648.48 308.01,-646.89"/>
</g>
<!-- Node9 -->
<g id="node9" class="node">
<title>Node9</title>
<g id="a_node9"><a xlink:href="classFeel_1_1FeelModels_1_1ModelPhysics.html" target="_top" xlink:title=" ">
<polygon fill="white" stroke="black" points="652.5,-161.5 652.5,-306.5 823.5,-306.5 823.5,-161.5 652.5,-161.5"/>
<text text-anchor="start" x="660.5" y="-294.5" font-family="Helvetica,sans-Serif" font-size="10.00">Feel::FeelModels::ModelPhysics</text>
<text text-anchor="middle" x="738" y="-283.5" font-family="Helvetica,sans-Serif" font-size="10.00">&lt; ConvexType::nDim &gt;</text>
<polyline fill="none" stroke="black" points="652.5,-276.5 823.5,-276.5 "/>
<text text-anchor="middle" x="738" y="-264.5" font-family="Helvetica,sans-Serif" font-size="10.00"> </text>
<polyline fill="none" stroke="black" points="652.5,-257.5 823.5,-257.5 "/>
<text text-anchor="start" x="660.5" y="-245.5" font-family="Helvetica,sans-Serif" font-size="10.00">+ addPhysics()</text>
<text text-anchor="start" x="660.5" y="-234.5" font-family="Helvetica,sans-Serif" font-size="10.00">+ hasPhysic()</text>
<text text-anchor="start" x="660.5" y="-223.5" font-family="Helvetica,sans-Serif" font-size="10.00">+ initPhysics()</text>
<text text-anchor="start" x="660.5" y="-212.5" font-family="Helvetica,sans-Serif" font-size="10.00">+ initPhysics()</text>
<text text-anchor="start" x="660.5" y="-201.5" font-family="Helvetica,sans-Serif" font-size="10.00">+ ModelPhysics()</text>
<text text-anchor="start" x="660.5" y="-190.5" font-family="Helvetica,sans-Serif" font-size="10.00">and 18 more...</text>
<text text-anchor="start" x="660.5" y="-179.5" font-family="Helvetica,sans-Serif" font-size="10.00"># initPhysics()</text>
<text text-anchor="start" x="660.5" y="-168.5" font-family="Helvetica,sans-Serif" font-size="10.00"># updatePhysics()</text>
</a>
</g>
</g>
<!-- Node9&#45;&gt;Node1 -->
<g id="edge9" class="edge">
<title>Node9&#45;&gt;Node1</title>
<path fill="none" stroke="midnightblue" d="M738,-151.36C738,-142.06 738,-132.72 738,-123.76"/>
<polygon fill="none" stroke="midnightblue" points="734.5,-151.4 738,-161.4 741.5,-151.4 734.5,-151.4"/>
</g>
<!-- Node10 -->
<g id="node10" class="node">
<title>Node10</title>
<g id="a_node10"><a xlink:title=" ">
<polygon fill="white" stroke="#bfbfbf" points="671,-1203 671,-1260 805,-1260 805,-1203 671,-1203"/>
<text text-anchor="middle" x="738" y="-1248" font-family="Helvetica,sans-Serif" font-size="10.00">static const uint16_type</text>
<polyline fill="none" stroke="#bfbfbf" points="671,-1241 805,-1241 "/>
<text text-anchor="middle" x="738" y="-1229" font-family="Helvetica,sans-Serif" font-size="10.00"> </text>
<polyline fill="none" stroke="#bfbfbf" points="671,-1222 805,-1222 "/>
<text text-anchor="middle" x="738" y="-1210" font-family="Helvetica,sans-Serif" font-size="10.00"> </text>
</a>
</g>
</g>
<!-- Node10&#45;&gt;Node1 -->
<g id="edge19" class="edge">
<title>Node10&#45;&gt;Node1</title>
<path fill="none" stroke="#404040" d="M771.18,-1202.84C825.15,-1154.53 926,-1049.01 926,-935 926,-935 926,-935 926,-233 926,-182.59 888.35,-143.25 846.74,-115.17"/>
<polygon fill="none" stroke="#404040" points="846.74,-115.17 839.53,-115.26 836.68,-108.63 843.89,-108.55 846.74,-115.17"/>
<text text-anchor="middle" x="975.5" y="-631" font-family="Helvetica,sans-Serif" font-size="10.00"> +nDim</text>
<text text-anchor="middle" x="975.5" y="-620" font-family="Helvetica,sans-Serif" font-size="10.00">+nOrderGeo</text>
<text text-anchor="middle" x="975.5" y="-609" font-family="Helvetica,sans-Serif" font-size="10.00">+nRealDim</text>
<text text-anchor="start" x="926" y="-598" font-family="Helvetica,sans-Serif" font-size="10.00">+nOrderPolyElectric</text>
<text text-anchor="middle" x="975.5" y="-587" font-family="Helvetica,sans-Serif" font-size="10.00">Potential</text>
</g>
<!-- Node10&#45;&gt;Node9 -->
<g id="edge10" class="edge">
<title>Node10&#45;&gt;Node9</title>
<path fill="none" stroke="#404040" d="M738,-1202.8C738,-1150.47 738,-1033.5 738,-935 738,-935 738,-935 738,-459 738,-412.63 738,-360.87 738,-318.79"/>
<polygon fill="none" stroke="#404040" points="738,-318.62 734,-312.62 738,-306.62 742,-312.62 738,-318.62"/>
<text text-anchor="middle" x="757" y="-716.5" font-family="Helvetica,sans-Serif" font-size="10.00"> +nDim</text>
</g>
<!-- Node10&#45;&gt;Node15 -->
<g id="edge17" class="edge">
<title>Node10&#45;&gt;Node15</title>
<path fill="none" stroke="#404040" d="M722.25,-1202.97C702.35,-1168.17 666.85,-1106.1 635.03,-1050.45"/>
<polygon fill="none" stroke="#404040" points="634.88,-1050.2 628.43,-1046.98 628.93,-1039.78 635.38,-1043 634.88,-1050.2"/>
<text text-anchor="middle" x="662" y="-1061" font-family="Helvetica,sans-Serif" font-size="10.00"> +nDim</text>
</g>
<!-- Node11 -->
<g id="node11" class="node">
<title>Node11</title>
<g id="a_node11"><a xlink:title="STL class.">
<polygon fill="white" stroke="#bfbfbf" points="794.5,-431.5 794.5,-488.5 859.5,-488.5 859.5,-431.5 794.5,-431.5"/>
<text text-anchor="middle" x="827" y="-476.5" font-family="Helvetica,sans-Serif" font-size="10.00">std::string</text>
<polyline fill="none" stroke="#bfbfbf" points="794.5,-469.5 859.5,-469.5 "/>
<text text-anchor="middle" x="827" y="-457.5" font-family="Helvetica,sans-Serif" font-size="10.00"> </text>
<polyline fill="none" stroke="#bfbfbf" points="794.5,-450.5 859.5,-450.5 "/>
<text text-anchor="middle" x="827" y="-438.5" font-family="Helvetica,sans-Serif" font-size="10.00"> </text>
</a>
</g>
</g>
<!-- Node11&#45;&gt;Node9 -->
<g id="edge11" class="edge">
<title>Node11&#45;&gt;Node9</title>
<path fill="none" stroke="#404040" d="M815.91,-431.08C804.69,-402.84 786.79,-357.79 770.98,-317.99"/>
<polygon fill="none" stroke="#404040" points="770.9,-317.81 764.97,-313.71 766.47,-306.65 772.4,-310.75 770.9,-317.81"/>
<text text-anchor="middle" x="828.5" y="-328" font-family="Helvetica,sans-Serif" font-size="10.00"> #M_physicModeling</text>
</g>
<!-- Node12 -->
<g id="node12" class="node">
<title>Node12</title>
<g id="a_node12"><a xlink:title="STL class.">
<polygon fill="white" stroke="#bfbfbf" points="794,-685 794,-753 898,-753 898,-685 794,-685"/>
<text text-anchor="start" x="802" y="-741" font-family="Helvetica,sans-Serif" font-size="10.00">std::basic_string&lt;</text>
<text text-anchor="middle" x="846" y="-730" font-family="Helvetica,sans-Serif" font-size="10.00"> char &gt;</text>
<polyline fill="none" stroke="#bfbfbf" points="794,-723 898,-723 "/>
<text text-anchor="middle" x="846" y="-711" font-family="Helvetica,sans-Serif" font-size="10.00"> </text>
<polyline fill="none" stroke="#bfbfbf" points="794,-704 898,-704 "/>
<text text-anchor="middle" x="846" y="-692" font-family="Helvetica,sans-Serif" font-size="10.00"> </text>
</a>
</g>
</g>
<!-- Node12&#45;&gt;Node11 -->
<g id="edge12" class="edge">
<title>Node12&#45;&gt;Node11</title>
<path fill="none" stroke="midnightblue" d="M842.81,-674.83C838.89,-621.86 832.37,-533.58 829.06,-488.83"/>
<polygon fill="none" stroke="midnightblue" points="839.33,-675.21 843.55,-684.93 846.31,-674.7 839.33,-675.21"/>
</g>
<!-- Node13 -->
<g id="node13" class="node">
<title>Node13</title>
<g id="a_node13"><a xlink:title=" ">
<polygon fill="white" stroke="#bfbfbf" points="533.5,-415 533.5,-505 710.5,-505 710.5,-415 533.5,-415"/>
<text text-anchor="start" x="541.5" y="-493" font-family="Helvetica,sans-Serif" font-size="10.00">std::map&lt; physic_id</text>
<text text-anchor="start" x="541.5" y="-482" font-family="Helvetica,sans-Serif" font-size="10.00">_type, std::shared_ptr</text>
<text text-anchor="start" x="541.5" y="-471" font-family="Helvetica,sans-Serif" font-size="10.00">&lt; Feel::FeelModels::ModelPhysic</text>
<text text-anchor="middle" x="622" y="-460" font-family="Helvetica,sans-Serif" font-size="10.00">&lt; nDim &gt; &gt; &gt;</text>
<polyline fill="none" stroke="#bfbfbf" points="533.5,-453 710.5,-453 "/>
<text text-anchor="middle" x="622" y="-441" font-family="Helvetica,sans-Serif" font-size="10.00"> </text>
<polyline fill="none" stroke="#bfbfbf" points="533.5,-434 710.5,-434 "/>
<text text-anchor="middle" x="622" y="-422" font-family="Helvetica,sans-Serif" font-size="10.00"> </text>
</a>
</g>
</g>
<!-- Node13&#45;&gt;Node9 -->
<g id="edge13" class="edge">
<title>Node13&#45;&gt;Node9</title>
<path fill="none" stroke="#404040" d="M629.88,-414.94C635.9,-387.88 645.79,-353.14 661,-325 662.48,-322.27 664.04,-319.55 665.69,-316.84"/>
<polygon fill="none" stroke="#404040" points="665.86,-316.59 665.77,-309.37 672.39,-306.52 672.48,-313.73 665.86,-316.59"/>
<text text-anchor="middle" x="692.5" y="-328" font-family="Helvetica,sans-Serif" font-size="10.00"> #M_physics</text>
</g>
<!-- Node14 -->
<g id="node14" class="node">
<title>Node14</title>
<g id="a_node14"><a xlink:title=" ">
<polygon fill="white" stroke="#bfbfbf" points="448,-679.5 448,-758.5 594,-758.5 594,-679.5 448,-679.5"/>
<text text-anchor="start" x="456" y="-746.5" font-family="Helvetica,sans-Serif" font-size="10.00">std::shared_ptr&lt; Feel</text>
<text text-anchor="start" x="456" y="-735.5" font-family="Helvetica,sans-Serif" font-size="10.00">::FeelModels::ModelPhysic</text>
<text text-anchor="middle" x="521" y="-724.5" font-family="Helvetica,sans-Serif" font-size="10.00">&lt; nDim &gt; &gt;</text>
<polyline fill="none" stroke="#bfbfbf" points="448,-717.5 594,-717.5 "/>
<text text-anchor="middle" x="521" y="-705.5" font-family="Helvetica,sans-Serif" font-size="10.00"> </text>
<polyline fill="none" stroke="#bfbfbf" points="448,-698.5 594,-698.5 "/>
<text text-anchor="start" x="456" y="-686.5" font-family="Helvetica,sans-Serif" font-size="10.00">+ operator&#45;&gt;()</text>
</a>
</g>
</g>
<!-- Node14&#45;&gt;Node13 -->
<g id="edge14" class="edge">
<title>Node14&#45;&gt;Node13</title>
<path fill="none" stroke="#404040" d="M536.23,-679.25C553.22,-636.02 580.84,-565.72 600.14,-516.63"/>
<polygon fill="none" stroke="#404040" points="600.22,-516.42 598.69,-509.37 604.61,-505.25 606.14,-512.3 600.22,-516.42"/>
<text text-anchor="middle" x="600" y="-609" font-family="Helvetica,sans-Serif" font-size="10.00"> +elements</text>
</g>
<!-- Node15&#45;&gt;Node14 -->
<g id="edge15" class="edge">
<title>Node15&#45;&gt;Node14</title>
<path fill="none" stroke="#404040" d="M545.42,-828.37C540.9,-808.3 536.35,-788.13 532.43,-770.73"/>
<polygon fill="none" stroke="#404040" points="532.4,-770.58 527.18,-765.61 529.76,-758.88 534.98,-763.85 532.4,-770.58"/>
<text text-anchor="middle" x="552.5" y="-802" font-family="Helvetica,sans-Serif" font-size="10.00"> +ptr</text>
</g>
<!-- Node16 -->
<g id="node16" class="node">
<title>Node16</title>
<g id="a_node16"><a xlink:href="classphysic__id__type.html" target="_top" xlink:title=" ">
<polygon fill="white" stroke="black" points="612.5,-690.5 612.5,-747.5 701.5,-747.5 701.5,-690.5 612.5,-690.5"/>
<text text-anchor="middle" x="657" y="-735.5" font-family="Helvetica,sans-Serif" font-size="10.00">physic_id_type</text>
<polyline fill="none" stroke="black" points="612.5,-728.5 701.5,-728.5 "/>
<text text-anchor="middle" x="657" y="-716.5" font-family="Helvetica,sans-Serif" font-size="10.00"> </text>
<polyline fill="none" stroke="black" points="612.5,-709.5 701.5,-709.5 "/>
<text text-anchor="middle" x="657" y="-697.5" font-family="Helvetica,sans-Serif" font-size="10.00"> </text>
</a>
</g>
</g>
<!-- Node16&#45;&gt;Node13 -->
<g id="edge18" class="edge">
<title>Node16&#45;&gt;Node13</title>
<path fill="none" stroke="#404040" d="M653.25,-690.5C647.66,-649.41 637,-571.11 629.7,-517.5"/>
<polygon fill="none" stroke="#404040" points="629.67,-517.34 624.9,-511.94 628.05,-505.45 632.83,-510.86 629.67,-517.34"/>
<text text-anchor="middle" x="662" y="-609" font-family="Helvetica,sans-Serif" font-size="10.00"> +keys</text>
</g>
</g>
</svg>
