<?xml version="1.0" encoding="UTF-8" standalone="no"?>
<!DOCTYPE svg PUBLIC "-//W3C//DTD SVG 1.1//EN"
 "http://www.w3.org/Graphics/SVG/1.1/DTD/svg11.dtd">
<!-- Generated by graphviz version 2.43.0 (0)
 -->
<!-- Title: Feel::BVH_ThirdParty&lt; MeshEntityType &gt; Pages: 1 -->
<!--zoomable 558 -->
<svg id="main" version="1.1" xmlns="http://www.w3.org/2000/svg" xmlns:xlink="http://www.w3.org/1999/xlink" xml:space="preserve" onload="init(evt)">
<style type="text/css"><![CDATA[
.edge:hover path { stroke: red; }
.edge:hover polygon { stroke: red; fill: red; }
]]></style>
<script type="text/javascript"><![CDATA[
var edges = document.getElementsByTagName('g');
if (edges && edges.length) {
  for (var i=0;i<edges.length;i++) {
    if (edges[i].id.substr(0,4)=='edge') {
      edges[i].setAttribute('class','edge');
    }
  }
}
]]></script>
        <defs>
                <circle id="rim" cx="0" cy="0" r="7"/>
                <circle id="rim2" cx="0" cy="0" r="3.5"/>
                <g id="zoomPlus">
                        <use xlink:href="#rim" fill="#404040">
                                <set attributeName="fill" to="#808080" begin="zoomplus.mouseover" end="zoomplus.mouseout"/>
                        </use>
                        <path d="M-4,0h8M0,-4v8" fill="none" stroke="white" stroke-width="1.5" pointer-events="none"/>
                </g>
                <g id="zoomMin">
                        <use xlink:href="#rim" fill="#404040">
                                <set attributeName="fill" to="#808080" begin="zoomminus.mouseover" end="zoomminus.mouseout"/>
                        </use>
                        <path d="M-4,0h8" fill="none" stroke="white" stroke-width="1.5" pointer-events="none"/>
                </g>
                <g id="dirArrow">
                        <path fill="none" stroke="white" stroke-width="1.5" d="M0,-3.0v7 M-2.5,-0.5L0,-3.0L2.5,-0.5"/>
                </g>
               <g id="resetDef">
                       <use xlink:href="#rim2" fill="#404040">
                               <set attributeName="fill" to="#808080" begin="reset.mouseover" end="reset.mouseout"/>
                       </use>
               </g>
        </defs>

<script type="text/javascript">
var viewWidth = 413;
var viewHeight = 558;
var sectionId = 'dynsection-1';
</script>
<script xlink:href="svgpan.js"/>
<svg id="graph" class="graph">
<g id="viewport">
<title>Feel::BVH_ThirdParty&lt; MeshEntityType &gt;</title>
<polygon fill="white" stroke="transparent" points="-4,4 -4,-554 408.5,-554 408.5,4 -4,4"/>
<!-- Node1 -->
<g id="node1" class="node">
<title>Node1</title>
<g id="a_node1"><a xlink:title="implementation of BVH tool with an external third party">
<polygon fill="#bfbfbf" stroke="black" points="183,-0.5 183,-101.5 302,-101.5 302,-0.5 183,-0.5"/>
<text text-anchor="start" x="191" y="-89.5" font-family="Helvetica,sans-Serif" font-size="10.00">Feel::BVH_ThirdParty</text>
<text text-anchor="middle" x="242.5" y="-78.5" font-family="Helvetica,sans-Serif" font-size="10.00">&lt; MeshEntityType &gt;</text>
<polyline fill="none" stroke="black" points="183,-71.5 302,-71.5 "/>
<text text-anchor="middle" x="242.5" y="-59.5" font-family="Helvetica,sans-Serif" font-size="10.00"> </text>
<polyline fill="none" stroke="black" points="183,-52.5 302,-52.5 "/>
<text text-anchor="start" x="191" y="-40.5" font-family="Helvetica,sans-Serif" font-size="10.00">+ BVH_ThirdParty()</text>
<text text-anchor="start" x="191" y="-29.5" font-family="Helvetica,sans-Serif" font-size="10.00">+ BVH_ThirdParty()</text>
<text text-anchor="start" x="191" y="-18.5" font-family="Helvetica,sans-Serif" font-size="10.00">+ intersect()</text>
<text text-anchor="start" x="191" y="-7.5" font-family="Helvetica,sans-Serif" font-size="10.00">+ updateForUse()</text>
</a>
</g>
</g>
<!-- Node2 -->
<g id="node2" class="node">
<title>Node2</title>
<g id="a_node2"><a xlink:href="classFeel_1_1BVH.html" target="_top" xlink:title="BVH base class.">
<polygon fill="white" stroke="black" points="160.5,-139.5 160.5,-251.5 324.5,-251.5 324.5,-139.5 160.5,-139.5"/>
<text text-anchor="middle" x="242.5" y="-239.5" font-family="Helvetica,sans-Serif" font-size="10.00">Feel::BVH&lt; MeshEntityType &gt;</text>
<polyline fill="none" stroke="black" points="160.5,-232.5 324.5,-232.5 "/>
<text text-anchor="middle" x="242.5" y="-220.5" font-family="Helvetica,sans-Serif" font-size="10.00"> </text>
<polyline fill="none" stroke="black" points="160.5,-213.5 324.5,-213.5 "/>
<text text-anchor="start" x="168.5" y="-201.5" font-family="Helvetica,sans-Serif" font-size="10.00">+ BVH()</text>
<text text-anchor="start" x="168.5" y="-190.5" font-family="Helvetica,sans-Serif" font-size="10.00">+ BVH()</text>
<text text-anchor="start" x="168.5" y="-179.5" font-family="Helvetica,sans-Serif" font-size="10.00">+ BVH()</text>
<text text-anchor="start" x="168.5" y="-168.5" font-family="Helvetica,sans-Serif" font-size="10.00">+ intersect()</text>
<text text-anchor="start" x="168.5" y="-157.5" font-family="Helvetica,sans-Serif" font-size="10.00">+ ~BVH()</text>
<text text-anchor="start" x="168.5" y="-146.5" font-family="Helvetica,sans-Serif" font-size="10.00"># updateForUse()</text>
</a>
</g>
</g>
<!-- Node2&#45;&gt;Node1 -->
<g id="edge1" class="edge">
<title>Node2&#45;&gt;Node1</title>
<path fill="none" stroke="midnightblue" d="M242.5,-129.13C242.5,-119.96 242.5,-110.65 242.5,-101.83"/>
<polygon fill="none" stroke="midnightblue" points="239,-129.41 242.5,-139.41 246,-129.41 239,-129.41"/>
</g>
<!-- Node3 -->
<g id="node3" class="node">
<title>Node3</title>
<g id="a_node3"><a xlink:title=" ">
<polygon fill="white" stroke="#bfbfbf" points="0,-316 0,-373 155,-373 155,-316 0,-316"/>
<text text-anchor="middle" x="77.5" y="-361" font-family="Helvetica,sans-Serif" font-size="10.00">static constexpr uint16_type</text>
<polyline fill="none" stroke="#bfbfbf" points="0,-354 155,-354 "/>
<text text-anchor="middle" x="77.5" y="-342" font-family="Helvetica,sans-Serif" font-size="10.00"> </text>
<polyline fill="none" stroke="#bfbfbf" points="0,-335 155,-335 "/>
<text text-anchor="middle" x="77.5" y="-323" font-family="Helvetica,sans-Serif" font-size="10.00"> </text>
</a>
</g>
</g>
<!-- Node3&#45;&gt;Node2 -->
<g id="edge2" class="edge">
<title>Node3&#45;&gt;Node2</title>
<path fill="none" stroke="#404040" d="M108.54,-315.85C126.34,-299.99 149.47,-279.38 171.48,-259.77"/>
<polygon fill="none" stroke="#404040" points="171.54,-259.71 173.36,-252.74 180.5,-251.73 178.69,-258.71 171.54,-259.71"/>
<text text-anchor="middle" x="189" y="-284" font-family="Helvetica,sans-Serif" font-size="10.00"> +nDim</text>
<text text-anchor="middle" x="189" y="-273" font-family="Helvetica,sans-Serif" font-size="10.00">+nRealDim</text>
</g>
<!-- Node4 -->
<g id="node4" class="node">
<title>Node4</title>
<g id="a_node4"><a xlink:title=" ">
<polygon fill="white" stroke="black" points="173,-310.5 173,-378.5 312,-378.5 312,-310.5 173,-310.5"/>
<text text-anchor="start" x="181" y="-366.5" font-family="Helvetica,sans-Serif" font-size="10.00">std::vector&lt; Feel::</text>
<text text-anchor="middle" x="242.5" y="-355.5" font-family="Helvetica,sans-Serif" font-size="10.00">BVH::BVHPrimitiveInfo &gt;</text>
<polyline fill="none" stroke="black" points="173,-348.5 312,-348.5 "/>
<text text-anchor="middle" x="242.5" y="-336.5" font-family="Helvetica,sans-Serif" font-size="10.00"> </text>
<polyline fill="none" stroke="black" points="173,-329.5 312,-329.5 "/>
<text text-anchor="middle" x="242.5" y="-317.5" font-family="Helvetica,sans-Serif" font-size="10.00"> </text>
</a>
</g>
</g>
<!-- Node4&#45;&gt;Node2 -->
<g id="edge3" class="edge">
<title>Node4&#45;&gt;Node2</title>
<path fill="none" stroke="#404040" d="M242.5,-310.14C242.5,-296.37 242.5,-279.89 242.5,-263.81"/>
<polygon fill="none" stroke="#404040" points="242.5,-263.64 238.5,-257.64 242.5,-251.64 246.5,-257.64 242.5,-263.64"/>
<text text-anchor="middle" x="287" y="-278.5" font-family="Helvetica,sans-Serif" font-size="10.00"> #M_primitiveInfo</text>
</g>
<!-- Node5 -->
<g id="node5" class="node">
<title>Node5</title>
<g id="a_node5"><a xlink:href="structFeel_1_1BVH_1_1BVHPrimitiveInfo.html" target="_top" xlink:title="Information on the primitive (mesh entity, bounding box, centroid)">
<polygon fill="white" stroke="black" points="166.5,-426.5 166.5,-549.5 318.5,-549.5 318.5,-426.5 166.5,-426.5"/>
<text text-anchor="start" x="174.5" y="-537.5" font-family="Helvetica,sans-Serif" font-size="10.00">Feel::BVH&lt; MeshEntityType</text>
<text text-anchor="middle" x="242.5" y="-526.5" font-family="Helvetica,sans-Serif" font-size="10.00"> &gt;::BVHPrimitiveInfo</text>
<polyline fill="none" stroke="black" points="166.5,-519.5 318.5,-519.5 "/>
<text text-anchor="middle" x="242.5" y="-507.5" font-family="Helvetica,sans-Serif" font-size="10.00"> </text>
<polyline fill="none" stroke="black" points="166.5,-500.5 318.5,-500.5 "/>
<text text-anchor="start" x="174.5" y="-488.5" font-family="Helvetica,sans-Serif" font-size="10.00">+ boundMax()</text>
<text text-anchor="start" x="174.5" y="-477.5" font-family="Helvetica,sans-Serif" font-size="10.00">+ boundMin()</text>
<text text-anchor="start" x="174.5" y="-466.5" font-family="Helvetica,sans-Serif" font-size="10.00">+ BVHPrimitiveInfo()</text>
<text text-anchor="start" x="174.5" y="-455.5" font-family="Helvetica,sans-Serif" font-size="10.00">+ BVHPrimitiveInfo()</text>
<text text-anchor="start" x="174.5" y="-444.5" font-family="Helvetica,sans-Serif" font-size="10.00">+ BVHPrimitiveInfo()</text>
<text text-anchor="start" x="174.5" y="-433.5" font-family="Helvetica,sans-Serif" font-size="10.00">and 4 more...</text>
</a>
</g>
</g>
<!-- Node5&#45;&gt;Node4 -->
<g id="edge4" class="edge">
<title>Node5&#45;&gt;Node4</title>
<path fill="none" stroke="#404040" d="M242.5,-426.17C242.5,-414.31 242.5,-402.06 242.5,-390.81"/>
<polygon fill="none" stroke="#404040" points="242.5,-390.6 238.5,-384.6 242.5,-378.6 246.5,-384.6 242.5,-390.6"/>
<text text-anchor="middle" x="271.5" y="-400" font-family="Helvetica,sans-Serif" font-size="10.00"> +elements</text>
</g>
<!-- Node6 -->
<g id="node6" class="node">
<title>Node6</title>
<g id="a_node6"><a xlink:title=" ">
<polygon fill="white" stroke="#bfbfbf" points="330.5,-316 330.5,-373 382.5,-373 382.5,-316 330.5,-316"/>
<text text-anchor="middle" x="356.5" y="-361" font-family="Helvetica,sans-Serif" font-size="10.00">Quality</text>
<polyline fill="none" stroke="#bfbfbf" points="330.5,-354 382.5,-354 "/>
<text text-anchor="middle" x="356.5" y="-342" font-family="Helvetica,sans-Serif" font-size="10.00"> </text>
<polyline fill="none" stroke="#bfbfbf" points="330.5,-335 382.5,-335 "/>
<text text-anchor="middle" x="356.5" y="-323" font-family="Helvetica,sans-Serif" font-size="10.00"> </text>
</a>
</g>
</g>
<!-- Node6&#45;&gt;Node2 -->
<g id="edge5" class="edge">
<title>Node6&#45;&gt;Node2</title>
<path fill="none" stroke="#404040" d="M352.36,-315.95C349.19,-301.36 343.74,-283.69 334.5,-270 332.39,-266.88 330.12,-263.83 327.7,-260.86"/>
<polygon fill="none" stroke="#404040" points="327.49,-260.62 320.53,-258.76 319.56,-251.61 326.53,-253.47 327.49,-260.62"/>
<text text-anchor="middle" x="374.5" y="-278.5" font-family="Helvetica,sans-Serif" font-size="10.00"> #M_quality</text>
</g>
</g>
</svg>
        <g id="navigator" transform="translate(0 0)" fill="#404254">
                <rect fill="#f2f5e9" fill-opacity="0.5" stroke="#606060" stroke-width=".5" x="0" y="0" width="60" height="60"/>
                <use id="zoomplus" xlink:href="#zoomPlus" x="17" y="9" onmousedown="handleZoom(evt,'in')"/>
                <use id="zoomminus" xlink:href="#zoomMin" x="42" y="9" onmousedown="handleZoom(evt,'out')"/>
                <use id="reset" xlink:href="#resetDef" x="30" y="36" onmousedown="handleReset()"/>
                <g id="arrowUp" xlink:href="#dirArrow" transform="translate(30 24)" onmousedown="handlePan(0,-1)">
                  <use xlink:href="#rim" fill="#404040">
                        <set attributeName="fill" to="#808080" begin="arrowUp.mouseover" end="arrowUp.mouseout"/>
                  </use>
                  <path fill="none" stroke="white" stroke-width="1.5" d="M0,-3.0v7 M-2.5,-0.5L0,-3.0L2.5,-0.5"/>
                </g>
                <g id="arrowRight" xlink:href="#dirArrow" transform="rotate(90) translate(36 -43)" onmousedown="handlePan(1,0)">
                  <use xlink:href="#rim" fill="#404040">
                        <set attributeName="fill" to="#808080" begin="arrowRight.mouseover" end="arrowRight.mouseout"/>
                  </use>
                  <path fill="none" stroke="white" stroke-width="1.5" d="M0,-3.0v7 M-2.5,-0.5L0,-3.0L2.5,-0.5"/>
                </g>
                <g id="arrowDown" xlink:href="#dirArrow" transform="rotate(180) translate(-30 -48)" onmousedown="handlePan(0,1)">
                  <use xlink:href="#rim" fill="#404040">
                        <set attributeName="fill" to="#808080" begin="arrowDown.mouseover" end="arrowDown.mouseout"/>
                  </use>
                  <path fill="none" stroke="white" stroke-width="1.5" d="M0,-3.0v7 M-2.5,-0.5L0,-3.0L2.5,-0.5"/>
                </g>
                <g id="arrowLeft" xlink:href="#dirArrow" transform="rotate(270) translate(-36 17)" onmousedown="handlePan(-1,0)">
                  <use xlink:href="#rim" fill="#404040">
                        <set attributeName="fill" to="#808080" begin="arrowLeft.mouseover" end="arrowLeft.mouseout"/>
                  </use>
                  <path fill="none" stroke="white" stroke-width="1.5" d="M0,-3.0v7 M-2.5,-0.5L0,-3.0L2.5,-0.5"/>
                </g>
        </g>
        <svg viewBox="0 0 15 15" width="100%" height="30px" preserveAspectRatio="xMaxYMin meet">
         <g id="arrow_out" transform="scale(0.3 0.3)">
          <a xlink:href="classFeel_1_1BVH__ThirdParty__coll__graph_org.svg" target="_base">
           <rect id="button" ry="5" rx="5" y="6" x="6" height="38" width="38"
                fill="#f2f5e9" fill-opacity="0.5" stroke="#606060" stroke-width="1.0"/>
           <path id="arrow"
             d="M 11.500037,31.436501 C 11.940474,20.09759 22.043105,11.32322 32.158766,21.979434 L 37.068811,17.246167 C 37.068811,17.246167 37.088388,32 37.088388,32 L 22.160133,31.978069 C 22.160133,31.978069 26.997745,27.140456 26.997745,27.140456 C 18.528582,18.264221 13.291696,25.230495 11.500037,31.436501 z"
             style="fill:#404040;"/>
          </a>
         </g>
        </svg>
</svg>
