<?xml version="1.0" encoding="UTF-8" standalone="no"?>
<!DOCTYPE svg PUBLIC "-//W3C//DTD SVG 1.1//EN"
 "http://www.w3.org/Graphics/SVG/1.1/DTD/svg11.dtd">
<!-- Generated by graphviz version 2.43.0 (0)
 -->
<!-- Title: Feel::GeoElement2D&lt; Dim, GEOSHAPE, SubFace, T, IndexT, UseMeasuresStorage &gt; Pages: 1 -->
<svg width="1506pt" height="1188pt"
 viewBox="0.00 0.00 1505.90 1188.00" xmlns="http://www.w3.org/2000/svg" xmlns:xlink="http://www.w3.org/1999/xlink">
<g id="graph0" class="graph" transform="scale(1 1) rotate(0) translate(4 1184)">
<title>Feel::GeoElement2D&lt; Dim, GEOSHAPE, SubFace, T, IndexT, UseMeasuresStorage &gt;</title>
<polygon fill="white" stroke="transparent" points="-4,4 -4,-1184 1501.9,-1184 1501.9,4 -4,4"/>
<!-- Node1 -->
<g id="node1" class="node">
<title>Node1</title>
<g id="a_node1"><a xlink:title="Class for 2D elements.">
<polygon fill="#bfbfbf" stroke="black" points="311.4,-0.5 311.4,-134.5 496.4,-134.5 496.4,-0.5 311.4,-0.5"/>
<text text-anchor="start" x="319.4" y="-122.5" font-family="Helvetica,sans-Serif" font-size="10.00">Feel::GeoElement2D</text>
<text text-anchor="start" x="319.4" y="-111.5" font-family="Helvetica,sans-Serif" font-size="10.00">&lt; Dim, GEOSHAPE, SubFace,</text>
<text text-anchor="middle" x="403.9" y="-100.5" font-family="Helvetica,sans-Serif" font-size="10.00"> T, IndexT, UseMeasuresStorage &gt;</text>
<polyline fill="none" stroke="black" points="311.4,-93.5 496.4,-93.5 "/>
<text text-anchor="middle" x="403.9" y="-81.5" font-family="Helvetica,sans-Serif" font-size="10.00"> </text>
<polyline fill="none" stroke="black" points="311.4,-74.5 496.4,-74.5 "/>
<text text-anchor="start" x="319.4" y="-62.5" font-family="Helvetica,sans-Serif" font-size="10.00">+ BOOST_MPL_ASSERT_MSG()</text>
<text text-anchor="start" x="319.4" y="-51.5" font-family="Helvetica,sans-Serif" font-size="10.00">+ boundaryEntityDimension()</text>
<text text-anchor="start" x="319.4" y="-40.5" font-family="Helvetica,sans-Serif" font-size="10.00">+ disconnectSubEntities()</text>
<text text-anchor="start" x="319.4" y="-29.5" font-family="Helvetica,sans-Serif" font-size="10.00">+ edge()</text>
<text text-anchor="start" x="319.4" y="-18.5" font-family="Helvetica,sans-Serif" font-size="10.00">+ edge()</text>
<text text-anchor="start" x="319.4" y="-7.5" font-family="Helvetica,sans-Serif" font-size="10.00">and 32 more...</text>
</a>
</g>
</g>
<!-- Node2 -->
<g id="node2" class="node">
<title>Node2</title>
<g id="a_node2"><a xlink:href="classFeel_1_1GeoND.html" target="_top" xlink:title=" ">
<polygon fill="white" stroke="black" points="504.4,-172.5 504.4,-350.5 713.4,-350.5 713.4,-172.5 504.4,-172.5"/>
<text text-anchor="start" x="512.4" y="-338.5" font-family="Helvetica,sans-Serif" font-size="10.00">Feel::GeoND&lt; Dim, GEOSHAPE,</text>
<text text-anchor="start" x="512.4" y="-327.5" font-family="Helvetica,sans-Serif" font-size="10.00"> double, uint32_type, GeoElement0</text>
<text text-anchor="start" x="512.4" y="-316.5" font-family="Helvetica,sans-Serif" font-size="10.00">D&lt; Dim, SubFaceOfNone&lt; 0 &gt;, double,</text>
<text text-anchor="middle" x="608.9" y="-305.5" font-family="Helvetica,sans-Serif" font-size="10.00"> uint32_type &gt;, false &gt;</text>
<polyline fill="none" stroke="black" points="504.4,-298.5 713.4,-298.5 "/>
<text text-anchor="middle" x="608.9" y="-286.5" font-family="Helvetica,sans-Serif" font-size="10.00"> </text>
<polyline fill="none" stroke="black" points="504.4,-279.5 713.4,-279.5 "/>
<text text-anchor="start" x="512.4" y="-267.5" font-family="Helvetica,sans-Serif" font-size="10.00">+ applyDisplacement()</text>
<text text-anchor="start" x="512.4" y="-256.5" font-family="Helvetica,sans-Serif" font-size="10.00">+ applyDisplacementG()</text>
<text text-anchor="start" x="512.4" y="-245.5" font-family="Helvetica,sans-Serif" font-size="10.00">+ barycenter()</text>
<text text-anchor="start" x="512.4" y="-234.5" font-family="Helvetica,sans-Serif" font-size="10.00">+ beginPoint()</text>
<text text-anchor="start" x="512.4" y="-223.5" font-family="Helvetica,sans-Serif" font-size="10.00">+ beginPoint()</text>
<text text-anchor="start" x="512.4" y="-212.5" font-family="Helvetica,sans-Serif" font-size="10.00">and 62 more...</text>
<text text-anchor="start" x="512.4" y="-201.5" font-family="Helvetica,sans-Serif" font-size="10.00">+ fToP()</text>
<text text-anchor="start" x="512.4" y="-190.5" font-family="Helvetica,sans-Serif" font-size="10.00">+ imMeasure()</text>
<text text-anchor="start" x="512.4" y="-179.5" font-family="Helvetica,sans-Serif" font-size="10.00">+ imMeasureOrder1()</text>
</a>
</g>
</g>
<!-- Node2&#45;&gt;Node1 -->
<g id="edge1" class="edge">
<title>Node2&#45;&gt;Node1</title>
<path fill="none" stroke="midnightblue" d="M507.47,-165.5C496.3,-155.04 485.11,-144.56 474.44,-134.56"/>
<polygon fill="none" stroke="midnightblue" points="505.11,-168.09 514.8,-172.37 509.9,-162.98 505.11,-168.09"/>
</g>
<!-- Node3 -->
<g id="node3" class="node">
<title>Node3</title>
<g id="a_node3"><a xlink:href="classFeel_1_1GeoEntity.html" target="_top" xlink:title=" ">
<polygon fill="white" stroke="black" points="912.9,-500.5 912.9,-942.5 1100.9,-942.5 1100.9,-500.5 912.9,-500.5"/>
<text text-anchor="start" x="920.9" y="-930.5" font-family="Helvetica,sans-Serif" font-size="10.00">Feel::GeoEntity&lt; GEOSHAPE,</text>
<text text-anchor="middle" x="1006.9" y="-919.5" font-family="Helvetica,sans-Serif" font-size="10.00"> double &gt;</text>
<polyline fill="none" stroke="black" points="912.9,-912.5 1100.9,-912.5 "/>
<text text-anchor="middle" x="1006.9" y="-900.5" font-family="Helvetica,sans-Serif" font-size="10.00"> </text>
<polyline fill="none" stroke="black" points="912.9,-893.5 1100.9,-893.5 "/>
<text text-anchor="start" x="920.9" y="-881.5" font-family="Helvetica,sans-Serif" font-size="10.00">* super</text>
<text text-anchor="start" x="920.9" y="-870.5" font-family="Helvetica,sans-Serif" font-size="10.00">* GeoShape</text>
<text text-anchor="start" x="920.9" y="-859.5" font-family="Helvetica,sans-Serif" font-size="10.00">* self_type</text>
<text text-anchor="start" x="920.9" y="-848.5" font-family="Helvetica,sans-Serif" font-size="10.00">* value_type</text>
<text text-anchor="start" x="920.9" y="-837.5" font-family="Helvetica,sans-Serif" font-size="10.00">* index_type</text>
<text text-anchor="start" x="920.9" y="-826.5" font-family="Helvetica,sans-Serif" font-size="10.00">and 12 more...</text>
<text text-anchor="start" x="920.9" y="-815.5" font-family="Helvetica,sans-Serif" font-size="10.00">* boost::serialization</text>
<text text-anchor="start" x="920.9" y="-804.5" font-family="Helvetica,sans-Serif" font-size="10.00">::access</text>
<text text-anchor="start" x="920.9" y="-793.5" font-family="Helvetica,sans-Serif" font-size="10.00">* M_id</text>
<text text-anchor="start" x="920.9" y="-782.5" font-family="Helvetica,sans-Serif" font-size="10.00">* M_entity</text>
<text text-anchor="start" x="920.9" y="-771.5" font-family="Helvetica,sans-Serif" font-size="10.00">* M_boundaryEntityDimension</text>
<text text-anchor="start" x="920.9" y="-760.5" font-family="Helvetica,sans-Serif" font-size="10.00">* M_pid</text>
<text text-anchor="start" x="920.9" y="-749.5" font-family="Helvetica,sans-Serif" font-size="10.00">and 41 more...</text>
<text text-anchor="start" x="920.9" y="-738.5" font-family="Helvetica,sans-Serif" font-size="10.00">* GeoEntity()</text>
<text text-anchor="start" x="920.9" y="-727.5" font-family="Helvetica,sans-Serif" font-size="10.00">* GeoEntity()</text>
<text text-anchor="start" x="920.9" y="-716.5" font-family="Helvetica,sans-Serif" font-size="10.00">* GeoEntity()</text>
<text text-anchor="start" x="920.9" y="-705.5" font-family="Helvetica,sans-Serif" font-size="10.00">* GeoEntity()</text>
<text text-anchor="start" x="920.9" y="-694.5" font-family="Helvetica,sans-Serif" font-size="10.00">* operator=()</text>
<text text-anchor="start" x="920.9" y="-683.5" font-family="Helvetica,sans-Serif" font-size="10.00">* operator=()</text>
<text text-anchor="start" x="920.9" y="-672.5" font-family="Helvetica,sans-Serif" font-size="10.00">* ~GeoEntity()</text>
<text text-anchor="start" x="920.9" y="-661.5" font-family="Helvetica,sans-Serif" font-size="10.00">* operator==()</text>
<text text-anchor="start" x="920.9" y="-650.5" font-family="Helvetica,sans-Serif" font-size="10.00">* operator&lt;()</text>
<text text-anchor="start" x="920.9" y="-639.5" font-family="Helvetica,sans-Serif" font-size="10.00">* operator&lt;()</text>
<text text-anchor="start" x="920.9" y="-628.5" font-family="Helvetica,sans-Serif" font-size="10.00">* id()</text>
<text text-anchor="start" x="920.9" y="-617.5" font-family="Helvetica,sans-Serif" font-size="10.00">* refDim()</text>
<text text-anchor="start" x="920.9" y="-606.5" font-family="Helvetica,sans-Serif" font-size="10.00">* nPoints()</text>
<text text-anchor="start" x="920.9" y="-595.5" font-family="Helvetica,sans-Serif" font-size="10.00">* nVertices()</text>
<text text-anchor="start" x="920.9" y="-584.5" font-family="Helvetica,sans-Serif" font-size="10.00">* nEdges()</text>
<text text-anchor="start" x="920.9" y="-573.5" font-family="Helvetica,sans-Serif" font-size="10.00">and 42 more...</text>
<text text-anchor="start" x="920.9" y="-562.5" font-family="Helvetica,sans-Serif" font-size="10.00">* setId()</text>
<text text-anchor="start" x="920.9" y="-551.5" font-family="Helvetica,sans-Serif" font-size="10.00">* setOnBoundary()</text>
<text text-anchor="start" x="920.9" y="-540.5" font-family="Helvetica,sans-Serif" font-size="10.00">* setNumberOfPartitions()</text>
<text text-anchor="start" x="920.9" y="-529.5" font-family="Helvetica,sans-Serif" font-size="10.00">* setNumberOfNeighborPartitions()</text>
<text text-anchor="start" x="920.9" y="-518.5" font-family="Helvetica,sans-Serif" font-size="10.00">* setNeighborPartitionIds()</text>
<text text-anchor="start" x="920.9" y="-507.5" font-family="Helvetica,sans-Serif" font-size="10.00">* addNeighborPartitionId()</text>
</a>
</g>
</g>
<!-- Node3&#45;&gt;Node2 -->
<g id="edge2" class="edge">
<title>Node3&#45;&gt;Node2</title>
<path fill="none" stroke="midnightblue" d="M946.39,-491.12C926.61,-446.6 900.69,-403.21 866.9,-369 825.53,-327.11 765.32,-300.99 713.46,-285.11"/>
<polygon fill="none" stroke="midnightblue" points="943.19,-492.56 950.39,-500.34 949.61,-489.77 943.19,-492.56"/>
</g>
<!-- Node4 -->
<g id="node4" class="node">
<title>Node4</title>
<g id="a_node4"><a xlink:title=" ">
<polygon fill="white" stroke="#bfbfbf" points="1059.9,-1100.5 1059.9,-1179.5 1241.9,-1179.5 1241.9,-1100.5 1059.9,-1100.5"/>
<text text-anchor="start" x="1067.9" y="-1167.5" font-family="Helvetica,sans-Serif" font-size="10.00">boost::equality_comparable</text>
<text text-anchor="start" x="1067.9" y="-1156.5" font-family="Helvetica,sans-Serif" font-size="10.00">&lt; GeoEntity&lt; GEOSHAPE, double,</text>
<text text-anchor="middle" x="1150.9" y="-1145.5" font-family="Helvetica,sans-Serif" font-size="10.00"> uint32_type &gt; &gt;</text>
<polyline fill="none" stroke="#bfbfbf" points="1059.9,-1138.5 1241.9,-1138.5 "/>
<text text-anchor="middle" x="1150.9" y="-1126.5" font-family="Helvetica,sans-Serif" font-size="10.00"> </text>
<polyline fill="none" stroke="#bfbfbf" points="1059.9,-1119.5 1241.9,-1119.5 "/>
<text text-anchor="middle" x="1150.9" y="-1107.5" font-family="Helvetica,sans-Serif" font-size="10.00"> </text>
</a>
</g>
</g>
<!-- Node4&#45;&gt;Node3 -->
<g id="edge3" class="edge">
<title>Node4&#45;&gt;Node3</title>
<path fill="none" stroke="#8b1a1a" d="M1134.17,-1090.59C1121.23,-1053.17 1102.33,-998.49 1083.03,-942.67"/>
<polygon fill="none" stroke="#8b1a1a" points="1130.91,-1091.88 1137.49,-1100.19 1137.53,-1089.6 1130.91,-1091.88"/>
</g>
<!-- Node5 -->
<g id="node5" class="node">
<title>Node5</title>
<g id="a_node5"><a xlink:title=" ">
<polygon fill="white" stroke="#bfbfbf" points="1259.9,-1100.5 1259.9,-1179.5 1441.9,-1179.5 1441.9,-1100.5 1259.9,-1100.5"/>
<text text-anchor="start" x="1267.9" y="-1167.5" font-family="Helvetica,sans-Serif" font-size="10.00">boost::less_than_comparable</text>
<text text-anchor="start" x="1267.9" y="-1156.5" font-family="Helvetica,sans-Serif" font-size="10.00">&lt; GeoEntity&lt; GEOSHAPE, double,</text>
<text text-anchor="middle" x="1350.9" y="-1145.5" font-family="Helvetica,sans-Serif" font-size="10.00"> uint32_type &gt; &gt;</text>
<polyline fill="none" stroke="#bfbfbf" points="1259.9,-1138.5 1441.9,-1138.5 "/>
<text text-anchor="middle" x="1350.9" y="-1126.5" font-family="Helvetica,sans-Serif" font-size="10.00"> </text>
<polyline fill="none" stroke="#bfbfbf" points="1259.9,-1119.5 1441.9,-1119.5 "/>
<text text-anchor="middle" x="1350.9" y="-1107.5" font-family="Helvetica,sans-Serif" font-size="10.00"> </text>
</a>
</g>
</g>
<!-- Node5&#45;&gt;Node3 -->
<g id="edge4" class="edge">
<title>Node5&#45;&gt;Node3</title>
<path fill="none" stroke="#8b1a1a" d="M1312.25,-1092.2C1261.43,-1030.67 1170.47,-920.53 1101,-836.42"/>
<polygon fill="none" stroke="#8b1a1a" points="1309.78,-1094.71 1318.85,-1100.19 1315.18,-1090.25 1309.78,-1094.71"/>
</g>
<!-- Node6 -->
<g id="node6" class="node">
<title>Node6</title>
<g id="a_node6"><a xlink:title=" ">
<polygon fill="white" stroke="#bfbfbf" points="771.9,-1100.5 771.9,-1179.5 953.9,-1179.5 953.9,-1100.5 771.9,-1100.5"/>
<text text-anchor="start" x="779.9" y="-1167.5" font-family="Helvetica,sans-Serif" font-size="10.00">boost::less_than_comparable</text>
<text text-anchor="start" x="779.9" y="-1156.5" font-family="Helvetica,sans-Serif" font-size="10.00">&lt; GeoEntity&lt; GEOSHAPE, double,</text>
<text text-anchor="middle" x="862.9" y="-1145.5" font-family="Helvetica,sans-Serif" font-size="10.00"> uint32_type &gt;, uint32_type &gt;</text>
<polyline fill="none" stroke="#bfbfbf" points="771.9,-1138.5 953.9,-1138.5 "/>
<text text-anchor="middle" x="862.9" y="-1126.5" font-family="Helvetica,sans-Serif" font-size="10.00"> </text>
<polyline fill="none" stroke="#bfbfbf" points="771.9,-1119.5 953.9,-1119.5 "/>
<text text-anchor="middle" x="862.9" y="-1107.5" font-family="Helvetica,sans-Serif" font-size="10.00"> </text>
</a>
</g>
</g>
<!-- Node6&#45;&gt;Node3 -->
<g id="edge5" class="edge">
<title>Node6&#45;&gt;Node3</title>
<path fill="none" stroke="#8b1a1a" d="M939.4,-1093.06C942.53,-1089.57 945.4,-1085.89 947.9,-1082 974.41,-1040.77 990.28,-991.55 999.52,-942.97"/>
<polygon fill="none" stroke="#8b1a1a" points="936.7,-1090.81 932.14,-1100.37 941.67,-1095.74 936.7,-1090.81"/>
</g>
<!-- Node7 -->
<g id="node7" class="node">
<title>Node7</title>
<g id="a_node7"><a xlink:title=" ">
<polygon fill="white" stroke="#bfbfbf" points="971.9,-1111.5 971.9,-1168.5 1041.9,-1168.5 1041.9,-1111.5 971.9,-1111.5"/>
<text text-anchor="middle" x="1006.9" y="-1156.5" font-family="Helvetica,sans-Serif" font-size="10.00">GEOSHAPE</text>
<polyline fill="none" stroke="#bfbfbf" points="971.9,-1149.5 1041.9,-1149.5 "/>
<text text-anchor="middle" x="1006.9" y="-1137.5" font-family="Helvetica,sans-Serif" font-size="10.00"> </text>
<polyline fill="none" stroke="#bfbfbf" points="971.9,-1130.5 1041.9,-1130.5 "/>
<text text-anchor="middle" x="1006.9" y="-1118.5" font-family="Helvetica,sans-Serif" font-size="10.00"> </text>
</a>
</g>
</g>
<!-- Node7&#45;&gt;Node3 -->
<g id="edge6" class="edge">
<title>Node7&#45;&gt;Node3</title>
<path fill="none" stroke="midnightblue" d="M1006.9,-1101.01C1006.9,-1063.79 1006.9,-1003.86 1006.9,-942.56"/>
<polygon fill="none" stroke="midnightblue" points="1003.4,-1101.35 1006.9,-1111.35 1010.4,-1101.35 1003.4,-1101.35"/>
</g>
<!-- Node8 -->
<g id="node8" class="node">
<title>Node8</title>
<g id="a_node8"><a xlink:title=" ">
<polygon fill="white" stroke="#bfbfbf" points="275.9,-1111.5 275.9,-1168.5 409.9,-1168.5 409.9,-1111.5 275.9,-1111.5"/>
<text text-anchor="middle" x="342.9" y="-1156.5" font-family="Helvetica,sans-Serif" font-size="10.00">static const uint16_type</text>
<polyline fill="none" stroke="#bfbfbf" points="275.9,-1149.5 409.9,-1149.5 "/>
<text text-anchor="middle" x="342.9" y="-1137.5" font-family="Helvetica,sans-Serif" font-size="10.00"> </text>
<polyline fill="none" stroke="#bfbfbf" points="275.9,-1130.5 409.9,-1130.5 "/>
<text text-anchor="middle" x="342.9" y="-1118.5" font-family="Helvetica,sans-Serif" font-size="10.00"> </text>
</a>
</g>
</g>
<!-- Node8&#45;&gt;Node1 -->
<g id="edge17" class="edge">
<title>Node8&#45;&gt;Node1</title>
<path fill="none" stroke="#404040" d="M275.82,-1133.37C237.66,-1126.77 191.69,-1112.54 161.9,-1082 -60.31,-854.19 -24.37,-663.64 95.9,-369 136.42,-269.75 228.29,-187.35 301.21,-134.09"/>
<polygon fill="none" stroke="#404040" points="301.64,-133.79 304.16,-127.03 311.37,-126.77 308.84,-133.52 301.64,-133.79"/>
<text text-anchor="middle" x="138.4" y="-445" font-family="Helvetica,sans-Serif" font-size="10.00"> +nDim</text>
<text text-anchor="middle" x="138.4" y="-434" font-family="Helvetica,sans-Serif" font-size="10.00">+nRealDim</text>
<text text-anchor="middle" x="138.4" y="-423" font-family="Helvetica,sans-Serif" font-size="10.00">+nOrder</text>
<text text-anchor="middle" x="138.4" y="-412" font-family="Helvetica,sans-Serif" font-size="10.00">+numLocalFaces</text>
<text text-anchor="middle" x="138.4" y="-401" font-family="Helvetica,sans-Serif" font-size="10.00">+numLocalEdges</text>
</g>
<!-- Node8&#45;&gt;Node2 -->
<g id="edge13" class="edge">
<title>Node8&#45;&gt;Node2</title>
<path fill="none" stroke="#404040" d="M409.98,-1122.77C492.83,-1098.81 630.66,-1045.34 694.9,-943 722.19,-899.54 720.4,-533.29 721.9,-482 723.37,-431.8 741.81,-415.11 721.9,-369 720.75,-366.34 719.5,-363.71 718.16,-361.12"/>
<polygon fill="none" stroke="#404040" points="718.14,-361.08 711.67,-357.89 712.14,-350.69 718.6,-353.89 718.14,-361.08"/>
<text text-anchor="middle" x="768.4" y="-763" font-family="Helvetica,sans-Serif" font-size="10.00"> +numNeighbors</text>
<text text-anchor="middle" x="768.4" y="-752" font-family="Helvetica,sans-Serif" font-size="10.00">+numPoints</text>
<text text-anchor="middle" x="768.4" y="-741" font-family="Helvetica,sans-Serif" font-size="10.00">+nDim</text>
<text text-anchor="middle" x="768.4" y="-730" font-family="Helvetica,sans-Serif" font-size="10.00">+nRealDim</text>
<text text-anchor="middle" x="768.4" y="-719" font-family="Helvetica,sans-Serif" font-size="10.00">+nOrder</text>
<text text-anchor="middle" x="768.4" y="-708" font-family="Helvetica,sans-Serif" font-size="10.00">+numLocalVertices</text>
<text text-anchor="middle" x="768.4" y="-697" font-family="Helvetica,sans-Serif" font-size="10.00">+numLocalPoints</text>
<text text-anchor="middle" x="768.4" y="-686" font-family="Helvetica,sans-Serif" font-size="10.00">+numVertices</text>
<text text-anchor="middle" x="768.4" y="-675" font-family="Helvetica,sans-Serif" font-size="10.00">+numLocalEdges</text>
</g>
<!-- Node8&#45;&gt;Node3 -->
<g id="edge7" class="edge">
<title>Node8&#45;&gt;Node3</title>
<path fill="none" stroke="#404040" d="M410.25,-1130.16C511.57,-1116.6 692.66,-1091.27 703.9,-1082 748.06,-1045.61 703.06,-996.55 747.9,-961 800.87,-919.01 843.78,-982.1 898.9,-943 900.43,-941.92 901.93,-940.81 903.41,-939.68"/>
<polygon fill="none" stroke="#404040" points="903.64,-939.49 905.71,-932.58 912.89,-931.84 910.81,-938.74 903.64,-939.49"/>
<text text-anchor="middle" x="803.9" y="-1074" font-family="Helvetica,sans-Serif" font-size="10.00"> +numPoints</text>
<text text-anchor="middle" x="803.9" y="-1063" font-family="Helvetica,sans-Serif" font-size="10.00">+nbPtsPerFace</text>
<text text-anchor="middle" x="803.9" y="-1052" font-family="Helvetica,sans-Serif" font-size="10.00">+nbPtsPerEdge</text>
<text text-anchor="middle" x="803.9" y="-1041" font-family="Helvetica,sans-Serif" font-size="10.00">+numNormals</text>
<text text-anchor="middle" x="803.9" y="-1030" font-family="Helvetica,sans-Serif" font-size="10.00">+nbPtsPerVolume</text>
<text text-anchor="middle" x="803.9" y="-1019" font-family="Helvetica,sans-Serif" font-size="10.00">+numEdges</text>
<text text-anchor="middle" x="803.9" y="-1008" font-family="Helvetica,sans-Serif" font-size="10.00">+nDim</text>
<text text-anchor="middle" x="803.9" y="-997" font-family="Helvetica,sans-Serif" font-size="10.00">+numFaces</text>
<text text-anchor="middle" x="803.9" y="-986" font-family="Helvetica,sans-Serif" font-size="10.00">+numTopologicalFaces</text>
<text text-anchor="middle" x="803.9" y="-975" font-family="Helvetica,sans-Serif" font-size="10.00">+numGeometricFaces</text>
<text text-anchor="middle" x="803.9" y="-964" font-family="Helvetica,sans-Serif" font-size="10.00">...</text>
</g>
<!-- Node14 -->
<g id="node14" class="node">
<title>Node14</title>
<g id="a_node14"><a xlink:href="classFeel_1_1SubFaceOfNone.html" target="_top" xlink:title=" ">
<polygon fill="white" stroke="black" points="189.9,-369.5 189.9,-481.5 337.9,-481.5 337.9,-369.5 189.9,-369.5"/>
<text text-anchor="middle" x="263.9" y="-469.5" font-family="Helvetica,sans-Serif" font-size="10.00">Feel::SubFaceOfNone&lt; 0 &gt;</text>
<polyline fill="none" stroke="black" points="189.9,-462.5 337.9,-462.5 "/>
<text text-anchor="middle" x="263.9" y="-450.5" font-family="Helvetica,sans-Serif" font-size="10.00"> </text>
<polyline fill="none" stroke="black" points="189.9,-443.5 337.9,-443.5 "/>
<text text-anchor="start" x="197.9" y="-431.5" font-family="Helvetica,sans-Serif" font-size="10.00">+ element()</text>
<text text-anchor="start" x="197.9" y="-420.5" font-family="Helvetica,sans-Serif" font-size="10.00">+ isGhostFace()</text>
<text text-anchor="start" x="197.9" y="-409.5" font-family="Helvetica,sans-Serif" font-size="10.00">+ isInterProcessDomain()</text>
<text text-anchor="start" x="197.9" y="-398.5" font-family="Helvetica,sans-Serif" font-size="10.00">+ operator=()</text>
<text text-anchor="start" x="197.9" y="-387.5" font-family="Helvetica,sans-Serif" font-size="10.00">+ operator=()</text>
<text text-anchor="start" x="197.9" y="-376.5" font-family="Helvetica,sans-Serif" font-size="10.00">and 7 more...</text>
</a>
</g>
</g>
<!-- Node8&#45;&gt;Node14 -->
<g id="edge16" class="edge">
<title>Node8&#45;&gt;Node14</title>
<path fill="none" stroke="#404040" d="M302.43,-1111.39C257.09,-1077.74 186.11,-1016.2 156.9,-943 120.42,-851.56 109.05,-586.03 156.9,-500 162.49,-489.95 169.01,-489.62 178.97,-485.3"/>
<polygon fill="none" stroke="#404040" points="179.12,-485.22 182.48,-478.84 189.66,-479.49 186.31,-485.87 179.12,-485.22"/>
<text text-anchor="middle" x="282.9" y="-1019" font-family="Helvetica,sans-Serif" font-size="10.00"> +nDim</text>
</g>
<!-- Node9 -->
<g id="node9" class="node">
<title>Node9</title>
<g id="a_node9"><a xlink:href="classbool.html" target="_top" xlink:title=" ">
<polygon fill="white" stroke="black" points="1459.9,-1111.5 1459.9,-1168.5 1497.9,-1168.5 1497.9,-1111.5 1459.9,-1111.5"/>
<text text-anchor="middle" x="1478.9" y="-1156.5" font-family="Helvetica,sans-Serif" font-size="10.00">bool</text>
<polyline fill="none" stroke="black" points="1459.9,-1149.5 1497.9,-1149.5 "/>
<text text-anchor="middle" x="1478.9" y="-1137.5" font-family="Helvetica,sans-Serif" font-size="10.00"> </text>
<polyline fill="none" stroke="black" points="1459.9,-1130.5 1497.9,-1130.5 "/>
<text text-anchor="middle" x="1478.9" y="-1118.5" font-family="Helvetica,sans-Serif" font-size="10.00"> </text>
</a>
</g>
</g>
<!-- Node9&#45;&gt;Node1 -->
<g id="edge18" class="edge">
<title>Node9&#45;&gt;Node1</title>
<path fill="none" stroke="#404040" d="M1481.27,-1111.4C1483.32,-1075.47 1483.39,-1011.32 1463.9,-961 1290.18,-512.39 1143.13,-406.18 722.9,-172 655.63,-134.51 572.72,-108.13 508.29,-91.39"/>
<polygon fill="none" stroke="#404040" points="508.1,-91.34 501.3,-93.74 496.48,-88.38 503.28,-85.98 508.1,-91.34"/>
<text text-anchor="middle" x="1208.4" y="-423" font-family="Helvetica,sans-Serif" font-size="10.00"> +condition</text>
</g>
<!-- Node9&#45;&gt;Node3 -->
<g id="edge8" class="edge">
<title>Node9&#45;&gt;Node3</title>
<path fill="none" stroke="#404040" d="M1462.64,-1111.27C1459.2,-1107.04 1455.27,-1103.07 1450.9,-1100 1427.09,-1083.24 1412.94,-1096.87 1387.9,-1082 1323.06,-1043.48 1323.26,-1013.3 1268.9,-961 1217.47,-911.52 1158.84,-857.9 1110.1,-814.05"/>
<polygon fill="none" stroke="#404040" points="1110.05,-814 1102.91,-812.97 1101.12,-805.98 1108.26,-807.02 1110.05,-814"/>
<text text-anchor="middle" x="1425.9" y="-1024.5" font-family="Helvetica,sans-Serif" font-size="10.00"> +is_hypercube</text>
<text text-anchor="middle" x="1425.9" y="-1013.5" font-family="Helvetica,sans-Serif" font-size="10.00">+is_simplex</text>
</g>
<!-- Node10 -->
<g id="node10" class="node">
<title>Node10</title>
<g id="a_node10"><a xlink:title=" ">
<polygon fill="white" stroke="#bfbfbf" points="631.9,-1111.5 631.9,-1168.5 753.9,-1168.5 753.9,-1111.5 631.9,-1111.5"/>
<text text-anchor="middle" x="692.9" y="-1156.5" font-family="Helvetica,sans-Serif" font-size="10.00">static const size_type</text>
<polyline fill="none" stroke="#bfbfbf" points="631.9,-1149.5 753.9,-1149.5 "/>
<text text-anchor="middle" x="692.9" y="-1137.5" font-family="Helvetica,sans-Serif" font-size="10.00"> </text>
<polyline fill="none" stroke="#bfbfbf" points="631.9,-1130.5 753.9,-1130.5 "/>
<text text-anchor="middle" x="692.9" y="-1118.5" font-family="Helvetica,sans-Serif" font-size="10.00"> </text>
</a>
</g>
</g>
<!-- Node10&#45;&gt;Node2 -->
<g id="edge14" class="edge">
<title>Node10&#45;&gt;Node2</title>
<path fill="none" stroke="#404040" d="M738.34,-1111.33C746.35,-1107.15 754.73,-1103.17 762.9,-1100 795.26,-1087.43 817.37,-1109.23 838.9,-1082 849.91,-1068.09 856.33,-629.09 820.9,-500 803.38,-436.14 793.09,-419.21 749.9,-369 741.63,-359.38 732.36,-350.1 722.62,-341.28"/>
<polygon fill="none" stroke="#404040" points="722.57,-341.24 715.42,-340.29 713.55,-333.32 720.7,-334.28 722.57,-341.24"/>
<text text-anchor="middle" x="867.9" y="-719" font-family="Helvetica,sans-Serif" font-size="10.00"> +Shape</text>
</g>
<!-- Node10&#45;&gt;Node3 -->
<g id="edge9" class="edge">
<title>Node10&#45;&gt;Node3</title>
<path fill="none" stroke="#404040" d="M737.43,-1111.34C745.68,-1107.04 754.39,-1103.04 762.9,-1100 805.85,-1084.69 832,-1114.57 863.9,-1082 902,-1043.11 859.66,-1010.22 882.9,-961 887.47,-951.32 892.94,-951.89 898.9,-943 901.43,-939.24 903.93,-935.41 906.4,-931.53"/>
<polygon fill="none" stroke="#404040" points="906.54,-931.31 906.32,-924.1 912.89,-921.12 913.11,-928.33 906.54,-931.31"/>
<text text-anchor="middle" x="913.4" y="-1024.5" font-family="Helvetica,sans-Serif" font-size="10.00"> +Geometry</text>
<text text-anchor="middle" x="913.4" y="-1013.5" font-family="Helvetica,sans-Serif" font-size="10.00">+Shape</text>
</g>
<!-- Node11 -->
<g id="node11" class="node">
<title>Node11</title>
<g id="a_node11"><a xlink:title=" ">
<polygon fill="white" stroke="#bfbfbf" points="166.4,-671 166.4,-772 405.4,-772 405.4,-671 166.4,-671"/>
<text text-anchor="start" x="174.4" y="-760" font-family="Helvetica,sans-Serif" font-size="10.00">boost::mpl::if_::type</text>
<text text-anchor="start" x="174.4" y="-749" font-family="Helvetica,sans-Serif" font-size="10.00">::type&lt; mpl::bool_&lt; UseMeasures</text>
<text text-anchor="start" x="174.4" y="-738" font-family="Helvetica,sans-Serif" font-size="10.00">Storage &gt;, mpl::identity&lt; GeoNDMeasures</text>
<text text-anchor="start" x="174.4" y="-727" font-family="Helvetica,sans-Serif" font-size="10.00">Storage&lt; double &gt; &gt;, mpl::identity</text>
<text text-anchor="middle" x="285.9" y="-716" font-family="Helvetica,sans-Serif" font-size="10.00">&lt; GeoNDNoMeasuresStorage&lt; double &gt; &gt; &gt;</text>
<polyline fill="none" stroke="#bfbfbf" points="166.4,-709 405.4,-709 "/>
<text text-anchor="middle" x="285.9" y="-697" font-family="Helvetica,sans-Serif" font-size="10.00"> </text>
<polyline fill="none" stroke="#bfbfbf" points="166.4,-690 405.4,-690 "/>
<text text-anchor="middle" x="285.9" y="-678" font-family="Helvetica,sans-Serif" font-size="10.00"> </text>
</a>
</g>
</g>
<!-- Node11&#45;&gt;Node2 -->
<g id="edge10" class="edge">
<title>Node11&#45;&gt;Node2</title>
<path fill="none" stroke="midnightblue" d="M308.41,-661.26C338.35,-587.5 396.51,-460.12 472.9,-369 482.25,-357.85 492.93,-347.11 504.12,-337.01"/>
<polygon fill="none" stroke="midnightblue" points="305.03,-660.28 304.55,-670.87 311.52,-662.89 305.03,-660.28"/>
</g>
<!-- Node12 -->
<g id="node12" class="node">
<title>Node12</title>
<g id="a_node12"><a xlink:title=" ">
<polygon fill="white" stroke="#bfbfbf" points="423.4,-693 423.4,-750 578.4,-750 578.4,-693 423.4,-693"/>
<text text-anchor="middle" x="500.9" y="-738" font-family="Helvetica,sans-Serif" font-size="10.00">static constexpr uint16_type</text>
<polyline fill="none" stroke="#bfbfbf" points="423.4,-731 578.4,-731 "/>
<text text-anchor="middle" x="500.9" y="-719" font-family="Helvetica,sans-Serif" font-size="10.00"> </text>
<polyline fill="none" stroke="#bfbfbf" points="423.4,-712 578.4,-712 "/>
<text text-anchor="middle" x="500.9" y="-700" font-family="Helvetica,sans-Serif" font-size="10.00"> </text>
</a>
</g>
</g>
<!-- Node12&#45;&gt;Node2 -->
<g id="edge11" class="edge">
<title>Node12&#45;&gt;Node2</title>
<path fill="none" stroke="#404040" d="M494.22,-692.66C480.92,-631.33 456.24,-481.12 502.9,-369 503.96,-366.46 505.11,-363.94 506.35,-361.46"/>
<polygon fill="none" stroke="#404040" points="506.46,-361.26 505.87,-354.07 512.27,-350.76 512.86,-357.95 506.46,-361.26"/>
<text text-anchor="middle" x="552.4" y="-423" font-family="Helvetica,sans-Serif" font-size="10.00"> +meas_quad_order</text>
</g>
<!-- Node13 -->
<g id="node13" class="node">
<title>Node13</title>
<g id="a_node13"><a xlink:href="classstatic_01const_01int.html" target="_top" xlink:title=" ">
<polygon fill="white" stroke="black" points="596.4,-693 596.4,-750 685.4,-750 685.4,-693 596.4,-693"/>
<text text-anchor="middle" x="640.9" y="-738" font-family="Helvetica,sans-Serif" font-size="10.00">static const int</text>
<polyline fill="none" stroke="black" points="596.4,-731 685.4,-731 "/>
<text text-anchor="middle" x="640.9" y="-719" font-family="Helvetica,sans-Serif" font-size="10.00"> </text>
<polyline fill="none" stroke="black" points="596.4,-712 685.4,-712 "/>
<text text-anchor="middle" x="640.9" y="-700" font-family="Helvetica,sans-Serif" font-size="10.00"> </text>
</a>
</g>
</g>
<!-- Node13&#45;&gt;Node2 -->
<g id="edge12" class="edge">
<title>Node13&#45;&gt;Node2</title>
<path fill="none" stroke="#404040" d="M636.15,-692.71C628.81,-648.33 615.04,-558.66 609.9,-482 607.31,-443.23 606.62,-400.52 606.73,-363.16"/>
<polygon fill="none" stroke="#404040" points="606.74,-362.7 602.77,-356.68 606.8,-350.7 610.77,-356.73 606.74,-362.7"/>
<text text-anchor="middle" x="665.9" y="-434" font-family="Helvetica,sans-Serif" font-size="10.00"> +numEdges</text>
<text text-anchor="middle" x="665.9" y="-423" font-family="Helvetica,sans-Serif" font-size="10.00">+numFaces</text>
<text text-anchor="middle" x="665.9" y="-412" font-family="Helvetica,sans-Serif" font-size="10.00">+numTopologicalFaces</text>
</g>
<!-- Node14&#45;&gt;Node1 -->
<g id="edge15" class="edge">
<title>Node14&#45;&gt;Node1</title>
<path fill="none" stroke="midnightblue" d="M289.38,-359.72C314.46,-295.95 352.56,-199.05 377.84,-134.78"/>
<polygon fill="none" stroke="midnightblue" points="286.03,-358.68 285.63,-369.27 292.54,-361.24 286.03,-358.68"/>
</g>
</g>
</svg>
