<?xml version="1.0" encoding="UTF-8" standalone="no"?>
<!DOCTYPE svg PUBLIC "-//W3C//DTD SVG 1.1//EN"
 "http://www.w3.org/Graphics/SVG/1.1/DTD/svg11.dtd">
<!-- Generated by graphviz version 2.43.0 (0)
 -->
<!-- Title: Feel::SensorSurface&lt; Space &gt; Pages: 1 -->
<!--zoomable 623 -->
<svg id="main" version="1.1" xmlns="http://www.w3.org/2000/svg" xmlns:xlink="http://www.w3.org/1999/xlink" xml:space="preserve" onload="init(evt)">
<style type="text/css"><![CDATA[
.edge:hover path { stroke: red; }
.edge:hover polygon { stroke: red; fill: red; }
]]></style>
<script type="text/javascript"><![CDATA[
var edges = document.getElementsByTagName('g');
if (edges && edges.length) {
  for (var i=0;i<edges.length;i++) {
    if (edges[i].id.substr(0,4)=='edge') {
      edges[i].setAttribute('class','edge');
    }
  }
}
]]></script>
        <defs>
                <circle id="rim" cx="0" cy="0" r="7"/>
                <circle id="rim2" cx="0" cy="0" r="3.5"/>
                <g id="zoomPlus">
                        <use xlink:href="#rim" fill="#404040">
                                <set attributeName="fill" to="#808080" begin="zoomplus.mouseover" end="zoomplus.mouseout"/>
                        </use>
                        <path d="M-4,0h8M0,-4v8" fill="none" stroke="white" stroke-width="1.5" pointer-events="none"/>
                </g>
                <g id="zoomMin">
                        <use xlink:href="#rim" fill="#404040">
                                <set attributeName="fill" to="#808080" begin="zoomminus.mouseover" end="zoomminus.mouseout"/>
                        </use>
                        <path d="M-4,0h8" fill="none" stroke="white" stroke-width="1.5" pointer-events="none"/>
                </g>
                <g id="dirArrow">
                        <path fill="none" stroke="white" stroke-width="1.5" d="M0,-3.0v7 M-2.5,-0.5L0,-3.0L2.5,-0.5"/>
                </g>
               <g id="resetDef">
                       <use xlink:href="#rim2" fill="#404040">
                               <set attributeName="fill" to="#808080" begin="reset.mouseover" end="reset.mouseout"/>
                       </use>
               </g>
        </defs>

<script type="text/javascript">
var viewWidth = 160;
var viewHeight = 623;
var sectionId = 'dynsection-0';
</script>
<script xlink:href="svgpan.js"/>
<svg id="graph" class="graph">
<g id="viewport">
<title>Feel::SensorSurface&lt; Space &gt;</title>
<polygon fill="white" stroke="transparent" points="-4,4 -4,-619 156,-619 156,4 -4,4"/>
<!-- Node1 -->
<g id="node1" class="node">
<title>Node1</title>
<g id="a_node1"><a xlink:title="surface type sensor">
<polygon fill="#bfbfbf" stroke="black" points="19.5,-0.5 19.5,-134.5 132.5,-134.5 132.5,-0.5 19.5,-0.5"/>
<text text-anchor="start" x="27.5" y="-122.5" font-family="Helvetica,sans-Serif" font-size="10.00">Feel::SensorSurface</text>
<text text-anchor="middle" x="76" y="-111.5" font-family="Helvetica,sans-Serif" font-size="10.00">&lt; Space &gt;</text>
<polyline fill="none" stroke="black" points="19.5,-104.5 132.5,-104.5 "/>
<text text-anchor="start" x="27.5" y="-92.5" font-family="Helvetica,sans-Serif" font-size="10.00">+ nDim</text>
<polyline fill="none" stroke="black" points="19.5,-85.5 132.5,-85.5 "/>
<text text-anchor="start" x="27.5" y="-73.5" font-family="Helvetica,sans-Serif" font-size="10.00">+ init()</text>
<text text-anchor="start" x="27.5" y="-62.5" font-family="Helvetica,sans-Serif" font-size="10.00">+ markers()</text>
<text text-anchor="start" x="27.5" y="-51.5" font-family="Helvetica,sans-Serif" font-size="10.00">+ SensorSurface()</text>
<text text-anchor="start" x="27.5" y="-40.5" font-family="Helvetica,sans-Serif" font-size="10.00">+ SensorSurface()</text>
<text text-anchor="start" x="27.5" y="-29.5" font-family="Helvetica,sans-Serif" font-size="10.00">+ setMarkers()</text>
<text text-anchor="start" x="27.5" y="-18.5" font-family="Helvetica,sans-Serif" font-size="10.00">+ to_json()</text>
<text text-anchor="start" x="27.5" y="-7.5" font-family="Helvetica,sans-Serif" font-size="10.00">+ ~SensorSurface()</text>
</a>
</g>
</g>
<!-- Node2 -->
<g id="node2" class="node">
<title>Node2</title>
<g id="a_node2"><a xlink:href="classFeel_1_1SensorBase.html" target="_top" xlink:title=" ">
<polygon fill="white" stroke="black" points="0,-171.5 0,-294.5 152,-294.5 152,-171.5 0,-171.5"/>
<text text-anchor="middle" x="76" y="-282.5" font-family="Helvetica,sans-Serif" font-size="10.00">Feel::SensorBase&lt; Space &gt;</text>
<polyline fill="none" stroke="black" points="0,-275.5 152,-275.5 "/>
<text text-anchor="start" x="8" y="-263.5" font-family="Helvetica,sans-Serif" font-size="10.00"># M_name</text>
<text text-anchor="start" x="8" y="-252.5" font-family="Helvetica,sans-Serif" font-size="10.00"># M_type</text>
<polyline fill="none" stroke="black" points="0,-245.5 152,-245.5 "/>
<text text-anchor="start" x="8" y="-233.5" font-family="Helvetica,sans-Serif" font-size="10.00">+ init()</text>
<text text-anchor="start" x="8" y="-222.5" font-family="Helvetica,sans-Serif" font-size="10.00">+ name()</text>
<text text-anchor="start" x="8" y="-211.5" font-family="Helvetica,sans-Serif" font-size="10.00">+ SensorBase()</text>
<text text-anchor="start" x="8" y="-200.5" font-family="Helvetica,sans-Serif" font-size="10.00">+ SensorBase()</text>
<text text-anchor="start" x="8" y="-189.5" font-family="Helvetica,sans-Serif" font-size="10.00">+ setName()</text>
<text text-anchor="start" x="8" y="-178.5" font-family="Helvetica,sans-Serif" font-size="10.00">and 4 more...</text>
</a>
</g>
</g>
<!-- Node2&#45;&gt;Node1 -->
<g id="edge1" class="edge">
<title>Node2&#45;&gt;Node1</title>
<path fill="none" stroke="midnightblue" d="M76,-160.96C76,-152.22 76,-143.31 76,-134.64"/>
<polygon fill="none" stroke="midnightblue" points="72.5,-161.12 76,-171.12 79.5,-161.12 72.5,-161.12"/>
</g>
<!-- Node3 -->
<g id="node3" class="node">
<title>Node3</title>
<g id="a_node3"><a xlink:href="classFeel_1_1FsFunctionalLinear.html" target="_top" xlink:title=" ">
<polygon fill="white" stroke="black" points="9,-331.5 9,-454.5 143,-454.5 143,-331.5 9,-331.5"/>
<text text-anchor="start" x="17" y="-442.5" font-family="Helvetica,sans-Serif" font-size="10.00">Feel::FsFunctionalLinear</text>
<text text-anchor="middle" x="76" y="-431.5" font-family="Helvetica,sans-Serif" font-size="10.00">&lt; Space &gt;</text>
<polyline fill="none" stroke="black" points="9,-424.5 143,-424.5 "/>
<text text-anchor="middle" x="76" y="-412.5" font-family="Helvetica,sans-Serif" font-size="10.00"> </text>
<polyline fill="none" stroke="black" points="9,-405.5 143,-405.5 "/>
<text text-anchor="start" x="17" y="-393.5" font-family="Helvetica,sans-Serif" font-size="10.00">+ add()</text>
<text text-anchor="start" x="17" y="-382.5" font-family="Helvetica,sans-Serif" font-size="10.00">+ close()</text>
<text text-anchor="start" x="17" y="-371.5" font-family="Helvetica,sans-Serif" font-size="10.00">+ container()</text>
<text text-anchor="start" x="17" y="-360.5" font-family="Helvetica,sans-Serif" font-size="10.00">+ container()</text>
<text text-anchor="start" x="17" y="-349.5" font-family="Helvetica,sans-Serif" font-size="10.00">+ container()</text>
<text text-anchor="start" x="17" y="-338.5" font-family="Helvetica,sans-Serif" font-size="10.00">and 12 more...</text>
</a>
</g>
</g>
<!-- Node3&#45;&gt;Node2 -->
<g id="edge2" class="edge">
<title>Node3&#45;&gt;Node2</title>
<path fill="none" stroke="midnightblue" d="M76,-321.12C76,-312.31 76,-303.37 76,-294.73"/>
<polygon fill="none" stroke="midnightblue" points="72.5,-321.36 76,-331.36 79.5,-321.36 72.5,-321.36"/>
</g>
<!-- Node4 -->
<g id="node4" class="node">
<title>Node4</title>
<g id="a_node4"><a xlink:href="classFeel_1_1FsFunctional.html" target="_top" xlink:title=" ">
<polygon fill="white" stroke="black" points="23.5,-491.5 23.5,-614.5 128.5,-614.5 128.5,-491.5 23.5,-491.5"/>
<text text-anchor="start" x="31.5" y="-602.5" font-family="Helvetica,sans-Serif" font-size="10.00">Feel::FsFunctional</text>
<text text-anchor="middle" x="76" y="-591.5" font-family="Helvetica,sans-Serif" font-size="10.00">&lt; Space &gt;</text>
<polyline fill="none" stroke="black" points="23.5,-584.5 128.5,-584.5 "/>
<text text-anchor="middle" x="76" y="-572.5" font-family="Helvetica,sans-Serif" font-size="10.00"> </text>
<polyline fill="none" stroke="black" points="23.5,-565.5 128.5,-565.5 "/>
<text text-anchor="start" x="31.5" y="-553.5" font-family="Helvetica,sans-Serif" font-size="10.00">+ FsFunctional()</text>
<text text-anchor="start" x="31.5" y="-542.5" font-family="Helvetica,sans-Serif" font-size="10.00">+ FsFunctional()</text>
<text text-anchor="start" x="31.5" y="-531.5" font-family="Helvetica,sans-Serif" font-size="10.00">+ operator()()</text>
<text text-anchor="start" x="31.5" y="-520.5" font-family="Helvetica,sans-Serif" font-size="10.00">+ setSpace()</text>
<text text-anchor="start" x="31.5" y="-509.5" font-family="Helvetica,sans-Serif" font-size="10.00">+ space()</text>
<text text-anchor="start" x="31.5" y="-498.5" font-family="Helvetica,sans-Serif" font-size="10.00">+ ~FsFunctional()</text>
</a>
</g>
</g>
<!-- Node4&#45;&gt;Node3 -->
<g id="edge3" class="edge">
<title>Node4&#45;&gt;Node3</title>
<path fill="none" stroke="midnightblue" d="M76,-481.12C76,-472.31 76,-463.37 76,-454.73"/>
<polygon fill="none" stroke="midnightblue" points="72.5,-481.36 76,-491.36 79.5,-481.36 72.5,-481.36"/>
</g>
</g>
</svg>
        <g id="navigator" transform="translate(0 0)" fill="#404254">
                <rect fill="#f2f5e9" fill-opacity="0.5" stroke="#606060" stroke-width=".5" x="0" y="0" width="60" height="60"/>
                <use id="zoomplus" xlink:href="#zoomPlus" x="17" y="9" onmousedown="handleZoom(evt,'in')"/>
                <use id="zoomminus" xlink:href="#zoomMin" x="42" y="9" onmousedown="handleZoom(evt,'out')"/>
                <use id="reset" xlink:href="#resetDef" x="30" y="36" onmousedown="handleReset()"/>
                <g id="arrowUp" xlink:href="#dirArrow" transform="translate(30 24)" onmousedown="handlePan(0,-1)">
                  <use xlink:href="#rim" fill="#404040">
                        <set attributeName="fill" to="#808080" begin="arrowUp.mouseover" end="arrowUp.mouseout"/>
                  </use>
                  <path fill="none" stroke="white" stroke-width="1.5" d="M0,-3.0v7 M-2.5,-0.5L0,-3.0L2.5,-0.5"/>
                </g>
                <g id="arrowRight" xlink:href="#dirArrow" transform="rotate(90) translate(36 -43)" onmousedown="handlePan(1,0)">
                  <use xlink:href="#rim" fill="#404040">
                        <set attributeName="fill" to="#808080" begin="arrowRight.mouseover" end="arrowRight.mouseout"/>
                  </use>
                  <path fill="none" stroke="white" stroke-width="1.5" d="M0,-3.0v7 M-2.5,-0.5L0,-3.0L2.5,-0.5"/>
                </g>
                <g id="arrowDown" xlink:href="#dirArrow" transform="rotate(180) translate(-30 -48)" onmousedown="handlePan(0,1)">
                  <use xlink:href="#rim" fill="#404040">
                        <set attributeName="fill" to="#808080" begin="arrowDown.mouseover" end="arrowDown.mouseout"/>
                  </use>
                  <path fill="none" stroke="white" stroke-width="1.5" d="M0,-3.0v7 M-2.5,-0.5L0,-3.0L2.5,-0.5"/>
                </g>
                <g id="arrowLeft" xlink:href="#dirArrow" transform="rotate(270) translate(-36 17)" onmousedown="handlePan(-1,0)">
                  <use xlink:href="#rim" fill="#404040">
                        <set attributeName="fill" to="#808080" begin="arrowLeft.mouseover" end="arrowLeft.mouseout"/>
                  </use>
                  <path fill="none" stroke="white" stroke-width="1.5" d="M0,-3.0v7 M-2.5,-0.5L0,-3.0L2.5,-0.5"/>
                </g>
        </g>
        <svg viewBox="0 0 15 15" width="100%" height="30px" preserveAspectRatio="xMaxYMin meet">
         <g id="arrow_out" transform="scale(0.3 0.3)">
          <a xlink:href="classFeel_1_1SensorSurface__inherit__graph_org.svg" target="_base">
           <rect id="button" ry="5" rx="5" y="6" x="6" height="38" width="38"
                fill="#f2f5e9" fill-opacity="0.5" stroke="#606060" stroke-width="1.0"/>
           <path id="arrow"
             d="M 11.500037,31.436501 C 11.940474,20.09759 22.043105,11.32322 32.158766,21.979434 L 37.068811,17.246167 C 37.068811,17.246167 37.088388,32 37.088388,32 L 22.160133,31.978069 C 22.160133,31.978069 26.997745,27.140456 26.997745,27.140456 C 18.528582,18.264221 13.291696,25.230495 11.500037,31.436501 z"
             style="fill:#404040;"/>
          </a>
         </g>
        </svg>
</svg>
