<?xml version="1.0" encoding="UTF-8" standalone="no"?>
<!DOCTYPE svg PUBLIC "-//W3C//DTD SVG 1.1//EN"
 "http://www.w3.org/Graphics/SVG/1.1/DTD/svg11.dtd">
<!-- Generated by graphviz version 2.43.0 (0)
 -->
<!-- Title: Feel::FunctionSpace&lt; A0, A1, A2, A3, A4 &gt;::Context Pages: 1 -->
<svg width="208pt" height="353pt"
 viewBox="0.00 0.00 207.50 353.00" xmlns="http://www.w3.org/2000/svg" xmlns:xlink="http://www.w3.org/1999/xlink">
<g id="graph0" class="graph" transform="scale(1 1) rotate(0) translate(4 349)">
<title>Feel::FunctionSpace&lt; A0, A1, A2, A3, A4 &gt;::Context</title>
<polygon fill="white" stroke="transparent" points="-4,4 -4,-349 203.5,-349 203.5,4 -4,4"/>
<!-- Node1 -->
<g id="node1" class="node">
<title>Node1</title>
<g id="a_node1"><a xlink:title=" ">
<polygon fill="#bfbfbf" stroke="black" points="36.5,-0.5 36.5,-134.5 152.5,-134.5 152.5,-0.5 36.5,-0.5"/>
<text text-anchor="start" x="44.5" y="-122.5" font-family="Helvetica,sans-Serif" font-size="10.00">Feel::FunctionSpace</text>
<text text-anchor="start" x="44.5" y="-111.5" font-family="Helvetica,sans-Serif" font-size="10.00">&lt; A0, A1, A2, A3, A4</text>
<text text-anchor="middle" x="94.5" y="-100.5" font-family="Helvetica,sans-Serif" font-size="10.00"> &gt;::Context</text>
<polyline fill="none" stroke="black" points="36.5,-93.5 152.5,-93.5 "/>
<text text-anchor="middle" x="94.5" y="-81.5" font-family="Helvetica,sans-Serif" font-size="10.00"> </text>
<polyline fill="none" stroke="black" points="36.5,-74.5 152.5,-74.5 "/>
<text text-anchor="start" x="44.5" y="-62.5" font-family="Helvetica,sans-Serif" font-size="10.00">+ add()</text>
<text text-anchor="start" x="44.5" y="-51.5" font-family="Helvetica,sans-Serif" font-size="10.00">+ addCtx()</text>
<text text-anchor="start" x="44.5" y="-40.5" font-family="Helvetica,sans-Serif" font-size="10.00">+ Context()</text>
<text text-anchor="start" x="44.5" y="-29.5" font-family="Helvetica,sans-Serif" font-size="10.00">+ Context()</text>
<text text-anchor="start" x="44.5" y="-18.5" font-family="Helvetica,sans-Serif" font-size="10.00">+ Context()</text>
<text text-anchor="start" x="44.5" y="-7.5" font-family="Helvetica,sans-Serif" font-size="10.00">and 10 more...</text>
</a>
</g>
</g>
<!-- Node2 -->
<g id="node2" class="node">
<title>Node2</title>
<g id="a_node2"><a xlink:title=" ">
<polygon fill="white" stroke="black" points="0,-182.5 0,-239.5 101,-239.5 101,-182.5 0,-182.5"/>
<text text-anchor="middle" x="50.5" y="-227.5" font-family="Helvetica,sans-Serif" font-size="10.00">std::map&lt; K, T &gt;</text>
<polyline fill="none" stroke="black" points="0,-220.5 101,-220.5 "/>
<text text-anchor="middle" x="50.5" y="-208.5" font-family="Helvetica,sans-Serif" font-size="10.00"> </text>
<polyline fill="none" stroke="black" points="0,-201.5 101,-201.5 "/>
<text text-anchor="middle" x="50.5" y="-189.5" font-family="Helvetica,sans-Serif" font-size="10.00"> </text>
</a>
</g>
</g>
<!-- Node2&#45;&gt;Node1 -->
<g id="edge1" class="edge">
<title>Node2&#45;&gt;Node1</title>
<path fill="none" stroke="midnightblue" d="M62.13,-172.6C65.75,-160.96 69.86,-147.75 73.9,-134.75"/>
<polygon fill="none" stroke="midnightblue" points="58.72,-171.79 59.09,-182.38 65.4,-173.87 58.72,-171.79"/>
</g>
<!-- Node3 -->
<g id="node3" class="node">
<title>Node3</title>
<g id="a_node3"><a xlink:title=" ">
<polygon fill="white" stroke="#bfbfbf" points="8,-287.5 8,-344.5 37,-344.5 37,-287.5 8,-287.5"/>
<text text-anchor="middle" x="22.5" y="-332.5" font-family="Helvetica,sans-Serif" font-size="10.00">K</text>
<polyline fill="none" stroke="#bfbfbf" points="8,-325.5 37,-325.5 "/>
<text text-anchor="middle" x="22.5" y="-313.5" font-family="Helvetica,sans-Serif" font-size="10.00"> </text>
<polyline fill="none" stroke="#bfbfbf" points="8,-306.5 37,-306.5 "/>
<text text-anchor="middle" x="22.5" y="-294.5" font-family="Helvetica,sans-Serif" font-size="10.00"> </text>
</a>
</g>
</g>
<!-- Node3&#45;&gt;Node2 -->
<g id="edge2" class="edge">
<title>Node3&#45;&gt;Node2</title>
<path fill="none" stroke="#404040" d="M20.17,-287.33C20.11,-277.88 20.87,-267.34 23.5,-258 24.19,-255.56 25.03,-253.12 26,-250.7"/>
<polygon fill="none" stroke="#404040" points="26.09,-250.52 25.04,-243.39 31.23,-239.68 32.27,-246.82 26.09,-250.52"/>
<text text-anchor="middle" x="40.5" y="-261" font-family="Helvetica,sans-Serif" font-size="10.00"> +keys</text>
</g>
<!-- Node4 -->
<g id="node4" class="node">
<title>Node4</title>
<g id="a_node4"><a xlink:title=" ">
<polygon fill="white" stroke="#bfbfbf" points="65,-287.5 65,-344.5 94,-344.5 94,-287.5 65,-287.5"/>
<text text-anchor="middle" x="79.5" y="-332.5" font-family="Helvetica,sans-Serif" font-size="10.00">T</text>
<polyline fill="none" stroke="#bfbfbf" points="65,-325.5 94,-325.5 "/>
<text text-anchor="middle" x="79.5" y="-313.5" font-family="Helvetica,sans-Serif" font-size="10.00"> </text>
<polyline fill="none" stroke="#bfbfbf" points="65,-306.5 94,-306.5 "/>
<text text-anchor="middle" x="79.5" y="-294.5" font-family="Helvetica,sans-Serif" font-size="10.00"> </text>
</a>
</g>
</g>
<!-- Node4&#45;&gt;Node2 -->
<g id="edge3" class="edge">
<title>Node4&#45;&gt;Node2</title>
<path fill="none" stroke="#404040" d="M71.73,-287.4C68.61,-276.31 64.95,-263.33 61.56,-251.3"/>
<polygon fill="none" stroke="#404040" points="61.55,-251.23 56.07,-246.54 58.29,-239.68 63.77,-244.37 61.55,-251.23"/>
<text text-anchor="middle" x="95.5" y="-261" font-family="Helvetica,sans-Serif" font-size="10.00"> +elements</text>
</g>
<!-- Node5 -->
<g id="node5" class="node">
<title>Node5</title>
<g id="a_node5"><a xlink:href="classbool.html" target="_top" xlink:title=" ">
<polygon fill="white" stroke="#bfbfbf" points="119.5,-182.5 119.5,-239.5 157.5,-239.5 157.5,-182.5 119.5,-182.5"/>
<text text-anchor="middle" x="138.5" y="-227.5" font-family="Helvetica,sans-Serif" font-size="10.00">bool</text>
<polyline fill="none" stroke="#bfbfbf" points="119.5,-220.5 157.5,-220.5 "/>
<text text-anchor="middle" x="138.5" y="-208.5" font-family="Helvetica,sans-Serif" font-size="10.00"> </text>
<polyline fill="none" stroke="#bfbfbf" points="119.5,-201.5 157.5,-201.5 "/>
<text text-anchor="middle" x="138.5" y="-189.5" font-family="Helvetica,sans-Serif" font-size="10.00"> </text>
</a>
</g>
</g>
<!-- Node5&#45;&gt;Node1 -->
<g id="edge4" class="edge">
<title>Node5&#45;&gt;Node1</title>
<path fill="none" stroke="#404040" d="M129.91,-182.38C126.66,-171.91 122.77,-159.41 118.78,-146.58"/>
<polygon fill="none" stroke="#404040" points="118.66,-146.21 113.06,-141.67 115.1,-134.75 120.7,-139.29 118.66,-146.21"/>
<text text-anchor="middle" x="161" y="-156" font-family="Helvetica,sans-Serif" font-size="10.00"> +is_rb_context</text>
</g>
</g>
</svg>
