<?xml version="1.0" encoding="UTF-8" standalone="no"?>
<!DOCTYPE svg PUBLIC "-//W3C//DTD SVG 1.1//EN"
 "http://www.w3.org/Graphics/SVG/1.1/DTD/svg11.dtd">
<!-- Generated by graphviz version 2.43.0 (0)
 -->
<!-- Title: Feel::SensorBase&lt; Space, ValueT &gt; Pages: 1 -->
<!--zoomable 475 -->
<svg id="main" version="1.1" xmlns="http://www.w3.org/2000/svg" xmlns:xlink="http://www.w3.org/1999/xlink" xml:space="preserve" onload="init(evt)">
<style type="text/css"><![CDATA[
.edge:hover path { stroke: red; }
.edge:hover polygon { stroke: red; fill: red; }
]]></style>
<script type="text/javascript"><![CDATA[
var edges = document.getElementsByTagName('g');
if (edges && edges.length) {
  for (var i=0;i<edges.length;i++) {
    if (edges[i].id.substr(0,4)=='edge') {
      edges[i].setAttribute('class','edge');
    }
  }
}
]]></script>
        <defs>
                <circle id="rim" cx="0" cy="0" r="7"/>
                <circle id="rim2" cx="0" cy="0" r="3.5"/>
                <g id="zoomPlus">
                        <use xlink:href="#rim" fill="#404040">
                                <set attributeName="fill" to="#808080" begin="zoomplus.mouseover" end="zoomplus.mouseout"/>
                        </use>
                        <path d="M-4,0h8M0,-4v8" fill="none" stroke="white" stroke-width="1.5" pointer-events="none"/>
                </g>
                <g id="zoomMin">
                        <use xlink:href="#rim" fill="#404040">
                                <set attributeName="fill" to="#808080" begin="zoomminus.mouseover" end="zoomminus.mouseout"/>
                        </use>
                        <path d="M-4,0h8" fill="none" stroke="white" stroke-width="1.5" pointer-events="none"/>
                </g>
                <g id="dirArrow">
                        <path fill="none" stroke="white" stroke-width="1.5" d="M0,-3.0v7 M-2.5,-0.5L0,-3.0L2.5,-0.5"/>
                </g>
               <g id="resetDef">
                       <use xlink:href="#rim2" fill="#404040">
                               <set attributeName="fill" to="#808080" begin="reset.mouseover" end="reset.mouseout"/>
                       </use>
               </g>
        </defs>

<script type="text/javascript">
var viewWidth = 248;
var viewHeight = 475;
var sectionId = 'dynsection-1';
</script>
<script xlink:href="svgpan.js"/>
<svg id="graph" class="graph">
<g id="viewport">
<title>Feel::SensorBase&lt; Space, ValueT &gt;</title>
<polygon fill="white" stroke="transparent" points="-4,4 -4,-471 244,-471 244,4 -4,4"/>
<!-- Node1 -->
<g id="node1" class="node">
<title>Node1</title>
<g id="a_node1"><a xlink:title="base class for sensors">
<polygon fill="#bfbfbf" stroke="black" points="53.5,-0.5 53.5,-123.5 196.5,-123.5 196.5,-0.5 53.5,-0.5"/>
<text text-anchor="start" x="61.5" y="-111.5" font-family="Helvetica,sans-Serif" font-size="10.00">Feel::SensorBase&lt; Space,</text>
<text text-anchor="middle" x="125" y="-100.5" font-family="Helvetica,sans-Serif" font-size="10.00"> ValueT &gt;</text>
<polyline fill="none" stroke="black" points="53.5,-93.5 196.5,-93.5 "/>
<text text-anchor="middle" x="125" y="-81.5" font-family="Helvetica,sans-Serif" font-size="10.00"> </text>
<polyline fill="none" stroke="black" points="53.5,-74.5 196.5,-74.5 "/>
<text text-anchor="start" x="61.5" y="-62.5" font-family="Helvetica,sans-Serif" font-size="10.00">+ init()</text>
<text text-anchor="start" x="61.5" y="-51.5" font-family="Helvetica,sans-Serif" font-size="10.00">+ name()</text>
<text text-anchor="start" x="61.5" y="-40.5" font-family="Helvetica,sans-Serif" font-size="10.00">+ SensorBase()</text>
<text text-anchor="start" x="61.5" y="-29.5" font-family="Helvetica,sans-Serif" font-size="10.00">+ SensorBase()</text>
<text text-anchor="start" x="61.5" y="-18.5" font-family="Helvetica,sans-Serif" font-size="10.00">+ setName()</text>
<text text-anchor="start" x="61.5" y="-7.5" font-family="Helvetica,sans-Serif" font-size="10.00">and 4 more...</text>
</a>
</g>
</g>
<!-- Node2 -->
<g id="node2" class="node">
<title>Node2</title>
<g id="a_node2"><a xlink:href="classFeel_1_1FsFunctionalLinear.html" target="_top" xlink:title=" ">
<polygon fill="white" stroke="#bfbfbf" points="0,-182.5 0,-305.5 134,-305.5 134,-182.5 0,-182.5"/>
<text text-anchor="start" x="8" y="-293.5" font-family="Helvetica,sans-Serif" font-size="10.00">Feel::FsFunctionalLinear</text>
<text text-anchor="middle" x="67" y="-282.5" font-family="Helvetica,sans-Serif" font-size="10.00">&lt; Space &gt;</text>
<polyline fill="none" stroke="#bfbfbf" points="0,-275.5 134,-275.5 "/>
<text text-anchor="middle" x="67" y="-263.5" font-family="Helvetica,sans-Serif" font-size="10.00"> </text>
<polyline fill="none" stroke="#bfbfbf" points="0,-256.5 134,-256.5 "/>
<text text-anchor="start" x="8" y="-244.5" font-family="Helvetica,sans-Serif" font-size="10.00">+ add()</text>
<text text-anchor="start" x="8" y="-233.5" font-family="Helvetica,sans-Serif" font-size="10.00">+ close()</text>
<text text-anchor="start" x="8" y="-222.5" font-family="Helvetica,sans-Serif" font-size="10.00">+ container()</text>
<text text-anchor="start" x="8" y="-211.5" font-family="Helvetica,sans-Serif" font-size="10.00">+ container()</text>
<text text-anchor="start" x="8" y="-200.5" font-family="Helvetica,sans-Serif" font-size="10.00">+ container()</text>
<text text-anchor="start" x="8" y="-189.5" font-family="Helvetica,sans-Serif" font-size="10.00">and 12 more...</text>
</a>
</g>
</g>
<!-- Node2&#45;&gt;Node1 -->
<g id="edge1" class="edge">
<title>Node2&#45;&gt;Node1</title>
<path fill="none" stroke="midnightblue" d="M89.74,-172.42C94.93,-156.33 100.39,-139.37 105.43,-123.73"/>
<polygon fill="none" stroke="midnightblue" points="86.29,-171.72 86.56,-182.31 92.95,-173.87 86.29,-171.72"/>
</g>
<!-- Node3 -->
<g id="node3" class="node">
<title>Node3</title>
<g id="a_node3"><a xlink:href="classFeel_1_1FsFunctional.html" target="_top" xlink:title=" ">
<polygon fill="white" stroke="#bfbfbf" points="12.5,-343.5 12.5,-466.5 117.5,-466.5 117.5,-343.5 12.5,-343.5"/>
<text text-anchor="start" x="20.5" y="-454.5" font-family="Helvetica,sans-Serif" font-size="10.00">Feel::FsFunctional</text>
<text text-anchor="middle" x="65" y="-443.5" font-family="Helvetica,sans-Serif" font-size="10.00">&lt; Space &gt;</text>
<polyline fill="none" stroke="#bfbfbf" points="12.5,-436.5 117.5,-436.5 "/>
<text text-anchor="middle" x="65" y="-424.5" font-family="Helvetica,sans-Serif" font-size="10.00"> </text>
<polyline fill="none" stroke="#bfbfbf" points="12.5,-417.5 117.5,-417.5 "/>
<text text-anchor="start" x="20.5" y="-405.5" font-family="Helvetica,sans-Serif" font-size="10.00">+ FsFunctional()</text>
<text text-anchor="start" x="20.5" y="-394.5" font-family="Helvetica,sans-Serif" font-size="10.00">+ FsFunctional()</text>
<text text-anchor="start" x="20.5" y="-383.5" font-family="Helvetica,sans-Serif" font-size="10.00">+ operator()()</text>
<text text-anchor="start" x="20.5" y="-372.5" font-family="Helvetica,sans-Serif" font-size="10.00">+ setSpace()</text>
<text text-anchor="start" x="20.5" y="-361.5" font-family="Helvetica,sans-Serif" font-size="10.00">+ space()</text>
<text text-anchor="start" x="20.5" y="-350.5" font-family="Helvetica,sans-Serif" font-size="10.00">+ ~FsFunctional()</text>
</a>
</g>
</g>
<!-- Node3&#45;&gt;Node2 -->
<g id="edge2" class="edge">
<title>Node3&#45;&gt;Node2</title>
<path fill="none" stroke="midnightblue" d="M65.89,-333.17C66.01,-323.99 66.12,-314.65 66.24,-305.66"/>
<polygon fill="none" stroke="midnightblue" points="62.39,-333.39 65.76,-343.44 69.39,-333.48 62.39,-333.39"/>
</g>
<!-- Node4 -->
<g id="node4" class="node">
<title>Node4</title>
<g id="a_node4"><a xlink:title=" ">
<polygon fill="white" stroke="black" points="154.5,-215.5 154.5,-272.5 219.5,-272.5 219.5,-215.5 154.5,-215.5"/>
<text text-anchor="middle" x="187" y="-260.5" font-family="Helvetica,sans-Serif" font-size="10.00">std::string</text>
<polyline fill="none" stroke="black" points="154.5,-253.5 219.5,-253.5 "/>
<text text-anchor="middle" x="187" y="-241.5" font-family="Helvetica,sans-Serif" font-size="10.00"> </text>
<polyline fill="none" stroke="black" points="154.5,-234.5 219.5,-234.5 "/>
<text text-anchor="middle" x="187" y="-222.5" font-family="Helvetica,sans-Serif" font-size="10.00"> </text>
</a>
</g>
</g>
<!-- Node4&#45;&gt;Node1 -->
<g id="edge3" class="edge">
<title>Node4&#45;&gt;Node1</title>
<path fill="none" stroke="#404040" d="M177.45,-215.27C170.07,-193.86 159.52,-163.23 149.82,-135.05"/>
<polygon fill="none" stroke="#404040" points="149.77,-134.92 144.04,-130.55 145.86,-123.57 151.6,-127.94 149.77,-134.92"/>
<text text-anchor="middle" x="187" y="-156" font-family="Helvetica,sans-Serif" font-size="10.00"> #M_name</text>
<text text-anchor="middle" x="187" y="-145" font-family="Helvetica,sans-Serif" font-size="10.00">#M_type</text>
</g>
<!-- Node5 -->
<g id="node5" class="node">
<title>Node5</title>
<g id="a_node5"><a xlink:title=" ">
<polygon fill="white" stroke="black" points="136,-371 136,-439 240,-439 240,-371 136,-371"/>
<text text-anchor="start" x="144" y="-427" font-family="Helvetica,sans-Serif" font-size="10.00">std::basic_string&lt;</text>
<text text-anchor="middle" x="188" y="-416" font-family="Helvetica,sans-Serif" font-size="10.00"> Char &gt;</text>
<polyline fill="none" stroke="black" points="136,-409 240,-409 "/>
<text text-anchor="middle" x="188" y="-397" font-family="Helvetica,sans-Serif" font-size="10.00"> </text>
<polyline fill="none" stroke="black" points="136,-390 240,-390 "/>
<text text-anchor="middle" x="188" y="-378" font-family="Helvetica,sans-Serif" font-size="10.00"> </text>
</a>
</g>
</g>
<!-- Node5&#45;&gt;Node4 -->
<g id="edge4" class="edge">
<title>Node5&#45;&gt;Node4</title>
<path fill="none" stroke="midnightblue" d="M187.73,-360.35C187.55,-332.37 187.33,-296.9 187.17,-272.72"/>
<polygon fill="none" stroke="midnightblue" points="184.23,-360.69 187.79,-370.67 191.23,-360.65 184.23,-360.69"/>
</g>
</g>
</svg>
        <g id="navigator" transform="translate(0 0)" fill="#404254">
                <rect fill="#f2f5e9" fill-opacity="0.5" stroke="#606060" stroke-width=".5" x="0" y="0" width="60" height="60"/>
                <use id="zoomplus" xlink:href="#zoomPlus" x="17" y="9" onmousedown="handleZoom(evt,'in')"/>
                <use id="zoomminus" xlink:href="#zoomMin" x="42" y="9" onmousedown="handleZoom(evt,'out')"/>
                <use id="reset" xlink:href="#resetDef" x="30" y="36" onmousedown="handleReset()"/>
                <g id="arrowUp" xlink:href="#dirArrow" transform="translate(30 24)" onmousedown="handlePan(0,-1)">
                  <use xlink:href="#rim" fill="#404040">
                        <set attributeName="fill" to="#808080" begin="arrowUp.mouseover" end="arrowUp.mouseout"/>
                  </use>
                  <path fill="none" stroke="white" stroke-width="1.5" d="M0,-3.0v7 M-2.5,-0.5L0,-3.0L2.5,-0.5"/>
                </g>
                <g id="arrowRight" xlink:href="#dirArrow" transform="rotate(90) translate(36 -43)" onmousedown="handlePan(1,0)">
                  <use xlink:href="#rim" fill="#404040">
                        <set attributeName="fill" to="#808080" begin="arrowRight.mouseover" end="arrowRight.mouseout"/>
                  </use>
                  <path fill="none" stroke="white" stroke-width="1.5" d="M0,-3.0v7 M-2.5,-0.5L0,-3.0L2.5,-0.5"/>
                </g>
                <g id="arrowDown" xlink:href="#dirArrow" transform="rotate(180) translate(-30 -48)" onmousedown="handlePan(0,1)">
                  <use xlink:href="#rim" fill="#404040">
                        <set attributeName="fill" to="#808080" begin="arrowDown.mouseover" end="arrowDown.mouseout"/>
                  </use>
                  <path fill="none" stroke="white" stroke-width="1.5" d="M0,-3.0v7 M-2.5,-0.5L0,-3.0L2.5,-0.5"/>
                </g>
                <g id="arrowLeft" xlink:href="#dirArrow" transform="rotate(270) translate(-36 17)" onmousedown="handlePan(-1,0)">
                  <use xlink:href="#rim" fill="#404040">
                        <set attributeName="fill" to="#808080" begin="arrowLeft.mouseover" end="arrowLeft.mouseout"/>
                  </use>
                  <path fill="none" stroke="white" stroke-width="1.5" d="M0,-3.0v7 M-2.5,-0.5L0,-3.0L2.5,-0.5"/>
                </g>
        </g>
        <svg viewBox="0 0 15 15" width="100%" height="30px" preserveAspectRatio="xMaxYMin meet">
         <g id="arrow_out" transform="scale(0.3 0.3)">
          <a xlink:href="classFeel_1_1SensorBase__coll__graph_org.svg" target="_base">
           <rect id="button" ry="5" rx="5" y="6" x="6" height="38" width="38"
                fill="#f2f5e9" fill-opacity="0.5" stroke="#606060" stroke-width="1.0"/>
           <path id="arrow"
             d="M 11.500037,31.436501 C 11.940474,20.09759 22.043105,11.32322 32.158766,21.979434 L 37.068811,17.246167 C 37.068811,17.246167 37.088388,32 37.088388,32 L 22.160133,31.978069 C 22.160133,31.978069 26.997745,27.140456 26.997745,27.140456 C 18.528582,18.264221 13.291696,25.230495 11.500037,31.436501 z"
             style="fill:#404040;"/>
          </a>
         </g>
        </svg>
</svg>
