<?xml version="1.0" encoding="UTF-8" standalone="no"?>
<!DOCTYPE svg PUBLIC "-//W3C//DTD SVG 1.1//EN"
 "http://www.w3.org/Graphics/SVG/1.1/DTD/svg11.dtd">
<!-- Generated by graphviz version 2.43.0 (0)
 -->
<!-- Title: Feel::SensorPointwise&lt; Space &gt; Pages: 1 -->
<svg width="160pt" height="612pt"
 viewBox="0.00 0.00 160.00 612.00" xmlns="http://www.w3.org/2000/svg" xmlns:xlink="http://www.w3.org/1999/xlink">
<g id="graph0" class="graph" transform="scale(1 1) rotate(0) translate(4 608)">
<title>Feel::SensorPointwise&lt; Space &gt;</title>
<polygon fill="white" stroke="transparent" points="-4,4 -4,-608 156,-608 156,4 -4,4"/>
<!-- Node1 -->
<g id="node1" class="node">
<title>Node1</title>
<g id="a_node1"><a xlink:title="pointwise type sensor">
<polygon fill="#bfbfbf" stroke="black" points="14,-0.5 14,-123.5 138,-123.5 138,-0.5 14,-0.5"/>
<text text-anchor="start" x="22" y="-111.5" font-family="Helvetica,sans-Serif" font-size="10.00">Feel::SensorPointwise</text>
<text text-anchor="middle" x="76" y="-100.5" font-family="Helvetica,sans-Serif" font-size="10.00">&lt; Space &gt;</text>
<polyline fill="none" stroke="black" points="14,-93.5 138,-93.5 "/>
<text text-anchor="middle" x="76" y="-81.5" font-family="Helvetica,sans-Serif" font-size="10.00"> </text>
<polyline fill="none" stroke="black" points="14,-74.5 138,-74.5 "/>
<text text-anchor="start" x="22" y="-62.5" font-family="Helvetica,sans-Serif" font-size="10.00">+ init()</text>
<text text-anchor="start" x="22" y="-51.5" font-family="Helvetica,sans-Serif" font-size="10.00">+ position()</text>
<text text-anchor="start" x="22" y="-40.5" font-family="Helvetica,sans-Serif" font-size="10.00">+ SensorPointwise()</text>
<text text-anchor="start" x="22" y="-29.5" font-family="Helvetica,sans-Serif" font-size="10.00">+ SensorPointwise()</text>
<text text-anchor="start" x="22" y="-18.5" font-family="Helvetica,sans-Serif" font-size="10.00">+ setPosition()</text>
<text text-anchor="start" x="22" y="-7.5" font-family="Helvetica,sans-Serif" font-size="10.00">+ ~SensorPointwise()</text>
</a>
</g>
</g>
<!-- Node2 -->
<g id="node2" class="node">
<title>Node2</title>
<g id="a_node2"><a xlink:href="classFeel_1_1SensorBase.html" target="_top" xlink:title=" ">
<polygon fill="white" stroke="black" points="0,-160.5 0,-283.5 152,-283.5 152,-160.5 0,-160.5"/>
<text text-anchor="middle" x="76" y="-271.5" font-family="Helvetica,sans-Serif" font-size="10.00">Feel::SensorBase&lt; Space &gt;</text>
<polyline fill="none" stroke="black" points="0,-264.5 152,-264.5 "/>
<text text-anchor="start" x="8" y="-252.5" font-family="Helvetica,sans-Serif" font-size="10.00"># M_name</text>
<text text-anchor="start" x="8" y="-241.5" font-family="Helvetica,sans-Serif" font-size="10.00"># M_type</text>
<polyline fill="none" stroke="black" points="0,-234.5 152,-234.5 "/>
<text text-anchor="start" x="8" y="-222.5" font-family="Helvetica,sans-Serif" font-size="10.00">+ init()</text>
<text text-anchor="start" x="8" y="-211.5" font-family="Helvetica,sans-Serif" font-size="10.00">+ name()</text>
<text text-anchor="start" x="8" y="-200.5" font-family="Helvetica,sans-Serif" font-size="10.00">+ SensorBase()</text>
<text text-anchor="start" x="8" y="-189.5" font-family="Helvetica,sans-Serif" font-size="10.00">+ SensorBase()</text>
<text text-anchor="start" x="8" y="-178.5" font-family="Helvetica,sans-Serif" font-size="10.00">+ setName()</text>
<text text-anchor="start" x="8" y="-167.5" font-family="Helvetica,sans-Serif" font-size="10.00">and 4 more...</text>
</a>
</g>
</g>
<!-- Node2&#45;&gt;Node1 -->
<g id="edge1" class="edge">
<title>Node2&#45;&gt;Node1</title>
<path fill="none" stroke="midnightblue" d="M76,-150.12C76,-141.31 76,-132.37 76,-123.73"/>
<polygon fill="none" stroke="midnightblue" points="72.5,-150.36 76,-160.36 79.5,-150.36 72.5,-150.36"/>
</g>
<!-- Node3 -->
<g id="node3" class="node">
<title>Node3</title>
<g id="a_node3"><a xlink:href="classFeel_1_1FsFunctionalLinear.html" target="_top" xlink:title=" ">
<polygon fill="white" stroke="black" points="9,-320.5 9,-443.5 143,-443.5 143,-320.5 9,-320.5"/>
<text text-anchor="start" x="17" y="-431.5" font-family="Helvetica,sans-Serif" font-size="10.00">Feel::FsFunctionalLinear</text>
<text text-anchor="middle" x="76" y="-420.5" font-family="Helvetica,sans-Serif" font-size="10.00">&lt; Space &gt;</text>
<polyline fill="none" stroke="black" points="9,-413.5 143,-413.5 "/>
<text text-anchor="middle" x="76" y="-401.5" font-family="Helvetica,sans-Serif" font-size="10.00"> </text>
<polyline fill="none" stroke="black" points="9,-394.5 143,-394.5 "/>
<text text-anchor="start" x="17" y="-382.5" font-family="Helvetica,sans-Serif" font-size="10.00">+ add()</text>
<text text-anchor="start" x="17" y="-371.5" font-family="Helvetica,sans-Serif" font-size="10.00">+ close()</text>
<text text-anchor="start" x="17" y="-360.5" font-family="Helvetica,sans-Serif" font-size="10.00">+ container()</text>
<text text-anchor="start" x="17" y="-349.5" font-family="Helvetica,sans-Serif" font-size="10.00">+ container()</text>
<text text-anchor="start" x="17" y="-338.5" font-family="Helvetica,sans-Serif" font-size="10.00">+ container()</text>
<text text-anchor="start" x="17" y="-327.5" font-family="Helvetica,sans-Serif" font-size="10.00">and 12 more...</text>
</a>
</g>
</g>
<!-- Node3&#45;&gt;Node2 -->
<g id="edge2" class="edge">
<title>Node3&#45;&gt;Node2</title>
<path fill="none" stroke="midnightblue" d="M76,-310.12C76,-301.31 76,-292.37 76,-283.73"/>
<polygon fill="none" stroke="midnightblue" points="72.5,-310.36 76,-320.36 79.5,-310.36 72.5,-310.36"/>
</g>
<!-- Node4 -->
<g id="node4" class="node">
<title>Node4</title>
<g id="a_node4"><a xlink:href="classFeel_1_1FsFunctional.html" target="_top" xlink:title=" ">
<polygon fill="white" stroke="black" points="23.5,-480.5 23.5,-603.5 128.5,-603.5 128.5,-480.5 23.5,-480.5"/>
<text text-anchor="start" x="31.5" y="-591.5" font-family="Helvetica,sans-Serif" font-size="10.00">Feel::FsFunctional</text>
<text text-anchor="middle" x="76" y="-580.5" font-family="Helvetica,sans-Serif" font-size="10.00">&lt; Space &gt;</text>
<polyline fill="none" stroke="black" points="23.5,-573.5 128.5,-573.5 "/>
<text text-anchor="middle" x="76" y="-561.5" font-family="Helvetica,sans-Serif" font-size="10.00"> </text>
<polyline fill="none" stroke="black" points="23.5,-554.5 128.5,-554.5 "/>
<text text-anchor="start" x="31.5" y="-542.5" font-family="Helvetica,sans-Serif" font-size="10.00">+ FsFunctional()</text>
<text text-anchor="start" x="31.5" y="-531.5" font-family="Helvetica,sans-Serif" font-size="10.00">+ FsFunctional()</text>
<text text-anchor="start" x="31.5" y="-520.5" font-family="Helvetica,sans-Serif" font-size="10.00">+ operator()()</text>
<text text-anchor="start" x="31.5" y="-509.5" font-family="Helvetica,sans-Serif" font-size="10.00">+ setSpace()</text>
<text text-anchor="start" x="31.5" y="-498.5" font-family="Helvetica,sans-Serif" font-size="10.00">+ space()</text>
<text text-anchor="start" x="31.5" y="-487.5" font-family="Helvetica,sans-Serif" font-size="10.00">+ ~FsFunctional()</text>
</a>
</g>
</g>
<!-- Node4&#45;&gt;Node3 -->
<g id="edge3" class="edge">
<title>Node4&#45;&gt;Node3</title>
<path fill="none" stroke="midnightblue" d="M76,-470.12C76,-461.31 76,-452.37 76,-443.73"/>
<polygon fill="none" stroke="midnightblue" points="72.5,-470.36 76,-480.36 79.5,-470.36 72.5,-470.36"/>
</g>
</g>
</svg>
