<?xml version="1.0" encoding="UTF-8" standalone="no"?>
<!DOCTYPE svg PUBLIC "-//W3C//DTD SVG 1.1//EN"
 "http://www.w3.org/Graphics/SVG/1.1/DTD/svg11.dtd">
<!-- Generated by graphviz version 2.43.0 (0)
 -->
<!-- Title: Feel::TSBase Pages: 1 -->
<svg width="1117pt" height="507pt"
 viewBox="0.00 0.00 1116.50 507.00" xmlns="http://www.w3.org/2000/svg" xmlns:xlink="http://www.w3.org/1999/xlink">
<g id="graph0" class="graph" transform="scale(1 1) rotate(0) translate(4 503)">
<title>Feel::TSBase</title>
<polygon fill="white" stroke="transparent" points="-4,4 -4,-503 1112.5,-503 1112.5,4 -4,4"/>
<!-- Node1 -->
<g id="node1" class="node">
<title>Node1</title>
<g id="a_node1"><a xlink:title="base class for time sets">
<polygon fill="#bfbfbf" stroke="black" points="497,-0.5 497,-123.5 634,-123.5 634,-0.5 497,-0.5"/>
<text text-anchor="middle" x="565.5" y="-111.5" font-family="Helvetica,sans-Serif" font-size="10.00">Feel::TSBase</text>
<polyline fill="none" stroke="black" points="497,-104.5 634,-104.5 "/>
<text text-anchor="middle" x="565.5" y="-92.5" font-family="Helvetica,sans-Serif" font-size="10.00"> </text>
<polyline fill="none" stroke="black" points="497,-85.5 634,-85.5 "/>
<text text-anchor="start" x="505" y="-73.5" font-family="Helvetica,sans-Serif" font-size="10.00">+ doRestartAtLastSave()</text>
<text text-anchor="start" x="505" y="-62.5" font-family="Helvetica,sans-Serif" font-size="10.00">+ fileFormat()</text>
<text text-anchor="start" x="505" y="-51.5" font-family="Helvetica,sans-Serif" font-size="10.00">+ isFinished()</text>
<text text-anchor="start" x="505" y="-40.5" font-family="Helvetica,sans-Serif" font-size="10.00">+ isRestart()</text>
<text text-anchor="start" x="505" y="-29.5" font-family="Helvetica,sans-Serif" font-size="10.00">+ isReverse()</text>
<text text-anchor="start" x="505" y="-18.5" font-family="Helvetica,sans-Serif" font-size="10.00">and 53 more...</text>
<text text-anchor="start" x="505" y="-7.5" font-family="Helvetica,sans-Serif" font-size="10.00"># init()</text>
</a>
</g>
</g>
<!-- Node2 -->
<g id="node2" class="node">
<title>Node2</title>
<g id="a_node2"><a xlink:href="classFeel_1_1WorldComm.html" target="_top" xlink:title="Provides interface to MPI Communicators.">
<polygon fill="white" stroke="black" points="87.5,-248.5 87.5,-382.5 223.5,-382.5 223.5,-248.5 87.5,-248.5"/>
<text text-anchor="middle" x="155.5" y="-370.5" font-family="Helvetica,sans-Serif" font-size="10.00">Feel::WorldComm</text>
<polyline fill="none" stroke="black" points="87.5,-363.5 223.5,-363.5 "/>
<text text-anchor="middle" x="155.5" y="-351.5" font-family="Helvetica,sans-Serif" font-size="10.00"> </text>
<polyline fill="none" stroke="black" points="87.5,-344.5 223.5,-344.5 "/>
<text text-anchor="start" x="95.5" y="-332.5" font-family="Helvetica,sans-Serif" font-size="10.00">+ activityOnWorld()</text>
<text text-anchor="start" x="95.5" y="-321.5" font-family="Helvetica,sans-Serif" font-size="10.00">+ applyActivityOnlyOn()</text>
<text text-anchor="start" x="95.5" y="-310.5" font-family="Helvetica,sans-Serif" font-size="10.00">+ clone()</text>
<text text-anchor="start" x="95.5" y="-299.5" font-family="Helvetica,sans-Serif" font-size="10.00">+ comm()</text>
<text text-anchor="start" x="95.5" y="-288.5" font-family="Helvetica,sans-Serif" font-size="10.00">+ globalComm()</text>
<text text-anchor="start" x="95.5" y="-277.5" font-family="Helvetica,sans-Serif" font-size="10.00">and 61 more...</text>
<text text-anchor="start" x="95.5" y="-266.5" font-family="Helvetica,sans-Serif" font-size="10.00">+ New()</text>
<text text-anchor="start" x="95.5" y="-255.5" font-family="Helvetica,sans-Serif" font-size="10.00">+ New()</text>
</a>
</g>
</g>
<!-- Node2&#45;&gt;Node1 -->
<g id="edge1" class="edge">
<title>Node2&#45;&gt;Node1</title>
<path fill="none" stroke="#404040" d="M136.32,-248.31C130.34,-213 130.56,-170.98 154.5,-142 195.55,-92.31 377.1,-73.55 484.69,-66.72"/>
<polygon fill="none" stroke="#404040" points="484.81,-66.71 490.56,-62.35 496.79,-65.98 491.04,-70.33 484.81,-66.71"/>
<text text-anchor="middle" x="197" y="-183.5" font-family="Helvetica,sans-Serif" font-size="10.00"> #M_worldComm</text>
</g>
<!-- Node3 -->
<g id="node3" class="node">
<title>Node3</title>
<g id="a_node3"><a xlink:href="classboost_1_1mpi_1_1communicator.html" target="_top" xlink:title=" ">
<polygon fill="white" stroke="black" points="0,-436 0,-493 145,-493 145,-436 0,-436"/>
<text text-anchor="middle" x="72.5" y="-481" font-family="Helvetica,sans-Serif" font-size="10.00">boost::mpi::communicator</text>
<polyline fill="none" stroke="black" points="0,-474 145,-474 "/>
<text text-anchor="middle" x="72.5" y="-462" font-family="Helvetica,sans-Serif" font-size="10.00"> </text>
<polyline fill="none" stroke="black" points="0,-455 145,-455 "/>
<text text-anchor="middle" x="72.5" y="-443" font-family="Helvetica,sans-Serif" font-size="10.00"> </text>
</a>
</g>
</g>
<!-- Node3&#45;&gt;Node2 -->
<g id="edge2" class="edge">
<title>Node3&#45;&gt;Node2</title>
<path fill="none" stroke="midnightblue" d="M93.13,-426.96C100.69,-413.57 109.5,-397.97 118.08,-382.77"/>
<polygon fill="none" stroke="midnightblue" points="89.98,-425.42 88.11,-435.85 96.08,-428.86 89.98,-425.42"/>
</g>
<!-- Node4 -->
<g id="node4" class="node">
<title>Node4</title>
<g id="a_node4"><a xlink:title=" ">
<polygon fill="white" stroke="#bfbfbf" points="163.5,-430.5 163.5,-498.5 315.5,-498.5 315.5,-430.5 163.5,-430.5"/>
<text text-anchor="start" x="171.5" y="-486.5" font-family="Helvetica,sans-Serif" font-size="10.00">std::enable_shared</text>
<text text-anchor="middle" x="239.5" y="-475.5" font-family="Helvetica,sans-Serif" font-size="10.00">_from_this&lt; WorldComm &gt;</text>
<polyline fill="none" stroke="#bfbfbf" points="163.5,-468.5 315.5,-468.5 "/>
<text text-anchor="middle" x="239.5" y="-456.5" font-family="Helvetica,sans-Serif" font-size="10.00"> </text>
<polyline fill="none" stroke="#bfbfbf" points="163.5,-449.5 315.5,-449.5 "/>
<text text-anchor="middle" x="239.5" y="-437.5" font-family="Helvetica,sans-Serif" font-size="10.00"> </text>
</a>
</g>
</g>
<!-- Node4&#45;&gt;Node2 -->
<g id="edge3" class="edge">
<title>Node4&#45;&gt;Node2</title>
<path fill="none" stroke="midnightblue" d="M215.36,-421.25C208.49,-409.24 200.85,-395.86 193.38,-382.79"/>
<polygon fill="none" stroke="midnightblue" points="212.44,-423.2 220.44,-430.14 218.52,-419.72 212.44,-423.2"/>
</g>
<!-- Node5 -->
<g id="node5" class="node">
<title>Node5</title>
<g id="a_node5"><a xlink:title=" ">
<polygon fill="white" stroke="#bfbfbf" points="244.5,-287 244.5,-344 282.5,-344 282.5,-287 244.5,-287"/>
<text text-anchor="middle" x="263.5" y="-332" font-family="Helvetica,sans-Serif" font-size="10.00">path</text>
<polyline fill="none" stroke="#bfbfbf" points="244.5,-325 282.5,-325 "/>
<text text-anchor="middle" x="263.5" y="-313" font-family="Helvetica,sans-Serif" font-size="10.00"> </text>
<polyline fill="none" stroke="#bfbfbf" points="244.5,-306 282.5,-306 "/>
<text text-anchor="middle" x="263.5" y="-294" font-family="Helvetica,sans-Serif" font-size="10.00"> </text>
</a>
</g>
</g>
<!-- Node5&#45;&gt;Node1 -->
<g id="edge4" class="edge">
<title>Node5&#45;&gt;Node1</title>
<path fill="none" stroke="#404040" d="M254.26,-286.69C243.83,-249.56 232.18,-183.64 264.5,-142 291.36,-107.39 404.98,-84.93 484.66,-73.11"/>
<polygon fill="none" stroke="#404040" points="484.77,-73.09 490.14,-68.28 496.65,-71.37 491.29,-76.19 484.77,-73.09"/>
<text text-anchor="middle" x="304.5" y="-189" font-family="Helvetica,sans-Serif" font-size="10.00"> #M_restartPath</text>
<text text-anchor="middle" x="304.5" y="-178" font-family="Helvetica,sans-Serif" font-size="10.00">#M_path_save</text>
</g>
<!-- Node6 -->
<g id="node6" class="node">
<title>Node6</title>
<g id="a_node6"><a xlink:href="classdouble.html" target="_top" xlink:title=" ">
<polygon fill="white" stroke="black" points="379.5,-436 379.5,-493 429.5,-493 429.5,-436 379.5,-436"/>
<text text-anchor="middle" x="404.5" y="-481" font-family="Helvetica,sans-Serif" font-size="10.00">double</text>
<polyline fill="none" stroke="black" points="379.5,-474 429.5,-474 "/>
<text text-anchor="middle" x="404.5" y="-462" font-family="Helvetica,sans-Serif" font-size="10.00"> </text>
<polyline fill="none" stroke="black" points="379.5,-455 429.5,-455 "/>
<text text-anchor="middle" x="404.5" y="-443" font-family="Helvetica,sans-Serif" font-size="10.00"> </text>
</a>
</g>
</g>
<!-- Node6&#45;&gt;Node1 -->
<g id="edge5" class="edge">
<title>Node6&#45;&gt;Node1</title>
<path fill="none" stroke="#404040" d="M388.19,-435.86C380.24,-420.79 371.54,-401.48 367.5,-383 354.67,-324.39 353.5,-306.34 367.5,-248 379.84,-196.59 384.69,-179.95 421.5,-142 439.67,-123.27 463.24,-107.83 486.04,-95.73"/>
<polygon fill="none" stroke="#404040" points="486.11,-95.7 489.63,-89.41 496.79,-90.24 493.27,-96.53 486.11,-95.7"/>
<text text-anchor="middle" x="402.5" y="-340.5" font-family="Helvetica,sans-Serif" font-size="10.00"> #M_dt</text>
<text text-anchor="middle" x="402.5" y="-329.5" font-family="Helvetica,sans-Serif" font-size="10.00">#M_Tf</text>
<text text-anchor="middle" x="402.5" y="-318.5" font-family="Helvetica,sans-Serif" font-size="10.00">#M_time</text>
<text text-anchor="middle" x="402.5" y="-307.5" font-family="Helvetica,sans-Serif" font-size="10.00">#M_Ti</text>
<text text-anchor="start" x="367.5" y="-296.5" font-family="Helvetica,sans-Serif" font-size="10.00">#M_real_time</text>
<text text-anchor="middle" x="402.5" y="-285.5" font-family="Helvetica,sans-Serif" font-size="10.00">_per_iteration</text>
</g>
<!-- Node12 -->
<g id="node12" class="node">
<title>Node12</title>
<g id="a_node12"><a xlink:title=" ">
<polygon fill="white" stroke="#bfbfbf" points="446.5,-287 446.5,-344 570.5,-344 570.5,-287 446.5,-287"/>
<text text-anchor="middle" x="508.5" y="-332" font-family="Helvetica,sans-Serif" font-size="10.00">std::vector&lt; double &gt;</text>
<polyline fill="none" stroke="#bfbfbf" points="446.5,-325 570.5,-325 "/>
<text text-anchor="middle" x="508.5" y="-313" font-family="Helvetica,sans-Serif" font-size="10.00"> </text>
<polyline fill="none" stroke="#bfbfbf" points="446.5,-306 570.5,-306 "/>
<text text-anchor="middle" x="508.5" y="-294" font-family="Helvetica,sans-Serif" font-size="10.00"> </text>
</a>
</g>
</g>
<!-- Node6&#45;&gt;Node12 -->
<g id="edge12" class="edge">
<title>Node6&#45;&gt;Node12</title>
<path fill="none" stroke="#404040" d="M424.06,-435.85C440.4,-412.75 463.86,-379.59 481.91,-354.09"/>
<polygon fill="none" stroke="#404040" points="482.1,-353.82 482.3,-346.61 489.03,-344.03 488.83,-351.23 482.1,-353.82"/>
<text text-anchor="middle" x="475.5" y="-404" font-family="Helvetica,sans-Serif" font-size="10.00"> +elements</text>
</g>
<!-- Node7 -->
<g id="node7" class="node">
<title>Node7</title>
<g id="a_node7"><a xlink:href="classint.html" target="_top" xlink:title=" ">
<polygon fill="white" stroke="black" points="589,-287 589,-344 618,-344 618,-287 589,-287"/>
<text text-anchor="middle" x="603.5" y="-332" font-family="Helvetica,sans-Serif" font-size="10.00">int</text>
<polyline fill="none" stroke="black" points="589,-325 618,-325 "/>
<text text-anchor="middle" x="603.5" y="-313" font-family="Helvetica,sans-Serif" font-size="10.00"> </text>
<polyline fill="none" stroke="black" points="589,-306 618,-306 "/>
<text text-anchor="middle" x="603.5" y="-294" font-family="Helvetica,sans-Serif" font-size="10.00"> </text>
</a>
</g>
</g>
<!-- Node7&#45;&gt;Node1 -->
<g id="edge6" class="edge">
<title>Node7&#45;&gt;Node1</title>
<path fill="none" stroke="#404040" d="M595.46,-286.91C591.41,-274.66 585.98,-260.26 579.5,-248 574.89,-239.27 569.56,-239.38 566.5,-230 556.73,-200.08 555.06,-165.51 556.39,-135.62"/>
<polygon fill="none" stroke="#404040" points="556.39,-135.53 552.75,-129.3 557.09,-123.55 560.73,-129.77 556.39,-135.53"/>
<text text-anchor="middle" x="631.5" y="-205.5" font-family="Helvetica,sans-Serif" font-size="10.00"> #M_n_restart</text>
<text text-anchor="middle" x="631.5" y="-194.5" font-family="Helvetica,sans-Serif" font-size="10.00">#M_saveFreq</text>
<text text-anchor="start" x="566.5" y="-183.5" font-family="Helvetica,sans-Serif" font-size="10.00">#M_restartStepBeforeLast</text>
<text text-anchor="middle" x="631.5" y="-172.5" font-family="Helvetica,sans-Serif" font-size="10.00">Save</text>
<text text-anchor="middle" x="631.5" y="-161.5" font-family="Helvetica,sans-Serif" font-size="10.00">#M_iteration</text>
</g>
<!-- Node8 -->
<g id="node8" class="node">
<title>Node8</title>
<g id="a_node8"><a xlink:title=" ">
<polygon fill="white" stroke="#bfbfbf" points="696.5,-287 696.5,-344 740.5,-344 740.5,-287 696.5,-287"/>
<text text-anchor="middle" x="718.5" y="-332" font-family="Helvetica,sans-Serif" font-size="10.00">Timer</text>
<polyline fill="none" stroke="#bfbfbf" points="696.5,-325 740.5,-325 "/>
<text text-anchor="middle" x="718.5" y="-313" font-family="Helvetica,sans-Serif" font-size="10.00"> </text>
<polyline fill="none" stroke="#bfbfbf" points="696.5,-306 740.5,-306 "/>
<text text-anchor="middle" x="718.5" y="-294" font-family="Helvetica,sans-Serif" font-size="10.00"> </text>
</a>
</g>
</g>
<!-- Node8&#45;&gt;Node1 -->
<g id="edge7" class="edge">
<title>Node8&#45;&gt;Node1</title>
<path fill="none" stroke="#404040" d="M717.86,-286.76C716.39,-244.2 711.66,-165.27 696.5,-142 683.9,-122.67 664.77,-107.36 644.98,-95.57"/>
<polygon fill="none" stroke="#404040" points="644.74,-95.43 637.55,-95.98 634.28,-89.55 641.48,-89 644.74,-95.43"/>
<text text-anchor="middle" x="739.5" y="-183.5" font-family="Helvetica,sans-Serif" font-size="10.00"> #M_timer</text>
</g>
<!-- Node9 -->
<g id="node9" class="node">
<title>Node9</title>
<g id="a_node9"><a xlink:href="classbool.html" target="_top" xlink:title=" ">
<polygon fill="white" stroke="black" points="774.5,-287 774.5,-344 812.5,-344 812.5,-287 774.5,-287"/>
<text text-anchor="middle" x="793.5" y="-332" font-family="Helvetica,sans-Serif" font-size="10.00">bool</text>
<polyline fill="none" stroke="black" points="774.5,-325 812.5,-325 "/>
<text text-anchor="middle" x="793.5" y="-313" font-family="Helvetica,sans-Serif" font-size="10.00"> </text>
<polyline fill="none" stroke="black" points="774.5,-306 812.5,-306 "/>
<text text-anchor="middle" x="793.5" y="-294" font-family="Helvetica,sans-Serif" font-size="10.00"> </text>
</a>
</g>
</g>
<!-- Node9&#45;&gt;Node1 -->
<g id="edge8" class="edge">
<title>Node9&#45;&gt;Node1</title>
<path fill="none" stroke="#404040" d="M792.98,-286.77C791.64,-243.81 786.82,-163.87 769.5,-142 739.65,-104.31 689.43,-84.57 646.3,-74.26"/>
<polygon fill="none" stroke="#404040" points="646.05,-74.2 639.32,-76.8 634.34,-71.59 641.07,-68.99 646.05,-74.2"/>
<text text-anchor="middle" x="857" y="-222" font-family="Helvetica,sans-Serif" font-size="10.00"> #M_restart</text>
<text text-anchor="middle" x="857" y="-211" font-family="Helvetica,sans-Serif" font-size="10.00">#M_rankProcInNameOfFiles</text>
<text text-anchor="middle" x="857" y="-200" font-family="Helvetica,sans-Serif" font-size="10.00">#M_saveInFile</text>
<text text-anchor="middle" x="857" y="-189" font-family="Helvetica,sans-Serif" font-size="10.00">#M_reverse</text>
<text text-anchor="middle" x="857" y="-178" font-family="Helvetica,sans-Serif" font-size="10.00">#M_reverseLoad</text>
<text text-anchor="middle" x="857" y="-167" font-family="Helvetica,sans-Serif" font-size="10.00">#M_restartAtLastSave</text>
<text text-anchor="middle" x="857" y="-156" font-family="Helvetica,sans-Serif" font-size="10.00">#M_steady</text>
<text text-anchor="middle" x="857" y="-145" font-family="Helvetica,sans-Serif" font-size="10.00">#M_displayStats</text>
</g>
<!-- Node10 -->
<g id="node10" class="node">
<title>Node10</title>
<g id="a_node10"><a xlink:title="STL class.">
<polygon fill="white" stroke="#bfbfbf" points="921,-287 921,-344 986,-344 986,-287 921,-287"/>
<text text-anchor="middle" x="953.5" y="-332" font-family="Helvetica,sans-Serif" font-size="10.00">std::string</text>
<polyline fill="none" stroke="#bfbfbf" points="921,-325 986,-325 "/>
<text text-anchor="middle" x="953.5" y="-313" font-family="Helvetica,sans-Serif" font-size="10.00"> </text>
<polyline fill="none" stroke="#bfbfbf" points="921,-306 986,-306 "/>
<text text-anchor="middle" x="953.5" y="-294" font-family="Helvetica,sans-Serif" font-size="10.00"> </text>
</a>
</g>
</g>
<!-- Node10&#45;&gt;Node1 -->
<g id="edge9" class="edge">
<title>Node10&#45;&gt;Node1</title>
<path fill="none" stroke="#404040" d="M953.37,-286.79C952.58,-243.46 948.52,-162.51 929.5,-142 891.85,-101.4 741.7,-79.77 646.4,-69.89"/>
<polygon fill="none" stroke="#404040" points="646.14,-69.87 639.76,-73.24 634.2,-68.66 640.57,-65.28 646.14,-69.87"/>
<text text-anchor="middle" x="987" y="-194.5" font-family="Helvetica,sans-Serif" font-size="10.00"> #M_name</text>
<text text-anchor="middle" x="987" y="-183.5" font-family="Helvetica,sans-Serif" font-size="10.00">#M_prefix</text>
<text text-anchor="middle" x="987" y="-172.5" font-family="Helvetica,sans-Serif" font-size="10.00">#M_fileFormat</text>
</g>
<!-- Node11 -->
<g id="node11" class="node">
<title>Node11</title>
<g id="a_node11"><a xlink:title="STL class.">
<polygon fill="white" stroke="#bfbfbf" points="901.5,-430.5 901.5,-498.5 1005.5,-498.5 1005.5,-430.5 901.5,-430.5"/>
<text text-anchor="start" x="909.5" y="-486.5" font-family="Helvetica,sans-Serif" font-size="10.00">std::basic_string&lt;</text>
<text text-anchor="middle" x="953.5" y="-475.5" font-family="Helvetica,sans-Serif" font-size="10.00"> char &gt;</text>
<polyline fill="none" stroke="#bfbfbf" points="901.5,-468.5 1005.5,-468.5 "/>
<text text-anchor="middle" x="953.5" y="-456.5" font-family="Helvetica,sans-Serif" font-size="10.00"> </text>
<polyline fill="none" stroke="#bfbfbf" points="901.5,-449.5 1005.5,-449.5 "/>
<text text-anchor="middle" x="953.5" y="-437.5" font-family="Helvetica,sans-Serif" font-size="10.00"> </text>
</a>
</g>
</g>
<!-- Node11&#45;&gt;Node10 -->
<g id="edge10" class="edge">
<title>Node11&#45;&gt;Node10</title>
<path fill="none" stroke="midnightblue" d="M953.5,-420.01C953.5,-395.51 953.5,-365.64 953.5,-344.3"/>
<polygon fill="none" stroke="midnightblue" points="950,-420.14 953.5,-430.14 957,-420.14 950,-420.14"/>
</g>
<!-- Node12&#45;&gt;Node1 -->
<g id="edge11" class="edge">
<title>Node12&#45;&gt;Node1</title>
<path fill="none" stroke="#404040" d="M477.15,-286.88C462.38,-271.75 446.32,-251.69 438.5,-230 425.24,-193.21 419.5,-176.19 438.5,-142 449.35,-122.47 467.26,-107.14 486.26,-95.39"/>
<polygon fill="none" stroke="#404040" points="486.5,-95.25 489.69,-88.78 496.88,-89.24 493.7,-95.7 486.5,-95.25"/>
<text text-anchor="middle" x="495" y="-183.5" font-family="Helvetica,sans-Serif" font-size="10.00"> #M_time_values_map</text>
</g>
<!-- Node13 -->
<g id="node13" class="node">
<title>Node13</title>
<g id="a_node13"><a xlink:title=" ">
<polygon fill="white" stroke="#bfbfbf" points="1022.5,-287 1022.5,-344 1076.5,-344 1076.5,-287 1022.5,-287"/>
<text text-anchor="middle" x="1049.5" y="-332" font-family="Helvetica,sans-Serif" font-size="10.00">TSState</text>
<polyline fill="none" stroke="#bfbfbf" points="1022.5,-325 1076.5,-325 "/>
<text text-anchor="middle" x="1049.5" y="-313" font-family="Helvetica,sans-Serif" font-size="10.00"> </text>
<polyline fill="none" stroke="#bfbfbf" points="1022.5,-306 1076.5,-306 "/>
<text text-anchor="middle" x="1049.5" y="-294" font-family="Helvetica,sans-Serif" font-size="10.00"> </text>
</a>
</g>
</g>
<!-- Node13&#45;&gt;Node1 -->
<g id="edge13" class="edge">
<title>Node13&#45;&gt;Node1</title>
<path fill="none" stroke="#404040" d="M1055.02,-286.7C1060.82,-248.66 1064.58,-180.69 1027.5,-142 976.32,-88.59 764.8,-71.2 646.51,-65.6"/>
<polygon fill="none" stroke="#404040" points="646.3,-65.59 640.12,-69.32 634.31,-65.05 640.49,-61.33 646.3,-65.59"/>
<text text-anchor="middle" x="1083" y="-183.5" font-family="Helvetica,sans-Serif" font-size="10.00"> #M_state</text>
</g>
</g>
</svg>
