<?xml version="1.0" encoding="UTF-8" standalone="no"?>
<!DOCTYPE svg PUBLIC "-//W3C//DTD SVG 1.1//EN"
 "http://www.w3.org/Graphics/SVG/1.1/DTD/svg11.dtd">
<!-- Generated by graphviz version 2.43.0 (0)
 -->
<!-- Title: Feel::FeelModels::SolidMechanicsBoundaryConditions&lt; Dim &gt;::Robin Pages: 1 -->
<svg width="340pt" height="470pt"
 viewBox="0.00 0.00 340.00 470.00" xmlns="http://www.w3.org/2000/svg" xmlns:xlink="http://www.w3.org/1999/xlink">
<g id="graph0" class="graph" transform="scale(1 1) rotate(0) translate(4 466)">
<title>Feel::FeelModels::SolidMechanicsBoundaryConditions&lt; Dim &gt;::Robin</title>
<polygon fill="white" stroke="transparent" points="-4,4 -4,-466 336,-466 336,4 -4,4"/>
<!-- Node1 -->
<g id="node1" class="node">
<title>Node1</title>
<g id="a_node1"><a xlink:title=" ">
<polygon fill="#bfbfbf" stroke="black" points="40.5,-0.5 40.5,-134.5 231.5,-134.5 231.5,-0.5 40.5,-0.5"/>
<text text-anchor="start" x="48.5" y="-122.5" font-family="Helvetica,sans-Serif" font-size="10.00">Feel::FeelModels::SolidMechanics</text>
<text text-anchor="middle" x="136" y="-111.5" font-family="Helvetica,sans-Serif" font-size="10.00">BoundaryConditions&lt; Dim &gt;::Robin</text>
<polyline fill="none" stroke="black" points="40.5,-104.5 231.5,-104.5 "/>
<text text-anchor="middle" x="136" y="-92.5" font-family="Helvetica,sans-Serif" font-size="10.00"> </text>
<polyline fill="none" stroke="black" points="40.5,-85.5 231.5,-85.5 "/>
<text text-anchor="start" x="48.5" y="-73.5" font-family="Helvetica,sans-Serif" font-size="10.00">+ expr1()</text>
<text text-anchor="start" x="48.5" y="-62.5" font-family="Helvetica,sans-Serif" font-size="10.00">+ expr2()</text>
<text text-anchor="start" x="48.5" y="-51.5" font-family="Helvetica,sans-Serif" font-size="10.00">+ markers()</text>
<text text-anchor="start" x="48.5" y="-40.5" font-family="Helvetica,sans-Serif" font-size="10.00">+ Robin()</text>
<text text-anchor="start" x="48.5" y="-29.5" font-family="Helvetica,sans-Serif" font-size="10.00">+ Robin()</text>
<text text-anchor="start" x="48.5" y="-18.5" font-family="Helvetica,sans-Serif" font-size="10.00">and 4 more...</text>
<text text-anchor="start" x="48.5" y="-7.5" font-family="Helvetica,sans-Serif" font-size="10.00">+ tabulateInformations()</text>
</a>
</g>
</g>
<!-- Node2 -->
<g id="node2" class="node">
<title>Node2</title>
<g id="a_node2"><a xlink:href="classModelExpression.html" target="_top" xlink:title=" ">
<polygon fill="white" stroke="black" points="0,-193.5 0,-250.5 100,-250.5 100,-193.5 0,-193.5"/>
<text text-anchor="middle" x="50" y="-238.5" font-family="Helvetica,sans-Serif" font-size="10.00">ModelExpression</text>
<polyline fill="none" stroke="black" points="0,-231.5 100,-231.5 "/>
<text text-anchor="middle" x="50" y="-219.5" font-family="Helvetica,sans-Serif" font-size="10.00"> </text>
<polyline fill="none" stroke="black" points="0,-212.5 100,-212.5 "/>
<text text-anchor="middle" x="50" y="-200.5" font-family="Helvetica,sans-Serif" font-size="10.00"> </text>
</a>
</g>
</g>
<!-- Node2&#45;&gt;Node1 -->
<g id="edge1" class="edge">
<title>Node2&#45;&gt;Node1</title>
<path fill="none" stroke="#404040" d="M49.39,-193.47C50.05,-180.66 52.24,-165.53 58,-153 59.28,-150.22 60.68,-147.48 62.19,-144.76"/>
<polygon fill="none" stroke="#404040" points="62.22,-144.72 61.96,-137.52 68.51,-134.5 68.77,-141.71 62.22,-144.72"/>
<text text-anchor="middle" x="90" y="-167" font-family="Helvetica,sans-Serif" font-size="10.00"> #M_mexpr1</text>
<text text-anchor="middle" x="90" y="-156" font-family="Helvetica,sans-Serif" font-size="10.00">#M_mexpr2</text>
</g>
<!-- Node3 -->
<g id="node3" class="node">
<title>Node3</title>
<g id="a_node3"><a xlink:title=" ">
<polygon fill="white" stroke="#bfbfbf" points="208,-193.5 208,-250.5 332,-250.5 332,-193.5 208,-193.5"/>
<text text-anchor="middle" x="270" y="-238.5" font-family="Helvetica,sans-Serif" font-size="10.00">std::set&lt; std::string &gt;</text>
<polyline fill="none" stroke="#bfbfbf" points="208,-231.5 332,-231.5 "/>
<text text-anchor="middle" x="270" y="-219.5" font-family="Helvetica,sans-Serif" font-size="10.00"> </text>
<polyline fill="none" stroke="#bfbfbf" points="208,-212.5 332,-212.5 "/>
<text text-anchor="middle" x="270" y="-200.5" font-family="Helvetica,sans-Serif" font-size="10.00"> </text>
</a>
</g>
</g>
<!-- Node3&#45;&gt;Node1 -->
<g id="edge2" class="edge">
<title>Node3&#45;&gt;Node1</title>
<path fill="none" stroke="#404040" d="M245.73,-193.38C233.4,-179.35 217.76,-161.54 202.17,-143.81"/>
<polygon fill="none" stroke="#404040" points="201.96,-143.57 195,-141.7 194.04,-134.56 201.01,-136.42 201.96,-143.57"/>
<text text-anchor="middle" x="259" y="-161.5" font-family="Helvetica,sans-Serif" font-size="10.00"> #M_markers</text>
</g>
<!-- Node4 -->
<g id="node4" class="node">
<title>Node4</title>
<g id="a_node4"><a xlink:title="STL class.">
<polygon fill="white" stroke="#bfbfbf" points="119.5,-298.5 119.5,-355.5 184.5,-355.5 184.5,-298.5 119.5,-298.5"/>
<text text-anchor="middle" x="152" y="-343.5" font-family="Helvetica,sans-Serif" font-size="10.00">std::string</text>
<polyline fill="none" stroke="#bfbfbf" points="119.5,-336.5 184.5,-336.5 "/>
<text text-anchor="middle" x="152" y="-324.5" font-family="Helvetica,sans-Serif" font-size="10.00"> </text>
<polyline fill="none" stroke="#bfbfbf" points="119.5,-317.5 184.5,-317.5 "/>
<text text-anchor="middle" x="152" y="-305.5" font-family="Helvetica,sans-Serif" font-size="10.00"> </text>
</a>
</g>
</g>
<!-- Node4&#45;&gt;Node1 -->
<g id="edge5" class="edge">
<title>Node4&#45;&gt;Node1</title>
<path fill="none" stroke="#404040" d="M149.12,-298.24C147.72,-284.11 146.12,-266.65 145,-251 142.57,-216.91 140.59,-179.19 139.11,-146.93"/>
<polygon fill="none" stroke="#404040" points="139.11,-146.85 134.85,-141.03 138.57,-134.86 142.84,-140.67 139.11,-146.85"/>
<text text-anchor="middle" x="172" y="-219.5" font-family="Helvetica,sans-Serif" font-size="10.00"> #M_name</text>
</g>
<!-- Node4&#45;&gt;Node3 -->
<g id="edge3" class="edge">
<title>Node4&#45;&gt;Node3</title>
<path fill="none" stroke="#404040" d="M183.62,-298.4C197.51,-286.28 214,-271.88 228.83,-258.94"/>
<polygon fill="none" stroke="#404040" points="229.25,-258.57 231.14,-251.61 238.29,-250.68 236.4,-257.64 229.25,-258.57"/>
<text text-anchor="middle" x="231" y="-272" font-family="Helvetica,sans-Serif" font-size="10.00"> +keys</text>
</g>
<!-- Node5 -->
<g id="node5" class="node">
<title>Node5</title>
<g id="a_node5"><a xlink:title="STL class.">
<polygon fill="white" stroke="#bfbfbf" points="100,-393.5 100,-461.5 204,-461.5 204,-393.5 100,-393.5"/>
<text text-anchor="start" x="108" y="-449.5" font-family="Helvetica,sans-Serif" font-size="10.00">std::basic_string&lt;</text>
<text text-anchor="middle" x="152" y="-438.5" font-family="Helvetica,sans-Serif" font-size="10.00"> char &gt;</text>
<polyline fill="none" stroke="#bfbfbf" points="100,-431.5 204,-431.5 "/>
<text text-anchor="middle" x="152" y="-419.5" font-family="Helvetica,sans-Serif" font-size="10.00"> </text>
<polyline fill="none" stroke="#bfbfbf" points="100,-412.5 204,-412.5 "/>
<text text-anchor="middle" x="152" y="-400.5" font-family="Helvetica,sans-Serif" font-size="10.00"> </text>
</a>
</g>
</g>
<!-- Node5&#45;&gt;Node4 -->
<g id="edge4" class="edge">
<title>Node5&#45;&gt;Node4</title>
<path fill="none" stroke="midnightblue" d="M152,-383.38C152,-373.94 152,-364.2 152,-355.57"/>
<polygon fill="none" stroke="midnightblue" points="148.5,-383.43 152,-393.43 155.5,-383.43 148.5,-383.43"/>
</g>
</g>
</svg>
