<?xml version="1.0" encoding="UTF-8" standalone="no"?>
<!DOCTYPE svg PUBLIC "-//W3C//DTD SVG 1.1//EN"
 "http://www.w3.org/Graphics/SVG/1.1/DTD/svg11.dtd">
<!-- Generated by graphviz version 2.43.0 (0)
 -->
<!-- Title: Feel::FeelModels::ModelPhysicFluid&lt; Dim &gt; Pages: 1 -->
<svg width="336pt" height="812pt"
 viewBox="0.00 0.00 336.00 812.00" xmlns="http://www.w3.org/2000/svg" xmlns:xlink="http://www.w3.org/1999/xlink">
<g id="graph0" class="graph" transform="scale(1 1) rotate(0) translate(4 808)">
<title>Feel::FeelModels::ModelPhysicFluid&lt; Dim &gt;</title>
<polygon fill="white" stroke="transparent" points="-4,4 -4,-808 332,-808 332,4 -4,4"/>
<!-- Node1 -->
<g id="node1" class="node">
<title>Node1</title>
<g id="a_node1"><a xlink:title="Fluid Physic Model.">
<polygon fill="#bfbfbf" stroke="black" points="134,-0.5 134,-123.5 300,-123.5 300,-0.5 134,-0.5"/>
<text text-anchor="start" x="142" y="-111.5" font-family="Helvetica,sans-Serif" font-size="10.00">Feel::FeelModels::ModelPhysic</text>
<text text-anchor="middle" x="217" y="-100.5" font-family="Helvetica,sans-Serif" font-size="10.00">Fluid&lt; Dim &gt;</text>
<polyline fill="none" stroke="black" points="134,-93.5 300,-93.5 "/>
<text text-anchor="middle" x="217" y="-81.5" font-family="Helvetica,sans-Serif" font-size="10.00"> </text>
<polyline fill="none" stroke="black" points="134,-74.5 300,-74.5 "/>
<text text-anchor="start" x="142" y="-62.5" font-family="Helvetica,sans-Serif" font-size="10.00">+ dynamicViscosity()</text>
<text text-anchor="start" x="142" y="-51.5" font-family="Helvetica,sans-Serif" font-size="10.00">+ equation()</text>
<text text-anchor="start" x="142" y="-40.5" font-family="Helvetica,sans-Serif" font-size="10.00">+ gravityForceEnabled()</text>
<text text-anchor="start" x="142" y="-29.5" font-family="Helvetica,sans-Serif" font-size="10.00">+ gravityForceExpr()</text>
<text text-anchor="start" x="142" y="-18.5" font-family="Helvetica,sans-Serif" font-size="10.00">+ ModelPhysicFluid()</text>
<text text-anchor="start" x="142" y="-7.5" font-family="Helvetica,sans-Serif" font-size="10.00">and 9 more...</text>
</a>
</g>
</g>
<!-- Node2 -->
<g id="node2" class="node">
<title>Node2</title>
<g id="a_node2"><a xlink:href="classFeel_1_1FeelModels_1_1ModelPhysic.html" target="_top" xlink:title="Physic of the Model.">
<polygon fill="white" stroke="black" points="121.5,-161.5 121.5,-372.5 312.5,-372.5 312.5,-161.5 121.5,-161.5"/>
<text text-anchor="start" x="129.5" y="-360.5" font-family="Helvetica,sans-Serif" font-size="10.00">Feel::FeelModels::ModelPhysic</text>
<text text-anchor="middle" x="217" y="-349.5" font-family="Helvetica,sans-Serif" font-size="10.00">&lt; Dim &gt;</text>
<polyline fill="none" stroke="black" points="121.5,-342.5 312.5,-342.5 "/>
<text text-anchor="middle" x="217" y="-330.5" font-family="Helvetica,sans-Serif" font-size="10.00"> </text>
<polyline fill="none" stroke="black" points="121.5,-323.5 312.5,-323.5 "/>
<text text-anchor="start" x="129.5" y="-311.5" font-family="Helvetica,sans-Serif" font-size="10.00">+ addMaterialNames()</text>
<text text-anchor="start" x="129.5" y="-300.5" font-family="Helvetica,sans-Serif" font-size="10.00">+ addMaterialPropertyDescription()</text>
<text text-anchor="start" x="129.5" y="-289.5" font-family="Helvetica,sans-Serif" font-size="10.00">+ addParameter()</text>
<text text-anchor="start" x="129.5" y="-278.5" font-family="Helvetica,sans-Serif" font-size="10.00">+ addParameter()</text>
<text text-anchor="start" x="129.5" y="-267.5" font-family="Helvetica,sans-Serif" font-size="10.00">+ addParameter()</text>
<text text-anchor="start" x="129.5" y="-256.5" font-family="Helvetica,sans-Serif" font-size="10.00">and 28 more...</text>
<text text-anchor="start" x="129.5" y="-245.5" font-family="Helvetica,sans-Serif" font-size="10.00">+ New()</text>
<text text-anchor="start" x="129.5" y="-234.5" font-family="Helvetica,sans-Serif" font-size="10.00"># parameterModelExpr()</text>
<text text-anchor="start" x="129.5" y="-223.5" font-family="Helvetica,sans-Serif" font-size="10.00"># updateTabulateInformations</text>
<text text-anchor="start" x="129.5" y="-212.5" font-family="Helvetica,sans-Serif" font-size="10.00">Basic()</text>
<text text-anchor="start" x="129.5" y="-201.5" font-family="Helvetica,sans-Serif" font-size="10.00"># updateTabulateInformations</text>
<text text-anchor="start" x="129.5" y="-190.5" font-family="Helvetica,sans-Serif" font-size="10.00">Parameters()</text>
<text text-anchor="start" x="129.5" y="-179.5" font-family="Helvetica,sans-Serif" font-size="10.00"># updateTabulateInformations</text>
<text text-anchor="start" x="129.5" y="-168.5" font-family="Helvetica,sans-Serif" font-size="10.00">Subphysics()</text>
</a>
</g>
</g>
<!-- Node2&#45;&gt;Node1 -->
<g id="edge1" class="edge">
<title>Node2&#45;&gt;Node1</title>
<path fill="none" stroke="midnightblue" d="M217,-150.99C217,-141.59 217,-132.35 217,-123.59"/>
<polygon fill="none" stroke="midnightblue" points="213.5,-151.23 217,-161.23 220.5,-151.23 213.5,-151.23"/>
</g>
<!-- Node3 -->
<g id="node3" class="node">
<title>Node3</title>
<g id="a_node3"><a xlink:href="classFeel_1_1JournalWatcher.html" target="_top" xlink:title=" ">
<polygon fill="white" stroke="black" points="0,-420.5 0,-708.5 176,-708.5 176,-420.5 0,-420.5"/>
<text text-anchor="middle" x="88" y="-696.5" font-family="Helvetica,sans-Serif" font-size="10.00">Feel::JournalWatcher</text>
<polyline fill="none" stroke="black" points="0,-689.5 176,-689.5 "/>
<text text-anchor="middle" x="88" y="-677.5" font-family="Helvetica,sans-Serif" font-size="10.00"> </text>
<polyline fill="none" stroke="black" points="0,-670.5 176,-670.5 "/>
<text text-anchor="start" x="8" y="-658.5" font-family="Helvetica,sans-Serif" font-size="10.00">* JournalWatcher()</text>
<text text-anchor="start" x="8" y="-647.5" font-family="Helvetica,sans-Serif" font-size="10.00">* JournalWatcher()</text>
<text text-anchor="start" x="8" y="-636.5" font-family="Helvetica,sans-Serif" font-size="10.00">* JournalWatcher()</text>
<text text-anchor="start" x="8" y="-625.5" font-family="Helvetica,sans-Serif" font-size="10.00">* JournalWatcher()</text>
<text text-anchor="start" x="8" y="-614.5" font-family="Helvetica,sans-Serif" font-size="10.00">* ~JournalWatcher()</text>
<text text-anchor="start" x="8" y="-603.5" font-family="Helvetica,sans-Serif" font-size="10.00">* journalIsConnected()</text>
<text text-anchor="start" x="8" y="-592.5" font-family="Helvetica,sans-Serif" font-size="10.00">* journalWatcherInstanceName()</text>
<text text-anchor="start" x="8" y="-581.5" font-family="Helvetica,sans-Serif" font-size="10.00">* journalSection()</text>
<text text-anchor="start" x="8" y="-570.5" font-family="Helvetica,sans-Serif" font-size="10.00">* informationObject()</text>
<text text-anchor="start" x="8" y="-559.5" font-family="Helvetica,sans-Serif" font-size="10.00">* journalConnect()</text>
<text text-anchor="start" x="8" y="-548.5" font-family="Helvetica,sans-Serif" font-size="10.00">* journalDisconnect()</text>
<text text-anchor="start" x="8" y="-537.5" font-family="Helvetica,sans-Serif" font-size="10.00">* updateInformationObject()</text>
<text text-anchor="start" x="8" y="-526.5" font-family="Helvetica,sans-Serif" font-size="10.00">* setInformationObject()</text>
<text text-anchor="start" x="8" y="-515.5" font-family="Helvetica,sans-Serif" font-size="10.00">* putInformationObject()</text>
<text text-anchor="start" x="8" y="-504.5" font-family="Helvetica,sans-Serif" font-size="10.00">and 4 more...</text>
<text text-anchor="start" x="8" y="-493.5" font-family="Helvetica,sans-Serif" font-size="10.00">* M_journal_is_connected</text>
<text text-anchor="start" x="8" y="-482.5" font-family="Helvetica,sans-Serif" font-size="10.00">* M_category</text>
<text text-anchor="start" x="8" y="-471.5" font-family="Helvetica,sans-Serif" font-size="10.00">* M_name</text>
<text text-anchor="start" x="8" y="-460.5" font-family="Helvetica,sans-Serif" font-size="10.00">* M_function_updateInformation</text>
<text text-anchor="start" x="8" y="-449.5" font-family="Helvetica,sans-Serif" font-size="10.00">Object</text>
<text text-anchor="start" x="8" y="-438.5" font-family="Helvetica,sans-Serif" font-size="10.00">* M_informationObject</text>
<text text-anchor="start" x="8" y="-427.5" font-family="Helvetica,sans-Serif" font-size="10.00">* S_counterObjectByCategory</text>
</a>
</g>
</g>
<!-- Node3&#45;&gt;Node2 -->
<g id="edge2" class="edge">
<title>Node3&#45;&gt;Node2</title>
<path fill="none" stroke="midnightblue" d="M154.71,-410.68C160.34,-397.79 165.95,-384.94 171.36,-372.54"/>
<polygon fill="none" stroke="midnightblue" points="151.4,-409.51 150.61,-420.08 157.82,-412.31 151.4,-409.51"/>
</g>
<!-- Node4 -->
<g id="node4" class="node">
<title>Node4</title>
<g id="a_node4"><a xlink:title=" ">
<polygon fill="white" stroke="#bfbfbf" points="34.5,-746.5 34.5,-803.5 141.5,-803.5 141.5,-746.5 34.5,-746.5"/>
<text text-anchor="middle" x="88" y="-791.5" font-family="Helvetica,sans-Serif" font-size="10.00">Event::SlotHandler</text>
<polyline fill="none" stroke="#bfbfbf" points="34.5,-784.5 141.5,-784.5 "/>
<text text-anchor="middle" x="88" y="-772.5" font-family="Helvetica,sans-Serif" font-size="10.00"> </text>
<polyline fill="none" stroke="#bfbfbf" points="34.5,-765.5 141.5,-765.5 "/>
<text text-anchor="middle" x="88" y="-753.5" font-family="Helvetica,sans-Serif" font-size="10.00"> </text>
</a>
</g>
</g>
<!-- Node4&#45;&gt;Node3 -->
<g id="edge3" class="edge">
<title>Node4&#45;&gt;Node3</title>
<path fill="none" stroke="midnightblue" d="M88,-736.25C88,-727.86 88,-718.49 88,-708.57"/>
<polygon fill="none" stroke="midnightblue" points="84.5,-736.31 88,-746.31 91.5,-736.31 84.5,-736.31"/>
</g>
<!-- Node5 -->
<g id="node5" class="node">
<title>Node5</title>
<g id="a_node5"><a xlink:title=" ">
<polygon fill="white" stroke="#bfbfbf" points="194,-536 194,-593 328,-593 328,-536 194,-536"/>
<text text-anchor="middle" x="261" y="-581" font-family="Helvetica,sans-Serif" font-size="10.00">static const uint16_type</text>
<polyline fill="none" stroke="#bfbfbf" points="194,-574 328,-574 "/>
<text text-anchor="middle" x="261" y="-562" font-family="Helvetica,sans-Serif" font-size="10.00"> </text>
<polyline fill="none" stroke="#bfbfbf" points="194,-555 328,-555 "/>
<text text-anchor="middle" x="261" y="-543" font-family="Helvetica,sans-Serif" font-size="10.00"> </text>
</a>
</g>
</g>
<!-- Node5&#45;&gt;Node2 -->
<g id="edge4" class="edge">
<title>Node5&#45;&gt;Node2</title>
<path fill="none" stroke="#404040" d="M256.9,-535.97C251.76,-501.46 242.63,-440.13 234.4,-384.84"/>
<polygon fill="none" stroke="#404040" points="234.37,-384.65 229.53,-379.31 232.6,-372.78 237.44,-378.13 234.37,-384.65"/>
<text text-anchor="middle" x="255" y="-394" font-family="Helvetica,sans-Serif" font-size="10.00"> +nDim</text>
</g>
</g>
</svg>
