<?xml version="1.0" encoding="UTF-8" standalone="no"?>
<!DOCTYPE svg PUBLIC "-//W3C//DTD SVG 1.1//EN"
 "http://www.w3.org/Graphics/SVG/1.1/DTD/svg11.dtd">
<!-- Generated by graphviz version 2.43.0 (0)
 -->
<!-- Title: Feel::FeelModels::HeatFluid&lt; HeatType, FluidType &gt; Pages: 1 -->
<svg width="903pt" height="1413pt"
 viewBox="0.00 0.00 903.25 1413.00" xmlns="http://www.w3.org/2000/svg" xmlns:xlink="http://www.w3.org/1999/xlink">
<g id="graph0" class="graph" transform="scale(1 1) rotate(0) translate(4 1409)">
<title>Feel::FeelModels::HeatFluid&lt; HeatType, FluidType &gt;</title>
<polygon fill="white" stroke="transparent" points="-4,4 -4,-1409 899.25,-1409 899.25,4 -4,4"/>
<!-- Node1 -->
<g id="node1" class="node">
<title>Node1</title>
<g id="a_node1"><a xlink:title="class for conjuguate heat transfer toolbox">
<polygon fill="#bfbfbf" stroke="black" points="534.25,-0.5 534.25,-123.5 686.25,-123.5 686.25,-0.5 534.25,-0.5"/>
<text text-anchor="start" x="542.25" y="-111.5" font-family="Helvetica,sans-Serif" font-size="10.00">Feel::FeelModels::HeatFluid</text>
<text text-anchor="middle" x="610.25" y="-100.5" font-family="Helvetica,sans-Serif" font-size="10.00">&lt; HeatType, FluidType &gt;</text>
<polyline fill="none" stroke="black" points="534.25,-93.5 686.25,-93.5 "/>
<text text-anchor="middle" x="610.25" y="-81.5" font-family="Helvetica,sans-Serif" font-size="10.00"> </text>
<polyline fill="none" stroke="black" points="534.25,-74.5 686.25,-74.5 "/>
<text text-anchor="start" x="542.25" y="-62.5" font-family="Helvetica,sans-Serif" font-size="10.00">+ buildBlockMatrixGraph()</text>
<text text-anchor="start" x="542.25" y="-51.5" font-family="Helvetica,sans-Serif" font-size="10.00">+ checkResults()</text>
<text text-anchor="start" x="542.25" y="-40.5" font-family="Helvetica,sans-Serif" font-size="10.00">+ exportResults()</text>
<text text-anchor="start" x="542.25" y="-29.5" font-family="Helvetica,sans-Serif" font-size="10.00">+ exportResults()</text>
<text text-anchor="start" x="542.25" y="-18.5" font-family="Helvetica,sans-Serif" font-size="10.00">+ fluidModel()</text>
<text text-anchor="start" x="542.25" y="-7.5" font-family="Helvetica,sans-Serif" font-size="10.00">and 50 more...</text>
</a>
</g>
</g>
<!-- Node2 -->
<g id="node2" class="node">
<title>Node2</title>
<g id="a_node2"><a xlink:href="classFeel_1_1FeelModels_1_1ModelNumerical.html" target="_top" xlink:title="Handles some numerical model aspects: timestepping, mesh and properties.">
<polygon fill="white" stroke="black" points="72.25,-161.5 72.25,-372.5 274.25,-372.5 274.25,-161.5 72.25,-161.5"/>
<text text-anchor="middle" x="173.25" y="-360.5" font-family="Helvetica,sans-Serif" font-size="10.00">Feel::FeelModels::ModelNumerical</text>
<polyline fill="none" stroke="black" points="72.25,-353.5 274.25,-353.5 "/>
<text text-anchor="middle" x="173.25" y="-341.5" font-family="Helvetica,sans-Serif" font-size="10.00"> </text>
<polyline fill="none" stroke="black" points="72.25,-334.5 274.25,-334.5 "/>
<text text-anchor="start" x="80.25" y="-322.5" font-family="Helvetica,sans-Serif" font-size="10.00">+ checkResults()</text>
<text text-anchor="start" x="80.25" y="-311.5" font-family="Helvetica,sans-Serif" font-size="10.00">+ checkResults()</text>
<text text-anchor="start" x="80.25" y="-300.5" font-family="Helvetica,sans-Serif" font-size="10.00">+ createBdf()</text>
<text text-anchor="start" x="80.25" y="-289.5" font-family="Helvetica,sans-Serif" font-size="10.00">+ currentTime()</text>
<text text-anchor="start" x="80.25" y="-278.5" font-family="Helvetica,sans-Serif" font-size="10.00">+ doRestart()</text>
<text text-anchor="start" x="80.25" y="-267.5" font-family="Helvetica,sans-Serif" font-size="10.00">and 53 more...</text>
<text text-anchor="start" x="80.25" y="-256.5" font-family="Helvetica,sans-Serif" font-size="10.00"># addPostProcessExportsAll</text>
<text text-anchor="start" x="80.25" y="-245.5" font-family="Helvetica,sans-Serif" font-size="10.00">FieldsAvailable()</text>
<text text-anchor="start" x="80.25" y="-234.5" font-family="Helvetica,sans-Serif" font-size="10.00"># addPostProcessExportsAll</text>
<text text-anchor="start" x="80.25" y="-223.5" font-family="Helvetica,sans-Serif" font-size="10.00">FieldsAvailable()</text>
<text text-anchor="start" x="80.25" y="-212.5" font-family="Helvetica,sans-Serif" font-size="10.00"># addPostProcessMeasuresQuantities</text>
<text text-anchor="start" x="80.25" y="-201.5" font-family="Helvetica,sans-Serif" font-size="10.00">AllNamesAvailable()</text>
<text text-anchor="start" x="80.25" y="-190.5" font-family="Helvetica,sans-Serif" font-size="10.00"># initPostProcess()</text>
<text text-anchor="start" x="80.25" y="-179.5" font-family="Helvetica,sans-Serif" font-size="10.00"># initPostProcessMeshes()</text>
<text text-anchor="start" x="80.25" y="-168.5" font-family="Helvetica,sans-Serif" font-size="10.00">and 10 more...</text>
</a>
</g>
</g>
<!-- Node2&#45;&gt;Node1 -->
<g id="edge1" class="edge">
<title>Node2&#45;&gt;Node1</title>
<path fill="none" stroke="midnightblue" d="M283.74,-214.68C361.9,-178.36 464.71,-130.61 533.91,-98.46"/>
<polygon fill="none" stroke="midnightblue" points="281.92,-211.66 274.33,-219.05 284.87,-218.01 281.92,-211.66"/>
</g>
<!-- Node3 -->
<g id="node3" class="node">
<title>Node3</title>
<g id="a_node3"><a xlink:href="classFeel_1_1FeelModels_1_1ModelBase.html" target="_top" xlink:title="Model base class.">
<polygon fill="white" stroke="black" points="41.75,-602.5 41.75,-714.5 234.75,-714.5 234.75,-602.5 41.75,-602.5"/>
<text text-anchor="middle" x="138.25" y="-702.5" font-family="Helvetica,sans-Serif" font-size="10.00">Feel::FeelModels::ModelBase</text>
<polyline fill="none" stroke="black" points="41.75,-695.5 234.75,-695.5 "/>
<text text-anchor="middle" x="138.25" y="-683.5" font-family="Helvetica,sans-Serif" font-size="10.00"> </text>
<polyline fill="none" stroke="black" points="41.75,-676.5 234.75,-676.5 "/>
<text text-anchor="start" x="49.75" y="-664.5" font-family="Helvetica,sans-Serif" font-size="10.00">+ addParameterInModelProperties()</text>
<text text-anchor="start" x="49.75" y="-653.5" font-family="Helvetica,sans-Serif" font-size="10.00">+ addTimerTool()</text>
<text text-anchor="start" x="49.75" y="-642.5" font-family="Helvetica,sans-Serif" font-size="10.00">+ clovm()</text>
<text text-anchor="start" x="49.75" y="-631.5" font-family="Helvetica,sans-Serif" font-size="10.00">+ createWorldsComm()</text>
<text text-anchor="start" x="49.75" y="-620.5" font-family="Helvetica,sans-Serif" font-size="10.00">+ hasModelProperties()</text>
<text text-anchor="start" x="49.75" y="-609.5" font-family="Helvetica,sans-Serif" font-size="10.00">and 53 more...</text>
</a>
</g>
</g>
<!-- Node3&#45;&gt;Node2 -->
<g id="edge2" class="edge">
<title>Node3&#45;&gt;Node2</title>
<path fill="none" stroke="midnightblue" d="M46.58,-595.03C35.11,-583.13 25.04,-569.73 18.25,-555 -6.87,-500.51 -4.98,-475.32 18.25,-420 30.14,-391.68 50.17,-365.98 71.95,-344.12"/>
<polygon fill="none" stroke="midnightblue" points="44.31,-597.71 53.88,-602.24 49.23,-592.73 44.31,-597.71"/>
</g>
<!-- Node7 -->
<g id="node7" class="node">
<title>Node7</title>
<g id="a_node7"><a xlink:href="classFeel_1_1FeelModels_1_1ModelAlgebraic.html" target="_top" xlink:title=" ">
<polygon fill="white" stroke="#bfbfbf" points="27.25,-431.5 27.25,-543.5 207.25,-543.5 207.25,-431.5 27.25,-431.5"/>
<text text-anchor="middle" x="117.25" y="-531.5" font-family="Helvetica,sans-Serif" font-size="10.00">Feel::FeelModels::ModelAlgebraic</text>
<polyline fill="none" stroke="#bfbfbf" points="27.25,-524.5 207.25,-524.5 "/>
<text text-anchor="middle" x="117.25" y="-512.5" font-family="Helvetica,sans-Serif" font-size="10.00"> </text>
<polyline fill="none" stroke="#bfbfbf" points="27.25,-505.5 207.25,-505.5 "/>
<text text-anchor="start" x="35.25" y="-493.5" font-family="Helvetica,sans-Serif" font-size="10.00">+ algebraicBackend()</text>
<text text-anchor="start" x="35.25" y="-482.5" font-family="Helvetica,sans-Serif" font-size="10.00">+ algebraicBlockVectorSolution()</text>
<text text-anchor="start" x="35.25" y="-471.5" font-family="Helvetica,sans-Serif" font-size="10.00">+ algebraicFactory()</text>
<text text-anchor="start" x="35.25" y="-460.5" font-family="Helvetica,sans-Serif" font-size="10.00">+ backend()</text>
<text text-anchor="start" x="35.25" y="-449.5" font-family="Helvetica,sans-Serif" font-size="10.00">+ blockPattern()</text>
<text text-anchor="start" x="35.25" y="-438.5" font-family="Helvetica,sans-Serif" font-size="10.00">and 75 more...</text>
</a>
</g>
</g>
<!-- Node3&#45;&gt;Node7 -->
<g id="edge7" class="edge">
<title>Node3&#45;&gt;Node7</title>
<path fill="none" stroke="midnightblue" d="M130.09,-591.86C128.11,-575.93 126.02,-559.06 124.1,-543.67"/>
<polygon fill="none" stroke="midnightblue" points="126.67,-592.67 131.37,-602.16 133.61,-591.81 126.67,-592.67"/>
</g>
<!-- Node8 -->
<g id="node8" class="node">
<title>Node8</title>
<g id="a_node8"><a xlink:href="classFeel_1_1FeelModels_1_1ModelMeshes.html" target="_top" xlink:title=" ">
<polygon fill="white" stroke="black" points="225.75,-420.5 225.75,-554.5 404.75,-554.5 404.75,-420.5 225.75,-420.5"/>
<text text-anchor="start" x="233.75" y="-542.5" font-family="Helvetica,sans-Serif" font-size="10.00">Feel::FeelModels::ModelMeshes</text>
<text text-anchor="middle" x="315.25" y="-531.5" font-family="Helvetica,sans-Serif" font-size="10.00">&lt; ModelAlgebraic::index_type &gt;</text>
<polyline fill="none" stroke="black" points="225.75,-524.5 404.75,-524.5 "/>
<text text-anchor="middle" x="315.25" y="-512.5" font-family="Helvetica,sans-Serif" font-size="10.00"> </text>
<polyline fill="none" stroke="black" points="225.75,-505.5 404.75,-505.5 "/>
<text text-anchor="start" x="233.75" y="-493.5" font-family="Helvetica,sans-Serif" font-size="10.00">+ applyRemesh()</text>
<text text-anchor="start" x="233.75" y="-482.5" font-family="Helvetica,sans-Serif" font-size="10.00">+ hasMeshMotion()</text>
<text text-anchor="start" x="233.75" y="-471.5" font-family="Helvetica,sans-Serif" font-size="10.00">+ hasModelMesh()</text>
<text text-anchor="start" x="233.75" y="-460.5" font-family="Helvetica,sans-Serif" font-size="10.00">+ initMeasurePointsEvaluation</text>
<text text-anchor="start" x="233.75" y="-449.5" font-family="Helvetica,sans-Serif" font-size="10.00">Tool()</text>
<text text-anchor="start" x="233.75" y="-438.5" font-family="Helvetica,sans-Serif" font-size="10.00">+ measurePointsEvaluationTool()</text>
<text text-anchor="start" x="233.75" y="-427.5" font-family="Helvetica,sans-Serif" font-size="10.00">and 23 more...</text>
</a>
</g>
</g>
<!-- Node3&#45;&gt;Node8 -->
<g id="edge12" class="edge">
<title>Node3&#45;&gt;Node8</title>
<path fill="none" stroke="midnightblue" d="M203.77,-594.94C217.56,-581.77 232.15,-567.85 246.06,-554.56"/>
<polygon fill="none" stroke="midnightblue" points="201.02,-592.73 196.21,-602.16 205.86,-597.79 201.02,-592.73"/>
</g>
<!-- Node12 -->
<g id="node12" class="node">
<title>Node12</title>
<g id="a_node12"><a xlink:href="classFeel_1_1FeelModels_1_1ModelPhysics.html" target="_top" xlink:title=" ">
<polygon fill="white" stroke="black" points="517.75,-194.5 517.75,-339.5 702.75,-339.5 702.75,-194.5 517.75,-194.5"/>
<text text-anchor="start" x="525.75" y="-327.5" font-family="Helvetica,sans-Serif" font-size="10.00">Feel::FeelModels::ModelPhysics</text>
<text text-anchor="middle" x="610.25" y="-316.5" font-family="Helvetica,sans-Serif" font-size="10.00">&lt; HeatType::convex_type::nDim &gt;</text>
<polyline fill="none" stroke="black" points="517.75,-309.5 702.75,-309.5 "/>
<text text-anchor="middle" x="610.25" y="-297.5" font-family="Helvetica,sans-Serif" font-size="10.00"> </text>
<polyline fill="none" stroke="black" points="517.75,-290.5 702.75,-290.5 "/>
<text text-anchor="start" x="525.75" y="-278.5" font-family="Helvetica,sans-Serif" font-size="10.00">+ addPhysics()</text>
<text text-anchor="start" x="525.75" y="-267.5" font-family="Helvetica,sans-Serif" font-size="10.00">+ hasPhysic()</text>
<text text-anchor="start" x="525.75" y="-256.5" font-family="Helvetica,sans-Serif" font-size="10.00">+ initPhysics()</text>
<text text-anchor="start" x="525.75" y="-245.5" font-family="Helvetica,sans-Serif" font-size="10.00">+ initPhysics()</text>
<text text-anchor="start" x="525.75" y="-234.5" font-family="Helvetica,sans-Serif" font-size="10.00">+ ModelPhysics()</text>
<text text-anchor="start" x="525.75" y="-223.5" font-family="Helvetica,sans-Serif" font-size="10.00">and 18 more...</text>
<text text-anchor="start" x="525.75" y="-212.5" font-family="Helvetica,sans-Serif" font-size="10.00"># initPhysics()</text>
<text text-anchor="start" x="525.75" y="-201.5" font-family="Helvetica,sans-Serif" font-size="10.00"># updatePhysics()</text>
</a>
</g>
</g>
<!-- Node3&#45;&gt;Node12 -->
<g id="edge14" class="edge">
<title>Node3&#45;&gt;Node12</title>
<path fill="none" stroke="midnightblue" d="M244.1,-605.23C246.83,-604.12 249.55,-603.04 252.25,-602 322.21,-575.05 359.52,-606.24 414.25,-555 460.84,-511.37 429.43,-474.13 463.25,-420 481.24,-391.2 505.42,-363.37 528.97,-339.56"/>
<polygon fill="none" stroke="midnightblue" points="242.65,-602.04 234.77,-609.12 245.35,-608.5 242.65,-602.04"/>
</g>
<!-- Node4 -->
<g id="node4" class="node">
<title>Node4</title>
<g id="a_node4"><a xlink:href="classFeel_1_1JournalWatcher.html" target="_top" xlink:title=" ">
<polygon fill="white" stroke="#bfbfbf" points="217.75,-1021.5 217.75,-1309.5 394.75,-1309.5 394.75,-1021.5 217.75,-1021.5"/>
<text text-anchor="middle" x="306.25" y="-1297.5" font-family="Helvetica,sans-Serif" font-size="10.00">Feel::JournalWatcher</text>
<polyline fill="none" stroke="#bfbfbf" points="217.75,-1290.5 394.75,-1290.5 "/>
<text text-anchor="middle" x="306.25" y="-1278.5" font-family="Helvetica,sans-Serif" font-size="10.00"> </text>
<polyline fill="none" stroke="#bfbfbf" points="217.75,-1271.5 394.75,-1271.5 "/>
<text text-anchor="start" x="225.75" y="-1259.5" font-family="Helvetica,sans-Serif" font-size="10.00">* M_journal_is_connected</text>
<text text-anchor="start" x="225.75" y="-1248.5" font-family="Helvetica,sans-Serif" font-size="10.00">* M_category</text>
<text text-anchor="start" x="225.75" y="-1237.5" font-family="Helvetica,sans-Serif" font-size="10.00">* M_name</text>
<text text-anchor="start" x="225.75" y="-1226.5" font-family="Helvetica,sans-Serif" font-size="10.00">* M_function_updateInformation</text>
<text text-anchor="start" x="225.75" y="-1215.5" font-family="Helvetica,sans-Serif" font-size="10.00">Object</text>
<text text-anchor="start" x="225.75" y="-1204.5" font-family="Helvetica,sans-Serif" font-size="10.00">* M_informationObject</text>
<text text-anchor="start" x="225.75" y="-1193.5" font-family="Helvetica,sans-Serif" font-size="10.00">* S_counterObjectByCategory</text>
<text text-anchor="start" x="225.75" y="-1182.5" font-family="Helvetica,sans-Serif" font-size="10.00">* JournalWatcher()</text>
<text text-anchor="start" x="225.75" y="-1171.5" font-family="Helvetica,sans-Serif" font-size="10.00">* JournalWatcher()</text>
<text text-anchor="start" x="225.75" y="-1160.5" font-family="Helvetica,sans-Serif" font-size="10.00">* JournalWatcher()</text>
<text text-anchor="start" x="225.75" y="-1149.5" font-family="Helvetica,sans-Serif" font-size="10.00">* JournalWatcher()</text>
<text text-anchor="start" x="225.75" y="-1138.5" font-family="Helvetica,sans-Serif" font-size="10.00">* ~JournalWatcher()</text>
<text text-anchor="start" x="225.75" y="-1127.5" font-family="Helvetica,sans-Serif" font-size="10.00">* journalIsConnected()</text>
<text text-anchor="start" x="225.75" y="-1116.5" font-family="Helvetica,sans-Serif" font-size="10.00">* journalWatcherInstanceName()</text>
<text text-anchor="start" x="225.75" y="-1105.5" font-family="Helvetica,sans-Serif" font-size="10.00">* journalSection()</text>
<text text-anchor="start" x="225.75" y="-1094.5" font-family="Helvetica,sans-Serif" font-size="10.00">* informationObject()</text>
<text text-anchor="start" x="225.75" y="-1083.5" font-family="Helvetica,sans-Serif" font-size="10.00">* journalConnect()</text>
<text text-anchor="start" x="225.75" y="-1072.5" font-family="Helvetica,sans-Serif" font-size="10.00">* journalDisconnect()</text>
<text text-anchor="start" x="225.75" y="-1061.5" font-family="Helvetica,sans-Serif" font-size="10.00">* updateInformationObject()</text>
<text text-anchor="start" x="225.75" y="-1050.5" font-family="Helvetica,sans-Serif" font-size="10.00">* setInformationObject()</text>
<text text-anchor="start" x="225.75" y="-1039.5" font-family="Helvetica,sans-Serif" font-size="10.00">* putInformationObject()</text>
<text text-anchor="start" x="225.75" y="-1028.5" font-family="Helvetica,sans-Serif" font-size="10.00">and 4 more...</text>
</a>
</g>
</g>
<!-- Node4&#45;&gt;Node3 -->
<g id="edge3" class="edge">
<title>Node4&#45;&gt;Node3</title>
<path fill="none" stroke="midnightblue" d="M209.69,-1090.43C175.99,-1058.68 142.13,-1018.6 124.25,-974 89.98,-888.52 106.89,-779.32 122.45,-714.65"/>
<polygon fill="none" stroke="midnightblue" points="207.61,-1093.27 217.33,-1097.49 212.36,-1088.13 207.61,-1093.27"/>
</g>
<!-- Node19 -->
<g id="node19" class="node">
<title>Node19</title>
<g id="a_node19"><a xlink:href="classFeel_1_1FeelModels_1_1ModelPhysic.html" target="_top" xlink:title=" ">
<polygon fill="white" stroke="black" points="464.75,-762.5 464.75,-973.5 655.75,-973.5 655.75,-762.5 464.75,-762.5"/>
<text text-anchor="start" x="472.75" y="-961.5" font-family="Helvetica,sans-Serif" font-size="10.00">Feel::FeelModels::ModelPhysic</text>
<text text-anchor="middle" x="560.25" y="-950.5" font-family="Helvetica,sans-Serif" font-size="10.00">&lt; nDim &gt;</text>
<polyline fill="none" stroke="black" points="464.75,-943.5 655.75,-943.5 "/>
<text text-anchor="middle" x="560.25" y="-931.5" font-family="Helvetica,sans-Serif" font-size="10.00"> </text>
<polyline fill="none" stroke="black" points="464.75,-924.5 655.75,-924.5 "/>
<text text-anchor="start" x="472.75" y="-912.5" font-family="Helvetica,sans-Serif" font-size="10.00">+ addMaterialNames()</text>
<text text-anchor="start" x="472.75" y="-901.5" font-family="Helvetica,sans-Serif" font-size="10.00">+ addMaterialPropertyDescription()</text>
<text text-anchor="start" x="472.75" y="-890.5" font-family="Helvetica,sans-Serif" font-size="10.00">+ addParameter()</text>
<text text-anchor="start" x="472.75" y="-879.5" font-family="Helvetica,sans-Serif" font-size="10.00">+ addParameter()</text>
<text text-anchor="start" x="472.75" y="-868.5" font-family="Helvetica,sans-Serif" font-size="10.00">+ addParameter()</text>
<text text-anchor="start" x="472.75" y="-857.5" font-family="Helvetica,sans-Serif" font-size="10.00">and 28 more...</text>
<text text-anchor="start" x="472.75" y="-846.5" font-family="Helvetica,sans-Serif" font-size="10.00">+ New()</text>
<text text-anchor="start" x="472.75" y="-835.5" font-family="Helvetica,sans-Serif" font-size="10.00"># parameterModelExpr()</text>
<text text-anchor="start" x="472.75" y="-824.5" font-family="Helvetica,sans-Serif" font-size="10.00"># updateTabulateInformations</text>
<text text-anchor="start" x="472.75" y="-813.5" font-family="Helvetica,sans-Serif" font-size="10.00">Basic()</text>
<text text-anchor="start" x="472.75" y="-802.5" font-family="Helvetica,sans-Serif" font-size="10.00"># updateTabulateInformations</text>
<text text-anchor="start" x="472.75" y="-791.5" font-family="Helvetica,sans-Serif" font-size="10.00">Parameters()</text>
<text text-anchor="start" x="472.75" y="-780.5" font-family="Helvetica,sans-Serif" font-size="10.00"># updateTabulateInformations</text>
<text text-anchor="start" x="472.75" y="-769.5" font-family="Helvetica,sans-Serif" font-size="10.00">Subphysics()</text>
</a>
</g>
</g>
<!-- Node4&#45;&gt;Node19 -->
<g id="edge22" class="edge">
<title>Node4&#45;&gt;Node19</title>
<path fill="none" stroke="midnightblue" d="M401.71,-1053.45C424.22,-1027.26 448.14,-999.43 470.39,-973.54"/>
<polygon fill="none" stroke="midnightblue" points="398.95,-1051.28 395.09,-1061.15 404.26,-1055.85 398.95,-1051.28"/>
</g>
<!-- Node5 -->
<g id="node5" class="node">
<title>Node5</title>
<g id="a_node5"><a xlink:title=" ">
<polygon fill="white" stroke="#bfbfbf" points="252.75,-1347.5 252.75,-1404.5 359.75,-1404.5 359.75,-1347.5 252.75,-1347.5"/>
<text text-anchor="middle" x="306.25" y="-1392.5" font-family="Helvetica,sans-Serif" font-size="10.00">Event::SlotHandler</text>
<polyline fill="none" stroke="#bfbfbf" points="252.75,-1385.5 359.75,-1385.5 "/>
<text text-anchor="middle" x="306.25" y="-1373.5" font-family="Helvetica,sans-Serif" font-size="10.00"> </text>
<polyline fill="none" stroke="#bfbfbf" points="252.75,-1366.5 359.75,-1366.5 "/>
<text text-anchor="middle" x="306.25" y="-1354.5" font-family="Helvetica,sans-Serif" font-size="10.00"> </text>
</a>
</g>
</g>
<!-- Node5&#45;&gt;Node4 -->
<g id="edge4" class="edge">
<title>Node5&#45;&gt;Node4</title>
<path fill="none" stroke="midnightblue" d="M306.25,-1337.25C306.25,-1328.86 306.25,-1319.49 306.25,-1309.57"/>
<polygon fill="none" stroke="midnightblue" points="302.75,-1337.31 306.25,-1347.31 309.75,-1337.31 302.75,-1337.31"/>
</g>
<!-- Node6 -->
<g id="node6" class="node">
<title>Node6</title>
<g id="a_node6"><a xlink:title=" ">
<polygon fill="white" stroke="#bfbfbf" points="133.75,-834 133.75,-902 278.75,-902 278.75,-834 133.75,-834"/>
<text text-anchor="start" x="141.75" y="-890" font-family="Helvetica,sans-Serif" font-size="10.00">std::enable_shared</text>
<text text-anchor="middle" x="206.25" y="-879" font-family="Helvetica,sans-Serif" font-size="10.00">_from_this&lt; ModelBase &gt;</text>
<polyline fill="none" stroke="#bfbfbf" points="133.75,-872 278.75,-872 "/>
<text text-anchor="middle" x="206.25" y="-860" font-family="Helvetica,sans-Serif" font-size="10.00"> </text>
<polyline fill="none" stroke="#bfbfbf" points="133.75,-853 278.75,-853 "/>
<text text-anchor="middle" x="206.25" y="-841" font-family="Helvetica,sans-Serif" font-size="10.00"> </text>
</a>
</g>
</g>
<!-- Node6&#45;&gt;Node3 -->
<g id="edge5" class="edge">
<title>Node6&#45;&gt;Node3</title>
<path fill="none" stroke="midnightblue" d="M192.09,-823.8C181.71,-792.11 167.52,-748.8 156.31,-714.61"/>
<polygon fill="none" stroke="midnightblue" points="188.88,-825.25 195.32,-833.66 195.54,-823.07 188.88,-825.25"/>
</g>
<!-- Node7&#45;&gt;Node2 -->
<g id="edge6" class="edge">
<title>Node7&#45;&gt;Node2</title>
<path fill="none" stroke="midnightblue" d="M133.92,-421.45C137.87,-406.03 142.19,-389.2 146.46,-372.51"/>
<polygon fill="none" stroke="midnightblue" points="130.47,-420.81 131.38,-431.36 137.25,-422.55 130.47,-420.81"/>
</g>
<!-- Node8&#45;&gt;Node2 -->
<g id="edge8" class="edge">
<title>Node8&#45;&gt;Node2</title>
<path fill="none" stroke="midnightblue" d="M266.67,-411.74C258.48,-399.14 249.84,-385.86 241.27,-372.66"/>
<polygon fill="none" stroke="midnightblue" points="263.88,-413.87 272.26,-420.35 269.74,-410.06 263.88,-413.87"/>
</g>
<!-- Node9 -->
<g id="node9" class="node">
<title>Node9</title>
<g id="a_node9"><a xlink:title=" ">
<polygon fill="white" stroke="black" points="260.75,-630 260.75,-687 361.75,-687 361.75,-630 260.75,-630"/>
<text text-anchor="middle" x="311.25" y="-675" font-family="Helvetica,sans-Serif" font-size="10.00">std::map&lt; K, T &gt;</text>
<polyline fill="none" stroke="black" points="260.75,-668 361.75,-668 "/>
<text text-anchor="middle" x="311.25" y="-656" font-family="Helvetica,sans-Serif" font-size="10.00"> </text>
<polyline fill="none" stroke="black" points="260.75,-649 361.75,-649 "/>
<text text-anchor="middle" x="311.25" y="-637" font-family="Helvetica,sans-Serif" font-size="10.00"> </text>
</a>
</g>
</g>
<!-- Node9&#45;&gt;Node8 -->
<g id="edge9" class="edge">
<title>Node9&#45;&gt;Node8</title>
<path fill="none" stroke="darkgreen" d="M312.14,-619.85C312.59,-600.68 313.16,-576.81 313.68,-554.7"/>
<polygon fill="none" stroke="darkgreen" points="308.64,-619.89 311.9,-629.97 315.64,-620.06 308.64,-619.89"/>
</g>
<!-- Node10 -->
<g id="node10" class="node">
<title>Node10</title>
<g id="a_node10"><a xlink:title=" ">
<polygon fill="white" stroke="#bfbfbf" points="296.75,-839.5 296.75,-896.5 325.75,-896.5 325.75,-839.5 296.75,-839.5"/>
<text text-anchor="middle" x="311.25" y="-884.5" font-family="Helvetica,sans-Serif" font-size="10.00">K</text>
<polyline fill="none" stroke="#bfbfbf" points="296.75,-877.5 325.75,-877.5 "/>
<text text-anchor="middle" x="311.25" y="-865.5" font-family="Helvetica,sans-Serif" font-size="10.00"> </text>
<polyline fill="none" stroke="#bfbfbf" points="296.75,-858.5 325.75,-858.5 "/>
<text text-anchor="middle" x="311.25" y="-846.5" font-family="Helvetica,sans-Serif" font-size="10.00"> </text>
</a>
</g>
</g>
<!-- Node10&#45;&gt;Node9 -->
<g id="edge10" class="edge">
<title>Node10&#45;&gt;Node9</title>
<path fill="none" stroke="#404040" d="M311.25,-839.45C311.25,-803.56 311.25,-740.56 311.25,-699.43"/>
<polygon fill="none" stroke="#404040" points="311.25,-699.17 307.25,-693.17 311.25,-687.17 315.25,-693.17 311.25,-699.17"/>
<text text-anchor="middle" x="328.25" y="-736" font-family="Helvetica,sans-Serif" font-size="10.00"> +keys</text>
</g>
<!-- Node11 -->
<g id="node11" class="node">
<title>Node11</title>
<g id="a_node11"><a xlink:title=" ">
<polygon fill="white" stroke="#bfbfbf" points="353.75,-839.5 353.75,-896.5 382.75,-896.5 382.75,-839.5 353.75,-839.5"/>
<text text-anchor="middle" x="368.25" y="-884.5" font-family="Helvetica,sans-Serif" font-size="10.00">T</text>
<polyline fill="none" stroke="#bfbfbf" points="353.75,-877.5 382.75,-877.5 "/>
<text text-anchor="middle" x="368.25" y="-865.5" font-family="Helvetica,sans-Serif" font-size="10.00"> </text>
<polyline fill="none" stroke="#bfbfbf" points="353.75,-858.5 382.75,-858.5 "/>
<text text-anchor="middle" x="368.25" y="-846.5" font-family="Helvetica,sans-Serif" font-size="10.00"> </text>
</a>
</g>
</g>
<!-- Node11&#45;&gt;Node9 -->
<g id="edge11" class="edge">
<title>Node11&#45;&gt;Node9</title>
<path fill="none" stroke="#404040" d="M365.99,-839.27C363.23,-811.8 357.45,-768.77 346.25,-733 342.58,-721.29 337.37,-709.07 332.09,-698.02"/>
<polygon fill="none" stroke="#404040" points="331.97,-697.77 325.71,-694.17 326.63,-687.02 332.88,-690.61 331.97,-697.77"/>
<text text-anchor="middle" x="378.25" y="-736" font-family="Helvetica,sans-Serif" font-size="10.00"> +elements</text>
</g>
<!-- Node12&#45;&gt;Node1 -->
<g id="edge13" class="edge">
<title>Node12&#45;&gt;Node1</title>
<path fill="none" stroke="midnightblue" d="M610.25,-184.26C610.25,-163.96 610.25,-142.58 610.25,-123.51"/>
<polygon fill="none" stroke="midnightblue" points="606.75,-184.43 610.25,-194.43 613.75,-184.43 606.75,-184.43"/>
</g>
<!-- Node13 -->
<g id="node13" class="node">
<title>Node13</title>
<g id="a_node13"><a xlink:title=" ">
<polygon fill="white" stroke="#bfbfbf" points="724.25,-1137 724.25,-1194 858.25,-1194 858.25,-1137 724.25,-1137"/>
<text text-anchor="middle" x="791.25" y="-1182" font-family="Helvetica,sans-Serif" font-size="10.00">static const uint16_type</text>
<polyline fill="none" stroke="#bfbfbf" points="724.25,-1175 858.25,-1175 "/>
<text text-anchor="middle" x="791.25" y="-1163" font-family="Helvetica,sans-Serif" font-size="10.00"> </text>
<polyline fill="none" stroke="#bfbfbf" points="724.25,-1156 858.25,-1156 "/>
<text text-anchor="middle" x="791.25" y="-1144" font-family="Helvetica,sans-Serif" font-size="10.00"> </text>
</a>
</g>
</g>
<!-- Node13&#45;&gt;Node1 -->
<g id="edge24" class="edge">
<title>Node13&#45;&gt;Node1</title>
<path fill="none" stroke="#404040" d="M801.71,-1136.85C820.32,-1085.08 857.25,-969.66 857.25,-869 857.25,-869 857.25,-869 857.25,-266 857.25,-180.91 768.68,-124.93 697.61,-93.72"/>
<polygon fill="none" stroke="#404040" points="697.41,-93.63 690.32,-94.95 686.37,-88.92 693.46,-87.59 697.41,-93.63"/>
<text text-anchor="middle" x="876.25" y="-576" font-family="Helvetica,sans-Serif" font-size="10.00"> +nDim</text>
</g>
<!-- Node13&#45;&gt;Node12 -->
<g id="edge15" class="edge">
<title>Node13&#45;&gt;Node12</title>
<path fill="none" stroke="#404040" d="M791.25,-1136.8C791.25,-1084.47 791.25,-967.5 791.25,-869 791.25,-869 791.25,-869 791.25,-486.5 791.25,-443.04 793.55,-427.68 770.25,-391 755.44,-367.69 734.58,-347.07 712.8,-329.69"/>
<polygon fill="none" stroke="#404040" points="712.58,-329.53 705.39,-329.03 703.08,-322.19 710.28,-322.69 712.58,-329.53"/>
<text text-anchor="middle" x="810.25" y="-656" font-family="Helvetica,sans-Serif" font-size="10.00"> +nDim</text>
</g>
<!-- Node13&#45;&gt;Node19 -->
<g id="edge23" class="edge">
<title>Node13&#45;&gt;Node19</title>
<path fill="none" stroke="#404040" d="M769.72,-1136.97C742.36,-1101.95 693.39,-1039.32 649.69,-983.41"/>
<polygon fill="none" stroke="#404040" points="649.55,-983.24 642.7,-980.97 642.16,-973.78 649.01,-976.05 649.55,-983.24"/>
<text text-anchor="middle" x="680.25" y="-995" font-family="Helvetica,sans-Serif" font-size="10.00"> +nDim</text>
</g>
<!-- Node14 -->
<g id="node14" class="node">
<title>Node14</title>
<g id="a_node14"><a xlink:title=" ">
<polygon fill="white" stroke="black" points="668.75,-459 668.75,-516 733.75,-516 733.75,-459 668.75,-459"/>
<text text-anchor="middle" x="701.25" y="-504" font-family="Helvetica,sans-Serif" font-size="10.00">std::string</text>
<polyline fill="none" stroke="black" points="668.75,-497 733.75,-497 "/>
<text text-anchor="middle" x="701.25" y="-485" font-family="Helvetica,sans-Serif" font-size="10.00"> </text>
<polyline fill="none" stroke="black" points="668.75,-478 733.75,-478 "/>
<text text-anchor="middle" x="701.25" y="-466" font-family="Helvetica,sans-Serif" font-size="10.00"> </text>
</a>
</g>
</g>
<!-- Node14&#45;&gt;Node12 -->
<g id="edge16" class="edge">
<title>Node14&#45;&gt;Node12</title>
<path fill="none" stroke="#404040" d="M689.72,-458.83C678.45,-431.76 660.71,-389.16 644.85,-351.08"/>
<polygon fill="none" stroke="#404040" points="644.83,-351.03 638.83,-347.03 640.21,-339.95 646.21,-343.95 644.83,-351.03"/>
<text text-anchor="middle" x="714.75" y="-394" font-family="Helvetica,sans-Serif" font-size="10.00"> #M_physicModeling</text>
</g>
<!-- Node15 -->
<g id="node15" class="node">
<title>Node15</title>
<g id="a_node15"><a xlink:title=" ">
<polygon fill="white" stroke="black" points="651.25,-624.5 651.25,-692.5 755.25,-692.5 755.25,-624.5 651.25,-624.5"/>
<text text-anchor="start" x="659.25" y="-680.5" font-family="Helvetica,sans-Serif" font-size="10.00">std::basic_string&lt;</text>
<text text-anchor="middle" x="703.25" y="-669.5" font-family="Helvetica,sans-Serif" font-size="10.00"> Char &gt;</text>
<polyline fill="none" stroke="black" points="651.25,-662.5 755.25,-662.5 "/>
<text text-anchor="middle" x="703.25" y="-650.5" font-family="Helvetica,sans-Serif" font-size="10.00"> </text>
<polyline fill="none" stroke="black" points="651.25,-643.5 755.25,-643.5 "/>
<text text-anchor="middle" x="703.25" y="-631.5" font-family="Helvetica,sans-Serif" font-size="10.00"> </text>
</a>
</g>
</g>
<!-- Node15&#45;&gt;Node14 -->
<g id="edge17" class="edge">
<title>Node15&#45;&gt;Node14</title>
<path fill="none" stroke="midnightblue" d="M702.74,-614.06C702.37,-583.23 701.89,-542.78 701.58,-516.23"/>
<polygon fill="none" stroke="midnightblue" points="699.24,-614.15 702.85,-624.11 706.24,-614.07 699.24,-614.15"/>
</g>
<!-- Node16 -->
<g id="node16" class="node">
<title>Node16</title>
<g id="a_node16"><a xlink:title=" ">
<polygon fill="white" stroke="black" points="471.75,-442.5 471.75,-532.5 648.75,-532.5 648.75,-442.5 471.75,-442.5"/>
<text text-anchor="start" x="479.75" y="-520.5" font-family="Helvetica,sans-Serif" font-size="10.00">std::map&lt; physic_id</text>
<text text-anchor="start" x="479.75" y="-509.5" font-family="Helvetica,sans-Serif" font-size="10.00">_type, std::shared_ptr</text>
<text text-anchor="start" x="479.75" y="-498.5" font-family="Helvetica,sans-Serif" font-size="10.00">&lt; Feel::FeelModels::ModelPhysic</text>
<text text-anchor="middle" x="560.25" y="-487.5" font-family="Helvetica,sans-Serif" font-size="10.00">&lt; nDim &gt; &gt; &gt;</text>
<polyline fill="none" stroke="black" points="471.75,-480.5 648.75,-480.5 "/>
<text text-anchor="middle" x="560.25" y="-468.5" font-family="Helvetica,sans-Serif" font-size="10.00"> </text>
<polyline fill="none" stroke="black" points="471.75,-461.5 648.75,-461.5 "/>
<text text-anchor="middle" x="560.25" y="-449.5" font-family="Helvetica,sans-Serif" font-size="10.00"> </text>
</a>
</g>
</g>
<!-- Node16&#45;&gt;Node12 -->
<g id="edge18" class="edge">
<title>Node16&#45;&gt;Node12</title>
<path fill="none" stroke="#404040" d="M569.83,-442.25C573.37,-426.11 577.44,-407.72 581.25,-391 584.16,-378.23 587.29,-364.72 590.38,-351.51"/>
<polygon fill="none" stroke="#404040" points="590.46,-351.18 587.93,-344.43 593.2,-339.5 595.72,-346.26 590.46,-351.18"/>
<text text-anchor="middle" x="612.75" y="-394" font-family="Helvetica,sans-Serif" font-size="10.00"> #M_physics</text>
</g>
<!-- Node17 -->
<g id="node17" class="node">
<title>Node17</title>
<g id="a_node17"><a xlink:title=" ">
<polygon fill="white" stroke="#bfbfbf" points="379.75,-630 379.75,-687 468.75,-687 468.75,-630 379.75,-630"/>
<text text-anchor="middle" x="424.25" y="-675" font-family="Helvetica,sans-Serif" font-size="10.00">physic_id_type</text>
<polyline fill="none" stroke="#bfbfbf" points="379.75,-668 468.75,-668 "/>
<text text-anchor="middle" x="424.25" y="-656" font-family="Helvetica,sans-Serif" font-size="10.00"> </text>
<polyline fill="none" stroke="#bfbfbf" points="379.75,-649 468.75,-649 "/>
<text text-anchor="middle" x="424.25" y="-637" font-family="Helvetica,sans-Serif" font-size="10.00"> </text>
</a>
</g>
</g>
<!-- Node17&#45;&gt;Node16 -->
<g id="edge19" class="edge">
<title>Node17&#45;&gt;Node16</title>
<path fill="none" stroke="#404040" d="M446.4,-629.97C465.47,-606.27 493.55,-571.39 517.04,-542.19"/>
<polygon fill="none" stroke="#404040" points="517.29,-541.88 517.94,-534.7 524.82,-532.53 524.17,-539.71 517.29,-541.88"/>
<text text-anchor="middle" x="509.25" y="-576" font-family="Helvetica,sans-Serif" font-size="10.00"> +keys</text>
</g>
<!-- Node18 -->
<g id="node18" class="node">
<title>Node18</title>
<g id="a_node18"><a xlink:title=" ">
<polygon fill="white" stroke="black" points="487.25,-619 487.25,-698 633.25,-698 633.25,-619 487.25,-619"/>
<text text-anchor="start" x="495.25" y="-686" font-family="Helvetica,sans-Serif" font-size="10.00">std::shared_ptr&lt; Feel</text>
<text text-anchor="start" x="495.25" y="-675" font-family="Helvetica,sans-Serif" font-size="10.00">::FeelModels::ModelPhysic</text>
<text text-anchor="middle" x="560.25" y="-664" font-family="Helvetica,sans-Serif" font-size="10.00">&lt; nDim &gt; &gt;</text>
<polyline fill="none" stroke="black" points="487.25,-657 633.25,-657 "/>
<text text-anchor="middle" x="560.25" y="-645" font-family="Helvetica,sans-Serif" font-size="10.00"> </text>
<polyline fill="none" stroke="black" points="487.25,-638 633.25,-638 "/>
<text text-anchor="start" x="495.25" y="-626" font-family="Helvetica,sans-Serif" font-size="10.00">+ operator&#45;&gt;()</text>
</a>
</g>
</g>
<!-- Node18&#45;&gt;Node16 -->
<g id="edge20" class="edge">
<title>Node18&#45;&gt;Node16</title>
<path fill="none" stroke="#404040" d="M560.25,-618.73C560.25,-596.9 560.25,-569.25 560.25,-545.05"/>
<polygon fill="none" stroke="#404040" points="560.25,-544.76 556.25,-538.76 560.25,-532.76 564.25,-538.76 560.25,-544.76"/>
<text text-anchor="middle" x="589.25" y="-576" font-family="Helvetica,sans-Serif" font-size="10.00"> +elements</text>
</g>
<!-- Node19&#45;&gt;Node18 -->
<g id="edge21" class="edge">
<title>Node19&#45;&gt;Node18</title>
<path fill="none" stroke="#404040" d="M560.25,-762.34C560.25,-744.22 560.25,-726.13 560.25,-710.3"/>
<polygon fill="none" stroke="#404040" points="560.25,-710.12 556.25,-704.12 560.25,-698.12 564.25,-704.12 560.25,-710.12"/>
<text text-anchor="middle" x="572.75" y="-736" font-family="Helvetica,sans-Serif" font-size="10.00"> +ptr</text>
</g>
</g>
</svg>
