<?xml version="1.0" encoding="UTF-8" standalone="no"?>
<!DOCTYPE svg PUBLIC "-//W3C//DTD SVG 1.1//EN"
 "http://www.w3.org/Graphics/SVG/1.1/DTD/svg11.dtd">
<!-- Generated by graphviz version 2.43.0 (0)
 -->
<!-- Title: Feel::DofFromEdge&lt; DofTableType, FEType &gt; Pages: 1 -->
<svg width="274pt" height="468pt"
 viewBox="0.00 0.00 274.00 468.00" xmlns="http://www.w3.org/2000/svg" xmlns:xlink="http://www.w3.org/1999/xlink">
<g id="graph0" class="graph" transform="scale(1 1) rotate(0) translate(4 464)">
<title>Feel::DofFromEdge&lt; DofTableType, FEType &gt;</title>
<polygon fill="white" stroke="transparent" points="-4,4 -4,-464 270,-464 270,4 -4,4"/>
<!-- Node1 -->
<g id="node1" class="node">
<title>Node1</title>
<g id="a_node1"><a xlink:title="Local Dof contribution from edge dof.">
<polygon fill="#bfbfbf" stroke="black" points="53.5,-0.5 53.5,-244.5 190.5,-244.5 190.5,-0.5 53.5,-0.5"/>
<text text-anchor="start" x="61.5" y="-232.5" font-family="Helvetica,sans-Serif" font-size="10.00">Feel::DofFromEdge&lt;</text>
<text text-anchor="middle" x="122" y="-221.5" font-family="Helvetica,sans-Serif" font-size="10.00"> DofTableType, FEType &gt;</text>
<polyline fill="none" stroke="black" points="53.5,-214.5 190.5,-214.5 "/>
<text text-anchor="middle" x="122" y="-202.5" font-family="Helvetica,sans-Serif" font-size="10.00"> </text>
<polyline fill="none" stroke="black" points="53.5,-195.5 190.5,-195.5 "/>
<text text-anchor="start" x="61.5" y="-183.5" font-family="Helvetica,sans-Serif" font-size="10.00">* doftable_type</text>
<text text-anchor="start" x="61.5" y="-172.5" font-family="Helvetica,sans-Serif" font-size="10.00">* mesh_type</text>
<text text-anchor="start" x="61.5" y="-161.5" font-family="Helvetica,sans-Serif" font-size="10.00">* element_type</text>
<text text-anchor="start" x="61.5" y="-150.5" font-family="Helvetica,sans-Serif" font-size="10.00">* face_type</text>
<text text-anchor="start" x="61.5" y="-139.5" font-family="Helvetica,sans-Serif" font-size="10.00">* edge_type</text>
<text text-anchor="start" x="61.5" y="-128.5" font-family="Helvetica,sans-Serif" font-size="10.00">and 6 more...</text>
<text text-anchor="start" x="61.5" y="-117.5" font-family="Helvetica,sans-Serif" font-size="10.00">* M_doftable</text>
<text text-anchor="start" x="61.5" y="-106.5" font-family="Helvetica,sans-Serif" font-size="10.00">* M_fe</text>
<text text-anchor="start" x="61.5" y="-95.5" font-family="Helvetica,sans-Serif" font-size="10.00">* operator()()</text>
<text text-anchor="start" x="61.5" y="-84.5" font-family="Helvetica,sans-Serif" font-size="10.00">* operator()()</text>
<text text-anchor="start" x="61.5" y="-73.5" font-family="Helvetica,sans-Serif" font-size="10.00">* addVertexEdgeDof()</text>
<text text-anchor="start" x="61.5" y="-62.5" font-family="Helvetica,sans-Serif" font-size="10.00">* addEdgeEdgeDof()</text>
<text text-anchor="start" x="61.5" y="-51.5" font-family="Helvetica,sans-Serif" font-size="10.00">* DofFromEdge()</text>
<text text-anchor="start" x="61.5" y="-40.5" font-family="Helvetica,sans-Serif" font-size="10.00">* DofFromEdge()</text>
<text text-anchor="start" x="61.5" y="-29.5" font-family="Helvetica,sans-Serif" font-size="10.00">* operator=()</text>
<text text-anchor="start" x="61.5" y="-18.5" font-family="Helvetica,sans-Serif" font-size="10.00">* DofFromEdge()</text>
<text text-anchor="start" x="61.5" y="-7.5" font-family="Helvetica,sans-Serif" font-size="10.00">* ~DofFromEdge()</text>
</a>
</g>
</g>
<!-- Node2 -->
<g id="node2" class="node">
<title>Node2</title>
<g id="a_node2"><a xlink:title=" ">
<polygon fill="white" stroke="#bfbfbf" points="0,-402.5 0,-459.5 134,-459.5 134,-402.5 0,-402.5"/>
<text text-anchor="middle" x="67" y="-447.5" font-family="Helvetica,sans-Serif" font-size="10.00">static const uint16_type</text>
<polyline fill="none" stroke="#bfbfbf" points="0,-440.5 134,-440.5 "/>
<text text-anchor="middle" x="67" y="-428.5" font-family="Helvetica,sans-Serif" font-size="10.00"> </text>
<polyline fill="none" stroke="#bfbfbf" points="0,-421.5 134,-421.5 "/>
<text text-anchor="middle" x="67" y="-409.5" font-family="Helvetica,sans-Serif" font-size="10.00"> </text>
</a>
</g>
</g>
<!-- Node2&#45;&gt;Node1 -->
<g id="edge1" class="edge">
<title>Node2&#45;&gt;Node1</title>
<path fill="none" stroke="#404040" d="M64.13,-402.22C61.37,-368.84 58.83,-311.28 68,-263 68.39,-260.94 68.81,-258.87 69.26,-256.79"/>
<polygon fill="none" stroke="#404040" points="69.32,-256.53 66.82,-249.76 72.1,-244.85 74.6,-251.62 69.32,-256.53"/>
<text text-anchor="middle" x="112" y="-359.5" font-family="Helvetica,sans-Serif" font-size="10.00"> +Shape</text>
<text text-anchor="middle" x="112" y="-348.5" font-family="Helvetica,sans-Serif" font-size="10.00">+nComponents</text>
<text text-anchor="middle" x="112" y="-337.5" font-family="Helvetica,sans-Serif" font-size="10.00">+nComponents1</text>
<text text-anchor="middle" x="112" y="-326.5" font-family="Helvetica,sans-Serif" font-size="10.00">+nComponents2</text>
<text text-anchor="middle" x="112" y="-315.5" font-family="Helvetica,sans-Serif" font-size="10.00">+nDim</text>
<text text-anchor="middle" x="112" y="-304.5" font-family="Helvetica,sans-Serif" font-size="10.00">+nDofPerElement</text>
<text text-anchor="middle" x="112" y="-293.5" font-family="Helvetica,sans-Serif" font-size="10.00">+nOrder</text>
<text text-anchor="middle" x="112" y="-282.5" font-family="Helvetica,sans-Serif" font-size="10.00">+nRealDim</text>
</g>
<!-- Node3 -->
<g id="node3" class="node">
<title>Node3</title>
<g id="a_node3"><a xlink:href="classbool.html" target="_top" xlink:title=" ">
<polygon fill="white" stroke="#bfbfbf" points="159,-402.5 159,-459.5 197,-459.5 197,-402.5 159,-402.5"/>
<text text-anchor="middle" x="178" y="-447.5" font-family="Helvetica,sans-Serif" font-size="10.00">bool</text>
<polyline fill="none" stroke="#bfbfbf" points="159,-440.5 197,-440.5 "/>
<text text-anchor="middle" x="178" y="-428.5" font-family="Helvetica,sans-Serif" font-size="10.00"> </text>
<polyline fill="none" stroke="#bfbfbf" points="159,-421.5 197,-421.5 "/>
<text text-anchor="middle" x="178" y="-409.5" font-family="Helvetica,sans-Serif" font-size="10.00"> </text>
</a>
</g>
</g>
<!-- Node3&#45;&gt;Node1 -->
<g id="edge2" class="edge">
<title>Node3&#45;&gt;Node1</title>
<path fill="none" stroke="#404040" d="M175.29,-402.37C171.81,-369.14 165.12,-311.72 156,-263 155.6,-260.84 155.18,-258.67 154.75,-256.48"/>
<polygon fill="none" stroke="#404040" points="154.75,-256.45 149.64,-251.36 152.37,-244.68 157.48,-249.77 154.75,-256.45"/>
<text text-anchor="middle" x="219.5" y="-376" font-family="Helvetica,sans-Serif" font-size="10.00"> +is_continuous</text>
<text text-anchor="start" x="173" y="-365" font-family="Helvetica,sans-Serif" font-size="10.00">+is_discontinuous</text>
<text text-anchor="middle" x="219.5" y="-354" font-family="Helvetica,sans-Serif" font-size="10.00">_locally</text>
<text text-anchor="start" x="173" y="-343" font-family="Helvetica,sans-Serif" font-size="10.00">+is_discontinuous</text>
<text text-anchor="middle" x="219.5" y="-332" font-family="Helvetica,sans-Serif" font-size="10.00">_totally</text>
<text text-anchor="middle" x="219.5" y="-321" font-family="Helvetica,sans-Serif" font-size="10.00">+is_modal</text>
<text text-anchor="middle" x="219.5" y="-310" font-family="Helvetica,sans-Serif" font-size="10.00">+is_p0_continuous</text>
<text text-anchor="middle" x="219.5" y="-299" font-family="Helvetica,sans-Serif" font-size="10.00">+is_product</text>
<text text-anchor="middle" x="219.5" y="-288" font-family="Helvetica,sans-Serif" font-size="10.00">+is_scalar</text>
<text text-anchor="middle" x="219.5" y="-277" font-family="Helvetica,sans-Serif" font-size="10.00">+is_tensor2</text>
<text text-anchor="middle" x="219.5" y="-266" font-family="Helvetica,sans-Serif" font-size="10.00">+is_vectorial</text>
</g>
</g>
</svg>
