<?xml version="1.0" encoding="UTF-8" standalone="no"?>
<!DOCTYPE svg PUBLIC "-//W3C//DTD SVG 1.1//EN"
 "http://www.w3.org/Graphics/SVG/1.1/DTD/svg11.dtd">
<!-- Generated by graphviz version 2.43.0 (0)
 -->
<!-- Title: Feel::SubMeshData&lt; IndexT &gt; Pages: 1 -->
<svg width="270pt" height="353pt"
 viewBox="0.00 0.00 270.00 353.00" xmlns="http://www.w3.org/2000/svg" xmlns:xlink="http://www.w3.org/1999/xlink">
<g id="graph0" class="graph" transform="scale(1 1) rotate(0) translate(4 349)">
<title>Feel::SubMeshData&lt; IndexT &gt;</title>
<polygon fill="white" stroke="transparent" points="-4,4 -4,-349 266,-349 266,4 -4,4"/>
<!-- Node1 -->
<g id="node1" class="node">
<title>Node1</title>
<g id="a_node1"><a xlink:title="data structure storing sub mesh data">
<polygon fill="#bfbfbf" stroke="black" points="109.5,-0.5 109.5,-123.5 228.5,-123.5 228.5,-0.5 109.5,-0.5"/>
<text text-anchor="start" x="117.5" y="-111.5" font-family="Helvetica,sans-Serif" font-size="10.00">Feel::SubMeshData&lt;</text>
<text text-anchor="middle" x="169" y="-100.5" font-family="Helvetica,sans-Serif" font-size="10.00"> IndexT &gt;</text>
<polyline fill="none" stroke="black" points="109.5,-93.5 228.5,-93.5 "/>
<text text-anchor="middle" x="169" y="-81.5" font-family="Helvetica,sans-Serif" font-size="10.00"> </text>
<polyline fill="none" stroke="black" points="109.5,-74.5 228.5,-74.5 "/>
<text text-anchor="start" x="117.5" y="-62.5" font-family="Helvetica,sans-Serif" font-size="10.00">* mesh_type</text>
<text text-anchor="start" x="117.5" y="-51.5" font-family="Helvetica,sans-Serif" font-size="10.00">* mesh_ptrtype</text>
<text text-anchor="start" x="117.5" y="-40.5" font-family="Helvetica,sans-Serif" font-size="10.00">* index_type</text>
<text text-anchor="start" x="117.5" y="-29.5" font-family="Helvetica,sans-Serif" font-size="10.00">* bm_type</text>
<text text-anchor="start" x="117.5" y="-18.5" font-family="Helvetica,sans-Serif" font-size="10.00">* SubMeshData()</text>
<text text-anchor="start" x="117.5" y="-7.5" font-family="Helvetica,sans-Serif" font-size="10.00">* ~SubMeshData()</text>
</a>
</g>
</g>
<!-- Node2 -->
<g id="node2" class="node">
<title>Node2</title>
<g id="a_node2"><a xlink:title=" ">
<polygon fill="white" stroke="black" points="0,-171.5 0,-239.5 128,-239.5 128,-171.5 0,-171.5"/>
<text text-anchor="start" x="8" y="-227.5" font-family="Helvetica,sans-Serif" font-size="10.00">std::shared_ptr&lt; mesh</text>
<text text-anchor="middle" x="64" y="-216.5" font-family="Helvetica,sans-Serif" font-size="10.00">_type &gt;</text>
<polyline fill="none" stroke="black" points="0,-209.5 128,-209.5 "/>
<text text-anchor="middle" x="64" y="-197.5" font-family="Helvetica,sans-Serif" font-size="10.00"> </text>
<polyline fill="none" stroke="black" points="0,-190.5 128,-190.5 "/>
<text text-anchor="start" x="8" y="-178.5" font-family="Helvetica,sans-Serif" font-size="10.00">+ operator&#45;&gt;()</text>
</a>
</g>
</g>
<!-- Node2&#45;&gt;Node1 -->
<g id="edge1" class="edge">
<title>Node2&#45;&gt;Node1</title>
<path fill="none" stroke="#404040" d="M88.62,-171.32C97.02,-160 106.77,-146.86 116.52,-133.73"/>
<polygon fill="none" stroke="#404040" points="116.8,-133.35 117.16,-126.15 123.95,-123.71 123.58,-130.91 116.8,-133.35"/>
<text text-anchor="middle" x="130.5" y="-145" font-family="Helvetica,sans-Serif" font-size="10.00"> +mesh</text>
</g>
<!-- Node3 -->
<g id="node3" class="node">
<title>Node3</title>
<g id="a_node3"><a xlink:title=" ">
<polygon fill="white" stroke="#bfbfbf" points="28.5,-287.5 28.5,-344.5 99.5,-344.5 99.5,-287.5 28.5,-287.5"/>
<text text-anchor="middle" x="64" y="-332.5" font-family="Helvetica,sans-Serif" font-size="10.00">mesh_type</text>
<polyline fill="none" stroke="#bfbfbf" points="28.5,-325.5 99.5,-325.5 "/>
<text text-anchor="middle" x="64" y="-313.5" font-family="Helvetica,sans-Serif" font-size="10.00"> </text>
<polyline fill="none" stroke="#bfbfbf" points="28.5,-306.5 99.5,-306.5 "/>
<text text-anchor="middle" x="64" y="-294.5" font-family="Helvetica,sans-Serif" font-size="10.00"> </text>
</a>
</g>
</g>
<!-- Node3&#45;&gt;Node2 -->
<g id="edge2" class="edge">
<title>Node3&#45;&gt;Node2</title>
<path fill="none" stroke="#404040" d="M64,-287.34C64,-276.53 64,-263.85 64,-251.77"/>
<polygon fill="none" stroke="#404040" points="64,-251.52 60,-245.52 64,-239.52 68,-245.52 64,-251.52"/>
<text text-anchor="middle" x="76.5" y="-261" font-family="Helvetica,sans-Serif" font-size="10.00"> +ptr</text>
</g>
<!-- Node4 -->
<g id="node4" class="node">
<title>Node4</title>
<g id="a_node4"><a xlink:title=" ">
<polygon fill="white" stroke="#bfbfbf" points="146,-171.5 146,-239.5 262,-239.5 262,-171.5 146,-171.5"/>
<text text-anchor="start" x="154" y="-227.5" font-family="Helvetica,sans-Serif" font-size="10.00">bimap&lt; index_type,</text>
<text text-anchor="middle" x="204" y="-216.5" font-family="Helvetica,sans-Serif" font-size="10.00"> index_type &gt;</text>
<polyline fill="none" stroke="#bfbfbf" points="146,-209.5 262,-209.5 "/>
<text text-anchor="middle" x="204" y="-197.5" font-family="Helvetica,sans-Serif" font-size="10.00"> </text>
<polyline fill="none" stroke="#bfbfbf" points="146,-190.5 262,-190.5 "/>
<text text-anchor="middle" x="204" y="-178.5" font-family="Helvetica,sans-Serif" font-size="10.00"> </text>
</a>
</g>
</g>
<!-- Node4&#45;&gt;Node1 -->
<g id="edge3" class="edge">
<title>Node4&#45;&gt;Node1</title>
<path fill="none" stroke="#404040" d="M195.79,-171.32C193.13,-160.55 190.06,-148.15 186.97,-135.66"/>
<polygon fill="none" stroke="#404040" points="186.9,-135.36 181.58,-130.5 184.02,-123.71 189.34,-128.58 186.9,-135.36"/>
<text text-anchor="middle" x="204" y="-145" font-family="Helvetica,sans-Serif" font-size="10.00"> +bm</text>
</g>
</g>
</svg>
