<?xml version="1.0" encoding="UTF-8" standalone="no"?>
<!DOCTYPE svg PUBLIC "-//W3C//DTD SVG 1.1//EN"
 "http://www.w3.org/Graphics/SVG/1.1/DTD/svg11.dtd">
<!-- Generated by graphviz version 2.43.0 (0)
 -->
<!-- Title: Feel::FunctionSpace&lt; MeshTypes, BasisTypes, T, PeriodicityType, MortarType &gt;::Context Pages: 1 -->
<svg width="175pt" height="259pt"
 viewBox="0.00 0.00 175.00 259.00" xmlns="http://www.w3.org/2000/svg" xmlns:xlink="http://www.w3.org/1999/xlink">
<g id="graph0" class="graph" transform="scale(1 1) rotate(0) translate(4 255)">
<title>Feel::FunctionSpace&lt; MeshTypes, BasisTypes, T, PeriodicityType, MortarType &gt;::Context</title>
<polygon fill="white" stroke="transparent" points="-4,4 -4,-255 171,-255 171,4 -4,4"/>
<!-- Node1 -->
<g id="node1" class="node">
<title>Node1</title>
<g id="a_node1"><a xlink:title=" ">
<polygon fill="#bfbfbf" stroke="black" points="0,-0.5 0,-145.5 167,-145.5 167,-0.5 0,-0.5"/>
<text text-anchor="start" x="8" y="-133.5" font-family="Helvetica,sans-Serif" font-size="10.00">Feel::FunctionSpace</text>
<text text-anchor="start" x="8" y="-122.5" font-family="Helvetica,sans-Serif" font-size="10.00">&lt; MeshTypes, BasisTypes,</text>
<text text-anchor="start" x="8" y="-111.5" font-family="Helvetica,sans-Serif" font-size="10.00"> T, PeriodicityType, MortarType</text>
<text text-anchor="middle" x="83.5" y="-100.5" font-family="Helvetica,sans-Serif" font-size="10.00"> &gt;::Context</text>
<polyline fill="none" stroke="black" points="0,-93.5 167,-93.5 "/>
<text text-anchor="start" x="8" y="-81.5" font-family="Helvetica,sans-Serif" font-size="10.00">+ is_rb_context</text>
<polyline fill="none" stroke="black" points="0,-74.5 167,-74.5 "/>
<text text-anchor="start" x="8" y="-62.5" font-family="Helvetica,sans-Serif" font-size="10.00">+ add()</text>
<text text-anchor="start" x="8" y="-51.5" font-family="Helvetica,sans-Serif" font-size="10.00">+ addCtx()</text>
<text text-anchor="start" x="8" y="-40.5" font-family="Helvetica,sans-Serif" font-size="10.00">+ Context()</text>
<text text-anchor="start" x="8" y="-29.5" font-family="Helvetica,sans-Serif" font-size="10.00">+ Context()</text>
<text text-anchor="start" x="8" y="-18.5" font-family="Helvetica,sans-Serif" font-size="10.00">+ Context()</text>
<text text-anchor="start" x="8" y="-7.5" font-family="Helvetica,sans-Serif" font-size="10.00">and 10 more...</text>
</a>
</g>
</g>
<!-- Node2 -->
<g id="node2" class="node">
<title>Node2</title>
<g id="a_node2"><a xlink:title=" ">
<polygon fill="white" stroke="black" points="33,-182.5 33,-250.5 134,-250.5 134,-182.5 33,-182.5"/>
<text text-anchor="middle" x="83.5" y="-238.5" font-family="Helvetica,sans-Serif" font-size="10.00">std::map&lt; K, T &gt;</text>
<polyline fill="none" stroke="black" points="33,-231.5 134,-231.5 "/>
<text text-anchor="start" x="41" y="-219.5" font-family="Helvetica,sans-Serif" font-size="10.00">+ elements</text>
<text text-anchor="start" x="41" y="-208.5" font-family="Helvetica,sans-Serif" font-size="10.00">+ keys</text>
<polyline fill="none" stroke="black" points="33,-201.5 134,-201.5 "/>
<text text-anchor="middle" x="83.5" y="-189.5" font-family="Helvetica,sans-Serif" font-size="10.00"> </text>
</a>
</g>
</g>
<!-- Node2&#45;&gt;Node1 -->
<g id="edge1" class="edge">
<title>Node2&#45;&gt;Node1</title>
<path fill="none" stroke="midnightblue" d="M83.5,-172.09C83.5,-163.73 83.5,-154.76 83.5,-145.77"/>
<polygon fill="none" stroke="midnightblue" points="80,-172.32 83.5,-182.32 87,-172.32 80,-172.32"/>
</g>
</g>
</svg>
