<?xml version="1.0" encoding="UTF-8" standalone="no"?>
<!DOCTYPE svg PUBLIC "-//W3C//DTD SVG 1.1//EN"
 "http://www.w3.org/Graphics/SVG/1.1/DTD/svg11.dtd">
<!-- Generated by graphviz version 2.43.0 (0)
 -->
<!-- Title: Feel::ProductSpace&lt; T, same_mesh &gt;::Element Pages: 1 -->
<svg width="322pt" height="237pt"
 viewBox="0.00 0.00 322.00 237.00" xmlns="http://www.w3.org/2000/svg" xmlns:xlink="http://www.w3.org/1999/xlink">
<g id="graph0" class="graph" transform="scale(1 1) rotate(0) translate(4 233)">
<title>Feel::ProductSpace&lt; T, same_mesh &gt;::Element</title>
<polygon fill="white" stroke="transparent" points="-4,4 -4,-233 318,-233 318,4 -4,4"/>
<!-- Node1 -->
<g id="node1" class="node">
<title>Node1</title>
<g id="a_node1"><a xlink:title=" ">
<polygon fill="#bfbfbf" stroke="black" points="84,-0.5 84,-123.5 241,-123.5 241,-0.5 84,-0.5"/>
<text text-anchor="start" x="92" y="-111.5" font-family="Helvetica,sans-Serif" font-size="10.00">Feel::ProductSpace</text>
<text text-anchor="middle" x="162.5" y="-100.5" font-family="Helvetica,sans-Serif" font-size="10.00">&lt; T, same_mesh &gt;::Element</text>
<polyline fill="none" stroke="black" points="84,-93.5 241,-93.5 "/>
<text text-anchor="start" x="92" y="-81.5" font-family="Helvetica,sans-Serif" font-size="10.00">+ M_fspace</text>
<polyline fill="none" stroke="black" points="84,-74.5 241,-74.5 "/>
<text text-anchor="start" x="92" y="-62.5" font-family="Helvetica,sans-Serif" font-size="10.00">+ Element()</text>
<text text-anchor="start" x="92" y="-51.5" font-family="Helvetica,sans-Serif" font-size="10.00">+ Element()</text>
<text text-anchor="start" x="92" y="-40.5" font-family="Helvetica,sans-Serif" font-size="10.00">+ Element()</text>
<text text-anchor="start" x="92" y="-29.5" font-family="Helvetica,sans-Serif" font-size="10.00">+ Element()</text>
<text text-anchor="start" x="92" y="-18.5" font-family="Helvetica,sans-Serif" font-size="10.00">+ functionSpace()</text>
<text text-anchor="start" x="92" y="-7.5" font-family="Helvetica,sans-Serif" font-size="10.00">and 5 more...</text>
</a>
</g>
</g>
<!-- Node2 -->
<g id="node2" class="node">
<title>Node2</title>
<g id="a_node2"><a xlink:href="classBlocksBaseVector.html" target="_top" xlink:title=" ">
<polygon fill="white" stroke="black" points="0,-166 0,-223 159,-223 159,-166 0,-166"/>
<text text-anchor="middle" x="79.5" y="-211" font-family="Helvetica,sans-Serif" font-size="10.00">BlocksBaseVector&lt; double &gt;</text>
<polyline fill="none" stroke="black" points="0,-204 159,-204 "/>
<text text-anchor="middle" x="79.5" y="-192" font-family="Helvetica,sans-Serif" font-size="10.00"> </text>
<polyline fill="none" stroke="black" points="0,-185 159,-185 "/>
<text text-anchor="middle" x="79.5" y="-173" font-family="Helvetica,sans-Serif" font-size="10.00"> </text>
</a>
</g>
</g>
<!-- Node2&#45;&gt;Node1 -->
<g id="edge1" class="edge">
<title>Node2&#45;&gt;Node1</title>
<path fill="none" stroke="midnightblue" d="M102.48,-157.36C109.14,-146.9 116.59,-135.18 123.92,-123.66"/>
<polygon fill="none" stroke="midnightblue" points="99.52,-155.51 97.1,-165.82 105.42,-159.26 99.52,-155.51"/>
</g>
<!-- Node3 -->
<g id="node3" class="node">
<title>Node3</title>
<g id="a_node3"><a xlink:href="classFeel_1_1FunctionSpaceBase_1_1ElementBase.html" target="_top" xlink:title=" ">
<polygon fill="white" stroke="black" points="177,-160.5 177,-228.5 314,-228.5 314,-160.5 177,-160.5"/>
<text text-anchor="start" x="185" y="-216.5" font-family="Helvetica,sans-Serif" font-size="10.00">Feel::FunctionSpaceBase</text>
<text text-anchor="middle" x="245.5" y="-205.5" font-family="Helvetica,sans-Serif" font-size="10.00">::ElementBase</text>
<polyline fill="none" stroke="black" points="177,-198.5 314,-198.5 "/>
<text text-anchor="middle" x="245.5" y="-186.5" font-family="Helvetica,sans-Serif" font-size="10.00"> </text>
<polyline fill="none" stroke="black" points="177,-179.5 314,-179.5 "/>
<text text-anchor="middle" x="245.5" y="-167.5" font-family="Helvetica,sans-Serif" font-size="10.00"> </text>
</a>
</g>
</g>
<!-- Node3&#45;&gt;Node1 -->
<g id="edge2" class="edge">
<title>Node3&#45;&gt;Node1</title>
<path fill="none" stroke="#8b1a1a" d="M218.83,-151.57C213.16,-142.65 207.06,-133.06 201.05,-123.61"/>
<polygon fill="none" stroke="#8b1a1a" points="216.02,-153.67 224.34,-160.23 221.93,-149.92 216.02,-153.67"/>
</g>
</g>
</svg>
