<?xml version="1.0" encoding="UTF-8" standalone="no"?>
<!DOCTYPE svg PUBLIC "-//W3C//DTD SVG 1.1//EN"
 "http://www.w3.org/Graphics/SVG/1.1/DTD/svg11.dtd">
<!-- Generated by graphviz version 2.43.0 (0)
 -->
<!-- Title: Feel::Convex&lt; Dim, Order, RDim &gt; Pages: 1 -->
<svg width="426pt" height="1372pt"
 viewBox="0.00 0.00 426.00 1372.00" xmlns="http://www.w3.org/2000/svg" xmlns:xlink="http://www.w3.org/1999/xlink">
<g id="graph0" class="graph" transform="scale(1 1) rotate(0) translate(4 1368)">
<title>Feel::Convex&lt; Dim, Order, RDim &gt;</title>
<polygon fill="white" stroke="transparent" points="-4,4 -4,-1368 422,-1368 422,4 -4,4"/>
<!-- Node1 -->
<g id="node1" class="node">
<title>Node1</title>
<g id="a_node1"><a xlink:title="Convex base class.">
<polygon fill="#bfbfbf" stroke="black" points="135,-1135.5 135,-1269.5 249,-1269.5 249,-1135.5 135,-1135.5"/>
<text text-anchor="start" x="143" y="-1257.5" font-family="Helvetica,sans-Serif" font-size="10.00">Feel::Convex&lt; Dim,</text>
<text text-anchor="middle" x="192" y="-1246.5" font-family="Helvetica,sans-Serif" font-size="10.00"> Order, RDim &gt;</text>
<polyline fill="none" stroke="black" points="135,-1239.5 249,-1239.5 "/>
<text text-anchor="middle" x="192" y="-1227.5" font-family="Helvetica,sans-Serif" font-size="10.00"> </text>
<polyline fill="none" stroke="black" points="135,-1220.5 249,-1220.5 "/>
<text text-anchor="start" x="143" y="-1208.5" font-family="Helvetica,sans-Serif" font-size="10.00">* nDim</text>
<text text-anchor="start" x="143" y="-1197.5" font-family="Helvetica,sans-Serif" font-size="10.00">* nOrder</text>
<text text-anchor="start" x="143" y="-1186.5" font-family="Helvetica,sans-Serif" font-size="10.00">* nRealDim</text>
<text text-anchor="start" x="143" y="-1175.5" font-family="Helvetica,sans-Serif" font-size="10.00">* Convex()</text>
<text text-anchor="start" x="143" y="-1164.5" font-family="Helvetica,sans-Serif" font-size="10.00">* Convex()</text>
<text text-anchor="start" x="143" y="-1153.5" font-family="Helvetica,sans-Serif" font-size="10.00">* ~Convex()</text>
<text text-anchor="start" x="143" y="-1142.5" font-family="Helvetica,sans-Serif" font-size="10.00">* operator=()</text>
</a>
</g>
</g>
<!-- Node3 -->
<g id="node3" class="node">
<title>Node3</title>
<g id="a_node3"><a xlink:href="classFeel_1_1Simplex.html" target="_top" xlink:title=" ">
<polygon fill="white" stroke="black" points="121,-854.5 121,-1098.5 263,-1098.5 263,-854.5 121,-854.5"/>
<text text-anchor="middle" x="192" y="-1086.5" font-family="Helvetica,sans-Serif" font-size="10.00">Simplex&lt; 0, 1, Dim &gt;</text>
<polyline fill="none" stroke="black" points="121,-1079.5 263,-1079.5 "/>
<text text-anchor="start" x="129" y="-1067.5" font-family="Helvetica,sans-Serif" font-size="10.00">+ Geometry</text>
<text text-anchor="start" x="129" y="-1056.5" font-family="Helvetica,sans-Serif" font-size="10.00">+ is_hypercube</text>
<text text-anchor="start" x="129" y="-1045.5" font-family="Helvetica,sans-Serif" font-size="10.00">+ is_simplex</text>
<text text-anchor="start" x="129" y="-1034.5" font-family="Helvetica,sans-Serif" font-size="10.00">+ nbPtsPerEdge</text>
<text text-anchor="start" x="129" y="-1023.5" font-family="Helvetica,sans-Serif" font-size="10.00">+ nbPtsPerFace</text>
<text text-anchor="start" x="129" y="-1012.5" font-family="Helvetica,sans-Serif" font-size="10.00">and 17 more...</text>
<polyline fill="none" stroke="black" points="121,-1005.5 263,-1005.5 "/>
<text text-anchor="start" x="129" y="-993.5" font-family="Helvetica,sans-Serif" font-size="10.00">+ dimension()</text>
<text text-anchor="start" x="129" y="-982.5" font-family="Helvetica,sans-Serif" font-size="10.00">+ operator=()</text>
<text text-anchor="start" x="129" y="-971.5" font-family="Helvetica,sans-Serif" font-size="10.00">+ operator=()</text>
<text text-anchor="start" x="129" y="-960.5" font-family="Helvetica,sans-Serif" font-size="10.00">+ Simplex()</text>
<text text-anchor="start" x="129" y="-949.5" font-family="Helvetica,sans-Serif" font-size="10.00">+ Simplex()</text>
<text text-anchor="start" x="129" y="-938.5" font-family="Helvetica,sans-Serif" font-size="10.00">+ Simplex()</text>
<text text-anchor="start" x="129" y="-927.5" font-family="Helvetica,sans-Serif" font-size="10.00">+ topologicalDimension()</text>
<text text-anchor="start" x="129" y="-916.5" font-family="Helvetica,sans-Serif" font-size="10.00">+ e2p()</text>
<text text-anchor="start" x="129" y="-905.5" font-family="Helvetica,sans-Serif" font-size="10.00">+ f2e()</text>
<text text-anchor="start" x="129" y="-894.5" font-family="Helvetica,sans-Serif" font-size="10.00">+ f2eLoc()</text>
<text text-anchor="start" x="129" y="-883.5" font-family="Helvetica,sans-Serif" font-size="10.00">+ f2p()</text>
<text text-anchor="start" x="129" y="-872.5" font-family="Helvetica,sans-Serif" font-size="10.00">+ getShape()</text>
<text text-anchor="start" x="129" y="-861.5" font-family="Helvetica,sans-Serif" font-size="10.00">and 12 more...</text>
</a>
</g>
</g>
<!-- Node1&#45;&gt;Node3 -->
<g id="edge2" class="edge">
<title>Node1&#45;&gt;Node3</title>
<path fill="none" stroke="midnightblue" d="M192,-1124.95C192,-1116.41 192,-1107.56 192,-1098.63"/>
<polygon fill="none" stroke="midnightblue" points="188.5,-1125.2 192,-1135.2 195.5,-1125.2 188.5,-1125.2"/>
</g>
<!-- Node2 -->
<g id="node2" class="node">
<title>Node2</title>
<g id="a_node2"><a xlink:href="classFeel_1_1ConvexBase.html" target="_top" xlink:title=" ">
<polygon fill="white" stroke="black" points="140,-1306.5 140,-1363.5 244,-1363.5 244,-1306.5 140,-1306.5"/>
<text text-anchor="middle" x="192" y="-1351.5" font-family="Helvetica,sans-Serif" font-size="10.00">Feel::ConvexBase</text>
<polyline fill="none" stroke="black" points="140,-1344.5 244,-1344.5 "/>
<text text-anchor="middle" x="192" y="-1332.5" font-family="Helvetica,sans-Serif" font-size="10.00"> </text>
<polyline fill="none" stroke="black" points="140,-1325.5 244,-1325.5 "/>
<text text-anchor="middle" x="192" y="-1313.5" font-family="Helvetica,sans-Serif" font-size="10.00"> </text>
</a>
</g>
</g>
<!-- Node2&#45;&gt;Node1 -->
<g id="edge1" class="edge">
<title>Node2&#45;&gt;Node1</title>
<path fill="none" stroke="midnightblue" d="M192,-1296.16C192,-1287.78 192,-1278.67 192,-1269.53"/>
<polygon fill="none" stroke="midnightblue" points="188.5,-1296.32 192,-1306.32 195.5,-1296.32 188.5,-1296.32"/>
</g>
<!-- Node4 -->
<g id="node4" class="node">
<title>Node4</title>
<g id="a_node4"><a xlink:href="classFeel_1_1GeoEntity.html" target="_top" xlink:title=" ">
<polygon fill="white" stroke="black" points="98,-364.5 98,-817.5 286,-817.5 286,-364.5 98,-364.5"/>
<text text-anchor="start" x="106" y="-805.5" font-family="Helvetica,sans-Serif" font-size="10.00">Feel::GeoEntity&lt; Simplex</text>
<text text-anchor="start" x="106" y="-794.5" font-family="Helvetica,sans-Serif" font-size="10.00">&lt; 0, 1, Dim &gt;, double,</text>
<text text-anchor="middle" x="192" y="-783.5" font-family="Helvetica,sans-Serif" font-size="10.00"> uint32_type &gt;</text>
<polyline fill="none" stroke="black" points="98,-776.5 286,-776.5 "/>
<text text-anchor="middle" x="192" y="-764.5" font-family="Helvetica,sans-Serif" font-size="10.00"> </text>
<polyline fill="none" stroke="black" points="98,-757.5 286,-757.5 "/>
<text text-anchor="start" x="106" y="-745.5" font-family="Helvetica,sans-Serif" font-size="10.00">* super</text>
<text text-anchor="start" x="106" y="-734.5" font-family="Helvetica,sans-Serif" font-size="10.00">* GeoShape</text>
<text text-anchor="start" x="106" y="-723.5" font-family="Helvetica,sans-Serif" font-size="10.00">* self_type</text>
<text text-anchor="start" x="106" y="-712.5" font-family="Helvetica,sans-Serif" font-size="10.00">* value_type</text>
<text text-anchor="start" x="106" y="-701.5" font-family="Helvetica,sans-Serif" font-size="10.00">* index_type</text>
<text text-anchor="start" x="106" y="-690.5" font-family="Helvetica,sans-Serif" font-size="10.00">and 26 more...</text>
<text text-anchor="start" x="106" y="-679.5" font-family="Helvetica,sans-Serif" font-size="10.00">* boost::serialization</text>
<text text-anchor="start" x="106" y="-668.5" font-family="Helvetica,sans-Serif" font-size="10.00">::access</text>
<text text-anchor="start" x="106" y="-657.5" font-family="Helvetica,sans-Serif" font-size="10.00">* M_id</text>
<text text-anchor="start" x="106" y="-646.5" font-family="Helvetica,sans-Serif" font-size="10.00">* M_entity</text>
<text text-anchor="start" x="106" y="-635.5" font-family="Helvetica,sans-Serif" font-size="10.00">* M_boundaryEntityDimension</text>
<text text-anchor="start" x="106" y="-624.5" font-family="Helvetica,sans-Serif" font-size="10.00">* M_pid</text>
<text text-anchor="start" x="106" y="-613.5" font-family="Helvetica,sans-Serif" font-size="10.00">and 41 more...</text>
<text text-anchor="start" x="106" y="-602.5" font-family="Helvetica,sans-Serif" font-size="10.00">* GeoEntity()</text>
<text text-anchor="start" x="106" y="-591.5" font-family="Helvetica,sans-Serif" font-size="10.00">* GeoEntity()</text>
<text text-anchor="start" x="106" y="-580.5" font-family="Helvetica,sans-Serif" font-size="10.00">* GeoEntity()</text>
<text text-anchor="start" x="106" y="-569.5" font-family="Helvetica,sans-Serif" font-size="10.00">* GeoEntity()</text>
<text text-anchor="start" x="106" y="-558.5" font-family="Helvetica,sans-Serif" font-size="10.00">* operator=()</text>
<text text-anchor="start" x="106" y="-547.5" font-family="Helvetica,sans-Serif" font-size="10.00">* operator=()</text>
<text text-anchor="start" x="106" y="-536.5" font-family="Helvetica,sans-Serif" font-size="10.00">* ~GeoEntity()</text>
<text text-anchor="start" x="106" y="-525.5" font-family="Helvetica,sans-Serif" font-size="10.00">* operator==()</text>
<text text-anchor="start" x="106" y="-514.5" font-family="Helvetica,sans-Serif" font-size="10.00">* operator&lt;()</text>
<text text-anchor="start" x="106" y="-503.5" font-family="Helvetica,sans-Serif" font-size="10.00">* operator&lt;()</text>
<text text-anchor="start" x="106" y="-492.5" font-family="Helvetica,sans-Serif" font-size="10.00">* id()</text>
<text text-anchor="start" x="106" y="-481.5" font-family="Helvetica,sans-Serif" font-size="10.00">* refDim()</text>
<text text-anchor="start" x="106" y="-470.5" font-family="Helvetica,sans-Serif" font-size="10.00">* nPoints()</text>
<text text-anchor="start" x="106" y="-459.5" font-family="Helvetica,sans-Serif" font-size="10.00">* nVertices()</text>
<text text-anchor="start" x="106" y="-448.5" font-family="Helvetica,sans-Serif" font-size="10.00">* nEdges()</text>
<text text-anchor="start" x="106" y="-437.5" font-family="Helvetica,sans-Serif" font-size="10.00">and 42 more...</text>
<text text-anchor="start" x="106" y="-426.5" font-family="Helvetica,sans-Serif" font-size="10.00">* setId()</text>
<text text-anchor="start" x="106" y="-415.5" font-family="Helvetica,sans-Serif" font-size="10.00">* setOnBoundary()</text>
<text text-anchor="start" x="106" y="-404.5" font-family="Helvetica,sans-Serif" font-size="10.00">* setNumberOfPartitions()</text>
<text text-anchor="start" x="106" y="-393.5" font-family="Helvetica,sans-Serif" font-size="10.00">* setNumberOfNeighborPartitions()</text>
<text text-anchor="start" x="106" y="-382.5" font-family="Helvetica,sans-Serif" font-size="10.00">* setNeighborPartitionIds()</text>
<text text-anchor="start" x="106" y="-371.5" font-family="Helvetica,sans-Serif" font-size="10.00">* addNeighborPartitionId()</text>
</a>
</g>
</g>
<!-- Node3&#45;&gt;Node4 -->
<g id="edge3" class="edge">
<title>Node3&#45;&gt;Node4</title>
<path fill="none" stroke="midnightblue" d="M192,-844.33C192,-835.65 192,-826.79 192,-817.83"/>
<polygon fill="none" stroke="midnightblue" points="188.5,-844.42 192,-854.42 195.5,-844.42 188.5,-844.42"/>
</g>
<!-- Node5 -->
<g id="node5" class="node">
<title>Node5</title>
<g id="a_node5"><a xlink:href="classFeel_1_1Geo0D.html" target="_top" xlink:title=" ">
<polygon fill="white" stroke="black" points="0,-193.5 0,-327.5 122,-327.5 122,-193.5 0,-193.5"/>
<text text-anchor="start" x="8" y="-315.5" font-family="Helvetica,sans-Serif" font-size="10.00">Feel::Geo0D&lt; Dim, T,</text>
<text text-anchor="middle" x="61" y="-304.5" font-family="Helvetica,sans-Serif" font-size="10.00"> IndexT &gt;</text>
<polyline fill="none" stroke="black" points="0,-297.5 122,-297.5 "/>
<text text-anchor="start" x="8" y="-285.5" font-family="Helvetica,sans-Serif" font-size="10.00">+ is_simplex</text>
<text text-anchor="start" x="8" y="-274.5" font-family="Helvetica,sans-Serif" font-size="10.00">+ nDim</text>
<polyline fill="none" stroke="black" points="0,-267.5 122,-267.5 "/>
<text text-anchor="start" x="8" y="-255.5" font-family="Helvetica,sans-Serif" font-size="10.00">+ G()</text>
<text text-anchor="start" x="8" y="-244.5" font-family="Helvetica,sans-Serif" font-size="10.00">+ gDim()</text>
<text text-anchor="start" x="8" y="-233.5" font-family="Helvetica,sans-Serif" font-size="10.00">+ Geo0D()</text>
<text text-anchor="start" x="8" y="-222.5" font-family="Helvetica,sans-Serif" font-size="10.00">+ Geo0D()</text>
<text text-anchor="start" x="8" y="-211.5" font-family="Helvetica,sans-Serif" font-size="10.00">+ Geo0D()</text>
<text text-anchor="start" x="8" y="-200.5" font-family="Helvetica,sans-Serif" font-size="10.00">and 46 more...</text>
</a>
</g>
</g>
<!-- Node4&#45;&gt;Node5 -->
<g id="edge4" class="edge">
<title>Node4&#45;&gt;Node5</title>
<path fill="none" stroke="midnightblue" d="M98.12,-354.58C94.38,-345.2 90.79,-336.2 87.42,-327.75"/>
<polygon fill="none" stroke="midnightblue" points="94.96,-356.1 101.91,-364.09 101.46,-353.5 94.96,-356.1"/>
</g>
<!-- Node6 -->
<g id="node6" class="node">
<title>Node6</title>
<g id="a_node6"><a xlink:href="classFeel_1_1Geo0D.html" target="_top" xlink:title=" ">
<polygon fill="white" stroke="black" points="140,-199 140,-322 244,-322 244,-199 140,-199"/>
<text text-anchor="middle" x="192" y="-310" font-family="Helvetica,sans-Serif" font-size="10.00">Feel::Geo0D&lt; 3 &gt;</text>
<polyline fill="none" stroke="black" points="140,-303 244,-303 "/>
<text text-anchor="start" x="148" y="-291" font-family="Helvetica,sans-Serif" font-size="10.00">+ is_simplex</text>
<text text-anchor="start" x="148" y="-280" font-family="Helvetica,sans-Serif" font-size="10.00">+ nDim</text>
<polyline fill="none" stroke="black" points="140,-273 244,-273 "/>
<text text-anchor="start" x="148" y="-261" font-family="Helvetica,sans-Serif" font-size="10.00">+ G()</text>
<text text-anchor="start" x="148" y="-250" font-family="Helvetica,sans-Serif" font-size="10.00">+ gDim()</text>
<text text-anchor="start" x="148" y="-239" font-family="Helvetica,sans-Serif" font-size="10.00">+ Geo0D()</text>
<text text-anchor="start" x="148" y="-228" font-family="Helvetica,sans-Serif" font-size="10.00">+ Geo0D()</text>
<text text-anchor="start" x="148" y="-217" font-family="Helvetica,sans-Serif" font-size="10.00">+ Geo0D()</text>
<text text-anchor="start" x="148" y="-206" font-family="Helvetica,sans-Serif" font-size="10.00">and 46 more...</text>
</a>
</g>
</g>
<!-- Node4&#45;&gt;Node6 -->
<g id="edge5" class="edge">
<title>Node4&#45;&gt;Node6</title>
<path fill="none" stroke="midnightblue" d="M192,-354.06C192,-342.8 192,-332.1 192,-322.24"/>
<polygon fill="none" stroke="midnightblue" points="188.5,-354.09 192,-364.09 195.5,-354.09 188.5,-354.09"/>
</g>
<!-- Node7 -->
<g id="node7" class="node">
<title>Node7</title>
<g id="a_node7"><a xlink:href="classFeel_1_1Geo0D.html" target="_top" xlink:title=" ">
<polygon fill="white" stroke="black" points="262.5,-193.5 262.5,-327.5 411.5,-327.5 411.5,-193.5 262.5,-193.5"/>
<text text-anchor="start" x="270.5" y="-315.5" font-family="Helvetica,sans-Serif" font-size="10.00">Feel::Geo0D&lt; Dim, double,</text>
<text text-anchor="middle" x="337" y="-304.5" font-family="Helvetica,sans-Serif" font-size="10.00"> uint32_type &gt;</text>
<polyline fill="none" stroke="black" points="262.5,-297.5 411.5,-297.5 "/>
<text text-anchor="start" x="270.5" y="-285.5" font-family="Helvetica,sans-Serif" font-size="10.00">+ is_simplex</text>
<text text-anchor="start" x="270.5" y="-274.5" font-family="Helvetica,sans-Serif" font-size="10.00">+ nDim</text>
<polyline fill="none" stroke="black" points="262.5,-267.5 411.5,-267.5 "/>
<text text-anchor="start" x="270.5" y="-255.5" font-family="Helvetica,sans-Serif" font-size="10.00">+ G()</text>
<text text-anchor="start" x="270.5" y="-244.5" font-family="Helvetica,sans-Serif" font-size="10.00">+ gDim()</text>
<text text-anchor="start" x="270.5" y="-233.5" font-family="Helvetica,sans-Serif" font-size="10.00">+ Geo0D()</text>
<text text-anchor="start" x="270.5" y="-222.5" font-family="Helvetica,sans-Serif" font-size="10.00">+ Geo0D()</text>
<text text-anchor="start" x="270.5" y="-211.5" font-family="Helvetica,sans-Serif" font-size="10.00">+ Geo0D()</text>
<text text-anchor="start" x="270.5" y="-200.5" font-family="Helvetica,sans-Serif" font-size="10.00">and 46 more...</text>
</a>
</g>
</g>
<!-- Node4&#45;&gt;Node7 -->
<g id="edge6" class="edge">
<title>Node4&#45;&gt;Node7</title>
<path fill="none" stroke="midnightblue" d="M290.2,-367.53C296.4,-353.47 302.32,-340.06 307.73,-327.81"/>
<polygon fill="none" stroke="midnightblue" points="286.92,-366.29 286.08,-376.85 293.32,-369.12 286.92,-366.29"/>
</g>
<!-- Node8 -->
<g id="node8" class="node">
<title>Node8</title>
<g id="a_node8"><a xlink:href="classFeel_1_1GeoElement0D.html" target="_top" xlink:title="Class for Points and Vertices.">
<polygon fill="white" stroke="black" points="256,-0.5 256,-156.5 418,-156.5 418,-0.5 256,-0.5"/>
<text text-anchor="start" x="264" y="-144.5" font-family="Helvetica,sans-Serif" font-size="10.00">Feel::GeoElement0D</text>
<text text-anchor="middle" x="337" y="-133.5" font-family="Helvetica,sans-Serif" font-size="10.00">&lt; Dim, SubFace, T, IndexT &gt;</text>
<polyline fill="none" stroke="black" points="256,-126.5 418,-126.5 "/>
<text text-anchor="start" x="264" y="-114.5" font-family="Helvetica,sans-Serif" font-size="10.00">+ is_simplex</text>
<text text-anchor="start" x="264" y="-103.5" font-family="Helvetica,sans-Serif" font-size="10.00">+ nDim</text>
<text text-anchor="start" x="264" y="-92.5" font-family="Helvetica,sans-Serif" font-size="10.00">+ nRealDim</text>
<text text-anchor="start" x="264" y="-81.5" font-family="Helvetica,sans-Serif" font-size="10.00">+ numLocalVertices</text>
<polyline fill="none" stroke="black" points="256,-74.5 418,-74.5 "/>
<text text-anchor="start" x="264" y="-62.5" font-family="Helvetica,sans-Serif" font-size="10.00">+ boundaryEntityDimension()</text>
<text text-anchor="start" x="264" y="-51.5" font-family="Helvetica,sans-Serif" font-size="10.00">+ G()</text>
<text text-anchor="start" x="264" y="-40.5" font-family="Helvetica,sans-Serif" font-size="10.00">+ GeoElement0D()</text>
<text text-anchor="start" x="264" y="-29.5" font-family="Helvetica,sans-Serif" font-size="10.00">+ GeoElement0D()</text>
<text text-anchor="start" x="264" y="-18.5" font-family="Helvetica,sans-Serif" font-size="10.00">+ GeoElement0D()</text>
<text text-anchor="start" x="264" y="-7.5" font-family="Helvetica,sans-Serif" font-size="10.00">and 23 more...</text>
</a>
</g>
</g>
<!-- Node7&#45;&gt;Node8 -->
<g id="edge7" class="edge">
<title>Node7&#45;&gt;Node8</title>
<path fill="none" stroke="midnightblue" d="M337,-183.3C337,-174.52 337,-165.57 337,-156.78"/>
<polygon fill="none" stroke="midnightblue" points="333.5,-183.5 337,-193.5 340.5,-183.5 333.5,-183.5"/>
</g>
</g>
</svg>
