<?xml version="1.0" encoding="UTF-8" standalone="no"?>
<!DOCTYPE svg PUBLIC "-//W3C//DTD SVG 1.1//EN"
 "http://www.w3.org/Graphics/SVG/1.1/DTD/svg11.dtd">
<!-- Generated by graphviz version 2.43.0 (0)
 -->
<!-- Title: Feel::ProductSpace&lt; T, same_mesh &gt;::Element Pages: 1 -->
<svg width="324pt" height="237pt"
 viewBox="0.00 0.00 323.50 237.00" xmlns="http://www.w3.org/2000/svg" xmlns:xlink="http://www.w3.org/1999/xlink">
<g id="graph0" class="graph" transform="scale(1 1) rotate(0) translate(4 233)">
<title>Feel::ProductSpace&lt; T, same_mesh &gt;::Element</title>
<polygon fill="white" stroke="transparent" points="-4,4 -4,-233 319.5,-233 319.5,4 -4,4"/>
<!-- Node1 -->
<g id="node1" class="node">
<title>Node1</title>
<g id="a_node1"><a xlink:title=" ">
<polygon fill="#bfbfbf" stroke="black" points="84.5,-0.5 84.5,-123.5 241.5,-123.5 241.5,-0.5 84.5,-0.5"/>
<text text-anchor="start" x="92.5" y="-111.5" font-family="Helvetica,sans-Serif" font-size="10.00">Feel::ProductSpace</text>
<text text-anchor="middle" x="163" y="-100.5" font-family="Helvetica,sans-Serif" font-size="10.00">&lt; T, same_mesh &gt;::Element</text>
<polyline fill="none" stroke="black" points="84.5,-93.5 241.5,-93.5 "/>
<text text-anchor="start" x="92.5" y="-81.5" font-family="Helvetica,sans-Serif" font-size="10.00">+ M_fspace</text>
<polyline fill="none" stroke="black" points="84.5,-74.5 241.5,-74.5 "/>
<text text-anchor="start" x="92.5" y="-62.5" font-family="Helvetica,sans-Serif" font-size="10.00">+ Element()</text>
<text text-anchor="start" x="92.5" y="-51.5" font-family="Helvetica,sans-Serif" font-size="10.00">+ Element()</text>
<text text-anchor="start" x="92.5" y="-40.5" font-family="Helvetica,sans-Serif" font-size="10.00">+ Element()</text>
<text text-anchor="start" x="92.5" y="-29.5" font-family="Helvetica,sans-Serif" font-size="10.00">+ Element()</text>
<text text-anchor="start" x="92.5" y="-18.5" font-family="Helvetica,sans-Serif" font-size="10.00">+ functionSpace()</text>
<text text-anchor="start" x="92.5" y="-7.5" font-family="Helvetica,sans-Serif" font-size="10.00">and 5 more...</text>
</a>
</g>
</g>
<!-- Node2 -->
<g id="node2" class="node">
<title>Node2</title>
<g id="a_node2"><a xlink:href="classBlocksBaseVector.html" target="_top" xlink:title=" ">
<polygon fill="white" stroke="black" points="0,-166 0,-223 160,-223 160,-166 0,-166"/>
<text text-anchor="middle" x="80" y="-211" font-family="Helvetica,sans-Serif" font-size="10.00">BlocksBaseVector&lt; double &gt;</text>
<polyline fill="none" stroke="black" points="0,-204 160,-204 "/>
<text text-anchor="middle" x="80" y="-192" font-family="Helvetica,sans-Serif" font-size="10.00"> </text>
<polyline fill="none" stroke="black" points="0,-185 160,-185 "/>
<text text-anchor="middle" x="80" y="-173" font-family="Helvetica,sans-Serif" font-size="10.00"> </text>
</a>
</g>
</g>
<!-- Node2&#45;&gt;Node1 -->
<g id="edge1" class="edge">
<title>Node2&#45;&gt;Node1</title>
<path fill="none" stroke="midnightblue" d="M102.98,-157.36C109.64,-146.9 117.09,-135.18 124.42,-123.66"/>
<polygon fill="none" stroke="midnightblue" points="100.02,-155.51 97.6,-165.82 105.92,-159.26 100.02,-155.51"/>
</g>
<!-- Node3 -->
<g id="node3" class="node">
<title>Node3</title>
<g id="a_node3"><a xlink:href="classFeel_1_1FunctionSpaceBase_1_1ElementBase.html" target="_top" xlink:title=" ">
<polygon fill="white" stroke="black" points="178.5,-160.5 178.5,-228.5 315.5,-228.5 315.5,-160.5 178.5,-160.5"/>
<text text-anchor="start" x="186.5" y="-216.5" font-family="Helvetica,sans-Serif" font-size="10.00">Feel::FunctionSpaceBase</text>
<text text-anchor="middle" x="247" y="-205.5" font-family="Helvetica,sans-Serif" font-size="10.00">::ElementBase</text>
<polyline fill="none" stroke="black" points="178.5,-198.5 315.5,-198.5 "/>
<text text-anchor="middle" x="247" y="-186.5" font-family="Helvetica,sans-Serif" font-size="10.00"> </text>
<polyline fill="none" stroke="black" points="178.5,-179.5 315.5,-179.5 "/>
<text text-anchor="middle" x="247" y="-167.5" font-family="Helvetica,sans-Serif" font-size="10.00"> </text>
</a>
</g>
</g>
<!-- Node3&#45;&gt;Node1 -->
<g id="edge2" class="edge">
<title>Node3&#45;&gt;Node1</title>
<path fill="none" stroke="#8b1a1a" d="M220.01,-151.57C214.27,-142.65 208.1,-133.06 202.01,-123.61"/>
<polygon fill="none" stroke="#8b1a1a" points="217.23,-153.72 225.59,-160.23 223.12,-149.93 217.23,-153.72"/>
</g>
</g>
</svg>
