<?xml version="1.0" encoding="UTF-8" standalone="no"?>
<!DOCTYPE svg PUBLIC "-//W3C//DTD SVG 1.1//EN"
 "http://www.w3.org/Graphics/SVG/1.1/DTD/svg11.dtd">
<!-- Generated by graphviz version 2.43.0 (0)
 -->
<!-- Title: Feel::ExpressionEvaluatorNonLinear&lt; EltT, ExprT, FctT &gt; Pages: 1 -->
<!--zoomable 673 -->
<svg id="main" version="1.1" xmlns="http://www.w3.org/2000/svg" xmlns:xlink="http://www.w3.org/1999/xlink" xml:space="preserve" onload="init(evt)">
<style type="text/css"><![CDATA[
.edge:hover path { stroke: red; }
.edge:hover polygon { stroke: red; fill: red; }
]]></style>
<script type="text/javascript"><![CDATA[
var edges = document.getElementsByTagName('g');
if (edges && edges.length) {
  for (var i=0;i<edges.length;i++) {
    if (edges[i].id.substr(0,4)=='edge') {
      edges[i].setAttribute('class','edge');
    }
  }
}
]]></script>
        <defs>
                <circle id="rim" cx="0" cy="0" r="7"/>
                <circle id="rim2" cx="0" cy="0" r="3.5"/>
                <g id="zoomPlus">
                        <use xlink:href="#rim" fill="#404040">
                                <set attributeName="fill" to="#808080" begin="zoomplus.mouseover" end="zoomplus.mouseout"/>
                        </use>
                        <path d="M-4,0h8M0,-4v8" fill="none" stroke="white" stroke-width="1.5" pointer-events="none"/>
                </g>
                <g id="zoomMin">
                        <use xlink:href="#rim" fill="#404040">
                                <set attributeName="fill" to="#808080" begin="zoomminus.mouseover" end="zoomminus.mouseout"/>
                        </use>
                        <path d="M-4,0h8" fill="none" stroke="white" stroke-width="1.5" pointer-events="none"/>
                </g>
                <g id="dirArrow">
                        <path fill="none" stroke="white" stroke-width="1.5" d="M0,-3.0v7 M-2.5,-0.5L0,-3.0L2.5,-0.5"/>
                </g>
               <g id="resetDef">
                       <use xlink:href="#rim2" fill="#404040">
                               <set attributeName="fill" to="#808080" begin="reset.mouseover" end="reset.mouseout"/>
                       </use>
               </g>
        </defs>

<script type="text/javascript">
var viewWidth = 940;
var viewHeight = 673;
var sectionId = 'dynsection-1';
</script>
<script xlink:href="svgpan.js"/>
<svg id="graph" class="graph">
<g id="viewport">
<title>Feel::ExpressionEvaluatorNonLinear&lt; EltT, ExprT, FctT &gt;</title>
<polygon fill="white" stroke="transparent" points="-4,4 -4,-669 935.5,-669 935.5,4 -4,4"/>
<!-- Node1 -->
<g id="node1" class="node">
<title>Node1</title>
<g id="a_node1"><a xlink:title=" ">
<polygon fill="#bfbfbf" stroke="black" points="589,-0.5 589,-90.5 774,-90.5 774,-0.5 589,-0.5"/>
<text text-anchor="start" x="597" y="-78.5" font-family="Helvetica,sans-Serif" font-size="10.00">Feel::ExpressionEvaluator</text>
<text text-anchor="start" x="597" y="-67.5" font-family="Helvetica,sans-Serif" font-size="10.00">NonLinear&lt; EltT, ExprT,</text>
<text text-anchor="middle" x="681.5" y="-56.5" font-family="Helvetica,sans-Serif" font-size="10.00"> FctT &gt;</text>
<polyline fill="none" stroke="black" points="589,-49.5 774,-49.5 "/>
<text text-anchor="middle" x="681.5" y="-37.5" font-family="Helvetica,sans-Serif" font-size="10.00"> </text>
<polyline fill="none" stroke="black" points="589,-30.5 774,-30.5 "/>
<text text-anchor="start" x="597" y="-18.5" font-family="Helvetica,sans-Serif" font-size="10.00">+ ExpressionEvaluatorNonLinear()</text>
<text text-anchor="start" x="597" y="-7.5" font-family="Helvetica,sans-Serif" font-size="10.00">+ update()</text>
</a>
</g>
</g>
<!-- Node2 -->
<g id="node2" class="node">
<title>Node2</title>
<g id="a_node2"><a xlink:href="classFeel_1_1ExpressionEvaluatorParam.html" target="_top" xlink:title=" ">
<polygon fill="white" stroke="black" points="405.5,-138.5 405.5,-217.5 571.5,-217.5 571.5,-138.5 405.5,-138.5"/>
<text text-anchor="start" x="413.5" y="-205.5" font-family="Helvetica,sans-Serif" font-size="10.00">Feel::ExpressionEvaluator</text>
<text text-anchor="middle" x="488.5" y="-194.5" font-family="Helvetica,sans-Serif" font-size="10.00">Param&lt; EltT, ExprT &gt;</text>
<polyline fill="none" stroke="black" points="405.5,-187.5 571.5,-187.5 "/>
<text text-anchor="middle" x="488.5" y="-175.5" font-family="Helvetica,sans-Serif" font-size="10.00"> </text>
<polyline fill="none" stroke="black" points="405.5,-168.5 571.5,-168.5 "/>
<text text-anchor="start" x="413.5" y="-156.5" font-family="Helvetica,sans-Serif" font-size="10.00">+ ExpressionEvaluatorParam()</text>
<text text-anchor="start" x="413.5" y="-145.5" font-family="Helvetica,sans-Serif" font-size="10.00">+ update()</text>
</a>
</g>
</g>
<!-- Node2&#45;&gt;Node1 -->
<g id="edge1" class="edge">
<title>Node2&#45;&gt;Node1</title>
<path fill="none" stroke="midnightblue" d="M554.11,-132.64C574.21,-119.04 596.32,-104.1 616.39,-90.52"/>
<polygon fill="none" stroke="midnightblue" points="551.95,-129.87 545.62,-138.38 555.87,-135.67 551.95,-129.87"/>
</g>
<!-- Node3 -->
<g id="node3" class="node">
<title>Node3</title>
<g id="a_node3"><a xlink:href="classFeel_1_1ExpressionEvaluator.html" target="_top" xlink:title=" ">
<polygon fill="white" stroke="black" points="339,-265.5 339,-388.5 482,-388.5 482,-265.5 339,-265.5"/>
<text text-anchor="start" x="347" y="-376.5" font-family="Helvetica,sans-Serif" font-size="10.00">Feel::ExpressionEvaluator</text>
<text text-anchor="middle" x="410.5" y="-365.5" font-family="Helvetica,sans-Serif" font-size="10.00">&lt; EltT, ExprT &gt;</text>
<polyline fill="none" stroke="black" points="339,-358.5 482,-358.5 "/>
<text text-anchor="middle" x="410.5" y="-346.5" font-family="Helvetica,sans-Serif" font-size="10.00"> </text>
<polyline fill="none" stroke="black" points="339,-339.5 482,-339.5 "/>
<text text-anchor="start" x="347" y="-327.5" font-family="Helvetica,sans-Serif" font-size="10.00">+ eval()</text>
<text text-anchor="start" x="347" y="-316.5" font-family="Helvetica,sans-Serif" font-size="10.00">+ expression()</text>
<text text-anchor="start" x="347" y="-305.5" font-family="Helvetica,sans-Serif" font-size="10.00">+ ExpressionEvaluator()</text>
<text text-anchor="start" x="347" y="-294.5" font-family="Helvetica,sans-Serif" font-size="10.00">+ init()</text>
<text text-anchor="start" x="347" y="-283.5" font-family="Helvetica,sans-Serif" font-size="10.00">+ nPoints()</text>
<text text-anchor="start" x="347" y="-272.5" font-family="Helvetica,sans-Serif" font-size="10.00">and 4 more...</text>
</a>
</g>
</g>
<!-- Node3&#45;&gt;Node2 -->
<g id="edge2" class="edge">
<title>Node3&#45;&gt;Node2</title>
<path fill="none" stroke="midnightblue" d="M447.53,-256.22C454.57,-242.94 461.7,-229.5 468,-217.64"/>
<polygon fill="none" stroke="midnightblue" points="444.27,-254.89 442.68,-265.36 450.45,-258.17 444.27,-254.89"/>
</g>
<!-- Node4 -->
<g id="node4" class="node">
<title>Node4</title>
<g id="a_node4"><a xlink:href="classFeel_1_1ExpressionEvaluatorBase.html" target="_top" xlink:title=" ">
<polygon fill="white" stroke="black" points="0,-436.5 0,-559.5 159,-559.5 159,-436.5 0,-436.5"/>
<text text-anchor="start" x="8" y="-547.5" font-family="Helvetica,sans-Serif" font-size="10.00">Feel::ExpressionEvaluator</text>
<text text-anchor="middle" x="79.5" y="-536.5" font-family="Helvetica,sans-Serif" font-size="10.00">Base&lt; EltT &gt;</text>
<polyline fill="none" stroke="black" points="0,-529.5 159,-529.5 "/>
<text text-anchor="middle" x="79.5" y="-517.5" font-family="Helvetica,sans-Serif" font-size="10.00"> </text>
<polyline fill="none" stroke="black" points="0,-510.5 159,-510.5 "/>
<text text-anchor="start" x="8" y="-498.5" font-family="Helvetica,sans-Serif" font-size="10.00">+ component()</text>
<text text-anchor="start" x="8" y="-487.5" font-family="Helvetica,sans-Serif" font-size="10.00">+ eval()</text>
<text text-anchor="start" x="8" y="-476.5" font-family="Helvetica,sans-Serif" font-size="10.00">+ ExpressionEvaluatorBase()</text>
<text text-anchor="start" x="8" y="-465.5" font-family="Helvetica,sans-Serif" font-size="10.00">+ init()</text>
<text text-anchor="start" x="8" y="-454.5" font-family="Helvetica,sans-Serif" font-size="10.00">+ nPoints()</text>
<text text-anchor="start" x="8" y="-443.5" font-family="Helvetica,sans-Serif" font-size="10.00">and 4 more...</text>
</a>
</g>
</g>
<!-- Node4&#45;&gt;Node3 -->
<g id="edge3" class="edge">
<title>Node4&#45;&gt;Node3</title>
<path fill="none" stroke="midnightblue" d="M168.19,-435.79C229.32,-402.02 291.86,-374.79 338.87,-355.67"/>
<polygon fill="none" stroke="midnightblue" points="166.21,-432.89 159.18,-440.82 169.62,-439 166.21,-432.89"/>
</g>
<!-- Node5 -->
<g id="node5" class="node">
<title>Node5</title>
<g id="a_node5"><a xlink:href="classEltT.html" target="_top" xlink:title=" ">
<polygon fill="white" stroke="black" points="24,-607.5 24,-664.5 59,-664.5 59,-607.5 24,-607.5"/>
<text text-anchor="middle" x="41.5" y="-652.5" font-family="Helvetica,sans-Serif" font-size="10.00">EltT</text>
<polyline fill="none" stroke="black" points="24,-645.5 59,-645.5 "/>
<text text-anchor="middle" x="41.5" y="-633.5" font-family="Helvetica,sans-Serif" font-size="10.00"> </text>
<polyline fill="none" stroke="black" points="24,-626.5 59,-626.5 "/>
<text text-anchor="middle" x="41.5" y="-614.5" font-family="Helvetica,sans-Serif" font-size="10.00"> </text>
</a>
</g>
</g>
<!-- Node5&#45;&gt;Node4 -->
<g id="edge4" class="edge">
<title>Node5&#45;&gt;Node4</title>
<path fill="none" stroke="#404040" d="M39.67,-607.46C39.65,-598.02 40.31,-587.45 42.5,-578 43,-575.83 43.57,-573.64 44.2,-571.45"/>
<polygon fill="none" stroke="#404040" points="44.29,-571.18 42.35,-564.23 48.01,-559.77 49.95,-566.72 44.29,-571.18"/>
<text text-anchor="middle" x="69.5" y="-581" font-family="Helvetica,sans-Serif" font-size="10.00"> #M_range</text>
</g>
<!-- Node6 -->
<g id="node6" class="node">
<title>Node6</title>
<g id="a_node6"><a xlink:href="classint.html" target="_top" xlink:title=" ">
<polygon fill="white" stroke="black" points="104,-607.5 104,-664.5 133,-664.5 133,-607.5 104,-607.5"/>
<text text-anchor="middle" x="118.5" y="-652.5" font-family="Helvetica,sans-Serif" font-size="10.00">int</text>
<polyline fill="none" stroke="black" points="104,-645.5 133,-645.5 "/>
<text text-anchor="middle" x="118.5" y="-633.5" font-family="Helvetica,sans-Serif" font-size="10.00"> </text>
<polyline fill="none" stroke="black" points="104,-626.5 133,-626.5 "/>
<text text-anchor="middle" x="118.5" y="-614.5" font-family="Helvetica,sans-Serif" font-size="10.00"> </text>
</a>
</g>
</g>
<!-- Node6&#45;&gt;Node4 -->
<g id="edge5" class="edge">
<title>Node6&#45;&gt;Node4</title>
<path fill="none" stroke="#404040" d="M110.61,-607.48C107.57,-596.9 103.95,-584.27 100.27,-571.42"/>
<polygon fill="none" stroke="#404040" points="100.19,-571.16 94.69,-566.49 96.88,-559.62 102.38,-564.29 100.19,-571.16"/>
<text text-anchor="middle" x="132" y="-581" font-family="Helvetica,sans-Serif" font-size="10.00"> #M_comp</text>
</g>
<!-- Node7 -->
<g id="node7" class="node">
<title>Node7</title>
<g id="a_node7"><a xlink:title=" ">
<polygon fill="white" stroke="#bfbfbf" points="177,-464 177,-532 324,-532 324,-464 177,-464"/>
<text text-anchor="start" x="185" y="-520" font-family="Helvetica,sans-Serif" font-size="10.00">std::shared_ptr&lt; evaluator</text>
<text text-anchor="middle" x="250.5" y="-509" font-family="Helvetica,sans-Serif" font-size="10.00">_type &gt;</text>
<polyline fill="none" stroke="#bfbfbf" points="177,-502 324,-502 "/>
<text text-anchor="middle" x="250.5" y="-490" font-family="Helvetica,sans-Serif" font-size="10.00"> </text>
<polyline fill="none" stroke="#bfbfbf" points="177,-483 324,-483 "/>
<text text-anchor="start" x="185" y="-471" font-family="Helvetica,sans-Serif" font-size="10.00">+ operator&#45;&gt;()</text>
</a>
</g>
</g>
<!-- Node7&#45;&gt;Node3 -->
<g id="edge6" class="edge">
<title>Node7&#45;&gt;Node3</title>
<path fill="none" stroke="#404040" d="M280.64,-463.88C296.29,-446.79 315.8,-425.66 333.5,-407 336.51,-403.83 339.6,-400.59 342.72,-397.32"/>
<polygon fill="none" stroke="#404040" points="342.74,-397.3 344.01,-390.21 351.06,-388.65 349.78,-395.75 342.74,-397.3"/>
<text text-anchor="middle" x="370" y="-410" font-family="Helvetica,sans-Serif" font-size="10.00"> #M_evaluator</text>
</g>
<!-- Node8 -->
<g id="node8" class="node">
<title>Node8</title>
<g id="a_node8"><a xlink:title=" ">
<polygon fill="white" stroke="#bfbfbf" points="205.5,-607.5 205.5,-664.5 295.5,-664.5 295.5,-607.5 205.5,-607.5"/>
<text text-anchor="middle" x="250.5" y="-652.5" font-family="Helvetica,sans-Serif" font-size="10.00">evaluator_type</text>
<polyline fill="none" stroke="#bfbfbf" points="205.5,-645.5 295.5,-645.5 "/>
<text text-anchor="middle" x="250.5" y="-633.5" font-family="Helvetica,sans-Serif" font-size="10.00"> </text>
<polyline fill="none" stroke="#bfbfbf" points="205.5,-626.5 295.5,-626.5 "/>
<text text-anchor="middle" x="250.5" y="-614.5" font-family="Helvetica,sans-Serif" font-size="10.00"> </text>
</a>
</g>
</g>
<!-- Node8&#45;&gt;Node7 -->
<g id="edge7" class="edge">
<title>Node8&#45;&gt;Node7</title>
<path fill="none" stroke="#404040" d="M250.5,-607.48C250.5,-589.4 250.5,-565.31 250.5,-544.43"/>
<polygon fill="none" stroke="#404040" points="250.5,-544.25 246.5,-538.25 250.5,-532.25 254.5,-538.25 250.5,-544.25"/>
<text text-anchor="middle" x="263" y="-581" font-family="Helvetica,sans-Serif" font-size="10.00"> +ptr</text>
</g>
<!-- Node9 -->
<g id="node9" class="node">
<title>Node9</title>
<g id="a_node9"><a xlink:title=" ">
<polygon fill="white" stroke="#bfbfbf" points="342,-464 342,-532 479,-532 479,-464 342,-464"/>
<text text-anchor="start" x="350" y="-520" font-family="Helvetica,sans-Serif" font-size="10.00">std::shared_ptr&lt; context</text>
<text text-anchor="middle" x="410.5" y="-509" font-family="Helvetica,sans-Serif" font-size="10.00">_type &gt;</text>
<polyline fill="none" stroke="#bfbfbf" points="342,-502 479,-502 "/>
<text text-anchor="middle" x="410.5" y="-490" font-family="Helvetica,sans-Serif" font-size="10.00"> </text>
<polyline fill="none" stroke="#bfbfbf" points="342,-483 479,-483 "/>
<text text-anchor="start" x="350" y="-471" font-family="Helvetica,sans-Serif" font-size="10.00">+ operator&#45;&gt;()</text>
</a>
</g>
</g>
<!-- Node9&#45;&gt;Node3 -->
<g id="edge8" class="edge">
<title>Node9&#45;&gt;Node3</title>
<path fill="none" stroke="#404040" d="M410.5,-463.61C410.5,-445.59 410.5,-422.61 410.5,-400.7"/>
<polygon fill="none" stroke="#404040" points="410.5,-400.68 406.5,-394.68 410.5,-388.68 414.5,-394.68 410.5,-400.68"/>
<text text-anchor="middle" x="431" y="-410" font-family="Helvetica,sans-Serif" font-size="10.00"> #M_ctx</text>
</g>
<!-- Node10 -->
<g id="node10" class="node">
<title>Node10</title>
<g id="a_node10"><a xlink:title=" ">
<polygon fill="white" stroke="#bfbfbf" points="370.5,-607.5 370.5,-664.5 450.5,-664.5 450.5,-607.5 370.5,-607.5"/>
<text text-anchor="middle" x="410.5" y="-652.5" font-family="Helvetica,sans-Serif" font-size="10.00">context_type</text>
<polyline fill="none" stroke="#bfbfbf" points="370.5,-645.5 450.5,-645.5 "/>
<text text-anchor="middle" x="410.5" y="-633.5" font-family="Helvetica,sans-Serif" font-size="10.00"> </text>
<polyline fill="none" stroke="#bfbfbf" points="370.5,-626.5 450.5,-626.5 "/>
<text text-anchor="middle" x="410.5" y="-614.5" font-family="Helvetica,sans-Serif" font-size="10.00"> </text>
</a>
</g>
</g>
<!-- Node10&#45;&gt;Node9 -->
<g id="edge9" class="edge">
<title>Node10&#45;&gt;Node9</title>
<path fill="none" stroke="#404040" d="M410.5,-607.48C410.5,-589.4 410.5,-565.31 410.5,-544.43"/>
<polygon fill="none" stroke="#404040" points="410.5,-544.25 406.5,-538.25 410.5,-532.25 414.5,-538.25 410.5,-544.25"/>
<text text-anchor="middle" x="423" y="-581" font-family="Helvetica,sans-Serif" font-size="10.00"> +ptr</text>
</g>
<!-- Node11 -->
<g id="node11" class="node">
<title>Node11</title>
<g id="a_node11"><a xlink:title=" ">
<polygon fill="white" stroke="#bfbfbf" points="497.5,-469.5 497.5,-526.5 541.5,-526.5 541.5,-469.5 497.5,-469.5"/>
<text text-anchor="middle" x="519.5" y="-514.5" font-family="Helvetica,sans-Serif" font-size="10.00">ExprT</text>
<polyline fill="none" stroke="#bfbfbf" points="497.5,-507.5 541.5,-507.5 "/>
<text text-anchor="middle" x="519.5" y="-495.5" font-family="Helvetica,sans-Serif" font-size="10.00"> </text>
<polyline fill="none" stroke="#bfbfbf" points="497.5,-488.5 541.5,-488.5 "/>
<text text-anchor="middle" x="519.5" y="-476.5" font-family="Helvetica,sans-Serif" font-size="10.00"> </text>
</a>
</g>
</g>
<!-- Node11&#45;&gt;Node3 -->
<g id="edge10" class="edge">
<title>Node11&#45;&gt;Node3</title>
<path fill="none" stroke="#404040" d="M505.94,-469.23C500.52,-458.65 494.01,-446.6 487.5,-436 479.96,-423.74 471.52,-411.03 463.05,-398.82"/>
<polygon fill="none" stroke="#404040" points="462.85,-398.53 456.13,-395.91 455.96,-388.7 462.68,-391.32 462.85,-398.53"/>
<text text-anchor="middle" x="500.5" y="-410" font-family="Helvetica,sans-Serif" font-size="10.00"> +M_expr</text>
</g>
<!-- Node12 -->
<g id="node12" class="node">
<title>Node12</title>
<g id="a_node12"><a xlink:title=" ">
<polygon fill="white" stroke="#bfbfbf" points="560,-469.5 560,-526.5 663,-526.5 663,-469.5 560,-469.5"/>
<text text-anchor="middle" x="611.5" y="-514.5" font-family="Helvetica,sans-Serif" font-size="10.00">vector&lt; double &gt;</text>
<polyline fill="none" stroke="#bfbfbf" points="560,-507.5 663,-507.5 "/>
<text text-anchor="middle" x="611.5" y="-495.5" font-family="Helvetica,sans-Serif" font-size="10.00"> </text>
<polyline fill="none" stroke="#bfbfbf" points="560,-488.5 663,-488.5 "/>
<text text-anchor="middle" x="611.5" y="-476.5" font-family="Helvetica,sans-Serif" font-size="10.00"> </text>
</a>
</g>
</g>
<!-- Node12&#45;&gt;Node3 -->
<g id="edge11" class="edge">
<title>Node12&#45;&gt;Node3</title>
<path fill="none" stroke="#404040" d="M590.59,-469.17C575.05,-449.89 552.47,-424.63 528.5,-407 515.92,-397.74 508.97,-398.18 492.98,-389.91"/>
<polygon fill="none" stroke="#404040" points="492.84,-389.83 485.65,-390.34 482.41,-383.9 489.6,-383.39 492.84,-389.83"/>
<text text-anchor="middle" x="573.5" y="-410" font-family="Helvetica,sans-Serif" font-size="10.00"> #M_weights</text>
</g>
<!-- Node13 -->
<g id="node13" class="node">
<title>Node13</title>
<g id="a_node13"><a xlink:title=" ">
<polygon fill="white" stroke="#bfbfbf" points="500,-298.5 500,-355.5 635,-355.5 635,-298.5 500,-298.5"/>
<text text-anchor="middle" x="567.5" y="-343.5" font-family="Helvetica,sans-Serif" font-size="10.00">parameterelement_type</text>
<polyline fill="none" stroke="#bfbfbf" points="500,-336.5 635,-336.5 "/>
<text text-anchor="middle" x="567.5" y="-324.5" font-family="Helvetica,sans-Serif" font-size="10.00"> </text>
<polyline fill="none" stroke="#bfbfbf" points="500,-317.5 635,-317.5 "/>
<text text-anchor="middle" x="567.5" y="-305.5" font-family="Helvetica,sans-Serif" font-size="10.00"> </text>
</a>
</g>
</g>
<!-- Node13&#45;&gt;Node2 -->
<g id="edge12" class="edge">
<title>Node13&#45;&gt;Node2</title>
<path fill="none" stroke="#404040" d="M552.64,-298.35C542.07,-278.68 527.57,-251.71 515.04,-228.38"/>
<polygon fill="none" stroke="#404040" points="514.94,-228.19 508.57,-224.8 509.25,-217.62 515.62,-221.01 514.94,-228.19"/>
<text text-anchor="middle" x="544.5" y="-239" font-family="Helvetica,sans-Serif" font-size="10.00"> #M_mu</text>
</g>
<!-- Node14 -->
<g id="node14" class="node">
<title>Node14</title>
<g id="a_node14"><a xlink:title=" ">
<polygon fill="white" stroke="#bfbfbf" points="589.5,-138.5 589.5,-217.5 773.5,-217.5 773.5,-138.5 589.5,-138.5"/>
<text text-anchor="start" x="597.5" y="-205.5" font-family="Helvetica,sans-Serif" font-size="10.00">function&lt; bool(parameterelement</text>
<text text-anchor="start" x="597.5" y="-194.5" font-family="Helvetica,sans-Serif" font-size="10.00">_type const &amp;, function_element</text>
<text text-anchor="middle" x="681.5" y="-183.5" font-family="Helvetica,sans-Serif" font-size="10.00">_type &amp;)&gt;</text>
<polyline fill="none" stroke="#bfbfbf" points="589.5,-176.5 773.5,-176.5 "/>
<text text-anchor="middle" x="681.5" y="-164.5" font-family="Helvetica,sans-Serif" font-size="10.00"> </text>
<polyline fill="none" stroke="#bfbfbf" points="589.5,-157.5 773.5,-157.5 "/>
<text text-anchor="middle" x="681.5" y="-145.5" font-family="Helvetica,sans-Serif" font-size="10.00"> </text>
</a>
</g>
</g>
<!-- Node14&#45;&gt;Node1 -->
<g id="edge13" class="edge">
<title>Node14&#45;&gt;Node1</title>
<path fill="none" stroke="#404040" d="M681.5,-138.2C681.5,-127.16 681.5,-114.9 681.5,-103.04"/>
<polygon fill="none" stroke="#404040" points="681.5,-102.88 677.5,-96.88 681.5,-90.88 685.5,-96.88 681.5,-102.88"/>
<text text-anchor="middle" x="701" y="-112" font-family="Helvetica,sans-Serif" font-size="10.00"> +M_fct</text>
</g>
<!-- Node15 -->
<g id="node15" class="node">
<title>Node15</title>
<g id="a_node15"><a xlink:title=" ">
<polygon fill="white" stroke="#bfbfbf" points="791.5,-149.5 791.5,-206.5 931.5,-206.5 931.5,-149.5 791.5,-149.5"/>
<text text-anchor="middle" x="861.5" y="-194.5" font-family="Helvetica,sans-Serif" font-size="10.00">function_element_type &amp;</text>
<polyline fill="none" stroke="#bfbfbf" points="791.5,-187.5 931.5,-187.5 "/>
<text text-anchor="middle" x="861.5" y="-175.5" font-family="Helvetica,sans-Serif" font-size="10.00"> </text>
<polyline fill="none" stroke="#bfbfbf" points="791.5,-168.5 931.5,-168.5 "/>
<text text-anchor="middle" x="861.5" y="-156.5" font-family="Helvetica,sans-Serif" font-size="10.00"> </text>
</a>
</g>
</g>
<!-- Node15&#45;&gt;Node1 -->
<g id="edge14" class="edge">
<title>Node15&#45;&gt;Node1</title>
<path fill="none" stroke="#404040" d="M823.33,-149.32C802.65,-134.33 776.43,-115.32 752.18,-97.74"/>
<polygon fill="none" stroke="#404040" points="752,-97.61 744.79,-97.33 742.28,-90.57 749.49,-90.85 752,-97.61"/>
<text text-anchor="middle" x="797.5" y="-112" font-family="Helvetica,sans-Serif" font-size="10.00"> #M_u</text>
</g>
</g>
</svg>
        <g id="navigator" transform="translate(0 0)" fill="#404254">
                <rect fill="#f2f5e9" fill-opacity="0.5" stroke="#606060" stroke-width=".5" x="0" y="0" width="60" height="60"/>
                <use id="zoomplus" xlink:href="#zoomPlus" x="17" y="9" onmousedown="handleZoom(evt,'in')"/>
                <use id="zoomminus" xlink:href="#zoomMin" x="42" y="9" onmousedown="handleZoom(evt,'out')"/>
                <use id="reset" xlink:href="#resetDef" x="30" y="36" onmousedown="handleReset()"/>
                <g id="arrowUp" xlink:href="#dirArrow" transform="translate(30 24)" onmousedown="handlePan(0,-1)">
                  <use xlink:href="#rim" fill="#404040">
                        <set attributeName="fill" to="#808080" begin="arrowUp.mouseover" end="arrowUp.mouseout"/>
                  </use>
                  <path fill="none" stroke="white" stroke-width="1.5" d="M0,-3.0v7 M-2.5,-0.5L0,-3.0L2.5,-0.5"/>
                </g>
                <g id="arrowRight" xlink:href="#dirArrow" transform="rotate(90) translate(36 -43)" onmousedown="handlePan(1,0)">
                  <use xlink:href="#rim" fill="#404040">
                        <set attributeName="fill" to="#808080" begin="arrowRight.mouseover" end="arrowRight.mouseout"/>
                  </use>
                  <path fill="none" stroke="white" stroke-width="1.5" d="M0,-3.0v7 M-2.5,-0.5L0,-3.0L2.5,-0.5"/>
                </g>
                <g id="arrowDown" xlink:href="#dirArrow" transform="rotate(180) translate(-30 -48)" onmousedown="handlePan(0,1)">
                  <use xlink:href="#rim" fill="#404040">
                        <set attributeName="fill" to="#808080" begin="arrowDown.mouseover" end="arrowDown.mouseout"/>
                  </use>
                  <path fill="none" stroke="white" stroke-width="1.5" d="M0,-3.0v7 M-2.5,-0.5L0,-3.0L2.5,-0.5"/>
                </g>
                <g id="arrowLeft" xlink:href="#dirArrow" transform="rotate(270) translate(-36 17)" onmousedown="handlePan(-1,0)">
                  <use xlink:href="#rim" fill="#404040">
                        <set attributeName="fill" to="#808080" begin="arrowLeft.mouseover" end="arrowLeft.mouseout"/>
                  </use>
                  <path fill="none" stroke="white" stroke-width="1.5" d="M0,-3.0v7 M-2.5,-0.5L0,-3.0L2.5,-0.5"/>
                </g>
        </g>
        <svg viewBox="0 0 15 15" width="100%" height="30px" preserveAspectRatio="xMaxYMin meet">
         <g id="arrow_out" transform="scale(0.3 0.3)">
          <a xlink:href="classFeel_1_1ExpressionEvaluatorNonLinear__coll__graph_org.svg" target="_base">
           <rect id="button" ry="5" rx="5" y="6" x="6" height="38" width="38"
                fill="#f2f5e9" fill-opacity="0.5" stroke="#606060" stroke-width="1.0"/>
           <path id="arrow"
             d="M 11.500037,31.436501 C 11.940474,20.09759 22.043105,11.32322 32.158766,21.979434 L 37.068811,17.246167 C 37.068811,17.246167 37.088388,32 37.088388,32 L 22.160133,31.978069 C 22.160133,31.978069 26.997745,27.140456 26.997745,27.140456 C 18.528582,18.264221 13.291696,25.230495 11.500037,31.436501 z"
             style="fill:#404040;"/>
          </a>
         </g>
        </svg>
</svg>
