<?xml version="1.0" encoding="UTF-8" standalone="no"?>
<!DOCTYPE svg PUBLIC "-//W3C//DTD SVG 1.1//EN"
 "http://www.w3.org/Graphics/SVG/1.1/DTD/svg11.dtd">
<!-- Generated by graphviz version 2.43.0 (0)
 -->
<!-- Title: Feel::FeelModels::SolidMechanics&lt; ConvexType, BasisDisplacementType &gt; Pages: 1 -->
<svg width="546pt" height="1174pt"
 viewBox="0.00 0.00 546.00 1174.00" xmlns="http://www.w3.org/2000/svg" xmlns:xlink="http://www.w3.org/1999/xlink">
<g id="graph0" class="graph" transform="scale(1 1) rotate(0) translate(4 1170)">
<title>Feel::FeelModels::SolidMechanics&lt; ConvexType, BasisDisplacementType &gt;</title>
<polygon fill="white" stroke="transparent" points="-4,4 -4,-1170 542,-1170 542,4 -4,4"/>
<!-- Node1 -->
<g id="node1" class="node">
<title>Node1</title>
<g id="a_node1"><a xlink:title="Solid Mechanics Toolbox.">
<polygon fill="#bfbfbf" stroke="black" points="227.5,-0.5 227.5,-189.5 448.5,-189.5 448.5,-0.5 227.5,-0.5"/>
<text text-anchor="start" x="235.5" y="-177.5" font-family="Helvetica,sans-Serif" font-size="10.00">Feel::FeelModels::SolidMechanics</text>
<text text-anchor="middle" x="338" y="-166.5" font-family="Helvetica,sans-Serif" font-size="10.00">&lt; ConvexType, BasisDisplacementType &gt;</text>
<polyline fill="none" stroke="black" points="227.5,-159.5 448.5,-159.5 "/>
<text text-anchor="start" x="235.5" y="-147.5" font-family="Helvetica,sans-Serif" font-size="10.00">+ nDim</text>
<text text-anchor="start" x="235.5" y="-136.5" font-family="Helvetica,sans-Serif" font-size="10.00">+ nOrder</text>
<text text-anchor="start" x="235.5" y="-125.5" font-family="Helvetica,sans-Serif" font-size="10.00">+ nOrderDisplacement</text>
<text text-anchor="start" x="235.5" y="-114.5" font-family="Helvetica,sans-Serif" font-size="10.00">+ nOrderGeo</text>
<text text-anchor="start" x="235.5" y="-103.5" font-family="Helvetica,sans-Serif" font-size="10.00">+ nOrderPressure</text>
<text text-anchor="start" x="235.5" y="-92.5" font-family="Helvetica,sans-Serif" font-size="10.00">+ nRealDim</text>
<polyline fill="none" stroke="black" points="227.5,-85.5 448.5,-85.5 "/>
<text text-anchor="start" x="235.5" y="-73.5" font-family="Helvetica,sans-Serif" font-size="10.00">+ blockPattern()</text>
<text text-anchor="start" x="235.5" y="-62.5" font-family="Helvetica,sans-Serif" font-size="10.00">+ buildBlockMatrixGraph()</text>
<text text-anchor="start" x="235.5" y="-51.5" font-family="Helvetica,sans-Serif" font-size="10.00">+ computeExtremumValue()</text>
<text text-anchor="start" x="235.5" y="-40.5" font-family="Helvetica,sans-Serif" font-size="10.00">+ computeVolumeVariation()</text>
<text text-anchor="start" x="235.5" y="-29.5" font-family="Helvetica,sans-Serif" font-size="10.00">+ couplingFSIcondition()</text>
<text text-anchor="start" x="235.5" y="-18.5" font-family="Helvetica,sans-Serif" font-size="10.00">and 108 more...</text>
<text text-anchor="start" x="235.5" y="-7.5" font-family="Helvetica,sans-Serif" font-size="10.00">+ New()</text>
</a>
</g>
</g>
<!-- Node2 -->
<g id="node2" class="node">
<title>Node2</title>
<g id="a_node2"><a xlink:href="classFeel_1_1FeelModels_1_1ModelNumerical.html" target="_top" xlink:title="Handles some numerical model aspects: timestepping, mesh and properties.">
<polygon fill="white" stroke="black" points="135,-226.5 135,-437.5 337,-437.5 337,-226.5 135,-226.5"/>
<text text-anchor="middle" x="236" y="-425.5" font-family="Helvetica,sans-Serif" font-size="10.00">Feel::FeelModels::ModelNumerical</text>
<polyline fill="none" stroke="black" points="135,-418.5 337,-418.5 "/>
<text text-anchor="middle" x="236" y="-406.5" font-family="Helvetica,sans-Serif" font-size="10.00"> </text>
<polyline fill="none" stroke="black" points="135,-399.5 337,-399.5 "/>
<text text-anchor="start" x="143" y="-387.5" font-family="Helvetica,sans-Serif" font-size="10.00">+ checkResults()</text>
<text text-anchor="start" x="143" y="-376.5" font-family="Helvetica,sans-Serif" font-size="10.00">+ checkResults()</text>
<text text-anchor="start" x="143" y="-365.5" font-family="Helvetica,sans-Serif" font-size="10.00">+ createBdf()</text>
<text text-anchor="start" x="143" y="-354.5" font-family="Helvetica,sans-Serif" font-size="10.00">+ currentTime()</text>
<text text-anchor="start" x="143" y="-343.5" font-family="Helvetica,sans-Serif" font-size="10.00">+ doRestart()</text>
<text text-anchor="start" x="143" y="-332.5" font-family="Helvetica,sans-Serif" font-size="10.00">and 53 more...</text>
<text text-anchor="start" x="143" y="-321.5" font-family="Helvetica,sans-Serif" font-size="10.00"># addPostProcessExportsAll</text>
<text text-anchor="start" x="143" y="-310.5" font-family="Helvetica,sans-Serif" font-size="10.00">FieldsAvailable()</text>
<text text-anchor="start" x="143" y="-299.5" font-family="Helvetica,sans-Serif" font-size="10.00"># addPostProcessExportsAll</text>
<text text-anchor="start" x="143" y="-288.5" font-family="Helvetica,sans-Serif" font-size="10.00">FieldsAvailable()</text>
<text text-anchor="start" x="143" y="-277.5" font-family="Helvetica,sans-Serif" font-size="10.00"># addPostProcessMeasuresQuantities</text>
<text text-anchor="start" x="143" y="-266.5" font-family="Helvetica,sans-Serif" font-size="10.00">AllNamesAvailable()</text>
<text text-anchor="start" x="143" y="-255.5" font-family="Helvetica,sans-Serif" font-size="10.00"># initPostProcess()</text>
<text text-anchor="start" x="143" y="-244.5" font-family="Helvetica,sans-Serif" font-size="10.00"># initPostProcessMeshes()</text>
<text text-anchor="start" x="143" y="-233.5" font-family="Helvetica,sans-Serif" font-size="10.00">and 10 more...</text>
</a>
</g>
</g>
<!-- Node2&#45;&gt;Node1 -->
<g id="edge1" class="edge">
<title>Node2&#45;&gt;Node1</title>
<path fill="none" stroke="midnightblue" d="M285.56,-216.82C289.48,-207.78 293.42,-198.71 297.27,-189.84"/>
<polygon fill="none" stroke="midnightblue" points="282.25,-215.65 281.48,-226.21 288.67,-218.44 282.25,-215.65"/>
</g>
<!-- Node3 -->
<g id="node3" class="node">
<title>Node3</title>
<g id="a_node3"><a xlink:href="classFeel_1_1FeelModels_1_1ModelBase.html" target="_top" xlink:title="Model base class.">
<polygon fill="white" stroke="black" points="81,-634.5 81,-746.5 273,-746.5 273,-634.5 81,-634.5"/>
<text text-anchor="middle" x="177" y="-734.5" font-family="Helvetica,sans-Serif" font-size="10.00">Feel::FeelModels::ModelBase</text>
<polyline fill="none" stroke="black" points="81,-727.5 273,-727.5 "/>
<text text-anchor="middle" x="177" y="-715.5" font-family="Helvetica,sans-Serif" font-size="10.00"> </text>
<polyline fill="none" stroke="black" points="81,-708.5 273,-708.5 "/>
<text text-anchor="start" x="89" y="-696.5" font-family="Helvetica,sans-Serif" font-size="10.00">+ addParameterInModelProperties()</text>
<text text-anchor="start" x="89" y="-685.5" font-family="Helvetica,sans-Serif" font-size="10.00">+ addTimerTool()</text>
<text text-anchor="start" x="89" y="-674.5" font-family="Helvetica,sans-Serif" font-size="10.00">+ clovm()</text>
<text text-anchor="start" x="89" y="-663.5" font-family="Helvetica,sans-Serif" font-size="10.00">+ createWorldsComm()</text>
<text text-anchor="start" x="89" y="-652.5" font-family="Helvetica,sans-Serif" font-size="10.00">+ hasModelProperties()</text>
<text text-anchor="start" x="89" y="-641.5" font-family="Helvetica,sans-Serif" font-size="10.00">and 53 more...</text>
</a>
</g>
</g>
<!-- Node3&#45;&gt;Node2 -->
<g id="edge2" class="edge">
<title>Node3&#45;&gt;Node2</title>
<path fill="none" stroke="midnightblue" d="M144.82,-624.67C141.61,-615.89 138.85,-606.85 137,-598 125.72,-544.05 120.39,-526.55 137,-474 140.92,-461.59 146.37,-449.33 152.71,-437.53"/>
<polygon fill="none" stroke="midnightblue" points="141.59,-626.03 148.47,-634.09 148.12,-623.5 141.59,-626.03"/>
</g>
<!-- Node7 -->
<g id="node7" class="node">
<title>Node7</title>
<g id="a_node7"><a xlink:href="classFeel_1_1FeelModels_1_1ModelAlgebraic.html" target="_top" xlink:title=" ">
<polygon fill="white" stroke="black" points="146,-480 146,-592 326,-592 326,-480 146,-480"/>
<text text-anchor="middle" x="236" y="-580" font-family="Helvetica,sans-Serif" font-size="10.00">Feel::FeelModels::ModelAlgebraic</text>
<polyline fill="none" stroke="black" points="146,-573 326,-573 "/>
<text text-anchor="middle" x="236" y="-561" font-family="Helvetica,sans-Serif" font-size="10.00"> </text>
<polyline fill="none" stroke="black" points="146,-554 326,-554 "/>
<text text-anchor="start" x="154" y="-542" font-family="Helvetica,sans-Serif" font-size="10.00">+ algebraicBackend()</text>
<text text-anchor="start" x="154" y="-531" font-family="Helvetica,sans-Serif" font-size="10.00">+ algebraicBlockVectorSolution()</text>
<text text-anchor="start" x="154" y="-520" font-family="Helvetica,sans-Serif" font-size="10.00">+ algebraicFactory()</text>
<text text-anchor="start" x="154" y="-509" font-family="Helvetica,sans-Serif" font-size="10.00">+ backend()</text>
<text text-anchor="start" x="154" y="-498" font-family="Helvetica,sans-Serif" font-size="10.00">+ blockPattern()</text>
<text text-anchor="start" x="154" y="-487" font-family="Helvetica,sans-Serif" font-size="10.00">and 75 more...</text>
</a>
</g>
</g>
<!-- Node3&#45;&gt;Node7 -->
<g id="edge7" class="edge">
<title>Node3&#45;&gt;Node7</title>
<path fill="none" stroke="midnightblue" d="M201.96,-624.98C206.18,-614.08 210.52,-602.86 214.63,-592.23"/>
<polygon fill="none" stroke="midnightblue" points="198.64,-623.85 198.3,-634.44 205.17,-626.38 198.64,-623.85"/>
</g>
<!-- Node4 -->
<g id="node4" class="node">
<title>Node4</title>
<g id="a_node4"><a xlink:href="classFeel_1_1JournalWatcher.html" target="_top" xlink:title=" ">
<polygon fill="white" stroke="black" points="0,-783.5 0,-1071.5 176,-1071.5 176,-783.5 0,-783.5"/>
<text text-anchor="middle" x="88" y="-1059.5" font-family="Helvetica,sans-Serif" font-size="10.00">Feel::JournalWatcher</text>
<polyline fill="none" stroke="black" points="0,-1052.5 176,-1052.5 "/>
<text text-anchor="middle" x="88" y="-1040.5" font-family="Helvetica,sans-Serif" font-size="10.00"> </text>
<polyline fill="none" stroke="black" points="0,-1033.5 176,-1033.5 "/>
<text text-anchor="start" x="8" y="-1021.5" font-family="Helvetica,sans-Serif" font-size="10.00">* JournalWatcher()</text>
<text text-anchor="start" x="8" y="-1010.5" font-family="Helvetica,sans-Serif" font-size="10.00">* JournalWatcher()</text>
<text text-anchor="start" x="8" y="-999.5" font-family="Helvetica,sans-Serif" font-size="10.00">* JournalWatcher()</text>
<text text-anchor="start" x="8" y="-988.5" font-family="Helvetica,sans-Serif" font-size="10.00">* JournalWatcher()</text>
<text text-anchor="start" x="8" y="-977.5" font-family="Helvetica,sans-Serif" font-size="10.00">* ~JournalWatcher()</text>
<text text-anchor="start" x="8" y="-966.5" font-family="Helvetica,sans-Serif" font-size="10.00">* journalIsConnected()</text>
<text text-anchor="start" x="8" y="-955.5" font-family="Helvetica,sans-Serif" font-size="10.00">* journalWatcherInstanceName()</text>
<text text-anchor="start" x="8" y="-944.5" font-family="Helvetica,sans-Serif" font-size="10.00">* journalSection()</text>
<text text-anchor="start" x="8" y="-933.5" font-family="Helvetica,sans-Serif" font-size="10.00">* informationObject()</text>
<text text-anchor="start" x="8" y="-922.5" font-family="Helvetica,sans-Serif" font-size="10.00">* journalConnect()</text>
<text text-anchor="start" x="8" y="-911.5" font-family="Helvetica,sans-Serif" font-size="10.00">* journalDisconnect()</text>
<text text-anchor="start" x="8" y="-900.5" font-family="Helvetica,sans-Serif" font-size="10.00">* updateInformationObject()</text>
<text text-anchor="start" x="8" y="-889.5" font-family="Helvetica,sans-Serif" font-size="10.00">* setInformationObject()</text>
<text text-anchor="start" x="8" y="-878.5" font-family="Helvetica,sans-Serif" font-size="10.00">* putInformationObject()</text>
<text text-anchor="start" x="8" y="-867.5" font-family="Helvetica,sans-Serif" font-size="10.00">and 4 more...</text>
<text text-anchor="start" x="8" y="-856.5" font-family="Helvetica,sans-Serif" font-size="10.00">* M_journal_is_connected</text>
<text text-anchor="start" x="8" y="-845.5" font-family="Helvetica,sans-Serif" font-size="10.00">* M_category</text>
<text text-anchor="start" x="8" y="-834.5" font-family="Helvetica,sans-Serif" font-size="10.00">* M_name</text>
<text text-anchor="start" x="8" y="-823.5" font-family="Helvetica,sans-Serif" font-size="10.00">* M_function_updateInformation</text>
<text text-anchor="start" x="8" y="-812.5" font-family="Helvetica,sans-Serif" font-size="10.00">Object</text>
<text text-anchor="start" x="8" y="-801.5" font-family="Helvetica,sans-Serif" font-size="10.00">* M_informationObject</text>
<text text-anchor="start" x="8" y="-790.5" font-family="Helvetica,sans-Serif" font-size="10.00">* S_counterObjectByCategory</text>
</a>
</g>
</g>
<!-- Node4&#45;&gt;Node3 -->
<g id="edge3" class="edge">
<title>Node4&#45;&gt;Node3</title>
<path fill="none" stroke="midnightblue" d="M145.85,-773.76C149.45,-764.25 152.92,-755.08 156.16,-746.53"/>
<polygon fill="none" stroke="midnightblue" points="142.48,-772.78 142.21,-783.37 149.02,-775.25 142.48,-772.78"/>
</g>
<!-- Node5 -->
<g id="node5" class="node">
<title>Node5</title>
<g id="a_node5"><a xlink:title=" ">
<polygon fill="white" stroke="#bfbfbf" points="34.5,-1108.5 34.5,-1165.5 141.5,-1165.5 141.5,-1108.5 34.5,-1108.5"/>
<text text-anchor="middle" x="88" y="-1153.5" font-family="Helvetica,sans-Serif" font-size="10.00">Event::SlotHandler</text>
<polyline fill="none" stroke="#bfbfbf" points="34.5,-1146.5 141.5,-1146.5 "/>
<text text-anchor="middle" x="88" y="-1134.5" font-family="Helvetica,sans-Serif" font-size="10.00"> </text>
<polyline fill="none" stroke="#bfbfbf" points="34.5,-1127.5 141.5,-1127.5 "/>
<text text-anchor="middle" x="88" y="-1115.5" font-family="Helvetica,sans-Serif" font-size="10.00"> </text>
</a>
</g>
</g>
<!-- Node5&#45;&gt;Node4 -->
<g id="edge4" class="edge">
<title>Node5&#45;&gt;Node4</title>
<path fill="none" stroke="midnightblue" d="M88,-1098.38C88,-1090.29 88,-1081.28 88,-1071.76"/>
<polygon fill="none" stroke="midnightblue" points="84.5,-1098.45 88,-1108.45 91.5,-1098.45 84.5,-1098.45"/>
</g>
<!-- Node6 -->
<g id="node6" class="node">
<title>Node6</title>
<g id="a_node6"><a xlink:title=" ">
<polygon fill="white" stroke="#bfbfbf" points="194.5,-893.5 194.5,-961.5 339.5,-961.5 339.5,-893.5 194.5,-893.5"/>
<text text-anchor="start" x="202.5" y="-949.5" font-family="Helvetica,sans-Serif" font-size="10.00">std::enable_shared</text>
<text text-anchor="middle" x="267" y="-938.5" font-family="Helvetica,sans-Serif" font-size="10.00">_from_this&lt; ModelBase &gt;</text>
<polyline fill="none" stroke="#bfbfbf" points="194.5,-931.5 339.5,-931.5 "/>
<text text-anchor="middle" x="267" y="-919.5" font-family="Helvetica,sans-Serif" font-size="10.00"> </text>
<polyline fill="none" stroke="#bfbfbf" points="194.5,-912.5 339.5,-912.5 "/>
<text text-anchor="middle" x="267" y="-900.5" font-family="Helvetica,sans-Serif" font-size="10.00"> </text>
</a>
</g>
</g>
<!-- Node6&#45;&gt;Node3 -->
<g id="edge5" class="edge">
<title>Node6&#45;&gt;Node3</title>
<path fill="none" stroke="midnightblue" d="M250.71,-883.97C235.98,-845.5 214.2,-788.63 198.13,-746.68"/>
<polygon fill="none" stroke="midnightblue" points="247.45,-885.24 254.3,-893.33 253.99,-882.74 247.45,-885.24"/>
</g>
<!-- Node7&#45;&gt;Node2 -->
<g id="edge6" class="edge">
<title>Node7&#45;&gt;Node2</title>
<path fill="none" stroke="midnightblue" d="M236,-469.77C236,-459.52 236,-448.71 236,-437.85"/>
<polygon fill="none" stroke="midnightblue" points="232.5,-469.8 236,-479.8 239.5,-469.8 232.5,-469.8"/>
</g>
<!-- Node8 -->
<g id="node8" class="node">
<title>Node8</title>
<g id="a_node8"><a xlink:href="classFeel_1_1FeelModels_1_1ModelMeshes.html" target="_top" xlink:title=" ">
<polygon fill="white" stroke="black" points="344,-474.5 344,-597.5 538,-597.5 538,-474.5 344,-474.5"/>
<text text-anchor="start" x="352" y="-585.5" font-family="Helvetica,sans-Serif" font-size="10.00">Feel::FeelModels::ModelMeshes</text>
<text text-anchor="middle" x="441" y="-574.5" font-family="Helvetica,sans-Serif" font-size="10.00">&lt; ModelAlgebraic::index_type &gt;</text>
<polyline fill="none" stroke="black" points="344,-567.5 538,-567.5 "/>
<text text-anchor="middle" x="441" y="-555.5" font-family="Helvetica,sans-Serif" font-size="10.00"> </text>
<polyline fill="none" stroke="black" points="344,-548.5 538,-548.5 "/>
<text text-anchor="start" x="352" y="-536.5" font-family="Helvetica,sans-Serif" font-size="10.00">+ applyRemesh()</text>
<text text-anchor="start" x="352" y="-525.5" font-family="Helvetica,sans-Serif" font-size="10.00">+ hasMeshMotion()</text>
<text text-anchor="start" x="352" y="-514.5" font-family="Helvetica,sans-Serif" font-size="10.00">+ hasModelMesh()</text>
<text text-anchor="start" x="352" y="-503.5" font-family="Helvetica,sans-Serif" font-size="10.00">+ initMeasurePointsEvaluationTool()</text>
<text text-anchor="start" x="352" y="-492.5" font-family="Helvetica,sans-Serif" font-size="10.00">+ measurePointsEvaluationTool()</text>
<text text-anchor="start" x="352" y="-481.5" font-family="Helvetica,sans-Serif" font-size="10.00">and 23 more...</text>
</a>
</g>
</g>
<!-- Node8&#45;&gt;Node2 -->
<g id="edge8" class="edge">
<title>Node8&#45;&gt;Node2</title>
<path fill="none" stroke="midnightblue" d="M372.21,-467.22C360.98,-456.15 349.14,-444.49 337.33,-432.85"/>
<polygon fill="none" stroke="midnightblue" points="369.91,-469.87 379.49,-474.39 374.83,-464.88 369.91,-469.87"/>
</g>
<!-- Node9 -->
<g id="node9" class="node">
<title>Node9</title>
<g id="a_node9"><a xlink:href="classFeel_1_1FeelModels_1_1ModelPhysics.html" target="_top" xlink:title=" ">
<polygon fill="white" stroke="black" points="355.5,-248.5 355.5,-415.5 526.5,-415.5 526.5,-248.5 355.5,-248.5"/>
<text text-anchor="start" x="363.5" y="-403.5" font-family="Helvetica,sans-Serif" font-size="10.00">Feel::FeelModels::ModelPhysics</text>
<text text-anchor="middle" x="441" y="-392.5" font-family="Helvetica,sans-Serif" font-size="10.00">&lt; ConvexType::nDim &gt;</text>
<polyline fill="none" stroke="black" points="355.5,-385.5 526.5,-385.5 "/>
<text text-anchor="start" x="363.5" y="-373.5" font-family="Helvetica,sans-Serif" font-size="10.00">+ nDim</text>
<text text-anchor="start" x="363.5" y="-362.5" font-family="Helvetica,sans-Serif" font-size="10.00"># M_physicModeling</text>
<text text-anchor="start" x="363.5" y="-351.5" font-family="Helvetica,sans-Serif" font-size="10.00"># M_physics</text>
<polyline fill="none" stroke="black" points="355.5,-344.5 526.5,-344.5 "/>
<text text-anchor="start" x="363.5" y="-332.5" font-family="Helvetica,sans-Serif" font-size="10.00">+ addPhysics()</text>
<text text-anchor="start" x="363.5" y="-321.5" font-family="Helvetica,sans-Serif" font-size="10.00">+ hasPhysic()</text>
<text text-anchor="start" x="363.5" y="-310.5" font-family="Helvetica,sans-Serif" font-size="10.00">+ initPhysics()</text>
<text text-anchor="start" x="363.5" y="-299.5" font-family="Helvetica,sans-Serif" font-size="10.00">+ initPhysics()</text>
<text text-anchor="start" x="363.5" y="-288.5" font-family="Helvetica,sans-Serif" font-size="10.00">+ ModelPhysics()</text>
<text text-anchor="start" x="363.5" y="-277.5" font-family="Helvetica,sans-Serif" font-size="10.00">and 18 more...</text>
<text text-anchor="start" x="363.5" y="-266.5" font-family="Helvetica,sans-Serif" font-size="10.00"># initPhysics()</text>
<text text-anchor="start" x="363.5" y="-255.5" font-family="Helvetica,sans-Serif" font-size="10.00"># updatePhysics()</text>
</a>
</g>
</g>
<!-- Node9&#45;&gt;Node1 -->
<g id="edge9" class="edge">
<title>Node9&#45;&gt;Node1</title>
<path fill="none" stroke="midnightblue" d="M400.68,-239.01C393.56,-222.77 386.15,-205.85 379.01,-189.56"/>
<polygon fill="none" stroke="midnightblue" points="397.61,-240.72 404.83,-248.48 404.02,-237.91 397.61,-240.72"/>
</g>
</g>
</svg>
