<?xml version="1.0" encoding="UTF-8" standalone="no"?>
<!DOCTYPE svg PUBLIC "-//W3C//DTD SVG 1.1//EN"
 "http://www.w3.org/Graphics/SVG/1.1/DTD/svg11.dtd">
<!-- Generated by graphviz version 2.43.0 (0)
 -->
<!-- Title: Feel::FeelModels::HeatFluid&lt; HeatType, FluidType &gt; Pages: 1 -->
<!--zoomable 1119 -->
<svg id="main" version="1.1" xmlns="http://www.w3.org/2000/svg" xmlns:xlink="http://www.w3.org/1999/xlink" xml:space="preserve" onload="init(evt)">
<style type="text/css"><![CDATA[
.edge:hover path { stroke: red; }
.edge:hover polygon { stroke: red; fill: red; }
]]></style>
<script type="text/javascript"><![CDATA[
var edges = document.getElementsByTagName('g');
if (edges && edges.length) {
  for (var i=0;i<edges.length;i++) {
    if (edges[i].id.substr(0,4)=='edge') {
      edges[i].setAttribute('class','edge');
    }
  }
}
]]></script>
        <defs>
                <circle id="rim" cx="0" cy="0" r="7"/>
                <circle id="rim2" cx="0" cy="0" r="3.5"/>
                <g id="zoomPlus">
                        <use xlink:href="#rim" fill="#404040">
                                <set attributeName="fill" to="#808080" begin="zoomplus.mouseover" end="zoomplus.mouseout"/>
                        </use>
                        <path d="M-4,0h8M0,-4v8" fill="none" stroke="white" stroke-width="1.5" pointer-events="none"/>
                </g>
                <g id="zoomMin">
                        <use xlink:href="#rim" fill="#404040">
                                <set attributeName="fill" to="#808080" begin="zoomminus.mouseover" end="zoomminus.mouseout"/>
                        </use>
                        <path d="M-4,0h8" fill="none" stroke="white" stroke-width="1.5" pointer-events="none"/>
                </g>
                <g id="dirArrow">
                        <path fill="none" stroke="white" stroke-width="1.5" d="M0,-3.0v7 M-2.5,-0.5L0,-3.0L2.5,-0.5"/>
                </g>
               <g id="resetDef">
                       <use xlink:href="#rim2" fill="#404040">
                               <set attributeName="fill" to="#808080" begin="reset.mouseover" end="reset.mouseout"/>
                       </use>
               </g>
        </defs>

<script type="text/javascript">
var viewWidth = 538;
var viewHeight = 1119;
var sectionId = 'dynsection-0';
</script>
<script xlink:href="svgpan.js"/>
<svg id="graph" class="graph">
<g id="viewport">
<title>Feel::FeelModels::HeatFluid&lt; HeatType, FluidType &gt;</title>
<polygon fill="white" stroke="transparent" points="-4,4 -4,-1115 534,-1115 534,4 -4,4"/>
<!-- Node1 -->
<g id="node1" class="node">
<title>Node1</title>
<g id="a_node1"><a xlink:title="class for conjuguate heat transfer toolbox">
<polygon fill="#bfbfbf" stroke="black" points="249.5,-0.5 249.5,-123.5 401.5,-123.5 401.5,-0.5 249.5,-0.5"/>
<text text-anchor="start" x="257.5" y="-111.5" font-family="Helvetica,sans-Serif" font-size="10.00">Feel::FeelModels::HeatFluid</text>
<text text-anchor="middle" x="325.5" y="-100.5" font-family="Helvetica,sans-Serif" font-size="10.00">&lt; HeatType, FluidType &gt;</text>
<polyline fill="none" stroke="black" points="249.5,-93.5 401.5,-93.5 "/>
<text text-anchor="start" x="257.5" y="-81.5" font-family="Helvetica,sans-Serif" font-size="10.00">+ nDim</text>
<polyline fill="none" stroke="black" points="249.5,-74.5 401.5,-74.5 "/>
<text text-anchor="start" x="257.5" y="-62.5" font-family="Helvetica,sans-Serif" font-size="10.00">+ buildBlockMatrixGraph()</text>
<text text-anchor="start" x="257.5" y="-51.5" font-family="Helvetica,sans-Serif" font-size="10.00">+ checkResults()</text>
<text text-anchor="start" x="257.5" y="-40.5" font-family="Helvetica,sans-Serif" font-size="10.00">+ exportResults()</text>
<text text-anchor="start" x="257.5" y="-29.5" font-family="Helvetica,sans-Serif" font-size="10.00">+ exportResults()</text>
<text text-anchor="start" x="257.5" y="-18.5" font-family="Helvetica,sans-Serif" font-size="10.00">+ fluidModel()</text>
<text text-anchor="start" x="257.5" y="-7.5" font-family="Helvetica,sans-Serif" font-size="10.00">and 50 more...</text>
</a>
</g>
</g>
<!-- Node2 -->
<g id="node2" class="node">
<title>Node2</title>
<g id="a_node2"><a xlink:href="classFeel_1_1FeelModels_1_1ModelNumerical.html" target="_top" xlink:title="Handles some numerical model aspects: timestepping, mesh and properties.">
<polygon fill="white" stroke="black" points="118.5,-160.5 118.5,-371.5 320.5,-371.5 320.5,-160.5 118.5,-160.5"/>
<text text-anchor="middle" x="219.5" y="-359.5" font-family="Helvetica,sans-Serif" font-size="10.00">Feel::FeelModels::ModelNumerical</text>
<polyline fill="none" stroke="black" points="118.5,-352.5 320.5,-352.5 "/>
<text text-anchor="middle" x="219.5" y="-340.5" font-family="Helvetica,sans-Serif" font-size="10.00"> </text>
<polyline fill="none" stroke="black" points="118.5,-333.5 320.5,-333.5 "/>
<text text-anchor="start" x="126.5" y="-321.5" font-family="Helvetica,sans-Serif" font-size="10.00">+ checkResults()</text>
<text text-anchor="start" x="126.5" y="-310.5" font-family="Helvetica,sans-Serif" font-size="10.00">+ checkResults()</text>
<text text-anchor="start" x="126.5" y="-299.5" font-family="Helvetica,sans-Serif" font-size="10.00">+ createBdf()</text>
<text text-anchor="start" x="126.5" y="-288.5" font-family="Helvetica,sans-Serif" font-size="10.00">+ currentTime()</text>
<text text-anchor="start" x="126.5" y="-277.5" font-family="Helvetica,sans-Serif" font-size="10.00">+ doRestart()</text>
<text text-anchor="start" x="126.5" y="-266.5" font-family="Helvetica,sans-Serif" font-size="10.00">and 53 more...</text>
<text text-anchor="start" x="126.5" y="-255.5" font-family="Helvetica,sans-Serif" font-size="10.00"># addPostProcessExportsAll</text>
<text text-anchor="start" x="126.5" y="-244.5" font-family="Helvetica,sans-Serif" font-size="10.00">FieldsAvailable()</text>
<text text-anchor="start" x="126.5" y="-233.5" font-family="Helvetica,sans-Serif" font-size="10.00"># addPostProcessExportsAll</text>
<text text-anchor="start" x="126.5" y="-222.5" font-family="Helvetica,sans-Serif" font-size="10.00">FieldsAvailable()</text>
<text text-anchor="start" x="126.5" y="-211.5" font-family="Helvetica,sans-Serif" font-size="10.00"># addPostProcessMeasuresQuantities</text>
<text text-anchor="start" x="126.5" y="-200.5" font-family="Helvetica,sans-Serif" font-size="10.00">AllNamesAvailable()</text>
<text text-anchor="start" x="126.5" y="-189.5" font-family="Helvetica,sans-Serif" font-size="10.00"># initPostProcess()</text>
<text text-anchor="start" x="126.5" y="-178.5" font-family="Helvetica,sans-Serif" font-size="10.00"># initPostProcessMeshes()</text>
<text text-anchor="start" x="126.5" y="-167.5" font-family="Helvetica,sans-Serif" font-size="10.00">and 10 more...</text>
</a>
</g>
</g>
<!-- Node2&#45;&gt;Node1 -->
<g id="edge1" class="edge">
<title>Node2&#45;&gt;Node1</title>
<path fill="none" stroke="midnightblue" d="M279.16,-151.31C284.14,-141.82 289.04,-132.47 293.69,-123.63"/>
<polygon fill="none" stroke="midnightblue" points="275.91,-149.97 274.36,-160.45 282.11,-153.22 275.91,-149.97"/>
</g>
<!-- Node3 -->
<g id="node3" class="node">
<title>Node3</title>
<g id="a_node3"><a xlink:href="classFeel_1_1FeelModels_1_1ModelBase.html" target="_top" xlink:title="Model base class.">
<polygon fill="white" stroke="black" points="193,-579.5 193,-691.5 386,-691.5 386,-579.5 193,-579.5"/>
<text text-anchor="middle" x="289.5" y="-679.5" font-family="Helvetica,sans-Serif" font-size="10.00">Feel::FeelModels::ModelBase</text>
<polyline fill="none" stroke="black" points="193,-672.5 386,-672.5 "/>
<text text-anchor="middle" x="289.5" y="-660.5" font-family="Helvetica,sans-Serif" font-size="10.00"> </text>
<polyline fill="none" stroke="black" points="193,-653.5 386,-653.5 "/>
<text text-anchor="start" x="201" y="-641.5" font-family="Helvetica,sans-Serif" font-size="10.00">+ addParameterInModelProperties()</text>
<text text-anchor="start" x="201" y="-630.5" font-family="Helvetica,sans-Serif" font-size="10.00">+ addTimerTool()</text>
<text text-anchor="start" x="201" y="-619.5" font-family="Helvetica,sans-Serif" font-size="10.00">+ clovm()</text>
<text text-anchor="start" x="201" y="-608.5" font-family="Helvetica,sans-Serif" font-size="10.00">+ createWorldsComm()</text>
<text text-anchor="start" x="201" y="-597.5" font-family="Helvetica,sans-Serif" font-size="10.00">+ hasModelProperties()</text>
<text text-anchor="start" x="201" y="-586.5" font-family="Helvetica,sans-Serif" font-size="10.00">and 53 more...</text>
</a>
</g>
</g>
<!-- Node3&#45;&gt;Node2 -->
<g id="edge2" class="edge">
<title>Node3&#45;&gt;Node2</title>
<path fill="none" stroke="midnightblue" d="M238.85,-570.44C233.87,-561.61 229.54,-552.35 226.5,-543 208.73,-488.3 206.08,-424.23 208.28,-371.6"/>
<polygon fill="none" stroke="midnightblue" points="235.9,-572.33 244.03,-579.12 241.91,-568.74 235.9,-572.33"/>
</g>
<!-- Node7 -->
<g id="node7" class="node">
<title>Node7</title>
<g id="a_node7"><a xlink:href="classFeel_1_1FeelModels_1_1ModelAlgebraic.html" target="_top" xlink:title=" ">
<polygon fill="white" stroke="#bfbfbf" points="235.5,-419.5 235.5,-531.5 415.5,-531.5 415.5,-419.5 235.5,-419.5"/>
<text text-anchor="middle" x="325.5" y="-519.5" font-family="Helvetica,sans-Serif" font-size="10.00">Feel::FeelModels::ModelAlgebraic</text>
<polyline fill="none" stroke="#bfbfbf" points="235.5,-512.5 415.5,-512.5 "/>
<text text-anchor="middle" x="325.5" y="-500.5" font-family="Helvetica,sans-Serif" font-size="10.00"> </text>
<polyline fill="none" stroke="#bfbfbf" points="235.5,-493.5 415.5,-493.5 "/>
<text text-anchor="start" x="243.5" y="-481.5" font-family="Helvetica,sans-Serif" font-size="10.00">+ algebraicBackend()</text>
<text text-anchor="start" x="243.5" y="-470.5" font-family="Helvetica,sans-Serif" font-size="10.00">+ algebraicBlockVectorSolution()</text>
<text text-anchor="start" x="243.5" y="-459.5" font-family="Helvetica,sans-Serif" font-size="10.00">+ algebraicFactory()</text>
<text text-anchor="start" x="243.5" y="-448.5" font-family="Helvetica,sans-Serif" font-size="10.00">+ backend()</text>
<text text-anchor="start" x="243.5" y="-437.5" font-family="Helvetica,sans-Serif" font-size="10.00">+ blockPattern()</text>
<text text-anchor="start" x="243.5" y="-426.5" font-family="Helvetica,sans-Serif" font-size="10.00">and 75 more...</text>
</a>
</g>
</g>
<!-- Node3&#45;&gt;Node7 -->
<g id="edge7" class="edge">
<title>Node3&#45;&gt;Node7</title>
<path fill="none" stroke="midnightblue" d="M304.35,-569.34C307.19,-556.85 310.15,-543.88 312.92,-531.73"/>
<polygon fill="none" stroke="midnightblue" points="300.9,-568.71 302.09,-579.24 307.73,-570.27 300.9,-568.71"/>
</g>
<!-- Node8 -->
<g id="node8" class="node">
<title>Node8</title>
<g id="a_node8"><a xlink:href="classFeel_1_1FeelModels_1_1ModelMeshes.html" target="_top" xlink:title=" ">
<polygon fill="white" stroke="black" points="0,-408.5 0,-542.5 179,-542.5 179,-408.5 0,-408.5"/>
<text text-anchor="start" x="8" y="-530.5" font-family="Helvetica,sans-Serif" font-size="10.00">Feel::FeelModels::ModelMeshes</text>
<text text-anchor="middle" x="89.5" y="-519.5" font-family="Helvetica,sans-Serif" font-size="10.00">&lt; ModelAlgebraic::index_type &gt;</text>
<polyline fill="none" stroke="black" points="0,-512.5 179,-512.5 "/>
<text text-anchor="middle" x="89.5" y="-500.5" font-family="Helvetica,sans-Serif" font-size="10.00"> </text>
<polyline fill="none" stroke="black" points="0,-493.5 179,-493.5 "/>
<text text-anchor="start" x="8" y="-481.5" font-family="Helvetica,sans-Serif" font-size="10.00">+ applyRemesh()</text>
<text text-anchor="start" x="8" y="-470.5" font-family="Helvetica,sans-Serif" font-size="10.00">+ hasMeshMotion()</text>
<text text-anchor="start" x="8" y="-459.5" font-family="Helvetica,sans-Serif" font-size="10.00">+ hasModelMesh()</text>
<text text-anchor="start" x="8" y="-448.5" font-family="Helvetica,sans-Serif" font-size="10.00">+ initMeasurePointsEvaluation</text>
<text text-anchor="start" x="8" y="-437.5" font-family="Helvetica,sans-Serif" font-size="10.00">Tool()</text>
<text text-anchor="start" x="8" y="-426.5" font-family="Helvetica,sans-Serif" font-size="10.00">+ measurePointsEvaluationTool()</text>
<text text-anchor="start" x="8" y="-415.5" font-family="Helvetica,sans-Serif" font-size="10.00">and 23 more...</text>
</a>
</g>
</g>
<!-- Node3&#45;&gt;Node8 -->
<g id="edge10" class="edge">
<title>Node3&#45;&gt;Node8</title>
<path fill="none" stroke="midnightblue" d="M211.66,-573.01C199.1,-563.09 186.06,-552.78 173.37,-542.76"/>
<polygon fill="none" stroke="midnightblue" points="209.81,-576.01 219.83,-579.46 214.15,-570.52 209.81,-576.01"/>
</g>
<!-- Node10 -->
<g id="node10" class="node">
<title>Node10</title>
<g id="a_node10"><a xlink:href="classFeel_1_1FeelModels_1_1ModelPhysics.html" target="_top" xlink:title=" ">
<polygon fill="white" stroke="black" points="345,-182.5 345,-349.5 530,-349.5 530,-182.5 345,-182.5"/>
<text text-anchor="start" x="353" y="-337.5" font-family="Helvetica,sans-Serif" font-size="10.00">Feel::FeelModels::ModelPhysics</text>
<text text-anchor="middle" x="437.5" y="-326.5" font-family="Helvetica,sans-Serif" font-size="10.00">&lt; HeatType::convex_type::nDim &gt;</text>
<polyline fill="none" stroke="black" points="345,-319.5 530,-319.5 "/>
<text text-anchor="start" x="353" y="-307.5" font-family="Helvetica,sans-Serif" font-size="10.00">+ nDim</text>
<text text-anchor="start" x="353" y="-296.5" font-family="Helvetica,sans-Serif" font-size="10.00"># M_physicModeling</text>
<text text-anchor="start" x="353" y="-285.5" font-family="Helvetica,sans-Serif" font-size="10.00"># M_physics</text>
<polyline fill="none" stroke="black" points="345,-278.5 530,-278.5 "/>
<text text-anchor="start" x="353" y="-266.5" font-family="Helvetica,sans-Serif" font-size="10.00">+ addPhysics()</text>
<text text-anchor="start" x="353" y="-255.5" font-family="Helvetica,sans-Serif" font-size="10.00">+ hasPhysic()</text>
<text text-anchor="start" x="353" y="-244.5" font-family="Helvetica,sans-Serif" font-size="10.00">+ initPhysics()</text>
<text text-anchor="start" x="353" y="-233.5" font-family="Helvetica,sans-Serif" font-size="10.00">+ initPhysics()</text>
<text text-anchor="start" x="353" y="-222.5" font-family="Helvetica,sans-Serif" font-size="10.00">+ ModelPhysics()</text>
<text text-anchor="start" x="353" y="-211.5" font-family="Helvetica,sans-Serif" font-size="10.00">and 18 more...</text>
<text text-anchor="start" x="353" y="-200.5" font-family="Helvetica,sans-Serif" font-size="10.00"># initPhysics()</text>
<text text-anchor="start" x="353" y="-189.5" font-family="Helvetica,sans-Serif" font-size="10.00"># updatePhysics()</text>
</a>
</g>
</g>
<!-- Node3&#45;&gt;Node10 -->
<g id="edge12" class="edge">
<title>Node3&#45;&gt;Node10</title>
<path fill="none" stroke="midnightblue" d="M393.81,-579.48C405.96,-568.94 416.76,-556.8 424.5,-543 457.35,-484.42 458.16,-407.37 452.15,-349.57"/>
<polygon fill="none" stroke="midnightblue" points="391.58,-576.79 386.09,-585.84 396.03,-582.19 391.58,-576.79"/>
</g>
<!-- Node4 -->
<g id="node4" class="node">
<title>Node4</title>
<g id="a_node4"><a xlink:href="classFeel_1_1JournalWatcher.html" target="_top" xlink:title=" ">
<polygon fill="white" stroke="#bfbfbf" points="111,-728.5 111,-1016.5 288,-1016.5 288,-728.5 111,-728.5"/>
<text text-anchor="middle" x="199.5" y="-1004.5" font-family="Helvetica,sans-Serif" font-size="10.00">Feel::JournalWatcher</text>
<polyline fill="none" stroke="#bfbfbf" points="111,-997.5 288,-997.5 "/>
<text text-anchor="middle" x="199.5" y="-985.5" font-family="Helvetica,sans-Serif" font-size="10.00"> </text>
<polyline fill="none" stroke="#bfbfbf" points="111,-978.5 288,-978.5 "/>
<text text-anchor="start" x="119" y="-966.5" font-family="Helvetica,sans-Serif" font-size="10.00">* M_journal_is_connected</text>
<text text-anchor="start" x="119" y="-955.5" font-family="Helvetica,sans-Serif" font-size="10.00">* M_category</text>
<text text-anchor="start" x="119" y="-944.5" font-family="Helvetica,sans-Serif" font-size="10.00">* M_name</text>
<text text-anchor="start" x="119" y="-933.5" font-family="Helvetica,sans-Serif" font-size="10.00">* M_function_updateInformation</text>
<text text-anchor="start" x="119" y="-922.5" font-family="Helvetica,sans-Serif" font-size="10.00">Object</text>
<text text-anchor="start" x="119" y="-911.5" font-family="Helvetica,sans-Serif" font-size="10.00">* M_informationObject</text>
<text text-anchor="start" x="119" y="-900.5" font-family="Helvetica,sans-Serif" font-size="10.00">* S_counterObjectByCategory</text>
<text text-anchor="start" x="119" y="-889.5" font-family="Helvetica,sans-Serif" font-size="10.00">* JournalWatcher()</text>
<text text-anchor="start" x="119" y="-878.5" font-family="Helvetica,sans-Serif" font-size="10.00">* JournalWatcher()</text>
<text text-anchor="start" x="119" y="-867.5" font-family="Helvetica,sans-Serif" font-size="10.00">* JournalWatcher()</text>
<text text-anchor="start" x="119" y="-856.5" font-family="Helvetica,sans-Serif" font-size="10.00">* JournalWatcher()</text>
<text text-anchor="start" x="119" y="-845.5" font-family="Helvetica,sans-Serif" font-size="10.00">* ~JournalWatcher()</text>
<text text-anchor="start" x="119" y="-834.5" font-family="Helvetica,sans-Serif" font-size="10.00">* journalIsConnected()</text>
<text text-anchor="start" x="119" y="-823.5" font-family="Helvetica,sans-Serif" font-size="10.00">* journalWatcherInstanceName()</text>
<text text-anchor="start" x="119" y="-812.5" font-family="Helvetica,sans-Serif" font-size="10.00">* journalSection()</text>
<text text-anchor="start" x="119" y="-801.5" font-family="Helvetica,sans-Serif" font-size="10.00">* informationObject()</text>
<text text-anchor="start" x="119" y="-790.5" font-family="Helvetica,sans-Serif" font-size="10.00">* journalConnect()</text>
<text text-anchor="start" x="119" y="-779.5" font-family="Helvetica,sans-Serif" font-size="10.00">* journalDisconnect()</text>
<text text-anchor="start" x="119" y="-768.5" font-family="Helvetica,sans-Serif" font-size="10.00">* updateInformationObject()</text>
<text text-anchor="start" x="119" y="-757.5" font-family="Helvetica,sans-Serif" font-size="10.00">* setInformationObject()</text>
<text text-anchor="start" x="119" y="-746.5" font-family="Helvetica,sans-Serif" font-size="10.00">* putInformationObject()</text>
<text text-anchor="start" x="119" y="-735.5" font-family="Helvetica,sans-Serif" font-size="10.00">and 4 more...</text>
</a>
</g>
</g>
<!-- Node4&#45;&gt;Node3 -->
<g id="edge3" class="edge">
<title>Node4&#45;&gt;Node3</title>
<path fill="none" stroke="midnightblue" d="M258,-718.76C261.64,-709.25 265.15,-700.08 268.42,-691.53"/>
<polygon fill="none" stroke="midnightblue" points="254.63,-717.78 254.32,-728.37 261.16,-720.28 254.63,-717.78"/>
</g>
<!-- Node5 -->
<g id="node5" class="node">
<title>Node5</title>
<g id="a_node5"><a xlink:title=" ">
<polygon fill="white" stroke="#bfbfbf" points="146,-1053.5 146,-1110.5 253,-1110.5 253,-1053.5 146,-1053.5"/>
<text text-anchor="middle" x="199.5" y="-1098.5" font-family="Helvetica,sans-Serif" font-size="10.00">Event::SlotHandler</text>
<polyline fill="none" stroke="#bfbfbf" points="146,-1091.5 253,-1091.5 "/>
<text text-anchor="middle" x="199.5" y="-1079.5" font-family="Helvetica,sans-Serif" font-size="10.00"> </text>
<polyline fill="none" stroke="#bfbfbf" points="146,-1072.5 253,-1072.5 "/>
<text text-anchor="middle" x="199.5" y="-1060.5" font-family="Helvetica,sans-Serif" font-size="10.00"> </text>
</a>
</g>
</g>
<!-- Node5&#45;&gt;Node4 -->
<g id="edge4" class="edge">
<title>Node5&#45;&gt;Node4</title>
<path fill="none" stroke="midnightblue" d="M199.5,-1043.38C199.5,-1035.29 199.5,-1026.28 199.5,-1016.76"/>
<polygon fill="none" stroke="midnightblue" points="196,-1043.45 199.5,-1053.45 203,-1043.45 196,-1043.45"/>
</g>
<!-- Node6 -->
<g id="node6" class="node">
<title>Node6</title>
<g id="a_node6"><a xlink:title=" ">
<polygon fill="white" stroke="#bfbfbf" points="306,-838.5 306,-906.5 451,-906.5 451,-838.5 306,-838.5"/>
<text text-anchor="start" x="314" y="-894.5" font-family="Helvetica,sans-Serif" font-size="10.00">std::enable_shared</text>
<text text-anchor="middle" x="378.5" y="-883.5" font-family="Helvetica,sans-Serif" font-size="10.00">_from_this&lt; ModelBase &gt;</text>
<polyline fill="none" stroke="#bfbfbf" points="306,-876.5 451,-876.5 "/>
<text text-anchor="middle" x="378.5" y="-864.5" font-family="Helvetica,sans-Serif" font-size="10.00"> </text>
<polyline fill="none" stroke="#bfbfbf" points="306,-857.5 451,-857.5 "/>
<text text-anchor="middle" x="378.5" y="-845.5" font-family="Helvetica,sans-Serif" font-size="10.00"> </text>
</a>
</g>
</g>
<!-- Node6&#45;&gt;Node3 -->
<g id="edge5" class="edge">
<title>Node6&#45;&gt;Node3</title>
<path fill="none" stroke="midnightblue" d="M362.39,-828.97C347.82,-790.5 326.29,-733.63 310.4,-691.68"/>
<polygon fill="none" stroke="midnightblue" points="359.12,-830.22 365.94,-838.33 365.67,-827.74 359.12,-830.22"/>
</g>
<!-- Node7&#45;&gt;Node2 -->
<g id="edge6" class="edge">
<title>Node7&#45;&gt;Node2</title>
<path fill="none" stroke="midnightblue" d="M292.67,-410.24C286.41,-397.98 279.7,-384.85 272.98,-371.7"/>
<polygon fill="none" stroke="midnightblue" points="289.71,-412.13 297.37,-419.44 295.94,-408.94 289.71,-412.13"/>
</g>
<!-- Node8&#45;&gt;Node2 -->
<g id="edge8" class="edge">
<title>Node8&#45;&gt;Node2</title>
<path fill="none" stroke="midnightblue" d="M136.41,-399.62C142.14,-390.49 148.06,-381.02 154,-371.55"/>
<polygon fill="none" stroke="midnightblue" points="133.33,-397.94 130.99,-408.28 139.27,-401.66 133.33,-397.94"/>
</g>
<!-- Node9 -->
<g id="node9" class="node">
<title>Node9</title>
<g id="a_node9"><a xlink:title=" ">
<polygon fill="white" stroke="black" points="39,-601.5 39,-669.5 140,-669.5 140,-601.5 39,-601.5"/>
<text text-anchor="middle" x="89.5" y="-657.5" font-family="Helvetica,sans-Serif" font-size="10.00">std::map&lt; K, T &gt;</text>
<polyline fill="none" stroke="black" points="39,-650.5 140,-650.5 "/>
<text text-anchor="start" x="47" y="-638.5" font-family="Helvetica,sans-Serif" font-size="10.00">+ elements</text>
<text text-anchor="start" x="47" y="-627.5" font-family="Helvetica,sans-Serif" font-size="10.00">+ keys</text>
<polyline fill="none" stroke="black" points="39,-620.5 140,-620.5 "/>
<text text-anchor="middle" x="89.5" y="-608.5" font-family="Helvetica,sans-Serif" font-size="10.00"> </text>
</a>
</g>
</g>
<!-- Node9&#45;&gt;Node8 -->
<g id="edge9" class="edge">
<title>Node9&#45;&gt;Node8</title>
<path fill="none" stroke="darkgreen" d="M89.5,-590.95C89.5,-576.07 89.5,-559.06 89.5,-542.79"/>
<polygon fill="none" stroke="darkgreen" points="86,-591.38 89.5,-601.38 93,-591.38 86,-591.38"/>
</g>
<!-- Node10&#45;&gt;Node1 -->
<g id="edge11" class="edge">
<title>Node10&#45;&gt;Node1</title>
<path fill="none" stroke="midnightblue" d="M386.75,-173.47C377.39,-156.59 367.83,-139.35 359.13,-123.66"/>
<polygon fill="none" stroke="midnightblue" points="383.71,-175.21 391.62,-182.26 389.83,-171.81 383.71,-175.21"/>
</g>
</g>
</svg>
        <g id="navigator" transform="translate(0 0)" fill="#404254">
                <rect fill="#f2f5e9" fill-opacity="0.5" stroke="#606060" stroke-width=".5" x="0" y="0" width="60" height="60"/>
                <use id="zoomplus" xlink:href="#zoomPlus" x="17" y="9" onmousedown="handleZoom(evt,'in')"/>
                <use id="zoomminus" xlink:href="#zoomMin" x="42" y="9" onmousedown="handleZoom(evt,'out')"/>
                <use id="reset" xlink:href="#resetDef" x="30" y="36" onmousedown="handleReset()"/>
                <g id="arrowUp" xlink:href="#dirArrow" transform="translate(30 24)" onmousedown="handlePan(0,-1)">
                  <use xlink:href="#rim" fill="#404040">
                        <set attributeName="fill" to="#808080" begin="arrowUp.mouseover" end="arrowUp.mouseout"/>
                  </use>
                  <path fill="none" stroke="white" stroke-width="1.5" d="M0,-3.0v7 M-2.5,-0.5L0,-3.0L2.5,-0.5"/>
                </g>
                <g id="arrowRight" xlink:href="#dirArrow" transform="rotate(90) translate(36 -43)" onmousedown="handlePan(1,0)">
                  <use xlink:href="#rim" fill="#404040">
                        <set attributeName="fill" to="#808080" begin="arrowRight.mouseover" end="arrowRight.mouseout"/>
                  </use>
                  <path fill="none" stroke="white" stroke-width="1.5" d="M0,-3.0v7 M-2.5,-0.5L0,-3.0L2.5,-0.5"/>
                </g>
                <g id="arrowDown" xlink:href="#dirArrow" transform="rotate(180) translate(-30 -48)" onmousedown="handlePan(0,1)">
                  <use xlink:href="#rim" fill="#404040">
                        <set attributeName="fill" to="#808080" begin="arrowDown.mouseover" end="arrowDown.mouseout"/>
                  </use>
                  <path fill="none" stroke="white" stroke-width="1.5" d="M0,-3.0v7 M-2.5,-0.5L0,-3.0L2.5,-0.5"/>
                </g>
                <g id="arrowLeft" xlink:href="#dirArrow" transform="rotate(270) translate(-36 17)" onmousedown="handlePan(-1,0)">
                  <use xlink:href="#rim" fill="#404040">
                        <set attributeName="fill" to="#808080" begin="arrowLeft.mouseover" end="arrowLeft.mouseout"/>
                  </use>
                  <path fill="none" stroke="white" stroke-width="1.5" d="M0,-3.0v7 M-2.5,-0.5L0,-3.0L2.5,-0.5"/>
                </g>
        </g>
        <svg viewBox="0 0 15 15" width="100%" height="30px" preserveAspectRatio="xMaxYMin meet">
         <g id="arrow_out" transform="scale(0.3 0.3)">
          <a xlink:href="classFeel_1_1FeelModels_1_1HeatFluid__inherit__graph_org.svg" target="_base">
           <rect id="button" ry="5" rx="5" y="6" x="6" height="38" width="38"
                fill="#f2f5e9" fill-opacity="0.5" stroke="#606060" stroke-width="1.0"/>
           <path id="arrow"
             d="M 11.500037,31.436501 C 11.940474,20.09759 22.043105,11.32322 32.158766,21.979434 L 37.068811,17.246167 C 37.068811,17.246167 37.088388,32 37.088388,32 L 22.160133,31.978069 C 22.160133,31.978069 26.997745,27.140456 26.997745,27.140456 C 18.528582,18.264221 13.291696,25.230495 11.500037,31.436501 z"
             style="fill:#404040;"/>
          </a>
         </g>
        </svg>
</svg>
