<?xml version="1.0" encoding="UTF-8" standalone="no"?>
<!DOCTYPE svg PUBLIC "-//W3C//DTD SVG 1.1//EN"
 "http://www.w3.org/Graphics/SVG/1.1/DTD/svg11.dtd">
<!-- Generated by graphviz version 2.43.0 (0)
 -->
<!-- Title: Feel::vf::integrator::parallel::HartsContextEvaluate&lt; ExprType, IMType, ElementIterator, Eval &gt; Pages: 1 -->
<svg width="337pt" height="237pt"
 viewBox="0.00 0.00 337.00 237.00" xmlns="http://www.w3.org/2000/svg" xmlns:xlink="http://www.w3.org/1999/xlink">
<g id="graph0" class="graph" transform="scale(1 1) rotate(0) translate(4 233)">
<title>Feel::vf::integrator::parallel::HartsContextEvaluate&lt; ExprType, IMType, ElementIterator, Eval &gt;</title>
<polygon fill="white" stroke="transparent" points="-4,4 -4,-233 333,-233 333,4 -4,4"/>
<!-- Node1 -->
<g id="node1" class="node">
<title>Node1</title>
<g id="a_node1"><a xlink:title=" ">
<polygon fill="#bfbfbf" stroke="black" points="34.5,-0.5 34.5,-112.5 267.5,-112.5 267.5,-0.5 34.5,-0.5"/>
<text text-anchor="start" x="42.5" y="-100.5" font-family="Helvetica,sans-Serif" font-size="10.00">Feel::vf::integrator</text>
<text text-anchor="start" x="42.5" y="-89.5" font-family="Helvetica,sans-Serif" font-size="10.00">::parallel::HartsContextEvaluate</text>
<text text-anchor="middle" x="151" y="-78.5" font-family="Helvetica,sans-Serif" font-size="10.00">&lt; ExprType, IMType, ElementIterator, Eval &gt;</text>
<polyline fill="none" stroke="black" points="34.5,-71.5 267.5,-71.5 "/>
<text text-anchor="middle" x="151" y="-59.5" font-family="Helvetica,sans-Serif" font-size="10.00"> </text>
<polyline fill="none" stroke="black" points="34.5,-52.5 267.5,-52.5 "/>
<text text-anchor="start" x="42.5" y="-40.5" font-family="Helvetica,sans-Serif" font-size="10.00">+ computeCPUOMP()</text>
<text text-anchor="start" x="42.5" y="-29.5" font-family="Helvetica,sans-Serif" font-size="10.00">+ elapsed()</text>
<text text-anchor="start" x="42.5" y="-18.5" font-family="Helvetica,sans-Serif" font-size="10.00">+ HartsContextEvaluate()</text>
<text text-anchor="start" x="42.5" y="-7.5" font-family="Helvetica,sans-Serif" font-size="10.00">+ result()</text>
</a>
</g>
</g>
<!-- Node2 -->
<g id="node2" class="node">
<title>Node2</title>
<g id="a_node2"><a xlink:href="classdouble.html" target="_top" xlink:title=" ">
<polygon fill="white" stroke="black" points="0,-166 0,-223 50,-223 50,-166 0,-166"/>
<text text-anchor="middle" x="25" y="-211" font-family="Helvetica,sans-Serif" font-size="10.00">double</text>
<polyline fill="none" stroke="black" points="0,-204 50,-204 "/>
<text text-anchor="middle" x="25" y="-192" font-family="Helvetica,sans-Serif" font-size="10.00"> </text>
<polyline fill="none" stroke="black" points="0,-185 50,-185 "/>
<text text-anchor="middle" x="25" y="-173" font-family="Helvetica,sans-Serif" font-size="10.00"> </text>
</a>
</g>
</g>
<!-- Node2&#45;&gt;Node1 -->
<g id="edge1" class="edge">
<title>Node2&#45;&gt;Node1</title>
<path fill="none" stroke="#404040" d="M48.82,-165.87C58.4,-154.92 69.61,-142.26 80,-131 82.85,-127.91 85.79,-124.75 88.76,-121.58"/>
<polygon fill="none" stroke="#404040" points="88.98,-121.35 90.19,-114.24 97.22,-112.62 96.01,-119.73 88.98,-121.35"/>
<text text-anchor="middle" x="113.5" y="-134" font-family="Helvetica,sans-Serif" font-size="10.00"> +M_cpuTime</text>
</g>
<!-- Node3 -->
<g id="node3" class="node">
<title>Node3</title>
<g id="a_node3"><a xlink:title=" ">
<polygon fill="white" stroke="#bfbfbf" points="67.5,-160.5 67.5,-228.5 234.5,-228.5 234.5,-160.5 67.5,-160.5"/>
<text text-anchor="start" x="75.5" y="-216.5" font-family="Helvetica,sans-Serif" font-size="10.00">EIGEN_MAKE_ALIGNED</text>
<text text-anchor="middle" x="151" y="-205.5" font-family="Helvetica,sans-Serif" font-size="10.00">_OPERATOR_NEW typedef Eval</text>
<polyline fill="none" stroke="#bfbfbf" points="67.5,-198.5 234.5,-198.5 "/>
<text text-anchor="middle" x="151" y="-186.5" font-family="Helvetica,sans-Serif" font-size="10.00"> </text>
<polyline fill="none" stroke="#bfbfbf" points="67.5,-179.5 234.5,-179.5 "/>
<text text-anchor="middle" x="151" y="-167.5" font-family="Helvetica,sans-Serif" font-size="10.00"> </text>
</a>
</g>
</g>
<!-- Node3&#45;&gt;Node1 -->
<g id="edge2" class="edge">
<title>Node3&#45;&gt;Node1</title>
<path fill="none" stroke="#404040" d="M151,-160.23C151,-149.5 151,-137.18 151,-124.9"/>
<polygon fill="none" stroke="#404040" points="151,-124.68 147,-118.68 151,-112.68 155,-118.68 151,-124.68"/>
<text text-anchor="middle" x="167.5" y="-134" font-family="Helvetica,sans-Serif" font-size="10.00"> +eval</text>
</g>
<!-- Node4 -->
<g id="node4" class="node">
<title>Node4</title>
<g id="a_node4"><a xlink:title=" ">
<polygon fill="white" stroke="#bfbfbf" points="253,-166 253,-223 329,-223 329,-166 253,-166"/>
<text text-anchor="middle" x="291" y="-211" font-family="Helvetica,sans-Serif" font-size="10.00">matrix_type</text>
<polyline fill="none" stroke="#bfbfbf" points="253,-204 329,-204 "/>
<text text-anchor="middle" x="291" y="-192" font-family="Helvetica,sans-Serif" font-size="10.00"> </text>
<polyline fill="none" stroke="#bfbfbf" points="253,-185 329,-185 "/>
<text text-anchor="middle" x="291" y="-173" font-family="Helvetica,sans-Serif" font-size="10.00"> </text>
</a>
</g>
</g>
<!-- Node4&#45;&gt;Node1 -->
<g id="edge3" class="edge">
<title>Node4&#45;&gt;Node1</title>
<path fill="none" stroke="#404040" d="M262.67,-165.98C249.32,-153.01 232.79,-136.96 216.58,-121.21"/>
<polygon fill="none" stroke="#404040" points="216.24,-120.88 209.15,-119.57 207.63,-112.52 214.73,-113.83 216.24,-120.88"/>
<text text-anchor="middle" x="257" y="-134" font-family="Helvetica,sans-Serif" font-size="10.00"> +M_ret</text>
</g>
</g>
</svg>
