<?xml version="1.0" encoding="UTF-8" standalone="no"?>
<!DOCTYPE svg PUBLIC "-//W3C//DTD SVG 1.1//EN"
 "http://www.w3.org/Graphics/SVG/1.1/DTD/svg11.dtd">
<!-- Generated by graphviz version 2.43.0 (0)
 -->
<!-- Title: Feel::vf::PrintExpr&lt; PrintExprT &gt; Pages: 1 -->
<svg width="338pt" height="391pt"
 viewBox="0.00 0.00 337.50 391.00" xmlns="http://www.w3.org/2000/svg" xmlns:xlink="http://www.w3.org/1999/xlink">
<g id="graph0" class="graph" transform="scale(1 1) rotate(0) translate(4 387)">
<title>Feel::vf::PrintExpr&lt; PrintExprT &gt;</title>
<polygon fill="white" stroke="transparent" points="-4,4 -4,-387 333.5,-387 333.5,4 -4,4"/>
<!-- Node1 -->
<g id="node1" class="node">
<title>Node1</title>
<g id="a_node1"><a xlink:title=" ">
<polygon fill="#bfbfbf" stroke="black" points="130.5,-0.5 130.5,-233.5 244.5,-233.5 244.5,-0.5 130.5,-0.5"/>
<text text-anchor="start" x="138.5" y="-221.5" font-family="Helvetica,sans-Serif" font-size="10.00">Feel::vf::PrintExpr</text>
<text text-anchor="middle" x="187.5" y="-210.5" font-family="Helvetica,sans-Serif" font-size="10.00">&lt; PrintExprT &gt;</text>
<polyline fill="none" stroke="black" points="130.5,-203.5 244.5,-203.5 "/>
<text text-anchor="middle" x="187.5" y="-191.5" font-family="Helvetica,sans-Serif" font-size="10.00"> </text>
<polyline fill="none" stroke="black" points="130.5,-184.5 244.5,-184.5 "/>
<text text-anchor="start" x="138.5" y="-172.5" font-family="Helvetica,sans-Serif" font-size="10.00">* expression_type</text>
<text text-anchor="start" x="138.5" y="-161.5" font-family="Helvetica,sans-Serif" font-size="10.00">* value_type</text>
<text text-anchor="start" x="138.5" y="-150.5" font-family="Helvetica,sans-Serif" font-size="10.00">* evaluate_type</text>
<text text-anchor="start" x="138.5" y="-139.5" font-family="Helvetica,sans-Serif" font-size="10.00">* this_type</text>
<text text-anchor="start" x="138.5" y="-128.5" font-family="Helvetica,sans-Serif" font-size="10.00">* M_expr</text>
<text text-anchor="start" x="138.5" y="-117.5" font-family="Helvetica,sans-Serif" font-size="10.00">* M_tag</text>
<text text-anchor="start" x="138.5" y="-106.5" font-family="Helvetica,sans-Serif" font-size="10.00">* assemble()</text>
<text text-anchor="start" x="138.5" y="-95.5" font-family="Helvetica,sans-Serif" font-size="10.00">* assemble()</text>
<text text-anchor="start" x="138.5" y="-84.5" font-family="Helvetica,sans-Serif" font-size="10.00">* PrintExpr()</text>
<text text-anchor="start" x="138.5" y="-73.5" font-family="Helvetica,sans-Serif" font-size="10.00">* ~PrintExpr()</text>
<text text-anchor="start" x="138.5" y="-62.5" font-family="Helvetica,sans-Serif" font-size="10.00">* polynomialOrder()</text>
<text text-anchor="start" x="138.5" y="-51.5" font-family="Helvetica,sans-Serif" font-size="10.00">* isPolynomial()</text>
<text text-anchor="start" x="138.5" y="-40.5" font-family="Helvetica,sans-Serif" font-size="10.00">* evaluate()</text>
<text text-anchor="start" x="138.5" y="-29.5" font-family="Helvetica,sans-Serif" font-size="10.00">* isSymetric()</text>
<text text-anchor="start" x="138.5" y="-18.5" font-family="Helvetica,sans-Serif" font-size="10.00">* expression()</text>
<text text-anchor="start" x="138.5" y="-7.5" font-family="Helvetica,sans-Serif" font-size="10.00">* tag()</text>
</a>
</g>
</g>
<!-- Node2 -->
<g id="node2" class="node">
<title>Node2</title>
<g id="a_node2"><a xlink:href="classFeel_1_1vf_1_1ExprDynamicBase.html" target="_top" xlink:title=" ">
<polygon fill="white" stroke="#bfbfbf" points="0,-303.5 0,-382.5 147,-382.5 147,-303.5 0,-303.5"/>
<text text-anchor="middle" x="73.5" y="-370.5" font-family="Helvetica,sans-Serif" font-size="10.00">Feel::vf::ExprDynamicBase</text>
<polyline fill="none" stroke="#bfbfbf" points="0,-363.5 147,-363.5 "/>
<text text-anchor="middle" x="73.5" y="-351.5" font-family="Helvetica,sans-Serif" font-size="10.00"> </text>
<polyline fill="none" stroke="#bfbfbf" points="0,-344.5 147,-344.5 "/>
<text text-anchor="start" x="8" y="-332.5" font-family="Helvetica,sans-Serif" font-size="10.00">+ dynamicContext()</text>
<text text-anchor="start" x="8" y="-321.5" font-family="Helvetica,sans-Serif" font-size="10.00">+ ExprDynamicBase()</text>
<text text-anchor="start" x="8" y="-310.5" font-family="Helvetica,sans-Serif" font-size="10.00">+ ExprDynamicBase()</text>
</a>
</g>
</g>
<!-- Node2&#45;&gt;Node1 -->
<g id="edge1" class="edge">
<title>Node2&#45;&gt;Node1</title>
<path fill="none" stroke="midnightblue" d="M97.67,-294.51C107.32,-275.55 118.87,-252.86 130.42,-230.16"/>
<polygon fill="none" stroke="midnightblue" points="94.51,-292.99 93.1,-303.49 100.75,-296.17 94.51,-292.99"/>
</g>
<!-- Node3 -->
<g id="node3" class="node">
<title>Node3</title>
<g id="a_node3"><a xlink:href="classsize__t.html" target="_top" xlink:title=" ">
<polygon fill="white" stroke="#bfbfbf" points="165,-314.5 165,-371.5 210,-371.5 210,-314.5 165,-314.5"/>
<text text-anchor="middle" x="187.5" y="-359.5" font-family="Helvetica,sans-Serif" font-size="10.00">size_t</text>
<polyline fill="none" stroke="#bfbfbf" points="165,-352.5 210,-352.5 "/>
<text text-anchor="middle" x="187.5" y="-340.5" font-family="Helvetica,sans-Serif" font-size="10.00"> </text>
<polyline fill="none" stroke="#bfbfbf" points="165,-333.5 210,-333.5 "/>
<text text-anchor="middle" x="187.5" y="-321.5" font-family="Helvetica,sans-Serif" font-size="10.00"> </text>
</a>
</g>
</g>
<!-- Node3&#45;&gt;Node1 -->
<g id="edge2" class="edge">
<title>Node3&#45;&gt;Node1</title>
<path fill="none" stroke="#404040" d="M187.5,-314.08C187.5,-296.21 187.5,-271.61 187.5,-245.87"/>
<polygon fill="none" stroke="#404040" points="187.5,-245.58 183.5,-239.58 187.5,-233.58 191.5,-239.58 187.5,-245.58"/>
<text text-anchor="middle" x="212" y="-266" font-family="Helvetica,sans-Serif" font-size="10.00"> +context</text>
</g>
<!-- Node4 -->
<g id="node4" class="node">
<title>Node4</title>
<g id="a_node4"><a xlink:href="classbool.html" target="_top" xlink:title=" ">
<polygon fill="white" stroke="#bfbfbf" points="240.5,-314.5 240.5,-371.5 278.5,-371.5 278.5,-314.5 240.5,-314.5"/>
<text text-anchor="middle" x="259.5" y="-359.5" font-family="Helvetica,sans-Serif" font-size="10.00">bool</text>
<polyline fill="none" stroke="#bfbfbf" points="240.5,-352.5 278.5,-352.5 "/>
<text text-anchor="middle" x="259.5" y="-340.5" font-family="Helvetica,sans-Serif" font-size="10.00"> </text>
<polyline fill="none" stroke="#bfbfbf" points="240.5,-333.5 278.5,-333.5 "/>
<text text-anchor="middle" x="259.5" y="-321.5" font-family="Helvetica,sans-Serif" font-size="10.00"> </text>
</a>
</g>
</g>
<!-- Node4&#45;&gt;Node1 -->
<g id="edge3" class="edge">
<title>Node4&#45;&gt;Node1</title>
<path fill="none" stroke="#404040" d="M253.59,-314.2C249.57,-296.29 243.84,-272.6 237.5,-252 236.8,-249.73 236.09,-247.44 235.36,-245.14"/>
<polygon fill="none" stroke="#404040" points="235.3,-244.97 229.64,-240.5 231.58,-233.56 237.24,-238.02 235.3,-244.97"/>
<text text-anchor="middle" x="287.5" y="-277" font-family="Helvetica,sans-Serif" font-size="10.00"> +has_test_basis</text>
<text text-anchor="middle" x="287.5" y="-266" font-family="Helvetica,sans-Serif" font-size="10.00">+has_trial_basis</text>
<text text-anchor="middle" x="287.5" y="-255" font-family="Helvetica,sans-Serif" font-size="10.00">+is_terminal</text>
</g>
</g>
</svg>
