<?xml version="1.0" encoding="UTF-8" standalone="no"?>
<!DOCTYPE svg PUBLIC "-//W3C//DTD SVG 1.1//EN"
 "http://www.w3.org/Graphics/SVG/1.1/DTD/svg11.dtd">
<!-- Generated by graphviz version 2.43.0 (0)
 -->
<!-- Title: Feel::BlocksStencilPattern Pages: 1 -->
<svg width="151pt" height="281pt"
 viewBox="0.00 0.00 151.00 281.00" xmlns="http://www.w3.org/2000/svg" xmlns:xlink="http://www.w3.org/1999/xlink">
<g id="graph0" class="graph" transform="scale(1 1) rotate(0) translate(4 277)">
<title>Feel::BlocksStencilPattern</title>
<polygon fill="white" stroke="transparent" points="-4,4 -4,-277 147,-277 147,4 -4,4"/>
<!-- Node1 -->
<g id="node1" class="node">
<title>Node1</title>
<g id="a_node1"><a xlink:title=" ">
<polygon fill="#bfbfbf" stroke="black" points="0,-0.5 0,-112.5 143,-112.5 143,-0.5 0,-0.5"/>
<text text-anchor="middle" x="71.5" y="-100.5" font-family="Helvetica,sans-Serif" font-size="10.00">Feel::BlocksStencilPattern</text>
<polyline fill="none" stroke="black" points="0,-93.5 143,-93.5 "/>
<text text-anchor="middle" x="71.5" y="-81.5" font-family="Helvetica,sans-Serif" font-size="10.00"> </text>
<polyline fill="none" stroke="black" points="0,-74.5 143,-74.5 "/>
<text text-anchor="start" x="8" y="-62.5" font-family="Helvetica,sans-Serif" font-size="10.00">+ BlocksStencilPattern()</text>
<text text-anchor="start" x="8" y="-51.5" font-family="Helvetica,sans-Serif" font-size="10.00">+ BlocksStencilPattern()</text>
<text text-anchor="start" x="8" y="-40.5" font-family="Helvetica,sans-Serif" font-size="10.00">+ BlocksStencilPattern()</text>
<text text-anchor="start" x="8" y="-29.5" font-family="Helvetica,sans-Serif" font-size="10.00">+ BlocksStencilPattern()</text>
<text text-anchor="start" x="8" y="-18.5" font-family="Helvetica,sans-Serif" font-size="10.00">+ BlocksStencilPattern()</text>
<text text-anchor="start" x="8" y="-7.5" font-family="Helvetica,sans-Serif" font-size="10.00">and 3 more...</text>
</a>
</g>
</g>
<!-- Node2 -->
<g id="node2" class="node">
<title>Node2</title>
<g id="a_node2"><a xlink:href="structFeel_1_1vf_1_1BlocksBase.html" target="_top" xlink:title=" ">
<polygon fill="white" stroke="black" points="14.5,-149.5 14.5,-272.5 128.5,-272.5 128.5,-149.5 14.5,-149.5"/>
<text text-anchor="start" x="22.5" y="-260.5" font-family="Helvetica,sans-Serif" font-size="10.00">Feel::vf::BlocksBase</text>
<text text-anchor="middle" x="71.5" y="-249.5" font-family="Helvetica,sans-Serif" font-size="10.00">&lt; uint32_type &gt;</text>
<polyline fill="none" stroke="black" points="14.5,-242.5 128.5,-242.5 "/>
<text text-anchor="middle" x="71.5" y="-230.5" font-family="Helvetica,sans-Serif" font-size="10.00"> </text>
<polyline fill="none" stroke="black" points="14.5,-223.5 128.5,-223.5 "/>
<text text-anchor="start" x="22.5" y="-211.5" font-family="Helvetica,sans-Serif" font-size="10.00">+ BlocksBase()</text>
<text text-anchor="start" x="22.5" y="-200.5" font-family="Helvetica,sans-Serif" font-size="10.00">+ BlocksBase()</text>
<text text-anchor="start" x="22.5" y="-189.5" font-family="Helvetica,sans-Serif" font-size="10.00">+ BlocksBase()</text>
<text text-anchor="start" x="22.5" y="-178.5" font-family="Helvetica,sans-Serif" font-size="10.00">+ BlocksBase()</text>
<text text-anchor="start" x="22.5" y="-167.5" font-family="Helvetica,sans-Serif" font-size="10.00">+ BlocksBase()</text>
<text text-anchor="start" x="22.5" y="-156.5" font-family="Helvetica,sans-Serif" font-size="10.00">and 15 more...</text>
</a>
</g>
</g>
<!-- Node2&#45;&gt;Node1 -->
<g id="edge1" class="edge">
<title>Node2&#45;&gt;Node1</title>
<path fill="none" stroke="midnightblue" d="M71.5,-139.25C71.5,-130.29 71.5,-121.23 71.5,-112.56"/>
<polygon fill="none" stroke="midnightblue" points="68,-139.29 71.5,-149.29 75,-139.29 68,-139.29"/>
</g>
</g>
</svg>
