<?xml version="1.0" encoding="UTF-8" standalone="no"?>
<!DOCTYPE svg PUBLIC "-//W3C//DTD SVG 1.1//EN"
 "http://www.w3.org/Graphics/SVG/1.1/DTD/svg11.dtd">
<!-- Generated by graphviz version 2.43.0 (0)
 -->
<!-- Title: Feel::FunctionExpr&lt; FunctionType, Order, FunctionArgsTupleType &gt; Pages: 1 -->
<svg width="432pt" height="281pt"
 viewBox="0.00 0.00 431.50 281.00" xmlns="http://www.w3.org/2000/svg" xmlns:xlink="http://www.w3.org/1999/xlink">
<g id="graph0" class="graph" transform="scale(1 1) rotate(0) translate(4 277)">
<title>Feel::FunctionExpr&lt; FunctionType, Order, FunctionArgsTupleType &gt;</title>
<polygon fill="white" stroke="transparent" points="-4,4 -4,-277 427.5,-277 427.5,4 -4,4"/>
<!-- Node1 -->
<g id="node1" class="node">
<title>Node1</title>
<g id="a_node1"><a xlink:title=" ">
<polygon fill="#bfbfbf" stroke="black" points="152.5,-0.5 152.5,-134.5 294.5,-134.5 294.5,-0.5 152.5,-0.5"/>
<text text-anchor="start" x="160.5" y="-122.5" font-family="Helvetica,sans-Serif" font-size="10.00">Feel::FunctionExpr</text>
<text text-anchor="start" x="160.5" y="-111.5" font-family="Helvetica,sans-Serif" font-size="10.00">&lt; FunctionType, Order,</text>
<text text-anchor="middle" x="223.5" y="-100.5" font-family="Helvetica,sans-Serif" font-size="10.00"> FunctionArgsTupleType &gt;</text>
<polyline fill="none" stroke="black" points="152.5,-93.5 294.5,-93.5 "/>
<text text-anchor="middle" x="223.5" y="-81.5" font-family="Helvetica,sans-Serif" font-size="10.00"> </text>
<polyline fill="none" stroke="black" points="152.5,-74.5 294.5,-74.5 "/>
<text text-anchor="start" x="160.5" y="-62.5" font-family="Helvetica,sans-Serif" font-size="10.00">+ argsTuple()</text>
<text text-anchor="start" x="160.5" y="-51.5" font-family="Helvetica,sans-Serif" font-size="10.00">+ function()</text>
<text text-anchor="start" x="160.5" y="-40.5" font-family="Helvetica,sans-Serif" font-size="10.00">+ FunctionExpr()</text>
<text text-anchor="start" x="160.5" y="-29.5" font-family="Helvetica,sans-Serif" font-size="10.00">+ FunctionExpr()</text>
<text text-anchor="start" x="160.5" y="-18.5" font-family="Helvetica,sans-Serif" font-size="10.00">+ FunctionExpr()</text>
<text text-anchor="start" x="160.5" y="-7.5" font-family="Helvetica,sans-Serif" font-size="10.00">and 4 more...</text>
</a>
</g>
</g>
<!-- Node2 -->
<g id="node2" class="node">
<title>Node2</title>
<g id="a_node2"><a xlink:href="classFeel_1_1vf_1_1ExprDynamicBase.html" target="_top" xlink:title=" ">
<polygon fill="white" stroke="black" points="0,-193.5 0,-272.5 147,-272.5 147,-193.5 0,-193.5"/>
<text text-anchor="middle" x="73.5" y="-260.5" font-family="Helvetica,sans-Serif" font-size="10.00">Feel::vf::ExprDynamicBase</text>
<polyline fill="none" stroke="black" points="0,-253.5 147,-253.5 "/>
<text text-anchor="middle" x="73.5" y="-241.5" font-family="Helvetica,sans-Serif" font-size="10.00"> </text>
<polyline fill="none" stroke="black" points="0,-234.5 147,-234.5 "/>
<text text-anchor="start" x="8" y="-222.5" font-family="Helvetica,sans-Serif" font-size="10.00">+ dynamicContext()</text>
<text text-anchor="start" x="8" y="-211.5" font-family="Helvetica,sans-Serif" font-size="10.00">+ ExprDynamicBase()</text>
<text text-anchor="start" x="8" y="-200.5" font-family="Helvetica,sans-Serif" font-size="10.00">+ ExprDynamicBase()</text>
</a>
</g>
</g>
<!-- Node2&#45;&gt;Node1 -->
<g id="edge1" class="edge">
<title>Node2&#45;&gt;Node1</title>
<path fill="none" stroke="#8b1a1a" d="M116,-185.68C130.51,-169.86 147.03,-151.86 162.69,-134.78"/>
<polygon fill="none" stroke="#8b1a1a" points="113.23,-183.52 109.05,-193.25 118.39,-188.25 113.23,-183.52"/>
</g>
<!-- Node3 -->
<g id="node3" class="node">
<title>Node3</title>
<g id="a_node3"><a xlink:href="classsize__t.html" target="_top" xlink:title=" ">
<polygon fill="white" stroke="black" points="165,-204.5 165,-261.5 210,-261.5 210,-204.5 165,-204.5"/>
<text text-anchor="middle" x="187.5" y="-249.5" font-family="Helvetica,sans-Serif" font-size="10.00">size_t</text>
<polyline fill="none" stroke="black" points="165,-242.5 210,-242.5 "/>
<text text-anchor="middle" x="187.5" y="-230.5" font-family="Helvetica,sans-Serif" font-size="10.00"> </text>
<polyline fill="none" stroke="black" points="165,-223.5 210,-223.5 "/>
<text text-anchor="middle" x="187.5" y="-211.5" font-family="Helvetica,sans-Serif" font-size="10.00"> </text>
</a>
</g>
</g>
<!-- Node3&#45;&gt;Node1 -->
<g id="edge2" class="edge">
<title>Node3&#45;&gt;Node1</title>
<path fill="none" stroke="#404040" d="M185.31,-204.3C184.73,-189.02 185.05,-169.79 188.5,-153 188.95,-150.82 189.45,-148.63 190,-146.42"/>
<polygon fill="none" stroke="#404040" points="190.08,-146.18 187.88,-139.31 193.38,-134.64 195.57,-141.51 190.08,-146.18"/>
<text text-anchor="middle" x="213" y="-161.5" font-family="Helvetica,sans-Serif" font-size="10.00"> +context</text>
</g>
<!-- Node4 -->
<g id="node4" class="node">
<title>Node4</title>
<g id="a_node4"><a xlink:href="classbool.html" target="_top" xlink:title=" ">
<polygon fill="white" stroke="black" points="240.5,-204.5 240.5,-261.5 278.5,-261.5 278.5,-204.5 240.5,-204.5"/>
<text text-anchor="middle" x="259.5" y="-249.5" font-family="Helvetica,sans-Serif" font-size="10.00">bool</text>
<polyline fill="none" stroke="black" points="240.5,-242.5 278.5,-242.5 "/>
<text text-anchor="middle" x="259.5" y="-230.5" font-family="Helvetica,sans-Serif" font-size="10.00"> </text>
<polyline fill="none" stroke="black" points="240.5,-223.5 278.5,-223.5 "/>
<text text-anchor="middle" x="259.5" y="-211.5" font-family="Helvetica,sans-Serif" font-size="10.00"> </text>
</a>
</g>
</g>
<!-- Node4&#45;&gt;Node1 -->
<g id="edge3" class="edge">
<title>Node4&#45;&gt;Node1</title>
<path fill="none" stroke="#404040" d="M253.39,-204.26C249.86,-188.2 245.21,-167.09 240.63,-146.32"/>
<polygon fill="none" stroke="#404040" points="240.62,-146.23 235.42,-141.23 238.03,-134.51 243.23,-139.51 240.62,-146.23"/>
<text text-anchor="middle" x="280" y="-161.5" font-family="Helvetica,sans-Serif" font-size="10.00"> +is_terminal</text>
</g>
<!-- Node5 -->
<g id="node5" class="node">
<title>Node5</title>
<g id="a_node5"><a xlink:title=" ">
<polygon fill="white" stroke="#bfbfbf" points="297,-204.5 297,-261.5 416,-261.5 416,-204.5 297,-204.5"/>
<text text-anchor="middle" x="356.5" y="-249.5" font-family="Helvetica,sans-Serif" font-size="10.00">static constexpr auto</text>
<polyline fill="none" stroke="#bfbfbf" points="297,-242.5 416,-242.5 "/>
<text text-anchor="middle" x="356.5" y="-230.5" font-family="Helvetica,sans-Serif" font-size="10.00"> </text>
<polyline fill="none" stroke="#bfbfbf" points="297,-223.5 416,-223.5 "/>
<text text-anchor="middle" x="356.5" y="-211.5" font-family="Helvetica,sans-Serif" font-size="10.00"> </text>
</a>
</g>
</g>
<!-- Node5&#45;&gt;Node1 -->
<g id="edge4" class="edge">
<title>Node5&#45;&gt;Node1</title>
<path fill="none" stroke="#404040" d="M345.87,-204.2C339.08,-188.35 329.33,-168.6 317.5,-153 313.17,-147.29 308.41,-141.65 303.41,-136.18"/>
<polygon fill="none" stroke="#404040" points="303.06,-135.81 296.03,-134.22 294.79,-127.12 301.82,-128.71 303.06,-135.81"/>
<text text-anchor="middle" x="377" y="-167" font-family="Helvetica,sans-Serif" font-size="10.00"> +args_types</text>
<text text-anchor="middle" x="377" y="-156" font-family="Helvetica,sans-Serif" font-size="10.00">+make_type_tuple</text>
</g>
</g>
</svg>
