<?xml version="1.0" encoding="UTF-8" standalone="no"?>
<!DOCTYPE svg PUBLIC "-//W3C//DTD SVG 1.1//EN"
 "http://www.w3.org/Graphics/SVG/1.1/DTD/svg11.dtd">
<!-- Generated by graphviz version 2.43.0 (0)
 -->
<!-- Title: test_simget::sim Pages: 1 -->
<svg width="249pt" height="486pt"
 viewBox="0.00 0.00 249.00 486.00" xmlns="http://www.w3.org/2000/svg" xmlns:xlink="http://www.w3.org/1999/xlink">
<g id="graph0" class="graph" transform="scale(1 1) rotate(0) translate(4 482)">
<title>test_simget::sim</title>
<polygon fill="white" stroke="transparent" points="-4,4 -4,-482 245,-482 245,4 -4,4"/>
<!-- Node1 -->
<g id="node1" class="node">
<title>Node1</title>
<g id="a_node1"><a xlink:title=" ">
<polygon fill="#bfbfbf" stroke="black" points="85,-0.5 85,-79.5 183,-79.5 183,-0.5 85,-0.5"/>
<text text-anchor="middle" x="134" y="-67.5" font-family="Helvetica,sans-Serif" font-size="10.00">test_simget::sim</text>
<polyline fill="none" stroke="black" points="85,-60.5 183,-60.5 "/>
<text text-anchor="middle" x="134" y="-48.5" font-family="Helvetica,sans-Serif" font-size="10.00"> </text>
<polyline fill="none" stroke="black" points="85,-41.5 183,-41.5 "/>
<text text-anchor="start" x="93" y="-29.5" font-family="Helvetica,sans-Serif" font-size="10.00">+ run()</text>
<text text-anchor="start" x="93" y="-18.5" font-family="Helvetica,sans-Serif" font-size="10.00">+ run()</text>
<text text-anchor="start" x="93" y="-7.5" font-family="Helvetica,sans-Serif" font-size="10.00">+ sim()</text>
</a>
</g>
</g>
<!-- Node2 -->
<g id="node2" class="node">
<title>Node2</title>
<g id="a_node2"><a xlink:href="classFeel_1_1Simget.html" target="_top" xlink:title="Simulation Object.">
<polygon fill="white" stroke="black" points="79,-117.5 79,-361.5 189,-361.5 189,-117.5 79,-117.5"/>
<text text-anchor="middle" x="134" y="-349.5" font-family="Helvetica,sans-Serif" font-size="10.00">Feel::Simget</text>
<polyline fill="none" stroke="black" points="79,-342.5 189,-342.5 "/>
<text text-anchor="middle" x="134" y="-330.5" font-family="Helvetica,sans-Serif" font-size="10.00"> </text>
<polyline fill="none" stroke="black" points="79,-323.5 189,-323.5 "/>
<text text-anchor="start" x="87" y="-311.5" font-family="Helvetica,sans-Serif" font-size="10.00">* Application</text>
<text text-anchor="start" x="87" y="-300.5" font-family="Helvetica,sans-Serif" font-size="10.00">* M_comm</text>
<text text-anchor="start" x="87" y="-289.5" font-family="Helvetica,sans-Serif" font-size="10.00">* M_vm</text>
<text text-anchor="start" x="87" y="-278.5" font-family="Helvetica,sans-Serif" font-size="10.00">* M_about</text>
<text text-anchor="start" x="87" y="-267.5" font-family="Helvetica,sans-Serif" font-size="10.00">* run()</text>
<text text-anchor="start" x="87" y="-256.5" font-family="Helvetica,sans-Serif" font-size="10.00">and 3 more...</text>
<text text-anchor="start" x="87" y="-245.5" font-family="Helvetica,sans-Serif" font-size="10.00">* Simget()</text>
<text text-anchor="start" x="87" y="-234.5" font-family="Helvetica,sans-Serif" font-size="10.00">* ~Simget()</text>
<text text-anchor="start" x="87" y="-223.5" font-family="Helvetica,sans-Serif" font-size="10.00">* operator=()</text>
<text text-anchor="start" x="87" y="-212.5" font-family="Helvetica,sans-Serif" font-size="10.00">* name()</text>
<text text-anchor="start" x="87" y="-201.5" font-family="Helvetica,sans-Serif" font-size="10.00">* comm()</text>
<text text-anchor="start" x="87" y="-190.5" font-family="Helvetica,sans-Serif" font-size="10.00">* vm()</text>
<text text-anchor="start" x="87" y="-179.5" font-family="Helvetica,sans-Serif" font-size="10.00">* about()</text>
<text text-anchor="start" x="87" y="-168.5" font-family="Helvetica,sans-Serif" font-size="10.00">* meshSize()</text>
<text text-anchor="start" x="87" y="-157.5" font-family="Helvetica,sans-Serif" font-size="10.00">and 4 more...</text>
<text text-anchor="start" x="87" y="-146.5" font-family="Helvetica,sans-Serif" font-size="10.00">* setMeshSize()</text>
<text text-anchor="start" x="87" y="-135.5" font-family="Helvetica,sans-Serif" font-size="10.00">* setMeshSizeInit()</text>
<text text-anchor="start" x="87" y="-124.5" font-family="Helvetica,sans-Serif" font-size="10.00">* setLevel()</text>
</a>
</g>
</g>
<!-- Node2&#45;&gt;Node1 -->
<g id="edge1" class="edge">
<title>Node2&#45;&gt;Node1</title>
<path fill="none" stroke="midnightblue" d="M134,-107.31C134,-97.4 134,-87.99 134,-79.52"/>
<polygon fill="none" stroke="midnightblue" points="130.5,-107.36 134,-117.36 137.5,-107.36 130.5,-107.36"/>
</g>
<!-- Node3 -->
<g id="node3" class="node">
<title>Node3</title>
<g id="a_node3"><a xlink:title=" ">
<polygon fill="white" stroke="#bfbfbf" points="0,-420.5 0,-477.5 50,-477.5 50,-420.5 0,-420.5"/>
<text text-anchor="middle" x="25" y="-465.5" font-family="Helvetica,sans-Serif" font-size="10.00">double</text>
<polyline fill="none" stroke="#bfbfbf" points="0,-458.5 50,-458.5 "/>
<text text-anchor="middle" x="25" y="-446.5" font-family="Helvetica,sans-Serif" font-size="10.00"> </text>
<polyline fill="none" stroke="#bfbfbf" points="0,-439.5 50,-439.5 "/>
<text text-anchor="middle" x="25" y="-427.5" font-family="Helvetica,sans-Serif" font-size="10.00"> </text>
</a>
</g>
</g>
<!-- Node3&#45;&gt;Node2 -->
<g id="edge2" class="edge">
<title>Node3&#45;&gt;Node2</title>
<path fill="none" stroke="#404040" d="M30.76,-420.21C33.87,-407.62 38.27,-392.74 44,-380 51.98,-362.26 62.01,-344.18 72.45,-327.17"/>
<polygon fill="none" stroke="#404040" points="72.62,-326.9 72.41,-319.69 78.99,-316.73 79.19,-323.93 72.62,-326.9"/>
<text text-anchor="middle" x="87" y="-394" font-family="Helvetica,sans-Serif" font-size="10.00"> #M_meshSize</text>
<text text-anchor="middle" x="87" y="-383" font-family="Helvetica,sans-Serif" font-size="10.00">#M_meshSizeInit</text>
</g>
<!-- Node4 -->
<g id="node4" class="node">
<title>Node4</title>
<g id="a_node4"><a xlink:href="classint.html" target="_top" xlink:title=" ">
<polygon fill="white" stroke="#bfbfbf" points="119.5,-420.5 119.5,-477.5 148.5,-477.5 148.5,-420.5 119.5,-420.5"/>
<text text-anchor="middle" x="134" y="-465.5" font-family="Helvetica,sans-Serif" font-size="10.00">int</text>
<polyline fill="none" stroke="#bfbfbf" points="119.5,-458.5 148.5,-458.5 "/>
<text text-anchor="middle" x="134" y="-446.5" font-family="Helvetica,sans-Serif" font-size="10.00"> </text>
<polyline fill="none" stroke="#bfbfbf" points="119.5,-439.5 148.5,-439.5 "/>
<text text-anchor="middle" x="134" y="-427.5" font-family="Helvetica,sans-Serif" font-size="10.00"> </text>
</a>
</g>
</g>
<!-- Node4&#45;&gt;Node2 -->
<g id="edge3" class="edge">
<title>Node4&#45;&gt;Node2</title>
<path fill="none" stroke="#404040" d="M134,-420.45C134,-407.58 134,-391.22 134,-373.63"/>
<polygon fill="none" stroke="#404040" points="134,-373.61 130,-367.61 134,-361.61 138,-367.61 134,-373.61"/>
<text text-anchor="middle" x="159" y="-388.5" font-family="Helvetica,sans-Serif" font-size="10.00"> #M_level</text>
</g>
<!-- Node5 -->
<g id="node5" class="node">
<title>Node5</title>
<g id="a_node5"><a xlink:title=" ">
<polygon fill="white" stroke="#bfbfbf" points="186,-420.5 186,-477.5 228,-477.5 228,-420.5 186,-420.5"/>
<text text-anchor="middle" x="207" y="-465.5" font-family="Helvetica,sans-Serif" font-size="10.00">ptree</text>
<polyline fill="none" stroke="#bfbfbf" points="186,-458.5 228,-458.5 "/>
<text text-anchor="middle" x="207" y="-446.5" font-family="Helvetica,sans-Serif" font-size="10.00"> </text>
<polyline fill="none" stroke="#bfbfbf" points="186,-439.5 228,-439.5 "/>
<text text-anchor="middle" x="207" y="-427.5" font-family="Helvetica,sans-Serif" font-size="10.00"> </text>
</a>
</g>
</g>
<!-- Node5&#45;&gt;Node2 -->
<g id="edge4" class="edge">
<title>Node5&#45;&gt;Node2</title>
<path fill="none" stroke="#404040" d="M198.35,-420.46C194.39,-408.06 189.57,-393.26 185,-380 184.23,-377.76 183.45,-375.5 182.66,-373.23"/>
<polygon fill="none" stroke="#404040" points="182.61,-373.08 176.85,-368.74 178.64,-361.76 184.4,-366.1 182.61,-373.08"/>
<text text-anchor="middle" x="216" y="-388.5" font-family="Helvetica,sans-Serif" font-size="10.00"> #M_stats</text>
</g>
</g>
</svg>
