<?xml version="1.0" encoding="UTF-8" standalone="no"?>
<!DOCTYPE svg PUBLIC "-//W3C//DTD SVG 1.1//EN"
 "http://www.w3.org/Graphics/SVG/1.1/DTD/svg11.dtd">
<!-- Generated by graphviz version 2.43.0 (0)
 -->
<!-- Title: Feel::FeelModels::GenericDirichletBoundaryCondition&lt; Dim1, Dim2 &gt; Pages: 1 -->
<!--zoomable 862 -->
<svg id="main" version="1.1" xmlns="http://www.w3.org/2000/svg" xmlns:xlink="http://www.w3.org/1999/xlink" xml:space="preserve" onload="init(evt)">
<style type="text/css"><![CDATA[
.edge:hover path { stroke: red; }
.edge:hover polygon { stroke: red; fill: red; }
]]></style>
<script type="text/javascript"><![CDATA[
var edges = document.getElementsByTagName('g');
if (edges && edges.length) {
  for (var i=0;i<edges.length;i++) {
    if (edges[i].id.substr(0,4)=='edge') {
      edges[i].setAttribute('class','edge');
    }
  }
}
]]></script>
        <defs>
                <circle id="rim" cx="0" cy="0" r="7"/>
                <circle id="rim2" cx="0" cy="0" r="3.5"/>
                <g id="zoomPlus">
                        <use xlink:href="#rim" fill="#404040">
                                <set attributeName="fill" to="#808080" begin="zoomplus.mouseover" end="zoomplus.mouseout"/>
                        </use>
                        <path d="M-4,0h8M0,-4v8" fill="none" stroke="white" stroke-width="1.5" pointer-events="none"/>
                </g>
                <g id="zoomMin">
                        <use xlink:href="#rim" fill="#404040">
                                <set attributeName="fill" to="#808080" begin="zoomminus.mouseover" end="zoomminus.mouseout"/>
                        </use>
                        <path d="M-4,0h8" fill="none" stroke="white" stroke-width="1.5" pointer-events="none"/>
                </g>
                <g id="dirArrow">
                        <path fill="none" stroke="white" stroke-width="1.5" d="M0,-3.0v7 M-2.5,-0.5L0,-3.0L2.5,-0.5"/>
                </g>
               <g id="resetDef">
                       <use xlink:href="#rim2" fill="#404040">
                               <set attributeName="fill" to="#808080" begin="reset.mouseover" end="reset.mouseout"/>
                       </use>
               </g>
        </defs>

<script type="text/javascript">
var viewWidth = 692;
var viewHeight = 862;
var sectionId = 'dynsection-0';
</script>
<script xlink:href="svgpan.js"/>
<svg id="graph" class="graph">
<g id="viewport">
<title>Feel::FeelModels::GenericDirichletBoundaryCondition&lt; Dim1, Dim2 &gt;</title>
<polygon fill="white" stroke="transparent" points="-4,4 -4,-858 687.5,-858 687.5,4 -4,4"/>
<!-- Node1 -->
<g id="node1" class="node">
<title>Node1</title>
<g id="a_node1"><a xlink:title=" ">
<polygon fill="#bfbfbf" stroke="black" points="260,-0.5 260,-156.5 425,-156.5 425,-0.5 260,-0.5"/>
<text text-anchor="start" x="268" y="-144.5" font-family="Helvetica,sans-Serif" font-size="10.00">Feel::FeelModels::Generic</text>
<text text-anchor="start" x="268" y="-133.5" font-family="Helvetica,sans-Serif" font-size="10.00">DirichletBoundaryCondition</text>
<text text-anchor="middle" x="342.5" y="-122.5" font-family="Helvetica,sans-Serif" font-size="10.00">&lt; Dim1, Dim2 &gt;</text>
<polyline fill="none" stroke="black" points="260,-115.5 425,-115.5 "/>
<text text-anchor="middle" x="342.5" y="-103.5" font-family="Helvetica,sans-Serif" font-size="10.00"> </text>
<polyline fill="none" stroke="black" points="260,-96.5 425,-96.5 "/>
<text text-anchor="start" x="268" y="-84.5" font-family="Helvetica,sans-Serif" font-size="10.00">+ applyDofEliminationLinear()</text>
<text text-anchor="start" x="268" y="-73.5" font-family="Helvetica,sans-Serif" font-size="10.00">+ applyNewtonInitialGuess()</text>
<text text-anchor="start" x="268" y="-62.5" font-family="Helvetica,sans-Serif" font-size="10.00">+ expr()</text>
<text text-anchor="start" x="268" y="-51.5" font-family="Helvetica,sans-Serif" font-size="10.00">+ exprComponent()</text>
<text text-anchor="start" x="268" y="-40.5" font-family="Helvetica,sans-Serif" font-size="10.00">+ GenericDirichletBoundary</text>
<text text-anchor="start" x="268" y="-29.5" font-family="Helvetica,sans-Serif" font-size="10.00">Condition()</text>
<text text-anchor="start" x="268" y="-18.5" font-family="Helvetica,sans-Serif" font-size="10.00">and 12 more...</text>
<text text-anchor="start" x="268" y="-7.5" font-family="Helvetica,sans-Serif" font-size="10.00">+ tabulateInformations()</text>
</a>
</g>
</g>
<!-- Node2 -->
<g id="node2" class="node">
<title>Node2</title>
<g id="a_node2"><a xlink:title=" ">
<polygon fill="white" stroke="#bfbfbf" points="0,-210 0,-267 53,-267 53,-210 0,-210"/>
<text text-anchor="middle" x="26.5" y="-255" font-family="Helvetica,sans-Serif" font-size="10.00">Method</text>
<polyline fill="none" stroke="#bfbfbf" points="0,-248 53,-248 "/>
<text text-anchor="middle" x="26.5" y="-236" font-family="Helvetica,sans-Serif" font-size="10.00"> </text>
<polyline fill="none" stroke="#bfbfbf" points="0,-229 53,-229 "/>
<text text-anchor="middle" x="26.5" y="-217" font-family="Helvetica,sans-Serif" font-size="10.00"> </text>
</a>
</g>
</g>
<!-- Node2&#45;&gt;Node1 -->
<g id="edge1" class="edge">
<title>Node2&#45;&gt;Node1</title>
<path fill="none" stroke="#404040" d="M53.23,-210.2C55.93,-207.98 58.7,-205.87 61.5,-204 119.56,-165.1 191.77,-133.42 248.44,-111.75"/>
<polygon fill="none" stroke="#404040" points="248.7,-111.65 252.9,-105.79 259.93,-107.41 255.73,-113.27 248.7,-111.65"/>
<text text-anchor="middle" x="136.5" y="-178" font-family="Helvetica,sans-Serif" font-size="10.00"> #M_method</text>
</g>
<!-- Node3 -->
<g id="node3" class="node">
<title>Node3</title>
<g id="a_node3"><a xlink:title=" ">
<polygon fill="white" stroke="#bfbfbf" points="71,-210 71,-267 166,-267 166,-210 71,-210"/>
<text text-anchor="middle" x="118.5" y="-255" font-family="Helvetica,sans-Serif" font-size="10.00">ComponentType</text>
<polyline fill="none" stroke="#bfbfbf" points="71,-248 166,-248 "/>
<text text-anchor="middle" x="118.5" y="-236" font-family="Helvetica,sans-Serif" font-size="10.00"> </text>
<polyline fill="none" stroke="#bfbfbf" points="71,-229 166,-229 "/>
<text text-anchor="middle" x="118.5" y="-217" font-family="Helvetica,sans-Serif" font-size="10.00"> </text>
</a>
</g>
</g>
<!-- Node3&#45;&gt;Node1 -->
<g id="edge2" class="edge">
<title>Node3&#45;&gt;Node1</title>
<path fill="none" stroke="#404040" d="M157.52,-209.98C183.08,-191.95 217.62,-167.59 249.93,-144.79"/>
<polygon fill="none" stroke="#404040" points="250.07,-144.7 252.67,-137.97 259.88,-137.78 257.28,-144.51 250.07,-144.7"/>
<text text-anchor="middle" x="231" y="-178" font-family="Helvetica,sans-Serif" font-size="10.00"> #M_comp</text>
</g>
<!-- Node4 -->
<g id="node4" class="node">
<title>Node4</title>
<g id="a_node4"><a xlink:title=" ">
<polygon fill="white" stroke="#bfbfbf" points="184,-204.5 184,-272.5 333,-272.5 333,-204.5 184,-204.5"/>
<text text-anchor="start" x="192" y="-260.5" font-family="Helvetica,sans-Serif" font-size="10.00">std::weak_ptr&lt; Feel</text>
<text text-anchor="middle" x="258.5" y="-249.5" font-family="Helvetica,sans-Serif" font-size="10.00">::FeelModels::ModelBase &gt;</text>
<polyline fill="none" stroke="#bfbfbf" points="184,-242.5 333,-242.5 "/>
<text text-anchor="middle" x="258.5" y="-230.5" font-family="Helvetica,sans-Serif" font-size="10.00"> </text>
<polyline fill="none" stroke="#bfbfbf" points="184,-223.5 333,-223.5 "/>
<text text-anchor="start" x="192" y="-211.5" font-family="Helvetica,sans-Serif" font-size="10.00">+ operator&#45;&gt;()</text>
</a>
</g>
</g>
<!-- Node4&#45;&gt;Node1 -->
<g id="edge3" class="edge">
<title>Node4&#45;&gt;Node1</title>
<path fill="none" stroke="#404040" d="M269.25,-204.18C272.75,-194.58 276.93,-184.22 281.5,-175 282.77,-172.43 284.1,-169.85 285.46,-167.26"/>
<polygon fill="none" stroke="#404040" points="285.54,-167.13 284.91,-159.95 291.3,-156.61 291.93,-163.79 285.54,-167.13"/>
<text text-anchor="middle" x="328.5" y="-178" font-family="Helvetica,sans-Serif" font-size="10.00"> #M_toolboxParent</text>
</g>
<!-- Node5 -->
<g id="node5" class="node">
<title>Node5</title>
<g id="a_node5"><a xlink:href="classFeel_1_1FeelModels_1_1ModelBase.html" target="_top" xlink:title="Model base class.">
<polygon fill="white" stroke="black" points="162.5,-320.5 162.5,-432.5 354.5,-432.5 354.5,-320.5 162.5,-320.5"/>
<text text-anchor="middle" x="258.5" y="-420.5" font-family="Helvetica,sans-Serif" font-size="10.00">Feel::FeelModels::ModelBase</text>
<polyline fill="none" stroke="black" points="162.5,-413.5 354.5,-413.5 "/>
<text text-anchor="middle" x="258.5" y="-401.5" font-family="Helvetica,sans-Serif" font-size="10.00"> </text>
<polyline fill="none" stroke="black" points="162.5,-394.5 354.5,-394.5 "/>
<text text-anchor="start" x="170.5" y="-382.5" font-family="Helvetica,sans-Serif" font-size="10.00">+ addParameterInModelProperties()</text>
<text text-anchor="start" x="170.5" y="-371.5" font-family="Helvetica,sans-Serif" font-size="10.00">+ addTimerTool()</text>
<text text-anchor="start" x="170.5" y="-360.5" font-family="Helvetica,sans-Serif" font-size="10.00">+ clovm()</text>
<text text-anchor="start" x="170.5" y="-349.5" font-family="Helvetica,sans-Serif" font-size="10.00">+ createWorldsComm()</text>
<text text-anchor="start" x="170.5" y="-338.5" font-family="Helvetica,sans-Serif" font-size="10.00">+ hasModelProperties()</text>
<text text-anchor="start" x="170.5" y="-327.5" font-family="Helvetica,sans-Serif" font-size="10.00">and 53 more...</text>
</a>
</g>
</g>
<!-- Node5&#45;&gt;Node4 -->
<g id="edge4" class="edge">
<title>Node5&#45;&gt;Node4</title>
<path fill="none" stroke="#404040" d="M258.5,-320.18C258.5,-308.43 258.5,-296.15 258.5,-284.82"/>
<polygon fill="none" stroke="#404040" points="258.5,-284.51 254.5,-278.51 258.5,-272.51 262.5,-278.51 258.5,-284.51"/>
<text text-anchor="middle" x="271" y="-294" font-family="Helvetica,sans-Serif" font-size="10.00"> +ptr</text>
</g>
<!-- Node6 -->
<g id="node6" class="node">
<title>Node6</title>
<g id="a_node6"><a xlink:href="classFeel_1_1JournalWatcher.html" target="_top" xlink:title=" ">
<polygon fill="white" stroke="black" points="75.5,-470.5 75.5,-758.5 251.5,-758.5 251.5,-470.5 75.5,-470.5"/>
<text text-anchor="middle" x="163.5" y="-746.5" font-family="Helvetica,sans-Serif" font-size="10.00">Feel::JournalWatcher</text>
<polyline fill="none" stroke="black" points="75.5,-739.5 251.5,-739.5 "/>
<text text-anchor="middle" x="163.5" y="-727.5" font-family="Helvetica,sans-Serif" font-size="10.00"> </text>
<polyline fill="none" stroke="black" points="75.5,-720.5 251.5,-720.5 "/>
<text text-anchor="start" x="83.5" y="-708.5" font-family="Helvetica,sans-Serif" font-size="10.00">* JournalWatcher()</text>
<text text-anchor="start" x="83.5" y="-697.5" font-family="Helvetica,sans-Serif" font-size="10.00">* JournalWatcher()</text>
<text text-anchor="start" x="83.5" y="-686.5" font-family="Helvetica,sans-Serif" font-size="10.00">* JournalWatcher()</text>
<text text-anchor="start" x="83.5" y="-675.5" font-family="Helvetica,sans-Serif" font-size="10.00">* JournalWatcher()</text>
<text text-anchor="start" x="83.5" y="-664.5" font-family="Helvetica,sans-Serif" font-size="10.00">* ~JournalWatcher()</text>
<text text-anchor="start" x="83.5" y="-653.5" font-family="Helvetica,sans-Serif" font-size="10.00">* journalIsConnected()</text>
<text text-anchor="start" x="83.5" y="-642.5" font-family="Helvetica,sans-Serif" font-size="10.00">* journalWatcherInstanceName()</text>
<text text-anchor="start" x="83.5" y="-631.5" font-family="Helvetica,sans-Serif" font-size="10.00">* journalSection()</text>
<text text-anchor="start" x="83.5" y="-620.5" font-family="Helvetica,sans-Serif" font-size="10.00">* informationObject()</text>
<text text-anchor="start" x="83.5" y="-609.5" font-family="Helvetica,sans-Serif" font-size="10.00">* journalConnect()</text>
<text text-anchor="start" x="83.5" y="-598.5" font-family="Helvetica,sans-Serif" font-size="10.00">* journalDisconnect()</text>
<text text-anchor="start" x="83.5" y="-587.5" font-family="Helvetica,sans-Serif" font-size="10.00">* updateInformationObject()</text>
<text text-anchor="start" x="83.5" y="-576.5" font-family="Helvetica,sans-Serif" font-size="10.00">* setInformationObject()</text>
<text text-anchor="start" x="83.5" y="-565.5" font-family="Helvetica,sans-Serif" font-size="10.00">* putInformationObject()</text>
<text text-anchor="start" x="83.5" y="-554.5" font-family="Helvetica,sans-Serif" font-size="10.00">and 4 more...</text>
<text text-anchor="start" x="83.5" y="-543.5" font-family="Helvetica,sans-Serif" font-size="10.00">* M_journal_is_connected</text>
<text text-anchor="start" x="83.5" y="-532.5" font-family="Helvetica,sans-Serif" font-size="10.00">* M_category</text>
<text text-anchor="start" x="83.5" y="-521.5" font-family="Helvetica,sans-Serif" font-size="10.00">* M_name</text>
<text text-anchor="start" x="83.5" y="-510.5" font-family="Helvetica,sans-Serif" font-size="10.00">* M_function_updateInformation</text>
<text text-anchor="start" x="83.5" y="-499.5" font-family="Helvetica,sans-Serif" font-size="10.00">Object</text>
<text text-anchor="start" x="83.5" y="-488.5" font-family="Helvetica,sans-Serif" font-size="10.00">* M_informationObject</text>
<text text-anchor="start" x="83.5" y="-477.5" font-family="Helvetica,sans-Serif" font-size="10.00">* S_counterObjectByCategory</text>
</a>
</g>
</g>
<!-- Node6&#45;&gt;Node5 -->
<g id="edge5" class="edge">
<title>Node6&#45;&gt;Node5</title>
<path fill="none" stroke="midnightblue" d="M224.93,-460.89C228.9,-451.03 232.72,-441.53 236.28,-432.69"/>
<polygon fill="none" stroke="midnightblue" points="221.58,-459.85 221.09,-470.43 228.07,-462.47 221.58,-459.85"/>
</g>
<!-- Node7 -->
<g id="node7" class="node">
<title>Node7</title>
<g id="a_node7"><a xlink:title=" ">
<polygon fill="white" stroke="#bfbfbf" points="110,-796.5 110,-853.5 217,-853.5 217,-796.5 110,-796.5"/>
<text text-anchor="middle" x="163.5" y="-841.5" font-family="Helvetica,sans-Serif" font-size="10.00">Event::SlotHandler</text>
<polyline fill="none" stroke="#bfbfbf" points="110,-834.5 217,-834.5 "/>
<text text-anchor="middle" x="163.5" y="-822.5" font-family="Helvetica,sans-Serif" font-size="10.00"> </text>
<polyline fill="none" stroke="#bfbfbf" points="110,-815.5 217,-815.5 "/>
<text text-anchor="middle" x="163.5" y="-803.5" font-family="Helvetica,sans-Serif" font-size="10.00"> </text>
</a>
</g>
</g>
<!-- Node7&#45;&gt;Node6 -->
<g id="edge6" class="edge">
<title>Node7&#45;&gt;Node6</title>
<path fill="none" stroke="midnightblue" d="M163.5,-786.25C163.5,-777.86 163.5,-768.49 163.5,-758.57"/>
<polygon fill="none" stroke="midnightblue" points="160,-786.31 163.5,-796.31 167,-786.31 160,-786.31"/>
</g>
<!-- Node8 -->
<g id="node8" class="node">
<title>Node8</title>
<g id="a_node8"><a xlink:title=" ">
<polygon fill="white" stroke="#bfbfbf" points="270,-580.5 270,-648.5 415,-648.5 415,-580.5 270,-580.5"/>
<text text-anchor="start" x="278" y="-636.5" font-family="Helvetica,sans-Serif" font-size="10.00">std::enable_shared</text>
<text text-anchor="middle" x="342.5" y="-625.5" font-family="Helvetica,sans-Serif" font-size="10.00">_from_this&lt; ModelBase &gt;</text>
<polyline fill="none" stroke="#bfbfbf" points="270,-618.5 415,-618.5 "/>
<text text-anchor="middle" x="342.5" y="-606.5" font-family="Helvetica,sans-Serif" font-size="10.00"> </text>
<polyline fill="none" stroke="#bfbfbf" points="270,-599.5 415,-599.5 "/>
<text text-anchor="middle" x="342.5" y="-587.5" font-family="Helvetica,sans-Serif" font-size="10.00"> </text>
</a>
</g>
</g>
<!-- Node8&#45;&gt;Node5 -->
<g id="edge7" class="edge">
<title>Node8&#45;&gt;Node5</title>
<path fill="none" stroke="midnightblue" d="M327.38,-571.01C313.59,-532.28 293.14,-474.82 278.1,-432.58"/>
<polygon fill="none" stroke="midnightblue" points="324.08,-572.19 330.73,-580.44 330.68,-569.84 324.08,-572.19"/>
</g>
<!-- Node9 -->
<g id="node9" class="node">
<title>Node9</title>
<g id="a_node9"><a xlink:href="classModelExpression.html" target="_top" xlink:title=" ">
<polygon fill="white" stroke="black" points="351.5,-210 351.5,-267 451.5,-267 451.5,-210 351.5,-210"/>
<text text-anchor="middle" x="401.5" y="-255" font-family="Helvetica,sans-Serif" font-size="10.00">ModelExpression</text>
<polyline fill="none" stroke="black" points="351.5,-248 451.5,-248 "/>
<text text-anchor="middle" x="401.5" y="-236" font-family="Helvetica,sans-Serif" font-size="10.00"> </text>
<polyline fill="none" stroke="black" points="351.5,-229 451.5,-229 "/>
<text text-anchor="middle" x="401.5" y="-217" font-family="Helvetica,sans-Serif" font-size="10.00"> </text>
</a>
</g>
</g>
<!-- Node9&#45;&gt;Node1 -->
<g id="edge8" class="edge">
<title>Node9&#45;&gt;Node1</title>
<path fill="none" stroke="#404040" d="M391.22,-209.98C386.78,-198.07 381.3,-183.4 375.64,-168.25"/>
<polygon fill="none" stroke="#404040" points="375.49,-167.84 369.64,-163.62 371.29,-156.6 377.14,-160.82 375.49,-167.84"/>
<text text-anchor="middle" x="410.5" y="-178" font-family="Helvetica,sans-Serif" font-size="10.00"> #M_mexpr</text>
</g>
<!-- Node10 -->
<g id="node10" class="node">
<title>Node10</title>
<g id="a_node10"><a xlink:title=" ">
<polygon fill="white" stroke="#bfbfbf" points="559.5,-210 559.5,-267 683.5,-267 683.5,-210 559.5,-210"/>
<text text-anchor="middle" x="621.5" y="-255" font-family="Helvetica,sans-Serif" font-size="10.00">std::set&lt; std::string &gt;</text>
<polyline fill="none" stroke="#bfbfbf" points="559.5,-248 683.5,-248 "/>
<text text-anchor="middle" x="621.5" y="-236" font-family="Helvetica,sans-Serif" font-size="10.00"> </text>
<polyline fill="none" stroke="#bfbfbf" points="559.5,-229 683.5,-229 "/>
<text text-anchor="middle" x="621.5" y="-217" font-family="Helvetica,sans-Serif" font-size="10.00"> </text>
</a>
</g>
</g>
<!-- Node10&#45;&gt;Node1 -->
<g id="edge9" class="edge">
<title>Node10&#45;&gt;Node1</title>
<path fill="none" stroke="#404040" d="M572.9,-209.98C535.17,-188.61 481.72,-158.34 435.81,-132.34"/>
<polygon fill="none" stroke="#404040" points="435.67,-132.26 428.47,-132.78 425.22,-126.35 432.42,-125.82 435.67,-132.26"/>
<text text-anchor="middle" x="556.5" y="-178" font-family="Helvetica,sans-Serif" font-size="10.00"> #M_markers</text>
</g>
<!-- Node11 -->
<g id="node11" class="node">
<title>Node11</title>
<g id="a_node11"><a xlink:title="STL class.">
<polygon fill="white" stroke="#bfbfbf" points="496,-348 496,-405 561,-405 561,-348 496,-348"/>
<text text-anchor="middle" x="528.5" y="-393" font-family="Helvetica,sans-Serif" font-size="10.00">std::string</text>
<polyline fill="none" stroke="#bfbfbf" points="496,-386 561,-386 "/>
<text text-anchor="middle" x="528.5" y="-374" font-family="Helvetica,sans-Serif" font-size="10.00"> </text>
<polyline fill="none" stroke="#bfbfbf" points="496,-367 561,-367 "/>
<text text-anchor="middle" x="528.5" y="-355" font-family="Helvetica,sans-Serif" font-size="10.00"> </text>
</a>
</g>
</g>
<!-- Node11&#45;&gt;Node1 -->
<g id="edge12" class="edge">
<title>Node11&#45;&gt;Node1</title>
<path fill="none" stroke="#404040" d="M518.92,-348C501.85,-299.94 465.85,-203.11 443.5,-175 440.2,-170.85 436.72,-166.71 433.12,-162.61"/>
<polygon fill="none" stroke="#404040" points="433.12,-162.6 426.12,-160.83 425.07,-153.7 432.06,-155.47 433.12,-162.6"/>
<text text-anchor="middle" x="517.5" y="-236" font-family="Helvetica,sans-Serif" font-size="10.00"> #M_name</text>
</g>
<!-- Node11&#45;&gt;Node10 -->
<g id="edge10" class="edge">
<title>Node11&#45;&gt;Node10</title>
<path fill="none" stroke="#404040" d="M547.32,-347.98C561.16,-327.74 580.14,-299.99 595.43,-277.62"/>
<polygon fill="none" stroke="#404040" points="595.62,-277.35 595.7,-270.14 602.39,-267.45 602.3,-274.66 595.62,-277.35"/>
<text text-anchor="middle" x="602.5" y="-294" font-family="Helvetica,sans-Serif" font-size="10.00"> +keys</text>
</g>
<!-- Node12 -->
<g id="node12" class="node">
<title>Node12</title>
<g id="a_node12"><a xlink:title="STL class.">
<polygon fill="white" stroke="#bfbfbf" points="476.5,-580.5 476.5,-648.5 580.5,-648.5 580.5,-580.5 476.5,-580.5"/>
<text text-anchor="start" x="484.5" y="-636.5" font-family="Helvetica,sans-Serif" font-size="10.00">std::basic_string&lt;</text>
<text text-anchor="middle" x="528.5" y="-625.5" font-family="Helvetica,sans-Serif" font-size="10.00"> char &gt;</text>
<polyline fill="none" stroke="#bfbfbf" points="476.5,-618.5 580.5,-618.5 "/>
<text text-anchor="middle" x="528.5" y="-606.5" font-family="Helvetica,sans-Serif" font-size="10.00"> </text>
<polyline fill="none" stroke="#bfbfbf" points="476.5,-599.5 580.5,-599.5 "/>
<text text-anchor="middle" x="528.5" y="-587.5" font-family="Helvetica,sans-Serif" font-size="10.00"> </text>
</a>
</g>
</g>
<!-- Node12&#45;&gt;Node11 -->
<g id="edge11" class="edge">
<title>Node12&#45;&gt;Node11</title>
<path fill="none" stroke="midnightblue" d="M528.5,-570.33C528.5,-522.23 528.5,-445.89 528.5,-405.19"/>
<polygon fill="none" stroke="midnightblue" points="525,-570.44 528.5,-580.44 532,-570.44 525,-570.44"/>
</g>
</g>
</svg>
        <g id="navigator" transform="translate(0 0)" fill="#404254">
                <rect fill="#f2f5e9" fill-opacity="0.5" stroke="#606060" stroke-width=".5" x="0" y="0" width="60" height="60"/>
                <use id="zoomplus" xlink:href="#zoomPlus" x="17" y="9" onmousedown="handleZoom(evt,'in')"/>
                <use id="zoomminus" xlink:href="#zoomMin" x="42" y="9" onmousedown="handleZoom(evt,'out')"/>
                <use id="reset" xlink:href="#resetDef" x="30" y="36" onmousedown="handleReset()"/>
                <g id="arrowUp" xlink:href="#dirArrow" transform="translate(30 24)" onmousedown="handlePan(0,-1)">
                  <use xlink:href="#rim" fill="#404040">
                        <set attributeName="fill" to="#808080" begin="arrowUp.mouseover" end="arrowUp.mouseout"/>
                  </use>
                  <path fill="none" stroke="white" stroke-width="1.5" d="M0,-3.0v7 M-2.5,-0.5L0,-3.0L2.5,-0.5"/>
                </g>
                <g id="arrowRight" xlink:href="#dirArrow" transform="rotate(90) translate(36 -43)" onmousedown="handlePan(1,0)">
                  <use xlink:href="#rim" fill="#404040">
                        <set attributeName="fill" to="#808080" begin="arrowRight.mouseover" end="arrowRight.mouseout"/>
                  </use>
                  <path fill="none" stroke="white" stroke-width="1.5" d="M0,-3.0v7 M-2.5,-0.5L0,-3.0L2.5,-0.5"/>
                </g>
                <g id="arrowDown" xlink:href="#dirArrow" transform="rotate(180) translate(-30 -48)" onmousedown="handlePan(0,1)">
                  <use xlink:href="#rim" fill="#404040">
                        <set attributeName="fill" to="#808080" begin="arrowDown.mouseover" end="arrowDown.mouseout"/>
                  </use>
                  <path fill="none" stroke="white" stroke-width="1.5" d="M0,-3.0v7 M-2.5,-0.5L0,-3.0L2.5,-0.5"/>
                </g>
                <g id="arrowLeft" xlink:href="#dirArrow" transform="rotate(270) translate(-36 17)" onmousedown="handlePan(-1,0)">
                  <use xlink:href="#rim" fill="#404040">
                        <set attributeName="fill" to="#808080" begin="arrowLeft.mouseover" end="arrowLeft.mouseout"/>
                  </use>
                  <path fill="none" stroke="white" stroke-width="1.5" d="M0,-3.0v7 M-2.5,-0.5L0,-3.0L2.5,-0.5"/>
                </g>
        </g>
        <svg viewBox="0 0 15 15" width="100%" height="30px" preserveAspectRatio="xMaxYMin meet">
         <g id="arrow_out" transform="scale(0.3 0.3)">
          <a xlink:href="classFeel_1_1FeelModels_1_1GenericDirichletBoundaryCondition__coll__graph_org.svg" target="_base">
           <rect id="button" ry="5" rx="5" y="6" x="6" height="38" width="38"
                fill="#f2f5e9" fill-opacity="0.5" stroke="#606060" stroke-width="1.0"/>
           <path id="arrow"
             d="M 11.500037,31.436501 C 11.940474,20.09759 22.043105,11.32322 32.158766,21.979434 L 37.068811,17.246167 C 37.068811,17.246167 37.088388,32 37.088388,32 L 22.160133,31.978069 C 22.160133,31.978069 26.997745,27.140456 26.997745,27.140456 C 18.528582,18.264221 13.291696,25.230495 11.500037,31.436501 z"
             style="fill:#404040;"/>
          </a>
         </g>
        </svg>
</svg>
