<?xml version="1.0" encoding="UTF-8" standalone="no"?>
<!DOCTYPE svg PUBLIC "-//W3C//DTD SVG 1.1//EN"
 "http://www.w3.org/Graphics/SVG/1.1/DTD/svg11.dtd">
<!-- Generated by graphviz version 2.43.0 (0)
 -->
<!-- Title: Feel::BVH&lt; MeshEntityType &gt; Pages: 1 -->
<!--zoomable 496 -->
<svg id="main" version="1.1" xmlns="http://www.w3.org/2000/svg" xmlns:xlink="http://www.w3.org/1999/xlink" xml:space="preserve" onload="init(evt)">
<style type="text/css"><![CDATA[
.edge:hover path { stroke: red; }
.edge:hover polygon { stroke: red; fill: red; }
]]></style>
<script type="text/javascript"><![CDATA[
var edges = document.getElementsByTagName('g');
if (edges && edges.length) {
  for (var i=0;i<edges.length;i++) {
    if (edges[i].id.substr(0,4)=='edge') {
      edges[i].setAttribute('class','edge');
    }
  }
}
]]></script>
        <defs>
                <circle id="rim" cx="0" cy="0" r="7"/>
                <circle id="rim2" cx="0" cy="0" r="3.5"/>
                <g id="zoomPlus">
                        <use xlink:href="#rim" fill="#404040">
                                <set attributeName="fill" to="#808080" begin="zoomplus.mouseover" end="zoomplus.mouseout"/>
                        </use>
                        <path d="M-4,0h8M0,-4v8" fill="none" stroke="white" stroke-width="1.5" pointer-events="none"/>
                </g>
                <g id="zoomMin">
                        <use xlink:href="#rim" fill="#404040">
                                <set attributeName="fill" to="#808080" begin="zoomminus.mouseover" end="zoomminus.mouseout"/>
                        </use>
                        <path d="M-4,0h8" fill="none" stroke="white" stroke-width="1.5" pointer-events="none"/>
                </g>
                <g id="dirArrow">
                        <path fill="none" stroke="white" stroke-width="1.5" d="M0,-3.0v7 M-2.5,-0.5L0,-3.0L2.5,-0.5"/>
                </g>
               <g id="resetDef">
                       <use xlink:href="#rim2" fill="#404040">
                               <set attributeName="fill" to="#808080" begin="reset.mouseover" end="reset.mouseout"/>
                       </use>
               </g>
        </defs>

<script type="text/javascript">
var viewWidth = 477;
var viewHeight = 496;
var sectionId = 'dynsection-1';
</script>
<script xlink:href="svgpan.js"/>
<svg id="graph" class="graph">
<g id="viewport">
<title>Feel::BVH&lt; MeshEntityType &gt;</title>
<polygon fill="white" stroke="transparent" points="-4,4 -4,-492 473,-492 473,4 -4,4"/>
<!-- Node1 -->
<g id="node1" class="node">
<title>Node1</title>
<g id="a_node1"><a xlink:title="BVH base class.">
<polygon fill="#bfbfbf" stroke="black" points="168,-0.5 168,-145.5 319,-145.5 319,-0.5 168,-0.5"/>
<text text-anchor="middle" x="243.5" y="-133.5" font-family="Helvetica,sans-Serif" font-size="10.00">Feel::BVH&lt; MeshEntityType &gt;</text>
<polyline fill="none" stroke="black" points="168,-126.5 319,-126.5 "/>
<text text-anchor="middle" x="243.5" y="-114.5" font-family="Helvetica,sans-Serif" font-size="10.00"> </text>
<polyline fill="none" stroke="black" points="168,-107.5 319,-107.5 "/>
<text text-anchor="start" x="176" y="-95.5" font-family="Helvetica,sans-Serif" font-size="10.00">+ BVH()</text>
<text text-anchor="start" x="176" y="-84.5" font-family="Helvetica,sans-Serif" font-size="10.00">+ BVH()</text>
<text text-anchor="start" x="176" y="-73.5" font-family="Helvetica,sans-Serif" font-size="10.00">+ BVH()</text>
<text text-anchor="start" x="176" y="-62.5" font-family="Helvetica,sans-Serif" font-size="10.00">+ intersect()</text>
<text text-anchor="start" x="176" y="-51.5" font-family="Helvetica,sans-Serif" font-size="10.00">+ intersectGenericImpl()</text>
<text text-anchor="start" x="176" y="-40.5" font-family="Helvetica,sans-Serif" font-size="10.00">and 4 more...</text>
<text text-anchor="start" x="176" y="-29.5" font-family="Helvetica,sans-Serif" font-size="10.00"># getHitPartitions()</text>
<text text-anchor="start" x="176" y="-18.5" font-family="Helvetica,sans-Serif" font-size="10.00"># intersectSequential()</text>
<text text-anchor="start" x="176" y="-7.5" font-family="Helvetica,sans-Serif" font-size="10.00"># updateForUse()</text>
</a>
</g>
</g>
<!-- Node2 -->
<g id="node2" class="node">
<title>Node2</title>
<g id="a_node2"><a xlink:href="classFeel_1_1CommObject.html" target="_top" xlink:title=" ">
<polygon fill="white" stroke="#bfbfbf" points="0,-204.5 0,-316.5 99,-316.5 99,-204.5 0,-204.5"/>
<text text-anchor="middle" x="49.5" y="-304.5" font-family="Helvetica,sans-Serif" font-size="10.00">Feel::CommObject</text>
<polyline fill="none" stroke="#bfbfbf" points="0,-297.5 99,-297.5 "/>
<text text-anchor="middle" x="49.5" y="-285.5" font-family="Helvetica,sans-Serif" font-size="10.00"> </text>
<polyline fill="none" stroke="#bfbfbf" points="0,-278.5 99,-278.5 "/>
<text text-anchor="start" x="8" y="-266.5" font-family="Helvetica,sans-Serif" font-size="10.00">+ comm()</text>
<text text-anchor="start" x="8" y="-255.5" font-family="Helvetica,sans-Serif" font-size="10.00">+ CommObject()</text>
<text text-anchor="start" x="8" y="-244.5" font-family="Helvetica,sans-Serif" font-size="10.00">+ CommObject()</text>
<text text-anchor="start" x="8" y="-233.5" font-family="Helvetica,sans-Serif" font-size="10.00">+ CommObject()</text>
<text text-anchor="start" x="8" y="-222.5" font-family="Helvetica,sans-Serif" font-size="10.00">+ CommObject()</text>
<text text-anchor="start" x="8" y="-211.5" font-family="Helvetica,sans-Serif" font-size="10.00">and 13 more...</text>
</a>
</g>
</g>
<!-- Node2&#45;&gt;Node1 -->
<g id="edge1" class="edge">
<title>Node2&#45;&gt;Node1</title>
<path fill="none" stroke="midnightblue" d="M106.52,-204.97C125.97,-186.38 148.01,-165.31 168.64,-145.58"/>
<polygon fill="none" stroke="midnightblue" points="104.02,-202.53 99.21,-211.97 108.85,-207.59 104.02,-202.53"/>
</g>
<!-- Node3 -->
<g id="node3" class="node">
<title>Node3</title>
<g id="a_node3"><a xlink:title=" ">
<polygon fill="white" stroke="#bfbfbf" points="117.5,-232 117.5,-289 257.5,-289 257.5,-232 117.5,-232"/>
<text text-anchor="middle" x="187.5" y="-277" font-family="Helvetica,sans-Serif" font-size="10.00">static constexpr uint16_type</text>
<polyline fill="none" stroke="#bfbfbf" points="117.5,-270 257.5,-270 "/>
<text text-anchor="middle" x="187.5" y="-258" font-family="Helvetica,sans-Serif" font-size="10.00"> </text>
<polyline fill="none" stroke="#bfbfbf" points="117.5,-251 257.5,-251 "/>
<text text-anchor="middle" x="187.5" y="-239" font-family="Helvetica,sans-Serif" font-size="10.00"> </text>
</a>
</g>
</g>
<!-- Node3&#45;&gt;Node1 -->
<g id="edge2" class="edge">
<title>Node3&#45;&gt;Node1</title>
<path fill="none" stroke="#404040" d="M195.88,-231.73C201.86,-211.92 210.24,-184.16 218.31,-157.45"/>
<polygon fill="none" stroke="#404040" points="218.39,-157.17 216.3,-150.27 221.86,-145.68 223.96,-152.58 218.39,-157.17"/>
<text text-anchor="middle" x="240.5" y="-178" font-family="Helvetica,sans-Serif" font-size="10.00"> +nDim</text>
<text text-anchor="middle" x="240.5" y="-167" font-family="Helvetica,sans-Serif" font-size="10.00">+nRealDim</text>
</g>
<!-- Node4 -->
<g id="node4" class="node">
<title>Node4</title>
<g id="a_node4"><a xlink:title=" ">
<polygon fill="white" stroke="black" points="275.5,-226.5 275.5,-294.5 403.5,-294.5 403.5,-226.5 275.5,-226.5"/>
<text text-anchor="start" x="283.5" y="-282.5" font-family="Helvetica,sans-Serif" font-size="10.00">std::vector&lt; Feel::</text>
<text text-anchor="middle" x="339.5" y="-271.5" font-family="Helvetica,sans-Serif" font-size="10.00">BVH::BVHPrimitiveInfo &gt;</text>
<polyline fill="none" stroke="black" points="275.5,-264.5 403.5,-264.5 "/>
<text text-anchor="middle" x="339.5" y="-252.5" font-family="Helvetica,sans-Serif" font-size="10.00"> </text>
<polyline fill="none" stroke="black" points="275.5,-245.5 403.5,-245.5 "/>
<text text-anchor="middle" x="339.5" y="-233.5" font-family="Helvetica,sans-Serif" font-size="10.00"> </text>
</a>
</g>
</g>
<!-- Node4&#45;&gt;Node1 -->
<g id="edge3" class="edge">
<title>Node4&#45;&gt;Node1</title>
<path fill="none" stroke="#404040" d="M322.34,-226.34C312.24,-206.82 298.98,-181.2 286.22,-156.55"/>
<polygon fill="none" stroke="#404040" points="286.12,-156.35 279.81,-152.86 280.6,-145.69 286.91,-149.18 286.12,-156.35"/>
<text text-anchor="middle" x="337.5" y="-172.5" font-family="Helvetica,sans-Serif" font-size="10.00"> #M_primitiveInfo</text>
</g>
<!-- Node5 -->
<g id="node5" class="node">
<title>Node5</title>
<g id="a_node5"><a xlink:href="structFeel_1_1BVH_1_1BVHPrimitiveInfo.html" target="_top" xlink:title="Information on the primitive (mesh entity, bounding box, centroid)">
<polygon fill="white" stroke="black" points="268.5,-364.5 268.5,-487.5 410.5,-487.5 410.5,-364.5 268.5,-364.5"/>
<text text-anchor="start" x="276.5" y="-475.5" font-family="Helvetica,sans-Serif" font-size="10.00">Feel::BVH&lt; MeshEntityType</text>
<text text-anchor="middle" x="339.5" y="-464.5" font-family="Helvetica,sans-Serif" font-size="10.00"> &gt;::BVHPrimitiveInfo</text>
<polyline fill="none" stroke="black" points="268.5,-457.5 410.5,-457.5 "/>
<text text-anchor="middle" x="339.5" y="-445.5" font-family="Helvetica,sans-Serif" font-size="10.00"> </text>
<polyline fill="none" stroke="black" points="268.5,-438.5 410.5,-438.5 "/>
<text text-anchor="start" x="276.5" y="-426.5" font-family="Helvetica,sans-Serif" font-size="10.00">+ boundMax()</text>
<text text-anchor="start" x="276.5" y="-415.5" font-family="Helvetica,sans-Serif" font-size="10.00">+ boundMin()</text>
<text text-anchor="start" x="276.5" y="-404.5" font-family="Helvetica,sans-Serif" font-size="10.00">+ BVHPrimitiveInfo()</text>
<text text-anchor="start" x="276.5" y="-393.5" font-family="Helvetica,sans-Serif" font-size="10.00">+ BVHPrimitiveInfo()</text>
<text text-anchor="start" x="276.5" y="-382.5" font-family="Helvetica,sans-Serif" font-size="10.00">+ BVHPrimitiveInfo()</text>
<text text-anchor="start" x="276.5" y="-371.5" font-family="Helvetica,sans-Serif" font-size="10.00">and 4 more...</text>
</a>
</g>
</g>
<!-- Node5&#45;&gt;Node4 -->
<g id="edge4" class="edge">
<title>Node5&#45;&gt;Node4</title>
<path fill="none" stroke="#404040" d="M339.5,-364.12C339.5,-345.18 339.5,-324.64 339.5,-306.94"/>
<polygon fill="none" stroke="#404040" points="339.5,-306.91 335.5,-300.91 339.5,-294.91 343.5,-300.91 339.5,-306.91"/>
<text text-anchor="middle" x="364" y="-338" font-family="Helvetica,sans-Serif" font-size="10.00"> +elements</text>
</g>
<!-- Node6 -->
<g id="node6" class="node">
<title>Node6</title>
<g id="a_node6"><a xlink:title=" ">
<polygon fill="white" stroke="#bfbfbf" points="422,-232 422,-289 469,-289 469,-232 422,-232"/>
<text text-anchor="middle" x="445.5" y="-277" font-family="Helvetica,sans-Serif" font-size="10.00">Quality</text>
<polyline fill="none" stroke="#bfbfbf" points="422,-270 469,-270 "/>
<text text-anchor="middle" x="445.5" y="-258" font-family="Helvetica,sans-Serif" font-size="10.00"> </text>
<polyline fill="none" stroke="#bfbfbf" points="422,-251 469,-251 "/>
<text text-anchor="middle" x="445.5" y="-239" font-family="Helvetica,sans-Serif" font-size="10.00"> </text>
</a>
</g>
</g>
<!-- Node6&#45;&gt;Node1 -->
<g id="edge5" class="edge">
<title>Node6&#45;&gt;Node1</title>
<path fill="none" stroke="#404040" d="M430.2,-231.87C424.88,-222.81 418.69,-212.8 412.5,-204 399.24,-185.15 396.63,-179.42 379.5,-164 364.19,-150.23 346.61,-137.01 329.27,-125.16"/>
<polygon fill="none" stroke="#404040" points="329.08,-125.03 321.87,-125 319.12,-118.34 326.33,-118.36 329.08,-125.03"/>
<text text-anchor="middle" x="425" y="-172.5" font-family="Helvetica,sans-Serif" font-size="10.00"> #M_quality</text>
</g>
</g>
</svg>
        <g id="navigator" transform="translate(0 0)" fill="#404254">
                <rect fill="#f2f5e9" fill-opacity="0.5" stroke="#606060" stroke-width=".5" x="0" y="0" width="60" height="60"/>
                <use id="zoomplus" xlink:href="#zoomPlus" x="17" y="9" onmousedown="handleZoom(evt,'in')"/>
                <use id="zoomminus" xlink:href="#zoomMin" x="42" y="9" onmousedown="handleZoom(evt,'out')"/>
                <use id="reset" xlink:href="#resetDef" x="30" y="36" onmousedown="handleReset()"/>
                <g id="arrowUp" xlink:href="#dirArrow" transform="translate(30 24)" onmousedown="handlePan(0,-1)">
                  <use xlink:href="#rim" fill="#404040">
                        <set attributeName="fill" to="#808080" begin="arrowUp.mouseover" end="arrowUp.mouseout"/>
                  </use>
                  <path fill="none" stroke="white" stroke-width="1.5" d="M0,-3.0v7 M-2.5,-0.5L0,-3.0L2.5,-0.5"/>
                </g>
                <g id="arrowRight" xlink:href="#dirArrow" transform="rotate(90) translate(36 -43)" onmousedown="handlePan(1,0)">
                  <use xlink:href="#rim" fill="#404040">
                        <set attributeName="fill" to="#808080" begin="arrowRight.mouseover" end="arrowRight.mouseout"/>
                  </use>
                  <path fill="none" stroke="white" stroke-width="1.5" d="M0,-3.0v7 M-2.5,-0.5L0,-3.0L2.5,-0.5"/>
                </g>
                <g id="arrowDown" xlink:href="#dirArrow" transform="rotate(180) translate(-30 -48)" onmousedown="handlePan(0,1)">
                  <use xlink:href="#rim" fill="#404040">
                        <set attributeName="fill" to="#808080" begin="arrowDown.mouseover" end="arrowDown.mouseout"/>
                  </use>
                  <path fill="none" stroke="white" stroke-width="1.5" d="M0,-3.0v7 M-2.5,-0.5L0,-3.0L2.5,-0.5"/>
                </g>
                <g id="arrowLeft" xlink:href="#dirArrow" transform="rotate(270) translate(-36 17)" onmousedown="handlePan(-1,0)">
                  <use xlink:href="#rim" fill="#404040">
                        <set attributeName="fill" to="#808080" begin="arrowLeft.mouseover" end="arrowLeft.mouseout"/>
                  </use>
                  <path fill="none" stroke="white" stroke-width="1.5" d="M0,-3.0v7 M-2.5,-0.5L0,-3.0L2.5,-0.5"/>
                </g>
        </g>
        <svg viewBox="0 0 15 15" width="100%" height="30px" preserveAspectRatio="xMaxYMin meet">
         <g id="arrow_out" transform="scale(0.3 0.3)">
          <a xlink:href="classFeel_1_1BVH__coll__graph_org.svg" target="_base">
           <rect id="button" ry="5" rx="5" y="6" x="6" height="38" width="38"
                fill="#f2f5e9" fill-opacity="0.5" stroke="#606060" stroke-width="1.0"/>
           <path id="arrow"
             d="M 11.500037,31.436501 C 11.940474,20.09759 22.043105,11.32322 32.158766,21.979434 L 37.068811,17.246167 C 37.068811,17.246167 37.088388,32 37.088388,32 L 22.160133,31.978069 C 22.160133,31.978069 26.997745,27.140456 26.997745,27.140456 C 18.528582,18.264221 13.291696,25.230495 11.500037,31.436501 z"
             style="fill:#404040;"/>
          </a>
         </g>
        </svg>
</svg>
