<?xml version="1.0" encoding="UTF-8" standalone="no"?>
<!DOCTYPE svg PUBLIC "-//W3C//DTD SVG 1.1//EN"
 "http://www.w3.org/Graphics/SVG/1.1/DTD/svg11.dtd">
<!-- Generated by graphviz version 2.43.0 (0)
 -->
<!-- Title: map Pages: 1 -->
<svg width="572pt" height="226pt"
 viewBox="0.00 0.00 571.50 226.00" xmlns="http://www.w3.org/2000/svg" xmlns:xlink="http://www.w3.org/1999/xlink">
<g id="graph0" class="graph" transform="scale(1 1) rotate(0) translate(4 222)">
<title>map</title>
<polygon fill="white" stroke="transparent" points="-4,4 -4,-222 567.5,-222 567.5,4 -4,4"/>
<!-- Node1 -->
<g id="node1" class="node">
<title>Node1</title>
<g id="a_node1"><a xlink:title=" ">
<polygon fill="#bfbfbf" stroke="black" points="233,-160.5 233,-217.5 271,-217.5 271,-160.5 233,-160.5"/>
<text text-anchor="middle" x="252" y="-205.5" font-family="Helvetica,sans-Serif" font-size="10.00">map</text>
<polyline fill="none" stroke="black" points="233,-198.5 271,-198.5 "/>
<text text-anchor="middle" x="252" y="-186.5" font-family="Helvetica,sans-Serif" font-size="10.00"> </text>
<polyline fill="none" stroke="black" points="233,-179.5 271,-179.5 "/>
<text text-anchor="middle" x="252" y="-167.5" font-family="Helvetica,sans-Serif" font-size="10.00"> </text>
</a>
</g>
</g>
<!-- Node2 -->
<g id="node2" class="node">
<title>Node2</title>
<g id="a_node2"><a xlink:href="structFeel_1_1StencilRangeMap0Type.html" target="_top" xlink:title=" ">
<polygon fill="white" stroke="black" points="0,-28 0,-96 156,-96 156,-28 0,-28"/>
<text text-anchor="middle" x="78" y="-84" font-family="Helvetica,sans-Serif" font-size="10.00">Feel::StencilRangeMap0Type</text>
<polyline fill="none" stroke="black" points="0,-77 156,-77 "/>
<text text-anchor="middle" x="78" y="-65" font-family="Helvetica,sans-Serif" font-size="10.00"> </text>
<polyline fill="none" stroke="black" points="0,-58 156,-58 "/>
<text text-anchor="start" x="8" y="-46" font-family="Helvetica,sans-Serif" font-size="10.00">+ StencilRangeMap0Type()</text>
<text text-anchor="start" x="8" y="-35" font-family="Helvetica,sans-Serif" font-size="10.00">+ isNullRange()</text>
</a>
</g>
</g>
<!-- Node1&#45;&gt;Node2 -->
<g id="edge1" class="edge">
<title>Node1&#45;&gt;Node2</title>
<path fill="none" stroke="midnightblue" d="M224.52,-168.26C197.6,-148.92 156.09,-119.1 124.11,-96.13"/>
<polygon fill="none" stroke="midnightblue" points="222.55,-171.15 232.71,-174.15 226.63,-165.47 222.55,-171.15"/>
</g>
<!-- Node3 -->
<g id="node3" class="node">
<title>Node3</title>
<g id="a_node3"><a xlink:href="structFeel_1_1StencilRangeMap1Type.html" target="_top" xlink:title=" ">
<polygon fill="white" stroke="black" points="174,-22.5 174,-101.5 330,-101.5 330,-22.5 174,-22.5"/>
<text text-anchor="start" x="182" y="-89.5" font-family="Helvetica,sans-Serif" font-size="10.00">Feel::StencilRangeMap1Type</text>
<text text-anchor="middle" x="252" y="-78.5" font-family="Helvetica,sans-Serif" font-size="10.00">&lt; ThePair1Type &gt;</text>
<polyline fill="none" stroke="black" points="174,-71.5 330,-71.5 "/>
<text text-anchor="middle" x="252" y="-59.5" font-family="Helvetica,sans-Serif" font-size="10.00"> </text>
<polyline fill="none" stroke="black" points="174,-52.5 330,-52.5 "/>
<text text-anchor="start" x="182" y="-40.5" font-family="Helvetica,sans-Serif" font-size="10.00">+ StencilRangeMap1Type()</text>
<text text-anchor="start" x="182" y="-29.5" font-family="Helvetica,sans-Serif" font-size="10.00">+ isNullRange()</text>
</a>
</g>
</g>
<!-- Node1&#45;&gt;Node3 -->
<g id="edge2" class="edge">
<title>Node1&#45;&gt;Node3</title>
<path fill="none" stroke="midnightblue" d="M252,-150.06C252,-134.7 252,-116.99 252,-101.57"/>
<polygon fill="none" stroke="midnightblue" points="248.5,-150.26 252,-160.26 255.5,-150.26 248.5,-150.26"/>
</g>
<!-- Node4 -->
<g id="node4" class="node">
<title>Node4</title>
<g id="a_node4"><a xlink:href="structFeel_1_1StencilRangeMap2Type.html" target="_top" xlink:title=" ">
<polygon fill="white" stroke="black" points="348.5,-0.5 348.5,-123.5 563.5,-123.5 563.5,-0.5 348.5,-0.5"/>
<text text-anchor="start" x="356.5" y="-111.5" font-family="Helvetica,sans-Serif" font-size="10.00">Feel::StencilRangeMap2Type</text>
<text text-anchor="start" x="356.5" y="-100.5" font-family="Helvetica,sans-Serif" font-size="10.00">&lt; fusion::pair&lt; ThePair1Type</text>
<text text-anchor="start" x="356.5" y="-89.5" font-family="Helvetica,sans-Serif" font-size="10.00">::first_type, ThePair1Type</text>
<text text-anchor="start" x="356.5" y="-78.5" font-family="Helvetica,sans-Serif" font-size="10.00">::second_type &gt;, fusion::pair</text>
<text text-anchor="start" x="356.5" y="-67.5" font-family="Helvetica,sans-Serif" font-size="10.00">&lt; ThePair2Type::first_type, ThePair2Type</text>
<text text-anchor="middle" x="456" y="-56.5" font-family="Helvetica,sans-Serif" font-size="10.00">::second_type &gt; &gt;</text>
<polyline fill="none" stroke="black" points="348.5,-49.5 563.5,-49.5 "/>
<text text-anchor="middle" x="456" y="-37.5" font-family="Helvetica,sans-Serif" font-size="10.00"> </text>
<polyline fill="none" stroke="black" points="348.5,-30.5 563.5,-30.5 "/>
<text text-anchor="start" x="356.5" y="-18.5" font-family="Helvetica,sans-Serif" font-size="10.00">+ StencilRangeMap2Type()</text>
<text text-anchor="start" x="356.5" y="-7.5" font-family="Helvetica,sans-Serif" font-size="10.00">+ isNullRange()</text>
</a>
</g>
</g>
<!-- Node1&#45;&gt;Node4 -->
<g id="edge3" class="edge">
<title>Node1&#45;&gt;Node4</title>
<path fill="none" stroke="midnightblue" d="M279.83,-170.95C299.98,-158.6 328.55,-141.09 356.83,-123.77"/>
<polygon fill="none" stroke="midnightblue" points="277.89,-168.03 271.19,-176.24 281.55,-174 277.89,-168.03"/>
</g>
</g>
</svg>
