<?xml version="1.0" encoding="UTF-8" standalone="no"?>
<!DOCTYPE svg PUBLIC "-//W3C//DTD SVG 1.1//EN"
 "http://www.w3.org/Graphics/SVG/1.1/DTD/svg11.dtd">
<!-- Generated by graphviz version 2.43.0 (0)
 -->
<!-- Title: Feel::TabulateInformationsTableAlternative Pages: 1 -->
<svg width="368pt" height="464pt"
 viewBox="0.00 0.00 367.50 464.00" xmlns="http://www.w3.org/2000/svg" xmlns:xlink="http://www.w3.org/1999/xlink">
<g id="graph0" class="graph" transform="scale(1 1) rotate(0) translate(4 460)">
<title>Feel::TabulateInformationsTableAlternative</title>
<polygon fill="white" stroke="transparent" points="-4,4 -4,-460 363.5,-460 363.5,4 -4,4"/>
<!-- Node1 -->
<g id="node1" class="node">
<title>Node1</title>
<g id="a_node1"><a xlink:title="describe informations in table">
<polygon fill="#bfbfbf" stroke="black" points="94.5,-0.5 94.5,-123.5 251.5,-123.5 251.5,-0.5 94.5,-0.5"/>
<text text-anchor="start" x="102.5" y="-111.5" font-family="Helvetica,sans-Serif" font-size="10.00">Feel::TabulateInformations</text>
<text text-anchor="middle" x="173" y="-100.5" font-family="Helvetica,sans-Serif" font-size="10.00">TableAlternative</text>
<polyline fill="none" stroke="black" points="94.5,-93.5 251.5,-93.5 "/>
<text text-anchor="middle" x="173" y="-81.5" font-family="Helvetica,sans-Serif" font-size="10.00"> </text>
<polyline fill="none" stroke="black" points="94.5,-74.5 251.5,-74.5 "/>
<text text-anchor="start" x="102.5" y="-62.5" font-family="Helvetica,sans-Serif" font-size="10.00">+ TabulateInformationsTable</text>
<text text-anchor="start" x="102.5" y="-51.5" font-family="Helvetica,sans-Serif" font-size="10.00">Alternative()</text>
<text text-anchor="start" x="102.5" y="-40.5" font-family="Helvetica,sans-Serif" font-size="10.00">+ TabulateInformationsTable</text>
<text text-anchor="start" x="102.5" y="-29.5" font-family="Helvetica,sans-Serif" font-size="10.00">Alternative()</text>
<text text-anchor="start" x="102.5" y="-18.5" font-family="Helvetica,sans-Serif" font-size="10.00">+ TabulateInformationsTable</text>
<text text-anchor="start" x="102.5" y="-7.5" font-family="Helvetica,sans-Serif" font-size="10.00">Alternative()</text>
</a>
</g>
</g>
<!-- Node2 -->
<g id="node2" class="node">
<title>Node2</title>
<g id="a_node2"><a xlink:href="classFeel_1_1TabulateInformations.html" target="_top" xlink:title="base class that describe informations by tabulate/section design">
<polygon fill="white" stroke="black" points="0,-161.5 0,-350.5 158,-350.5 158,-161.5 0,-161.5"/>
<text text-anchor="middle" x="79" y="-338.5" font-family="Helvetica,sans-Serif" font-size="10.00">Feel::TabulateInformations</text>
<polyline fill="none" stroke="black" points="0,-331.5 158,-331.5 "/>
<text text-anchor="middle" x="79" y="-319.5" font-family="Helvetica,sans-Serif" font-size="10.00"> </text>
<polyline fill="none" stroke="black" points="0,-312.5 158,-312.5 "/>
<text text-anchor="start" x="8" y="-300.5" font-family="Helvetica,sans-Serif" font-size="10.00">+ exporterAscii()</text>
<text text-anchor="start" x="8" y="-289.5" font-family="Helvetica,sans-Serif" font-size="10.00">+ exporterAsciiDoc()</text>
<text text-anchor="start" x="8" y="-278.5" font-family="Helvetica,sans-Serif" font-size="10.00">+ TabulateInformations()</text>
<text text-anchor="start" x="8" y="-267.5" font-family="Helvetica,sans-Serif" font-size="10.00">+ TabulateInformations()</text>
<text text-anchor="start" x="8" y="-256.5" font-family="Helvetica,sans-Serif" font-size="10.00">+ TabulateInformations()</text>
<text text-anchor="start" x="8" y="-245.5" font-family="Helvetica,sans-Serif" font-size="10.00">+ verboseLevel()</text>
<text text-anchor="start" x="8" y="-234.5" font-family="Helvetica,sans-Serif" font-size="10.00">+ ~TabulateInformations()</text>
<text text-anchor="start" x="8" y="-223.5" font-family="Helvetica,sans-Serif" font-size="10.00">+ New()</text>
<text text-anchor="start" x="8" y="-212.5" font-family="Helvetica,sans-Serif" font-size="10.00">+ New()</text>
<text text-anchor="start" x="8" y="-201.5" font-family="Helvetica,sans-Serif" font-size="10.00"># exportAscii()</text>
<text text-anchor="start" x="8" y="-190.5" font-family="Helvetica,sans-Serif" font-size="10.00"># exportAsciiDoc()</text>
<text text-anchor="start" x="8" y="-179.5" font-family="Helvetica,sans-Serif" font-size="10.00"># shared_from_this_tabulate</text>
<text text-anchor="start" x="8" y="-168.5" font-family="Helvetica,sans-Serif" font-size="10.00">_informations()</text>
</a>
</g>
</g>
<!-- Node2&#45;&gt;Node1 -->
<g id="edge1" class="edge">
<title>Node2&#45;&gt;Node1</title>
<path fill="none" stroke="midnightblue" d="M129.43,-151.99C134.16,-142.34 138.83,-132.79 143.27,-123.73"/>
<polygon fill="none" stroke="midnightblue" points="126.15,-150.73 124.9,-161.25 132.44,-153.81 126.15,-150.73"/>
</g>
<!-- Node3 -->
<g id="node3" class="node">
<title>Node3</title>
<g id="a_node3"><a xlink:title=" ">
<polygon fill="white" stroke="#bfbfbf" points="51,-398.5 51,-455.5 107,-455.5 107,-398.5 51,-398.5"/>
<text text-anchor="middle" x="79" y="-443.5" font-family="Helvetica,sans-Serif" font-size="10.00">uint16_t</text>
<polyline fill="none" stroke="#bfbfbf" points="51,-436.5 107,-436.5 "/>
<text text-anchor="middle" x="79" y="-424.5" font-family="Helvetica,sans-Serif" font-size="10.00"> </text>
<polyline fill="none" stroke="#bfbfbf" points="51,-417.5 107,-417.5 "/>
<text text-anchor="middle" x="79" y="-405.5" font-family="Helvetica,sans-Serif" font-size="10.00"> </text>
</a>
</g>
</g>
<!-- Node3&#45;&gt;Node2 -->
<g id="edge2" class="edge">
<title>Node3&#45;&gt;Node2</title>
<path fill="none" stroke="#404040" d="M79,-398.47C79,-388.23 79,-375.9 79,-362.84"/>
<polygon fill="none" stroke="#404040" points="79,-362.69 75,-356.69 79,-350.69 83,-356.69 79,-362.69"/>
<text text-anchor="middle" x="124.5" y="-372" font-family="Helvetica,sans-Serif" font-size="10.00"> #M_verboseLevel</text>
</g>
<!-- Node4 -->
<g id="node4" class="node">
<title>Node4</title>
<g id="a_node4"><a xlink:title=" ">
<polygon fill="white" stroke="#bfbfbf" points="176.5,-216.5 176.5,-295.5 359.5,-295.5 359.5,-216.5 176.5,-216.5"/>
<text text-anchor="start" x="184.5" y="-283.5" font-family="Helvetica,sans-Serif" font-size="10.00">std::enable_shared</text>
<text text-anchor="start" x="184.5" y="-272.5" font-family="Helvetica,sans-Serif" font-size="10.00">_from_this&lt; TabulateInformations</text>
<text text-anchor="middle" x="268" y="-261.5" font-family="Helvetica,sans-Serif" font-size="10.00">TableAlternative &gt;</text>
<polyline fill="none" stroke="#bfbfbf" points="176.5,-254.5 359.5,-254.5 "/>
<text text-anchor="middle" x="268" y="-242.5" font-family="Helvetica,sans-Serif" font-size="10.00"> </text>
<polyline fill="none" stroke="#bfbfbf" points="176.5,-235.5 359.5,-235.5 "/>
<text text-anchor="middle" x="268" y="-223.5" font-family="Helvetica,sans-Serif" font-size="10.00"> </text>
</a>
</g>
</g>
<!-- Node4&#45;&gt;Node1 -->
<g id="edge3" class="edge">
<title>Node4&#45;&gt;Node1</title>
<path fill="none" stroke="midnightblue" d="M244.32,-207.14C231.83,-181.89 216.37,-150.66 203.05,-123.73"/>
<polygon fill="none" stroke="midnightblue" points="241.2,-208.74 248.78,-216.15 247.48,-205.63 241.2,-208.74"/>
</g>
</g>
</svg>
