<?xml version="1.0" encoding="UTF-8" standalone="no"?>
<!DOCTYPE svg PUBLIC "-//W3C//DTD SVG 1.1//EN"
 "http://www.w3.org/Graphics/SVG/1.1/DTD/svg11.dtd">
<!-- Generated by graphviz version 2.43.0 (0)
 -->
<!-- Title: Feel::FsFunctionalLinearComposite&lt; Space &gt; Pages: 1 -->
<svg width="142pt" height="452pt"
 viewBox="0.00 0.00 142.00 452.00" xmlns="http://www.w3.org/2000/svg" xmlns:xlink="http://www.w3.org/1999/xlink">
<g id="graph0" class="graph" transform="scale(1 1) rotate(0) translate(4 448)">
<title>Feel::FsFunctionalLinearComposite&lt; Space &gt;</title>
<polygon fill="white" stroke="transparent" points="-4,4 -4,-448 138,-448 138,4 -4,4"/>
<!-- Node1 -->
<g id="node1" class="node">
<title>Node1</title>
<g id="a_node1"><a xlink:title=" ">
<polygon fill="#bfbfbf" stroke="black" points="0,-0.5 0,-123.5 134,-123.5 134,-0.5 0,-0.5"/>
<text text-anchor="start" x="8" y="-111.5" font-family="Helvetica,sans-Serif" font-size="10.00">Feel::FsFunctionalLinear</text>
<text text-anchor="middle" x="67" y="-100.5" font-family="Helvetica,sans-Serif" font-size="10.00">Composite&lt; Space &gt;</text>
<polyline fill="none" stroke="black" points="0,-93.5 134,-93.5 "/>
<text text-anchor="middle" x="67" y="-81.5" font-family="Helvetica,sans-Serif" font-size="10.00"> </text>
<polyline fill="none" stroke="black" points="0,-74.5 134,-74.5 "/>
<text text-anchor="start" x="8" y="-62.5" font-family="Helvetica,sans-Serif" font-size="10.00">+ addElement()</text>
<text text-anchor="start" x="8" y="-51.5" font-family="Helvetica,sans-Serif" font-size="10.00">+ addElement()</text>
<text text-anchor="start" x="8" y="-40.5" font-family="Helvetica,sans-Serif" font-size="10.00">+ addElement()</text>
<text text-anchor="start" x="8" y="-29.5" font-family="Helvetica,sans-Serif" font-size="10.00">+ addList()</text>
<text text-anchor="start" x="8" y="-18.5" font-family="Helvetica,sans-Serif" font-size="10.00">+ addList()</text>
<text text-anchor="start" x="8" y="-7.5" font-family="Helvetica,sans-Serif" font-size="10.00">and 19 more...</text>
</a>
</g>
</g>
<!-- Node2 -->
<g id="node2" class="node">
<title>Node2</title>
<g id="a_node2"><a xlink:href="classFeel_1_1FsFunctionalLinear.html" target="_top" xlink:title=" ">
<polygon fill="white" stroke="black" points="0,-160.5 0,-283.5 134,-283.5 134,-160.5 0,-160.5"/>
<text text-anchor="start" x="8" y="-271.5" font-family="Helvetica,sans-Serif" font-size="10.00">Feel::FsFunctionalLinear</text>
<text text-anchor="middle" x="67" y="-260.5" font-family="Helvetica,sans-Serif" font-size="10.00">&lt; Space &gt;</text>
<polyline fill="none" stroke="black" points="0,-253.5 134,-253.5 "/>
<text text-anchor="middle" x="67" y="-241.5" font-family="Helvetica,sans-Serif" font-size="10.00"> </text>
<polyline fill="none" stroke="black" points="0,-234.5 134,-234.5 "/>
<text text-anchor="start" x="8" y="-222.5" font-family="Helvetica,sans-Serif" font-size="10.00">+ add()</text>
<text text-anchor="start" x="8" y="-211.5" font-family="Helvetica,sans-Serif" font-size="10.00">+ close()</text>
<text text-anchor="start" x="8" y="-200.5" font-family="Helvetica,sans-Serif" font-size="10.00">+ container()</text>
<text text-anchor="start" x="8" y="-189.5" font-family="Helvetica,sans-Serif" font-size="10.00">+ container()</text>
<text text-anchor="start" x="8" y="-178.5" font-family="Helvetica,sans-Serif" font-size="10.00">+ container()</text>
<text text-anchor="start" x="8" y="-167.5" font-family="Helvetica,sans-Serif" font-size="10.00">and 12 more...</text>
</a>
</g>
</g>
<!-- Node2&#45;&gt;Node1 -->
<g id="edge1" class="edge">
<title>Node2&#45;&gt;Node1</title>
<path fill="none" stroke="midnightblue" d="M67,-150.12C67,-141.31 67,-132.37 67,-123.73"/>
<polygon fill="none" stroke="midnightblue" points="63.5,-150.36 67,-160.36 70.5,-150.36 63.5,-150.36"/>
</g>
<!-- Node3 -->
<g id="node3" class="node">
<title>Node3</title>
<g id="a_node3"><a xlink:href="classFeel_1_1FsFunctional.html" target="_top" xlink:title=" ">
<polygon fill="white" stroke="black" points="14.5,-320.5 14.5,-443.5 119.5,-443.5 119.5,-320.5 14.5,-320.5"/>
<text text-anchor="start" x="22.5" y="-431.5" font-family="Helvetica,sans-Serif" font-size="10.00">Feel::FsFunctional</text>
<text text-anchor="middle" x="67" y="-420.5" font-family="Helvetica,sans-Serif" font-size="10.00">&lt; Space &gt;</text>
<polyline fill="none" stroke="black" points="14.5,-413.5 119.5,-413.5 "/>
<text text-anchor="middle" x="67" y="-401.5" font-family="Helvetica,sans-Serif" font-size="10.00"> </text>
<polyline fill="none" stroke="black" points="14.5,-394.5 119.5,-394.5 "/>
<text text-anchor="start" x="22.5" y="-382.5" font-family="Helvetica,sans-Serif" font-size="10.00">+ FsFunctional()</text>
<text text-anchor="start" x="22.5" y="-371.5" font-family="Helvetica,sans-Serif" font-size="10.00">+ FsFunctional()</text>
<text text-anchor="start" x="22.5" y="-360.5" font-family="Helvetica,sans-Serif" font-size="10.00">+ operator()()</text>
<text text-anchor="start" x="22.5" y="-349.5" font-family="Helvetica,sans-Serif" font-size="10.00">+ setSpace()</text>
<text text-anchor="start" x="22.5" y="-338.5" font-family="Helvetica,sans-Serif" font-size="10.00">+ space()</text>
<text text-anchor="start" x="22.5" y="-327.5" font-family="Helvetica,sans-Serif" font-size="10.00">+ ~FsFunctional()</text>
</a>
</g>
</g>
<!-- Node3&#45;&gt;Node2 -->
<g id="edge2" class="edge">
<title>Node3&#45;&gt;Node2</title>
<path fill="none" stroke="midnightblue" d="M67,-310.12C67,-301.31 67,-292.37 67,-283.73"/>
<polygon fill="none" stroke="midnightblue" points="63.5,-310.36 67,-320.36 70.5,-310.36 63.5,-310.36"/>
</g>
</g>
</svg>
