<?xml version="1.0" encoding="UTF-8" standalone="no"?>
<!DOCTYPE svg PUBLIC "-//W3C//DTD SVG 1.1//EN"
 "http://www.w3.org/Graphics/SVG/1.1/DTD/svg11.dtd">
<!-- Generated by graphviz version 2.43.0 (0)
 -->
<!-- Title: Feel::FeelModels::FluidMechanics&lt; ConvexType, BasisVelocityType, BasisPressureType &gt; Pages: 1 -->
<!--zoomable 1207 -->
<svg id="main" version="1.1" xmlns="http://www.w3.org/2000/svg" xmlns:xlink="http://www.w3.org/1999/xlink" xml:space="preserve" onload="init(evt)">
<style type="text/css"><![CDATA[
.edge:hover path { stroke: red; }
.edge:hover polygon { stroke: red; fill: red; }
]]></style>
<script type="text/javascript"><![CDATA[
var edges = document.getElementsByTagName('g');
if (edges && edges.length) {
  for (var i=0;i<edges.length;i++) {
    if (edges[i].id.substr(0,4)=='edge') {
      edges[i].setAttribute('class','edge');
    }
  }
}
]]></script>
        <defs>
                <circle id="rim" cx="0" cy="0" r="7"/>
                <circle id="rim2" cx="0" cy="0" r="3.5"/>
                <g id="zoomPlus">
                        <use xlink:href="#rim" fill="#404040">
                                <set attributeName="fill" to="#808080" begin="zoomplus.mouseover" end="zoomplus.mouseout"/>
                        </use>
                        <path d="M-4,0h8M0,-4v8" fill="none" stroke="white" stroke-width="1.5" pointer-events="none"/>
                </g>
                <g id="zoomMin">
                        <use xlink:href="#rim" fill="#404040">
                                <set attributeName="fill" to="#808080" begin="zoomminus.mouseover" end="zoomminus.mouseout"/>
                        </use>
                        <path d="M-4,0h8" fill="none" stroke="white" stroke-width="1.5" pointer-events="none"/>
                </g>
                <g id="dirArrow">
                        <path fill="none" stroke="white" stroke-width="1.5" d="M0,-3.0v7 M-2.5,-0.5L0,-3.0L2.5,-0.5"/>
                </g>
               <g id="resetDef">
                       <use xlink:href="#rim2" fill="#404040">
                               <set attributeName="fill" to="#808080" begin="reset.mouseover" end="reset.mouseout"/>
                       </use>
               </g>
        </defs>

<script type="text/javascript">
var viewWidth = 546;
var viewHeight = 1207;
var sectionId = 'dynsection-0';
</script>
<script xlink:href="svgpan.js"/>
<svg id="graph" class="graph">
<g id="viewport">
<title>Feel::FeelModels::FluidMechanics&lt; ConvexType, BasisVelocityType, BasisPressureType &gt;</title>
<polygon fill="white" stroke="transparent" points="-4,4 -4,-1203 542,-1203 542,4 -4,4"/>
<!-- Node1 -->
<g id="node1" class="node">
<title>Node1</title>
<g id="a_node1"><a xlink:title="Fluid Mechanics Toolbox.">
<polygon fill="#bfbfbf" stroke="black" points="228.5,-0.5 228.5,-222.5 447.5,-222.5 447.5,-0.5 228.5,-0.5"/>
<text text-anchor="start" x="236.5" y="-210.5" font-family="Helvetica,sans-Serif" font-size="10.00">Feel::FeelModels::FluidMechanics</text>
<text text-anchor="start" x="236.5" y="-199.5" font-family="Helvetica,sans-Serif" font-size="10.00">&lt; ConvexType, BasisVelocityType,</text>
<text text-anchor="middle" x="338" y="-188.5" font-family="Helvetica,sans-Serif" font-size="10.00"> BasisPressureType &gt;</text>
<polyline fill="none" stroke="black" points="228.5,-181.5 447.5,-181.5 "/>
<text text-anchor="start" x="236.5" y="-169.5" font-family="Helvetica,sans-Serif" font-size="10.00">+ nDim</text>
<text text-anchor="start" x="236.5" y="-158.5" font-family="Helvetica,sans-Serif" font-size="10.00">+ nOrderGeo</text>
<text text-anchor="start" x="236.5" y="-147.5" font-family="Helvetica,sans-Serif" font-size="10.00">+ nOrderPressure</text>
<text text-anchor="start" x="236.5" y="-136.5" font-family="Helvetica,sans-Serif" font-size="10.00">+ nOrderVelocity</text>
<text text-anchor="start" x="236.5" y="-125.5" font-family="Helvetica,sans-Serif" font-size="10.00">+ nRealDim</text>
<text text-anchor="start" x="236.5" y="-114.5" font-family="Helvetica,sans-Serif" font-size="10.00">+ useMixedBasis</text>
<polyline fill="none" stroke="black" points="228.5,-107.5 447.5,-107.5 "/>
<text text-anchor="start" x="236.5" y="-95.5" font-family="Helvetica,sans-Serif" font-size="10.00">+ addUpdateInHousePreconditionerPCD()</text>
<text text-anchor="start" x="236.5" y="-84.5" font-family="Helvetica,sans-Serif" font-size="10.00">+ applyCIPStabOnlyOnBoundary</text>
<text text-anchor="start" x="236.5" y="-73.5" font-family="Helvetica,sans-Serif" font-size="10.00">Faces()</text>
<text text-anchor="start" x="236.5" y="-62.5" font-family="Helvetica,sans-Serif" font-size="10.00">+ applyCIPStabOnlyOnBoundary</text>
<text text-anchor="start" x="236.5" y="-51.5" font-family="Helvetica,sans-Serif" font-size="10.00">Faces()</text>
<text text-anchor="start" x="236.5" y="-40.5" font-family="Helvetica,sans-Serif" font-size="10.00">+ applyMovingMeshBeforeSolve()</text>
<text text-anchor="start" x="236.5" y="-29.5" font-family="Helvetica,sans-Serif" font-size="10.00">+ applyRemesh()</text>
<text text-anchor="start" x="236.5" y="-18.5" font-family="Helvetica,sans-Serif" font-size="10.00">and 193 more...</text>
<text text-anchor="start" x="236.5" y="-7.5" font-family="Helvetica,sans-Serif" font-size="10.00">+ New()</text>
</a>
</g>
</g>
<!-- Node2 -->
<g id="node2" class="node">
<title>Node2</title>
<g id="a_node2"><a xlink:href="classFeel_1_1FeelModels_1_1ModelNumerical.html" target="_top" xlink:title="Handles some numerical model aspects: timestepping, mesh and properties.">
<polygon fill="white" stroke="black" points="135,-259.5 135,-470.5 337,-470.5 337,-259.5 135,-259.5"/>
<text text-anchor="middle" x="236" y="-458.5" font-family="Helvetica,sans-Serif" font-size="10.00">Feel::FeelModels::ModelNumerical</text>
<polyline fill="none" stroke="black" points="135,-451.5 337,-451.5 "/>
<text text-anchor="middle" x="236" y="-439.5" font-family="Helvetica,sans-Serif" font-size="10.00"> </text>
<polyline fill="none" stroke="black" points="135,-432.5 337,-432.5 "/>
<text text-anchor="start" x="143" y="-420.5" font-family="Helvetica,sans-Serif" font-size="10.00">+ checkResults()</text>
<text text-anchor="start" x="143" y="-409.5" font-family="Helvetica,sans-Serif" font-size="10.00">+ checkResults()</text>
<text text-anchor="start" x="143" y="-398.5" font-family="Helvetica,sans-Serif" font-size="10.00">+ createBdf()</text>
<text text-anchor="start" x="143" y="-387.5" font-family="Helvetica,sans-Serif" font-size="10.00">+ currentTime()</text>
<text text-anchor="start" x="143" y="-376.5" font-family="Helvetica,sans-Serif" font-size="10.00">+ doRestart()</text>
<text text-anchor="start" x="143" y="-365.5" font-family="Helvetica,sans-Serif" font-size="10.00">and 53 more...</text>
<text text-anchor="start" x="143" y="-354.5" font-family="Helvetica,sans-Serif" font-size="10.00"># addPostProcessExportsAll</text>
<text text-anchor="start" x="143" y="-343.5" font-family="Helvetica,sans-Serif" font-size="10.00">FieldsAvailable()</text>
<text text-anchor="start" x="143" y="-332.5" font-family="Helvetica,sans-Serif" font-size="10.00"># addPostProcessExportsAll</text>
<text text-anchor="start" x="143" y="-321.5" font-family="Helvetica,sans-Serif" font-size="10.00">FieldsAvailable()</text>
<text text-anchor="start" x="143" y="-310.5" font-family="Helvetica,sans-Serif" font-size="10.00"># addPostProcessMeasuresQuantities</text>
<text text-anchor="start" x="143" y="-299.5" font-family="Helvetica,sans-Serif" font-size="10.00">AllNamesAvailable()</text>
<text text-anchor="start" x="143" y="-288.5" font-family="Helvetica,sans-Serif" font-size="10.00"># initPostProcess()</text>
<text text-anchor="start" x="143" y="-277.5" font-family="Helvetica,sans-Serif" font-size="10.00"># initPostProcessMeshes()</text>
<text text-anchor="start" x="143" y="-266.5" font-family="Helvetica,sans-Serif" font-size="10.00">and 10 more...</text>
</a>
</g>
</g>
<!-- Node2&#45;&gt;Node1 -->
<g id="edge1" class="edge">
<title>Node2&#45;&gt;Node1</title>
<path fill="none" stroke="midnightblue" d="M282.3,-249.84C285.94,-240.86 289.62,-231.8 293.25,-222.85"/>
<polygon fill="none" stroke="midnightblue" points="279.03,-248.58 278.52,-259.16 285.52,-251.21 279.03,-248.58"/>
</g>
<!-- Node3 -->
<g id="node3" class="node">
<title>Node3</title>
<g id="a_node3"><a xlink:href="classFeel_1_1FeelModels_1_1ModelBase.html" target="_top" xlink:title=" ">
<polygon fill="white" stroke="black" points="81,-667.5 81,-779.5 273,-779.5 273,-667.5 81,-667.5"/>
<text text-anchor="middle" x="177" y="-767.5" font-family="Helvetica,sans-Serif" font-size="10.00">Feel::FeelModels::ModelBase</text>
<polyline fill="none" stroke="black" points="81,-760.5 273,-760.5 "/>
<text text-anchor="middle" x="177" y="-748.5" font-family="Helvetica,sans-Serif" font-size="10.00"> </text>
<polyline fill="none" stroke="black" points="81,-741.5 273,-741.5 "/>
<text text-anchor="start" x="89" y="-729.5" font-family="Helvetica,sans-Serif" font-size="10.00">+ addParameterInModelProperties()</text>
<text text-anchor="start" x="89" y="-718.5" font-family="Helvetica,sans-Serif" font-size="10.00">+ addTimerTool()</text>
<text text-anchor="start" x="89" y="-707.5" font-family="Helvetica,sans-Serif" font-size="10.00">+ clovm()</text>
<text text-anchor="start" x="89" y="-696.5" font-family="Helvetica,sans-Serif" font-size="10.00">+ createWorldsComm()</text>
<text text-anchor="start" x="89" y="-685.5" font-family="Helvetica,sans-Serif" font-size="10.00">+ hasModelProperties()</text>
<text text-anchor="start" x="89" y="-674.5" font-family="Helvetica,sans-Serif" font-size="10.00">and 53 more...</text>
</a>
</g>
</g>
<!-- Node3&#45;&gt;Node2 -->
<g id="edge2" class="edge">
<title>Node3&#45;&gt;Node2</title>
<path fill="none" stroke="midnightblue" d="M144.82,-657.67C141.61,-648.89 138.85,-639.85 137,-631 125.72,-577.05 120.39,-559.55 137,-507 140.92,-494.59 146.37,-482.33 152.71,-470.53"/>
<polygon fill="none" stroke="midnightblue" points="141.59,-659.03 148.47,-667.09 148.12,-656.5 141.59,-659.03"/>
</g>
<!-- Node7 -->
<g id="node7" class="node">
<title>Node7</title>
<g id="a_node7"><a xlink:href="classFeel_1_1FeelModels_1_1ModelAlgebraic.html" target="_top" xlink:title=" ">
<polygon fill="white" stroke="black" points="146,-513 146,-625 326,-625 326,-513 146,-513"/>
<text text-anchor="middle" x="236" y="-613" font-family="Helvetica,sans-Serif" font-size="10.00">Feel::FeelModels::ModelAlgebraic</text>
<polyline fill="none" stroke="black" points="146,-606 326,-606 "/>
<text text-anchor="middle" x="236" y="-594" font-family="Helvetica,sans-Serif" font-size="10.00"> </text>
<polyline fill="none" stroke="black" points="146,-587 326,-587 "/>
<text text-anchor="start" x="154" y="-575" font-family="Helvetica,sans-Serif" font-size="10.00">+ algebraicBackend()</text>
<text text-anchor="start" x="154" y="-564" font-family="Helvetica,sans-Serif" font-size="10.00">+ algebraicBlockVectorSolution()</text>
<text text-anchor="start" x="154" y="-553" font-family="Helvetica,sans-Serif" font-size="10.00">+ algebraicFactory()</text>
<text text-anchor="start" x="154" y="-542" font-family="Helvetica,sans-Serif" font-size="10.00">+ backend()</text>
<text text-anchor="start" x="154" y="-531" font-family="Helvetica,sans-Serif" font-size="10.00">+ blockPattern()</text>
<text text-anchor="start" x="154" y="-520" font-family="Helvetica,sans-Serif" font-size="10.00">and 75 more...</text>
</a>
</g>
</g>
<!-- Node3&#45;&gt;Node7 -->
<g id="edge7" class="edge">
<title>Node3&#45;&gt;Node7</title>
<path fill="none" stroke="midnightblue" d="M201.96,-657.98C206.18,-647.08 210.52,-635.86 214.63,-625.23"/>
<polygon fill="none" stroke="midnightblue" points="198.64,-656.85 198.3,-667.44 205.17,-659.38 198.64,-656.85"/>
</g>
<!-- Node4 -->
<g id="node4" class="node">
<title>Node4</title>
<g id="a_node4"><a xlink:href="classFeel_1_1JournalWatcher.html" target="_top" xlink:title=" ">
<polygon fill="white" stroke="black" points="0,-816.5 0,-1104.5 176,-1104.5 176,-816.5 0,-816.5"/>
<text text-anchor="middle" x="88" y="-1092.5" font-family="Helvetica,sans-Serif" font-size="10.00">Feel::JournalWatcher</text>
<polyline fill="none" stroke="black" points="0,-1085.5 176,-1085.5 "/>
<text text-anchor="middle" x="88" y="-1073.5" font-family="Helvetica,sans-Serif" font-size="10.00"> </text>
<polyline fill="none" stroke="black" points="0,-1066.5 176,-1066.5 "/>
<text text-anchor="start" x="8" y="-1054.5" font-family="Helvetica,sans-Serif" font-size="10.00">* JournalWatcher()</text>
<text text-anchor="start" x="8" y="-1043.5" font-family="Helvetica,sans-Serif" font-size="10.00">* JournalWatcher()</text>
<text text-anchor="start" x="8" y="-1032.5" font-family="Helvetica,sans-Serif" font-size="10.00">* JournalWatcher()</text>
<text text-anchor="start" x="8" y="-1021.5" font-family="Helvetica,sans-Serif" font-size="10.00">* JournalWatcher()</text>
<text text-anchor="start" x="8" y="-1010.5" font-family="Helvetica,sans-Serif" font-size="10.00">* ~JournalWatcher()</text>
<text text-anchor="start" x="8" y="-999.5" font-family="Helvetica,sans-Serif" font-size="10.00">* journalIsConnected()</text>
<text text-anchor="start" x="8" y="-988.5" font-family="Helvetica,sans-Serif" font-size="10.00">* journalWatcherInstanceName()</text>
<text text-anchor="start" x="8" y="-977.5" font-family="Helvetica,sans-Serif" font-size="10.00">* journalSection()</text>
<text text-anchor="start" x="8" y="-966.5" font-family="Helvetica,sans-Serif" font-size="10.00">* informationObject()</text>
<text text-anchor="start" x="8" y="-955.5" font-family="Helvetica,sans-Serif" font-size="10.00">* journalConnect()</text>
<text text-anchor="start" x="8" y="-944.5" font-family="Helvetica,sans-Serif" font-size="10.00">* journalDisconnect()</text>
<text text-anchor="start" x="8" y="-933.5" font-family="Helvetica,sans-Serif" font-size="10.00">* updateInformationObject()</text>
<text text-anchor="start" x="8" y="-922.5" font-family="Helvetica,sans-Serif" font-size="10.00">* setInformationObject()</text>
<text text-anchor="start" x="8" y="-911.5" font-family="Helvetica,sans-Serif" font-size="10.00">* putInformationObject()</text>
<text text-anchor="start" x="8" y="-900.5" font-family="Helvetica,sans-Serif" font-size="10.00">and 4 more...</text>
<text text-anchor="start" x="8" y="-889.5" font-family="Helvetica,sans-Serif" font-size="10.00">* M_journal_is_connected</text>
<text text-anchor="start" x="8" y="-878.5" font-family="Helvetica,sans-Serif" font-size="10.00">* M_category</text>
<text text-anchor="start" x="8" y="-867.5" font-family="Helvetica,sans-Serif" font-size="10.00">* M_name</text>
<text text-anchor="start" x="8" y="-856.5" font-family="Helvetica,sans-Serif" font-size="10.00">* M_function_updateInformation</text>
<text text-anchor="start" x="8" y="-845.5" font-family="Helvetica,sans-Serif" font-size="10.00">Object</text>
<text text-anchor="start" x="8" y="-834.5" font-family="Helvetica,sans-Serif" font-size="10.00">* M_informationObject</text>
<text text-anchor="start" x="8" y="-823.5" font-family="Helvetica,sans-Serif" font-size="10.00">* S_counterObjectByCategory</text>
</a>
</g>
</g>
<!-- Node4&#45;&gt;Node3 -->
<g id="edge3" class="edge">
<title>Node4&#45;&gt;Node3</title>
<path fill="none" stroke="midnightblue" d="M145.85,-806.76C149.45,-797.25 152.92,-788.08 156.16,-779.53"/>
<polygon fill="none" stroke="midnightblue" points="142.48,-805.78 142.21,-816.37 149.02,-808.25 142.48,-805.78"/>
</g>
<!-- Node5 -->
<g id="node5" class="node">
<title>Node5</title>
<g id="a_node5"><a xlink:title=" ">
<polygon fill="white" stroke="#bfbfbf" points="34.5,-1141.5 34.5,-1198.5 141.5,-1198.5 141.5,-1141.5 34.5,-1141.5"/>
<text text-anchor="middle" x="88" y="-1186.5" font-family="Helvetica,sans-Serif" font-size="10.00">Event::SlotHandler</text>
<polyline fill="none" stroke="#bfbfbf" points="34.5,-1179.5 141.5,-1179.5 "/>
<text text-anchor="middle" x="88" y="-1167.5" font-family="Helvetica,sans-Serif" font-size="10.00"> </text>
<polyline fill="none" stroke="#bfbfbf" points="34.5,-1160.5 141.5,-1160.5 "/>
<text text-anchor="middle" x="88" y="-1148.5" font-family="Helvetica,sans-Serif" font-size="10.00"> </text>
</a>
</g>
</g>
<!-- Node5&#45;&gt;Node4 -->
<g id="edge4" class="edge">
<title>Node5&#45;&gt;Node4</title>
<path fill="none" stroke="midnightblue" d="M88,-1131.38C88,-1123.29 88,-1114.28 88,-1104.76"/>
<polygon fill="none" stroke="midnightblue" points="84.5,-1131.45 88,-1141.45 91.5,-1131.45 84.5,-1131.45"/>
</g>
<!-- Node6 -->
<g id="node6" class="node">
<title>Node6</title>
<g id="a_node6"><a xlink:title=" ">
<polygon fill="white" stroke="#bfbfbf" points="194.5,-926.5 194.5,-994.5 339.5,-994.5 339.5,-926.5 194.5,-926.5"/>
<text text-anchor="start" x="202.5" y="-982.5" font-family="Helvetica,sans-Serif" font-size="10.00">std::enable_shared</text>
<text text-anchor="middle" x="267" y="-971.5" font-family="Helvetica,sans-Serif" font-size="10.00">_from_this&lt; ModelBase &gt;</text>
<polyline fill="none" stroke="#bfbfbf" points="194.5,-964.5 339.5,-964.5 "/>
<text text-anchor="middle" x="267" y="-952.5" font-family="Helvetica,sans-Serif" font-size="10.00"> </text>
<polyline fill="none" stroke="#bfbfbf" points="194.5,-945.5 339.5,-945.5 "/>
<text text-anchor="middle" x="267" y="-933.5" font-family="Helvetica,sans-Serif" font-size="10.00"> </text>
</a>
</g>
</g>
<!-- Node6&#45;&gt;Node3 -->
<g id="edge5" class="edge">
<title>Node6&#45;&gt;Node3</title>
<path fill="none" stroke="midnightblue" d="M250.71,-916.97C235.98,-878.5 214.2,-821.63 198.13,-779.68"/>
<polygon fill="none" stroke="midnightblue" points="247.45,-918.24 254.3,-926.33 253.99,-915.74 247.45,-918.24"/>
</g>
<!-- Node7&#45;&gt;Node2 -->
<g id="edge6" class="edge">
<title>Node7&#45;&gt;Node2</title>
<path fill="none" stroke="midnightblue" d="M236,-502.77C236,-492.52 236,-481.71 236,-470.85"/>
<polygon fill="none" stroke="midnightblue" points="232.5,-502.8 236,-512.8 239.5,-502.8 232.5,-502.8"/>
</g>
<!-- Node8 -->
<g id="node8" class="node">
<title>Node8</title>
<g id="a_node8"><a xlink:href="classFeel_1_1FeelModels_1_1ModelMeshes.html" target="_top" xlink:title=" ">
<polygon fill="white" stroke="black" points="344,-507.5 344,-630.5 538,-630.5 538,-507.5 344,-507.5"/>
<text text-anchor="start" x="352" y="-618.5" font-family="Helvetica,sans-Serif" font-size="10.00">Feel::FeelModels::ModelMeshes</text>
<text text-anchor="middle" x="441" y="-607.5" font-family="Helvetica,sans-Serif" font-size="10.00">&lt; ModelAlgebraic::index_type &gt;</text>
<polyline fill="none" stroke="black" points="344,-600.5 538,-600.5 "/>
<text text-anchor="middle" x="441" y="-588.5" font-family="Helvetica,sans-Serif" font-size="10.00"> </text>
<polyline fill="none" stroke="black" points="344,-581.5 538,-581.5 "/>
<text text-anchor="start" x="352" y="-569.5" font-family="Helvetica,sans-Serif" font-size="10.00">+ applyRemesh()</text>
<text text-anchor="start" x="352" y="-558.5" font-family="Helvetica,sans-Serif" font-size="10.00">+ hasMeshMotion()</text>
<text text-anchor="start" x="352" y="-547.5" font-family="Helvetica,sans-Serif" font-size="10.00">+ hasModelMesh()</text>
<text text-anchor="start" x="352" y="-536.5" font-family="Helvetica,sans-Serif" font-size="10.00">+ initMeasurePointsEvaluationTool()</text>
<text text-anchor="start" x="352" y="-525.5" font-family="Helvetica,sans-Serif" font-size="10.00">+ measurePointsEvaluationTool()</text>
<text text-anchor="start" x="352" y="-514.5" font-family="Helvetica,sans-Serif" font-size="10.00">and 23 more...</text>
</a>
</g>
</g>
<!-- Node8&#45;&gt;Node2 -->
<g id="edge8" class="edge">
<title>Node8&#45;&gt;Node2</title>
<path fill="none" stroke="midnightblue" d="M372.21,-500.22C360.98,-489.15 349.14,-477.49 337.33,-465.85"/>
<polygon fill="none" stroke="midnightblue" points="369.91,-502.87 379.49,-507.39 374.83,-497.88 369.91,-502.87"/>
</g>
<!-- Node9 -->
<g id="node9" class="node">
<title>Node9</title>
<g id="a_node9"><a xlink:href="classFeel_1_1FeelModels_1_1ModelPhysics.html" target="_top" xlink:title=" ">
<polygon fill="white" stroke="black" points="355.5,-281.5 355.5,-448.5 526.5,-448.5 526.5,-281.5 355.5,-281.5"/>
<text text-anchor="start" x="363.5" y="-436.5" font-family="Helvetica,sans-Serif" font-size="10.00">Feel::FeelModels::ModelPhysics</text>
<text text-anchor="middle" x="441" y="-425.5" font-family="Helvetica,sans-Serif" font-size="10.00">&lt; ConvexType::nDim &gt;</text>
<polyline fill="none" stroke="black" points="355.5,-418.5 526.5,-418.5 "/>
<text text-anchor="start" x="363.5" y="-406.5" font-family="Helvetica,sans-Serif" font-size="10.00">+ nDim</text>
<text text-anchor="start" x="363.5" y="-395.5" font-family="Helvetica,sans-Serif" font-size="10.00"># M_physicModeling</text>
<text text-anchor="start" x="363.5" y="-384.5" font-family="Helvetica,sans-Serif" font-size="10.00"># M_physics</text>
<polyline fill="none" stroke="black" points="355.5,-377.5 526.5,-377.5 "/>
<text text-anchor="start" x="363.5" y="-365.5" font-family="Helvetica,sans-Serif" font-size="10.00">+ addPhysics()</text>
<text text-anchor="start" x="363.5" y="-354.5" font-family="Helvetica,sans-Serif" font-size="10.00">+ hasPhysic()</text>
<text text-anchor="start" x="363.5" y="-343.5" font-family="Helvetica,sans-Serif" font-size="10.00">+ initPhysics()</text>
<text text-anchor="start" x="363.5" y="-332.5" font-family="Helvetica,sans-Serif" font-size="10.00">+ initPhysics()</text>
<text text-anchor="start" x="363.5" y="-321.5" font-family="Helvetica,sans-Serif" font-size="10.00">+ ModelPhysics()</text>
<text text-anchor="start" x="363.5" y="-310.5" font-family="Helvetica,sans-Serif" font-size="10.00">and 18 more...</text>
<text text-anchor="start" x="363.5" y="-299.5" font-family="Helvetica,sans-Serif" font-size="10.00"># initPhysics()</text>
<text text-anchor="start" x="363.5" y="-288.5" font-family="Helvetica,sans-Serif" font-size="10.00"># updatePhysics()</text>
</a>
</g>
</g>
<!-- Node9&#45;&gt;Node1 -->
<g id="edge9" class="edge">
<title>Node9&#45;&gt;Node1</title>
<path fill="none" stroke="midnightblue" d="M403.31,-271.96C396.74,-255.93 389.85,-239.11 383.11,-222.65"/>
<polygon fill="none" stroke="midnightblue" points="400.1,-273.37 407.13,-281.3 406.58,-270.72 400.1,-273.37"/>
</g>
</g>
</svg>
        <g id="navigator" transform="translate(0 0)" fill="#404254">
                <rect fill="#f2f5e9" fill-opacity="0.5" stroke="#606060" stroke-width=".5" x="0" y="0" width="60" height="60"/>
                <use id="zoomplus" xlink:href="#zoomPlus" x="17" y="9" onmousedown="handleZoom(evt,'in')"/>
                <use id="zoomminus" xlink:href="#zoomMin" x="42" y="9" onmousedown="handleZoom(evt,'out')"/>
                <use id="reset" xlink:href="#resetDef" x="30" y="36" onmousedown="handleReset()"/>
                <g id="arrowUp" xlink:href="#dirArrow" transform="translate(30 24)" onmousedown="handlePan(0,-1)">
                  <use xlink:href="#rim" fill="#404040">
                        <set attributeName="fill" to="#808080" begin="arrowUp.mouseover" end="arrowUp.mouseout"/>
                  </use>
                  <path fill="none" stroke="white" stroke-width="1.5" d="M0,-3.0v7 M-2.5,-0.5L0,-3.0L2.5,-0.5"/>
                </g>
                <g id="arrowRight" xlink:href="#dirArrow" transform="rotate(90) translate(36 -43)" onmousedown="handlePan(1,0)">
                  <use xlink:href="#rim" fill="#404040">
                        <set attributeName="fill" to="#808080" begin="arrowRight.mouseover" end="arrowRight.mouseout"/>
                  </use>
                  <path fill="none" stroke="white" stroke-width="1.5" d="M0,-3.0v7 M-2.5,-0.5L0,-3.0L2.5,-0.5"/>
                </g>
                <g id="arrowDown" xlink:href="#dirArrow" transform="rotate(180) translate(-30 -48)" onmousedown="handlePan(0,1)">
                  <use xlink:href="#rim" fill="#404040">
                        <set attributeName="fill" to="#808080" begin="arrowDown.mouseover" end="arrowDown.mouseout"/>
                  </use>
                  <path fill="none" stroke="white" stroke-width="1.5" d="M0,-3.0v7 M-2.5,-0.5L0,-3.0L2.5,-0.5"/>
                </g>
                <g id="arrowLeft" xlink:href="#dirArrow" transform="rotate(270) translate(-36 17)" onmousedown="handlePan(-1,0)">
                  <use xlink:href="#rim" fill="#404040">
                        <set attributeName="fill" to="#808080" begin="arrowLeft.mouseover" end="arrowLeft.mouseout"/>
                  </use>
                  <path fill="none" stroke="white" stroke-width="1.5" d="M0,-3.0v7 M-2.5,-0.5L0,-3.0L2.5,-0.5"/>
                </g>
        </g>
        <svg viewBox="0 0 15 15" width="100%" height="30px" preserveAspectRatio="xMaxYMin meet">
         <g id="arrow_out" transform="scale(0.3 0.3)">
          <a xlink:href="classFeel_1_1FeelModels_1_1FluidMechanics__inherit__graph_org.svg" target="_base">
           <rect id="button" ry="5" rx="5" y="6" x="6" height="38" width="38"
                fill="#f2f5e9" fill-opacity="0.5" stroke="#606060" stroke-width="1.0"/>
           <path id="arrow"
             d="M 11.500037,31.436501 C 11.940474,20.09759 22.043105,11.32322 32.158766,21.979434 L 37.068811,17.246167 C 37.068811,17.246167 37.088388,32 37.088388,32 L 22.160133,31.978069 C 22.160133,31.978069 26.997745,27.140456 26.997745,27.140456 C 18.528582,18.264221 13.291696,25.230495 11.500037,31.436501 z"
             style="fill:#404040;"/>
          </a>
         </g>
        </svg>
</svg>
