<?xml version="1.0" encoding="UTF-8" standalone="no"?>
<!DOCTYPE svg PUBLIC "-//W3C//DTD SVG 1.1//EN"
 "http://www.w3.org/Graphics/SVG/1.1/DTD/svg11.dtd">
<!-- Generated by graphviz version 2.43.0 (0)
 -->
<!-- Title: Feel::SubFaceOf&lt; ElementType &gt; Pages: 1 -->
<svg width="280pt" height="237pt"
 viewBox="0.00 0.00 279.50 237.00" xmlns="http://www.w3.org/2000/svg" xmlns:xlink="http://www.w3.org/1999/xlink">
<g id="graph0" class="graph" transform="scale(1 1) rotate(0) translate(4 233)">
<title>Feel::SubFaceOf&lt; ElementType &gt;</title>
<polygon fill="white" stroke="transparent" points="-4,4 -4,-233 275.5,-233 275.5,4 -4,4"/>
<!-- Node1 -->
<g id="node1" class="node">
<title>Node1</title>
<g id="a_node1"><a xlink:title=" ">
<polygon fill="#bfbfbf" stroke="black" points="58.5,-0.5 58.5,-123.5 204.5,-123.5 204.5,-0.5 58.5,-0.5"/>
<text text-anchor="start" x="66.5" y="-111.5" font-family="Helvetica,sans-Serif" font-size="10.00">Feel::SubFaceOf&lt; Element</text>
<text text-anchor="middle" x="131.5" y="-100.5" font-family="Helvetica,sans-Serif" font-size="10.00">Type &gt;</text>
<polyline fill="none" stroke="black" points="58.5,-93.5 204.5,-93.5 "/>
<text text-anchor="middle" x="131.5" y="-81.5" font-family="Helvetica,sans-Serif" font-size="10.00"> </text>
<polyline fill="none" stroke="black" points="58.5,-74.5 204.5,-74.5 "/>
<text text-anchor="start" x="66.5" y="-62.5" font-family="Helvetica,sans-Serif" font-size="10.00">+ ad_first()</text>
<text text-anchor="start" x="66.5" y="-51.5" font-family="Helvetica,sans-Serif" font-size="10.00">+ ad_second()</text>
<text text-anchor="start" x="66.5" y="-40.5" font-family="Helvetica,sans-Serif" font-size="10.00">+ connection0()</text>
<text text-anchor="start" x="66.5" y="-29.5" font-family="Helvetica,sans-Serif" font-size="10.00">+ connection1()</text>
<text text-anchor="start" x="66.5" y="-18.5" font-family="Helvetica,sans-Serif" font-size="10.00">+ disconnect()</text>
<text text-anchor="start" x="66.5" y="-7.5" font-family="Helvetica,sans-Serif" font-size="10.00">and 37 more...</text>
</a>
</g>
</g>
<!-- Node2 -->
<g id="node2" class="node">
<title>Node2</title>
<g id="a_node2"><a xlink:href="structFeel_1_1SubFaceOfBase.html" target="_top" xlink:title=" ">
<polygon fill="white" stroke="black" points="0,-171.5 0,-228.5 119,-228.5 119,-171.5 0,-171.5"/>
<text text-anchor="middle" x="59.5" y="-216.5" font-family="Helvetica,sans-Serif" font-size="10.00">Feel::SubFaceOfBase</text>
<polyline fill="none" stroke="black" points="0,-209.5 119,-209.5 "/>
<text text-anchor="middle" x="59.5" y="-197.5" font-family="Helvetica,sans-Serif" font-size="10.00"> </text>
<polyline fill="none" stroke="black" points="0,-190.5 119,-190.5 "/>
<text text-anchor="middle" x="59.5" y="-178.5" font-family="Helvetica,sans-Serif" font-size="10.00"> </text>
</a>
</g>
</g>
<!-- Node2&#45;&gt;Node1 -->
<g id="edge1" class="edge">
<title>Node2&#45;&gt;Node1</title>
<path fill="none" stroke="midnightblue" d="M78.93,-162.31C85.24,-150.38 92.42,-136.82 99.41,-123.62"/>
<polygon fill="none" stroke="midnightblue" points="75.66,-161 74.07,-171.48 81.84,-164.28 75.66,-161"/>
</g>
<!-- Node3 -->
<g id="node3" class="node">
<title>Node3</title>
<g id="a_node3"><a xlink:title=" ">
<polygon fill="white" stroke="#bfbfbf" points="137.5,-171.5 137.5,-228.5 271.5,-228.5 271.5,-171.5 137.5,-171.5"/>
<text text-anchor="middle" x="204.5" y="-216.5" font-family="Helvetica,sans-Serif" font-size="10.00">static const uint16_type</text>
<polyline fill="none" stroke="#bfbfbf" points="137.5,-209.5 271.5,-209.5 "/>
<text text-anchor="middle" x="204.5" y="-197.5" font-family="Helvetica,sans-Serif" font-size="10.00"> </text>
<polyline fill="none" stroke="#bfbfbf" points="137.5,-190.5 271.5,-190.5 "/>
<text text-anchor="middle" x="204.5" y="-178.5" font-family="Helvetica,sans-Serif" font-size="10.00"> </text>
</a>
</g>
</g>
<!-- Node3&#45;&gt;Node1 -->
<g id="edge2" class="edge">
<title>Node3&#45;&gt;Node1</title>
<path fill="none" stroke="#404040" d="M189.73,-171.48C183.88,-160.58 176.85,-147.49 169.74,-134.24"/>
<polygon fill="none" stroke="#404040" points="169.72,-134.2 163.35,-130.8 164.04,-123.62 170.4,-127.02 169.72,-134.2"/>
<text text-anchor="middle" x="197.5" y="-145" font-family="Helvetica,sans-Serif" font-size="10.00"> +nDim</text>
</g>
</g>
</svg>
