<?xml version="1.0" encoding="UTF-8" standalone="no"?>
<!DOCTYPE svg PUBLIC "-//W3C//DTD SVG 1.1//EN"
 "http://www.w3.org/Graphics/SVG/1.1/DTD/svg11.dtd">
<!-- Generated by graphviz version 2.43.0 (0)
 -->
<!-- Title: Feel::FeelModels::ModelField&lt; Ctx, ModelFieldTagType, FieldType &gt; Pages: 1 -->
<svg width="202pt" height="354pt"
 viewBox="0.00 0.00 202.00 354.00" xmlns="http://www.w3.org/2000/svg" xmlns:xlink="http://www.w3.org/1999/xlink">
<g id="graph0" class="graph" transform="scale(1 1) rotate(0) translate(4 350)">
<title>Feel::FeelModels::ModelField&lt; Ctx, ModelFieldTagType, FieldType &gt;</title>
<polygon fill="white" stroke="transparent" points="-4,4 -4,-350 198,-350 198,4 -4,4"/>
<!-- Node1 -->
<g id="node1" class="node">
<title>Node1</title>
<g id="a_node1"><a xlink:title=" ">
<polygon fill="#bfbfbf" stroke="black" points="18,-0.5 18,-134.5 176,-134.5 176,-0.5 18,-0.5"/>
<text text-anchor="start" x="26" y="-122.5" font-family="Helvetica,sans-Serif" font-size="10.00">Feel::FeelModels::ModelField</text>
<text text-anchor="start" x="26" y="-111.5" font-family="Helvetica,sans-Serif" font-size="10.00">&lt; Ctx, ModelFieldTagType,</text>
<text text-anchor="middle" x="97" y="-100.5" font-family="Helvetica,sans-Serif" font-size="10.00"> FieldType &gt;</text>
<polyline fill="none" stroke="black" points="18,-93.5 176,-93.5 "/>
<text text-anchor="middle" x="97" y="-81.5" font-family="Helvetica,sans-Serif" font-size="10.00"> </text>
<polyline fill="none" stroke="black" points="18,-74.5 176,-74.5 "/>
<text text-anchor="start" x="26" y="-62.5" font-family="Helvetica,sans-Serif" font-size="10.00">+ add()</text>
<text text-anchor="start" x="26" y="-51.5" font-family="Helvetica,sans-Serif" font-size="10.00">+ ModelField()</text>
<text text-anchor="start" x="26" y="-40.5" font-family="Helvetica,sans-Serif" font-size="10.00">+ ModelField()</text>
<text text-anchor="start" x="26" y="-29.5" font-family="Helvetica,sans-Serif" font-size="10.00">+ ModelField()</text>
<text text-anchor="start" x="26" y="-18.5" font-family="Helvetica,sans-Serif" font-size="10.00">+ ModelField()</text>
<text text-anchor="start" x="26" y="-7.5" font-family="Helvetica,sans-Serif" font-size="10.00">and 4 more...</text>
</a>
</g>
</g>
<!-- Node2 -->
<g id="node2" class="node">
<title>Node2</title>
<g id="a_node2"><a xlink:title="STL class.">
<polygon fill="white" stroke="#bfbfbf" points="0,-172.5 0,-240.5 194,-240.5 194,-172.5 0,-172.5"/>
<text text-anchor="start" x="8" y="-228.5" font-family="Helvetica,sans-Serif" font-size="10.00">std::vector&lt; ModelField1</text>
<text text-anchor="middle" x="97" y="-217.5" font-family="Helvetica,sans-Serif" font-size="10.00">&lt; ModelFieldTagType, FieldType &gt; &gt;</text>
<polyline fill="none" stroke="#bfbfbf" points="0,-210.5 194,-210.5 "/>
<text text-anchor="middle" x="97" y="-198.5" font-family="Helvetica,sans-Serif" font-size="10.00"> </text>
<polyline fill="none" stroke="#bfbfbf" points="0,-191.5 194,-191.5 "/>
<text text-anchor="middle" x="97" y="-179.5" font-family="Helvetica,sans-Serif" font-size="10.00"> </text>
</a>
</g>
</g>
<!-- Node2&#45;&gt;Node1 -->
<g id="edge1" class="edge">
<title>Node2&#45;&gt;Node1</title>
<path fill="none" stroke="midnightblue" d="M97,-162.33C97,-153.52 97,-144.05 97,-134.64"/>
<polygon fill="none" stroke="midnightblue" points="93.5,-162.34 97,-172.34 100.5,-162.34 93.5,-162.34"/>
</g>
<!-- Node3 -->
<g id="node3" class="node">
<title>Node3</title>
<g id="a_node3"><a xlink:title=" ">
<polygon fill="white" stroke="#bfbfbf" points="82.5,-288.5 82.5,-345.5 111.5,-345.5 111.5,-288.5 82.5,-288.5"/>
<text text-anchor="middle" x="97" y="-333.5" font-family="Helvetica,sans-Serif" font-size="10.00">T</text>
<polyline fill="none" stroke="#bfbfbf" points="82.5,-326.5 111.5,-326.5 "/>
<text text-anchor="middle" x="97" y="-314.5" font-family="Helvetica,sans-Serif" font-size="10.00"> </text>
<polyline fill="none" stroke="#bfbfbf" points="82.5,-307.5 111.5,-307.5 "/>
<text text-anchor="middle" x="97" y="-295.5" font-family="Helvetica,sans-Serif" font-size="10.00"> </text>
</a>
</g>
</g>
<!-- Node3&#45;&gt;Node2 -->
<g id="edge2" class="edge">
<title>Node3&#45;&gt;Node2</title>
<path fill="none" stroke="#404040" d="M97,-288.34C97,-277.53 97,-264.85 97,-252.77"/>
<polygon fill="none" stroke="#404040" points="97,-252.52 93,-246.52 97,-240.52 101,-246.52 97,-252.52"/>
<text text-anchor="middle" x="126" y="-262" font-family="Helvetica,sans-Serif" font-size="10.00"> +elements</text>
</g>
</g>
</svg>
