<?xml version="1.0" encoding="UTF-8" standalone="no"?>
<!DOCTYPE svg PUBLIC "-//W3C//DTD SVG 1.1//EN"
 "http://www.w3.org/Graphics/SVG/1.1/DTD/svg11.dtd">
<!-- Generated by graphviz version 2.43.0 (0)
 -->
<!-- Title: Feel::Bdf&lt; SpaceType &gt; Pages: 1 -->
<svg width="1117pt" height="657pt"
 viewBox="0.00 0.00 1116.50 657.00" xmlns="http://www.w3.org/2000/svg" xmlns:xlink="http://www.w3.org/1999/xlink">
<g id="graph0" class="graph" transform="scale(1 1) rotate(0) translate(4 653)">
<title>Feel::Bdf&lt; SpaceType &gt;</title>
<polygon fill="white" stroke="transparent" points="-4,4 -4,-653 1112.5,-653 1112.5,4 -4,4"/>
<!-- Node1 -->
<g id="node1" class="node">
<title>Node1</title>
<g id="a_node1"><a xlink:title="Backward differencing formula time discretization.">
<polygon fill="#bfbfbf" stroke="black" points="497.5,-0.5 497.5,-112.5 631.5,-112.5 631.5,-0.5 497.5,-0.5"/>
<text text-anchor="middle" x="564.5" y="-100.5" font-family="Helvetica,sans-Serif" font-size="10.00">Feel::Bdf&lt; SpaceType &gt;</text>
<polyline fill="none" stroke="black" points="497.5,-93.5 631.5,-93.5 "/>
<text text-anchor="middle" x="564.5" y="-81.5" font-family="Helvetica,sans-Serif" font-size="10.00"> </text>
<polyline fill="none" stroke="black" points="497.5,-74.5 631.5,-74.5 "/>
<text text-anchor="start" x="505.5" y="-62.5" font-family="Helvetica,sans-Serif" font-size="10.00">+ applyRemesh()</text>
<text text-anchor="start" x="505.5" y="-51.5" font-family="Helvetica,sans-Serif" font-size="10.00">+ Bdf()</text>
<text text-anchor="start" x="505.5" y="-40.5" font-family="Helvetica,sans-Serif" font-size="10.00">+ Bdf()</text>
<text text-anchor="start" x="505.5" y="-29.5" font-family="Helvetica,sans-Serif" font-size="10.00">+ Bdf()</text>
<text text-anchor="start" x="505.5" y="-18.5" font-family="Helvetica,sans-Serif" font-size="10.00">+ bdfOrder()</text>
<text text-anchor="start" x="505.5" y="-7.5" font-family="Helvetica,sans-Serif" font-size="10.00">and 38 more...</text>
</a>
</g>
</g>
<!-- Node2 -->
<g id="node2" class="node">
<title>Node2</title>
<g id="a_node2"><a xlink:href="classFeel_1_1TSBase.html" target="_top" xlink:title="base class for time sets">
<polygon fill="white" stroke="black" points="496,-150.5 496,-273.5 633,-273.5 633,-150.5 496,-150.5"/>
<text text-anchor="middle" x="564.5" y="-261.5" font-family="Helvetica,sans-Serif" font-size="10.00">Feel::TSBase</text>
<polyline fill="none" stroke="black" points="496,-254.5 633,-254.5 "/>
<text text-anchor="middle" x="564.5" y="-242.5" font-family="Helvetica,sans-Serif" font-size="10.00"> </text>
<polyline fill="none" stroke="black" points="496,-235.5 633,-235.5 "/>
<text text-anchor="start" x="504" y="-223.5" font-family="Helvetica,sans-Serif" font-size="10.00">+ doRestartAtLastSave()</text>
<text text-anchor="start" x="504" y="-212.5" font-family="Helvetica,sans-Serif" font-size="10.00">+ fileFormat()</text>
<text text-anchor="start" x="504" y="-201.5" font-family="Helvetica,sans-Serif" font-size="10.00">+ isFinished()</text>
<text text-anchor="start" x="504" y="-190.5" font-family="Helvetica,sans-Serif" font-size="10.00">+ isRestart()</text>
<text text-anchor="start" x="504" y="-179.5" font-family="Helvetica,sans-Serif" font-size="10.00">+ isReverse()</text>
<text text-anchor="start" x="504" y="-168.5" font-family="Helvetica,sans-Serif" font-size="10.00">and 53 more...</text>
<text text-anchor="start" x="504" y="-157.5" font-family="Helvetica,sans-Serif" font-size="10.00"># init()</text>
</a>
</g>
</g>
<!-- Node2&#45;&gt;Node1 -->
<g id="edge1" class="edge">
<title>Node2&#45;&gt;Node1</title>
<path fill="none" stroke="midnightblue" d="M564.5,-140.06C564.5,-130.89 564.5,-121.61 564.5,-112.74"/>
<polygon fill="none" stroke="midnightblue" points="561,-140.33 564.5,-150.33 568,-140.33 561,-140.33"/>
</g>
<!-- Node3 -->
<g id="node3" class="node">
<title>Node3</title>
<g id="a_node3"><a xlink:href="classFeel_1_1WorldComm.html" target="_top" xlink:title="Provides interface to MPI Communicators.">
<polygon fill="white" stroke="black" points="87.5,-398.5 87.5,-532.5 223.5,-532.5 223.5,-398.5 87.5,-398.5"/>
<text text-anchor="middle" x="155.5" y="-520.5" font-family="Helvetica,sans-Serif" font-size="10.00">Feel::WorldComm</text>
<polyline fill="none" stroke="black" points="87.5,-513.5 223.5,-513.5 "/>
<text text-anchor="middle" x="155.5" y="-501.5" font-family="Helvetica,sans-Serif" font-size="10.00"> </text>
<polyline fill="none" stroke="black" points="87.5,-494.5 223.5,-494.5 "/>
<text text-anchor="start" x="95.5" y="-482.5" font-family="Helvetica,sans-Serif" font-size="10.00">+ activityOnWorld()</text>
<text text-anchor="start" x="95.5" y="-471.5" font-family="Helvetica,sans-Serif" font-size="10.00">+ applyActivityOnlyOn()</text>
<text text-anchor="start" x="95.5" y="-460.5" font-family="Helvetica,sans-Serif" font-size="10.00">+ clone()</text>
<text text-anchor="start" x="95.5" y="-449.5" font-family="Helvetica,sans-Serif" font-size="10.00">+ comm()</text>
<text text-anchor="start" x="95.5" y="-438.5" font-family="Helvetica,sans-Serif" font-size="10.00">+ globalComm()</text>
<text text-anchor="start" x="95.5" y="-427.5" font-family="Helvetica,sans-Serif" font-size="10.00">and 61 more...</text>
<text text-anchor="start" x="95.5" y="-416.5" font-family="Helvetica,sans-Serif" font-size="10.00">+ New()</text>
<text text-anchor="start" x="95.5" y="-405.5" font-family="Helvetica,sans-Serif" font-size="10.00">+ New()</text>
</a>
</g>
</g>
<!-- Node3&#45;&gt;Node2 -->
<g id="edge2" class="edge">
<title>Node3&#45;&gt;Node2</title>
<path fill="none" stroke="#404040" d="M136.33,-398.32C130.34,-363.01 130.57,-320.98 154.5,-292 195.44,-242.42 376.55,-223.62 483.88,-216.75"/>
<polygon fill="none" stroke="#404040" points="483.98,-216.74 489.72,-212.38 495.95,-216 490.21,-220.36 483.98,-216.74"/>
<text text-anchor="middle" x="197" y="-333.5" font-family="Helvetica,sans-Serif" font-size="10.00"> #M_worldComm</text>
</g>
<!-- Node4 -->
<g id="node4" class="node">
<title>Node4</title>
<g id="a_node4"><a xlink:href="classboost_1_1mpi_1_1communicator.html" target="_top" xlink:title=" ">
<polygon fill="white" stroke="black" points="0,-586 0,-643 145,-643 145,-586 0,-586"/>
<text text-anchor="middle" x="72.5" y="-631" font-family="Helvetica,sans-Serif" font-size="10.00">boost::mpi::communicator</text>
<polyline fill="none" stroke="black" points="0,-624 145,-624 "/>
<text text-anchor="middle" x="72.5" y="-612" font-family="Helvetica,sans-Serif" font-size="10.00"> </text>
<polyline fill="none" stroke="black" points="0,-605 145,-605 "/>
<text text-anchor="middle" x="72.5" y="-593" font-family="Helvetica,sans-Serif" font-size="10.00"> </text>
</a>
</g>
</g>
<!-- Node4&#45;&gt;Node3 -->
<g id="edge3" class="edge">
<title>Node4&#45;&gt;Node3</title>
<path fill="none" stroke="midnightblue" d="M93.13,-576.96C100.69,-563.57 109.5,-547.97 118.08,-532.77"/>
<polygon fill="none" stroke="midnightblue" points="89.98,-575.42 88.11,-585.85 96.08,-578.86 89.98,-575.42"/>
</g>
<!-- Node5 -->
<g id="node5" class="node">
<title>Node5</title>
<g id="a_node5"><a xlink:title=" ">
<polygon fill="white" stroke="#bfbfbf" points="163,-580.5 163,-648.5 314,-648.5 314,-580.5 163,-580.5"/>
<text text-anchor="start" x="171" y="-636.5" font-family="Helvetica,sans-Serif" font-size="10.00">std::enable_shared</text>
<text text-anchor="middle" x="238.5" y="-625.5" font-family="Helvetica,sans-Serif" font-size="10.00">_from_this&lt; WorldComm &gt;</text>
<polyline fill="none" stroke="#bfbfbf" points="163,-618.5 314,-618.5 "/>
<text text-anchor="middle" x="238.5" y="-606.5" font-family="Helvetica,sans-Serif" font-size="10.00"> </text>
<polyline fill="none" stroke="#bfbfbf" points="163,-599.5 314,-599.5 "/>
<text text-anchor="middle" x="238.5" y="-587.5" font-family="Helvetica,sans-Serif" font-size="10.00"> </text>
</a>
</g>
</g>
<!-- Node5&#45;&gt;Node3 -->
<g id="edge4" class="edge">
<title>Node5&#45;&gt;Node3</title>
<path fill="none" stroke="midnightblue" d="M214.65,-571.25C207.86,-559.24 200.31,-545.86 192.93,-532.79"/>
<polygon fill="none" stroke="midnightblue" points="211.7,-573.16 219.67,-580.14 217.8,-569.71 211.7,-573.16"/>
</g>
<!-- Node6 -->
<g id="node6" class="node">
<title>Node6</title>
<g id="a_node6"><a xlink:title=" ">
<polygon fill="white" stroke="#bfbfbf" points="244.5,-437 244.5,-494 282.5,-494 282.5,-437 244.5,-437"/>
<text text-anchor="middle" x="263.5" y="-482" font-family="Helvetica,sans-Serif" font-size="10.00">path</text>
<polyline fill="none" stroke="#bfbfbf" points="244.5,-475 282.5,-475 "/>
<text text-anchor="middle" x="263.5" y="-463" font-family="Helvetica,sans-Serif" font-size="10.00"> </text>
<polyline fill="none" stroke="#bfbfbf" points="244.5,-456 282.5,-456 "/>
<text text-anchor="middle" x="263.5" y="-444" font-family="Helvetica,sans-Serif" font-size="10.00"> </text>
</a>
</g>
</g>
<!-- Node6&#45;&gt;Node2 -->
<g id="edge5" class="edge">
<title>Node6&#45;&gt;Node2</title>
<path fill="none" stroke="#404040" d="M254.27,-436.69C243.84,-399.57 232.2,-333.65 264.5,-292 291.26,-257.49 404.51,-235 483.93,-223.15"/>
<polygon fill="none" stroke="#404040" points="484,-223.14 489.36,-218.31 495.88,-221.41 490.52,-226.23 484,-223.14"/>
<text text-anchor="middle" x="304" y="-339" font-family="Helvetica,sans-Serif" font-size="10.00"> #M_restartPath</text>
<text text-anchor="middle" x="304" y="-328" font-family="Helvetica,sans-Serif" font-size="10.00">#M_path_save</text>
</g>
<!-- Node7 -->
<g id="node7" class="node">
<title>Node7</title>
<g id="a_node7"><a xlink:href="classdouble.html" target="_top" xlink:title=" ">
<polygon fill="white" stroke="black" points="378.5,-586 378.5,-643 428.5,-643 428.5,-586 378.5,-586"/>
<text text-anchor="middle" x="403.5" y="-631" font-family="Helvetica,sans-Serif" font-size="10.00">double</text>
<polyline fill="none" stroke="black" points="378.5,-624 428.5,-624 "/>
<text text-anchor="middle" x="403.5" y="-612" font-family="Helvetica,sans-Serif" font-size="10.00"> </text>
<polyline fill="none" stroke="black" points="378.5,-605 428.5,-605 "/>
<text text-anchor="middle" x="403.5" y="-593" font-family="Helvetica,sans-Serif" font-size="10.00"> </text>
</a>
</g>
</g>
<!-- Node7&#45;&gt;Node2 -->
<g id="edge6" class="edge">
<title>Node7&#45;&gt;Node2</title>
<path fill="none" stroke="#404040" d="M387.19,-585.86C379.24,-570.79 370.54,-551.48 366.5,-533 353.67,-474.39 352.5,-456.34 366.5,-398 378.84,-346.59 383.69,-329.95 420.5,-292 438.67,-273.27 462.24,-257.83 485.04,-245.73"/>
<polygon fill="none" stroke="#404040" points="485.11,-245.7 488.63,-239.41 495.79,-240.24 492.27,-246.53 485.11,-245.7"/>
<text text-anchor="middle" x="401.5" y="-490.5" font-family="Helvetica,sans-Serif" font-size="10.00"> #M_dt</text>
<text text-anchor="middle" x="401.5" y="-479.5" font-family="Helvetica,sans-Serif" font-size="10.00">#M_Tf</text>
<text text-anchor="middle" x="401.5" y="-468.5" font-family="Helvetica,sans-Serif" font-size="10.00">#M_time</text>
<text text-anchor="middle" x="401.5" y="-457.5" font-family="Helvetica,sans-Serif" font-size="10.00">#M_Ti</text>
<text text-anchor="start" x="366.5" y="-446.5" font-family="Helvetica,sans-Serif" font-size="10.00">#M_real_time</text>
<text text-anchor="middle" x="401.5" y="-435.5" font-family="Helvetica,sans-Serif" font-size="10.00">_per_iteration</text>
</g>
<!-- Node13 -->
<g id="node13" class="node">
<title>Node13</title>
<g id="a_node13"><a xlink:title=" ">
<polygon fill="white" stroke="#bfbfbf" points="445.5,-437 445.5,-494 569.5,-494 569.5,-437 445.5,-437"/>
<text text-anchor="middle" x="507.5" y="-482" font-family="Helvetica,sans-Serif" font-size="10.00">std::vector&lt; double &gt;</text>
<polyline fill="none" stroke="#bfbfbf" points="445.5,-475 569.5,-475 "/>
<text text-anchor="middle" x="507.5" y="-463" font-family="Helvetica,sans-Serif" font-size="10.00"> </text>
<polyline fill="none" stroke="#bfbfbf" points="445.5,-456 569.5,-456 "/>
<text text-anchor="middle" x="507.5" y="-444" font-family="Helvetica,sans-Serif" font-size="10.00"> </text>
</a>
</g>
</g>
<!-- Node7&#45;&gt;Node13 -->
<g id="edge13" class="edge">
<title>Node7&#45;&gt;Node13</title>
<path fill="none" stroke="#404040" d="M423.06,-585.85C439.4,-562.75 462.86,-529.59 480.91,-504.09"/>
<polygon fill="none" stroke="#404040" points="481.1,-503.82 481.3,-496.61 488.03,-494.03 487.83,-501.23 481.1,-503.82"/>
<text text-anchor="middle" x="474.5" y="-554" font-family="Helvetica,sans-Serif" font-size="10.00"> +elements</text>
</g>
<!-- Node8 -->
<g id="node8" class="node">
<title>Node8</title>
<g id="a_node8"><a xlink:href="classint.html" target="_top" xlink:title=" ">
<polygon fill="white" stroke="black" points="588,-437 588,-494 617,-494 617,-437 588,-437"/>
<text text-anchor="middle" x="602.5" y="-482" font-family="Helvetica,sans-Serif" font-size="10.00">int</text>
<polyline fill="none" stroke="black" points="588,-475 617,-475 "/>
<text text-anchor="middle" x="602.5" y="-463" font-family="Helvetica,sans-Serif" font-size="10.00"> </text>
<polyline fill="none" stroke="black" points="588,-456 617,-456 "/>
<text text-anchor="middle" x="602.5" y="-444" font-family="Helvetica,sans-Serif" font-size="10.00"> </text>
</a>
</g>
</g>
<!-- Node8&#45;&gt;Node2 -->
<g id="edge7" class="edge">
<title>Node8&#45;&gt;Node2</title>
<path fill="none" stroke="#404040" d="M594.46,-436.91C590.41,-424.66 584.98,-410.26 578.5,-398 573.89,-389.27 568.56,-389.38 565.5,-380 555.73,-350.08 554.06,-315.51 555.39,-285.62"/>
<polygon fill="none" stroke="#404040" points="555.39,-285.53 551.75,-279.3 556.09,-273.55 559.73,-279.77 555.39,-285.53"/>
<text text-anchor="middle" x="630.5" y="-355.5" font-family="Helvetica,sans-Serif" font-size="10.00"> #M_n_restart</text>
<text text-anchor="middle" x="630.5" y="-344.5" font-family="Helvetica,sans-Serif" font-size="10.00">#M_saveFreq</text>
<text text-anchor="start" x="565.5" y="-333.5" font-family="Helvetica,sans-Serif" font-size="10.00">#M_restartStepBeforeLast</text>
<text text-anchor="middle" x="630.5" y="-322.5" font-family="Helvetica,sans-Serif" font-size="10.00">Save</text>
<text text-anchor="middle" x="630.5" y="-311.5" font-family="Helvetica,sans-Serif" font-size="10.00">#M_iteration</text>
</g>
<!-- Node9 -->
<g id="node9" class="node">
<title>Node9</title>
<g id="a_node9"><a xlink:title=" ">
<polygon fill="white" stroke="#bfbfbf" points="695,-437 695,-494 740,-494 740,-437 695,-437"/>
<text text-anchor="middle" x="717.5" y="-482" font-family="Helvetica,sans-Serif" font-size="10.00">Timer</text>
<polyline fill="none" stroke="#bfbfbf" points="695,-475 740,-475 "/>
<text text-anchor="middle" x="717.5" y="-463" font-family="Helvetica,sans-Serif" font-size="10.00"> </text>
<polyline fill="none" stroke="#bfbfbf" points="695,-456 740,-456 "/>
<text text-anchor="middle" x="717.5" y="-444" font-family="Helvetica,sans-Serif" font-size="10.00"> </text>
</a>
</g>
</g>
<!-- Node9&#45;&gt;Node2 -->
<g id="edge8" class="edge">
<title>Node9&#45;&gt;Node2</title>
<path fill="none" stroke="#404040" d="M716.86,-436.76C715.39,-394.2 710.66,-315.27 695.5,-292 682.9,-272.67 663.77,-257.36 643.98,-245.57"/>
<polygon fill="none" stroke="#404040" points="643.74,-245.43 636.55,-245.98 633.28,-239.55 640.48,-239 643.74,-245.43"/>
<text text-anchor="middle" x="738.5" y="-333.5" font-family="Helvetica,sans-Serif" font-size="10.00"> #M_timer</text>
</g>
<!-- Node10 -->
<g id="node10" class="node">
<title>Node10</title>
<g id="a_node10"><a xlink:href="classbool.html" target="_top" xlink:title=" ">
<polygon fill="white" stroke="black" points="773.5,-437 773.5,-494 811.5,-494 811.5,-437 773.5,-437"/>
<text text-anchor="middle" x="792.5" y="-482" font-family="Helvetica,sans-Serif" font-size="10.00">bool</text>
<polyline fill="none" stroke="black" points="773.5,-475 811.5,-475 "/>
<text text-anchor="middle" x="792.5" y="-463" font-family="Helvetica,sans-Serif" font-size="10.00"> </text>
<polyline fill="none" stroke="black" points="773.5,-456 811.5,-456 "/>
<text text-anchor="middle" x="792.5" y="-444" font-family="Helvetica,sans-Serif" font-size="10.00"> </text>
</a>
</g>
</g>
<!-- Node10&#45;&gt;Node2 -->
<g id="edge9" class="edge">
<title>Node10&#45;&gt;Node2</title>
<path fill="none" stroke="#404040" d="M791.98,-436.77C790.64,-393.81 785.82,-313.87 768.5,-292 738.65,-254.31 688.43,-234.57 645.3,-224.26"/>
<polygon fill="none" stroke="#404040" points="645.05,-224.2 638.32,-226.8 633.34,-221.59 640.07,-218.99 645.05,-224.2"/>
<text text-anchor="middle" x="856.5" y="-372" font-family="Helvetica,sans-Serif" font-size="10.00"> #M_restart</text>
<text text-anchor="middle" x="856.5" y="-361" font-family="Helvetica,sans-Serif" font-size="10.00">#M_rankProcInNameOfFiles</text>
<text text-anchor="middle" x="856.5" y="-350" font-family="Helvetica,sans-Serif" font-size="10.00">#M_saveInFile</text>
<text text-anchor="middle" x="856.5" y="-339" font-family="Helvetica,sans-Serif" font-size="10.00">#M_reverse</text>
<text text-anchor="middle" x="856.5" y="-328" font-family="Helvetica,sans-Serif" font-size="10.00">#M_reverseLoad</text>
<text text-anchor="middle" x="856.5" y="-317" font-family="Helvetica,sans-Serif" font-size="10.00">#M_restartAtLastSave</text>
<text text-anchor="middle" x="856.5" y="-306" font-family="Helvetica,sans-Serif" font-size="10.00">#M_steady</text>
<text text-anchor="middle" x="856.5" y="-295" font-family="Helvetica,sans-Serif" font-size="10.00">#M_displayStats</text>
</g>
<!-- Node11 -->
<g id="node11" class="node">
<title>Node11</title>
<g id="a_node11"><a xlink:title="STL class.">
<polygon fill="white" stroke="#bfbfbf" points="921,-437 921,-494 986,-494 986,-437 921,-437"/>
<text text-anchor="middle" x="953.5" y="-482" font-family="Helvetica,sans-Serif" font-size="10.00">std::string</text>
<polyline fill="none" stroke="#bfbfbf" points="921,-475 986,-475 "/>
<text text-anchor="middle" x="953.5" y="-463" font-family="Helvetica,sans-Serif" font-size="10.00"> </text>
<polyline fill="none" stroke="#bfbfbf" points="921,-456 986,-456 "/>
<text text-anchor="middle" x="953.5" y="-444" font-family="Helvetica,sans-Serif" font-size="10.00"> </text>
</a>
</g>
</g>
<!-- Node11&#45;&gt;Node2 -->
<g id="edge10" class="edge">
<title>Node11&#45;&gt;Node2</title>
<path fill="none" stroke="#404040" d="M953.38,-436.79C952.59,-393.46 948.52,-312.5 929.5,-292 891.71,-251.26 740.87,-229.66 645.33,-219.83"/>
<polygon fill="none" stroke="#404040" points="645.32,-219.83 638.95,-223.21 633.38,-218.63 639.75,-215.25 645.32,-219.83"/>
<text text-anchor="middle" x="987" y="-344.5" font-family="Helvetica,sans-Serif" font-size="10.00"> #M_name</text>
<text text-anchor="middle" x="987" y="-333.5" font-family="Helvetica,sans-Serif" font-size="10.00">#M_prefix</text>
<text text-anchor="middle" x="987" y="-322.5" font-family="Helvetica,sans-Serif" font-size="10.00">#M_fileFormat</text>
</g>
<!-- Node12 -->
<g id="node12" class="node">
<title>Node12</title>
<g id="a_node12"><a xlink:title="STL class.">
<polygon fill="white" stroke="#bfbfbf" points="901.5,-580.5 901.5,-648.5 1005.5,-648.5 1005.5,-580.5 901.5,-580.5"/>
<text text-anchor="start" x="909.5" y="-636.5" font-family="Helvetica,sans-Serif" font-size="10.00">std::basic_string&lt;</text>
<text text-anchor="middle" x="953.5" y="-625.5" font-family="Helvetica,sans-Serif" font-size="10.00"> char &gt;</text>
<polyline fill="none" stroke="#bfbfbf" points="901.5,-618.5 1005.5,-618.5 "/>
<text text-anchor="middle" x="953.5" y="-606.5" font-family="Helvetica,sans-Serif" font-size="10.00"> </text>
<polyline fill="none" stroke="#bfbfbf" points="901.5,-599.5 1005.5,-599.5 "/>
<text text-anchor="middle" x="953.5" y="-587.5" font-family="Helvetica,sans-Serif" font-size="10.00"> </text>
</a>
</g>
</g>
<!-- Node12&#45;&gt;Node11 -->
<g id="edge11" class="edge">
<title>Node12&#45;&gt;Node11</title>
<path fill="none" stroke="midnightblue" d="M953.5,-570.01C953.5,-545.51 953.5,-515.64 953.5,-494.3"/>
<polygon fill="none" stroke="midnightblue" points="950,-570.14 953.5,-580.14 957,-570.14 950,-570.14"/>
</g>
<!-- Node13&#45;&gt;Node2 -->
<g id="edge12" class="edge">
<title>Node13&#45;&gt;Node2</title>
<path fill="none" stroke="#404040" d="M476.15,-436.88C461.38,-421.75 445.32,-401.69 437.5,-380 424.24,-343.21 418.5,-326.19 437.5,-292 448.35,-272.47 466.26,-257.14 485.26,-245.39"/>
<polygon fill="none" stroke="#404040" points="485.5,-245.25 488.69,-238.78 495.88,-239.24 492.7,-245.7 485.5,-245.25"/>
<text text-anchor="middle" x="494" y="-333.5" font-family="Helvetica,sans-Serif" font-size="10.00"> #M_time_values_map</text>
</g>
<!-- Node14 -->
<g id="node14" class="node">
<title>Node14</title>
<g id="a_node14"><a xlink:title=" ">
<polygon fill="white" stroke="#bfbfbf" points="1022.5,-437 1022.5,-494 1076.5,-494 1076.5,-437 1022.5,-437"/>
<text text-anchor="middle" x="1049.5" y="-482" font-family="Helvetica,sans-Serif" font-size="10.00">TSState</text>
<polyline fill="none" stroke="#bfbfbf" points="1022.5,-475 1076.5,-475 "/>
<text text-anchor="middle" x="1049.5" y="-463" font-family="Helvetica,sans-Serif" font-size="10.00"> </text>
<polyline fill="none" stroke="#bfbfbf" points="1022.5,-456 1076.5,-456 "/>
<text text-anchor="middle" x="1049.5" y="-444" font-family="Helvetica,sans-Serif" font-size="10.00"> </text>
</a>
</g>
</g>
<!-- Node14&#45;&gt;Node2 -->
<g id="edge14" class="edge">
<title>Node14&#45;&gt;Node2</title>
<path fill="none" stroke="#404040" d="M1055.02,-436.7C1060.82,-398.65 1064.59,-330.68 1027.5,-292 976.2,-238.49 764.23,-221.14 645.68,-215.58"/>
<polygon fill="none" stroke="#404040" points="645.45,-215.57 639.27,-219.29 633.46,-215.03 639.63,-211.3 645.45,-215.57"/>
<text text-anchor="middle" x="1083" y="-333.5" font-family="Helvetica,sans-Serif" font-size="10.00"> #M_state</text>
</g>
</g>
</svg>
