<?xml version="1.0" encoding="UTF-8" standalone="no"?>
<!DOCTYPE svg PUBLIC "-//W3C//DTD SVG 1.1//EN"
 "http://www.w3.org/Graphics/SVG/1.1/DTD/svg11.dtd">
<!-- Generated by graphviz version 2.43.0 (0)
 -->
<!-- Title: Feel::vf::UnaryMinus&lt; ExprT &gt; Pages: 1 -->
<svg width="155pt" height="303pt"
 viewBox="0.00 0.00 155.00 303.00" xmlns="http://www.w3.org/2000/svg" xmlns:xlink="http://www.w3.org/1999/xlink">
<g id="graph0" class="graph" transform="scale(1 1) rotate(0) translate(4 299)">
<title>Feel::vf::UnaryMinus&lt; ExprT &gt;</title>
<polygon fill="white" stroke="transparent" points="-4,4 -4,-299 151,-299 151,4 -4,4"/>
<!-- Node1 -->
<g id="node1" class="node">
<title>Node1</title>
<g id="a_node1"><a xlink:title="handler for unary minus expression">
<polygon fill="#bfbfbf" stroke="black" points="9,-0.5 9,-178.5 138,-178.5 138,-0.5 9,-0.5"/>
<text text-anchor="start" x="17" y="-166.5" font-family="Helvetica,sans-Serif" font-size="10.00">Feel::vf::UnaryMinus</text>
<text text-anchor="middle" x="73.5" y="-155.5" font-family="Helvetica,sans-Serif" font-size="10.00">&lt; ExprT &gt;</text>
<polyline fill="none" stroke="black" points="9,-148.5 138,-148.5 "/>
<text text-anchor="start" x="17" y="-136.5" font-family="Helvetica,sans-Serif" font-size="10.00">+ context</text>
<text text-anchor="start" x="17" y="-125.5" font-family="Helvetica,sans-Serif" font-size="10.00">+ has_test_basis</text>
<text text-anchor="start" x="17" y="-114.5" font-family="Helvetica,sans-Serif" font-size="10.00">+ has_trial_basis</text>
<text text-anchor="start" x="17" y="-103.5" font-family="Helvetica,sans-Serif" font-size="10.00">+ is_terminal</text>
<text text-anchor="start" x="17" y="-92.5" font-family="Helvetica,sans-Serif" font-size="10.00"># M_expr</text>
<polyline fill="none" stroke="black" points="9,-85.5 138,-85.5 "/>
<text text-anchor="start" x="17" y="-73.5" font-family="Helvetica,sans-Serif" font-size="10.00">+ applySymbolsExpr()</text>
<text text-anchor="start" x="17" y="-62.5" font-family="Helvetica,sans-Serif" font-size="10.00">+ dependentSymbols()</text>
<text text-anchor="start" x="17" y="-51.5" font-family="Helvetica,sans-Serif" font-size="10.00">+ diff()</text>
<text text-anchor="start" x="17" y="-40.5" font-family="Helvetica,sans-Serif" font-size="10.00">+ dynamicContext()</text>
<text text-anchor="start" x="17" y="-29.5" font-family="Helvetica,sans-Serif" font-size="10.00">+ evaluate()</text>
<text text-anchor="start" x="17" y="-18.5" font-family="Helvetica,sans-Serif" font-size="10.00">and 11 more...</text>
<text text-anchor="start" x="17" y="-7.5" font-family="Helvetica,sans-Serif" font-size="10.00"># UnaryMinus()</text>
</a>
</g>
</g>
<!-- Node2 -->
<g id="node2" class="node">
<title>Node2</title>
<g id="a_node2"><a xlink:href="classFeel_1_1vf_1_1ExprDynamicBase.html" target="_top" xlink:title=" ">
<polygon fill="white" stroke="#bfbfbf" points="0,-215.5 0,-294.5 147,-294.5 147,-215.5 0,-215.5"/>
<text text-anchor="middle" x="73.5" y="-282.5" font-family="Helvetica,sans-Serif" font-size="10.00">Feel::vf::ExprDynamicBase</text>
<polyline fill="none" stroke="#bfbfbf" points="0,-275.5 147,-275.5 "/>
<text text-anchor="middle" x="73.5" y="-263.5" font-family="Helvetica,sans-Serif" font-size="10.00"> </text>
<polyline fill="none" stroke="#bfbfbf" points="0,-256.5 147,-256.5 "/>
<text text-anchor="start" x="8" y="-244.5" font-family="Helvetica,sans-Serif" font-size="10.00">+ dynamicContext()</text>
<text text-anchor="start" x="8" y="-233.5" font-family="Helvetica,sans-Serif" font-size="10.00">+ ExprDynamicBase()</text>
<text text-anchor="start" x="8" y="-222.5" font-family="Helvetica,sans-Serif" font-size="10.00">+ ExprDynamicBase()</text>
</a>
</g>
</g>
<!-- Node2&#45;&gt;Node1 -->
<g id="edge1" class="edge">
<title>Node2&#45;&gt;Node1</title>
<path fill="none" stroke="midnightblue" d="M73.5,-205.25C73.5,-196.79 73.5,-187.76 73.5,-178.63"/>
<polygon fill="none" stroke="midnightblue" points="70,-205.25 73.5,-215.25 77,-205.25 70,-205.25"/>
</g>
</g>
</svg>
