<?xml version="1.0" encoding="UTF-8" standalone="no"?>
<!DOCTYPE svg PUBLIC "-//W3C//DTD SVG 1.1//EN"
 "http://www.w3.org/Graphics/SVG/1.1/DTD/svg11.dtd">
<!-- Generated by graphviz version 2.43.0 (0)
 -->
<!-- Title: Feel::ProductSpace&lt; T, same_mesh &gt; Pages: 1 -->
<svg width="509pt" height="459pt"
 viewBox="0.00 0.00 509.00 459.00" xmlns="http://www.w3.org/2000/svg" xmlns:xlink="http://www.w3.org/1999/xlink">
<g id="graph0" class="graph" transform="scale(1 1) rotate(0) translate(4 455)">
<title>Feel::ProductSpace&lt; T, same_mesh &gt;</title>
<polygon fill="white" stroke="transparent" points="-4,4 -4,-455 505,-455 505,4 -4,4"/>
<!-- Node1 -->
<g id="node1" class="node">
<title>Node1</title>
<g id="a_node1"><a xlink:title=" ">
<polygon fill="#bfbfbf" stroke="black" points="199.5,-0.5 199.5,-123.5 346.5,-123.5 346.5,-0.5 199.5,-0.5"/>
<text text-anchor="start" x="207.5" y="-111.5" font-family="Helvetica,sans-Serif" font-size="10.00">Feel::ProductSpace</text>
<text text-anchor="middle" x="273" y="-100.5" font-family="Helvetica,sans-Serif" font-size="10.00">&lt; T, same_mesh &gt;</text>
<polyline fill="none" stroke="black" points="199.5,-93.5 346.5,-93.5 "/>
<text text-anchor="middle" x="273" y="-81.5" font-family="Helvetica,sans-Serif" font-size="10.00"> </text>
<polyline fill="none" stroke="black" points="199.5,-74.5 346.5,-74.5 "/>
<text text-anchor="start" x="207.5" y="-62.5" font-family="Helvetica,sans-Serif" font-size="10.00">+ element()</text>
<text text-anchor="start" x="207.5" y="-51.5" font-family="Helvetica,sans-Serif" font-size="10.00">+ elementPtr()</text>
<text text-anchor="start" x="207.5" y="-40.5" font-family="Helvetica,sans-Serif" font-size="10.00">+ hasIbcSpace()</text>
<text text-anchor="start" x="207.5" y="-29.5" font-family="Helvetica,sans-Serif" font-size="10.00">+ hasOtherThanIbcSpace()</text>
<text text-anchor="start" x="207.5" y="-18.5" font-family="Helvetica,sans-Serif" font-size="10.00">+ isIbcSpace()</text>
<text text-anchor="start" x="207.5" y="-7.5" font-family="Helvetica,sans-Serif" font-size="10.00">and 14 more...</text>
</a>
</g>
</g>
<!-- Node2 -->
<g id="node2" class="node">
<title>Node2</title>
<g id="a_node2"><a xlink:title="STL class.">
<polygon fill="white" stroke="#bfbfbf" points="0,-171.5 0,-239.5 154,-239.5 154,-171.5 0,-171.5"/>
<text text-anchor="start" x="8" y="-227.5" font-family="Helvetica,sans-Serif" font-size="10.00">std::vector&lt; std::shared</text>
<text text-anchor="middle" x="77" y="-216.5" font-family="Helvetica,sans-Serif" font-size="10.00">_ptr&lt; decay_type&lt; T &gt; &gt; &gt;</text>
<polyline fill="none" stroke="#bfbfbf" points="0,-209.5 154,-209.5 "/>
<text text-anchor="middle" x="77" y="-197.5" font-family="Helvetica,sans-Serif" font-size="10.00"> </text>
<polyline fill="none" stroke="#bfbfbf" points="0,-190.5 154,-190.5 "/>
<text text-anchor="middle" x="77" y="-178.5" font-family="Helvetica,sans-Serif" font-size="10.00"> </text>
</a>
</g>
</g>
<!-- Node2&#45;&gt;Node1 -->
<g id="edge1" class="edge">
<title>Node2&#45;&gt;Node1</title>
<path fill="none" stroke="midnightblue" d="M131.15,-165.4C152.23,-150.19 176.71,-132.51 199.34,-116.17"/>
<polygon fill="none" stroke="midnightblue" points="129.01,-162.63 122.95,-171.32 133.11,-168.31 129.01,-162.63"/>
</g>
<!-- Node3 -->
<g id="node3" class="node">
<title>Node3</title>
<g id="a_node3"><a xlink:title=" ">
<polygon fill="white" stroke="#bfbfbf" points="62.5,-287.5 62.5,-344.5 91.5,-344.5 91.5,-287.5 62.5,-287.5"/>
<text text-anchor="middle" x="77" y="-332.5" font-family="Helvetica,sans-Serif" font-size="10.00">T</text>
<polyline fill="none" stroke="#bfbfbf" points="62.5,-325.5 91.5,-325.5 "/>
<text text-anchor="middle" x="77" y="-313.5" font-family="Helvetica,sans-Serif" font-size="10.00"> </text>
<polyline fill="none" stroke="#bfbfbf" points="62.5,-306.5 91.5,-306.5 "/>
<text text-anchor="middle" x="77" y="-294.5" font-family="Helvetica,sans-Serif" font-size="10.00"> </text>
</a>
</g>
</g>
<!-- Node3&#45;&gt;Node2 -->
<g id="edge2" class="edge">
<title>Node3&#45;&gt;Node2</title>
<path fill="none" stroke="#404040" d="M77,-287.34C77,-276.53 77,-263.85 77,-251.77"/>
<polygon fill="none" stroke="#404040" points="77,-251.52 73,-245.52 77,-239.52 81,-245.52 77,-251.52"/>
<text text-anchor="middle" x="106" y="-261" font-family="Helvetica,sans-Serif" font-size="10.00"> +elements</text>
</g>
<!-- Node4 -->
<g id="node4" class="node">
<title>Node4</title>
<g id="a_node4"><a xlink:href="classProductSpaceBase.html" target="_top" xlink:title=" ">
<polygon fill="white" stroke="black" points="172.5,-177 172.5,-234 279.5,-234 279.5,-177 172.5,-177"/>
<text text-anchor="middle" x="226" y="-222" font-family="Helvetica,sans-Serif" font-size="10.00">ProductSpaceBase</text>
<polyline fill="none" stroke="black" points="172.5,-215 279.5,-215 "/>
<text text-anchor="middle" x="226" y="-203" font-family="Helvetica,sans-Serif" font-size="10.00"> </text>
<polyline fill="none" stroke="black" points="172.5,-196 279.5,-196 "/>
<text text-anchor="middle" x="226" y="-184" font-family="Helvetica,sans-Serif" font-size="10.00"> </text>
</a>
</g>
</g>
<!-- Node4&#45;&gt;Node1 -->
<g id="edge3" class="edge">
<title>Node4&#45;&gt;Node1</title>
<path fill="none" stroke="#8b1a1a" d="M238.41,-167.13C242.84,-153.8 247.95,-138.42 252.86,-123.63"/>
<polygon fill="none" stroke="#8b1a1a" points="235,-166.29 235.17,-176.88 241.65,-168.49 235,-166.29"/>
</g>
<!-- Node5 -->
<g id="node5" class="node">
<title>Node5</title>
<g id="a_node5"><a xlink:href="classsize__t.html" target="_top" xlink:title=" ">
<polygon fill="white" stroke="black" points="297.5,-177 297.5,-234 342.5,-234 342.5,-177 297.5,-177"/>
<text text-anchor="middle" x="320" y="-222" font-family="Helvetica,sans-Serif" font-size="10.00">size_t</text>
<polyline fill="none" stroke="black" points="297.5,-215 342.5,-215 "/>
<text text-anchor="middle" x="320" y="-203" font-family="Helvetica,sans-Serif" font-size="10.00"> </text>
<polyline fill="none" stroke="black" points="297.5,-196 342.5,-196 "/>
<text text-anchor="middle" x="320" y="-184" font-family="Helvetica,sans-Serif" font-size="10.00"> </text>
</a>
</g>
</g>
<!-- Node5&#45;&gt;Node1 -->
<g id="edge4" class="edge">
<title>Node5&#45;&gt;Node1</title>
<path fill="none" stroke="#404040" d="M310.83,-176.88C306.84,-164.89 301.97,-150.22 297.06,-135.45"/>
<polygon fill="none" stroke="#404040" points="296.92,-135.02 291.24,-130.59 293.14,-123.63 298.83,-128.07 296.92,-135.02"/>
<text text-anchor="middle" x="336" y="-145" font-family="Helvetica,sans-Serif" font-size="10.00"> +M_nspaces</text>
</g>
<!-- Node6 -->
<g id="node6" class="node">
<title>Node6</title>
<g id="a_node6"><a xlink:title=" ">
<polygon fill="white" stroke="#bfbfbf" points="361,-177 361,-234 501,-234 501,-177 361,-177"/>
<text text-anchor="middle" x="431" y="-222" font-family="Helvetica,sans-Serif" font-size="10.00">std::vector&lt; std::string &gt;</text>
<polyline fill="none" stroke="#bfbfbf" points="361,-215 501,-215 "/>
<text text-anchor="middle" x="431" y="-203" font-family="Helvetica,sans-Serif" font-size="10.00"> </text>
<polyline fill="none" stroke="#bfbfbf" points="361,-196 501,-196 "/>
<text text-anchor="middle" x="431" y="-184" font-family="Helvetica,sans-Serif" font-size="10.00"> </text>
</a>
</g>
</g>
<!-- Node6&#45;&gt;Node1 -->
<g id="edge5" class="edge">
<title>Node6&#45;&gt;Node1</title>
<path fill="none" stroke="#404040" d="M407.03,-176.86C396.9,-165.67 384.74,-152.85 373,-142 367.56,-136.98 361.83,-131.92 355.99,-126.91"/>
<polygon fill="none" stroke="#404040" points="355.91,-126.85 348.74,-126.04 346.73,-119.12 353.89,-119.92 355.91,-126.85"/>
<text text-anchor="middle" x="410.5" y="-145" font-family="Helvetica,sans-Serif" font-size="10.00"> +M_props</text>
</g>
<!-- Node7 -->
<g id="node7" class="node">
<title>Node7</title>
<g id="a_node7"><a xlink:title="STL class.">
<polygon fill="white" stroke="#bfbfbf" points="398.5,-287.5 398.5,-344.5 463.5,-344.5 463.5,-287.5 398.5,-287.5"/>
<text text-anchor="middle" x="431" y="-332.5" font-family="Helvetica,sans-Serif" font-size="10.00">std::string</text>
<polyline fill="none" stroke="#bfbfbf" points="398.5,-325.5 463.5,-325.5 "/>
<text text-anchor="middle" x="431" y="-313.5" font-family="Helvetica,sans-Serif" font-size="10.00"> </text>
<polyline fill="none" stroke="#bfbfbf" points="398.5,-306.5 463.5,-306.5 "/>
<text text-anchor="middle" x="431" y="-294.5" font-family="Helvetica,sans-Serif" font-size="10.00"> </text>
</a>
</g>
</g>
<!-- Node7&#45;&gt;Node6 -->
<g id="edge6" class="edge">
<title>Node7&#45;&gt;Node6</title>
<path fill="none" stroke="#404040" d="M431,-287.34C431,-274.84 431,-259.84 431,-246.18"/>
<polygon fill="none" stroke="#404040" points="431,-246.11 427,-240.11 431,-234.11 435,-240.11 431,-246.11"/>
<text text-anchor="middle" x="460" y="-261" font-family="Helvetica,sans-Serif" font-size="10.00"> +elements</text>
</g>
<!-- Node8 -->
<g id="node8" class="node">
<title>Node8</title>
<g id="a_node8"><a xlink:title="STL class.">
<polygon fill="white" stroke="#bfbfbf" points="379,-382.5 379,-450.5 483,-450.5 483,-382.5 379,-382.5"/>
<text text-anchor="start" x="387" y="-438.5" font-family="Helvetica,sans-Serif" font-size="10.00">std::basic_string&lt;</text>
<text text-anchor="middle" x="431" y="-427.5" font-family="Helvetica,sans-Serif" font-size="10.00"> char &gt;</text>
<polyline fill="none" stroke="#bfbfbf" points="379,-420.5 483,-420.5 "/>
<text text-anchor="middle" x="431" y="-408.5" font-family="Helvetica,sans-Serif" font-size="10.00"> </text>
<polyline fill="none" stroke="#bfbfbf" points="379,-401.5 483,-401.5 "/>
<text text-anchor="middle" x="431" y="-389.5" font-family="Helvetica,sans-Serif" font-size="10.00"> </text>
</a>
</g>
</g>
<!-- Node8&#45;&gt;Node7 -->
<g id="edge7" class="edge">
<title>Node8&#45;&gt;Node7</title>
<path fill="none" stroke="midnightblue" d="M431,-372.38C431,-362.94 431,-353.2 431,-344.57"/>
<polygon fill="none" stroke="midnightblue" points="427.5,-372.43 431,-382.43 434.5,-372.43 427.5,-372.43"/>
</g>
</g>
</svg>
