<?xml version="1.0" encoding="UTF-8" standalone="no"?>
<!DOCTYPE svg PUBLIC "-//W3C//DTD SVG 1.1//EN"
 "http://www.w3.org/Graphics/SVG/1.1/DTD/svg11.dtd">
<!-- Generated by graphviz version 2.43.0 (0)
 -->
<!-- Title: Feel::FeelModels::GenericDirichletBoundaryCondition&lt; Dim1, Dim2 &gt; Pages: 1 -->
<!--zoomable 862 -->
<svg id="main" version="1.1" xmlns="http://www.w3.org/2000/svg" xmlns:xlink="http://www.w3.org/1999/xlink" xml:space="preserve" onload="init(evt)">
<style type="text/css"><![CDATA[
.edge:hover path { stroke: red; }
.edge:hover polygon { stroke: red; fill: red; }
]]></style>
<script type="text/javascript"><![CDATA[
var edges = document.getElementsByTagName('g');
if (edges && edges.length) {
  for (var i=0;i<edges.length;i++) {
    if (edges[i].id.substr(0,4)=='edge') {
      edges[i].setAttribute('class','edge');
    }
  }
}
]]></script>
        <defs>
                <circle id="rim" cx="0" cy="0" r="7"/>
                <circle id="rim2" cx="0" cy="0" r="3.5"/>
                <g id="zoomPlus">
                        <use xlink:href="#rim" fill="#404040">
                                <set attributeName="fill" to="#808080" begin="zoomplus.mouseover" end="zoomplus.mouseout"/>
                        </use>
                        <path d="M-4,0h8M0,-4v8" fill="none" stroke="white" stroke-width="1.5" pointer-events="none"/>
                </g>
                <g id="zoomMin">
                        <use xlink:href="#rim" fill="#404040">
                                <set attributeName="fill" to="#808080" begin="zoomminus.mouseover" end="zoomminus.mouseout"/>
                        </use>
                        <path d="M-4,0h8" fill="none" stroke="white" stroke-width="1.5" pointer-events="none"/>
                </g>
                <g id="dirArrow">
                        <path fill="none" stroke="white" stroke-width="1.5" d="M0,-3.0v7 M-2.5,-0.5L0,-3.0L2.5,-0.5"/>
                </g>
               <g id="resetDef">
                       <use xlink:href="#rim2" fill="#404040">
                               <set attributeName="fill" to="#808080" begin="reset.mouseover" end="reset.mouseout"/>
                       </use>
               </g>
        </defs>

<script type="text/javascript">
var viewWidth = 678;
var viewHeight = 862;
var sectionId = 'dynsection-0';
</script>
<script xlink:href="svgpan.js"/>
<svg id="graph" class="graph">
<g id="viewport">
<title>Feel::FeelModels::GenericDirichletBoundaryCondition&lt; Dim1, Dim2 &gt;</title>
<polygon fill="white" stroke="transparent" points="-4,4 -4,-858 673.84,-858 673.84,4 -4,4"/>
<!-- Node1 -->
<g id="node1" class="node">
<title>Node1</title>
<g id="a_node1"><a xlink:title=" ">
<polygon fill="#bfbfbf" stroke="black" points="293.84,-0.5 293.84,-156.5 458.84,-156.5 458.84,-0.5 293.84,-0.5"/>
<text text-anchor="start" x="301.84" y="-144.5" font-family="Helvetica,sans-Serif" font-size="10.00">Feel::FeelModels::Generic</text>
<text text-anchor="start" x="301.84" y="-133.5" font-family="Helvetica,sans-Serif" font-size="10.00">DirichletBoundaryCondition</text>
<text text-anchor="middle" x="376.34" y="-122.5" font-family="Helvetica,sans-Serif" font-size="10.00">&lt; Dim1, Dim2 &gt;</text>
<polyline fill="none" stroke="black" points="293.84,-115.5 458.84,-115.5 "/>
<text text-anchor="middle" x="376.34" y="-103.5" font-family="Helvetica,sans-Serif" font-size="10.00"> </text>
<polyline fill="none" stroke="black" points="293.84,-96.5 458.84,-96.5 "/>
<text text-anchor="start" x="301.84" y="-84.5" font-family="Helvetica,sans-Serif" font-size="10.00">+ applyDofEliminationLinear()</text>
<text text-anchor="start" x="301.84" y="-73.5" font-family="Helvetica,sans-Serif" font-size="10.00">+ applyNewtonInitialGuess()</text>
<text text-anchor="start" x="301.84" y="-62.5" font-family="Helvetica,sans-Serif" font-size="10.00">+ expr()</text>
<text text-anchor="start" x="301.84" y="-51.5" font-family="Helvetica,sans-Serif" font-size="10.00">+ exprComponent()</text>
<text text-anchor="start" x="301.84" y="-40.5" font-family="Helvetica,sans-Serif" font-size="10.00">+ GenericDirichletBoundary</text>
<text text-anchor="start" x="301.84" y="-29.5" font-family="Helvetica,sans-Serif" font-size="10.00">Condition()</text>
<text text-anchor="start" x="301.84" y="-18.5" font-family="Helvetica,sans-Serif" font-size="10.00">and 12 more...</text>
<text text-anchor="start" x="301.84" y="-7.5" font-family="Helvetica,sans-Serif" font-size="10.00">+ tabulateInformations()</text>
</a>
</g>
</g>
<!-- Node2 -->
<g id="node2" class="node">
<title>Node2</title>
<g id="a_node2"><a xlink:title=" ">
<polygon fill="white" stroke="black" points="35.84,-348 35.84,-405 100.84,-405 100.84,-348 35.84,-348"/>
<text text-anchor="middle" x="68.34" y="-393" font-family="Helvetica,sans-Serif" font-size="10.00">std::string</text>
<polyline fill="none" stroke="black" points="35.84,-386 100.84,-386 "/>
<text text-anchor="middle" x="68.34" y="-374" font-family="Helvetica,sans-Serif" font-size="10.00"> </text>
<polyline fill="none" stroke="black" points="35.84,-367 100.84,-367 "/>
<text text-anchor="middle" x="68.34" y="-355" font-family="Helvetica,sans-Serif" font-size="10.00"> </text>
</a>
</g>
</g>
<!-- Node2&#45;&gt;Node1 -->
<g id="edge1" class="edge">
<title>Node2&#45;&gt;Node1</title>
<path fill="none" stroke="#404040" d="M45.27,-347.94C18.13,-312 -19.44,-248.46 12.34,-204 73.12,-118.98 195.59,-91.38 281.63,-82.77"/>
<polygon fill="none" stroke="#404040" points="281.83,-82.75 287.44,-78.22 293.78,-81.66 288.17,-86.19 281.83,-82.75"/>
<text text-anchor="middle" x="39.34" y="-236" font-family="Helvetica,sans-Serif" font-size="10.00"> #M_name</text>
</g>
<!-- Node10 -->
<g id="node10" class="node">
<title>Node10</title>
<g id="a_node10"><a xlink:title=" ">
<polygon fill="white" stroke="black" points="75.34,-210 75.34,-267 199.34,-267 199.34,-210 75.34,-210"/>
<text text-anchor="middle" x="137.34" y="-255" font-family="Helvetica,sans-Serif" font-size="10.00">std::set&lt; std::string &gt;</text>
<polyline fill="none" stroke="black" points="75.34,-248 199.34,-248 "/>
<text text-anchor="middle" x="137.34" y="-236" font-family="Helvetica,sans-Serif" font-size="10.00"> </text>
<polyline fill="none" stroke="black" points="75.34,-229 199.34,-229 "/>
<text text-anchor="middle" x="137.34" y="-217" font-family="Helvetica,sans-Serif" font-size="10.00"> </text>
</a>
</g>
</g>
<!-- Node2&#45;&gt;Node10 -->
<g id="edge10" class="edge">
<title>Node2&#45;&gt;Node10</title>
<path fill="none" stroke="#404040" d="M82.31,-347.98C92.48,-327.93 106.4,-300.49 117.69,-278.23"/>
<polygon fill="none" stroke="#404040" points="117.73,-278.15 116.88,-270.99 123.16,-267.45 124.02,-274.61 117.73,-278.15"/>
<text text-anchor="middle" x="128.34" y="-294" font-family="Helvetica,sans-Serif" font-size="10.00"> +keys</text>
</g>
<!-- Node3 -->
<g id="node3" class="node">
<title>Node3</title>
<g id="a_node3"><a xlink:title=" ">
<polygon fill="white" stroke="black" points="16.34,-580.5 16.34,-648.5 120.34,-648.5 120.34,-580.5 16.34,-580.5"/>
<text text-anchor="start" x="24.34" y="-636.5" font-family="Helvetica,sans-Serif" font-size="10.00">std::basic_string&lt;</text>
<text text-anchor="middle" x="68.34" y="-625.5" font-family="Helvetica,sans-Serif" font-size="10.00"> Char &gt;</text>
<polyline fill="none" stroke="black" points="16.34,-618.5 120.34,-618.5 "/>
<text text-anchor="middle" x="68.34" y="-606.5" font-family="Helvetica,sans-Serif" font-size="10.00"> </text>
<polyline fill="none" stroke="black" points="16.34,-599.5 120.34,-599.5 "/>
<text text-anchor="middle" x="68.34" y="-587.5" font-family="Helvetica,sans-Serif" font-size="10.00"> </text>
</a>
</g>
</g>
<!-- Node3&#45;&gt;Node2 -->
<g id="edge2" class="edge">
<title>Node3&#45;&gt;Node2</title>
<path fill="none" stroke="midnightblue" d="M68.34,-570.33C68.34,-522.23 68.34,-445.89 68.34,-405.19"/>
<polygon fill="none" stroke="midnightblue" points="64.84,-570.44 68.34,-580.44 71.84,-570.44 64.84,-570.44"/>
</g>
<!-- Node4 -->
<g id="node4" class="node">
<title>Node4</title>
<g id="a_node4"><a xlink:title=" ">
<polygon fill="white" stroke="black" points="217.84,-204.5 217.84,-272.5 366.84,-272.5 366.84,-204.5 217.84,-204.5"/>
<text text-anchor="start" x="225.84" y="-260.5" font-family="Helvetica,sans-Serif" font-size="10.00">std::weak_ptr&lt; Feel</text>
<text text-anchor="middle" x="292.34" y="-249.5" font-family="Helvetica,sans-Serif" font-size="10.00">::FeelModels::ModelBase &gt;</text>
<polyline fill="none" stroke="black" points="217.84,-242.5 366.84,-242.5 "/>
<text text-anchor="middle" x="292.34" y="-230.5" font-family="Helvetica,sans-Serif" font-size="10.00"> </text>
<polyline fill="none" stroke="black" points="217.84,-223.5 366.84,-223.5 "/>
<text text-anchor="start" x="225.84" y="-211.5" font-family="Helvetica,sans-Serif" font-size="10.00">+ operator&#45;&gt;()</text>
</a>
</g>
</g>
<!-- Node4&#45;&gt;Node1 -->
<g id="edge3" class="edge">
<title>Node4&#45;&gt;Node1</title>
<path fill="none" stroke="#404040" d="M302.33,-204.46C305.7,-194.77 309.77,-184.29 314.34,-175 315.61,-172.42 316.94,-169.82 318.31,-167.22"/>
<polygon fill="none" stroke="#404040" points="318.41,-167.04 317.79,-159.86 324.18,-156.52 324.8,-163.7 318.41,-167.04"/>
<text text-anchor="middle" x="361.34" y="-178" font-family="Helvetica,sans-Serif" font-size="10.00"> #M_toolboxParent</text>
</g>
<!-- Node5 -->
<g id="node5" class="node">
<title>Node5</title>
<g id="a_node5"><a xlink:href="classFeel_1_1FeelModels_1_1ModelBase.html" target="_top" xlink:title="Model base class.">
<polygon fill="white" stroke="black" points="195.84,-320.5 195.84,-432.5 388.84,-432.5 388.84,-320.5 195.84,-320.5"/>
<text text-anchor="middle" x="292.34" y="-420.5" font-family="Helvetica,sans-Serif" font-size="10.00">Feel::FeelModels::ModelBase</text>
<polyline fill="none" stroke="black" points="195.84,-413.5 388.84,-413.5 "/>
<text text-anchor="middle" x="292.34" y="-401.5" font-family="Helvetica,sans-Serif" font-size="10.00"> </text>
<polyline fill="none" stroke="black" points="195.84,-394.5 388.84,-394.5 "/>
<text text-anchor="start" x="203.84" y="-382.5" font-family="Helvetica,sans-Serif" font-size="10.00">+ addParameterInModelProperties()</text>
<text text-anchor="start" x="203.84" y="-371.5" font-family="Helvetica,sans-Serif" font-size="10.00">+ addTimerTool()</text>
<text text-anchor="start" x="203.84" y="-360.5" font-family="Helvetica,sans-Serif" font-size="10.00">+ clovm()</text>
<text text-anchor="start" x="203.84" y="-349.5" font-family="Helvetica,sans-Serif" font-size="10.00">+ createWorldsComm()</text>
<text text-anchor="start" x="203.84" y="-338.5" font-family="Helvetica,sans-Serif" font-size="10.00">+ hasModelProperties()</text>
<text text-anchor="start" x="203.84" y="-327.5" font-family="Helvetica,sans-Serif" font-size="10.00">and 54 more...</text>
</a>
</g>
</g>
<!-- Node5&#45;&gt;Node4 -->
<g id="edge4" class="edge">
<title>Node5&#45;&gt;Node4</title>
<path fill="none" stroke="#404040" d="M292.34,-320.18C292.34,-308.43 292.34,-296.15 292.34,-284.82"/>
<polygon fill="none" stroke="#404040" points="292.34,-284.51 288.34,-278.51 292.34,-272.51 296.34,-278.51 292.34,-284.51"/>
<text text-anchor="middle" x="304.84" y="-294" font-family="Helvetica,sans-Serif" font-size="10.00"> +ptr</text>
</g>
<!-- Node6 -->
<g id="node6" class="node">
<title>Node6</title>
<g id="a_node6"><a xlink:href="classFeel_1_1JournalWatcher.html" target="_top" xlink:title=" ">
<polygon fill="white" stroke="#bfbfbf" points="170.84,-470.5 170.84,-758.5 347.84,-758.5 347.84,-470.5 170.84,-470.5"/>
<text text-anchor="middle" x="259.34" y="-746.5" font-family="Helvetica,sans-Serif" font-size="10.00">Feel::JournalWatcher</text>
<polyline fill="none" stroke="#bfbfbf" points="170.84,-739.5 347.84,-739.5 "/>
<text text-anchor="middle" x="259.34" y="-727.5" font-family="Helvetica,sans-Serif" font-size="10.00"> </text>
<polyline fill="none" stroke="#bfbfbf" points="170.84,-720.5 347.84,-720.5 "/>
<text text-anchor="start" x="178.84" y="-708.5" font-family="Helvetica,sans-Serif" font-size="10.00">* M_journal_is_connected</text>
<text text-anchor="start" x="178.84" y="-697.5" font-family="Helvetica,sans-Serif" font-size="10.00">* M_category</text>
<text text-anchor="start" x="178.84" y="-686.5" font-family="Helvetica,sans-Serif" font-size="10.00">* M_name</text>
<text text-anchor="start" x="178.84" y="-675.5" font-family="Helvetica,sans-Serif" font-size="10.00">* M_function_updateInformation</text>
<text text-anchor="start" x="178.84" y="-664.5" font-family="Helvetica,sans-Serif" font-size="10.00">Object</text>
<text text-anchor="start" x="178.84" y="-653.5" font-family="Helvetica,sans-Serif" font-size="10.00">* M_informationObject</text>
<text text-anchor="start" x="178.84" y="-642.5" font-family="Helvetica,sans-Serif" font-size="10.00">* S_counterObjectByCategory</text>
<text text-anchor="start" x="178.84" y="-631.5" font-family="Helvetica,sans-Serif" font-size="10.00">* JournalWatcher()</text>
<text text-anchor="start" x="178.84" y="-620.5" font-family="Helvetica,sans-Serif" font-size="10.00">* JournalWatcher()</text>
<text text-anchor="start" x="178.84" y="-609.5" font-family="Helvetica,sans-Serif" font-size="10.00">* JournalWatcher()</text>
<text text-anchor="start" x="178.84" y="-598.5" font-family="Helvetica,sans-Serif" font-size="10.00">* JournalWatcher()</text>
<text text-anchor="start" x="178.84" y="-587.5" font-family="Helvetica,sans-Serif" font-size="10.00">* ~JournalWatcher()</text>
<text text-anchor="start" x="178.84" y="-576.5" font-family="Helvetica,sans-Serif" font-size="10.00">* journalIsConnected()</text>
<text text-anchor="start" x="178.84" y="-565.5" font-family="Helvetica,sans-Serif" font-size="10.00">* journalWatcherInstanceName()</text>
<text text-anchor="start" x="178.84" y="-554.5" font-family="Helvetica,sans-Serif" font-size="10.00">* journalSection()</text>
<text text-anchor="start" x="178.84" y="-543.5" font-family="Helvetica,sans-Serif" font-size="10.00">* informationObject()</text>
<text text-anchor="start" x="178.84" y="-532.5" font-family="Helvetica,sans-Serif" font-size="10.00">* journalConnect()</text>
<text text-anchor="start" x="178.84" y="-521.5" font-family="Helvetica,sans-Serif" font-size="10.00">* journalDisconnect()</text>
<text text-anchor="start" x="178.84" y="-510.5" font-family="Helvetica,sans-Serif" font-size="10.00">* updateInformationObject()</text>
<text text-anchor="start" x="178.84" y="-499.5" font-family="Helvetica,sans-Serif" font-size="10.00">* setInformationObject()</text>
<text text-anchor="start" x="178.84" y="-488.5" font-family="Helvetica,sans-Serif" font-size="10.00">* putInformationObject()</text>
<text text-anchor="start" x="178.84" y="-477.5" font-family="Helvetica,sans-Serif" font-size="10.00">and 4 more...</text>
</a>
</g>
</g>
<!-- Node6&#45;&gt;Node5 -->
<g id="edge5" class="edge">
<title>Node6&#45;&gt;Node5</title>
<path fill="none" stroke="midnightblue" d="M280.77,-460.28C282.12,-450.64 283.42,-441.35 284.63,-432.69"/>
<polygon fill="none" stroke="midnightblue" points="277.27,-460.05 279.35,-470.43 284.2,-461.02 277.27,-460.05"/>
</g>
<!-- Node7 -->
<g id="node7" class="node">
<title>Node7</title>
<g id="a_node7"><a xlink:title=" ">
<polygon fill="white" stroke="#bfbfbf" points="205.84,-796.5 205.84,-853.5 312.84,-853.5 312.84,-796.5 205.84,-796.5"/>
<text text-anchor="middle" x="259.34" y="-841.5" font-family="Helvetica,sans-Serif" font-size="10.00">Event::SlotHandler</text>
<polyline fill="none" stroke="#bfbfbf" points="205.84,-834.5 312.84,-834.5 "/>
<text text-anchor="middle" x="259.34" y="-822.5" font-family="Helvetica,sans-Serif" font-size="10.00"> </text>
<polyline fill="none" stroke="#bfbfbf" points="205.84,-815.5 312.84,-815.5 "/>
<text text-anchor="middle" x="259.34" y="-803.5" font-family="Helvetica,sans-Serif" font-size="10.00"> </text>
</a>
</g>
</g>
<!-- Node7&#45;&gt;Node6 -->
<g id="edge6" class="edge">
<title>Node7&#45;&gt;Node6</title>
<path fill="none" stroke="midnightblue" d="M259.34,-786.25C259.34,-777.86 259.34,-768.49 259.34,-758.57"/>
<polygon fill="none" stroke="midnightblue" points="255.84,-786.31 259.34,-796.31 262.84,-786.31 255.84,-786.31"/>
</g>
<!-- Node8 -->
<g id="node8" class="node">
<title>Node8</title>
<g id="a_node8"><a xlink:title=" ">
<polygon fill="white" stroke="#bfbfbf" points="365.84,-580.5 365.84,-648.5 510.84,-648.5 510.84,-580.5 365.84,-580.5"/>
<text text-anchor="start" x="373.84" y="-636.5" font-family="Helvetica,sans-Serif" font-size="10.00">std::enable_shared</text>
<text text-anchor="middle" x="438.34" y="-625.5" font-family="Helvetica,sans-Serif" font-size="10.00">_from_this&lt; ModelBase &gt;</text>
<polyline fill="none" stroke="#bfbfbf" points="365.84,-618.5 510.84,-618.5 "/>
<text text-anchor="middle" x="438.34" y="-606.5" font-family="Helvetica,sans-Serif" font-size="10.00"> </text>
<polyline fill="none" stroke="#bfbfbf" points="365.84,-599.5 510.84,-599.5 "/>
<text text-anchor="middle" x="438.34" y="-587.5" font-family="Helvetica,sans-Serif" font-size="10.00"> </text>
</a>
</g>
</g>
<!-- Node8&#45;&gt;Node5 -->
<g id="edge7" class="edge">
<title>Node8&#45;&gt;Node5</title>
<path fill="none" stroke="midnightblue" d="M415.46,-571.25C399.5,-542.36 377.39,-503.41 356.34,-470 348.64,-457.77 340.04,-444.89 331.71,-432.74"/>
<polygon fill="none" stroke="midnightblue" points="412.52,-573.18 420.41,-580.25 418.66,-569.8 412.52,-573.18"/>
</g>
<!-- Node9 -->
<g id="node9" class="node">
<title>Node9</title>
<g id="a_node9"><a xlink:title=" ">
<polygon fill="white" stroke="#bfbfbf" points="385.34,-210 385.34,-267 485.34,-267 485.34,-210 385.34,-210"/>
<text text-anchor="middle" x="435.34" y="-255" font-family="Helvetica,sans-Serif" font-size="10.00">ModelExpression</text>
<polyline fill="none" stroke="#bfbfbf" points="385.34,-248 485.34,-248 "/>
<text text-anchor="middle" x="435.34" y="-236" font-family="Helvetica,sans-Serif" font-size="10.00"> </text>
<polyline fill="none" stroke="#bfbfbf" points="385.34,-229 485.34,-229 "/>
<text text-anchor="middle" x="435.34" y="-217" font-family="Helvetica,sans-Serif" font-size="10.00"> </text>
</a>
</g>
</g>
<!-- Node9&#45;&gt;Node1 -->
<g id="edge8" class="edge">
<title>Node9&#45;&gt;Node1</title>
<path fill="none" stroke="#404040" d="M425.07,-209.98C420.62,-198.07 415.14,-183.4 409.48,-168.25"/>
<polygon fill="none" stroke="#404040" points="409.33,-167.84 403.48,-163.62 405.13,-156.6 410.98,-160.82 409.33,-167.84"/>
<text text-anchor="middle" x="443.34" y="-178" font-family="Helvetica,sans-Serif" font-size="10.00"> #M_mexpr</text>
</g>
<!-- Node10&#45;&gt;Node1 -->
<g id="edge9" class="edge">
<title>Node10&#45;&gt;Node1</title>
<path fill="none" stroke="#404040" d="M178.97,-209.98C207.82,-190.91 247.4,-164.74 283.54,-140.85"/>
<polygon fill="none" stroke="#404040" points="283.62,-140.8 286.42,-134.15 293.63,-134.18 290.83,-140.82 283.62,-140.8"/>
<text text-anchor="middle" x="262.34" y="-178" font-family="Helvetica,sans-Serif" font-size="10.00"> #M_markers</text>
</g>
<!-- Node11 -->
<g id="node11" class="node">
<title>Node11</title>
<g id="a_node11"><a xlink:title=" ">
<polygon fill="white" stroke="#bfbfbf" points="503.84,-210 503.84,-267 598.84,-267 598.84,-210 503.84,-210"/>
<text text-anchor="middle" x="551.34" y="-255" font-family="Helvetica,sans-Serif" font-size="10.00">ComponentType</text>
<polyline fill="none" stroke="#bfbfbf" points="503.84,-248 598.84,-248 "/>
<text text-anchor="middle" x="551.34" y="-236" font-family="Helvetica,sans-Serif" font-size="10.00"> </text>
<polyline fill="none" stroke="#bfbfbf" points="503.84,-229 598.84,-229 "/>
<text text-anchor="middle" x="551.34" y="-217" font-family="Helvetica,sans-Serif" font-size="10.00"> </text>
</a>
</g>
</g>
<!-- Node11&#45;&gt;Node1 -->
<g id="edge11" class="edge">
<title>Node11&#45;&gt;Node1</title>
<path fill="none" stroke="#404040" d="M520.86,-209.98C505.98,-196.55 487.21,-179.59 468.16,-162.4"/>
<polygon fill="none" stroke="#404040" points="468.01,-162.26 460.88,-161.21 459.1,-154.22 466.24,-155.27 468.01,-162.26"/>
<text text-anchor="middle" x="515.84" y="-178" font-family="Helvetica,sans-Serif" font-size="10.00"> #M_comp</text>
</g>
<!-- Node12 -->
<g id="node12" class="node">
<title>Node12</title>
<g id="a_node12"><a xlink:title=" ">
<polygon fill="white" stroke="#bfbfbf" points="616.84,-210 616.84,-267 669.84,-267 669.84,-210 616.84,-210"/>
<text text-anchor="middle" x="643.34" y="-255" font-family="Helvetica,sans-Serif" font-size="10.00">Method</text>
<polyline fill="none" stroke="#bfbfbf" points="616.84,-248 669.84,-248 "/>
<text text-anchor="middle" x="643.34" y="-236" font-family="Helvetica,sans-Serif" font-size="10.00"> </text>
<polyline fill="none" stroke="#bfbfbf" points="616.84,-229 669.84,-229 "/>
<text text-anchor="middle" x="643.34" y="-217" font-family="Helvetica,sans-Serif" font-size="10.00"> </text>
</a>
</g>
</g>
<!-- Node12&#45;&gt;Node1 -->
<g id="edge12" class="edge">
<title>Node12&#45;&gt;Node1</title>
<path fill="none" stroke="#404040" d="M616.45,-210.42C613.79,-208.15 611.07,-205.98 608.34,-204 565.38,-172.8 513.64,-144.29 469.93,-122.44"/>
<polygon fill="none" stroke="#404040" points="469.76,-122.35 462.61,-123.28 459.01,-117.03 466.16,-116.11 469.76,-122.35"/>
<text text-anchor="middle" x="610.34" y="-178" font-family="Helvetica,sans-Serif" font-size="10.00"> #M_method</text>
</g>
</g>
</svg>
        <g id="navigator" transform="translate(0 0)" fill="#404254">
                <rect fill="#f2f5e9" fill-opacity="0.5" stroke="#606060" stroke-width=".5" x="0" y="0" width="60" height="60"/>
                <use id="zoomplus" xlink:href="#zoomPlus" x="17" y="9" onmousedown="handleZoom(evt,'in')"/>
                <use id="zoomminus" xlink:href="#zoomMin" x="42" y="9" onmousedown="handleZoom(evt,'out')"/>
                <use id="reset" xlink:href="#resetDef" x="30" y="36" onmousedown="handleReset()"/>
                <g id="arrowUp" xlink:href="#dirArrow" transform="translate(30 24)" onmousedown="handlePan(0,-1)">
                  <use xlink:href="#rim" fill="#404040">
                        <set attributeName="fill" to="#808080" begin="arrowUp.mouseover" end="arrowUp.mouseout"/>
                  </use>
                  <path fill="none" stroke="white" stroke-width="1.5" d="M0,-3.0v7 M-2.5,-0.5L0,-3.0L2.5,-0.5"/>
                </g>
                <g id="arrowRight" xlink:href="#dirArrow" transform="rotate(90) translate(36 -43)" onmousedown="handlePan(1,0)">
                  <use xlink:href="#rim" fill="#404040">
                        <set attributeName="fill" to="#808080" begin="arrowRight.mouseover" end="arrowRight.mouseout"/>
                  </use>
                  <path fill="none" stroke="white" stroke-width="1.5" d="M0,-3.0v7 M-2.5,-0.5L0,-3.0L2.5,-0.5"/>
                </g>
                <g id="arrowDown" xlink:href="#dirArrow" transform="rotate(180) translate(-30 -48)" onmousedown="handlePan(0,1)">
                  <use xlink:href="#rim" fill="#404040">
                        <set attributeName="fill" to="#808080" begin="arrowDown.mouseover" end="arrowDown.mouseout"/>
                  </use>
                  <path fill="none" stroke="white" stroke-width="1.5" d="M0,-3.0v7 M-2.5,-0.5L0,-3.0L2.5,-0.5"/>
                </g>
                <g id="arrowLeft" xlink:href="#dirArrow" transform="rotate(270) translate(-36 17)" onmousedown="handlePan(-1,0)">
                  <use xlink:href="#rim" fill="#404040">
                        <set attributeName="fill" to="#808080" begin="arrowLeft.mouseover" end="arrowLeft.mouseout"/>
                  </use>
                  <path fill="none" stroke="white" stroke-width="1.5" d="M0,-3.0v7 M-2.5,-0.5L0,-3.0L2.5,-0.5"/>
                </g>
        </g>
        <svg viewBox="0 0 15 15" width="100%" height="30px" preserveAspectRatio="xMaxYMin meet">
         <g id="arrow_out" transform="scale(0.3 0.3)">
          <a xlink:href="classFeel_1_1FeelModels_1_1GenericDirichletBoundaryCondition__coll__graph_org.svg" target="_base">
           <rect id="button" ry="5" rx="5" y="6" x="6" height="38" width="38"
                fill="#f2f5e9" fill-opacity="0.5" stroke="#606060" stroke-width="1.0"/>
           <path id="arrow"
             d="M 11.500037,31.436501 C 11.940474,20.09759 22.043105,11.32322 32.158766,21.979434 L 37.068811,17.246167 C 37.068811,17.246167 37.088388,32 37.088388,32 L 22.160133,31.978069 C 22.160133,31.978069 26.997745,27.140456 26.997745,27.140456 C 18.528582,18.264221 13.291696,25.230495 11.500037,31.436501 z"
             style="fill:#404040;"/>
          </a>
         </g>
        </svg>
</svg>
