<?xml version="1.0" encoding="UTF-8" standalone="no"?>
<!DOCTYPE svg PUBLIC "-//W3C//DTD SVG 1.1//EN"
 "http://www.w3.org/Graphics/SVG/1.1/DTD/svg11.dtd">
<!-- Generated by graphviz version 2.43.0 (0)
 -->
<!-- Title: Feel::vf::Rand&lt; T &gt; Pages: 1 -->
<svg width="299pt" height="248pt"
 viewBox="0.00 0.00 298.50 248.00" xmlns="http://www.w3.org/2000/svg" xmlns:xlink="http://www.w3.org/1999/xlink">
<g id="graph0" class="graph" transform="scale(1 1) rotate(0) translate(4 244)">
<title>Feel::vf::Rand&lt; T &gt;</title>
<polygon fill="white" stroke="transparent" points="-4,4 -4,-244 294.5,-244 294.5,4 -4,4"/>
<!-- Node1 -->
<g id="node1" class="node">
<title>Node1</title>
<g id="a_node1"><a xlink:title=" ">
<polygon fill="#bfbfbf" stroke="black" points="92,-0.5 92,-112.5 203,-112.5 203,-0.5 92,-0.5"/>
<text text-anchor="middle" x="147.5" y="-100.5" font-family="Helvetica,sans-Serif" font-size="10.00">Feel::vf::Rand&lt; T &gt;</text>
<polyline fill="none" stroke="black" points="92,-93.5 203,-93.5 "/>
<text text-anchor="middle" x="147.5" y="-81.5" font-family="Helvetica,sans-Serif" font-size="10.00"> </text>
<polyline fill="none" stroke="black" points="92,-74.5 203,-74.5 "/>
<text text-anchor="start" x="100" y="-62.5" font-family="Helvetica,sans-Serif" font-size="10.00">+ evaluate()</text>
<text text-anchor="start" x="100" y="-51.5" font-family="Helvetica,sans-Serif" font-size="10.00">+ evaluate()</text>
<text text-anchor="start" x="100" y="-40.5" font-family="Helvetica,sans-Serif" font-size="10.00">+ evaluate()</text>
<text text-anchor="start" x="100" y="-29.5" font-family="Helvetica,sans-Serif" font-size="10.00">+ high()</text>
<text text-anchor="start" x="100" y="-18.5" font-family="Helvetica,sans-Serif" font-size="10.00">+ isPolynomial()</text>
<text text-anchor="start" x="100" y="-7.5" font-family="Helvetica,sans-Serif" font-size="10.00">and 9 more...</text>
</a>
</g>
</g>
<!-- Node2 -->
<g id="node2" class="node">
<title>Node2</title>
<g id="a_node2"><a xlink:href="classFeel_1_1vf_1_1RandBase.html" target="_top" xlink:title=" ">
<polygon fill="white" stroke="black" points="0,-182.5 0,-239.5 107,-239.5 107,-182.5 0,-182.5"/>
<text text-anchor="middle" x="53.5" y="-227.5" font-family="Helvetica,sans-Serif" font-size="10.00">Feel::vf::RandBase</text>
<polyline fill="none" stroke="black" points="0,-220.5 107,-220.5 "/>
<text text-anchor="middle" x="53.5" y="-208.5" font-family="Helvetica,sans-Serif" font-size="10.00"> </text>
<polyline fill="none" stroke="black" points="0,-201.5 107,-201.5 "/>
<text text-anchor="middle" x="53.5" y="-189.5" font-family="Helvetica,sans-Serif" font-size="10.00"> </text>
</a>
</g>
</g>
<!-- Node2&#45;&gt;Node1 -->
<g id="edge1" class="edge">
<title>Node2&#45;&gt;Node1</title>
<path fill="none" stroke="midnightblue" d="M75.81,-173.8C87.06,-155.56 100.93,-133.05 113.47,-112.71"/>
<polygon fill="none" stroke="midnightblue" points="72.79,-172.03 70.52,-182.38 78.75,-175.71 72.79,-172.03"/>
</g>
<!-- Node3 -->
<g id="node3" class="node">
<title>Node3</title>
<g id="a_node3"><a xlink:href="classsize__t.html" target="_top" xlink:title=" ">
<polygon fill="white" stroke="black" points="125,-182.5 125,-239.5 170,-239.5 170,-182.5 125,-182.5"/>
<text text-anchor="middle" x="147.5" y="-227.5" font-family="Helvetica,sans-Serif" font-size="10.00">size_t</text>
<polyline fill="none" stroke="black" points="125,-220.5 170,-220.5 "/>
<text text-anchor="middle" x="147.5" y="-208.5" font-family="Helvetica,sans-Serif" font-size="10.00"> </text>
<polyline fill="none" stroke="black" points="125,-201.5 170,-201.5 "/>
<text text-anchor="middle" x="147.5" y="-189.5" font-family="Helvetica,sans-Serif" font-size="10.00"> </text>
</a>
</g>
</g>
<!-- Node3&#45;&gt;Node1 -->
<g id="edge2" class="edge">
<title>Node3&#45;&gt;Node1</title>
<path fill="none" stroke="#404040" d="M147.5,-182.38C147.5,-166.24 147.5,-145.11 147.5,-124.84"/>
<polygon fill="none" stroke="#404040" points="147.5,-124.71 143.5,-118.71 147.5,-112.71 151.5,-118.71 147.5,-124.71"/>
<text text-anchor="middle" x="172" y="-145" font-family="Helvetica,sans-Serif" font-size="10.00"> +context</text>
</g>
<!-- Node4 -->
<g id="node4" class="node">
<title>Node4</title>
<g id="a_node4"><a xlink:href="classbool.html" target="_top" xlink:title=" ">
<polygon fill="white" stroke="black" points="200.5,-182.5 200.5,-239.5 238.5,-239.5 238.5,-182.5 200.5,-182.5"/>
<text text-anchor="middle" x="219.5" y="-227.5" font-family="Helvetica,sans-Serif" font-size="10.00">bool</text>
<polyline fill="none" stroke="black" points="200.5,-220.5 238.5,-220.5 "/>
<text text-anchor="middle" x="219.5" y="-208.5" font-family="Helvetica,sans-Serif" font-size="10.00"> </text>
<polyline fill="none" stroke="black" points="200.5,-201.5 238.5,-201.5 "/>
<text text-anchor="middle" x="219.5" y="-189.5" font-family="Helvetica,sans-Serif" font-size="10.00"> </text>
</a>
</g>
</g>
<!-- Node4&#45;&gt;Node1 -->
<g id="edge3" class="edge">
<title>Node4&#45;&gt;Node1</title>
<path fill="none" stroke="#404040" d="M214.08,-182.16C210.5,-166.66 205.05,-147.27 197.5,-131 196.29,-128.4 195,-125.79 193.64,-123.19"/>
<polygon fill="none" stroke="#404040" points="193.55,-123.03 187.13,-119.75 187.7,-112.56 194.11,-115.85 193.55,-123.03"/>
<text text-anchor="middle" x="249.5" y="-156" font-family="Helvetica,sans-Serif" font-size="10.00"> +is_terminal</text>
<text text-anchor="middle" x="249.5" y="-145" font-family="Helvetica,sans-Serif" font-size="10.00">+has_trial_basis</text>
<text text-anchor="middle" x="249.5" y="-134" font-family="Helvetica,sans-Serif" font-size="10.00">+has_test_basis</text>
</g>
</g>
</svg>
