<?xml version="1.0" encoding="UTF-8" standalone="no"?>
<!DOCTYPE svg PUBLIC "-//W3C//DTD SVG 1.1//EN"
 "http://www.w3.org/Graphics/SVG/1.1/DTD/svg11.dtd">
<!-- Generated by graphviz version 2.43.0 (0)
 -->
<!-- Title: Feel::FactoryDefaultError&lt; IdentifierType, AbstractProduct &gt;::Exception Pages: 1 -->
<svg width="185pt" height="226pt"
 viewBox="0.00 0.00 185.00 226.00" xmlns="http://www.w3.org/2000/svg" xmlns:xlink="http://www.w3.org/1999/xlink">
<g id="graph0" class="graph" transform="scale(1 1) rotate(0) translate(4 222)">
<title>Feel::FactoryDefaultError&lt; IdentifierType, AbstractProduct &gt;::Exception</title>
<polygon fill="white" stroke="transparent" points="-4,4 -4,-222 181,-222 181,4 -4,4"/>
<!-- Node1 -->
<g id="node1" class="node">
<title>Node1</title>
<g id="a_node1"><a xlink:title=" ">
<polygon fill="#bfbfbf" stroke="black" points="0,-0.5 0,-123.5 177,-123.5 177,-0.5 0,-0.5"/>
<text text-anchor="start" x="8" y="-111.5" font-family="Helvetica,sans-Serif" font-size="10.00">Feel::FactoryDefaultError</text>
<text text-anchor="start" x="8" y="-100.5" font-family="Helvetica,sans-Serif" font-size="10.00">&lt; IdentifierType, AbstractProduct</text>
<text text-anchor="middle" x="88.5" y="-89.5" font-family="Helvetica,sans-Serif" font-size="10.00"> &gt;::Exception</text>
<polyline fill="none" stroke="black" points="0,-82.5 177,-82.5 "/>
<text text-anchor="middle" x="88.5" y="-70.5" font-family="Helvetica,sans-Serif" font-size="10.00"> </text>
<polyline fill="none" stroke="black" points="0,-63.5 177,-63.5 "/>
<text text-anchor="start" x="8" y="-51.5" font-family="Helvetica,sans-Serif" font-size="10.00">+ Exception()</text>
<text text-anchor="start" x="8" y="-40.5" font-family="Helvetica,sans-Serif" font-size="10.00">+ getEx()</text>
<text text-anchor="start" x="8" y="-29.5" font-family="Helvetica,sans-Serif" font-size="10.00">+ getEx()</text>
<text text-anchor="start" x="8" y="-18.5" font-family="Helvetica,sans-Serif" font-size="10.00">+ what()</text>
<text text-anchor="start" x="8" y="-7.5" font-family="Helvetica,sans-Serif" font-size="10.00">+ ~Exception()</text>
</a>
</g>
</g>
<!-- Node2 -->
<g id="node2" class="node">
<title>Node2</title>
<g id="a_node2"><a xlink:title="STL class.">
<polygon fill="white" stroke="#bfbfbf" points="45.5,-160.5 45.5,-217.5 131.5,-217.5 131.5,-160.5 45.5,-160.5"/>
<text text-anchor="middle" x="88.5" y="-205.5" font-family="Helvetica,sans-Serif" font-size="10.00">std::exception</text>
<polyline fill="none" stroke="#bfbfbf" points="45.5,-198.5 131.5,-198.5 "/>
<text text-anchor="middle" x="88.5" y="-186.5" font-family="Helvetica,sans-Serif" font-size="10.00"> </text>
<polyline fill="none" stroke="#bfbfbf" points="45.5,-179.5 131.5,-179.5 "/>
<text text-anchor="middle" x="88.5" y="-167.5" font-family="Helvetica,sans-Serif" font-size="10.00"> </text>
</a>
</g>
</g>
<!-- Node2&#45;&gt;Node1 -->
<g id="edge1" class="edge">
<title>Node2&#45;&gt;Node1</title>
<path fill="none" stroke="midnightblue" d="M88.5,-150.1C88.5,-141.74 88.5,-132.68 88.5,-123.67"/>
<polygon fill="none" stroke="midnightblue" points="85,-150.26 88.5,-160.26 92,-150.26 85,-150.26"/>
</g>
</g>
</svg>
