<?xml version="1.0" encoding="UTF-8" standalone="no"?>
<!DOCTYPE svg PUBLIC "-//W3C//DTD SVG 1.1//EN"
 "http://www.w3.org/Graphics/SVG/1.1/DTD/svg11.dtd">
<!-- Generated by graphviz version 2.43.0 (0)
 -->
<!-- Title: and_ Pages: 1 -->
<svg width="680pt" height="182pt"
 viewBox="0.00 0.00 680.00 182.00" xmlns="http://www.w3.org/2000/svg" xmlns:xlink="http://www.w3.org/1999/xlink">
<g id="graph0" class="graph" transform="scale(1 1) rotate(0) translate(4 178)">
<title>and_</title>
<polygon fill="white" stroke="transparent" points="-4,4 -4,-178 676,-178 676,4 -4,4"/>
<!-- Node1 -->
<g id="node1" class="node">
<title>Node1</title>
<g id="a_node1"><a xlink:title=" ">
<polygon fill="#bfbfbf" stroke="black" points="311,-116.5 311,-173.5 351,-173.5 351,-116.5 311,-116.5"/>
<text text-anchor="middle" x="331" y="-161.5" font-family="Helvetica,sans-Serif" font-size="10.00">and_</text>
<polyline fill="none" stroke="black" points="311,-154.5 351,-154.5 "/>
<text text-anchor="middle" x="331" y="-142.5" font-family="Helvetica,sans-Serif" font-size="10.00"> </text>
<polyline fill="none" stroke="black" points="311,-135.5 351,-135.5 "/>
<text text-anchor="middle" x="331" y="-123.5" font-family="Helvetica,sans-Serif" font-size="10.00"> </text>
</a>
</g>
</g>
<!-- Node2 -->
<g id="node2" class="node">
<title>Node2</title>
<g id="a_node2"><a xlink:href="structFeel_1_1is__cube.html" target="_top" xlink:title=" ">
<polygon fill="white" stroke="black" points="0,-11.5 0,-68.5 108,-68.5 108,-11.5 0,-11.5"/>
<text text-anchor="middle" x="54" y="-56.5" font-family="Helvetica,sans-Serif" font-size="10.00">Feel::is_cube&lt; T &gt;</text>
<polyline fill="none" stroke="black" points="0,-49.5 108,-49.5 "/>
<text text-anchor="middle" x="54" y="-37.5" font-family="Helvetica,sans-Serif" font-size="10.00"> </text>
<polyline fill="none" stroke="black" points="0,-30.5 108,-30.5 "/>
<text text-anchor="middle" x="54" y="-18.5" font-family="Helvetica,sans-Serif" font-size="10.00"> </text>
</a>
</g>
</g>
<!-- Node1&#45;&gt;Node2 -->
<g id="edge1" class="edge">
<title>Node1&#45;&gt;Node2</title>
<path fill="none" stroke="midnightblue" d="M300.98,-137.67C258.76,-128.17 179.93,-108.29 117,-80 109.73,-76.73 102.28,-72.76 95.17,-68.61"/>
<polygon fill="none" stroke="midnightblue" points="300.38,-141.12 310.9,-139.85 301.89,-134.28 300.38,-141.12"/>
</g>
<!-- Node3 -->
<g id="node3" class="node">
<title>Node3</title>
<g id="a_node3"><a xlink:href="structFeel_1_1is__segment.html" target="_top" xlink:title=" ">
<polygon fill="white" stroke="black" points="126,-11.5 126,-68.5 254,-68.5 254,-11.5 126,-11.5"/>
<text text-anchor="middle" x="190" y="-56.5" font-family="Helvetica,sans-Serif" font-size="10.00">Feel::is_segment&lt; T &gt;</text>
<polyline fill="none" stroke="black" points="126,-49.5 254,-49.5 "/>
<text text-anchor="middle" x="190" y="-37.5" font-family="Helvetica,sans-Serif" font-size="10.00"> </text>
<polyline fill="none" stroke="black" points="126,-30.5 254,-30.5 "/>
<text text-anchor="middle" x="190" y="-18.5" font-family="Helvetica,sans-Serif" font-size="10.00"> </text>
</a>
</g>
</g>
<!-- Node1&#45;&gt;Node3 -->
<g id="edge2" class="edge">
<title>Node1&#45;&gt;Node3</title>
<path fill="none" stroke="midnightblue" d="M302.69,-123.32C281.13,-107.57 251.24,-85.74 227.66,-68.51"/>
<polygon fill="none" stroke="midnightblue" points="300.66,-126.17 310.8,-129.24 304.79,-120.52 300.66,-126.17"/>
</g>
<!-- Node4 -->
<g id="node4" class="node">
<title>Node4</title>
<g id="a_node4"><a xlink:href="structFeel_1_1is__square.html" target="_top" xlink:title=" ">
<polygon fill="white" stroke="black" points="272,-11.5 272,-68.5 390,-68.5 390,-11.5 272,-11.5"/>
<text text-anchor="middle" x="331" y="-56.5" font-family="Helvetica,sans-Serif" font-size="10.00">Feel::is_square&lt; T &gt;</text>
<polyline fill="none" stroke="black" points="272,-49.5 390,-49.5 "/>
<text text-anchor="middle" x="331" y="-37.5" font-family="Helvetica,sans-Serif" font-size="10.00"> </text>
<polyline fill="none" stroke="black" points="272,-30.5 390,-30.5 "/>
<text text-anchor="middle" x="331" y="-18.5" font-family="Helvetica,sans-Serif" font-size="10.00"> </text>
</a>
</g>
</g>
<!-- Node1&#45;&gt;Node4 -->
<g id="edge3" class="edge">
<title>Node1&#45;&gt;Node4</title>
<path fill="none" stroke="midnightblue" d="M331,-106.29C331,-93.84 331,-80.23 331,-68.68"/>
<polygon fill="none" stroke="midnightblue" points="327.5,-106.4 331,-116.4 334.5,-106.4 327.5,-106.4"/>
</g>
<!-- Node5 -->
<g id="node5" class="node">
<title>Node5</title>
<g id="a_node5"><a xlink:href="structFeel_1_1is__tetrahedron.html" target="_top" xlink:title=" ">
<polygon fill="white" stroke="black" points="408.5,-0.5 408.5,-79.5 531.5,-79.5 531.5,-0.5 408.5,-0.5"/>
<text text-anchor="start" x="416.5" y="-67.5" font-family="Helvetica,sans-Serif" font-size="10.00">Feel::is_tetrahedron</text>
<text text-anchor="start" x="416.5" y="-56.5" font-family="Helvetica,sans-Serif" font-size="10.00">&lt; is_simplex&lt; T &gt;, is</text>
<text text-anchor="middle" x="470" y="-45.5" font-family="Helvetica,sans-Serif" font-size="10.00">_3d&lt; T &gt; &gt;</text>
<polyline fill="none" stroke="black" points="408.5,-38.5 531.5,-38.5 "/>
<text text-anchor="middle" x="470" y="-26.5" font-family="Helvetica,sans-Serif" font-size="10.00"> </text>
<polyline fill="none" stroke="black" points="408.5,-19.5 531.5,-19.5 "/>
<text text-anchor="middle" x="470" y="-7.5" font-family="Helvetica,sans-Serif" font-size="10.00"> </text>
</a>
</g>
</g>
<!-- Node1&#45;&gt;Node5 -->
<g id="edge4" class="edge">
<title>Node1&#45;&gt;Node5</title>
<path fill="none" stroke="midnightblue" d="M359.52,-122.87C376.35,-110.4 398.16,-94.24 417.95,-79.57"/>
<polygon fill="none" stroke="midnightblue" points="357.16,-120.26 351.21,-129.02 361.33,-125.88 357.16,-120.26"/>
</g>
<!-- Node6 -->
<g id="node6" class="node">
<title>Node6</title>
<g id="a_node6"><a xlink:href="structFeel_1_1is__triangle.html" target="_top" xlink:title=" ">
<polygon fill="white" stroke="black" points="550,-11.5 550,-68.5 672,-68.5 672,-11.5 550,-11.5"/>
<text text-anchor="middle" x="611" y="-56.5" font-family="Helvetica,sans-Serif" font-size="10.00">Feel::is_triangle&lt; T &gt;</text>
<polyline fill="none" stroke="black" points="550,-49.5 672,-49.5 "/>
<text text-anchor="middle" x="611" y="-37.5" font-family="Helvetica,sans-Serif" font-size="10.00"> </text>
<polyline fill="none" stroke="black" points="550,-30.5 672,-30.5 "/>
<text text-anchor="middle" x="611" y="-18.5" font-family="Helvetica,sans-Serif" font-size="10.00"> </text>
</a>
</g>
</g>
<!-- Node1&#45;&gt;Node6 -->
<g id="edge5" class="edge">
<title>Node1&#45;&gt;Node6</title>
<path fill="none" stroke="midnightblue" d="M360.92,-137.02C402.29,-126.89 478.92,-106.4 541,-80 548.81,-76.68 556.87,-72.73 564.62,-68.63"/>
<polygon fill="none" stroke="midnightblue" points="360.08,-133.62 351.19,-139.37 361.73,-140.42 360.08,-133.62"/>
</g>
</g>
</svg>
