<?xml version="1.0" encoding="UTF-8" standalone="no"?>
<!DOCTYPE svg PUBLIC "-//W3C//DTD SVG 1.1//EN"
 "http://www.w3.org/Graphics/SVG/1.1/DTD/svg11.dtd">
<!-- Generated by graphviz version 2.43.0 (0)
 -->
<!-- Title: Feel::CNAB2x2&lt; Element1, Element2 &gt; Pages: 1 -->
<svg width="157pt" height="375pt"
 viewBox="0.00 0.00 157.00 375.00" xmlns="http://www.w3.org/2000/svg" xmlns:xlink="http://www.w3.org/1999/xlink">
<g id="graph0" class="graph" transform="scale(1 1) rotate(0) translate(4 371)">
<title>Feel::CNAB2x2&lt; Element1, Element2 &gt;</title>
<polygon fill="white" stroke="transparent" points="-4,4 -4,-371 153,-371 153,4 -4,4"/>
<!-- Node1 -->
<g id="node1" class="node">
<title>Node1</title>
<g id="a_node1"><a xlink:title=" ">
<polygon fill="#bfbfbf" stroke="black" points="0,-0.5 0,-123.5 149,-123.5 149,-0.5 0,-0.5"/>
<text text-anchor="start" x="8" y="-111.5" font-family="Helvetica,sans-Serif" font-size="10.00">Feel::CNAB2x2&lt; Element1,</text>
<text text-anchor="middle" x="74.5" y="-100.5" font-family="Helvetica,sans-Serif" font-size="10.00"> Element2 &gt;</text>
<polyline fill="none" stroke="black" points="0,-93.5 149,-93.5 "/>
<text text-anchor="middle" x="74.5" y="-81.5" font-family="Helvetica,sans-Serif" font-size="10.00"> </text>
<polyline fill="none" stroke="black" points="0,-74.5 149,-74.5 "/>
<text text-anchor="start" x="8" y="-62.5" font-family="Helvetica,sans-Serif" font-size="10.00">+ addStep()</text>
<text text-anchor="start" x="8" y="-51.5" font-family="Helvetica,sans-Serif" font-size="10.00">+ CNAB2x2()</text>
<text text-anchor="start" x="8" y="-40.5" font-family="Helvetica,sans-Serif" font-size="10.00">+ CNAB2x2()</text>
<text text-anchor="start" x="8" y="-29.5" font-family="Helvetica,sans-Serif" font-size="10.00">+ computeStep()</text>
<text text-anchor="start" x="8" y="-18.5" font-family="Helvetica,sans-Serif" font-size="10.00">+ displayStats()</text>
<text text-anchor="start" x="8" y="-7.5" font-family="Helvetica,sans-Serif" font-size="10.00">and 6 more...</text>
</a>
</g>
</g>
<!-- Node2 -->
<g id="node2" class="node">
<title>Node2</title>
<g id="a_node2"><a xlink:href="classFeel_1_1TimeSet.html" target="_top" xlink:title="Handles a set of time steps.">
<polygon fill="white" stroke="black" points="33,-160.5 33,-272.5 116,-272.5 116,-160.5 33,-160.5"/>
<text text-anchor="middle" x="74.5" y="-260.5" font-family="Helvetica,sans-Serif" font-size="10.00">Feel::TimeSet</text>
<polyline fill="none" stroke="black" points="33,-253.5 116,-253.5 "/>
<text text-anchor="middle" x="74.5" y="-241.5" font-family="Helvetica,sans-Serif" font-size="10.00"> </text>
<polyline fill="none" stroke="black" points="33,-234.5 116,-234.5 "/>
<text text-anchor="start" x="41" y="-222.5" font-family="Helvetica,sans-Serif" font-size="10.00">+ index()</text>
<text text-anchor="start" x="41" y="-211.5" font-family="Helvetica,sans-Serif" font-size="10.00">+ k()</text>
<text text-anchor="start" x="41" y="-200.5" font-family="Helvetica,sans-Serif" font-size="10.00">+ k()</text>
<text text-anchor="start" x="41" y="-189.5" font-family="Helvetica,sans-Serif" font-size="10.00">+ kprev()</text>
<text text-anchor="start" x="41" y="-178.5" font-family="Helvetica,sans-Serif" font-size="10.00">+ kprev()</text>
<text text-anchor="start" x="41" y="-167.5" font-family="Helvetica,sans-Serif" font-size="10.00">and 8 more...</text>
</a>
</g>
</g>
<!-- Node2&#45;&gt;Node1 -->
<g id="edge1" class="edge">
<title>Node2&#45;&gt;Node1</title>
<path fill="none" stroke="midnightblue" d="M74.5,-150.22C74.5,-141.4 74.5,-132.39 74.5,-123.66"/>
<polygon fill="none" stroke="midnightblue" points="71,-150.44 74.5,-160.44 78,-150.44 71,-150.44"/>
</g>
<!-- Node3 -->
<g id="node3" class="node">
<title>Node3</title>
<g id="a_node3"><a xlink:title=" ">
<polygon fill="white" stroke="black" points="26,-309.5 26,-366.5 123,-366.5 123,-309.5 26,-309.5"/>
<text text-anchor="middle" x="74.5" y="-354.5" font-family="Helvetica,sans-Serif" font-size="10.00">std::vector&lt; T &gt;</text>
<polyline fill="none" stroke="black" points="26,-347.5 123,-347.5 "/>
<text text-anchor="start" x="34" y="-335.5" font-family="Helvetica,sans-Serif" font-size="10.00">+ elements</text>
<polyline fill="none" stroke="black" points="26,-328.5 123,-328.5 "/>
<text text-anchor="middle" x="74.5" y="-316.5" font-family="Helvetica,sans-Serif" font-size="10.00"> </text>
</a>
</g>
</g>
<!-- Node3&#45;&gt;Node2 -->
<g id="edge2" class="edge">
<title>Node3&#45;&gt;Node2</title>
<path fill="none" stroke="midnightblue" d="M74.5,-299.11C74.5,-290.75 74.5,-281.73 74.5,-272.83"/>
<polygon fill="none" stroke="midnightblue" points="71,-299.28 74.5,-309.28 78,-299.28 71,-299.28"/>
</g>
</g>
</svg>
