<?xml version="1.0" encoding="UTF-8" standalone="no"?>
<!DOCTYPE svg PUBLIC "-//W3C//DTD SVG 1.1//EN"
 "http://www.w3.org/Graphics/SVG/1.1/DTD/svg11.dtd">
<!-- Generated by graphviz version 2.43.0 (0)
 -->
<!-- Title: Feel::GeoElement1D&lt; Dim, GEOSHAPE, SubFace, T, IndexT, PointTypeIsSubFaceOf, UseMeasuresStorage &gt; Pages: 1 -->
<svg width="788pt" height="1162pt"
 viewBox="0.00 0.00 787.50 1162.00" xmlns="http://www.w3.org/2000/svg" xmlns:xlink="http://www.w3.org/1999/xlink">
<g id="graph0" class="graph" transform="scale(1 1) rotate(0) translate(4 1158)">
<title>Feel::GeoElement1D&lt; Dim, GEOSHAPE, SubFace, T, IndexT, PointTypeIsSubFaceOf, UseMeasuresStorage &gt;</title>
<polygon fill="white" stroke="transparent" points="-4,4 -4,-1158 783.5,-1158 783.5,4 -4,4"/>
<!-- Node1 -->
<g id="node1" class="node">
<title>Node1</title>
<g id="a_node1"><a xlink:title="class for 1D elements">
<polygon fill="#bfbfbf" stroke="black" points="517.5,-0.5 517.5,-211.5 684.5,-211.5 684.5,-0.5 517.5,-0.5"/>
<text text-anchor="start" x="525.5" y="-199.5" font-family="Helvetica,sans-Serif" font-size="10.00">Feel::GeoElement1D</text>
<text text-anchor="start" x="525.5" y="-188.5" font-family="Helvetica,sans-Serif" font-size="10.00">&lt; Dim, GEOSHAPE, SubFace,</text>
<text text-anchor="start" x="525.5" y="-177.5" font-family="Helvetica,sans-Serif" font-size="10.00"> T, IndexT, PointTypeIsSubFace</text>
<text text-anchor="middle" x="601" y="-166.5" font-family="Helvetica,sans-Serif" font-size="10.00">Of, UseMeasuresStorage &gt;</text>
<polyline fill="none" stroke="black" points="517.5,-159.5 684.5,-159.5 "/>
<text text-anchor="start" x="525.5" y="-147.5" font-family="Helvetica,sans-Serif" font-size="10.00">+ condition</text>
<text text-anchor="start" x="525.5" y="-136.5" font-family="Helvetica,sans-Serif" font-size="10.00">+ nDim</text>
<text text-anchor="start" x="525.5" y="-125.5" font-family="Helvetica,sans-Serif" font-size="10.00">+ nOrder</text>
<text text-anchor="start" x="525.5" y="-114.5" font-family="Helvetica,sans-Serif" font-size="10.00">+ nRealDim</text>
<text text-anchor="start" x="525.5" y="-103.5" font-family="Helvetica,sans-Serif" font-size="10.00">+ numLocalEdges</text>
<text text-anchor="start" x="525.5" y="-92.5" font-family="Helvetica,sans-Serif" font-size="10.00">+ numLocalFaces</text>
<text text-anchor="start" x="525.5" y="-81.5" font-family="Helvetica,sans-Serif" font-size="10.00">+ numLocalVertices</text>
<polyline fill="none" stroke="black" points="517.5,-74.5 684.5,-74.5 "/>
<text text-anchor="start" x="525.5" y="-62.5" font-family="Helvetica,sans-Serif" font-size="10.00">+ BOOST_MPL_ASSERT_MSG()</text>
<text text-anchor="start" x="525.5" y="-51.5" font-family="Helvetica,sans-Serif" font-size="10.00">+ boundaryEntityDimension()</text>
<text text-anchor="start" x="525.5" y="-40.5" font-family="Helvetica,sans-Serif" font-size="10.00">+ edge()</text>
<text text-anchor="start" x="525.5" y="-29.5" font-family="Helvetica,sans-Serif" font-size="10.00">+ face()</text>
<text text-anchor="start" x="525.5" y="-18.5" font-family="Helvetica,sans-Serif" font-size="10.00">+ face()</text>
<text text-anchor="start" x="525.5" y="-7.5" font-family="Helvetica,sans-Serif" font-size="10.00">and 27 more...</text>
</a>
</g>
</g>
<!-- Node2 -->
<g id="node2" class="node">
<title>Node2</title>
<g id="a_node2"><a xlink:href="classFeel_1_1GeoND.html" target="_top" xlink:title=" ">
<polygon fill="white" stroke="black" points="384,-248.5 384,-558.5 612,-558.5 612,-248.5 384,-248.5"/>
<text text-anchor="start" x="392" y="-546.5" font-family="Helvetica,sans-Serif" font-size="10.00">Feel::GeoND&lt; Dim, GEOSHAPE,</text>
<text text-anchor="start" x="392" y="-535.5" font-family="Helvetica,sans-Serif" font-size="10.00"> double, uint32_type, mpl</text>
<text text-anchor="start" x="392" y="-524.5" font-family="Helvetica,sans-Serif" font-size="10.00">::if_&lt; mpl::bool_&lt; false &gt;</text>
<text text-anchor="start" x="392" y="-513.5" font-family="Helvetica,sans-Serif" font-size="10.00">, mpl::identity&lt; GeoElement0D</text>
<text text-anchor="start" x="392" y="-502.5" font-family="Helvetica,sans-Serif" font-size="10.00">&lt; Dim, SubFaceOf&lt; GeoElement1D</text>
<text text-anchor="start" x="392" y="-491.5" font-family="Helvetica,sans-Serif" font-size="10.00">&lt; Dim, GEOSHAPE, SubFaceOfNone</text>
<text text-anchor="start" x="392" y="-480.5" font-family="Helvetica,sans-Serif" font-size="10.00">&lt; 0 &gt;, double, uint32_type, false,</text>
<text text-anchor="start" x="392" y="-469.5" font-family="Helvetica,sans-Serif" font-size="10.00"> false &gt; &gt;, double, uint32_type &gt;</text>
<text text-anchor="start" x="392" y="-458.5" font-family="Helvetica,sans-Serif" font-size="10.00"> &gt;, mpl::identity&lt; GeoElement0D&lt; Dim,</text>
<text text-anchor="start" x="392" y="-447.5" font-family="Helvetica,sans-Serif" font-size="10.00"> SubFaceOfNone&lt; 0 &gt;, double, uint32_type</text>
<text text-anchor="middle" x="498" y="-436.5" font-family="Helvetica,sans-Serif" font-size="10.00"> &gt; &gt; &gt;::type::type, false &gt;</text>
<polyline fill="none" stroke="black" points="384,-429.5 612,-429.5 "/>
<text text-anchor="start" x="392" y="-417.5" font-family="Helvetica,sans-Serif" font-size="10.00">+ meas_quad_order</text>
<text text-anchor="start" x="392" y="-406.5" font-family="Helvetica,sans-Serif" font-size="10.00">+ nDim</text>
<text text-anchor="start" x="392" y="-395.5" font-family="Helvetica,sans-Serif" font-size="10.00">+ nOrder</text>
<text text-anchor="start" x="392" y="-384.5" font-family="Helvetica,sans-Serif" font-size="10.00">+ nRealDim</text>
<text text-anchor="start" x="392" y="-373.5" font-family="Helvetica,sans-Serif" font-size="10.00">+ numEdges</text>
<text text-anchor="start" x="392" y="-362.5" font-family="Helvetica,sans-Serif" font-size="10.00">and 9 more...</text>
<polyline fill="none" stroke="black" points="384,-355.5 612,-355.5 "/>
<text text-anchor="start" x="392" y="-343.5" font-family="Helvetica,sans-Serif" font-size="10.00">+ applyDisplacement()</text>
<text text-anchor="start" x="392" y="-332.5" font-family="Helvetica,sans-Serif" font-size="10.00">+ applyDisplacementG()</text>
<text text-anchor="start" x="392" y="-321.5" font-family="Helvetica,sans-Serif" font-size="10.00">+ barycenter()</text>
<text text-anchor="start" x="392" y="-310.5" font-family="Helvetica,sans-Serif" font-size="10.00">+ beginPoint()</text>
<text text-anchor="start" x="392" y="-299.5" font-family="Helvetica,sans-Serif" font-size="10.00">+ beginPoint()</text>
<text text-anchor="start" x="392" y="-288.5" font-family="Helvetica,sans-Serif" font-size="10.00">and 62 more...</text>
<text text-anchor="start" x="392" y="-277.5" font-family="Helvetica,sans-Serif" font-size="10.00">+ fToP()</text>
<text text-anchor="start" x="392" y="-266.5" font-family="Helvetica,sans-Serif" font-size="10.00">+ imMeasure()</text>
<text text-anchor="start" x="392" y="-255.5" font-family="Helvetica,sans-Serif" font-size="10.00">+ imMeasureOrder1()</text>
</a>
</g>
</g>
<!-- Node2&#45;&gt;Node1 -->
<g id="edge1" class="edge">
<title>Node2&#45;&gt;Node1</title>
<path fill="none" stroke="midnightblue" d="M555.08,-238.75C558.25,-229.65 561.39,-220.63 564.46,-211.84"/>
<polygon fill="none" stroke="midnightblue" points="551.75,-237.66 551.76,-248.26 558.36,-239.97 551.75,-237.66"/>
</g>
<!-- Node3 -->
<g id="node3" class="node">
<title>Node3</title>
<g id="a_node3"><a xlink:href="classFeel_1_1GeoEntity.html" target="_top" xlink:title=" ">
<polygon fill="white" stroke="black" points="297,-595.5 297,-1037.5 485,-1037.5 485,-595.5 297,-595.5"/>
<text text-anchor="start" x="305" y="-1025.5" font-family="Helvetica,sans-Serif" font-size="10.00">Feel::GeoEntity&lt; GEOSHAPE,</text>
<text text-anchor="middle" x="391" y="-1014.5" font-family="Helvetica,sans-Serif" font-size="10.00"> double &gt;</text>
<polyline fill="none" stroke="black" points="297,-1007.5 485,-1007.5 "/>
<text text-anchor="middle" x="391" y="-995.5" font-family="Helvetica,sans-Serif" font-size="10.00"> </text>
<polyline fill="none" stroke="black" points="297,-988.5 485,-988.5 "/>
<text text-anchor="start" x="305" y="-976.5" font-family="Helvetica,sans-Serif" font-size="10.00">* super</text>
<text text-anchor="start" x="305" y="-965.5" font-family="Helvetica,sans-Serif" font-size="10.00">* GeoShape</text>
<text text-anchor="start" x="305" y="-954.5" font-family="Helvetica,sans-Serif" font-size="10.00">* self_type</text>
<text text-anchor="start" x="305" y="-943.5" font-family="Helvetica,sans-Serif" font-size="10.00">* value_type</text>
<text text-anchor="start" x="305" y="-932.5" font-family="Helvetica,sans-Serif" font-size="10.00">* index_type</text>
<text text-anchor="start" x="305" y="-921.5" font-family="Helvetica,sans-Serif" font-size="10.00">and 26 more...</text>
<text text-anchor="start" x="305" y="-910.5" font-family="Helvetica,sans-Serif" font-size="10.00">* boost::serialization</text>
<text text-anchor="start" x="305" y="-899.5" font-family="Helvetica,sans-Serif" font-size="10.00">::access</text>
<text text-anchor="start" x="305" y="-888.5" font-family="Helvetica,sans-Serif" font-size="10.00">* M_id</text>
<text text-anchor="start" x="305" y="-877.5" font-family="Helvetica,sans-Serif" font-size="10.00">* M_entity</text>
<text text-anchor="start" x="305" y="-866.5" font-family="Helvetica,sans-Serif" font-size="10.00">* M_boundaryEntityDimension</text>
<text text-anchor="start" x="305" y="-855.5" font-family="Helvetica,sans-Serif" font-size="10.00">* M_pid</text>
<text text-anchor="start" x="305" y="-844.5" font-family="Helvetica,sans-Serif" font-size="10.00">and 41 more...</text>
<text text-anchor="start" x="305" y="-833.5" font-family="Helvetica,sans-Serif" font-size="10.00">* GeoEntity()</text>
<text text-anchor="start" x="305" y="-822.5" font-family="Helvetica,sans-Serif" font-size="10.00">* GeoEntity()</text>
<text text-anchor="start" x="305" y="-811.5" font-family="Helvetica,sans-Serif" font-size="10.00">* GeoEntity()</text>
<text text-anchor="start" x="305" y="-800.5" font-family="Helvetica,sans-Serif" font-size="10.00">* GeoEntity()</text>
<text text-anchor="start" x="305" y="-789.5" font-family="Helvetica,sans-Serif" font-size="10.00">* operator=()</text>
<text text-anchor="start" x="305" y="-778.5" font-family="Helvetica,sans-Serif" font-size="10.00">* operator=()</text>
<text text-anchor="start" x="305" y="-767.5" font-family="Helvetica,sans-Serif" font-size="10.00">* ~GeoEntity()</text>
<text text-anchor="start" x="305" y="-756.5" font-family="Helvetica,sans-Serif" font-size="10.00">* operator==()</text>
<text text-anchor="start" x="305" y="-745.5" font-family="Helvetica,sans-Serif" font-size="10.00">* operator&lt;()</text>
<text text-anchor="start" x="305" y="-734.5" font-family="Helvetica,sans-Serif" font-size="10.00">* operator&lt;()</text>
<text text-anchor="start" x="305" y="-723.5" font-family="Helvetica,sans-Serif" font-size="10.00">* id()</text>
<text text-anchor="start" x="305" y="-712.5" font-family="Helvetica,sans-Serif" font-size="10.00">* refDim()</text>
<text text-anchor="start" x="305" y="-701.5" font-family="Helvetica,sans-Serif" font-size="10.00">* nPoints()</text>
<text text-anchor="start" x="305" y="-690.5" font-family="Helvetica,sans-Serif" font-size="10.00">* nVertices()</text>
<text text-anchor="start" x="305" y="-679.5" font-family="Helvetica,sans-Serif" font-size="10.00">* nEdges()</text>
<text text-anchor="start" x="305" y="-668.5" font-family="Helvetica,sans-Serif" font-size="10.00">and 42 more...</text>
<text text-anchor="start" x="305" y="-657.5" font-family="Helvetica,sans-Serif" font-size="10.00">* setId()</text>
<text text-anchor="start" x="305" y="-646.5" font-family="Helvetica,sans-Serif" font-size="10.00">* setOnBoundary()</text>
<text text-anchor="start" x="305" y="-635.5" font-family="Helvetica,sans-Serif" font-size="10.00">* setNumberOfPartitions()</text>
<text text-anchor="start" x="305" y="-624.5" font-family="Helvetica,sans-Serif" font-size="10.00">* setNumberOfNeighborPartitions()</text>
<text text-anchor="start" x="305" y="-613.5" font-family="Helvetica,sans-Serif" font-size="10.00">* setNeighborPartitionIds()</text>
<text text-anchor="start" x="305" y="-602.5" font-family="Helvetica,sans-Serif" font-size="10.00">* addNeighborPartitionId()</text>
</a>
</g>
</g>
<!-- Node3&#45;&gt;Node2 -->
<g id="edge2" class="edge">
<title>Node3&#45;&gt;Node2</title>
<path fill="none" stroke="midnightblue" d="M450.88,-585.48C453.22,-576.49 455.55,-567.56 457.84,-558.76"/>
<polygon fill="none" stroke="midnightblue" points="447.47,-584.7 448.34,-595.26 454.24,-586.47 447.47,-584.7"/>
</g>
<!-- Node4 -->
<g id="node4" class="node">
<title>Node4</title>
<g id="a_node4"><a xlink:title=" ">
<polygon fill="white" stroke="#bfbfbf" points="0,-1074.5 0,-1153.5 182,-1153.5 182,-1074.5 0,-1074.5"/>
<text text-anchor="start" x="8" y="-1141.5" font-family="Helvetica,sans-Serif" font-size="10.00">boost::equality_comparable</text>
<text text-anchor="start" x="8" y="-1130.5" font-family="Helvetica,sans-Serif" font-size="10.00">&lt; GeoEntity&lt; GEOSHAPE, double,</text>
<text text-anchor="middle" x="91" y="-1119.5" font-family="Helvetica,sans-Serif" font-size="10.00"> uint32_type &gt; &gt;</text>
<polyline fill="none" stroke="#bfbfbf" points="0,-1112.5 182,-1112.5 "/>
<text text-anchor="middle" x="91" y="-1100.5" font-family="Helvetica,sans-Serif" font-size="10.00"> </text>
<polyline fill="none" stroke="#bfbfbf" points="0,-1093.5 182,-1093.5 "/>
<text text-anchor="middle" x="91" y="-1081.5" font-family="Helvetica,sans-Serif" font-size="10.00"> </text>
</a>
</g>
</g>
<!-- Node4&#45;&gt;Node3 -->
<g id="edge3" class="edge">
<title>Node4&#45;&gt;Node3</title>
<path fill="none" stroke="#8b1a1a" d="M137.35,-1067.34C179.75,-1025.58 243.76,-962.53 296.87,-910.22"/>
<polygon fill="none" stroke="#8b1a1a" points="134.89,-1064.86 130.22,-1074.37 139.8,-1069.84 134.89,-1064.86"/>
</g>
<!-- Node5 -->
<g id="node5" class="node">
<title>Node5</title>
<g id="a_node5"><a xlink:title=" ">
<polygon fill="white" stroke="#bfbfbf" points="200,-1074.5 200,-1153.5 382,-1153.5 382,-1074.5 200,-1074.5"/>
<text text-anchor="start" x="208" y="-1141.5" font-family="Helvetica,sans-Serif" font-size="10.00">boost::less_than_comparable</text>
<text text-anchor="start" x="208" y="-1130.5" font-family="Helvetica,sans-Serif" font-size="10.00">&lt; GeoEntity&lt; GEOSHAPE, double,</text>
<text text-anchor="middle" x="291" y="-1119.5" font-family="Helvetica,sans-Serif" font-size="10.00"> uint32_type &gt; &gt;</text>
<polyline fill="none" stroke="#bfbfbf" points="200,-1112.5 382,-1112.5 "/>
<text text-anchor="middle" x="291" y="-1100.5" font-family="Helvetica,sans-Serif" font-size="10.00"> </text>
<polyline fill="none" stroke="#bfbfbf" points="200,-1093.5 382,-1093.5 "/>
<text text-anchor="middle" x="291" y="-1081.5" font-family="Helvetica,sans-Serif" font-size="10.00"> </text>
</a>
</g>
</g>
<!-- Node5&#45;&gt;Node3 -->
<g id="edge4" class="edge">
<title>Node5&#45;&gt;Node3</title>
<path fill="none" stroke="#8b1a1a" d="M307.36,-1064.66C310.17,-1056.37 313.23,-1047.3 316.49,-1037.68"/>
<polygon fill="none" stroke="#8b1a1a" points="303.96,-1063.77 304.07,-1074.37 310.59,-1066.02 303.96,-1063.77"/>
</g>
<!-- Node6 -->
<g id="node6" class="node">
<title>Node6</title>
<g id="a_node6"><a xlink:title=" ">
<polygon fill="white" stroke="#bfbfbf" points="400,-1074.5 400,-1153.5 582,-1153.5 582,-1074.5 400,-1074.5"/>
<text text-anchor="start" x="408" y="-1141.5" font-family="Helvetica,sans-Serif" font-size="10.00">boost::less_than_comparable</text>
<text text-anchor="start" x="408" y="-1130.5" font-family="Helvetica,sans-Serif" font-size="10.00">&lt; GeoEntity&lt; GEOSHAPE, double,</text>
<text text-anchor="middle" x="491" y="-1119.5" font-family="Helvetica,sans-Serif" font-size="10.00"> uint32_type &gt;, uint32_type &gt;</text>
<polyline fill="none" stroke="#bfbfbf" points="400,-1112.5 582,-1112.5 "/>
<text text-anchor="middle" x="491" y="-1100.5" font-family="Helvetica,sans-Serif" font-size="10.00"> </text>
<polyline fill="none" stroke="#bfbfbf" points="400,-1093.5 582,-1093.5 "/>
<text text-anchor="middle" x="491" y="-1081.5" font-family="Helvetica,sans-Serif" font-size="10.00"> </text>
</a>
</g>
</g>
<!-- Node6&#45;&gt;Node3 -->
<g id="edge5" class="edge">
<title>Node6&#45;&gt;Node3</title>
<path fill="none" stroke="#8b1a1a" d="M474.64,-1064.66C471.83,-1056.37 468.77,-1047.3 465.51,-1037.68"/>
<polygon fill="none" stroke="#8b1a1a" points="471.41,-1066.02 477.93,-1074.37 478.04,-1063.77 471.41,-1066.02"/>
</g>
<!-- Node7 -->
<g id="node7" class="node">
<title>Node7</title>
<g id="a_node7"><a xlink:title=" ">
<polygon fill="white" stroke="#bfbfbf" points="600,-1085.5 600,-1142.5 670,-1142.5 670,-1085.5 600,-1085.5"/>
<text text-anchor="middle" x="635" y="-1130.5" font-family="Helvetica,sans-Serif" font-size="10.00">GEOSHAPE</text>
<polyline fill="none" stroke="#bfbfbf" points="600,-1123.5 670,-1123.5 "/>
<text text-anchor="middle" x="635" y="-1111.5" font-family="Helvetica,sans-Serif" font-size="10.00"> </text>
<polyline fill="none" stroke="#bfbfbf" points="600,-1104.5 670,-1104.5 "/>
<text text-anchor="middle" x="635" y="-1092.5" font-family="Helvetica,sans-Serif" font-size="10.00"> </text>
</a>
</g>
</g>
<!-- Node7&#45;&gt;Node3 -->
<g id="edge6" class="edge">
<title>Node7&#45;&gt;Node3</title>
<path fill="none" stroke="midnightblue" d="M598.56,-1079C596.07,-1077.22 593.54,-1075.53 591,-1074 551.96,-1050.49 528.51,-1068.87 495,-1038 491.58,-1034.85 488.25,-1031.55 485.03,-1028.15"/>
<polygon fill="none" stroke="midnightblue" points="596.78,-1082.04 606.83,-1085.38 601.05,-1076.5 596.78,-1082.04"/>
</g>
<!-- Node8 -->
<g id="node8" class="node">
<title>Node8</title>
<g id="a_node8"><a xlink:title=" ">
<polygon fill="white" stroke="#bfbfbf" points="503.5,-760.5 503.5,-872.5 708.5,-872.5 708.5,-760.5 503.5,-760.5"/>
<text text-anchor="start" x="511.5" y="-860.5" font-family="Helvetica,sans-Serif" font-size="10.00">mpl::if_&lt; mpl::bool</text>
<text text-anchor="start" x="511.5" y="-849.5" font-family="Helvetica,sans-Serif" font-size="10.00">_&lt; UseMeasuresStorage</text>
<text text-anchor="start" x="511.5" y="-838.5" font-family="Helvetica,sans-Serif" font-size="10.00"> &gt;, mpl::identity&lt; GeoNDMeasures</text>
<text text-anchor="start" x="511.5" y="-827.5" font-family="Helvetica,sans-Serif" font-size="10.00">Storage&lt; double &gt; &gt;, mpl::identity</text>
<text text-anchor="start" x="511.5" y="-816.5" font-family="Helvetica,sans-Serif" font-size="10.00">&lt; GeoNDNoMeasuresStorage&lt; double</text>
<text text-anchor="middle" x="606" y="-805.5" font-family="Helvetica,sans-Serif" font-size="10.00"> &gt; &gt; &gt;::type::type</text>
<polyline fill="none" stroke="#bfbfbf" points="503.5,-798.5 708.5,-798.5 "/>
<text text-anchor="middle" x="606" y="-786.5" font-family="Helvetica,sans-Serif" font-size="10.00"> </text>
<polyline fill="none" stroke="#bfbfbf" points="503.5,-779.5 708.5,-779.5 "/>
<text text-anchor="middle" x="606" y="-767.5" font-family="Helvetica,sans-Serif" font-size="10.00"> </text>
</a>
</g>
</g>
<!-- Node8&#45;&gt;Node2 -->
<g id="edge7" class="edge">
<title>Node8&#45;&gt;Node2</title>
<path fill="none" stroke="midnightblue" d="M588.93,-750.52C575.41,-699.09 555.97,-625.12 538.54,-558.76"/>
<polygon fill="none" stroke="midnightblue" points="585.62,-751.72 591.55,-760.5 592.39,-749.94 585.62,-751.72"/>
</g>
<!-- Node9 -->
<g id="node9" class="node">
<title>Node9</title>
<g id="a_node9"><a xlink:href="classFeel_1_1SubFaceOfNone.html" target="_top" xlink:title=" ">
<polygon fill="white" stroke="#bfbfbf" points="630.5,-347.5 630.5,-459.5 779.5,-459.5 779.5,-347.5 630.5,-347.5"/>
<text text-anchor="middle" x="705" y="-447.5" font-family="Helvetica,sans-Serif" font-size="10.00">Feel::SubFaceOfNone&lt; 0 &gt;</text>
<polyline fill="none" stroke="#bfbfbf" points="630.5,-440.5 779.5,-440.5 "/>
<text text-anchor="start" x="638.5" y="-428.5" font-family="Helvetica,sans-Serif" font-size="10.00">+ nDim</text>
<polyline fill="none" stroke="#bfbfbf" points="630.5,-421.5 779.5,-421.5 "/>
<text text-anchor="start" x="638.5" y="-409.5" font-family="Helvetica,sans-Serif" font-size="10.00">+ element()</text>
<text text-anchor="start" x="638.5" y="-398.5" font-family="Helvetica,sans-Serif" font-size="10.00">+ isGhostFace()</text>
<text text-anchor="start" x="638.5" y="-387.5" font-family="Helvetica,sans-Serif" font-size="10.00">+ isInterProcessDomain()</text>
<text text-anchor="start" x="638.5" y="-376.5" font-family="Helvetica,sans-Serif" font-size="10.00">+ operator=()</text>
<text text-anchor="start" x="638.5" y="-365.5" font-family="Helvetica,sans-Serif" font-size="10.00">+ operator=()</text>
<text text-anchor="start" x="638.5" y="-354.5" font-family="Helvetica,sans-Serif" font-size="10.00">and 7 more...</text>
</a>
</g>
</g>
<!-- Node9&#45;&gt;Node1 -->
<g id="edge8" class="edge">
<title>Node9&#45;&gt;Node1</title>
<path fill="none" stroke="midnightblue" d="M682.17,-337.63C669.18,-300.72 652.6,-253.61 637.82,-211.61"/>
<polygon fill="none" stroke="midnightblue" points="678.94,-338.99 685.56,-347.27 685.54,-336.67 678.94,-338.99"/>
</g>
</g>
</svg>
