<?xml version="1.0" encoding="UTF-8" standalone="no"?>
<!DOCTYPE svg PUBLIC "-//W3C//DTD SVG 1.1//EN"
 "http://www.w3.org/Graphics/SVG/1.1/DTD/svg11.dtd">
<!-- Generated by graphviz version 2.43.0 (0)
 -->
<!-- Title: Feel::FeelModels::ModelPhysics&lt; Dim &gt; Pages: 1 -->
<!--zoomable 1109 -->
<svg id="main" version="1.1" xmlns="http://www.w3.org/2000/svg" xmlns:xlink="http://www.w3.org/1999/xlink" xml:space="preserve" onload="init(evt)">
<style type="text/css"><![CDATA[
.edge:hover path { stroke: red; }
.edge:hover polygon { stroke: red; fill: red; }
]]></style>
<script type="text/javascript"><![CDATA[
var edges = document.getElementsByTagName('g');
if (edges && edges.length) {
  for (var i=0;i<edges.length;i++) {
    if (edges[i].id.substr(0,4)=='edge') {
      edges[i].setAttribute('class','edge');
    }
  }
}
]]></script>
        <defs>
                <circle id="rim" cx="0" cy="0" r="7"/>
                <circle id="rim2" cx="0" cy="0" r="3.5"/>
                <g id="zoomPlus">
                        <use xlink:href="#rim" fill="#404040">
                                <set attributeName="fill" to="#808080" begin="zoomplus.mouseover" end="zoomplus.mouseout"/>
                        </use>
                        <path d="M-4,0h8M0,-4v8" fill="none" stroke="white" stroke-width="1.5" pointer-events="none"/>
                </g>
                <g id="zoomMin">
                        <use xlink:href="#rim" fill="#404040">
                                <set attributeName="fill" to="#808080" begin="zoomminus.mouseover" end="zoomminus.mouseout"/>
                        </use>
                        <path d="M-4,0h8" fill="none" stroke="white" stroke-width="1.5" pointer-events="none"/>
                </g>
                <g id="dirArrow">
                        <path fill="none" stroke="white" stroke-width="1.5" d="M0,-3.0v7 M-2.5,-0.5L0,-3.0L2.5,-0.5"/>
                </g>
               <g id="resetDef">
                       <use xlink:href="#rim2" fill="#404040">
                               <set attributeName="fill" to="#808080" begin="reset.mouseover" end="reset.mouseout"/>
                       </use>
               </g>
        </defs>

<script type="text/javascript">
var viewWidth = 507;
var viewHeight = 1109;
var sectionId = 'dynsection-1';
</script>
<script xlink:href="svgpan.js"/>
<svg id="graph" class="graph">
<g id="viewport">
<title>Feel::FeelModels::ModelPhysics&lt; Dim &gt;</title>
<polygon fill="white" stroke="transparent" points="-4,4 -4,-1105 503,-1105 503,4 -4,4"/>
<!-- Node1 -->
<g id="node1" class="node">
<title>Node1</title>
<g id="a_node1"><a xlink:title=" ">
<polygon fill="#bfbfbf" stroke="black" points="165.5,-0.5 165.5,-145.5 336.5,-145.5 336.5,-0.5 165.5,-0.5"/>
<text text-anchor="start" x="173.5" y="-133.5" font-family="Helvetica,sans-Serif" font-size="10.00">Feel::FeelModels::ModelPhysics</text>
<text text-anchor="middle" x="251" y="-122.5" font-family="Helvetica,sans-Serif" font-size="10.00">&lt; Dim &gt;</text>
<polyline fill="none" stroke="black" points="165.5,-115.5 336.5,-115.5 "/>
<text text-anchor="middle" x="251" y="-103.5" font-family="Helvetica,sans-Serif" font-size="10.00"> </text>
<polyline fill="none" stroke="black" points="165.5,-96.5 336.5,-96.5 "/>
<text text-anchor="start" x="173.5" y="-84.5" font-family="Helvetica,sans-Serif" font-size="10.00">+ addPhysics()</text>
<text text-anchor="start" x="173.5" y="-73.5" font-family="Helvetica,sans-Serif" font-size="10.00">+ hasPhysic()</text>
<text text-anchor="start" x="173.5" y="-62.5" font-family="Helvetica,sans-Serif" font-size="10.00">+ initPhysics()</text>
<text text-anchor="start" x="173.5" y="-51.5" font-family="Helvetica,sans-Serif" font-size="10.00">+ initPhysics()</text>
<text text-anchor="start" x="173.5" y="-40.5" font-family="Helvetica,sans-Serif" font-size="10.00">+ ModelPhysics()</text>
<text text-anchor="start" x="173.5" y="-29.5" font-family="Helvetica,sans-Serif" font-size="10.00">and 18 more...</text>
<text text-anchor="start" x="173.5" y="-18.5" font-family="Helvetica,sans-Serif" font-size="10.00"># initPhysics()</text>
<text text-anchor="start" x="173.5" y="-7.5" font-family="Helvetica,sans-Serif" font-size="10.00"># updatePhysics()</text>
</a>
</g>
</g>
<!-- Node2 -->
<g id="node2" class="node">
<title>Node2</title>
<g id="a_node2"><a xlink:title=" ">
<polygon fill="white" stroke="#bfbfbf" points="0,-833 0,-890 134,-890 134,-833 0,-833"/>
<text text-anchor="middle" x="67" y="-878" font-family="Helvetica,sans-Serif" font-size="10.00">static const uint16_type</text>
<polyline fill="none" stroke="#bfbfbf" points="0,-871 134,-871 "/>
<text text-anchor="middle" x="67" y="-859" font-family="Helvetica,sans-Serif" font-size="10.00"> </text>
<polyline fill="none" stroke="#bfbfbf" points="0,-852 134,-852 "/>
<text text-anchor="middle" x="67" y="-840" font-family="Helvetica,sans-Serif" font-size="10.00"> </text>
</a>
</g>
</g>
<!-- Node2&#45;&gt;Node1 -->
<g id="edge1" class="edge">
<title>Node2&#45;&gt;Node1</title>
<path fill="none" stroke="#404040" d="M67,-832.8C67,-780.47 67,-663.5 67,-565 67,-565 67,-565 67,-237.5 67,-184.37 110.39,-144.29 155.03,-117.11"/>
<polygon fill="none" stroke="#404040" points="155.11,-117.06 158.26,-110.57 165.46,-110.99 162.31,-117.48 155.11,-117.06"/>
<text text-anchor="middle" x="86" y="-368.5" font-family="Helvetica,sans-Serif" font-size="10.00"> +nDim</text>
</g>
<!-- Node7 -->
<g id="node7" class="node">
<title>Node7</title>
<g id="a_node7"><a xlink:href="classFeel_1_1FeelModels_1_1ModelPhysic.html" target="_top" xlink:title=" ">
<polygon fill="white" stroke="black" points="100.5,-458.5 100.5,-669.5 291.5,-669.5 291.5,-458.5 100.5,-458.5"/>
<text text-anchor="start" x="108.5" y="-657.5" font-family="Helvetica,sans-Serif" font-size="10.00">Feel::FeelModels::ModelPhysic</text>
<text text-anchor="middle" x="196" y="-646.5" font-family="Helvetica,sans-Serif" font-size="10.00">&lt; nDim &gt;</text>
<polyline fill="none" stroke="black" points="100.5,-639.5 291.5,-639.5 "/>
<text text-anchor="middle" x="196" y="-627.5" font-family="Helvetica,sans-Serif" font-size="10.00"> </text>
<polyline fill="none" stroke="black" points="100.5,-620.5 291.5,-620.5 "/>
<text text-anchor="start" x="108.5" y="-608.5" font-family="Helvetica,sans-Serif" font-size="10.00">+ addMaterialNames()</text>
<text text-anchor="start" x="108.5" y="-597.5" font-family="Helvetica,sans-Serif" font-size="10.00">+ addMaterialPropertyDescription()</text>
<text text-anchor="start" x="108.5" y="-586.5" font-family="Helvetica,sans-Serif" font-size="10.00">+ addParameter()</text>
<text text-anchor="start" x="108.5" y="-575.5" font-family="Helvetica,sans-Serif" font-size="10.00">+ addParameter()</text>
<text text-anchor="start" x="108.5" y="-564.5" font-family="Helvetica,sans-Serif" font-size="10.00">+ addParameter()</text>
<text text-anchor="start" x="108.5" y="-553.5" font-family="Helvetica,sans-Serif" font-size="10.00">and 28 more...</text>
<text text-anchor="start" x="108.5" y="-542.5" font-family="Helvetica,sans-Serif" font-size="10.00">+ New()</text>
<text text-anchor="start" x="108.5" y="-531.5" font-family="Helvetica,sans-Serif" font-size="10.00"># parameterModelExpr()</text>
<text text-anchor="start" x="108.5" y="-520.5" font-family="Helvetica,sans-Serif" font-size="10.00"># updateTabulateInformations</text>
<text text-anchor="start" x="108.5" y="-509.5" font-family="Helvetica,sans-Serif" font-size="10.00">Basic()</text>
<text text-anchor="start" x="108.5" y="-498.5" font-family="Helvetica,sans-Serif" font-size="10.00"># updateTabulateInformations</text>
<text text-anchor="start" x="108.5" y="-487.5" font-family="Helvetica,sans-Serif" font-size="10.00">Parameters()</text>
<text text-anchor="start" x="108.5" y="-476.5" font-family="Helvetica,sans-Serif" font-size="10.00"># updateTabulateInformations</text>
<text text-anchor="start" x="108.5" y="-465.5" font-family="Helvetica,sans-Serif" font-size="10.00">Subphysics()</text>
</a>
</g>
</g>
<!-- Node2&#45;&gt;Node7 -->
<g id="edge9" class="edge">
<title>Node2&#45;&gt;Node7</title>
<path fill="none" stroke="#404040" d="M79.02,-832.97C94.18,-798.24 121.19,-736.36 145.45,-680.8"/>
<polygon fill="none" stroke="#404040" points="145.46,-680.78 144.19,-673.68 150.26,-669.78 151.52,-676.88 145.46,-680.78"/>
<text text-anchor="middle" x="159" y="-691" font-family="Helvetica,sans-Serif" font-size="10.00"> +nDim</text>
</g>
<!-- Node3 -->
<g id="node3" class="node">
<title>Node3</title>
<g id="a_node3"><a xlink:title="STL class.">
<polygon fill="white" stroke="#bfbfbf" points="400.5,-210 400.5,-267 465.5,-267 465.5,-210 400.5,-210"/>
<text text-anchor="middle" x="433" y="-255" font-family="Helvetica,sans-Serif" font-size="10.00">std::string</text>
<polyline fill="none" stroke="#bfbfbf" points="400.5,-248 465.5,-248 "/>
<text text-anchor="middle" x="433" y="-236" font-family="Helvetica,sans-Serif" font-size="10.00"> </text>
<polyline fill="none" stroke="#bfbfbf" points="400.5,-229 465.5,-229 "/>
<text text-anchor="middle" x="433" y="-217" font-family="Helvetica,sans-Serif" font-size="10.00"> </text>
</a>
</g>
</g>
<!-- Node3&#45;&gt;Node1 -->
<g id="edge2" class="edge">
<title>Node3&#45;&gt;Node1</title>
<path fill="none" stroke="#404040" d="M402.13,-209.76C384.83,-194.23 362.3,-173.99 339.93,-153.89"/>
<polygon fill="none" stroke="#404040" points="339.63,-153.63 332.5,-152.59 330.71,-145.61 337.84,-146.64 339.63,-153.63"/>
<text text-anchor="middle" x="410.5" y="-167" font-family="Helvetica,sans-Serif" font-size="10.00"> #M_physicModeling</text>
</g>
<!-- Node4 -->
<g id="node4" class="node">
<title>Node4</title>
<g id="a_node4"><a xlink:title="STL class.">
<polygon fill="white" stroke="#bfbfbf" points="395,-337 395,-405 499,-405 499,-337 395,-337"/>
<text text-anchor="start" x="403" y="-393" font-family="Helvetica,sans-Serif" font-size="10.00">std::basic_string&lt;</text>
<text text-anchor="middle" x="447" y="-382" font-family="Helvetica,sans-Serif" font-size="10.00"> char &gt;</text>
<polyline fill="none" stroke="#bfbfbf" points="395,-375 499,-375 "/>
<text text-anchor="middle" x="447" y="-363" font-family="Helvetica,sans-Serif" font-size="10.00"> </text>
<polyline fill="none" stroke="#bfbfbf" points="395,-356 499,-356 "/>
<text text-anchor="middle" x="447" y="-344" font-family="Helvetica,sans-Serif" font-size="10.00"> </text>
</a>
</g>
</g>
<!-- Node4&#45;&gt;Node3 -->
<g id="edge3" class="edge">
<title>Node4&#45;&gt;Node3</title>
<path fill="none" stroke="midnightblue" d="M442.34,-326.55C440.25,-307.05 437.84,-284.62 435.99,-267.41"/>
<polygon fill="none" stroke="midnightblue" points="438.88,-327.16 443.43,-336.73 445.84,-326.42 438.88,-327.16"/>
</g>
<!-- Node5 -->
<g id="node5" class="node">
<title>Node5</title>
<g id="a_node5"><a xlink:title=" ">
<polygon fill="white" stroke="#bfbfbf" points="162.5,-193.5 162.5,-283.5 339.5,-283.5 339.5,-193.5 162.5,-193.5"/>
<text text-anchor="start" x="170.5" y="-271.5" font-family="Helvetica,sans-Serif" font-size="10.00">std::map&lt; physic_id</text>
<text text-anchor="start" x="170.5" y="-260.5" font-family="Helvetica,sans-Serif" font-size="10.00">_type, std::shared_ptr</text>
<text text-anchor="start" x="170.5" y="-249.5" font-family="Helvetica,sans-Serif" font-size="10.00">&lt; Feel::FeelModels::ModelPhysic</text>
<text text-anchor="middle" x="251" y="-238.5" font-family="Helvetica,sans-Serif" font-size="10.00">&lt; nDim &gt; &gt; &gt;</text>
<polyline fill="none" stroke="#bfbfbf" points="162.5,-231.5 339.5,-231.5 "/>
<text text-anchor="middle" x="251" y="-219.5" font-family="Helvetica,sans-Serif" font-size="10.00"> </text>
<polyline fill="none" stroke="#bfbfbf" points="162.5,-212.5 339.5,-212.5 "/>
<text text-anchor="middle" x="251" y="-200.5" font-family="Helvetica,sans-Serif" font-size="10.00"> </text>
</a>
</g>
</g>
<!-- Node5&#45;&gt;Node1 -->
<g id="edge4" class="edge">
<title>Node5&#45;&gt;Node1</title>
<path fill="none" stroke="#404040" d="M251,-193.25C251,-182.26 251,-170.11 251,-157.9"/>
<polygon fill="none" stroke="#404040" points="251,-157.7 247,-151.7 251,-145.7 255,-151.7 251,-157.7"/>
<text text-anchor="middle" x="282.5" y="-167" font-family="Helvetica,sans-Serif" font-size="10.00"> #M_physics</text>
</g>
<!-- Node6 -->
<g id="node6" class="node">
<title>Node6</title>
<g id="a_node6"><a xlink:title=" ">
<polygon fill="white" stroke="#bfbfbf" points="123,-331.5 123,-410.5 269,-410.5 269,-331.5 123,-331.5"/>
<text text-anchor="start" x="131" y="-398.5" font-family="Helvetica,sans-Serif" font-size="10.00">std::shared_ptr&lt; Feel</text>
<text text-anchor="start" x="131" y="-387.5" font-family="Helvetica,sans-Serif" font-size="10.00">::FeelModels::ModelPhysic</text>
<text text-anchor="middle" x="196" y="-376.5" font-family="Helvetica,sans-Serif" font-size="10.00">&lt; nDim &gt; &gt;</text>
<polyline fill="none" stroke="#bfbfbf" points="123,-369.5 269,-369.5 "/>
<text text-anchor="middle" x="196" y="-357.5" font-family="Helvetica,sans-Serif" font-size="10.00"> </text>
<polyline fill="none" stroke="#bfbfbf" points="123,-350.5 269,-350.5 "/>
<text text-anchor="start" x="131" y="-338.5" font-family="Helvetica,sans-Serif" font-size="10.00">+ operator&#45;&gt;()</text>
</a>
</g>
</g>
<!-- Node6&#45;&gt;Node5 -->
<g id="edge5" class="edge">
<title>Node6&#45;&gt;Node5</title>
<path fill="none" stroke="#404040" d="M212.35,-331.2C217.1,-319.93 222.39,-307.38 227.49,-295.29"/>
<polygon fill="none" stroke="#404040" points="227.64,-294.94 226.28,-287.85 232.3,-283.88 233.65,-290.96 227.64,-294.94"/>
<text text-anchor="middle" x="253" y="-305" font-family="Helvetica,sans-Serif" font-size="10.00"> +elements</text>
</g>
<!-- Node7&#45;&gt;Node6 -->
<g id="edge6" class="edge">
<title>Node7&#45;&gt;Node6</title>
<path fill="none" stroke="#404040" d="M196,-458.28C196,-445.91 196,-433.74 196,-422.63"/>
<polygon fill="none" stroke="#404040" points="196,-422.57 192,-416.57 196,-410.57 200,-416.57 196,-422.57"/>
<text text-anchor="middle" x="208.5" y="-432" font-family="Helvetica,sans-Serif" font-size="10.00"> +ptr</text>
</g>
<!-- Node8 -->
<g id="node8" class="node">
<title>Node8</title>
<g id="a_node8"><a xlink:href="classFeel_1_1JournalWatcher.html" target="_top" xlink:title=" ">
<polygon fill="white" stroke="black" points="152,-717.5 152,-1005.5 328,-1005.5 328,-717.5 152,-717.5"/>
<text text-anchor="middle" x="240" y="-993.5" font-family="Helvetica,sans-Serif" font-size="10.00">Feel::JournalWatcher</text>
<polyline fill="none" stroke="black" points="152,-986.5 328,-986.5 "/>
<text text-anchor="middle" x="240" y="-974.5" font-family="Helvetica,sans-Serif" font-size="10.00"> </text>
<polyline fill="none" stroke="black" points="152,-967.5 328,-967.5 "/>
<text text-anchor="start" x="160" y="-955.5" font-family="Helvetica,sans-Serif" font-size="10.00">* JournalWatcher()</text>
<text text-anchor="start" x="160" y="-944.5" font-family="Helvetica,sans-Serif" font-size="10.00">* JournalWatcher()</text>
<text text-anchor="start" x="160" y="-933.5" font-family="Helvetica,sans-Serif" font-size="10.00">* JournalWatcher()</text>
<text text-anchor="start" x="160" y="-922.5" font-family="Helvetica,sans-Serif" font-size="10.00">* JournalWatcher()</text>
<text text-anchor="start" x="160" y="-911.5" font-family="Helvetica,sans-Serif" font-size="10.00">* ~JournalWatcher()</text>
<text text-anchor="start" x="160" y="-900.5" font-family="Helvetica,sans-Serif" font-size="10.00">* journalIsConnected()</text>
<text text-anchor="start" x="160" y="-889.5" font-family="Helvetica,sans-Serif" font-size="10.00">* journalWatcherInstanceName()</text>
<text text-anchor="start" x="160" y="-878.5" font-family="Helvetica,sans-Serif" font-size="10.00">* journalSection()</text>
<text text-anchor="start" x="160" y="-867.5" font-family="Helvetica,sans-Serif" font-size="10.00">* informationObject()</text>
<text text-anchor="start" x="160" y="-856.5" font-family="Helvetica,sans-Serif" font-size="10.00">* journalConnect()</text>
<text text-anchor="start" x="160" y="-845.5" font-family="Helvetica,sans-Serif" font-size="10.00">* journalDisconnect()</text>
<text text-anchor="start" x="160" y="-834.5" font-family="Helvetica,sans-Serif" font-size="10.00">* updateInformationObject()</text>
<text text-anchor="start" x="160" y="-823.5" font-family="Helvetica,sans-Serif" font-size="10.00">* setInformationObject()</text>
<text text-anchor="start" x="160" y="-812.5" font-family="Helvetica,sans-Serif" font-size="10.00">* putInformationObject()</text>
<text text-anchor="start" x="160" y="-801.5" font-family="Helvetica,sans-Serif" font-size="10.00">and 4 more...</text>
<text text-anchor="start" x="160" y="-790.5" font-family="Helvetica,sans-Serif" font-size="10.00">* M_journal_is_connected</text>
<text text-anchor="start" x="160" y="-779.5" font-family="Helvetica,sans-Serif" font-size="10.00">* M_category</text>
<text text-anchor="start" x="160" y="-768.5" font-family="Helvetica,sans-Serif" font-size="10.00">* M_name</text>
<text text-anchor="start" x="160" y="-757.5" font-family="Helvetica,sans-Serif" font-size="10.00">* M_function_updateInformation</text>
<text text-anchor="start" x="160" y="-746.5" font-family="Helvetica,sans-Serif" font-size="10.00">Object</text>
<text text-anchor="start" x="160" y="-735.5" font-family="Helvetica,sans-Serif" font-size="10.00">* M_informationObject</text>
<text text-anchor="start" x="160" y="-724.5" font-family="Helvetica,sans-Serif" font-size="10.00">* S_counterObjectByCategory</text>
</a>
</g>
</g>
<!-- Node8&#45;&gt;Node7 -->
<g id="edge7" class="edge">
<title>Node8&#45;&gt;Node7</title>
<path fill="none" stroke="midnightblue" d="M217.13,-706.93C215.25,-694.29 213.38,-681.7 211.57,-669.54"/>
<polygon fill="none" stroke="midnightblue" points="213.71,-707.7 218.64,-717.08 220.63,-706.67 213.71,-707.7"/>
</g>
<!-- Node9 -->
<g id="node9" class="node">
<title>Node9</title>
<g id="a_node9"><a xlink:title=" ">
<polygon fill="white" stroke="#bfbfbf" points="186.5,-1043.5 186.5,-1100.5 293.5,-1100.5 293.5,-1043.5 186.5,-1043.5"/>
<text text-anchor="middle" x="240" y="-1088.5" font-family="Helvetica,sans-Serif" font-size="10.00">Event::SlotHandler</text>
<polyline fill="none" stroke="#bfbfbf" points="186.5,-1081.5 293.5,-1081.5 "/>
<text text-anchor="middle" x="240" y="-1069.5" font-family="Helvetica,sans-Serif" font-size="10.00"> </text>
<polyline fill="none" stroke="#bfbfbf" points="186.5,-1062.5 293.5,-1062.5 "/>
<text text-anchor="middle" x="240" y="-1050.5" font-family="Helvetica,sans-Serif" font-size="10.00"> </text>
</a>
</g>
</g>
<!-- Node9&#45;&gt;Node8 -->
<g id="edge8" class="edge">
<title>Node9&#45;&gt;Node8</title>
<path fill="none" stroke="midnightblue" d="M240,-1033.25C240,-1024.86 240,-1015.49 240,-1005.57"/>
<polygon fill="none" stroke="midnightblue" points="236.5,-1033.31 240,-1043.31 243.5,-1033.31 236.5,-1033.31"/>
</g>
<!-- Node10 -->
<g id="node10" class="node">
<title>Node10</title>
<g id="a_node10"><a xlink:href="classphysic__id__type.html" target="_top" xlink:title=" ">
<polygon fill="white" stroke="black" points="287.5,-342.5 287.5,-399.5 376.5,-399.5 376.5,-342.5 287.5,-342.5"/>
<text text-anchor="middle" x="332" y="-387.5" font-family="Helvetica,sans-Serif" font-size="10.00">physic_id_type</text>
<polyline fill="none" stroke="black" points="287.5,-380.5 376.5,-380.5 "/>
<text text-anchor="middle" x="332" y="-368.5" font-family="Helvetica,sans-Serif" font-size="10.00"> </text>
<polyline fill="none" stroke="black" points="287.5,-361.5 376.5,-361.5 "/>
<text text-anchor="middle" x="332" y="-349.5" font-family="Helvetica,sans-Serif" font-size="10.00"> </text>
</a>
</g>
</g>
<!-- Node10&#45;&gt;Node5 -->
<g id="edge10" class="edge">
<title>Node10&#45;&gt;Node5</title>
<path fill="none" stroke="#404040" d="M314.82,-342.32C306.05,-328.2 295.07,-310.51 284.7,-293.8"/>
<polygon fill="none" stroke="#404040" points="284.68,-293.76 278.12,-290.77 278.35,-283.57 284.92,-286.56 284.68,-293.76"/>
<text text-anchor="middle" x="314" y="-305" font-family="Helvetica,sans-Serif" font-size="10.00"> +keys</text>
</g>
</g>
</svg>
        <g id="navigator" transform="translate(0 0)" fill="#404254">
                <rect fill="#f2f5e9" fill-opacity="0.5" stroke="#606060" stroke-width=".5" x="0" y="0" width="60" height="60"/>
                <use id="zoomplus" xlink:href="#zoomPlus" x="17" y="9" onmousedown="handleZoom(evt,'in')"/>
                <use id="zoomminus" xlink:href="#zoomMin" x="42" y="9" onmousedown="handleZoom(evt,'out')"/>
                <use id="reset" xlink:href="#resetDef" x="30" y="36" onmousedown="handleReset()"/>
                <g id="arrowUp" xlink:href="#dirArrow" transform="translate(30 24)" onmousedown="handlePan(0,-1)">
                  <use xlink:href="#rim" fill="#404040">
                        <set attributeName="fill" to="#808080" begin="arrowUp.mouseover" end="arrowUp.mouseout"/>
                  </use>
                  <path fill="none" stroke="white" stroke-width="1.5" d="M0,-3.0v7 M-2.5,-0.5L0,-3.0L2.5,-0.5"/>
                </g>
                <g id="arrowRight" xlink:href="#dirArrow" transform="rotate(90) translate(36 -43)" onmousedown="handlePan(1,0)">
                  <use xlink:href="#rim" fill="#404040">
                        <set attributeName="fill" to="#808080" begin="arrowRight.mouseover" end="arrowRight.mouseout"/>
                  </use>
                  <path fill="none" stroke="white" stroke-width="1.5" d="M0,-3.0v7 M-2.5,-0.5L0,-3.0L2.5,-0.5"/>
                </g>
                <g id="arrowDown" xlink:href="#dirArrow" transform="rotate(180) translate(-30 -48)" onmousedown="handlePan(0,1)">
                  <use xlink:href="#rim" fill="#404040">
                        <set attributeName="fill" to="#808080" begin="arrowDown.mouseover" end="arrowDown.mouseout"/>
                  </use>
                  <path fill="none" stroke="white" stroke-width="1.5" d="M0,-3.0v7 M-2.5,-0.5L0,-3.0L2.5,-0.5"/>
                </g>
                <g id="arrowLeft" xlink:href="#dirArrow" transform="rotate(270) translate(-36 17)" onmousedown="handlePan(-1,0)">
                  <use xlink:href="#rim" fill="#404040">
                        <set attributeName="fill" to="#808080" begin="arrowLeft.mouseover" end="arrowLeft.mouseout"/>
                  </use>
                  <path fill="none" stroke="white" stroke-width="1.5" d="M0,-3.0v7 M-2.5,-0.5L0,-3.0L2.5,-0.5"/>
                </g>
        </g>
        <svg viewBox="0 0 15 15" width="100%" height="30px" preserveAspectRatio="xMaxYMin meet">
         <g id="arrow_out" transform="scale(0.3 0.3)">
          <a xlink:href="classFeel_1_1FeelModels_1_1ModelPhysics__coll__graph_org.svg" target="_base">
           <rect id="button" ry="5" rx="5" y="6" x="6" height="38" width="38"
                fill="#f2f5e9" fill-opacity="0.5" stroke="#606060" stroke-width="1.0"/>
           <path id="arrow"
             d="M 11.500037,31.436501 C 11.940474,20.09759 22.043105,11.32322 32.158766,21.979434 L 37.068811,17.246167 C 37.068811,17.246167 37.088388,32 37.088388,32 L 22.160133,31.978069 C 22.160133,31.978069 26.997745,27.140456 26.997745,27.140456 C 18.528582,18.264221 13.291696,25.230495 11.500037,31.436501 z"
             style="fill:#404040;"/>
          </a>
         </g>
        </svg>
</svg>
