<?xml version="1.0" encoding="UTF-8" standalone="no"?>
<!DOCTYPE svg PUBLIC "-//W3C//DTD SVG 1.1//EN"
 "http://www.w3.org/Graphics/SVG/1.1/DTD/svg11.dtd">
<!-- Generated by graphviz version 2.43.0 (0)
 -->
<!-- Title: Feel::CNAB2&lt; FieldType &gt; Pages: 1 -->
<!--zoomable 613 -->
<svg id="main" version="1.1" xmlns="http://www.w3.org/2000/svg" xmlns:xlink="http://www.w3.org/1999/xlink" xml:space="preserve" onload="init(evt)">
<style type="text/css"><![CDATA[
.edge:hover path { stroke: red; }
.edge:hover polygon { stroke: red; fill: red; }
]]></style>
<script type="text/javascript"><![CDATA[
var edges = document.getElementsByTagName('g');
if (edges && edges.length) {
  for (var i=0;i<edges.length;i++) {
    if (edges[i].id.substr(0,4)=='edge') {
      edges[i].setAttribute('class','edge');
    }
  }
}
]]></script>
        <defs>
                <circle id="rim" cx="0" cy="0" r="7"/>
                <circle id="rim2" cx="0" cy="0" r="3.5"/>
                <g id="zoomPlus">
                        <use xlink:href="#rim" fill="#404040">
                                <set attributeName="fill" to="#808080" begin="zoomplus.mouseover" end="zoomplus.mouseout"/>
                        </use>
                        <path d="M-4,0h8M0,-4v8" fill="none" stroke="white" stroke-width="1.5" pointer-events="none"/>
                </g>
                <g id="zoomMin">
                        <use xlink:href="#rim" fill="#404040">
                                <set attributeName="fill" to="#808080" begin="zoomminus.mouseover" end="zoomminus.mouseout"/>
                        </use>
                        <path d="M-4,0h8" fill="none" stroke="white" stroke-width="1.5" pointer-events="none"/>
                </g>
                <g id="dirArrow">
                        <path fill="none" stroke="white" stroke-width="1.5" d="M0,-3.0v7 M-2.5,-0.5L0,-3.0L2.5,-0.5"/>
                </g>
               <g id="resetDef">
                       <use xlink:href="#rim2" fill="#404040">
                               <set attributeName="fill" to="#808080" begin="reset.mouseover" end="reset.mouseout"/>
                       </use>
               </g>
        </defs>

<script type="text/javascript">
var viewWidth = 525;
var viewHeight = 613;
var sectionId = 'dynsection-1';
</script>
<script xlink:href="svgpan.js"/>
<svg id="graph" class="graph">
<g id="viewport">
<title>Feel::CNAB2&lt; FieldType &gt;</title>
<polygon fill="white" stroke="transparent" points="-4,4 -4,-609 520.5,-609 520.5,4 -4,4"/>
<!-- Node1 -->
<g id="node1" class="node">
<title>Node1</title>
<g id="a_node1"><a xlink:title=" ">
<polygon fill="#bfbfbf" stroke="black" points="221.5,-0.5 221.5,-134.5 365.5,-134.5 365.5,-0.5 221.5,-0.5"/>
<text text-anchor="middle" x="293.5" y="-122.5" font-family="Helvetica,sans-Serif" font-size="10.00">Feel::CNAB2&lt; FieldType &gt;</text>
<polyline fill="none" stroke="black" points="221.5,-115.5 365.5,-115.5 "/>
<text text-anchor="start" x="229.5" y="-103.5" font-family="Helvetica,sans-Serif" font-size="10.00">+ acc_try</text>
<text text-anchor="start" x="229.5" y="-92.5" font-family="Helvetica,sans-Serif" font-size="10.00">+ uab2</text>
<text text-anchor="start" x="229.5" y="-81.5" font-family="Helvetica,sans-Serif" font-size="10.00">+ ww</text>
<polyline fill="none" stroke="black" points="221.5,-74.5 365.5,-74.5 "/>
<text text-anchor="start" x="229.5" y="-62.5" font-family="Helvetica,sans-Serif" font-size="10.00">+ addStep()</text>
<text text-anchor="start" x="229.5" y="-51.5" font-family="Helvetica,sans-Serif" font-size="10.00">+ addStep()</text>
<text text-anchor="start" x="229.5" y="-40.5" font-family="Helvetica,sans-Serif" font-size="10.00">+ addStep()</text>
<text text-anchor="start" x="229.5" y="-29.5" font-family="Helvetica,sans-Serif" font-size="10.00">+ averaging()</text>
<text text-anchor="start" x="229.5" y="-18.5" font-family="Helvetica,sans-Serif" font-size="10.00">+ CNAB2()</text>
<text text-anchor="start" x="229.5" y="-7.5" font-family="Helvetica,sans-Serif" font-size="10.00">and 11 more...</text>
</a>
</g>
</g>
<!-- Node2 -->
<g id="node2" class="node">
<title>Node2</title>
<g id="a_node2"><a xlink:href="classFeel_1_1TimeSet.html" target="_top" xlink:title="Handles a set of time steps.">
<polygon fill="white" stroke="black" points="36,-292.5 36,-404.5 119,-404.5 119,-292.5 36,-292.5"/>
<text text-anchor="middle" x="77.5" y="-392.5" font-family="Helvetica,sans-Serif" font-size="10.00">Feel::TimeSet</text>
<polyline fill="none" stroke="black" points="36,-385.5 119,-385.5 "/>
<text text-anchor="middle" x="77.5" y="-373.5" font-family="Helvetica,sans-Serif" font-size="10.00"> </text>
<polyline fill="none" stroke="black" points="36,-366.5 119,-366.5 "/>
<text text-anchor="start" x="44" y="-354.5" font-family="Helvetica,sans-Serif" font-size="10.00">+ index()</text>
<text text-anchor="start" x="44" y="-343.5" font-family="Helvetica,sans-Serif" font-size="10.00">+ k()</text>
<text text-anchor="start" x="44" y="-332.5" font-family="Helvetica,sans-Serif" font-size="10.00">+ k()</text>
<text text-anchor="start" x="44" y="-321.5" font-family="Helvetica,sans-Serif" font-size="10.00">+ kprev()</text>
<text text-anchor="start" x="44" y="-310.5" font-family="Helvetica,sans-Serif" font-size="10.00">+ kprev()</text>
<text text-anchor="start" x="44" y="-299.5" font-family="Helvetica,sans-Serif" font-size="10.00">and 8 more...</text>
</a>
</g>
</g>
<!-- Node2&#45;&gt;Node1 -->
<g id="edge1" class="edge">
<title>Node2&#45;&gt;Node1</title>
<path fill="none" stroke="midnightblue" d="M99.44,-282.95C115.35,-242.59 139.82,-191.2 172.5,-153 186.33,-136.84 203.91,-122.28 221.35,-109.97"/>
<polygon fill="none" stroke="midnightblue" points="96.11,-281.84 95.77,-292.43 102.64,-284.36 96.11,-281.84"/>
</g>
<!-- Node3 -->
<g id="node3" class="node">
<title>Node3</title>
<g id="a_node3"><a xlink:title="STL class.">
<polygon fill="white" stroke="#bfbfbf" points="0,-442.5 0,-499.5 155,-499.5 155,-442.5 0,-442.5"/>
<text text-anchor="middle" x="77.5" y="-487.5" font-family="Helvetica,sans-Serif" font-size="10.00">std::vector&lt; TimeStepInfo &gt;</text>
<polyline fill="none" stroke="#bfbfbf" points="0,-480.5 155,-480.5 "/>
<text text-anchor="middle" x="77.5" y="-468.5" font-family="Helvetica,sans-Serif" font-size="10.00"> </text>
<polyline fill="none" stroke="#bfbfbf" points="0,-461.5 155,-461.5 "/>
<text text-anchor="middle" x="77.5" y="-449.5" font-family="Helvetica,sans-Serif" font-size="10.00"> </text>
</a>
</g>
</g>
<!-- Node3&#45;&gt;Node2 -->
<g id="edge2" class="edge">
<title>Node3&#45;&gt;Node2</title>
<path fill="none" stroke="midnightblue" d="M77.5,-432.11C77.5,-423.36 77.5,-413.88 77.5,-404.57"/>
<polygon fill="none" stroke="midnightblue" points="74,-432.35 77.5,-442.35 81,-432.35 74,-432.35"/>
</g>
<!-- Node4 -->
<g id="node4" class="node">
<title>Node4</title>
<g id="a_node4"><a xlink:title=" ">
<polygon fill="white" stroke="#bfbfbf" points="63,-547.5 63,-604.5 92,-604.5 92,-547.5 63,-547.5"/>
<text text-anchor="middle" x="77.5" y="-592.5" font-family="Helvetica,sans-Serif" font-size="10.00">T</text>
<polyline fill="none" stroke="#bfbfbf" points="63,-585.5 92,-585.5 "/>
<text text-anchor="middle" x="77.5" y="-573.5" font-family="Helvetica,sans-Serif" font-size="10.00"> </text>
<polyline fill="none" stroke="#bfbfbf" points="63,-566.5 92,-566.5 "/>
<text text-anchor="middle" x="77.5" y="-554.5" font-family="Helvetica,sans-Serif" font-size="10.00"> </text>
</a>
</g>
</g>
<!-- Node4&#45;&gt;Node3 -->
<g id="edge3" class="edge">
<title>Node4&#45;&gt;Node3</title>
<path fill="none" stroke="#404040" d="M77.5,-547.4C77.5,-536.55 77.5,-523.87 77.5,-512.05"/>
<polygon fill="none" stroke="#404040" points="77.5,-511.68 73.5,-505.68 77.5,-499.68 81.5,-505.68 77.5,-511.68"/>
<text text-anchor="middle" x="106.5" y="-521" font-family="Helvetica,sans-Serif" font-size="10.00"> +elements</text>
</g>
<!-- Node5 -->
<g id="node5" class="node">
<title>Node5</title>
<g id="a_node5"><a xlink:title=" ">
<polygon fill="white" stroke="#bfbfbf" points="137.5,-320 137.5,-377 221.5,-377 221.5,-320 137.5,-320"/>
<text text-anchor="middle" x="179.5" y="-365" font-family="Helvetica,sans-Serif" font-size="10.00">mesh_ptrtype</text>
<polyline fill="none" stroke="#bfbfbf" points="137.5,-358 221.5,-358 "/>
<text text-anchor="middle" x="179.5" y="-346" font-family="Helvetica,sans-Serif" font-size="10.00"> </text>
<polyline fill="none" stroke="#bfbfbf" points="137.5,-339 221.5,-339 "/>
<text text-anchor="middle" x="179.5" y="-327" font-family="Helvetica,sans-Serif" font-size="10.00"> </text>
</a>
</g>
</g>
<!-- Node5&#45;&gt;Node1 -->
<g id="edge4" class="edge">
<title>Node5&#45;&gt;Node1</title>
<path fill="none" stroke="#404040" d="M177.21,-319.7C175.18,-280.35 176,-207.15 203.5,-153 206.47,-147.15 210.02,-141.49 213.97,-136.05"/>
<polygon fill="none" stroke="#404040" points="214.04,-135.96 214.6,-128.77 221.46,-126.53 220.89,-133.72 214.04,-135.96"/>
<text text-anchor="middle" x="223" y="-211" font-family="Helvetica,sans-Serif" font-size="10.00"> +mesh</text>
</g>
<!-- Node6 -->
<g id="node6" class="node">
<title>Node6</title>
<g id="a_node6"><a xlink:href="classdouble.html" target="_top" xlink:title=" ">
<polygon fill="white" stroke="black" points="239.5,-320 239.5,-377 289.5,-377 289.5,-320 239.5,-320"/>
<text text-anchor="middle" x="264.5" y="-365" font-family="Helvetica,sans-Serif" font-size="10.00">double</text>
<polyline fill="none" stroke="black" points="239.5,-358 289.5,-358 "/>
<text text-anchor="middle" x="264.5" y="-346" font-family="Helvetica,sans-Serif" font-size="10.00"> </text>
<polyline fill="none" stroke="black" points="239.5,-339 289.5,-339 "/>
<text text-anchor="middle" x="264.5" y="-327" font-family="Helvetica,sans-Serif" font-size="10.00"> </text>
</a>
</g>
</g>
<!-- Node6&#45;&gt;Node1 -->
<g id="edge5" class="edge">
<title>Node6&#45;&gt;Node1</title>
<path fill="none" stroke="#404040" d="M258.19,-319.73C250.6,-281.63 240.41,-211.24 253.5,-153 253.99,-150.84 254.53,-148.67 255.14,-146.49"/>
<polygon fill="none" stroke="#404040" points="255.19,-146.31 253.2,-139.38 258.82,-134.88 260.82,-141.81 255.19,-146.31"/>
<text text-anchor="middle" x="283.5" y="-227.5" font-family="Helvetica,sans-Serif" font-size="10.00"> +k0</text>
<text text-anchor="middle" x="283.5" y="-216.5" font-family="Helvetica,sans-Serif" font-size="10.00">+keps</text>
<text text-anchor="middle" x="283.5" y="-205.5" font-family="Helvetica,sans-Serif" font-size="10.00">+T</text>
<text text-anchor="middle" x="283.5" y="-194.5" font-family="Helvetica,sans-Serif" font-size="10.00">+steady_tol</text>
</g>
<!-- Node7 -->
<g id="node7" class="node">
<title>Node7</title>
<g id="a_node7"><a xlink:href="classint.html" target="_top" xlink:title=" ">
<polygon fill="white" stroke="black" points="321,-320 321,-377 350,-377 350,-320 321,-320"/>
<text text-anchor="middle" x="335.5" y="-365" font-family="Helvetica,sans-Serif" font-size="10.00">int</text>
<polyline fill="none" stroke="black" points="321,-358 350,-358 "/>
<text text-anchor="middle" x="335.5" y="-346" font-family="Helvetica,sans-Serif" font-size="10.00"> </text>
<polyline fill="none" stroke="black" points="321,-339 350,-339 "/>
<text text-anchor="middle" x="335.5" y="-327" font-family="Helvetica,sans-Serif" font-size="10.00"> </text>
</a>
</g>
</g>
<!-- Node7&#45;&gt;Node1 -->
<g id="edge6" class="edge">
<title>Node7&#45;&gt;Node1</title>
<path fill="none" stroke="#404040" d="M333.43,-319.97C330.35,-282.15 323.8,-212.09 313.5,-153 313.14,-150.96 312.77,-148.89 312.38,-146.81"/>
<polygon fill="none" stroke="#404040" points="312.32,-146.54 307.23,-141.43 309.98,-134.77 315.07,-139.87 312.32,-146.54"/>
<text text-anchor="middle" x="347" y="-211" font-family="Helvetica,sans-Serif" font-size="10.00"> +nstar</text>
</g>
<!-- Node8 -->
<g id="node8" class="node">
<title>Node8</title>
<g id="a_node8"><a xlink:href="classbool.html" target="_top" xlink:title=" ">
<polygon fill="white" stroke="black" points="376.5,-320 376.5,-377 414.5,-377 414.5,-320 376.5,-320"/>
<text text-anchor="middle" x="395.5" y="-365" font-family="Helvetica,sans-Serif" font-size="10.00">bool</text>
<polyline fill="none" stroke="black" points="376.5,-358 414.5,-358 "/>
<text text-anchor="middle" x="395.5" y="-346" font-family="Helvetica,sans-Serif" font-size="10.00"> </text>
<polyline fill="none" stroke="black" points="376.5,-339 414.5,-339 "/>
<text text-anchor="middle" x="395.5" y="-327" font-family="Helvetica,sans-Serif" font-size="10.00"> </text>
</a>
</g>
</g>
<!-- Node8&#45;&gt;Node1 -->
<g id="edge7" class="edge">
<title>Node8&#45;&gt;Node1</title>
<path fill="none" stroke="#404040" d="M396.8,-319.99C397.58,-280.99 395,-208.21 369.5,-153 368.28,-150.36 366.94,-147.73 365.52,-145.14"/>
<polygon fill="none" stroke="#404040" points="365.39,-144.93 358.85,-141.88 359.15,-134.68 365.69,-137.73 365.39,-144.93"/>
<text text-anchor="middle" x="418" y="-211" font-family="Helvetica,sans-Serif" font-size="10.00"> +steady</text>
</g>
<!-- Node9 -->
<g id="node9" class="node">
<title>Node9</title>
<g id="a_node9"><a xlink:title=" ">
<polygon fill="white" stroke="#bfbfbf" points="432.5,-320 432.5,-377 494.5,-377 494.5,-320 432.5,-320"/>
<text text-anchor="middle" x="463.5" y="-365" font-family="Helvetica,sans-Serif" font-size="10.00">FieldType</text>
<polyline fill="none" stroke="#bfbfbf" points="432.5,-358 494.5,-358 "/>
<text text-anchor="middle" x="463.5" y="-346" font-family="Helvetica,sans-Serif" font-size="10.00"> </text>
<polyline fill="none" stroke="#bfbfbf" points="432.5,-339 494.5,-339 "/>
<text text-anchor="middle" x="463.5" y="-327" font-family="Helvetica,sans-Serif" font-size="10.00"> </text>
</a>
</g>
</g>
<!-- Node9&#45;&gt;Node1 -->
<g id="edge8" class="edge">
<title>Node9&#45;&gt;Node1</title>
<path fill="none" stroke="#404040" d="M467.73,-319.76C472.35,-279.49 475.14,-204.09 441.5,-153 425.91,-129.32 401.25,-111.53 376.51,-98.54"/>
<polygon fill="none" stroke="#404040" points="376.28,-98.43 369.13,-99.33 365.54,-93.08 372.69,-92.17 376.28,-98.43"/>
<text text-anchor="middle" x="493" y="-266" font-family="Helvetica,sans-Serif" font-size="10.00"> +accstar</text>
<text text-anchor="middle" x="493" y="-255" font-family="Helvetica,sans-Serif" font-size="10.00">+u_try</text>
<text text-anchor="middle" x="493" y="-244" font-family="Helvetica,sans-Serif" font-size="10.00">+acc</text>
<text text-anchor="middle" x="493" y="-233" font-family="Helvetica,sans-Serif" font-size="10.00">+up</text>
<text text-anchor="middle" x="493" y="-222" font-family="Helvetica,sans-Serif" font-size="10.00">+d</text>
<text text-anchor="middle" x="493" y="-211" font-family="Helvetica,sans-Serif" font-size="10.00">+u</text>
<text text-anchor="middle" x="493" y="-200" font-family="Helvetica,sans-Serif" font-size="10.00">+ustar</text>
<text text-anchor="middle" x="493" y="-189" font-family="Helvetica,sans-Serif" font-size="10.00">+accp</text>
<text text-anchor="middle" x="493" y="-178" font-family="Helvetica,sans-Serif" font-size="10.00">+w</text>
<text text-anchor="middle" x="493" y="-167" font-family="Helvetica,sans-Serif" font-size="10.00">+dd</text>
<text text-anchor="middle" x="493" y="-156" font-family="Helvetica,sans-Serif" font-size="10.00">...</text>
</g>
</g>
</svg>
        <g id="navigator" transform="translate(0 0)" fill="#404254">
                <rect fill="#f2f5e9" fill-opacity="0.5" stroke="#606060" stroke-width=".5" x="0" y="0" width="60" height="60"/>
                <use id="zoomplus" xlink:href="#zoomPlus" x="17" y="9" onmousedown="handleZoom(evt,'in')"/>
                <use id="zoomminus" xlink:href="#zoomMin" x="42" y="9" onmousedown="handleZoom(evt,'out')"/>
                <use id="reset" xlink:href="#resetDef" x="30" y="36" onmousedown="handleReset()"/>
                <g id="arrowUp" xlink:href="#dirArrow" transform="translate(30 24)" onmousedown="handlePan(0,-1)">
                  <use xlink:href="#rim" fill="#404040">
                        <set attributeName="fill" to="#808080" begin="arrowUp.mouseover" end="arrowUp.mouseout"/>
                  </use>
                  <path fill="none" stroke="white" stroke-width="1.5" d="M0,-3.0v7 M-2.5,-0.5L0,-3.0L2.5,-0.5"/>
                </g>
                <g id="arrowRight" xlink:href="#dirArrow" transform="rotate(90) translate(36 -43)" onmousedown="handlePan(1,0)">
                  <use xlink:href="#rim" fill="#404040">
                        <set attributeName="fill" to="#808080" begin="arrowRight.mouseover" end="arrowRight.mouseout"/>
                  </use>
                  <path fill="none" stroke="white" stroke-width="1.5" d="M0,-3.0v7 M-2.5,-0.5L0,-3.0L2.5,-0.5"/>
                </g>
                <g id="arrowDown" xlink:href="#dirArrow" transform="rotate(180) translate(-30 -48)" onmousedown="handlePan(0,1)">
                  <use xlink:href="#rim" fill="#404040">
                        <set attributeName="fill" to="#808080" begin="arrowDown.mouseover" end="arrowDown.mouseout"/>
                  </use>
                  <path fill="none" stroke="white" stroke-width="1.5" d="M0,-3.0v7 M-2.5,-0.5L0,-3.0L2.5,-0.5"/>
                </g>
                <g id="arrowLeft" xlink:href="#dirArrow" transform="rotate(270) translate(-36 17)" onmousedown="handlePan(-1,0)">
                  <use xlink:href="#rim" fill="#404040">
                        <set attributeName="fill" to="#808080" begin="arrowLeft.mouseover" end="arrowLeft.mouseout"/>
                  </use>
                  <path fill="none" stroke="white" stroke-width="1.5" d="M0,-3.0v7 M-2.5,-0.5L0,-3.0L2.5,-0.5"/>
                </g>
        </g>
        <svg viewBox="0 0 15 15" width="100%" height="30px" preserveAspectRatio="xMaxYMin meet">
         <g id="arrow_out" transform="scale(0.3 0.3)">
          <a xlink:href="classFeel_1_1CNAB2__coll__graph_org.svg" target="_base">
           <rect id="button" ry="5" rx="5" y="6" x="6" height="38" width="38"
                fill="#f2f5e9" fill-opacity="0.5" stroke="#606060" stroke-width="1.0"/>
           <path id="arrow"
             d="M 11.500037,31.436501 C 11.940474,20.09759 22.043105,11.32322 32.158766,21.979434 L 37.068811,17.246167 C 37.068811,17.246167 37.088388,32 37.088388,32 L 22.160133,31.978069 C 22.160133,31.978069 26.997745,27.140456 26.997745,27.140456 C 18.528582,18.264221 13.291696,25.230495 11.500037,31.436501 z"
             style="fill:#404040;"/>
          </a>
         </g>
        </svg>
</svg>
