<?xml version="1.0" encoding="UTF-8" standalone="no"?>
<!DOCTYPE svg PUBLIC "-//W3C//DTD SVG 1.1//EN"
 "http://www.w3.org/Graphics/SVG/1.1/DTD/svg11.dtd">
<!-- Generated by graphviz version 2.43.0 (0)
 -->
<!-- Title: Feel::vf::ExprOptionalConcat&lt; TupleExprType &gt; Pages: 1 -->
<svg width="390pt" height="281pt"
 viewBox="0.00 0.00 389.50 281.00" xmlns="http://www.w3.org/2000/svg" xmlns:xlink="http://www.w3.org/1999/xlink">
<g id="graph0" class="graph" transform="scale(1 1) rotate(0) translate(4 277)">
<title>Feel::vf::ExprOptionalConcat&lt; TupleExprType &gt;</title>
<polygon fill="white" stroke="transparent" points="-4,4 -4,-277 385.5,-277 385.5,4 -4,4"/>
<!-- Node1 -->
<g id="node1" class="node">
<title>Node1</title>
<g id="a_node1"><a xlink:title=" ">
<polygon fill="#bfbfbf" stroke="black" points="133,-0.5 133,-123.5 288,-123.5 288,-0.5 133,-0.5"/>
<text text-anchor="start" x="141" y="-111.5" font-family="Helvetica,sans-Serif" font-size="10.00">Feel::vf::ExprOptionalConcat</text>
<text text-anchor="middle" x="210.5" y="-100.5" font-family="Helvetica,sans-Serif" font-size="10.00">&lt; TupleExprType &gt;</text>
<polyline fill="none" stroke="black" points="133,-93.5 288,-93.5 "/>
<text text-anchor="middle" x="210.5" y="-81.5" font-family="Helvetica,sans-Serif" font-size="10.00"> </text>
<polyline fill="none" stroke="black" points="133,-74.5 288,-74.5 "/>
<text text-anchor="start" x="141" y="-62.5" font-family="Helvetica,sans-Serif" font-size="10.00">+ add()</text>
<text text-anchor="start" x="141" y="-51.5" font-family="Helvetica,sans-Serif" font-size="10.00">+ applySymbolsExpr()</text>
<text text-anchor="start" x="141" y="-40.5" font-family="Helvetica,sans-Serif" font-size="10.00">+ dependentSymbols()</text>
<text text-anchor="start" x="141" y="-29.5" font-family="Helvetica,sans-Serif" font-size="10.00">+ diff()</text>
<text text-anchor="start" x="141" y="-18.5" font-family="Helvetica,sans-Serif" font-size="10.00">+ dynamicContext()</text>
<text text-anchor="start" x="141" y="-7.5" font-family="Helvetica,sans-Serif" font-size="10.00">and 12 more...</text>
</a>
</g>
</g>
<!-- Node2 -->
<g id="node2" class="node">
<title>Node2</title>
<g id="a_node2"><a xlink:href="classFeel_1_1vf_1_1ExprDynamicBase.html" target="_top" xlink:title=" ">
<polygon fill="white" stroke="#bfbfbf" points="0,-193.5 0,-272.5 147,-272.5 147,-193.5 0,-193.5"/>
<text text-anchor="middle" x="73.5" y="-260.5" font-family="Helvetica,sans-Serif" font-size="10.00">Feel::vf::ExprDynamicBase</text>
<polyline fill="none" stroke="#bfbfbf" points="0,-253.5 147,-253.5 "/>
<text text-anchor="middle" x="73.5" y="-241.5" font-family="Helvetica,sans-Serif" font-size="10.00"> </text>
<polyline fill="none" stroke="#bfbfbf" points="0,-234.5 147,-234.5 "/>
<text text-anchor="start" x="8" y="-222.5" font-family="Helvetica,sans-Serif" font-size="10.00">+ dynamicContext()</text>
<text text-anchor="start" x="8" y="-211.5" font-family="Helvetica,sans-Serif" font-size="10.00">+ ExprDynamicBase()</text>
<text text-anchor="start" x="8" y="-200.5" font-family="Helvetica,sans-Serif" font-size="10.00">+ ExprDynamicBase()</text>
</a>
</g>
</g>
<!-- Node2&#45;&gt;Node1 -->
<g id="edge1" class="edge">
<title>Node2&#45;&gt;Node1</title>
<path fill="none" stroke="midnightblue" d="M111.37,-185.29C126.78,-166.27 144.8,-144.04 161.22,-123.79"/>
<polygon fill="none" stroke="midnightblue" points="108.51,-183.26 104.93,-193.23 113.95,-187.66 108.51,-183.26"/>
</g>
<!-- Node3 -->
<g id="node3" class="node">
<title>Node3</title>
<g id="a_node3"><a xlink:href="classint.html" target="_top" xlink:title=" ">
<polygon fill="white" stroke="#bfbfbf" points="165,-204.5 165,-261.5 194,-261.5 194,-204.5 165,-204.5"/>
<text text-anchor="middle" x="179.5" y="-249.5" font-family="Helvetica,sans-Serif" font-size="10.00">int</text>
<polyline fill="none" stroke="#bfbfbf" points="165,-242.5 194,-242.5 "/>
<text text-anchor="middle" x="179.5" y="-230.5" font-family="Helvetica,sans-Serif" font-size="10.00"> </text>
<polyline fill="none" stroke="#bfbfbf" points="165,-223.5 194,-223.5 "/>
<text text-anchor="middle" x="179.5" y="-211.5" font-family="Helvetica,sans-Serif" font-size="10.00"> </text>
</a>
</g>
</g>
<!-- Node3&#45;&gt;Node1 -->
<g id="edge2" class="edge">
<title>Node3&#45;&gt;Node1</title>
<path fill="none" stroke="#404040" d="M177.31,-204.18C176.52,-186.27 176.61,-162.57 180.5,-142 180.91,-139.82 181.38,-137.63 181.89,-135.43"/>
<polygon fill="none" stroke="#404040" points="181.95,-135.22 179.64,-128.39 185.06,-123.63 187.37,-130.46 181.95,-135.22"/>
<text text-anchor="middle" x="200.5" y="-156" font-family="Helvetica,sans-Serif" font-size="10.00"> +nExpr</text>
</g>
<!-- Node4 -->
<g id="node4" class="node">
<title>Node4</title>
<g id="a_node4"><a xlink:href="classsize__t.html" target="_top" xlink:title=" ">
<polygon fill="white" stroke="#bfbfbf" points="220,-204.5 220,-261.5 265,-261.5 265,-204.5 220,-204.5"/>
<text text-anchor="middle" x="242.5" y="-249.5" font-family="Helvetica,sans-Serif" font-size="10.00">size_t</text>
<polyline fill="none" stroke="#bfbfbf" points="220,-242.5 265,-242.5 "/>
<text text-anchor="middle" x="242.5" y="-230.5" font-family="Helvetica,sans-Serif" font-size="10.00"> </text>
<polyline fill="none" stroke="#bfbfbf" points="220,-223.5 265,-223.5 "/>
<text text-anchor="middle" x="242.5" y="-211.5" font-family="Helvetica,sans-Serif" font-size="10.00"> </text>
</a>
</g>
</g>
<!-- Node4&#45;&gt;Node1 -->
<g id="edge3" class="edge">
<title>Node4&#45;&gt;Node1</title>
<path fill="none" stroke="#404040" d="M237.29,-204.47C233.74,-185.74 228.87,-160.03 224.26,-135.65"/>
<polygon fill="none" stroke="#404040" points="224.25,-135.62 219.2,-130.47 222.02,-123.83 227.06,-128.98 224.25,-135.62"/>
<text text-anchor="middle" x="255" y="-156" font-family="Helvetica,sans-Serif" font-size="10.00"> +context</text>
</g>
<!-- Node5 -->
<g id="node5" class="node">
<title>Node5</title>
<g id="a_node5"><a xlink:href="classbool.html" target="_top" xlink:title=" ">
<polygon fill="white" stroke="#bfbfbf" points="295.5,-204.5 295.5,-261.5 333.5,-261.5 333.5,-204.5 295.5,-204.5"/>
<text text-anchor="middle" x="314.5" y="-249.5" font-family="Helvetica,sans-Serif" font-size="10.00">bool</text>
<polyline fill="none" stroke="#bfbfbf" points="295.5,-242.5 333.5,-242.5 "/>
<text text-anchor="middle" x="314.5" y="-230.5" font-family="Helvetica,sans-Serif" font-size="10.00"> </text>
<polyline fill="none" stroke="#bfbfbf" points="295.5,-223.5 333.5,-223.5 "/>
<text text-anchor="middle" x="314.5" y="-211.5" font-family="Helvetica,sans-Serif" font-size="10.00"> </text>
</a>
</g>
</g>
<!-- Node5&#45;&gt;Node1 -->
<g id="edge4" class="edge">
<title>Node5&#45;&gt;Node1</title>
<path fill="none" stroke="#404040" d="M308.16,-204.34C303.18,-185.84 295.12,-161.43 283.5,-142 281.81,-139.17 280,-136.35 278.1,-133.56"/>
<polygon fill="none" stroke="#404040" points="277.92,-133.3 271.16,-130.79 270.88,-123.58 277.64,-126.1 277.92,-133.3"/>
<text text-anchor="middle" x="339.5" y="-167" font-family="Helvetica,sans-Serif" font-size="10.00"> +has_test_basis</text>
<text text-anchor="middle" x="339.5" y="-156" font-family="Helvetica,sans-Serif" font-size="10.00">+has_trial_basis</text>
<text text-anchor="middle" x="339.5" y="-145" font-family="Helvetica,sans-Serif" font-size="10.00">+is_terminal</text>
</g>
</g>
</svg>
