<?xml version="1.0" encoding="UTF-8" standalone="no"?>
<!DOCTYPE svg PUBLIC "-//W3C//DTD SVG 1.1//EN"
 "http://www.w3.org/Graphics/SVG/1.1/DTD/svg11.dtd">
<!-- Generated by graphviz version 2.43.0 (0)
 -->
<!-- Title: Feel::vf::Pow&lt; ExprT1, ExprT2 &gt; Pages: 1 -->
<svg width="334pt" height="270pt"
 viewBox="0.00 0.00 334.00 270.00" xmlns="http://www.w3.org/2000/svg" xmlns:xlink="http://www.w3.org/1999/xlink">
<g id="graph0" class="graph" transform="scale(1 1) rotate(0) translate(4 266)">
<title>Feel::vf::Pow&lt; ExprT1, ExprT2 &gt;</title>
<polygon fill="white" stroke="transparent" points="-4,4 -4,-266 330,-266 330,4 -4,4"/>
<!-- Node1 -->
<g id="node1" class="node">
<title>Node1</title>
<g id="a_node1"><a xlink:title=" ">
<polygon fill="#bfbfbf" stroke="black" points="83.5,-0.5 83.5,-134.5 212.5,-134.5 212.5,-0.5 83.5,-0.5"/>
<text text-anchor="start" x="91.5" y="-122.5" font-family="Helvetica,sans-Serif" font-size="10.00">Feel::vf::Pow&lt; ExprT1,</text>
<text text-anchor="middle" x="148" y="-111.5" font-family="Helvetica,sans-Serif" font-size="10.00"> ExprT2 &gt;</text>
<polyline fill="none" stroke="black" points="83.5,-104.5 212.5,-104.5 "/>
<text text-anchor="middle" x="148" y="-92.5" font-family="Helvetica,sans-Serif" font-size="10.00"> </text>
<polyline fill="none" stroke="black" points="83.5,-85.5 212.5,-85.5 "/>
<text text-anchor="start" x="91.5" y="-73.5" font-family="Helvetica,sans-Serif" font-size="10.00">+ applySymbolsExpr()</text>
<text text-anchor="start" x="91.5" y="-62.5" font-family="Helvetica,sans-Serif" font-size="10.00">+ dependentSymbols()</text>
<text text-anchor="start" x="91.5" y="-51.5" font-family="Helvetica,sans-Serif" font-size="10.00">+ diff()</text>
<text text-anchor="start" x="91.5" y="-40.5" font-family="Helvetica,sans-Serif" font-size="10.00">+ dynamicContext()</text>
<text text-anchor="start" x="91.5" y="-29.5" font-family="Helvetica,sans-Serif" font-size="10.00">+ evaluate()</text>
<text text-anchor="start" x="91.5" y="-18.5" font-family="Helvetica,sans-Serif" font-size="10.00">and 11 more...</text>
<text text-anchor="start" x="91.5" y="-7.5" font-family="Helvetica,sans-Serif" font-size="10.00"># Pow()</text>
</a>
</g>
</g>
<!-- Node2 -->
<g id="node2" class="node">
<title>Node2</title>
<g id="a_node2"><a xlink:title=" ">
<polygon fill="white" stroke="#bfbfbf" points="0,-204.5 0,-261.5 50,-261.5 50,-204.5 0,-204.5"/>
<text text-anchor="middle" x="25" y="-249.5" font-family="Helvetica,sans-Serif" font-size="10.00">ExprT1</text>
<polyline fill="none" stroke="#bfbfbf" points="0,-242.5 50,-242.5 "/>
<text text-anchor="middle" x="25" y="-230.5" font-family="Helvetica,sans-Serif" font-size="10.00"> </text>
<polyline fill="none" stroke="#bfbfbf" points="0,-223.5 50,-223.5 "/>
<text text-anchor="middle" x="25" y="-211.5" font-family="Helvetica,sans-Serif" font-size="10.00"> </text>
</a>
</g>
</g>
<!-- Node2&#45;&gt;Node1 -->
<g id="edge1" class="edge">
<title>Node2&#45;&gt;Node1</title>
<path fill="none" stroke="#404040" d="M25.93,-204.32C27.56,-188.32 31.55,-168.38 41,-153 49.63,-138.96 61.47,-126.31 74.15,-115.33"/>
<polygon fill="none" stroke="#404040" points="74.23,-115.27 76.32,-108.36 83.49,-107.64 81.41,-114.54 74.23,-115.27"/>
<text text-anchor="middle" x="70.5" y="-167" font-family="Helvetica,sans-Serif" font-size="10.00"> #M_expr_1</text>
</g>
<!-- Node3 -->
<g id="node3" class="node">
<title>Node3</title>
<g id="a_node3"><a xlink:title=" ">
<polygon fill="white" stroke="#bfbfbf" points="82,-204.5 82,-261.5 132,-261.5 132,-204.5 82,-204.5"/>
<text text-anchor="middle" x="107" y="-249.5" font-family="Helvetica,sans-Serif" font-size="10.00">ExprT2</text>
<polyline fill="none" stroke="#bfbfbf" points="82,-242.5 132,-242.5 "/>
<text text-anchor="middle" x="107" y="-230.5" font-family="Helvetica,sans-Serif" font-size="10.00"> </text>
<polyline fill="none" stroke="#bfbfbf" points="82,-223.5 132,-223.5 "/>
<text text-anchor="middle" x="107" y="-211.5" font-family="Helvetica,sans-Serif" font-size="10.00"> </text>
</a>
</g>
</g>
<!-- Node3&#45;&gt;Node1 -->
<g id="edge2" class="edge">
<title>Node3&#45;&gt;Node1</title>
<path fill="none" stroke="#404040" d="M104.48,-204.23C103.81,-188.93 104.13,-169.7 108,-153 108.5,-150.84 109.06,-148.67 109.67,-146.5"/>
<polygon fill="none" stroke="#404040" points="109.73,-146.32 107.76,-139.38 113.41,-134.89 115.38,-141.83 109.73,-146.32"/>
<text text-anchor="middle" x="137.5" y="-167" font-family="Helvetica,sans-Serif" font-size="10.00"> #M_expr_2</text>
</g>
<!-- Node4 -->
<g id="node4" class="node">
<title>Node4</title>
<g id="a_node4"><a xlink:href="classsize__t.html" target="_top" xlink:title=" ">
<polygon fill="white" stroke="black" points="166.5,-204.5 166.5,-261.5 211.5,-261.5 211.5,-204.5 166.5,-204.5"/>
<text text-anchor="middle" x="189" y="-249.5" font-family="Helvetica,sans-Serif" font-size="10.00">size_t</text>
<polyline fill="none" stroke="black" points="166.5,-242.5 211.5,-242.5 "/>
<text text-anchor="middle" x="189" y="-230.5" font-family="Helvetica,sans-Serif" font-size="10.00"> </text>
<polyline fill="none" stroke="black" points="166.5,-223.5 211.5,-223.5 "/>
<text text-anchor="middle" x="189" y="-211.5" font-family="Helvetica,sans-Serif" font-size="10.00"> </text>
</a>
</g>
</g>
<!-- Node4&#45;&gt;Node1 -->
<g id="edge3" class="edge">
<title>Node4&#45;&gt;Node1</title>
<path fill="none" stroke="#404040" d="M182.04,-204.26C178.02,-188.2 172.72,-167.09 167.51,-146.32"/>
<polygon fill="none" stroke="#404040" points="167.47,-146.15 162.13,-141.3 164.55,-134.51 169.89,-139.36 167.47,-146.15"/>
<text text-anchor="middle" x="200.5" y="-167" font-family="Helvetica,sans-Serif" font-size="10.00"> +context</text>
</g>
<!-- Node5 -->
<g id="node5" class="node">
<title>Node5</title>
<g id="a_node5"><a xlink:href="classbool.html" target="_top" xlink:title=" ">
<polygon fill="white" stroke="black" points="242,-204.5 242,-261.5 280,-261.5 280,-204.5 242,-204.5"/>
<text text-anchor="middle" x="261" y="-249.5" font-family="Helvetica,sans-Serif" font-size="10.00">bool</text>
<polyline fill="none" stroke="black" points="242,-242.5 280,-242.5 "/>
<text text-anchor="middle" x="261" y="-230.5" font-family="Helvetica,sans-Serif" font-size="10.00"> </text>
<polyline fill="none" stroke="black" points="242,-223.5 280,-223.5 "/>
<text text-anchor="middle" x="261" y="-211.5" font-family="Helvetica,sans-Serif" font-size="10.00"> </text>
</a>
</g>
</g>
<!-- Node5&#45;&gt;Node1 -->
<g id="edge4" class="edge">
<title>Node5&#45;&gt;Node1</title>
<path fill="none" stroke="#404040" d="M252.72,-204.42C247.29,-188.65 239.29,-168.9 229,-153 226.27,-148.78 223.3,-144.58 220.18,-140.45"/>
<polygon fill="none" stroke="#404040" points="220.1,-140.34 213.23,-138.11 212.65,-130.93 219.51,-133.15 220.1,-140.34"/>
<text text-anchor="middle" x="285" y="-178" font-family="Helvetica,sans-Serif" font-size="10.00"> +is_terminal</text>
<text text-anchor="middle" x="285" y="-167" font-family="Helvetica,sans-Serif" font-size="10.00">+has_trial_basis</text>
<text text-anchor="middle" x="285" y="-156" font-family="Helvetica,sans-Serif" font-size="10.00">+has_test_basis</text>
</g>
</g>
</svg>
