<?xml version="1.0" encoding="UTF-8" standalone="no"?>
<!DOCTYPE svg PUBLIC "-//W3C//DTD SVG 1.1//EN"
 "http://www.w3.org/Graphics/SVG/1.1/DTD/svg11.dtd">
<!-- Generated by graphviz version 2.43.0 (0)
 -->
<!-- Title: A Pages: 1 -->
<svg width="144pt" height="414pt"
 viewBox="0.00 0.00 144.00 414.00" xmlns="http://www.w3.org/2000/svg" xmlns:xlink="http://www.w3.org/1999/xlink">
<g id="graph0" class="graph" transform="scale(1 1) rotate(0) translate(4 410)">
<title>A</title>
<polygon fill="white" stroke="transparent" points="-4,4 -4,-410 140,-410 140,4 -4,4"/>
<!-- Node1 -->
<g id="node1" class="node">
<title>Node1</title>
<g id="a_node1"><a xlink:title=" ">
<polygon fill="#bfbfbf" stroke="black" points="36.5,-315.5 36.5,-405.5 98.5,-405.5 98.5,-315.5 36.5,-315.5"/>
<text text-anchor="middle" x="67.5" y="-393.5" font-family="Helvetica,sans-Serif" font-size="10.00">A</text>
<polyline fill="none" stroke="black" points="36.5,-386.5 98.5,-386.5 "/>
<text text-anchor="middle" x="67.5" y="-374.5" font-family="Helvetica,sans-Serif" font-size="10.00"> </text>
<polyline fill="none" stroke="black" points="36.5,-367.5 98.5,-367.5 "/>
<text text-anchor="start" x="44.5" y="-355.5" font-family="Helvetica,sans-Serif" font-size="10.00">+ A()</text>
<text text-anchor="start" x="44.5" y="-344.5" font-family="Helvetica,sans-Serif" font-size="10.00">+ hello()</text>
<text text-anchor="start" x="44.5" y="-333.5" font-family="Helvetica,sans-Serif" font-size="10.00">+ value()</text>
<text text-anchor="start" x="44.5" y="-322.5" font-family="Helvetica,sans-Serif" font-size="10.00">+ ~A()</text>
</a>
</g>
</g>
<!-- Node2 -->
<g id="node2" class="node">
<title>Node2</title>
<g id="a_node2"><a xlink:href="classB.html" target="_top" xlink:title=" ">
<polygon fill="white" stroke="#bfbfbf" points="0,-210.5 0,-278.5 59,-278.5 59,-210.5 0,-210.5"/>
<text text-anchor="middle" x="29.5" y="-266.5" font-family="Helvetica,sans-Serif" font-size="10.00">B</text>
<polyline fill="none" stroke="#bfbfbf" points="0,-259.5 59,-259.5 "/>
<text text-anchor="middle" x="29.5" y="-247.5" font-family="Helvetica,sans-Serif" font-size="10.00"> </text>
<polyline fill="none" stroke="#bfbfbf" points="0,-240.5 59,-240.5 "/>
<text text-anchor="start" x="8" y="-228.5" font-family="Helvetica,sans-Serif" font-size="10.00">+ hello()</text>
<text text-anchor="start" x="8" y="-217.5" font-family="Helvetica,sans-Serif" font-size="10.00">+ ~B()</text>
</a>
</g>
</g>
<!-- Node1&#45;&gt;Node2 -->
<g id="edge1" class="edge">
<title>Node1&#45;&gt;Node2</title>
<path fill="none" stroke="midnightblue" d="M49.63,-305.9C46.56,-296.68 43.45,-287.34 40.62,-278.85"/>
<polygon fill="none" stroke="midnightblue" points="46.33,-307.04 52.81,-315.42 52.97,-304.83 46.33,-307.04"/>
</g>
<!-- Node5 -->
<g id="node5" class="node">
<title>Node5</title>
<g id="a_node5"><a xlink:href="classC.html" target="_top" xlink:title=" ">
<polygon fill="white" stroke="#bfbfbf" points="77,-210.5 77,-278.5 136,-278.5 136,-210.5 77,-210.5"/>
<text text-anchor="middle" x="106.5" y="-266.5" font-family="Helvetica,sans-Serif" font-size="10.00">C</text>
<polyline fill="none" stroke="#bfbfbf" points="77,-259.5 136,-259.5 "/>
<text text-anchor="middle" x="106.5" y="-247.5" font-family="Helvetica,sans-Serif" font-size="10.00"> </text>
<polyline fill="none" stroke="#bfbfbf" points="77,-240.5 136,-240.5 "/>
<text text-anchor="start" x="85" y="-228.5" font-family="Helvetica,sans-Serif" font-size="10.00">+ hello()</text>
<text text-anchor="start" x="85" y="-217.5" font-family="Helvetica,sans-Serif" font-size="10.00">+ ~C()</text>
</a>
</g>
</g>
<!-- Node1&#45;&gt;Node5 -->
<g id="edge4" class="edge">
<title>Node1&#45;&gt;Node5</title>
<path fill="none" stroke="midnightblue" d="M85.84,-305.9C88.99,-296.68 92.19,-287.34 95.09,-278.85"/>
<polygon fill="none" stroke="midnightblue" points="82.5,-304.83 82.58,-315.42 89.13,-307.1 82.5,-304.83"/>
</g>
<!-- Node3 -->
<g id="node3" class="node">
<title>Node3</title>
<g id="a_node3"><a xlink:href="classD.html" target="_top" xlink:title=" ">
<polygon fill="white" stroke="#bfbfbf" points="0,-116.5 0,-173.5 59,-173.5 59,-116.5 0,-116.5"/>
<text text-anchor="middle" x="29.5" y="-161.5" font-family="Helvetica,sans-Serif" font-size="10.00">D</text>
<polyline fill="none" stroke="#bfbfbf" points="0,-154.5 59,-154.5 "/>
<text text-anchor="middle" x="29.5" y="-142.5" font-family="Helvetica,sans-Serif" font-size="10.00"> </text>
<polyline fill="none" stroke="#bfbfbf" points="0,-135.5 59,-135.5 "/>
<text text-anchor="start" x="8" y="-123.5" font-family="Helvetica,sans-Serif" font-size="10.00">+ hello()</text>
</a>
</g>
</g>
<!-- Node2&#45;&gt;Node3 -->
<g id="edge2" class="edge">
<title>Node2&#45;&gt;Node3</title>
<path fill="none" stroke="midnightblue" d="M29.5,-200.45C29.5,-191.4 29.5,-182.09 29.5,-173.78"/>
<polygon fill="none" stroke="midnightblue" points="26,-200.49 29.5,-210.49 33,-200.49 26,-200.49"/>
</g>
<!-- Node4 -->
<g id="node4" class="node">
<title>Node4</title>
<g id="a_node4"><a xlink:href="classF.html" target="_top" xlink:title=" ">
<polygon fill="white" stroke="#bfbfbf" points="0,-0.5 0,-79.5 59,-79.5 59,-0.5 0,-0.5"/>
<text text-anchor="middle" x="29.5" y="-67.5" font-family="Helvetica,sans-Serif" font-size="10.00">F</text>
<polyline fill="none" stroke="#bfbfbf" points="0,-60.5 59,-60.5 "/>
<text text-anchor="start" x="8" y="-48.5" font-family="Helvetica,sans-Serif" font-size="10.00">+ str</text>
<polyline fill="none" stroke="#bfbfbf" points="0,-41.5 59,-41.5 "/>
<text text-anchor="start" x="8" y="-29.5" font-family="Helvetica,sans-Serif" font-size="10.00">+ F()</text>
<text text-anchor="start" x="8" y="-18.5" font-family="Helvetica,sans-Serif" font-size="10.00">+ F()</text>
<text text-anchor="start" x="8" y="-7.5" font-family="Helvetica,sans-Serif" font-size="10.00">+ hello()</text>
</a>
</g>
</g>
<!-- Node3&#45;&gt;Node4 -->
<g id="edge3" class="edge">
<title>Node3&#45;&gt;Node4</title>
<path fill="none" stroke="midnightblue" d="M29.5,-106.16C29.5,-97.47 29.5,-88.23 29.5,-79.52"/>
<polygon fill="none" stroke="midnightblue" points="26,-106.4 29.5,-116.4 33,-106.4 26,-106.4"/>
</g>
<!-- Node6 -->
<g id="node6" class="node">
<title>Node6</title>
<g id="a_node6"><a xlink:href="classE.html" target="_top" xlink:title=" ">
<polygon fill="white" stroke="#bfbfbf" points="77,-116.5 77,-173.5 136,-173.5 136,-116.5 77,-116.5"/>
<text text-anchor="middle" x="106.5" y="-161.5" font-family="Helvetica,sans-Serif" font-size="10.00">E</text>
<polyline fill="none" stroke="#bfbfbf" points="77,-154.5 136,-154.5 "/>
<text text-anchor="middle" x="106.5" y="-142.5" font-family="Helvetica,sans-Serif" font-size="10.00"> </text>
<polyline fill="none" stroke="#bfbfbf" points="77,-135.5 136,-135.5 "/>
<text text-anchor="start" x="85" y="-123.5" font-family="Helvetica,sans-Serif" font-size="10.00">+ hello()</text>
</a>
</g>
</g>
<!-- Node5&#45;&gt;Node6 -->
<g id="edge5" class="edge">
<title>Node5&#45;&gt;Node6</title>
<path fill="none" stroke="midnightblue" d="M106.5,-200.45C106.5,-191.4 106.5,-182.09 106.5,-173.78"/>
<polygon fill="none" stroke="midnightblue" points="103,-200.49 106.5,-210.49 110,-200.49 103,-200.49"/>
</g>
</g>
</svg>
