<?xml version="1.0" encoding="UTF-8" standalone="no"?>
<!DOCTYPE svg PUBLIC "-//W3C//DTD SVG 1.1//EN"
 "http://www.w3.org/Graphics/SVG/1.1/DTD/svg11.dtd">
<!-- Generated by graphviz version 2.43.0 (0)
 -->
<!-- Title: Feel::ProductSpaces2&lt; T, SpaceList &gt;::Element Pages: 1 -->
<svg width="322pt" height="248pt"
 viewBox="0.00 0.00 322.00 248.00" xmlns="http://www.w3.org/2000/svg" xmlns:xlink="http://www.w3.org/1999/xlink">
<g id="graph0" class="graph" transform="scale(1 1) rotate(0) translate(4 244)">
<title>Feel::ProductSpaces2&lt; T, SpaceList &gt;::Element</title>
<polygon fill="white" stroke="transparent" points="-4,4 -4,-244 318,-244 318,4 -4,4"/>
<!-- Node1 -->
<g id="node1" class="node">
<title>Node1</title>
<g id="a_node1"><a xlink:title=" ">
<polygon fill="#bfbfbf" stroke="black" points="90.5,-0.5 90.5,-134.5 234.5,-134.5 234.5,-0.5 90.5,-0.5"/>
<text text-anchor="start" x="98.5" y="-122.5" font-family="Helvetica,sans-Serif" font-size="10.00">Feel::ProductSpaces2</text>
<text text-anchor="middle" x="162.5" y="-111.5" font-family="Helvetica,sans-Serif" font-size="10.00">&lt; T, SpaceList &gt;::Element</text>
<polyline fill="none" stroke="black" points="90.5,-104.5 234.5,-104.5 "/>
<text text-anchor="start" x="98.5" y="-92.5" font-family="Helvetica,sans-Serif" font-size="10.00">+ M_fspace</text>
<text text-anchor="start" x="98.5" y="-81.5" font-family="Helvetica,sans-Serif" font-size="10.00">+ nspaces</text>
<polyline fill="none" stroke="black" points="90.5,-74.5 234.5,-74.5 "/>
<text text-anchor="start" x="98.5" y="-62.5" font-family="Helvetica,sans-Serif" font-size="10.00">+ Element()</text>
<text text-anchor="start" x="98.5" y="-51.5" font-family="Helvetica,sans-Serif" font-size="10.00">+ Element()</text>
<text text-anchor="start" x="98.5" y="-40.5" font-family="Helvetica,sans-Serif" font-size="10.00">+ Element()</text>
<text text-anchor="start" x="98.5" y="-29.5" font-family="Helvetica,sans-Serif" font-size="10.00">+ Element()</text>
<text text-anchor="start" x="98.5" y="-18.5" font-family="Helvetica,sans-Serif" font-size="10.00">+ functionSpace()</text>
<text text-anchor="start" x="98.5" y="-7.5" font-family="Helvetica,sans-Serif" font-size="10.00">and 11 more...</text>
</a>
</g>
</g>
<!-- Node2 -->
<g id="node2" class="node">
<title>Node2</title>
<g id="a_node2"><a xlink:href="classBlocksBaseVector.html" target="_top" xlink:title=" ">
<polygon fill="white" stroke="black" points="0,-177 0,-234 159,-234 159,-177 0,-177"/>
<text text-anchor="middle" x="79.5" y="-222" font-family="Helvetica,sans-Serif" font-size="10.00">BlocksBaseVector&lt; double &gt;</text>
<polyline fill="none" stroke="black" points="0,-215 159,-215 "/>
<text text-anchor="middle" x="79.5" y="-203" font-family="Helvetica,sans-Serif" font-size="10.00"> </text>
<polyline fill="none" stroke="black" points="0,-196 159,-196 "/>
<text text-anchor="middle" x="79.5" y="-184" font-family="Helvetica,sans-Serif" font-size="10.00"> </text>
</a>
</g>
</g>
<!-- Node2&#45;&gt;Node1 -->
<g id="edge1" class="edge">
<title>Node2&#45;&gt;Node1</title>
<path fill="none" stroke="midnightblue" d="M101.62,-168.25C107.93,-157.91 115.01,-146.31 122.05,-134.78"/>
<polygon fill="none" stroke="midnightblue" points="98.52,-166.62 96.3,-176.98 104.49,-170.27 98.52,-166.62"/>
</g>
<!-- Node3 -->
<g id="node3" class="node">
<title>Node3</title>
<g id="a_node3"><a xlink:href="classFeel_1_1FunctionSpaceBase_1_1ElementBase.html" target="_top" xlink:title=" ">
<polygon fill="white" stroke="black" points="177,-171.5 177,-239.5 314,-239.5 314,-171.5 177,-171.5"/>
<text text-anchor="start" x="185" y="-227.5" font-family="Helvetica,sans-Serif" font-size="10.00">Feel::FunctionSpaceBase</text>
<text text-anchor="middle" x="245.5" y="-216.5" font-family="Helvetica,sans-Serif" font-size="10.00">::ElementBase</text>
<polyline fill="none" stroke="black" points="177,-209.5 314,-209.5 "/>
<text text-anchor="middle" x="245.5" y="-197.5" font-family="Helvetica,sans-Serif" font-size="10.00"> </text>
<polyline fill="none" stroke="black" points="177,-190.5 314,-190.5 "/>
<text text-anchor="middle" x="245.5" y="-178.5" font-family="Helvetica,sans-Serif" font-size="10.00"> </text>
</a>
</g>
</g>
<!-- Node3&#45;&gt;Node1 -->
<g id="edge2" class="edge">
<title>Node3&#45;&gt;Node1</title>
<path fill="none" stroke="#8b1a1a" d="M219.94,-162.63C214.53,-153.76 208.7,-144.2 202.89,-134.68"/>
<polygon fill="none" stroke="#8b1a1a" points="217,-164.52 225.2,-171.23 222.97,-160.87 217,-164.52"/>
</g>
</g>
</svg>
