<?xml version="1.0" encoding="UTF-8" standalone="no"?>
<!DOCTYPE svg PUBLIC "-//W3C//DTD SVG 1.1//EN"
 "http://www.w3.org/Graphics/SVG/1.1/DTD/svg11.dtd">
<!-- Generated by graphviz version 2.43.0 (0)
 -->
<!-- Title: Feel::FeelModels::ModelMeasuresQuantity&lt; QuantityType &gt; Pages: 1 -->
<svg width="190pt" height="215pt"
 viewBox="0.00 0.00 190.00 215.00" xmlns="http://www.w3.org/2000/svg" xmlns:xlink="http://www.w3.org/1999/xlink">
<g id="graph0" class="graph" transform="scale(1 1) rotate(0) translate(4 211)">
<title>Feel::FeelModels::ModelMeasuresQuantity&lt; QuantityType &gt;</title>
<polygon fill="white" stroke="transparent" points="-4,4 -4,-211 186,-211 186,4 -4,4"/>
<!-- Node1 -->
<g id="node1" class="node">
<title>Node1</title>
<g id="a_node1"><a xlink:title=" ">
<polygon fill="#bfbfbf" stroke="black" points="0,-0.5 0,-112.5 182,-112.5 182,-0.5 0,-0.5"/>
<text text-anchor="start" x="8" y="-100.5" font-family="Helvetica,sans-Serif" font-size="10.00">Feel::FeelModels::ModelMeasures</text>
<text text-anchor="middle" x="91" y="-89.5" font-family="Helvetica,sans-Serif" font-size="10.00">Quantity&lt; QuantityType &gt;</text>
<polyline fill="none" stroke="black" points="0,-82.5 182,-82.5 "/>
<text text-anchor="middle" x="91" y="-70.5" font-family="Helvetica,sans-Serif" font-size="10.00"> </text>
<polyline fill="none" stroke="black" points="0,-63.5 182,-63.5 "/>
<text text-anchor="start" x="8" y="-51.5" font-family="Helvetica,sans-Serif" font-size="10.00">+ ModelMeasuresQuantity()</text>
<text text-anchor="start" x="8" y="-40.5" font-family="Helvetica,sans-Serif" font-size="10.00">+ ModelMeasuresQuantity()</text>
<text text-anchor="start" x="8" y="-29.5" font-family="Helvetica,sans-Serif" font-size="10.00">+ ModelMeasuresQuantity()</text>
<text text-anchor="start" x="8" y="-18.5" font-family="Helvetica,sans-Serif" font-size="10.00">+ ModelMeasuresQuantity()</text>
<text text-anchor="start" x="8" y="-7.5" font-family="Helvetica,sans-Serif" font-size="10.00">+ operator=()</text>
</a>
</g>
</g>
<!-- Node2 -->
<g id="node2" class="node">
<title>Node2</title>
<g id="a_node2"><a xlink:title=" ">
<polygon fill="white" stroke="black" points="42.5,-149.5 42.5,-206.5 139.5,-206.5 139.5,-149.5 42.5,-149.5"/>
<text text-anchor="middle" x="91" y="-194.5" font-family="Helvetica,sans-Serif" font-size="10.00">std::vector&lt; T &gt;</text>
<polyline fill="none" stroke="black" points="42.5,-187.5 139.5,-187.5 "/>
<text text-anchor="start" x="50.5" y="-175.5" font-family="Helvetica,sans-Serif" font-size="10.00">+ elements</text>
<polyline fill="none" stroke="black" points="42.5,-168.5 139.5,-168.5 "/>
<text text-anchor="middle" x="91" y="-156.5" font-family="Helvetica,sans-Serif" font-size="10.00"> </text>
</a>
</g>
</g>
<!-- Node2&#45;&gt;Node1 -->
<g id="edge1" class="edge">
<title>Node2&#45;&gt;Node1</title>
<path fill="none" stroke="midnightblue" d="M91,-139.11C91,-130.75 91,-121.73 91,-112.83"/>
<polygon fill="none" stroke="midnightblue" points="87.5,-139.28 91,-149.28 94.5,-139.28 87.5,-139.28"/>
</g>
</g>
</svg>
