<?xml version="1.0" encoding="UTF-8" standalone="no"?>
<!DOCTYPE svg PUBLIC "-//W3C//DTD SVG 1.1//EN"
 "http://www.w3.org/Graphics/SVG/1.1/DTD/svg11.dtd">
<!-- Generated by graphviz version 2.43.0 (0)
 -->
<!-- Title: Feel::CNAB2&lt; FieldType &gt; Pages: 1 -->
<svg width="164pt" height="419pt"
 viewBox="0.00 0.00 164.00 419.00" xmlns="http://www.w3.org/2000/svg" xmlns:xlink="http://www.w3.org/1999/xlink">
<g id="graph0" class="graph" transform="scale(1 1) rotate(0) translate(4 415)">
<title>Feel::CNAB2&lt; FieldType &gt;</title>
<polygon fill="white" stroke="transparent" points="-4,4 -4,-415 160,-415 160,4 -4,4"/>
<!-- Node1 -->
<g id="node1" class="node">
<title>Node1</title>
<g id="a_node1"><a xlink:title=" ">
<polygon fill="#bfbfbf" stroke="black" points="5.5,-0.5 5.5,-167.5 150.5,-167.5 150.5,-0.5 5.5,-0.5"/>
<text text-anchor="middle" x="78" y="-155.5" font-family="Helvetica,sans-Serif" font-size="10.00">Feel::CNAB2&lt; FieldType &gt;</text>
<polyline fill="none" stroke="black" points="5.5,-148.5 150.5,-148.5 "/>
<text text-anchor="start" x="13.5" y="-136.5" font-family="Helvetica,sans-Serif" font-size="10.00">+ acc</text>
<text text-anchor="start" x="13.5" y="-125.5" font-family="Helvetica,sans-Serif" font-size="10.00">+ acc_try</text>
<text text-anchor="start" x="13.5" y="-114.5" font-family="Helvetica,sans-Serif" font-size="10.00">+ accp</text>
<text text-anchor="start" x="13.5" y="-103.5" font-family="Helvetica,sans-Serif" font-size="10.00">+ accstar</text>
<text text-anchor="start" x="13.5" y="-92.5" font-family="Helvetica,sans-Serif" font-size="10.00">+ d</text>
<text text-anchor="start" x="13.5" y="-81.5" font-family="Helvetica,sans-Serif" font-size="10.00">and 15 more...</text>
<polyline fill="none" stroke="black" points="5.5,-74.5 150.5,-74.5 "/>
<text text-anchor="start" x="13.5" y="-62.5" font-family="Helvetica,sans-Serif" font-size="10.00">+ addStep()</text>
<text text-anchor="start" x="13.5" y="-51.5" font-family="Helvetica,sans-Serif" font-size="10.00">+ addStep()</text>
<text text-anchor="start" x="13.5" y="-40.5" font-family="Helvetica,sans-Serif" font-size="10.00">+ addStep()</text>
<text text-anchor="start" x="13.5" y="-29.5" font-family="Helvetica,sans-Serif" font-size="10.00">+ averaging()</text>
<text text-anchor="start" x="13.5" y="-18.5" font-family="Helvetica,sans-Serif" font-size="10.00">+ CNAB2()</text>
<text text-anchor="start" x="13.5" y="-7.5" font-family="Helvetica,sans-Serif" font-size="10.00">and 11 more...</text>
</a>
</g>
</g>
<!-- Node2 -->
<g id="node2" class="node">
<title>Node2</title>
<g id="a_node2"><a xlink:href="classFeel_1_1TimeSet.html" target="_top" xlink:title="Handles a set of time steps.">
<polygon fill="white" stroke="black" points="36.5,-204.5 36.5,-316.5 119.5,-316.5 119.5,-204.5 36.5,-204.5"/>
<text text-anchor="middle" x="78" y="-304.5" font-family="Helvetica,sans-Serif" font-size="10.00">Feel::TimeSet</text>
<polyline fill="none" stroke="black" points="36.5,-297.5 119.5,-297.5 "/>
<text text-anchor="middle" x="78" y="-285.5" font-family="Helvetica,sans-Serif" font-size="10.00"> </text>
<polyline fill="none" stroke="black" points="36.5,-278.5 119.5,-278.5 "/>
<text text-anchor="start" x="44.5" y="-266.5" font-family="Helvetica,sans-Serif" font-size="10.00">+ index()</text>
<text text-anchor="start" x="44.5" y="-255.5" font-family="Helvetica,sans-Serif" font-size="10.00">+ k()</text>
<text text-anchor="start" x="44.5" y="-244.5" font-family="Helvetica,sans-Serif" font-size="10.00">+ k()</text>
<text text-anchor="start" x="44.5" y="-233.5" font-family="Helvetica,sans-Serif" font-size="10.00">+ kprev()</text>
<text text-anchor="start" x="44.5" y="-222.5" font-family="Helvetica,sans-Serif" font-size="10.00">+ kprev()</text>
<text text-anchor="start" x="44.5" y="-211.5" font-family="Helvetica,sans-Serif" font-size="10.00">and 8 more...</text>
</a>
</g>
</g>
<!-- Node2&#45;&gt;Node1 -->
<g id="edge1" class="edge">
<title>Node2&#45;&gt;Node1</title>
<path fill="none" stroke="midnightblue" d="M78,-194.24C78,-185.54 78,-176.53 78,-167.59"/>
<polygon fill="none" stroke="midnightblue" points="74.5,-194.29 78,-204.29 81.5,-194.29 74.5,-194.29"/>
</g>
<!-- Node3 -->
<g id="node3" class="node">
<title>Node3</title>
<g id="a_node3"><a xlink:title="STL class.">
<polygon fill="white" stroke="#bfbfbf" points="0,-353.5 0,-410.5 156,-410.5 156,-353.5 0,-353.5"/>
<text text-anchor="middle" x="78" y="-398.5" font-family="Helvetica,sans-Serif" font-size="10.00">std::vector&lt; TimeStepInfo &gt;</text>
<polyline fill="none" stroke="#bfbfbf" points="0,-391.5 156,-391.5 "/>
<text text-anchor="start" x="8" y="-379.5" font-family="Helvetica,sans-Serif" font-size="10.00">+ elements</text>
<polyline fill="none" stroke="#bfbfbf" points="0,-372.5 156,-372.5 "/>
<text text-anchor="middle" x="78" y="-360.5" font-family="Helvetica,sans-Serif" font-size="10.00"> </text>
</a>
</g>
</g>
<!-- Node3&#45;&gt;Node2 -->
<g id="edge2" class="edge">
<title>Node3&#45;&gt;Node2</title>
<path fill="none" stroke="midnightblue" d="M78,-343.11C78,-334.75 78,-325.73 78,-316.83"/>
<polygon fill="none" stroke="midnightblue" points="74.5,-343.28 78,-353.28 81.5,-343.28 74.5,-343.28"/>
</g>
</g>
</svg>
