<?xml version="1.0" encoding="UTF-8" standalone="no"?>
<!DOCTYPE svg PUBLIC "-//W3C//DTD SVG 1.1//EN"
 "http://www.w3.org/Graphics/SVG/1.1/DTD/svg11.dtd">
<!-- Generated by graphviz version 2.43.0 (0)
 -->
<!-- Title: Feel::GinacExprManagerDefaultFileNameImpl Pages: 1 -->
<svg width="228pt" height="193pt"
 viewBox="0.00 0.00 227.50 193.00" xmlns="http://www.w3.org/2000/svg" xmlns:xlink="http://www.w3.org/1999/xlink">
<g id="graph0" class="graph" transform="scale(1 1) rotate(0) translate(4 189)">
<title>Feel::GinacExprManagerDefaultFileNameImpl</title>
<polygon fill="white" stroke="transparent" points="-4,4 -4,-189 223.5,-189 223.5,4 -4,4"/>
<!-- Node1 -->
<g id="node1" class="node">
<title>Node1</title>
<g id="a_node1"><a xlink:title=" ">
<polygon fill="#bfbfbf" stroke="black" points="34.5,-0.5 34.5,-68.5 205.5,-68.5 205.5,-0.5 34.5,-0.5"/>
<text text-anchor="start" x="42.5" y="-56.5" font-family="Helvetica,sans-Serif" font-size="10.00">Feel::GinacExprManagerDefault</text>
<text text-anchor="middle" x="120" y="-45.5" font-family="Helvetica,sans-Serif" font-size="10.00">FileNameImpl</text>
<polyline fill="none" stroke="black" points="34.5,-38.5 205.5,-38.5 "/>
<text text-anchor="middle" x="120" y="-26.5" font-family="Helvetica,sans-Serif" font-size="10.00"> </text>
<polyline fill="none" stroke="black" points="34.5,-19.5 205.5,-19.5 "/>
<text text-anchor="middle" x="120" y="-7.5" font-family="Helvetica,sans-Serif" font-size="10.00"> </text>
</a>
</g>
</g>
<!-- Node2 -->
<g id="node2" class="node">
<title>Node2</title>
<g id="a_node2"><a xlink:title="STL class.">
<polygon fill="white" stroke="#bfbfbf" points="0,-105.5 0,-184.5 122,-184.5 122,-105.5 0,-105.5"/>
<text text-anchor="start" x="8" y="-172.5" font-family="Helvetica,sans-Serif" font-size="10.00">std::map&lt; std::string,</text>
<text text-anchor="middle" x="61" y="-161.5" font-family="Helvetica,sans-Serif" font-size="10.00"> std::string &gt;</text>
<polyline fill="none" stroke="#bfbfbf" points="0,-154.5 122,-154.5 "/>
<text text-anchor="start" x="8" y="-142.5" font-family="Helvetica,sans-Serif" font-size="10.00">+ elements</text>
<text text-anchor="start" x="8" y="-131.5" font-family="Helvetica,sans-Serif" font-size="10.00">+ keys</text>
<polyline fill="none" stroke="#bfbfbf" points="0,-124.5 122,-124.5 "/>
<text text-anchor="middle" x="61" y="-112.5" font-family="Helvetica,sans-Serif" font-size="10.00"> </text>
</a>
</g>
</g>
<!-- Node2&#45;&gt;Node1 -->
<g id="edge1" class="edge">
<title>Node2&#45;&gt;Node1</title>
<path fill="none" stroke="midnightblue" d="M86.82,-96.52C91.95,-87.08 97.23,-77.37 102.03,-68.54"/>
<polygon fill="none" stroke="midnightblue" points="83.67,-94.98 81.97,-105.44 89.82,-98.33 83.67,-94.98"/>
</g>
<!-- Node3 -->
<g id="node3" class="node">
<title>Node3</title>
<g id="a_node3"><a xlink:title=" ">
<polygon fill="white" stroke="#bfbfbf" points="140.5,-116.5 140.5,-173.5 219.5,-173.5 219.5,-116.5 140.5,-116.5"/>
<text text-anchor="middle" x="180" y="-161.5" font-family="Helvetica,sans-Serif" font-size="10.00">noncopyable</text>
<polyline fill="none" stroke="#bfbfbf" points="140.5,-154.5 219.5,-154.5 "/>
<text text-anchor="middle" x="180" y="-142.5" font-family="Helvetica,sans-Serif" font-size="10.00"> </text>
<polyline fill="none" stroke="#bfbfbf" points="140.5,-135.5 219.5,-135.5 "/>
<text text-anchor="middle" x="180" y="-123.5" font-family="Helvetica,sans-Serif" font-size="10.00"> </text>
</a>
</g>
</g>
<!-- Node3&#45;&gt;Node1 -->
<g id="edge2" class="edge">
<title>Node3&#45;&gt;Node1</title>
<path fill="none" stroke="midnightblue" d="M159.79,-107.46C152.83,-94.86 145.06,-80.82 138.26,-68.52"/>
<polygon fill="none" stroke="midnightblue" points="156.8,-109.28 164.7,-116.34 162.93,-105.9 156.8,-109.28"/>
</g>
</g>
</svg>
