<?xml version="1.0" encoding="UTF-8" standalone="no"?>
<!DOCTYPE svg PUBLIC "-//W3C//DTD SVG 1.1//EN"
 "http://www.w3.org/Graphics/SVG/1.1/DTD/svg11.dtd">
<!-- Generated by graphviz version 2.43.0 (0)
 -->
<!-- Title: Feel::GeoElement0D&lt; Dim, SubFace, T, IndexT &gt; Pages: 1 -->
<svg width="1917pt" height="1462pt"
 viewBox="0.00 0.00 1917.21 1462.00" xmlns="http://www.w3.org/2000/svg" xmlns:xlink="http://www.w3.org/1999/xlink">
<g id="graph0" class="graph" transform="scale(1 1) rotate(0) translate(4 1458)">
<title>Feel::GeoElement0D&lt; Dim, SubFace, T, IndexT &gt;</title>
<polygon fill="white" stroke="transparent" points="-4,4 -4,-1458 1913.21,-1458 1913.21,4 -4,4"/>
<!-- Node1 -->
<g id="node1" class="node">
<title>Node1</title>
<g id="a_node1"><a xlink:title="Class for Points and Vertices.">
<polygon fill="#bfbfbf" stroke="black" points="1613.21,-0.5 1613.21,-123.5 1775.21,-123.5 1775.21,-0.5 1613.21,-0.5"/>
<text text-anchor="start" x="1621.21" y="-111.5" font-family="Helvetica,sans-Serif" font-size="10.00">Feel::GeoElement0D</text>
<text text-anchor="middle" x="1694.21" y="-100.5" font-family="Helvetica,sans-Serif" font-size="10.00">&lt; Dim, SubFace, T, IndexT &gt;</text>
<polyline fill="none" stroke="black" points="1613.21,-93.5 1775.21,-93.5 "/>
<text text-anchor="middle" x="1694.21" y="-81.5" font-family="Helvetica,sans-Serif" font-size="10.00"> </text>
<polyline fill="none" stroke="black" points="1613.21,-74.5 1775.21,-74.5 "/>
<text text-anchor="start" x="1621.21" y="-62.5" font-family="Helvetica,sans-Serif" font-size="10.00">+ boundaryEntityDimension()</text>
<text text-anchor="start" x="1621.21" y="-51.5" font-family="Helvetica,sans-Serif" font-size="10.00">+ G()</text>
<text text-anchor="start" x="1621.21" y="-40.5" font-family="Helvetica,sans-Serif" font-size="10.00">+ GeoElement0D()</text>
<text text-anchor="start" x="1621.21" y="-29.5" font-family="Helvetica,sans-Serif" font-size="10.00">+ GeoElement0D()</text>
<text text-anchor="start" x="1621.21" y="-18.5" font-family="Helvetica,sans-Serif" font-size="10.00">+ GeoElement0D()</text>
<text text-anchor="start" x="1621.21" y="-7.5" font-family="Helvetica,sans-Serif" font-size="10.00">and 23 more...</text>
</a>
</g>
</g>
<!-- Node2 -->
<g id="node2" class="node">
<title>Node2</title>
<g id="a_node2"><a xlink:href="classFeel_1_1Geo0D.html" target="_top" xlink:title=" ">
<polygon fill="white" stroke="black" points="1106.71,-161.5 1106.71,-284.5 1255.71,-284.5 1255.71,-161.5 1106.71,-161.5"/>
<text text-anchor="start" x="1114.71" y="-272.5" font-family="Helvetica,sans-Serif" font-size="10.00">Feel::Geo0D&lt; Dim, double,</text>
<text text-anchor="middle" x="1181.21" y="-261.5" font-family="Helvetica,sans-Serif" font-size="10.00"> uint32_type &gt;</text>
<polyline fill="none" stroke="black" points="1106.71,-254.5 1255.71,-254.5 "/>
<text text-anchor="middle" x="1181.21" y="-242.5" font-family="Helvetica,sans-Serif" font-size="10.00"> </text>
<polyline fill="none" stroke="black" points="1106.71,-235.5 1255.71,-235.5 "/>
<text text-anchor="start" x="1114.71" y="-223.5" font-family="Helvetica,sans-Serif" font-size="10.00">+ G()</text>
<text text-anchor="start" x="1114.71" y="-212.5" font-family="Helvetica,sans-Serif" font-size="10.00">+ gDim()</text>
<text text-anchor="start" x="1114.71" y="-201.5" font-family="Helvetica,sans-Serif" font-size="10.00">+ Geo0D()</text>
<text text-anchor="start" x="1114.71" y="-190.5" font-family="Helvetica,sans-Serif" font-size="10.00">+ Geo0D()</text>
<text text-anchor="start" x="1114.71" y="-179.5" font-family="Helvetica,sans-Serif" font-size="10.00">+ Geo0D()</text>
<text text-anchor="start" x="1114.71" y="-168.5" font-family="Helvetica,sans-Serif" font-size="10.00">and 46 more...</text>
</a>
</g>
</g>
<!-- Node2&#45;&gt;Node1 -->
<g id="edge1" class="edge">
<title>Node2&#45;&gt;Node1</title>
<path fill="none" stroke="midnightblue" d="M1265.51,-195.87C1361.8,-166.03 1518.26,-117.53 1613.17,-88.12"/>
<polygon fill="none" stroke="midnightblue" points="1264.32,-192.58 1255.8,-198.88 1266.39,-199.26 1264.32,-192.58"/>
</g>
<!-- Node3 -->
<g id="node3" class="node">
<title>Node3</title>
<g id="a_node3"><a xlink:title=" ">
<polygon fill="white" stroke="#bfbfbf" points="1104.21,-515 1104.21,-583 1258.21,-583 1258.21,-515 1104.21,-515"/>
<text text-anchor="start" x="1112.21" y="-571" font-family="Helvetica,sans-Serif" font-size="10.00">boost::equality_comparable</text>
<text text-anchor="middle" x="1181.21" y="-560" font-family="Helvetica,sans-Serif" font-size="10.00">&lt; Geo0D&lt; Dim, double &gt; &gt;</text>
<polyline fill="none" stroke="#bfbfbf" points="1104.21,-553 1258.21,-553 "/>
<text text-anchor="middle" x="1181.21" y="-541" font-family="Helvetica,sans-Serif" font-size="10.00"> </text>
<polyline fill="none" stroke="#bfbfbf" points="1104.21,-534 1258.21,-534 "/>
<text text-anchor="middle" x="1181.21" y="-522" font-family="Helvetica,sans-Serif" font-size="10.00"> </text>
</a>
</g>
</g>
<!-- Node3&#45;&gt;Node2 -->
<g id="edge2" class="edge">
<title>Node3&#45;&gt;Node2</title>
<path fill="none" stroke="midnightblue" d="M1181.21,-504.8C1181.21,-448.21 1181.21,-348.67 1181.21,-284.57"/>
<polygon fill="none" stroke="midnightblue" points="1177.71,-504.85 1181.21,-514.85 1184.71,-504.85 1177.71,-504.85"/>
</g>
<!-- Node4 -->
<g id="node4" class="node">
<title>Node4</title>
<g id="a_node4"><a xlink:title=" ">
<polygon fill="white" stroke="#bfbfbf" points="1276.71,-515 1276.71,-583 1435.71,-583 1435.71,-515 1276.71,-515"/>
<text text-anchor="start" x="1284.71" y="-571" font-family="Helvetica,sans-Serif" font-size="10.00">boost::less_than_comparable</text>
<text text-anchor="middle" x="1356.21" y="-560" font-family="Helvetica,sans-Serif" font-size="10.00">&lt; Geo0D&lt; Dim, double &gt; &gt;</text>
<polyline fill="none" stroke="#bfbfbf" points="1276.71,-553 1435.71,-553 "/>
<text text-anchor="middle" x="1356.21" y="-541" font-family="Helvetica,sans-Serif" font-size="10.00"> </text>
<polyline fill="none" stroke="#bfbfbf" points="1276.71,-534 1435.71,-534 "/>
<text text-anchor="middle" x="1356.21" y="-522" font-family="Helvetica,sans-Serif" font-size="10.00"> </text>
</a>
</g>
</g>
<!-- Node4&#45;&gt;Node2 -->
<g id="edge3" class="edge">
<title>Node4&#45;&gt;Node2</title>
<path fill="none" stroke="midnightblue" d="M1344.17,-505.06C1329.91,-458.02 1303.42,-381.36 1267.21,-322 1259.43,-309.25 1249.94,-296.55 1240.15,-284.74"/>
<polygon fill="none" stroke="midnightblue" points="1340.9,-506.34 1347.12,-514.92 1347.61,-504.34 1340.9,-506.34"/>
</g>
<!-- Node5 -->
<g id="node5" class="node">
<title>Node5</title>
<g id="a_node5"><a xlink:title=" ">
<polygon fill="white" stroke="#bfbfbf" points="1453.71,-509.5 1453.71,-588.5 1612.71,-588.5 1612.71,-509.5 1453.71,-509.5"/>
<text text-anchor="start" x="1461.71" y="-576.5" font-family="Helvetica,sans-Serif" font-size="10.00">boost::less_than_comparable</text>
<text text-anchor="start" x="1461.71" y="-565.5" font-family="Helvetica,sans-Serif" font-size="10.00">&lt; Geo0D&lt; Dim, double &gt;,</text>
<text text-anchor="middle" x="1533.21" y="-554.5" font-family="Helvetica,sans-Serif" font-size="10.00"> uint32_type &gt;</text>
<polyline fill="none" stroke="#bfbfbf" points="1453.71,-547.5 1612.71,-547.5 "/>
<text text-anchor="middle" x="1533.21" y="-535.5" font-family="Helvetica,sans-Serif" font-size="10.00"> </text>
<polyline fill="none" stroke="#bfbfbf" points="1453.71,-528.5 1612.71,-528.5 "/>
<text text-anchor="middle" x="1533.21" y="-516.5" font-family="Helvetica,sans-Serif" font-size="10.00"> </text>
</a>
</g>
</g>
<!-- Node5&#45;&gt;Node2 -->
<g id="edge4" class="edge">
<title>Node5&#45;&gt;Node2</title>
<path fill="none" stroke="midnightblue" d="M1526.13,-499.05C1516.36,-448.4 1494.06,-370.08 1445.21,-322 1393.9,-271.5 1314.27,-246.67 1255.88,-234.69"/>
<polygon fill="none" stroke="midnightblue" points="1522.73,-499.91 1527.98,-509.11 1529.62,-498.64 1522.73,-499.91"/>
</g>
<!-- Node6 -->
<g id="node6" class="node">
<title>Node6</title>
<g id="a_node6"><a xlink:href="classFeel_1_1GeoEntity.html" target="_top" xlink:title=" ">
<polygon fill="white" stroke="black" points="471.21,-322.5 471.21,-775.5 659.21,-775.5 659.21,-322.5 471.21,-322.5"/>
<text text-anchor="start" x="479.21" y="-763.5" font-family="Helvetica,sans-Serif" font-size="10.00">Feel::GeoEntity&lt; Simplex</text>
<text text-anchor="start" x="479.21" y="-752.5" font-family="Helvetica,sans-Serif" font-size="10.00">&lt; 0, 1, Dim &gt;, double,</text>
<text text-anchor="middle" x="565.21" y="-741.5" font-family="Helvetica,sans-Serif" font-size="10.00"> uint32_type &gt;</text>
<polyline fill="none" stroke="black" points="471.21,-734.5 659.21,-734.5 "/>
<text text-anchor="middle" x="565.21" y="-722.5" font-family="Helvetica,sans-Serif" font-size="10.00"> </text>
<polyline fill="none" stroke="black" points="471.21,-715.5 659.21,-715.5 "/>
<text text-anchor="start" x="479.21" y="-703.5" font-family="Helvetica,sans-Serif" font-size="10.00">* super</text>
<text text-anchor="start" x="479.21" y="-692.5" font-family="Helvetica,sans-Serif" font-size="10.00">* GeoShape</text>
<text text-anchor="start" x="479.21" y="-681.5" font-family="Helvetica,sans-Serif" font-size="10.00">* self_type</text>
<text text-anchor="start" x="479.21" y="-670.5" font-family="Helvetica,sans-Serif" font-size="10.00">* value_type</text>
<text text-anchor="start" x="479.21" y="-659.5" font-family="Helvetica,sans-Serif" font-size="10.00">* index_type</text>
<text text-anchor="start" x="479.21" y="-648.5" font-family="Helvetica,sans-Serif" font-size="10.00">and 12 more...</text>
<text text-anchor="start" x="479.21" y="-637.5" font-family="Helvetica,sans-Serif" font-size="10.00">* boost::serialization</text>
<text text-anchor="start" x="479.21" y="-626.5" font-family="Helvetica,sans-Serif" font-size="10.00">::access</text>
<text text-anchor="start" x="479.21" y="-615.5" font-family="Helvetica,sans-Serif" font-size="10.00">* M_id</text>
<text text-anchor="start" x="479.21" y="-604.5" font-family="Helvetica,sans-Serif" font-size="10.00">* M_entity</text>
<text text-anchor="start" x="479.21" y="-593.5" font-family="Helvetica,sans-Serif" font-size="10.00">* M_boundaryEntityDimension</text>
<text text-anchor="start" x="479.21" y="-582.5" font-family="Helvetica,sans-Serif" font-size="10.00">* M_pid</text>
<text text-anchor="start" x="479.21" y="-571.5" font-family="Helvetica,sans-Serif" font-size="10.00">and 41 more...</text>
<text text-anchor="start" x="479.21" y="-560.5" font-family="Helvetica,sans-Serif" font-size="10.00">* GeoEntity()</text>
<text text-anchor="start" x="479.21" y="-549.5" font-family="Helvetica,sans-Serif" font-size="10.00">* GeoEntity()</text>
<text text-anchor="start" x="479.21" y="-538.5" font-family="Helvetica,sans-Serif" font-size="10.00">* GeoEntity()</text>
<text text-anchor="start" x="479.21" y="-527.5" font-family="Helvetica,sans-Serif" font-size="10.00">* GeoEntity()</text>
<text text-anchor="start" x="479.21" y="-516.5" font-family="Helvetica,sans-Serif" font-size="10.00">* operator=()</text>
<text text-anchor="start" x="479.21" y="-505.5" font-family="Helvetica,sans-Serif" font-size="10.00">* operator=()</text>
<text text-anchor="start" x="479.21" y="-494.5" font-family="Helvetica,sans-Serif" font-size="10.00">* ~GeoEntity()</text>
<text text-anchor="start" x="479.21" y="-483.5" font-family="Helvetica,sans-Serif" font-size="10.00">* operator==()</text>
<text text-anchor="start" x="479.21" y="-472.5" font-family="Helvetica,sans-Serif" font-size="10.00">* operator&lt;()</text>
<text text-anchor="start" x="479.21" y="-461.5" font-family="Helvetica,sans-Serif" font-size="10.00">* operator&lt;()</text>
<text text-anchor="start" x="479.21" y="-450.5" font-family="Helvetica,sans-Serif" font-size="10.00">* id()</text>
<text text-anchor="start" x="479.21" y="-439.5" font-family="Helvetica,sans-Serif" font-size="10.00">* refDim()</text>
<text text-anchor="start" x="479.21" y="-428.5" font-family="Helvetica,sans-Serif" font-size="10.00">* nPoints()</text>
<text text-anchor="start" x="479.21" y="-417.5" font-family="Helvetica,sans-Serif" font-size="10.00">* nVertices()</text>
<text text-anchor="start" x="479.21" y="-406.5" font-family="Helvetica,sans-Serif" font-size="10.00">* nEdges()</text>
<text text-anchor="start" x="479.21" y="-395.5" font-family="Helvetica,sans-Serif" font-size="10.00">and 42 more...</text>
<text text-anchor="start" x="479.21" y="-384.5" font-family="Helvetica,sans-Serif" font-size="10.00">* setId()</text>
<text text-anchor="start" x="479.21" y="-373.5" font-family="Helvetica,sans-Serif" font-size="10.00">* setOnBoundary()</text>
<text text-anchor="start" x="479.21" y="-362.5" font-family="Helvetica,sans-Serif" font-size="10.00">* setNumberOfPartitions()</text>
<text text-anchor="start" x="479.21" y="-351.5" font-family="Helvetica,sans-Serif" font-size="10.00">* setNumberOfNeighborPartitions()</text>
<text text-anchor="start" x="479.21" y="-340.5" font-family="Helvetica,sans-Serif" font-size="10.00">* setNeighborPartitionIds()</text>
<text text-anchor="start" x="479.21" y="-329.5" font-family="Helvetica,sans-Serif" font-size="10.00">* addNeighborPartitionId()</text>
</a>
</g>
</g>
<!-- Node6&#45;&gt;Node2 -->
<g id="edge5" class="edge">
<title>Node6&#45;&gt;Node2</title>
<path fill="none" stroke="midnightblue" d="M668.19,-492.12C760.97,-441.99 901.27,-366.73 1024.21,-303 1050.89,-289.17 1080.28,-274.28 1106.35,-261.21"/>
<polygon fill="none" stroke="midnightblue" points="666.49,-489.06 659.36,-496.89 669.82,-495.22 666.49,-489.06"/>
</g>
<!-- Node7 -->
<g id="node7" class="node">
<title>Node7</title>
<g id="a_node7"><a xlink:title=" ">
<polygon fill="white" stroke="#bfbfbf" points="231.21,-900.5 231.21,-990.5 383.21,-990.5 383.21,-900.5 231.21,-900.5"/>
<text text-anchor="start" x="239.21" y="-978.5" font-family="Helvetica,sans-Serif" font-size="10.00">boost::equality_comparable</text>
<text text-anchor="start" x="239.21" y="-967.5" font-family="Helvetica,sans-Serif" font-size="10.00">&lt; GeoEntity&lt; Simplex&lt; 0,</text>
<text text-anchor="start" x="239.21" y="-956.5" font-family="Helvetica,sans-Serif" font-size="10.00"> 1, Dim &gt;, double, uint32</text>
<text text-anchor="middle" x="307.21" y="-945.5" font-family="Helvetica,sans-Serif" font-size="10.00">_type &gt; &gt;</text>
<polyline fill="none" stroke="#bfbfbf" points="231.21,-938.5 383.21,-938.5 "/>
<text text-anchor="middle" x="307.21" y="-926.5" font-family="Helvetica,sans-Serif" font-size="10.00"> </text>
<polyline fill="none" stroke="#bfbfbf" points="231.21,-919.5 383.21,-919.5 "/>
<text text-anchor="middle" x="307.21" y="-907.5" font-family="Helvetica,sans-Serif" font-size="10.00"> </text>
</a>
</g>
</g>
<!-- Node7&#45;&gt;Node6 -->
<g id="edge6" class="edge">
<title>Node7&#45;&gt;Node6</title>
<path fill="none" stroke="#8b1a1a" d="M341.59,-891.93C374.55,-841.53 425.84,-763.11 470.98,-694.08"/>
<polygon fill="none" stroke="#8b1a1a" points="338.6,-890.11 336.05,-900.39 344.46,-893.94 338.6,-890.11"/>
</g>
<!-- Node8 -->
<g id="node8" class="node">
<title>Node8</title>
<g id="a_node8"><a xlink:title=" ">
<polygon fill="white" stroke="#bfbfbf" points="401.71,-900.5 401.71,-990.5 560.71,-990.5 560.71,-900.5 401.71,-900.5"/>
<text text-anchor="start" x="409.71" y="-978.5" font-family="Helvetica,sans-Serif" font-size="10.00">boost::less_than_comparable</text>
<text text-anchor="start" x="409.71" y="-967.5" font-family="Helvetica,sans-Serif" font-size="10.00">&lt; GeoEntity&lt; Simplex&lt; 0,</text>
<text text-anchor="start" x="409.71" y="-956.5" font-family="Helvetica,sans-Serif" font-size="10.00"> 1, Dim &gt;, double, uint32</text>
<text text-anchor="middle" x="481.21" y="-945.5" font-family="Helvetica,sans-Serif" font-size="10.00">_type &gt; &gt;</text>
<polyline fill="none" stroke="#bfbfbf" points="401.71,-938.5 560.71,-938.5 "/>
<text text-anchor="middle" x="481.21" y="-926.5" font-family="Helvetica,sans-Serif" font-size="10.00"> </text>
<polyline fill="none" stroke="#bfbfbf" points="401.71,-919.5 560.71,-919.5 "/>
<text text-anchor="middle" x="481.21" y="-907.5" font-family="Helvetica,sans-Serif" font-size="10.00"> </text>
</a>
</g>
</g>
<!-- Node8&#45;&gt;Node6 -->
<g id="edge7" class="edge">
<title>Node8&#45;&gt;Node6</title>
<path fill="none" stroke="#8b1a1a" d="M492.74,-890.33C499.31,-859.49 508.03,-818.55 517.13,-775.78"/>
<polygon fill="none" stroke="#8b1a1a" points="489.26,-889.88 490.6,-900.39 496.11,-891.34 489.26,-889.88"/>
</g>
<!-- Node9 -->
<g id="node9" class="node">
<title>Node9</title>
<g id="a_node9"><a xlink:title=" ">
<polygon fill="white" stroke="#bfbfbf" points="739.71,-900.5 739.71,-990.5 898.71,-990.5 898.71,-900.5 739.71,-900.5"/>
<text text-anchor="start" x="747.71" y="-978.5" font-family="Helvetica,sans-Serif" font-size="10.00">boost::less_than_comparable</text>
<text text-anchor="start" x="747.71" y="-967.5" font-family="Helvetica,sans-Serif" font-size="10.00">&lt; GeoEntity&lt; Simplex&lt; 0,</text>
<text text-anchor="start" x="747.71" y="-956.5" font-family="Helvetica,sans-Serif" font-size="10.00"> 1, Dim &gt;, double, uint32</text>
<text text-anchor="middle" x="819.21" y="-945.5" font-family="Helvetica,sans-Serif" font-size="10.00">_type &gt;, uint32_type &gt;</text>
<polyline fill="none" stroke="#bfbfbf" points="739.71,-938.5 898.71,-938.5 "/>
<text text-anchor="middle" x="819.21" y="-926.5" font-family="Helvetica,sans-Serif" font-size="10.00"> </text>
<polyline fill="none" stroke="#bfbfbf" points="739.71,-919.5 898.71,-919.5 "/>
<text text-anchor="middle" x="819.21" y="-907.5" font-family="Helvetica,sans-Serif" font-size="10.00"> </text>
</a>
</g>
</g>
<!-- Node9&#45;&gt;Node6 -->
<g id="edge8" class="edge">
<title>Node9&#45;&gt;Node6</title>
<path fill="none" stroke="#8b1a1a" d="M785.22,-891.71C753.11,-841.84 703.43,-764.68 659.4,-696.29"/>
<polygon fill="none" stroke="#8b1a1a" points="782.45,-893.88 790.81,-900.39 788.34,-890.09 782.45,-893.88"/>
</g>
<!-- Node10 -->
<g id="node10" class="node">
<title>Node10</title>
<g id="a_node10"><a xlink:href="classFeel_1_1Simplex.html" target="_top" xlink:title=" ">
<polygon fill="white" stroke="black" points="579.21,-845.5 579.21,-1045.5 721.21,-1045.5 721.21,-845.5 579.21,-845.5"/>
<text text-anchor="start" x="587.21" y="-1033.5" font-family="Helvetica,sans-Serif" font-size="10.00">Feel::Simplex&lt; 0, 1,</text>
<text text-anchor="middle" x="650.21" y="-1022.5" font-family="Helvetica,sans-Serif" font-size="10.00"> Dim &gt;</text>
<polyline fill="none" stroke="black" points="579.21,-1015.5 721.21,-1015.5 "/>
<text text-anchor="start" x="587.21" y="-1003.5" font-family="Helvetica,sans-Serif" font-size="10.00">+ nbPtsPerVertex</text>
<polyline fill="none" stroke="black" points="579.21,-996.5 721.21,-996.5 "/>
<text text-anchor="start" x="587.21" y="-984.5" font-family="Helvetica,sans-Serif" font-size="10.00">+ dimension()</text>
<text text-anchor="start" x="587.21" y="-973.5" font-family="Helvetica,sans-Serif" font-size="10.00">+ operator=()</text>
<text text-anchor="start" x="587.21" y="-962.5" font-family="Helvetica,sans-Serif" font-size="10.00">+ operator=()</text>
<text text-anchor="start" x="587.21" y="-951.5" font-family="Helvetica,sans-Serif" font-size="10.00">+ Simplex()</text>
<text text-anchor="start" x="587.21" y="-940.5" font-family="Helvetica,sans-Serif" font-size="10.00">+ Simplex()</text>
<text text-anchor="start" x="587.21" y="-929.5" font-family="Helvetica,sans-Serif" font-size="10.00">+ Simplex()</text>
<text text-anchor="start" x="587.21" y="-918.5" font-family="Helvetica,sans-Serif" font-size="10.00">+ topologicalDimension()</text>
<text text-anchor="start" x="587.21" y="-907.5" font-family="Helvetica,sans-Serif" font-size="10.00">+ e2p()</text>
<text text-anchor="start" x="587.21" y="-896.5" font-family="Helvetica,sans-Serif" font-size="10.00">+ f2e()</text>
<text text-anchor="start" x="587.21" y="-885.5" font-family="Helvetica,sans-Serif" font-size="10.00">+ f2eLoc()</text>
<text text-anchor="start" x="587.21" y="-874.5" font-family="Helvetica,sans-Serif" font-size="10.00">+ f2p()</text>
<text text-anchor="start" x="587.21" y="-863.5" font-family="Helvetica,sans-Serif" font-size="10.00">+ getShape()</text>
<text text-anchor="start" x="587.21" y="-852.5" font-family="Helvetica,sans-Serif" font-size="10.00">and 12 more...</text>
</a>
</g>
</g>
<!-- Node10&#45;&gt;Node6 -->
<g id="edge9" class="edge">
<title>Node10&#45;&gt;Node6</title>
<path fill="none" stroke="midnightblue" d="M626.76,-835.67C622.67,-816.7 618.29,-796.35 613.81,-775.57"/>
<polygon fill="none" stroke="midnightblue" points="623.34,-836.42 628.87,-845.46 630.18,-834.95 623.34,-836.42"/>
</g>
<!-- Node11 -->
<g id="node11" class="node">
<title>Node11</title>
<g id="a_node11"><a xlink:href="classFeel_1_1Convex.html" target="_top" xlink:title="Convex base class.">
<polygon fill="white" stroke="black" points="348.21,-1216 348.21,-1317 462.21,-1317 462.21,-1216 348.21,-1216"/>
<text text-anchor="start" x="356.21" y="-1305" font-family="Helvetica,sans-Serif" font-size="10.00">Feel::Convex&lt; Dim,</text>
<text text-anchor="middle" x="405.21" y="-1294" font-family="Helvetica,sans-Serif" font-size="10.00"> Order, RDim &gt;</text>
<polyline fill="none" stroke="black" points="348.21,-1287 462.21,-1287 "/>
<text text-anchor="middle" x="405.21" y="-1275" font-family="Helvetica,sans-Serif" font-size="10.00"> </text>
<polyline fill="none" stroke="black" points="348.21,-1268 462.21,-1268 "/>
<text text-anchor="start" x="356.21" y="-1256" font-family="Helvetica,sans-Serif" font-size="10.00">* Convex()</text>
<text text-anchor="start" x="356.21" y="-1245" font-family="Helvetica,sans-Serif" font-size="10.00">* Convex()</text>
<text text-anchor="start" x="356.21" y="-1234" font-family="Helvetica,sans-Serif" font-size="10.00">* ~Convex()</text>
<text text-anchor="start" x="356.21" y="-1223" font-family="Helvetica,sans-Serif" font-size="10.00">* operator=()</text>
</a>
</g>
</g>
<!-- Node11&#45;&gt;Node10 -->
<g id="edge10" class="edge">
<title>Node11&#45;&gt;Node10</title>
<path fill="none" stroke="midnightblue" d="M418.58,-1206.04C431.82,-1160.69 456.61,-1100.05 500.21,-1064 524.96,-1043.53 543.21,-1063.41 570.21,-1046 573.19,-1044.08 576.11,-1042.01 578.97,-1039.82"/>
<polygon fill="none" stroke="midnightblue" points="415.18,-1205.19 415.85,-1215.76 421.92,-1207.08 415.18,-1205.19"/>
</g>
<!-- Node12 -->
<g id="node12" class="node">
<title>Node12</title>
<g id="a_node12"><a xlink:href="classFeel_1_1ConvexBase.html" target="_top" xlink:title=" ">
<polygon fill="white" stroke="black" points="353.21,-1396.5 353.21,-1453.5 457.21,-1453.5 457.21,-1396.5 353.21,-1396.5"/>
<text text-anchor="middle" x="405.21" y="-1441.5" font-family="Helvetica,sans-Serif" font-size="10.00">Feel::ConvexBase</text>
<polyline fill="none" stroke="black" points="353.21,-1434.5 457.21,-1434.5 "/>
<text text-anchor="middle" x="405.21" y="-1422.5" font-family="Helvetica,sans-Serif" font-size="10.00"> </text>
<polyline fill="none" stroke="black" points="353.21,-1415.5 457.21,-1415.5 "/>
<text text-anchor="middle" x="405.21" y="-1403.5" font-family="Helvetica,sans-Serif" font-size="10.00"> </text>
</a>
</g>
</g>
<!-- Node12&#45;&gt;Node11 -->
<g id="edge11" class="edge">
<title>Node12&#45;&gt;Node11</title>
<path fill="none" stroke="midnightblue" d="M405.21,-1386.37C405.21,-1365.65 405.21,-1339.67 405.21,-1317.29"/>
<polygon fill="none" stroke="midnightblue" points="401.71,-1386.38 405.21,-1396.38 408.71,-1386.38 401.71,-1386.38"/>
</g>
<!-- Node13 -->
<g id="node13" class="node">
<title>Node13</title>
<g id="a_node13"><a xlink:title=" ">
<polygon fill="white" stroke="#bfbfbf" points="861.21,-1396.5 861.21,-1453.5 995.21,-1453.5 995.21,-1396.5 861.21,-1396.5"/>
<text text-anchor="middle" x="928.21" y="-1441.5" font-family="Helvetica,sans-Serif" font-size="10.00">static const uint16_type</text>
<polyline fill="none" stroke="#bfbfbf" points="861.21,-1434.5 995.21,-1434.5 "/>
<text text-anchor="middle" x="928.21" y="-1422.5" font-family="Helvetica,sans-Serif" font-size="10.00"> </text>
<polyline fill="none" stroke="#bfbfbf" points="861.21,-1415.5 995.21,-1415.5 "/>
<text text-anchor="middle" x="928.21" y="-1403.5" font-family="Helvetica,sans-Serif" font-size="10.00"> </text>
</a>
</g>
</g>
<!-- Node13&#45;&gt;Node1 -->
<g id="edge26" class="edge">
<title>Node13&#45;&gt;Node1</title>
<path fill="none" stroke="#404040" d="M995.35,-1418.15C1189.89,-1400.3 1740.21,-1343.14 1740.21,-1267.5 1740.21,-1267.5 1740.21,-1267.5 1740.21,-222 1740.21,-192.96 1733.04,-162.08 1724.37,-135.32"/>
<polygon fill="none" stroke="#404040" points="1724.29,-135.1 1718.57,-130.71 1720.43,-123.74 1726.15,-128.14 1724.29,-135.1"/>
<text text-anchor="middle" x="1788.21" y="-819" font-family="Helvetica,sans-Serif" font-size="10.00"> +nDim</text>
<text text-anchor="middle" x="1788.21" y="-808" font-family="Helvetica,sans-Serif" font-size="10.00">+numLocalVertices</text>
<text text-anchor="middle" x="1788.21" y="-797" font-family="Helvetica,sans-Serif" font-size="10.00">+nRealDim</text>
</g>
<!-- Node13&#45;&gt;Node2 -->
<g id="edge22" class="edge">
<title>Node13&#45;&gt;Node2</title>
<path fill="none" stroke="#404040" d="M983.68,-1396.45C1010.37,-1380.12 1040.02,-1356.76 1056.21,-1327 1162.67,-1131.24 1084.54,-1049.66 1093.21,-827 1101.94,-602.72 1015.7,-531.89 1095.21,-322 1098.81,-312.49 1103.8,-303.3 1109.57,-294.61"/>
<polygon fill="none" stroke="#404040" points="1109.71,-294.42 1109.93,-287.21 1116.67,-284.65 1116.45,-291.86 1109.71,-294.42"/>
<text text-anchor="middle" x="1126.21" y="-943" font-family="Helvetica,sans-Serif" font-size="10.00"> +nDim</text>
</g>
<!-- Node13&#45;&gt;Node6 -->
<g id="edge19" class="edge">
<title>Node13&#45;&gt;Node6</title>
<path fill="none" stroke="#404040" d="M861,-1418.73C681.11,-1404.22 197.96,-1362.38 135.21,-1327 66.1,-1288.04 49.6,-1262.82 23.21,-1188 -38.86,-1012.03 28.96,-918.21 168.21,-794 257.42,-714.42 375.92,-645.41 460.17,-601.29"/>
<polygon fill="none" stroke="#404040" points="460.4,-601.17 463.88,-594.85 471.05,-595.63 467.57,-601.95 460.4,-601.17"/>
<text text-anchor="middle" x="79.71" y="-1178.5" font-family="Helvetica,sans-Serif" font-size="10.00"> +numPoints</text>
<text text-anchor="middle" x="79.71" y="-1167.5" font-family="Helvetica,sans-Serif" font-size="10.00">+nbPtsPerFace</text>
<text text-anchor="middle" x="79.71" y="-1156.5" font-family="Helvetica,sans-Serif" font-size="10.00">+nbPtsPerEdge</text>
<text text-anchor="middle" x="79.71" y="-1145.5" font-family="Helvetica,sans-Serif" font-size="10.00">+numNormals</text>
<text text-anchor="middle" x="79.71" y="-1134.5" font-family="Helvetica,sans-Serif" font-size="10.00">+nbPtsPerVolume</text>
<text text-anchor="middle" x="79.71" y="-1123.5" font-family="Helvetica,sans-Serif" font-size="10.00">+numEdges</text>
<text text-anchor="middle" x="79.71" y="-1112.5" font-family="Helvetica,sans-Serif" font-size="10.00">+nDim</text>
<text text-anchor="middle" x="79.71" y="-1101.5" font-family="Helvetica,sans-Serif" font-size="10.00">+numFaces</text>
<text text-anchor="middle" x="79.71" y="-1090.5" font-family="Helvetica,sans-Serif" font-size="10.00">+numTopologicalFaces</text>
<text text-anchor="middle" x="79.71" y="-1079.5" font-family="Helvetica,sans-Serif" font-size="10.00">+numGeometricFaces</text>
<text text-anchor="middle" x="79.71" y="-1068.5" font-family="Helvetica,sans-Serif" font-size="10.00">...</text>
</g>
<!-- Node13&#45;&gt;Node10 -->
<g id="edge16" class="edge">
<title>Node13&#45;&gt;Node10</title>
<path fill="none" stroke="#404040" d="M860.87,-1404.6C820.72,-1389.66 771.93,-1365.01 742.21,-1327 733.71,-1316.13 698.97,-1165.91 674.7,-1057.52"/>
<polygon fill="none" stroke="#404040" points="674.63,-1057.23 669.42,-1052.24 672.01,-1045.52 677.23,-1050.5 674.63,-1057.23"/>
<text text-anchor="middle" x="801.71" y="-1319" font-family="Helvetica,sans-Serif" font-size="10.00"> +numPoints</text>
<text text-anchor="middle" x="801.71" y="-1308" font-family="Helvetica,sans-Serif" font-size="10.00">+nbPtsPerFace</text>
<text text-anchor="middle" x="801.71" y="-1297" font-family="Helvetica,sans-Serif" font-size="10.00">+nbPtsPerEdge</text>
<text text-anchor="middle" x="801.71" y="-1286" font-family="Helvetica,sans-Serif" font-size="10.00">+numNormals</text>
<text text-anchor="middle" x="801.71" y="-1275" font-family="Helvetica,sans-Serif" font-size="10.00">+nbPtsPerVolume</text>
<text text-anchor="middle" x="801.71" y="-1264" font-family="Helvetica,sans-Serif" font-size="10.00">+real_dimension</text>
<text text-anchor="middle" x="801.71" y="-1253" font-family="Helvetica,sans-Serif" font-size="10.00">+nDim</text>
<text text-anchor="middle" x="801.71" y="-1242" font-family="Helvetica,sans-Serif" font-size="10.00">+topological_dimension</text>
<text text-anchor="middle" x="801.71" y="-1231" font-family="Helvetica,sans-Serif" font-size="10.00">+nRealDim</text>
<text text-anchor="middle" x="801.71" y="-1220" font-family="Helvetica,sans-Serif" font-size="10.00">+nOrder</text>
<text text-anchor="middle" x="801.71" y="-1209" font-family="Helvetica,sans-Serif" font-size="10.00">...</text>
</g>
<!-- Node13&#45;&gt;Node11 -->
<g id="edge12" class="edge">
<title>Node13&#45;&gt;Node11</title>
<path fill="none" stroke="#404040" d="M861.16,-1421.43C768.51,-1415.37 598.5,-1395.05 472.21,-1327 470.37,-1326.01 468.55,-1324.96 466.73,-1323.86"/>
<polygon fill="none" stroke="#404040" points="466.5,-1323.71 459.29,-1323.73 456.5,-1317.07 463.72,-1317.06 466.5,-1323.71"/>
<text text-anchor="middle" x="617.71" y="-1370" font-family="Helvetica,sans-Serif" font-size="10.00"> +nDim</text>
<text text-anchor="middle" x="617.71" y="-1359" font-family="Helvetica,sans-Serif" font-size="10.00">+nRealDim</text>
<text text-anchor="middle" x="617.71" y="-1348" font-family="Helvetica,sans-Serif" font-size="10.00">+nOrder</text>
</g>
<!-- Node19 -->
<g id="node19" class="node">
<title>Node19</title>
<g id="a_node19"><a xlink:href="classFeel_1_1SubFaceOfNone.html" target="_top" xlink:title=" ">
<polygon fill="white" stroke="black" points="1767.21,-1064.5 1767.21,-1187.5 1909.21,-1187.5 1909.21,-1064.5 1767.21,-1064.5"/>
<text text-anchor="start" x="1775.21" y="-1175.5" font-family="Helvetica,sans-Serif" font-size="10.00">Feel::SubFaceOfNone</text>
<text text-anchor="middle" x="1838.21" y="-1164.5" font-family="Helvetica,sans-Serif" font-size="10.00">&lt; Dim &gt;</text>
<polyline fill="none" stroke="black" points="1767.21,-1157.5 1909.21,-1157.5 "/>
<text text-anchor="middle" x="1838.21" y="-1145.5" font-family="Helvetica,sans-Serif" font-size="10.00"> </text>
<polyline fill="none" stroke="black" points="1767.21,-1138.5 1909.21,-1138.5 "/>
<text text-anchor="start" x="1775.21" y="-1126.5" font-family="Helvetica,sans-Serif" font-size="10.00">+ element()</text>
<text text-anchor="start" x="1775.21" y="-1115.5" font-family="Helvetica,sans-Serif" font-size="10.00">+ isGhostFace()</text>
<text text-anchor="start" x="1775.21" y="-1104.5" font-family="Helvetica,sans-Serif" font-size="10.00">+ isInterProcessDomain()</text>
<text text-anchor="start" x="1775.21" y="-1093.5" font-family="Helvetica,sans-Serif" font-size="10.00">+ operator=()</text>
<text text-anchor="start" x="1775.21" y="-1082.5" font-family="Helvetica,sans-Serif" font-size="10.00">+ operator=()</text>
<text text-anchor="start" x="1775.21" y="-1071.5" font-family="Helvetica,sans-Serif" font-size="10.00">and 7 more...</text>
</a>
</g>
</g>
<!-- Node13&#45;&gt;Node19 -->
<g id="edge25" class="edge">
<title>Node13&#45;&gt;Node19</title>
<path fill="none" stroke="#404040" d="M995.48,-1424.52C1181.76,-1425.37 1694.55,-1423.52 1754.21,-1378 1808.78,-1336.36 1828.27,-1257.86 1835.03,-1199.69"/>
<polygon fill="none" stroke="#404040" points="1835.05,-1199.54 1831.69,-1193.16 1836.29,-1187.6 1839.65,-1193.99 1835.05,-1199.54"/>
<text text-anchor="middle" x="1804.21" y="-1359" font-family="Helvetica,sans-Serif" font-size="10.00"> +nDim</text>
</g>
<!-- Node14 -->
<g id="node14" class="node">
<title>Node14</title>
<g id="a_node14"><a xlink:href="classFeel_1_1SimplexBase.html" target="_top" xlink:title=" ">
<polygon fill="white" stroke="black" points="589.71,-1238 589.71,-1295 696.71,-1295 696.71,-1238 589.71,-1238"/>
<text text-anchor="middle" x="643.21" y="-1283" font-family="Helvetica,sans-Serif" font-size="10.00">Feel::SimplexBase</text>
<polyline fill="none" stroke="black" points="589.71,-1276 696.71,-1276 "/>
<text text-anchor="middle" x="643.21" y="-1264" font-family="Helvetica,sans-Serif" font-size="10.00"> </text>
<polyline fill="none" stroke="black" points="589.71,-1257 696.71,-1257 "/>
<text text-anchor="middle" x="643.21" y="-1245" font-family="Helvetica,sans-Serif" font-size="10.00"> </text>
</a>
</g>
</g>
<!-- Node14&#45;&gt;Node10 -->
<g id="edge13" class="edge">
<title>Node14&#45;&gt;Node10</title>
<path fill="none" stroke="#8b1a1a" d="M644.04,-1227.65C645.02,-1183.06 646.68,-1107.24 648.03,-1045.56"/>
<polygon fill="none" stroke="#8b1a1a" points="640.54,-1227.67 643.82,-1237.75 647.54,-1227.83 640.54,-1227.67"/>
</g>
<!-- Node15 -->
<g id="node15" class="node">
<title>Node15</title>
<g id="a_node15"><a xlink:href="classstatic_01constexpr_01int.html" target="_top" xlink:title=" ">
<polygon fill="white" stroke="black" points="870.21,-1238 870.21,-1295 980.21,-1295 980.21,-1238 870.21,-1238"/>
<text text-anchor="middle" x="925.21" y="-1283" font-family="Helvetica,sans-Serif" font-size="10.00">static constexpr int</text>
<polyline fill="none" stroke="black" points="870.21,-1276 980.21,-1276 "/>
<text text-anchor="middle" x="925.21" y="-1264" font-family="Helvetica,sans-Serif" font-size="10.00"> </text>
<polyline fill="none" stroke="black" points="870.21,-1257 980.21,-1257 "/>
<text text-anchor="middle" x="925.21" y="-1245" font-family="Helvetica,sans-Serif" font-size="10.00"> </text>
</a>
</g>
</g>
<!-- Node15&#45;&gt;Node10 -->
<g id="edge14" class="edge">
<title>Node15&#45;&gt;Node10</title>
<path fill="none" stroke="#404040" d="M899.65,-1237.99C887.53,-1226.48 872.21,-1213.96 856.21,-1206 822.02,-1189 799.04,-1215.16 772.21,-1188 732.7,-1148.01 772.31,-1114.31 747.21,-1064 742.43,-1054.42 738.14,-1054.15 731.21,-1046 730.5,-1045.16 729.79,-1044.33 729.07,-1043.48"/>
<polygon fill="none" stroke="#404040" points="729.07,-1043.48 722.14,-1041.47 721.34,-1034.3 728.26,-1036.31 729.07,-1043.48"/>
<text text-anchor="middle" x="796.71" y="-1129" font-family="Helvetica,sans-Serif" font-size="10.00"> +Shape</text>
<text text-anchor="middle" x="796.71" y="-1118" font-family="Helvetica,sans-Serif" font-size="10.00">+shape_v</text>
</g>
<!-- Node16 -->
<g id="node16" class="node">
<title>Node16</title>
<g id="a_node16"><a xlink:href="classstatic_01const_01int.html" target="_top" xlink:title=" ">
<polygon fill="white" stroke="black" points="480.71,-1238 480.71,-1295 569.71,-1295 569.71,-1238 480.71,-1238"/>
<text text-anchor="middle" x="525.21" y="-1283" font-family="Helvetica,sans-Serif" font-size="10.00">static const int</text>
<polyline fill="none" stroke="black" points="480.71,-1276 569.71,-1276 "/>
<text text-anchor="middle" x="525.21" y="-1264" font-family="Helvetica,sans-Serif" font-size="10.00"> </text>
<polyline fill="none" stroke="black" points="480.71,-1257 569.71,-1257 "/>
<text text-anchor="middle" x="525.21" y="-1245" font-family="Helvetica,sans-Serif" font-size="10.00"> </text>
</a>
</g>
</g>
<!-- Node16&#45;&gt;Node10 -->
<g id="edge15" class="edge">
<title>Node16&#45;&gt;Node10</title>
<path fill="none" stroke="#404040" d="M516.71,-1237.97C505.65,-1196.39 491.67,-1116.83 527.21,-1064 537.15,-1049.23 549.53,-1055.75 568.97,-1045.41"/>
<polygon fill="none" stroke="#404040" points="569.04,-1045.37 571.88,-1038.74 579.09,-1038.82 576.25,-1045.44 569.04,-1045.37"/>
<text text-anchor="middle" x="583.71" y="-1151" font-family="Helvetica,sans-Serif" font-size="10.00"> +numEdges</text>
<text text-anchor="middle" x="583.71" y="-1140" font-family="Helvetica,sans-Serif" font-size="10.00">+numFaces</text>
<text text-anchor="middle" x="583.71" y="-1129" font-family="Helvetica,sans-Serif" font-size="10.00">+numTopologicalFaces</text>
<text text-anchor="middle" x="583.71" y="-1118" font-family="Helvetica,sans-Serif" font-size="10.00">+numGeometricFaces</text>
<text text-anchor="middle" x="583.71" y="-1107" font-family="Helvetica,sans-Serif" font-size="10.00">+numVolumes</text>
<text text-anchor="middle" x="583.71" y="-1096" font-family="Helvetica,sans-Serif" font-size="10.00">+numVertices</text>
</g>
<!-- Node17 -->
<g id="node17" class="node">
<title>Node17</title>
<g id="a_node17"><a xlink:href="classbool.html" target="_top" xlink:title=" ">
<polygon fill="white" stroke="black" points="1009.21,-1238 1009.21,-1295 1047.21,-1295 1047.21,-1238 1009.21,-1238"/>
<text text-anchor="middle" x="1028.21" y="-1283" font-family="Helvetica,sans-Serif" font-size="10.00">bool</text>
<polyline fill="none" stroke="black" points="1009.21,-1276 1047.21,-1276 "/>
<text text-anchor="middle" x="1028.21" y="-1264" font-family="Helvetica,sans-Serif" font-size="10.00"> </text>
<polyline fill="none" stroke="black" points="1009.21,-1257 1047.21,-1257 "/>
<text text-anchor="middle" x="1028.21" y="-1245" font-family="Helvetica,sans-Serif" font-size="10.00"> </text>
</a>
</g>
</g>
<!-- Node17&#45;&gt;Node1 -->
<g id="edge27" class="edge">
<title>Node17&#45;&gt;Node1</title>
<path fill="none" stroke="#404040" d="M1032.54,-1237.89C1034.85,-1223.1 1037.72,-1204.56 1040.21,-1188 1051.66,-1111.83 1035.31,-899.04 1090.21,-845 1260.12,-677.74 1457.12,-948.02 1622.21,-776 1657.27,-739.46 1656.88,-372.36 1662.21,-322 1668.87,-259.02 1677.8,-187.59 1684.53,-135.72"/>
<polygon fill="none" stroke="#404040" points="1684.56,-135.53 1681.37,-129.07 1686.11,-123.64 1689.3,-130.1 1684.56,-135.53"/>
<text text-anchor="middle" x="1694.21" y="-546.5" font-family="Helvetica,sans-Serif" font-size="10.00"> +is_simplex</text>
</g>
<!-- Node17&#45;&gt;Node2 -->
<g id="edge23" class="edge">
<title>Node17&#45;&gt;Node2</title>
<path fill="none" stroke="#404040" d="M1027.69,-1237.94C1025.08,-1089.24 1015.3,-386.32 1062.21,-303 1070.53,-288.22 1082.9,-275.7 1096.56,-265.28"/>
<polygon fill="none" stroke="#404040" points="1096.92,-265.03 1099.49,-258.29 1106.69,-258.07 1104.13,-264.81 1096.92,-265.03"/>
<text text-anchor="middle" x="1057.21" y="-808" font-family="Helvetica,sans-Serif" font-size="10.00"> +is_simplex</text>
</g>
<!-- Node17&#45;&gt;Node6 -->
<g id="edge20" class="edge">
<title>Node17&#45;&gt;Node6</title>
<path fill="none" stroke="#404040" d="M1016.59,-1237.88C999.62,-1196.7 967.95,-1116.5 948.21,-1046 923.65,-958.29 954.13,-923.66 908.21,-845 850.6,-746.33 747.71,-664.54 669.6,-612.31"/>
<polygon fill="none" stroke="#404040" points="669.24,-612.08 662.03,-612.1 659.24,-605.46 666.45,-605.43 669.24,-612.08"/>
<text text-anchor="middle" x="986.21" y="-948.5" font-family="Helvetica,sans-Serif" font-size="10.00"> +is_hypercube</text>
<text text-anchor="middle" x="986.21" y="-937.5" font-family="Helvetica,sans-Serif" font-size="10.00">+is_simplex</text>
</g>
<!-- Node17&#45;&gt;Node10 -->
<g id="edge17" class="edge">
<title>Node17&#45;&gt;Node10</title>
<path fill="none" stroke="#404040" d="M1016.55,-1237.76C1010.2,-1226.06 1001.16,-1213.44 989.21,-1206 934.09,-1171.67 891.48,-1232.52 844.21,-1188 803.41,-1149.57 860.56,-1103.91 821.21,-1064 794.92,-1037.34 770.49,-1062.2 732.08,-1045.09"/>
<polygon fill="none" stroke="#404040" points="732.03,-1045.06 724.85,-1045.78 721.43,-1039.43 728.61,-1038.71 732.03,-1045.06"/>
<text text-anchor="middle" x="882.21" y="-1129" font-family="Helvetica,sans-Serif" font-size="10.00"> +is_hypercube</text>
<text text-anchor="middle" x="882.21" y="-1118" font-family="Helvetica,sans-Serif" font-size="10.00">+is_simplex</text>
</g>
<!-- Node18 -->
<g id="node18" class="node">
<title>Node18</title>
<g id="a_node18"><a xlink:title=" ">
<polygon fill="white" stroke="#bfbfbf" points="144.21,-1238 144.21,-1295 266.21,-1295 266.21,-1238 144.21,-1238"/>
<text text-anchor="middle" x="205.21" y="-1283" font-family="Helvetica,sans-Serif" font-size="10.00">static const size_type</text>
<polyline fill="none" stroke="#bfbfbf" points="144.21,-1276 266.21,-1276 "/>
<text text-anchor="middle" x="205.21" y="-1264" font-family="Helvetica,sans-Serif" font-size="10.00"> </text>
<polyline fill="none" stroke="#bfbfbf" points="144.21,-1257 266.21,-1257 "/>
<text text-anchor="middle" x="205.21" y="-1245" font-family="Helvetica,sans-Serif" font-size="10.00"> </text>
</a>
</g>
</g>
<!-- Node18&#45;&gt;Node6 -->
<g id="edge21" class="edge">
<title>Node18&#45;&gt;Node6</title>
<path fill="none" stroke="#404040" d="M192.44,-1237.8C162.1,-1167.64 93.14,-978.99 161.21,-845 223.32,-722.73 362.53,-639.06 460.09,-592.89"/>
<polygon fill="none" stroke="#404040" points="460.3,-592.79 464.05,-586.63 471.17,-587.71 467.43,-593.88 460.3,-592.79"/>
<text text-anchor="middle" x="191.71" y="-948.5" font-family="Helvetica,sans-Serif" font-size="10.00"> +Geometry</text>
<text text-anchor="middle" x="191.71" y="-937.5" font-family="Helvetica,sans-Serif" font-size="10.00">+Shape</text>
</g>
<!-- Node18&#45;&gt;Node10 -->
<g id="edge18" class="edge">
<title>Node18&#45;&gt;Node10</title>
<path fill="none" stroke="#404040" d="M217.31,-1237.74C238.73,-1192.38 287.98,-1103.48 360.21,-1064 439.11,-1020.86 483.86,-1084.55 568.3,-1046.04"/>
<polygon fill="none" stroke="#404040" points="568.34,-1046.02 571.93,-1039.77 579.08,-1040.67 575.49,-1046.93 568.34,-1046.02"/>
<text text-anchor="middle" x="390.71" y="-1123.5" font-family="Helvetica,sans-Serif" font-size="10.00"> +Geometry</text>
</g>
<!-- Node19&#45;&gt;Node1 -->
<g id="edge24" class="edge">
<title>Node19&#45;&gt;Node1</title>
<path fill="none" stroke="midnightblue" d="M1842.83,-1054.04C1846.57,-990.53 1851.21,-894.84 1851.21,-811.5 1851.21,-811.5 1851.21,-811.5 1851.21,-222 1851.21,-173.51 1813.78,-134.46 1775.47,-107.2"/>
<polygon fill="none" stroke="midnightblue" points="1839.32,-1054.15 1842.22,-1064.35 1846.3,-1054.57 1839.32,-1054.15"/>
</g>
</g>
</svg>
