<?xml version="1.0" encoding="UTF-8" standalone="no"?>
<!DOCTYPE svg PUBLIC "-//W3C//DTD SVG 1.1//EN"
 "http://www.w3.org/Graphics/SVG/1.1/DTD/svg11.dtd">
<!-- Generated by graphviz version 2.43.0 (0)
 -->
<!-- Title: Feel::WorldComm Pages: 1 -->
<svg width="322pt" height="248pt"
 viewBox="0.00 0.00 322.00 248.00" xmlns="http://www.w3.org/2000/svg" xmlns:xlink="http://www.w3.org/1999/xlink">
<g id="graph0" class="graph" transform="scale(1 1) rotate(0) translate(4 244)">
<title>Feel::WorldComm</title>
<polygon fill="white" stroke="transparent" points="-4,4 -4,-244 318,-244 318,4 -4,4"/>
<!-- Node1 -->
<g id="node1" class="node">
<title>Node1</title>
<g id="a_node1"><a xlink:title="Provides interface to MPI Communicators.">
<polygon fill="#bfbfbf" stroke="black" points="87.5,-0.5 87.5,-134.5 223.5,-134.5 223.5,-0.5 87.5,-0.5"/>
<text text-anchor="middle" x="155.5" y="-122.5" font-family="Helvetica,sans-Serif" font-size="10.00">Feel::WorldComm</text>
<polyline fill="none" stroke="black" points="87.5,-115.5 223.5,-115.5 "/>
<text text-anchor="middle" x="155.5" y="-103.5" font-family="Helvetica,sans-Serif" font-size="10.00"> </text>
<polyline fill="none" stroke="black" points="87.5,-96.5 223.5,-96.5 "/>
<text text-anchor="start" x="95.5" y="-84.5" font-family="Helvetica,sans-Serif" font-size="10.00">+ activityOnWorld()</text>
<text text-anchor="start" x="95.5" y="-73.5" font-family="Helvetica,sans-Serif" font-size="10.00">+ applyActivityOnlyOn()</text>
<text text-anchor="start" x="95.5" y="-62.5" font-family="Helvetica,sans-Serif" font-size="10.00">+ clone()</text>
<text text-anchor="start" x="95.5" y="-51.5" font-family="Helvetica,sans-Serif" font-size="10.00">+ comm()</text>
<text text-anchor="start" x="95.5" y="-40.5" font-family="Helvetica,sans-Serif" font-size="10.00">+ globalComm()</text>
<text text-anchor="start" x="95.5" y="-29.5" font-family="Helvetica,sans-Serif" font-size="10.00">and 61 more...</text>
<text text-anchor="start" x="95.5" y="-18.5" font-family="Helvetica,sans-Serif" font-size="10.00">+ New()</text>
<text text-anchor="start" x="95.5" y="-7.5" font-family="Helvetica,sans-Serif" font-size="10.00">+ New()</text>
</a>
</g>
</g>
<!-- Node2 -->
<g id="node2" class="node">
<title>Node2</title>
<g id="a_node2"><a xlink:href="classboost_1_1mpi_1_1communicator.html" target="_top" xlink:title=" ">
<polygon fill="white" stroke="black" points="0,-177 0,-234 145,-234 145,-177 0,-177"/>
<text text-anchor="middle" x="72.5" y="-222" font-family="Helvetica,sans-Serif" font-size="10.00">boost::mpi::communicator</text>
<polyline fill="none" stroke="black" points="0,-215 145,-215 "/>
<text text-anchor="middle" x="72.5" y="-203" font-family="Helvetica,sans-Serif" font-size="10.00"> </text>
<polyline fill="none" stroke="black" points="0,-196 145,-196 "/>
<text text-anchor="middle" x="72.5" y="-184" font-family="Helvetica,sans-Serif" font-size="10.00"> </text>
</a>
</g>
</g>
<!-- Node2&#45;&gt;Node1 -->
<g id="edge1" class="edge">
<title>Node2&#45;&gt;Node1</title>
<path fill="none" stroke="midnightblue" d="M94.62,-168.25C100.93,-157.91 108.01,-146.31 115.05,-134.78"/>
<polygon fill="none" stroke="midnightblue" points="91.52,-166.62 89.3,-176.98 97.49,-170.27 91.52,-166.62"/>
</g>
<!-- Node3 -->
<g id="node3" class="node">
<title>Node3</title>
<g id="a_node3"><a xlink:title=" ">
<polygon fill="white" stroke="#bfbfbf" points="163,-171.5 163,-239.5 314,-239.5 314,-171.5 163,-171.5"/>
<text text-anchor="start" x="171" y="-227.5" font-family="Helvetica,sans-Serif" font-size="10.00">std::enable_shared</text>
<text text-anchor="middle" x="238.5" y="-216.5" font-family="Helvetica,sans-Serif" font-size="10.00">_from_this&lt; WorldComm &gt;</text>
<polyline fill="none" stroke="#bfbfbf" points="163,-209.5 314,-209.5 "/>
<text text-anchor="middle" x="238.5" y="-197.5" font-family="Helvetica,sans-Serif" font-size="10.00"> </text>
<polyline fill="none" stroke="#bfbfbf" points="163,-190.5 314,-190.5 "/>
<text text-anchor="middle" x="238.5" y="-178.5" font-family="Helvetica,sans-Serif" font-size="10.00"> </text>
</a>
</g>
</g>
<!-- Node3&#45;&gt;Node1 -->
<g id="edge2" class="edge">
<title>Node3&#45;&gt;Node1</title>
<path fill="none" stroke="midnightblue" d="M212.94,-162.63C207.53,-153.76 201.7,-144.2 195.89,-134.68"/>
<polygon fill="none" stroke="midnightblue" points="210,-164.52 218.2,-171.23 215.97,-160.87 210,-164.52"/>
</g>
</g>
</svg>
