<?xml version="1.0" encoding="UTF-8" standalone="no"?>
<!DOCTYPE svg PUBLIC "-//W3C//DTD SVG 1.1//EN"
 "http://www.w3.org/Graphics/SVG/1.1/DTD/svg11.dtd">
<!-- Generated by graphviz version 2.43.0 (0)
 -->
<!-- Title: Feel::BVH&lt; MeshEntityType &gt; Pages: 1 -->
<!--zoomable 463 -->
<svg id="main" version="1.1" xmlns="http://www.w3.org/2000/svg" xmlns:xlink="http://www.w3.org/1999/xlink" xml:space="preserve" onload="init(evt)">
<style type="text/css"><![CDATA[
.edge:hover path { stroke: red; }
.edge:hover polygon { stroke: red; fill: red; }
]]></style>
<script type="text/javascript"><![CDATA[
var edges = document.getElementsByTagName('g');
if (edges && edges.length) {
  for (var i=0;i<edges.length;i++) {
    if (edges[i].id.substr(0,4)=='edge') {
      edges[i].setAttribute('class','edge');
    }
  }
}
]]></script>
        <defs>
                <circle id="rim" cx="0" cy="0" r="7"/>
                <circle id="rim2" cx="0" cy="0" r="3.5"/>
                <g id="zoomPlus">
                        <use xlink:href="#rim" fill="#404040">
                                <set attributeName="fill" to="#808080" begin="zoomplus.mouseover" end="zoomplus.mouseout"/>
                        </use>
                        <path d="M-4,0h8M0,-4v8" fill="none" stroke="white" stroke-width="1.5" pointer-events="none"/>
                </g>
                <g id="zoomMin">
                        <use xlink:href="#rim" fill="#404040">
                                <set attributeName="fill" to="#808080" begin="zoomminus.mouseover" end="zoomminus.mouseout"/>
                        </use>
                        <path d="M-4,0h8" fill="none" stroke="white" stroke-width="1.5" pointer-events="none"/>
                </g>
                <g id="dirArrow">
                        <path fill="none" stroke="white" stroke-width="1.5" d="M0,-3.0v7 M-2.5,-0.5L0,-3.0L2.5,-0.5"/>
                </g>
               <g id="resetDef">
                       <use xlink:href="#rim2" fill="#404040">
                               <set attributeName="fill" to="#808080" begin="reset.mouseover" end="reset.mouseout"/>
                       </use>
               </g>
        </defs>

<script type="text/javascript">
var viewWidth = 262;
var viewHeight = 463;
var sectionId = 'dynsection-0';
</script>
<script xlink:href="svgpan.js"/>
<svg id="graph" class="graph">
<g id="viewport">
<title>Feel::BVH&lt; MeshEntityType &gt;</title>
<polygon fill="white" stroke="transparent" points="-4,4 -4,-459 258,-459 258,4 -4,4"/>
<!-- Node1 -->
<g id="node1" class="node">
<title>Node1</title>
<g id="a_node1"><a xlink:title="BVH base class.">
<polygon fill="#bfbfbf" stroke="black" points="44.5,-127.5 44.5,-305.5 208.5,-305.5 208.5,-127.5 44.5,-127.5"/>
<text text-anchor="middle" x="126.5" y="-293.5" font-family="Helvetica,sans-Serif" font-size="10.00">Feel::BVH&lt; MeshEntityType &gt;</text>
<polyline fill="none" stroke="black" points="44.5,-286.5 208.5,-286.5 "/>
<text text-anchor="start" x="52.5" y="-274.5" font-family="Helvetica,sans-Serif" font-size="10.00">+ nDim</text>
<text text-anchor="start" x="52.5" y="-263.5" font-family="Helvetica,sans-Serif" font-size="10.00">+ nRealDim</text>
<text text-anchor="start" x="52.5" y="-252.5" font-family="Helvetica,sans-Serif" font-size="10.00"># M_primitiveInfo</text>
<text text-anchor="start" x="52.5" y="-241.5" font-family="Helvetica,sans-Serif" font-size="10.00"># M_quality</text>
<polyline fill="none" stroke="black" points="44.5,-234.5 208.5,-234.5 "/>
<text text-anchor="start" x="52.5" y="-222.5" font-family="Helvetica,sans-Serif" font-size="10.00">+ BVH()</text>
<text text-anchor="start" x="52.5" y="-211.5" font-family="Helvetica,sans-Serif" font-size="10.00">+ BVH()</text>
<text text-anchor="start" x="52.5" y="-200.5" font-family="Helvetica,sans-Serif" font-size="10.00">+ BVH()</text>
<text text-anchor="start" x="52.5" y="-189.5" font-family="Helvetica,sans-Serif" font-size="10.00">+ intersect()</text>
<text text-anchor="start" x="52.5" y="-178.5" font-family="Helvetica,sans-Serif" font-size="10.00">+ primitiveInfo()</text>
<text text-anchor="start" x="52.5" y="-167.5" font-family="Helvetica,sans-Serif" font-size="10.00">+ primitiveInfo()</text>
<text text-anchor="start" x="52.5" y="-156.5" font-family="Helvetica,sans-Serif" font-size="10.00">+ ~BVH()</text>
<text text-anchor="start" x="52.5" y="-145.5" font-family="Helvetica,sans-Serif" font-size="10.00"># intersectSequential()</text>
<text text-anchor="start" x="52.5" y="-134.5" font-family="Helvetica,sans-Serif" font-size="10.00"># updateForUse()</text>
</a>
</g>
</g>
<!-- Node3 -->
<g id="node3" class="node">
<title>Node3</title>
<g id="a_node3"><a xlink:href="classFeel_1_1BVH__InHouse.html" target="_top" xlink:title="in house implementation of BVH tool">
<polygon fill="white" stroke="black" points="0,-6 0,-85 117,-85 117,-6 0,-6"/>
<text text-anchor="start" x="8" y="-73" font-family="Helvetica,sans-Serif" font-size="10.00">Feel::BVH_InHouse&lt;</text>
<text text-anchor="middle" x="58.5" y="-62" font-family="Helvetica,sans-Serif" font-size="10.00"> MeshEntityType &gt;</text>
<polyline fill="none" stroke="black" points="0,-55 117,-55 "/>
<text text-anchor="middle" x="58.5" y="-43" font-family="Helvetica,sans-Serif" font-size="10.00"> </text>
<polyline fill="none" stroke="black" points="0,-36 117,-36 "/>
<text text-anchor="start" x="8" y="-24" font-family="Helvetica,sans-Serif" font-size="10.00">+ BVH_InHouse()</text>
<text text-anchor="start" x="8" y="-13" font-family="Helvetica,sans-Serif" font-size="10.00">+ updateForUse()</text>
</a>
</g>
</g>
<!-- Node1&#45;&gt;Node3 -->
<g id="edge2" class="edge">
<title>Node1&#45;&gt;Node3</title>
<path fill="none" stroke="midnightblue" d="M87.04,-117.44C82.47,-106.08 78.04,-95.06 74.08,-85.22"/>
<polygon fill="none" stroke="midnightblue" points="83.93,-119.07 90.91,-127.04 90.42,-116.46 83.93,-119.07"/>
</g>
<!-- Node4 -->
<g id="node4" class="node">
<title>Node4</title>
<g id="a_node4"><a xlink:href="classFeel_1_1BVH__ThirdParty.html" target="_top" xlink:title="implementation of BVH tool with an external third party">
<polygon fill="white" stroke="black" points="135,-0.5 135,-90.5 254,-90.5 254,-0.5 135,-0.5"/>
<text text-anchor="start" x="143" y="-78.5" font-family="Helvetica,sans-Serif" font-size="10.00">Feel::BVH_ThirdParty</text>
<text text-anchor="middle" x="194.5" y="-67.5" font-family="Helvetica,sans-Serif" font-size="10.00">&lt; MeshEntityType &gt;</text>
<polyline fill="none" stroke="black" points="135,-60.5 254,-60.5 "/>
<text text-anchor="middle" x="194.5" y="-48.5" font-family="Helvetica,sans-Serif" font-size="10.00"> </text>
<polyline fill="none" stroke="black" points="135,-41.5 254,-41.5 "/>
<text text-anchor="start" x="143" y="-29.5" font-family="Helvetica,sans-Serif" font-size="10.00">+ BVH_ThirdParty()</text>
<text text-anchor="start" x="143" y="-18.5" font-family="Helvetica,sans-Serif" font-size="10.00">+ BVH_ThirdParty()</text>
<text text-anchor="start" x="143" y="-7.5" font-family="Helvetica,sans-Serif" font-size="10.00">+ updateForUse()</text>
</a>
</g>
</g>
<!-- Node1&#45;&gt;Node4 -->
<g id="edge3" class="edge">
<title>Node1&#45;&gt;Node4</title>
<path fill="none" stroke="midnightblue" d="M165.89,-117.62C169.65,-108.25 173.33,-99.11 176.73,-90.67"/>
<polygon fill="none" stroke="midnightblue" points="162.58,-116.46 162.09,-127.04 169.07,-119.07 162.58,-116.46"/>
</g>
<!-- Node2 -->
<g id="node2" class="node">
<title>Node2</title>
<g id="a_node2"><a xlink:href="classFeel_1_1CommObject.html" target="_top" xlink:title=" ">
<polygon fill="white" stroke="#bfbfbf" points="73,-342.5 73,-454.5 180,-454.5 180,-342.5 73,-342.5"/>
<text text-anchor="middle" x="126.5" y="-442.5" font-family="Helvetica,sans-Serif" font-size="10.00">Feel::CommObject</text>
<polyline fill="none" stroke="#bfbfbf" points="73,-435.5 180,-435.5 "/>
<text text-anchor="middle" x="126.5" y="-423.5" font-family="Helvetica,sans-Serif" font-size="10.00"> </text>
<polyline fill="none" stroke="#bfbfbf" points="73,-416.5 180,-416.5 "/>
<text text-anchor="start" x="81" y="-404.5" font-family="Helvetica,sans-Serif" font-size="10.00">+ comm()</text>
<text text-anchor="start" x="81" y="-393.5" font-family="Helvetica,sans-Serif" font-size="10.00">+ CommObject()</text>
<text text-anchor="start" x="81" y="-382.5" font-family="Helvetica,sans-Serif" font-size="10.00">+ CommObject()</text>
<text text-anchor="start" x="81" y="-371.5" font-family="Helvetica,sans-Serif" font-size="10.00">+ CommObject()</text>
<text text-anchor="start" x="81" y="-360.5" font-family="Helvetica,sans-Serif" font-size="10.00">+ CommObject()</text>
<text text-anchor="start" x="81" y="-349.5" font-family="Helvetica,sans-Serif" font-size="10.00">and 13 more...</text>
</a>
</g>
</g>
<!-- Node2&#45;&gt;Node1 -->
<g id="edge1" class="edge">
<title>Node2&#45;&gt;Node1</title>
<path fill="none" stroke="midnightblue" d="M126.5,-331.79C126.5,-323.25 126.5,-314.4 126.5,-305.57"/>
<polygon fill="none" stroke="midnightblue" points="123,-332.03 126.5,-342.03 130,-332.03 123,-332.03"/>
</g>
</g>
</svg>
        <g id="navigator" transform="translate(0 0)" fill="#404254">
                <rect fill="#f2f5e9" fill-opacity="0.5" stroke="#606060" stroke-width=".5" x="0" y="0" width="60" height="60"/>
                <use id="zoomplus" xlink:href="#zoomPlus" x="17" y="9" onmousedown="handleZoom(evt,'in')"/>
                <use id="zoomminus" xlink:href="#zoomMin" x="42" y="9" onmousedown="handleZoom(evt,'out')"/>
                <use id="reset" xlink:href="#resetDef" x="30" y="36" onmousedown="handleReset()"/>
                <g id="arrowUp" xlink:href="#dirArrow" transform="translate(30 24)" onmousedown="handlePan(0,-1)">
                  <use xlink:href="#rim" fill="#404040">
                        <set attributeName="fill" to="#808080" begin="arrowUp.mouseover" end="arrowUp.mouseout"/>
                  </use>
                  <path fill="none" stroke="white" stroke-width="1.5" d="M0,-3.0v7 M-2.5,-0.5L0,-3.0L2.5,-0.5"/>
                </g>
                <g id="arrowRight" xlink:href="#dirArrow" transform="rotate(90) translate(36 -43)" onmousedown="handlePan(1,0)">
                  <use xlink:href="#rim" fill="#404040">
                        <set attributeName="fill" to="#808080" begin="arrowRight.mouseover" end="arrowRight.mouseout"/>
                  </use>
                  <path fill="none" stroke="white" stroke-width="1.5" d="M0,-3.0v7 M-2.5,-0.5L0,-3.0L2.5,-0.5"/>
                </g>
                <g id="arrowDown" xlink:href="#dirArrow" transform="rotate(180) translate(-30 -48)" onmousedown="handlePan(0,1)">
                  <use xlink:href="#rim" fill="#404040">
                        <set attributeName="fill" to="#808080" begin="arrowDown.mouseover" end="arrowDown.mouseout"/>
                  </use>
                  <path fill="none" stroke="white" stroke-width="1.5" d="M0,-3.0v7 M-2.5,-0.5L0,-3.0L2.5,-0.5"/>
                </g>
                <g id="arrowLeft" xlink:href="#dirArrow" transform="rotate(270) translate(-36 17)" onmousedown="handlePan(-1,0)">
                  <use xlink:href="#rim" fill="#404040">
                        <set attributeName="fill" to="#808080" begin="arrowLeft.mouseover" end="arrowLeft.mouseout"/>
                  </use>
                  <path fill="none" stroke="white" stroke-width="1.5" d="M0,-3.0v7 M-2.5,-0.5L0,-3.0L2.5,-0.5"/>
                </g>
        </g>
        <svg viewBox="0 0 15 15" width="100%" height="30px" preserveAspectRatio="xMaxYMin meet">
         <g id="arrow_out" transform="scale(0.3 0.3)">
          <a xlink:href="classFeel_1_1BVH__inherit__graph_org.svg" target="_base">
           <rect id="button" ry="5" rx="5" y="6" x="6" height="38" width="38"
                fill="#f2f5e9" fill-opacity="0.5" stroke="#606060" stroke-width="1.0"/>
           <path id="arrow"
             d="M 11.500037,31.436501 C 11.940474,20.09759 22.043105,11.32322 32.158766,21.979434 L 37.068811,17.246167 C 37.068811,17.246167 37.088388,32 37.088388,32 L 22.160133,31.978069 C 22.160133,31.978069 26.997745,27.140456 26.997745,27.140456 C 18.528582,18.264221 13.291696,25.230495 11.500037,31.436501 z"
             style="fill:#404040;"/>
          </a>
         </g>
        </svg>
</svg>
