<?xml version="1.0" encoding="UTF-8" standalone="no"?>
<!DOCTYPE svg PUBLIC "-//W3C//DTD SVG 1.1//EN"
 "http://www.w3.org/Graphics/SVG/1.1/DTD/svg11.dtd">
<!-- Generated by graphviz version 2.43.0 (0)
 -->
<!-- Title: Feel::GeoElement1D&lt; Dim, GEOSHAPE, SubFace, T, IndexT, PointTypeIsSubFaceOf, UseMeasuresStorage &gt; Pages: 1 -->
<!--zoomable 1276 -->
<svg id="main" version="1.1" xmlns="http://www.w3.org/2000/svg" xmlns:xlink="http://www.w3.org/1999/xlink" xml:space="preserve" onload="init(evt)">
<style type="text/css"><![CDATA[
.edge:hover path { stroke: red; }
.edge:hover polygon { stroke: red; fill: red; }
]]></style>
<script type="text/javascript"><![CDATA[
var edges = document.getElementsByTagName('g');
if (edges && edges.length) {
  for (var i=0;i<edges.length;i++) {
    if (edges[i].id.substr(0,4)=='edge') {
      edges[i].setAttribute('class','edge');
    }
  }
}
]]></script>
        <defs>
                <circle id="rim" cx="0" cy="0" r="7"/>
                <circle id="rim2" cx="0" cy="0" r="3.5"/>
                <g id="zoomPlus">
                        <use xlink:href="#rim" fill="#404040">
                                <set attributeName="fill" to="#808080" begin="zoomplus.mouseover" end="zoomplus.mouseout"/>
                        </use>
                        <path d="M-4,0h8M0,-4v8" fill="none" stroke="white" stroke-width="1.5" pointer-events="none"/>
                </g>
                <g id="zoomMin">
                        <use xlink:href="#rim" fill="#404040">
                                <set attributeName="fill" to="#808080" begin="zoomminus.mouseover" end="zoomminus.mouseout"/>
                        </use>
                        <path d="M-4,0h8" fill="none" stroke="white" stroke-width="1.5" pointer-events="none"/>
                </g>
                <g id="dirArrow">
                        <path fill="none" stroke="white" stroke-width="1.5" d="M0,-3.0v7 M-2.5,-0.5L0,-3.0L2.5,-0.5"/>
                </g>
               <g id="resetDef">
                       <use xlink:href="#rim2" fill="#404040">
                               <set attributeName="fill" to="#808080" begin="reset.mouseover" end="reset.mouseout"/>
                       </use>
               </g>
        </defs>

<script type="text/javascript">
var viewWidth = 1462;
var viewHeight = 1276;
var sectionId = 'dynsection-1';
</script>
<script xlink:href="svgpan.js"/>
<svg id="graph" class="graph">
<g id="viewport">
<title>Feel::GeoElement1D&lt; Dim, GEOSHAPE, SubFace, T, IndexT, PointTypeIsSubFaceOf, UseMeasuresStorage &gt;</title>
<polygon fill="white" stroke="transparent" points="-4,4 -4,-1272 1458.49,-1272 1458.49,4 -4,4"/>
<!-- Node1 -->
<g id="node1" class="node">
<title>Node1</title>
<g id="a_node1"><a xlink:title="class for 1D elements">
<polygon fill="#bfbfbf" stroke="black" points="305.49,-0.5 305.49,-145.5 471.49,-145.5 471.49,-0.5 305.49,-0.5"/>
<text text-anchor="start" x="313.49" y="-133.5" font-family="Helvetica,sans-Serif" font-size="10.00">Feel::GeoElement1D</text>
<text text-anchor="start" x="313.49" y="-122.5" font-family="Helvetica,sans-Serif" font-size="10.00">&lt; Dim, GEOSHAPE, SubFace,</text>
<text text-anchor="start" x="313.49" y="-111.5" font-family="Helvetica,sans-Serif" font-size="10.00"> T, IndexT, PointTypeIsSubFace</text>
<text text-anchor="middle" x="388.49" y="-100.5" font-family="Helvetica,sans-Serif" font-size="10.00">Of, UseMeasuresStorage &gt;</text>
<polyline fill="none" stroke="black" points="305.49,-93.5 471.49,-93.5 "/>
<text text-anchor="middle" x="388.49" y="-81.5" font-family="Helvetica,sans-Serif" font-size="10.00"> </text>
<polyline fill="none" stroke="black" points="305.49,-74.5 471.49,-74.5 "/>
<text text-anchor="start" x="313.49" y="-62.5" font-family="Helvetica,sans-Serif" font-size="10.00">+ BOOST_MPL_ASSERT_MSG()</text>
<text text-anchor="start" x="313.49" y="-51.5" font-family="Helvetica,sans-Serif" font-size="10.00">+ boundaryEntityDimension()</text>
<text text-anchor="start" x="313.49" y="-40.5" font-family="Helvetica,sans-Serif" font-size="10.00">+ edge()</text>
<text text-anchor="start" x="313.49" y="-29.5" font-family="Helvetica,sans-Serif" font-size="10.00">+ face()</text>
<text text-anchor="start" x="313.49" y="-18.5" font-family="Helvetica,sans-Serif" font-size="10.00">+ face()</text>
<text text-anchor="start" x="313.49" y="-7.5" font-family="Helvetica,sans-Serif" font-size="10.00">and 27 more...</text>
</a>
</g>
</g>
<!-- Node2 -->
<g id="node2" class="node">
<title>Node2</title>
<g id="a_node2"><a xlink:href="classFeel_1_1GeoND.html" target="_top" xlink:title=" ">
<polygon fill="white" stroke="black" points="451.99,-183.5 451.99,-438.5 678.99,-438.5 678.99,-183.5 451.99,-183.5"/>
<text text-anchor="start" x="459.99" y="-426.5" font-family="Helvetica,sans-Serif" font-size="10.00">Feel::GeoND&lt; Dim, GEOSHAPE,</text>
<text text-anchor="start" x="459.99" y="-415.5" font-family="Helvetica,sans-Serif" font-size="10.00"> double, uint32_type, mpl</text>
<text text-anchor="start" x="459.99" y="-404.5" font-family="Helvetica,sans-Serif" font-size="10.00">::if_&lt; mpl::bool_&lt; false &gt;</text>
<text text-anchor="start" x="459.99" y="-393.5" font-family="Helvetica,sans-Serif" font-size="10.00">, mpl::identity&lt; GeoElement0D</text>
<text text-anchor="start" x="459.99" y="-382.5" font-family="Helvetica,sans-Serif" font-size="10.00">&lt; Dim, SubFaceOf&lt; GeoElement1D</text>
<text text-anchor="start" x="459.99" y="-371.5" font-family="Helvetica,sans-Serif" font-size="10.00">&lt; Dim, GEOSHAPE, SubFaceOfNone</text>
<text text-anchor="start" x="459.99" y="-360.5" font-family="Helvetica,sans-Serif" font-size="10.00">&lt; 0 &gt;, double, uint32_type, false,</text>
<text text-anchor="start" x="459.99" y="-349.5" font-family="Helvetica,sans-Serif" font-size="10.00"> false &gt; &gt;, double, uint32_type &gt;</text>
<text text-anchor="start" x="459.99" y="-338.5" font-family="Helvetica,sans-Serif" font-size="10.00"> &gt;, mpl::identity&lt; GeoElement0D&lt; Dim,</text>
<text text-anchor="start" x="459.99" y="-327.5" font-family="Helvetica,sans-Serif" font-size="10.00"> SubFaceOfNone&lt; 0 &gt;, double, uint32_type</text>
<text text-anchor="middle" x="565.49" y="-316.5" font-family="Helvetica,sans-Serif" font-size="10.00"> &gt; &gt; &gt;::type::type, false &gt;</text>
<polyline fill="none" stroke="black" points="451.99,-309.5 678.99,-309.5 "/>
<text text-anchor="middle" x="565.49" y="-297.5" font-family="Helvetica,sans-Serif" font-size="10.00"> </text>
<polyline fill="none" stroke="black" points="451.99,-290.5 678.99,-290.5 "/>
<text text-anchor="start" x="459.99" y="-278.5" font-family="Helvetica,sans-Serif" font-size="10.00">+ applyDisplacement()</text>
<text text-anchor="start" x="459.99" y="-267.5" font-family="Helvetica,sans-Serif" font-size="10.00">+ applyDisplacementG()</text>
<text text-anchor="start" x="459.99" y="-256.5" font-family="Helvetica,sans-Serif" font-size="10.00">+ barycenter()</text>
<text text-anchor="start" x="459.99" y="-245.5" font-family="Helvetica,sans-Serif" font-size="10.00">+ beginPoint()</text>
<text text-anchor="start" x="459.99" y="-234.5" font-family="Helvetica,sans-Serif" font-size="10.00">+ beginPoint()</text>
<text text-anchor="start" x="459.99" y="-223.5" font-family="Helvetica,sans-Serif" font-size="10.00">and 62 more...</text>
<text text-anchor="start" x="459.99" y="-212.5" font-family="Helvetica,sans-Serif" font-size="10.00">+ fToP()</text>
<text text-anchor="start" x="459.99" y="-201.5" font-family="Helvetica,sans-Serif" font-size="10.00">+ imMeasure()</text>
<text text-anchor="start" x="459.99" y="-190.5" font-family="Helvetica,sans-Serif" font-size="10.00">+ imMeasureOrder1()</text>
</a>
</g>
</g>
<!-- Node2&#45;&gt;Node1 -->
<g id="edge1" class="edge">
<title>Node2&#45;&gt;Node1</title>
<path fill="none" stroke="midnightblue" d="M464.41,-175.22C456.83,-165.11 449.37,-155.16 442.26,-145.69"/>
<polygon fill="none" stroke="midnightblue" points="461.72,-177.46 470.52,-183.36 467.32,-173.26 461.72,-177.46"/>
</g>
<!-- Node3 -->
<g id="node3" class="node">
<title>Node3</title>
<g id="a_node3"><a xlink:href="classFeel_1_1GeoEntity.html" target="_top" xlink:title=" ">
<polygon fill="white" stroke="black" points="869.49,-588.5 869.49,-1030.5 1057.49,-1030.5 1057.49,-588.5 869.49,-588.5"/>
<text text-anchor="start" x="877.49" y="-1018.5" font-family="Helvetica,sans-Serif" font-size="10.00">Feel::GeoEntity&lt; GEOSHAPE,</text>
<text text-anchor="middle" x="963.49" y="-1007.5" font-family="Helvetica,sans-Serif" font-size="10.00"> double &gt;</text>
<polyline fill="none" stroke="black" points="869.49,-1000.5 1057.49,-1000.5 "/>
<text text-anchor="middle" x="963.49" y="-988.5" font-family="Helvetica,sans-Serif" font-size="10.00"> </text>
<polyline fill="none" stroke="black" points="869.49,-981.5 1057.49,-981.5 "/>
<text text-anchor="start" x="877.49" y="-969.5" font-family="Helvetica,sans-Serif" font-size="10.00">* super</text>
<text text-anchor="start" x="877.49" y="-958.5" font-family="Helvetica,sans-Serif" font-size="10.00">* GeoShape</text>
<text text-anchor="start" x="877.49" y="-947.5" font-family="Helvetica,sans-Serif" font-size="10.00">* self_type</text>
<text text-anchor="start" x="877.49" y="-936.5" font-family="Helvetica,sans-Serif" font-size="10.00">* value_type</text>
<text text-anchor="start" x="877.49" y="-925.5" font-family="Helvetica,sans-Serif" font-size="10.00">* index_type</text>
<text text-anchor="start" x="877.49" y="-914.5" font-family="Helvetica,sans-Serif" font-size="10.00">and 12 more...</text>
<text text-anchor="start" x="877.49" y="-903.5" font-family="Helvetica,sans-Serif" font-size="10.00">* boost::serialization</text>
<text text-anchor="start" x="877.49" y="-892.5" font-family="Helvetica,sans-Serif" font-size="10.00">::access</text>
<text text-anchor="start" x="877.49" y="-881.5" font-family="Helvetica,sans-Serif" font-size="10.00">* M_id</text>
<text text-anchor="start" x="877.49" y="-870.5" font-family="Helvetica,sans-Serif" font-size="10.00">* M_entity</text>
<text text-anchor="start" x="877.49" y="-859.5" font-family="Helvetica,sans-Serif" font-size="10.00">* M_boundaryEntityDimension</text>
<text text-anchor="start" x="877.49" y="-848.5" font-family="Helvetica,sans-Serif" font-size="10.00">* M_pid</text>
<text text-anchor="start" x="877.49" y="-837.5" font-family="Helvetica,sans-Serif" font-size="10.00">and 41 more...</text>
<text text-anchor="start" x="877.49" y="-826.5" font-family="Helvetica,sans-Serif" font-size="10.00">* GeoEntity()</text>
<text text-anchor="start" x="877.49" y="-815.5" font-family="Helvetica,sans-Serif" font-size="10.00">* GeoEntity()</text>
<text text-anchor="start" x="877.49" y="-804.5" font-family="Helvetica,sans-Serif" font-size="10.00">* GeoEntity()</text>
<text text-anchor="start" x="877.49" y="-793.5" font-family="Helvetica,sans-Serif" font-size="10.00">* GeoEntity()</text>
<text text-anchor="start" x="877.49" y="-782.5" font-family="Helvetica,sans-Serif" font-size="10.00">* operator=()</text>
<text text-anchor="start" x="877.49" y="-771.5" font-family="Helvetica,sans-Serif" font-size="10.00">* operator=()</text>
<text text-anchor="start" x="877.49" y="-760.5" font-family="Helvetica,sans-Serif" font-size="10.00">* ~GeoEntity()</text>
<text text-anchor="start" x="877.49" y="-749.5" font-family="Helvetica,sans-Serif" font-size="10.00">* operator==()</text>
<text text-anchor="start" x="877.49" y="-738.5" font-family="Helvetica,sans-Serif" font-size="10.00">* operator&lt;()</text>
<text text-anchor="start" x="877.49" y="-727.5" font-family="Helvetica,sans-Serif" font-size="10.00">* operator&lt;()</text>
<text text-anchor="start" x="877.49" y="-716.5" font-family="Helvetica,sans-Serif" font-size="10.00">* id()</text>
<text text-anchor="start" x="877.49" y="-705.5" font-family="Helvetica,sans-Serif" font-size="10.00">* refDim()</text>
<text text-anchor="start" x="877.49" y="-694.5" font-family="Helvetica,sans-Serif" font-size="10.00">* nPoints()</text>
<text text-anchor="start" x="877.49" y="-683.5" font-family="Helvetica,sans-Serif" font-size="10.00">* nVertices()</text>
<text text-anchor="start" x="877.49" y="-672.5" font-family="Helvetica,sans-Serif" font-size="10.00">* nEdges()</text>
<text text-anchor="start" x="877.49" y="-661.5" font-family="Helvetica,sans-Serif" font-size="10.00">and 42 more...</text>
<text text-anchor="start" x="877.49" y="-650.5" font-family="Helvetica,sans-Serif" font-size="10.00">* setId()</text>
<text text-anchor="start" x="877.49" y="-639.5" font-family="Helvetica,sans-Serif" font-size="10.00">* setOnBoundary()</text>
<text text-anchor="start" x="877.49" y="-628.5" font-family="Helvetica,sans-Serif" font-size="10.00">* setNumberOfPartitions()</text>
<text text-anchor="start" x="877.49" y="-617.5" font-family="Helvetica,sans-Serif" font-size="10.00">* setNumberOfNeighborPartitions()</text>
<text text-anchor="start" x="877.49" y="-606.5" font-family="Helvetica,sans-Serif" font-size="10.00">* setNeighborPartitionIds()</text>
<text text-anchor="start" x="877.49" y="-595.5" font-family="Helvetica,sans-Serif" font-size="10.00">* addNeighborPartitionId()</text>
</a>
</g>
</g>
<!-- Node3&#45;&gt;Node2 -->
<g id="edge2" class="edge">
<title>Node3&#45;&gt;Node2</title>
<path fill="none" stroke="midnightblue" d="M898.29,-578.87C878.94,-535.27 854.39,-492.3 823.49,-457 784.75,-412.73 729.05,-379.05 679.32,-355.35"/>
<polygon fill="none" stroke="midnightblue" points="895.14,-580.4 902.34,-588.18 901.56,-577.61 895.14,-580.4"/>
</g>
<!-- Node4 -->
<g id="node4" class="node">
<title>Node4</title>
<g id="a_node4"><a xlink:title=" ">
<polygon fill="white" stroke="#bfbfbf" points="1016.49,-1188.5 1016.49,-1267.5 1198.49,-1267.5 1198.49,-1188.5 1016.49,-1188.5"/>
<text text-anchor="start" x="1024.49" y="-1255.5" font-family="Helvetica,sans-Serif" font-size="10.00">boost::equality_comparable</text>
<text text-anchor="start" x="1024.49" y="-1244.5" font-family="Helvetica,sans-Serif" font-size="10.00">&lt; GeoEntity&lt; GEOSHAPE, double,</text>
<text text-anchor="middle" x="1107.49" y="-1233.5" font-family="Helvetica,sans-Serif" font-size="10.00"> uint32_type &gt; &gt;</text>
<polyline fill="none" stroke="#bfbfbf" points="1016.49,-1226.5 1198.49,-1226.5 "/>
<text text-anchor="middle" x="1107.49" y="-1214.5" font-family="Helvetica,sans-Serif" font-size="10.00"> </text>
<polyline fill="none" stroke="#bfbfbf" points="1016.49,-1207.5 1198.49,-1207.5 "/>
<text text-anchor="middle" x="1107.49" y="-1195.5" font-family="Helvetica,sans-Serif" font-size="10.00"> </text>
</a>
</g>
</g>
<!-- Node4&#45;&gt;Node3 -->
<g id="edge3" class="edge">
<title>Node4&#45;&gt;Node3</title>
<path fill="none" stroke="#8b1a1a" d="M1090.75,-1178.59C1077.82,-1141.17 1058.91,-1086.49 1039.61,-1030.67"/>
<polygon fill="none" stroke="#8b1a1a" points="1087.5,-1179.88 1094.08,-1188.19 1094.12,-1177.6 1087.5,-1179.88"/>
</g>
<!-- Node5 -->
<g id="node5" class="node">
<title>Node5</title>
<g id="a_node5"><a xlink:title=" ">
<polygon fill="white" stroke="#bfbfbf" points="1216.49,-1188.5 1216.49,-1267.5 1398.49,-1267.5 1398.49,-1188.5 1216.49,-1188.5"/>
<text text-anchor="start" x="1224.49" y="-1255.5" font-family="Helvetica,sans-Serif" font-size="10.00">boost::less_than_comparable</text>
<text text-anchor="start" x="1224.49" y="-1244.5" font-family="Helvetica,sans-Serif" font-size="10.00">&lt; GeoEntity&lt; GEOSHAPE, double,</text>
<text text-anchor="middle" x="1307.49" y="-1233.5" font-family="Helvetica,sans-Serif" font-size="10.00"> uint32_type &gt; &gt;</text>
<polyline fill="none" stroke="#bfbfbf" points="1216.49,-1226.5 1398.49,-1226.5 "/>
<text text-anchor="middle" x="1307.49" y="-1214.5" font-family="Helvetica,sans-Serif" font-size="10.00"> </text>
<polyline fill="none" stroke="#bfbfbf" points="1216.49,-1207.5 1398.49,-1207.5 "/>
<text text-anchor="middle" x="1307.49" y="-1195.5" font-family="Helvetica,sans-Serif" font-size="10.00"> </text>
</a>
</g>
</g>
<!-- Node5&#45;&gt;Node3 -->
<g id="edge4" class="edge">
<title>Node5&#45;&gt;Node3</title>
<path fill="none" stroke="#8b1a1a" d="M1268.84,-1180.2C1218.02,-1118.67 1127.05,-1008.53 1057.58,-924.42"/>
<polygon fill="none" stroke="#8b1a1a" points="1266.37,-1182.71 1275.44,-1188.19 1271.77,-1178.25 1266.37,-1182.71"/>
</g>
<!-- Node6 -->
<g id="node6" class="node">
<title>Node6</title>
<g id="a_node6"><a xlink:title=" ">
<polygon fill="white" stroke="#bfbfbf" points="728.49,-1188.5 728.49,-1267.5 910.49,-1267.5 910.49,-1188.5 728.49,-1188.5"/>
<text text-anchor="start" x="736.49" y="-1255.5" font-family="Helvetica,sans-Serif" font-size="10.00">boost::less_than_comparable</text>
<text text-anchor="start" x="736.49" y="-1244.5" font-family="Helvetica,sans-Serif" font-size="10.00">&lt; GeoEntity&lt; GEOSHAPE, double,</text>
<text text-anchor="middle" x="819.49" y="-1233.5" font-family="Helvetica,sans-Serif" font-size="10.00"> uint32_type &gt;, uint32_type &gt;</text>
<polyline fill="none" stroke="#bfbfbf" points="728.49,-1226.5 910.49,-1226.5 "/>
<text text-anchor="middle" x="819.49" y="-1214.5" font-family="Helvetica,sans-Serif" font-size="10.00"> </text>
<polyline fill="none" stroke="#bfbfbf" points="728.49,-1207.5 910.49,-1207.5 "/>
<text text-anchor="middle" x="819.49" y="-1195.5" font-family="Helvetica,sans-Serif" font-size="10.00"> </text>
</a>
</g>
</g>
<!-- Node6&#45;&gt;Node3 -->
<g id="edge5" class="edge">
<title>Node6&#45;&gt;Node3</title>
<path fill="none" stroke="#8b1a1a" d="M895.99,-1181.06C899.12,-1177.57 901.99,-1173.89 904.49,-1170 931,-1128.77 946.87,-1079.55 956.1,-1030.97"/>
<polygon fill="none" stroke="#8b1a1a" points="893.29,-1178.81 888.73,-1188.37 898.26,-1183.74 893.29,-1178.81"/>
</g>
<!-- Node7 -->
<g id="node7" class="node">
<title>Node7</title>
<g id="a_node7"><a xlink:title=" ">
<polygon fill="white" stroke="#bfbfbf" points="928.49,-1199.5 928.49,-1256.5 998.49,-1256.5 998.49,-1199.5 928.49,-1199.5"/>
<text text-anchor="middle" x="963.49" y="-1244.5" font-family="Helvetica,sans-Serif" font-size="10.00">GEOSHAPE</text>
<polyline fill="none" stroke="#bfbfbf" points="928.49,-1237.5 998.49,-1237.5 "/>
<text text-anchor="middle" x="963.49" y="-1225.5" font-family="Helvetica,sans-Serif" font-size="10.00"> </text>
<polyline fill="none" stroke="#bfbfbf" points="928.49,-1218.5 998.49,-1218.5 "/>
<text text-anchor="middle" x="963.49" y="-1206.5" font-family="Helvetica,sans-Serif" font-size="10.00"> </text>
</a>
</g>
</g>
<!-- Node7&#45;&gt;Node3 -->
<g id="edge6" class="edge">
<title>Node7&#45;&gt;Node3</title>
<path fill="none" stroke="midnightblue" d="M963.49,-1189.01C963.49,-1151.79 963.49,-1091.86 963.49,-1030.56"/>
<polygon fill="none" stroke="midnightblue" points="959.99,-1189.35 963.49,-1199.35 966.99,-1189.35 959.99,-1189.35"/>
</g>
<!-- Node8 -->
<g id="node8" class="node">
<title>Node8</title>
<g id="a_node8"><a xlink:title=" ">
<polygon fill="white" stroke="#bfbfbf" points="249.49,-1199.5 249.49,-1256.5 383.49,-1256.5 383.49,-1199.5 249.49,-1199.5"/>
<text text-anchor="middle" x="316.49" y="-1244.5" font-family="Helvetica,sans-Serif" font-size="10.00">static const uint16_type</text>
<polyline fill="none" stroke="#bfbfbf" points="249.49,-1237.5 383.49,-1237.5 "/>
<text text-anchor="middle" x="316.49" y="-1225.5" font-family="Helvetica,sans-Serif" font-size="10.00"> </text>
<polyline fill="none" stroke="#bfbfbf" points="249.49,-1218.5 383.49,-1218.5 "/>
<text text-anchor="middle" x="316.49" y="-1206.5" font-family="Helvetica,sans-Serif" font-size="10.00"> </text>
</a>
</g>
</g>
<!-- Node8&#45;&gt;Node1 -->
<g id="edge17" class="edge">
<title>Node8&#45;&gt;Node1</title>
<path fill="none" stroke="#404040" d="M249.19,-1218.47C215.7,-1210.94 177.03,-1196.74 151.49,-1170 -68.3,-939.9 -10.72,-759.99 86.49,-457 125.4,-335.74 222.81,-224.78 296.57,-153.86"/>
<polygon fill="none" stroke="#404040" points="296.75,-153.69 298.34,-146.65 305.44,-145.41 303.85,-152.45 296.75,-153.69"/>
<text text-anchor="middle" x="133.99" y="-538.5" font-family="Helvetica,sans-Serif" font-size="10.00"> +nDim</text>
<text text-anchor="middle" x="133.99" y="-527.5" font-family="Helvetica,sans-Serif" font-size="10.00">+numLocalVertices</text>
<text text-anchor="middle" x="133.99" y="-516.5" font-family="Helvetica,sans-Serif" font-size="10.00">+nRealDim</text>
<text text-anchor="middle" x="133.99" y="-505.5" font-family="Helvetica,sans-Serif" font-size="10.00">+nOrder</text>
<text text-anchor="middle" x="133.99" y="-494.5" font-family="Helvetica,sans-Serif" font-size="10.00">+numLocalFaces</text>
<text text-anchor="middle" x="133.99" y="-483.5" font-family="Helvetica,sans-Serif" font-size="10.00">+numLocalEdges</text>
</g>
<!-- Node8&#45;&gt;Node2 -->
<g id="edge13" class="edge">
<title>Node8&#45;&gt;Node2</title>
<path fill="none" stroke="#404040" d="M383.54,-1208.79C462.79,-1183.37 591.45,-1128.95 651.49,-1031 678.31,-987.26 676.99,-621.29 678.49,-570 679.96,-519.8 694.81,-504.5 678.49,-457 677.66,-454.58 676.77,-452.18 675.83,-449.78"/>
<polygon fill="none" stroke="#404040" points="675.78,-449.67 669.74,-445.74 671.04,-438.65 677.08,-442.58 675.78,-449.67"/>
<text text-anchor="middle" x="724.99" y="-851" font-family="Helvetica,sans-Serif" font-size="10.00"> +numNeighbors</text>
<text text-anchor="middle" x="724.99" y="-840" font-family="Helvetica,sans-Serif" font-size="10.00">+numPoints</text>
<text text-anchor="middle" x="724.99" y="-829" font-family="Helvetica,sans-Serif" font-size="10.00">+nDim</text>
<text text-anchor="middle" x="724.99" y="-818" font-family="Helvetica,sans-Serif" font-size="10.00">+nRealDim</text>
<text text-anchor="middle" x="724.99" y="-807" font-family="Helvetica,sans-Serif" font-size="10.00">+nOrder</text>
<text text-anchor="middle" x="724.99" y="-796" font-family="Helvetica,sans-Serif" font-size="10.00">+numLocalVertices</text>
<text text-anchor="middle" x="724.99" y="-785" font-family="Helvetica,sans-Serif" font-size="10.00">+numLocalPoints</text>
<text text-anchor="middle" x="724.99" y="-774" font-family="Helvetica,sans-Serif" font-size="10.00">+numVertices</text>
<text text-anchor="middle" x="724.99" y="-763" font-family="Helvetica,sans-Serif" font-size="10.00">+numLocalEdges</text>
</g>
<!-- Node8&#45;&gt;Node3 -->
<g id="edge7" class="edge">
<title>Node8&#45;&gt;Node3</title>
<path fill="none" stroke="#404040" d="M383.85,-1217.61C480.96,-1203.83 649.91,-1178.79 660.49,-1170 704.51,-1133.44 659.65,-1084.55 704.49,-1049 757.45,-1007.01 800.37,-1070.1 855.49,-1031 857.01,-1029.92 858.52,-1028.81 860,-1027.68"/>
<polygon fill="none" stroke="#404040" points="860.23,-1027.49 862.3,-1020.58 869.48,-1019.84 867.4,-1026.74 860.23,-1027.49"/>
<text text-anchor="middle" x="760.49" y="-1162" font-family="Helvetica,sans-Serif" font-size="10.00"> +numPoints</text>
<text text-anchor="middle" x="760.49" y="-1151" font-family="Helvetica,sans-Serif" font-size="10.00">+nbPtsPerFace</text>
<text text-anchor="middle" x="760.49" y="-1140" font-family="Helvetica,sans-Serif" font-size="10.00">+nbPtsPerEdge</text>
<text text-anchor="middle" x="760.49" y="-1129" font-family="Helvetica,sans-Serif" font-size="10.00">+numNormals</text>
<text text-anchor="middle" x="760.49" y="-1118" font-family="Helvetica,sans-Serif" font-size="10.00">+nbPtsPerVolume</text>
<text text-anchor="middle" x="760.49" y="-1107" font-family="Helvetica,sans-Serif" font-size="10.00">+numEdges</text>
<text text-anchor="middle" x="760.49" y="-1096" font-family="Helvetica,sans-Serif" font-size="10.00">+nDim</text>
<text text-anchor="middle" x="760.49" y="-1085" font-family="Helvetica,sans-Serif" font-size="10.00">+numFaces</text>
<text text-anchor="middle" x="760.49" y="-1074" font-family="Helvetica,sans-Serif" font-size="10.00">+numTopologicalFaces</text>
<text text-anchor="middle" x="760.49" y="-1063" font-family="Helvetica,sans-Serif" font-size="10.00">+numGeometricFaces</text>
<text text-anchor="middle" x="760.49" y="-1052" font-family="Helvetica,sans-Serif" font-size="10.00">...</text>
</g>
<!-- Node14 -->
<g id="node14" class="node">
<title>Node14</title>
<g id="a_node14"><a xlink:href="classFeel_1_1SubFaceOfNone.html" target="_top" xlink:title=" ">
<polygon fill="white" stroke="black" points="190.49,-457.5 190.49,-569.5 338.49,-569.5 338.49,-457.5 190.49,-457.5"/>
<text text-anchor="middle" x="264.49" y="-557.5" font-family="Helvetica,sans-Serif" font-size="10.00">Feel::SubFaceOfNone&lt; 0 &gt;</text>
<polyline fill="none" stroke="black" points="190.49,-550.5 338.49,-550.5 "/>
<text text-anchor="middle" x="264.49" y="-538.5" font-family="Helvetica,sans-Serif" font-size="10.00"> </text>
<polyline fill="none" stroke="black" points="190.49,-531.5 338.49,-531.5 "/>
<text text-anchor="start" x="198.49" y="-519.5" font-family="Helvetica,sans-Serif" font-size="10.00">+ element()</text>
<text text-anchor="start" x="198.49" y="-508.5" font-family="Helvetica,sans-Serif" font-size="10.00">+ isGhostFace()</text>
<text text-anchor="start" x="198.49" y="-497.5" font-family="Helvetica,sans-Serif" font-size="10.00">+ isInterProcessDomain()</text>
<text text-anchor="start" x="198.49" y="-486.5" font-family="Helvetica,sans-Serif" font-size="10.00">+ operator=()</text>
<text text-anchor="start" x="198.49" y="-475.5" font-family="Helvetica,sans-Serif" font-size="10.00">+ operator=()</text>
<text text-anchor="start" x="198.49" y="-464.5" font-family="Helvetica,sans-Serif" font-size="10.00">and 7 more...</text>
</a>
</g>
</g>
<!-- Node8&#45;&gt;Node14 -->
<g id="edge16" class="edge">
<title>Node8&#45;&gt;Node14</title>
<path fill="none" stroke="#404040" d="M280.73,-1199.44C239.51,-1165.17 174.02,-1102.39 147.49,-1031 113.2,-938.72 94.44,-670.92 147.49,-588 155.77,-575.06 165.29,-577.49 179.32,-572.75"/>
<polygon fill="none" stroke="#404040" points="179.47,-572.68 183.27,-566.55 190.39,-567.7 186.59,-573.83 179.47,-572.68"/>
<text text-anchor="middle" x="266.49" y="-1107" font-family="Helvetica,sans-Serif" font-size="10.00"> +nDim</text>
</g>
<!-- Node9 -->
<g id="node9" class="node">
<title>Node9</title>
<g id="a_node9"><a xlink:href="classbool.html" target="_top" xlink:title=" ">
<polygon fill="white" stroke="black" points="1416.49,-1199.5 1416.49,-1256.5 1454.49,-1256.5 1454.49,-1199.5 1416.49,-1199.5"/>
<text text-anchor="middle" x="1435.49" y="-1244.5" font-family="Helvetica,sans-Serif" font-size="10.00">bool</text>
<polyline fill="none" stroke="black" points="1416.49,-1237.5 1454.49,-1237.5 "/>
<text text-anchor="middle" x="1435.49" y="-1225.5" font-family="Helvetica,sans-Serif" font-size="10.00"> </text>
<polyline fill="none" stroke="black" points="1416.49,-1218.5 1454.49,-1218.5 "/>
<text text-anchor="middle" x="1435.49" y="-1206.5" font-family="Helvetica,sans-Serif" font-size="10.00"> </text>
</a>
</g>
</g>
<!-- Node9&#45;&gt;Node1 -->
<g id="edge18" class="edge">
<title>Node9&#45;&gt;Node1</title>
<path fill="none" stroke="#404040" d="M1437.86,-1199.4C1439.91,-1163.47 1439.98,-1099.32 1420.49,-1049 1238.5,-579.04 1108.88,-460.95 688.49,-183 625.74,-141.51 545.18,-113.37 483.35,-96.09"/>
<polygon fill="none" stroke="#404040" points="483.21,-96.06 476.37,-98.33 471.64,-92.89 478.48,-90.61 483.21,-96.06"/>
<text text-anchor="middle" x="1190.99" y="-511" font-family="Helvetica,sans-Serif" font-size="10.00"> +condition</text>
</g>
<!-- Node9&#45;&gt;Node3 -->
<g id="edge8" class="edge">
<title>Node9&#45;&gt;Node3</title>
<path fill="none" stroke="#404040" d="M1419.23,-1199.27C1415.79,-1195.04 1411.86,-1191.07 1407.49,-1188 1383.68,-1171.24 1369.53,-1184.87 1344.49,-1170 1279.64,-1131.48 1279.85,-1101.3 1225.49,-1049 1174.06,-999.52 1115.43,-945.9 1066.69,-902.05"/>
<polygon fill="none" stroke="#404040" points="1066.64,-902 1059.5,-900.97 1057.71,-893.98 1064.85,-895.02 1066.64,-902"/>
<text text-anchor="middle" x="1382.49" y="-1112.5" font-family="Helvetica,sans-Serif" font-size="10.00"> +is_hypercube</text>
<text text-anchor="middle" x="1382.49" y="-1101.5" font-family="Helvetica,sans-Serif" font-size="10.00">+is_simplex</text>
</g>
<!-- Node10 -->
<g id="node10" class="node">
<title>Node10</title>
<g id="a_node10"><a xlink:title=" ">
<polygon fill="white" stroke="#bfbfbf" points="588.49,-1199.5 588.49,-1256.5 710.49,-1256.5 710.49,-1199.5 588.49,-1199.5"/>
<text text-anchor="middle" x="649.49" y="-1244.5" font-family="Helvetica,sans-Serif" font-size="10.00">static const size_type</text>
<polyline fill="none" stroke="#bfbfbf" points="588.49,-1237.5 710.49,-1237.5 "/>
<text text-anchor="middle" x="649.49" y="-1225.5" font-family="Helvetica,sans-Serif" font-size="10.00"> </text>
<polyline fill="none" stroke="#bfbfbf" points="588.49,-1218.5 710.49,-1218.5 "/>
<text text-anchor="middle" x="649.49" y="-1206.5" font-family="Helvetica,sans-Serif" font-size="10.00"> </text>
</a>
</g>
</g>
<!-- Node10&#45;&gt;Node2 -->
<g id="edge14" class="edge">
<title>Node10&#45;&gt;Node2</title>
<path fill="none" stroke="#404040" d="M694.93,-1199.33C702.94,-1195.15 711.32,-1191.17 719.49,-1188 751.85,-1175.43 773.96,-1197.23 795.49,-1170 806.5,-1156.09 812.92,-717.09 777.49,-588 761.37,-529.26 725.08,-473.99 686.99,-428.56"/>
<polygon fill="none" stroke="#404040" points="686.89,-428.44 679.95,-426.47 679.1,-419.31 686.04,-421.28 686.89,-428.44"/>
<text text-anchor="middle" x="824.49" y="-807" font-family="Helvetica,sans-Serif" font-size="10.00"> +Shape</text>
</g>
<!-- Node10&#45;&gt;Node3 -->
<g id="edge9" class="edge">
<title>Node10&#45;&gt;Node3</title>
<path fill="none" stroke="#404040" d="M694.02,-1199.34C702.27,-1195.04 710.98,-1191.04 719.49,-1188 762.44,-1172.69 788.59,-1202.57 820.49,-1170 858.59,-1131.11 816.25,-1098.22 839.49,-1049 844.06,-1039.32 849.53,-1039.89 855.49,-1031 858.02,-1027.24 860.52,-1023.41 862.99,-1019.53"/>
<polygon fill="none" stroke="#404040" points="863.13,-1019.31 862.91,-1012.1 869.48,-1009.12 869.7,-1016.33 863.13,-1019.31"/>
<text text-anchor="middle" x="869.99" y="-1112.5" font-family="Helvetica,sans-Serif" font-size="10.00"> +Geometry</text>
<text text-anchor="middle" x="869.99" y="-1101.5" font-family="Helvetica,sans-Serif" font-size="10.00">+Shape</text>
</g>
<!-- Node11 -->
<g id="node11" class="node">
<title>Node11</title>
<g id="a_node11"><a xlink:title=" ">
<polygon fill="white" stroke="#bfbfbf" points="156.99,-753.5 156.99,-865.5 361.99,-865.5 361.99,-753.5 156.99,-753.5"/>
<text text-anchor="start" x="164.99" y="-853.5" font-family="Helvetica,sans-Serif" font-size="10.00">mpl::if_&lt; mpl::bool</text>
<text text-anchor="start" x="164.99" y="-842.5" font-family="Helvetica,sans-Serif" font-size="10.00">_&lt; UseMeasuresStorage</text>
<text text-anchor="start" x="164.99" y="-831.5" font-family="Helvetica,sans-Serif" font-size="10.00"> &gt;, mpl::identity&lt; GeoNDMeasures</text>
<text text-anchor="start" x="164.99" y="-820.5" font-family="Helvetica,sans-Serif" font-size="10.00">Storage&lt; double &gt; &gt;, mpl::identity</text>
<text text-anchor="start" x="164.99" y="-809.5" font-family="Helvetica,sans-Serif" font-size="10.00">&lt; GeoNDNoMeasuresStorage&lt; double</text>
<text text-anchor="middle" x="259.49" y="-798.5" font-family="Helvetica,sans-Serif" font-size="10.00"> &gt; &gt; &gt;::type::type</text>
<polyline fill="none" stroke="#bfbfbf" points="156.99,-791.5 361.99,-791.5 "/>
<text text-anchor="middle" x="259.49" y="-779.5" font-family="Helvetica,sans-Serif" font-size="10.00"> </text>
<polyline fill="none" stroke="#bfbfbf" points="156.99,-772.5 361.99,-772.5 "/>
<text text-anchor="middle" x="259.49" y="-760.5" font-family="Helvetica,sans-Serif" font-size="10.00"> </text>
</a>
</g>
</g>
<!-- Node11&#45;&gt;Node2 -->
<g id="edge10" class="edge">
<title>Node11&#45;&gt;Node2</title>
<path fill="none" stroke="midnightblue" d="M285.38,-743.76C315.91,-670.95 370.65,-550.66 434.49,-457 439.94,-449.01 445.8,-441 451.91,-433.08"/>
<polygon fill="none" stroke="midnightblue" points="282.03,-742.69 281.42,-753.27 288.5,-745.39 282.03,-742.69"/>
</g>
<!-- Node12 -->
<g id="node12" class="node">
<title>Node12</title>
<g id="a_node12"><a xlink:title=" ">
<polygon fill="white" stroke="#bfbfbf" points="379.99,-781 379.99,-838 534.99,-838 534.99,-781 379.99,-781"/>
<text text-anchor="middle" x="457.49" y="-826" font-family="Helvetica,sans-Serif" font-size="10.00">static constexpr uint16_type</text>
<polyline fill="none" stroke="#bfbfbf" points="379.99,-819 534.99,-819 "/>
<text text-anchor="middle" x="457.49" y="-807" font-family="Helvetica,sans-Serif" font-size="10.00"> </text>
<polyline fill="none" stroke="#bfbfbf" points="379.99,-800 534.99,-800 "/>
<text text-anchor="middle" x="457.49" y="-788" font-family="Helvetica,sans-Serif" font-size="10.00"> </text>
</a>
</g>
</g>
<!-- Node12&#45;&gt;Node2 -->
<g id="edge11" class="edge">
<title>Node12&#45;&gt;Node2</title>
<path fill="none" stroke="#404040" d="M452.01,-780.68C441.25,-720.01 421.56,-572.04 459.49,-457 460.29,-454.57 461.15,-452.15 462.06,-449.73"/>
<polygon fill="none" stroke="#404040" points="462.12,-449.6 460.71,-442.53 466.7,-438.51 468.11,-445.58 462.12,-449.6"/>
<text text-anchor="middle" x="508.99" y="-511" font-family="Helvetica,sans-Serif" font-size="10.00"> +meas_quad_order</text>
</g>
<!-- Node13 -->
<g id="node13" class="node">
<title>Node13</title>
<g id="a_node13"><a xlink:href="classstatic_01const_01int.html" target="_top" xlink:title=" ">
<polygon fill="white" stroke="black" points="552.99,-781 552.99,-838 641.99,-838 641.99,-781 552.99,-781"/>
<text text-anchor="middle" x="597.49" y="-826" font-family="Helvetica,sans-Serif" font-size="10.00">static const int</text>
<polyline fill="none" stroke="black" points="552.99,-819 641.99,-819 "/>
<text text-anchor="middle" x="597.49" y="-807" font-family="Helvetica,sans-Serif" font-size="10.00"> </text>
<polyline fill="none" stroke="black" points="552.99,-800 641.99,-800 "/>
<text text-anchor="middle" x="597.49" y="-788" font-family="Helvetica,sans-Serif" font-size="10.00"> </text>
</a>
</g>
</g>
<!-- Node13&#45;&gt;Node2 -->
<g id="edge12" class="edge">
<title>Node13&#45;&gt;Node2</title>
<path fill="none" stroke="#404040" d="M592.73,-780.71C585.38,-736.33 571.6,-646.66 566.49,-570 563.92,-531.4 562.97,-489.49 562.84,-450.88"/>
<polygon fill="none" stroke="#404040" points="562.84,-450.74 558.83,-444.75 562.82,-438.74 566.83,-444.74 562.84,-450.74"/>
<text text-anchor="middle" x="622.49" y="-522" font-family="Helvetica,sans-Serif" font-size="10.00"> +numEdges</text>
<text text-anchor="middle" x="622.49" y="-511" font-family="Helvetica,sans-Serif" font-size="10.00">+numFaces</text>
<text text-anchor="middle" x="622.49" y="-500" font-family="Helvetica,sans-Serif" font-size="10.00">+numTopologicalFaces</text>
</g>
<!-- Node14&#45;&gt;Node1 -->
<g id="edge15" class="edge">
<title>Node14&#45;&gt;Node1</title>
<path fill="none" stroke="midnightblue" d="M282.91,-447.36C305.76,-366.55 344.59,-229.25 368.25,-145.57"/>
<polygon fill="none" stroke="midnightblue" points="279.43,-446.83 280.07,-457.41 286.16,-448.74 279.43,-446.83"/>
</g>
</g>
</svg>
        <g id="navigator" transform="translate(0 0)" fill="#404254">
                <rect fill="#f2f5e9" fill-opacity="0.5" stroke="#606060" stroke-width=".5" x="0" y="0" width="60" height="60"/>
                <use id="zoomplus" xlink:href="#zoomPlus" x="17" y="9" onmousedown="handleZoom(evt,'in')"/>
                <use id="zoomminus" xlink:href="#zoomMin" x="42" y="9" onmousedown="handleZoom(evt,'out')"/>
                <use id="reset" xlink:href="#resetDef" x="30" y="36" onmousedown="handleReset()"/>
                <g id="arrowUp" xlink:href="#dirArrow" transform="translate(30 24)" onmousedown="handlePan(0,-1)">
                  <use xlink:href="#rim" fill="#404040">
                        <set attributeName="fill" to="#808080" begin="arrowUp.mouseover" end="arrowUp.mouseout"/>
                  </use>
                  <path fill="none" stroke="white" stroke-width="1.5" d="M0,-3.0v7 M-2.5,-0.5L0,-3.0L2.5,-0.5"/>
                </g>
                <g id="arrowRight" xlink:href="#dirArrow" transform="rotate(90) translate(36 -43)" onmousedown="handlePan(1,0)">
                  <use xlink:href="#rim" fill="#404040">
                        <set attributeName="fill" to="#808080" begin="arrowRight.mouseover" end="arrowRight.mouseout"/>
                  </use>
                  <path fill="none" stroke="white" stroke-width="1.5" d="M0,-3.0v7 M-2.5,-0.5L0,-3.0L2.5,-0.5"/>
                </g>
                <g id="arrowDown" xlink:href="#dirArrow" transform="rotate(180) translate(-30 -48)" onmousedown="handlePan(0,1)">
                  <use xlink:href="#rim" fill="#404040">
                        <set attributeName="fill" to="#808080" begin="arrowDown.mouseover" end="arrowDown.mouseout"/>
                  </use>
                  <path fill="none" stroke="white" stroke-width="1.5" d="M0,-3.0v7 M-2.5,-0.5L0,-3.0L2.5,-0.5"/>
                </g>
                <g id="arrowLeft" xlink:href="#dirArrow" transform="rotate(270) translate(-36 17)" onmousedown="handlePan(-1,0)">
                  <use xlink:href="#rim" fill="#404040">
                        <set attributeName="fill" to="#808080" begin="arrowLeft.mouseover" end="arrowLeft.mouseout"/>
                  </use>
                  <path fill="none" stroke="white" stroke-width="1.5" d="M0,-3.0v7 M-2.5,-0.5L0,-3.0L2.5,-0.5"/>
                </g>
        </g>
        <svg viewBox="0 0 15 15" width="100%" height="30px" preserveAspectRatio="xMaxYMin meet">
         <g id="arrow_out" transform="scale(0.3 0.3)">
          <a xlink:href="classFeel_1_1GeoElement1D__coll__graph_org.svg" target="_base">
           <rect id="button" ry="5" rx="5" y="6" x="6" height="38" width="38"
                fill="#f2f5e9" fill-opacity="0.5" stroke="#606060" stroke-width="1.0"/>
           <path id="arrow"
             d="M 11.500037,31.436501 C 11.940474,20.09759 22.043105,11.32322 32.158766,21.979434 L 37.068811,17.246167 C 37.068811,17.246167 37.088388,32 37.088388,32 L 22.160133,31.978069 C 22.160133,31.978069 26.997745,27.140456 26.997745,27.140456 C 18.528582,18.264221 13.291696,25.230495 11.500037,31.436501 z"
             style="fill:#404040;"/>
          </a>
         </g>
        </svg>
</svg>
