<?xml version="1.0" encoding="UTF-8" standalone="no"?>
<!DOCTYPE svg PUBLIC "-//W3C//DTD SVG 1.1//EN"
 "http://www.w3.org/Graphics/SVG/1.1/DTD/svg11.dtd">
<!-- Generated by graphviz version 2.43.0 (0)
 -->
<!-- Title: Feel::Mesh2D&lt; Shape, T, IndexT &gt; Pages: 1 -->
<svg width="873pt" height="798pt"
 viewBox="0.00 0.00 872.50 798.00" xmlns="http://www.w3.org/2000/svg" xmlns:xlink="http://www.w3.org/1999/xlink">
<g id="graph0" class="graph" transform="scale(1 1) rotate(0) translate(4 794)">
<title>Feel::Mesh2D&lt; Shape, T, IndexT &gt;</title>
<polygon fill="white" stroke="transparent" points="-4,4 -4,-794 868.5,-794 868.5,4 -4,4"/>
<!-- Node1 -->
<g id="node1" class="node">
<title>Node1</title>
<g id="a_node1"><a xlink:title="2D mesh class">
<polygon fill="#bfbfbf" stroke="black" points="332,-0.5 332,-332.5 494,-332.5 494,-0.5 332,-0.5"/>
<text text-anchor="start" x="340" y="-320.5" font-family="Helvetica,sans-Serif" font-size="10.00">Feel::Mesh2D&lt; Shape,</text>
<text text-anchor="middle" x="413" y="-309.5" font-family="Helvetica,sans-Serif" font-size="10.00"> T, IndexT &gt;</text>
<polyline fill="none" stroke="black" points="332,-302.5 494,-302.5 "/>
<text text-anchor="middle" x="413" y="-290.5" font-family="Helvetica,sans-Serif" font-size="10.00"> </text>
<polyline fill="none" stroke="black" points="332,-283.5 494,-283.5 "/>
<text text-anchor="start" x="340" y="-271.5" font-family="Helvetica,sans-Serif" font-size="10.00">* return_type</text>
<text text-anchor="start" x="340" y="-260.5" font-family="Helvetica,sans-Serif" font-size="10.00">* super_visitable</text>
<text text-anchor="start" x="340" y="-249.5" font-family="Helvetica,sans-Serif" font-size="10.00">* super</text>
<text text-anchor="start" x="340" y="-238.5" font-family="Helvetica,sans-Serif" font-size="10.00">* index_type</text>
<text text-anchor="start" x="340" y="-227.5" font-family="Helvetica,sans-Serif" font-size="10.00">* size_type</text>
<text text-anchor="start" x="340" y="-216.5" font-family="Helvetica,sans-Serif" font-size="10.00">and 28 more...</text>
<text text-anchor="start" x="340" y="-205.5" font-family="Helvetica,sans-Serif" font-size="10.00">* boost::serialization</text>
<text text-anchor="start" x="340" y="-194.5" font-family="Helvetica,sans-Serif" font-size="10.00">::access</text>
<text text-anchor="start" x="340" y="-183.5" font-family="Helvetica,sans-Serif" font-size="10.00">* beginEdge()</text>
<text text-anchor="start" x="340" y="-172.5" font-family="Helvetica,sans-Serif" font-size="10.00">* endEdge()</text>
<text text-anchor="start" x="340" y="-161.5" font-family="Helvetica,sans-Serif" font-size="10.00">* edges()</text>
<text text-anchor="start" x="340" y="-150.5" font-family="Helvetica,sans-Serif" font-size="10.00">* setWorldComm()</text>
<text text-anchor="start" x="340" y="-139.5" font-family="Helvetica,sans-Serif" font-size="10.00">and 8 more...</text>
<text text-anchor="start" x="340" y="-128.5" font-family="Helvetica,sans-Serif" font-size="10.00">* Mesh2D()</text>
<text text-anchor="start" x="340" y="-117.5" font-family="Helvetica,sans-Serif" font-size="10.00">* Mesh2D()</text>
<text text-anchor="start" x="340" y="-106.5" font-family="Helvetica,sans-Serif" font-size="10.00">* Mesh2D()</text>
<text text-anchor="start" x="340" y="-95.5" font-family="Helvetica,sans-Serif" font-size="10.00">* ~Mesh2D()</text>
<text text-anchor="start" x="340" y="-84.5" font-family="Helvetica,sans-Serif" font-size="10.00">* operator=()</text>
<text text-anchor="start" x="340" y="-73.5" font-family="Helvetica,sans-Serif" font-size="10.00">* operator=()</text>
<text text-anchor="start" x="340" y="-62.5" font-family="Helvetica,sans-Serif" font-size="10.00">* isEmpty()</text>
<text text-anchor="start" x="340" y="-51.5" font-family="Helvetica,sans-Serif" font-size="10.00">* numElements()</text>
<text text-anchor="start" x="340" y="-40.5" font-family="Helvetica,sans-Serif" font-size="10.00">* numLocalEdges()</text>
<text text-anchor="start" x="340" y="-29.5" font-family="Helvetica,sans-Serif" font-size="10.00">* numLocalFaces()</text>
<text text-anchor="start" x="340" y="-18.5" font-family="Helvetica,sans-Serif" font-size="10.00">* numLocalTopologicalFaces()</text>
<text text-anchor="start" x="340" y="-7.5" font-family="Helvetica,sans-Serif" font-size="10.00">and 4 more...</text>
</a>
</g>
</g>
<!-- Node2 -->
<g id="node2" class="node">
<title>Node2</title>
<g id="a_node2"><a xlink:href="classFeel_1_1VisitableBase.html" target="_top" xlink:title=" ">
<polygon fill="white" stroke="black" points="0,-534.5 0,-624.5 126,-624.5 126,-534.5 0,-534.5"/>
<text text-anchor="middle" x="63" y="-612.5" font-family="Helvetica,sans-Serif" font-size="10.00">Feel::VisitableBase&lt;&gt;</text>
<polyline fill="none" stroke="black" points="0,-605.5 126,-605.5 "/>
<text text-anchor="middle" x="63" y="-593.5" font-family="Helvetica,sans-Serif" font-size="10.00"> </text>
<polyline fill="none" stroke="black" points="0,-586.5 126,-586.5 "/>
<text text-anchor="start" x="8" y="-574.5" font-family="Helvetica,sans-Serif" font-size="10.00">+ accept()</text>
<text text-anchor="start" x="8" y="-563.5" font-family="Helvetica,sans-Serif" font-size="10.00">+ accept()</text>
<text text-anchor="start" x="8" y="-552.5" font-family="Helvetica,sans-Serif" font-size="10.00">+ ~VisitableBase()</text>
<text text-anchor="start" x="8" y="-541.5" font-family="Helvetica,sans-Serif" font-size="10.00"># acceptImpl()</text>
</a>
</g>
</g>
<!-- Node2&#45;&gt;Node1 -->
<g id="edge1" class="edge">
<title>Node2&#45;&gt;Node1</title>
<path fill="none" stroke="midnightblue" d="M72.13,-524.47C81.82,-479.45 100.64,-415.41 135,-369 186.79,-299.06 269.92,-243.35 331.81,-208.4"/>
<polygon fill="none" stroke="midnightblue" points="68.68,-523.84 70.08,-534.34 75.54,-525.26 68.68,-523.84"/>
</g>
<!-- Node3 -->
<g id="node3" class="node">
<title>Node3</title>
<g id="a_node3"><a xlink:href="classFeel_1_1MeshBase.html" target="_top" xlink:title=" ">
<polygon fill="white" stroke="black" points="144.5,-369.5 144.5,-789.5 317.5,-789.5 317.5,-369.5 144.5,-369.5"/>
<text text-anchor="start" x="152.5" y="-777.5" font-family="Helvetica,sans-Serif" font-size="10.00">Feel::MeshBase&lt; uint32</text>
<text text-anchor="middle" x="231" y="-766.5" font-family="Helvetica,sans-Serif" font-size="10.00">_type &gt;</text>
<polyline fill="none" stroke="black" points="144.5,-759.5 317.5,-759.5 "/>
<text text-anchor="middle" x="231" y="-747.5" font-family="Helvetica,sans-Serif" font-size="10.00"> </text>
<polyline fill="none" stroke="black" points="144.5,-740.5 317.5,-740.5 "/>
<text text-anchor="start" x="152.5" y="-728.5" font-family="Helvetica,sans-Serif" font-size="10.00">* super</text>
<text text-anchor="start" x="152.5" y="-717.5" font-family="Helvetica,sans-Serif" font-size="10.00">* index_type</text>
<text text-anchor="start" x="152.5" y="-706.5" font-family="Helvetica,sans-Serif" font-size="10.00">* index_t</text>
<text text-anchor="start" x="152.5" y="-695.5" font-family="Helvetica,sans-Serif" font-size="10.00">* size_type</text>
<text text-anchor="start" x="152.5" y="-684.5" font-family="Helvetica,sans-Serif" font-size="10.00">* face_processor_type</text>
<text text-anchor="start" x="152.5" y="-673.5" font-family="Helvetica,sans-Serif" font-size="10.00">* smd_type</text>
<text text-anchor="start" x="152.5" y="-662.5" font-family="Helvetica,sans-Serif" font-size="10.00">* smd_ptrtype</text>
<text text-anchor="start" x="152.5" y="-651.5" font-family="Helvetica,sans-Serif" font-size="10.00">* boost::serialization</text>
<text text-anchor="start" x="152.5" y="-640.5" font-family="Helvetica,sans-Serif" font-size="10.00">::access</text>
<text text-anchor="start" x="152.5" y="-629.5" font-family="Helvetica,sans-Serif" font-size="10.00">* M_markername</text>
<text text-anchor="start" x="152.5" y="-618.5" font-family="Helvetica,sans-Serif" font-size="10.00">* M_topodim</text>
<text text-anchor="start" x="152.5" y="-607.5" font-family="Helvetica,sans-Serif" font-size="10.00">* M_realdim</text>
<text text-anchor="start" x="152.5" y="-596.5" font-family="Helvetica,sans-Serif" font-size="10.00">* M_components</text>
<text text-anchor="start" x="152.5" y="-585.5" font-family="Helvetica,sans-Serif" font-size="10.00">and 66 more...</text>
<text text-anchor="start" x="152.5" y="-574.5" font-family="Helvetica,sans-Serif" font-size="10.00">* MeshBase()</text>
<text text-anchor="start" x="152.5" y="-563.5" font-family="Helvetica,sans-Serif" font-size="10.00">* MeshBase()</text>
<text text-anchor="start" x="152.5" y="-552.5" font-family="Helvetica,sans-Serif" font-size="10.00">* MeshBase()</text>
<text text-anchor="start" x="152.5" y="-541.5" font-family="Helvetica,sans-Serif" font-size="10.00">* MeshBase()</text>
<text text-anchor="start" x="152.5" y="-530.5" font-family="Helvetica,sans-Serif" font-size="10.00">* MeshBase()</text>
<text text-anchor="start" x="152.5" y="-519.5" font-family="Helvetica,sans-Serif" font-size="10.00">* MeshBase()</text>
<text text-anchor="start" x="152.5" y="-508.5" font-family="Helvetica,sans-Serif" font-size="10.00">* ~MeshBase()</text>
<text text-anchor="start" x="152.5" y="-497.5" font-family="Helvetica,sans-Serif" font-size="10.00">* operator=()</text>
<text text-anchor="start" x="152.5" y="-486.5" font-family="Helvetica,sans-Serif" font-size="10.00">* operator=()</text>
<text text-anchor="start" x="152.5" y="-475.5" font-family="Helvetica,sans-Serif" font-size="10.00">* shared_from_this_meshbase()</text>
<text text-anchor="start" x="152.5" y="-464.5" font-family="Helvetica,sans-Serif" font-size="10.00">* shared_from_this_meshbase()</text>
<text text-anchor="start" x="152.5" y="-453.5" font-family="Helvetica,sans-Serif" font-size="10.00">* isUpdatedForUse()</text>
<text text-anchor="start" x="152.5" y="-442.5" font-family="Helvetica,sans-Serif" font-size="10.00">* setTopologicalDimension()</text>
<text text-anchor="start" x="152.5" y="-431.5" font-family="Helvetica,sans-Serif" font-size="10.00">* setRealDimension()</text>
<text text-anchor="start" x="152.5" y="-420.5" font-family="Helvetica,sans-Serif" font-size="10.00">and 14 more...</text>
<text text-anchor="start" x="152.5" y="-409.5" font-family="Helvetica,sans-Serif" font-size="10.00">* setNumberOfPartitions()</text>
<text text-anchor="start" x="152.5" y="-398.5" font-family="Helvetica,sans-Serif" font-size="10.00">* setNumVertices()</text>
<text text-anchor="start" x="152.5" y="-387.5" font-family="Helvetica,sans-Serif" font-size="10.00">* setComponents()</text>
<text text-anchor="start" x="152.5" y="-376.5" font-family="Helvetica,sans-Serif" font-size="10.00">* setParametric()</text>
</a>
</g>
</g>
<!-- Node3&#45;&gt;Node1 -->
<g id="edge2" class="edge">
<title>Node3&#45;&gt;Node1</title>
<path fill="none" stroke="midnightblue" d="M321.81,-373.44C327.88,-359.72 333.96,-346 339.92,-332.52"/>
<polygon fill="none" stroke="midnightblue" points="318.45,-372.37 317.6,-382.93 324.85,-375.2 318.45,-372.37"/>
</g>
<!-- Node4 -->
<g id="node4" class="node">
<title>Node4</title>
<g id="a_node4"><a xlink:href="classElements.html" target="_top" xlink:title=" ">
<polygon fill="white" stroke="black" points="336,-551 336,-608 490,-608 490,-551 336,-551"/>
<text text-anchor="middle" x="413" y="-596" font-family="Helvetica,sans-Serif" font-size="10.00">Elements&lt; Shape, double &gt;</text>
<polyline fill="none" stroke="black" points="336,-589 490,-589 "/>
<text text-anchor="middle" x="413" y="-577" font-family="Helvetica,sans-Serif" font-size="10.00"> </text>
<polyline fill="none" stroke="black" points="336,-570 490,-570 "/>
<text text-anchor="middle" x="413" y="-558" font-family="Helvetica,sans-Serif" font-size="10.00"> </text>
</a>
</g>
</g>
<!-- Node4&#45;&gt;Node1 -->
<g id="edge3" class="edge">
<title>Node4&#45;&gt;Node1</title>
<path fill="none" stroke="midnightblue" d="M413,-540.81C413,-493.46 413,-409.12 413,-332.58"/>
<polygon fill="none" stroke="midnightblue" points="409.5,-540.89 413,-550.89 416.5,-540.89 409.5,-540.89"/>
</g>
<!-- Node5 -->
<g id="node5" class="node">
<title>Node5</title>
<g id="a_node5"><a xlink:href="classPoints.html" target="_top" xlink:title=" ">
<polygon fill="white" stroke="black" points="508.5,-545.5 508.5,-613.5 653.5,-613.5 653.5,-545.5 508.5,-545.5"/>
<text text-anchor="start" x="516.5" y="-601.5" font-family="Helvetica,sans-Serif" font-size="10.00">Points&lt; Shape::nRealDim,</text>
<text text-anchor="middle" x="581" y="-590.5" font-family="Helvetica,sans-Serif" font-size="10.00"> double &gt;</text>
<polyline fill="none" stroke="black" points="508.5,-583.5 653.5,-583.5 "/>
<text text-anchor="middle" x="581" y="-571.5" font-family="Helvetica,sans-Serif" font-size="10.00"> </text>
<polyline fill="none" stroke="black" points="508.5,-564.5 653.5,-564.5 "/>
<text text-anchor="middle" x="581" y="-552.5" font-family="Helvetica,sans-Serif" font-size="10.00"> </text>
</a>
</g>
</g>
<!-- Node5&#45;&gt;Node1 -->
<g id="edge4" class="edge">
<title>Node5&#45;&gt;Node1</title>
<path fill="none" stroke="midnightblue" d="M564.76,-535.9C548.48,-493.47 522.53,-426.52 499,-369 494.14,-357.12 489.07,-344.87 483.92,-332.55"/>
<polygon fill="none" stroke="midnightblue" points="561.54,-537.27 568.38,-545.36 568.07,-534.77 561.54,-537.27"/>
</g>
<!-- Node6 -->
<g id="node6" class="node">
<title>Node6</title>
<g id="a_node6"><a xlink:href="classFaces.html" target="_top" xlink:title=" ">
<polygon fill="white" stroke="black" points="671.5,-534.5 671.5,-624.5 864.5,-624.5 864.5,-534.5 671.5,-534.5"/>
<text text-anchor="start" x="679.5" y="-612.5" font-family="Helvetica,sans-Serif" font-size="10.00">Faces&lt; Shape::template</text>
<text text-anchor="start" x="679.5" y="-601.5" font-family="Helvetica,sans-Serif" font-size="10.00"> shape&lt; 1, Shape::nOrder,</text>
<text text-anchor="start" x="679.5" y="-590.5" font-family="Helvetica,sans-Serif" font-size="10.00"> Shape::nRealDim &gt;, Elements</text>
<text text-anchor="middle" x="768" y="-579.5" font-family="Helvetica,sans-Serif" font-size="10.00">&lt; Shape, double &gt;::element_type &gt;</text>
<polyline fill="none" stroke="black" points="671.5,-572.5 864.5,-572.5 "/>
<text text-anchor="middle" x="768" y="-560.5" font-family="Helvetica,sans-Serif" font-size="10.00"> </text>
<polyline fill="none" stroke="black" points="671.5,-553.5 864.5,-553.5 "/>
<text text-anchor="middle" x="768" y="-541.5" font-family="Helvetica,sans-Serif" font-size="10.00"> </text>
</a>
</g>
</g>
<!-- Node6&#45;&gt;Node1 -->
<g id="edge5" class="edge">
<title>Node6&#45;&gt;Node1</title>
<path fill="none" stroke="midnightblue" d="M748.6,-524.92C730.77,-480.26 701.3,-416.51 663,-369 615.15,-309.65 547.09,-256.21 494.06,-219.3"/>
<polygon fill="none" stroke="midnightblue" points="745.42,-526.4 752.34,-534.43 751.94,-523.84 745.42,-526.4"/>
</g>
</g>
</svg>
