<?xml version="1.0" encoding="UTF-8" standalone="no"?>
<!DOCTYPE svg PUBLIC "-//W3C//DTD SVG 1.1//EN"
 "http://www.w3.org/Graphics/SVG/1.1/DTD/svg11.dtd">
<!-- Generated by graphviz version 2.43.0 (0)
 -->
<!-- Title: Feel::SensorPointwise&lt; Space &gt; Pages: 1 -->
<!--zoomable 625 -->
<svg id="main" version="1.1" xmlns="http://www.w3.org/2000/svg" xmlns:xlink="http://www.w3.org/1999/xlink" xml:space="preserve" onload="init(evt)">
<style type="text/css"><![CDATA[
.edge:hover path { stroke: red; }
.edge:hover polygon { stroke: red; fill: red; }
]]></style>
<script type="text/javascript"><![CDATA[
var edges = document.getElementsByTagName('g');
if (edges && edges.length) {
  for (var i=0;i<edges.length;i++) {
    if (edges[i].id.substr(0,4)=='edge') {
      edges[i].setAttribute('class','edge');
    }
  }
}
]]></script>
        <defs>
                <circle id="rim" cx="0" cy="0" r="7"/>
                <circle id="rim2" cx="0" cy="0" r="3.5"/>
                <g id="zoomPlus">
                        <use xlink:href="#rim" fill="#404040">
                                <set attributeName="fill" to="#808080" begin="zoomplus.mouseover" end="zoomplus.mouseout"/>
                        </use>
                        <path d="M-4,0h8M0,-4v8" fill="none" stroke="white" stroke-width="1.5" pointer-events="none"/>
                </g>
                <g id="zoomMin">
                        <use xlink:href="#rim" fill="#404040">
                                <set attributeName="fill" to="#808080" begin="zoomminus.mouseover" end="zoomminus.mouseout"/>
                        </use>
                        <path d="M-4,0h8" fill="none" stroke="white" stroke-width="1.5" pointer-events="none"/>
                </g>
                <g id="dirArrow">
                        <path fill="none" stroke="white" stroke-width="1.5" d="M0,-3.0v7 M-2.5,-0.5L0,-3.0L2.5,-0.5"/>
                </g>
               <g id="resetDef">
                       <use xlink:href="#rim2" fill="#404040">
                               <set attributeName="fill" to="#808080" begin="reset.mouseover" end="reset.mouseout"/>
                       </use>
               </g>
        </defs>

<script type="text/javascript">
var viewWidth = 248;
var viewHeight = 625;
var sectionId = 'dynsection-1';
</script>
<script xlink:href="svgpan.js"/>
<svg id="graph" class="graph">
<g id="viewport">
<title>Feel::SensorPointwise&lt; Space &gt;</title>
<polygon fill="white" stroke="transparent" points="-4,4 -4,-621 244,-621 244,4 -4,4"/>
<!-- Node1 -->
<g id="node1" class="node">
<title>Node1</title>
<g id="a_node1"><a xlink:title="pointwise type sensor">
<polygon fill="#bfbfbf" stroke="black" points="63,-0.5 63,-123.5 187,-123.5 187,-0.5 63,-0.5"/>
<text text-anchor="start" x="71" y="-111.5" font-family="Helvetica,sans-Serif" font-size="10.00">Feel::SensorPointwise</text>
<text text-anchor="middle" x="125" y="-100.5" font-family="Helvetica,sans-Serif" font-size="10.00">&lt; Space &gt;</text>
<polyline fill="none" stroke="black" points="63,-93.5 187,-93.5 "/>
<text text-anchor="middle" x="125" y="-81.5" font-family="Helvetica,sans-Serif" font-size="10.00"> </text>
<polyline fill="none" stroke="black" points="63,-74.5 187,-74.5 "/>
<text text-anchor="start" x="71" y="-62.5" font-family="Helvetica,sans-Serif" font-size="10.00">+ init()</text>
<text text-anchor="start" x="71" y="-51.5" font-family="Helvetica,sans-Serif" font-size="10.00">+ position()</text>
<text text-anchor="start" x="71" y="-40.5" font-family="Helvetica,sans-Serif" font-size="10.00">+ SensorPointwise()</text>
<text text-anchor="start" x="71" y="-29.5" font-family="Helvetica,sans-Serif" font-size="10.00">+ SensorPointwise()</text>
<text text-anchor="start" x="71" y="-18.5" font-family="Helvetica,sans-Serif" font-size="10.00">+ setPosition()</text>
<text text-anchor="start" x="71" y="-7.5" font-family="Helvetica,sans-Serif" font-size="10.00">+ ~SensorPointwise()</text>
</a>
</g>
</g>
<!-- Node2 -->
<g id="node2" class="node">
<title>Node2</title>
<g id="a_node2"><a xlink:href="classFeel_1_1SensorBase.html" target="_top" xlink:title=" ">
<polygon fill="white" stroke="black" points="49,-161.5 49,-273.5 201,-273.5 201,-161.5 49,-161.5"/>
<text text-anchor="middle" x="125" y="-261.5" font-family="Helvetica,sans-Serif" font-size="10.00">Feel::SensorBase&lt; Space &gt;</text>
<polyline fill="none" stroke="black" points="49,-254.5 201,-254.5 "/>
<text text-anchor="middle" x="125" y="-242.5" font-family="Helvetica,sans-Serif" font-size="10.00"> </text>
<polyline fill="none" stroke="black" points="49,-235.5 201,-235.5 "/>
<text text-anchor="start" x="57" y="-223.5" font-family="Helvetica,sans-Serif" font-size="10.00">+ init()</text>
<text text-anchor="start" x="57" y="-212.5" font-family="Helvetica,sans-Serif" font-size="10.00">+ name()</text>
<text text-anchor="start" x="57" y="-201.5" font-family="Helvetica,sans-Serif" font-size="10.00">+ SensorBase()</text>
<text text-anchor="start" x="57" y="-190.5" font-family="Helvetica,sans-Serif" font-size="10.00">+ SensorBase()</text>
<text text-anchor="start" x="57" y="-179.5" font-family="Helvetica,sans-Serif" font-size="10.00">+ setName()</text>
<text text-anchor="start" x="57" y="-168.5" font-family="Helvetica,sans-Serif" font-size="10.00">and 4 more...</text>
</a>
</g>
</g>
<!-- Node2&#45;&gt;Node1 -->
<g id="edge1" class="edge">
<title>Node2&#45;&gt;Node1</title>
<path fill="none" stroke="midnightblue" d="M125,-150.93C125,-141.84 125,-132.53 125,-123.53"/>
<polygon fill="none" stroke="midnightblue" points="121.5,-151.08 125,-161.08 128.5,-151.08 121.5,-151.08"/>
</g>
<!-- Node3 -->
<g id="node3" class="node">
<title>Node3</title>
<g id="a_node3"><a xlink:href="classFeel_1_1FsFunctionalLinear.html" target="_top" xlink:title=" ">
<polygon fill="white" stroke="black" points="0,-332.5 0,-455.5 134,-455.5 134,-332.5 0,-332.5"/>
<text text-anchor="start" x="8" y="-443.5" font-family="Helvetica,sans-Serif" font-size="10.00">Feel::FsFunctionalLinear</text>
<text text-anchor="middle" x="67" y="-432.5" font-family="Helvetica,sans-Serif" font-size="10.00">&lt; Space &gt;</text>
<polyline fill="none" stroke="black" points="0,-425.5 134,-425.5 "/>
<text text-anchor="middle" x="67" y="-413.5" font-family="Helvetica,sans-Serif" font-size="10.00"> </text>
<polyline fill="none" stroke="black" points="0,-406.5 134,-406.5 "/>
<text text-anchor="start" x="8" y="-394.5" font-family="Helvetica,sans-Serif" font-size="10.00">+ add()</text>
<text text-anchor="start" x="8" y="-383.5" font-family="Helvetica,sans-Serif" font-size="10.00">+ close()</text>
<text text-anchor="start" x="8" y="-372.5" font-family="Helvetica,sans-Serif" font-size="10.00">+ container()</text>
<text text-anchor="start" x="8" y="-361.5" font-family="Helvetica,sans-Serif" font-size="10.00">+ container()</text>
<text text-anchor="start" x="8" y="-350.5" font-family="Helvetica,sans-Serif" font-size="10.00">+ container()</text>
<text text-anchor="start" x="8" y="-339.5" font-family="Helvetica,sans-Serif" font-size="10.00">and 12 more...</text>
</a>
</g>
</g>
<!-- Node3&#45;&gt;Node2 -->
<g id="edge2" class="edge">
<title>Node3&#45;&gt;Node2</title>
<path fill="none" stroke="midnightblue" d="M90.29,-322.92C95.74,-306.54 101.47,-289.31 106.66,-273.67"/>
<polygon fill="none" stroke="midnightblue" points="86.96,-321.86 87.12,-332.46 93.6,-324.07 86.96,-321.86"/>
</g>
<!-- Node4 -->
<g id="node4" class="node">
<title>Node4</title>
<g id="a_node4"><a xlink:href="classFeel_1_1FsFunctional.html" target="_top" xlink:title=" ">
<polygon fill="white" stroke="black" points="12.5,-493.5 12.5,-616.5 117.5,-616.5 117.5,-493.5 12.5,-493.5"/>
<text text-anchor="start" x="20.5" y="-604.5" font-family="Helvetica,sans-Serif" font-size="10.00">Feel::FsFunctional</text>
<text text-anchor="middle" x="65" y="-593.5" font-family="Helvetica,sans-Serif" font-size="10.00">&lt; Space &gt;</text>
<polyline fill="none" stroke="black" points="12.5,-586.5 117.5,-586.5 "/>
<text text-anchor="middle" x="65" y="-574.5" font-family="Helvetica,sans-Serif" font-size="10.00"> </text>
<polyline fill="none" stroke="black" points="12.5,-567.5 117.5,-567.5 "/>
<text text-anchor="start" x="20.5" y="-555.5" font-family="Helvetica,sans-Serif" font-size="10.00">+ FsFunctional()</text>
<text text-anchor="start" x="20.5" y="-544.5" font-family="Helvetica,sans-Serif" font-size="10.00">+ FsFunctional()</text>
<text text-anchor="start" x="20.5" y="-533.5" font-family="Helvetica,sans-Serif" font-size="10.00">+ operator()()</text>
<text text-anchor="start" x="20.5" y="-522.5" font-family="Helvetica,sans-Serif" font-size="10.00">+ setSpace()</text>
<text text-anchor="start" x="20.5" y="-511.5" font-family="Helvetica,sans-Serif" font-size="10.00">+ space()</text>
<text text-anchor="start" x="20.5" y="-500.5" font-family="Helvetica,sans-Serif" font-size="10.00">+ ~FsFunctional()</text>
</a>
</g>
</g>
<!-- Node4&#45;&gt;Node3 -->
<g id="edge3" class="edge">
<title>Node4&#45;&gt;Node3</title>
<path fill="none" stroke="midnightblue" d="M65.89,-483.17C66.01,-473.99 66.12,-464.65 66.24,-455.66"/>
<polygon fill="none" stroke="midnightblue" points="62.39,-483.39 65.76,-493.44 69.39,-483.48 62.39,-483.39"/>
</g>
<!-- Node5 -->
<g id="node5" class="node">
<title>Node5</title>
<g id="a_node5"><a xlink:title="STL class.">
<polygon fill="white" stroke="#bfbfbf" points="154.5,-365.5 154.5,-422.5 219.5,-422.5 219.5,-365.5 154.5,-365.5"/>
<text text-anchor="middle" x="187" y="-410.5" font-family="Helvetica,sans-Serif" font-size="10.00">std::string</text>
<polyline fill="none" stroke="#bfbfbf" points="154.5,-403.5 219.5,-403.5 "/>
<text text-anchor="middle" x="187" y="-391.5" font-family="Helvetica,sans-Serif" font-size="10.00"> </text>
<polyline fill="none" stroke="#bfbfbf" points="154.5,-384.5 219.5,-384.5 "/>
<text text-anchor="middle" x="187" y="-372.5" font-family="Helvetica,sans-Serif" font-size="10.00"> </text>
</a>
</g>
</g>
<!-- Node5&#45;&gt;Node2 -->
<g id="edge4" class="edge">
<title>Node5&#45;&gt;Node2</title>
<path fill="none" stroke="#404040" d="M177.18,-365.35C169.52,-343.81 158.57,-312.99 148.68,-285.14"/>
<polygon fill="none" stroke="#404040" points="148.68,-285.14 142.9,-280.82 144.66,-273.83 150.44,-278.15 148.68,-285.14"/>
<text text-anchor="middle" x="183.5" y="-306" font-family="Helvetica,sans-Serif" font-size="10.00"> #M_type</text>
<text text-anchor="middle" x="183.5" y="-295" font-family="Helvetica,sans-Serif" font-size="10.00">#M_name</text>
</g>
<!-- Node6 -->
<g id="node6" class="node">
<title>Node6</title>
<g id="a_node6"><a xlink:title="STL class.">
<polygon fill="white" stroke="#bfbfbf" points="136,-521 136,-589 240,-589 240,-521 136,-521"/>
<text text-anchor="start" x="144" y="-577" font-family="Helvetica,sans-Serif" font-size="10.00">std::basic_string&lt;</text>
<text text-anchor="middle" x="188" y="-566" font-family="Helvetica,sans-Serif" font-size="10.00"> char &gt;</text>
<polyline fill="none" stroke="#bfbfbf" points="136,-559 240,-559 "/>
<text text-anchor="middle" x="188" y="-547" font-family="Helvetica,sans-Serif" font-size="10.00"> </text>
<polyline fill="none" stroke="#bfbfbf" points="136,-540 240,-540 "/>
<text text-anchor="middle" x="188" y="-528" font-family="Helvetica,sans-Serif" font-size="10.00"> </text>
</a>
</g>
</g>
<!-- Node6&#45;&gt;Node5 -->
<g id="edge5" class="edge">
<title>Node6&#45;&gt;Node5</title>
<path fill="none" stroke="midnightblue" d="M187.73,-510.35C187.55,-482.37 187.33,-446.9 187.17,-422.72"/>
<polygon fill="none" stroke="midnightblue" points="184.23,-510.69 187.79,-520.67 191.23,-510.65 184.23,-510.69"/>
</g>
</g>
</svg>
        <g id="navigator" transform="translate(0 0)" fill="#404254">
                <rect fill="#f2f5e9" fill-opacity="0.5" stroke="#606060" stroke-width=".5" x="0" y="0" width="60" height="60"/>
                <use id="zoomplus" xlink:href="#zoomPlus" x="17" y="9" onmousedown="handleZoom(evt,'in')"/>
                <use id="zoomminus" xlink:href="#zoomMin" x="42" y="9" onmousedown="handleZoom(evt,'out')"/>
                <use id="reset" xlink:href="#resetDef" x="30" y="36" onmousedown="handleReset()"/>
                <g id="arrowUp" xlink:href="#dirArrow" transform="translate(30 24)" onmousedown="handlePan(0,-1)">
                  <use xlink:href="#rim" fill="#404040">
                        <set attributeName="fill" to="#808080" begin="arrowUp.mouseover" end="arrowUp.mouseout"/>
                  </use>
                  <path fill="none" stroke="white" stroke-width="1.5" d="M0,-3.0v7 M-2.5,-0.5L0,-3.0L2.5,-0.5"/>
                </g>
                <g id="arrowRight" xlink:href="#dirArrow" transform="rotate(90) translate(36 -43)" onmousedown="handlePan(1,0)">
                  <use xlink:href="#rim" fill="#404040">
                        <set attributeName="fill" to="#808080" begin="arrowRight.mouseover" end="arrowRight.mouseout"/>
                  </use>
                  <path fill="none" stroke="white" stroke-width="1.5" d="M0,-3.0v7 M-2.5,-0.5L0,-3.0L2.5,-0.5"/>
                </g>
                <g id="arrowDown" xlink:href="#dirArrow" transform="rotate(180) translate(-30 -48)" onmousedown="handlePan(0,1)">
                  <use xlink:href="#rim" fill="#404040">
                        <set attributeName="fill" to="#808080" begin="arrowDown.mouseover" end="arrowDown.mouseout"/>
                  </use>
                  <path fill="none" stroke="white" stroke-width="1.5" d="M0,-3.0v7 M-2.5,-0.5L0,-3.0L2.5,-0.5"/>
                </g>
                <g id="arrowLeft" xlink:href="#dirArrow" transform="rotate(270) translate(-36 17)" onmousedown="handlePan(-1,0)">
                  <use xlink:href="#rim" fill="#404040">
                        <set attributeName="fill" to="#808080" begin="arrowLeft.mouseover" end="arrowLeft.mouseout"/>
                  </use>
                  <path fill="none" stroke="white" stroke-width="1.5" d="M0,-3.0v7 M-2.5,-0.5L0,-3.0L2.5,-0.5"/>
                </g>
        </g>
        <svg viewBox="0 0 15 15" width="100%" height="30px" preserveAspectRatio="xMaxYMin meet">
         <g id="arrow_out" transform="scale(0.3 0.3)">
          <a xlink:href="classFeel_1_1SensorPointwise__coll__graph_org.svg" target="_base">
           <rect id="button" ry="5" rx="5" y="6" x="6" height="38" width="38"
                fill="#f2f5e9" fill-opacity="0.5" stroke="#606060" stroke-width="1.0"/>
           <path id="arrow"
             d="M 11.500037,31.436501 C 11.940474,20.09759 22.043105,11.32322 32.158766,21.979434 L 37.068811,17.246167 C 37.068811,17.246167 37.088388,32 37.088388,32 L 22.160133,31.978069 C 22.160133,31.978069 26.997745,27.140456 26.997745,27.140456 C 18.528582,18.264221 13.291696,25.230495 11.500037,31.436501 z"
             style="fill:#404040;"/>
          </a>
         </g>
        </svg>
</svg>
