<?xml version="1.0" encoding="UTF-8" standalone="no"?>
<!DOCTYPE svg PUBLIC "-//W3C//DTD SVG 1.1//EN"
 "http://www.w3.org/Graphics/SVG/1.1/DTD/svg11.dtd">
<!-- Generated by graphviz version 2.43.0 (0)
 -->
<!-- Title: Feel::MeshStructuredSetupHyperRectangle&lt; Dim, RealDim, T, IndexT &gt; Pages: 1 -->
<svg width="963pt" height="590pt"
 viewBox="0.00 0.00 962.50 590.00" xmlns="http://www.w3.org/2000/svg" xmlns:xlink="http://www.w3.org/1999/xlink">
<g id="graph0" class="graph" transform="scale(1 1) rotate(0) translate(4 586)">
<title>Feel::MeshStructuredSetupHyperRectangle&lt; Dim, RealDim, T, IndexT &gt;</title>
<polygon fill="white" stroke="transparent" points="-4,4 -4,-586 958.5,-586 958.5,4 -4,4"/>
<!-- Node1 -->
<g id="node1" class="node">
<title>Node1</title>
<g id="a_node1"><a xlink:title=" ">
<polygon fill="#bfbfbf" stroke="black" points="345,-0.5 345,-123.5 522,-123.5 522,-0.5 345,-0.5"/>
<text text-anchor="start" x="353" y="-111.5" font-family="Helvetica,sans-Serif" font-size="10.00">Feel::MeshStructuredSetup</text>
<text text-anchor="start" x="353" y="-100.5" font-family="Helvetica,sans-Serif" font-size="10.00">HyperRectangle&lt; Dim, RealDim,</text>
<text text-anchor="middle" x="433.5" y="-89.5" font-family="Helvetica,sans-Serif" font-size="10.00"> T, IndexT &gt;</text>
<polyline fill="none" stroke="black" points="345,-82.5 522,-82.5 "/>
<text text-anchor="middle" x="433.5" y="-70.5" font-family="Helvetica,sans-Serif" font-size="10.00"> </text>
<polyline fill="none" stroke="black" points="345,-63.5 522,-63.5 "/>
<text text-anchor="start" x="353" y="-51.5" font-family="Helvetica,sans-Serif" font-size="10.00">+ isCartesian()</text>
<text text-anchor="start" x="353" y="-40.5" font-family="Helvetica,sans-Serif" font-size="10.00">+ MeshStructuredSetupHyper</text>
<text text-anchor="start" x="353" y="-29.5" font-family="Helvetica,sans-Serif" font-size="10.00">Rectangle()</text>
<text text-anchor="start" x="353" y="-18.5" font-family="Helvetica,sans-Serif" font-size="10.00">+ pointCoordinates()</text>
<text text-anchor="start" x="353" y="-7.5" font-family="Helvetica,sans-Serif" font-size="10.00">+ NewUnitShape()</text>
</a>
</g>
</g>
<!-- Node2 -->
<g id="node2" class="node">
<title>Node2</title>
<g id="a_node2"><a xlink:href="classFeel_1_1MeshStructuredSetup.html" target="_top" xlink:title=" ">
<polygon fill="white" stroke="black" points="339.5,-182.5 339.5,-327.5 527.5,-327.5 527.5,-182.5 339.5,-182.5"/>
<text text-anchor="start" x="347.5" y="-315.5" font-family="Helvetica,sans-Serif" font-size="10.00">Feel::MeshStructuredSetup</text>
<text text-anchor="middle" x="433.5" y="-304.5" font-family="Helvetica,sans-Serif" font-size="10.00">&lt; Dim, Dim, double, uint32_type &gt;</text>
<polyline fill="none" stroke="black" points="339.5,-297.5 527.5,-297.5 "/>
<text text-anchor="middle" x="433.5" y="-285.5" font-family="Helvetica,sans-Serif" font-size="10.00"> </text>
<polyline fill="none" stroke="black" points="339.5,-278.5 527.5,-278.5 "/>
<text text-anchor="start" x="347.5" y="-266.5" font-family="Helvetica,sans-Serif" font-size="10.00">+ cellId()</text>
<text text-anchor="start" x="347.5" y="-255.5" font-family="Helvetica,sans-Serif" font-size="10.00">+ isCartesian()</text>
<text text-anchor="start" x="347.5" y="-244.5" font-family="Helvetica,sans-Serif" font-size="10.00">+ MeshStructuredSetup()</text>
<text text-anchor="start" x="347.5" y="-233.5" font-family="Helvetica,sans-Serif" font-size="10.00">+ nPointByAxis()</text>
<text text-anchor="start" x="347.5" y="-222.5" font-family="Helvetica,sans-Serif" font-size="10.00">+ pointCoordinates()</text>
<text text-anchor="start" x="347.5" y="-211.5" font-family="Helvetica,sans-Serif" font-size="10.00">and 3 more...</text>
<text text-anchor="start" x="347.5" y="-200.5" font-family="Helvetica,sans-Serif" font-size="10.00">+ New()</text>
<text text-anchor="start" x="347.5" y="-189.5" font-family="Helvetica,sans-Serif" font-size="10.00"># updateDiscretisation()</text>
</a>
</g>
</g>
<!-- Node2&#45;&gt;Node1 -->
<g id="edge1" class="edge">
<title>Node2&#45;&gt;Node1</title>
<path fill="none" stroke="midnightblue" d="M433.5,-172.24C433.5,-155.89 433.5,-138.98 433.5,-123.5"/>
<polygon fill="none" stroke="midnightblue" points="430,-172.34 433.5,-182.34 437,-172.34 430,-172.34"/>
</g>
<!-- Node3 -->
<g id="node3" class="node">
<title>Node3</title>
<g id="a_node3"><a xlink:href="classstatic_01constexpr_01int.html" target="_top" xlink:title=" ">
<polygon fill="white" stroke="black" points="844.5,-397.5 844.5,-454.5 954.5,-454.5 954.5,-397.5 844.5,-397.5"/>
<text text-anchor="middle" x="899.5" y="-442.5" font-family="Helvetica,sans-Serif" font-size="10.00">static constexpr int</text>
<polyline fill="none" stroke="black" points="844.5,-435.5 954.5,-435.5 "/>
<text text-anchor="middle" x="899.5" y="-423.5" font-family="Helvetica,sans-Serif" font-size="10.00"> </text>
<polyline fill="none" stroke="black" points="844.5,-416.5 954.5,-416.5 "/>
<text text-anchor="middle" x="899.5" y="-404.5" font-family="Helvetica,sans-Serif" font-size="10.00"> </text>
</a>
</g>
</g>
<!-- Node3&#45;&gt;Node2 -->
<g id="edge2" class="edge">
<title>Node3&#45;&gt;Node2</title>
<path fill="none" stroke="#404040" d="M879.85,-397.14C865.41,-379.11 844.08,-357.02 819.5,-346 765.22,-321.67 613.95,-345.79 539.31,-327.6"/>
<polygon fill="none" stroke="#404040" points="539.09,-327.53 532.21,-329.68 527.58,-324.15 534.47,-322 539.09,-327.53"/>
<text text-anchor="middle" x="886.5" y="-354.5" font-family="Helvetica,sans-Serif" font-size="10.00"> +nPointInCell</text>
</g>
<!-- Node4 -->
<g id="node4" class="node">
<title>Node4</title>
<g id="a_node4"><a xlink:title=" ">
<polygon fill="white" stroke="#bfbfbf" points="173.5,-392 173.5,-460 309.5,-460 309.5,-392 173.5,-392"/>
<text text-anchor="start" x="181.5" y="-448" font-family="Helvetica,sans-Serif" font-size="10.00">std::vector&lt; node_eigen</text>
<text text-anchor="middle" x="241.5" y="-437" font-family="Helvetica,sans-Serif" font-size="10.00">_type &gt;</text>
<polyline fill="none" stroke="#bfbfbf" points="173.5,-430 309.5,-430 "/>
<text text-anchor="middle" x="241.5" y="-418" font-family="Helvetica,sans-Serif" font-size="10.00"> </text>
<polyline fill="none" stroke="#bfbfbf" points="173.5,-411 309.5,-411 "/>
<text text-anchor="middle" x="241.5" y="-399" font-family="Helvetica,sans-Serif" font-size="10.00"> </text>
</a>
</g>
</g>
<!-- Node4&#45;&gt;Node2 -->
<g id="edge3" class="edge">
<title>Node4&#45;&gt;Node2</title>
<path fill="none" stroke="#404040" d="M245.16,-391.89C248.25,-376.59 253.96,-358.97 264.5,-346 281.5,-325.08 304.68,-308.39 328.43,-295.34"/>
<polygon fill="none" stroke="#404040" points="328.73,-295.18 332.19,-288.84 339.36,-289.6 335.91,-295.93 328.73,-295.18"/>
<text text-anchor="middle" x="317.5" y="-354.5" font-family="Helvetica,sans-Serif" font-size="10.00"> #M_geometricPoints</text>
</g>
<!-- Node5 -->
<g id="node5" class="node">
<title>Node5</title>
<g id="a_node5"><a xlink:href="classnode__eigen__type.html" target="_top" xlink:title=" ">
<polygon fill="white" stroke="black" points="191.5,-519 191.5,-576 291.5,-576 291.5,-519 191.5,-519"/>
<text text-anchor="middle" x="241.5" y="-564" font-family="Helvetica,sans-Serif" font-size="10.00">node_eigen_type</text>
<polyline fill="none" stroke="black" points="191.5,-557 291.5,-557 "/>
<text text-anchor="middle" x="241.5" y="-545" font-family="Helvetica,sans-Serif" font-size="10.00"> </text>
<polyline fill="none" stroke="black" points="191.5,-538 291.5,-538 "/>
<text text-anchor="middle" x="241.5" y="-526" font-family="Helvetica,sans-Serif" font-size="10.00"> </text>
</a>
</g>
</g>
<!-- Node5&#45;&gt;Node4 -->
<g id="edge4" class="edge">
<title>Node5&#45;&gt;Node4</title>
<path fill="none" stroke="#404040" d="M241.5,-518.78C241.5,-504.97 241.5,-487.9 241.5,-472.25"/>
<polygon fill="none" stroke="#404040" points="241.5,-472.09 237.5,-466.09 241.5,-460.09 245.5,-466.09 241.5,-472.09"/>
<text text-anchor="middle" x="270.5" y="-487" font-family="Helvetica,sans-Serif" font-size="10.00"> +elements</text>
</g>
<!-- Node6 -->
<g id="node6" class="node">
<title>Node6</title>
<g id="a_node6"><a xlink:title=" ">
<polygon fill="white" stroke="#bfbfbf" points="328,-392 328,-460 435,-460 435,-392 328,-392"/>
<text text-anchor="start" x="336" y="-448" font-family="Helvetica,sans-Serif" font-size="10.00">std::vector&lt; index</text>
<text text-anchor="middle" x="381.5" y="-437" font-family="Helvetica,sans-Serif" font-size="10.00">_type &gt;</text>
<polyline fill="none" stroke="#bfbfbf" points="328,-430 435,-430 "/>
<text text-anchor="middle" x="381.5" y="-418" font-family="Helvetica,sans-Serif" font-size="10.00"> </text>
<polyline fill="none" stroke="#bfbfbf" points="328,-411 435,-411 "/>
<text text-anchor="middle" x="381.5" y="-399" font-family="Helvetica,sans-Serif" font-size="10.00"> </text>
</a>
</g>
</g>
<!-- Node6&#45;&gt;Node2 -->
<g id="edge5" class="edge">
<title>Node6&#45;&gt;Node2</title>
<path fill="none" stroke="#404040" d="M375.07,-391.78C373.51,-377.46 373.31,-360.66 377.5,-346 378.19,-343.58 378.97,-341.16 379.82,-338.75"/>
<polygon fill="none" stroke="#404040" points="379.84,-338.7 378.36,-331.65 384.31,-327.57 385.79,-334.62 379.84,-338.7"/>
<text text-anchor="middle" x="423" y="-354.5" font-family="Helvetica,sans-Serif" font-size="10.00"> #M_nPointByAxis</text>
</g>
<!-- Node7 -->
<g id="node7" class="node">
<title>Node7</title>
<g id="a_node7"><a xlink:title=" ">
<polygon fill="white" stroke="#bfbfbf" points="339,-519 339,-576 410,-576 410,-519 339,-519"/>
<text text-anchor="middle" x="374.5" y="-564" font-family="Helvetica,sans-Serif" font-size="10.00">index_type</text>
<polyline fill="none" stroke="#bfbfbf" points="339,-557 410,-557 "/>
<text text-anchor="middle" x="374.5" y="-545" font-family="Helvetica,sans-Serif" font-size="10.00"> </text>
<polyline fill="none" stroke="#bfbfbf" points="339,-538 410,-538 "/>
<text text-anchor="middle" x="374.5" y="-526" font-family="Helvetica,sans-Serif" font-size="10.00"> </text>
</a>
</g>
</g>
<!-- Node7&#45;&gt;Node6 -->
<g id="edge6" class="edge">
<title>Node7&#45;&gt;Node6</title>
<path fill="none" stroke="#404040" d="M376.12,-518.78C376.93,-504.97 377.93,-487.9 378.85,-472.25"/>
<polygon fill="none" stroke="#404040" points="378.86,-472.07 375.22,-465.84 379.56,-460.09 383.2,-466.31 378.86,-472.07"/>
<text text-anchor="middle" x="407.5" y="-487" font-family="Helvetica,sans-Serif" font-size="10.00"> +elements</text>
</g>
<!-- Node8 -->
<g id="node8" class="node">
<title>Node8</title>
<g id="a_node8"><a xlink:title=" ">
<polygon fill="white" stroke="#bfbfbf" points="0,-397.5 0,-454.5 155,-454.5 155,-397.5 0,-397.5"/>
<text text-anchor="middle" x="77.5" y="-442.5" font-family="Helvetica,sans-Serif" font-size="10.00">static constexpr uint16_type</text>
<polyline fill="none" stroke="#bfbfbf" points="0,-435.5 155,-435.5 "/>
<text text-anchor="middle" x="77.5" y="-423.5" font-family="Helvetica,sans-Serif" font-size="10.00"> </text>
<polyline fill="none" stroke="#bfbfbf" points="0,-416.5 155,-416.5 "/>
<text text-anchor="middle" x="77.5" y="-404.5" font-family="Helvetica,sans-Serif" font-size="10.00"> </text>
</a>
</g>
</g>
<!-- Node8&#45;&gt;Node1 -->
<g id="edge14" class="edge">
<title>Node8&#45;&gt;Node1</title>
<path fill="none" stroke="#404040" d="M96.35,-397.25C129.15,-350.05 200.24,-252.44 273.5,-182 292.33,-163.9 313.95,-146.13 335.09,-130.07"/>
<polygon fill="none" stroke="#404040" points="335.16,-130.02 337.56,-123.22 344.76,-122.82 342.36,-129.62 335.16,-130.02"/>
<text text-anchor="middle" x="302" y="-258" font-family="Helvetica,sans-Serif" font-size="10.00"> +nDim</text>
<text text-anchor="middle" x="302" y="-247" font-family="Helvetica,sans-Serif" font-size="10.00">+nRealDim</text>
</g>
<!-- Node8&#45;&gt;Node2 -->
<g id="edge7" class="edge">
<title>Node8&#45;&gt;Node2</title>
<path fill="none" stroke="#404040" d="M112.49,-397.33C134.34,-380.94 163.54,-360.6 191.5,-346 234.54,-323.53 284.49,-303.97 327.79,-288.87"/>
<polygon fill="none" stroke="#404040" points="327.88,-288.84 332.25,-283.1 339.23,-284.93 334.86,-290.66 327.88,-288.84"/>
<text text-anchor="middle" x="220" y="-360" font-family="Helvetica,sans-Serif" font-size="10.00"> +nDim</text>
<text text-anchor="middle" x="220" y="-349" font-family="Helvetica,sans-Serif" font-size="10.00">+nRealDim</text>
</g>
<!-- Node9 -->
<g id="node9" class="node">
<title>Node9</title>
<g id="a_node9"><a xlink:title="STL class.">
<polygon fill="white" stroke="#bfbfbf" points="453,-397.5 453,-454.5 518,-454.5 518,-397.5 453,-397.5"/>
<text text-anchor="middle" x="485.5" y="-442.5" font-family="Helvetica,sans-Serif" font-size="10.00">std::string</text>
<polyline fill="none" stroke="#bfbfbf" points="453,-435.5 518,-435.5 "/>
<text text-anchor="middle" x="485.5" y="-423.5" font-family="Helvetica,sans-Serif" font-size="10.00"> </text>
<polyline fill="none" stroke="#bfbfbf" points="453,-416.5 518,-416.5 "/>
<text text-anchor="middle" x="485.5" y="-404.5" font-family="Helvetica,sans-Serif" font-size="10.00"> </text>
</a>
</g>
</g>
<!-- Node9&#45;&gt;Node2 -->
<g id="edge8" class="edge">
<title>Node9&#45;&gt;Node2</title>
<path fill="none" stroke="#404040" d="M480.66,-397.31C477.71,-382.03 473.54,-362.8 468.5,-346 467.83,-343.77 467.13,-341.52 466.41,-339.26"/>
<polygon fill="none" stroke="#404040" points="466.4,-339.24 460.71,-334.82 462.61,-327.86 468.3,-332.28 466.4,-339.24"/>
<text text-anchor="middle" x="502" y="-354.5" font-family="Helvetica,sans-Serif" font-size="10.00"> #M_shape</text>
</g>
<!-- Node10 -->
<g id="node10" class="node">
<title>Node10</title>
<g id="a_node10"><a xlink:title="STL class.">
<polygon fill="white" stroke="#bfbfbf" points="428.5,-513.5 428.5,-581.5 532.5,-581.5 532.5,-513.5 428.5,-513.5"/>
<text text-anchor="start" x="436.5" y="-569.5" font-family="Helvetica,sans-Serif" font-size="10.00">std::basic_string&lt;</text>
<text text-anchor="middle" x="480.5" y="-558.5" font-family="Helvetica,sans-Serif" font-size="10.00"> char &gt;</text>
<polyline fill="none" stroke="#bfbfbf" points="428.5,-551.5 532.5,-551.5 "/>
<text text-anchor="middle" x="480.5" y="-539.5" font-family="Helvetica,sans-Serif" font-size="10.00"> </text>
<polyline fill="none" stroke="#bfbfbf" points="428.5,-532.5 532.5,-532.5 "/>
<text text-anchor="middle" x="480.5" y="-520.5" font-family="Helvetica,sans-Serif" font-size="10.00"> </text>
</a>
</g>
</g>
<!-- Node10&#45;&gt;Node9 -->
<g id="edge9" class="edge">
<title>Node10&#45;&gt;Node9</title>
<path fill="none" stroke="midnightblue" d="M482.32,-502.96C482.99,-486.9 483.74,-469.16 484.33,-454.86"/>
<polygon fill="none" stroke="midnightblue" points="478.81,-503.07 481.89,-513.21 485.81,-503.37 478.81,-503.07"/>
</g>
<!-- Node11 -->
<g id="node11" class="node">
<title>Node11</title>
<g id="a_node11"><a xlink:title=" ">
<polygon fill="white" stroke="#bfbfbf" points="536,-386.5 536,-465.5 683,-465.5 683,-386.5 536,-386.5"/>
<text text-anchor="start" x="544" y="-453.5" font-family="Helvetica,sans-Serif" font-size="10.00">std::vector&lt; std::tuple</text>
<text text-anchor="start" x="544" y="-442.5" font-family="Helvetica,sans-Serif" font-size="10.00">&lt; DivisionEdgeType, value</text>
<text text-anchor="middle" x="609.5" y="-431.5" font-family="Helvetica,sans-Serif" font-size="10.00">_type &gt; &gt;</text>
<polyline fill="none" stroke="#bfbfbf" points="536,-424.5 683,-424.5 "/>
<text text-anchor="middle" x="609.5" y="-412.5" font-family="Helvetica,sans-Serif" font-size="10.00"> </text>
<polyline fill="none" stroke="#bfbfbf" points="536,-405.5 683,-405.5 "/>
<text text-anchor="middle" x="609.5" y="-393.5" font-family="Helvetica,sans-Serif" font-size="10.00"> </text>
</a>
</g>
</g>
<!-- Node11&#45;&gt;Node2 -->
<g id="edge10" class="edge">
<title>Node11&#45;&gt;Node2</title>
<path fill="none" stroke="#404040" d="M573.32,-386.28C560.89,-373.29 546.77,-358.83 533.5,-346 530.1,-342.71 526.62,-339.39 523.08,-336.04"/>
<polygon fill="none" stroke="#404040" points="522.95,-335.92 515.84,-334.73 514.2,-327.71 521.31,-328.9 522.95,-335.92"/>
<text text-anchor="middle" x="615" y="-354.5" font-family="Helvetica,sans-Serif" font-size="10.00"> #M_discretisationEdges</text>
</g>
<!-- Node12 -->
<g id="node12" class="node">
<title>Node12</title>
<g id="a_node12"><a xlink:href="classstd_1_1tuple_3_01DivisionEdgeType_00_01value__type_01_4.html" target="_top" xlink:title=" ">
<polygon fill="white" stroke="black" points="550.5,-513.5 550.5,-581.5 692.5,-581.5 692.5,-513.5 550.5,-513.5"/>
<text text-anchor="start" x="558.5" y="-569.5" font-family="Helvetica,sans-Serif" font-size="10.00">tuple&lt; DivisionEdgeType,</text>
<text text-anchor="middle" x="621.5" y="-558.5" font-family="Helvetica,sans-Serif" font-size="10.00"> value_type &gt;</text>
<polyline fill="none" stroke="black" points="550.5,-551.5 692.5,-551.5 "/>
<text text-anchor="middle" x="621.5" y="-539.5" font-family="Helvetica,sans-Serif" font-size="10.00"> </text>
<polyline fill="none" stroke="black" points="550.5,-532.5 692.5,-532.5 "/>
<text text-anchor="middle" x="621.5" y="-520.5" font-family="Helvetica,sans-Serif" font-size="10.00"> </text>
</a>
</g>
</g>
<!-- Node12&#45;&gt;Node11 -->
<g id="edge11" class="edge">
<title>Node12&#45;&gt;Node11</title>
<path fill="none" stroke="#404040" d="M618.16,-513.21C617.06,-502.24 615.8,-489.78 614.6,-477.81"/>
<polygon fill="none" stroke="#404040" points="614.58,-477.54 610,-471.97 613.38,-465.6 617.96,-471.17 614.58,-477.54"/>
<text text-anchor="middle" x="644.5" y="-487" font-family="Helvetica,sans-Serif" font-size="10.00"> +elements</text>
</g>
<!-- Node13 -->
<g id="node13" class="node">
<title>Node13</title>
<g id="a_node13"><a xlink:title=" ">
<polygon fill="white" stroke="#bfbfbf" points="701,-392 701,-460 826,-460 826,-392 701,-392"/>
<text text-anchor="start" x="709" y="-448" font-family="Helvetica,sans-Serif" font-size="10.00">std::vector&lt; std::tuple</text>
<text text-anchor="middle" x="763.5" y="-437" font-family="Helvetica,sans-Serif" font-size="10.00">&lt; int, int, int &gt; &gt;</text>
<polyline fill="none" stroke="#bfbfbf" points="701,-430 826,-430 "/>
<text text-anchor="middle" x="763.5" y="-418" font-family="Helvetica,sans-Serif" font-size="10.00"> </text>
<polyline fill="none" stroke="#bfbfbf" points="701,-411 826,-411 "/>
<text text-anchor="middle" x="763.5" y="-399" font-family="Helvetica,sans-Serif" font-size="10.00"> </text>
</a>
</g>
</g>
<!-- Node13&#45;&gt;Node2 -->
<g id="edge12" class="edge">
<title>Node13&#45;&gt;Node2</title>
<path fill="none" stroke="#404040" d="M737.08,-391.69C722.04,-375.14 701.77,-356.5 679.5,-346 625.21,-320.42 599.85,-347.33 539.03,-327.9"/>
<polygon fill="none" stroke="#404040" points="538.99,-327.89 532,-329.65 527.68,-323.88 534.67,-322.11 538.99,-327.89"/>
<text text-anchor="middle" x="763" y="-354.5" font-family="Helvetica,sans-Serif" font-size="10.00"> #M_geometricEdges</text>
</g>
<!-- Node14 -->
<g id="node14" class="node">
<title>Node14</title>
<g id="a_node14"><a xlink:href="classstd_1_1tuple_3_01int_00_01int_00_01int_01_4.html" target="_top" xlink:title=" ">
<polygon fill="white" stroke="black" points="710.5,-519 710.5,-576 824.5,-576 824.5,-519 710.5,-519"/>
<text text-anchor="middle" x="767.5" y="-564" font-family="Helvetica,sans-Serif" font-size="10.00">tuple&lt; int, int, int &gt;</text>
<polyline fill="none" stroke="black" points="710.5,-557 824.5,-557 "/>
<text text-anchor="middle" x="767.5" y="-545" font-family="Helvetica,sans-Serif" font-size="10.00"> </text>
<polyline fill="none" stroke="black" points="710.5,-538 824.5,-538 "/>
<text text-anchor="middle" x="767.5" y="-526" font-family="Helvetica,sans-Serif" font-size="10.00"> </text>
</a>
</g>
</g>
<!-- Node14&#45;&gt;Node13 -->
<g id="edge13" class="edge">
<title>Node14&#45;&gt;Node13</title>
<path fill="none" stroke="#404040" d="M766.57,-518.78C766.11,-504.97 765.54,-487.9 765.01,-472.25"/>
<polygon fill="none" stroke="#404040" points="765.01,-472.08 760.81,-466.22 764.61,-460.09 768.81,-465.95 765.01,-472.08"/>
<text text-anchor="middle" x="794.5" y="-487" font-family="Helvetica,sans-Serif" font-size="10.00"> +elements</text>
</g>
<!-- Node15 -->
<g id="node15" class="node">
<title>Node15</title>
<g id="a_node15"><a xlink:href="classint.html" target="_top" xlink:title=" ">
<polygon fill="white" stroke="black" points="546,-226.5 546,-283.5 575,-283.5 575,-226.5 546,-226.5"/>
<text text-anchor="middle" x="560.5" y="-271.5" font-family="Helvetica,sans-Serif" font-size="10.00">int</text>
<polyline fill="none" stroke="black" points="546,-264.5 575,-264.5 "/>
<text text-anchor="middle" x="560.5" y="-252.5" font-family="Helvetica,sans-Serif" font-size="10.00"> </text>
<polyline fill="none" stroke="black" points="546,-245.5 575,-245.5 "/>
<text text-anchor="middle" x="560.5" y="-233.5" font-family="Helvetica,sans-Serif" font-size="10.00"> </text>
</a>
</g>
</g>
<!-- Node15&#45;&gt;Node1 -->
<g id="edge15" class="edge">
<title>Node15&#45;&gt;Node1</title>
<path fill="none" stroke="#404040" d="M554,-226.26C550.09,-212.42 544.32,-195.74 536.5,-182 526.87,-165.09 514.63,-148.38 501.97,-133.06"/>
<polygon fill="none" stroke="#404040" points="501.81,-132.88 494.88,-130.88 494.06,-123.72 500.99,-125.71 501.81,-132.88"/>
<text text-anchor="middle" x="545.5" y="-156" font-family="Helvetica,sans-Serif" font-size="10.00"> +nEdge</text>
<text text-anchor="middle" x="545.5" y="-145" font-family="Helvetica,sans-Serif" font-size="10.00">+nPoint</text>
</g>
</g>
</svg>
