<?xml version="1.0" encoding="UTF-8" standalone="no"?>
<!DOCTYPE svg PUBLIC "-//W3C//DTD SVG 1.1//EN"
 "http://www.w3.org/Graphics/SVG/1.1/DTD/svg11.dtd">
<!-- Generated by graphviz version 2.43.0 (0)
 -->
<!-- Title: Feel::MeshSupport&lt; MeshType &gt; Pages: 1 -->
<svg width="300pt" height="281pt"
 viewBox="0.00 0.00 300.00 281.00" xmlns="http://www.w3.org/2000/svg" xmlns:xlink="http://www.w3.org/1999/xlink">
<g id="graph0" class="graph" transform="scale(1 1) rotate(0) translate(4 277)">
<title>Feel::MeshSupport&lt; MeshType &gt;</title>
<polygon fill="white" stroke="transparent" points="-4,4 -4,-277 296,-277 296,4 -4,4"/>
<!-- Node1 -->
<g id="node1" class="node">
<title>Node1</title>
<g id="a_node1"><a xlink:title="Description of a mesh support.">
<polygon fill="#bfbfbf" stroke="black" points="81.5,-0.5 81.5,-123.5 203.5,-123.5 203.5,-0.5 81.5,-0.5"/>
<text text-anchor="start" x="89.5" y="-111.5" font-family="Helvetica,sans-Serif" font-size="10.00">Feel::MeshSupport&lt;</text>
<text text-anchor="middle" x="142.5" y="-100.5" font-family="Helvetica,sans-Serif" font-size="10.00"> MeshType &gt;</text>
<polyline fill="none" stroke="black" points="81.5,-93.5 203.5,-93.5 "/>
<text text-anchor="start" x="89.5" y="-81.5" font-family="Helvetica,sans-Serif" font-size="10.00">+ nDim</text>
<polyline fill="none" stroke="black" points="81.5,-74.5 203.5,-74.5 "/>
<text text-anchor="start" x="89.5" y="-62.5" font-family="Helvetica,sans-Serif" font-size="10.00">+ hasAnyMarker()</text>
<text text-anchor="start" x="89.5" y="-51.5" font-family="Helvetica,sans-Serif" font-size="10.00">+ hasElement()</text>
<text text-anchor="start" x="89.5" y="-40.5" font-family="Helvetica,sans-Serif" font-size="10.00">+ hasGhostElement()</text>
<text text-anchor="start" x="89.5" y="-29.5" font-family="Helvetica,sans-Serif" font-size="10.00">+ isFullSupport()</text>
<text text-anchor="start" x="89.5" y="-18.5" font-family="Helvetica,sans-Serif" font-size="10.00">+ isGhostFace()</text>
<text text-anchor="start" x="89.5" y="-7.5" font-family="Helvetica,sans-Serif" font-size="10.00">and 20 more...</text>
</a>
</g>
</g>
<!-- Node2 -->
<g id="node2" class="node">
<title>Node2</title>
<g id="a_node2"><a xlink:href="classFeel_1_1MeshSupportBase.html" target="_top" xlink:title="Description of a mesh support.">
<polygon fill="white" stroke="black" points="0,-160.5 0,-272.5 131,-272.5 131,-160.5 0,-160.5"/>
<text text-anchor="middle" x="65.5" y="-260.5" font-family="Helvetica,sans-Serif" font-size="10.00">Feel::MeshSupportBase</text>
<polyline fill="none" stroke="black" points="0,-253.5 131,-253.5 "/>
<text text-anchor="middle" x="65.5" y="-241.5" font-family="Helvetica,sans-Serif" font-size="10.00"> </text>
<polyline fill="none" stroke="black" points="0,-234.5 131,-234.5 "/>
<text text-anchor="start" x="8" y="-222.5" font-family="Helvetica,sans-Serif" font-size="10.00">+ hasElement()</text>
<text text-anchor="start" x="8" y="-211.5" font-family="Helvetica,sans-Serif" font-size="10.00">+ hasGhostElement()</text>
<text text-anchor="start" x="8" y="-200.5" font-family="Helvetica,sans-Serif" font-size="10.00">+ isFullSupport()</text>
<text text-anchor="start" x="8" y="-189.5" font-family="Helvetica,sans-Serif" font-size="10.00">+ isPartialSupport()</text>
<text text-anchor="start" x="8" y="-178.5" font-family="Helvetica,sans-Serif" font-size="10.00">+ numElements()</text>
<text text-anchor="start" x="8" y="-167.5" font-family="Helvetica,sans-Serif" font-size="10.00">and 4 more...</text>
</a>
</g>
</g>
<!-- Node2&#45;&gt;Node1 -->
<g id="edge1" class="edge">
<title>Node2&#45;&gt;Node1</title>
<path fill="none" stroke="midnightblue" d="M97.88,-151.36C102.52,-142.19 107.27,-132.77 111.87,-123.66"/>
<polygon fill="none" stroke="midnightblue" points="94.68,-149.94 93.3,-160.44 100.93,-153.09 94.68,-149.94"/>
</g>
<!-- Node3 -->
<g id="node3" class="node">
<title>Node3</title>
<g id="a_node3"><a xlink:title=" ">
<polygon fill="white" stroke="#bfbfbf" points="149,-177 149,-256 292,-256 292,-177 149,-177"/>
<text text-anchor="start" x="157" y="-244" font-family="Helvetica,sans-Serif" font-size="10.00">std::enable_shared</text>
<text text-anchor="start" x="157" y="-233" font-family="Helvetica,sans-Serif" font-size="10.00">_from_this&lt; MeshSupport</text>
<text text-anchor="middle" x="220.5" y="-222" font-family="Helvetica,sans-Serif" font-size="10.00">&lt; MeshType &gt; &gt;</text>
<polyline fill="none" stroke="#bfbfbf" points="149,-215 292,-215 "/>
<text text-anchor="middle" x="220.5" y="-203" font-family="Helvetica,sans-Serif" font-size="10.00"> </text>
<polyline fill="none" stroke="#bfbfbf" points="149,-196 292,-196 "/>
<text text-anchor="middle" x="220.5" y="-184" font-family="Helvetica,sans-Serif" font-size="10.00"> </text>
</a>
</g>
</g>
<!-- Node3&#45;&gt;Node1 -->
<g id="edge2" class="edge">
<title>Node3&#45;&gt;Node1</title>
<path fill="none" stroke="midnightblue" d="M196.05,-167.7C188.93,-153.77 181.05,-138.36 173.57,-123.74"/>
<polygon fill="none" stroke="midnightblue" points="192.95,-169.31 200.62,-176.62 199.18,-166.13 192.95,-169.31"/>
</g>
</g>
</svg>
