<?xml version="1.0" encoding="UTF-8" standalone="no"?>
<!DOCTYPE svg PUBLIC "-//W3C//DTD SVG 1.1//EN"
 "http://www.w3.org/Graphics/SVG/1.1/DTD/svg11.dtd">
<!-- Generated by graphviz version 2.43.0 (0)
 -->
<!-- Title: Feel::FeelModels::StabilizationGLSParameterBase&lt; MeshType &gt; Pages: 1 -->
<svg width="189pt" height="336pt"
 viewBox="0.00 0.00 189.00 336.00" xmlns="http://www.w3.org/2000/svg" xmlns:xlink="http://www.w3.org/1999/xlink">
<g id="graph0" class="graph" transform="scale(1 1) rotate(0) translate(4 332)">
<title>Feel::FeelModels::StabilizationGLSParameterBase&lt; MeshType &gt;</title>
<polygon fill="white" stroke="transparent" points="-4,4 -4,-332 185,-332 185,4 -4,4"/>
<!-- Node1 -->
<g id="node1" class="node">
<title>Node1</title>
<g id="a_node1"><a xlink:title=" ">
<polygon fill="#bfbfbf" stroke="black" points="0,-149.5 0,-327.5 181,-327.5 181,-149.5 0,-149.5"/>
<text text-anchor="start" x="8" y="-315.5" font-family="Helvetica,sans-Serif" font-size="10.00">Feel::FeelModels::Stabilization</text>
<text text-anchor="middle" x="90.5" y="-304.5" font-family="Helvetica,sans-Serif" font-size="10.00">GLSParameterBase&lt; MeshType &gt;</text>
<polyline fill="none" stroke="black" points="0,-297.5 181,-297.5 "/>
<text text-anchor="start" x="8" y="-285.5" font-family="Helvetica,sans-Serif" font-size="10.00"># M_fieldTau</text>
<text text-anchor="start" x="8" y="-274.5" font-family="Helvetica,sans-Serif" font-size="10.00"># M_hSizeMethod</text>
<text text-anchor="start" x="8" y="-263.5" font-family="Helvetica,sans-Serif" font-size="10.00"># M_hSizeValues</text>
<text text-anchor="start" x="8" y="-252.5" font-family="Helvetica,sans-Serif" font-size="10.00"># M_lambdaKValues</text>
<text text-anchor="start" x="8" y="-241.5" font-family="Helvetica,sans-Serif" font-size="10.00"># M_mesh</text>
<text text-anchor="start" x="8" y="-230.5" font-family="Helvetica,sans-Serif" font-size="10.00">and 5 more...</text>
<polyline fill="none" stroke="black" points="0,-223.5 181,-223.5 "/>
<text text-anchor="start" x="8" y="-211.5" font-family="Helvetica,sans-Serif" font-size="10.00">+ applyRemesh()</text>
<text text-anchor="start" x="8" y="-200.5" font-family="Helvetica,sans-Serif" font-size="10.00">+ fieldTau()</text>
<text text-anchor="start" x="8" y="-189.5" font-family="Helvetica,sans-Serif" font-size="10.00">+ fieldTauPtr()</text>
<text text-anchor="start" x="8" y="-178.5" font-family="Helvetica,sans-Serif" font-size="10.00">+ hSize()</text>
<text text-anchor="start" x="8" y="-167.5" font-family="Helvetica,sans-Serif" font-size="10.00">+ hSizeMethod()</text>
<text text-anchor="start" x="8" y="-156.5" font-family="Helvetica,sans-Serif" font-size="10.00">and 10 more...</text>
</a>
</g>
</g>
<!-- Node2 -->
<g id="node2" class="node">
<title>Node2</title>
<g id="a_node2"><a xlink:href="classFeel_1_1FeelModels_1_1StabilizationGLSParameter.html" target="_top" xlink:title=" ">
<polygon fill="white" stroke="black" points="4,-0.5 4,-112.5 177,-112.5 177,-0.5 4,-0.5"/>
<text text-anchor="start" x="12" y="-100.5" font-family="Helvetica,sans-Serif" font-size="10.00">Feel::FeelModels::Stabilization</text>
<text text-anchor="middle" x="90.5" y="-89.5" font-family="Helvetica,sans-Serif" font-size="10.00">GLSParameter&lt; MeshType &gt;</text>
<polyline fill="none" stroke="black" points="4,-82.5 177,-82.5 "/>
<text text-anchor="start" x="12" y="-70.5" font-family="Helvetica,sans-Serif" font-size="10.00">+ nOrder</text>
<polyline fill="none" stroke="black" points="4,-63.5 177,-63.5 "/>
<text text-anchor="start" x="12" y="-51.5" font-family="Helvetica,sans-Serif" font-size="10.00">+ applyRemesh()</text>
<text text-anchor="start" x="12" y="-40.5" font-family="Helvetica,sans-Serif" font-size="10.00">+ init()</text>
<text text-anchor="start" x="12" y="-29.5" font-family="Helvetica,sans-Serif" font-size="10.00">+ StabilizationGLSParameter()</text>
<text text-anchor="start" x="12" y="-18.5" font-family="Helvetica,sans-Serif" font-size="10.00">+ updateTau()</text>
<text text-anchor="start" x="12" y="-7.5" font-family="Helvetica,sans-Serif" font-size="10.00">+ ~StabilizationGLSParameter()</text>
</a>
</g>
</g>
<!-- Node1&#45;&gt;Node2 -->
<g id="edge1" class="edge">
<title>Node1&#45;&gt;Node2</title>
<path fill="none" stroke="midnightblue" d="M90.5,-139.12C90.5,-130.1 90.5,-121.18 90.5,-112.75"/>
<polygon fill="none" stroke="midnightblue" points="87,-139.35 90.5,-149.35 94,-139.35 87,-139.35"/>
</g>
</g>
</svg>
