<?xml version="1.0" encoding="UTF-8" standalone="no"?>
<!DOCTYPE svg PUBLIC "-//W3C//DTD SVG 1.1//EN"
 "http://www.w3.org/Graphics/SVG/1.1/DTD/svg11.dtd">
<!-- Generated by graphviz version 2.43.0 (0)
 -->
<!-- Title: Feel::ProductSpace&lt; T, same_mesh &gt; Pages: 1 -->
<svg width="452pt" height="448pt"
 viewBox="0.00 0.00 451.50 448.00" xmlns="http://www.w3.org/2000/svg" xmlns:xlink="http://www.w3.org/1999/xlink">
<g id="graph0" class="graph" transform="scale(1 1) rotate(0) translate(4 444)">
<title>Feel::ProductSpace&lt; T, same_mesh &gt;</title>
<polygon fill="white" stroke="transparent" points="-4,4 -4,-444 447.5,-444 447.5,4 -4,4"/>
<!-- Node1 -->
<g id="node1" class="node">
<title>Node1</title>
<g id="a_node1"><a xlink:title=" ">
<polygon fill="#bfbfbf" stroke="black" points="142,-0.5 142,-123.5 289,-123.5 289,-0.5 142,-0.5"/>
<text text-anchor="start" x="150" y="-111.5" font-family="Helvetica,sans-Serif" font-size="10.00">Feel::ProductSpace</text>
<text text-anchor="middle" x="215.5" y="-100.5" font-family="Helvetica,sans-Serif" font-size="10.00">&lt; T, same_mesh &gt;</text>
<polyline fill="none" stroke="black" points="142,-93.5 289,-93.5 "/>
<text text-anchor="middle" x="215.5" y="-81.5" font-family="Helvetica,sans-Serif" font-size="10.00"> </text>
<polyline fill="none" stroke="black" points="142,-74.5 289,-74.5 "/>
<text text-anchor="start" x="150" y="-62.5" font-family="Helvetica,sans-Serif" font-size="10.00">+ element()</text>
<text text-anchor="start" x="150" y="-51.5" font-family="Helvetica,sans-Serif" font-size="10.00">+ elementPtr()</text>
<text text-anchor="start" x="150" y="-40.5" font-family="Helvetica,sans-Serif" font-size="10.00">+ hasIbcSpace()</text>
<text text-anchor="start" x="150" y="-29.5" font-family="Helvetica,sans-Serif" font-size="10.00">+ hasOtherThanIbcSpace()</text>
<text text-anchor="start" x="150" y="-18.5" font-family="Helvetica,sans-Serif" font-size="10.00">+ isIbcSpace()</text>
<text text-anchor="start" x="150" y="-7.5" font-family="Helvetica,sans-Serif" font-size="10.00">and 14 more...</text>
</a>
</g>
</g>
<!-- Node2 -->
<g id="node2" class="node">
<title>Node2</title>
<g id="a_node2"><a xlink:title=" ">
<polygon fill="white" stroke="black" points="0,-171.5 0,-228.5 97,-228.5 97,-171.5 0,-171.5"/>
<text text-anchor="middle" x="48.5" y="-216.5" font-family="Helvetica,sans-Serif" font-size="10.00">std::vector&lt; T &gt;</text>
<polyline fill="none" stroke="black" points="0,-209.5 97,-209.5 "/>
<text text-anchor="middle" x="48.5" y="-197.5" font-family="Helvetica,sans-Serif" font-size="10.00"> </text>
<polyline fill="none" stroke="black" points="0,-190.5 97,-190.5 "/>
<text text-anchor="middle" x="48.5" y="-178.5" font-family="Helvetica,sans-Serif" font-size="10.00"> </text>
</a>
</g>
</g>
<!-- Node2&#45;&gt;Node1 -->
<g id="edge1" class="edge">
<title>Node2&#45;&gt;Node1</title>
<path fill="none" stroke="midnightblue" d="M90.21,-165.03C105.83,-152.31 124.09,-137.44 141.75,-123.06"/>
<polygon fill="none" stroke="midnightblue" points="87.84,-162.45 82.29,-171.48 92.26,-167.88 87.84,-162.45"/>
</g>
<!-- Node3 -->
<g id="node3" class="node">
<title>Node3</title>
<g id="a_node3"><a xlink:title=" ">
<polygon fill="white" stroke="#bfbfbf" points="34,-276.5 34,-333.5 63,-333.5 63,-276.5 34,-276.5"/>
<text text-anchor="middle" x="48.5" y="-321.5" font-family="Helvetica,sans-Serif" font-size="10.00">T</text>
<polyline fill="none" stroke="#bfbfbf" points="34,-314.5 63,-314.5 "/>
<text text-anchor="middle" x="48.5" y="-302.5" font-family="Helvetica,sans-Serif" font-size="10.00"> </text>
<polyline fill="none" stroke="#bfbfbf" points="34,-295.5 63,-295.5 "/>
<text text-anchor="middle" x="48.5" y="-283.5" font-family="Helvetica,sans-Serif" font-size="10.00"> </text>
</a>
</g>
</g>
<!-- Node3&#45;&gt;Node2 -->
<g id="edge2" class="edge">
<title>Node3&#45;&gt;Node2</title>
<path fill="none" stroke="#404040" d="M48.5,-276.4C48.5,-265.55 48.5,-252.87 48.5,-241.05"/>
<polygon fill="none" stroke="#404040" points="48.5,-240.68 44.5,-234.68 48.5,-228.68 52.5,-234.68 48.5,-240.68"/>
<text text-anchor="middle" x="77.5" y="-250" font-family="Helvetica,sans-Serif" font-size="10.00"> +elements</text>
</g>
<!-- Node4 -->
<g id="node4" class="node">
<title>Node4</title>
<g id="a_node4"><a xlink:title=" ">
<polygon fill="white" stroke="#bfbfbf" points="115,-171.5 115,-228.5 222,-228.5 222,-171.5 115,-171.5"/>
<text text-anchor="middle" x="168.5" y="-216.5" font-family="Helvetica,sans-Serif" font-size="10.00">ProductSpaceBase</text>
<polyline fill="none" stroke="#bfbfbf" points="115,-209.5 222,-209.5 "/>
<text text-anchor="middle" x="168.5" y="-197.5" font-family="Helvetica,sans-Serif" font-size="10.00"> </text>
<polyline fill="none" stroke="#bfbfbf" points="115,-190.5 222,-190.5 "/>
<text text-anchor="middle" x="168.5" y="-178.5" font-family="Helvetica,sans-Serif" font-size="10.00"> </text>
</a>
</g>
</g>
<!-- Node4&#45;&gt;Node1 -->
<g id="edge3" class="edge">
<title>Node4&#45;&gt;Node1</title>
<path fill="none" stroke="#8b1a1a" d="M181.3,-161.95C185.39,-150.11 190.04,-136.68 194.55,-123.62"/>
<polygon fill="none" stroke="#8b1a1a" points="177.97,-160.88 178.01,-171.48 184.59,-163.17 177.97,-160.88"/>
</g>
<!-- Node5 -->
<g id="node5" class="node">
<title>Node5</title>
<g id="a_node5"><a xlink:href="classsize__t.html" target="_top" xlink:title=" ">
<polygon fill="white" stroke="#bfbfbf" points="240,-171.5 240,-228.5 285,-228.5 285,-171.5 240,-171.5"/>
<text text-anchor="middle" x="262.5" y="-216.5" font-family="Helvetica,sans-Serif" font-size="10.00">size_t</text>
<polyline fill="none" stroke="#bfbfbf" points="240,-209.5 285,-209.5 "/>
<text text-anchor="middle" x="262.5" y="-197.5" font-family="Helvetica,sans-Serif" font-size="10.00"> </text>
<polyline fill="none" stroke="#bfbfbf" points="240,-190.5 285,-190.5 "/>
<text text-anchor="middle" x="262.5" y="-178.5" font-family="Helvetica,sans-Serif" font-size="10.00"> </text>
</a>
</g>
</g>
<!-- Node5&#45;&gt;Node1 -->
<g id="edge4" class="edge">
<title>Node5&#45;&gt;Node1</title>
<path fill="none" stroke="#404040" d="M252.99,-171.48C249.3,-160.79 244.88,-148.01 240.39,-135.03"/>
<polygon fill="none" stroke="#404040" points="240.37,-134.96 234.63,-130.6 236.45,-123.62 242.19,-127.99 240.37,-134.96"/>
<text text-anchor="middle" x="279.5" y="-145" font-family="Helvetica,sans-Serif" font-size="10.00"> +M_nspaces</text>
</g>
<!-- Node6 -->
<g id="node6" class="node">
<title>Node6</title>
<g id="a_node6"><a xlink:title=" ">
<polygon fill="white" stroke="black" points="303.5,-171.5 303.5,-228.5 443.5,-228.5 443.5,-171.5 303.5,-171.5"/>
<text text-anchor="middle" x="373.5" y="-216.5" font-family="Helvetica,sans-Serif" font-size="10.00">std::vector&lt; std::string &gt;</text>
<polyline fill="none" stroke="black" points="303.5,-209.5 443.5,-209.5 "/>
<text text-anchor="middle" x="373.5" y="-197.5" font-family="Helvetica,sans-Serif" font-size="10.00"> </text>
<polyline fill="none" stroke="black" points="303.5,-190.5 443.5,-190.5 "/>
<text text-anchor="middle" x="373.5" y="-178.5" font-family="Helvetica,sans-Serif" font-size="10.00"> </text>
</a>
</g>
</g>
<!-- Node6&#45;&gt;Node1 -->
<g id="edge5" class="edge">
<title>Node6&#45;&gt;Node1</title>
<path fill="none" stroke="#404040" d="M347.19,-171.34C337.75,-161.79 326.87,-151.18 316.5,-142 310.81,-136.96 304.85,-131.87 298.78,-126.82"/>
<polygon fill="none" stroke="#404040" points="298.45,-126.55 291.27,-125.83 289.18,-118.93 296.35,-119.65 298.45,-126.55"/>
<text text-anchor="middle" x="355" y="-145" font-family="Helvetica,sans-Serif" font-size="10.00"> +M_props</text>
</g>
<!-- Node7 -->
<g id="node7" class="node">
<title>Node7</title>
<g id="a_node7"><a xlink:title=" ">
<polygon fill="white" stroke="black" points="341,-276.5 341,-333.5 406,-333.5 406,-276.5 341,-276.5"/>
<text text-anchor="middle" x="373.5" y="-321.5" font-family="Helvetica,sans-Serif" font-size="10.00">std::string</text>
<polyline fill="none" stroke="black" points="341,-314.5 406,-314.5 "/>
<text text-anchor="middle" x="373.5" y="-302.5" font-family="Helvetica,sans-Serif" font-size="10.00"> </text>
<polyline fill="none" stroke="black" points="341,-295.5 406,-295.5 "/>
<text text-anchor="middle" x="373.5" y="-283.5" font-family="Helvetica,sans-Serif" font-size="10.00"> </text>
</a>
</g>
</g>
<!-- Node7&#45;&gt;Node6 -->
<g id="edge6" class="edge">
<title>Node7&#45;&gt;Node6</title>
<path fill="none" stroke="#404040" d="M373.5,-276.4C373.5,-265.55 373.5,-252.87 373.5,-241.05"/>
<polygon fill="none" stroke="#404040" points="373.5,-240.68 369.5,-234.68 373.5,-228.68 377.5,-234.68 373.5,-240.68"/>
<text text-anchor="middle" x="402.5" y="-250" font-family="Helvetica,sans-Serif" font-size="10.00"> +elements</text>
</g>
<!-- Node8 -->
<g id="node8" class="node">
<title>Node8</title>
<g id="a_node8"><a xlink:title=" ">
<polygon fill="white" stroke="black" points="321.5,-371.5 321.5,-439.5 425.5,-439.5 425.5,-371.5 321.5,-371.5"/>
<text text-anchor="start" x="329.5" y="-427.5" font-family="Helvetica,sans-Serif" font-size="10.00">std::basic_string&lt;</text>
<text text-anchor="middle" x="373.5" y="-416.5" font-family="Helvetica,sans-Serif" font-size="10.00"> Char &gt;</text>
<polyline fill="none" stroke="black" points="321.5,-409.5 425.5,-409.5 "/>
<text text-anchor="middle" x="373.5" y="-397.5" font-family="Helvetica,sans-Serif" font-size="10.00"> </text>
<polyline fill="none" stroke="black" points="321.5,-390.5 425.5,-390.5 "/>
<text text-anchor="middle" x="373.5" y="-378.5" font-family="Helvetica,sans-Serif" font-size="10.00"> </text>
</a>
</g>
</g>
<!-- Node8&#45;&gt;Node7 -->
<g id="edge7" class="edge">
<title>Node8&#45;&gt;Node7</title>
<path fill="none" stroke="midnightblue" d="M373.5,-361.38C373.5,-351.94 373.5,-342.2 373.5,-333.57"/>
<polygon fill="none" stroke="midnightblue" points="370,-361.43 373.5,-371.43 377,-361.43 370,-361.43"/>
</g>
</g>
</svg>
