<?xml version="1.0" encoding="UTF-8" standalone="no"?>
<!DOCTYPE svg PUBLIC "-//W3C//DTD SVG 1.1//EN"
 "http://www.w3.org/Graphics/SVG/1.1/DTD/svg11.dtd">
<!-- Generated by graphviz version 2.43.0 (0)
 -->
<!-- Title: Feel::GeometricSpace&lt; MeshType &gt;::ContextGeometric Pages: 1 -->
<svg width="191pt" height="226pt"
 viewBox="0.00 0.00 191.00 226.00" xmlns="http://www.w3.org/2000/svg" xmlns:xlink="http://www.w3.org/1999/xlink">
<g id="graph0" class="graph" transform="scale(1 1) rotate(0) translate(4 222)">
<title>Feel::GeometricSpace&lt; MeshType &gt;::ContextGeometric</title>
<polygon fill="white" stroke="transparent" points="-4,4 -4,-222 187,-222 187,4 -4,4"/>
<!-- Node1 -->
<g id="node1" class="node">
<title>Node1</title>
<g id="a_node1"><a xlink:title=" ">
<polygon fill="#bfbfbf" stroke="black" points="0,-0.5 0,-123.5 183,-123.5 183,-0.5 0,-0.5"/>
<text text-anchor="start" x="8" y="-111.5" font-family="Helvetica,sans-Serif" font-size="10.00">Feel::GeometricSpace</text>
<text text-anchor="middle" x="91.5" y="-100.5" font-family="Helvetica,sans-Serif" font-size="10.00">&lt; MeshType &gt;::ContextGeometric</text>
<polyline fill="none" stroke="black" points="0,-93.5 183,-93.5 "/>
<text text-anchor="middle" x="91.5" y="-81.5" font-family="Helvetica,sans-Serif" font-size="10.00"> </text>
<polyline fill="none" stroke="black" points="0,-74.5 183,-74.5 "/>
<text text-anchor="start" x="8" y="-62.5" font-family="Helvetica,sans-Serif" font-size="10.00">+ ContextGeometric()</text>
<text text-anchor="start" x="8" y="-51.5" font-family="Helvetica,sans-Serif" font-size="10.00">+ ContextGeometric()</text>
<text text-anchor="start" x="8" y="-40.5" font-family="Helvetica,sans-Serif" font-size="10.00">+ ContextGeometric()</text>
<text text-anchor="start" x="8" y="-29.5" font-family="Helvetica,sans-Serif" font-size="10.00">+ gmContext()</text>
<text text-anchor="start" x="8" y="-18.5" font-family="Helvetica,sans-Serif" font-size="10.00">+ setMeshGeoContext()</text>
<text text-anchor="start" x="8" y="-7.5" font-family="Helvetica,sans-Serif" font-size="10.00">+ updateGmcContext()</text>
</a>
</g>
</g>
<!-- Node2 -->
<g id="node2" class="node">
<title>Node2</title>
<g id="a_node2"><a xlink:href="structFeel_1_1ContextGeometricBase.html" target="_top" xlink:title=" ">
<polygon fill="white" stroke="#bfbfbf" points="13.5,-160.5 13.5,-217.5 169.5,-217.5 169.5,-160.5 13.5,-160.5"/>
<text text-anchor="middle" x="91.5" y="-205.5" font-family="Helvetica,sans-Serif" font-size="10.00">Feel::ContextGeometricBase</text>
<polyline fill="none" stroke="#bfbfbf" points="13.5,-198.5 169.5,-198.5 "/>
<text text-anchor="middle" x="91.5" y="-186.5" font-family="Helvetica,sans-Serif" font-size="10.00"> </text>
<polyline fill="none" stroke="#bfbfbf" points="13.5,-179.5 169.5,-179.5 "/>
<text text-anchor="middle" x="91.5" y="-167.5" font-family="Helvetica,sans-Serif" font-size="10.00"> </text>
</a>
</g>
</g>
<!-- Node2&#45;&gt;Node1 -->
<g id="edge1" class="edge">
<title>Node2&#45;&gt;Node1</title>
<path fill="none" stroke="midnightblue" d="M91.5,-150.1C91.5,-141.74 91.5,-132.68 91.5,-123.67"/>
<polygon fill="none" stroke="midnightblue" points="88,-150.26 91.5,-160.26 95,-150.26 88,-150.26"/>
</g>
</g>
</svg>
