<?xml version="1.0" encoding="UTF-8" standalone="no"?>
<!DOCTYPE svg PUBLIC "-//W3C//DTD SVG 1.1//EN"
 "http://www.w3.org/Graphics/SVG/1.1/DTD/svg11.dtd">
<!-- Generated by graphviz version 2.43.0 (0)
 -->
<!-- Title: Feel::FeelModels::ModelPhysic&lt; Dim &gt; Pages: 1 -->
<!--zoomable 810 -->
<svg id="main" version="1.1" xmlns="http://www.w3.org/2000/svg" xmlns:xlink="http://www.w3.org/1999/xlink" xml:space="preserve" onload="init(evt)">
<style type="text/css"><![CDATA[
.edge:hover path { stroke: red; }
.edge:hover polygon { stroke: red; fill: red; }
]]></style>
<script type="text/javascript"><![CDATA[
var edges = document.getElementsByTagName('g');
if (edges && edges.length) {
  for (var i=0;i<edges.length;i++) {
    if (edges[i].id.substr(0,4)=='edge') {
      edges[i].setAttribute('class','edge');
    }
  }
}
]]></script>
        <defs>
                <circle id="rim" cx="0" cy="0" r="7"/>
                <circle id="rim2" cx="0" cy="0" r="3.5"/>
                <g id="zoomPlus">
                        <use xlink:href="#rim" fill="#404040">
                                <set attributeName="fill" to="#808080" begin="zoomplus.mouseover" end="zoomplus.mouseout"/>
                        </use>
                        <path d="M-4,0h8M0,-4v8" fill="none" stroke="white" stroke-width="1.5" pointer-events="none"/>
                </g>
                <g id="zoomMin">
                        <use xlink:href="#rim" fill="#404040">
                                <set attributeName="fill" to="#808080" begin="zoomminus.mouseover" end="zoomminus.mouseout"/>
                        </use>
                        <path d="M-4,0h8" fill="none" stroke="white" stroke-width="1.5" pointer-events="none"/>
                </g>
                <g id="dirArrow">
                        <path fill="none" stroke="white" stroke-width="1.5" d="M0,-3.0v7 M-2.5,-0.5L0,-3.0L2.5,-0.5"/>
                </g>
               <g id="resetDef">
                       <use xlink:href="#rim2" fill="#404040">
                               <set attributeName="fill" to="#808080" begin="reset.mouseover" end="reset.mouseout"/>
                       </use>
               </g>
        </defs>

<script type="text/javascript">
var viewWidth = 1590;
var viewHeight = 810;
var sectionId = 'dynsection-0';
</script>
<script xlink:href="svgpan.js"/>
<svg id="graph" class="graph">
<g id="viewport">
<title>Feel::FeelModels::ModelPhysic&lt; Dim &gt;</title>
<polygon fill="white" stroke="transparent" points="-4,4 -4,-806 1586,-806 1586,4 -4,4"/>
<!-- Node1 -->
<g id="node1" class="node">
<title>Node1</title>
<g id="a_node1"><a xlink:title="Physic of the Model.">
<polygon fill="#bfbfbf" stroke="black" points="693.5,-171.5 693.5,-382.5 884.5,-382.5 884.5,-171.5 693.5,-171.5"/>
<text text-anchor="start" x="701.5" y="-370.5" font-family="Helvetica,sans-Serif" font-size="10.00">Feel::FeelModels::ModelPhysic</text>
<text text-anchor="middle" x="789" y="-359.5" font-family="Helvetica,sans-Serif" font-size="10.00">&lt; Dim &gt;</text>
<polyline fill="none" stroke="black" points="693.5,-352.5 884.5,-352.5 "/>
<text text-anchor="start" x="701.5" y="-340.5" font-family="Helvetica,sans-Serif" font-size="10.00">+ nDim</text>
<polyline fill="none" stroke="black" points="693.5,-333.5 884.5,-333.5 "/>
<text text-anchor="start" x="701.5" y="-321.5" font-family="Helvetica,sans-Serif" font-size="10.00">+ addMaterialNames()</text>
<text text-anchor="start" x="701.5" y="-310.5" font-family="Helvetica,sans-Serif" font-size="10.00">+ addMaterialPropertyDescription()</text>
<text text-anchor="start" x="701.5" y="-299.5" font-family="Helvetica,sans-Serif" font-size="10.00">+ addParameter()</text>
<text text-anchor="start" x="701.5" y="-288.5" font-family="Helvetica,sans-Serif" font-size="10.00">+ addParameter()</text>
<text text-anchor="start" x="701.5" y="-277.5" font-family="Helvetica,sans-Serif" font-size="10.00">+ addParameter()</text>
<text text-anchor="start" x="701.5" y="-266.5" font-family="Helvetica,sans-Serif" font-size="10.00">and 28 more...</text>
<text text-anchor="start" x="701.5" y="-255.5" font-family="Helvetica,sans-Serif" font-size="10.00">+ New()</text>
<text text-anchor="start" x="701.5" y="-244.5" font-family="Helvetica,sans-Serif" font-size="10.00"># parameterModelExpr()</text>
<text text-anchor="start" x="701.5" y="-233.5" font-family="Helvetica,sans-Serif" font-size="10.00"># updateTabulateInformations</text>
<text text-anchor="start" x="701.5" y="-222.5" font-family="Helvetica,sans-Serif" font-size="10.00">Basic()</text>
<text text-anchor="start" x="701.5" y="-211.5" font-family="Helvetica,sans-Serif" font-size="10.00"># updateTabulateInformations</text>
<text text-anchor="start" x="701.5" y="-200.5" font-family="Helvetica,sans-Serif" font-size="10.00">Parameters()</text>
<text text-anchor="start" x="701.5" y="-189.5" font-family="Helvetica,sans-Serif" font-size="10.00"># updateTabulateInformations</text>
<text text-anchor="start" x="701.5" y="-178.5" font-family="Helvetica,sans-Serif" font-size="10.00">Subphysics()</text>
</a>
</g>
</g>
<!-- Node4 -->
<g id="node4" class="node">
<title>Node4</title>
<g id="a_node4"><a xlink:href="classFeel_1_1FeelModels_1_1ModelPhysicCoefficientFormPDE.html" target="_top" xlink:title="CoefficientFormPDE Physic Model.">
<polygon fill="white" stroke="black" points="0,-6 0,-129 194,-129 194,-6 0,-6"/>
<text text-anchor="start" x="8" y="-117" font-family="Helvetica,sans-Serif" font-size="10.00">Feel::FeelModels::ModelPhysic</text>
<text text-anchor="middle" x="97" y="-106" font-family="Helvetica,sans-Serif" font-size="10.00">CoefficientFormPDE&lt; Dim &gt;</text>
<polyline fill="none" stroke="black" points="0,-99 194,-99 "/>
<text text-anchor="middle" x="97" y="-87" font-family="Helvetica,sans-Serif" font-size="10.00"> </text>
<polyline fill="none" stroke="black" points="0,-80 194,-80 "/>
<text text-anchor="start" x="8" y="-68" font-family="Helvetica,sans-Serif" font-size="10.00">+ coefficient()</text>
<text text-anchor="start" x="8" y="-57" font-family="Helvetica,sans-Serif" font-size="10.00">+ coefficientExpr()</text>
<text text-anchor="start" x="8" y="-46" font-family="Helvetica,sans-Serif" font-size="10.00">+ hasCoefficient()</text>
<text text-anchor="start" x="8" y="-35" font-family="Helvetica,sans-Serif" font-size="10.00">+ infos()</text>
<text text-anchor="start" x="8" y="-24" font-family="Helvetica,sans-Serif" font-size="10.00">+ ModelPhysicCoefficientFormPDE()</text>
<text text-anchor="start" x="8" y="-13" font-family="Helvetica,sans-Serif" font-size="10.00">and 4 more...</text>
</a>
</g>
</g>
<!-- Node1&#45;&gt;Node4 -->
<g id="edge3" class="edge">
<title>Node1&#45;&gt;Node4</title>
<path fill="none" stroke="midnightblue" d="M683.5,-261.19C563.63,-241.97 363.78,-202.64 203,-135 198.69,-133.19 194.36,-131.21 190.05,-129.11"/>
<polygon fill="none" stroke="midnightblue" points="682.99,-264.65 693.42,-262.76 684.09,-257.74 682.99,-264.65"/>
</g>
<!-- Node5 -->
<g id="node5" class="node">
<title>Node5</title>
<g id="a_node5"><a xlink:href="classFeel_1_1FeelModels_1_1ModelPhysicCoefficientFormPDEs.html" target="_top" xlink:title="CoefficientFormPDE set Physic Model.">
<polygon fill="white" stroke="black" points="212.5,-0.5 212.5,-134.5 411.5,-134.5 411.5,-0.5 212.5,-0.5"/>
<text text-anchor="start" x="220.5" y="-122.5" font-family="Helvetica,sans-Serif" font-size="10.00">Feel::FeelModels::ModelPhysic</text>
<text text-anchor="middle" x="312" y="-111.5" font-family="Helvetica,sans-Serif" font-size="10.00">CoefficientFormPDEs&lt; Dim &gt;</text>
<polyline fill="none" stroke="black" points="212.5,-104.5 411.5,-104.5 "/>
<text text-anchor="middle" x="312" y="-92.5" font-family="Helvetica,sans-Serif" font-size="10.00"> </text>
<polyline fill="none" stroke="black" points="212.5,-85.5 411.5,-85.5 "/>
<text text-anchor="start" x="220.5" y="-73.5" font-family="Helvetica,sans-Serif" font-size="10.00">+ ModelPhysicCoefficientFormPDEs()</text>
<text text-anchor="start" x="220.5" y="-62.5" font-family="Helvetica,sans-Serif" font-size="10.00">+ ModelPhysicCoefficientFormPDEs()</text>
<text text-anchor="start" x="220.5" y="-51.5" font-family="Helvetica,sans-Serif" font-size="10.00">+ ModelPhysicCoefficientFormPDEs()</text>
<text text-anchor="start" x="220.5" y="-40.5" font-family="Helvetica,sans-Serif" font-size="10.00">+ pdes()</text>
<text text-anchor="start" x="220.5" y="-29.5" font-family="Helvetica,sans-Serif" font-size="10.00">+ pdes()</text>
<text text-anchor="start" x="220.5" y="-18.5" font-family="Helvetica,sans-Serif" font-size="10.00">+ tabulateInformations()</text>
<text text-anchor="start" x="220.5" y="-7.5" font-family="Helvetica,sans-Serif" font-size="10.00">+ updateInformationObject()</text>
</a>
</g>
</g>
<!-- Node1&#45;&gt;Node5 -->
<g id="edge4" class="edge">
<title>Node1&#45;&gt;Node5</title>
<path fill="none" stroke="midnightblue" d="M683.31,-241.26C608.56,-215.31 506.79,-177.17 421,-135 417.92,-133.48 414.81,-131.91 411.69,-130.29"/>
<polygon fill="none" stroke="midnightblue" points="682.62,-244.72 693.21,-244.68 684.9,-238.11 682.62,-244.72"/>
</g>
<!-- Node6 -->
<g id="node6" class="node">
<title>Node6</title>
<g id="a_node6"><a xlink:href="classFeel_1_1FeelModels_1_1ModelPhysicElectric.html" target="_top" xlink:title="Electric Physic Model.">
<polygon fill="white" stroke="black" points="430,-11.5 430,-123.5 596,-123.5 596,-11.5 430,-11.5"/>
<text text-anchor="start" x="438" y="-111.5" font-family="Helvetica,sans-Serif" font-size="10.00">Feel::FeelModels::ModelPhysic</text>
<text text-anchor="middle" x="513" y="-100.5" font-family="Helvetica,sans-Serif" font-size="10.00">Electric&lt; Dim &gt;</text>
<polyline fill="none" stroke="black" points="430,-93.5 596,-93.5 "/>
<text text-anchor="middle" x="513" y="-81.5" font-family="Helvetica,sans-Serif" font-size="10.00"> </text>
<polyline fill="none" stroke="black" points="430,-74.5 596,-74.5 "/>
<text text-anchor="start" x="438" y="-62.5" font-family="Helvetica,sans-Serif" font-size="10.00">+ ModelPhysicElectric()</text>
<text text-anchor="start" x="438" y="-51.5" font-family="Helvetica,sans-Serif" font-size="10.00">+ ModelPhysicElectric()</text>
<text text-anchor="start" x="438" y="-40.5" font-family="Helvetica,sans-Serif" font-size="10.00">+ ModelPhysicElectric()</text>
<text text-anchor="start" x="438" y="-29.5" font-family="Helvetica,sans-Serif" font-size="10.00">+ tabulateInformations()</text>
<text text-anchor="start" x="438" y="-18.5" font-family="Helvetica,sans-Serif" font-size="10.00">+ updateInformationObject()</text>
</a>
</g>
</g>
<!-- Node1&#45;&gt;Node6 -->
<g id="edge5" class="edge">
<title>Node1&#45;&gt;Node6</title>
<path fill="none" stroke="midnightblue" d="M684.96,-197.78C652.15,-173.11 616.6,-146.39 586.39,-123.68"/>
<polygon fill="none" stroke="midnightblue" points="683.15,-200.8 693.24,-204.01 687.35,-195.2 683.15,-200.8"/>
</g>
<!-- Node7 -->
<g id="node7" class="node">
<title>Node7</title>
<g id="a_node7"><a xlink:href="classFeel_1_1FeelModels_1_1ModelPhysicFluid.html" target="_top" xlink:title="Fluid Physic Model.">
<polygon fill="white" stroke="black" points="614,-6 614,-129 780,-129 780,-6 614,-6"/>
<text text-anchor="start" x="622" y="-117" font-family="Helvetica,sans-Serif" font-size="10.00">Feel::FeelModels::ModelPhysic</text>
<text text-anchor="middle" x="697" y="-106" font-family="Helvetica,sans-Serif" font-size="10.00">Fluid&lt; Dim &gt;</text>
<polyline fill="none" stroke="black" points="614,-99 780,-99 "/>
<text text-anchor="middle" x="697" y="-87" font-family="Helvetica,sans-Serif" font-size="10.00"> </text>
<polyline fill="none" stroke="black" points="614,-80 780,-80 "/>
<text text-anchor="start" x="622" y="-68" font-family="Helvetica,sans-Serif" font-size="10.00">+ dynamicViscosity()</text>
<text text-anchor="start" x="622" y="-57" font-family="Helvetica,sans-Serif" font-size="10.00">+ equation()</text>
<text text-anchor="start" x="622" y="-46" font-family="Helvetica,sans-Serif" font-size="10.00">+ gravityForceEnabled()</text>
<text text-anchor="start" x="622" y="-35" font-family="Helvetica,sans-Serif" font-size="10.00">+ gravityForceExpr()</text>
<text text-anchor="start" x="622" y="-24" font-family="Helvetica,sans-Serif" font-size="10.00">+ ModelPhysicFluid()</text>
<text text-anchor="start" x="622" y="-13" font-family="Helvetica,sans-Serif" font-size="10.00">and 9 more...</text>
</a>
</g>
</g>
<!-- Node1&#45;&gt;Node7 -->
<g id="edge6" class="edge">
<title>Node1&#45;&gt;Node7</title>
<path fill="none" stroke="midnightblue" d="M738.53,-162.17C733.48,-150.78 728.5,-139.54 723.84,-129.03"/>
<polygon fill="none" stroke="midnightblue" points="735.34,-163.62 742.6,-171.34 741.74,-160.78 735.34,-163.62"/>
</g>
<!-- Node8 -->
<g id="node8" class="node">
<title>Node8</title>
<g id="a_node8"><a xlink:href="classFeel_1_1FeelModels_1_1ModelPhysicFSI.html" target="_top" xlink:title="Fluid Structure Interaction Physic Model.">
<polygon fill="white" stroke="black" points="798,-0.5 798,-134.5 964,-134.5 964,-0.5 798,-0.5"/>
<text text-anchor="start" x="806" y="-122.5" font-family="Helvetica,sans-Serif" font-size="10.00">Feel::FeelModels::ModelPhysic</text>
<text text-anchor="middle" x="881" y="-111.5" font-family="Helvetica,sans-Serif" font-size="10.00">FSI&lt; Dim &gt;</text>
<polyline fill="none" stroke="black" points="798,-104.5 964,-104.5 "/>
<text text-anchor="middle" x="881" y="-92.5" font-family="Helvetica,sans-Serif" font-size="10.00"> </text>
<polyline fill="none" stroke="black" points="798,-85.5 964,-85.5 "/>
<text text-anchor="start" x="806" y="-73.5" font-family="Helvetica,sans-Serif" font-size="10.00">+ interfaceFluid()</text>
<text text-anchor="start" x="806" y="-62.5" font-family="Helvetica,sans-Serif" font-size="10.00">+ interfaceSolid()</text>
<text text-anchor="start" x="806" y="-51.5" font-family="Helvetica,sans-Serif" font-size="10.00">+ ModelPhysicFSI()</text>
<text text-anchor="start" x="806" y="-40.5" font-family="Helvetica,sans-Serif" font-size="10.00">+ ModelPhysicFSI()</text>
<text text-anchor="start" x="806" y="-29.5" font-family="Helvetica,sans-Serif" font-size="10.00">+ ModelPhysicFSI()</text>
<text text-anchor="start" x="806" y="-18.5" font-family="Helvetica,sans-Serif" font-size="10.00">+ tabulateInformations()</text>
<text text-anchor="start" x="806" y="-7.5" font-family="Helvetica,sans-Serif" font-size="10.00">+ updateInformationObject()</text>
</a>
</g>
</g>
<!-- Node1&#45;&gt;Node8 -->
<g id="edge7" class="edge">
<title>Node1&#45;&gt;Node8</title>
<path fill="none" stroke="midnightblue" d="M839.55,-161.99C843.69,-152.66 847.77,-143.44 851.67,-134.65"/>
<polygon fill="none" stroke="midnightblue" points="836.26,-160.78 835.4,-171.34 842.66,-163.62 836.26,-160.78"/>
</g>
<!-- Node9 -->
<g id="node9" class="node">
<title>Node9</title>
<g id="a_node9"><a xlink:href="classFeel_1_1FeelModels_1_1ModelPhysicHeat.html" target="_top" xlink:title="Heat Physic Model.">
<polygon fill="white" stroke="black" points="982,-6 982,-129 1148,-129 1148,-6 982,-6"/>
<text text-anchor="start" x="990" y="-117" font-family="Helvetica,sans-Serif" font-size="10.00">Feel::FeelModels::ModelPhysic</text>
<text text-anchor="middle" x="1065" y="-106" font-family="Helvetica,sans-Serif" font-size="10.00">Heat&lt; Dim &gt;</text>
<polyline fill="none" stroke="black" points="982,-99 1148,-99 "/>
<text text-anchor="middle" x="1065" y="-87" font-family="Helvetica,sans-Serif" font-size="10.00"> </text>
<polyline fill="none" stroke="black" points="982,-80 1148,-80 "/>
<text text-anchor="start" x="990" y="-68" font-family="Helvetica,sans-Serif" font-size="10.00">+ convection()</text>
<text text-anchor="start" x="990" y="-57" font-family="Helvetica,sans-Serif" font-size="10.00">+ hasConvectionEnabled()</text>
<text text-anchor="start" x="990" y="-46" font-family="Helvetica,sans-Serif" font-size="10.00">+ heatSources()</text>
<text text-anchor="start" x="990" y="-35" font-family="Helvetica,sans-Serif" font-size="10.00">+ ModelPhysicHeat()</text>
<text text-anchor="start" x="990" y="-24" font-family="Helvetica,sans-Serif" font-size="10.00">+ ModelPhysicHeat()</text>
<text text-anchor="start" x="990" y="-13" font-family="Helvetica,sans-Serif" font-size="10.00">and 6 more...</text>
</a>
</g>
</g>
<!-- Node1&#45;&gt;Node9 -->
<g id="edge8" class="edge">
<title>Node1&#45;&gt;Node9</title>
<path fill="none" stroke="midnightblue" d="M892.83,-197.94C923.17,-175.13 955.87,-150.55 984.53,-129"/>
<polygon fill="none" stroke="midnightblue" points="890.65,-195.2 884.76,-204.01 894.85,-200.8 890.65,-195.2"/>
</g>
<!-- Node10 -->
<g id="node10" class="node">
<title>Node10</title>
<g id="a_node10"><a xlink:href="classFeel_1_1FeelModels_1_1ModelPhysicSolid.html" target="_top" xlink:title="Solid Physic Model.">
<polygon fill="white" stroke="black" points="1166.5,-6 1166.5,-129 1393.5,-129 1393.5,-6 1166.5,-6"/>
<text text-anchor="start" x="1174.5" y="-117" font-family="Helvetica,sans-Serif" font-size="10.00">Feel::FeelModels::ModelPhysic</text>
<text text-anchor="middle" x="1280" y="-106" font-family="Helvetica,sans-Serif" font-size="10.00">Solid&lt; Dim &gt;</text>
<polyline fill="none" stroke="black" points="1166.5,-99 1393.5,-99 "/>
<text text-anchor="middle" x="1280" y="-87" font-family="Helvetica,sans-Serif" font-size="10.00"> </text>
<polyline fill="none" stroke="black" points="1166.5,-80 1393.5,-80 "/>
<text text-anchor="start" x="1174.5" y="-68" font-family="Helvetica,sans-Serif" font-size="10.00">+ bodyForces()</text>
<text text-anchor="start" x="1174.5" y="-57" font-family="Helvetica,sans-Serif" font-size="10.00">+ compressibleNeoHookeanVariantName()</text>
<text text-anchor="start" x="1174.5" y="-46" font-family="Helvetica,sans-Serif" font-size="10.00">+ decouplingEnergyVolumicLaw()</text>
<text text-anchor="start" x="1174.5" y="-35" font-family="Helvetica,sans-Serif" font-size="10.00">+ equation()</text>
<text text-anchor="start" x="1174.5" y="-24" font-family="Helvetica,sans-Serif" font-size="10.00">+ formulation()</text>
<text text-anchor="start" x="1174.5" y="-13" font-family="Helvetica,sans-Serif" font-size="10.00">and 8 more...</text>
</a>
</g>
</g>
<!-- Node1&#45;&gt;Node10 -->
<g id="edge9" class="edge">
<title>Node1&#45;&gt;Node10</title>
<path fill="none" stroke="midnightblue" d="M894.41,-239.73C968.81,-213.13 1070.28,-174.85 1157,-135 1161.19,-133.07 1165.44,-131.07 1169.71,-129"/>
<polygon fill="none" stroke="midnightblue" points="892.8,-236.59 884.56,-243.24 895.15,-243.18 892.8,-236.59"/>
</g>
<!-- Node11 -->
<g id="node11" class="node">
<title>Node11</title>
<g id="a_node11"><a xlink:href="classFeel_1_1FeelModels_1_1ModelPhysicThermoElectric.html" target="_top" xlink:title="ThermoElectric Physic Model.">
<polygon fill="white" stroke="black" points="1412,-11.5 1412,-123.5 1582,-123.5 1582,-11.5 1412,-11.5"/>
<text text-anchor="start" x="1420" y="-111.5" font-family="Helvetica,sans-Serif" font-size="10.00">Feel::FeelModels::ModelPhysic</text>
<text text-anchor="middle" x="1497" y="-100.5" font-family="Helvetica,sans-Serif" font-size="10.00">ThermoElectric&lt; Dim &gt;</text>
<polyline fill="none" stroke="black" points="1412,-93.5 1582,-93.5 "/>
<text text-anchor="middle" x="1497" y="-81.5" font-family="Helvetica,sans-Serif" font-size="10.00"> </text>
<polyline fill="none" stroke="black" points="1412,-74.5 1582,-74.5 "/>
<text text-anchor="start" x="1420" y="-62.5" font-family="Helvetica,sans-Serif" font-size="10.00">+ ModelPhysicThermoElectric()</text>
<text text-anchor="start" x="1420" y="-51.5" font-family="Helvetica,sans-Serif" font-size="10.00">+ ModelPhysicThermoElectric()</text>
<text text-anchor="start" x="1420" y="-40.5" font-family="Helvetica,sans-Serif" font-size="10.00">+ ModelPhysicThermoElectric()</text>
<text text-anchor="start" x="1420" y="-29.5" font-family="Helvetica,sans-Serif" font-size="10.00">+ tabulateInformations()</text>
<text text-anchor="start" x="1420" y="-18.5" font-family="Helvetica,sans-Serif" font-size="10.00">+ updateInformationObject()</text>
</a>
</g>
</g>
<!-- Node1&#45;&gt;Node11 -->
<g id="edge10" class="edge">
<title>Node1&#45;&gt;Node11</title>
<path fill="none" stroke="midnightblue" d="M894.71,-264.42C1020.31,-247.83 1234.11,-210.57 1403,-135 1410.39,-131.69 1417.79,-127.77 1425.02,-123.5"/>
<polygon fill="none" stroke="midnightblue" points="894.16,-260.96 884.7,-265.72 895.07,-267.9 894.16,-260.96"/>
</g>
<!-- Node2 -->
<g id="node2" class="node">
<title>Node2</title>
<g id="a_node2"><a xlink:href="classFeel_1_1JournalWatcher.html" target="_top" xlink:title=" ">
<polygon fill="white" stroke="black" points="701,-419.5 701,-707.5 877,-707.5 877,-419.5 701,-419.5"/>
<text text-anchor="middle" x="789" y="-695.5" font-family="Helvetica,sans-Serif" font-size="10.00">Feel::JournalWatcher</text>
<polyline fill="none" stroke="black" points="701,-688.5 877,-688.5 "/>
<text text-anchor="middle" x="789" y="-676.5" font-family="Helvetica,sans-Serif" font-size="10.00"> </text>
<polyline fill="none" stroke="black" points="701,-669.5 877,-669.5 "/>
<text text-anchor="start" x="709" y="-657.5" font-family="Helvetica,sans-Serif" font-size="10.00">* JournalWatcher()</text>
<text text-anchor="start" x="709" y="-646.5" font-family="Helvetica,sans-Serif" font-size="10.00">* JournalWatcher()</text>
<text text-anchor="start" x="709" y="-635.5" font-family="Helvetica,sans-Serif" font-size="10.00">* JournalWatcher()</text>
<text text-anchor="start" x="709" y="-624.5" font-family="Helvetica,sans-Serif" font-size="10.00">* JournalWatcher()</text>
<text text-anchor="start" x="709" y="-613.5" font-family="Helvetica,sans-Serif" font-size="10.00">* ~JournalWatcher()</text>
<text text-anchor="start" x="709" y="-602.5" font-family="Helvetica,sans-Serif" font-size="10.00">* journalIsConnected()</text>
<text text-anchor="start" x="709" y="-591.5" font-family="Helvetica,sans-Serif" font-size="10.00">* journalWatcherInstanceName()</text>
<text text-anchor="start" x="709" y="-580.5" font-family="Helvetica,sans-Serif" font-size="10.00">* journalSection()</text>
<text text-anchor="start" x="709" y="-569.5" font-family="Helvetica,sans-Serif" font-size="10.00">* informationObject()</text>
<text text-anchor="start" x="709" y="-558.5" font-family="Helvetica,sans-Serif" font-size="10.00">* journalConnect()</text>
<text text-anchor="start" x="709" y="-547.5" font-family="Helvetica,sans-Serif" font-size="10.00">* journalDisconnect()</text>
<text text-anchor="start" x="709" y="-536.5" font-family="Helvetica,sans-Serif" font-size="10.00">* updateInformationObject()</text>
<text text-anchor="start" x="709" y="-525.5" font-family="Helvetica,sans-Serif" font-size="10.00">* setInformationObject()</text>
<text text-anchor="start" x="709" y="-514.5" font-family="Helvetica,sans-Serif" font-size="10.00">* putInformationObject()</text>
<text text-anchor="start" x="709" y="-503.5" font-family="Helvetica,sans-Serif" font-size="10.00">and 4 more...</text>
<text text-anchor="start" x="709" y="-492.5" font-family="Helvetica,sans-Serif" font-size="10.00">* M_journal_is_connected</text>
<text text-anchor="start" x="709" y="-481.5" font-family="Helvetica,sans-Serif" font-size="10.00">* M_category</text>
<text text-anchor="start" x="709" y="-470.5" font-family="Helvetica,sans-Serif" font-size="10.00">* M_name</text>
<text text-anchor="start" x="709" y="-459.5" font-family="Helvetica,sans-Serif" font-size="10.00">* M_function_updateInformation</text>
<text text-anchor="start" x="709" y="-448.5" font-family="Helvetica,sans-Serif" font-size="10.00">Object</text>
<text text-anchor="start" x="709" y="-437.5" font-family="Helvetica,sans-Serif" font-size="10.00">* M_informationObject</text>
<text text-anchor="start" x="709" y="-426.5" font-family="Helvetica,sans-Serif" font-size="10.00">* S_counterObjectByCategory</text>
</a>
</g>
</g>
<!-- Node2&#45;&gt;Node1 -->
<g id="edge1" class="edge">
<title>Node2&#45;&gt;Node1</title>
<path fill="none" stroke="midnightblue" d="M789,-409.32C789,-400.4 789,-391.53 789,-382.87"/>
<polygon fill="none" stroke="midnightblue" points="785.5,-409.42 789,-419.42 792.5,-409.42 785.5,-409.42"/>
</g>
<!-- Node3 -->
<g id="node3" class="node">
<title>Node3</title>
<g id="a_node3"><a xlink:title=" ">
<polygon fill="white" stroke="#bfbfbf" points="735.5,-744.5 735.5,-801.5 842.5,-801.5 842.5,-744.5 735.5,-744.5"/>
<text text-anchor="middle" x="789" y="-789.5" font-family="Helvetica,sans-Serif" font-size="10.00">Event::SlotHandler</text>
<polyline fill="none" stroke="#bfbfbf" points="735.5,-782.5 842.5,-782.5 "/>
<text text-anchor="middle" x="789" y="-770.5" font-family="Helvetica,sans-Serif" font-size="10.00"> </text>
<polyline fill="none" stroke="#bfbfbf" points="735.5,-763.5 842.5,-763.5 "/>
<text text-anchor="middle" x="789" y="-751.5" font-family="Helvetica,sans-Serif" font-size="10.00"> </text>
</a>
</g>
</g>
<!-- Node3&#45;&gt;Node2 -->
<g id="edge2" class="edge">
<title>Node3&#45;&gt;Node2</title>
<path fill="none" stroke="midnightblue" d="M789,-734.38C789,-726.29 789,-717.28 789,-707.76"/>
<polygon fill="none" stroke="midnightblue" points="785.5,-734.45 789,-744.45 792.5,-734.45 785.5,-734.45"/>
</g>
</g>
</svg>
        <g id="navigator" transform="translate(0 0)" fill="#404254">
                <rect fill="#f2f5e9" fill-opacity="0.5" stroke="#606060" stroke-width=".5" x="0" y="0" width="60" height="60"/>
                <use id="zoomplus" xlink:href="#zoomPlus" x="17" y="9" onmousedown="handleZoom(evt,'in')"/>
                <use id="zoomminus" xlink:href="#zoomMin" x="42" y="9" onmousedown="handleZoom(evt,'out')"/>
                <use id="reset" xlink:href="#resetDef" x="30" y="36" onmousedown="handleReset()"/>
                <g id="arrowUp" xlink:href="#dirArrow" transform="translate(30 24)" onmousedown="handlePan(0,-1)">
                  <use xlink:href="#rim" fill="#404040">
                        <set attributeName="fill" to="#808080" begin="arrowUp.mouseover" end="arrowUp.mouseout"/>
                  </use>
                  <path fill="none" stroke="white" stroke-width="1.5" d="M0,-3.0v7 M-2.5,-0.5L0,-3.0L2.5,-0.5"/>
                </g>
                <g id="arrowRight" xlink:href="#dirArrow" transform="rotate(90) translate(36 -43)" onmousedown="handlePan(1,0)">
                  <use xlink:href="#rim" fill="#404040">
                        <set attributeName="fill" to="#808080" begin="arrowRight.mouseover" end="arrowRight.mouseout"/>
                  </use>
                  <path fill="none" stroke="white" stroke-width="1.5" d="M0,-3.0v7 M-2.5,-0.5L0,-3.0L2.5,-0.5"/>
                </g>
                <g id="arrowDown" xlink:href="#dirArrow" transform="rotate(180) translate(-30 -48)" onmousedown="handlePan(0,1)">
                  <use xlink:href="#rim" fill="#404040">
                        <set attributeName="fill" to="#808080" begin="arrowDown.mouseover" end="arrowDown.mouseout"/>
                  </use>
                  <path fill="none" stroke="white" stroke-width="1.5" d="M0,-3.0v7 M-2.5,-0.5L0,-3.0L2.5,-0.5"/>
                </g>
                <g id="arrowLeft" xlink:href="#dirArrow" transform="rotate(270) translate(-36 17)" onmousedown="handlePan(-1,0)">
                  <use xlink:href="#rim" fill="#404040">
                        <set attributeName="fill" to="#808080" begin="arrowLeft.mouseover" end="arrowLeft.mouseout"/>
                  </use>
                  <path fill="none" stroke="white" stroke-width="1.5" d="M0,-3.0v7 M-2.5,-0.5L0,-3.0L2.5,-0.5"/>
                </g>
        </g>
        <svg viewBox="0 0 15 15" width="100%" height="30px" preserveAspectRatio="xMaxYMin meet">
         <g id="arrow_out" transform="scale(0.3 0.3)">
          <a xlink:href="classFeel_1_1FeelModels_1_1ModelPhysic__inherit__graph_org.svg" target="_base">
           <rect id="button" ry="5" rx="5" y="6" x="6" height="38" width="38"
                fill="#f2f5e9" fill-opacity="0.5" stroke="#606060" stroke-width="1.0"/>
           <path id="arrow"
             d="M 11.500037,31.436501 C 11.940474,20.09759 22.043105,11.32322 32.158766,21.979434 L 37.068811,17.246167 C 37.068811,17.246167 37.088388,32 37.088388,32 L 22.160133,31.978069 C 22.160133,31.978069 26.997745,27.140456 26.997745,27.140456 C 18.528582,18.264221 13.291696,25.230495 11.500037,31.436501 z"
             style="fill:#404040;"/>
          </a>
         </g>
        </svg>
</svg>
