<?xml version="1.0" encoding="UTF-8" standalone="no"?>
<!DOCTYPE svg PUBLIC "-//W3C//DTD SVG 1.1//EN"
 "http://www.w3.org/Graphics/SVG/1.1/DTD/svg11.dtd">
<!-- Generated by graphviz version 2.43.0 (0)
 -->
<!-- Title: Feel::FeelModels::ModelPhysicCoefficientFormPDEs&lt; Dim &gt; Pages: 1 -->
<svg width="338pt" height="856pt"
 viewBox="0.00 0.00 337.50 856.00" xmlns="http://www.w3.org/2000/svg" xmlns:xlink="http://www.w3.org/1999/xlink">
<g id="graph0" class="graph" transform="scale(1 1) rotate(0) translate(4 852)">
<title>Feel::FeelModels::ModelPhysicCoefficientFormPDEs&lt; Dim &gt;</title>
<polygon fill="white" stroke="transparent" points="-4,4 -4,-852 333.5,-852 333.5,4 -4,4"/>
<!-- Node1 -->
<g id="node1" class="node">
<title>Node1</title>
<g id="a_node1"><a xlink:title="CoefficientFormPDE set Physic Model.">
<polygon fill="#bfbfbf" stroke="black" points="92,-0.5 92,-167.5 259,-167.5 259,-0.5 92,-0.5"/>
<text text-anchor="start" x="100" y="-155.5" font-family="Helvetica,sans-Serif" font-size="10.00">Feel::FeelModels::ModelPhysic</text>
<text text-anchor="middle" x="175.5" y="-144.5" font-family="Helvetica,sans-Serif" font-size="10.00">CoefficientFormPDEs&lt; Dim &gt;</text>
<polyline fill="none" stroke="black" points="92,-137.5 259,-137.5 "/>
<text text-anchor="middle" x="175.5" y="-125.5" font-family="Helvetica,sans-Serif" font-size="10.00"> </text>
<polyline fill="none" stroke="black" points="92,-118.5 259,-118.5 "/>
<text text-anchor="start" x="100" y="-106.5" font-family="Helvetica,sans-Serif" font-size="10.00">+ ModelPhysicCoefficientForm</text>
<text text-anchor="start" x="100" y="-95.5" font-family="Helvetica,sans-Serif" font-size="10.00">PDEs()</text>
<text text-anchor="start" x="100" y="-84.5" font-family="Helvetica,sans-Serif" font-size="10.00">+ ModelPhysicCoefficientForm</text>
<text text-anchor="start" x="100" y="-73.5" font-family="Helvetica,sans-Serif" font-size="10.00">PDEs()</text>
<text text-anchor="start" x="100" y="-62.5" font-family="Helvetica,sans-Serif" font-size="10.00">+ ModelPhysicCoefficientForm</text>
<text text-anchor="start" x="100" y="-51.5" font-family="Helvetica,sans-Serif" font-size="10.00">PDEs()</text>
<text text-anchor="start" x="100" y="-40.5" font-family="Helvetica,sans-Serif" font-size="10.00">+ pdes()</text>
<text text-anchor="start" x="100" y="-29.5" font-family="Helvetica,sans-Serif" font-size="10.00">+ pdes()</text>
<text text-anchor="start" x="100" y="-18.5" font-family="Helvetica,sans-Serif" font-size="10.00">+ tabulateInformations()</text>
<text text-anchor="start" x="100" y="-7.5" font-family="Helvetica,sans-Serif" font-size="10.00">+ updateInformationObject()</text>
</a>
</g>
</g>
<!-- Node2 -->
<g id="node2" class="node">
<title>Node2</title>
<g id="a_node2"><a xlink:href="classFeel_1_1FeelModels_1_1ModelPhysic.html" target="_top" xlink:title="Physic of the Model.">
<polygon fill="white" stroke="black" points="80,-205.5 80,-416.5 271,-416.5 271,-205.5 80,-205.5"/>
<text text-anchor="start" x="88" y="-404.5" font-family="Helvetica,sans-Serif" font-size="10.00">Feel::FeelModels::ModelPhysic</text>
<text text-anchor="middle" x="175.5" y="-393.5" font-family="Helvetica,sans-Serif" font-size="10.00">&lt; Dim &gt;</text>
<polyline fill="none" stroke="black" points="80,-386.5 271,-386.5 "/>
<text text-anchor="middle" x="175.5" y="-374.5" font-family="Helvetica,sans-Serif" font-size="10.00"> </text>
<polyline fill="none" stroke="black" points="80,-367.5 271,-367.5 "/>
<text text-anchor="start" x="88" y="-355.5" font-family="Helvetica,sans-Serif" font-size="10.00">+ addMaterialNames()</text>
<text text-anchor="start" x="88" y="-344.5" font-family="Helvetica,sans-Serif" font-size="10.00">+ addMaterialPropertyDescription()</text>
<text text-anchor="start" x="88" y="-333.5" font-family="Helvetica,sans-Serif" font-size="10.00">+ addParameter()</text>
<text text-anchor="start" x="88" y="-322.5" font-family="Helvetica,sans-Serif" font-size="10.00">+ addParameter()</text>
<text text-anchor="start" x="88" y="-311.5" font-family="Helvetica,sans-Serif" font-size="10.00">+ addParameter()</text>
<text text-anchor="start" x="88" y="-300.5" font-family="Helvetica,sans-Serif" font-size="10.00">and 28 more...</text>
<text text-anchor="start" x="88" y="-289.5" font-family="Helvetica,sans-Serif" font-size="10.00">+ New()</text>
<text text-anchor="start" x="88" y="-278.5" font-family="Helvetica,sans-Serif" font-size="10.00"># parameterModelExpr()</text>
<text text-anchor="start" x="88" y="-267.5" font-family="Helvetica,sans-Serif" font-size="10.00"># updateTabulateInformations</text>
<text text-anchor="start" x="88" y="-256.5" font-family="Helvetica,sans-Serif" font-size="10.00">Basic()</text>
<text text-anchor="start" x="88" y="-245.5" font-family="Helvetica,sans-Serif" font-size="10.00"># updateTabulateInformations</text>
<text text-anchor="start" x="88" y="-234.5" font-family="Helvetica,sans-Serif" font-size="10.00">Parameters()</text>
<text text-anchor="start" x="88" y="-223.5" font-family="Helvetica,sans-Serif" font-size="10.00"># updateTabulateInformations</text>
<text text-anchor="start" x="88" y="-212.5" font-family="Helvetica,sans-Serif" font-size="10.00">Subphysics()</text>
</a>
</g>
</g>
<!-- Node2&#45;&gt;Node1 -->
<g id="edge1" class="edge">
<title>Node2&#45;&gt;Node1</title>
<path fill="none" stroke="midnightblue" d="M175.5,-195.33C175.5,-186.04 175.5,-176.77 175.5,-167.77"/>
<polygon fill="none" stroke="midnightblue" points="172,-195.4 175.5,-205.4 179,-195.4 172,-195.4"/>
</g>
<!-- Node3 -->
<g id="node3" class="node">
<title>Node3</title>
<g id="a_node3"><a xlink:href="classFeel_1_1JournalWatcher.html" target="_top" xlink:title=" ">
<polygon fill="white" stroke="#bfbfbf" points="0,-464.5 0,-752.5 177,-752.5 177,-464.5 0,-464.5"/>
<text text-anchor="middle" x="88.5" y="-740.5" font-family="Helvetica,sans-Serif" font-size="10.00">Feel::JournalWatcher</text>
<polyline fill="none" stroke="#bfbfbf" points="0,-733.5 177,-733.5 "/>
<text text-anchor="middle" x="88.5" y="-721.5" font-family="Helvetica,sans-Serif" font-size="10.00"> </text>
<polyline fill="none" stroke="#bfbfbf" points="0,-714.5 177,-714.5 "/>
<text text-anchor="start" x="8" y="-702.5" font-family="Helvetica,sans-Serif" font-size="10.00">* M_journal_is_connected</text>
<text text-anchor="start" x="8" y="-691.5" font-family="Helvetica,sans-Serif" font-size="10.00">* M_category</text>
<text text-anchor="start" x="8" y="-680.5" font-family="Helvetica,sans-Serif" font-size="10.00">* M_name</text>
<text text-anchor="start" x="8" y="-669.5" font-family="Helvetica,sans-Serif" font-size="10.00">* M_function_updateInformation</text>
<text text-anchor="start" x="8" y="-658.5" font-family="Helvetica,sans-Serif" font-size="10.00">Object</text>
<text text-anchor="start" x="8" y="-647.5" font-family="Helvetica,sans-Serif" font-size="10.00">* M_informationObject</text>
<text text-anchor="start" x="8" y="-636.5" font-family="Helvetica,sans-Serif" font-size="10.00">* S_counterObjectByCategory</text>
<text text-anchor="start" x="8" y="-625.5" font-family="Helvetica,sans-Serif" font-size="10.00">* JournalWatcher()</text>
<text text-anchor="start" x="8" y="-614.5" font-family="Helvetica,sans-Serif" font-size="10.00">* JournalWatcher()</text>
<text text-anchor="start" x="8" y="-603.5" font-family="Helvetica,sans-Serif" font-size="10.00">* JournalWatcher()</text>
<text text-anchor="start" x="8" y="-592.5" font-family="Helvetica,sans-Serif" font-size="10.00">* JournalWatcher()</text>
<text text-anchor="start" x="8" y="-581.5" font-family="Helvetica,sans-Serif" font-size="10.00">* ~JournalWatcher()</text>
<text text-anchor="start" x="8" y="-570.5" font-family="Helvetica,sans-Serif" font-size="10.00">* journalIsConnected()</text>
<text text-anchor="start" x="8" y="-559.5" font-family="Helvetica,sans-Serif" font-size="10.00">* journalWatcherInstanceName()</text>
<text text-anchor="start" x="8" y="-548.5" font-family="Helvetica,sans-Serif" font-size="10.00">* journalSection()</text>
<text text-anchor="start" x="8" y="-537.5" font-family="Helvetica,sans-Serif" font-size="10.00">* informationObject()</text>
<text text-anchor="start" x="8" y="-526.5" font-family="Helvetica,sans-Serif" font-size="10.00">* journalConnect()</text>
<text text-anchor="start" x="8" y="-515.5" font-family="Helvetica,sans-Serif" font-size="10.00">* journalDisconnect()</text>
<text text-anchor="start" x="8" y="-504.5" font-family="Helvetica,sans-Serif" font-size="10.00">* updateInformationObject()</text>
<text text-anchor="start" x="8" y="-493.5" font-family="Helvetica,sans-Serif" font-size="10.00">* setInformationObject()</text>
<text text-anchor="start" x="8" y="-482.5" font-family="Helvetica,sans-Serif" font-size="10.00">* putInformationObject()</text>
<text text-anchor="start" x="8" y="-471.5" font-family="Helvetica,sans-Serif" font-size="10.00">and 4 more...</text>
</a>
</g>
</g>
<!-- Node3&#45;&gt;Node2 -->
<g id="edge2" class="edge">
<title>Node3&#45;&gt;Node2</title>
<path fill="none" stroke="midnightblue" d="M133.6,-454.31C137.36,-441.54 141.11,-428.82 144.72,-416.54"/>
<polygon fill="none" stroke="midnightblue" points="130.19,-453.5 130.73,-464.08 136.91,-455.47 130.19,-453.5"/>
</g>
<!-- Node4 -->
<g id="node4" class="node">
<title>Node4</title>
<g id="a_node4"><a xlink:title=" ">
<polygon fill="white" stroke="#bfbfbf" points="35,-790.5 35,-847.5 142,-847.5 142,-790.5 35,-790.5"/>
<text text-anchor="middle" x="88.5" y="-835.5" font-family="Helvetica,sans-Serif" font-size="10.00">Event::SlotHandler</text>
<polyline fill="none" stroke="#bfbfbf" points="35,-828.5 142,-828.5 "/>
<text text-anchor="middle" x="88.5" y="-816.5" font-family="Helvetica,sans-Serif" font-size="10.00"> </text>
<polyline fill="none" stroke="#bfbfbf" points="35,-809.5 142,-809.5 "/>
<text text-anchor="middle" x="88.5" y="-797.5" font-family="Helvetica,sans-Serif" font-size="10.00"> </text>
</a>
</g>
</g>
<!-- Node4&#45;&gt;Node3 -->
<g id="edge3" class="edge">
<title>Node4&#45;&gt;Node3</title>
<path fill="none" stroke="midnightblue" d="M88.5,-780.25C88.5,-771.86 88.5,-762.49 88.5,-752.57"/>
<polygon fill="none" stroke="midnightblue" points="85,-780.31 88.5,-790.31 92,-780.31 85,-780.31"/>
</g>
<!-- Node5 -->
<g id="node5" class="node">
<title>Node5</title>
<g id="a_node5"><a xlink:title=" ">
<polygon fill="white" stroke="#bfbfbf" points="195.5,-580 195.5,-637 329.5,-637 329.5,-580 195.5,-580"/>
<text text-anchor="middle" x="262.5" y="-625" font-family="Helvetica,sans-Serif" font-size="10.00">static const uint16_type</text>
<polyline fill="none" stroke="#bfbfbf" points="195.5,-618 329.5,-618 "/>
<text text-anchor="middle" x="262.5" y="-606" font-family="Helvetica,sans-Serif" font-size="10.00"> </text>
<polyline fill="none" stroke="#bfbfbf" points="195.5,-599 329.5,-599 "/>
<text text-anchor="middle" x="262.5" y="-587" font-family="Helvetica,sans-Serif" font-size="10.00"> </text>
</a>
</g>
</g>
<!-- Node5&#45;&gt;Node2 -->
<g id="edge4" class="edge">
<title>Node5&#45;&gt;Node2</title>
<path fill="none" stroke="#404040" d="M254.39,-579.97C244.21,-545.39 226.1,-483.87 209.8,-428.49"/>
<polygon fill="none" stroke="#404040" points="209.74,-428.29 204.21,-423.67 206.35,-416.78 211.88,-421.41 209.74,-428.29"/>
<text text-anchor="middle" x="233.5" y="-438" font-family="Helvetica,sans-Serif" font-size="10.00"> +nDim</text>
</g>
</g>
</svg>
