<?xml version="1.0" encoding="UTF-8" standalone="no"?>
<!DOCTYPE svg PUBLIC "-//W3C//DTD SVG 1.1//EN"
 "http://www.w3.org/Graphics/SVG/1.1/DTD/svg11.dtd">
<!-- Generated by graphviz version 2.43.0 (0)
 -->
<!-- Title: Feel::FeelModels::ModelField&lt; Ctx, ModelFieldTagType, FieldType &gt; Pages: 1 -->
<svg width="201pt" height="248pt"
 viewBox="0.00 0.00 201.00 248.00" xmlns="http://www.w3.org/2000/svg" xmlns:xlink="http://www.w3.org/1999/xlink">
<g id="graph0" class="graph" transform="scale(1 1) rotate(0) translate(4 244)">
<title>Feel::FeelModels::ModelField&lt; Ctx, ModelFieldTagType, FieldType &gt;</title>
<polygon fill="white" stroke="transparent" points="-4,4 -4,-244 197,-244 197,4 -4,4"/>
<!-- Node1 -->
<g id="node1" class="node">
<title>Node1</title>
<g id="a_node1"><a xlink:title=" ">
<polygon fill="#bfbfbf" stroke="black" points="18,-0.5 18,-134.5 175,-134.5 175,-0.5 18,-0.5"/>
<text text-anchor="start" x="26" y="-122.5" font-family="Helvetica,sans-Serif" font-size="10.00">Feel::FeelModels::ModelField</text>
<text text-anchor="start" x="26" y="-111.5" font-family="Helvetica,sans-Serif" font-size="10.00">&lt; Ctx, ModelFieldTagType,</text>
<text text-anchor="middle" x="96.5" y="-100.5" font-family="Helvetica,sans-Serif" font-size="10.00"> FieldType &gt;</text>
<polyline fill="none" stroke="black" points="18,-93.5 175,-93.5 "/>
<text text-anchor="middle" x="96.5" y="-81.5" font-family="Helvetica,sans-Serif" font-size="10.00"> </text>
<polyline fill="none" stroke="black" points="18,-74.5 175,-74.5 "/>
<text text-anchor="start" x="26" y="-62.5" font-family="Helvetica,sans-Serif" font-size="10.00">+ add()</text>
<text text-anchor="start" x="26" y="-51.5" font-family="Helvetica,sans-Serif" font-size="10.00">+ ModelField()</text>
<text text-anchor="start" x="26" y="-40.5" font-family="Helvetica,sans-Serif" font-size="10.00">+ ModelField()</text>
<text text-anchor="start" x="26" y="-29.5" font-family="Helvetica,sans-Serif" font-size="10.00">+ ModelField()</text>
<text text-anchor="start" x="26" y="-18.5" font-family="Helvetica,sans-Serif" font-size="10.00">+ ModelField()</text>
<text text-anchor="start" x="26" y="-7.5" font-family="Helvetica,sans-Serif" font-size="10.00">and 4 more...</text>
</a>
</g>
</g>
<!-- Node2 -->
<g id="node2" class="node">
<title>Node2</title>
<g id="a_node2"><a xlink:title="STL class.">
<polygon fill="white" stroke="#bfbfbf" points="0,-171.5 0,-239.5 193,-239.5 193,-171.5 0,-171.5"/>
<text text-anchor="start" x="8" y="-227.5" font-family="Helvetica,sans-Serif" font-size="10.00">std::vector&lt; ModelField1</text>
<text text-anchor="middle" x="96.5" y="-216.5" font-family="Helvetica,sans-Serif" font-size="10.00">&lt; ModelFieldTagType, FieldType &gt; &gt;</text>
<polyline fill="none" stroke="#bfbfbf" points="0,-209.5 193,-209.5 "/>
<text text-anchor="start" x="8" y="-197.5" font-family="Helvetica,sans-Serif" font-size="10.00">+ elements</text>
<polyline fill="none" stroke="#bfbfbf" points="0,-190.5 193,-190.5 "/>
<text text-anchor="middle" x="96.5" y="-178.5" font-family="Helvetica,sans-Serif" font-size="10.00"> </text>
</a>
</g>
</g>
<!-- Node2&#45;&gt;Node1 -->
<g id="edge1" class="edge">
<title>Node2&#45;&gt;Node1</title>
<path fill="none" stroke="midnightblue" d="M96.5,-160.96C96.5,-152.57 96.5,-143.6 96.5,-134.68"/>
<polygon fill="none" stroke="midnightblue" points="93,-161.23 96.5,-171.23 100,-161.23 93,-161.23"/>
</g>
</g>
</svg>
