<?xml version="1.0" encoding="UTF-8" standalone="no"?>
<!DOCTYPE svg PUBLIC "-//W3C//DTD SVG 1.1//EN"
 "http://www.w3.org/Graphics/SVG/1.1/DTD/svg11.dtd">
<!-- Generated by graphviz version 2.43.0 (0)
 -->
<!-- Title: Feel::FunctionSpace&lt; A0, A1, A2, A3, A4 &gt; Pages: 1 -->
<!--zoomable 1289 -->
<svg id="main" version="1.1" xmlns="http://www.w3.org/2000/svg" xmlns:xlink="http://www.w3.org/1999/xlink" xml:space="preserve" onload="init(evt)">
<style type="text/css"><![CDATA[
.edge:hover path { stroke: red; }
.edge:hover polygon { stroke: red; fill: red; }
]]></style>
<script type="text/javascript"><![CDATA[
var edges = document.getElementsByTagName('g');
if (edges && edges.length) {
  for (var i=0;i<edges.length;i++) {
    if (edges[i].id.substr(0,4)=='edge') {
      edges[i].setAttribute('class','edge');
    }
  }
}
]]></script>
        <defs>
                <circle id="rim" cx="0" cy="0" r="7"/>
                <circle id="rim2" cx="0" cy="0" r="3.5"/>
                <g id="zoomPlus">
                        <use xlink:href="#rim" fill="#404040">
                                <set attributeName="fill" to="#808080" begin="zoomplus.mouseover" end="zoomplus.mouseout"/>
                        </use>
                        <path d="M-4,0h8M0,-4v8" fill="none" stroke="white" stroke-width="1.5" pointer-events="none"/>
                </g>
                <g id="zoomMin">
                        <use xlink:href="#rim" fill="#404040">
                                <set attributeName="fill" to="#808080" begin="zoomminus.mouseover" end="zoomminus.mouseout"/>
                        </use>
                        <path d="M-4,0h8" fill="none" stroke="white" stroke-width="1.5" pointer-events="none"/>
                </g>
                <g id="dirArrow">
                        <path fill="none" stroke="white" stroke-width="1.5" d="M0,-3.0v7 M-2.5,-0.5L0,-3.0L2.5,-0.5"/>
                </g>
               <g id="resetDef">
                       <use xlink:href="#rim2" fill="#404040">
                               <set attributeName="fill" to="#808080" begin="reset.mouseover" end="reset.mouseout"/>
                       </use>
               </g>
        </defs>

<script type="text/javascript">
var viewWidth = 1651;
var viewHeight = 1289;
var sectionId = 'dynsection-1';
</script>
<script xlink:href="svgpan.js"/>
<svg id="graph" class="graph">
<g id="viewport">
<title>Feel::FunctionSpace&lt; A0, A1, A2, A3, A4 &gt;</title>
<polygon fill="white" stroke="transparent" points="-4,4 -4,-1285 1646.5,-1285 1646.5,4 -4,4"/>
<!-- Node1 -->
<g id="node1" class="node">
<title>Node1</title>
<g id="a_node1"><a xlink:title=" ">
<polygon fill="#bfbfbf" stroke="black" points="693.5,-116.5 693.5,-558.5 827.5,-558.5 827.5,-116.5 693.5,-116.5"/>
<text text-anchor="start" x="701.5" y="-546.5" font-family="Helvetica,sans-Serif" font-size="10.00">Feel::FunctionSpace</text>
<text text-anchor="middle" x="760.5" y="-535.5" font-family="Helvetica,sans-Serif" font-size="10.00">&lt; A0, A1, A2, A3, A4 &gt;</text>
<polyline fill="none" stroke="black" points="693.5,-528.5 827.5,-528.5 "/>
<text text-anchor="middle" x="760.5" y="-516.5" font-family="Helvetica,sans-Serif" font-size="10.00"> </text>
<polyline fill="none" stroke="black" points="693.5,-509.5 827.5,-509.5 "/>
<text text-anchor="start" x="701.5" y="-497.5" font-family="Helvetica,sans-Serif" font-size="10.00">+ initHead()</text>
<text text-anchor="start" x="701.5" y="-486.5" font-family="Helvetica,sans-Serif" font-size="10.00">+ initList()</text>
<text text-anchor="start" x="701.5" y="-475.5" font-family="Helvetica,sans-Serif" font-size="10.00">* MeshesListType</text>
<text text-anchor="start" x="701.5" y="-464.5" font-family="Helvetica,sans-Serif" font-size="10.00">* mesh_0_type</text>
<text text-anchor="start" x="701.5" y="-453.5" font-family="Helvetica,sans-Serif" font-size="10.00">* index_type</text>
<text text-anchor="start" x="701.5" y="-442.5" font-family="Helvetica,sans-Serif" font-size="10.00">* size_type</text>
<text text-anchor="start" x="701.5" y="-431.5" font-family="Helvetica,sans-Serif" font-size="10.00">* mesh_type</text>
<text text-anchor="start" x="701.5" y="-420.5" font-family="Helvetica,sans-Serif" font-size="10.00">and 12 more...</text>
<text text-anchor="start" x="701.5" y="-409.5" font-family="Helvetica,sans-Serif" font-size="10.00">* real_type</text>
<text text-anchor="start" x="701.5" y="-398.5" font-family="Helvetica,sans-Serif" font-size="10.00">* node_type</text>
<text text-anchor="start" x="701.5" y="-387.5" font-family="Helvetica,sans-Serif" font-size="10.00">* functionspace_type</text>
<text text-anchor="start" x="701.5" y="-376.5" font-family="Helvetica,sans-Serif" font-size="10.00">* space_type</text>
<text text-anchor="start" x="701.5" y="-365.5" font-family="Helvetica,sans-Serif" font-size="10.00">* functionspace_ptrtype</text>
<text text-anchor="start" x="701.5" y="-354.5" font-family="Helvetica,sans-Serif" font-size="10.00">and 52 more...</text>
<text text-anchor="start" x="701.5" y="-343.5" font-family="Helvetica,sans-Serif" font-size="10.00">* elements_ptrtype</text>
<text text-anchor="start" x="701.5" y="-332.5" font-family="Helvetica,sans-Serif" font-size="10.00">* ptsInContext()</text>
<text text-anchor="start" x="701.5" y="-321.5" font-family="Helvetica,sans-Serif" font-size="10.00">* periodicity()</text>
<text text-anchor="start" x="701.5" y="-310.5" font-family="Helvetica,sans-Serif" font-size="10.00">* qDim()</text>
<text text-anchor="start" x="701.5" y="-299.5" font-family="Helvetica,sans-Serif" font-size="10.00">* nDof()</text>
<text text-anchor="start" x="701.5" y="-288.5" font-family="Helvetica,sans-Serif" font-size="10.00">and 75 more...</text>
<text text-anchor="start" x="701.5" y="-277.5" font-family="Helvetica,sans-Serif" font-size="10.00">* ComponentSpace</text>
<text text-anchor="start" x="701.5" y="-266.5" font-family="Helvetica,sans-Serif" font-size="10.00">* M_functionspaces</text>
<text text-anchor="start" x="701.5" y="-255.5" font-family="Helvetica,sans-Serif" font-size="10.00">* procDistMap</text>
<text text-anchor="start" x="701.5" y="-244.5" font-family="Helvetica,sans-Serif" font-size="10.00">* printInfo()</text>
<text text-anchor="start" x="701.5" y="-233.5" font-family="Helvetica,sans-Serif" font-size="10.00">* FunctionSpace()</text>
<text text-anchor="start" x="701.5" y="-222.5" font-family="Helvetica,sans-Serif" font-size="10.00">and 10 more...</text>
<text text-anchor="start" x="701.5" y="-211.5" font-family="Helvetica,sans-Serif" font-size="10.00">* context()</text>
<text text-anchor="start" x="701.5" y="-200.5" font-family="Helvetica,sans-Serif" font-size="10.00">* contextBasis()</text>
<text text-anchor="start" x="701.5" y="-189.5" font-family="Helvetica,sans-Serif" font-size="10.00">* FunctionSpace()</text>
<text text-anchor="start" x="701.5" y="-178.5" font-family="Helvetica,sans-Serif" font-size="10.00">* FunctionSpace()</text>
<text text-anchor="start" x="701.5" y="-167.5" font-family="Helvetica,sans-Serif" font-size="10.00">* FunctionSpace()</text>
<text text-anchor="start" x="701.5" y="-156.5" font-family="Helvetica,sans-Serif" font-size="10.00">* shallowCopy()</text>
<text text-anchor="start" x="701.5" y="-145.5" font-family="Helvetica,sans-Serif" font-size="10.00">* init()</text>
<text text-anchor="start" x="701.5" y="-134.5" font-family="Helvetica,sans-Serif" font-size="10.00">and 10 more...</text>
<text text-anchor="start" x="701.5" y="-123.5" font-family="Helvetica,sans-Serif" font-size="10.00">* operator()()</text>
</a>
</g>
</g>
<!-- Node20 -->
<g id="node20" class="node">
<title>Node20</title>
<g id="a_node20"><a xlink:title=" ">
<polygon fill="white" stroke="#bfbfbf" points="683,-0.5 683,-68.5 838,-68.5 838,-0.5 683,-0.5"/>
<text text-anchor="start" x="691" y="-56.5" font-family="Helvetica,sans-Serif" font-size="10.00">std::shared_ptr&lt; component</text>
<text text-anchor="middle" x="760.5" y="-45.5" font-family="Helvetica,sans-Serif" font-size="10.00">_functionspace_type &gt;</text>
<polyline fill="none" stroke="#bfbfbf" points="683,-38.5 838,-38.5 "/>
<text text-anchor="middle" x="760.5" y="-26.5" font-family="Helvetica,sans-Serif" font-size="10.00"> </text>
<polyline fill="none" stroke="#bfbfbf" points="683,-19.5 838,-19.5 "/>
<text text-anchor="start" x="691" y="-7.5" font-family="Helvetica,sans-Serif" font-size="10.00">+ operator&#45;&gt;()</text>
</a>
</g>
</g>
<!-- Node1&#45;&gt;Node20 -->
<g id="edge22" class="edge">
<title>Node1&#45;&gt;Node20</title>
<path fill="none" stroke="#404040" d="M734.66,-116.31C734.23,-110.15 733.84,-104.03 733.5,-98 733.22,-93.12 732.33,-91.75 733.5,-87 734.07,-84.68 734.77,-82.36 735.56,-80.04"/>
<polygon fill="none" stroke="#404040" points="735.67,-79.76 734.23,-72.7 740.19,-68.65 741.64,-75.71 735.67,-79.76"/>
<text text-anchor="middle" x="746" y="-90" font-family="Helvetica,sans-Serif" font-size="10.00"> +ptr</text>
</g>
<!-- Node2 -->
<g id="node2" class="node">
<title>Node2</title>
<g id="a_node2"><a xlink:href="classFeel_1_1FunctionSpaceBase.html" target="_top" xlink:title="base class for FunctionSpace">
<polygon fill="white" stroke="black" points="65,-694.5 65,-839.5 202,-839.5 202,-694.5 65,-694.5"/>
<text text-anchor="middle" x="133.5" y="-827.5" font-family="Helvetica,sans-Serif" font-size="10.00">Feel::FunctionSpaceBase</text>
<polyline fill="none" stroke="black" points="65,-820.5 202,-820.5 "/>
<text text-anchor="middle" x="133.5" y="-808.5" font-family="Helvetica,sans-Serif" font-size="10.00"> </text>
<polyline fill="none" stroke="black" points="65,-801.5 202,-801.5 "/>
<text text-anchor="start" x="73" y="-789.5" font-family="Helvetica,sans-Serif" font-size="10.00">* super</text>
<text text-anchor="start" x="73" y="-778.5" font-family="Helvetica,sans-Serif" font-size="10.00">* super2</text>
<text text-anchor="start" x="73" y="-767.5" font-family="Helvetica,sans-Serif" font-size="10.00">* FunctionSpaceBase()</text>
<text text-anchor="start" x="73" y="-756.5" font-family="Helvetica,sans-Serif" font-size="10.00">* FunctionSpaceBase()</text>
<text text-anchor="start" x="73" y="-745.5" font-family="Helvetica,sans-Serif" font-size="10.00">* FunctionSpaceBase()</text>
<text text-anchor="start" x="73" y="-734.5" font-family="Helvetica,sans-Serif" font-size="10.00">* FunctionSpaceBase()</text>
<text text-anchor="start" x="73" y="-723.5" font-family="Helvetica,sans-Serif" font-size="10.00">* ~FunctionSpaceBase()</text>
<text text-anchor="start" x="73" y="-712.5" font-family="Helvetica,sans-Serif" font-size="10.00">* operator=()</text>
<text text-anchor="start" x="73" y="-701.5" font-family="Helvetica,sans-Serif" font-size="10.00">* mapPtr()</text>
</a>
</g>
</g>
<!-- Node2&#45;&gt;Node1 -->
<g id="edge1" class="edge">
<title>Node2&#45;&gt;Node1</title>
<path fill="none" stroke="midnightblue" d="M209.75,-694.7C210,-694.47 210.25,-694.23 210.5,-694 266.41,-641.9 274.77,-622.05 336.5,-577 454.7,-490.75 607.11,-412.01 693.29,-370.11"/>
<polygon fill="none" stroke="midnightblue" points="207.26,-692.23 202.34,-701.61 212.04,-697.35 207.26,-692.23"/>
</g>
<!-- Node3 -->
<g id="node3" class="node">
<title>Node3</title>
<g id="a_node3"><a xlink:href="classFeel_1_1CommObject.html" target="_top" xlink:title=" ">
<polygon fill="white" stroke="black" points="0,-975.5 0,-1087.5 107,-1087.5 107,-975.5 0,-975.5"/>
<text text-anchor="middle" x="53.5" y="-1075.5" font-family="Helvetica,sans-Serif" font-size="10.00">Feel::CommObject</text>
<polyline fill="none" stroke="black" points="0,-1068.5 107,-1068.5 "/>
<text text-anchor="middle" x="53.5" y="-1056.5" font-family="Helvetica,sans-Serif" font-size="10.00"> </text>
<polyline fill="none" stroke="black" points="0,-1049.5 107,-1049.5 "/>
<text text-anchor="start" x="8" y="-1037.5" font-family="Helvetica,sans-Serif" font-size="10.00">+ comm()</text>
<text text-anchor="start" x="8" y="-1026.5" font-family="Helvetica,sans-Serif" font-size="10.00">+ CommObject()</text>
<text text-anchor="start" x="8" y="-1015.5" font-family="Helvetica,sans-Serif" font-size="10.00">+ CommObject()</text>
<text text-anchor="start" x="8" y="-1004.5" font-family="Helvetica,sans-Serif" font-size="10.00">+ CommObject()</text>
<text text-anchor="start" x="8" y="-993.5" font-family="Helvetica,sans-Serif" font-size="10.00">+ CommObject()</text>
<text text-anchor="start" x="8" y="-982.5" font-family="Helvetica,sans-Serif" font-size="10.00">and 13 more...</text>
</a>
</g>
</g>
<!-- Node3&#45;&gt;Node2 -->
<g id="edge2" class="edge">
<title>Node3&#45;&gt;Node2</title>
<path fill="none" stroke="midnightblue" d="M73.31,-965.51C84.92,-927.39 99.62,-879.17 111.58,-839.92"/>
<polygon fill="none" stroke="midnightblue" points="69.84,-964.89 70.27,-975.47 76.53,-966.93 69.84,-964.89"/>
</g>
<!-- Node4 -->
<g id="node4" class="node">
<title>Node4</title>
<g id="a_node4"><a xlink:href="classFeel_1_1JournalWatcher.html" target="_top" xlink:title=" ">
<polygon fill="white" stroke="black" points="125,-887.5 125,-1175.5 302,-1175.5 302,-887.5 125,-887.5"/>
<text text-anchor="middle" x="213.5" y="-1163.5" font-family="Helvetica,sans-Serif" font-size="10.00">Feel::JournalWatcher</text>
<polyline fill="none" stroke="black" points="125,-1156.5 302,-1156.5 "/>
<text text-anchor="middle" x="213.5" y="-1144.5" font-family="Helvetica,sans-Serif" font-size="10.00"> </text>
<polyline fill="none" stroke="black" points="125,-1137.5 302,-1137.5 "/>
<text text-anchor="start" x="133" y="-1125.5" font-family="Helvetica,sans-Serif" font-size="10.00">* M_journal_is_connected</text>
<text text-anchor="start" x="133" y="-1114.5" font-family="Helvetica,sans-Serif" font-size="10.00">* M_category</text>
<text text-anchor="start" x="133" y="-1103.5" font-family="Helvetica,sans-Serif" font-size="10.00">* M_name</text>
<text text-anchor="start" x="133" y="-1092.5" font-family="Helvetica,sans-Serif" font-size="10.00">* M_function_updateInformation</text>
<text text-anchor="start" x="133" y="-1081.5" font-family="Helvetica,sans-Serif" font-size="10.00">Object</text>
<text text-anchor="start" x="133" y="-1070.5" font-family="Helvetica,sans-Serif" font-size="10.00">* M_informationObject</text>
<text text-anchor="start" x="133" y="-1059.5" font-family="Helvetica,sans-Serif" font-size="10.00">* S_counterObjectByCategory</text>
<text text-anchor="start" x="133" y="-1048.5" font-family="Helvetica,sans-Serif" font-size="10.00">* JournalWatcher()</text>
<text text-anchor="start" x="133" y="-1037.5" font-family="Helvetica,sans-Serif" font-size="10.00">* JournalWatcher()</text>
<text text-anchor="start" x="133" y="-1026.5" font-family="Helvetica,sans-Serif" font-size="10.00">* JournalWatcher()</text>
<text text-anchor="start" x="133" y="-1015.5" font-family="Helvetica,sans-Serif" font-size="10.00">* JournalWatcher()</text>
<text text-anchor="start" x="133" y="-1004.5" font-family="Helvetica,sans-Serif" font-size="10.00">* ~JournalWatcher()</text>
<text text-anchor="start" x="133" y="-993.5" font-family="Helvetica,sans-Serif" font-size="10.00">* journalIsConnected()</text>
<text text-anchor="start" x="133" y="-982.5" font-family="Helvetica,sans-Serif" font-size="10.00">* journalWatcherInstanceName()</text>
<text text-anchor="start" x="133" y="-971.5" font-family="Helvetica,sans-Serif" font-size="10.00">* journalSection()</text>
<text text-anchor="start" x="133" y="-960.5" font-family="Helvetica,sans-Serif" font-size="10.00">* informationObject()</text>
<text text-anchor="start" x="133" y="-949.5" font-family="Helvetica,sans-Serif" font-size="10.00">* journalConnect()</text>
<text text-anchor="start" x="133" y="-938.5" font-family="Helvetica,sans-Serif" font-size="10.00">* journalDisconnect()</text>
<text text-anchor="start" x="133" y="-927.5" font-family="Helvetica,sans-Serif" font-size="10.00">* updateInformationObject()</text>
<text text-anchor="start" x="133" y="-916.5" font-family="Helvetica,sans-Serif" font-size="10.00">* setInformationObject()</text>
<text text-anchor="start" x="133" y="-905.5" font-family="Helvetica,sans-Serif" font-size="10.00">* putInformationObject()</text>
<text text-anchor="start" x="133" y="-894.5" font-family="Helvetica,sans-Serif" font-size="10.00">and 4 more...</text>
</a>
</g>
</g>
<!-- Node4&#45;&gt;Node2 -->
<g id="edge3" class="edge">
<title>Node4&#45;&gt;Node2</title>
<path fill="none" stroke="midnightblue" d="M166.93,-877.68C162.9,-864.47 158.97,-851.56 155.29,-839.51"/>
<polygon fill="none" stroke="midnightblue" points="163.61,-878.8 169.87,-887.34 170.3,-876.76 163.61,-878.8"/>
</g>
<!-- Node5 -->
<g id="node5" class="node">
<title>Node5</title>
<g id="a_node5"><a xlink:title=" ">
<polygon fill="white" stroke="#bfbfbf" points="160,-1223.5 160,-1280.5 267,-1280.5 267,-1223.5 160,-1223.5"/>
<text text-anchor="middle" x="213.5" y="-1268.5" font-family="Helvetica,sans-Serif" font-size="10.00">Event::SlotHandler</text>
<polyline fill="none" stroke="#bfbfbf" points="160,-1261.5 267,-1261.5 "/>
<text text-anchor="middle" x="213.5" y="-1249.5" font-family="Helvetica,sans-Serif" font-size="10.00"> </text>
<polyline fill="none" stroke="#bfbfbf" points="160,-1242.5 267,-1242.5 "/>
<text text-anchor="middle" x="213.5" y="-1230.5" font-family="Helvetica,sans-Serif" font-size="10.00"> </text>
</a>
</g>
</g>
<!-- Node5&#45;&gt;Node4 -->
<g id="edge4" class="edge">
<title>Node5&#45;&gt;Node4</title>
<path fill="none" stroke="midnightblue" d="M213.5,-1213.3C213.5,-1202.26 213.5,-1189.47 213.5,-1175.9"/>
<polygon fill="none" stroke="midnightblue" points="210,-1213.33 213.5,-1223.33 217,-1213.33 210,-1213.33"/>
</g>
<!-- Node6 -->
<g id="node6" class="node">
<title>Node6</title>
<g id="a_node6"><a xlink:title=" ">
<polygon fill="white" stroke="#bfbfbf" points="220,-716.5 220,-817.5 381,-817.5 381,-716.5 220,-716.5"/>
<text text-anchor="start" x="228" y="-805.5" font-family="Helvetica,sans-Serif" font-size="10.00">std::enable_shared</text>
<text text-anchor="start" x="228" y="-794.5" font-family="Helvetica,sans-Serif" font-size="10.00">_from_this&lt; FunctionSpace</text>
<text text-anchor="start" x="228" y="-783.5" font-family="Helvetica,sans-Serif" font-size="10.00">&lt; A0, parameter::void_,</text>
<text text-anchor="start" x="228" y="-772.5" font-family="Helvetica,sans-Serif" font-size="10.00"> parameter::void_, parameter</text>
<text text-anchor="middle" x="300.5" y="-761.5" font-family="Helvetica,sans-Serif" font-size="10.00">::void_, parameter::void_ &gt; &gt;</text>
<polyline fill="none" stroke="#bfbfbf" points="220,-754.5 381,-754.5 "/>
<text text-anchor="middle" x="300.5" y="-742.5" font-family="Helvetica,sans-Serif" font-size="10.00"> </text>
<polyline fill="none" stroke="#bfbfbf" points="220,-735.5 381,-735.5 "/>
<text text-anchor="middle" x="300.5" y="-723.5" font-family="Helvetica,sans-Serif" font-size="10.00"> </text>
</a>
</g>
</g>
<!-- Node6&#45;&gt;Node1 -->
<g id="edge5" class="edge">
<title>Node6&#45;&gt;Node1</title>
<path fill="none" stroke="midnightblue" d="M324.19,-706.79C342.11,-667 369.6,-615.09 404.5,-577 489.06,-484.72 616.25,-410.72 693.5,-370.83"/>
<polygon fill="none" stroke="midnightblue" points="320.91,-705.55 320.06,-716.11 327.31,-708.38 320.91,-705.55"/>
</g>
<!-- Node7 -->
<g id="node7" class="node">
<title>Node7</title>
<g id="a_node7"><a xlink:title=" ">
<polygon fill="white" stroke="#bfbfbf" points="399.5,-738.5 399.5,-795.5 437.5,-795.5 437.5,-738.5 399.5,-738.5"/>
<text text-anchor="middle" x="418.5" y="-783.5" font-family="Helvetica,sans-Serif" font-size="10.00">type</text>
<polyline fill="none" stroke="#bfbfbf" points="399.5,-776.5 437.5,-776.5 "/>
<text text-anchor="middle" x="418.5" y="-764.5" font-family="Helvetica,sans-Serif" font-size="10.00"> </text>
<polyline fill="none" stroke="#bfbfbf" points="399.5,-757.5 437.5,-757.5 "/>
<text text-anchor="middle" x="418.5" y="-745.5" font-family="Helvetica,sans-Serif" font-size="10.00"> </text>
</a>
</g>
</g>
<!-- Node7&#45;&gt;Node1 -->
<g id="edge6" class="edge">
<title>Node7&#45;&gt;Node1</title>
<path fill="none" stroke="#404040" d="M413.1,-738.34C407.02,-699.62 401.33,-628.28 429.5,-577 484.75,-476.41 602.66,-407.61 681.78,-370.65"/>
<polygon fill="none" stroke="#404040" points="682.25,-370.44 686.04,-364.3 693.16,-365.43 689.37,-371.57 682.25,-370.44"/>
<text text-anchor="middle" x="456" y="-624" font-family="Helvetica,sans-Serif" font-size="10.00"> #M_mesh</text>
</g>
<!-- Node7&#45;&gt;Node1 -->
<g id="edge19" class="edge">
<title>Node7&#45;&gt;Node1</title>
<path fill="none" stroke="#404040" d="M424.12,-738.47C428.27,-723.85 435.21,-706.39 446.5,-694 458.55,-680.78 471.49,-690.1 482.5,-676 510.24,-640.47 482.11,-616.12 504.5,-577 548.49,-500.12 625.42,-433.45 683.5,-390.29"/>
<polygon fill="none" stroke="#404040" points="683.7,-390.14 686.17,-383.36 693.38,-383.04 690.91,-389.81 683.7,-390.14"/>
<text text-anchor="middle" x="543.5" y="-624" font-family="Helvetica,sans-Serif" font-size="10.00"> #M_periodicity</text>
</g>
<!-- Node8 -->
<g id="node8" class="node">
<title>Node8</title>
<g id="a_node8"><a xlink:title=" ">
<polygon fill="white" stroke="#bfbfbf" points="455.5,-733 455.5,-801 571.5,-801 571.5,-733 455.5,-733"/>
<text text-anchor="start" x="463.5" y="-789" font-family="Helvetica,sans-Serif" font-size="10.00">std::shared_ptr&lt; dof</text>
<text text-anchor="middle" x="513.5" y="-778" font-family="Helvetica,sans-Serif" font-size="10.00">_type &gt;</text>
<polyline fill="none" stroke="#bfbfbf" points="455.5,-771 571.5,-771 "/>
<text text-anchor="middle" x="513.5" y="-759" font-family="Helvetica,sans-Serif" font-size="10.00"> </text>
<polyline fill="none" stroke="#bfbfbf" points="455.5,-752 571.5,-752 "/>
<text text-anchor="start" x="463.5" y="-740" font-family="Helvetica,sans-Serif" font-size="10.00">+ operator&#45;&gt;()</text>
</a>
</g>
</g>
<!-- Node8&#45;&gt;Node1 -->
<g id="edge7" class="edge">
<title>Node8&#45;&gt;Node1</title>
<path fill="none" stroke="#404040" d="M546.66,-732.66C560.85,-716.7 576.42,-696.6 586.5,-676 606.35,-635.42 592.06,-618.67 609.5,-577 629.6,-528.97 659.02,-479.73 686.57,-438.56"/>
<polygon fill="none" stroke="#404040" points="686.62,-438.48 686.66,-431.27 693.34,-428.54 693.29,-435.75 686.62,-438.48"/>
<text text-anchor="middle" x="643" y="-629.5" font-family="Helvetica,sans-Serif" font-size="10.00"> #M_dof</text>
<text text-anchor="middle" x="643" y="-618.5" font-family="Helvetica,sans-Serif" font-size="10.00">#M_dofOnOff</text>
</g>
<!-- Node9 -->
<g id="node9" class="node">
<title>Node9</title>
<g id="a_node9"><a xlink:title=" ">
<polygon fill="white" stroke="#bfbfbf" points="484,-1003 484,-1060 543,-1060 543,-1003 484,-1003"/>
<text text-anchor="middle" x="513.5" y="-1048" font-family="Helvetica,sans-Serif" font-size="10.00">dof_type</text>
<polyline fill="none" stroke="#bfbfbf" points="484,-1041 543,-1041 "/>
<text text-anchor="middle" x="513.5" y="-1029" font-family="Helvetica,sans-Serif" font-size="10.00"> </text>
<polyline fill="none" stroke="#bfbfbf" points="484,-1022 543,-1022 "/>
<text text-anchor="middle" x="513.5" y="-1010" font-family="Helvetica,sans-Serif" font-size="10.00"> </text>
</a>
</g>
</g>
<!-- Node9&#45;&gt;Node8 -->
<g id="edge8" class="edge">
<title>Node9&#45;&gt;Node8</title>
<path fill="none" stroke="#404040" d="M513.5,-1002.9C513.5,-957.84 513.5,-868.02 513.5,-813.44"/>
<polygon fill="none" stroke="#404040" points="513.5,-813.37 509.5,-807.37 513.5,-801.37 517.5,-807.37 513.5,-813.37"/>
<text text-anchor="middle" x="526" y="-861" font-family="Helvetica,sans-Serif" font-size="10.00"> +ptr</text>
</g>
<!-- Node10 -->
<g id="node10" class="node">
<title>Node10</title>
<g id="a_node10"><a xlink:title=" ">
<polygon fill="white" stroke="#bfbfbf" points="590,-733 590,-801 727,-801 727,-733 590,-733"/>
<text text-anchor="start" x="598" y="-789" font-family="Helvetica,sans-Serif" font-size="10.00">std::vector&lt; worldcomm</text>
<text text-anchor="middle" x="658.5" y="-778" font-family="Helvetica,sans-Serif" font-size="10.00">_ptr_t &gt;</text>
<polyline fill="none" stroke="#bfbfbf" points="590,-771 727,-771 "/>
<text text-anchor="middle" x="658.5" y="-759" font-family="Helvetica,sans-Serif" font-size="10.00"> </text>
<polyline fill="none" stroke="#bfbfbf" points="590,-752 727,-752 "/>
<text text-anchor="middle" x="658.5" y="-740" font-family="Helvetica,sans-Serif" font-size="10.00"> </text>
</a>
</g>
</g>
<!-- Node10&#45;&gt;Node1 -->
<g id="edge9" class="edge">
<title>Node10&#45;&gt;Node1</title>
<path fill="none" stroke="#404040" d="M666.97,-732.74C671.2,-715.79 676.3,-694.84 680.5,-676 690.28,-632.19 690.58,-620.78 700.5,-577 700.99,-574.83 701.49,-572.65 701.99,-570.46"/>
<polygon fill="none" stroke="#404040" points="702.01,-570.36 699.46,-563.62 704.71,-558.67 707.26,-565.42 702.01,-570.36"/>
<text text-anchor="middle" x="746" y="-624" font-family="Helvetica,sans-Serif" font-size="10.00"> #M_worldsComm</text>
</g>
<!-- Node11 -->
<g id="node11" class="node">
<title>Node11</title>
<g id="a_node11"><a xlink:title="STL class.">
<polygon fill="white" stroke="#bfbfbf" points="599.5,-1003 599.5,-1060 717.5,-1060 717.5,-1003 599.5,-1003"/>
<text text-anchor="middle" x="658.5" y="-1048" font-family="Helvetica,sans-Serif" font-size="10.00">std::shared_ptr&lt; T &gt;</text>
<polyline fill="none" stroke="#bfbfbf" points="599.5,-1041 717.5,-1041 "/>
<text text-anchor="middle" x="658.5" y="-1029" font-family="Helvetica,sans-Serif" font-size="10.00"> </text>
<polyline fill="none" stroke="#bfbfbf" points="599.5,-1022 717.5,-1022 "/>
<text text-anchor="start" x="607.5" y="-1010" font-family="Helvetica,sans-Serif" font-size="10.00">+ operator&#45;&gt;()</text>
</a>
</g>
</g>
<!-- Node11&#45;&gt;Node10 -->
<g id="edge10" class="edge">
<title>Node11&#45;&gt;Node10</title>
<path fill="none" stroke="#404040" d="M658.5,-1002.9C658.5,-957.84 658.5,-868.02 658.5,-813.44"/>
<polygon fill="none" stroke="#404040" points="658.5,-813.37 654.5,-807.37 658.5,-801.37 662.5,-807.37 658.5,-813.37"/>
<text text-anchor="middle" x="687.5" y="-861" font-family="Helvetica,sans-Serif" font-size="10.00"> +elements</text>
</g>
<!-- Node12 -->
<g id="node12" class="node">
<title>Node12</title>
<g id="a_node12"><a xlink:title=" ">
<polygon fill="white" stroke="#bfbfbf" points="644,-1223.5 644,-1280.5 673,-1280.5 673,-1223.5 644,-1223.5"/>
<text text-anchor="middle" x="658.5" y="-1268.5" font-family="Helvetica,sans-Serif" font-size="10.00">T</text>
<polyline fill="none" stroke="#bfbfbf" points="644,-1261.5 673,-1261.5 "/>
<text text-anchor="middle" x="658.5" y="-1249.5" font-family="Helvetica,sans-Serif" font-size="10.00"> </text>
<polyline fill="none" stroke="#bfbfbf" points="644,-1242.5 673,-1242.5 "/>
<text text-anchor="middle" x="658.5" y="-1230.5" font-family="Helvetica,sans-Serif" font-size="10.00"> </text>
</a>
</g>
</g>
<!-- Node12&#45;&gt;Node11 -->
<g id="edge11" class="edge">
<title>Node12&#45;&gt;Node11</title>
<path fill="none" stroke="#404040" d="M658.5,-1223.33C658.5,-1185.18 658.5,-1116.2 658.5,-1072.45"/>
<polygon fill="none" stroke="#404040" points="658.5,-1072.29 654.5,-1066.29 658.5,-1060.29 662.5,-1066.29 658.5,-1072.29"/>
<text text-anchor="middle" x="671" y="-1197" font-family="Helvetica,sans-Serif" font-size="10.00"> +ptr</text>
</g>
<!-- Node13 -->
<g id="node13" class="node">
<title>Node13</title>
<g id="a_node13"><a xlink:title=" ">
<polygon fill="white" stroke="#bfbfbf" points="745,-733 745,-801 892,-801 892,-733 745,-733"/>
<text text-anchor="start" x="753" y="-789" font-family="Helvetica,sans-Serif" font-size="10.00">std::shared_ptr&lt; reference</text>
<text text-anchor="middle" x="818.5" y="-778" font-family="Helvetica,sans-Serif" font-size="10.00">_element_type &gt;</text>
<polyline fill="none" stroke="#bfbfbf" points="745,-771 892,-771 "/>
<text text-anchor="middle" x="818.5" y="-759" font-family="Helvetica,sans-Serif" font-size="10.00"> </text>
<polyline fill="none" stroke="#bfbfbf" points="745,-752 892,-752 "/>
<text text-anchor="start" x="753" y="-740" font-family="Helvetica,sans-Serif" font-size="10.00">+ operator&#45;&gt;()</text>
</a>
</g>
</g>
<!-- Node13&#45;&gt;Node1 -->
<g id="edge12" class="edge">
<title>Node13&#45;&gt;Node1</title>
<path fill="none" stroke="#404040" d="M814.72,-732.85C810.35,-695.09 802.82,-631.55 795.5,-577 795.22,-574.93 794.94,-572.86 794.66,-570.77"/>
<polygon fill="none" stroke="#404040" points="794.64,-570.62 789.87,-565.22 793.02,-558.73 797.79,-564.14 794.64,-570.62"/>
<text text-anchor="middle" x="835" y="-624" font-family="Helvetica,sans-Serif" font-size="10.00"> #M_ref_fe</text>
</g>
<!-- Node14 -->
<g id="node14" class="node">
<title>Node14</title>
<g id="a_node14"><a xlink:title=" ">
<polygon fill="white" stroke="#bfbfbf" points="750.5,-1003 750.5,-1060 886.5,-1060 886.5,-1003 750.5,-1003"/>
<text text-anchor="middle" x="818.5" y="-1048" font-family="Helvetica,sans-Serif" font-size="10.00">reference_element_type</text>
<polyline fill="none" stroke="#bfbfbf" points="750.5,-1041 886.5,-1041 "/>
<text text-anchor="middle" x="818.5" y="-1029" font-family="Helvetica,sans-Serif" font-size="10.00"> </text>
<polyline fill="none" stroke="#bfbfbf" points="750.5,-1022 886.5,-1022 "/>
<text text-anchor="middle" x="818.5" y="-1010" font-family="Helvetica,sans-Serif" font-size="10.00"> </text>
</a>
</g>
</g>
<!-- Node14&#45;&gt;Node13 -->
<g id="edge13" class="edge">
<title>Node14&#45;&gt;Node13</title>
<path fill="none" stroke="#404040" d="M818.5,-1002.9C818.5,-957.84 818.5,-868.02 818.5,-813.44"/>
<polygon fill="none" stroke="#404040" points="818.5,-813.37 814.5,-807.37 818.5,-801.37 822.5,-807.37 818.5,-813.37"/>
<text text-anchor="middle" x="831" y="-861" font-family="Helvetica,sans-Serif" font-size="10.00"> +ptr</text>
</g>
<!-- Node15 -->
<g id="node15" class="node">
<title>Node15</title>
<g id="a_node15"><a xlink:title=" ">
<polygon fill="white" stroke="#bfbfbf" points="910,-738.5 910,-795.5 1065,-795.5 1065,-738.5 910,-738.5"/>
<text text-anchor="middle" x="987.5" y="-783.5" font-family="Helvetica,sans-Serif" font-size="10.00">static constexpr uint16_type</text>
<polyline fill="none" stroke="#bfbfbf" points="910,-776.5 1065,-776.5 "/>
<text text-anchor="middle" x="987.5" y="-764.5" font-family="Helvetica,sans-Serif" font-size="10.00"> </text>
<polyline fill="none" stroke="#bfbfbf" points="910,-757.5 1065,-757.5 "/>
<text text-anchor="middle" x="987.5" y="-745.5" font-family="Helvetica,sans-Serif" font-size="10.00"> </text>
</a>
</g>
</g>
<!-- Node15&#45;&gt;Node1 -->
<g id="edge14" class="edge">
<title>Node15&#45;&gt;Node1</title>
<path fill="none" stroke="#404040" d="M972.78,-738.28C945.02,-685.99 883.23,-569.62 833.43,-475.85"/>
<polygon fill="none" stroke="#404040" points="833.36,-475.71 827.01,-472.29 827.73,-465.11 834.08,-468.54 833.36,-475.71"/>
<text text-anchor="middle" x="986.5" y="-668" font-family="Helvetica,sans-Serif" font-size="10.00"> +nComponents1</text>
<text text-anchor="middle" x="986.5" y="-657" font-family="Helvetica,sans-Serif" font-size="10.00">+nComponents2</text>
<text text-anchor="middle" x="986.5" y="-646" font-family="Helvetica,sans-Serif" font-size="10.00">+nDim</text>
<text text-anchor="middle" x="986.5" y="-635" font-family="Helvetica,sans-Serif" font-size="10.00">+rank</text>
<text text-anchor="middle" x="986.5" y="-624" font-family="Helvetica,sans-Serif" font-size="10.00">+nSpaces</text>
<text text-anchor="middle" x="986.5" y="-613" font-family="Helvetica,sans-Serif" font-size="10.00">+nComponents</text>
<text text-anchor="middle" x="986.5" y="-602" font-family="Helvetica,sans-Serif" font-size="10.00">+nRealDim</text>
<text text-anchor="middle" x="986.5" y="-591" font-family="Helvetica,sans-Serif" font-size="10.00">+nRealComponents</text>
<text text-anchor="middle" x="986.5" y="-580" font-family="Helvetica,sans-Serif" font-size="10.00">+N_COMPONENTS</text>
</g>
<!-- Node16 -->
<g id="node16" class="node">
<title>Node16</title>
<g id="a_node16"><a xlink:href="classbool.html" target="_top" xlink:title=" ">
<polygon fill="white" stroke="black" points="1137.5,-1003 1137.5,-1060 1175.5,-1060 1175.5,-1003 1137.5,-1003"/>
<text text-anchor="middle" x="1156.5" y="-1048" font-family="Helvetica,sans-Serif" font-size="10.00">bool</text>
<polyline fill="none" stroke="black" points="1137.5,-1041 1175.5,-1041 "/>
<text text-anchor="middle" x="1156.5" y="-1029" font-family="Helvetica,sans-Serif" font-size="10.00"> </text>
<polyline fill="none" stroke="black" points="1137.5,-1022 1175.5,-1022 "/>
<text text-anchor="middle" x="1156.5" y="-1010" font-family="Helvetica,sans-Serif" font-size="10.00"> </text>
</a>
</g>
</g>
<!-- Node16&#45;&gt;Node1 -->
<g id="edge15" class="edge">
<title>Node16&#45;&gt;Node1</title>
<path fill="none" stroke="#404040" d="M1149.77,-1002.73C1130.91,-924.88 1078.62,-709.2 1074.5,-694 1060.29,-641.62 1069.11,-622.49 1039.5,-577 987.47,-497.07 900.91,-429.08 837.98,-386.39"/>
<polygon fill="none" stroke="#404040" points="837.67,-386.18 830.46,-386.16 827.71,-379.5 834.92,-379.52 837.67,-386.18"/>
<text text-anchor="middle" x="1164.5" y="-819.5" font-family="Helvetica,sans-Serif" font-size="10.00"> +is_hcurl_conforming</text>
<text text-anchor="middle" x="1164.5" y="-808.5" font-family="Helvetica,sans-Serif" font-size="10.00">+is_product</text>
<text text-anchor="middle" x="1164.5" y="-797.5" font-family="Helvetica,sans-Serif" font-size="10.00">+is_composite</text>
<text text-anchor="middle" x="1164.5" y="-786.5" font-family="Helvetica,sans-Serif" font-size="10.00">+is_scalar</text>
<text text-anchor="middle" x="1164.5" y="-775.5" font-family="Helvetica,sans-Serif" font-size="10.00">+is_mortar</text>
<text text-anchor="middle" x="1164.5" y="-764.5" font-family="Helvetica,sans-Serif" font-size="10.00">+is_tensor2symm</text>
<text text-anchor="middle" x="1164.5" y="-753.5" font-family="Helvetica,sans-Serif" font-size="10.00">+is_continuous</text>
<text text-anchor="middle" x="1164.5" y="-742.5" font-family="Helvetica,sans-Serif" font-size="10.00">+is_tensor2</text>
<text text-anchor="middle" x="1164.5" y="-731.5" font-family="Helvetica,sans-Serif" font-size="10.00">#M_extendedDofTable</text>
<text text-anchor="middle" x="1164.5" y="-720.5" font-family="Helvetica,sans-Serif" font-size="10.00">+is_hdiv_conforming</text>
<text text-anchor="middle" x="1164.5" y="-709.5" font-family="Helvetica,sans-Serif" font-size="10.00">...</text>
</g>
<!-- Node18 -->
<g id="node18" class="node">
<title>Node18</title>
<g id="a_node18"><a xlink:title=" ">
<polygon fill="white" stroke="#bfbfbf" points="1231.5,-738.5 1231.5,-795.5 1343.5,-795.5 1343.5,-738.5 1231.5,-738.5"/>
<text text-anchor="middle" x="1287.5" y="-783.5" font-family="Helvetica,sans-Serif" font-size="10.00">std::vector&lt; bool &gt;</text>
<polyline fill="none" stroke="#bfbfbf" points="1231.5,-776.5 1343.5,-776.5 "/>
<text text-anchor="middle" x="1287.5" y="-764.5" font-family="Helvetica,sans-Serif" font-size="10.00"> </text>
<polyline fill="none" stroke="#bfbfbf" points="1231.5,-757.5 1343.5,-757.5 "/>
<text text-anchor="middle" x="1287.5" y="-745.5" font-family="Helvetica,sans-Serif" font-size="10.00"> </text>
</a>
</g>
</g>
<!-- Node16&#45;&gt;Node18 -->
<g id="edge18" class="edge">
<title>Node16&#45;&gt;Node18</title>
<path fill="none" stroke="#404040" d="M1170.27,-1002.9C1193.76,-955.84 1241.62,-859.94 1268.35,-806.38"/>
<polygon fill="none" stroke="#404040" points="1268.36,-806.36 1267.46,-799.2 1273.72,-795.62 1274.62,-802.77 1268.36,-806.36"/>
<text text-anchor="middle" x="1269.5" y="-861" font-family="Helvetica,sans-Serif" font-size="10.00"> +elements</text>
</g>
<!-- Node17 -->
<g id="node17" class="node">
<title>Node17</title>
<g id="a_node17"><a xlink:title=" ">
<polygon fill="white" stroke="#bfbfbf" points="1362,-733 1362,-801 1485,-801 1485,-733 1362,-733"/>
<text text-anchor="start" x="1370" y="-789" font-family="Helvetica,sans-Serif" font-size="10.00">optional&lt; region_tree</text>
<text text-anchor="middle" x="1423.5" y="-778" font-family="Helvetica,sans-Serif" font-size="10.00">_ptrtype &gt;</text>
<polyline fill="none" stroke="#bfbfbf" points="1362,-771 1485,-771 "/>
<text text-anchor="middle" x="1423.5" y="-759" font-family="Helvetica,sans-Serif" font-size="10.00"> </text>
<polyline fill="none" stroke="#bfbfbf" points="1362,-752 1485,-752 "/>
<text text-anchor="middle" x="1423.5" y="-740" font-family="Helvetica,sans-Serif" font-size="10.00"> </text>
</a>
</g>
</g>
<!-- Node17&#45;&gt;Node1 -->
<g id="edge16" class="edge">
<title>Node17&#45;&gt;Node1</title>
<path fill="none" stroke="#404040" d="M1425.5,-732.84C1426.17,-691.51 1421.07,-620.99 1383.5,-577 1242.36,-411.75 973.42,-360.62 839.85,-345.09"/>
<polygon fill="none" stroke="#404040" points="839.67,-345.07 833.26,-348.38 827.74,-343.73 834.15,-340.43 839.67,-345.07"/>
<text text-anchor="middle" x="1438.5" y="-624" font-family="Helvetica,sans-Serif" font-size="10.00"> #M_rt</text>
</g>
<!-- Node18&#45;&gt;Node1 -->
<g id="edge17" class="edge">
<title>Node18&#45;&gt;Node1</title>
<path fill="none" stroke="#404040" d="M1265.98,-738.42C1235.09,-699.82 1175.29,-628.6 1115.5,-577 1026.97,-500.59 912.99,-427.92 838.4,-383.32"/>
<polygon fill="none" stroke="#404040" points="838,-383.08 830.8,-383.45 827.69,-376.94 834.89,-376.57 838,-383.08"/>
<text text-anchor="middle" x="1296" y="-624" font-family="Helvetica,sans-Serif" font-size="10.00"> #M_extendedDofTableComposite</text>
</g>
<!-- Node19 -->
<g id="node19" class="node">
<title>Node19</title>
<g id="a_node19"><a xlink:title=" ">
<polygon fill="white" stroke="#bfbfbf" points="1503.5,-738.5 1503.5,-795.5 1625.5,-795.5 1625.5,-738.5 1503.5,-738.5"/>
<text text-anchor="middle" x="1564.5" y="-783.5" font-family="Helvetica,sans-Serif" font-size="10.00">static const size_type</text>
<polyline fill="none" stroke="#bfbfbf" points="1503.5,-776.5 1625.5,-776.5 "/>
<text text-anchor="middle" x="1564.5" y="-764.5" font-family="Helvetica,sans-Serif" font-size="10.00"> </text>
<polyline fill="none" stroke="#bfbfbf" points="1503.5,-757.5 1625.5,-757.5 "/>
<text text-anchor="middle" x="1564.5" y="-745.5" font-family="Helvetica,sans-Serif" font-size="10.00"> </text>
</a>
</g>
</g>
<!-- Node19&#45;&gt;Node1 -->
<g id="edge20" class="edge">
<title>Node19&#45;&gt;Node1</title>
<path fill="none" stroke="#404040" d="M1556.28,-738.4C1542.7,-697.43 1511.77,-620.69 1459.5,-577 1273.16,-421.24 979.91,-365.41 839.96,-346.9"/>
<polygon fill="none" stroke="#404040" points="839.62,-346.86 833.15,-350.06 827.71,-345.32 834.18,-342.12 839.62,-346.86"/>
<text text-anchor="middle" x="1586.5" y="-624" font-family="Helvetica,sans-Serif" font-size="10.00"> +basis_context_value</text>
</g>
<!-- Node20&#45;&gt;Node1 -->
<g id="edge21" class="edge">
<title>Node20&#45;&gt;Node1</title>
<path fill="none" stroke="#404040" d="M761.98,-68.74C762.2,-74.81 762.39,-81.1 762.5,-87 762.59,-91.89 762.52,-93.11 762.5,-98 762.49,-100.06 762.48,-102.14 762.47,-104.22"/>
<polygon fill="none" stroke="#404040" points="762.47,-104.24 766.44,-110.26 762.41,-116.24 758.44,-110.22 762.47,-104.24"/>
<text text-anchor="middle" x="806" y="-90" font-family="Helvetica,sans-Serif" font-size="10.00"> #M_comp_space</text>
</g>
</g>
</svg>
        <g id="navigator" transform="translate(0 0)" fill="#404254">
                <rect fill="#f2f5e9" fill-opacity="0.5" stroke="#606060" stroke-width=".5" x="0" y="0" width="60" height="60"/>
                <use id="zoomplus" xlink:href="#zoomPlus" x="17" y="9" onmousedown="handleZoom(evt,'in')"/>
                <use id="zoomminus" xlink:href="#zoomMin" x="42" y="9" onmousedown="handleZoom(evt,'out')"/>
                <use id="reset" xlink:href="#resetDef" x="30" y="36" onmousedown="handleReset()"/>
                <g id="arrowUp" xlink:href="#dirArrow" transform="translate(30 24)" onmousedown="handlePan(0,-1)">
                  <use xlink:href="#rim" fill="#404040">
                        <set attributeName="fill" to="#808080" begin="arrowUp.mouseover" end="arrowUp.mouseout"/>
                  </use>
                  <path fill="none" stroke="white" stroke-width="1.5" d="M0,-3.0v7 M-2.5,-0.5L0,-3.0L2.5,-0.5"/>
                </g>
                <g id="arrowRight" xlink:href="#dirArrow" transform="rotate(90) translate(36 -43)" onmousedown="handlePan(1,0)">
                  <use xlink:href="#rim" fill="#404040">
                        <set attributeName="fill" to="#808080" begin="arrowRight.mouseover" end="arrowRight.mouseout"/>
                  </use>
                  <path fill="none" stroke="white" stroke-width="1.5" d="M0,-3.0v7 M-2.5,-0.5L0,-3.0L2.5,-0.5"/>
                </g>
                <g id="arrowDown" xlink:href="#dirArrow" transform="rotate(180) translate(-30 -48)" onmousedown="handlePan(0,1)">
                  <use xlink:href="#rim" fill="#404040">
                        <set attributeName="fill" to="#808080" begin="arrowDown.mouseover" end="arrowDown.mouseout"/>
                  </use>
                  <path fill="none" stroke="white" stroke-width="1.5" d="M0,-3.0v7 M-2.5,-0.5L0,-3.0L2.5,-0.5"/>
                </g>
                <g id="arrowLeft" xlink:href="#dirArrow" transform="rotate(270) translate(-36 17)" onmousedown="handlePan(-1,0)">
                  <use xlink:href="#rim" fill="#404040">
                        <set attributeName="fill" to="#808080" begin="arrowLeft.mouseover" end="arrowLeft.mouseout"/>
                  </use>
                  <path fill="none" stroke="white" stroke-width="1.5" d="M0,-3.0v7 M-2.5,-0.5L0,-3.0L2.5,-0.5"/>
                </g>
        </g>
        <svg viewBox="0 0 15 15" width="100%" height="30px" preserveAspectRatio="xMaxYMin meet">
         <g id="arrow_out" transform="scale(0.3 0.3)">
          <a xlink:href="classFeel_1_1FunctionSpace__coll__graph_org.svg" target="_base">
           <rect id="button" ry="5" rx="5" y="6" x="6" height="38" width="38"
                fill="#f2f5e9" fill-opacity="0.5" stroke="#606060" stroke-width="1.0"/>
           <path id="arrow"
             d="M 11.500037,31.436501 C 11.940474,20.09759 22.043105,11.32322 32.158766,21.979434 L 37.068811,17.246167 C 37.068811,17.246167 37.088388,32 37.088388,32 L 22.160133,31.978069 C 22.160133,31.978069 26.997745,27.140456 26.997745,27.140456 C 18.528582,18.264221 13.291696,25.230495 11.500037,31.436501 z"
             style="fill:#404040;"/>
          </a>
         </g>
        </svg>
</svg>
