<?xml version="1.0" encoding="UTF-8" standalone="no"?>
<!DOCTYPE svg PUBLIC "-//W3C//DTD SVG 1.1//EN"
 "http://www.w3.org/Graphics/SVG/1.1/DTD/svg11.dtd">
<!-- Generated by graphviz version 2.43.0 (0)
 -->
<!-- Title: vector Pages: 1 -->
<svg width="139pt" height="182pt"
 viewBox="0.00 0.00 139.00 182.00" xmlns="http://www.w3.org/2000/svg" xmlns:xlink="http://www.w3.org/1999/xlink">
<g id="graph0" class="graph" transform="scale(1 1) rotate(0) translate(4 178)">
<title>vector</title>
<polygon fill="white" stroke="transparent" points="-4,4 -4,-178 135,-178 135,4 -4,4"/>
<!-- Node1 -->
<g id="node1" class="node">
<title>Node1</title>
<g id="a_node1"><a xlink:title=" ">
<polygon fill="#bfbfbf" stroke="black" points="42,-116.5 42,-173.5 89,-173.5 89,-116.5 42,-116.5"/>
<text text-anchor="middle" x="65.5" y="-161.5" font-family="Helvetica,sans-Serif" font-size="10.00">vector</text>
<polyline fill="none" stroke="black" points="42,-154.5 89,-154.5 "/>
<text text-anchor="middle" x="65.5" y="-142.5" font-family="Helvetica,sans-Serif" font-size="10.00"> </text>
<polyline fill="none" stroke="black" points="42,-135.5 89,-135.5 "/>
<text text-anchor="middle" x="65.5" y="-123.5" font-family="Helvetica,sans-Serif" font-size="10.00"> </text>
</a>
</g>
</g>
<!-- Node2 -->
<g id="node2" class="node">
<title>Node2</title>
<g id="a_node2"><a xlink:href="structFeel_1_1stencilQuadSet.html" target="_top" xlink:title=" ">
<polygon fill="white" stroke="black" points="0,-0.5 0,-79.5 131,-79.5 131,-0.5 0,-0.5"/>
<text text-anchor="start" x="8" y="-67.5" font-family="Helvetica,sans-Serif" font-size="10.00">Feel::stencilQuadSet</text>
<text text-anchor="start" x="8" y="-56.5" font-family="Helvetica,sans-Serif" font-size="10.00">&lt; _Q&lt; 20 &gt;, _Q&lt; 12 &gt;,</text>
<text text-anchor="middle" x="65.5" y="-45.5" font-family="Helvetica,sans-Serif" font-size="10.00"> _Q&lt; 8 &gt; &gt;</text>
<polyline fill="none" stroke="black" points="0,-38.5 131,-38.5 "/>
<text text-anchor="middle" x="65.5" y="-26.5" font-family="Helvetica,sans-Serif" font-size="10.00"> </text>
<polyline fill="none" stroke="black" points="0,-19.5 131,-19.5 "/>
<text text-anchor="start" x="8" y="-7.5" font-family="Helvetica,sans-Serif" font-size="10.00">+ stencilQuadSet()</text>
</a>
</g>
</g>
<!-- Node1&#45;&gt;Node2 -->
<g id="edge1" class="edge">
<title>Node1&#45;&gt;Node2</title>
<path fill="none" stroke="midnightblue" d="M65.5,-106.16C65.5,-97.47 65.5,-88.23 65.5,-79.52"/>
<polygon fill="none" stroke="midnightblue" points="62,-106.4 65.5,-116.4 69,-106.4 62,-106.4"/>
</g>
</g>
</svg>
