<?xml version="1.0" encoding="UTF-8" standalone="no"?>
<!DOCTYPE svg PUBLIC "-//W3C//DTD SVG 1.1//EN"
 "http://www.w3.org/Graphics/SVG/1.1/DTD/svg11.dtd">
<!-- Generated by graphviz version 2.43.0 (0)
 -->
<!-- Title: Feel::Checker Pages: 1 -->
<svg width="184pt" height="540pt"
 viewBox="0.00 0.00 184.00 540.00" xmlns="http://www.w3.org/2000/svg" xmlns:xlink="http://www.w3.org/1999/xlink">
<g id="graph0" class="graph" transform="scale(1 1) rotate(0) translate(4 536)">
<title>Feel::Checker</title>
<polygon fill="white" stroke="transparent" points="-4,4 -4,-536 180,-536 180,4 -4,4"/>
<!-- Node1 -->
<g id="node1" class="node">
<title>Node1</title>
<g id="a_node1"><a xlink:title="Checker class.">
<polygon fill="#bfbfbf" stroke="black" points="44.5,-0.5 44.5,-112.5 131.5,-112.5 131.5,-0.5 44.5,-0.5"/>
<text text-anchor="middle" x="88" y="-100.5" font-family="Helvetica,sans-Serif" font-size="10.00">Feel::Checker</text>
<polyline fill="none" stroke="black" points="44.5,-93.5 131.5,-93.5 "/>
<text text-anchor="middle" x="88" y="-81.5" font-family="Helvetica,sans-Serif" font-size="10.00"> </text>
<polyline fill="none" stroke="black" points="44.5,-74.5 131.5,-74.5 "/>
<text text-anchor="start" x="52.5" y="-62.5" font-family="Helvetica,sans-Serif" font-size="10.00">+ check()</text>
<text text-anchor="start" x="52.5" y="-51.5" font-family="Helvetica,sans-Serif" font-size="10.00">+ Checker()</text>
<text text-anchor="start" x="52.5" y="-40.5" font-family="Helvetica,sans-Serif" font-size="10.00">+ Checker()</text>
<text text-anchor="start" x="52.5" y="-29.5" font-family="Helvetica,sans-Serif" font-size="10.00">+ Checker()</text>
<text text-anchor="start" x="52.5" y="-18.5" font-family="Helvetica,sans-Serif" font-size="10.00">+ gradient()</text>
<text text-anchor="start" x="52.5" y="-7.5" font-family="Helvetica,sans-Serif" font-size="10.00">and 20 more...</text>
</a>
</g>
</g>
<!-- Node2 -->
<g id="node2" class="node">
<title>Node2</title>
<g id="a_node2"><a xlink:href="classFeel_1_1JournalWatcher.html" target="_top" xlink:title=" ">
<polygon fill="white" stroke="black" points="0,-149.5 0,-437.5 176,-437.5 176,-149.5 0,-149.5"/>
<text text-anchor="middle" x="88" y="-425.5" font-family="Helvetica,sans-Serif" font-size="10.00">Feel::JournalWatcher</text>
<polyline fill="none" stroke="black" points="0,-418.5 176,-418.5 "/>
<text text-anchor="middle" x="88" y="-406.5" font-family="Helvetica,sans-Serif" font-size="10.00"> </text>
<polyline fill="none" stroke="black" points="0,-399.5 176,-399.5 "/>
<text text-anchor="start" x="8" y="-387.5" font-family="Helvetica,sans-Serif" font-size="10.00">* M_journal_is_connected</text>
<text text-anchor="start" x="8" y="-376.5" font-family="Helvetica,sans-Serif" font-size="10.00">* M_category</text>
<text text-anchor="start" x="8" y="-365.5" font-family="Helvetica,sans-Serif" font-size="10.00">* M_name</text>
<text text-anchor="start" x="8" y="-354.5" font-family="Helvetica,sans-Serif" font-size="10.00">* M_function_updateInformation</text>
<text text-anchor="start" x="8" y="-343.5" font-family="Helvetica,sans-Serif" font-size="10.00">Object</text>
<text text-anchor="start" x="8" y="-332.5" font-family="Helvetica,sans-Serif" font-size="10.00">* M_informationObject</text>
<text text-anchor="start" x="8" y="-321.5" font-family="Helvetica,sans-Serif" font-size="10.00">* S_counterObjectByCategory</text>
<text text-anchor="start" x="8" y="-310.5" font-family="Helvetica,sans-Serif" font-size="10.00">* JournalWatcher()</text>
<text text-anchor="start" x="8" y="-299.5" font-family="Helvetica,sans-Serif" font-size="10.00">* JournalWatcher()</text>
<text text-anchor="start" x="8" y="-288.5" font-family="Helvetica,sans-Serif" font-size="10.00">* JournalWatcher()</text>
<text text-anchor="start" x="8" y="-277.5" font-family="Helvetica,sans-Serif" font-size="10.00">* JournalWatcher()</text>
<text text-anchor="start" x="8" y="-266.5" font-family="Helvetica,sans-Serif" font-size="10.00">* ~JournalWatcher()</text>
<text text-anchor="start" x="8" y="-255.5" font-family="Helvetica,sans-Serif" font-size="10.00">* journalIsConnected()</text>
<text text-anchor="start" x="8" y="-244.5" font-family="Helvetica,sans-Serif" font-size="10.00">* journalWatcherInstanceName()</text>
<text text-anchor="start" x="8" y="-233.5" font-family="Helvetica,sans-Serif" font-size="10.00">* journalSection()</text>
<text text-anchor="start" x="8" y="-222.5" font-family="Helvetica,sans-Serif" font-size="10.00">* informationObject()</text>
<text text-anchor="start" x="8" y="-211.5" font-family="Helvetica,sans-Serif" font-size="10.00">* journalConnect()</text>
<text text-anchor="start" x="8" y="-200.5" font-family="Helvetica,sans-Serif" font-size="10.00">* journalDisconnect()</text>
<text text-anchor="start" x="8" y="-189.5" font-family="Helvetica,sans-Serif" font-size="10.00">* updateInformationObject()</text>
<text text-anchor="start" x="8" y="-178.5" font-family="Helvetica,sans-Serif" font-size="10.00">* setInformationObject()</text>
<text text-anchor="start" x="8" y="-167.5" font-family="Helvetica,sans-Serif" font-size="10.00">* putInformationObject()</text>
<text text-anchor="start" x="8" y="-156.5" font-family="Helvetica,sans-Serif" font-size="10.00">and 4 more...</text>
</a>
</g>
</g>
<!-- Node2&#45;&gt;Node1 -->
<g id="edge1" class="edge">
<title>Node2&#45;&gt;Node1</title>
<path fill="none" stroke="midnightblue" d="M88,-139.16C88,-129.87 88,-120.9 88,-112.53"/>
<polygon fill="none" stroke="midnightblue" points="84.5,-139.37 88,-149.37 91.5,-139.37 84.5,-139.37"/>
</g>
<!-- Node3 -->
<g id="node3" class="node">
<title>Node3</title>
<g id="a_node3"><a xlink:title=" ">
<polygon fill="white" stroke="#bfbfbf" points="34.5,-474.5 34.5,-531.5 141.5,-531.5 141.5,-474.5 34.5,-474.5"/>
<text text-anchor="middle" x="88" y="-519.5" font-family="Helvetica,sans-Serif" font-size="10.00">Event::SlotHandler</text>
<polyline fill="none" stroke="#bfbfbf" points="34.5,-512.5 141.5,-512.5 "/>
<text text-anchor="middle" x="88" y="-500.5" font-family="Helvetica,sans-Serif" font-size="10.00"> </text>
<polyline fill="none" stroke="#bfbfbf" points="34.5,-493.5 141.5,-493.5 "/>
<text text-anchor="middle" x="88" y="-481.5" font-family="Helvetica,sans-Serif" font-size="10.00"> </text>
</a>
</g>
</g>
<!-- Node3&#45;&gt;Node2 -->
<g id="edge2" class="edge">
<title>Node3&#45;&gt;Node2</title>
<path fill="none" stroke="midnightblue" d="M88,-464.38C88,-456.29 88,-447.28 88,-437.76"/>
<polygon fill="none" stroke="midnightblue" points="84.5,-464.45 88,-474.45 91.5,-464.45 84.5,-464.45"/>
</g>
</g>
</svg>
