<?xml version="1.0" encoding="UTF-8" standalone="no"?>
<!DOCTYPE svg PUBLIC "-//W3C//DTD SVG 1.1//EN"
 "http://www.w3.org/Graphics/SVG/1.1/DTD/svg11.dtd">
<!-- Generated by graphviz version 2.43.0 (0)
 -->
<!-- Title: Feel::vf::Trans&lt; ExprT &gt; Pages: 1 -->
<svg width="336pt" height="413pt"
 viewBox="0.00 0.00 335.50 413.00" xmlns="http://www.w3.org/2000/svg" xmlns:xlink="http://www.w3.org/1999/xlink">
<g id="graph0" class="graph" transform="scale(1 1) rotate(0) translate(4 409)">
<title>Feel::vf::Trans&lt; ExprT &gt;</title>
<polygon fill="white" stroke="transparent" points="-4,4 -4,-409 331.5,-409 331.5,4 -4,4"/>
<!-- Node1 -->
<g id="node1" class="node">
<title>Node1</title>
<g id="a_node1"><a xlink:title="Transpose an scalar, vectorial or matricial expression.">
<polygon fill="#bfbfbf" stroke="black" points="112.5,-0.5 112.5,-255.5 262.5,-255.5 262.5,-0.5 112.5,-0.5"/>
<text text-anchor="middle" x="187.5" y="-243.5" font-family="Helvetica,sans-Serif" font-size="10.00">Feel::vf::Trans&lt; ExprT &gt;</text>
<polyline fill="none" stroke="black" points="112.5,-236.5 262.5,-236.5 "/>
<text text-anchor="middle" x="187.5" y="-224.5" font-family="Helvetica,sans-Serif" font-size="10.00"> </text>
<polyline fill="none" stroke="black" points="112.5,-217.5 262.5,-217.5 "/>
<text text-anchor="start" x="120.5" y="-205.5" font-family="Helvetica,sans-Serif" font-size="10.00">* expression_type</text>
<text text-anchor="start" x="120.5" y="-194.5" font-family="Helvetica,sans-Serif" font-size="10.00">* value_type</text>
<text text-anchor="start" x="120.5" y="-183.5" font-family="Helvetica,sans-Serif" font-size="10.00">* evaluate_type</text>
<text text-anchor="start" x="120.5" y="-172.5" font-family="Helvetica,sans-Serif" font-size="10.00">* this_type</text>
<text text-anchor="start" x="120.5" y="-161.5" font-family="Helvetica,sans-Serif" font-size="10.00">* M_expr</text>
<text text-anchor="start" x="120.5" y="-150.5" font-family="Helvetica,sans-Serif" font-size="10.00">* Trans()</text>
<text text-anchor="start" x="120.5" y="-139.5" font-family="Helvetica,sans-Serif" font-size="10.00">* ~Trans()</text>
<text text-anchor="start" x="120.5" y="-128.5" font-family="Helvetica,sans-Serif" font-size="10.00">* polynomialOrder()</text>
<text text-anchor="start" x="120.5" y="-117.5" font-family="Helvetica,sans-Serif" font-size="10.00">* isPolynomial()</text>
<text text-anchor="start" x="120.5" y="-106.5" font-family="Helvetica,sans-Serif" font-size="10.00">* evaluate()</text>
<text text-anchor="start" x="120.5" y="-95.5" font-family="Helvetica,sans-Serif" font-size="10.00">* operator()()</text>
<text text-anchor="start" x="120.5" y="-84.5" font-family="Helvetica,sans-Serif" font-size="10.00">* setParameterValues()</text>
<text text-anchor="start" x="120.5" y="-73.5" font-family="Helvetica,sans-Serif" font-size="10.00">* updateParameterValues()</text>
<text text-anchor="start" x="120.5" y="-62.5" font-family="Helvetica,sans-Serif" font-size="10.00">* applySymbolsExpr()</text>
<text text-anchor="start" x="120.5" y="-51.5" font-family="Helvetica,sans-Serif" font-size="10.00">* hasSymbolDependency()</text>
<text text-anchor="start" x="120.5" y="-40.5" font-family="Helvetica,sans-Serif" font-size="10.00">* dependentSymbols()</text>
<text text-anchor="start" x="120.5" y="-29.5" font-family="Helvetica,sans-Serif" font-size="10.00">* diff()</text>
<text text-anchor="start" x="120.5" y="-18.5" font-family="Helvetica,sans-Serif" font-size="10.00">* isSymetric()</text>
<text text-anchor="start" x="120.5" y="-7.5" font-family="Helvetica,sans-Serif" font-size="10.00">* expression()</text>
</a>
</g>
</g>
<!-- Node2 -->
<g id="node2" class="node">
<title>Node2</title>
<g id="a_node2"><a xlink:href="classFeel_1_1vf_1_1ExprDynamicBase.html" target="_top" xlink:title=" ">
<polygon fill="white" stroke="black" points="0,-325.5 0,-404.5 147,-404.5 147,-325.5 0,-325.5"/>
<text text-anchor="middle" x="73.5" y="-392.5" font-family="Helvetica,sans-Serif" font-size="10.00">Feel::vf::ExprDynamicBase</text>
<polyline fill="none" stroke="black" points="0,-385.5 147,-385.5 "/>
<text text-anchor="middle" x="73.5" y="-373.5" font-family="Helvetica,sans-Serif" font-size="10.00"> </text>
<polyline fill="none" stroke="black" points="0,-366.5 147,-366.5 "/>
<text text-anchor="start" x="8" y="-354.5" font-family="Helvetica,sans-Serif" font-size="10.00">+ dynamicContext()</text>
<text text-anchor="start" x="8" y="-343.5" font-family="Helvetica,sans-Serif" font-size="10.00">+ ExprDynamicBase()</text>
<text text-anchor="start" x="8" y="-332.5" font-family="Helvetica,sans-Serif" font-size="10.00">+ ExprDynamicBase()</text>
</a>
</g>
</g>
<!-- Node2&#45;&gt;Node1 -->
<g id="edge1" class="edge">
<title>Node2&#45;&gt;Node1</title>
<path fill="none" stroke="midnightblue" d="M96.57,-316.45C105.23,-298.6 115.53,-277.37 126.03,-255.72"/>
<polygon fill="none" stroke="midnightblue" points="93.41,-314.93 92.2,-325.46 99.71,-317.99 93.41,-314.93"/>
</g>
<!-- Node3 -->
<g id="node3" class="node">
<title>Node3</title>
<g id="a_node3"><a xlink:href="classsize__t.html" target="_top" xlink:title=" ">
<polygon fill="white" stroke="black" points="165,-336.5 165,-393.5 210,-393.5 210,-336.5 165,-336.5"/>
<text text-anchor="middle" x="187.5" y="-381.5" font-family="Helvetica,sans-Serif" font-size="10.00">size_t</text>
<polyline fill="none" stroke="black" points="165,-374.5 210,-374.5 "/>
<text text-anchor="middle" x="187.5" y="-362.5" font-family="Helvetica,sans-Serif" font-size="10.00"> </text>
<polyline fill="none" stroke="black" points="165,-355.5 210,-355.5 "/>
<text text-anchor="middle" x="187.5" y="-343.5" font-family="Helvetica,sans-Serif" font-size="10.00"> </text>
</a>
</g>
</g>
<!-- Node3&#45;&gt;Node1 -->
<g id="edge2" class="edge">
<title>Node3&#45;&gt;Node1</title>
<path fill="none" stroke="#404040" d="M187.5,-336.12C187.5,-318.3 187.5,-293.71 187.5,-267.69"/>
<polygon fill="none" stroke="#404040" points="187.5,-267.65 183.5,-261.65 187.5,-255.65 191.5,-261.65 187.5,-267.65"/>
<text text-anchor="middle" x="212" y="-288" font-family="Helvetica,sans-Serif" font-size="10.00"> +context</text>
</g>
<!-- Node4 -->
<g id="node4" class="node">
<title>Node4</title>
<g id="a_node4"><a xlink:href="classbool.html" target="_top" xlink:title=" ">
<polygon fill="white" stroke="black" points="240.5,-336.5 240.5,-393.5 278.5,-393.5 278.5,-336.5 240.5,-336.5"/>
<text text-anchor="middle" x="259.5" y="-381.5" font-family="Helvetica,sans-Serif" font-size="10.00">bool</text>
<polyline fill="none" stroke="black" points="240.5,-374.5 278.5,-374.5 "/>
<text text-anchor="middle" x="259.5" y="-362.5" font-family="Helvetica,sans-Serif" font-size="10.00"> </text>
<polyline fill="none" stroke="black" points="240.5,-355.5 278.5,-355.5 "/>
<text text-anchor="middle" x="259.5" y="-343.5" font-family="Helvetica,sans-Serif" font-size="10.00"> </text>
</a>
</g>
</g>
<!-- Node4&#45;&gt;Node1 -->
<g id="edge3" class="edge">
<title>Node4&#45;&gt;Node1</title>
<path fill="none" stroke="#404040" d="M253.41,-336.25C249.32,-318.37 243.58,-294.68 237.5,-274 236.84,-271.75 236.16,-269.48 235.48,-267.2"/>
<polygon fill="none" stroke="#404040" points="235.47,-267.17 229.88,-262.61 231.95,-255.7 237.53,-260.26 235.47,-267.17"/>
<text text-anchor="middle" x="286.5" y="-299" font-family="Helvetica,sans-Serif" font-size="10.00"> +is_terminal</text>
<text text-anchor="middle" x="286.5" y="-288" font-family="Helvetica,sans-Serif" font-size="10.00">+has_trial_basis</text>
<text text-anchor="middle" x="286.5" y="-277" font-family="Helvetica,sans-Serif" font-size="10.00">+has_test_basis</text>
</g>
</g>
</svg>
