<?xml version="1.0" encoding="UTF-8" standalone="no"?>
<!DOCTYPE svg PUBLIC "-//W3C//DTD SVG 1.1//EN"
 "http://www.w3.org/Graphics/SVG/1.1/DTD/svg11.dtd">
<!-- Generated by graphviz version 2.43.0 (0)
 -->
<!-- Title: Feel::Factory&lt; AbstractProduct, IdentifierType, ProductCreator, FactoryErrorPolicy &gt; Pages: 1 -->
<svg width="196pt" height="292pt"
 viewBox="0.00 0.00 196.00 292.00" xmlns="http://www.w3.org/2000/svg" xmlns:xlink="http://www.w3.org/1999/xlink">
<g id="graph0" class="graph" transform="scale(1 1) rotate(0) translate(4 288)">
<title>Feel::Factory&lt; AbstractProduct, IdentifierType, ProductCreator, FactoryErrorPolicy &gt;</title>
<polygon fill="white" stroke="transparent" points="-4,4 -4,-288 192,-288 192,4 -4,4"/>
<!-- Node1 -->
<g id="node1" class="node">
<title>Node1</title>
<g id="a_node1"><a xlink:title="Implements a generic object Factory.">
<polygon fill="#bfbfbf" stroke="black" points="9,-0.5 9,-178.5 179,-178.5 179,-0.5 9,-0.5"/>
<text text-anchor="start" x="17" y="-166.5" font-family="Helvetica,sans-Serif" font-size="10.00">Feel::Factory&lt; AbstractProduct,</text>
<text text-anchor="start" x="17" y="-155.5" font-family="Helvetica,sans-Serif" font-size="10.00"> IdentifierType, ProductCreator,</text>
<text text-anchor="middle" x="94" y="-144.5" font-family="Helvetica,sans-Serif" font-size="10.00"> FactoryErrorPolicy &gt;</text>
<polyline fill="none" stroke="black" points="9,-137.5 179,-137.5 "/>
<text text-anchor="middle" x="94" y="-125.5" font-family="Helvetica,sans-Serif" font-size="10.00"> </text>
<polyline fill="none" stroke="black" points="9,-118.5 179,-118.5 "/>
<text text-anchor="start" x="17" y="-106.5" font-family="Helvetica,sans-Serif" font-size="10.00">* identifier_type</text>
<text text-anchor="start" x="17" y="-95.5" font-family="Helvetica,sans-Serif" font-size="10.00">* product_type</text>
<text text-anchor="start" x="17" y="-84.5" font-family="Helvetica,sans-Serif" font-size="10.00">* creator_type</text>
<text text-anchor="start" x="17" y="-73.5" font-family="Helvetica,sans-Serif" font-size="10.00">* result_type</text>
<text text-anchor="start" x="17" y="-62.5" font-family="Helvetica,sans-Serif" font-size="10.00">* super</text>
<text text-anchor="start" x="17" y="-51.5" font-family="Helvetica,sans-Serif" font-size="10.00">* id_to_product_type</text>
<text text-anchor="start" x="17" y="-40.5" font-family="Helvetica,sans-Serif" font-size="10.00">* M_associations</text>
<text text-anchor="start" x="17" y="-29.5" font-family="Helvetica,sans-Serif" font-size="10.00">* registerProduct()</text>
<text text-anchor="start" x="17" y="-18.5" font-family="Helvetica,sans-Serif" font-size="10.00">* unregisterProduct()</text>
<text text-anchor="start" x="17" y="-7.5" font-family="Helvetica,sans-Serif" font-size="10.00">* createObject()</text>
</a>
</g>
</g>
<!-- Node2 -->
<g id="node2" class="node">
<title>Node2</title>
<g id="a_node2"><a xlink:href="structFeel_1_1FactoryDefaultError.html" target="_top" xlink:title=" ">
<polygon fill="white" stroke="black" points="0,-215.5 0,-283.5 188,-283.5 188,-215.5 0,-215.5"/>
<text text-anchor="start" x="8" y="-271.5" font-family="Helvetica,sans-Serif" font-size="10.00">Feel::FactoryDefaultError</text>
<text text-anchor="middle" x="94" y="-260.5" font-family="Helvetica,sans-Serif" font-size="10.00">&lt; IdentifierType, AbstractProduct &gt;</text>
<polyline fill="none" stroke="black" points="0,-253.5 188,-253.5 "/>
<text text-anchor="middle" x="94" y="-241.5" font-family="Helvetica,sans-Serif" font-size="10.00"> </text>
<polyline fill="none" stroke="black" points="0,-234.5 188,-234.5 "/>
<text text-anchor="start" x="8" y="-222.5" font-family="Helvetica,sans-Serif" font-size="10.00">+ onUnknownType()</text>
</a>
</g>
</g>
<!-- Node2&#45;&gt;Node1 -->
<g id="edge1" class="edge">
<title>Node2&#45;&gt;Node1</title>
<path fill="none" stroke="midnightblue" d="M94,-205.19C94,-196.83 94,-187.8 94,-178.59"/>
<polygon fill="none" stroke="midnightblue" points="90.5,-205.38 94,-215.38 97.5,-205.38 90.5,-205.38"/>
</g>
</g>
</svg>
