<?xml version="1.0" encoding="UTF-8" standalone="no"?>
<!DOCTYPE svg PUBLIC "-//W3C//DTD SVG 1.1//EN"
 "http://www.w3.org/Graphics/SVG/1.1/DTD/svg11.dtd">
<!-- Generated by graphviz version 2.43.0 (0)
 -->
<!-- Title: Feel::GeoElement3D&lt; Dim, GEOSHAPE, T, IndexT, UseMeasuresStorage &gt; Pages: 1 -->
<svg width="1200pt" height="1188pt"
 viewBox="0.00 0.00 1200.42 1188.00" xmlns="http://www.w3.org/2000/svg" xmlns:xlink="http://www.w3.org/1999/xlink">
<g id="graph0" class="graph" transform="scale(1 1) rotate(0) translate(4 1184)">
<title>Feel::GeoElement3D&lt; Dim, GEOSHAPE, T, IndexT, UseMeasuresStorage &gt;</title>
<polygon fill="white" stroke="transparent" points="-4,4 -4,-1184 1196.42,-1184 1196.42,4 -4,4"/>
<!-- Node1 -->
<g id="node1" class="node">
<title>Node1</title>
<g id="a_node1"><a xlink:title="Class for 3D elements.">
<polygon fill="#bfbfbf" stroke="black" points="112.42,-0.5 112.42,-134.5 285.42,-134.5 285.42,-0.5 112.42,-0.5"/>
<text text-anchor="start" x="120.42" y="-122.5" font-family="Helvetica,sans-Serif" font-size="10.00">Feel::GeoElement3D</text>
<text text-anchor="start" x="120.42" y="-111.5" font-family="Helvetica,sans-Serif" font-size="10.00">&lt; Dim, GEOSHAPE, T,</text>
<text text-anchor="middle" x="198.92" y="-100.5" font-family="Helvetica,sans-Serif" font-size="10.00"> IndexT, UseMeasuresStorage &gt;</text>
<polyline fill="none" stroke="black" points="112.42,-93.5 285.42,-93.5 "/>
<text text-anchor="middle" x="198.92" y="-81.5" font-family="Helvetica,sans-Serif" font-size="10.00"> </text>
<polyline fill="none" stroke="black" points="112.42,-74.5 285.42,-74.5 "/>
<text text-anchor="start" x="120.42" y="-62.5" font-family="Helvetica,sans-Serif" font-size="10.00">+ ad_first()</text>
<text text-anchor="start" x="120.42" y="-51.5" font-family="Helvetica,sans-Serif" font-size="10.00">+ ad_second()</text>
<text text-anchor="start" x="120.42" y="-40.5" font-family="Helvetica,sans-Serif" font-size="10.00">+ boundaryEntityDimension()</text>
<text text-anchor="start" x="120.42" y="-29.5" font-family="Helvetica,sans-Serif" font-size="10.00">+ edge()</text>
<text text-anchor="start" x="120.42" y="-18.5" font-family="Helvetica,sans-Serif" font-size="10.00">+ edge()</text>
<text text-anchor="start" x="120.42" y="-7.5" font-family="Helvetica,sans-Serif" font-size="10.00">and 36 more...</text>
</a>
</g>
</g>
<!-- Node2 -->
<g id="node2" class="node">
<title>Node2</title>
<g id="a_node2"><a xlink:href="classFeel_1_1GeoND.html" target="_top" xlink:title=" ">
<polygon fill="white" stroke="black" points="344.42,-172.5 344.42,-350.5 553.42,-350.5 553.42,-172.5 344.42,-172.5"/>
<text text-anchor="start" x="352.42" y="-338.5" font-family="Helvetica,sans-Serif" font-size="10.00">Feel::GeoND&lt; Dim, GEOSHAPE,</text>
<text text-anchor="start" x="352.42" y="-327.5" font-family="Helvetica,sans-Serif" font-size="10.00"> double, uint32_type, GeoElement0</text>
<text text-anchor="start" x="352.42" y="-316.5" font-family="Helvetica,sans-Serif" font-size="10.00">D&lt; Dim, SubFaceOfNone&lt; 0 &gt;, double,</text>
<text text-anchor="middle" x="448.92" y="-305.5" font-family="Helvetica,sans-Serif" font-size="10.00"> uint32_type &gt;, false &gt;</text>
<polyline fill="none" stroke="black" points="344.42,-298.5 553.42,-298.5 "/>
<text text-anchor="middle" x="448.92" y="-286.5" font-family="Helvetica,sans-Serif" font-size="10.00"> </text>
<polyline fill="none" stroke="black" points="344.42,-279.5 553.42,-279.5 "/>
<text text-anchor="start" x="352.42" y="-267.5" font-family="Helvetica,sans-Serif" font-size="10.00">+ applyDisplacement()</text>
<text text-anchor="start" x="352.42" y="-256.5" font-family="Helvetica,sans-Serif" font-size="10.00">+ applyDisplacementG()</text>
<text text-anchor="start" x="352.42" y="-245.5" font-family="Helvetica,sans-Serif" font-size="10.00">+ barycenter()</text>
<text text-anchor="start" x="352.42" y="-234.5" font-family="Helvetica,sans-Serif" font-size="10.00">+ beginPoint()</text>
<text text-anchor="start" x="352.42" y="-223.5" font-family="Helvetica,sans-Serif" font-size="10.00">+ beginPoint()</text>
<text text-anchor="start" x="352.42" y="-212.5" font-family="Helvetica,sans-Serif" font-size="10.00">and 62 more...</text>
<text text-anchor="start" x="352.42" y="-201.5" font-family="Helvetica,sans-Serif" font-size="10.00">+ fToP()</text>
<text text-anchor="start" x="352.42" y="-190.5" font-family="Helvetica,sans-Serif" font-size="10.00">+ imMeasure()</text>
<text text-anchor="start" x="352.42" y="-179.5" font-family="Helvetica,sans-Serif" font-size="10.00">+ imMeasureOrder1()</text>
</a>
</g>
</g>
<!-- Node2&#45;&gt;Node1 -->
<g id="edge1" class="edge">
<title>Node2&#45;&gt;Node1</title>
<path fill="none" stroke="midnightblue" d="M335.96,-173.74C318.8,-160.57 301.35,-147.16 284.89,-134.53"/>
<polygon fill="none" stroke="midnightblue" points="334.28,-176.87 344.35,-180.19 338.55,-171.32 334.28,-176.87"/>
</g>
<!-- Node3 -->
<g id="node3" class="node">
<title>Node3</title>
<g id="a_node3"><a xlink:href="classFeel_1_1GeoEntity.html" target="_top" xlink:title=" ">
<polygon fill="white" stroke="black" points="533.92,-500.5 533.92,-942.5 721.92,-942.5 721.92,-500.5 533.92,-500.5"/>
<text text-anchor="start" x="541.92" y="-930.5" font-family="Helvetica,sans-Serif" font-size="10.00">Feel::GeoEntity&lt; GEOSHAPE,</text>
<text text-anchor="middle" x="627.92" y="-919.5" font-family="Helvetica,sans-Serif" font-size="10.00"> double &gt;</text>
<polyline fill="none" stroke="black" points="533.92,-912.5 721.92,-912.5 "/>
<text text-anchor="middle" x="627.92" y="-900.5" font-family="Helvetica,sans-Serif" font-size="10.00"> </text>
<polyline fill="none" stroke="black" points="533.92,-893.5 721.92,-893.5 "/>
<text text-anchor="start" x="541.92" y="-881.5" font-family="Helvetica,sans-Serif" font-size="10.00">* super</text>
<text text-anchor="start" x="541.92" y="-870.5" font-family="Helvetica,sans-Serif" font-size="10.00">* GeoShape</text>
<text text-anchor="start" x="541.92" y="-859.5" font-family="Helvetica,sans-Serif" font-size="10.00">* self_type</text>
<text text-anchor="start" x="541.92" y="-848.5" font-family="Helvetica,sans-Serif" font-size="10.00">* value_type</text>
<text text-anchor="start" x="541.92" y="-837.5" font-family="Helvetica,sans-Serif" font-size="10.00">* index_type</text>
<text text-anchor="start" x="541.92" y="-826.5" font-family="Helvetica,sans-Serif" font-size="10.00">and 12 more...</text>
<text text-anchor="start" x="541.92" y="-815.5" font-family="Helvetica,sans-Serif" font-size="10.00">* boost::serialization</text>
<text text-anchor="start" x="541.92" y="-804.5" font-family="Helvetica,sans-Serif" font-size="10.00">::access</text>
<text text-anchor="start" x="541.92" y="-793.5" font-family="Helvetica,sans-Serif" font-size="10.00">* M_id</text>
<text text-anchor="start" x="541.92" y="-782.5" font-family="Helvetica,sans-Serif" font-size="10.00">* M_entity</text>
<text text-anchor="start" x="541.92" y="-771.5" font-family="Helvetica,sans-Serif" font-size="10.00">* M_boundaryEntityDimension</text>
<text text-anchor="start" x="541.92" y="-760.5" font-family="Helvetica,sans-Serif" font-size="10.00">* M_pid</text>
<text text-anchor="start" x="541.92" y="-749.5" font-family="Helvetica,sans-Serif" font-size="10.00">and 41 more...</text>
<text text-anchor="start" x="541.92" y="-738.5" font-family="Helvetica,sans-Serif" font-size="10.00">* GeoEntity()</text>
<text text-anchor="start" x="541.92" y="-727.5" font-family="Helvetica,sans-Serif" font-size="10.00">* GeoEntity()</text>
<text text-anchor="start" x="541.92" y="-716.5" font-family="Helvetica,sans-Serif" font-size="10.00">* GeoEntity()</text>
<text text-anchor="start" x="541.92" y="-705.5" font-family="Helvetica,sans-Serif" font-size="10.00">* GeoEntity()</text>
<text text-anchor="start" x="541.92" y="-694.5" font-family="Helvetica,sans-Serif" font-size="10.00">* operator=()</text>
<text text-anchor="start" x="541.92" y="-683.5" font-family="Helvetica,sans-Serif" font-size="10.00">* operator=()</text>
<text text-anchor="start" x="541.92" y="-672.5" font-family="Helvetica,sans-Serif" font-size="10.00">* ~GeoEntity()</text>
<text text-anchor="start" x="541.92" y="-661.5" font-family="Helvetica,sans-Serif" font-size="10.00">* operator==()</text>
<text text-anchor="start" x="541.92" y="-650.5" font-family="Helvetica,sans-Serif" font-size="10.00">* operator&lt;()</text>
<text text-anchor="start" x="541.92" y="-639.5" font-family="Helvetica,sans-Serif" font-size="10.00">* operator&lt;()</text>
<text text-anchor="start" x="541.92" y="-628.5" font-family="Helvetica,sans-Serif" font-size="10.00">* id()</text>
<text text-anchor="start" x="541.92" y="-617.5" font-family="Helvetica,sans-Serif" font-size="10.00">* refDim()</text>
<text text-anchor="start" x="541.92" y="-606.5" font-family="Helvetica,sans-Serif" font-size="10.00">* nPoints()</text>
<text text-anchor="start" x="541.92" y="-595.5" font-family="Helvetica,sans-Serif" font-size="10.00">* nVertices()</text>
<text text-anchor="start" x="541.92" y="-584.5" font-family="Helvetica,sans-Serif" font-size="10.00">* nEdges()</text>
<text text-anchor="start" x="541.92" y="-573.5" font-family="Helvetica,sans-Serif" font-size="10.00">and 42 more...</text>
<text text-anchor="start" x="541.92" y="-562.5" font-family="Helvetica,sans-Serif" font-size="10.00">* setId()</text>
<text text-anchor="start" x="541.92" y="-551.5" font-family="Helvetica,sans-Serif" font-size="10.00">* setOnBoundary()</text>
<text text-anchor="start" x="541.92" y="-540.5" font-family="Helvetica,sans-Serif" font-size="10.00">* setNumberOfPartitions()</text>
<text text-anchor="start" x="541.92" y="-529.5" font-family="Helvetica,sans-Serif" font-size="10.00">* setNumberOfNeighborPartitions()</text>
<text text-anchor="start" x="541.92" y="-518.5" font-family="Helvetica,sans-Serif" font-size="10.00">* setNeighborPartitionIds()</text>
<text text-anchor="start" x="541.92" y="-507.5" font-family="Helvetica,sans-Serif" font-size="10.00">* addNeighborPartitionId()</text>
</a>
</g>
</g>
<!-- Node3&#45;&gt;Node2 -->
<g id="edge2" class="edge">
<title>Node3&#45;&gt;Node2</title>
<path fill="none" stroke="midnightblue" d="M538.18,-490.89C518.65,-440.92 499.13,-390.98 483.35,-350.6"/>
<polygon fill="none" stroke="midnightblue" points="534.93,-492.18 541.83,-500.22 541.45,-489.63 534.93,-492.18"/>
</g>
<!-- Node4 -->
<g id="node4" class="node">
<title>Node4</title>
<g id="a_node4"><a xlink:title=" ">
<polygon fill="white" stroke="#bfbfbf" points="408.92,-1100.5 408.92,-1179.5 590.92,-1179.5 590.92,-1100.5 408.92,-1100.5"/>
<text text-anchor="start" x="416.92" y="-1167.5" font-family="Helvetica,sans-Serif" font-size="10.00">boost::equality_comparable</text>
<text text-anchor="start" x="416.92" y="-1156.5" font-family="Helvetica,sans-Serif" font-size="10.00">&lt; GeoEntity&lt; GEOSHAPE, double,</text>
<text text-anchor="middle" x="499.92" y="-1145.5" font-family="Helvetica,sans-Serif" font-size="10.00"> uint32_type &gt; &gt;</text>
<polyline fill="none" stroke="#bfbfbf" points="408.92,-1138.5 590.92,-1138.5 "/>
<text text-anchor="middle" x="499.92" y="-1126.5" font-family="Helvetica,sans-Serif" font-size="10.00"> </text>
<polyline fill="none" stroke="#bfbfbf" points="408.92,-1119.5 590.92,-1119.5 "/>
<text text-anchor="middle" x="499.92" y="-1107.5" font-family="Helvetica,sans-Serif" font-size="10.00"> </text>
</a>
</g>
</g>
<!-- Node4&#45;&gt;Node3 -->
<g id="edge3" class="edge">
<title>Node4&#45;&gt;Node3</title>
<path fill="none" stroke="#8b1a1a" d="M573.22,-1092.64C576.07,-1089.27 578.67,-1085.72 580.92,-1082 596.15,-1056.82 606.52,-1002.08 613.55,-942.72"/>
<polygon fill="none" stroke="#8b1a1a" points="570.44,-1090.48 566.13,-1100.16 575.54,-1095.28 570.44,-1090.48"/>
</g>
<!-- Node5 -->
<g id="node5" class="node">
<title>Node5</title>
<g id="a_node5"><a xlink:title=" ">
<polygon fill="white" stroke="#bfbfbf" points="664.92,-1100.5 664.92,-1179.5 846.92,-1179.5 846.92,-1100.5 664.92,-1100.5"/>
<text text-anchor="start" x="672.92" y="-1167.5" font-family="Helvetica,sans-Serif" font-size="10.00">boost::less_than_comparable</text>
<text text-anchor="start" x="672.92" y="-1156.5" font-family="Helvetica,sans-Serif" font-size="10.00">&lt; GeoEntity&lt; GEOSHAPE, double,</text>
<text text-anchor="middle" x="755.92" y="-1145.5" font-family="Helvetica,sans-Serif" font-size="10.00"> uint32_type &gt; &gt;</text>
<polyline fill="none" stroke="#bfbfbf" points="664.92,-1138.5 846.92,-1138.5 "/>
<text text-anchor="middle" x="755.92" y="-1126.5" font-family="Helvetica,sans-Serif" font-size="10.00"> </text>
<polyline fill="none" stroke="#bfbfbf" points="664.92,-1119.5 846.92,-1119.5 "/>
<text text-anchor="middle" x="755.92" y="-1107.5" font-family="Helvetica,sans-Serif" font-size="10.00"> </text>
</a>
</g>
</g>
<!-- Node5&#45;&gt;Node3 -->
<g id="edge4" class="edge">
<title>Node5&#45;&gt;Node3</title>
<path fill="none" stroke="#8b1a1a" d="M743.69,-1090.53C734.43,-1054.61 721.08,-1004.55 707.92,-961 706.09,-954.94 704.21,-948.8 702.29,-942.61"/>
<polygon fill="none" stroke="#8b1a1a" points="740.32,-1091.45 746.19,-1100.27 747.1,-1089.71 740.32,-1091.45"/>
</g>
<!-- Node6 -->
<g id="node6" class="node">
<title>Node6</title>
<g id="a_node6"><a xlink:title=" ">
<polygon fill="white" stroke="#bfbfbf" points="864.92,-1100.5 864.92,-1179.5 1046.92,-1179.5 1046.92,-1100.5 864.92,-1100.5"/>
<text text-anchor="start" x="872.92" y="-1167.5" font-family="Helvetica,sans-Serif" font-size="10.00">boost::less_than_comparable</text>
<text text-anchor="start" x="872.92" y="-1156.5" font-family="Helvetica,sans-Serif" font-size="10.00">&lt; GeoEntity&lt; GEOSHAPE, double,</text>
<text text-anchor="middle" x="955.92" y="-1145.5" font-family="Helvetica,sans-Serif" font-size="10.00"> uint32_type &gt;, uint32_type &gt;</text>
<polyline fill="none" stroke="#bfbfbf" points="864.92,-1138.5 1046.92,-1138.5 "/>
<text text-anchor="middle" x="955.92" y="-1126.5" font-family="Helvetica,sans-Serif" font-size="10.00"> </text>
<polyline fill="none" stroke="#bfbfbf" points="864.92,-1119.5 1046.92,-1119.5 "/>
<text text-anchor="middle" x="955.92" y="-1107.5" font-family="Helvetica,sans-Serif" font-size="10.00"> </text>
</a>
</g>
</g>
<!-- Node6&#45;&gt;Node3 -->
<g id="edge5" class="edge">
<title>Node6&#45;&gt;Node3</title>
<path fill="none" stroke="#8b1a1a" d="M894.01,-1093.64C889.79,-1089.85 885.71,-1085.95 881.92,-1082 822.53,-1020.11 766.39,-943.37 722.06,-876.71"/>
<polygon fill="none" stroke="#8b1a1a" points="891.89,-1096.43 901.73,-1100.34 896.47,-1091.14 891.89,-1096.43"/>
</g>
<!-- Node7 -->
<g id="node7" class="node">
<title>Node7</title>
<g id="a_node7"><a xlink:title=" ">
<polygon fill="white" stroke="#bfbfbf" points="320.92,-1111.5 320.92,-1168.5 390.92,-1168.5 390.92,-1111.5 320.92,-1111.5"/>
<text text-anchor="middle" x="355.92" y="-1156.5" font-family="Helvetica,sans-Serif" font-size="10.00">GEOSHAPE</text>
<polyline fill="none" stroke="#bfbfbf" points="320.92,-1149.5 390.92,-1149.5 "/>
<text text-anchor="middle" x="355.92" y="-1137.5" font-family="Helvetica,sans-Serif" font-size="10.00"> </text>
<polyline fill="none" stroke="#bfbfbf" points="320.92,-1130.5 390.92,-1130.5 "/>
<text text-anchor="middle" x="355.92" y="-1118.5" font-family="Helvetica,sans-Serif" font-size="10.00"> </text>
</a>
</g>
</g>
<!-- Node7&#45;&gt;Node3 -->
<g id="edge6" class="edge">
<title>Node7&#45;&gt;Node3</title>
<path fill="none" stroke="midnightblue" d="M390.09,-1105.44C393.26,-1103.36 396.55,-1101.5 399.92,-1100 431.78,-1085.77 530.24,-1105.63 555.92,-1082 559.06,-1079.11 572.21,-1015.54 586.42,-942.65"/>
<polygon fill="none" stroke="midnightblue" points="387.99,-1102.63 382,-1111.37 392.13,-1108.28 387.99,-1102.63"/>
</g>
<!-- Node8 -->
<g id="node8" class="node">
<title>Node8</title>
<g id="a_node8"><a xlink:title=" ">
<polygon fill="white" stroke="#bfbfbf" points="1064.92,-1111.5 1064.92,-1168.5 1186.92,-1168.5 1186.92,-1111.5 1064.92,-1111.5"/>
<text text-anchor="middle" x="1125.92" y="-1156.5" font-family="Helvetica,sans-Serif" font-size="10.00">static const size_type</text>
<polyline fill="none" stroke="#bfbfbf" points="1064.92,-1149.5 1186.92,-1149.5 "/>
<text text-anchor="middle" x="1125.92" y="-1137.5" font-family="Helvetica,sans-Serif" font-size="10.00"> </text>
<polyline fill="none" stroke="#bfbfbf" points="1064.92,-1130.5 1186.92,-1130.5 "/>
<text text-anchor="middle" x="1125.92" y="-1118.5" font-family="Helvetica,sans-Serif" font-size="10.00"> </text>
</a>
</g>
</g>
<!-- Node8&#45;&gt;Node2 -->
<g id="edge11" class="edge">
<title>Node8&#45;&gt;Node2</title>
<path fill="none" stroke="#404040" d="M1105.06,-1111.33C1077.11,-1073.87 1026.45,-1004.62 986.92,-943 864.13,-751.6 876.97,-674.3 730.92,-500 682.15,-441.8 618.03,-386.54 563.25,-343.99"/>
<polygon fill="none" stroke="#404040" points="563,-343.79 555.8,-343.3 553.49,-336.47 560.69,-336.96 563,-343.79"/>
<text text-anchor="middle" x="1007.92" y="-719" font-family="Helvetica,sans-Serif" font-size="10.00"> +Shape</text>
</g>
<!-- Node8&#45;&gt;Node3 -->
<g id="edge7" class="edge">
<title>Node8&#45;&gt;Node3</title>
<path fill="none" stroke="#404040" d="M1082.68,-1111.5C1074.08,-1107.02 1064.92,-1102.91 1055.92,-1100 990.34,-1078.83 957.87,-1122.23 901.92,-1082 853.66,-1047.29 877.96,-1010.42 844.92,-961 812.02,-911.79 769.28,-862.54 730.44,-821.68"/>
<polygon fill="none" stroke="#404040" points="730.26,-821.49 723.22,-819.93 721.96,-812.83 729,-814.39 730.26,-821.49"/>
<text text-anchor="middle" x="932.42" y="-1024.5" font-family="Helvetica,sans-Serif" font-size="10.00"> +Geometry</text>
<text text-anchor="middle" x="932.42" y="-1013.5" font-family="Helvetica,sans-Serif" font-size="10.00">+Shape</text>
</g>
<!-- Node9 -->
<g id="node9" class="node">
<title>Node9</title>
<g id="a_node9"><a xlink:title=" ">
<polygon fill="white" stroke="#bfbfbf" points="150.92,-1111.5 150.92,-1168.5 284.92,-1168.5 284.92,-1111.5 150.92,-1111.5"/>
<text text-anchor="middle" x="217.92" y="-1156.5" font-family="Helvetica,sans-Serif" font-size="10.00">static const uint16_type</text>
<polyline fill="none" stroke="#bfbfbf" points="150.92,-1149.5 284.92,-1149.5 "/>
<text text-anchor="middle" x="217.92" y="-1137.5" font-family="Helvetica,sans-Serif" font-size="10.00"> </text>
<polyline fill="none" stroke="#bfbfbf" points="150.92,-1130.5 284.92,-1130.5 "/>
<text text-anchor="middle" x="217.92" y="-1118.5" font-family="Helvetica,sans-Serif" font-size="10.00"> </text>
</a>
</g>
</g>
<!-- Node9&#45;&gt;Node1 -->
<g id="edge17" class="edge">
<title>Node9&#45;&gt;Node1</title>
<path fill="none" stroke="#404040" d="M200.13,-1111.29C138.03,-1011.06 -61.04,-658.11 18.92,-369 41.98,-285.61 95.01,-202.1 137.56,-144.35"/>
<polygon fill="none" stroke="#404040" points="137.67,-144.22 138.04,-137.02 144.84,-134.6 144.46,-141.8 137.67,-144.22"/>
<text text-anchor="middle" x="66.92" y="-439.5" font-family="Helvetica,sans-Serif" font-size="10.00"> +nDim</text>
<text text-anchor="middle" x="66.92" y="-428.5" font-family="Helvetica,sans-Serif" font-size="10.00">+numLocalEdges</text>
<text text-anchor="middle" x="66.92" y="-417.5" font-family="Helvetica,sans-Serif" font-size="10.00">+numLocalFaces</text>
<text text-anchor="middle" x="66.92" y="-406.5" font-family="Helvetica,sans-Serif" font-size="10.00">+numLocalVertices</text>
</g>
<!-- Node9&#45;&gt;Node2 -->
<g id="edge12" class="edge">
<title>Node9&#45;&gt;Node2</title>
<path fill="none" stroke="#404040" d="M253.69,-1111.27C295.12,-1076.83 361.56,-1013.9 391.92,-943 469.71,-761.38 389.18,-693.54 428.92,-500 430.62,-491.74 433.31,-490.28 434.92,-482 442.44,-443.45 446.18,-400.44 447.96,-362.77"/>
<polygon fill="none" stroke="#404040" points="447.96,-362.74 444.22,-356.57 448.47,-350.75 452.21,-356.91 447.96,-362.74"/>
<text text-anchor="middle" x="476.92" y="-763" font-family="Helvetica,sans-Serif" font-size="10.00"> +nDim</text>
<text text-anchor="middle" x="476.92" y="-752" font-family="Helvetica,sans-Serif" font-size="10.00">+nOrder</text>
<text text-anchor="middle" x="476.92" y="-741" font-family="Helvetica,sans-Serif" font-size="10.00">+nRealDim</text>
<text text-anchor="middle" x="476.92" y="-730" font-family="Helvetica,sans-Serif" font-size="10.00">+numLocalEdges</text>
<text text-anchor="middle" x="476.92" y="-719" font-family="Helvetica,sans-Serif" font-size="10.00">+numLocalPoints</text>
<text text-anchor="middle" x="476.92" y="-708" font-family="Helvetica,sans-Serif" font-size="10.00">+numLocalVertices</text>
<text text-anchor="middle" x="476.92" y="-697" font-family="Helvetica,sans-Serif" font-size="10.00">+numNeighbors</text>
<text text-anchor="middle" x="476.92" y="-686" font-family="Helvetica,sans-Serif" font-size="10.00">+numPoints</text>
<text text-anchor="middle" x="476.92" y="-675" font-family="Helvetica,sans-Serif" font-size="10.00">+numVertices</text>
</g>
<!-- Node9&#45;&gt;Node3 -->
<g id="edge8" class="edge">
<title>Node9&#45;&gt;Node3</title>
<path fill="none" stroke="#404040" d="M278.37,-1111.5C289.37,-1107.19 300.87,-1103.13 311.92,-1100 360.42,-1086.25 388.33,-1117.71 423.92,-1082 462.34,-1043.44 405.88,-1000.89 442.92,-961 466.84,-935.25 492.43,-964.89 519.92,-943 521.58,-941.68 523.22,-940.32 524.84,-938.93"/>
<polygon fill="none" stroke="#404040" points="524.99,-938.79 526.7,-931.79 533.83,-930.68 532.11,-937.68 524.99,-938.79"/>
<text text-anchor="middle" x="497.42" y="-1074" font-family="Helvetica,sans-Serif" font-size="10.00"> +nDim</text>
<text text-anchor="middle" x="497.42" y="-1063" font-family="Helvetica,sans-Serif" font-size="10.00">+nOrder</text>
<text text-anchor="middle" x="497.42" y="-1052" font-family="Helvetica,sans-Serif" font-size="10.00">+nRealDim</text>
<text text-anchor="middle" x="497.42" y="-1041" font-family="Helvetica,sans-Serif" font-size="10.00">+nbPtsPerEdge</text>
<text text-anchor="middle" x="497.42" y="-1030" font-family="Helvetica,sans-Serif" font-size="10.00">+nbPtsPerFace</text>
<text text-anchor="middle" x="497.42" y="-1019" font-family="Helvetica,sans-Serif" font-size="10.00">+nbPtsPerVertex</text>
<text text-anchor="middle" x="497.42" y="-1008" font-family="Helvetica,sans-Serif" font-size="10.00">+nbPtsPerVolume</text>
<text text-anchor="middle" x="497.42" y="-997" font-family="Helvetica,sans-Serif" font-size="10.00">+numEdges</text>
<text text-anchor="middle" x="497.42" y="-986" font-family="Helvetica,sans-Serif" font-size="10.00">+numFaces</text>
<text text-anchor="middle" x="497.42" y="-975" font-family="Helvetica,sans-Serif" font-size="10.00">+numGeometricFaces</text>
<text text-anchor="middle" x="497.42" y="-964" font-family="Helvetica,sans-Serif" font-size="10.00">...</text>
</g>
<!-- Node14 -->
<g id="node14" class="node">
<title>Node14</title>
<g id="a_node14"><a xlink:href="classFeel_1_1SubFaceOfNone.html" target="_top" xlink:title=" ">
<polygon fill="white" stroke="#bfbfbf" points="124.42,-369.5 124.42,-481.5 273.42,-481.5 273.42,-369.5 124.42,-369.5"/>
<text text-anchor="middle" x="198.92" y="-469.5" font-family="Helvetica,sans-Serif" font-size="10.00">Feel::SubFaceOfNone&lt; 0 &gt;</text>
<polyline fill="none" stroke="#bfbfbf" points="124.42,-462.5 273.42,-462.5 "/>
<text text-anchor="middle" x="198.92" y="-450.5" font-family="Helvetica,sans-Serif" font-size="10.00"> </text>
<polyline fill="none" stroke="#bfbfbf" points="124.42,-443.5 273.42,-443.5 "/>
<text text-anchor="start" x="132.42" y="-431.5" font-family="Helvetica,sans-Serif" font-size="10.00">+ element()</text>
<text text-anchor="start" x="132.42" y="-420.5" font-family="Helvetica,sans-Serif" font-size="10.00">+ isGhostFace()</text>
<text text-anchor="start" x="132.42" y="-409.5" font-family="Helvetica,sans-Serif" font-size="10.00">+ isInterProcessDomain()</text>
<text text-anchor="start" x="132.42" y="-398.5" font-family="Helvetica,sans-Serif" font-size="10.00">+ operator=()</text>
<text text-anchor="start" x="132.42" y="-387.5" font-family="Helvetica,sans-Serif" font-size="10.00">+ operator=()</text>
<text text-anchor="start" x="132.42" y="-376.5" font-family="Helvetica,sans-Serif" font-size="10.00">and 7 more...</text>
</a>
</g>
</g>
<!-- Node9&#45;&gt;Node14 -->
<g id="edge16" class="edge">
<title>Node9&#45;&gt;Node14</title>
<path fill="none" stroke="#404040" d="M217.18,-1111.07C214.42,-1007.78 204.76,-645.58 200.72,-494"/>
<polygon fill="none" stroke="#404040" points="200.71,-493.72 196.55,-487.83 200.39,-481.73 204.55,-487.62 200.71,-493.72"/>
<text text-anchor="middle" x="235.92" y="-1019" font-family="Helvetica,sans-Serif" font-size="10.00"> +nDim</text>
</g>
<!-- Node10 -->
<g id="node10" class="node">
<title>Node10</title>
<g id="a_node10"><a xlink:href="classbool.html" target="_top" xlink:title=" ">
<polygon fill="white" stroke="#bfbfbf" points="608.92,-1111.5 608.92,-1168.5 646.92,-1168.5 646.92,-1111.5 608.92,-1111.5"/>
<text text-anchor="middle" x="627.92" y="-1156.5" font-family="Helvetica,sans-Serif" font-size="10.00">bool</text>
<polyline fill="none" stroke="#bfbfbf" points="608.92,-1149.5 646.92,-1149.5 "/>
<text text-anchor="middle" x="627.92" y="-1137.5" font-family="Helvetica,sans-Serif" font-size="10.00"> </text>
<polyline fill="none" stroke="#bfbfbf" points="608.92,-1130.5 646.92,-1130.5 "/>
<text text-anchor="middle" x="627.92" y="-1118.5" font-family="Helvetica,sans-Serif" font-size="10.00"> </text>
</a>
</g>
</g>
<!-- Node10&#45;&gt;Node3 -->
<g id="edge9" class="edge">
<title>Node10&#45;&gt;Node3</title>
<path fill="none" stroke="#404040" d="M627.92,-1111.35C627.92,-1077.77 627.92,-1017.75 627.92,-954.77"/>
<polygon fill="none" stroke="#404040" points="627.92,-954.56 623.92,-948.56 627.92,-942.56 631.92,-948.56 627.92,-954.56"/>
<text text-anchor="middle" x="665.92" y="-1024.5" font-family="Helvetica,sans-Serif" font-size="10.00"> +is_hypercube</text>
<text text-anchor="middle" x="665.92" y="-1013.5" font-family="Helvetica,sans-Serif" font-size="10.00">+is_simplex</text>
</g>
<!-- Node11 -->
<g id="node11" class="node">
<title>Node11</title>
<g id="a_node11"><a xlink:title=" ">
<polygon fill="white" stroke="#bfbfbf" points="227.42,-693 227.42,-750 336.42,-750 336.42,-693 227.42,-693"/>
<text text-anchor="middle" x="281.92" y="-738" font-family="Helvetica,sans-Serif" font-size="10.00">mpl::if_::type::type</text>
<polyline fill="none" stroke="#bfbfbf" points="227.42,-731 336.42,-731 "/>
<text text-anchor="middle" x="281.92" y="-719" font-family="Helvetica,sans-Serif" font-size="10.00"> </text>
<polyline fill="none" stroke="#bfbfbf" points="227.42,-712 336.42,-712 "/>
<text text-anchor="middle" x="281.92" y="-700" font-family="Helvetica,sans-Serif" font-size="10.00"> </text>
</a>
</g>
</g>
<!-- Node11&#45;&gt;Node2 -->
<g id="edge10" class="edge">
<title>Node11&#45;&gt;Node2</title>
<path fill="none" stroke="midnightblue" d="M280.07,-682.85C276.81,-603.52 272.88,-422.12 301.92,-369 312.2,-350.2 327.39,-333.87 344.16,-320.03"/>
<polygon fill="none" stroke="midnightblue" points="276.58,-683.06 280.5,-692.9 283.57,-682.76 276.58,-683.06"/>
</g>
<!-- Node12 -->
<g id="node12" class="node">
<title>Node12</title>
<g id="a_node12"><a xlink:href="classint.html" target="_top" xlink:title=" ">
<polygon fill="white" stroke="#bfbfbf" points="354.42,-693 354.42,-750 383.42,-750 383.42,-693 354.42,-693"/>
<text text-anchor="middle" x="368.92" y="-738" font-family="Helvetica,sans-Serif" font-size="10.00">int</text>
<polyline fill="none" stroke="#bfbfbf" points="354.42,-731 383.42,-731 "/>
<text text-anchor="middle" x="368.92" y="-719" font-family="Helvetica,sans-Serif" font-size="10.00"> </text>
<polyline fill="none" stroke="#bfbfbf" points="354.42,-712 383.42,-712 "/>
<text text-anchor="middle" x="368.92" y="-700" font-family="Helvetica,sans-Serif" font-size="10.00"> </text>
</a>
</g>
</g>
<!-- Node12&#45;&gt;Node2 -->
<g id="edge13" class="edge">
<title>Node12&#45;&gt;Node2</title>
<path fill="none" stroke="#404040" d="M372.47,-692.68C376.69,-648.74 379.36,-561.92 344.92,-500 338.61,-488.66 327.61,-493.67 321.92,-482 299.92,-436.85 300.69,-414.51 321.92,-369 325.9,-360.47 330.93,-352.39 336.68,-344.77"/>
<polygon fill="none" stroke="#404040" points="336.76,-344.68 337.44,-337.5 344.33,-335.37 343.65,-342.55 336.76,-344.68"/>
<text text-anchor="middle" x="378.42" y="-434" font-family="Helvetica,sans-Serif" font-size="10.00"> +numEdges</text>
<text text-anchor="middle" x="378.42" y="-423" font-family="Helvetica,sans-Serif" font-size="10.00">+numFaces</text>
<text text-anchor="middle" x="378.42" y="-412" font-family="Helvetica,sans-Serif" font-size="10.00">+numTopologicalFaces</text>
</g>
<!-- Node13 -->
<g id="node13" class="node">
<title>Node13</title>
<g id="a_node13"><a xlink:title=" ">
<polygon fill="white" stroke="#bfbfbf" points="1037.42,-693 1037.42,-750 1192.42,-750 1192.42,-693 1037.42,-693"/>
<text text-anchor="middle" x="1114.92" y="-738" font-family="Helvetica,sans-Serif" font-size="10.00">static constexpr uint16_type</text>
<polyline fill="none" stroke="#bfbfbf" points="1037.42,-731 1192.42,-731 "/>
<text text-anchor="middle" x="1114.92" y="-719" font-family="Helvetica,sans-Serif" font-size="10.00"> </text>
<polyline fill="none" stroke="#bfbfbf" points="1037.42,-712 1192.42,-712 "/>
<text text-anchor="middle" x="1114.92" y="-700" font-family="Helvetica,sans-Serif" font-size="10.00"> </text>
</a>
</g>
</g>
<!-- Node13&#45;&gt;Node2 -->
<g id="edge14" class="edge">
<title>Node13&#45;&gt;Node2</title>
<path fill="none" stroke="#404040" d="M1113.96,-692.59C1110.04,-625.59 1090.3,-454.91 990.92,-369 928.54,-315.07 705.34,-285.53 565.57,-271.96"/>
<polygon fill="none" stroke="#404040" points="565.51,-271.95 559.16,-275.36 553.57,-270.81 559.92,-267.4 565.51,-271.95"/>
<text text-anchor="middle" x="1114.42" y="-423" font-family="Helvetica,sans-Serif" font-size="10.00"> +meas_quad_order</text>
</g>
<!-- Node14&#45;&gt;Node1 -->
<g id="edge15" class="edge">
<title>Node14&#45;&gt;Node1</title>
<path fill="none" stroke="midnightblue" d="M198.92,-358.93C198.92,-295.16 198.92,-198.79 198.92,-134.78"/>
<polygon fill="none" stroke="midnightblue" points="195.42,-359.27 198.92,-369.27 202.42,-359.27 195.42,-359.27"/>
</g>
</g>
</svg>
