<?xml version="1.0" encoding="UTF-8" standalone="no"?>
<!DOCTYPE svg PUBLIC "-//W3C//DTD SVG 1.1//EN"
 "http://www.w3.org/Graphics/SVG/1.1/DTD/svg11.dtd">
<!-- Generated by graphviz version 2.43.0 (0)
 -->
<!-- Title: F Pages: 1 -->
<svg width="175pt" height="427pt"
 viewBox="0.00 0.00 175.00 427.00" xmlns="http://www.w3.org/2000/svg" xmlns:xlink="http://www.w3.org/1999/xlink">
<g id="graph0" class="graph" transform="scale(1 1) rotate(0) translate(4 423)">
<title>F</title>
<polygon fill="white" stroke="transparent" points="-4,4 -4,-423 171,-423 171,4 -4,4"/>
<!-- Node1 -->
<g id="node1" class="node">
<title>Node1</title>
<g id="a_node1"><a xlink:title=" ">
<polygon fill="#bfbfbf" stroke="black" points="49.5,-0.5 49.5,-79.5 101.5,-79.5 101.5,-0.5 49.5,-0.5"/>
<text text-anchor="middle" x="75.5" y="-67.5" font-family="Helvetica,sans-Serif" font-size="10.00">F</text>
<polyline fill="none" stroke="black" points="49.5,-60.5 101.5,-60.5 "/>
<text text-anchor="middle" x="75.5" y="-48.5" font-family="Helvetica,sans-Serif" font-size="10.00"> </text>
<polyline fill="none" stroke="black" points="49.5,-41.5 101.5,-41.5 "/>
<text text-anchor="start" x="57.5" y="-29.5" font-family="Helvetica,sans-Serif" font-size="10.00">+ F()</text>
<text text-anchor="start" x="57.5" y="-18.5" font-family="Helvetica,sans-Serif" font-size="10.00">+ F()</text>
<text text-anchor="start" x="57.5" y="-7.5" font-family="Helvetica,sans-Serif" font-size="10.00">+ hello()</text>
</a>
</g>
</g>
<!-- Node2 -->
<g id="node2" class="node">
<title>Node2</title>
<g id="a_node2"><a xlink:href="classD.html" target="_top" xlink:title=" ">
<polygon fill="white" stroke="#bfbfbf" points="13.5,-127.5 13.5,-184.5 65.5,-184.5 65.5,-127.5 13.5,-127.5"/>
<text text-anchor="middle" x="39.5" y="-172.5" font-family="Helvetica,sans-Serif" font-size="10.00">D</text>
<polyline fill="none" stroke="#bfbfbf" points="13.5,-165.5 65.5,-165.5 "/>
<text text-anchor="middle" x="39.5" y="-153.5" font-family="Helvetica,sans-Serif" font-size="10.00"> </text>
<polyline fill="none" stroke="#bfbfbf" points="13.5,-146.5 65.5,-146.5 "/>
<text text-anchor="start" x="21.5" y="-134.5" font-family="Helvetica,sans-Serif" font-size="10.00">+ hello()</text>
</a>
</g>
</g>
<!-- Node2&#45;&gt;Node1 -->
<g id="edge1" class="edge">
<title>Node2&#45;&gt;Node1</title>
<path fill="none" stroke="midnightblue" d="M51.33,-117.54C55.18,-105.35 59.46,-91.81 63.33,-79.54"/>
<polygon fill="none" stroke="midnightblue" points="47.89,-116.81 48.21,-127.4 54.56,-118.92 47.89,-116.81"/>
</g>
<!-- Node3 -->
<g id="node3" class="node">
<title>Node3</title>
<g id="a_node3"><a xlink:href="classB.html" target="_top" xlink:title=" ">
<polygon fill="white" stroke="#bfbfbf" points="1.5,-222.5 1.5,-290.5 53.5,-290.5 53.5,-222.5 1.5,-222.5"/>
<text text-anchor="middle" x="27.5" y="-278.5" font-family="Helvetica,sans-Serif" font-size="10.00">B</text>
<polyline fill="none" stroke="#bfbfbf" points="1.5,-271.5 53.5,-271.5 "/>
<text text-anchor="middle" x="27.5" y="-259.5" font-family="Helvetica,sans-Serif" font-size="10.00"> </text>
<polyline fill="none" stroke="#bfbfbf" points="1.5,-252.5 53.5,-252.5 "/>
<text text-anchor="start" x="9.5" y="-240.5" font-family="Helvetica,sans-Serif" font-size="10.00">+ hello()</text>
<text text-anchor="start" x="9.5" y="-229.5" font-family="Helvetica,sans-Serif" font-size="10.00">+ ~B()</text>
</a>
</g>
</g>
<!-- Node3&#45;&gt;Node2 -->
<g id="edge2" class="edge">
<title>Node3&#45;&gt;Node2</title>
<path fill="none" stroke="midnightblue" d="M32.75,-212.38C33.9,-202.94 35.09,-193.2 36.14,-184.57"/>
<polygon fill="none" stroke="midnightblue" points="29.26,-212.08 31.53,-222.43 36.21,-212.92 29.26,-212.08"/>
</g>
<!-- Node4 -->
<g id="node4" class="node">
<title>Node4</title>
<g id="a_node4"><a xlink:href="classA.html" target="_top" xlink:title=" ">
<polygon fill="white" stroke="#bfbfbf" points="0,-328.5 0,-418.5 55,-418.5 55,-328.5 0,-328.5"/>
<text text-anchor="middle" x="27.5" y="-406.5" font-family="Helvetica,sans-Serif" font-size="10.00">A</text>
<polyline fill="none" stroke="#bfbfbf" points="0,-399.5 55,-399.5 "/>
<text text-anchor="middle" x="27.5" y="-387.5" font-family="Helvetica,sans-Serif" font-size="10.00"> </text>
<polyline fill="none" stroke="#bfbfbf" points="0,-380.5 55,-380.5 "/>
<text text-anchor="start" x="8" y="-368.5" font-family="Helvetica,sans-Serif" font-size="10.00">+ A()</text>
<text text-anchor="start" x="8" y="-357.5" font-family="Helvetica,sans-Serif" font-size="10.00">+ hello()</text>
<text text-anchor="start" x="8" y="-346.5" font-family="Helvetica,sans-Serif" font-size="10.00">+ value()</text>
<text text-anchor="start" x="8" y="-335.5" font-family="Helvetica,sans-Serif" font-size="10.00">+ ~A()</text>
</a>
</g>
</g>
<!-- Node4&#45;&gt;Node3 -->
<g id="edge3" class="edge">
<title>Node4&#45;&gt;Node3</title>
<path fill="none" stroke="midnightblue" d="M27.5,-318.23C27.5,-308.8 27.5,-299.26 27.5,-290.62"/>
<polygon fill="none" stroke="midnightblue" points="24,-318.37 27.5,-328.37 31,-318.37 24,-318.37"/>
</g>
<!-- Node5 -->
<g id="node5" class="node">
<title>Node5</title>
<g id="a_node5"><a xlink:title=" ">
<polygon fill="white" stroke="black" points="87.5,-127.5 87.5,-184.5 147.5,-184.5 147.5,-127.5 87.5,-127.5"/>
<text text-anchor="middle" x="117.5" y="-172.5" font-family="Helvetica,sans-Serif" font-size="10.00">std::string</text>
<polyline fill="none" stroke="black" points="87.5,-165.5 147.5,-165.5 "/>
<text text-anchor="middle" x="117.5" y="-153.5" font-family="Helvetica,sans-Serif" font-size="10.00"> </text>
<polyline fill="none" stroke="black" points="87.5,-146.5 147.5,-146.5 "/>
<text text-anchor="middle" x="117.5" y="-134.5" font-family="Helvetica,sans-Serif" font-size="10.00"> </text>
</a>
</g>
</g>
<!-- Node5&#45;&gt;Node1 -->
<g id="edge4" class="edge">
<title>Node5&#45;&gt;Node1</title>
<path fill="none" stroke="#404040" d="M107.33,-127.4C103.28,-116.41 98.49,-103.4 93.87,-90.85"/>
<polygon fill="none" stroke="#404040" points="93.85,-90.8 88.02,-86.55 89.7,-79.54 95.53,-83.79 93.85,-90.8"/>
<text text-anchor="middle" x="111" y="-101" font-family="Helvetica,sans-Serif" font-size="10.00"> +str</text>
</g>
<!-- Node6 -->
<g id="node6" class="node">
<title>Node6</title>
<g id="a_node6"><a xlink:title=" ">
<polygon fill="white" stroke="black" points="72,-222.5 72,-290.5 167,-290.5 167,-222.5 72,-222.5"/>
<text text-anchor="start" x="80" y="-278.5" font-family="Helvetica,sans-Serif" font-size="10.00">std::basic_string&lt;</text>
<text text-anchor="middle" x="119.5" y="-267.5" font-family="Helvetica,sans-Serif" font-size="10.00"> Char &gt;</text>
<polyline fill="none" stroke="black" points="72,-260.5 167,-260.5 "/>
<text text-anchor="middle" x="119.5" y="-248.5" font-family="Helvetica,sans-Serif" font-size="10.00"> </text>
<polyline fill="none" stroke="black" points="72,-241.5 167,-241.5 "/>
<text text-anchor="middle" x="119.5" y="-229.5" font-family="Helvetica,sans-Serif" font-size="10.00"> </text>
</a>
</g>
</g>
<!-- Node6&#45;&gt;Node5 -->
<g id="edge5" class="edge">
<title>Node6&#45;&gt;Node5</title>
<path fill="none" stroke="midnightblue" d="M118.62,-212.38C118.43,-202.94 118.24,-193.2 118.06,-184.57"/>
<polygon fill="none" stroke="midnightblue" points="115.13,-212.5 118.83,-222.43 122.12,-212.36 115.13,-212.5"/>
</g>
</g>
</svg>
