<?xml version="1.0" encoding="UTF-8" standalone="no"?>
<!DOCTYPE svg PUBLIC "-//W3C//DTD SVG 1.1//EN"
 "http://www.w3.org/Graphics/SVG/1.1/DTD/svg11.dtd">
<!-- Generated by graphviz version 2.43.0 (0)
 -->
<!-- Title: Feel::FeelModels::SolidMechanicsBoundaryConditions&lt; Dim &gt;::Robin Pages: 1 -->
<svg width="358pt" height="470pt"
 viewBox="0.00 0.00 358.00 470.00" xmlns="http://www.w3.org/2000/svg" xmlns:xlink="http://www.w3.org/1999/xlink">
<g id="graph0" class="graph" transform="scale(1 1) rotate(0) translate(4 466)">
<title>Feel::FeelModels::SolidMechanicsBoundaryConditions&lt; Dim &gt;::Robin</title>
<polygon fill="white" stroke="transparent" points="-4,4 -4,-466 354,-466 354,4 -4,4"/>
<!-- Node1 -->
<g id="node1" class="node">
<title>Node1</title>
<g id="a_node1"><a xlink:title=" ">
<polygon fill="#bfbfbf" stroke="black" points="74.5,-0.5 74.5,-134.5 265.5,-134.5 265.5,-0.5 74.5,-0.5"/>
<text text-anchor="start" x="82.5" y="-122.5" font-family="Helvetica,sans-Serif" font-size="10.00">Feel::FeelModels::SolidMechanics</text>
<text text-anchor="middle" x="170" y="-111.5" font-family="Helvetica,sans-Serif" font-size="10.00">BoundaryConditions&lt; Dim &gt;::Robin</text>
<polyline fill="none" stroke="black" points="74.5,-104.5 265.5,-104.5 "/>
<text text-anchor="middle" x="170" y="-92.5" font-family="Helvetica,sans-Serif" font-size="10.00"> </text>
<polyline fill="none" stroke="black" points="74.5,-85.5 265.5,-85.5 "/>
<text text-anchor="start" x="82.5" y="-73.5" font-family="Helvetica,sans-Serif" font-size="10.00">+ expr1()</text>
<text text-anchor="start" x="82.5" y="-62.5" font-family="Helvetica,sans-Serif" font-size="10.00">+ expr2()</text>
<text text-anchor="start" x="82.5" y="-51.5" font-family="Helvetica,sans-Serif" font-size="10.00">+ markers()</text>
<text text-anchor="start" x="82.5" y="-40.5" font-family="Helvetica,sans-Serif" font-size="10.00">+ Robin()</text>
<text text-anchor="start" x="82.5" y="-29.5" font-family="Helvetica,sans-Serif" font-size="10.00">+ Robin()</text>
<text text-anchor="start" x="82.5" y="-18.5" font-family="Helvetica,sans-Serif" font-size="10.00">and 4 more...</text>
<text text-anchor="start" x="82.5" y="-7.5" font-family="Helvetica,sans-Serif" font-size="10.00">+ tabulateInformations()</text>
</a>
</g>
</g>
<!-- Node2 -->
<g id="node2" class="node">
<title>Node2</title>
<g id="a_node2"><a xlink:title=" ">
<polygon fill="white" stroke="black" points="19.5,-298.5 19.5,-355.5 84.5,-355.5 84.5,-298.5 19.5,-298.5"/>
<text text-anchor="middle" x="52" y="-343.5" font-family="Helvetica,sans-Serif" font-size="10.00">std::string</text>
<polyline fill="none" stroke="black" points="19.5,-336.5 84.5,-336.5 "/>
<text text-anchor="middle" x="52" y="-324.5" font-family="Helvetica,sans-Serif" font-size="10.00"> </text>
<polyline fill="none" stroke="black" points="19.5,-317.5 84.5,-317.5 "/>
<text text-anchor="middle" x="52" y="-305.5" font-family="Helvetica,sans-Serif" font-size="10.00"> </text>
</a>
</g>
</g>
<!-- Node2&#45;&gt;Node1 -->
<g id="edge1" class="edge">
<title>Node2&#45;&gt;Node1</title>
<path fill="none" stroke="#404040" d="M43.8,-298.33C37.09,-270.58 30.81,-227.17 45,-193 52.39,-175.2 63.71,-158.62 76.57,-143.75"/>
<polygon fill="none" stroke="#404040" points="76.7,-143.61 77.76,-136.47 84.75,-134.71 83.69,-141.85 76.7,-143.61"/>
<text text-anchor="middle" x="72" y="-219.5" font-family="Helvetica,sans-Serif" font-size="10.00"> #M_name</text>
</g>
<!-- Node5 -->
<g id="node5" class="node">
<title>Node5</title>
<g id="a_node5"><a xlink:title=" ">
<polygon fill="white" stroke="black" points="108,-193.5 108,-250.5 232,-250.5 232,-193.5 108,-193.5"/>
<text text-anchor="middle" x="170" y="-238.5" font-family="Helvetica,sans-Serif" font-size="10.00">std::set&lt; std::string &gt;</text>
<polyline fill="none" stroke="black" points="108,-231.5 232,-231.5 "/>
<text text-anchor="middle" x="170" y="-219.5" font-family="Helvetica,sans-Serif" font-size="10.00"> </text>
<polyline fill="none" stroke="black" points="108,-212.5 232,-212.5 "/>
<text text-anchor="middle" x="170" y="-200.5" font-family="Helvetica,sans-Serif" font-size="10.00"> </text>
</a>
</g>
</g>
<!-- Node2&#45;&gt;Node5 -->
<g id="edge5" class="edge">
<title>Node2&#45;&gt;Node5</title>
<path fill="none" stroke="#404040" d="M83.62,-298.4C97.51,-286.28 114,-271.88 128.83,-258.94"/>
<polygon fill="none" stroke="#404040" points="129.25,-258.57 131.14,-251.61 138.29,-250.68 136.4,-257.64 129.25,-258.57"/>
<text text-anchor="middle" x="132" y="-272" font-family="Helvetica,sans-Serif" font-size="10.00"> +keys</text>
</g>
<!-- Node3 -->
<g id="node3" class="node">
<title>Node3</title>
<g id="a_node3"><a xlink:title=" ">
<polygon fill="white" stroke="black" points="0,-393.5 0,-461.5 104,-461.5 104,-393.5 0,-393.5"/>
<text text-anchor="start" x="8" y="-449.5" font-family="Helvetica,sans-Serif" font-size="10.00">std::basic_string&lt;</text>
<text text-anchor="middle" x="52" y="-438.5" font-family="Helvetica,sans-Serif" font-size="10.00"> Char &gt;</text>
<polyline fill="none" stroke="black" points="0,-431.5 104,-431.5 "/>
<text text-anchor="middle" x="52" y="-419.5" font-family="Helvetica,sans-Serif" font-size="10.00"> </text>
<polyline fill="none" stroke="black" points="0,-412.5 104,-412.5 "/>
<text text-anchor="middle" x="52" y="-400.5" font-family="Helvetica,sans-Serif" font-size="10.00"> </text>
</a>
</g>
</g>
<!-- Node3&#45;&gt;Node2 -->
<g id="edge2" class="edge">
<title>Node3&#45;&gt;Node2</title>
<path fill="none" stroke="midnightblue" d="M52,-383.38C52,-373.94 52,-364.2 52,-355.57"/>
<polygon fill="none" stroke="midnightblue" points="48.5,-383.43 52,-393.43 55.5,-383.43 48.5,-383.43"/>
</g>
<!-- Node4 -->
<g id="node4" class="node">
<title>Node4</title>
<g id="a_node4"><a xlink:title=" ">
<polygon fill="white" stroke="#bfbfbf" points="250,-193.5 250,-250.5 350,-250.5 350,-193.5 250,-193.5"/>
<text text-anchor="middle" x="300" y="-238.5" font-family="Helvetica,sans-Serif" font-size="10.00">ModelExpression</text>
<polyline fill="none" stroke="#bfbfbf" points="250,-231.5 350,-231.5 "/>
<text text-anchor="middle" x="300" y="-219.5" font-family="Helvetica,sans-Serif" font-size="10.00"> </text>
<polyline fill="none" stroke="#bfbfbf" points="250,-212.5 350,-212.5 "/>
<text text-anchor="middle" x="300" y="-200.5" font-family="Helvetica,sans-Serif" font-size="10.00"> </text>
</a>
</g>
</g>
<!-- Node4&#45;&gt;Node1 -->
<g id="edge3" class="edge">
<title>Node4&#45;&gt;Node1</title>
<path fill="none" stroke="#404040" d="M276.46,-193.38C264.49,-179.35 249.32,-161.54 234.2,-143.81"/>
<polygon fill="none" stroke="#404040" points="234.1,-143.69 227.16,-141.72 226.31,-134.56 233.25,-136.53 234.1,-143.69"/>
<text text-anchor="middle" x="289" y="-167" font-family="Helvetica,sans-Serif" font-size="10.00"> #M_mexpr1</text>
<text text-anchor="middle" x="289" y="-156" font-family="Helvetica,sans-Serif" font-size="10.00">#M_mexpr2</text>
</g>
<!-- Node5&#45;&gt;Node1 -->
<g id="edge4" class="edge">
<title>Node5&#45;&gt;Node1</title>
<path fill="none" stroke="#404040" d="M170,-193.38C170,-180.12 170,-163.49 170,-146.74"/>
<polygon fill="none" stroke="#404040" points="170,-146.56 166,-140.56 170,-134.56 174,-140.56 170,-146.56"/>
<text text-anchor="middle" x="203" y="-161.5" font-family="Helvetica,sans-Serif" font-size="10.00"> #M_markers</text>
</g>
</g>
</svg>
