<?xml version="1.0" encoding="UTF-8" standalone="no"?>
<!DOCTYPE svg PUBLIC "-//W3C//DTD SVG 1.1//EN"
 "http://www.w3.org/Graphics/SVG/1.1/DTD/svg11.dtd">
<!-- Generated by graphviz version 2.43.0 (0)
 -->
<!-- Title: Feel::FeelModels::FluidMechanics&lt; ConvexType, BasisVelocityType, BasisPressureType &gt; Pages: 1 -->
<!--zoomable 1533 -->
<svg id="main" version="1.1" xmlns="http://www.w3.org/2000/svg" xmlns:xlink="http://www.w3.org/1999/xlink" xml:space="preserve" onload="init(evt)">
<style type="text/css"><![CDATA[
.edge:hover path { stroke: red; }
.edge:hover polygon { stroke: red; fill: red; }
]]></style>
<script type="text/javascript"><![CDATA[
var edges = document.getElementsByTagName('g');
if (edges && edges.length) {
  for (var i=0;i<edges.length;i++) {
    if (edges[i].id.substr(0,4)=='edge') {
      edges[i].setAttribute('class','edge');
    }
  }
}
]]></script>
        <defs>
                <circle id="rim" cx="0" cy="0" r="7"/>
                <circle id="rim2" cx="0" cy="0" r="3.5"/>
                <g id="zoomPlus">
                        <use xlink:href="#rim" fill="#404040">
                                <set attributeName="fill" to="#808080" begin="zoomplus.mouseover" end="zoomplus.mouseout"/>
                        </use>
                        <path d="M-4,0h8M0,-4v8" fill="none" stroke="white" stroke-width="1.5" pointer-events="none"/>
                </g>
                <g id="zoomMin">
                        <use xlink:href="#rim" fill="#404040">
                                <set attributeName="fill" to="#808080" begin="zoomminus.mouseover" end="zoomminus.mouseout"/>
                        </use>
                        <path d="M-4,0h8" fill="none" stroke="white" stroke-width="1.5" pointer-events="none"/>
                </g>
                <g id="dirArrow">
                        <path fill="none" stroke="white" stroke-width="1.5" d="M0,-3.0v7 M-2.5,-0.5L0,-3.0L2.5,-0.5"/>
                </g>
               <g id="resetDef">
                       <use xlink:href="#rim2" fill="#404040">
                               <set attributeName="fill" to="#808080" begin="reset.mouseover" end="reset.mouseout"/>
                       </use>
               </g>
        </defs>

<script type="text/javascript">
var viewWidth = 970;
var viewHeight = 1533;
var sectionId = 'dynsection-1';
</script>
<script xlink:href="svgpan.js"/>
<svg id="graph" class="graph">
<g id="viewport">
<title>Feel::FeelModels::FluidMechanics&lt; ConvexType, BasisVelocityType, BasisPressureType &gt;</title>
<polygon fill="white" stroke="transparent" points="-4,4 -4,-1529 966.23,-1529 966.23,4 -4,4"/>
<!-- Node1 -->
<g id="node1" class="node">
<title>Node1</title>
<g id="a_node1"><a xlink:title="Fluid Mechanics Toolbox.">
<polygon fill="#bfbfbf" stroke="black" points="718.73,-0.5 718.73,-189.5 909.73,-189.5 909.73,-0.5 718.73,-0.5"/>
<text text-anchor="start" x="726.73" y="-177.5" font-family="Helvetica,sans-Serif" font-size="10.00">Feel::FeelModels::FluidMechanics</text>
<text text-anchor="start" x="726.73" y="-166.5" font-family="Helvetica,sans-Serif" font-size="10.00">&lt; ConvexType, BasisVelocityType,</text>
<text text-anchor="middle" x="814.23" y="-155.5" font-family="Helvetica,sans-Serif" font-size="10.00"> BasisPressureType &gt;</text>
<polyline fill="none" stroke="black" points="718.73,-148.5 909.73,-148.5 "/>
<text text-anchor="middle" x="814.23" y="-136.5" font-family="Helvetica,sans-Serif" font-size="10.00"> </text>
<polyline fill="none" stroke="black" points="718.73,-129.5 909.73,-129.5 "/>
<text text-anchor="start" x="726.73" y="-117.5" font-family="Helvetica,sans-Serif" font-size="10.00">+ addUpdateInHousePreconditioner</text>
<text text-anchor="start" x="726.73" y="-106.5" font-family="Helvetica,sans-Serif" font-size="10.00">PCD()</text>
<text text-anchor="start" x="726.73" y="-95.5" font-family="Helvetica,sans-Serif" font-size="10.00">+ addUpdateInHousePreconditioner</text>
<text text-anchor="start" x="726.73" y="-84.5" font-family="Helvetica,sans-Serif" font-size="10.00">PMM()</text>
<text text-anchor="start" x="726.73" y="-73.5" font-family="Helvetica,sans-Serif" font-size="10.00">+ applyCIPStabOnlyOnBoundary</text>
<text text-anchor="start" x="726.73" y="-62.5" font-family="Helvetica,sans-Serif" font-size="10.00">Faces()</text>
<text text-anchor="start" x="726.73" y="-51.5" font-family="Helvetica,sans-Serif" font-size="10.00">+ applyCIPStabOnlyOnBoundary</text>
<text text-anchor="start" x="726.73" y="-40.5" font-family="Helvetica,sans-Serif" font-size="10.00">Faces()</text>
<text text-anchor="start" x="726.73" y="-29.5" font-family="Helvetica,sans-Serif" font-size="10.00">+ applyMovingMeshBeforeSolve()</text>
<text text-anchor="start" x="726.73" y="-18.5" font-family="Helvetica,sans-Serif" font-size="10.00">and 196 more...</text>
<text text-anchor="start" x="726.73" y="-7.5" font-family="Helvetica,sans-Serif" font-size="10.00">+ New()</text>
</a>
</g>
</g>
<!-- Node2 -->
<g id="node2" class="node">
<title>Node2</title>
<g id="a_node2"><a xlink:href="classFeel_1_1FeelModels_1_1ModelNumerical.html" target="_top" xlink:title="Handles some numerical model aspects: timestepping, mesh and properties.">
<polygon fill="white" stroke="black" points="64.23,-237.5 64.23,-448.5 266.23,-448.5 266.23,-237.5 64.23,-237.5"/>
<text text-anchor="middle" x="165.23" y="-436.5" font-family="Helvetica,sans-Serif" font-size="10.00">Feel::FeelModels::ModelNumerical</text>
<polyline fill="none" stroke="black" points="64.23,-429.5 266.23,-429.5 "/>
<text text-anchor="middle" x="165.23" y="-417.5" font-family="Helvetica,sans-Serif" font-size="10.00"> </text>
<polyline fill="none" stroke="black" points="64.23,-410.5 266.23,-410.5 "/>
<text text-anchor="start" x="72.23" y="-398.5" font-family="Helvetica,sans-Serif" font-size="10.00">+ checkResults()</text>
<text text-anchor="start" x="72.23" y="-387.5" font-family="Helvetica,sans-Serif" font-size="10.00">+ checkResults()</text>
<text text-anchor="start" x="72.23" y="-376.5" font-family="Helvetica,sans-Serif" font-size="10.00">+ createBdf()</text>
<text text-anchor="start" x="72.23" y="-365.5" font-family="Helvetica,sans-Serif" font-size="10.00">+ currentTime()</text>
<text text-anchor="start" x="72.23" y="-354.5" font-family="Helvetica,sans-Serif" font-size="10.00">+ doRestart()</text>
<text text-anchor="start" x="72.23" y="-343.5" font-family="Helvetica,sans-Serif" font-size="10.00">and 53 more...</text>
<text text-anchor="start" x="72.23" y="-332.5" font-family="Helvetica,sans-Serif" font-size="10.00"># addPostProcessExportsAll</text>
<text text-anchor="start" x="72.23" y="-321.5" font-family="Helvetica,sans-Serif" font-size="10.00">FieldsAvailable()</text>
<text text-anchor="start" x="72.23" y="-310.5" font-family="Helvetica,sans-Serif" font-size="10.00"># addPostProcessExportsAll</text>
<text text-anchor="start" x="72.23" y="-299.5" font-family="Helvetica,sans-Serif" font-size="10.00">FieldsAvailable()</text>
<text text-anchor="start" x="72.23" y="-288.5" font-family="Helvetica,sans-Serif" font-size="10.00"># addPostProcessMeasuresQuantities</text>
<text text-anchor="start" x="72.23" y="-277.5" font-family="Helvetica,sans-Serif" font-size="10.00">AllNamesAvailable()</text>
<text text-anchor="start" x="72.23" y="-266.5" font-family="Helvetica,sans-Serif" font-size="10.00"># initPostProcess()</text>
<text text-anchor="start" x="72.23" y="-255.5" font-family="Helvetica,sans-Serif" font-size="10.00"># initPostProcessMeshes()</text>
<text text-anchor="start" x="72.23" y="-244.5" font-family="Helvetica,sans-Serif" font-size="10.00">and 9 more...</text>
</a>
</g>
</g>
<!-- Node2&#45;&gt;Node1 -->
<g id="edge1" class="edge">
<title>Node2&#45;&gt;Node1</title>
<path fill="none" stroke="midnightblue" d="M275.86,-300.07C400.4,-252.86 600.72,-176.93 718.71,-132.21"/>
<polygon fill="none" stroke="midnightblue" points="274.39,-296.88 266.28,-303.7 276.87,-303.43 274.39,-296.88"/>
</g>
<!-- Node3 -->
<g id="node3" class="node">
<title>Node3</title>
<g id="a_node3"><a xlink:href="classFeel_1_1FeelModels_1_1ModelBase.html" target="_top" xlink:title="Model base class.">
<polygon fill="white" stroke="black" points="39.73,-722.5 39.73,-834.5 232.73,-834.5 232.73,-722.5 39.73,-722.5"/>
<text text-anchor="middle" x="136.23" y="-822.5" font-family="Helvetica,sans-Serif" font-size="10.00">Feel::FeelModels::ModelBase</text>
<polyline fill="none" stroke="black" points="39.73,-815.5 232.73,-815.5 "/>
<text text-anchor="middle" x="136.23" y="-803.5" font-family="Helvetica,sans-Serif" font-size="10.00"> </text>
<polyline fill="none" stroke="black" points="39.73,-796.5 232.73,-796.5 "/>
<text text-anchor="start" x="47.73" y="-784.5" font-family="Helvetica,sans-Serif" font-size="10.00">+ addParameterInModelProperties()</text>
<text text-anchor="start" x="47.73" y="-773.5" font-family="Helvetica,sans-Serif" font-size="10.00">+ addTimerTool()</text>
<text text-anchor="start" x="47.73" y="-762.5" font-family="Helvetica,sans-Serif" font-size="10.00">+ clovm()</text>
<text text-anchor="start" x="47.73" y="-751.5" font-family="Helvetica,sans-Serif" font-size="10.00">+ createWorldsComm()</text>
<text text-anchor="start" x="47.73" y="-740.5" font-family="Helvetica,sans-Serif" font-size="10.00">+ hasModelProperties()</text>
<text text-anchor="start" x="47.73" y="-729.5" font-family="Helvetica,sans-Serif" font-size="10.00">and 54 more...</text>
</a>
</g>
</g>
<!-- Node3&#45;&gt;Node2 -->
<g id="edge2" class="edge">
<title>Node3&#45;&gt;Node2</title>
<path fill="none" stroke="midnightblue" d="M69,-714.88C47.9,-690.92 27.26,-661.87 16.23,-631 -3.95,-574.5 -6.45,-551.55 16.23,-496 26.92,-469.83 44.53,-445.73 63.96,-424.79"/>
<polygon fill="none" stroke="midnightblue" points="66.55,-717.39 75.85,-722.48 71.75,-712.71 66.55,-717.39"/>
</g>
<!-- Node7 -->
<g id="node7" class="node">
<title>Node7</title>
<g id="a_node7"><a xlink:href="classFeel_1_1FeelModels_1_1ModelAlgebraic.html" target="_top" xlink:title=" ">
<polygon fill="white" stroke="#bfbfbf" points="25.23,-507.5 25.23,-619.5 205.23,-619.5 205.23,-507.5 25.23,-507.5"/>
<text text-anchor="middle" x="115.23" y="-607.5" font-family="Helvetica,sans-Serif" font-size="10.00">Feel::FeelModels::ModelAlgebraic</text>
<polyline fill="none" stroke="#bfbfbf" points="25.23,-600.5 205.23,-600.5 "/>
<text text-anchor="middle" x="115.23" y="-588.5" font-family="Helvetica,sans-Serif" font-size="10.00"> </text>
<polyline fill="none" stroke="#bfbfbf" points="25.23,-581.5 205.23,-581.5 "/>
<text text-anchor="start" x="33.23" y="-569.5" font-family="Helvetica,sans-Serif" font-size="10.00">+ algebraicBackend()</text>
<text text-anchor="start" x="33.23" y="-558.5" font-family="Helvetica,sans-Serif" font-size="10.00">+ algebraicBlockVectorSolution()</text>
<text text-anchor="start" x="33.23" y="-547.5" font-family="Helvetica,sans-Serif" font-size="10.00">+ algebraicFactory()</text>
<text text-anchor="start" x="33.23" y="-536.5" font-family="Helvetica,sans-Serif" font-size="10.00">+ backend()</text>
<text text-anchor="start" x="33.23" y="-525.5" font-family="Helvetica,sans-Serif" font-size="10.00">+ blockPattern()</text>
<text text-anchor="start" x="33.23" y="-514.5" font-family="Helvetica,sans-Serif" font-size="10.00">and 75 more...</text>
</a>
</g>
</g>
<!-- Node3&#45;&gt;Node7 -->
<g id="edge7" class="edge">
<title>Node3&#45;&gt;Node7</title>
<path fill="none" stroke="midnightblue" d="M129.79,-712.14C126.87,-682.58 123.47,-648.02 120.68,-619.77"/>
<polygon fill="none" stroke="midnightblue" points="126.33,-712.76 130.8,-722.37 133.3,-712.08 126.33,-712.76"/>
</g>
<!-- Node8 -->
<g id="node8" class="node">
<title>Node8</title>
<g id="a_node8"><a xlink:href="classFeel_1_1FeelModels_1_1ModelMeshes.html" target="_top" xlink:title=" ">
<polygon fill="white" stroke="black" points="223.73,-496.5 223.73,-630.5 402.73,-630.5 402.73,-496.5 223.73,-496.5"/>
<text text-anchor="start" x="231.73" y="-618.5" font-family="Helvetica,sans-Serif" font-size="10.00">Feel::FeelModels::ModelMeshes</text>
<text text-anchor="middle" x="313.23" y="-607.5" font-family="Helvetica,sans-Serif" font-size="10.00">&lt; ModelAlgebraic::index_type &gt;</text>
<polyline fill="none" stroke="black" points="223.73,-600.5 402.73,-600.5 "/>
<text text-anchor="middle" x="313.23" y="-588.5" font-family="Helvetica,sans-Serif" font-size="10.00"> </text>
<polyline fill="none" stroke="black" points="223.73,-581.5 402.73,-581.5 "/>
<text text-anchor="start" x="231.73" y="-569.5" font-family="Helvetica,sans-Serif" font-size="10.00">+ applyRemesh()</text>
<text text-anchor="start" x="231.73" y="-558.5" font-family="Helvetica,sans-Serif" font-size="10.00">+ hasMeshMotion()</text>
<text text-anchor="start" x="231.73" y="-547.5" font-family="Helvetica,sans-Serif" font-size="10.00">+ hasModelMesh()</text>
<text text-anchor="start" x="231.73" y="-536.5" font-family="Helvetica,sans-Serif" font-size="10.00">+ initMeasurePointsEvaluation</text>
<text text-anchor="start" x="231.73" y="-525.5" font-family="Helvetica,sans-Serif" font-size="10.00">Tool()</text>
<text text-anchor="start" x="231.73" y="-514.5" font-family="Helvetica,sans-Serif" font-size="10.00">+ measurePointsEvaluationTool()</text>
<text text-anchor="start" x="231.73" y="-503.5" font-family="Helvetica,sans-Serif" font-size="10.00">and 27 more...</text>
</a>
</g>
</g>
<!-- Node3&#45;&gt;Node8 -->
<g id="edge12" class="edge">
<title>Node3&#45;&gt;Node8</title>
<path fill="none" stroke="midnightblue" d="M188.71,-714.35C210.59,-688.02 236.01,-657.43 258.15,-630.78"/>
<polygon fill="none" stroke="midnightblue" points="185.74,-712.44 182.04,-722.37 191.13,-716.92 185.74,-712.44"/>
</g>
<!-- Node12 -->
<g id="node12" class="node">
<title>Node12</title>
<g id="a_node12"><a xlink:href="classFeel_1_1FeelModels_1_1ModelPhysics.html" target="_top" xlink:title=" ">
<polygon fill="white" stroke="black" points="590.73,-270.5 590.73,-415.5 761.73,-415.5 761.73,-270.5 590.73,-270.5"/>
<text text-anchor="start" x="598.73" y="-403.5" font-family="Helvetica,sans-Serif" font-size="10.00">Feel::FeelModels::ModelPhysics</text>
<text text-anchor="middle" x="676.23" y="-392.5" font-family="Helvetica,sans-Serif" font-size="10.00">&lt; ConvexType::nDim &gt;</text>
<polyline fill="none" stroke="black" points="590.73,-385.5 761.73,-385.5 "/>
<text text-anchor="middle" x="676.23" y="-373.5" font-family="Helvetica,sans-Serif" font-size="10.00"> </text>
<polyline fill="none" stroke="black" points="590.73,-366.5 761.73,-366.5 "/>
<text text-anchor="start" x="598.73" y="-354.5" font-family="Helvetica,sans-Serif" font-size="10.00">+ addPhysics()</text>
<text text-anchor="start" x="598.73" y="-343.5" font-family="Helvetica,sans-Serif" font-size="10.00">+ hasPhysic()</text>
<text text-anchor="start" x="598.73" y="-332.5" font-family="Helvetica,sans-Serif" font-size="10.00">+ initPhysics()</text>
<text text-anchor="start" x="598.73" y="-321.5" font-family="Helvetica,sans-Serif" font-size="10.00">+ initPhysics()</text>
<text text-anchor="start" x="598.73" y="-310.5" font-family="Helvetica,sans-Serif" font-size="10.00">+ ModelPhysics()</text>
<text text-anchor="start" x="598.73" y="-299.5" font-family="Helvetica,sans-Serif" font-size="10.00">and 18 more...</text>
<text text-anchor="start" x="598.73" y="-288.5" font-family="Helvetica,sans-Serif" font-size="10.00"># initPhysics()</text>
<text text-anchor="start" x="598.73" y="-277.5" font-family="Helvetica,sans-Serif" font-size="10.00"># updatePhysics()</text>
</a>
</g>
</g>
<!-- Node3&#45;&gt;Node12 -->
<g id="edge14" class="edge">
<title>Node3&#45;&gt;Node12</title>
<path fill="none" stroke="midnightblue" d="M241.93,-725.58C313.88,-689.5 398.31,-645.41 411.23,-631 454.37,-582.88 425.43,-546.91 465.23,-496 499.02,-452.78 548.26,-416.35 590.68,-390"/>
<polygon fill="none" stroke="midnightblue" points="240.15,-722.56 232.78,-730.16 243.29,-728.82 240.15,-722.56"/>
</g>
<!-- Node4 -->
<g id="node4" class="node">
<title>Node4</title>
<g id="a_node4"><a xlink:href="classFeel_1_1JournalWatcher.html" target="_top" xlink:title=" ">
<polygon fill="white" stroke="#bfbfbf" points="133.73,-1141.5 133.73,-1429.5 310.73,-1429.5 310.73,-1141.5 133.73,-1141.5"/>
<text text-anchor="middle" x="222.23" y="-1417.5" font-family="Helvetica,sans-Serif" font-size="10.00">Feel::JournalWatcher</text>
<polyline fill="none" stroke="#bfbfbf" points="133.73,-1410.5 310.73,-1410.5 "/>
<text text-anchor="middle" x="222.23" y="-1398.5" font-family="Helvetica,sans-Serif" font-size="10.00"> </text>
<polyline fill="none" stroke="#bfbfbf" points="133.73,-1391.5 310.73,-1391.5 "/>
<text text-anchor="start" x="141.73" y="-1379.5" font-family="Helvetica,sans-Serif" font-size="10.00">* M_journal_is_connected</text>
<text text-anchor="start" x="141.73" y="-1368.5" font-family="Helvetica,sans-Serif" font-size="10.00">* M_category</text>
<text text-anchor="start" x="141.73" y="-1357.5" font-family="Helvetica,sans-Serif" font-size="10.00">* M_name</text>
<text text-anchor="start" x="141.73" y="-1346.5" font-family="Helvetica,sans-Serif" font-size="10.00">* M_function_updateInformation</text>
<text text-anchor="start" x="141.73" y="-1335.5" font-family="Helvetica,sans-Serif" font-size="10.00">Object</text>
<text text-anchor="start" x="141.73" y="-1324.5" font-family="Helvetica,sans-Serif" font-size="10.00">* M_informationObject</text>
<text text-anchor="start" x="141.73" y="-1313.5" font-family="Helvetica,sans-Serif" font-size="10.00">* S_counterObjectByCategory</text>
<text text-anchor="start" x="141.73" y="-1302.5" font-family="Helvetica,sans-Serif" font-size="10.00">* JournalWatcher()</text>
<text text-anchor="start" x="141.73" y="-1291.5" font-family="Helvetica,sans-Serif" font-size="10.00">* JournalWatcher()</text>
<text text-anchor="start" x="141.73" y="-1280.5" font-family="Helvetica,sans-Serif" font-size="10.00">* JournalWatcher()</text>
<text text-anchor="start" x="141.73" y="-1269.5" font-family="Helvetica,sans-Serif" font-size="10.00">* JournalWatcher()</text>
<text text-anchor="start" x="141.73" y="-1258.5" font-family="Helvetica,sans-Serif" font-size="10.00">* ~JournalWatcher()</text>
<text text-anchor="start" x="141.73" y="-1247.5" font-family="Helvetica,sans-Serif" font-size="10.00">* journalIsConnected()</text>
<text text-anchor="start" x="141.73" y="-1236.5" font-family="Helvetica,sans-Serif" font-size="10.00">* journalWatcherInstanceName()</text>
<text text-anchor="start" x="141.73" y="-1225.5" font-family="Helvetica,sans-Serif" font-size="10.00">* journalSection()</text>
<text text-anchor="start" x="141.73" y="-1214.5" font-family="Helvetica,sans-Serif" font-size="10.00">* informationObject()</text>
<text text-anchor="start" x="141.73" y="-1203.5" font-family="Helvetica,sans-Serif" font-size="10.00">* journalConnect()</text>
<text text-anchor="start" x="141.73" y="-1192.5" font-family="Helvetica,sans-Serif" font-size="10.00">* journalDisconnect()</text>
<text text-anchor="start" x="141.73" y="-1181.5" font-family="Helvetica,sans-Serif" font-size="10.00">* updateInformationObject()</text>
<text text-anchor="start" x="141.73" y="-1170.5" font-family="Helvetica,sans-Serif" font-size="10.00">* setInformationObject()</text>
<text text-anchor="start" x="141.73" y="-1159.5" font-family="Helvetica,sans-Serif" font-size="10.00">* putInformationObject()</text>
<text text-anchor="start" x="141.73" y="-1148.5" font-family="Helvetica,sans-Serif" font-size="10.00">and 4 more...</text>
</a>
</g>
</g>
<!-- Node4&#45;&gt;Node3 -->
<g id="edge3" class="edge">
<title>Node4&#45;&gt;Node3</title>
<path fill="none" stroke="midnightblue" d="M138.65,-1131.71C134.1,-1119.2 130.19,-1106.54 127.23,-1094 106.29,-1005.08 116.55,-898.11 126.19,-834.63"/>
<polygon fill="none" stroke="midnightblue" points="135.44,-1133.13 142.25,-1141.25 141.99,-1130.65 135.44,-1133.13"/>
</g>
<!-- Node19 -->
<g id="node19" class="node">
<title>Node19</title>
<g id="a_node19"><a xlink:href="classFeel_1_1FeelModels_1_1ModelPhysic.html" target="_top" xlink:title=" ">
<polygon fill="white" stroke="black" points="467.73,-882.5 467.73,-1093.5 658.73,-1093.5 658.73,-882.5 467.73,-882.5"/>
<text text-anchor="start" x="475.73" y="-1081.5" font-family="Helvetica,sans-Serif" font-size="10.00">Feel::FeelModels::ModelPhysic</text>
<text text-anchor="middle" x="563.23" y="-1070.5" font-family="Helvetica,sans-Serif" font-size="10.00">&lt; nDim &gt;</text>
<polyline fill="none" stroke="black" points="467.73,-1063.5 658.73,-1063.5 "/>
<text text-anchor="middle" x="563.23" y="-1051.5" font-family="Helvetica,sans-Serif" font-size="10.00"> </text>
<polyline fill="none" stroke="black" points="467.73,-1044.5 658.73,-1044.5 "/>
<text text-anchor="start" x="475.73" y="-1032.5" font-family="Helvetica,sans-Serif" font-size="10.00">+ addMaterialNames()</text>
<text text-anchor="start" x="475.73" y="-1021.5" font-family="Helvetica,sans-Serif" font-size="10.00">+ addMaterialPropertyDescription()</text>
<text text-anchor="start" x="475.73" y="-1010.5" font-family="Helvetica,sans-Serif" font-size="10.00">+ addParameter()</text>
<text text-anchor="start" x="475.73" y="-999.5" font-family="Helvetica,sans-Serif" font-size="10.00">+ addParameter()</text>
<text text-anchor="start" x="475.73" y="-988.5" font-family="Helvetica,sans-Serif" font-size="10.00">+ addParameter()</text>
<text text-anchor="start" x="475.73" y="-977.5" font-family="Helvetica,sans-Serif" font-size="10.00">and 28 more...</text>
<text text-anchor="start" x="475.73" y="-966.5" font-family="Helvetica,sans-Serif" font-size="10.00">+ New()</text>
<text text-anchor="start" x="475.73" y="-955.5" font-family="Helvetica,sans-Serif" font-size="10.00"># parameterModelExpr()</text>
<text text-anchor="start" x="475.73" y="-944.5" font-family="Helvetica,sans-Serif" font-size="10.00"># updateTabulateInformations</text>
<text text-anchor="start" x="475.73" y="-933.5" font-family="Helvetica,sans-Serif" font-size="10.00">Basic()</text>
<text text-anchor="start" x="475.73" y="-922.5" font-family="Helvetica,sans-Serif" font-size="10.00"># updateTabulateInformations</text>
<text text-anchor="start" x="475.73" y="-911.5" font-family="Helvetica,sans-Serif" font-size="10.00">Parameters()</text>
<text text-anchor="start" x="475.73" y="-900.5" font-family="Helvetica,sans-Serif" font-size="10.00"># updateTabulateInformations</text>
<text text-anchor="start" x="475.73" y="-889.5" font-family="Helvetica,sans-Serif" font-size="10.00">Subphysics()</text>
</a>
</g>
</g>
<!-- Node4&#45;&gt;Node19 -->
<g id="edge22" class="edge">
<title>Node4&#45;&gt;Node19</title>
<path fill="none" stroke="midnightblue" d="M318.63,-1200.97C365.23,-1160.59 420.99,-1112.26 467.5,-1071.96"/>
<polygon fill="none" stroke="midnightblue" points="316.2,-1198.44 310.94,-1207.63 320.79,-1203.73 316.2,-1198.44"/>
</g>
<!-- Node5 -->
<g id="node5" class="node">
<title>Node5</title>
<g id="a_node5"><a xlink:title=" ">
<polygon fill="white" stroke="#bfbfbf" points="168.73,-1467.5 168.73,-1524.5 275.73,-1524.5 275.73,-1467.5 168.73,-1467.5"/>
<text text-anchor="middle" x="222.23" y="-1512.5" font-family="Helvetica,sans-Serif" font-size="10.00">Event::SlotHandler</text>
<polyline fill="none" stroke="#bfbfbf" points="168.73,-1505.5 275.73,-1505.5 "/>
<text text-anchor="middle" x="222.23" y="-1493.5" font-family="Helvetica,sans-Serif" font-size="10.00"> </text>
<polyline fill="none" stroke="#bfbfbf" points="168.73,-1486.5 275.73,-1486.5 "/>
<text text-anchor="middle" x="222.23" y="-1474.5" font-family="Helvetica,sans-Serif" font-size="10.00"> </text>
</a>
</g>
</g>
<!-- Node5&#45;&gt;Node4 -->
<g id="edge4" class="edge">
<title>Node5&#45;&gt;Node4</title>
<path fill="none" stroke="midnightblue" d="M222.23,-1457.25C222.23,-1448.86 222.23,-1439.49 222.23,-1429.57"/>
<polygon fill="none" stroke="midnightblue" points="218.73,-1457.31 222.23,-1467.31 225.73,-1457.31 218.73,-1457.31"/>
</g>
<!-- Node6 -->
<g id="node6" class="node">
<title>Node6</title>
<g id="a_node6"><a xlink:title=" ">
<polygon fill="white" stroke="#bfbfbf" points="136.73,-954 136.73,-1022 281.73,-1022 281.73,-954 136.73,-954"/>
<text text-anchor="start" x="144.73" y="-1010" font-family="Helvetica,sans-Serif" font-size="10.00">std::enable_shared</text>
<text text-anchor="middle" x="209.23" y="-999" font-family="Helvetica,sans-Serif" font-size="10.00">_from_this&lt; ModelBase &gt;</text>
<polyline fill="none" stroke="#bfbfbf" points="136.73,-992 281.73,-992 "/>
<text text-anchor="middle" x="209.23" y="-980" font-family="Helvetica,sans-Serif" font-size="10.00"> </text>
<polyline fill="none" stroke="#bfbfbf" points="136.73,-973 281.73,-973 "/>
<text text-anchor="middle" x="209.23" y="-961" font-family="Helvetica,sans-Serif" font-size="10.00"> </text>
</a>
</g>
</g>
<!-- Node6&#45;&gt;Node3 -->
<g id="edge5" class="edge">
<title>Node6&#45;&gt;Node3</title>
<path fill="none" stroke="midnightblue" d="M194.18,-944.21C183.02,-912.48 167.7,-868.95 155.62,-834.61"/>
<polygon fill="none" stroke="midnightblue" points="190.88,-945.39 197.5,-953.66 197.49,-943.07 190.88,-945.39"/>
</g>
<!-- Node7&#45;&gt;Node2 -->
<g id="edge6" class="edge">
<title>Node7&#45;&gt;Node2</title>
<path fill="none" stroke="midnightblue" d="M130.12,-497.45C133.65,-482.03 137.5,-465.2 141.32,-448.51"/>
<polygon fill="none" stroke="midnightblue" points="126.67,-496.83 127.85,-507.36 133.49,-498.4 126.67,-496.83"/>
</g>
<!-- Node8&#45;&gt;Node2 -->
<g id="edge8" class="edge">
<title>Node8&#45;&gt;Node2</title>
<path fill="none" stroke="midnightblue" d="M262.6,-487.74C254.06,-475.14 245.06,-461.86 236.12,-448.66"/>
<polygon fill="none" stroke="midnightblue" points="259.92,-490.03 268.43,-496.35 265.72,-486.11 259.92,-490.03"/>
</g>
<!-- Node9 -->
<g id="node9" class="node">
<title>Node9</title>
<g id="a_node9"><a xlink:title=" ">
<polygon fill="white" stroke="black" points="263.73,-750 263.73,-807 364.73,-807 364.73,-750 263.73,-750"/>
<text text-anchor="middle" x="314.23" y="-795" font-family="Helvetica,sans-Serif" font-size="10.00">std::map&lt; K, T &gt;</text>
<polyline fill="none" stroke="black" points="263.73,-788 364.73,-788 "/>
<text text-anchor="middle" x="314.23" y="-776" font-family="Helvetica,sans-Serif" font-size="10.00"> </text>
<polyline fill="none" stroke="black" points="263.73,-769 364.73,-769 "/>
<text text-anchor="middle" x="314.23" y="-757" font-family="Helvetica,sans-Serif" font-size="10.00"> </text>
</a>
</g>
</g>
<!-- Node9&#45;&gt;Node8 -->
<g id="edge9" class="edge">
<title>Node9&#45;&gt;Node8</title>
<path fill="none" stroke="darkgreen" d="M314.05,-739.57C313.91,-709.46 313.71,-666.64 313.54,-630.88"/>
<polygon fill="none" stroke="darkgreen" points="310.56,-739.67 314.1,-749.65 317.56,-739.64 310.56,-739.67"/>
</g>
<!-- Node10 -->
<g id="node10" class="node">
<title>Node10</title>
<g id="a_node10"><a xlink:title=" ">
<polygon fill="white" stroke="#bfbfbf" points="299.73,-959.5 299.73,-1016.5 328.73,-1016.5 328.73,-959.5 299.73,-959.5"/>
<text text-anchor="middle" x="314.23" y="-1004.5" font-family="Helvetica,sans-Serif" font-size="10.00">K</text>
<polyline fill="none" stroke="#bfbfbf" points="299.73,-997.5 328.73,-997.5 "/>
<text text-anchor="middle" x="314.23" y="-985.5" font-family="Helvetica,sans-Serif" font-size="10.00"> </text>
<polyline fill="none" stroke="#bfbfbf" points="299.73,-978.5 328.73,-978.5 "/>
<text text-anchor="middle" x="314.23" y="-966.5" font-family="Helvetica,sans-Serif" font-size="10.00"> </text>
</a>
</g>
</g>
<!-- Node10&#45;&gt;Node9 -->
<g id="edge10" class="edge">
<title>Node10&#45;&gt;Node9</title>
<path fill="none" stroke="#404040" d="M314.23,-959.45C314.23,-923.56 314.23,-860.56 314.23,-819.43"/>
<polygon fill="none" stroke="#404040" points="314.23,-819.17 310.23,-813.17 314.23,-807.17 318.23,-813.17 314.23,-819.17"/>
<text text-anchor="middle" x="331.23" y="-856" font-family="Helvetica,sans-Serif" font-size="10.00"> +keys</text>
</g>
<!-- Node11 -->
<g id="node11" class="node">
<title>Node11</title>
<g id="a_node11"><a xlink:title=" ">
<polygon fill="white" stroke="#bfbfbf" points="356.73,-959.5 356.73,-1016.5 385.73,-1016.5 385.73,-959.5 356.73,-959.5"/>
<text text-anchor="middle" x="371.23" y="-1004.5" font-family="Helvetica,sans-Serif" font-size="10.00">T</text>
<polyline fill="none" stroke="#bfbfbf" points="356.73,-997.5 385.73,-997.5 "/>
<text text-anchor="middle" x="371.23" y="-985.5" font-family="Helvetica,sans-Serif" font-size="10.00"> </text>
<polyline fill="none" stroke="#bfbfbf" points="356.73,-978.5 385.73,-978.5 "/>
<text text-anchor="middle" x="371.23" y="-966.5" font-family="Helvetica,sans-Serif" font-size="10.00"> </text>
</a>
</g>
</g>
<!-- Node11&#45;&gt;Node9 -->
<g id="edge11" class="edge">
<title>Node11&#45;&gt;Node9</title>
<path fill="none" stroke="#404040" d="M368.98,-959.27C366.21,-931.8 360.44,-888.77 349.23,-853 345.56,-841.29 340.36,-829.07 335.08,-818.02"/>
<polygon fill="none" stroke="#404040" points="334.95,-817.77 328.7,-814.17 329.61,-807.02 335.86,-810.61 334.95,-817.77"/>
<text text-anchor="middle" x="382.23" y="-856" font-family="Helvetica,sans-Serif" font-size="10.00"> +elements</text>
</g>
<!-- Node12&#45;&gt;Node1 -->
<g id="edge13" class="edge">
<title>Node12&#45;&gt;Node1</title>
<path fill="none" stroke="midnightblue" d="M721.54,-261.23C734.34,-238.42 748.37,-213.4 761.56,-189.89"/>
<polygon fill="none" stroke="midnightblue" points="718.36,-259.75 716.52,-270.19 724.46,-263.18 718.36,-259.75"/>
</g>
<!-- Node13 -->
<g id="node13" class="node">
<title>Node13</title>
<g id="a_node13"><a xlink:title=" ">
<polygon fill="white" stroke="#bfbfbf" points="727.23,-1257 727.23,-1314 861.23,-1314 861.23,-1257 727.23,-1257"/>
<text text-anchor="middle" x="794.23" y="-1302" font-family="Helvetica,sans-Serif" font-size="10.00">static const uint16_type</text>
<polyline fill="none" stroke="#bfbfbf" points="727.23,-1295 861.23,-1295 "/>
<text text-anchor="middle" x="794.23" y="-1283" font-family="Helvetica,sans-Serif" font-size="10.00"> </text>
<polyline fill="none" stroke="#bfbfbf" points="727.23,-1276 861.23,-1276 "/>
<text text-anchor="middle" x="794.23" y="-1264" font-family="Helvetica,sans-Serif" font-size="10.00"> </text>
</a>
</g>
</g>
<!-- Node13&#45;&gt;Node1 -->
<g id="edge24" class="edge">
<title>Node13&#45;&gt;Node1</title>
<path fill="none" stroke="#404040" d="M804.69,-1256.85C823.3,-1205.08 860.23,-1089.66 860.23,-989 860.23,-989 860.23,-989 860.23,-342 860.23,-295.43 852.17,-244.74 842.8,-201.54"/>
<polygon fill="none" stroke="#404040" points="842.74,-201.28 837.53,-196.29 840.12,-189.56 845.33,-194.55 842.74,-201.28"/>
<text text-anchor="middle" x="902.23" y="-696" font-family="Helvetica,sans-Serif" font-size="10.00"> +nDim</text>
<text text-anchor="middle" x="902.23" y="-685" font-family="Helvetica,sans-Serif" font-size="10.00">+nOrderGeo</text>
<text text-anchor="middle" x="902.23" y="-674" font-family="Helvetica,sans-Serif" font-size="10.00">+nOrderPressure</text>
<text text-anchor="middle" x="902.23" y="-663" font-family="Helvetica,sans-Serif" font-size="10.00">+nOrderVelocity</text>
<text text-anchor="middle" x="902.23" y="-652" font-family="Helvetica,sans-Serif" font-size="10.00">+nRealDim</text>
</g>
<!-- Node13&#45;&gt;Node12 -->
<g id="edge15" class="edge">
<title>Node13&#45;&gt;Node12</title>
<path fill="none" stroke="#404040" d="M794.23,-1256.8C794.23,-1204.47 794.23,-1087.5 794.23,-989 794.23,-989 794.23,-989 794.23,-562.5 794.23,-519.6 797.87,-506.1 780.23,-467 773.73,-452.58 765.02,-438.52 755.4,-425.38"/>
<polygon fill="none" stroke="#404040" points="755.15,-425.06 748.33,-422.71 747.88,-415.51 754.7,-417.86 755.15,-425.06"/>
<text text-anchor="middle" x="813.23" y="-776" font-family="Helvetica,sans-Serif" font-size="10.00"> +nDim</text>
</g>
<!-- Node13&#45;&gt;Node19 -->
<g id="edge23" class="edge">
<title>Node13&#45;&gt;Node19</title>
<path fill="none" stroke="#404040" d="M772.71,-1256.97C745.34,-1221.95 696.38,-1159.32 652.67,-1103.41"/>
<polygon fill="none" stroke="#404040" points="652.53,-1103.24 645.69,-1100.97 645.14,-1093.78 651.99,-1096.05 652.53,-1103.24"/>
<text text-anchor="middle" x="684.23" y="-1115" font-family="Helvetica,sans-Serif" font-size="10.00"> +nDim</text>
</g>
<!-- Node14 -->
<g id="node14" class="node">
<title>Node14</title>
<g id="a_node14"><a xlink:title=" ">
<polygon fill="white" stroke="black" points="671.73,-535 671.73,-592 736.73,-592 736.73,-535 671.73,-535"/>
<text text-anchor="middle" x="704.23" y="-580" font-family="Helvetica,sans-Serif" font-size="10.00">std::string</text>
<polyline fill="none" stroke="black" points="671.73,-573 736.73,-573 "/>
<text text-anchor="middle" x="704.23" y="-561" font-family="Helvetica,sans-Serif" font-size="10.00"> </text>
<polyline fill="none" stroke="black" points="671.73,-554 736.73,-554 "/>
<text text-anchor="middle" x="704.23" y="-542" font-family="Helvetica,sans-Serif" font-size="10.00"> </text>
</a>
</g>
</g>
<!-- Node14&#45;&gt;Node12 -->
<g id="edge16" class="edge">
<title>Node14&#45;&gt;Node12</title>
<path fill="none" stroke="#404040" d="M693.06,-534.85C687.09,-518.59 680.34,-497.47 677.23,-478 674.65,-461.82 673.41,-444.41 672.97,-427.66"/>
<polygon fill="none" stroke="#404040" points="672.97,-427.61 668.88,-421.67 672.79,-415.61 676.88,-421.55 672.97,-427.61"/>
<text text-anchor="middle" x="728.73" y="-470" font-family="Helvetica,sans-Serif" font-size="10.00"> #M_physicModeling</text>
</g>
<!-- Node15 -->
<g id="node15" class="node">
<title>Node15</title>
<g id="a_node15"><a xlink:title=" ">
<polygon fill="white" stroke="black" points="654.23,-744.5 654.23,-812.5 758.23,-812.5 758.23,-744.5 654.23,-744.5"/>
<text text-anchor="start" x="662.23" y="-800.5" font-family="Helvetica,sans-Serif" font-size="10.00">std::basic_string&lt;</text>
<text text-anchor="middle" x="706.23" y="-789.5" font-family="Helvetica,sans-Serif" font-size="10.00"> Char &gt;</text>
<polyline fill="none" stroke="black" points="654.23,-782.5 758.23,-782.5 "/>
<text text-anchor="middle" x="706.23" y="-770.5" font-family="Helvetica,sans-Serif" font-size="10.00"> </text>
<polyline fill="none" stroke="black" points="654.23,-763.5 758.23,-763.5 "/>
<text text-anchor="middle" x="706.23" y="-751.5" font-family="Helvetica,sans-Serif" font-size="10.00"> </text>
</a>
</g>
</g>
<!-- Node15&#45;&gt;Node14 -->
<g id="edge17" class="edge">
<title>Node15&#45;&gt;Node14</title>
<path fill="none" stroke="midnightblue" d="M705.83,-734.16C705.43,-691.67 704.83,-628.18 704.49,-592.13"/>
<polygon fill="none" stroke="midnightblue" points="702.33,-734.25 705.92,-744.22 709.33,-734.19 702.33,-734.25"/>
</g>
<!-- Node16 -->
<g id="node16" class="node">
<title>Node16</title>
<g id="a_node16"><a xlink:title=" ">
<polygon fill="white" stroke="black" points="474.73,-518.5 474.73,-608.5 651.73,-608.5 651.73,-518.5 474.73,-518.5"/>
<text text-anchor="start" x="482.73" y="-596.5" font-family="Helvetica,sans-Serif" font-size="10.00">std::map&lt; physic_id</text>
<text text-anchor="start" x="482.73" y="-585.5" font-family="Helvetica,sans-Serif" font-size="10.00">_type, std::shared_ptr</text>
<text text-anchor="start" x="482.73" y="-574.5" font-family="Helvetica,sans-Serif" font-size="10.00">&lt; Feel::FeelModels::ModelPhysic</text>
<text text-anchor="middle" x="563.23" y="-563.5" font-family="Helvetica,sans-Serif" font-size="10.00">&lt; nDim &gt; &gt; &gt;</text>
<polyline fill="none" stroke="black" points="474.73,-556.5 651.73,-556.5 "/>
<text text-anchor="middle" x="563.23" y="-544.5" font-family="Helvetica,sans-Serif" font-size="10.00"> </text>
<polyline fill="none" stroke="black" points="474.73,-537.5 651.73,-537.5 "/>
<text text-anchor="middle" x="563.23" y="-525.5" font-family="Helvetica,sans-Serif" font-size="10.00"> </text>
</a>
</g>
</g>
<!-- Node16&#45;&gt;Node12 -->
<g id="edge18" class="edge">
<title>Node16&#45;&gt;Node12</title>
<path fill="none" stroke="#404040" d="M584.07,-518.06C591.8,-501.89 600.75,-483.54 609.23,-467 616.02,-453.77 623.38,-439.84 630.67,-426.3"/>
<polygon fill="none" stroke="#404040" points="630.77,-426.11 630.11,-418.93 636.48,-415.55 637.15,-422.73 630.77,-426.11"/>
<text text-anchor="middle" x="640.73" y="-470" font-family="Helvetica,sans-Serif" font-size="10.00"> #M_physics</text>
</g>
<!-- Node17 -->
<g id="node17" class="node">
<title>Node17</title>
<g id="a_node17"><a xlink:title=" ">
<polygon fill="white" stroke="#bfbfbf" points="382.73,-750 382.73,-807 471.73,-807 471.73,-750 382.73,-750"/>
<text text-anchor="middle" x="427.23" y="-795" font-family="Helvetica,sans-Serif" font-size="10.00">physic_id_type</text>
<polyline fill="none" stroke="#bfbfbf" points="382.73,-788 471.73,-788 "/>
<text text-anchor="middle" x="427.23" y="-776" font-family="Helvetica,sans-Serif" font-size="10.00"> </text>
<polyline fill="none" stroke="#bfbfbf" points="382.73,-769 471.73,-769 "/>
<text text-anchor="middle" x="427.23" y="-757" font-family="Helvetica,sans-Serif" font-size="10.00"> </text>
</a>
</g>
</g>
<!-- Node17&#45;&gt;Node16 -->
<g id="edge19" class="edge">
<title>Node17&#45;&gt;Node16</title>
<path fill="none" stroke="#404040" d="M445.01,-749.65C466.12,-716.6 501.81,-660.69 528.47,-618.94"/>
<polygon fill="none" stroke="#404040" points="528.58,-618.77 528.44,-611.56 535.04,-608.66 535.18,-615.87 528.58,-618.77"/>
<text text-anchor="middle" x="525.23" y="-674" font-family="Helvetica,sans-Serif" font-size="10.00"> +keys</text>
</g>
<!-- Node18 -->
<g id="node18" class="node">
<title>Node18</title>
<g id="a_node18"><a xlink:title=" ">
<polygon fill="white" stroke="black" points="490.23,-739 490.23,-818 636.23,-818 636.23,-739 490.23,-739"/>
<text text-anchor="start" x="498.23" y="-806" font-family="Helvetica,sans-Serif" font-size="10.00">std::shared_ptr&lt; Feel</text>
<text text-anchor="start" x="498.23" y="-795" font-family="Helvetica,sans-Serif" font-size="10.00">::FeelModels::ModelPhysic</text>
<text text-anchor="middle" x="563.23" y="-784" font-family="Helvetica,sans-Serif" font-size="10.00">&lt; nDim &gt; &gt;</text>
<polyline fill="none" stroke="black" points="490.23,-777 636.23,-777 "/>
<text text-anchor="middle" x="563.23" y="-765" font-family="Helvetica,sans-Serif" font-size="10.00"> </text>
<polyline fill="none" stroke="black" points="490.23,-758 636.23,-758 "/>
<text text-anchor="start" x="498.23" y="-746" font-family="Helvetica,sans-Serif" font-size="10.00">+ operator&#45;&gt;()</text>
</a>
</g>
</g>
<!-- Node18&#45;&gt;Node16 -->
<g id="edge20" class="edge">
<title>Node18&#45;&gt;Node16</title>
<path fill="none" stroke="#404040" d="M563.23,-738.93C563.23,-705.97 563.23,-658.11 563.23,-620.86"/>
<polygon fill="none" stroke="#404040" points="563.23,-620.67 559.23,-614.67 563.23,-608.67 567.23,-614.67 563.23,-620.67"/>
<text text-anchor="middle" x="592.23" y="-674" font-family="Helvetica,sans-Serif" font-size="10.00"> +elements</text>
</g>
<!-- Node19&#45;&gt;Node18 -->
<g id="edge21" class="edge">
<title>Node19&#45;&gt;Node18</title>
<path fill="none" stroke="#404040" d="M563.23,-882.34C563.23,-864.22 563.23,-846.13 563.23,-830.3"/>
<polygon fill="none" stroke="#404040" points="563.23,-830.12 559.23,-824.12 563.23,-818.12 567.23,-824.12 563.23,-830.12"/>
<text text-anchor="middle" x="575.73" y="-856" font-family="Helvetica,sans-Serif" font-size="10.00"> +ptr</text>
</g>
<!-- Node20 -->
<g id="node20" class="node">
<title>Node20</title>
<g id="a_node20"><a xlink:href="classbool.html" target="_top" xlink:title=" ">
<polygon fill="white" stroke="#bfbfbf" points="888.23,-314.5 888.23,-371.5 926.23,-371.5 926.23,-314.5 888.23,-314.5"/>
<text text-anchor="middle" x="907.23" y="-359.5" font-family="Helvetica,sans-Serif" font-size="10.00">bool</text>
<polyline fill="none" stroke="#bfbfbf" points="888.23,-352.5 926.23,-352.5 "/>
<text text-anchor="middle" x="907.23" y="-340.5" font-family="Helvetica,sans-Serif" font-size="10.00"> </text>
<polyline fill="none" stroke="#bfbfbf" points="888.23,-333.5 926.23,-333.5 "/>
<text text-anchor="middle" x="907.23" y="-321.5" font-family="Helvetica,sans-Serif" font-size="10.00"> </text>
</a>
</g>
</g>
<!-- Node20&#45;&gt;Node1 -->
<g id="edge25" class="edge">
<title>Node20&#45;&gt;Node1</title>
<path fill="none" stroke="#404040" d="M902.54,-314.44C897.37,-286.91 887.93,-243.67 874.23,-208 873.32,-205.63 872.37,-203.24 871.39,-200.85"/>
<polygon fill="none" stroke="#404040" points="871.3,-200.64 865.25,-196.71 866.55,-189.61 872.6,-193.54 871.3,-200.64"/>
<text text-anchor="middle" x="919.73" y="-211" font-family="Helvetica,sans-Serif" font-size="10.00"> +useMixedBasis</text>
</g>
</g>
</svg>
        <g id="navigator" transform="translate(0 0)" fill="#404254">
                <rect fill="#f2f5e9" fill-opacity="0.5" stroke="#606060" stroke-width=".5" x="0" y="0" width="60" height="60"/>
                <use id="zoomplus" xlink:href="#zoomPlus" x="17" y="9" onmousedown="handleZoom(evt,'in')"/>
                <use id="zoomminus" xlink:href="#zoomMin" x="42" y="9" onmousedown="handleZoom(evt,'out')"/>
                <use id="reset" xlink:href="#resetDef" x="30" y="36" onmousedown="handleReset()"/>
                <g id="arrowUp" xlink:href="#dirArrow" transform="translate(30 24)" onmousedown="handlePan(0,-1)">
                  <use xlink:href="#rim" fill="#404040">
                        <set attributeName="fill" to="#808080" begin="arrowUp.mouseover" end="arrowUp.mouseout"/>
                  </use>
                  <path fill="none" stroke="white" stroke-width="1.5" d="M0,-3.0v7 M-2.5,-0.5L0,-3.0L2.5,-0.5"/>
                </g>
                <g id="arrowRight" xlink:href="#dirArrow" transform="rotate(90) translate(36 -43)" onmousedown="handlePan(1,0)">
                  <use xlink:href="#rim" fill="#404040">
                        <set attributeName="fill" to="#808080" begin="arrowRight.mouseover" end="arrowRight.mouseout"/>
                  </use>
                  <path fill="none" stroke="white" stroke-width="1.5" d="M0,-3.0v7 M-2.5,-0.5L0,-3.0L2.5,-0.5"/>
                </g>
                <g id="arrowDown" xlink:href="#dirArrow" transform="rotate(180) translate(-30 -48)" onmousedown="handlePan(0,1)">
                  <use xlink:href="#rim" fill="#404040">
                        <set attributeName="fill" to="#808080" begin="arrowDown.mouseover" end="arrowDown.mouseout"/>
                  </use>
                  <path fill="none" stroke="white" stroke-width="1.5" d="M0,-3.0v7 M-2.5,-0.5L0,-3.0L2.5,-0.5"/>
                </g>
                <g id="arrowLeft" xlink:href="#dirArrow" transform="rotate(270) translate(-36 17)" onmousedown="handlePan(-1,0)">
                  <use xlink:href="#rim" fill="#404040">
                        <set attributeName="fill" to="#808080" begin="arrowLeft.mouseover" end="arrowLeft.mouseout"/>
                  </use>
                  <path fill="none" stroke="white" stroke-width="1.5" d="M0,-3.0v7 M-2.5,-0.5L0,-3.0L2.5,-0.5"/>
                </g>
        </g>
        <svg viewBox="0 0 15 15" width="100%" height="30px" preserveAspectRatio="xMaxYMin meet">
         <g id="arrow_out" transform="scale(0.3 0.3)">
          <a xlink:href="classFeel_1_1FeelModels_1_1FluidMechanics__coll__graph_org.svg" target="_base">
           <rect id="button" ry="5" rx="5" y="6" x="6" height="38" width="38"
                fill="#f2f5e9" fill-opacity="0.5" stroke="#606060" stroke-width="1.0"/>
           <path id="arrow"
             d="M 11.500037,31.436501 C 11.940474,20.09759 22.043105,11.32322 32.158766,21.979434 L 37.068811,17.246167 C 37.068811,17.246167 37.088388,32 37.088388,32 L 22.160133,31.978069 C 22.160133,31.978069 26.997745,27.140456 26.997745,27.140456 C 18.528582,18.264221 13.291696,25.230495 11.500037,31.436501 z"
             style="fill:#404040;"/>
          </a>
         </g>
        </svg>
</svg>
