<?xml version="1.0" encoding="UTF-8" standalone="no"?>
<!DOCTYPE svg PUBLIC "-//W3C//DTD SVG 1.1//EN"
 "http://www.w3.org/Graphics/SVG/1.1/DTD/svg11.dtd">
<!-- Generated by graphviz version 2.43.0 (0)
 -->
<!-- Title: Feel::SensorSurface&lt; Space &gt; Pages: 1 -->
<svg width="252pt" height="657pt"
 viewBox="0.00 0.00 251.50 657.00" xmlns="http://www.w3.org/2000/svg" xmlns:xlink="http://www.w3.org/1999/xlink">
<g id="graph0" class="graph" transform="scale(1 1) rotate(0) translate(4 653)">
<title>Feel::SensorSurface&lt; Space &gt;</title>
<polygon fill="white" stroke="transparent" points="-4,4 -4,-653 247.5,-653 247.5,4 -4,4"/>
<!-- Node1 -->
<g id="node1" class="node">
<title>Node1</title>
<g id="a_node1"><a xlink:title="surface type sensor">
<polygon fill="#bfbfbf" stroke="black" points="120.5,-0.5 120.5,-134.5 233.5,-134.5 233.5,-0.5 120.5,-0.5"/>
<text text-anchor="start" x="128.5" y="-122.5" font-family="Helvetica,sans-Serif" font-size="10.00">Feel::SensorSurface</text>
<text text-anchor="middle" x="177" y="-111.5" font-family="Helvetica,sans-Serif" font-size="10.00">&lt; Space &gt;</text>
<polyline fill="none" stroke="black" points="120.5,-104.5 233.5,-104.5 "/>
<text text-anchor="middle" x="177" y="-92.5" font-family="Helvetica,sans-Serif" font-size="10.00"> </text>
<polyline fill="none" stroke="black" points="120.5,-85.5 233.5,-85.5 "/>
<text text-anchor="start" x="128.5" y="-73.5" font-family="Helvetica,sans-Serif" font-size="10.00">+ init()</text>
<text text-anchor="start" x="128.5" y="-62.5" font-family="Helvetica,sans-Serif" font-size="10.00">+ markers()</text>
<text text-anchor="start" x="128.5" y="-51.5" font-family="Helvetica,sans-Serif" font-size="10.00">+ SensorSurface()</text>
<text text-anchor="start" x="128.5" y="-40.5" font-family="Helvetica,sans-Serif" font-size="10.00">+ SensorSurface()</text>
<text text-anchor="start" x="128.5" y="-29.5" font-family="Helvetica,sans-Serif" font-size="10.00">+ setMarkers()</text>
<text text-anchor="start" x="128.5" y="-18.5" font-family="Helvetica,sans-Serif" font-size="10.00">+ to_json()</text>
<text text-anchor="start" x="128.5" y="-7.5" font-family="Helvetica,sans-Serif" font-size="10.00">+ ~SensorSurface()</text>
</a>
</g>
</g>
<!-- Node2 -->
<g id="node2" class="node">
<title>Node2</title>
<g id="a_node2"><a xlink:href="classFeel_1_1SensorBase.html" target="_top" xlink:title="base class for sensors">
<polygon fill="white" stroke="black" points="53.5,-182.5 53.5,-305.5 196.5,-305.5 196.5,-182.5 53.5,-182.5"/>
<text text-anchor="start" x="61.5" y="-293.5" font-family="Helvetica,sans-Serif" font-size="10.00">Feel::SensorBase&lt; Space,</text>
<text text-anchor="middle" x="125" y="-282.5" font-family="Helvetica,sans-Serif" font-size="10.00"> ValueT &gt;</text>
<polyline fill="none" stroke="black" points="53.5,-275.5 196.5,-275.5 "/>
<text text-anchor="middle" x="125" y="-263.5" font-family="Helvetica,sans-Serif" font-size="10.00"> </text>
<polyline fill="none" stroke="black" points="53.5,-256.5 196.5,-256.5 "/>
<text text-anchor="start" x="61.5" y="-244.5" font-family="Helvetica,sans-Serif" font-size="10.00">+ init()</text>
<text text-anchor="start" x="61.5" y="-233.5" font-family="Helvetica,sans-Serif" font-size="10.00">+ name()</text>
<text text-anchor="start" x="61.5" y="-222.5" font-family="Helvetica,sans-Serif" font-size="10.00">+ SensorBase()</text>
<text text-anchor="start" x="61.5" y="-211.5" font-family="Helvetica,sans-Serif" font-size="10.00">+ SensorBase()</text>
<text text-anchor="start" x="61.5" y="-200.5" font-family="Helvetica,sans-Serif" font-size="10.00">+ setName()</text>
<text text-anchor="start" x="61.5" y="-189.5" font-family="Helvetica,sans-Serif" font-size="10.00">and 4 more...</text>
</a>
</g>
</g>
<!-- Node2&#45;&gt;Node1 -->
<g id="edge1" class="edge">
<title>Node2&#45;&gt;Node1</title>
<path fill="none" stroke="midnightblue" d="M146,-172.53C149.73,-160 153.61,-147 157.3,-134.59"/>
<polygon fill="none" stroke="midnightblue" points="142.54,-171.87 143.04,-182.46 149.25,-173.87 142.54,-171.87"/>
</g>
<!-- Node3 -->
<g id="node3" class="node">
<title>Node3</title>
<g id="a_node3"><a xlink:href="classFeel_1_1FsFunctionalLinear.html" target="_top" xlink:title=" ">
<polygon fill="white" stroke="#bfbfbf" points="0,-364.5 0,-487.5 134,-487.5 134,-364.5 0,-364.5"/>
<text text-anchor="start" x="8" y="-475.5" font-family="Helvetica,sans-Serif" font-size="10.00">Feel::FsFunctionalLinear</text>
<text text-anchor="middle" x="67" y="-464.5" font-family="Helvetica,sans-Serif" font-size="10.00">&lt; Space &gt;</text>
<polyline fill="none" stroke="#bfbfbf" points="0,-457.5 134,-457.5 "/>
<text text-anchor="middle" x="67" y="-445.5" font-family="Helvetica,sans-Serif" font-size="10.00"> </text>
<polyline fill="none" stroke="#bfbfbf" points="0,-438.5 134,-438.5 "/>
<text text-anchor="start" x="8" y="-426.5" font-family="Helvetica,sans-Serif" font-size="10.00">+ add()</text>
<text text-anchor="start" x="8" y="-415.5" font-family="Helvetica,sans-Serif" font-size="10.00">+ close()</text>
<text text-anchor="start" x="8" y="-404.5" font-family="Helvetica,sans-Serif" font-size="10.00">+ container()</text>
<text text-anchor="start" x="8" y="-393.5" font-family="Helvetica,sans-Serif" font-size="10.00">+ container()</text>
<text text-anchor="start" x="8" y="-382.5" font-family="Helvetica,sans-Serif" font-size="10.00">+ container()</text>
<text text-anchor="start" x="8" y="-371.5" font-family="Helvetica,sans-Serif" font-size="10.00">and 12 more...</text>
</a>
</g>
</g>
<!-- Node3&#45;&gt;Node2 -->
<g id="edge2" class="edge">
<title>Node3&#45;&gt;Node2</title>
<path fill="none" stroke="midnightblue" d="M89.74,-354.42C94.93,-338.33 100.39,-321.37 105.43,-305.73"/>
<polygon fill="none" stroke="midnightblue" points="86.29,-353.72 86.56,-364.31 92.95,-355.87 86.29,-353.72"/>
</g>
<!-- Node4 -->
<g id="node4" class="node">
<title>Node4</title>
<g id="a_node4"><a xlink:href="classFeel_1_1FsFunctional.html" target="_top" xlink:title=" ">
<polygon fill="white" stroke="#bfbfbf" points="12.5,-525.5 12.5,-648.5 117.5,-648.5 117.5,-525.5 12.5,-525.5"/>
<text text-anchor="start" x="20.5" y="-636.5" font-family="Helvetica,sans-Serif" font-size="10.00">Feel::FsFunctional</text>
<text text-anchor="middle" x="65" y="-625.5" font-family="Helvetica,sans-Serif" font-size="10.00">&lt; Space &gt;</text>
<polyline fill="none" stroke="#bfbfbf" points="12.5,-618.5 117.5,-618.5 "/>
<text text-anchor="middle" x="65" y="-606.5" font-family="Helvetica,sans-Serif" font-size="10.00"> </text>
<polyline fill="none" stroke="#bfbfbf" points="12.5,-599.5 117.5,-599.5 "/>
<text text-anchor="start" x="20.5" y="-587.5" font-family="Helvetica,sans-Serif" font-size="10.00">+ FsFunctional()</text>
<text text-anchor="start" x="20.5" y="-576.5" font-family="Helvetica,sans-Serif" font-size="10.00">+ FsFunctional()</text>
<text text-anchor="start" x="20.5" y="-565.5" font-family="Helvetica,sans-Serif" font-size="10.00">+ operator()()</text>
<text text-anchor="start" x="20.5" y="-554.5" font-family="Helvetica,sans-Serif" font-size="10.00">+ setSpace()</text>
<text text-anchor="start" x="20.5" y="-543.5" font-family="Helvetica,sans-Serif" font-size="10.00">+ space()</text>
<text text-anchor="start" x="20.5" y="-532.5" font-family="Helvetica,sans-Serif" font-size="10.00">+ ~FsFunctional()</text>
</a>
</g>
</g>
<!-- Node4&#45;&gt;Node3 -->
<g id="edge3" class="edge">
<title>Node4&#45;&gt;Node3</title>
<path fill="none" stroke="midnightblue" d="M65.89,-515.17C66.01,-505.99 66.12,-496.65 66.24,-487.66"/>
<polygon fill="none" stroke="midnightblue" points="62.39,-515.39 65.76,-525.44 69.39,-515.48 62.39,-515.39"/>
</g>
<!-- Node5 -->
<g id="node5" class="node">
<title>Node5</title>
<g id="a_node5"><a xlink:title=" ">
<polygon fill="white" stroke="black" points="154.5,-397.5 154.5,-454.5 219.5,-454.5 219.5,-397.5 154.5,-397.5"/>
<text text-anchor="middle" x="187" y="-442.5" font-family="Helvetica,sans-Serif" font-size="10.00">std::string</text>
<polyline fill="none" stroke="black" points="154.5,-435.5 219.5,-435.5 "/>
<text text-anchor="middle" x="187" y="-423.5" font-family="Helvetica,sans-Serif" font-size="10.00"> </text>
<polyline fill="none" stroke="black" points="154.5,-416.5 219.5,-416.5 "/>
<text text-anchor="middle" x="187" y="-404.5" font-family="Helvetica,sans-Serif" font-size="10.00"> </text>
</a>
</g>
</g>
<!-- Node5&#45;&gt;Node2 -->
<g id="edge4" class="edge">
<title>Node5&#45;&gt;Node2</title>
<path fill="none" stroke="#404040" d="M177.45,-397.27C170.07,-375.86 159.52,-345.23 149.82,-317.05"/>
<polygon fill="none" stroke="#404040" points="149.77,-316.92 144.04,-312.55 145.86,-305.57 151.6,-309.94 149.77,-316.92"/>
<text text-anchor="middle" x="187" y="-338" font-family="Helvetica,sans-Serif" font-size="10.00"> #M_name</text>
<text text-anchor="middle" x="187" y="-327" font-family="Helvetica,sans-Serif" font-size="10.00">#M_type</text>
</g>
<!-- Node6 -->
<g id="node6" class="node">
<title>Node6</title>
<g id="a_node6"><a xlink:title=" ">
<polygon fill="white" stroke="black" points="136,-553 136,-621 240,-621 240,-553 136,-553"/>
<text text-anchor="start" x="144" y="-609" font-family="Helvetica,sans-Serif" font-size="10.00">std::basic_string&lt;</text>
<text text-anchor="middle" x="188" y="-598" font-family="Helvetica,sans-Serif" font-size="10.00"> Char &gt;</text>
<polyline fill="none" stroke="black" points="136,-591 240,-591 "/>
<text text-anchor="middle" x="188" y="-579" font-family="Helvetica,sans-Serif" font-size="10.00"> </text>
<polyline fill="none" stroke="black" points="136,-572 240,-572 "/>
<text text-anchor="middle" x="188" y="-560" font-family="Helvetica,sans-Serif" font-size="10.00"> </text>
</a>
</g>
</g>
<!-- Node6&#45;&gt;Node5 -->
<g id="edge5" class="edge">
<title>Node6&#45;&gt;Node5</title>
<path fill="none" stroke="midnightblue" d="M187.73,-542.35C187.55,-514.37 187.33,-478.9 187.17,-454.72"/>
<polygon fill="none" stroke="midnightblue" points="184.23,-542.69 187.79,-552.67 191.23,-542.65 184.23,-542.69"/>
</g>
<!-- Node7 -->
<g id="node7" class="node">
<title>Node7</title>
<g id="a_node7"><a xlink:href="classint.html" target="_top" xlink:title=" ">
<polygon fill="white" stroke="#bfbfbf" points="214.5,-215.5 214.5,-272.5 243.5,-272.5 243.5,-215.5 214.5,-215.5"/>
<text text-anchor="middle" x="229" y="-260.5" font-family="Helvetica,sans-Serif" font-size="10.00">int</text>
<polyline fill="none" stroke="#bfbfbf" points="214.5,-253.5 243.5,-253.5 "/>
<text text-anchor="middle" x="229" y="-241.5" font-family="Helvetica,sans-Serif" font-size="10.00"> </text>
<polyline fill="none" stroke="#bfbfbf" points="214.5,-234.5 243.5,-234.5 "/>
<text text-anchor="middle" x="229" y="-222.5" font-family="Helvetica,sans-Serif" font-size="10.00"> </text>
</a>
</g>
</g>
<!-- Node7&#45;&gt;Node1 -->
<g id="edge6" class="edge">
<title>Node7&#45;&gt;Node1</title>
<path fill="none" stroke="#404040" d="M220.76,-215.35C215.2,-196.68 207.56,-171.04 200.22,-146.41"/>
<polygon fill="none" stroke="#404040" points="200.19,-146.31 194.64,-141.71 196.76,-134.81 202.31,-139.42 200.19,-146.31"/>
<text text-anchor="middle" x="223" y="-156" font-family="Helvetica,sans-Serif" font-size="10.00"> +nDim</text>
</g>
</g>
</svg>
