<?xml version="1.0" encoding="UTF-8" standalone="no"?>
<!DOCTYPE svg PUBLIC "-//W3C//DTD SVG 1.1//EN"
 "http://www.w3.org/Graphics/SVG/1.1/DTD/svg11.dtd">
<!-- Generated by graphviz version 2.43.0 (0)
 -->
<!-- Title: nlohmann::byte_container_with_subtype&lt; BinaryType &gt; Pages: 1 -->
<svg width="172pt" height="281pt"
 viewBox="0.00 0.00 172.00 281.00" xmlns="http://www.w3.org/2000/svg" xmlns:xlink="http://www.w3.org/1999/xlink">
<g id="graph0" class="graph" transform="scale(1 1) rotate(0) translate(4 277)">
<title>nlohmann::byte_container_with_subtype&lt; BinaryType &gt;</title>
<polygon fill="white" stroke="transparent" points="-4,4 -4,-277 168,-277 168,4 -4,4"/>
<!-- Node1 -->
<g id="node1" class="node">
<title>Node1</title>
<g id="a_node1"><a xlink:title="an internal type for a backed binary type">
<polygon fill="#bfbfbf" stroke="black" points="0,-0.5 0,-178.5 164,-178.5 164,-0.5 0,-0.5"/>
<text text-anchor="start" x="8" y="-166.5" font-family="Helvetica,sans-Serif" font-size="10.00">nlohmann::byte_container</text>
<text text-anchor="middle" x="82" y="-155.5" font-family="Helvetica,sans-Serif" font-size="10.00">_with_subtype&lt; BinaryType &gt;</text>
<polyline fill="none" stroke="black" points="0,-148.5 164,-148.5 "/>
<text text-anchor="middle" x="82" y="-136.5" font-family="Helvetica,sans-Serif" font-size="10.00"> </text>
<polyline fill="none" stroke="black" points="0,-129.5 164,-129.5 "/>
<text text-anchor="start" x="8" y="-117.5" font-family="Helvetica,sans-Serif" font-size="10.00">+ byte_container_with</text>
<text text-anchor="start" x="8" y="-106.5" font-family="Helvetica,sans-Serif" font-size="10.00">_subtype()</text>
<text text-anchor="start" x="8" y="-95.5" font-family="Helvetica,sans-Serif" font-size="10.00">+ byte_container_with</text>
<text text-anchor="start" x="8" y="-84.5" font-family="Helvetica,sans-Serif" font-size="10.00">_subtype()</text>
<text text-anchor="start" x="8" y="-73.5" font-family="Helvetica,sans-Serif" font-size="10.00">+ byte_container_with</text>
<text text-anchor="start" x="8" y="-62.5" font-family="Helvetica,sans-Serif" font-size="10.00">_subtype()</text>
<text text-anchor="start" x="8" y="-51.5" font-family="Helvetica,sans-Serif" font-size="10.00">+ byte_container_with</text>
<text text-anchor="start" x="8" y="-40.5" font-family="Helvetica,sans-Serif" font-size="10.00">_subtype()</text>
<text text-anchor="start" x="8" y="-29.5" font-family="Helvetica,sans-Serif" font-size="10.00">+ byte_container_with</text>
<text text-anchor="start" x="8" y="-18.5" font-family="Helvetica,sans-Serif" font-size="10.00">_subtype()</text>
<text text-anchor="start" x="8" y="-7.5" font-family="Helvetica,sans-Serif" font-size="10.00">and 6 more...</text>
</a>
</g>
</g>
<!-- Node2 -->
<g id="node2" class="node">
<title>Node2</title>
<g id="a_node2"><a xlink:href="classBinaryType.html" target="_top" xlink:title=" ">
<polygon fill="white" stroke="black" points="46.5,-215.5 46.5,-272.5 117.5,-272.5 117.5,-215.5 46.5,-215.5"/>
<text text-anchor="middle" x="82" y="-260.5" font-family="Helvetica,sans-Serif" font-size="10.00">BinaryType</text>
<polyline fill="none" stroke="black" points="46.5,-253.5 117.5,-253.5 "/>
<text text-anchor="middle" x="82" y="-241.5" font-family="Helvetica,sans-Serif" font-size="10.00"> </text>
<polyline fill="none" stroke="black" points="46.5,-234.5 117.5,-234.5 "/>
<text text-anchor="middle" x="82" y="-222.5" font-family="Helvetica,sans-Serif" font-size="10.00"> </text>
</a>
</g>
</g>
<!-- Node2&#45;&gt;Node1 -->
<g id="edge1" class="edge">
<title>Node2&#45;&gt;Node1</title>
<path fill="none" stroke="midnightblue" d="M82,-205.37C82,-197.09 82,-187.98 82,-178.62"/>
<polygon fill="none" stroke="midnightblue" points="78.5,-205.38 82,-215.38 85.5,-205.38 78.5,-205.38"/>
</g>
</g>
</svg>
