<?xml version="1.0" encoding="UTF-8" standalone="no"?>
<!DOCTYPE svg PUBLIC "-//W3C//DTD SVG 1.1//EN"
 "http://www.w3.org/Graphics/SVG/1.1/DTD/svg11.dtd">
<!-- Generated by graphviz version 2.43.0 (0)
 -->
<!-- Title: Feel::FeelModels::BoundaryConditionsBase Pages: 1 -->
<svg width="1204pt" height="325pt"
 viewBox="0.00 0.00 1204.00 325.00" xmlns="http://www.w3.org/2000/svg" xmlns:xlink="http://www.w3.org/1999/xlink">
<g id="graph0" class="graph" transform="scale(1 1) rotate(0) translate(4 321)">
<title>Feel::FeelModels::BoundaryConditionsBase</title>
<polygon fill="white" stroke="transparent" points="-4,4 -4,-321 1200,-321 1200,4 -4,4"/>
<!-- Node1 -->
<g id="node1" class="node">
<title>Node1</title>
<g id="a_node1"><a xlink:title=" ">
<polygon fill="#bfbfbf" stroke="black" points="509,-215.5 509,-316.5 667,-316.5 667,-215.5 509,-215.5"/>
<text text-anchor="start" x="517" y="-304.5" font-family="Helvetica,sans-Serif" font-size="10.00">Feel::FeelModels::Boundary</text>
<text text-anchor="middle" x="588" y="-293.5" font-family="Helvetica,sans-Serif" font-size="10.00">ConditionsBase</text>
<polyline fill="none" stroke="black" points="509,-286.5 667,-286.5 "/>
<text text-anchor="start" x="517" y="-274.5" font-family="Helvetica,sans-Serif" font-size="10.00"># M_toolboxParent</text>
<polyline fill="none" stroke="black" points="509,-267.5 667,-267.5 "/>
<text text-anchor="start" x="517" y="-255.5" font-family="Helvetica,sans-Serif" font-size="10.00">+ BoundaryConditionsBase()</text>
<text text-anchor="start" x="517" y="-244.5" font-family="Helvetica,sans-Serif" font-size="10.00">+ BoundaryConditionsBase()</text>
<text text-anchor="start" x="517" y="-233.5" font-family="Helvetica,sans-Serif" font-size="10.00">+ BoundaryConditionsBase()</text>
<text text-anchor="start" x="517" y="-222.5" font-family="Helvetica,sans-Serif" font-size="10.00">+ toolboxParent()</text>
</a>
</g>
</g>
<!-- Node2 -->
<g id="node2" class="node">
<title>Node2</title>
<g id="a_node2"><a xlink:href="classFeel_1_1FeelModels_1_1CoefficientFormPDEBoundaryConditions.html" target="_top" xlink:title=" ">
<polygon fill="white" stroke="#bfbfbf" points="0,-0.5 0,-178.5 172,-178.5 172,-0.5 0,-0.5"/>
<text text-anchor="start" x="8" y="-166.5" font-family="Helvetica,sans-Serif" font-size="10.00">Feel::FeelModels::Coefficient</text>
<text text-anchor="start" x="8" y="-155.5" font-family="Helvetica,sans-Serif" font-size="10.00">FormPDEBoundaryConditions</text>
<text text-anchor="middle" x="86" y="-144.5" font-family="Helvetica,sans-Serif" font-size="10.00">&lt; Dim, EquationRank &gt;</text>
<polyline fill="none" stroke="#bfbfbf" points="0,-137.5 172,-137.5 "/>
<text text-anchor="middle" x="86" y="-125.5" font-family="Helvetica,sans-Serif" font-size="10.00"> </text>
<polyline fill="none" stroke="#bfbfbf" points="0,-118.5 172,-118.5 "/>
<text text-anchor="start" x="8" y="-106.5" font-family="Helvetica,sans-Serif" font-size="10.00">+ applyDofEliminationLinear()</text>
<text text-anchor="start" x="8" y="-95.5" font-family="Helvetica,sans-Serif" font-size="10.00">+ applyNewtonInitialGuess()</text>
<text text-anchor="start" x="8" y="-84.5" font-family="Helvetica,sans-Serif" font-size="10.00">+ CoefficientFormPDEBoundary</text>
<text text-anchor="start" x="8" y="-73.5" font-family="Helvetica,sans-Serif" font-size="10.00">Conditions()</text>
<text text-anchor="start" x="8" y="-62.5" font-family="Helvetica,sans-Serif" font-size="10.00">+ CoefficientFormPDEBoundary</text>
<text text-anchor="start" x="8" y="-51.5" font-family="Helvetica,sans-Serif" font-size="10.00">Conditions()</text>
<text text-anchor="start" x="8" y="-40.5" font-family="Helvetica,sans-Serif" font-size="10.00">+ CoefficientFormPDEBoundary</text>
<text text-anchor="start" x="8" y="-29.5" font-family="Helvetica,sans-Serif" font-size="10.00">Conditions()</text>
<text text-anchor="start" x="8" y="-18.5" font-family="Helvetica,sans-Serif" font-size="10.00">and 7 more...</text>
<text text-anchor="start" x="8" y="-7.5" font-family="Helvetica,sans-Serif" font-size="10.00">+ tabulateInformations()</text>
</a>
</g>
</g>
<!-- Node1&#45;&gt;Node2 -->
<g id="edge1" class="edge">
<title>Node1&#45;&gt;Node2</title>
<path fill="none" stroke="midnightblue" d="M498.85,-259.93C413.15,-251.97 282.1,-231.52 181,-179 178,-177.44 175.02,-175.76 172.08,-173.98"/>
<polygon fill="none" stroke="midnightblue" points="498.54,-263.42 508.81,-260.82 499.16,-256.44 498.54,-263.42"/>
</g>
<!-- Node3 -->
<g id="node3" class="node">
<title>Node3</title>
<g id="a_node3"><a xlink:href="classFeel_1_1FeelModels_1_1ElectricBoundaryConditions.html" target="_top" xlink:title=" ">
<polygon fill="white" stroke="#bfbfbf" points="190,-22.5 190,-156.5 360,-156.5 360,-22.5 190,-22.5"/>
<text text-anchor="start" x="198" y="-144.5" font-family="Helvetica,sans-Serif" font-size="10.00">Feel::FeelModels::Electric</text>
<text text-anchor="middle" x="275" y="-133.5" font-family="Helvetica,sans-Serif" font-size="10.00">BoundaryConditions</text>
<polyline fill="none" stroke="#bfbfbf" points="190,-126.5 360,-126.5 "/>
<text text-anchor="middle" x="275" y="-114.5" font-family="Helvetica,sans-Serif" font-size="10.00"> </text>
<polyline fill="none" stroke="#bfbfbf" points="190,-107.5 360,-107.5 "/>
<text text-anchor="start" x="198" y="-95.5" font-family="Helvetica,sans-Serif" font-size="10.00">+ applyDofEliminationLinear()</text>
<text text-anchor="start" x="198" y="-84.5" font-family="Helvetica,sans-Serif" font-size="10.00">+ applyNewtonInitialGuess()</text>
<text text-anchor="start" x="198" y="-73.5" font-family="Helvetica,sans-Serif" font-size="10.00">+ ElectricBoundaryConditions()</text>
<text text-anchor="start" x="198" y="-62.5" font-family="Helvetica,sans-Serif" font-size="10.00">+ ElectricBoundaryConditions()</text>
<text text-anchor="start" x="198" y="-51.5" font-family="Helvetica,sans-Serif" font-size="10.00">+ ElectricBoundaryConditions()</text>
<text text-anchor="start" x="198" y="-40.5" font-family="Helvetica,sans-Serif" font-size="10.00">and 6 more...</text>
<text text-anchor="start" x="198" y="-29.5" font-family="Helvetica,sans-Serif" font-size="10.00">+ tabulateInformations()</text>
</a>
</g>
</g>
<!-- Node1&#45;&gt;Node3 -->
<g id="edge2" class="edge">
<title>Node1&#45;&gt;Node3</title>
<path fill="none" stroke="midnightblue" d="M499.27,-238.8C457.91,-224.46 409.09,-204.4 369,-179 358.68,-172.46 348.5,-164.7 338.85,-156.52"/>
<polygon fill="none" stroke="midnightblue" points="498.2,-242.13 508.79,-242.04 500.46,-235.5 498.2,-242.13"/>
</g>
<!-- Node4 -->
<g id="node4" class="node">
<title>Node4</title>
<g id="a_node4"><a xlink:href="classFeel_1_1FeelModels_1_1FluidMechanicsBoundaryConditions.html" target="_top" xlink:title="Boundary Conditions in fluid mechanics.">
<polygon fill="white" stroke="black" points="378.5,-22.5 378.5,-156.5 587.5,-156.5 587.5,-22.5 378.5,-22.5"/>
<text text-anchor="start" x="386.5" y="-144.5" font-family="Helvetica,sans-Serif" font-size="10.00">Feel::FeelModels::FluidMechanics</text>
<text text-anchor="middle" x="483" y="-133.5" font-family="Helvetica,sans-Serif" font-size="10.00">BoundaryConditions&lt; Dim &gt;</text>
<polyline fill="none" stroke="black" points="378.5,-126.5 587.5,-126.5 "/>
<text text-anchor="middle" x="483" y="-114.5" font-family="Helvetica,sans-Serif" font-size="10.00"> </text>
<polyline fill="none" stroke="black" points="378.5,-107.5 587.5,-107.5 "/>
<text text-anchor="start" x="386.5" y="-95.5" font-family="Helvetica,sans-Serif" font-size="10.00">+ applyDofEliminationLinear()</text>
<text text-anchor="start" x="386.5" y="-84.5" font-family="Helvetica,sans-Serif" font-size="10.00">+ applyNewtonInitialGuess()</text>
<text text-anchor="start" x="386.5" y="-73.5" font-family="Helvetica,sans-Serif" font-size="10.00">+ bodyInterface()</text>
<text text-anchor="start" x="386.5" y="-62.5" font-family="Helvetica,sans-Serif" font-size="10.00">+ FluidMechanicsBoundaryConditions()</text>
<text text-anchor="start" x="386.5" y="-51.5" font-family="Helvetica,sans-Serif" font-size="10.00">+ FluidMechanicsBoundaryConditions()</text>
<text text-anchor="start" x="386.5" y="-40.5" font-family="Helvetica,sans-Serif" font-size="10.00">and 15 more...</text>
<text text-anchor="start" x="386.5" y="-29.5" font-family="Helvetica,sans-Serif" font-size="10.00">+ tabulateInformations()</text>
</a>
</g>
</g>
<!-- Node1&#45;&gt;Node4 -->
<g id="edge3" class="edge">
<title>Node1&#45;&gt;Node4</title>
<path fill="none" stroke="midnightblue" d="M552.94,-206.73C543.3,-190.71 532.77,-173.22 522.89,-156.79"/>
<polygon fill="none" stroke="midnightblue" points="550.04,-208.7 558.19,-215.46 556.04,-205.09 550.04,-208.7"/>
</g>
<!-- Node5 -->
<g id="node5" class="node">
<title>Node5</title>
<g id="a_node5"><a xlink:href="classFeel_1_1FeelModels_1_1HeatBoundaryConditions.html" target="_top" xlink:title=" ">
<polygon fill="white" stroke="#bfbfbf" points="606,-22.5 606,-156.5 780,-156.5 780,-22.5 606,-22.5"/>
<text text-anchor="start" x="614" y="-144.5" font-family="Helvetica,sans-Serif" font-size="10.00">Feel::FeelModels::HeatBoundary</text>
<text text-anchor="middle" x="693" y="-133.5" font-family="Helvetica,sans-Serif" font-size="10.00">Conditions</text>
<polyline fill="none" stroke="#bfbfbf" points="606,-126.5 780,-126.5 "/>
<text text-anchor="middle" x="693" y="-114.5" font-family="Helvetica,sans-Serif" font-size="10.00"> </text>
<polyline fill="none" stroke="#bfbfbf" points="606,-107.5 780,-107.5 "/>
<text text-anchor="start" x="614" y="-95.5" font-family="Helvetica,sans-Serif" font-size="10.00">+ applyDofEliminationLinear()</text>
<text text-anchor="start" x="614" y="-84.5" font-family="Helvetica,sans-Serif" font-size="10.00">+ applyNewtonInitialGuess()</text>
<text text-anchor="start" x="614" y="-73.5" font-family="Helvetica,sans-Serif" font-size="10.00">+ convectiveHeatFlux()</text>
<text text-anchor="start" x="614" y="-62.5" font-family="Helvetica,sans-Serif" font-size="10.00">+ hasTypeDofElimination()</text>
<text text-anchor="start" x="614" y="-51.5" font-family="Helvetica,sans-Serif" font-size="10.00">+ HeatBoundaryConditions()</text>
<text text-anchor="start" x="614" y="-40.5" font-family="Helvetica,sans-Serif" font-size="10.00">and 7 more...</text>
<text text-anchor="start" x="614" y="-29.5" font-family="Helvetica,sans-Serif" font-size="10.00">+ tabulateInformations()</text>
</a>
</g>
</g>
<!-- Node1&#45;&gt;Node5 -->
<g id="edge4" class="edge">
<title>Node1&#45;&gt;Node5</title>
<path fill="none" stroke="midnightblue" d="M623.06,-206.73C632.7,-190.71 643.23,-173.22 653.11,-156.79"/>
<polygon fill="none" stroke="midnightblue" points="619.96,-205.09 617.81,-215.46 625.96,-208.7 619.96,-205.09"/>
</g>
<!-- Node6 -->
<g id="node6" class="node">
<title>Node6</title>
<g id="a_node6"><a xlink:href="classFeel_1_1FeelModels_1_1SolidMechanics1dReducedBoundaryConditions.html" target="_top" xlink:title=" ">
<polygon fill="white" stroke="#bfbfbf" points="798,-22.5 798,-156.5 998,-156.5 998,-22.5 798,-22.5"/>
<text text-anchor="start" x="806" y="-144.5" font-family="Helvetica,sans-Serif" font-size="10.00">Feel::FeelModels::SolidMechanics1d</text>
<text text-anchor="middle" x="898" y="-133.5" font-family="Helvetica,sans-Serif" font-size="10.00">ReducedBoundaryConditions&lt; Dim &gt;</text>
<polyline fill="none" stroke="#bfbfbf" points="798,-126.5 998,-126.5 "/>
<text text-anchor="middle" x="898" y="-114.5" font-family="Helvetica,sans-Serif" font-size="10.00"> </text>
<polyline fill="none" stroke="#bfbfbf" points="798,-107.5 998,-107.5 "/>
<text text-anchor="start" x="806" y="-95.5" font-family="Helvetica,sans-Serif" font-size="10.00">+ applyDofEliminationLinear()</text>
<text text-anchor="start" x="806" y="-84.5" font-family="Helvetica,sans-Serif" font-size="10.00">+ applyNewtonInitialGuess()</text>
<text text-anchor="start" x="806" y="-73.5" font-family="Helvetica,sans-Serif" font-size="10.00">+ displacementImposed()</text>
<text text-anchor="start" x="806" y="-62.5" font-family="Helvetica,sans-Serif" font-size="10.00">+ hasTypeDofElimination()</text>
<text text-anchor="start" x="806" y="-51.5" font-family="Helvetica,sans-Serif" font-size="10.00">+ setParameterValues()</text>
<text text-anchor="start" x="806" y="-40.5" font-family="Helvetica,sans-Serif" font-size="10.00">and 5 more...</text>
<text text-anchor="start" x="806" y="-29.5" font-family="Helvetica,sans-Serif" font-size="10.00">+ tabulateInformations()</text>
</a>
</g>
</g>
<!-- Node1&#45;&gt;Node6 -->
<g id="edge5" class="edge">
<title>Node1&#45;&gt;Node6</title>
<path fill="none" stroke="midnightblue" d="M676.81,-233.19C712.76,-218.75 753.95,-200.16 789,-179 800.06,-172.32 811.21,-164.62 821.94,-156.6"/>
<polygon fill="none" stroke="midnightblue" points="675.32,-230.02 667.31,-236.96 677.9,-236.53 675.32,-230.02"/>
</g>
<!-- Node7 -->
<g id="node7" class="node">
<title>Node7</title>
<g id="a_node7"><a xlink:href="classFeel_1_1FeelModels_1_1SolidMechanicsBoundaryConditions.html" target="_top" xlink:title=" ">
<polygon fill="white" stroke="#bfbfbf" points="1016,-22.5 1016,-156.5 1196,-156.5 1196,-22.5 1016,-22.5"/>
<text text-anchor="start" x="1024" y="-144.5" font-family="Helvetica,sans-Serif" font-size="10.00">Feel::FeelModels::SolidMechanics</text>
<text text-anchor="middle" x="1106" y="-133.5" font-family="Helvetica,sans-Serif" font-size="10.00">BoundaryConditions&lt; Dim &gt;</text>
<polyline fill="none" stroke="#bfbfbf" points="1016,-126.5 1196,-126.5 "/>
<text text-anchor="middle" x="1106" y="-114.5" font-family="Helvetica,sans-Serif" font-size="10.00"> </text>
<polyline fill="none" stroke="#bfbfbf" points="1016,-107.5 1196,-107.5 "/>
<text text-anchor="start" x="1024" y="-95.5" font-family="Helvetica,sans-Serif" font-size="10.00">+ applyDofEliminationLinear()</text>
<text text-anchor="start" x="1024" y="-84.5" font-family="Helvetica,sans-Serif" font-size="10.00">+ applyNewtonInitialGuess()</text>
<text text-anchor="start" x="1024" y="-73.5" font-family="Helvetica,sans-Serif" font-size="10.00">+ displacementImposed()</text>
<text text-anchor="start" x="1024" y="-62.5" font-family="Helvetica,sans-Serif" font-size="10.00">+ hasTypeDofElimination()</text>
<text text-anchor="start" x="1024" y="-51.5" font-family="Helvetica,sans-Serif" font-size="10.00">+ normalStress()</text>
<text text-anchor="start" x="1024" y="-40.5" font-family="Helvetica,sans-Serif" font-size="10.00">and 7 more...</text>
<text text-anchor="start" x="1024" y="-29.5" font-family="Helvetica,sans-Serif" font-size="10.00">+ tabulateInformations()</text>
</a>
</g>
</g>
<!-- Node1&#45;&gt;Node7 -->
<g id="edge6" class="edge">
<title>Node1&#45;&gt;Node7</title>
<path fill="none" stroke="midnightblue" d="M677.52,-260.16C765.5,-252.36 901.54,-232.03 1007,-179 1018.95,-172.99 1030.56,-165.16 1041.38,-156.65"/>
<polygon fill="none" stroke="midnightblue" points="676.97,-256.69 667.3,-261.02 677.56,-263.67 676.97,-256.69"/>
</g>
</g>
</svg>
