<?xml version="1.0" encoding="UTF-8" standalone="no"?>
<!DOCTYPE svg PUBLIC "-//W3C//DTD SVG 1.1//EN"
 "http://www.w3.org/Graphics/SVG/1.1/DTD/svg11.dtd">
<!-- Generated by graphviz version 2.43.0 (0)
 -->
<!-- Title: Feel::TabulateInformationsSections Pages: 1 -->
<!--zoomable 475 -->
<svg id="main" version="1.1" xmlns="http://www.w3.org/2000/svg" xmlns:xlink="http://www.w3.org/1999/xlink" xml:space="preserve" onload="init(evt)">
<style type="text/css"><![CDATA[
.edge:hover path { stroke: red; }
.edge:hover polygon { stroke: red; fill: red; }
]]></style>
<script type="text/javascript"><![CDATA[
var edges = document.getElementsByTagName('g');
if (edges && edges.length) {
  for (var i=0;i<edges.length;i++) {
    if (edges[i].id.substr(0,4)=='edge') {
      edges[i].setAttribute('class','edge');
    }
  }
}
]]></script>
        <defs>
                <circle id="rim" cx="0" cy="0" r="7"/>
                <circle id="rim2" cx="0" cy="0" r="3.5"/>
                <g id="zoomPlus">
                        <use xlink:href="#rim" fill="#404040">
                                <set attributeName="fill" to="#808080" begin="zoomplus.mouseover" end="zoomplus.mouseout"/>
                        </use>
                        <path d="M-4,0h8M0,-4v8" fill="none" stroke="white" stroke-width="1.5" pointer-events="none"/>
                </g>
                <g id="zoomMin">
                        <use xlink:href="#rim" fill="#404040">
                                <set attributeName="fill" to="#808080" begin="zoomminus.mouseover" end="zoomminus.mouseout"/>
                        </use>
                        <path d="M-4,0h8" fill="none" stroke="white" stroke-width="1.5" pointer-events="none"/>
                </g>
                <g id="dirArrow">
                        <path fill="none" stroke="white" stroke-width="1.5" d="M0,-3.0v7 M-2.5,-0.5L0,-3.0L2.5,-0.5"/>
                </g>
               <g id="resetDef">
                       <use xlink:href="#rim2" fill="#404040">
                               <set attributeName="fill" to="#808080" begin="reset.mouseover" end="reset.mouseout"/>
                       </use>
               </g>
        </defs>

<script type="text/javascript">
var viewWidth = 368;
var viewHeight = 475;
var sectionId = 'dynsection-1';
</script>
<script xlink:href="svgpan.js"/>
<svg id="graph" class="graph">
<g id="viewport">
<title>Feel::TabulateInformationsSections</title>
<polygon fill="white" stroke="transparent" points="-4,4 -4,-471 363.5,-471 363.5,4 -4,4"/>
<!-- Node1 -->
<g id="node1" class="node">
<title>Node1</title>
<g id="a_node1"><a xlink:title="describe informations by section">
<polygon fill="#bfbfbf" stroke="black" points="83,-0.5 83,-134.5 263,-134.5 263,-0.5 83,-0.5"/>
<text text-anchor="start" x="91" y="-122.5" font-family="Helvetica,sans-Serif" font-size="10.00">Feel::TabulateInformations</text>
<text text-anchor="middle" x="173" y="-111.5" font-family="Helvetica,sans-Serif" font-size="10.00">Sections</text>
<polyline fill="none" stroke="black" points="83,-104.5 263,-104.5 "/>
<text text-anchor="middle" x="173" y="-92.5" font-family="Helvetica,sans-Serif" font-size="10.00"> </text>
<polyline fill="none" stroke="black" points="83,-85.5 263,-85.5 "/>
<text text-anchor="start" x="91" y="-73.5" font-family="Helvetica,sans-Serif" font-size="10.00">+ add()</text>
<text text-anchor="start" x="91" y="-62.5" font-family="Helvetica,sans-Serif" font-size="10.00">+ erase()</text>
<text text-anchor="start" x="91" y="-51.5" font-family="Helvetica,sans-Serif" font-size="10.00">+ TabulateInformationsSections()</text>
<text text-anchor="start" x="91" y="-40.5" font-family="Helvetica,sans-Serif" font-size="10.00">+ TabulateInformationsSections()</text>
<text text-anchor="start" x="91" y="-29.5" font-family="Helvetica,sans-Serif" font-size="10.00">+ TabulateInformationsSections()</text>
<text text-anchor="start" x="91" y="-18.5" font-family="Helvetica,sans-Serif" font-size="10.00">+ cast()</text>
<text text-anchor="start" x="91" y="-7.5" font-family="Helvetica,sans-Serif" font-size="10.00">+ New()</text>
</a>
</g>
</g>
<!-- Node2 -->
<g id="node2" class="node">
<title>Node2</title>
<g id="a_node2"><a xlink:href="classFeel_1_1TabulateInformations.html" target="_top" xlink:title="base class that describe informations by tabulate/section design">
<polygon fill="white" stroke="black" points="0,-172.5 0,-361.5 158,-361.5 158,-172.5 0,-172.5"/>
<text text-anchor="middle" x="79" y="-349.5" font-family="Helvetica,sans-Serif" font-size="10.00">Feel::TabulateInformations</text>
<polyline fill="none" stroke="black" points="0,-342.5 158,-342.5 "/>
<text text-anchor="middle" x="79" y="-330.5" font-family="Helvetica,sans-Serif" font-size="10.00"> </text>
<polyline fill="none" stroke="black" points="0,-323.5 158,-323.5 "/>
<text text-anchor="start" x="8" y="-311.5" font-family="Helvetica,sans-Serif" font-size="10.00">+ exporterAscii()</text>
<text text-anchor="start" x="8" y="-300.5" font-family="Helvetica,sans-Serif" font-size="10.00">+ exporterAsciiDoc()</text>
<text text-anchor="start" x="8" y="-289.5" font-family="Helvetica,sans-Serif" font-size="10.00">+ TabulateInformations()</text>
<text text-anchor="start" x="8" y="-278.5" font-family="Helvetica,sans-Serif" font-size="10.00">+ TabulateInformations()</text>
<text text-anchor="start" x="8" y="-267.5" font-family="Helvetica,sans-Serif" font-size="10.00">+ TabulateInformations()</text>
<text text-anchor="start" x="8" y="-256.5" font-family="Helvetica,sans-Serif" font-size="10.00">+ verboseLevel()</text>
<text text-anchor="start" x="8" y="-245.5" font-family="Helvetica,sans-Serif" font-size="10.00">+ ~TabulateInformations()</text>
<text text-anchor="start" x="8" y="-234.5" font-family="Helvetica,sans-Serif" font-size="10.00">+ New()</text>
<text text-anchor="start" x="8" y="-223.5" font-family="Helvetica,sans-Serif" font-size="10.00">+ New()</text>
<text text-anchor="start" x="8" y="-212.5" font-family="Helvetica,sans-Serif" font-size="10.00"># exportAscii()</text>
<text text-anchor="start" x="8" y="-201.5" font-family="Helvetica,sans-Serif" font-size="10.00"># exportAsciiDoc()</text>
<text text-anchor="start" x="8" y="-190.5" font-family="Helvetica,sans-Serif" font-size="10.00"># shared_from_this_tabulate</text>
<text text-anchor="start" x="8" y="-179.5" font-family="Helvetica,sans-Serif" font-size="10.00">_informations()</text>
</a>
</g>
</g>
<!-- Node2&#45;&gt;Node1 -->
<g id="edge1" class="edge">
<title>Node2&#45;&gt;Node1</title>
<path fill="none" stroke="midnightblue" d="M127.94,-163.17C132.54,-153.5 137.13,-143.88 141.5,-134.68"/>
<polygon fill="none" stroke="midnightblue" points="124.66,-161.92 123.52,-172.46 130.98,-164.93 124.66,-161.92"/>
</g>
<!-- Node3 -->
<g id="node3" class="node">
<title>Node3</title>
<g id="a_node3"><a xlink:title=" ">
<polygon fill="white" stroke="#bfbfbf" points="51,-409.5 51,-466.5 107,-466.5 107,-409.5 51,-409.5"/>
<text text-anchor="middle" x="79" y="-454.5" font-family="Helvetica,sans-Serif" font-size="10.00">uint16_t</text>
<polyline fill="none" stroke="#bfbfbf" points="51,-447.5 107,-447.5 "/>
<text text-anchor="middle" x="79" y="-435.5" font-family="Helvetica,sans-Serif" font-size="10.00"> </text>
<polyline fill="none" stroke="#bfbfbf" points="51,-428.5 107,-428.5 "/>
<text text-anchor="middle" x="79" y="-416.5" font-family="Helvetica,sans-Serif" font-size="10.00"> </text>
</a>
</g>
</g>
<!-- Node3&#45;&gt;Node2 -->
<g id="edge2" class="edge">
<title>Node3&#45;&gt;Node2</title>
<path fill="none" stroke="#404040" d="M79,-409.47C79,-399.23 79,-386.9 79,-373.84"/>
<polygon fill="none" stroke="#404040" points="79,-373.69 75,-367.69 79,-361.69 83,-367.69 79,-373.69"/>
<text text-anchor="middle" x="124.5" y="-383" font-family="Helvetica,sans-Serif" font-size="10.00"> #M_verboseLevel</text>
</g>
<!-- Node4 -->
<g id="node4" class="node">
<title>Node4</title>
<g id="a_node4"><a xlink:title=" ">
<polygon fill="white" stroke="#bfbfbf" points="176.5,-227.5 176.5,-306.5 359.5,-306.5 359.5,-227.5 176.5,-227.5"/>
<text text-anchor="start" x="184.5" y="-294.5" font-family="Helvetica,sans-Serif" font-size="10.00">std::enable_shared</text>
<text text-anchor="start" x="184.5" y="-283.5" font-family="Helvetica,sans-Serif" font-size="10.00">_from_this&lt; TabulateInformations</text>
<text text-anchor="middle" x="268" y="-272.5" font-family="Helvetica,sans-Serif" font-size="10.00">Sections &gt;</text>
<polyline fill="none" stroke="#bfbfbf" points="176.5,-265.5 359.5,-265.5 "/>
<text text-anchor="middle" x="268" y="-253.5" font-family="Helvetica,sans-Serif" font-size="10.00"> </text>
<polyline fill="none" stroke="#bfbfbf" points="176.5,-246.5 359.5,-246.5 "/>
<text text-anchor="middle" x="268" y="-234.5" font-family="Helvetica,sans-Serif" font-size="10.00"> </text>
</a>
</g>
</g>
<!-- Node4&#45;&gt;Node1 -->
<g id="edge3" class="edge">
<title>Node4&#45;&gt;Node1</title>
<path fill="none" stroke="midnightblue" d="M244.98,-218.15C232.91,-193.06 217.94,-161.93 204.78,-134.57"/>
<polygon fill="none" stroke="midnightblue" points="241.97,-219.96 249.46,-227.45 248.28,-216.92 241.97,-219.96"/>
</g>
</g>
</svg>
        <g id="navigator" transform="translate(0 0)" fill="#404254">
                <rect fill="#f2f5e9" fill-opacity="0.5" stroke="#606060" stroke-width=".5" x="0" y="0" width="60" height="60"/>
                <use id="zoomplus" xlink:href="#zoomPlus" x="17" y="9" onmousedown="handleZoom(evt,'in')"/>
                <use id="zoomminus" xlink:href="#zoomMin" x="42" y="9" onmousedown="handleZoom(evt,'out')"/>
                <use id="reset" xlink:href="#resetDef" x="30" y="36" onmousedown="handleReset()"/>
                <g id="arrowUp" xlink:href="#dirArrow" transform="translate(30 24)" onmousedown="handlePan(0,-1)">
                  <use xlink:href="#rim" fill="#404040">
                        <set attributeName="fill" to="#808080" begin="arrowUp.mouseover" end="arrowUp.mouseout"/>
                  </use>
                  <path fill="none" stroke="white" stroke-width="1.5" d="M0,-3.0v7 M-2.5,-0.5L0,-3.0L2.5,-0.5"/>
                </g>
                <g id="arrowRight" xlink:href="#dirArrow" transform="rotate(90) translate(36 -43)" onmousedown="handlePan(1,0)">
                  <use xlink:href="#rim" fill="#404040">
                        <set attributeName="fill" to="#808080" begin="arrowRight.mouseover" end="arrowRight.mouseout"/>
                  </use>
                  <path fill="none" stroke="white" stroke-width="1.5" d="M0,-3.0v7 M-2.5,-0.5L0,-3.0L2.5,-0.5"/>
                </g>
                <g id="arrowDown" xlink:href="#dirArrow" transform="rotate(180) translate(-30 -48)" onmousedown="handlePan(0,1)">
                  <use xlink:href="#rim" fill="#404040">
                        <set attributeName="fill" to="#808080" begin="arrowDown.mouseover" end="arrowDown.mouseout"/>
                  </use>
                  <path fill="none" stroke="white" stroke-width="1.5" d="M0,-3.0v7 M-2.5,-0.5L0,-3.0L2.5,-0.5"/>
                </g>
                <g id="arrowLeft" xlink:href="#dirArrow" transform="rotate(270) translate(-36 17)" onmousedown="handlePan(-1,0)">
                  <use xlink:href="#rim" fill="#404040">
                        <set attributeName="fill" to="#808080" begin="arrowLeft.mouseover" end="arrowLeft.mouseout"/>
                  </use>
                  <path fill="none" stroke="white" stroke-width="1.5" d="M0,-3.0v7 M-2.5,-0.5L0,-3.0L2.5,-0.5"/>
                </g>
        </g>
        <svg viewBox="0 0 15 15" width="100%" height="30px" preserveAspectRatio="xMaxYMin meet">
         <g id="arrow_out" transform="scale(0.3 0.3)">
          <a xlink:href="classFeel_1_1TabulateInformationsSections__coll__graph_org.svg" target="_base">
           <rect id="button" ry="5" rx="5" y="6" x="6" height="38" width="38"
                fill="#f2f5e9" fill-opacity="0.5" stroke="#606060" stroke-width="1.0"/>
           <path id="arrow"
             d="M 11.500037,31.436501 C 11.940474,20.09759 22.043105,11.32322 32.158766,21.979434 L 37.068811,17.246167 C 37.068811,17.246167 37.088388,32 37.088388,32 L 22.160133,31.978069 C 22.160133,31.978069 26.997745,27.140456 26.997745,27.140456 C 18.528582,18.264221 13.291696,25.230495 11.500037,31.436501 z"
             style="fill:#404040;"/>
          </a>
         </g>
        </svg>
</svg>
