<?xml version="1.0" encoding="UTF-8" standalone="no"?>
<!DOCTYPE svg PUBLIC "-//W3C//DTD SVG 1.1//EN"
 "http://www.w3.org/Graphics/SVG/1.1/DTD/svg11.dtd">
<!-- Generated by graphviz version 2.43.0 (0)
 -->
<!-- Title: Feel::DofFromElement&lt; DofTableType, FEType &gt; Pages: 1 -->
<svg width="275pt" height="457pt"
 viewBox="0.00 0.00 275.00 457.00" xmlns="http://www.w3.org/2000/svg" xmlns:xlink="http://www.w3.org/1999/xlink">
<g id="graph0" class="graph" transform="scale(1 1) rotate(0) translate(4 453)">
<title>Feel::DofFromElement&lt; DofTableType, FEType &gt;</title>
<polygon fill="white" stroke="transparent" points="-4,4 -4,-453 271,-453 271,4 -4,4"/>
<!-- Node1 -->
<g id="node1" class="node">
<title>Node1</title>
<g id="a_node1"><a xlink:title="local dof contribution from an element">
<polygon fill="#bfbfbf" stroke="black" points="49.5,-0.5 49.5,-211.5 194.5,-211.5 194.5,-0.5 49.5,-0.5"/>
<text text-anchor="start" x="57.5" y="-199.5" font-family="Helvetica,sans-Serif" font-size="10.00">Feel::DofFromElement</text>
<text text-anchor="middle" x="122" y="-188.5" font-family="Helvetica,sans-Serif" font-size="10.00">&lt; DofTableType, FEType &gt;</text>
<polyline fill="none" stroke="black" points="49.5,-181.5 194.5,-181.5 "/>
<text text-anchor="middle" x="122" y="-169.5" font-family="Helvetica,sans-Serif" font-size="10.00"> </text>
<polyline fill="none" stroke="black" points="49.5,-162.5 194.5,-162.5 "/>
<text text-anchor="start" x="57.5" y="-150.5" font-family="Helvetica,sans-Serif" font-size="10.00">* doftable_type</text>
<text text-anchor="start" x="57.5" y="-139.5" font-family="Helvetica,sans-Serif" font-size="10.00">* mesh_type</text>
<text text-anchor="start" x="57.5" y="-128.5" font-family="Helvetica,sans-Serif" font-size="10.00">* element_type</text>
<text text-anchor="start" x="57.5" y="-117.5" font-family="Helvetica,sans-Serif" font-size="10.00">* face_type</text>
<text text-anchor="start" x="57.5" y="-106.5" font-family="Helvetica,sans-Serif" font-size="10.00">* ref_shift_type</text>
<text text-anchor="start" x="57.5" y="-95.5" font-family="Helvetica,sans-Serif" font-size="10.00">and 8 more...</text>
<text text-anchor="start" x="57.5" y="-84.5" font-family="Helvetica,sans-Serif" font-size="10.00">* M_doftable</text>
<text text-anchor="start" x="57.5" y="-73.5" font-family="Helvetica,sans-Serif" font-size="10.00">* M_fe</text>
<text text-anchor="start" x="57.5" y="-62.5" font-family="Helvetica,sans-Serif" font-size="10.00">* M_emptyMarker</text>
<text text-anchor="start" x="57.5" y="-51.5" font-family="Helvetica,sans-Serif" font-size="10.00">* add()</text>
<text text-anchor="start" x="57.5" y="-40.5" font-family="Helvetica,sans-Serif" font-size="10.00">* DofFromElement()</text>
<text text-anchor="start" x="57.5" y="-29.5" font-family="Helvetica,sans-Serif" font-size="10.00">and 6 more...</text>
<text text-anchor="start" x="57.5" y="-18.5" font-family="Helvetica,sans-Serif" font-size="10.00">* DofFromElement()</text>
<text text-anchor="start" x="57.5" y="-7.5" font-family="Helvetica,sans-Serif" font-size="10.00">* ~DofFromElement()</text>
</a>
</g>
</g>
<!-- Node2 -->
<g id="node2" class="node">
<title>Node2</title>
<g id="a_node2"><a xlink:title=" ">
<polygon fill="white" stroke="#bfbfbf" points="0,-391.5 0,-448.5 134,-448.5 134,-391.5 0,-391.5"/>
<text text-anchor="middle" x="67" y="-436.5" font-family="Helvetica,sans-Serif" font-size="10.00">static const uint16_type</text>
<polyline fill="none" stroke="#bfbfbf" points="0,-429.5 134,-429.5 "/>
<text text-anchor="middle" x="67" y="-417.5" font-family="Helvetica,sans-Serif" font-size="10.00"> </text>
<polyline fill="none" stroke="#bfbfbf" points="0,-410.5 134,-410.5 "/>
<text text-anchor="middle" x="67" y="-398.5" font-family="Helvetica,sans-Serif" font-size="10.00"> </text>
</a>
</g>
</g>
<!-- Node2&#45;&gt;Node1 -->
<g id="edge1" class="edge">
<title>Node2&#45;&gt;Node1</title>
<path fill="none" stroke="#404040" d="M63.68,-391.4C60,-354.25 56.02,-286.33 68,-230 68.46,-227.83 68.96,-225.65 69.5,-223.46"/>
<polygon fill="none" stroke="#404040" points="69.54,-223.32 67.27,-216.47 72.71,-211.74 74.99,-218.59 69.54,-223.32"/>
<text text-anchor="middle" x="112" y="-337.5" font-family="Helvetica,sans-Serif" font-size="10.00"> +Shape</text>
<text text-anchor="middle" x="112" y="-326.5" font-family="Helvetica,sans-Serif" font-size="10.00">+nComponents</text>
<text text-anchor="middle" x="112" y="-315.5" font-family="Helvetica,sans-Serif" font-size="10.00">+nComponents1</text>
<text text-anchor="middle" x="112" y="-304.5" font-family="Helvetica,sans-Serif" font-size="10.00">+nComponents2</text>
<text text-anchor="middle" x="112" y="-293.5" font-family="Helvetica,sans-Serif" font-size="10.00">+nDim</text>
<text text-anchor="middle" x="112" y="-282.5" font-family="Helvetica,sans-Serif" font-size="10.00">+nDofPerElement</text>
<text text-anchor="middle" x="112" y="-271.5" font-family="Helvetica,sans-Serif" font-size="10.00">+nOrder</text>
<text text-anchor="middle" x="112" y="-260.5" font-family="Helvetica,sans-Serif" font-size="10.00">+nRealDim</text>
</g>
<!-- Node3 -->
<g id="node3" class="node">
<title>Node3</title>
<g id="a_node3"><a xlink:href="classbool.html" target="_top" xlink:title=" ">
<polygon fill="white" stroke="#bfbfbf" points="159,-391.5 159,-448.5 197,-448.5 197,-391.5 159,-391.5"/>
<text text-anchor="middle" x="178" y="-436.5" font-family="Helvetica,sans-Serif" font-size="10.00">bool</text>
<polyline fill="none" stroke="#bfbfbf" points="159,-429.5 197,-429.5 "/>
<text text-anchor="middle" x="178" y="-417.5" font-family="Helvetica,sans-Serif" font-size="10.00"> </text>
<polyline fill="none" stroke="#bfbfbf" points="159,-410.5 197,-410.5 "/>
<text text-anchor="middle" x="178" y="-398.5" font-family="Helvetica,sans-Serif" font-size="10.00"> </text>
</a>
</g>
</g>
<!-- Node3&#45;&gt;Node1 -->
<g id="edge2" class="edge">
<title>Node3&#45;&gt;Node1</title>
<path fill="none" stroke="#404040" d="M176.11,-391.25C173.29,-354.22 167.08,-286.74 156,-230 155.58,-227.85 155.14,-225.68 154.69,-223.51"/>
<polygon fill="none" stroke="#404040" points="154.68,-223.48 149.49,-218.47 152.12,-211.75 157.31,-216.76 154.68,-223.48"/>
<text text-anchor="middle" x="220.5" y="-365" font-family="Helvetica,sans-Serif" font-size="10.00"> +is_continuous</text>
<text text-anchor="start" x="174" y="-354" font-family="Helvetica,sans-Serif" font-size="10.00">+is_discontinuous</text>
<text text-anchor="middle" x="220.5" y="-343" font-family="Helvetica,sans-Serif" font-size="10.00">_locally</text>
<text text-anchor="start" x="174" y="-332" font-family="Helvetica,sans-Serif" font-size="10.00">+is_discontinuous</text>
<text text-anchor="middle" x="220.5" y="-321" font-family="Helvetica,sans-Serif" font-size="10.00">_totally</text>
<text text-anchor="middle" x="220.5" y="-310" font-family="Helvetica,sans-Serif" font-size="10.00">+is_modal</text>
<text text-anchor="middle" x="220.5" y="-299" font-family="Helvetica,sans-Serif" font-size="10.00">+is_p0_continuous</text>
<text text-anchor="middle" x="220.5" y="-288" font-family="Helvetica,sans-Serif" font-size="10.00">+is_product</text>
<text text-anchor="middle" x="220.5" y="-277" font-family="Helvetica,sans-Serif" font-size="10.00">+is_scalar</text>
<text text-anchor="middle" x="220.5" y="-266" font-family="Helvetica,sans-Serif" font-size="10.00">+is_tensor2</text>
<text text-anchor="middle" x="220.5" y="-255" font-family="Helvetica,sans-Serif" font-size="10.00">+is_tensor2symm</text>
<text text-anchor="middle" x="220.5" y="-244" font-family="Helvetica,sans-Serif" font-size="10.00">+is_vectorial</text>
<text text-anchor="middle" x="220.5" y="-233" font-family="Helvetica,sans-Serif" font-size="10.00">...</text>
</g>
</g>
</svg>
