<?xml version="1.0" encoding="UTF-8" standalone="no"?>
<!DOCTYPE svg PUBLIC "-//W3C//DTD SVG 1.1//EN"
 "http://www.w3.org/Graphics/SVG/1.1/DTD/svg11.dtd">
<!-- Generated by graphviz version 2.43.0 (0)
 -->
<!-- Title: Feel::CNAB2&lt; FieldType &gt; Pages: 1 -->
<svg width="525pt" height="613pt"
 viewBox="0.00 0.00 525.00 613.00" xmlns="http://www.w3.org/2000/svg" xmlns:xlink="http://www.w3.org/1999/xlink">
<g id="graph0" class="graph" transform="scale(1 1) rotate(0) translate(4 609)">
<title>Feel::CNAB2&lt; FieldType &gt;</title>
<polygon fill="white" stroke="transparent" points="-4,4 -4,-609 521,-609 521,4 -4,4"/>
<!-- Node1 -->
<g id="node1" class="node">
<title>Node1</title>
<g id="a_node1"><a xlink:title=" ">
<polygon fill="#bfbfbf" stroke="black" points="221.5,-0.5 221.5,-134.5 366.5,-134.5 366.5,-0.5 221.5,-0.5"/>
<text text-anchor="middle" x="294" y="-122.5" font-family="Helvetica,sans-Serif" font-size="10.00">Feel::CNAB2&lt; FieldType &gt;</text>
<polyline fill="none" stroke="black" points="221.5,-115.5 366.5,-115.5 "/>
<text text-anchor="start" x="229.5" y="-103.5" font-family="Helvetica,sans-Serif" font-size="10.00">+ acc_try</text>
<text text-anchor="start" x="229.5" y="-92.5" font-family="Helvetica,sans-Serif" font-size="10.00">+ uab2</text>
<text text-anchor="start" x="229.5" y="-81.5" font-family="Helvetica,sans-Serif" font-size="10.00">+ ww</text>
<polyline fill="none" stroke="black" points="221.5,-74.5 366.5,-74.5 "/>
<text text-anchor="start" x="229.5" y="-62.5" font-family="Helvetica,sans-Serif" font-size="10.00">+ addStep()</text>
<text text-anchor="start" x="229.5" y="-51.5" font-family="Helvetica,sans-Serif" font-size="10.00">+ addStep()</text>
<text text-anchor="start" x="229.5" y="-40.5" font-family="Helvetica,sans-Serif" font-size="10.00">+ addStep()</text>
<text text-anchor="start" x="229.5" y="-29.5" font-family="Helvetica,sans-Serif" font-size="10.00">+ averaging()</text>
<text text-anchor="start" x="229.5" y="-18.5" font-family="Helvetica,sans-Serif" font-size="10.00">+ CNAB2()</text>
<text text-anchor="start" x="229.5" y="-7.5" font-family="Helvetica,sans-Serif" font-size="10.00">and 11 more...</text>
</a>
</g>
</g>
<!-- Node2 -->
<g id="node2" class="node">
<title>Node2</title>
<g id="a_node2"><a xlink:href="classFeel_1_1TimeSet.html" target="_top" xlink:title="Handles a set of time steps.">
<polygon fill="white" stroke="black" points="36.5,-292.5 36.5,-404.5 119.5,-404.5 119.5,-292.5 36.5,-292.5"/>
<text text-anchor="middle" x="78" y="-392.5" font-family="Helvetica,sans-Serif" font-size="10.00">Feel::TimeSet</text>
<polyline fill="none" stroke="black" points="36.5,-385.5 119.5,-385.5 "/>
<text text-anchor="middle" x="78" y="-373.5" font-family="Helvetica,sans-Serif" font-size="10.00"> </text>
<polyline fill="none" stroke="black" points="36.5,-366.5 119.5,-366.5 "/>
<text text-anchor="start" x="44.5" y="-354.5" font-family="Helvetica,sans-Serif" font-size="10.00">+ index()</text>
<text text-anchor="start" x="44.5" y="-343.5" font-family="Helvetica,sans-Serif" font-size="10.00">+ k()</text>
<text text-anchor="start" x="44.5" y="-332.5" font-family="Helvetica,sans-Serif" font-size="10.00">+ k()</text>
<text text-anchor="start" x="44.5" y="-321.5" font-family="Helvetica,sans-Serif" font-size="10.00">+ kprev()</text>
<text text-anchor="start" x="44.5" y="-310.5" font-family="Helvetica,sans-Serif" font-size="10.00">+ kprev()</text>
<text text-anchor="start" x="44.5" y="-299.5" font-family="Helvetica,sans-Serif" font-size="10.00">and 8 more...</text>
</a>
</g>
</g>
<!-- Node2&#45;&gt;Node1 -->
<g id="edge1" class="edge">
<title>Node2&#45;&gt;Node1</title>
<path fill="none" stroke="midnightblue" d="M99.94,-282.95C115.85,-242.59 140.32,-191.2 173,-153 186.66,-137.04 203.98,-122.63 221.22,-110.42"/>
<polygon fill="none" stroke="midnightblue" points="96.61,-281.84 96.27,-292.43 103.14,-284.36 96.61,-281.84"/>
</g>
<!-- Node3 -->
<g id="node3" class="node">
<title>Node3</title>
<g id="a_node3"><a xlink:title="STL class.">
<polygon fill="white" stroke="#bfbfbf" points="0,-442.5 0,-499.5 156,-499.5 156,-442.5 0,-442.5"/>
<text text-anchor="middle" x="78" y="-487.5" font-family="Helvetica,sans-Serif" font-size="10.00">std::vector&lt; TimeStepInfo &gt;</text>
<polyline fill="none" stroke="#bfbfbf" points="0,-480.5 156,-480.5 "/>
<text text-anchor="middle" x="78" y="-468.5" font-family="Helvetica,sans-Serif" font-size="10.00"> </text>
<polyline fill="none" stroke="#bfbfbf" points="0,-461.5 156,-461.5 "/>
<text text-anchor="middle" x="78" y="-449.5" font-family="Helvetica,sans-Serif" font-size="10.00"> </text>
</a>
</g>
</g>
<!-- Node3&#45;&gt;Node2 -->
<g id="edge2" class="edge">
<title>Node3&#45;&gt;Node2</title>
<path fill="none" stroke="midnightblue" d="M78,-432.11C78,-423.36 78,-413.88 78,-404.57"/>
<polygon fill="none" stroke="midnightblue" points="74.5,-432.35 78,-442.35 81.5,-432.35 74.5,-432.35"/>
</g>
<!-- Node4 -->
<g id="node4" class="node">
<title>Node4</title>
<g id="a_node4"><a xlink:title=" ">
<polygon fill="white" stroke="#bfbfbf" points="63.5,-547.5 63.5,-604.5 92.5,-604.5 92.5,-547.5 63.5,-547.5"/>
<text text-anchor="middle" x="78" y="-592.5" font-family="Helvetica,sans-Serif" font-size="10.00">T</text>
<polyline fill="none" stroke="#bfbfbf" points="63.5,-585.5 92.5,-585.5 "/>
<text text-anchor="middle" x="78" y="-573.5" font-family="Helvetica,sans-Serif" font-size="10.00"> </text>
<polyline fill="none" stroke="#bfbfbf" points="63.5,-566.5 92.5,-566.5 "/>
<text text-anchor="middle" x="78" y="-554.5" font-family="Helvetica,sans-Serif" font-size="10.00"> </text>
</a>
</g>
</g>
<!-- Node4&#45;&gt;Node3 -->
<g id="edge3" class="edge">
<title>Node4&#45;&gt;Node3</title>
<path fill="none" stroke="#404040" d="M78,-547.4C78,-536.55 78,-523.87 78,-512.05"/>
<polygon fill="none" stroke="#404040" points="78,-511.68 74,-505.68 78,-499.68 82,-505.68 78,-511.68"/>
<text text-anchor="middle" x="107" y="-521" font-family="Helvetica,sans-Serif" font-size="10.00"> +elements</text>
</g>
<!-- Node5 -->
<g id="node5" class="node">
<title>Node5</title>
<g id="a_node5"><a xlink:title=" ">
<polygon fill="white" stroke="#bfbfbf" points="138,-320 138,-377 222,-377 222,-320 138,-320"/>
<text text-anchor="middle" x="180" y="-365" font-family="Helvetica,sans-Serif" font-size="10.00">mesh_ptrtype</text>
<polyline fill="none" stroke="#bfbfbf" points="138,-358 222,-358 "/>
<text text-anchor="middle" x="180" y="-346" font-family="Helvetica,sans-Serif" font-size="10.00"> </text>
<polyline fill="none" stroke="#bfbfbf" points="138,-339 222,-339 "/>
<text text-anchor="middle" x="180" y="-327" font-family="Helvetica,sans-Serif" font-size="10.00"> </text>
</a>
</g>
</g>
<!-- Node5&#45;&gt;Node1 -->
<g id="edge4" class="edge">
<title>Node5&#45;&gt;Node1</title>
<path fill="none" stroke="#404040" d="M177.71,-319.7C175.68,-280.35 176.5,-207.15 204,-153 206.81,-147.47 210.13,-142.11 213.82,-136.95"/>
<polygon fill="none" stroke="#404040" points="213.96,-136.77 214.48,-129.58 221.32,-127.29 220.8,-134.48 213.96,-136.77"/>
<text text-anchor="middle" x="223.5" y="-211" font-family="Helvetica,sans-Serif" font-size="10.00"> +mesh</text>
</g>
<!-- Node6 -->
<g id="node6" class="node">
<title>Node6</title>
<g id="a_node6"><a xlink:href="classdouble.html" target="_top" xlink:title=" ">
<polygon fill="white" stroke="black" points="240,-320 240,-377 290,-377 290,-320 240,-320"/>
<text text-anchor="middle" x="265" y="-365" font-family="Helvetica,sans-Serif" font-size="10.00">double</text>
<polyline fill="none" stroke="black" points="240,-358 290,-358 "/>
<text text-anchor="middle" x="265" y="-346" font-family="Helvetica,sans-Serif" font-size="10.00"> </text>
<polyline fill="none" stroke="black" points="240,-339 290,-339 "/>
<text text-anchor="middle" x="265" y="-327" font-family="Helvetica,sans-Serif" font-size="10.00"> </text>
</a>
</g>
</g>
<!-- Node6&#45;&gt;Node1 -->
<g id="edge5" class="edge">
<title>Node6&#45;&gt;Node1</title>
<path fill="none" stroke="#404040" d="M258.69,-319.73C251.1,-281.63 240.91,-211.24 254,-153 254.49,-150.84 255.03,-148.67 255.64,-146.49"/>
<polygon fill="none" stroke="#404040" points="255.69,-146.31 253.7,-139.38 259.32,-134.88 261.32,-141.81 255.69,-146.31"/>
<text text-anchor="middle" x="284" y="-227.5" font-family="Helvetica,sans-Serif" font-size="10.00"> +k0</text>
<text text-anchor="middle" x="284" y="-216.5" font-family="Helvetica,sans-Serif" font-size="10.00">+keps</text>
<text text-anchor="middle" x="284" y="-205.5" font-family="Helvetica,sans-Serif" font-size="10.00">+T</text>
<text text-anchor="middle" x="284" y="-194.5" font-family="Helvetica,sans-Serif" font-size="10.00">+steady_tol</text>
</g>
<!-- Node7 -->
<g id="node7" class="node">
<title>Node7</title>
<g id="a_node7"><a xlink:href="classint.html" target="_top" xlink:title=" ">
<polygon fill="white" stroke="black" points="321.5,-320 321.5,-377 350.5,-377 350.5,-320 321.5,-320"/>
<text text-anchor="middle" x="336" y="-365" font-family="Helvetica,sans-Serif" font-size="10.00">int</text>
<polyline fill="none" stroke="black" points="321.5,-358 350.5,-358 "/>
<text text-anchor="middle" x="336" y="-346" font-family="Helvetica,sans-Serif" font-size="10.00"> </text>
<polyline fill="none" stroke="black" points="321.5,-339 350.5,-339 "/>
<text text-anchor="middle" x="336" y="-327" font-family="Helvetica,sans-Serif" font-size="10.00"> </text>
</a>
</g>
</g>
<!-- Node7&#45;&gt;Node1 -->
<g id="edge6" class="edge">
<title>Node7&#45;&gt;Node1</title>
<path fill="none" stroke="#404040" d="M333.93,-319.97C330.85,-282.15 324.3,-212.09 314,-153 313.64,-150.96 313.27,-148.89 312.88,-146.81"/>
<polygon fill="none" stroke="#404040" points="312.82,-146.54 307.73,-141.43 310.48,-134.77 315.57,-139.87 312.82,-146.54"/>
<text text-anchor="middle" x="347.5" y="-211" font-family="Helvetica,sans-Serif" font-size="10.00"> +nstar</text>
</g>
<!-- Node8 -->
<g id="node8" class="node">
<title>Node8</title>
<g id="a_node8"><a xlink:href="classbool.html" target="_top" xlink:title=" ">
<polygon fill="white" stroke="black" points="377,-320 377,-377 415,-377 415,-320 377,-320"/>
<text text-anchor="middle" x="396" y="-365" font-family="Helvetica,sans-Serif" font-size="10.00">bool</text>
<polyline fill="none" stroke="black" points="377,-358 415,-358 "/>
<text text-anchor="middle" x="396" y="-346" font-family="Helvetica,sans-Serif" font-size="10.00"> </text>
<polyline fill="none" stroke="black" points="377,-339 415,-339 "/>
<text text-anchor="middle" x="396" y="-327" font-family="Helvetica,sans-Serif" font-size="10.00"> </text>
</a>
</g>
</g>
<!-- Node8&#45;&gt;Node1 -->
<g id="edge7" class="edge">
<title>Node8&#45;&gt;Node1</title>
<path fill="none" stroke="#404040" d="M397.3,-319.99C398.08,-280.99 395.5,-208.21 370,-153 368.78,-150.36 367.44,-147.73 366.02,-145.14"/>
<polygon fill="none" stroke="#404040" points="365.89,-144.93 359.35,-141.88 359.65,-134.68 366.19,-137.73 365.89,-144.93"/>
<text text-anchor="middle" x="418.5" y="-211" font-family="Helvetica,sans-Serif" font-size="10.00"> +steady</text>
</g>
<!-- Node9 -->
<g id="node9" class="node">
<title>Node9</title>
<g id="a_node9"><a xlink:title=" ">
<polygon fill="white" stroke="#bfbfbf" points="433,-320 433,-377 495,-377 495,-320 433,-320"/>
<text text-anchor="middle" x="464" y="-365" font-family="Helvetica,sans-Serif" font-size="10.00">FieldType</text>
<polyline fill="none" stroke="#bfbfbf" points="433,-358 495,-358 "/>
<text text-anchor="middle" x="464" y="-346" font-family="Helvetica,sans-Serif" font-size="10.00"> </text>
<polyline fill="none" stroke="#bfbfbf" points="433,-339 495,-339 "/>
<text text-anchor="middle" x="464" y="-327" font-family="Helvetica,sans-Serif" font-size="10.00"> </text>
</a>
</g>
</g>
<!-- Node9&#45;&gt;Node1 -->
<g id="edge8" class="edge">
<title>Node9&#45;&gt;Node1</title>
<path fill="none" stroke="#404040" d="M468.23,-319.76C472.85,-279.49 475.64,-204.09 442,-153 426.55,-129.54 402.2,-111.85 377.68,-98.89"/>
<polygon fill="none" stroke="#404040" points="377.54,-98.82 370.38,-99.71 366.81,-93.44 373.97,-92.56 377.54,-98.82"/>
<text text-anchor="middle" x="493.5" y="-266" font-family="Helvetica,sans-Serif" font-size="10.00"> +accstar</text>
<text text-anchor="middle" x="493.5" y="-255" font-family="Helvetica,sans-Serif" font-size="10.00">+u_try</text>
<text text-anchor="middle" x="493.5" y="-244" font-family="Helvetica,sans-Serif" font-size="10.00">+acc</text>
<text text-anchor="middle" x="493.5" y="-233" font-family="Helvetica,sans-Serif" font-size="10.00">+up</text>
<text text-anchor="middle" x="493.5" y="-222" font-family="Helvetica,sans-Serif" font-size="10.00">+d</text>
<text text-anchor="middle" x="493.5" y="-211" font-family="Helvetica,sans-Serif" font-size="10.00">+u</text>
<text text-anchor="middle" x="493.5" y="-200" font-family="Helvetica,sans-Serif" font-size="10.00">+ustar</text>
<text text-anchor="middle" x="493.5" y="-189" font-family="Helvetica,sans-Serif" font-size="10.00">+accp</text>
<text text-anchor="middle" x="493.5" y="-178" font-family="Helvetica,sans-Serif" font-size="10.00">+w</text>
<text text-anchor="middle" x="493.5" y="-167" font-family="Helvetica,sans-Serif" font-size="10.00">+dd</text>
<text text-anchor="middle" x="493.5" y="-156" font-family="Helvetica,sans-Serif" font-size="10.00">...</text>
</g>
</g>
</svg>
