<?xml version="1.0" encoding="UTF-8" standalone="no"?>
<!DOCTYPE svg PUBLIC "-//W3C//DTD SVG 1.1//EN"
 "http://www.w3.org/Graphics/SVG/1.1/DTD/svg11.dtd">
<!-- Generated by graphviz version 2.43.0 (0)
 -->
<!-- Title: Feel::Hypercube&lt; Dim, Order, RDim &gt; Pages: 1 -->
<svg width="260pt" height="529pt"
 viewBox="0.00 0.00 259.50 529.00" xmlns="http://www.w3.org/2000/svg" xmlns:xlink="http://www.w3.org/1999/xlink">
<g id="graph0" class="graph" transform="scale(1 1) rotate(0) translate(4 525)">
<title>Feel::Hypercube&lt; Dim, Order, RDim &gt;</title>
<polygon fill="white" stroke="transparent" points="-4,4 -4,-525 255.5,-525 255.5,4 -4,4"/>
<!-- Node1 -->
<g id="node1" class="node">
<title>Node1</title>
<g id="a_node1"><a xlink:title=" ">
<polygon fill="#bfbfbf" stroke="black" points="53,-0.5 53,-255.5 195,-255.5 195,-0.5 53,-0.5"/>
<text text-anchor="start" x="61" y="-243.5" font-family="Helvetica,sans-Serif" font-size="10.00">Feel::Hypercube&lt; Dim,</text>
<text text-anchor="middle" x="124" y="-232.5" font-family="Helvetica,sans-Serif" font-size="10.00"> Order, RDim &gt;</text>
<polyline fill="none" stroke="black" points="53,-225.5 195,-225.5 "/>
<text text-anchor="start" x="61" y="-213.5" font-family="Helvetica,sans-Serif" font-size="10.00">+ Geometry</text>
<text text-anchor="start" x="61" y="-202.5" font-family="Helvetica,sans-Serif" font-size="10.00">+ is_hypercube</text>
<text text-anchor="start" x="61" y="-191.5" font-family="Helvetica,sans-Serif" font-size="10.00">+ is_simplex</text>
<text text-anchor="start" x="61" y="-180.5" font-family="Helvetica,sans-Serif" font-size="10.00">+ nbPtsPerEdge</text>
<text text-anchor="start" x="61" y="-169.5" font-family="Helvetica,sans-Serif" font-size="10.00">+ nbPtsPerFace</text>
<text text-anchor="start" x="61" y="-158.5" font-family="Helvetica,sans-Serif" font-size="10.00">and 17 more...</text>
<polyline fill="none" stroke="black" points="53,-151.5 195,-151.5 "/>
<text text-anchor="start" x="61" y="-139.5" font-family="Helvetica,sans-Serif" font-size="10.00">+ dimension()</text>
<text text-anchor="start" x="61" y="-128.5" font-family="Helvetica,sans-Serif" font-size="10.00">+ Hypercube()</text>
<text text-anchor="start" x="61" y="-117.5" font-family="Helvetica,sans-Serif" font-size="10.00">+ Hypercube()</text>
<text text-anchor="start" x="61" y="-106.5" font-family="Helvetica,sans-Serif" font-size="10.00">+ Hypercube()</text>
<text text-anchor="start" x="61" y="-95.5" font-family="Helvetica,sans-Serif" font-size="10.00">+ operator=()</text>
<text text-anchor="start" x="61" y="-84.5" font-family="Helvetica,sans-Serif" font-size="10.00">+ operator=()</text>
<text text-anchor="start" x="61" y="-73.5" font-family="Helvetica,sans-Serif" font-size="10.00">+ topologicalDimension()</text>
<text text-anchor="start" x="61" y="-62.5" font-family="Helvetica,sans-Serif" font-size="10.00">+ e2p()</text>
<text text-anchor="start" x="61" y="-51.5" font-family="Helvetica,sans-Serif" font-size="10.00">+ f2e()</text>
<text text-anchor="start" x="61" y="-40.5" font-family="Helvetica,sans-Serif" font-size="10.00">+ f2p()</text>
<text text-anchor="start" x="61" y="-29.5" font-family="Helvetica,sans-Serif" font-size="10.00">+ name()</text>
<text text-anchor="start" x="61" y="-18.5" font-family="Helvetica,sans-Serif" font-size="10.00">+ nPointsOnEdge()</text>
<text text-anchor="start" x="61" y="-7.5" font-family="Helvetica,sans-Serif" font-size="10.00">and 5 more...</text>
</a>
</g>
</g>
<!-- Node2 -->
<g id="node2" class="node">
<title>Node2</title>
<g id="a_node2"><a xlink:href="classFeel_1_1Convex.html" target="_top" xlink:title=" ">
<polygon fill="white" stroke="black" points="0,-292.5 0,-426.5 114,-426.5 114,-292.5 0,-292.5"/>
<text text-anchor="start" x="8" y="-414.5" font-family="Helvetica,sans-Serif" font-size="10.00">Feel::Convex&lt; Dim,</text>
<text text-anchor="middle" x="57" y="-403.5" font-family="Helvetica,sans-Serif" font-size="10.00"> 1, Dim &gt;</text>
<polyline fill="none" stroke="black" points="0,-396.5 114,-396.5 "/>
<text text-anchor="middle" x="57" y="-384.5" font-family="Helvetica,sans-Serif" font-size="10.00"> </text>
<polyline fill="none" stroke="black" points="0,-377.5 114,-377.5 "/>
<text text-anchor="start" x="8" y="-365.5" font-family="Helvetica,sans-Serif" font-size="10.00">* nDim</text>
<text text-anchor="start" x="8" y="-354.5" font-family="Helvetica,sans-Serif" font-size="10.00">* nOrder</text>
<text text-anchor="start" x="8" y="-343.5" font-family="Helvetica,sans-Serif" font-size="10.00">* nRealDim</text>
<text text-anchor="start" x="8" y="-332.5" font-family="Helvetica,sans-Serif" font-size="10.00">* Convex()</text>
<text text-anchor="start" x="8" y="-321.5" font-family="Helvetica,sans-Serif" font-size="10.00">* Convex()</text>
<text text-anchor="start" x="8" y="-310.5" font-family="Helvetica,sans-Serif" font-size="10.00">* ~Convex()</text>
<text text-anchor="start" x="8" y="-299.5" font-family="Helvetica,sans-Serif" font-size="10.00">* operator=()</text>
</a>
</g>
</g>
<!-- Node2&#45;&gt;Node1 -->
<g id="edge1" class="edge">
<title>Node2&#45;&gt;Node1</title>
<path fill="none" stroke="midnightblue" d="M79.13,-282.7C81.69,-273.94 84.34,-264.83 87.03,-255.63"/>
<polygon fill="none" stroke="midnightblue" points="75.73,-281.85 76.29,-292.43 82.45,-283.81 75.73,-281.85"/>
</g>
<!-- Node3 -->
<g id="node3" class="node">
<title>Node3</title>
<g id="a_node3"><a xlink:href="classFeel_1_1ConvexBase.html" target="_top" xlink:title=" ">
<polygon fill="white" stroke="#bfbfbf" points="5,-463.5 5,-520.5 109,-520.5 109,-463.5 5,-463.5"/>
<text text-anchor="middle" x="57" y="-508.5" font-family="Helvetica,sans-Serif" font-size="10.00">Feel::ConvexBase</text>
<polyline fill="none" stroke="#bfbfbf" points="5,-501.5 109,-501.5 "/>
<text text-anchor="middle" x="57" y="-489.5" font-family="Helvetica,sans-Serif" font-size="10.00"> </text>
<polyline fill="none" stroke="#bfbfbf" points="5,-482.5 109,-482.5 "/>
<text text-anchor="middle" x="57" y="-470.5" font-family="Helvetica,sans-Serif" font-size="10.00"> </text>
</a>
</g>
</g>
<!-- Node3&#45;&gt;Node2 -->
<g id="edge2" class="edge">
<title>Node3&#45;&gt;Node2</title>
<path fill="none" stroke="midnightblue" d="M57,-453.16C57,-444.78 57,-435.67 57,-426.53"/>
<polygon fill="none" stroke="midnightblue" points="53.5,-453.32 57,-463.32 60.5,-453.32 53.5,-453.32"/>
</g>
<!-- Node4 -->
<g id="node4" class="node">
<title>Node4</title>
<g id="a_node4"><a xlink:href="classFeel_1_1HypercubeBase.html" target="_top" xlink:title=" ">
<polygon fill="white" stroke="#bfbfbf" points="132.5,-331 132.5,-388 251.5,-388 251.5,-331 132.5,-331"/>
<text text-anchor="middle" x="192" y="-376" font-family="Helvetica,sans-Serif" font-size="10.00">Feel::HypercubeBase</text>
<polyline fill="none" stroke="#bfbfbf" points="132.5,-369 251.5,-369 "/>
<text text-anchor="middle" x="192" y="-357" font-family="Helvetica,sans-Serif" font-size="10.00"> </text>
<polyline fill="none" stroke="#bfbfbf" points="132.5,-350 251.5,-350 "/>
<text text-anchor="middle" x="192" y="-338" font-family="Helvetica,sans-Serif" font-size="10.00"> </text>
</a>
</g>
</g>
<!-- Node4&#45;&gt;Node1 -->
<g id="edge3" class="edge">
<title>Node4&#45;&gt;Node1</title>
<path fill="none" stroke="#8b1a1a" d="M180.94,-321.17C175.51,-302.86 168.62,-279.6 161.53,-255.65"/>
<polygon fill="none" stroke="#8b1a1a" points="177.6,-322.22 183.8,-330.82 184.31,-320.23 177.6,-322.22"/>
</g>
</g>
</svg>
