<?xml version="1.0" encoding="UTF-8" standalone="no"?>
<!DOCTYPE svg PUBLIC "-//W3C//DTD SVG 1.1//EN"
 "http://www.w3.org/Graphics/SVG/1.1/DTD/svg11.dtd">
<!-- Generated by graphviz version 2.43.0 (0)
 -->
<!-- Title: Feel::GinacExprManagerImpl Pages: 1 -->
<svg width="240pt" height="193pt"
 viewBox="0.00 0.00 239.50 193.00" xmlns="http://www.w3.org/2000/svg" xmlns:xlink="http://www.w3.org/1999/xlink">
<g id="graph0" class="graph" transform="scale(1 1) rotate(0) translate(4 189)">
<title>Feel::GinacExprManagerImpl</title>
<polygon fill="white" stroke="transparent" points="-4,4 -4,-189 235.5,-189 235.5,4 -4,4"/>
<!-- Node1 -->
<g id="node1" class="node">
<title>Node1</title>
<g id="a_node1"><a xlink:title=" ">
<polygon fill="#bfbfbf" stroke="black" points="50.5,-0.5 50.5,-57.5 207.5,-57.5 207.5,-0.5 50.5,-0.5"/>
<text text-anchor="middle" x="129" y="-45.5" font-family="Helvetica,sans-Serif" font-size="10.00">Feel::GinacExprManagerImpl</text>
<polyline fill="none" stroke="black" points="50.5,-38.5 207.5,-38.5 "/>
<text text-anchor="middle" x="129" y="-26.5" font-family="Helvetica,sans-Serif" font-size="10.00"> </text>
<polyline fill="none" stroke="black" points="50.5,-19.5 207.5,-19.5 "/>
<text text-anchor="middle" x="129" y="-7.5" font-family="Helvetica,sans-Serif" font-size="10.00"> </text>
</a>
</g>
</g>
<!-- Node2 -->
<g id="node2" class="node">
<title>Node2</title>
<g id="a_node2"><a xlink:title="STL class.">
<polygon fill="white" stroke="#bfbfbf" points="0,-94.5 0,-184.5 134,-184.5 134,-94.5 0,-94.5"/>
<text text-anchor="start" x="8" y="-172.5" font-family="Helvetica,sans-Serif" font-size="10.00">std::map&lt; std::string,</text>
<text text-anchor="start" x="8" y="-161.5" font-family="Helvetica,sans-Serif" font-size="10.00"> std::shared_ptr&lt; GiNaC</text>
<text text-anchor="middle" x="67" y="-150.5" font-family="Helvetica,sans-Serif" font-size="10.00">::FUNCP_CUBA &gt; &gt;</text>
<polyline fill="none" stroke="#bfbfbf" points="0,-143.5 134,-143.5 "/>
<text text-anchor="start" x="8" y="-131.5" font-family="Helvetica,sans-Serif" font-size="10.00">+ elements</text>
<text text-anchor="start" x="8" y="-120.5" font-family="Helvetica,sans-Serif" font-size="10.00">+ keys</text>
<polyline fill="none" stroke="#bfbfbf" points="0,-113.5 134,-113.5 "/>
<text text-anchor="middle" x="67" y="-101.5" font-family="Helvetica,sans-Serif" font-size="10.00"> </text>
</a>
</g>
</g>
<!-- Node2&#45;&gt;Node1 -->
<g id="edge1" class="edge">
<title>Node2&#45;&gt;Node1</title>
<path fill="none" stroke="midnightblue" d="M97.26,-85.54C102.79,-75.87 108.35,-66.14 113.23,-57.59"/>
<polygon fill="none" stroke="midnightblue" points="94.14,-83.95 92.22,-94.37 100.22,-87.42 94.14,-83.95"/>
</g>
<!-- Node3 -->
<g id="node3" class="node">
<title>Node3</title>
<g id="a_node3"><a xlink:title=" ">
<polygon fill="white" stroke="#bfbfbf" points="152.5,-111 152.5,-168 231.5,-168 231.5,-111 152.5,-111"/>
<text text-anchor="middle" x="192" y="-156" font-family="Helvetica,sans-Serif" font-size="10.00">noncopyable</text>
<polyline fill="none" stroke="#bfbfbf" points="152.5,-149 231.5,-149 "/>
<text text-anchor="middle" x="192" y="-137" font-family="Helvetica,sans-Serif" font-size="10.00"> </text>
<polyline fill="none" stroke="#bfbfbf" points="152.5,-130 231.5,-130 "/>
<text text-anchor="middle" x="192" y="-118" font-family="Helvetica,sans-Serif" font-size="10.00"> </text>
</a>
</g>
</g>
<!-- Node3&#45;&gt;Node1 -->
<g id="edge2" class="edge">
<title>Node3&#45;&gt;Node1</title>
<path fill="none" stroke="midnightblue" d="M170.86,-102.09C162.42,-87.56 152.88,-71.12 145.03,-57.61"/>
<polygon fill="none" stroke="midnightblue" points="167.89,-103.95 175.94,-110.84 173.94,-100.43 167.89,-103.95"/>
</g>
</g>
</svg>
