<?xml version="1.0" encoding="UTF-8" standalone="no"?>
<!DOCTYPE svg PUBLIC "-//W3C//DTD SVG 1.1//EN"
 "http://www.w3.org/Graphics/SVG/1.1/DTD/svg11.dtd">
<!-- Generated by graphviz version 2.43.0 (0)
 -->
<!-- Title: Feel::DofTableBase&lt; SizeT &gt; Pages: 1 -->
<svg width="149pt" height="226pt"
 viewBox="0.00 0.00 149.00 226.00" xmlns="http://www.w3.org/2000/svg" xmlns:xlink="http://www.w3.org/1999/xlink">
<g id="graph0" class="graph" transform="scale(1 1) rotate(0) translate(4 222)">
<title>Feel::DofTableBase&lt; SizeT &gt;</title>
<polygon fill="white" stroke="transparent" points="-4,4 -4,-222 145,-222 145,4 -4,4"/>
<!-- Node1 -->
<g id="node1" class="node">
<title>Node1</title>
<g id="a_node1"><a xlink:title=" ">
<polygon fill="#bfbfbf" stroke="black" points="8.5,-0.5 8.5,-123.5 132.5,-123.5 132.5,-0.5 8.5,-0.5"/>
<text text-anchor="start" x="16.5" y="-111.5" font-family="Helvetica,sans-Serif" font-size="10.00">Feel::DofTableBase</text>
<text text-anchor="middle" x="70.5" y="-100.5" font-family="Helvetica,sans-Serif" font-size="10.00">&lt; SizeT &gt;</text>
<polyline fill="none" stroke="black" points="8.5,-93.5 132.5,-93.5 "/>
<text text-anchor="middle" x="70.5" y="-81.5" font-family="Helvetica,sans-Serif" font-size="10.00"> </text>
<polyline fill="none" stroke="black" points="8.5,-74.5 132.5,-74.5 "/>
<text text-anchor="start" x="16.5" y="-62.5" font-family="Helvetica,sans-Serif" font-size="10.00">+ DofTableBase()</text>
<text text-anchor="start" x="16.5" y="-51.5" font-family="Helvetica,sans-Serif" font-size="10.00">+ DofTableBase()</text>
<text text-anchor="start" x="16.5" y="-40.5" font-family="Helvetica,sans-Serif" font-size="10.00">+ DofTableBase()</text>
<text text-anchor="start" x="16.5" y="-29.5" font-family="Helvetica,sans-Serif" font-size="10.00">+ DofTableBase()</text>
<text text-anchor="start" x="16.5" y="-18.5" font-family="Helvetica,sans-Serif" font-size="10.00">+ faceLocalToGlobal()</text>
<text text-anchor="start" x="16.5" y="-7.5" font-family="Helvetica,sans-Serif" font-size="10.00">and 5 more...</text>
</a>
</g>
</g>
<!-- Node2 -->
<g id="node2" class="node">
<title>Node2</title>
<g id="a_node2"><a xlink:title=" ">
<polygon fill="white" stroke="#bfbfbf" points="0,-160.5 0,-217.5 141,-217.5 141,-160.5 0,-160.5"/>
<text text-anchor="middle" x="70.5" y="-205.5" font-family="Helvetica,sans-Serif" font-size="10.00">DataMap&lt; uint32_type &gt;</text>
<polyline fill="none" stroke="#bfbfbf" points="0,-198.5 141,-198.5 "/>
<text text-anchor="middle" x="70.5" y="-186.5" font-family="Helvetica,sans-Serif" font-size="10.00"> </text>
<polyline fill="none" stroke="#bfbfbf" points="0,-179.5 141,-179.5 "/>
<text text-anchor="middle" x="70.5" y="-167.5" font-family="Helvetica,sans-Serif" font-size="10.00"> </text>
</a>
</g>
</g>
<!-- Node2&#45;&gt;Node1 -->
<g id="edge1" class="edge">
<title>Node2&#45;&gt;Node1</title>
<path fill="none" stroke="midnightblue" d="M70.5,-150.1C70.5,-141.74 70.5,-132.68 70.5,-123.67"/>
<polygon fill="none" stroke="midnightblue" points="67,-150.26 70.5,-160.26 74,-150.26 67,-150.26"/>
</g>
</g>
</svg>
