<?xml version="1.0" encoding="UTF-8" standalone="no"?>
<!DOCTYPE svg PUBLIC "-//W3C//DTD SVG 1.1//EN"
 "http://www.w3.org/Graphics/SVG/1.1/DTD/svg11.dtd">
<!-- Generated by graphviz version 2.43.0 (0)
 -->
<!-- Title: Feel::TimeSet Pages: 1 -->
<svg width="320pt" height="419pt"
 viewBox="0.00 0.00 320.00 419.00" xmlns="http://www.w3.org/2000/svg" xmlns:xlink="http://www.w3.org/1999/xlink">
<g id="graph0" class="graph" transform="scale(1 1) rotate(0) translate(4 415)">
<title>Feel::TimeSet</title>
<polygon fill="white" stroke="transparent" points="-4,4 -4,-415 316,-415 316,4 -4,4"/>
<!-- Node1 -->
<g id="node1" class="node">
<title>Node1</title>
<g id="a_node1"><a xlink:title="Handles a set of time steps.">
<polygon fill="#bfbfbf" stroke="black" points="113,-204.5 113,-316.5 196,-316.5 196,-204.5 113,-204.5"/>
<text text-anchor="middle" x="154.5" y="-304.5" font-family="Helvetica,sans-Serif" font-size="10.00">Feel::TimeSet</text>
<polyline fill="none" stroke="black" points="113,-297.5 196,-297.5 "/>
<text text-anchor="middle" x="154.5" y="-285.5" font-family="Helvetica,sans-Serif" font-size="10.00"> </text>
<polyline fill="none" stroke="black" points="113,-278.5 196,-278.5 "/>
<text text-anchor="start" x="121" y="-266.5" font-family="Helvetica,sans-Serif" font-size="10.00">+ index()</text>
<text text-anchor="start" x="121" y="-255.5" font-family="Helvetica,sans-Serif" font-size="10.00">+ k()</text>
<text text-anchor="start" x="121" y="-244.5" font-family="Helvetica,sans-Serif" font-size="10.00">+ k()</text>
<text text-anchor="start" x="121" y="-233.5" font-family="Helvetica,sans-Serif" font-size="10.00">+ kprev()</text>
<text text-anchor="start" x="121" y="-222.5" font-family="Helvetica,sans-Serif" font-size="10.00">+ kprev()</text>
<text text-anchor="start" x="121" y="-211.5" font-family="Helvetica,sans-Serif" font-size="10.00">and 8 more...</text>
</a>
</g>
</g>
<!-- Node3 -->
<g id="node3" class="node">
<title>Node3</title>
<g id="a_node3"><a xlink:href="classFeel_1_1CNAB2.html" target="_top" xlink:title=" ">
<polygon fill="white" stroke="black" points="0,-0.5 0,-167.5 145,-167.5 145,-0.5 0,-0.5"/>
<text text-anchor="middle" x="72.5" y="-155.5" font-family="Helvetica,sans-Serif" font-size="10.00">Feel::CNAB2&lt; FieldType &gt;</text>
<polyline fill="none" stroke="black" points="0,-148.5 145,-148.5 "/>
<text text-anchor="start" x="8" y="-136.5" font-family="Helvetica,sans-Serif" font-size="10.00">+ acc</text>
<text text-anchor="start" x="8" y="-125.5" font-family="Helvetica,sans-Serif" font-size="10.00">+ acc_try</text>
<text text-anchor="start" x="8" y="-114.5" font-family="Helvetica,sans-Serif" font-size="10.00">+ accp</text>
<text text-anchor="start" x="8" y="-103.5" font-family="Helvetica,sans-Serif" font-size="10.00">+ accstar</text>
<text text-anchor="start" x="8" y="-92.5" font-family="Helvetica,sans-Serif" font-size="10.00">+ d</text>
<text text-anchor="start" x="8" y="-81.5" font-family="Helvetica,sans-Serif" font-size="10.00">and 15 more...</text>
<polyline fill="none" stroke="black" points="0,-74.5 145,-74.5 "/>
<text text-anchor="start" x="8" y="-62.5" font-family="Helvetica,sans-Serif" font-size="10.00">+ addStep()</text>
<text text-anchor="start" x="8" y="-51.5" font-family="Helvetica,sans-Serif" font-size="10.00">+ addStep()</text>
<text text-anchor="start" x="8" y="-40.5" font-family="Helvetica,sans-Serif" font-size="10.00">+ addStep()</text>
<text text-anchor="start" x="8" y="-29.5" font-family="Helvetica,sans-Serif" font-size="10.00">+ averaging()</text>
<text text-anchor="start" x="8" y="-18.5" font-family="Helvetica,sans-Serif" font-size="10.00">+ CNAB2()</text>
<text text-anchor="start" x="8" y="-7.5" font-family="Helvetica,sans-Serif" font-size="10.00">and 11 more...</text>
</a>
</g>
</g>
<!-- Node1&#45;&gt;Node3 -->
<g id="edge2" class="edge">
<title>Node1&#45;&gt;Node3</title>
<path fill="none" stroke="midnightblue" d="M124.23,-195.09C120.02,-186.13 115.65,-176.82 111.31,-167.59"/>
<polygon fill="none" stroke="midnightblue" points="121.13,-196.73 128.55,-204.29 127.47,-193.75 121.13,-196.73"/>
</g>
<!-- Node4 -->
<g id="node4" class="node">
<title>Node4</title>
<g id="a_node4"><a xlink:href="classFeel_1_1CNAB2x2.html" target="_top" xlink:title=" ">
<polygon fill="white" stroke="black" points="163,-22.5 163,-145.5 312,-145.5 312,-22.5 163,-22.5"/>
<text text-anchor="start" x="171" y="-133.5" font-family="Helvetica,sans-Serif" font-size="10.00">Feel::CNAB2x2&lt; Element1,</text>
<text text-anchor="middle" x="237.5" y="-122.5" font-family="Helvetica,sans-Serif" font-size="10.00"> Element2 &gt;</text>
<polyline fill="none" stroke="black" points="163,-115.5 312,-115.5 "/>
<text text-anchor="middle" x="237.5" y="-103.5" font-family="Helvetica,sans-Serif" font-size="10.00"> </text>
<polyline fill="none" stroke="black" points="163,-96.5 312,-96.5 "/>
<text text-anchor="start" x="171" y="-84.5" font-family="Helvetica,sans-Serif" font-size="10.00">+ addStep()</text>
<text text-anchor="start" x="171" y="-73.5" font-family="Helvetica,sans-Serif" font-size="10.00">+ CNAB2x2()</text>
<text text-anchor="start" x="171" y="-62.5" font-family="Helvetica,sans-Serif" font-size="10.00">+ CNAB2x2()</text>
<text text-anchor="start" x="171" y="-51.5" font-family="Helvetica,sans-Serif" font-size="10.00">+ computeStep()</text>
<text text-anchor="start" x="171" y="-40.5" font-family="Helvetica,sans-Serif" font-size="10.00">+ displayStats()</text>
<text text-anchor="start" x="171" y="-29.5" font-family="Helvetica,sans-Serif" font-size="10.00">and 6 more...</text>
</a>
</g>
</g>
<!-- Node1&#45;&gt;Node4 -->
<g id="edge3" class="edge">
<title>Node1&#45;&gt;Node4</title>
<path fill="none" stroke="midnightblue" d="M185.21,-194.93C192.89,-178.79 201.09,-161.54 208.67,-145.6"/>
<polygon fill="none" stroke="midnightblue" points="181.9,-193.75 180.76,-204.29 188.22,-196.76 181.9,-193.75"/>
</g>
<!-- Node2 -->
<g id="node2" class="node">
<title>Node2</title>
<g id="a_node2"><a xlink:title="STL class.">
<polygon fill="white" stroke="#bfbfbf" points="76.5,-353.5 76.5,-410.5 232.5,-410.5 232.5,-353.5 76.5,-353.5"/>
<text text-anchor="middle" x="154.5" y="-398.5" font-family="Helvetica,sans-Serif" font-size="10.00">std::vector&lt; TimeStepInfo &gt;</text>
<polyline fill="none" stroke="#bfbfbf" points="76.5,-391.5 232.5,-391.5 "/>
<text text-anchor="start" x="84.5" y="-379.5" font-family="Helvetica,sans-Serif" font-size="10.00">+ elements</text>
<polyline fill="none" stroke="#bfbfbf" points="76.5,-372.5 232.5,-372.5 "/>
<text text-anchor="middle" x="154.5" y="-360.5" font-family="Helvetica,sans-Serif" font-size="10.00"> </text>
</a>
</g>
</g>
<!-- Node2&#45;&gt;Node1 -->
<g id="edge1" class="edge">
<title>Node2&#45;&gt;Node1</title>
<path fill="none" stroke="midnightblue" d="M154.5,-343.11C154.5,-334.75 154.5,-325.73 154.5,-316.83"/>
<polygon fill="none" stroke="midnightblue" points="151,-343.28 154.5,-353.28 158,-343.28 151,-343.28"/>
</g>
</g>
</svg>
