<?xml version="1.0" encoding="UTF-8" standalone="no"?>
<!DOCTYPE svg PUBLIC "-//W3C//DTD SVG 1.1//EN"
 "http://www.w3.org/Graphics/SVG/1.1/DTD/svg11.dtd">
<!-- Generated by graphviz version 2.43.0 (0)
 -->
<!-- Title: Feel::FeelModels::TrialSymbolExpr&lt; SpaceType, ExprType &gt; Pages: 1 -->
<svg width="171pt" height="321pt"
 viewBox="0.00 0.00 171.00 321.00" xmlns="http://www.w3.org/2000/svg" xmlns:xlink="http://www.w3.org/1999/xlink">
<g id="graph0" class="graph" transform="scale(1 1) rotate(0) translate(4 317)">
<title>Feel::FeelModels::TrialSymbolExpr&lt; SpaceType, ExprType &gt;</title>
<polygon fill="white" stroke="transparent" points="-4,4 -4,-317 167,-317 167,4 -4,4"/>
<!-- Node1 -->
<g id="node1" class="node">
<title>Node1</title>
<g id="a_node1"><a xlink:title=" ">
<polygon fill="#bfbfbf" stroke="black" points="0,-0.5 0,-112.5 163,-112.5 163,-0.5 0,-0.5"/>
<text text-anchor="start" x="8" y="-100.5" font-family="Helvetica,sans-Serif" font-size="10.00">Feel::FeelModels::TrialSymbol</text>
<text text-anchor="middle" x="81.5" y="-89.5" font-family="Helvetica,sans-Serif" font-size="10.00">Expr&lt; SpaceType, ExprType &gt;</text>
<polyline fill="none" stroke="black" points="0,-82.5 163,-82.5 "/>
<text text-anchor="middle" x="81.5" y="-70.5" font-family="Helvetica,sans-Serif" font-size="10.00"> </text>
<polyline fill="none" stroke="black" points="0,-63.5 163,-63.5 "/>
<text text-anchor="start" x="8" y="-51.5" font-family="Helvetica,sans-Serif" font-size="10.00">+ add()</text>
<text text-anchor="start" x="8" y="-40.5" font-family="Helvetica,sans-Serif" font-size="10.00">+ TrialSymbolExpr()</text>
<text text-anchor="start" x="8" y="-29.5" font-family="Helvetica,sans-Serif" font-size="10.00">+ TrialSymbolExpr()</text>
<text text-anchor="start" x="8" y="-18.5" font-family="Helvetica,sans-Serif" font-size="10.00">+ TrialSymbolExpr()</text>
<text text-anchor="start" x="8" y="-7.5" font-family="Helvetica,sans-Serif" font-size="10.00">+ TrialSymbolExpr()</text>
</a>
</g>
</g>
<!-- Node2 -->
<g id="node2" class="node">
<title>Node2</title>
<g id="a_node2"><a xlink:title=" ">
<polygon fill="white" stroke="black" points="33,-150.5 33,-207.5 130,-207.5 130,-150.5 33,-150.5"/>
<text text-anchor="middle" x="81.5" y="-195.5" font-family="Helvetica,sans-Serif" font-size="10.00">std::vector&lt; T &gt;</text>
<polyline fill="none" stroke="black" points="33,-188.5 130,-188.5 "/>
<text text-anchor="middle" x="81.5" y="-176.5" font-family="Helvetica,sans-Serif" font-size="10.00"> </text>
<polyline fill="none" stroke="black" points="33,-169.5 130,-169.5 "/>
<text text-anchor="middle" x="81.5" y="-157.5" font-family="Helvetica,sans-Serif" font-size="10.00"> </text>
</a>
</g>
</g>
<!-- Node2&#45;&gt;Node1 -->
<g id="edge1" class="edge">
<title>Node2&#45;&gt;Node1</title>
<path fill="none" stroke="midnightblue" d="M81.5,-140.11C81.5,-131.36 81.5,-121.88 81.5,-112.57"/>
<polygon fill="none" stroke="midnightblue" points="78,-140.35 81.5,-150.35 85,-140.35 78,-140.35"/>
</g>
<!-- Node3 -->
<g id="node3" class="node">
<title>Node3</title>
<g id="a_node3"><a xlink:title=" ">
<polygon fill="white" stroke="#bfbfbf" points="67,-255.5 67,-312.5 96,-312.5 96,-255.5 67,-255.5"/>
<text text-anchor="middle" x="81.5" y="-300.5" font-family="Helvetica,sans-Serif" font-size="10.00">T</text>
<polyline fill="none" stroke="#bfbfbf" points="67,-293.5 96,-293.5 "/>
<text text-anchor="middle" x="81.5" y="-281.5" font-family="Helvetica,sans-Serif" font-size="10.00"> </text>
<polyline fill="none" stroke="#bfbfbf" points="67,-274.5 96,-274.5 "/>
<text text-anchor="middle" x="81.5" y="-262.5" font-family="Helvetica,sans-Serif" font-size="10.00"> </text>
</a>
</g>
</g>
<!-- Node3&#45;&gt;Node2 -->
<g id="edge2" class="edge">
<title>Node3&#45;&gt;Node2</title>
<path fill="none" stroke="#404040" d="M81.5,-255.4C81.5,-244.55 81.5,-231.87 81.5,-220.05"/>
<polygon fill="none" stroke="#404040" points="81.5,-219.68 77.5,-213.68 81.5,-207.68 85.5,-213.68 81.5,-219.68"/>
<text text-anchor="middle" x="110.5" y="-229" font-family="Helvetica,sans-Serif" font-size="10.00"> +elements</text>
</g>
</g>
</svg>
