<?xml version="1.0" encoding="UTF-8" standalone="no"?>
<!DOCTYPE svg PUBLIC "-//W3C//DTD SVG 1.1//EN"
 "http://www.w3.org/Graphics/SVG/1.1/DTD/svg11.dtd">
<!-- Generated by graphviz version 2.43.0 (0)
 -->
<!-- Title: Feel::Mesh0D&lt; Shape, T, IndexT &gt; Pages: 1 -->
<!--zoomable 1421 -->
<svg id="main" version="1.1" xmlns="http://www.w3.org/2000/svg" xmlns:xlink="http://www.w3.org/1999/xlink" xml:space="preserve" onload="init(evt)">
<style type="text/css"><![CDATA[
.edge:hover path { stroke: red; }
.edge:hover polygon { stroke: red; fill: red; }
]]></style>
<script type="text/javascript"><![CDATA[
var edges = document.getElementsByTagName('g');
if (edges && edges.length) {
  for (var i=0;i<edges.length;i++) {
    if (edges[i].id.substr(0,4)=='edge') {
      edges[i].setAttribute('class','edge');
    }
  }
}
]]></script>
        <defs>
                <circle id="rim" cx="0" cy="0" r="7"/>
                <circle id="rim2" cx="0" cy="0" r="3.5"/>
                <g id="zoomPlus">
                        <use xlink:href="#rim" fill="#404040">
                                <set attributeName="fill" to="#808080" begin="zoomplus.mouseover" end="zoomplus.mouseout"/>
                        </use>
                        <path d="M-4,0h8M0,-4v8" fill="none" stroke="white" stroke-width="1.5" pointer-events="none"/>
                </g>
                <g id="zoomMin">
                        <use xlink:href="#rim" fill="#404040">
                                <set attributeName="fill" to="#808080" begin="zoomminus.mouseover" end="zoomminus.mouseout"/>
                        </use>
                        <path d="M-4,0h8" fill="none" stroke="white" stroke-width="1.5" pointer-events="none"/>
                </g>
                <g id="dirArrow">
                        <path fill="none" stroke="white" stroke-width="1.5" d="M0,-3.0v7 M-2.5,-0.5L0,-3.0L2.5,-0.5"/>
                </g>
               <g id="resetDef">
                       <use xlink:href="#rim2" fill="#404040">
                               <set attributeName="fill" to="#808080" begin="reset.mouseover" end="reset.mouseout"/>
                       </use>
               </g>
        </defs>

<script type="text/javascript">
var viewWidth = 798;
var viewHeight = 1421;
var sectionId = 'dynsection-1';
</script>
<script xlink:href="svgpan.js"/>
<svg id="graph" class="graph">
<g id="viewport">
<title>Feel::Mesh0D&lt; Shape, T, IndexT &gt;</title>
<polygon fill="white" stroke="transparent" points="-4,4 -4,-1417 794,-1417 794,4 -4,4"/>
<!-- Node1 -->
<g id="node1" class="node">
<title>Node1</title>
<g id="a_node1"><a xlink:title="0D mesh class">
<polygon fill="#bfbfbf" stroke="black" points="315,-0.5 315,-376.5 479,-376.5 479,-0.5 315,-0.5"/>
<text text-anchor="start" x="323" y="-364.5" font-family="Helvetica,sans-Serif" font-size="10.00">Feel::Mesh0D&lt; Shape,</text>
<text text-anchor="middle" x="397" y="-353.5" font-family="Helvetica,sans-Serif" font-size="10.00"> T, IndexT &gt;</text>
<polyline fill="none" stroke="black" points="315,-346.5 479,-346.5 "/>
<text text-anchor="middle" x="397" y="-334.5" font-family="Helvetica,sans-Serif" font-size="10.00"> </text>
<polyline fill="none" stroke="black" points="315,-327.5 479,-327.5 "/>
<text text-anchor="start" x="323" y="-315.5" font-family="Helvetica,sans-Serif" font-size="10.00">* return_type</text>
<text text-anchor="start" x="323" y="-304.5" font-family="Helvetica,sans-Serif" font-size="10.00">* super_visitable</text>
<text text-anchor="start" x="323" y="-293.5" font-family="Helvetica,sans-Serif" font-size="10.00">* super</text>
<text text-anchor="start" x="323" y="-282.5" font-family="Helvetica,sans-Serif" font-size="10.00">* index_type</text>
<text text-anchor="start" x="323" y="-271.5" font-family="Helvetica,sans-Serif" font-size="10.00">* size_type</text>
<text text-anchor="start" x="323" y="-260.5" font-family="Helvetica,sans-Serif" font-size="10.00">and 53 more...</text>
<text text-anchor="start" x="323" y="-249.5" font-family="Helvetica,sans-Serif" font-size="10.00">* boost::serialization</text>
<text text-anchor="start" x="323" y="-238.5" font-family="Helvetica,sans-Serif" font-size="10.00">::access</text>
<text text-anchor="start" x="323" y="-227.5" font-family="Helvetica,sans-Serif" font-size="10.00">* clear()</text>
<text text-anchor="start" x="323" y="-216.5" font-family="Helvetica,sans-Serif" font-size="10.00">* FEELPP_DEFINE_VISITABLE()</text>
<text text-anchor="start" x="323" y="-205.5" font-family="Helvetica,sans-Serif" font-size="10.00">* renumber()</text>
<text text-anchor="start" x="323" y="-194.5" font-family="Helvetica,sans-Serif" font-size="10.00">* updateEntitiesCoDimension</text>
<text text-anchor="start" x="323" y="-183.5" font-family="Helvetica,sans-Serif" font-size="10.00">OnePermutation()</text>
<text text-anchor="start" x="323" y="-172.5" font-family="Helvetica,sans-Serif" font-size="10.00">* updateEntitiesCoDimension</text>
<text text-anchor="start" x="323" y="-161.5" font-family="Helvetica,sans-Serif" font-size="10.00">Two()</text>
<text text-anchor="start" x="323" y="-150.5" font-family="Helvetica,sans-Serif" font-size="10.00">* serialize()</text>
<text text-anchor="start" x="323" y="-139.5" font-family="Helvetica,sans-Serif" font-size="10.00">* Mesh0D()</text>
<text text-anchor="start" x="323" y="-128.5" font-family="Helvetica,sans-Serif" font-size="10.00">* Mesh0D()</text>
<text text-anchor="start" x="323" y="-117.5" font-family="Helvetica,sans-Serif" font-size="10.00">* Mesh0D()</text>
<text text-anchor="start" x="323" y="-106.5" font-family="Helvetica,sans-Serif" font-size="10.00">* ~Mesh0D()</text>
<text text-anchor="start" x="323" y="-95.5" font-family="Helvetica,sans-Serif" font-size="10.00">* operator=()</text>
<text text-anchor="start" x="323" y="-84.5" font-family="Helvetica,sans-Serif" font-size="10.00">* operator=()</text>
<text text-anchor="start" x="323" y="-73.5" font-family="Helvetica,sans-Serif" font-size="10.00">* isEmpty()</text>
<text text-anchor="start" x="323" y="-62.5" font-family="Helvetica,sans-Serif" font-size="10.00">* numElements()</text>
<text text-anchor="start" x="323" y="-51.5" font-family="Helvetica,sans-Serif" font-size="10.00">* numLocalFaces()</text>
<text text-anchor="start" x="323" y="-40.5" font-family="Helvetica,sans-Serif" font-size="10.00">* numLocalVertices()</text>
<text text-anchor="start" x="323" y="-29.5" font-family="Helvetica,sans-Serif" font-size="10.00">* numFaces()</text>
<text text-anchor="start" x="323" y="-18.5" font-family="Helvetica,sans-Serif" font-size="10.00">* numPoints()</text>
<text text-anchor="start" x="323" y="-7.5" font-family="Helvetica,sans-Serif" font-size="10.00">* setWorldComm()</text>
</a>
</g>
</g>
<!-- Node2 -->
<g id="node2" class="node">
<title>Node2</title>
<g id="a_node2"><a xlink:href="classFeel_1_1VisitableBase.html" target="_top" xlink:title=" ">
<polygon fill="white" stroke="#bfbfbf" points="0,-595 0,-696 110,-696 110,-595 0,-595"/>
<text text-anchor="start" x="8" y="-684" font-family="Helvetica,sans-Serif" font-size="10.00">Feel::VisitableBase</text>
<text text-anchor="middle" x="55" y="-673" font-family="Helvetica,sans-Serif" font-size="10.00">&lt; R, CatchAll &gt;</text>
<polyline fill="none" stroke="#bfbfbf" points="0,-666 110,-666 "/>
<text text-anchor="middle" x="55" y="-654" font-family="Helvetica,sans-Serif" font-size="10.00"> </text>
<polyline fill="none" stroke="#bfbfbf" points="0,-647 110,-647 "/>
<text text-anchor="start" x="8" y="-635" font-family="Helvetica,sans-Serif" font-size="10.00">+ accept()</text>
<text text-anchor="start" x="8" y="-624" font-family="Helvetica,sans-Serif" font-size="10.00">+ accept()</text>
<text text-anchor="start" x="8" y="-613" font-family="Helvetica,sans-Serif" font-size="10.00">+ ~VisitableBase()</text>
<text text-anchor="start" x="8" y="-602" font-family="Helvetica,sans-Serif" font-size="10.00"># acceptImpl()</text>
</a>
</g>
</g>
<!-- Node2&#45;&gt;Node1 -->
<g id="edge1" class="edge">
<title>Node2&#45;&gt;Node1</title>
<path fill="none" stroke="midnightblue" d="M64.22,-584.69C73.07,-540.63 89.59,-480.69 119,-435 169.8,-356.09 252.86,-287.45 314.99,-242.97"/>
<polygon fill="none" stroke="midnightblue" points="60.75,-584.2 62.29,-594.68 67.62,-585.53 60.75,-584.2"/>
</g>
<!-- Node3 -->
<g id="node3" class="node">
<title>Node3</title>
<g id="a_node3"><a xlink:href="classFeel_1_1MeshBase.html" target="_top" xlink:title=" ">
<polygon fill="white" stroke="black" points="128.5,-435.5 128.5,-855.5 301.5,-855.5 301.5,-435.5 128.5,-435.5"/>
<text text-anchor="start" x="136.5" y="-843.5" font-family="Helvetica,sans-Serif" font-size="10.00">Feel::MeshBase&lt; uint32</text>
<text text-anchor="middle" x="215" y="-832.5" font-family="Helvetica,sans-Serif" font-size="10.00">_type &gt;</text>
<polyline fill="none" stroke="black" points="128.5,-825.5 301.5,-825.5 "/>
<text text-anchor="middle" x="215" y="-813.5" font-family="Helvetica,sans-Serif" font-size="10.00"> </text>
<polyline fill="none" stroke="black" points="128.5,-806.5 301.5,-806.5 "/>
<text text-anchor="start" x="136.5" y="-794.5" font-family="Helvetica,sans-Serif" font-size="10.00">* super</text>
<text text-anchor="start" x="136.5" y="-783.5" font-family="Helvetica,sans-Serif" font-size="10.00">* index_type</text>
<text text-anchor="start" x="136.5" y="-772.5" font-family="Helvetica,sans-Serif" font-size="10.00">* index_t</text>
<text text-anchor="start" x="136.5" y="-761.5" font-family="Helvetica,sans-Serif" font-size="10.00">* size_type</text>
<text text-anchor="start" x="136.5" y="-750.5" font-family="Helvetica,sans-Serif" font-size="10.00">* face_processor_type</text>
<text text-anchor="start" x="136.5" y="-739.5" font-family="Helvetica,sans-Serif" font-size="10.00">* smd_type</text>
<text text-anchor="start" x="136.5" y="-728.5" font-family="Helvetica,sans-Serif" font-size="10.00">* smd_ptrtype</text>
<text text-anchor="start" x="136.5" y="-717.5" font-family="Helvetica,sans-Serif" font-size="10.00">* boost::serialization</text>
<text text-anchor="start" x="136.5" y="-706.5" font-family="Helvetica,sans-Serif" font-size="10.00">::access</text>
<text text-anchor="start" x="136.5" y="-695.5" font-family="Helvetica,sans-Serif" font-size="10.00">* M_topodim</text>
<text text-anchor="start" x="136.5" y="-684.5" font-family="Helvetica,sans-Serif" font-size="10.00">* M_realdim</text>
<text text-anchor="start" x="136.5" y="-673.5" font-family="Helvetica,sans-Serif" font-size="10.00">* M_components</text>
<text text-anchor="start" x="136.5" y="-662.5" font-family="Helvetica,sans-Serif" font-size="10.00">* M_is_updated</text>
<text text-anchor="start" x="136.5" y="-651.5" font-family="Helvetica,sans-Serif" font-size="10.00">and 65 more...</text>
<text text-anchor="start" x="136.5" y="-640.5" font-family="Helvetica,sans-Serif" font-size="10.00">* MeshBase()</text>
<text text-anchor="start" x="136.5" y="-629.5" font-family="Helvetica,sans-Serif" font-size="10.00">* MeshBase()</text>
<text text-anchor="start" x="136.5" y="-618.5" font-family="Helvetica,sans-Serif" font-size="10.00">* MeshBase()</text>
<text text-anchor="start" x="136.5" y="-607.5" font-family="Helvetica,sans-Serif" font-size="10.00">* MeshBase()</text>
<text text-anchor="start" x="136.5" y="-596.5" font-family="Helvetica,sans-Serif" font-size="10.00">* MeshBase()</text>
<text text-anchor="start" x="136.5" y="-585.5" font-family="Helvetica,sans-Serif" font-size="10.00">* MeshBase()</text>
<text text-anchor="start" x="136.5" y="-574.5" font-family="Helvetica,sans-Serif" font-size="10.00">* ~MeshBase()</text>
<text text-anchor="start" x="136.5" y="-563.5" font-family="Helvetica,sans-Serif" font-size="10.00">* operator=()</text>
<text text-anchor="start" x="136.5" y="-552.5" font-family="Helvetica,sans-Serif" font-size="10.00">* operator=()</text>
<text text-anchor="start" x="136.5" y="-541.5" font-family="Helvetica,sans-Serif" font-size="10.00">* shared_from_this_meshbase()</text>
<text text-anchor="start" x="136.5" y="-530.5" font-family="Helvetica,sans-Serif" font-size="10.00">* shared_from_this_meshbase()</text>
<text text-anchor="start" x="136.5" y="-519.5" font-family="Helvetica,sans-Serif" font-size="10.00">* isUpdatedForUse()</text>
<text text-anchor="start" x="136.5" y="-508.5" font-family="Helvetica,sans-Serif" font-size="10.00">* setTopologicalDimension()</text>
<text text-anchor="start" x="136.5" y="-497.5" font-family="Helvetica,sans-Serif" font-size="10.00">* setRealDimension()</text>
<text text-anchor="start" x="136.5" y="-486.5" font-family="Helvetica,sans-Serif" font-size="10.00">and 14 more...</text>
<text text-anchor="start" x="136.5" y="-475.5" font-family="Helvetica,sans-Serif" font-size="10.00">* setNumberOfPartitions()</text>
<text text-anchor="start" x="136.5" y="-464.5" font-family="Helvetica,sans-Serif" font-size="10.00">* setNumVertices()</text>
<text text-anchor="start" x="136.5" y="-453.5" font-family="Helvetica,sans-Serif" font-size="10.00">* setComponents()</text>
<text text-anchor="start" x="136.5" y="-442.5" font-family="Helvetica,sans-Serif" font-size="10.00">* setParametric()</text>
</a>
</g>
</g>
<!-- Node3&#45;&gt;Node1 -->
<g id="edge2" class="edge">
<title>Node3&#45;&gt;Node1</title>
<path fill="none" stroke="midnightblue" d="M302.54,-425.65C309.11,-409.22 315.71,-392.73 322.19,-376.53"/>
<polygon fill="none" stroke="midnightblue" points="299.14,-424.73 298.68,-435.31 305.64,-427.33 299.14,-424.73"/>
</g>
<!-- Node4 -->
<g id="node4" class="node">
<title>Node4</title>
<g id="a_node4"><a xlink:href="classFeel_1_1CommObject.html" target="_top" xlink:title=" ">
<polygon fill="white" stroke="#bfbfbf" points="1.5,-991.5 1.5,-1103.5 108.5,-1103.5 108.5,-991.5 1.5,-991.5"/>
<text text-anchor="middle" x="55" y="-1091.5" font-family="Helvetica,sans-Serif" font-size="10.00">Feel::CommObject</text>
<polyline fill="none" stroke="#bfbfbf" points="1.5,-1084.5 108.5,-1084.5 "/>
<text text-anchor="middle" x="55" y="-1072.5" font-family="Helvetica,sans-Serif" font-size="10.00"> </text>
<polyline fill="none" stroke="#bfbfbf" points="1.5,-1065.5 108.5,-1065.5 "/>
<text text-anchor="start" x="9.5" y="-1053.5" font-family="Helvetica,sans-Serif" font-size="10.00">+ comm()</text>
<text text-anchor="start" x="9.5" y="-1042.5" font-family="Helvetica,sans-Serif" font-size="10.00">+ CommObject()</text>
<text text-anchor="start" x="9.5" y="-1031.5" font-family="Helvetica,sans-Serif" font-size="10.00">+ CommObject()</text>
<text text-anchor="start" x="9.5" y="-1020.5" font-family="Helvetica,sans-Serif" font-size="10.00">+ CommObject()</text>
<text text-anchor="start" x="9.5" y="-1009.5" font-family="Helvetica,sans-Serif" font-size="10.00">+ CommObject()</text>
<text text-anchor="start" x="9.5" y="-998.5" font-family="Helvetica,sans-Serif" font-size="10.00">and 13 more...</text>
</a>
</g>
</g>
<!-- Node4&#45;&gt;Node3 -->
<g id="edge3" class="edge">
<title>Node4&#45;&gt;Node3</title>
<path fill="none" stroke="midnightblue" d="M80.91,-981.73C94.89,-946.78 113.01,-901.48 131.39,-855.53"/>
<polygon fill="none" stroke="midnightblue" points="77.54,-980.72 77.08,-991.3 84.04,-983.32 77.54,-980.72"/>
</g>
<!-- Node5 -->
<g id="node5" class="node">
<title>Node5</title>
<g id="a_node5"><a xlink:href="classFeel_1_1JournalWatcher.html" target="_top" xlink:title=" ">
<polygon fill="white" stroke="#bfbfbf" points="126.5,-903.5 126.5,-1191.5 303.5,-1191.5 303.5,-903.5 126.5,-903.5"/>
<text text-anchor="middle" x="215" y="-1179.5" font-family="Helvetica,sans-Serif" font-size="10.00">Feel::JournalWatcher</text>
<polyline fill="none" stroke="#bfbfbf" points="126.5,-1172.5 303.5,-1172.5 "/>
<text text-anchor="middle" x="215" y="-1160.5" font-family="Helvetica,sans-Serif" font-size="10.00"> </text>
<polyline fill="none" stroke="#bfbfbf" points="126.5,-1153.5 303.5,-1153.5 "/>
<text text-anchor="start" x="134.5" y="-1141.5" font-family="Helvetica,sans-Serif" font-size="10.00">* M_journal_is_connected</text>
<text text-anchor="start" x="134.5" y="-1130.5" font-family="Helvetica,sans-Serif" font-size="10.00">* M_category</text>
<text text-anchor="start" x="134.5" y="-1119.5" font-family="Helvetica,sans-Serif" font-size="10.00">* M_name</text>
<text text-anchor="start" x="134.5" y="-1108.5" font-family="Helvetica,sans-Serif" font-size="10.00">* M_function_updateInformation</text>
<text text-anchor="start" x="134.5" y="-1097.5" font-family="Helvetica,sans-Serif" font-size="10.00">Object</text>
<text text-anchor="start" x="134.5" y="-1086.5" font-family="Helvetica,sans-Serif" font-size="10.00">* M_informationObject</text>
<text text-anchor="start" x="134.5" y="-1075.5" font-family="Helvetica,sans-Serif" font-size="10.00">* S_counterObjectByCategory</text>
<text text-anchor="start" x="134.5" y="-1064.5" font-family="Helvetica,sans-Serif" font-size="10.00">* JournalWatcher()</text>
<text text-anchor="start" x="134.5" y="-1053.5" font-family="Helvetica,sans-Serif" font-size="10.00">* JournalWatcher()</text>
<text text-anchor="start" x="134.5" y="-1042.5" font-family="Helvetica,sans-Serif" font-size="10.00">* JournalWatcher()</text>
<text text-anchor="start" x="134.5" y="-1031.5" font-family="Helvetica,sans-Serif" font-size="10.00">* JournalWatcher()</text>
<text text-anchor="start" x="134.5" y="-1020.5" font-family="Helvetica,sans-Serif" font-size="10.00">* ~JournalWatcher()</text>
<text text-anchor="start" x="134.5" y="-1009.5" font-family="Helvetica,sans-Serif" font-size="10.00">* journalIsConnected()</text>
<text text-anchor="start" x="134.5" y="-998.5" font-family="Helvetica,sans-Serif" font-size="10.00">* journalWatcherInstanceName()</text>
<text text-anchor="start" x="134.5" y="-987.5" font-family="Helvetica,sans-Serif" font-size="10.00">* journalSection()</text>
<text text-anchor="start" x="134.5" y="-976.5" font-family="Helvetica,sans-Serif" font-size="10.00">* informationObject()</text>
<text text-anchor="start" x="134.5" y="-965.5" font-family="Helvetica,sans-Serif" font-size="10.00">* journalConnect()</text>
<text text-anchor="start" x="134.5" y="-954.5" font-family="Helvetica,sans-Serif" font-size="10.00">* journalDisconnect()</text>
<text text-anchor="start" x="134.5" y="-943.5" font-family="Helvetica,sans-Serif" font-size="10.00">* updateInformationObject()</text>
<text text-anchor="start" x="134.5" y="-932.5" font-family="Helvetica,sans-Serif" font-size="10.00">* setInformationObject()</text>
<text text-anchor="start" x="134.5" y="-921.5" font-family="Helvetica,sans-Serif" font-size="10.00">* putInformationObject()</text>
<text text-anchor="start" x="134.5" y="-910.5" font-family="Helvetica,sans-Serif" font-size="10.00">and 4 more...</text>
</a>
</g>
</g>
<!-- Node5&#45;&gt;Node3 -->
<g id="edge4" class="edge">
<title>Node5&#45;&gt;Node3</title>
<path fill="none" stroke="midnightblue" d="M215,-893C215,-880.77 215,-868.28 215,-855.75"/>
<polygon fill="none" stroke="midnightblue" points="211.5,-893.22 215,-903.22 218.5,-893.22 211.5,-893.22"/>
</g>
<!-- Node6 -->
<g id="node6" class="node">
<title>Node6</title>
<g id="a_node6"><a xlink:title=" ">
<polygon fill="white" stroke="#bfbfbf" points="161.5,-1239.5 161.5,-1296.5 268.5,-1296.5 268.5,-1239.5 161.5,-1239.5"/>
<text text-anchor="middle" x="215" y="-1284.5" font-family="Helvetica,sans-Serif" font-size="10.00">Event::SlotHandler</text>
<polyline fill="none" stroke="#bfbfbf" points="161.5,-1277.5 268.5,-1277.5 "/>
<text text-anchor="middle" x="215" y="-1265.5" font-family="Helvetica,sans-Serif" font-size="10.00"> </text>
<polyline fill="none" stroke="#bfbfbf" points="161.5,-1258.5 268.5,-1258.5 "/>
<text text-anchor="middle" x="215" y="-1246.5" font-family="Helvetica,sans-Serif" font-size="10.00"> </text>
</a>
</g>
</g>
<!-- Node6&#45;&gt;Node5 -->
<g id="edge5" class="edge">
<title>Node6&#45;&gt;Node5</title>
<path fill="none" stroke="midnightblue" d="M215,-1229.3C215,-1218.26 215,-1205.47 215,-1191.9"/>
<polygon fill="none" stroke="midnightblue" points="211.5,-1229.33 215,-1239.33 218.5,-1229.33 211.5,-1229.33"/>
</g>
<!-- Node7 -->
<g id="node7" class="node">
<title>Node7</title>
<g id="a_node7"><a xlink:title=" ">
<polygon fill="white" stroke="black" points="322,-1013.5 322,-1081.5 474,-1081.5 474,-1013.5 322,-1013.5"/>
<text text-anchor="start" x="330" y="-1069.5" font-family="Helvetica,sans-Serif" font-size="10.00">std::map&lt; std::string,</text>
<text text-anchor="middle" x="398" y="-1058.5" font-family="Helvetica,sans-Serif" font-size="10.00"> std::vector&lt; size_type &gt; &gt;</text>
<polyline fill="none" stroke="black" points="322,-1051.5 474,-1051.5 "/>
<text text-anchor="middle" x="398" y="-1039.5" font-family="Helvetica,sans-Serif" font-size="10.00"> </text>
<polyline fill="none" stroke="black" points="322,-1032.5 474,-1032.5 "/>
<text text-anchor="middle" x="398" y="-1020.5" font-family="Helvetica,sans-Serif" font-size="10.00"> </text>
</a>
</g>
</g>
<!-- Node7&#45;&gt;Node3 -->
<g id="edge6" class="edge">
<title>Node7&#45;&gt;Node3</title>
<path fill="none" stroke="#404040" d="M382.87,-1013.43C365.71,-975.91 336.26,-911.55 306.78,-847.11"/>
<polygon fill="none" stroke="#404040" points="306.65,-846.84 300.52,-843.05 301.66,-835.93 307.8,-839.72 306.65,-846.84"/>
<text text-anchor="middle" x="367" y="-877" font-family="Helvetica,sans-Serif" font-size="10.00"> #M_markername</text>
</g>
<!-- Node8 -->
<g id="node8" class="node">
<title>Node8</title>
<g id="a_node8"><a xlink:title=" ">
<polygon fill="white" stroke="black" points="326.5,-1239.5 326.5,-1296.5 391.5,-1296.5 391.5,-1239.5 326.5,-1239.5"/>
<text text-anchor="middle" x="359" y="-1284.5" font-family="Helvetica,sans-Serif" font-size="10.00">std::string</text>
<polyline fill="none" stroke="black" points="326.5,-1277.5 391.5,-1277.5 "/>
<text text-anchor="middle" x="359" y="-1265.5" font-family="Helvetica,sans-Serif" font-size="10.00"> </text>
<polyline fill="none" stroke="black" points="326.5,-1258.5 391.5,-1258.5 "/>
<text text-anchor="middle" x="359" y="-1246.5" font-family="Helvetica,sans-Serif" font-size="10.00"> </text>
</a>
</g>
</g>
<!-- Node8&#45;&gt;Node7 -->
<g id="edge7" class="edge">
<title>Node8&#45;&gt;Node7</title>
<path fill="none" stroke="#404040" d="M363.94,-1239.33C370.48,-1202.67 382.11,-1137.54 389.93,-1093.69"/>
<polygon fill="none" stroke="#404040" points="389.97,-1093.47 387.09,-1086.86 392.08,-1081.65 394.97,-1088.26 389.97,-1093.47"/>
<text text-anchor="middle" x="386" y="-1213" font-family="Helvetica,sans-Serif" font-size="10.00"> +keys</text>
</g>
<!-- Node9 -->
<g id="node9" class="node">
<title>Node9</title>
<g id="a_node9"><a xlink:title=" ">
<polygon fill="white" stroke="black" points="307,-1344.5 307,-1412.5 411,-1412.5 411,-1344.5 307,-1344.5"/>
<text text-anchor="start" x="315" y="-1400.5" font-family="Helvetica,sans-Serif" font-size="10.00">std::basic_string&lt;</text>
<text text-anchor="middle" x="359" y="-1389.5" font-family="Helvetica,sans-Serif" font-size="10.00"> Char &gt;</text>
<polyline fill="none" stroke="black" points="307,-1382.5 411,-1382.5 "/>
<text text-anchor="middle" x="359" y="-1370.5" font-family="Helvetica,sans-Serif" font-size="10.00"> </text>
<polyline fill="none" stroke="black" points="307,-1363.5 411,-1363.5 "/>
<text text-anchor="middle" x="359" y="-1351.5" font-family="Helvetica,sans-Serif" font-size="10.00"> </text>
</a>
</g>
</g>
<!-- Node9&#45;&gt;Node8 -->
<g id="edge8" class="edge">
<title>Node9&#45;&gt;Node8</title>
<path fill="none" stroke="midnightblue" d="M359,-1334.06C359,-1321.51 359,-1308.15 359,-1296.83"/>
<polygon fill="none" stroke="midnightblue" points="355.5,-1334.36 359,-1344.36 362.5,-1334.36 355.5,-1334.36"/>
</g>
<!-- Node10 -->
<g id="node10" class="node">
<title>Node10</title>
<g id="a_node10"><a xlink:title=" ">
<polygon fill="white" stroke="black" points="409.5,-1239.5 409.5,-1296.5 546.5,-1296.5 546.5,-1239.5 409.5,-1239.5"/>
<text text-anchor="middle" x="478" y="-1284.5" font-family="Helvetica,sans-Serif" font-size="10.00">std::vector&lt; size_type &gt;</text>
<polyline fill="none" stroke="black" points="409.5,-1277.5 546.5,-1277.5 "/>
<text text-anchor="middle" x="478" y="-1265.5" font-family="Helvetica,sans-Serif" font-size="10.00"> </text>
<polyline fill="none" stroke="black" points="409.5,-1258.5 546.5,-1258.5 "/>
<text text-anchor="middle" x="478" y="-1246.5" font-family="Helvetica,sans-Serif" font-size="10.00"> </text>
</a>
</g>
</g>
<!-- Node10&#45;&gt;Node7 -->
<g id="edge9" class="edge">
<title>Node10&#45;&gt;Node7</title>
<path fill="none" stroke="#404040" d="M467.87,-1239.33C454.39,-1202.51 430.39,-1136.98 414.34,-1093.13"/>
<polygon fill="none" stroke="#404040" points="414.26,-1092.92 408.44,-1088.66 410.14,-1081.65 415.96,-1085.91 414.26,-1092.92"/>
<text text-anchor="middle" x="490" y="-1213" font-family="Helvetica,sans-Serif" font-size="10.00"> +elements</text>
</g>
<!-- Node11 -->
<g id="node11" class="node">
<title>Node11</title>
<g id="a_node11"><a xlink:title=" ">
<polygon fill="white" stroke="#bfbfbf" points="446.5,-1350 446.5,-1407 509.5,-1407 509.5,-1350 446.5,-1350"/>
<text text-anchor="middle" x="478" y="-1395" font-family="Helvetica,sans-Serif" font-size="10.00">size_type</text>
<polyline fill="none" stroke="#bfbfbf" points="446.5,-1388 509.5,-1388 "/>
<text text-anchor="middle" x="478" y="-1376" font-family="Helvetica,sans-Serif" font-size="10.00"> </text>
<polyline fill="none" stroke="#bfbfbf" points="446.5,-1369 509.5,-1369 "/>
<text text-anchor="middle" x="478" y="-1357" font-family="Helvetica,sans-Serif" font-size="10.00"> </text>
</a>
</g>
</g>
<!-- Node11&#45;&gt;Node10 -->
<g id="edge10" class="edge">
<title>Node11&#45;&gt;Node10</title>
<path fill="none" stroke="#404040" d="M478,-1349.84C478,-1337.34 478,-1322.34 478,-1308.68"/>
<polygon fill="none" stroke="#404040" points="478,-1308.61 474,-1302.61 478,-1296.61 482,-1302.61 478,-1308.61"/>
<text text-anchor="middle" x="507" y="-1318" font-family="Helvetica,sans-Serif" font-size="10.00"> +elements</text>
</g>
<!-- Node12 -->
<g id="node12" class="node">
<title>Node12</title>
<g id="a_node12"><a xlink:href="classElements.html" target="_top" xlink:title=" ">
<polygon fill="white" stroke="#bfbfbf" points="320,-617 320,-674 474,-674 474,-617 320,-617"/>
<text text-anchor="middle" x="397" y="-662" font-family="Helvetica,sans-Serif" font-size="10.00">Elements&lt; Shape, double &gt;</text>
<polyline fill="none" stroke="#bfbfbf" points="320,-655 474,-655 "/>
<text text-anchor="middle" x="397" y="-643" font-family="Helvetica,sans-Serif" font-size="10.00"> </text>
<polyline fill="none" stroke="#bfbfbf" points="320,-636 474,-636 "/>
<text text-anchor="middle" x="397" y="-624" font-family="Helvetica,sans-Serif" font-size="10.00"> </text>
</a>
</g>
</g>
<!-- Node12&#45;&gt;Node1 -->
<g id="edge11" class="edge">
<title>Node12&#45;&gt;Node1</title>
<path fill="none" stroke="midnightblue" d="M397,-606.56C397,-555.82 397,-462.28 397,-376.63"/>
<polygon fill="none" stroke="midnightblue" points="393.5,-606.72 397,-616.72 400.5,-606.72 393.5,-606.72"/>
</g>
<!-- Node13 -->
<g id="node13" class="node">
<title>Node13</title>
<g id="a_node13"><a xlink:href="classPoints.html" target="_top" xlink:title=" ">
<polygon fill="white" stroke="#bfbfbf" points="492.5,-611.5 492.5,-679.5 637.5,-679.5 637.5,-611.5 492.5,-611.5"/>
<text text-anchor="start" x="500.5" y="-667.5" font-family="Helvetica,sans-Serif" font-size="10.00">Points&lt; Shape::nRealDim,</text>
<text text-anchor="middle" x="565" y="-656.5" font-family="Helvetica,sans-Serif" font-size="10.00"> double &gt;</text>
<polyline fill="none" stroke="#bfbfbf" points="492.5,-649.5 637.5,-649.5 "/>
<text text-anchor="middle" x="565" y="-637.5" font-family="Helvetica,sans-Serif" font-size="10.00"> </text>
<polyline fill="none" stroke="#bfbfbf" points="492.5,-630.5 637.5,-630.5 "/>
<text text-anchor="middle" x="565" y="-618.5" font-family="Helvetica,sans-Serif" font-size="10.00"> </text>
</a>
</g>
</g>
<!-- Node13&#45;&gt;Node1 -->
<g id="edge12" class="edge">
<title>Node13&#45;&gt;Node1</title>
<path fill="none" stroke="midnightblue" d="M549.28,-601.92C530.21,-550.28 496.81,-459.81 466.13,-376.73"/>
<polygon fill="none" stroke="midnightblue" points="546.04,-603.24 552.78,-611.41 552.6,-600.82 546.04,-603.24"/>
</g>
<!-- Node14 -->
<g id="node14" class="node">
<title>Node14</title>
<g id="a_node14"><a xlink:title=" ">
<polygon fill="white" stroke="#bfbfbf" points="656,-617 656,-674 790,-674 790,-617 656,-617"/>
<text text-anchor="middle" x="723" y="-662" font-family="Helvetica,sans-Serif" font-size="10.00">static const uint16_type</text>
<polyline fill="none" stroke="#bfbfbf" points="656,-655 790,-655 "/>
<text text-anchor="middle" x="723" y="-643" font-family="Helvetica,sans-Serif" font-size="10.00"> </text>
<polyline fill="none" stroke="#bfbfbf" points="656,-636 790,-636 "/>
<text text-anchor="middle" x="723" y="-624" font-family="Helvetica,sans-Serif" font-size="10.00"> </text>
</a>
</g>
</g>
<!-- Node14&#45;&gt;Node1 -->
<g id="edge13" class="edge">
<title>Node14&#45;&gt;Node1</title>
<path fill="none" stroke="#404040" d="M717.16,-616.95C707.42,-575.13 685.07,-494.24 647,-435 604.34,-368.62 540.73,-306.48 488.35,-261.33"/>
<polygon fill="none" stroke="#404040" points="488.17,-261.17 481,-260.32 479.04,-253.38 486.2,-254.23 488.17,-261.17"/>
<text text-anchor="middle" x="659.5" y="-409" font-family="Helvetica,sans-Serif" font-size="10.00"> +nDim</text>
<text text-anchor="middle" x="659.5" y="-398" font-family="Helvetica,sans-Serif" font-size="10.00">+nRealDim</text>
</g>
</g>
</svg>
        <g id="navigator" transform="translate(0 0)" fill="#404254">
                <rect fill="#f2f5e9" fill-opacity="0.5" stroke="#606060" stroke-width=".5" x="0" y="0" width="60" height="60"/>
                <use id="zoomplus" xlink:href="#zoomPlus" x="17" y="9" onmousedown="handleZoom(evt,'in')"/>
                <use id="zoomminus" xlink:href="#zoomMin" x="42" y="9" onmousedown="handleZoom(evt,'out')"/>
                <use id="reset" xlink:href="#resetDef" x="30" y="36" onmousedown="handleReset()"/>
                <g id="arrowUp" xlink:href="#dirArrow" transform="translate(30 24)" onmousedown="handlePan(0,-1)">
                  <use xlink:href="#rim" fill="#404040">
                        <set attributeName="fill" to="#808080" begin="arrowUp.mouseover" end="arrowUp.mouseout"/>
                  </use>
                  <path fill="none" stroke="white" stroke-width="1.5" d="M0,-3.0v7 M-2.5,-0.5L0,-3.0L2.5,-0.5"/>
                </g>
                <g id="arrowRight" xlink:href="#dirArrow" transform="rotate(90) translate(36 -43)" onmousedown="handlePan(1,0)">
                  <use xlink:href="#rim" fill="#404040">
                        <set attributeName="fill" to="#808080" begin="arrowRight.mouseover" end="arrowRight.mouseout"/>
                  </use>
                  <path fill="none" stroke="white" stroke-width="1.5" d="M0,-3.0v7 M-2.5,-0.5L0,-3.0L2.5,-0.5"/>
                </g>
                <g id="arrowDown" xlink:href="#dirArrow" transform="rotate(180) translate(-30 -48)" onmousedown="handlePan(0,1)">
                  <use xlink:href="#rim" fill="#404040">
                        <set attributeName="fill" to="#808080" begin="arrowDown.mouseover" end="arrowDown.mouseout"/>
                  </use>
                  <path fill="none" stroke="white" stroke-width="1.5" d="M0,-3.0v7 M-2.5,-0.5L0,-3.0L2.5,-0.5"/>
                </g>
                <g id="arrowLeft" xlink:href="#dirArrow" transform="rotate(270) translate(-36 17)" onmousedown="handlePan(-1,0)">
                  <use xlink:href="#rim" fill="#404040">
                        <set attributeName="fill" to="#808080" begin="arrowLeft.mouseover" end="arrowLeft.mouseout"/>
                  </use>
                  <path fill="none" stroke="white" stroke-width="1.5" d="M0,-3.0v7 M-2.5,-0.5L0,-3.0L2.5,-0.5"/>
                </g>
        </g>
        <svg viewBox="0 0 15 15" width="100%" height="30px" preserveAspectRatio="xMaxYMin meet">
         <g id="arrow_out" transform="scale(0.3 0.3)">
          <a xlink:href="classFeel_1_1Mesh0D__coll__graph_org.svg" target="_base">
           <rect id="button" ry="5" rx="5" y="6" x="6" height="38" width="38"
                fill="#f2f5e9" fill-opacity="0.5" stroke="#606060" stroke-width="1.0"/>
           <path id="arrow"
             d="M 11.500037,31.436501 C 11.940474,20.09759 22.043105,11.32322 32.158766,21.979434 L 37.068811,17.246167 C 37.068811,17.246167 37.088388,32 37.088388,32 L 22.160133,31.978069 C 22.160133,31.978069 26.997745,27.140456 26.997745,27.140456 C 18.528582,18.264221 13.291696,25.230495 11.500037,31.436501 z"
             style="fill:#404040;"/>
          </a>
         </g>
        </svg>
</svg>
