<?xml version="1.0" encoding="UTF-8" standalone="no"?>
<!DOCTYPE svg PUBLIC "-//W3C//DTD SVG 1.1//EN"
 "http://www.w3.org/Graphics/SVG/1.1/DTD/svg11.dtd">
<!-- Generated by graphviz version 2.43.0 (0)
 -->
<!-- Title: Feel::GeoElement2D&lt; Dim, GEOSHAPE, SubFace, T, IndexT, UseMeasuresStorage &gt; Pages: 1 -->
<svg width="1170pt" height="1188pt"
 viewBox="0.00 0.00 1169.68 1188.00" xmlns="http://www.w3.org/2000/svg" xmlns:xlink="http://www.w3.org/1999/xlink">
<g id="graph0" class="graph" transform="scale(1 1) rotate(0) translate(4 1184)">
<title>Feel::GeoElement2D&lt; Dim, GEOSHAPE, SubFace, T, IndexT, UseMeasuresStorage &gt;</title>
<polygon fill="white" stroke="transparent" points="-4,4 -4,-1184 1165.68,-1184 1165.68,4 -4,4"/>
<!-- Node1 -->
<g id="node1" class="node">
<title>Node1</title>
<g id="a_node1"><a xlink:title="Class for 2D elements.">
<polygon fill="#bfbfbf" stroke="black" points="227.67,-0.5 227.67,-134.5 412.67,-134.5 412.67,-0.5 227.67,-0.5"/>
<text text-anchor="start" x="235.67" y="-122.5" font-family="Helvetica,sans-Serif" font-size="10.00">Feel::GeoElement2D</text>
<text text-anchor="start" x="235.67" y="-111.5" font-family="Helvetica,sans-Serif" font-size="10.00">&lt; Dim, GEOSHAPE, SubFace,</text>
<text text-anchor="middle" x="320.17" y="-100.5" font-family="Helvetica,sans-Serif" font-size="10.00"> T, IndexT, UseMeasuresStorage &gt;</text>
<polyline fill="none" stroke="black" points="227.67,-93.5 412.67,-93.5 "/>
<text text-anchor="middle" x="320.17" y="-81.5" font-family="Helvetica,sans-Serif" font-size="10.00"> </text>
<polyline fill="none" stroke="black" points="227.67,-74.5 412.67,-74.5 "/>
<text text-anchor="start" x="235.67" y="-62.5" font-family="Helvetica,sans-Serif" font-size="10.00">+ BOOST_MPL_ASSERT_MSG()</text>
<text text-anchor="start" x="235.67" y="-51.5" font-family="Helvetica,sans-Serif" font-size="10.00">+ boundaryEntityDimension()</text>
<text text-anchor="start" x="235.67" y="-40.5" font-family="Helvetica,sans-Serif" font-size="10.00">+ disconnectSubEntities()</text>
<text text-anchor="start" x="235.67" y="-29.5" font-family="Helvetica,sans-Serif" font-size="10.00">+ edge()</text>
<text text-anchor="start" x="235.67" y="-18.5" font-family="Helvetica,sans-Serif" font-size="10.00">+ edge()</text>
<text text-anchor="start" x="235.67" y="-7.5" font-family="Helvetica,sans-Serif" font-size="10.00">and 32 more...</text>
</a>
</g>
</g>
<!-- Node2 -->
<g id="node2" class="node">
<title>Node2</title>
<g id="a_node2"><a xlink:href="classFeel_1_1GeoND.html" target="_top" xlink:title=" ">
<polygon fill="white" stroke="black" points="389.67,-172.5 389.67,-350.5 598.67,-350.5 598.67,-172.5 389.67,-172.5"/>
<text text-anchor="start" x="397.67" y="-338.5" font-family="Helvetica,sans-Serif" font-size="10.00">Feel::GeoND&lt; Dim, GEOSHAPE,</text>
<text text-anchor="start" x="397.67" y="-327.5" font-family="Helvetica,sans-Serif" font-size="10.00"> double, uint32_type, GeoElement0</text>
<text text-anchor="start" x="397.67" y="-316.5" font-family="Helvetica,sans-Serif" font-size="10.00">D&lt; Dim, SubFaceOfNone&lt; 0 &gt;, double,</text>
<text text-anchor="middle" x="494.17" y="-305.5" font-family="Helvetica,sans-Serif" font-size="10.00"> uint32_type &gt;, false &gt;</text>
<polyline fill="none" stroke="black" points="389.67,-298.5 598.67,-298.5 "/>
<text text-anchor="middle" x="494.17" y="-286.5" font-family="Helvetica,sans-Serif" font-size="10.00"> </text>
<polyline fill="none" stroke="black" points="389.67,-279.5 598.67,-279.5 "/>
<text text-anchor="start" x="397.67" y="-267.5" font-family="Helvetica,sans-Serif" font-size="10.00">+ applyDisplacement()</text>
<text text-anchor="start" x="397.67" y="-256.5" font-family="Helvetica,sans-Serif" font-size="10.00">+ applyDisplacementG()</text>
<text text-anchor="start" x="397.67" y="-245.5" font-family="Helvetica,sans-Serif" font-size="10.00">+ barycenter()</text>
<text text-anchor="start" x="397.67" y="-234.5" font-family="Helvetica,sans-Serif" font-size="10.00">+ beginPoint()</text>
<text text-anchor="start" x="397.67" y="-223.5" font-family="Helvetica,sans-Serif" font-size="10.00">+ beginPoint()</text>
<text text-anchor="start" x="397.67" y="-212.5" font-family="Helvetica,sans-Serif" font-size="10.00">and 62 more...</text>
<text text-anchor="start" x="397.67" y="-201.5" font-family="Helvetica,sans-Serif" font-size="10.00">+ fToP()</text>
<text text-anchor="start" x="397.67" y="-190.5" font-family="Helvetica,sans-Serif" font-size="10.00">+ imMeasure()</text>
<text text-anchor="start" x="397.67" y="-179.5" font-family="Helvetica,sans-Serif" font-size="10.00">+ imMeasureOrder1()</text>
</a>
</g>
</g>
<!-- Node2&#45;&gt;Node1 -->
<g id="edge1" class="edge">
<title>Node2&#45;&gt;Node1</title>
<path fill="none" stroke="midnightblue" d="M407.53,-164.9C398.23,-154.64 388.92,-144.37 380.03,-134.56"/>
<polygon fill="none" stroke="midnightblue" points="404.99,-167.31 414.3,-172.37 410.17,-162.61 404.99,-167.31"/>
</g>
<!-- Node3 -->
<g id="node3" class="node">
<title>Node3</title>
<g id="a_node3"><a xlink:href="classFeel_1_1GeoEntity.html" target="_top" xlink:title=" ">
<polygon fill="white" stroke="black" points="726.17,-500.5 726.17,-942.5 914.17,-942.5 914.17,-500.5 726.17,-500.5"/>
<text text-anchor="start" x="734.17" y="-930.5" font-family="Helvetica,sans-Serif" font-size="10.00">Feel::GeoEntity&lt; GEOSHAPE,</text>
<text text-anchor="middle" x="820.17" y="-919.5" font-family="Helvetica,sans-Serif" font-size="10.00"> double &gt;</text>
<polyline fill="none" stroke="black" points="726.17,-912.5 914.17,-912.5 "/>
<text text-anchor="middle" x="820.17" y="-900.5" font-family="Helvetica,sans-Serif" font-size="10.00"> </text>
<polyline fill="none" stroke="black" points="726.17,-893.5 914.17,-893.5 "/>
<text text-anchor="start" x="734.17" y="-881.5" font-family="Helvetica,sans-Serif" font-size="10.00">* super</text>
<text text-anchor="start" x="734.17" y="-870.5" font-family="Helvetica,sans-Serif" font-size="10.00">* GeoShape</text>
<text text-anchor="start" x="734.17" y="-859.5" font-family="Helvetica,sans-Serif" font-size="10.00">* self_type</text>
<text text-anchor="start" x="734.17" y="-848.5" font-family="Helvetica,sans-Serif" font-size="10.00">* value_type</text>
<text text-anchor="start" x="734.17" y="-837.5" font-family="Helvetica,sans-Serif" font-size="10.00">* index_type</text>
<text text-anchor="start" x="734.17" y="-826.5" font-family="Helvetica,sans-Serif" font-size="10.00">and 12 more...</text>
<text text-anchor="start" x="734.17" y="-815.5" font-family="Helvetica,sans-Serif" font-size="10.00">* boost::serialization</text>
<text text-anchor="start" x="734.17" y="-804.5" font-family="Helvetica,sans-Serif" font-size="10.00">::access</text>
<text text-anchor="start" x="734.17" y="-793.5" font-family="Helvetica,sans-Serif" font-size="10.00">* M_id</text>
<text text-anchor="start" x="734.17" y="-782.5" font-family="Helvetica,sans-Serif" font-size="10.00">* M_entity</text>
<text text-anchor="start" x="734.17" y="-771.5" font-family="Helvetica,sans-Serif" font-size="10.00">* M_boundaryEntityDimension</text>
<text text-anchor="start" x="734.17" y="-760.5" font-family="Helvetica,sans-Serif" font-size="10.00">* M_pid</text>
<text text-anchor="start" x="734.17" y="-749.5" font-family="Helvetica,sans-Serif" font-size="10.00">and 41 more...</text>
<text text-anchor="start" x="734.17" y="-738.5" font-family="Helvetica,sans-Serif" font-size="10.00">* GeoEntity()</text>
<text text-anchor="start" x="734.17" y="-727.5" font-family="Helvetica,sans-Serif" font-size="10.00">* GeoEntity()</text>
<text text-anchor="start" x="734.17" y="-716.5" font-family="Helvetica,sans-Serif" font-size="10.00">* GeoEntity()</text>
<text text-anchor="start" x="734.17" y="-705.5" font-family="Helvetica,sans-Serif" font-size="10.00">* GeoEntity()</text>
<text text-anchor="start" x="734.17" y="-694.5" font-family="Helvetica,sans-Serif" font-size="10.00">* operator=()</text>
<text text-anchor="start" x="734.17" y="-683.5" font-family="Helvetica,sans-Serif" font-size="10.00">* operator=()</text>
<text text-anchor="start" x="734.17" y="-672.5" font-family="Helvetica,sans-Serif" font-size="10.00">* ~GeoEntity()</text>
<text text-anchor="start" x="734.17" y="-661.5" font-family="Helvetica,sans-Serif" font-size="10.00">* operator==()</text>
<text text-anchor="start" x="734.17" y="-650.5" font-family="Helvetica,sans-Serif" font-size="10.00">* operator&lt;()</text>
<text text-anchor="start" x="734.17" y="-639.5" font-family="Helvetica,sans-Serif" font-size="10.00">* operator&lt;()</text>
<text text-anchor="start" x="734.17" y="-628.5" font-family="Helvetica,sans-Serif" font-size="10.00">* id()</text>
<text text-anchor="start" x="734.17" y="-617.5" font-family="Helvetica,sans-Serif" font-size="10.00">* refDim()</text>
<text text-anchor="start" x="734.17" y="-606.5" font-family="Helvetica,sans-Serif" font-size="10.00">* nPoints()</text>
<text text-anchor="start" x="734.17" y="-595.5" font-family="Helvetica,sans-Serif" font-size="10.00">* nVertices()</text>
<text text-anchor="start" x="734.17" y="-584.5" font-family="Helvetica,sans-Serif" font-size="10.00">* nEdges()</text>
<text text-anchor="start" x="734.17" y="-573.5" font-family="Helvetica,sans-Serif" font-size="10.00">and 42 more...</text>
<text text-anchor="start" x="734.17" y="-562.5" font-family="Helvetica,sans-Serif" font-size="10.00">* setId()</text>
<text text-anchor="start" x="734.17" y="-551.5" font-family="Helvetica,sans-Serif" font-size="10.00">* setOnBoundary()</text>
<text text-anchor="start" x="734.17" y="-540.5" font-family="Helvetica,sans-Serif" font-size="10.00">* setNumberOfPartitions()</text>
<text text-anchor="start" x="734.17" y="-529.5" font-family="Helvetica,sans-Serif" font-size="10.00">* setNumberOfNeighborPartitions()</text>
<text text-anchor="start" x="734.17" y="-518.5" font-family="Helvetica,sans-Serif" font-size="10.00">* setNeighborPartitionIds()</text>
<text text-anchor="start" x="734.17" y="-507.5" font-family="Helvetica,sans-Serif" font-size="10.00">* addNeighborPartitionId()</text>
</a>
</g>
</g>
<!-- Node3&#45;&gt;Node2 -->
<g id="edge2" class="edge">
<title>Node3&#45;&gt;Node2</title>
<path fill="none" stroke="midnightblue" d="M800.94,-490.44C788.73,-446.6 769.9,-403.65 741.17,-369 705.39,-325.87 648.88,-299.77 598.94,-284.22"/>
<polygon fill="none" stroke="midnightblue" points="797.56,-491.34 803.52,-500.1 804.32,-489.54 797.56,-491.34"/>
</g>
<!-- Node4 -->
<g id="node4" class="node">
<title>Node4</title>
<g id="a_node4"><a xlink:title=" ">
<polygon fill="white" stroke="#bfbfbf" points="287.17,-1100.5 287.17,-1179.5 469.17,-1179.5 469.17,-1100.5 287.17,-1100.5"/>
<text text-anchor="start" x="295.17" y="-1167.5" font-family="Helvetica,sans-Serif" font-size="10.00">boost::equality_comparable</text>
<text text-anchor="start" x="295.17" y="-1156.5" font-family="Helvetica,sans-Serif" font-size="10.00">&lt; GeoEntity&lt; GEOSHAPE, double,</text>
<text text-anchor="middle" x="378.17" y="-1145.5" font-family="Helvetica,sans-Serif" font-size="10.00"> uint32_type &gt; &gt;</text>
<polyline fill="none" stroke="#bfbfbf" points="287.17,-1138.5 469.17,-1138.5 "/>
<text text-anchor="middle" x="378.17" y="-1126.5" font-family="Helvetica,sans-Serif" font-size="10.00"> </text>
<polyline fill="none" stroke="#bfbfbf" points="287.17,-1119.5 469.17,-1119.5 "/>
<text text-anchor="middle" x="378.17" y="-1107.5" font-family="Helvetica,sans-Serif" font-size="10.00"> </text>
</a>
</g>
</g>
<!-- Node4&#45;&gt;Node3 -->
<g id="edge3" class="edge">
<title>Node4&#45;&gt;Node3</title>
<path fill="none" stroke="#8b1a1a" d="M425.66,-1093.78C471.7,-1052.59 545.37,-993.41 620.17,-961 660.4,-943.57 682.49,-969.84 717.17,-943 720.17,-940.67 723.1,-938.24 725.94,-935.7"/>
<polygon fill="none" stroke="#8b1a1a" points="423.31,-1091.18 418.23,-1100.48 428,-1096.38 423.31,-1091.18"/>
</g>
<!-- Node5 -->
<g id="node5" class="node">
<title>Node5</title>
<g id="a_node5"><a xlink:title=" ">
<polygon fill="white" stroke="#bfbfbf" points="487.17,-1100.5 487.17,-1179.5 669.17,-1179.5 669.17,-1100.5 487.17,-1100.5"/>
<text text-anchor="start" x="495.17" y="-1167.5" font-family="Helvetica,sans-Serif" font-size="10.00">boost::less_than_comparable</text>
<text text-anchor="start" x="495.17" y="-1156.5" font-family="Helvetica,sans-Serif" font-size="10.00">&lt; GeoEntity&lt; GEOSHAPE, double,</text>
<text text-anchor="middle" x="578.17" y="-1145.5" font-family="Helvetica,sans-Serif" font-size="10.00"> uint32_type &gt; &gt;</text>
<polyline fill="none" stroke="#bfbfbf" points="487.17,-1138.5 669.17,-1138.5 "/>
<text text-anchor="middle" x="578.17" y="-1126.5" font-family="Helvetica,sans-Serif" font-size="10.00"> </text>
<polyline fill="none" stroke="#bfbfbf" points="487.17,-1119.5 669.17,-1119.5 "/>
<text text-anchor="middle" x="578.17" y="-1107.5" font-family="Helvetica,sans-Serif" font-size="10.00"> </text>
</a>
</g>
</g>
<!-- Node5&#45;&gt;Node3 -->
<g id="edge4" class="edge">
<title>Node5&#45;&gt;Node3</title>
<path fill="none" stroke="#8b1a1a" d="M614.95,-1092.26C644.53,-1053.52 686.12,-996.36 717.17,-943 720.14,-937.89 723.1,-932.67 726.03,-927.39"/>
<polygon fill="none" stroke="#8b1a1a" points="612.14,-1090.17 608.83,-1100.23 617.69,-1094.43 612.14,-1090.17"/>
</g>
<!-- Node6 -->
<g id="node6" class="node">
<title>Node6</title>
<g id="a_node6"><a xlink:title=" ">
<polygon fill="white" stroke="#bfbfbf" points="687.17,-1100.5 687.17,-1179.5 869.17,-1179.5 869.17,-1100.5 687.17,-1100.5"/>
<text text-anchor="start" x="695.17" y="-1167.5" font-family="Helvetica,sans-Serif" font-size="10.00">boost::less_than_comparable</text>
<text text-anchor="start" x="695.17" y="-1156.5" font-family="Helvetica,sans-Serif" font-size="10.00">&lt; GeoEntity&lt; GEOSHAPE, double,</text>
<text text-anchor="middle" x="778.17" y="-1145.5" font-family="Helvetica,sans-Serif" font-size="10.00"> uint32_type &gt;, uint32_type &gt;</text>
<polyline fill="none" stroke="#bfbfbf" points="687.17,-1138.5 869.17,-1138.5 "/>
<text text-anchor="middle" x="778.17" y="-1126.5" font-family="Helvetica,sans-Serif" font-size="10.00"> </text>
<polyline fill="none" stroke="#bfbfbf" points="687.17,-1119.5 869.17,-1119.5 "/>
<text text-anchor="middle" x="778.17" y="-1107.5" font-family="Helvetica,sans-Serif" font-size="10.00"> </text>
</a>
</g>
</g>
<!-- Node6&#45;&gt;Node3 -->
<g id="edge5" class="edge">
<title>Node6&#45;&gt;Node3</title>
<path fill="none" stroke="#8b1a1a" d="M783.1,-1090.11C786.87,-1052.7 792.36,-998.26 797.96,-942.67"/>
<polygon fill="none" stroke="#8b1a1a" points="779.6,-1089.89 782.08,-1100.19 786.57,-1090.59 779.6,-1089.89"/>
</g>
<!-- Node7 -->
<g id="node7" class="node">
<title>Node7</title>
<g id="a_node7"><a xlink:title=" ">
<polygon fill="white" stroke="#bfbfbf" points="887.17,-1111.5 887.17,-1168.5 957.17,-1168.5 957.17,-1111.5 887.17,-1111.5"/>
<text text-anchor="middle" x="922.17" y="-1156.5" font-family="Helvetica,sans-Serif" font-size="10.00">GEOSHAPE</text>
<polyline fill="none" stroke="#bfbfbf" points="887.17,-1149.5 957.17,-1149.5 "/>
<text text-anchor="middle" x="922.17" y="-1137.5" font-family="Helvetica,sans-Serif" font-size="10.00"> </text>
<polyline fill="none" stroke="#bfbfbf" points="887.17,-1130.5 957.17,-1130.5 "/>
<text text-anchor="middle" x="922.17" y="-1118.5" font-family="Helvetica,sans-Serif" font-size="10.00"> </text>
</a>
</g>
</g>
<!-- Node7&#45;&gt;Node3 -->
<g id="edge6" class="edge">
<title>Node7&#45;&gt;Node3</title>
<path fill="none" stroke="midnightblue" d="M885.3,-1105.13C882.93,-1103.33 880.54,-1101.61 878.17,-1100 863.35,-1089.98 852.03,-1096.92 842.17,-1082 825.96,-1057.48 818.69,-1002.5 815.98,-942.73"/>
<polygon fill="none" stroke="midnightblue" points="883.21,-1107.94 893.21,-1111.45 887.58,-1102.48 883.21,-1107.94"/>
</g>
<!-- Node8 -->
<g id="node8" class="node">
<title>Node8</title>
<g id="a_node8"><a xlink:title=" ">
<polygon fill="white" stroke="#bfbfbf" points="975.17,-1111.5 975.17,-1168.5 1097.17,-1168.5 1097.17,-1111.5 975.17,-1111.5"/>
<text text-anchor="middle" x="1036.17" y="-1156.5" font-family="Helvetica,sans-Serif" font-size="10.00">static const size_type</text>
<polyline fill="none" stroke="#bfbfbf" points="975.17,-1149.5 1097.17,-1149.5 "/>
<text text-anchor="middle" x="1036.17" y="-1137.5" font-family="Helvetica,sans-Serif" font-size="10.00"> </text>
<polyline fill="none" stroke="#bfbfbf" points="975.17,-1130.5 1097.17,-1130.5 "/>
<text text-anchor="middle" x="1036.17" y="-1118.5" font-family="Helvetica,sans-Serif" font-size="10.00"> </text>
</a>
</g>
</g>
<!-- Node8&#45;&gt;Node2 -->
<g id="edge11" class="edge">
<title>Node8&#45;&gt;Node2</title>
<path fill="none" stroke="#404040" d="M1037.58,-1111.3C1041.09,-1018.23 1042.48,-710.79 923.17,-500 857.95,-384.79 713.67,-321.91 610.44,-290.3"/>
<polygon fill="none" stroke="#404040" points="610.19,-290.23 603.3,-292.34 598.7,-286.78 605.59,-284.67 610.19,-290.23"/>
<text text-anchor="middle" x="1055.17" y="-719" font-family="Helvetica,sans-Serif" font-size="10.00"> +Shape</text>
</g>
<!-- Node8&#45;&gt;Node3 -->
<g id="edge7" class="edge">
<title>Node8&#45;&gt;Node3</title>
<path fill="none" stroke="#404040" d="M992.03,-1111.5C983.67,-1107.14 974.82,-1103.06 966.17,-1100 921.94,-1084.36 894.41,-1116.07 862.17,-1082 856.79,-1076.32 849.23,-1020.59 842.01,-954.64"/>
<polygon fill="none" stroke="#404040" points="842,-954.59 837.38,-949.06 840.71,-942.66 845.34,-948.2 842,-954.59"/>
<text text-anchor="middle" x="892.67" y="-1024.5" font-family="Helvetica,sans-Serif" font-size="10.00"> +Geometry</text>
<text text-anchor="middle" x="892.67" y="-1013.5" font-family="Helvetica,sans-Serif" font-size="10.00">+Shape</text>
</g>
<!-- Node9 -->
<g id="node9" class="node">
<title>Node9</title>
<g id="a_node9"><a xlink:title=" ">
<polygon fill="white" stroke="#bfbfbf" points="135.17,-1111.5 135.17,-1168.5 269.17,-1168.5 269.17,-1111.5 135.17,-1111.5"/>
<text text-anchor="middle" x="202.17" y="-1156.5" font-family="Helvetica,sans-Serif" font-size="10.00">static const uint16_type</text>
<polyline fill="none" stroke="#bfbfbf" points="135.17,-1149.5 269.17,-1149.5 "/>
<text text-anchor="middle" x="202.17" y="-1137.5" font-family="Helvetica,sans-Serif" font-size="10.00"> </text>
<polyline fill="none" stroke="#bfbfbf" points="135.17,-1130.5 269.17,-1130.5 "/>
<text text-anchor="middle" x="202.17" y="-1118.5" font-family="Helvetica,sans-Serif" font-size="10.00"> </text>
</a>
</g>
</g>
<!-- Node9&#45;&gt;Node1 -->
<g id="edge17" class="edge">
<title>Node9&#45;&gt;Node1</title>
<path fill="none" stroke="#404040" d="M184.76,-1111.45C122.76,-1009.59 -77.84,-645.94 33.17,-369 70.32,-276.3 151.23,-195.98 217.69,-141.76"/>
<polygon fill="none" stroke="#404040" points="218.04,-141.48 220.21,-134.6 227.39,-133.95 225.22,-140.83 218.04,-141.48"/>
<text text-anchor="middle" x="75.67" y="-445" font-family="Helvetica,sans-Serif" font-size="10.00"> +nDim</text>
<text text-anchor="middle" x="75.67" y="-434" font-family="Helvetica,sans-Serif" font-size="10.00">+nOrder</text>
<text text-anchor="middle" x="75.67" y="-423" font-family="Helvetica,sans-Serif" font-size="10.00">+nRealDim</text>
<text text-anchor="middle" x="75.67" y="-412" font-family="Helvetica,sans-Serif" font-size="10.00">+numLocalEdges</text>
<text text-anchor="middle" x="75.67" y="-401" font-family="Helvetica,sans-Serif" font-size="10.00">+numLocalFaces</text>
</g>
<!-- Node9&#45;&gt;Node2 -->
<g id="edge12" class="edge">
<title>Node9&#45;&gt;Node2</title>
<path fill="none" stroke="#404040" d="M227.55,-1111.32C234.15,-1102.56 240.44,-1092.42 244.17,-1082 331.34,-838.1 173.46,-738.63 274.17,-500 297.47,-444.77 339.55,-394.33 380.71,-354.28"/>
<polygon fill="none" stroke="#404040" points="380.8,-354.19 382.37,-347.15 389.47,-345.9 387.91,-352.93 380.8,-354.19"/>
<text text-anchor="middle" x="322.17" y="-763" font-family="Helvetica,sans-Serif" font-size="10.00"> +nDim</text>
<text text-anchor="middle" x="322.17" y="-752" font-family="Helvetica,sans-Serif" font-size="10.00">+nOrder</text>
<text text-anchor="middle" x="322.17" y="-741" font-family="Helvetica,sans-Serif" font-size="10.00">+nRealDim</text>
<text text-anchor="middle" x="322.17" y="-730" font-family="Helvetica,sans-Serif" font-size="10.00">+numLocalEdges</text>
<text text-anchor="middle" x="322.17" y="-719" font-family="Helvetica,sans-Serif" font-size="10.00">+numLocalPoints</text>
<text text-anchor="middle" x="322.17" y="-708" font-family="Helvetica,sans-Serif" font-size="10.00">+numLocalVertices</text>
<text text-anchor="middle" x="322.17" y="-697" font-family="Helvetica,sans-Serif" font-size="10.00">+numNeighbors</text>
<text text-anchor="middle" x="322.17" y="-686" font-family="Helvetica,sans-Serif" font-size="10.00">+numPoints</text>
<text text-anchor="middle" x="322.17" y="-675" font-family="Helvetica,sans-Serif" font-size="10.00">+numVertices</text>
</g>
<!-- Node9&#45;&gt;Node3 -->
<g id="edge8" class="edge">
<title>Node9&#45;&gt;Node3</title>
<path fill="none" stroke="#404040" d="M244.72,-1111.39C255.61,-1102.9 266.65,-1092.89 275.17,-1082 311.45,-1035.62 280.52,-994.19 329.17,-961 397.54,-914.35 625.64,-984.79 715.16,-942.72"/>
<polygon fill="none" stroke="#404040" points="715.41,-942.58 718.68,-936.15 725.87,-936.68 722.6,-943.11 715.41,-942.58"/>
<text text-anchor="middle" x="383.67" y="-1074" font-family="Helvetica,sans-Serif" font-size="10.00"> +nDim</text>
<text text-anchor="middle" x="383.67" y="-1063" font-family="Helvetica,sans-Serif" font-size="10.00">+nOrder</text>
<text text-anchor="middle" x="383.67" y="-1052" font-family="Helvetica,sans-Serif" font-size="10.00">+nRealDim</text>
<text text-anchor="middle" x="383.67" y="-1041" font-family="Helvetica,sans-Serif" font-size="10.00">+nbPtsPerEdge</text>
<text text-anchor="middle" x="383.67" y="-1030" font-family="Helvetica,sans-Serif" font-size="10.00">+nbPtsPerFace</text>
<text text-anchor="middle" x="383.67" y="-1019" font-family="Helvetica,sans-Serif" font-size="10.00">+nbPtsPerVertex</text>
<text text-anchor="middle" x="383.67" y="-1008" font-family="Helvetica,sans-Serif" font-size="10.00">+nbPtsPerVolume</text>
<text text-anchor="middle" x="383.67" y="-997" font-family="Helvetica,sans-Serif" font-size="10.00">+numEdges</text>
<text text-anchor="middle" x="383.67" y="-986" font-family="Helvetica,sans-Serif" font-size="10.00">+numFaces</text>
<text text-anchor="middle" x="383.67" y="-975" font-family="Helvetica,sans-Serif" font-size="10.00">+numGeometricFaces</text>
<text text-anchor="middle" x="383.67" y="-964" font-family="Helvetica,sans-Serif" font-size="10.00">...</text>
</g>
<!-- Node14 -->
<g id="node14" class="node">
<title>Node14</title>
<g id="a_node14"><a xlink:href="classFeel_1_1SubFaceOfNone.html" target="_top" xlink:title=" ">
<polygon fill="white" stroke="#bfbfbf" points="127.67,-369.5 127.67,-481.5 276.67,-481.5 276.67,-369.5 127.67,-369.5"/>
<text text-anchor="middle" x="202.17" y="-469.5" font-family="Helvetica,sans-Serif" font-size="10.00">Feel::SubFaceOfNone&lt; 0 &gt;</text>
<polyline fill="none" stroke="#bfbfbf" points="127.67,-462.5 276.67,-462.5 "/>
<text text-anchor="middle" x="202.17" y="-450.5" font-family="Helvetica,sans-Serif" font-size="10.00"> </text>
<polyline fill="none" stroke="#bfbfbf" points="127.67,-443.5 276.67,-443.5 "/>
<text text-anchor="start" x="135.67" y="-431.5" font-family="Helvetica,sans-Serif" font-size="10.00">+ element()</text>
<text text-anchor="start" x="135.67" y="-420.5" font-family="Helvetica,sans-Serif" font-size="10.00">+ isGhostFace()</text>
<text text-anchor="start" x="135.67" y="-409.5" font-family="Helvetica,sans-Serif" font-size="10.00">+ isInterProcessDomain()</text>
<text text-anchor="start" x="135.67" y="-398.5" font-family="Helvetica,sans-Serif" font-size="10.00">+ operator=()</text>
<text text-anchor="start" x="135.67" y="-387.5" font-family="Helvetica,sans-Serif" font-size="10.00">+ operator=()</text>
<text text-anchor="start" x="135.67" y="-376.5" font-family="Helvetica,sans-Serif" font-size="10.00">and 7 more...</text>
</a>
</g>
</g>
<!-- Node9&#45;&gt;Node14 -->
<g id="edge16" class="edge">
<title>Node9&#45;&gt;Node14</title>
<path fill="none" stroke="#404040" d="M202.17,-1111.07C202.17,-1007.78 202.17,-645.58 202.17,-494"/>
<polygon fill="none" stroke="#404040" points="202.17,-493.73 198.17,-487.73 202.17,-481.73 206.17,-487.73 202.17,-493.73"/>
<text text-anchor="middle" x="221.17" y="-1019" font-family="Helvetica,sans-Serif" font-size="10.00"> +nDim</text>
</g>
<!-- Node10 -->
<g id="node10" class="node">
<title>Node10</title>
<g id="a_node10"><a xlink:href="classbool.html" target="_top" xlink:title=" ">
<polygon fill="white" stroke="#bfbfbf" points="1115.17,-1111.5 1115.17,-1168.5 1153.17,-1168.5 1153.17,-1111.5 1115.17,-1111.5"/>
<text text-anchor="middle" x="1134.17" y="-1156.5" font-family="Helvetica,sans-Serif" font-size="10.00">bool</text>
<polyline fill="none" stroke="#bfbfbf" points="1115.17,-1149.5 1153.17,-1149.5 "/>
<text text-anchor="middle" x="1134.17" y="-1137.5" font-family="Helvetica,sans-Serif" font-size="10.00"> </text>
<polyline fill="none" stroke="#bfbfbf" points="1115.17,-1130.5 1153.17,-1130.5 "/>
<text text-anchor="middle" x="1134.17" y="-1118.5" font-family="Helvetica,sans-Serif" font-size="10.00"> </text>
</a>
</g>
</g>
<!-- Node10&#45;&gt;Node1 -->
<g id="edge18" class="edge">
<title>Node10&#45;&gt;Node1</title>
<path fill="none" stroke="#404040" d="M1139.61,-1111.35C1156.51,-1017.82 1200.05,-707.5 1080.17,-500 938.08,-254.06 597.4,-137.08 424.55,-91.96"/>
<polygon fill="none" stroke="#404040" points="424.53,-91.95 417.72,-94.33 412.91,-88.96 419.72,-86.58 424.53,-91.95"/>
<text text-anchor="middle" x="1096.67" y="-423" font-family="Helvetica,sans-Serif" font-size="10.00"> +condition</text>
</g>
<!-- Node10&#45;&gt;Node3 -->
<g id="edge9" class="edge">
<title>Node10&#45;&gt;Node3</title>
<path fill="none" stroke="#404040" d="M1118.02,-1111.1C1114.56,-1106.89 1110.6,-1102.97 1106.17,-1100 1077.33,-1080.68 1058.06,-1102.66 1030.17,-1082 999.36,-1059.19 958.04,-993.58 920.2,-924.55"/>
<polygon fill="none" stroke="#404040" points="920.14,-924.43 913.76,-921.08 914.4,-913.89 920.78,-917.25 920.14,-924.43"/>
<text text-anchor="middle" x="1068.17" y="-1024.5" font-family="Helvetica,sans-Serif" font-size="10.00"> +is_hypercube</text>
<text text-anchor="middle" x="1068.17" y="-1013.5" font-family="Helvetica,sans-Serif" font-size="10.00">+is_simplex</text>
</g>
<!-- Node11 -->
<g id="node11" class="node">
<title>Node11</title>
<g id="a_node11"><a xlink:title=" ">
<polygon fill="white" stroke="#bfbfbf" points="378.67,-693 378.67,-750 487.67,-750 487.67,-693 378.67,-693"/>
<text text-anchor="middle" x="433.17" y="-738" font-family="Helvetica,sans-Serif" font-size="10.00">mpl::if_::type::type</text>
<polyline fill="none" stroke="#bfbfbf" points="378.67,-731 487.67,-731 "/>
<text text-anchor="middle" x="433.17" y="-719" font-family="Helvetica,sans-Serif" font-size="10.00"> </text>
<polyline fill="none" stroke="#bfbfbf" points="378.67,-712 487.67,-712 "/>
<text text-anchor="middle" x="433.17" y="-700" font-family="Helvetica,sans-Serif" font-size="10.00"> </text>
</a>
</g>
</g>
<!-- Node11&#45;&gt;Node2 -->
<g id="edge10" class="edge">
<title>Node11&#45;&gt;Node2</title>
<path fill="none" stroke="midnightblue" d="M438.18,-682.88C447.79,-610.69 469.06,-451 482.44,-350.53"/>
<polygon fill="none" stroke="midnightblue" points="434.7,-682.51 436.84,-692.88 441.63,-683.43 434.7,-682.51"/>
</g>
<!-- Node12 -->
<g id="node12" class="node">
<title>Node12</title>
<g id="a_node12"><a xlink:href="classint.html" target="_top" xlink:title=" ">
<polygon fill="white" stroke="#bfbfbf" points="505.67,-693 505.67,-750 534.67,-750 534.67,-693 505.67,-693"/>
<text text-anchor="middle" x="520.17" y="-738" font-family="Helvetica,sans-Serif" font-size="10.00">int</text>
<polyline fill="none" stroke="#bfbfbf" points="505.67,-731 534.67,-731 "/>
<text text-anchor="middle" x="520.17" y="-719" font-family="Helvetica,sans-Serif" font-size="10.00"> </text>
<polyline fill="none" stroke="#bfbfbf" points="505.67,-712 534.67,-712 "/>
<text text-anchor="middle" x="520.17" y="-700" font-family="Helvetica,sans-Serif" font-size="10.00"> </text>
</a>
</g>
</g>
<!-- Node12&#45;&gt;Node2 -->
<g id="edge13" class="edge">
<title>Node12&#45;&gt;Node2</title>
<path fill="none" stroke="#404040" d="M517.36,-692.99C513.08,-651.26 504.65,-569.46 497.17,-500 496.3,-492 495.63,-490.04 495.17,-482 492.93,-443.2 492.32,-400.49 492.39,-363.13"/>
<polygon fill="none" stroke="#404040" points="492.39,-362.68 488.41,-356.66 492.44,-350.68 496.41,-356.7 492.39,-362.68"/>
<text text-anchor="middle" x="551.67" y="-434" font-family="Helvetica,sans-Serif" font-size="10.00"> +numEdges</text>
<text text-anchor="middle" x="551.67" y="-423" font-family="Helvetica,sans-Serif" font-size="10.00">+numFaces</text>
<text text-anchor="middle" x="551.67" y="-412" font-family="Helvetica,sans-Serif" font-size="10.00">+numTopologicalFaces</text>
</g>
<!-- Node13 -->
<g id="node13" class="node">
<title>Node13</title>
<g id="a_node13"><a xlink:title=" ">
<polygon fill="white" stroke="#bfbfbf" points="552.67,-693 552.67,-750 707.67,-750 707.67,-693 552.67,-693"/>
<text text-anchor="middle" x="630.17" y="-738" font-family="Helvetica,sans-Serif" font-size="10.00">static constexpr uint16_type</text>
<polyline fill="none" stroke="#bfbfbf" points="552.67,-731 707.67,-731 "/>
<text text-anchor="middle" x="630.17" y="-719" font-family="Helvetica,sans-Serif" font-size="10.00"> </text>
<polyline fill="none" stroke="#bfbfbf" points="552.67,-712 707.67,-712 "/>
<text text-anchor="middle" x="630.17" y="-700" font-family="Helvetica,sans-Serif" font-size="10.00"> </text>
</a>
</g>
</g>
<!-- Node13&#45;&gt;Node2 -->
<g id="edge14" class="edge">
<title>Node13&#45;&gt;Node2</title>
<path fill="none" stroke="#404040" d="M635.03,-692.81C644.51,-631.16 660.23,-479.31 608.17,-369 606.85,-366.21 605.43,-363.46 603.91,-360.76"/>
<polygon fill="none" stroke="#404040" points="603.89,-360.72 597.34,-357.71 597.6,-350.51 604.15,-353.52 603.89,-360.72"/>
<text text-anchor="middle" x="687.67" y="-423" font-family="Helvetica,sans-Serif" font-size="10.00"> +meas_quad_order</text>
</g>
<!-- Node14&#45;&gt;Node1 -->
<g id="edge15" class="edge">
<title>Node14&#45;&gt;Node1</title>
<path fill="none" stroke="midnightblue" d="M223.64,-359.72C244.77,-295.95 276.89,-199.05 298.2,-134.78"/>
<polygon fill="none" stroke="midnightblue" points="220.3,-358.67 220.47,-369.27 226.94,-360.87 220.3,-358.67"/>
</g>
</g>
</svg>
