<?xml version="1.0" encoding="UTF-8" standalone="no"?>
<!DOCTYPE svg PUBLIC "-//W3C//DTD SVG 1.1//EN"
 "http://www.w3.org/Graphics/SVG/1.1/DTD/svg11.dtd">
<!-- Generated by graphviz version 2.43.0 (0)
 -->
<!-- Title: Feel::GeoElement0D&lt; Dim, SubFace, T, IndexT &gt; Pages: 1 -->
<svg width="1499pt" height="1472pt"
 viewBox="0.00 0.00 1498.50 1472.00" xmlns="http://www.w3.org/2000/svg" xmlns:xlink="http://www.w3.org/1999/xlink">
<g id="graph0" class="graph" transform="scale(1 1) rotate(0) translate(4 1468)">
<title>Feel::GeoElement0D&lt; Dim, SubFace, T, IndexT &gt;</title>
<polygon fill="white" stroke="transparent" points="-4,4 -4,-1468 1494.5,-1468 1494.5,4 -4,4"/>
<!-- Node1 -->
<g id="node1" class="node">
<title>Node1</title>
<g id="a_node1"><a xlink:title="Class for Points and Vertices.">
<polygon fill="#bfbfbf" stroke="black" points="1270.5,-0.5 1270.5,-123.5 1432.5,-123.5 1432.5,-0.5 1270.5,-0.5"/>
<text text-anchor="start" x="1278.5" y="-111.5" font-family="Helvetica,sans-Serif" font-size="10.00">Feel::GeoElement0D</text>
<text text-anchor="middle" x="1351.5" y="-100.5" font-family="Helvetica,sans-Serif" font-size="10.00">&lt; Dim, SubFace, T, IndexT &gt;</text>
<polyline fill="none" stroke="black" points="1270.5,-93.5 1432.5,-93.5 "/>
<text text-anchor="middle" x="1351.5" y="-81.5" font-family="Helvetica,sans-Serif" font-size="10.00"> </text>
<polyline fill="none" stroke="black" points="1270.5,-74.5 1432.5,-74.5 "/>
<text text-anchor="start" x="1278.5" y="-62.5" font-family="Helvetica,sans-Serif" font-size="10.00">+ boundaryEntityDimension()</text>
<text text-anchor="start" x="1278.5" y="-51.5" font-family="Helvetica,sans-Serif" font-size="10.00">+ G()</text>
<text text-anchor="start" x="1278.5" y="-40.5" font-family="Helvetica,sans-Serif" font-size="10.00">+ GeoElement0D()</text>
<text text-anchor="start" x="1278.5" y="-29.5" font-family="Helvetica,sans-Serif" font-size="10.00">+ GeoElement0D()</text>
<text text-anchor="start" x="1278.5" y="-18.5" font-family="Helvetica,sans-Serif" font-size="10.00">+ GeoElement0D()</text>
<text text-anchor="start" x="1278.5" y="-7.5" font-family="Helvetica,sans-Serif" font-size="10.00">and 23 more...</text>
</a>
</g>
</g>
<!-- Node2 -->
<g id="node2" class="node">
<title>Node2</title>
<g id="a_node2"><a xlink:href="classFeel_1_1Geo0D.html" target="_top" xlink:title=" ">
<polygon fill="white" stroke="black" points="777,-171.5 777,-294.5 926,-294.5 926,-171.5 777,-171.5"/>
<text text-anchor="start" x="785" y="-282.5" font-family="Helvetica,sans-Serif" font-size="10.00">Feel::Geo0D&lt; Dim, double,</text>
<text text-anchor="middle" x="851.5" y="-271.5" font-family="Helvetica,sans-Serif" font-size="10.00"> uint32_type &gt;</text>
<polyline fill="none" stroke="black" points="777,-264.5 926,-264.5 "/>
<text text-anchor="middle" x="851.5" y="-252.5" font-family="Helvetica,sans-Serif" font-size="10.00"> </text>
<polyline fill="none" stroke="black" points="777,-245.5 926,-245.5 "/>
<text text-anchor="start" x="785" y="-233.5" font-family="Helvetica,sans-Serif" font-size="10.00">+ G()</text>
<text text-anchor="start" x="785" y="-222.5" font-family="Helvetica,sans-Serif" font-size="10.00">+ gDim()</text>
<text text-anchor="start" x="785" y="-211.5" font-family="Helvetica,sans-Serif" font-size="10.00">+ Geo0D()</text>
<text text-anchor="start" x="785" y="-200.5" font-family="Helvetica,sans-Serif" font-size="10.00">+ Geo0D()</text>
<text text-anchor="start" x="785" y="-189.5" font-family="Helvetica,sans-Serif" font-size="10.00">+ Geo0D()</text>
<text text-anchor="start" x="785" y="-178.5" font-family="Helvetica,sans-Serif" font-size="10.00">and 46 more...</text>
</a>
</g>
</g>
<!-- Node2&#45;&gt;Node1 -->
<g id="edge1" class="edge">
<title>Node2&#45;&gt;Node1</title>
<path fill="none" stroke="midnightblue" d="M935.77,-203.52C1029,-172 1178.2,-121.57 1270.22,-90.47"/>
<polygon fill="none" stroke="midnightblue" points="934.44,-200.27 926.08,-206.79 936.68,-206.9 934.44,-200.27"/>
</g>
<!-- Node3 -->
<g id="node3" class="node">
<title>Node3</title>
<g id="a_node3"><a xlink:title=" ">
<polygon fill="white" stroke="#bfbfbf" points="585.5,-525 585.5,-593 739.5,-593 739.5,-525 585.5,-525"/>
<text text-anchor="start" x="593.5" y="-581" font-family="Helvetica,sans-Serif" font-size="10.00">boost::equality_comparable</text>
<text text-anchor="middle" x="662.5" y="-570" font-family="Helvetica,sans-Serif" font-size="10.00">&lt; Geo0D&lt; Dim, double &gt; &gt;</text>
<polyline fill="none" stroke="#bfbfbf" points="585.5,-563 739.5,-563 "/>
<text text-anchor="middle" x="662.5" y="-551" font-family="Helvetica,sans-Serif" font-size="10.00"> </text>
<polyline fill="none" stroke="#bfbfbf" points="585.5,-544 739.5,-544 "/>
<text text-anchor="middle" x="662.5" y="-532" font-family="Helvetica,sans-Serif" font-size="10.00"> </text>
</a>
</g>
</g>
<!-- Node3&#45;&gt;Node2 -->
<g id="edge2" class="edge">
<title>Node3&#45;&gt;Node2</title>
<path fill="none" stroke="midnightblue" d="M672.75,-514.81C685.39,-467.23 710.05,-389.8 748.5,-332 757.18,-318.95 767.89,-306.34 779.09,-294.76"/>
<polygon fill="none" stroke="midnightblue" points="669.28,-514.22 670.16,-524.78 676.06,-515.98 669.28,-514.22"/>
</g>
<!-- Node4 -->
<g id="node4" class="node">
<title>Node4</title>
<g id="a_node4"><a xlink:title=" ">
<polygon fill="white" stroke="#bfbfbf" points="0,-525 0,-593 159,-593 159,-525 0,-525"/>
<text text-anchor="start" x="8" y="-581" font-family="Helvetica,sans-Serif" font-size="10.00">boost::less_than_comparable</text>
<text text-anchor="middle" x="79.5" y="-570" font-family="Helvetica,sans-Serif" font-size="10.00">&lt; Geo0D&lt; Dim, double &gt; &gt;</text>
<polyline fill="none" stroke="#bfbfbf" points="0,-563 159,-563 "/>
<text text-anchor="middle" x="79.5" y="-551" font-family="Helvetica,sans-Serif" font-size="10.00"> </text>
<polyline fill="none" stroke="#bfbfbf" points="0,-544 159,-544 "/>
<text text-anchor="middle" x="79.5" y="-532" font-family="Helvetica,sans-Serif" font-size="10.00"> </text>
</a>
</g>
</g>
<!-- Node4&#45;&gt;Node2 -->
<g id="edge3" class="edge">
<title>Node4&#45;&gt;Node2</title>
<path fill="none" stroke="midnightblue" d="M82.67,-514.73C89.27,-458.57 109.66,-361.96 172.5,-313 265.12,-240.83 620.23,-233.03 776.71,-233.21"/>
<polygon fill="none" stroke="midnightblue" points="79.18,-514.41 81.58,-524.73 86.14,-515.16 79.18,-514.41"/>
</g>
<!-- Node5 -->
<g id="node5" class="node">
<title>Node5</title>
<g id="a_node5"><a xlink:title=" ">
<polygon fill="white" stroke="#bfbfbf" points="1110,-519.5 1110,-598.5 1269,-598.5 1269,-519.5 1110,-519.5"/>
<text text-anchor="start" x="1118" y="-586.5" font-family="Helvetica,sans-Serif" font-size="10.00">boost::less_than_comparable</text>
<text text-anchor="start" x="1118" y="-575.5" font-family="Helvetica,sans-Serif" font-size="10.00">&lt; Geo0D&lt; Dim, double &gt;,</text>
<text text-anchor="middle" x="1189.5" y="-564.5" font-family="Helvetica,sans-Serif" font-size="10.00"> uint32_type &gt;</text>
<polyline fill="none" stroke="#bfbfbf" points="1110,-557.5 1269,-557.5 "/>
<text text-anchor="middle" x="1189.5" y="-545.5" font-family="Helvetica,sans-Serif" font-size="10.00"> </text>
<polyline fill="none" stroke="#bfbfbf" points="1110,-538.5 1269,-538.5 "/>
<text text-anchor="middle" x="1189.5" y="-526.5" font-family="Helvetica,sans-Serif" font-size="10.00"> </text>
</a>
</g>
</g>
<!-- Node5&#45;&gt;Node2 -->
<g id="edge4" class="edge">
<title>Node5&#45;&gt;Node2</title>
<path fill="none" stroke="midnightblue" d="M1183.6,-508.95C1174.43,-453.89 1151.65,-365.41 1096.5,-313 1050.34,-269.13 979.65,-249.62 926.05,-240.95"/>
<polygon fill="none" stroke="midnightblue" points="1180.2,-509.83 1185.21,-519.16 1187.11,-508.74 1180.2,-509.83"/>
</g>
<!-- Node6 -->
<g id="node6" class="node">
<title>Node6</title>
<g id="a_node6"><a xlink:href="classFeel_1_1GeoEntity.html" target="_top" xlink:title=" ">
<polygon fill="white" stroke="black" points="757.5,-332.5 757.5,-785.5 945.5,-785.5 945.5,-332.5 757.5,-332.5"/>
<text text-anchor="start" x="765.5" y="-773.5" font-family="Helvetica,sans-Serif" font-size="10.00">Feel::GeoEntity&lt; Simplex</text>
<text text-anchor="start" x="765.5" y="-762.5" font-family="Helvetica,sans-Serif" font-size="10.00">&lt; 0, 1, Dim &gt;, double,</text>
<text text-anchor="middle" x="851.5" y="-751.5" font-family="Helvetica,sans-Serif" font-size="10.00"> uint32_type &gt;</text>
<polyline fill="none" stroke="black" points="757.5,-744.5 945.5,-744.5 "/>
<text text-anchor="middle" x="851.5" y="-732.5" font-family="Helvetica,sans-Serif" font-size="10.00"> </text>
<polyline fill="none" stroke="black" points="757.5,-725.5 945.5,-725.5 "/>
<text text-anchor="start" x="765.5" y="-713.5" font-family="Helvetica,sans-Serif" font-size="10.00">* super</text>
<text text-anchor="start" x="765.5" y="-702.5" font-family="Helvetica,sans-Serif" font-size="10.00">* GeoShape</text>
<text text-anchor="start" x="765.5" y="-691.5" font-family="Helvetica,sans-Serif" font-size="10.00">* self_type</text>
<text text-anchor="start" x="765.5" y="-680.5" font-family="Helvetica,sans-Serif" font-size="10.00">* value_type</text>
<text text-anchor="start" x="765.5" y="-669.5" font-family="Helvetica,sans-Serif" font-size="10.00">* index_type</text>
<text text-anchor="start" x="765.5" y="-658.5" font-family="Helvetica,sans-Serif" font-size="10.00">and 12 more...</text>
<text text-anchor="start" x="765.5" y="-647.5" font-family="Helvetica,sans-Serif" font-size="10.00">* boost::serialization</text>
<text text-anchor="start" x="765.5" y="-636.5" font-family="Helvetica,sans-Serif" font-size="10.00">::access</text>
<text text-anchor="start" x="765.5" y="-625.5" font-family="Helvetica,sans-Serif" font-size="10.00">* M_id</text>
<text text-anchor="start" x="765.5" y="-614.5" font-family="Helvetica,sans-Serif" font-size="10.00">* M_entity</text>
<text text-anchor="start" x="765.5" y="-603.5" font-family="Helvetica,sans-Serif" font-size="10.00">* M_boundaryEntityDimension</text>
<text text-anchor="start" x="765.5" y="-592.5" font-family="Helvetica,sans-Serif" font-size="10.00">* M_pid</text>
<text text-anchor="start" x="765.5" y="-581.5" font-family="Helvetica,sans-Serif" font-size="10.00">and 41 more...</text>
<text text-anchor="start" x="765.5" y="-570.5" font-family="Helvetica,sans-Serif" font-size="10.00">* GeoEntity()</text>
<text text-anchor="start" x="765.5" y="-559.5" font-family="Helvetica,sans-Serif" font-size="10.00">* GeoEntity()</text>
<text text-anchor="start" x="765.5" y="-548.5" font-family="Helvetica,sans-Serif" font-size="10.00">* GeoEntity()</text>
<text text-anchor="start" x="765.5" y="-537.5" font-family="Helvetica,sans-Serif" font-size="10.00">* GeoEntity()</text>
<text text-anchor="start" x="765.5" y="-526.5" font-family="Helvetica,sans-Serif" font-size="10.00">* operator=()</text>
<text text-anchor="start" x="765.5" y="-515.5" font-family="Helvetica,sans-Serif" font-size="10.00">* operator=()</text>
<text text-anchor="start" x="765.5" y="-504.5" font-family="Helvetica,sans-Serif" font-size="10.00">* ~GeoEntity()</text>
<text text-anchor="start" x="765.5" y="-493.5" font-family="Helvetica,sans-Serif" font-size="10.00">* operator==()</text>
<text text-anchor="start" x="765.5" y="-482.5" font-family="Helvetica,sans-Serif" font-size="10.00">* operator&lt;()</text>
<text text-anchor="start" x="765.5" y="-471.5" font-family="Helvetica,sans-Serif" font-size="10.00">* operator&lt;()</text>
<text text-anchor="start" x="765.5" y="-460.5" font-family="Helvetica,sans-Serif" font-size="10.00">* id()</text>
<text text-anchor="start" x="765.5" y="-449.5" font-family="Helvetica,sans-Serif" font-size="10.00">* refDim()</text>
<text text-anchor="start" x="765.5" y="-438.5" font-family="Helvetica,sans-Serif" font-size="10.00">* nPoints()</text>
<text text-anchor="start" x="765.5" y="-427.5" font-family="Helvetica,sans-Serif" font-size="10.00">* nVertices()</text>
<text text-anchor="start" x="765.5" y="-416.5" font-family="Helvetica,sans-Serif" font-size="10.00">* nEdges()</text>
<text text-anchor="start" x="765.5" y="-405.5" font-family="Helvetica,sans-Serif" font-size="10.00">and 42 more...</text>
<text text-anchor="start" x="765.5" y="-394.5" font-family="Helvetica,sans-Serif" font-size="10.00">* setId()</text>
<text text-anchor="start" x="765.5" y="-383.5" font-family="Helvetica,sans-Serif" font-size="10.00">* setOnBoundary()</text>
<text text-anchor="start" x="765.5" y="-372.5" font-family="Helvetica,sans-Serif" font-size="10.00">* setNumberOfPartitions()</text>
<text text-anchor="start" x="765.5" y="-361.5" font-family="Helvetica,sans-Serif" font-size="10.00">* setNumberOfNeighborPartitions()</text>
<text text-anchor="start" x="765.5" y="-350.5" font-family="Helvetica,sans-Serif" font-size="10.00">* setNeighborPartitionIds()</text>
<text text-anchor="start" x="765.5" y="-339.5" font-family="Helvetica,sans-Serif" font-size="10.00">* addNeighborPartitionId()</text>
</a>
</g>
</g>
<!-- Node6&#45;&gt;Node2 -->
<g id="edge5" class="edge">
<title>Node6&#45;&gt;Node2</title>
<path fill="none" stroke="midnightblue" d="M851.5,-321.96C851.5,-312.38 851.5,-303.24 851.5,-294.72"/>
<polygon fill="none" stroke="midnightblue" points="848,-322.09 851.5,-332.09 855,-322.09 848,-322.09"/>
</g>
<!-- Node7 -->
<g id="node7" class="node">
<title>Node7</title>
<g id="a_node7"><a xlink:title=" ">
<polygon fill="white" stroke="#bfbfbf" points="857.5,-910.5 857.5,-1000.5 1009.5,-1000.5 1009.5,-910.5 857.5,-910.5"/>
<text text-anchor="start" x="865.5" y="-988.5" font-family="Helvetica,sans-Serif" font-size="10.00">boost::equality_comparable</text>
<text text-anchor="start" x="865.5" y="-977.5" font-family="Helvetica,sans-Serif" font-size="10.00">&lt; GeoEntity&lt; Simplex&lt; 0,</text>
<text text-anchor="start" x="865.5" y="-966.5" font-family="Helvetica,sans-Serif" font-size="10.00"> 1, Dim &gt;, double, uint32</text>
<text text-anchor="middle" x="933.5" y="-955.5" font-family="Helvetica,sans-Serif" font-size="10.00">_type &gt; &gt;</text>
<polyline fill="none" stroke="#bfbfbf" points="857.5,-948.5 1009.5,-948.5 "/>
<text text-anchor="middle" x="933.5" y="-936.5" font-family="Helvetica,sans-Serif" font-size="10.00"> </text>
<polyline fill="none" stroke="#bfbfbf" points="857.5,-929.5 1009.5,-929.5 "/>
<text text-anchor="middle" x="933.5" y="-917.5" font-family="Helvetica,sans-Serif" font-size="10.00"> </text>
</a>
</g>
</g>
<!-- Node7&#45;&gt;Node6 -->
<g id="edge6" class="edge">
<title>Node7&#45;&gt;Node6</title>
<path fill="none" stroke="#8b1a1a" d="M922.24,-900.33C915.83,-869.49 907.32,-828.55 898.43,-785.78"/>
<polygon fill="none" stroke="#8b1a1a" points="918.87,-901.32 924.33,-910.39 925.72,-899.89 918.87,-901.32"/>
</g>
<!-- Node8 -->
<g id="node8" class="node">
<title>Node8</title>
<g id="a_node8"><a xlink:title=" ">
<polygon fill="white" stroke="#bfbfbf" points="343,-910.5 343,-1000.5 502,-1000.5 502,-910.5 343,-910.5"/>
<text text-anchor="start" x="351" y="-988.5" font-family="Helvetica,sans-Serif" font-size="10.00">boost::less_than_comparable</text>
<text text-anchor="start" x="351" y="-977.5" font-family="Helvetica,sans-Serif" font-size="10.00">&lt; GeoEntity&lt; Simplex&lt; 0,</text>
<text text-anchor="start" x="351" y="-966.5" font-family="Helvetica,sans-Serif" font-size="10.00"> 1, Dim &gt;, double, uint32</text>
<text text-anchor="middle" x="422.5" y="-955.5" font-family="Helvetica,sans-Serif" font-size="10.00">_type &gt; &gt;</text>
<polyline fill="none" stroke="#bfbfbf" points="343,-948.5 502,-948.5 "/>
<text text-anchor="middle" x="422.5" y="-936.5" font-family="Helvetica,sans-Serif" font-size="10.00"> </text>
<polyline fill="none" stroke="#bfbfbf" points="343,-929.5 502,-929.5 "/>
<text text-anchor="middle" x="422.5" y="-917.5" font-family="Helvetica,sans-Serif" font-size="10.00"> </text>
</a>
</g>
</g>
<!-- Node8&#45;&gt;Node6 -->
<g id="edge7" class="edge">
<title>Node8&#45;&gt;Node6</title>
<path fill="none" stroke="#8b1a1a" d="M458.93,-902.51C473.27,-885.27 490.98,-867.36 510.5,-855 533.76,-840.27 727.67,-804 748.5,-786 751.44,-783.46 754.29,-780.82 757.07,-778.1"/>
<polygon fill="none" stroke="#8b1a1a" points="456.15,-900.38 452.59,-910.36 461.6,-904.78 456.15,-900.38"/>
</g>
<!-- Node9 -->
<g id="node9" class="node">
<title>Node9</title>
<g id="a_node9"><a xlink:title=" ">
<polygon fill="white" stroke="#bfbfbf" points="520,-910.5 520,-1000.5 679,-1000.5 679,-910.5 520,-910.5"/>
<text text-anchor="start" x="528" y="-988.5" font-family="Helvetica,sans-Serif" font-size="10.00">boost::less_than_comparable</text>
<text text-anchor="start" x="528" y="-977.5" font-family="Helvetica,sans-Serif" font-size="10.00">&lt; GeoEntity&lt; Simplex&lt; 0,</text>
<text text-anchor="start" x="528" y="-966.5" font-family="Helvetica,sans-Serif" font-size="10.00"> 1, Dim &gt;, double, uint32</text>
<text text-anchor="middle" x="599.5" y="-955.5" font-family="Helvetica,sans-Serif" font-size="10.00">_type &gt;, uint32_type &gt;</text>
<polyline fill="none" stroke="#bfbfbf" points="520,-948.5 679,-948.5 "/>
<text text-anchor="middle" x="599.5" y="-936.5" font-family="Helvetica,sans-Serif" font-size="10.00"> </text>
<polyline fill="none" stroke="#bfbfbf" points="520,-929.5 679,-929.5 "/>
<text text-anchor="middle" x="599.5" y="-917.5" font-family="Helvetica,sans-Serif" font-size="10.00"> </text>
</a>
</g>
</g>
<!-- Node9&#45;&gt;Node6 -->
<g id="edge8" class="edge">
<title>Node9&#45;&gt;Node6</title>
<path fill="none" stroke="#8b1a1a" d="M645.91,-902.77C688.06,-855.67 744.28,-792.5 748.5,-786 751.49,-781.39 754.44,-776.68 757.35,-771.88"/>
<polygon fill="none" stroke="#8b1a1a" points="643.08,-900.68 639.01,-910.47 648.29,-905.35 643.08,-900.68"/>
</g>
<!-- Node10 -->
<g id="node10" class="node">
<title>Node10</title>
<g id="a_node10"><a xlink:href="classFeel_1_1Simplex.html" target="_top" xlink:title=" ">
<polygon fill="white" stroke="black" points="697.5,-855.5 697.5,-1055.5 839.5,-1055.5 839.5,-855.5 697.5,-855.5"/>
<text text-anchor="start" x="705.5" y="-1043.5" font-family="Helvetica,sans-Serif" font-size="10.00">Feel::Simplex&lt; 0, 1,</text>
<text text-anchor="middle" x="768.5" y="-1032.5" font-family="Helvetica,sans-Serif" font-size="10.00"> Dim &gt;</text>
<polyline fill="none" stroke="black" points="697.5,-1025.5 839.5,-1025.5 "/>
<text text-anchor="start" x="705.5" y="-1013.5" font-family="Helvetica,sans-Serif" font-size="10.00">+ topological_dimension</text>
<polyline fill="none" stroke="black" points="697.5,-1006.5 839.5,-1006.5 "/>
<text text-anchor="start" x="705.5" y="-994.5" font-family="Helvetica,sans-Serif" font-size="10.00">+ dimension()</text>
<text text-anchor="start" x="705.5" y="-983.5" font-family="Helvetica,sans-Serif" font-size="10.00">+ operator=()</text>
<text text-anchor="start" x="705.5" y="-972.5" font-family="Helvetica,sans-Serif" font-size="10.00">+ operator=()</text>
<text text-anchor="start" x="705.5" y="-961.5" font-family="Helvetica,sans-Serif" font-size="10.00">+ Simplex()</text>
<text text-anchor="start" x="705.5" y="-950.5" font-family="Helvetica,sans-Serif" font-size="10.00">+ Simplex()</text>
<text text-anchor="start" x="705.5" y="-939.5" font-family="Helvetica,sans-Serif" font-size="10.00">+ Simplex()</text>
<text text-anchor="start" x="705.5" y="-928.5" font-family="Helvetica,sans-Serif" font-size="10.00">+ topologicalDimension()</text>
<text text-anchor="start" x="705.5" y="-917.5" font-family="Helvetica,sans-Serif" font-size="10.00">+ e2p()</text>
<text text-anchor="start" x="705.5" y="-906.5" font-family="Helvetica,sans-Serif" font-size="10.00">+ f2e()</text>
<text text-anchor="start" x="705.5" y="-895.5" font-family="Helvetica,sans-Serif" font-size="10.00">+ f2eLoc()</text>
<text text-anchor="start" x="705.5" y="-884.5" font-family="Helvetica,sans-Serif" font-size="10.00">+ f2p()</text>
<text text-anchor="start" x="705.5" y="-873.5" font-family="Helvetica,sans-Serif" font-size="10.00">+ getShape()</text>
<text text-anchor="start" x="705.5" y="-862.5" font-family="Helvetica,sans-Serif" font-size="10.00">and 12 more...</text>
</a>
</g>
</g>
<!-- Node10&#45;&gt;Node6 -->
<g id="edge9" class="edge">
<title>Node10&#45;&gt;Node6</title>
<path fill="none" stroke="midnightblue" d="M791.4,-845.67C795.39,-826.7 799.67,-806.35 804.04,-785.57"/>
<polygon fill="none" stroke="midnightblue" points="787.97,-844.95 789.34,-855.46 794.82,-846.4 787.97,-844.95"/>
</g>
<!-- Node11 -->
<g id="node11" class="node">
<title>Node11</title>
<g id="a_node11"><a xlink:href="classFeel_1_1Convex.html" target="_top" xlink:title=" ">
<polygon fill="white" stroke="black" points="852.5,-1226 852.5,-1327 966.5,-1327 966.5,-1226 852.5,-1226"/>
<text text-anchor="start" x="860.5" y="-1315" font-family="Helvetica,sans-Serif" font-size="10.00">Feel::Convex&lt; Dim,</text>
<text text-anchor="middle" x="909.5" y="-1304" font-family="Helvetica,sans-Serif" font-size="10.00"> Order, RDim &gt;</text>
<polyline fill="none" stroke="black" points="852.5,-1297 966.5,-1297 "/>
<text text-anchor="middle" x="909.5" y="-1285" font-family="Helvetica,sans-Serif" font-size="10.00"> </text>
<polyline fill="none" stroke="black" points="852.5,-1278 966.5,-1278 "/>
<text text-anchor="start" x="860.5" y="-1266" font-family="Helvetica,sans-Serif" font-size="10.00">* Convex()</text>
<text text-anchor="start" x="860.5" y="-1255" font-family="Helvetica,sans-Serif" font-size="10.00">* Convex()</text>
<text text-anchor="start" x="860.5" y="-1244" font-family="Helvetica,sans-Serif" font-size="10.00">* ~Convex()</text>
<text text-anchor="start" x="860.5" y="-1233" font-family="Helvetica,sans-Serif" font-size="10.00">* operator=()</text>
</a>
</g>
</g>
<!-- Node11&#45;&gt;Node10 -->
<g id="edge10" class="edge">
<title>Node11&#45;&gt;Node10</title>
<path fill="none" stroke="midnightblue" d="M883.35,-1216.34C863.47,-1171.36 835.66,-1108.45 812.39,-1055.79"/>
<polygon fill="none" stroke="midnightblue" points="880.22,-1217.92 887.47,-1225.66 886.63,-1215.09 880.22,-1217.92"/>
</g>
<!-- Node12 -->
<g id="node12" class="node">
<title>Node12</title>
<g id="a_node12"><a xlink:href="classFeel_1_1ConvexBase.html" target="_top" xlink:title=" ">
<polygon fill="white" stroke="#bfbfbf" points="495.5,-1406.5 495.5,-1463.5 599.5,-1463.5 599.5,-1406.5 495.5,-1406.5"/>
<text text-anchor="middle" x="547.5" y="-1451.5" font-family="Helvetica,sans-Serif" font-size="10.00">Feel::ConvexBase</text>
<polyline fill="none" stroke="#bfbfbf" points="495.5,-1444.5 599.5,-1444.5 "/>
<text text-anchor="middle" x="547.5" y="-1432.5" font-family="Helvetica,sans-Serif" font-size="10.00"> </text>
<polyline fill="none" stroke="#bfbfbf" points="495.5,-1425.5 599.5,-1425.5 "/>
<text text-anchor="middle" x="547.5" y="-1413.5" font-family="Helvetica,sans-Serif" font-size="10.00"> </text>
</a>
</g>
</g>
<!-- Node12&#45;&gt;Node11 -->
<g id="edge11" class="edge">
<title>Node12&#45;&gt;Node11</title>
<path fill="none" stroke="midnightblue" d="M609.74,-1421.35C671.65,-1407.01 767.9,-1379.9 842.5,-1337 847.62,-1334.05 852.7,-1330.67 857.64,-1327.04"/>
<polygon fill="none" stroke="midnightblue" points="608.71,-1417.99 599.73,-1423.62 610.26,-1424.82 608.71,-1417.99"/>
</g>
<!-- Node13 -->
<g id="node13" class="node">
<title>Node13</title>
<g id="a_node13"><a xlink:title=" ">
<polygon fill="white" stroke="#bfbfbf" points="1129.5,-1406.5 1129.5,-1463.5 1263.5,-1463.5 1263.5,-1406.5 1129.5,-1406.5"/>
<text text-anchor="middle" x="1196.5" y="-1451.5" font-family="Helvetica,sans-Serif" font-size="10.00">static const uint16_type</text>
<polyline fill="none" stroke="#bfbfbf" points="1129.5,-1444.5 1263.5,-1444.5 "/>
<text text-anchor="middle" x="1196.5" y="-1432.5" font-family="Helvetica,sans-Serif" font-size="10.00"> </text>
<polyline fill="none" stroke="#bfbfbf" points="1129.5,-1425.5 1263.5,-1425.5 "/>
<text text-anchor="middle" x="1196.5" y="-1413.5" font-family="Helvetica,sans-Serif" font-size="10.00"> </text>
</a>
</g>
</g>
<!-- Node13&#45;&gt;Node1 -->
<g id="edge25" class="edge">
<title>Node13&#45;&gt;Node1</title>
<path fill="none" stroke="#404040" d="M1228.14,-1406.25C1257.44,-1377.32 1296.5,-1329.09 1296.5,-1277.5 1296.5,-1277.5 1296.5,-1277.5 1296.5,-232 1296.5,-199.18 1306,-164.45 1317.1,-135.07"/>
<polygon fill="none" stroke="#404040" points="1317.19,-134.84 1315.67,-127.79 1321.59,-123.67 1323.11,-130.72 1317.19,-134.84"/>
<text text-anchor="middle" x="1344.5" y="-829" font-family="Helvetica,sans-Serif" font-size="10.00"> +nDim</text>
<text text-anchor="middle" x="1344.5" y="-818" font-family="Helvetica,sans-Serif" font-size="10.00">+nRealDim</text>
<text text-anchor="middle" x="1344.5" y="-807" font-family="Helvetica,sans-Serif" font-size="10.00">+numLocalVertices</text>
</g>
<!-- Node13&#45;&gt;Node2 -->
<g id="edge21" class="edge">
<title>Node13&#45;&gt;Node2</title>
<path fill="none" stroke="#404040" d="M1206.74,-1406.18C1227.69,-1345.36 1271.33,-1196.25 1244.5,-1074 1221.52,-969.31 1194.39,-949.34 1143.5,-855 1126.34,-823.2 1115.7,-818.78 1100.5,-786 1011.33,-593.71 1067.21,-511.5 954.5,-332 948.3,-322.12 940.88,-312.55 932.9,-303.51"/>
<polygon fill="none" stroke="#404040" points="932.88,-303.49 925.87,-301.79 924.76,-294.66 931.76,-296.37 932.88,-303.49"/>
<text text-anchor="middle" x="1259.5" y="-953" font-family="Helvetica,sans-Serif" font-size="10.00"> +nDim</text>
</g>
<!-- Node13&#45;&gt;Node6 -->
<g id="edge19" class="edge">
<title>Node13&#45;&gt;Node6</title>
<path fill="none" stroke="#404040" d="M1187.49,-1406.4C1173.66,-1362.71 1147.53,-1274.72 1135.5,-1198 1111.84,-1047.14 1174.14,-996 1115.5,-855 1106.04,-832.25 1024.32,-742.4 954.27,-667.77"/>
<polygon fill="none" stroke="#404040" points="954.01,-667.5 946.99,-665.87 945.79,-658.75 952.82,-660.39 954.01,-667.5"/>
<text text-anchor="middle" x="1190" y="-1188.5" font-family="Helvetica,sans-Serif" font-size="10.00"> +nDim</text>
<text text-anchor="middle" x="1190" y="-1177.5" font-family="Helvetica,sans-Serif" font-size="10.00">+nOrder</text>
<text text-anchor="middle" x="1190" y="-1166.5" font-family="Helvetica,sans-Serif" font-size="10.00">+nRealDim</text>
<text text-anchor="middle" x="1190" y="-1155.5" font-family="Helvetica,sans-Serif" font-size="10.00">+nbPtsPerEdge</text>
<text text-anchor="middle" x="1190" y="-1144.5" font-family="Helvetica,sans-Serif" font-size="10.00">+nbPtsPerFace</text>
<text text-anchor="middle" x="1190" y="-1133.5" font-family="Helvetica,sans-Serif" font-size="10.00">+nbPtsPerVertex</text>
<text text-anchor="middle" x="1190" y="-1122.5" font-family="Helvetica,sans-Serif" font-size="10.00">+nbPtsPerVolume</text>
<text text-anchor="middle" x="1190" y="-1111.5" font-family="Helvetica,sans-Serif" font-size="10.00">+numEdges</text>
<text text-anchor="middle" x="1190" y="-1100.5" font-family="Helvetica,sans-Serif" font-size="10.00">+numFaces</text>
<text text-anchor="middle" x="1190" y="-1089.5" font-family="Helvetica,sans-Serif" font-size="10.00">+numGeometricFaces</text>
<text text-anchor="middle" x="1190" y="-1078.5" font-family="Helvetica,sans-Serif" font-size="10.00">...</text>
</g>
<!-- Node13&#45;&gt;Node10 -->
<g id="edge15" class="edge">
<title>Node13&#45;&gt;Node10</title>
<path fill="none" stroke="#404040" d="M1129.27,-1433.88C984.66,-1432.04 651.42,-1418.81 581.5,-1337 546.56,-1296.12 568.56,-1268.2 581.5,-1216 598.67,-1146.72 607.05,-1125.47 656.5,-1074 667.54,-1062.51 675.38,-1066.35 687.5,-1056 687.7,-1055.83 687.9,-1055.66 688.1,-1055.48"/>
<polygon fill="none" stroke="#404040" points="688.16,-1055.43 689.92,-1048.44 697.05,-1047.37 695.29,-1054.36 688.16,-1055.43"/>
<text text-anchor="middle" x="626" y="-1329" font-family="Helvetica,sans-Serif" font-size="10.00"> +nDim</text>
<text text-anchor="middle" x="626" y="-1318" font-family="Helvetica,sans-Serif" font-size="10.00">+nOrder</text>
<text text-anchor="middle" x="626" y="-1307" font-family="Helvetica,sans-Serif" font-size="10.00">+nRealDim</text>
<text text-anchor="middle" x="626" y="-1296" font-family="Helvetica,sans-Serif" font-size="10.00">+nbPtsPerEdge</text>
<text text-anchor="middle" x="626" y="-1285" font-family="Helvetica,sans-Serif" font-size="10.00">+nbPtsPerFace</text>
<text text-anchor="middle" x="626" y="-1274" font-family="Helvetica,sans-Serif" font-size="10.00">+nbPtsPerVertex</text>
<text text-anchor="middle" x="626" y="-1263" font-family="Helvetica,sans-Serif" font-size="10.00">+nbPtsPerVolume</text>
<text text-anchor="middle" x="626" y="-1252" font-family="Helvetica,sans-Serif" font-size="10.00">+numNormals</text>
<text text-anchor="middle" x="626" y="-1241" font-family="Helvetica,sans-Serif" font-size="10.00">+numPoints</text>
<text text-anchor="middle" x="626" y="-1230" font-family="Helvetica,sans-Serif" font-size="10.00">+real_dimension</text>
<text text-anchor="middle" x="626" y="-1219" font-family="Helvetica,sans-Serif" font-size="10.00">...</text>
</g>
<!-- Node13&#45;&gt;Node11 -->
<g id="edge12" class="edge">
<title>Node13&#45;&gt;Node11</title>
<path fill="none" stroke="#404040" d="M1129.22,-1413.53C1107.86,-1406.3 1084.38,-1397.56 1063.5,-1388 1022.39,-1369.19 1012.04,-1363.61 975.5,-1337 974.44,-1336.23 973.38,-1335.44 972.31,-1334.64"/>
<polygon fill="none" stroke="#404040" points="972.2,-1334.56 965.01,-1334.01 962.75,-1327.16 969.94,-1327.71 972.2,-1334.56"/>
<text text-anchor="middle" x="1092" y="-1380" font-family="Helvetica,sans-Serif" font-size="10.00"> +nDim</text>
<text text-anchor="middle" x="1092" y="-1369" font-family="Helvetica,sans-Serif" font-size="10.00">+nOrder</text>
<text text-anchor="middle" x="1092" y="-1358" font-family="Helvetica,sans-Serif" font-size="10.00">+nRealDim</text>
</g>
<!-- Node18 -->
<g id="node18" class="node">
<title>Node18</title>
<g id="a_node18"><a xlink:href="classFeel_1_1SubFaceOfNone.html" target="_top" xlink:title=" ">
<polygon fill="white" stroke="#bfbfbf" points="1323.5,-1074.5 1323.5,-1197.5 1465.5,-1197.5 1465.5,-1074.5 1323.5,-1074.5"/>
<text text-anchor="start" x="1331.5" y="-1185.5" font-family="Helvetica,sans-Serif" font-size="10.00">Feel::SubFaceOfNone</text>
<text text-anchor="middle" x="1394.5" y="-1174.5" font-family="Helvetica,sans-Serif" font-size="10.00">&lt; Dim &gt;</text>
<polyline fill="none" stroke="#bfbfbf" points="1323.5,-1167.5 1465.5,-1167.5 "/>
<text text-anchor="middle" x="1394.5" y="-1155.5" font-family="Helvetica,sans-Serif" font-size="10.00"> </text>
<polyline fill="none" stroke="#bfbfbf" points="1323.5,-1148.5 1465.5,-1148.5 "/>
<text text-anchor="start" x="1331.5" y="-1136.5" font-family="Helvetica,sans-Serif" font-size="10.00">+ element()</text>
<text text-anchor="start" x="1331.5" y="-1125.5" font-family="Helvetica,sans-Serif" font-size="10.00">+ isGhostFace()</text>
<text text-anchor="start" x="1331.5" y="-1114.5" font-family="Helvetica,sans-Serif" font-size="10.00">+ isInterProcessDomain()</text>
<text text-anchor="start" x="1331.5" y="-1103.5" font-family="Helvetica,sans-Serif" font-size="10.00">+ operator=()</text>
<text text-anchor="start" x="1331.5" y="-1092.5" font-family="Helvetica,sans-Serif" font-size="10.00">+ operator=()</text>
<text text-anchor="start" x="1331.5" y="-1081.5" font-family="Helvetica,sans-Serif" font-size="10.00">and 7 more...</text>
</a>
</g>
</g>
<!-- Node13&#45;&gt;Node18 -->
<g id="edge24" class="edge">
<title>Node13&#45;&gt;Node18</title>
<path fill="none" stroke="#404040" d="M1263.61,-1417.89C1280.73,-1411.05 1297.85,-1401.44 1310.5,-1388 1356.32,-1339.31 1377.19,-1264.89 1386.67,-1209.71"/>
<polygon fill="none" stroke="#404040" points="1386.72,-1209.39 1383.73,-1202.83 1388.63,-1197.54 1391.63,-1204.1 1386.72,-1209.39"/>
<text text-anchor="middle" x="1354.5" y="-1369" font-family="Helvetica,sans-Serif" font-size="10.00"> +nDim</text>
</g>
<!-- Node14 -->
<g id="node14" class="node">
<title>Node14</title>
<g id="a_node14"><a xlink:href="classFeel_1_1SimplexBase.html" target="_top" xlink:title=" ">
<polygon fill="white" stroke="#bfbfbf" points="727,-1248 727,-1305 834,-1305 834,-1248 727,-1248"/>
<text text-anchor="middle" x="780.5" y="-1293" font-family="Helvetica,sans-Serif" font-size="10.00">Feel::SimplexBase</text>
<polyline fill="none" stroke="#bfbfbf" points="727,-1286 834,-1286 "/>
<text text-anchor="middle" x="780.5" y="-1274" font-family="Helvetica,sans-Serif" font-size="10.00"> </text>
<polyline fill="none" stroke="#bfbfbf" points="727,-1267 834,-1267 "/>
<text text-anchor="middle" x="780.5" y="-1255" font-family="Helvetica,sans-Serif" font-size="10.00"> </text>
</a>
</g>
</g>
<!-- Node14&#45;&gt;Node10 -->
<g id="edge13" class="edge">
<title>Node14&#45;&gt;Node10</title>
<path fill="none" stroke="#8b1a1a" d="M784.6,-1237.74C785.78,-1225.12 786.92,-1210.97 787.5,-1198 789.98,-1142.94 791.91,-1128.93 787.5,-1074 787.02,-1068.03 786.41,-1061.9 785.69,-1055.73"/>
<polygon fill="none" stroke="#8b1a1a" points="781.09,-1237.63 783.6,-1247.92 788.06,-1238.31 781.09,-1237.63"/>
</g>
<!-- Node15 -->
<g id="node15" class="node">
<title>Node15</title>
<g id="a_node15"><a xlink:href="classstatic_01const_01bool.html" target="_top" xlink:title=" ">
<polygon fill="white" stroke="#bfbfbf" points="200,-1248 200,-1305 297,-1305 297,-1248 200,-1248"/>
<text text-anchor="middle" x="248.5" y="-1293" font-family="Helvetica,sans-Serif" font-size="10.00">static const bool</text>
<polyline fill="none" stroke="#bfbfbf" points="200,-1286 297,-1286 "/>
<text text-anchor="middle" x="248.5" y="-1274" font-family="Helvetica,sans-Serif" font-size="10.00"> </text>
<polyline fill="none" stroke="#bfbfbf" points="200,-1267 297,-1267 "/>
<text text-anchor="middle" x="248.5" y="-1255" font-family="Helvetica,sans-Serif" font-size="10.00"> </text>
</a>
</g>
</g>
<!-- Node15&#45;&gt;Node2 -->
<g id="edge22" class="edge">
<title>Node15&#45;&gt;Node2</title>
<path fill="none" stroke="#404040" d="M226.15,-1247.88C216.21,-1233.83 205.61,-1215.96 200.5,-1198 152.56,-1029.54 138.86,-964.71 208.5,-804 314.26,-559.93 360.85,-487.74 576.5,-332 632.79,-291.35 707.6,-266.14 764.98,-251.49"/>
<polygon fill="none" stroke="#404040" points="765.29,-251.41 770.15,-246.08 776.94,-248.52 772.08,-253.84 765.29,-251.41"/>
<text text-anchor="middle" x="240.5" y="-818" font-family="Helvetica,sans-Serif" font-size="10.00"> +is_simplex</text>
</g>
<!-- Node15&#45;&gt;Node6 -->
<g id="edge20" class="edge">
<title>Node15&#45;&gt;Node6</title>
<path fill="none" stroke="#404040" d="M238.56,-1247.99C213.8,-1174.11 158.24,-969.24 257.5,-855 349.94,-748.6 430.76,-822.43 570.5,-804 606.91,-799.2 700.39,-807.68 746.74,-785.43"/>
<polygon fill="none" stroke="#404040" points="746.85,-785.37 749.99,-778.88 757.19,-779.28 754.05,-785.77 746.85,-785.37"/>
<text text-anchor="middle" x="295.5" y="-958.5" font-family="Helvetica,sans-Serif" font-size="10.00"> +is_hypercube</text>
<text text-anchor="middle" x="295.5" y="-947.5" font-family="Helvetica,sans-Serif" font-size="10.00">+is_simplex</text>
</g>
<!-- Node15&#45;&gt;Node10 -->
<g id="edge14" class="edge">
<title>Node15&#45;&gt;Node10</title>
<path fill="none" stroke="#404040" d="M270.2,-1247.97C307.85,-1202.52 390.13,-1112.97 482.5,-1074 563.31,-1039.91 603.35,-1094.05 686.38,-1055.56"/>
<polygon fill="none" stroke="#404040" points="686.54,-1055.48 690.12,-1049.22 697.27,-1050.1 693.7,-1056.37 686.54,-1055.48"/>
<text text-anchor="middle" x="520.5" y="-1139" font-family="Helvetica,sans-Serif" font-size="10.00"> +is_hypercube</text>
<text text-anchor="middle" x="520.5" y="-1128" font-family="Helvetica,sans-Serif" font-size="10.00">+is_simplex</text>
</g>
<!-- Node16 -->
<g id="node16" class="node">
<title>Node16</title>
<g id="a_node16"><a xlink:href="classint.html" target="_top" xlink:title=" ">
<polygon fill="white" stroke="#bfbfbf" points="680,-1248 680,-1305 709,-1305 709,-1248 680,-1248"/>
<text text-anchor="middle" x="694.5" y="-1293" font-family="Helvetica,sans-Serif" font-size="10.00">int</text>
<polyline fill="none" stroke="#bfbfbf" points="680,-1286 709,-1286 "/>
<text text-anchor="middle" x="694.5" y="-1274" font-family="Helvetica,sans-Serif" font-size="10.00"> </text>
<polyline fill="none" stroke="#bfbfbf" points="680,-1267 709,-1267 "/>
<text text-anchor="middle" x="694.5" y="-1255" font-family="Helvetica,sans-Serif" font-size="10.00"> </text>
</a>
</g>
</g>
<!-- Node16&#45;&gt;Node10 -->
<g id="edge16" class="edge">
<title>Node16&#45;&gt;Node10</title>
<path fill="none" stroke="#404040" d="M682.97,-1247.68C668.22,-1207.77 647.2,-1132.6 670.5,-1074 674.57,-1063.77 680.24,-1064.27 687.5,-1056 688.11,-1055.31 688.71,-1054.61 689.32,-1053.92"/>
<polygon fill="none" stroke="#404040" points="689.45,-1053.77 690.34,-1046.61 697.29,-1044.69 696.4,-1051.84 689.45,-1053.77"/>
<text text-anchor="middle" x="727" y="-1172" font-family="Helvetica,sans-Serif" font-size="10.00"> +Shape</text>
<text text-anchor="middle" x="727" y="-1161" font-family="Helvetica,sans-Serif" font-size="10.00">+numEdges</text>
<text text-anchor="middle" x="727" y="-1150" font-family="Helvetica,sans-Serif" font-size="10.00">+numFaces</text>
<text text-anchor="middle" x="727" y="-1139" font-family="Helvetica,sans-Serif" font-size="10.00">+numGeometricFaces</text>
<text text-anchor="middle" x="727" y="-1128" font-family="Helvetica,sans-Serif" font-size="10.00">+numTopologicalFaces</text>
<text text-anchor="middle" x="727" y="-1117" font-family="Helvetica,sans-Serif" font-size="10.00">+numVertices</text>
<text text-anchor="middle" x="727" y="-1106" font-family="Helvetica,sans-Serif" font-size="10.00">+numVolumes</text>
<text text-anchor="middle" x="727" y="-1095" font-family="Helvetica,sans-Serif" font-size="10.00">+shape_v</text>
</g>
<!-- Node17 -->
<g id="node17" class="node">
<title>Node17</title>
<g id="a_node17"><a xlink:title=" ">
<polygon fill="white" stroke="#bfbfbf" points="984.5,-1248 984.5,-1305 1106.5,-1305 1106.5,-1248 984.5,-1248"/>
<text text-anchor="middle" x="1045.5" y="-1293" font-family="Helvetica,sans-Serif" font-size="10.00">static const size_type</text>
<polyline fill="none" stroke="#bfbfbf" points="984.5,-1286 1106.5,-1286 "/>
<text text-anchor="middle" x="1045.5" y="-1274" font-family="Helvetica,sans-Serif" font-size="10.00"> </text>
<polyline fill="none" stroke="#bfbfbf" points="984.5,-1267 1106.5,-1267 "/>
<text text-anchor="middle" x="1045.5" y="-1255" font-family="Helvetica,sans-Serif" font-size="10.00"> </text>
</a>
</g>
</g>
<!-- Node17&#45;&gt;Node6 -->
<g id="edge18" class="edge">
<title>Node17&#45;&gt;Node6</title>
<path fill="none" stroke="#404040" d="M1047.9,-1247.95C1052.98,-1179.68 1061.07,-997.84 1018.5,-855 1003.34,-804.11 978.12,-752.45 951.82,-706.89"/>
<polygon fill="none" stroke="#404040" points="951.71,-706.71 945.23,-703.55 945.65,-696.35 952.14,-699.51 951.71,-706.71"/>
<text text-anchor="middle" x="1081" y="-958.5" font-family="Helvetica,sans-Serif" font-size="10.00"> +Geometry</text>
<text text-anchor="middle" x="1081" y="-947.5" font-family="Helvetica,sans-Serif" font-size="10.00">+Shape</text>
</g>
<!-- Node17&#45;&gt;Node10 -->
<g id="edge17" class="edge">
<title>Node17&#45;&gt;Node10</title>
<path fill="none" stroke="#404040" d="M1018.02,-1247.9C1003.65,-1233.27 985.89,-1214.88 970.5,-1198 928.55,-1152 883.94,-1099.13 847.34,-1054.6"/>
<polygon fill="none" stroke="#404040" points="847.27,-1054.51 840.37,-1052.41 839.66,-1045.23 846.56,-1047.34 847.27,-1054.51"/>
<text text-anchor="middle" x="1001" y="-1133.5" font-family="Helvetica,sans-Serif" font-size="10.00"> +Geometry</text>
</g>
<!-- Node18&#45;&gt;Node1 -->
<g id="edge23" class="edge">
<title>Node18&#45;&gt;Node1</title>
<path fill="none" stroke="midnightblue" d="M1399.12,-1064.04C1402.86,-1000.53 1407.5,-904.84 1407.5,-821.5 1407.5,-821.5 1407.5,-821.5 1407.5,-232 1407.5,-194.75 1395.09,-155.13 1381.96,-123.61"/>
<polygon fill="none" stroke="midnightblue" points="1395.61,-1064.15 1398.51,-1074.35 1402.6,-1064.57 1395.61,-1064.15"/>
</g>
<!-- Node19 -->
<g id="node19" class="node">
<title>Node19</title>
<g id="a_node19"><a xlink:href="classbool.html" target="_top" xlink:title=" ">
<polygon fill="white" stroke="#bfbfbf" points="1435.5,-204.5 1435.5,-261.5 1473.5,-261.5 1473.5,-204.5 1435.5,-204.5"/>
<text text-anchor="middle" x="1454.5" y="-249.5" font-family="Helvetica,sans-Serif" font-size="10.00">bool</text>
<polyline fill="none" stroke="#bfbfbf" points="1435.5,-242.5 1473.5,-242.5 "/>
<text text-anchor="middle" x="1454.5" y="-230.5" font-family="Helvetica,sans-Serif" font-size="10.00"> </text>
<polyline fill="none" stroke="#bfbfbf" points="1435.5,-223.5 1473.5,-223.5 "/>
<text text-anchor="middle" x="1454.5" y="-211.5" font-family="Helvetica,sans-Serif" font-size="10.00"> </text>
</a>
</g>
</g>
<!-- Node19&#45;&gt;Node1 -->
<g id="edge26" class="edge">
<title>Node19&#45;&gt;Node1</title>
<path fill="none" stroke="#404040" d="M1447.31,-204.43C1441.82,-185.97 1433.19,-161.58 1421.5,-142 1419.84,-139.22 1418.08,-136.45 1416.23,-133.69"/>
<polygon fill="none" stroke="#404040" points="1416.17,-133.61 1409.44,-131.04 1409.22,-123.83 1415.96,-126.41 1416.17,-133.61"/>
<text text-anchor="middle" x="1458.5" y="-145" font-family="Helvetica,sans-Serif" font-size="10.00"> +is_simplex</text>
</g>
</g>
</svg>
