<?xml version="1.0" encoding="UTF-8" standalone="no"?>
<!DOCTYPE svg PUBLIC "-//W3C//DTD SVG 1.1//EN"
 "http://www.w3.org/Graphics/SVG/1.1/DTD/svg11.dtd">
<!-- Generated by graphviz version 2.43.0 (0)
 -->
<!-- Title: Feel::DofTable&lt; MeshType, FEType, PeriodicityType, MortarType &gt; Pages: 1 -->
<svg width="487pt" height="585pt"
 viewBox="0.00 0.00 487.00 585.00" xmlns="http://www.w3.org/2000/svg" xmlns:xlink="http://www.w3.org/1999/xlink">
<g id="graph0" class="graph" transform="scale(1 1) rotate(0) translate(4 581)">
<title>Feel::DofTable&lt; MeshType, FEType, PeriodicityType, MortarType &gt;</title>
<polygon fill="white" stroke="transparent" points="-4,4 -4,-581 483,-581 483,4 -4,4"/>
<!-- Node1 -->
<g id="node1" class="node">
<title>Node1</title>
<g id="a_node1"><a xlink:title="Local&#45;to&#45;global Degree of Freedom table.">
<polygon fill="#bfbfbf" stroke="black" points="150.5,-0.5 150.5,-178.5 299.5,-178.5 299.5,-0.5 150.5,-0.5"/>
<text text-anchor="start" x="158.5" y="-166.5" font-family="Helvetica,sans-Serif" font-size="10.00">Feel::DofTable&lt; MeshType,</text>
<text text-anchor="start" x="158.5" y="-155.5" font-family="Helvetica,sans-Serif" font-size="10.00"> FEType, PeriodicityType,</text>
<text text-anchor="middle" x="225" y="-144.5" font-family="Helvetica,sans-Serif" font-size="10.00"> MortarType &gt;</text>
<polyline fill="none" stroke="black" points="150.5,-137.5 299.5,-137.5 "/>
<text text-anchor="start" x="158.5" y="-125.5" font-family="Helvetica,sans-Serif" font-size="10.00">+ is_modal</text>
<text text-anchor="start" x="158.5" y="-114.5" font-family="Helvetica,sans-Serif" font-size="10.00">+ is_p0_continuous</text>
<text text-anchor="start" x="158.5" y="-103.5" font-family="Helvetica,sans-Serif" font-size="10.00">+ is_periodic</text>
<text text-anchor="start" x="158.5" y="-92.5" font-family="Helvetica,sans-Serif" font-size="10.00">+ is_vectorial</text>
<polyline fill="none" stroke="black" points="150.5,-85.5 299.5,-85.5 "/>
<text text-anchor="start" x="158.5" y="-73.5" font-family="Helvetica,sans-Serif" font-size="10.00">+ beginPeriodicElements()</text>
<text text-anchor="start" x="158.5" y="-62.5" font-family="Helvetica,sans-Serif" font-size="10.00">+ build()</text>
<text text-anchor="start" x="158.5" y="-51.5" font-family="Helvetica,sans-Serif" font-size="10.00">+ build()</text>
<text text-anchor="start" x="158.5" y="-40.5" font-family="Helvetica,sans-Serif" font-size="10.00">+ build()</text>
<text text-anchor="start" x="158.5" y="-29.5" font-family="Helvetica,sans-Serif" font-size="10.00">+ buildBoundaryDofMap()</text>
<text text-anchor="start" x="158.5" y="-18.5" font-family="Helvetica,sans-Serif" font-size="10.00">and 94 more...</text>
<text text-anchor="start" x="158.5" y="-7.5" font-family="Helvetica,sans-Serif" font-size="10.00">+ nDofComponents()</text>
</a>
</g>
</g>
<!-- Node2 -->
<g id="node2" class="node">
<title>Node2</title>
<g id="a_node2"><a xlink:href="classFeel_1_1DofTableBase.html" target="_top" xlink:title=" ">
<polygon fill="white" stroke="black" points="0,-347.5 0,-470.5 140,-470.5 140,-347.5 0,-347.5"/>
<text text-anchor="start" x="8" y="-458.5" font-family="Helvetica,sans-Serif" font-size="10.00">Feel::DofTableBase</text>
<text text-anchor="middle" x="70" y="-447.5" font-family="Helvetica,sans-Serif" font-size="10.00">&lt; MeshType::size_type &gt;</text>
<polyline fill="none" stroke="black" points="0,-440.5 140,-440.5 "/>
<text text-anchor="middle" x="70" y="-428.5" font-family="Helvetica,sans-Serif" font-size="10.00"> </text>
<polyline fill="none" stroke="black" points="0,-421.5 140,-421.5 "/>
<text text-anchor="start" x="8" y="-409.5" font-family="Helvetica,sans-Serif" font-size="10.00">+ DofTableBase()</text>
<text text-anchor="start" x="8" y="-398.5" font-family="Helvetica,sans-Serif" font-size="10.00">+ DofTableBase()</text>
<text text-anchor="start" x="8" y="-387.5" font-family="Helvetica,sans-Serif" font-size="10.00">+ DofTableBase()</text>
<text text-anchor="start" x="8" y="-376.5" font-family="Helvetica,sans-Serif" font-size="10.00">+ DofTableBase()</text>
<text text-anchor="start" x="8" y="-365.5" font-family="Helvetica,sans-Serif" font-size="10.00">+ faceLocalToGlobal()</text>
<text text-anchor="start" x="8" y="-354.5" font-family="Helvetica,sans-Serif" font-size="10.00">and 5 more...</text>
</a>
</g>
</g>
<!-- Node2&#45;&gt;Node1 -->
<g id="edge1" class="edge">
<title>Node2&#45;&gt;Node1</title>
<path fill="none" stroke="midnightblue" d="M104.18,-337.99C127.06,-291.11 157.38,-229.01 181.92,-178.75"/>
<polygon fill="none" stroke="midnightblue" points="100.94,-336.64 99.7,-347.16 107.23,-339.71 100.94,-336.64"/>
</g>
<!-- Node3 -->
<g id="node3" class="node">
<title>Node3</title>
<g id="a_node3"><a xlink:title=" ">
<polygon fill="white" stroke="#bfbfbf" points="6.5,-508.5 6.5,-576.5 133.5,-576.5 133.5,-508.5 6.5,-508.5"/>
<text text-anchor="start" x="14.5" y="-564.5" font-family="Helvetica,sans-Serif" font-size="10.00">DataMap&lt; MeshType::</text>
<text text-anchor="middle" x="70" y="-553.5" font-family="Helvetica,sans-Serif" font-size="10.00">size_type &gt;</text>
<polyline fill="none" stroke="#bfbfbf" points="6.5,-546.5 133.5,-546.5 "/>
<text text-anchor="middle" x="70" y="-534.5" font-family="Helvetica,sans-Serif" font-size="10.00"> </text>
<polyline fill="none" stroke="#bfbfbf" points="6.5,-527.5 133.5,-527.5 "/>
<text text-anchor="middle" x="70" y="-515.5" font-family="Helvetica,sans-Serif" font-size="10.00"> </text>
</a>
</g>
</g>
<!-- Node3&#45;&gt;Node2 -->
<g id="edge2" class="edge">
<title>Node3&#45;&gt;Node2</title>
<path fill="none" stroke="midnightblue" d="M70,-498.25C70,-489.39 70,-479.91 70,-470.57"/>
<polygon fill="none" stroke="midnightblue" points="66.5,-498.32 70,-508.32 73.5,-498.32 66.5,-498.32"/>
</g>
<!-- Node4 -->
<g id="node4" class="node">
<title>Node4</title>
<g id="a_node4"><a xlink:title=" ">
<polygon fill="white" stroke="#bfbfbf" points="158,-380.5 158,-437.5 292,-437.5 292,-380.5 158,-380.5"/>
<text text-anchor="middle" x="225" y="-425.5" font-family="Helvetica,sans-Serif" font-size="10.00">static const uint16_type</text>
<polyline fill="none" stroke="#bfbfbf" points="158,-418.5 292,-418.5 "/>
<text text-anchor="middle" x="225" y="-406.5" font-family="Helvetica,sans-Serif" font-size="10.00"> </text>
<polyline fill="none" stroke="#bfbfbf" points="158,-399.5 292,-399.5 "/>
<text text-anchor="middle" x="225" y="-387.5" font-family="Helvetica,sans-Serif" font-size="10.00"> </text>
</a>
</g>
</g>
<!-- Node4&#45;&gt;Node1 -->
<g id="edge3" class="edge">
<title>Node4&#45;&gt;Node1</title>
<path fill="none" stroke="#404040" d="M225,-380.38C225,-338.48 225,-256.75 225,-190.72"/>
<polygon fill="none" stroke="#404040" points="225,-190.59 221,-184.59 225,-178.59 229,-184.59 225,-190.59"/>
<text text-anchor="middle" x="274" y="-315.5" font-family="Helvetica,sans-Serif" font-size="10.00"> +nComponents1</text>
<text text-anchor="middle" x="274" y="-304.5" font-family="Helvetica,sans-Serif" font-size="10.00">+nComponents2</text>
<text text-anchor="middle" x="274" y="-293.5" font-family="Helvetica,sans-Serif" font-size="10.00">+Shape</text>
<text text-anchor="middle" x="274" y="-282.5" font-family="Helvetica,sans-Serif" font-size="10.00">+nDim</text>
<text text-anchor="middle" x="274" y="-271.5" font-family="Helvetica,sans-Serif" font-size="10.00">+nDofPerEdge</text>
<text text-anchor="middle" x="274" y="-260.5" font-family="Helvetica,sans-Serif" font-size="10.00">+nComponents</text>
<text text-anchor="middle" x="274" y="-249.5" font-family="Helvetica,sans-Serif" font-size="10.00">+nRealDim</text>
<text text-anchor="middle" x="274" y="-238.5" font-family="Helvetica,sans-Serif" font-size="10.00">+nOrder</text>
<text text-anchor="middle" x="274" y="-227.5" font-family="Helvetica,sans-Serif" font-size="10.00">+nRealComponents</text>
<text text-anchor="middle" x="274" y="-216.5" font-family="Helvetica,sans-Serif" font-size="10.00">+nDofPerElement</text>
<text text-anchor="middle" x="274" y="-205.5" font-family="Helvetica,sans-Serif" font-size="10.00">...</text>
</g>
<!-- Node5 -->
<g id="node5" class="node">
<title>Node5</title>
<g id="a_node5"><a xlink:href="classbool.html" target="_top" xlink:title=" ">
<polygon fill="white" stroke="black" points="327,-380.5 327,-437.5 365,-437.5 365,-380.5 327,-380.5"/>
<text text-anchor="middle" x="346" y="-425.5" font-family="Helvetica,sans-Serif" font-size="10.00">bool</text>
<polyline fill="none" stroke="black" points="327,-418.5 365,-418.5 "/>
<text text-anchor="middle" x="346" y="-406.5" font-family="Helvetica,sans-Serif" font-size="10.00"> </text>
<polyline fill="none" stroke="black" points="327,-399.5 365,-399.5 "/>
<text text-anchor="middle" x="346" y="-387.5" font-family="Helvetica,sans-Serif" font-size="10.00"> </text>
</a>
</g>
</g>
<!-- Node5&#45;&gt;Node1 -->
<g id="edge4" class="edge">
<title>Node5&#45;&gt;Node1</title>
<path fill="none" stroke="#404040" d="M348.52,-380.26C351.15,-338.48 351.65,-257.86 324,-197 319.48,-187.04 313.65,-177.4 307.09,-168.26"/>
<polygon fill="none" stroke="#404040" points="306.96,-168.1 300.15,-165.74 299.7,-158.55 306.52,-160.9 306.96,-168.1"/>
<text text-anchor="middle" x="414" y="-321" font-family="Helvetica,sans-Serif" font-size="10.00"> +is_discontinuous_totally</text>
<text text-anchor="middle" x="414" y="-310" font-family="Helvetica,sans-Serif" font-size="10.00">+is_hcurl_conforming</text>
<text text-anchor="middle" x="414" y="-299" font-family="Helvetica,sans-Serif" font-size="10.00">+is_product</text>
<text text-anchor="middle" x="414" y="-288" font-family="Helvetica,sans-Serif" font-size="10.00">+is_scalar</text>
<text text-anchor="start" x="349" y="-277" font-family="Helvetica,sans-Serif" font-size="10.00">+is_discontinuous</text>
<text text-anchor="middle" x="414" y="-266" font-family="Helvetica,sans-Serif" font-size="10.00">_locally</text>
<text text-anchor="middle" x="414" y="-255" font-family="Helvetica,sans-Serif" font-size="10.00">+is_mortar</text>
<text text-anchor="middle" x="414" y="-244" font-family="Helvetica,sans-Serif" font-size="10.00">+is_tensor2symm</text>
<text text-anchor="middle" x="414" y="-233" font-family="Helvetica,sans-Serif" font-size="10.00">+is_continuous</text>
<text text-anchor="middle" x="414" y="-222" font-family="Helvetica,sans-Serif" font-size="10.00">+is_tensor2</text>
<text text-anchor="middle" x="414" y="-211" font-family="Helvetica,sans-Serif" font-size="10.00">+is_hdiv_conforming</text>
<text text-anchor="middle" x="414" y="-200" font-family="Helvetica,sans-Serif" font-size="10.00">...</text>
</g>
</g>
</svg>
