<?xml version="1.0" encoding="UTF-8" standalone="no"?>
<!DOCTYPE svg PUBLIC "-//W3C//DTD SVG 1.1//EN"
 "http://www.w3.org/Graphics/SVG/1.1/DTD/svg11.dtd">
<!-- Generated by graphviz version 2.43.0 (0)
 -->
<!-- Title: Feel::Geo0D&lt; Dim, T, IndexT &gt; Pages: 1 -->
<svg width="1066pt" height="1276pt"
 viewBox="0.00 0.00 1066.00 1276.00" xmlns="http://www.w3.org/2000/svg" xmlns:xlink="http://www.w3.org/1999/xlink">
<g id="graph0" class="graph" transform="scale(1 1) rotate(0) translate(4 1272)">
<title>Feel::Geo0D&lt; Dim, T, IndexT &gt;</title>
<polygon fill="white" stroke="transparent" points="-4,4 -4,-1272 1062,-1272 1062,4 -4,4"/>
<!-- Node1 -->
<g id="node1" class="node">
<title>Node1</title>
<g id="a_node1"><a xlink:title="Zero dimensional entity.">
<polygon fill="#bfbfbf" stroke="black" points="453,-0.5 453,-123.5 575,-123.5 575,-0.5 453,-0.5"/>
<text text-anchor="start" x="461" y="-111.5" font-family="Helvetica,sans-Serif" font-size="10.00">Feel::Geo0D&lt; Dim, T,</text>
<text text-anchor="middle" x="514" y="-100.5" font-family="Helvetica,sans-Serif" font-size="10.00"> IndexT &gt;</text>
<polyline fill="none" stroke="black" points="453,-93.5 575,-93.5 "/>
<text text-anchor="middle" x="514" y="-81.5" font-family="Helvetica,sans-Serif" font-size="10.00"> </text>
<polyline fill="none" stroke="black" points="453,-74.5 575,-74.5 "/>
<text text-anchor="start" x="461" y="-62.5" font-family="Helvetica,sans-Serif" font-size="10.00">+ G()</text>
<text text-anchor="start" x="461" y="-51.5" font-family="Helvetica,sans-Serif" font-size="10.00">+ gDim()</text>
<text text-anchor="start" x="461" y="-40.5" font-family="Helvetica,sans-Serif" font-size="10.00">+ Geo0D()</text>
<text text-anchor="start" x="461" y="-29.5" font-family="Helvetica,sans-Serif" font-size="10.00">+ Geo0D()</text>
<text text-anchor="start" x="461" y="-18.5" font-family="Helvetica,sans-Serif" font-size="10.00">+ Geo0D()</text>
<text text-anchor="start" x="461" y="-7.5" font-family="Helvetica,sans-Serif" font-size="10.00">and 46 more...</text>
</a>
</g>
</g>
<!-- Node2 -->
<g id="node2" class="node">
<title>Node2</title>
<g id="a_node2"><a xlink:title=" ">
<polygon fill="white" stroke="#bfbfbf" points="31,-364 31,-432 185,-432 185,-364 31,-364"/>
<text text-anchor="start" x="39" y="-420" font-family="Helvetica,sans-Serif" font-size="10.00">boost::equality_comparable</text>
<text text-anchor="middle" x="108" y="-409" font-family="Helvetica,sans-Serif" font-size="10.00">&lt; Geo0D&lt; Dim, double &gt; &gt;</text>
<polyline fill="none" stroke="#bfbfbf" points="31,-402 185,-402 "/>
<text text-anchor="middle" x="108" y="-390" font-family="Helvetica,sans-Serif" font-size="10.00"> </text>
<polyline fill="none" stroke="#bfbfbf" points="31,-383 185,-383 "/>
<text text-anchor="middle" x="108" y="-371" font-family="Helvetica,sans-Serif" font-size="10.00"> </text>
</a>
</g>
</g>
<!-- Node2&#45;&gt;Node1 -->
<g id="edge1" class="edge">
<title>Node2&#45;&gt;Node1</title>
<path fill="none" stroke="midnightblue" d="M113.29,-353.78C121.7,-303.26 142.78,-220.3 194,-171 265.39,-102.28 381.98,-77.22 452.98,-68.13"/>
<polygon fill="none" stroke="midnightblue" points="109.82,-353.32 111.72,-363.74 116.73,-354.41 109.82,-353.32"/>
</g>
<!-- Node3 -->
<g id="node3" class="node">
<title>Node3</title>
<g id="a_node3"><a xlink:title=" ">
<polygon fill="white" stroke="#bfbfbf" points="203.5,-364 203.5,-432 362.5,-432 362.5,-364 203.5,-364"/>
<text text-anchor="start" x="211.5" y="-420" font-family="Helvetica,sans-Serif" font-size="10.00">boost::less_than_comparable</text>
<text text-anchor="middle" x="283" y="-409" font-family="Helvetica,sans-Serif" font-size="10.00">&lt; Geo0D&lt; Dim, double &gt; &gt;</text>
<polyline fill="none" stroke="#bfbfbf" points="203.5,-402 362.5,-402 "/>
<text text-anchor="middle" x="283" y="-390" font-family="Helvetica,sans-Serif" font-size="10.00"> </text>
<polyline fill="none" stroke="#bfbfbf" points="203.5,-383 362.5,-383 "/>
<text text-anchor="middle" x="283" y="-371" font-family="Helvetica,sans-Serif" font-size="10.00"> </text>
</a>
</g>
</g>
<!-- Node3&#45;&gt;Node1 -->
<g id="edge2" class="edge">
<title>Node3&#45;&gt;Node1</title>
<path fill="none" stroke="midnightblue" d="M292.21,-354.07C304.16,-305.83 328.67,-226.96 371,-171 392.96,-141.97 424.72,-116.92 452.73,-98.27"/>
<polygon fill="none" stroke="midnightblue" points="288.78,-353.34 289.85,-363.88 295.59,-354.98 288.78,-353.34"/>
</g>
<!-- Node4 -->
<g id="node4" class="node">
<title>Node4</title>
<g id="a_node4"><a xlink:title=" ">
<polygon fill="white" stroke="#bfbfbf" points="380.5,-358.5 380.5,-437.5 539.5,-437.5 539.5,-358.5 380.5,-358.5"/>
<text text-anchor="start" x="388.5" y="-425.5" font-family="Helvetica,sans-Serif" font-size="10.00">boost::less_than_comparable</text>
<text text-anchor="start" x="388.5" y="-414.5" font-family="Helvetica,sans-Serif" font-size="10.00">&lt; Geo0D&lt; Dim, double &gt;,</text>
<text text-anchor="middle" x="460" y="-403.5" font-family="Helvetica,sans-Serif" font-size="10.00"> uint32_type &gt;</text>
<polyline fill="none" stroke="#bfbfbf" points="380.5,-396.5 539.5,-396.5 "/>
<text text-anchor="middle" x="460" y="-384.5" font-family="Helvetica,sans-Serif" font-size="10.00"> </text>
<polyline fill="none" stroke="#bfbfbf" points="380.5,-377.5 539.5,-377.5 "/>
<text text-anchor="middle" x="460" y="-365.5" font-family="Helvetica,sans-Serif" font-size="10.00"> </text>
</a>
</g>
</g>
<!-- Node4&#45;&gt;Node1 -->
<g id="edge3" class="edge">
<title>Node4&#45;&gt;Node1</title>
<path fill="none" stroke="midnightblue" d="M467.85,-348.46C477.47,-288.96 493.78,-188.08 504.21,-123.56"/>
<polygon fill="none" stroke="midnightblue" points="464.39,-347.93 466.25,-358.36 471.3,-349.05 464.39,-347.93"/>
</g>
<!-- Node5 -->
<g id="node5" class="node">
<title>Node5</title>
<g id="a_node5"><a xlink:href="classFeel_1_1GeoEntity.html" target="_top" xlink:title=" ">
<polygon fill="white" stroke="black" points="558,-171.5 558,-624.5 746,-624.5 746,-171.5 558,-171.5"/>
<text text-anchor="start" x="566" y="-612.5" font-family="Helvetica,sans-Serif" font-size="10.00">Feel::GeoEntity&lt; Simplex</text>
<text text-anchor="start" x="566" y="-601.5" font-family="Helvetica,sans-Serif" font-size="10.00">&lt; 0, 1, Dim &gt;, double,</text>
<text text-anchor="middle" x="652" y="-590.5" font-family="Helvetica,sans-Serif" font-size="10.00"> uint32_type &gt;</text>
<polyline fill="none" stroke="black" points="558,-583.5 746,-583.5 "/>
<text text-anchor="middle" x="652" y="-571.5" font-family="Helvetica,sans-Serif" font-size="10.00"> </text>
<polyline fill="none" stroke="black" points="558,-564.5 746,-564.5 "/>
<text text-anchor="start" x="566" y="-552.5" font-family="Helvetica,sans-Serif" font-size="10.00">* super</text>
<text text-anchor="start" x="566" y="-541.5" font-family="Helvetica,sans-Serif" font-size="10.00">* GeoShape</text>
<text text-anchor="start" x="566" y="-530.5" font-family="Helvetica,sans-Serif" font-size="10.00">* self_type</text>
<text text-anchor="start" x="566" y="-519.5" font-family="Helvetica,sans-Serif" font-size="10.00">* value_type</text>
<text text-anchor="start" x="566" y="-508.5" font-family="Helvetica,sans-Serif" font-size="10.00">* index_type</text>
<text text-anchor="start" x="566" y="-497.5" font-family="Helvetica,sans-Serif" font-size="10.00">and 12 more...</text>
<text text-anchor="start" x="566" y="-486.5" font-family="Helvetica,sans-Serif" font-size="10.00">* boost::serialization</text>
<text text-anchor="start" x="566" y="-475.5" font-family="Helvetica,sans-Serif" font-size="10.00">::access</text>
<text text-anchor="start" x="566" y="-464.5" font-family="Helvetica,sans-Serif" font-size="10.00">* M_id</text>
<text text-anchor="start" x="566" y="-453.5" font-family="Helvetica,sans-Serif" font-size="10.00">* M_entity</text>
<text text-anchor="start" x="566" y="-442.5" font-family="Helvetica,sans-Serif" font-size="10.00">* M_boundaryEntityDimension</text>
<text text-anchor="start" x="566" y="-431.5" font-family="Helvetica,sans-Serif" font-size="10.00">* M_pid</text>
<text text-anchor="start" x="566" y="-420.5" font-family="Helvetica,sans-Serif" font-size="10.00">and 41 more...</text>
<text text-anchor="start" x="566" y="-409.5" font-family="Helvetica,sans-Serif" font-size="10.00">* GeoEntity()</text>
<text text-anchor="start" x="566" y="-398.5" font-family="Helvetica,sans-Serif" font-size="10.00">* GeoEntity()</text>
<text text-anchor="start" x="566" y="-387.5" font-family="Helvetica,sans-Serif" font-size="10.00">* GeoEntity()</text>
<text text-anchor="start" x="566" y="-376.5" font-family="Helvetica,sans-Serif" font-size="10.00">* GeoEntity()</text>
<text text-anchor="start" x="566" y="-365.5" font-family="Helvetica,sans-Serif" font-size="10.00">* operator=()</text>
<text text-anchor="start" x="566" y="-354.5" font-family="Helvetica,sans-Serif" font-size="10.00">* operator=()</text>
<text text-anchor="start" x="566" y="-343.5" font-family="Helvetica,sans-Serif" font-size="10.00">* ~GeoEntity()</text>
<text text-anchor="start" x="566" y="-332.5" font-family="Helvetica,sans-Serif" font-size="10.00">* operator==()</text>
<text text-anchor="start" x="566" y="-321.5" font-family="Helvetica,sans-Serif" font-size="10.00">* operator&lt;()</text>
<text text-anchor="start" x="566" y="-310.5" font-family="Helvetica,sans-Serif" font-size="10.00">* operator&lt;()</text>
<text text-anchor="start" x="566" y="-299.5" font-family="Helvetica,sans-Serif" font-size="10.00">* id()</text>
<text text-anchor="start" x="566" y="-288.5" font-family="Helvetica,sans-Serif" font-size="10.00">* refDim()</text>
<text text-anchor="start" x="566" y="-277.5" font-family="Helvetica,sans-Serif" font-size="10.00">* nPoints()</text>
<text text-anchor="start" x="566" y="-266.5" font-family="Helvetica,sans-Serif" font-size="10.00">* nVertices()</text>
<text text-anchor="start" x="566" y="-255.5" font-family="Helvetica,sans-Serif" font-size="10.00">* nEdges()</text>
<text text-anchor="start" x="566" y="-244.5" font-family="Helvetica,sans-Serif" font-size="10.00">and 42 more...</text>
<text text-anchor="start" x="566" y="-233.5" font-family="Helvetica,sans-Serif" font-size="10.00">* setId()</text>
<text text-anchor="start" x="566" y="-222.5" font-family="Helvetica,sans-Serif" font-size="10.00">* setOnBoundary()</text>
<text text-anchor="start" x="566" y="-211.5" font-family="Helvetica,sans-Serif" font-size="10.00">* setNumberOfPartitions()</text>
<text text-anchor="start" x="566" y="-200.5" font-family="Helvetica,sans-Serif" font-size="10.00">* setNumberOfNeighborPartitions()</text>
<text text-anchor="start" x="566" y="-189.5" font-family="Helvetica,sans-Serif" font-size="10.00">* setNeighborPartitionIds()</text>
<text text-anchor="start" x="566" y="-178.5" font-family="Helvetica,sans-Serif" font-size="10.00">* addNeighborPartitionId()</text>
</a>
</g>
</g>
<!-- Node5&#45;&gt;Node1 -->
<g id="edge4" class="edge">
<title>Node5&#45;&gt;Node1</title>
<path fill="none" stroke="midnightblue" d="M554.87,-161.92C549.26,-148.33 543.94,-135.47 539.12,-123.79"/>
<polygon fill="none" stroke="midnightblue" points="551.75,-163.53 558.8,-171.44 558.22,-160.86 551.75,-163.53"/>
</g>
<!-- Node6 -->
<g id="node6" class="node">
<title>Node6</title>
<g id="a_node6"><a xlink:title=" ">
<polygon fill="white" stroke="#bfbfbf" points="784,-717.5 784,-807.5 936,-807.5 936,-717.5 784,-717.5"/>
<text text-anchor="start" x="792" y="-795.5" font-family="Helvetica,sans-Serif" font-size="10.00">boost::equality_comparable</text>
<text text-anchor="start" x="792" y="-784.5" font-family="Helvetica,sans-Serif" font-size="10.00">&lt; GeoEntity&lt; Simplex&lt; 0,</text>
<text text-anchor="start" x="792" y="-773.5" font-family="Helvetica,sans-Serif" font-size="10.00"> 1, Dim &gt;, double, uint32</text>
<text text-anchor="middle" x="860" y="-762.5" font-family="Helvetica,sans-Serif" font-size="10.00">_type &gt; &gt;</text>
<polyline fill="none" stroke="#bfbfbf" points="784,-755.5 936,-755.5 "/>
<text text-anchor="middle" x="860" y="-743.5" font-family="Helvetica,sans-Serif" font-size="10.00"> </text>
<polyline fill="none" stroke="#bfbfbf" points="784,-736.5 936,-736.5 "/>
<text text-anchor="middle" x="860" y="-724.5" font-family="Helvetica,sans-Serif" font-size="10.00"> </text>
</a>
</g>
</g>
<!-- Node6&#45;&gt;Node5 -->
<g id="edge5" class="edge">
<title>Node6&#45;&gt;Node5</title>
<path fill="none" stroke="#8b1a1a" d="M829.56,-708.46C807.44,-669.9 776.22,-615.49 746.11,-563.02"/>
<polygon fill="none" stroke="#8b1a1a" points="826.69,-710.48 834.7,-717.41 832.76,-707 826.69,-710.48"/>
</g>
<!-- Node7 -->
<g id="node7" class="node">
<title>Node7</title>
<g id="a_node7"><a xlink:title=" ">
<polygon fill="white" stroke="#bfbfbf" points="7.5,-717.5 7.5,-807.5 166.5,-807.5 166.5,-717.5 7.5,-717.5"/>
<text text-anchor="start" x="15.5" y="-795.5" font-family="Helvetica,sans-Serif" font-size="10.00">boost::less_than_comparable</text>
<text text-anchor="start" x="15.5" y="-784.5" font-family="Helvetica,sans-Serif" font-size="10.00">&lt; GeoEntity&lt; Simplex&lt; 0,</text>
<text text-anchor="start" x="15.5" y="-773.5" font-family="Helvetica,sans-Serif" font-size="10.00"> 1, Dim &gt;, double, uint32</text>
<text text-anchor="middle" x="87" y="-762.5" font-family="Helvetica,sans-Serif" font-size="10.00">_type &gt; &gt;</text>
<polyline fill="none" stroke="#bfbfbf" points="7.5,-755.5 166.5,-755.5 "/>
<text text-anchor="middle" x="87" y="-743.5" font-family="Helvetica,sans-Serif" font-size="10.00"> </text>
<polyline fill="none" stroke="#bfbfbf" points="7.5,-736.5 166.5,-736.5 "/>
<text text-anchor="middle" x="87" y="-724.5" font-family="Helvetica,sans-Serif" font-size="10.00"> </text>
</a>
</g>
</g>
<!-- Node7&#45;&gt;Node5 -->
<g id="edge6" class="edge">
<title>Node7&#45;&gt;Node5</title>
<path fill="none" stroke="#8b1a1a" d="M120.98,-709.05C135.41,-691.1 153.81,-672.84 175,-662 249.16,-624.07 480.17,-673.34 548,-625 551.34,-622.62 554.58,-620.1 557.71,-617.47"/>
<polygon fill="none" stroke="#8b1a1a" points="117.99,-707.2 114.64,-717.25 123.53,-711.48 117.99,-707.2"/>
</g>
<!-- Node8 -->
<g id="node8" class="node">
<title>Node8</title>
<g id="a_node8"><a xlink:title=" ">
<polygon fill="white" stroke="#bfbfbf" points="184.5,-717.5 184.5,-807.5 343.5,-807.5 343.5,-717.5 184.5,-717.5"/>
<text text-anchor="start" x="192.5" y="-795.5" font-family="Helvetica,sans-Serif" font-size="10.00">boost::less_than_comparable</text>
<text text-anchor="start" x="192.5" y="-784.5" font-family="Helvetica,sans-Serif" font-size="10.00">&lt; GeoEntity&lt; Simplex&lt; 0,</text>
<text text-anchor="start" x="192.5" y="-773.5" font-family="Helvetica,sans-Serif" font-size="10.00"> 1, Dim &gt;, double, uint32</text>
<text text-anchor="middle" x="264" y="-762.5" font-family="Helvetica,sans-Serif" font-size="10.00">_type &gt;, uint32_type &gt;</text>
<polyline fill="none" stroke="#bfbfbf" points="184.5,-755.5 343.5,-755.5 "/>
<text text-anchor="middle" x="264" y="-743.5" font-family="Helvetica,sans-Serif" font-size="10.00"> </text>
<polyline fill="none" stroke="#bfbfbf" points="184.5,-736.5 343.5,-736.5 "/>
<text text-anchor="middle" x="264" y="-724.5" font-family="Helvetica,sans-Serif" font-size="10.00"> </text>
</a>
</g>
</g>
<!-- Node8&#45;&gt;Node5 -->
<g id="edge7" class="edge">
<title>Node8&#45;&gt;Node5</title>
<path fill="none" stroke="#8b1a1a" d="M299.57,-709.37C314.15,-691.75 332.44,-673.62 353,-662 429.8,-618.61 478.5,-679.33 548,-625 551.4,-622.34 554.7,-619.54 557.89,-616.62"/>
<polygon fill="none" stroke="#8b1a1a" points="296.66,-707.41 293.14,-717.4 302.12,-711.78 296.66,-707.41"/>
</g>
<!-- Node9 -->
<g id="node9" class="node">
<title>Node9</title>
<g id="a_node9"><a xlink:href="classFeel_1_1Simplex.html" target="_top" xlink:title=" ">
<polygon fill="white" stroke="black" points="362,-662.5 362,-862.5 504,-862.5 504,-662.5 362,-662.5"/>
<text text-anchor="start" x="370" y="-850.5" font-family="Helvetica,sans-Serif" font-size="10.00">Feel::Simplex&lt; 0, 1,</text>
<text text-anchor="middle" x="433" y="-839.5" font-family="Helvetica,sans-Serif" font-size="10.00"> Dim &gt;</text>
<polyline fill="none" stroke="black" points="362,-832.5 504,-832.5 "/>
<text text-anchor="start" x="370" y="-820.5" font-family="Helvetica,sans-Serif" font-size="10.00">+ topological_dimension</text>
<polyline fill="none" stroke="black" points="362,-813.5 504,-813.5 "/>
<text text-anchor="start" x="370" y="-801.5" font-family="Helvetica,sans-Serif" font-size="10.00">+ dimension()</text>
<text text-anchor="start" x="370" y="-790.5" font-family="Helvetica,sans-Serif" font-size="10.00">+ operator=()</text>
<text text-anchor="start" x="370" y="-779.5" font-family="Helvetica,sans-Serif" font-size="10.00">+ operator=()</text>
<text text-anchor="start" x="370" y="-768.5" font-family="Helvetica,sans-Serif" font-size="10.00">+ Simplex()</text>
<text text-anchor="start" x="370" y="-757.5" font-family="Helvetica,sans-Serif" font-size="10.00">+ Simplex()</text>
<text text-anchor="start" x="370" y="-746.5" font-family="Helvetica,sans-Serif" font-size="10.00">+ Simplex()</text>
<text text-anchor="start" x="370" y="-735.5" font-family="Helvetica,sans-Serif" font-size="10.00">+ topologicalDimension()</text>
<text text-anchor="start" x="370" y="-724.5" font-family="Helvetica,sans-Serif" font-size="10.00">+ e2p()</text>
<text text-anchor="start" x="370" y="-713.5" font-family="Helvetica,sans-Serif" font-size="10.00">+ f2e()</text>
<text text-anchor="start" x="370" y="-702.5" font-family="Helvetica,sans-Serif" font-size="10.00">+ f2eLoc()</text>
<text text-anchor="start" x="370" y="-691.5" font-family="Helvetica,sans-Serif" font-size="10.00">+ f2p()</text>
<text text-anchor="start" x="370" y="-680.5" font-family="Helvetica,sans-Serif" font-size="10.00">+ getShape()</text>
<text text-anchor="start" x="370" y="-669.5" font-family="Helvetica,sans-Serif" font-size="10.00">and 12 more...</text>
</a>
</g>
</g>
<!-- Node9&#45;&gt;Node5 -->
<g id="edge8" class="edge">
<title>Node9&#45;&gt;Node5</title>
<path fill="none" stroke="midnightblue" d="M510.98,-659.09C515.94,-653.54 520.97,-648.14 526,-643 534.84,-633.98 540.27,-634.99 548,-625 551.37,-620.64 554.66,-616.16 557.87,-611.57"/>
<polygon fill="none" stroke="midnightblue" points="508.23,-656.91 504.26,-666.73 513.49,-661.53 508.23,-656.91"/>
</g>
<!-- Node10 -->
<g id="node10" class="node">
<title>Node10</title>
<g id="a_node10"><a xlink:href="classFeel_1_1Convex.html" target="_top" xlink:title=" ">
<polygon fill="white" stroke="black" points="232,-1030 232,-1131 346,-1131 346,-1030 232,-1030"/>
<text text-anchor="start" x="240" y="-1119" font-family="Helvetica,sans-Serif" font-size="10.00">Feel::Convex&lt; Dim,</text>
<text text-anchor="middle" x="289" y="-1108" font-family="Helvetica,sans-Serif" font-size="10.00"> Order, RDim &gt;</text>
<polyline fill="none" stroke="black" points="232,-1101 346,-1101 "/>
<text text-anchor="middle" x="289" y="-1089" font-family="Helvetica,sans-Serif" font-size="10.00"> </text>
<polyline fill="none" stroke="black" points="232,-1082 346,-1082 "/>
<text text-anchor="start" x="240" y="-1070" font-family="Helvetica,sans-Serif" font-size="10.00">* Convex()</text>
<text text-anchor="start" x="240" y="-1059" font-family="Helvetica,sans-Serif" font-size="10.00">* Convex()</text>
<text text-anchor="start" x="240" y="-1048" font-family="Helvetica,sans-Serif" font-size="10.00">* ~Convex()</text>
<text text-anchor="start" x="240" y="-1037" font-family="Helvetica,sans-Serif" font-size="10.00">* operator=()</text>
</a>
</g>
</g>
<!-- Node10&#45;&gt;Node9 -->
<g id="edge9" class="edge">
<title>Node10&#45;&gt;Node9</title>
<path fill="none" stroke="midnightblue" d="M315.84,-1020.59C336.04,-976.27 364.19,-914.5 387.83,-862.62"/>
<polygon fill="none" stroke="midnightblue" points="312.62,-1019.23 311.66,-1029.78 318.99,-1022.13 312.62,-1019.23"/>
</g>
<!-- Node11 -->
<g id="node11" class="node">
<title>Node11</title>
<g id="a_node11"><a xlink:href="classFeel_1_1ConvexBase.html" target="_top" xlink:title=" ">
<polygon fill="white" stroke="#bfbfbf" points="0,-1210.5 0,-1267.5 104,-1267.5 104,-1210.5 0,-1210.5"/>
<text text-anchor="middle" x="52" y="-1255.5" font-family="Helvetica,sans-Serif" font-size="10.00">Feel::ConvexBase</text>
<polyline fill="none" stroke="#bfbfbf" points="0,-1248.5 104,-1248.5 "/>
<text text-anchor="middle" x="52" y="-1236.5" font-family="Helvetica,sans-Serif" font-size="10.00"> </text>
<polyline fill="none" stroke="#bfbfbf" points="0,-1229.5 104,-1229.5 "/>
<text text-anchor="middle" x="52" y="-1217.5" font-family="Helvetica,sans-Serif" font-size="10.00"> </text>
</a>
</g>
</g>
<!-- Node11&#45;&gt;Node10 -->
<g id="edge10" class="edge">
<title>Node11&#45;&gt;Node10</title>
<path fill="none" stroke="midnightblue" d="M113.43,-1206.95C146.6,-1189.21 187.68,-1165.62 222,-1141 226.3,-1137.92 230.64,-1134.6 234.93,-1131.17"/>
<polygon fill="none" stroke="midnightblue" points="111.48,-1204.02 104.29,-1211.8 114.76,-1210.2 111.48,-1204.02"/>
</g>
<!-- Node12 -->
<g id="node12" class="node">
<title>Node12</title>
<g id="a_node12"><a xlink:title=" ">
<polygon fill="white" stroke="#bfbfbf" points="554,-1210.5 554,-1267.5 688,-1267.5 688,-1210.5 554,-1210.5"/>
<text text-anchor="middle" x="621" y="-1255.5" font-family="Helvetica,sans-Serif" font-size="10.00">static const uint16_type</text>
<polyline fill="none" stroke="#bfbfbf" points="554,-1248.5 688,-1248.5 "/>
<text text-anchor="middle" x="621" y="-1236.5" font-family="Helvetica,sans-Serif" font-size="10.00"> </text>
<polyline fill="none" stroke="#bfbfbf" points="554,-1229.5 688,-1229.5 "/>
<text text-anchor="middle" x="621" y="-1217.5" font-family="Helvetica,sans-Serif" font-size="10.00"> </text>
</a>
</g>
</g>
<!-- Node12&#45;&gt;Node1 -->
<g id="edge20" class="edge">
<title>Node12&#45;&gt;Node1</title>
<path fill="none" stroke="#404040" d="M688.26,-1236.98C790.18,-1231.48 972,-1204.43 972,-1081.5 972,-1081.5 972,-1081.5 972,-397 972,-208.76 716.31,-115.35 587.02,-80.16"/>
<polygon fill="none" stroke="#404040" points="586.89,-80.12 580.06,-82.44 575.29,-77.03 582.12,-74.71 586.89,-80.12"/>
<text text-anchor="middle" x="991" y="-760" font-family="Helvetica,sans-Serif" font-size="10.00"> +nDim</text>
</g>
<!-- Node12&#45;&gt;Node5 -->
<g id="edge18" class="edge">
<title>Node12&#45;&gt;Node5</title>
<path fill="none" stroke="#404040" d="M670.35,-1210.33C694.84,-1193.7 722.09,-1170.1 736,-1141 781.9,-1044.95 759.47,-767.01 742,-662 740.61,-653.67 739,-645.25 737.19,-636.79"/>
<polygon fill="none" stroke="#404040" points="737.13,-636.51 731.91,-631.53 734.5,-624.8 739.72,-629.78 737.13,-636.51"/>
<text text-anchor="middle" x="818.5" y="-994" font-family="Helvetica,sans-Serif" font-size="10.00"> +nDim</text>
<text text-anchor="middle" x="818.5" y="-983" font-family="Helvetica,sans-Serif" font-size="10.00">+nOrder</text>
<text text-anchor="middle" x="818.5" y="-972" font-family="Helvetica,sans-Serif" font-size="10.00">+nRealDim</text>
<text text-anchor="middle" x="818.5" y="-961" font-family="Helvetica,sans-Serif" font-size="10.00">+nbPtsPerEdge</text>
<text text-anchor="middle" x="818.5" y="-950" font-family="Helvetica,sans-Serif" font-size="10.00">+nbPtsPerFace</text>
<text text-anchor="middle" x="818.5" y="-939" font-family="Helvetica,sans-Serif" font-size="10.00">+nbPtsPerVertex</text>
<text text-anchor="middle" x="818.5" y="-928" font-family="Helvetica,sans-Serif" font-size="10.00">+nbPtsPerVolume</text>
<text text-anchor="middle" x="818.5" y="-917" font-family="Helvetica,sans-Serif" font-size="10.00">+numEdges</text>
<text text-anchor="middle" x="818.5" y="-906" font-family="Helvetica,sans-Serif" font-size="10.00">+numFaces</text>
<text text-anchor="middle" x="818.5" y="-895" font-family="Helvetica,sans-Serif" font-size="10.00">+numGeometricFaces</text>
<text text-anchor="middle" x="818.5" y="-884" font-family="Helvetica,sans-Serif" font-size="10.00">...</text>
</g>
<!-- Node12&#45;&gt;Node9 -->
<g id="edge14" class="edge">
<title>Node12&#45;&gt;Node9</title>
<path fill="none" stroke="#404040" d="M553.9,-1236.12C423.81,-1230.9 144.91,-1211.56 86,-1141 7.53,-1047.02 72.42,-944.66 177,-881 240.66,-842.25 279.44,-894.76 350.94,-862.44"/>
<polygon fill="none" stroke="#404040" points="351.01,-862.41 354.58,-856.15 361.74,-857.04 358.16,-863.3 351.01,-862.41"/>
<text text-anchor="middle" x="130.5" y="-1133" font-family="Helvetica,sans-Serif" font-size="10.00"> +nDim</text>
<text text-anchor="middle" x="130.5" y="-1122" font-family="Helvetica,sans-Serif" font-size="10.00">+nOrder</text>
<text text-anchor="middle" x="130.5" y="-1111" font-family="Helvetica,sans-Serif" font-size="10.00">+nRealDim</text>
<text text-anchor="middle" x="130.5" y="-1100" font-family="Helvetica,sans-Serif" font-size="10.00">+nbPtsPerEdge</text>
<text text-anchor="middle" x="130.5" y="-1089" font-family="Helvetica,sans-Serif" font-size="10.00">+nbPtsPerFace</text>
<text text-anchor="middle" x="130.5" y="-1078" font-family="Helvetica,sans-Serif" font-size="10.00">+nbPtsPerVertex</text>
<text text-anchor="middle" x="130.5" y="-1067" font-family="Helvetica,sans-Serif" font-size="10.00">+nbPtsPerVolume</text>
<text text-anchor="middle" x="130.5" y="-1056" font-family="Helvetica,sans-Serif" font-size="10.00">+numNormals</text>
<text text-anchor="middle" x="130.5" y="-1045" font-family="Helvetica,sans-Serif" font-size="10.00">+numPoints</text>
<text text-anchor="middle" x="130.5" y="-1034" font-family="Helvetica,sans-Serif" font-size="10.00">+real_dimension</text>
<text text-anchor="middle" x="130.5" y="-1023" font-family="Helvetica,sans-Serif" font-size="10.00">...</text>
</g>
<!-- Node12&#45;&gt;Node10 -->
<g id="edge11" class="edge">
<title>Node12&#45;&gt;Node10</title>
<path fill="none" stroke="#404040" d="M553.89,-1221.28C498.11,-1205.6 417.97,-1178.89 355,-1141 353.47,-1140.08 351.95,-1139.12 350.43,-1138.13"/>
<polygon fill="none" stroke="#404040" points="350.34,-1138.07 343.13,-1137.89 340.52,-1131.17 347.73,-1131.35 350.34,-1138.07"/>
<text text-anchor="middle" x="489.5" y="-1184" font-family="Helvetica,sans-Serif" font-size="10.00"> +nDim</text>
<text text-anchor="middle" x="489.5" y="-1173" font-family="Helvetica,sans-Serif" font-size="10.00">+nOrder</text>
<text text-anchor="middle" x="489.5" y="-1162" font-family="Helvetica,sans-Serif" font-size="10.00">+nRealDim</text>
</g>
<!-- Node13 -->
<g id="node13" class="node">
<title>Node13</title>
<g id="a_node13"><a xlink:href="classFeel_1_1SimplexBase.html" target="_top" xlink:title=" ">
<polygon fill="white" stroke="#bfbfbf" points="364.5,-1052 364.5,-1109 471.5,-1109 471.5,-1052 364.5,-1052"/>
<text text-anchor="middle" x="418" y="-1097" font-family="Helvetica,sans-Serif" font-size="10.00">Feel::SimplexBase</text>
<polyline fill="none" stroke="#bfbfbf" points="364.5,-1090 471.5,-1090 "/>
<text text-anchor="middle" x="418" y="-1078" font-family="Helvetica,sans-Serif" font-size="10.00"> </text>
<polyline fill="none" stroke="#bfbfbf" points="364.5,-1071 471.5,-1071 "/>
<text text-anchor="middle" x="418" y="-1059" font-family="Helvetica,sans-Serif" font-size="10.00"> </text>
</a>
</g>
</g>
<!-- Node13&#45;&gt;Node9 -->
<g id="edge12" class="edge">
<title>Node13&#45;&gt;Node9</title>
<path fill="none" stroke="#8b1a1a" d="M419.8,-1041.5C421.89,-997.56 425.41,-923.49 428.28,-862.85"/>
<polygon fill="none" stroke="#8b1a1a" points="416.3,-1041.58 419.32,-1051.73 423.29,-1041.91 416.3,-1041.58"/>
</g>
<!-- Node14 -->
<g id="node14" class="node">
<title>Node14</title>
<g id="a_node14"><a xlink:href="classstatic_01const_01bool.html" target="_top" xlink:title=" ">
<polygon fill="white" stroke="#bfbfbf" points="630.5,-1052 630.5,-1109 727.5,-1109 727.5,-1052 630.5,-1052"/>
<text text-anchor="middle" x="679" y="-1097" font-family="Helvetica,sans-Serif" font-size="10.00">static const bool</text>
<polyline fill="none" stroke="#bfbfbf" points="630.5,-1090 727.5,-1090 "/>
<text text-anchor="middle" x="679" y="-1078" font-family="Helvetica,sans-Serif" font-size="10.00"> </text>
<polyline fill="none" stroke="#bfbfbf" points="630.5,-1071 727.5,-1071 "/>
<text text-anchor="middle" x="679" y="-1059" font-family="Helvetica,sans-Serif" font-size="10.00"> </text>
</a>
</g>
</g>
<!-- Node14&#45;&gt;Node5 -->
<g id="edge19" class="edge">
<title>Node14&#45;&gt;Node5</title>
<path fill="none" stroke="#404040" d="M677.07,-1051.83C674.27,-1010.68 669.06,-930.9 666,-863 662.69,-789.5 659.95,-709.41 657.81,-636.79"/>
<polygon fill="none" stroke="#404040" points="657.81,-636.72 653.64,-630.84 657.46,-624.73 661.63,-630.61 657.81,-636.72"/>
<text text-anchor="middle" x="704" y="-765.5" font-family="Helvetica,sans-Serif" font-size="10.00"> +is_hypercube</text>
<text text-anchor="middle" x="704" y="-754.5" font-family="Helvetica,sans-Serif" font-size="10.00">+is_simplex</text>
</g>
<!-- Node14&#45;&gt;Node9 -->
<g id="edge13" class="edge">
<title>Node14&#45;&gt;Node9</title>
<path fill="none" stroke="#404040" d="M656.58,-1051.72C646.6,-1040.71 634.14,-1028.64 621,-1020 602.31,-1007.71 589.68,-1017.95 574,-1002 533.88,-961.2 558.41,-930.68 530,-881 526.41,-874.71 519.91,-865.74 511.93,-855.53"/>
<polygon fill="none" stroke="#404040" points="511.68,-855.22 504.82,-853.02 504.21,-845.83 511.08,-848.03 511.68,-855.22"/>
<text text-anchor="middle" x="612" y="-944.5" font-family="Helvetica,sans-Serif" font-size="10.00"> +is_hypercube</text>
<text text-anchor="middle" x="612" y="-933.5" font-family="Helvetica,sans-Serif" font-size="10.00">+is_simplex</text>
</g>
<!-- Node15 -->
<g id="node15" class="node">
<title>Node15</title>
<g id="a_node15"><a xlink:href="classint.html" target="_top" xlink:title=" ">
<polygon fill="white" stroke="#bfbfbf" points="184.5,-1052 184.5,-1109 213.5,-1109 213.5,-1052 184.5,-1052"/>
<text text-anchor="middle" x="199" y="-1097" font-family="Helvetica,sans-Serif" font-size="10.00">int</text>
<polyline fill="none" stroke="#bfbfbf" points="184.5,-1090 213.5,-1090 "/>
<text text-anchor="middle" x="199" y="-1078" font-family="Helvetica,sans-Serif" font-size="10.00"> </text>
<polyline fill="none" stroke="#bfbfbf" points="184.5,-1071 213.5,-1071 "/>
<text text-anchor="middle" x="199" y="-1059" font-family="Helvetica,sans-Serif" font-size="10.00"> </text>
</a>
</g>
</g>
<!-- Node15&#45;&gt;Node9 -->
<g id="edge15" class="edge">
<title>Node15&#45;&gt;Node9</title>
<path fill="none" stroke="#404040" d="M190.93,-1051.89C180.32,-1009.19 167.72,-927.26 211,-881 230.68,-859.96 308.79,-875.09 350.88,-861.52"/>
<polygon fill="none" stroke="#404040" points="350.94,-861.49 354.86,-855.44 361.96,-856.74 358.03,-862.79 350.94,-861.49"/>
<text text-anchor="middle" x="267.5" y="-977.5" font-family="Helvetica,sans-Serif" font-size="10.00"> +Shape</text>
<text text-anchor="middle" x="267.5" y="-966.5" font-family="Helvetica,sans-Serif" font-size="10.00">+numEdges</text>
<text text-anchor="middle" x="267.5" y="-955.5" font-family="Helvetica,sans-Serif" font-size="10.00">+numFaces</text>
<text text-anchor="middle" x="267.5" y="-944.5" font-family="Helvetica,sans-Serif" font-size="10.00">+numGeometricFaces</text>
<text text-anchor="middle" x="267.5" y="-933.5" font-family="Helvetica,sans-Serif" font-size="10.00">+numTopologicalFaces</text>
<text text-anchor="middle" x="267.5" y="-922.5" font-family="Helvetica,sans-Serif" font-size="10.00">+numVertices</text>
<text text-anchor="middle" x="267.5" y="-911.5" font-family="Helvetica,sans-Serif" font-size="10.00">+numVolumes</text>
<text text-anchor="middle" x="267.5" y="-900.5" font-family="Helvetica,sans-Serif" font-size="10.00">+shape_v</text>
</g>
<!-- Node16 -->
<g id="node16" class="node">
<title>Node16</title>
<g id="a_node16"><a xlink:title=" ">
<polygon fill="white" stroke="#bfbfbf" points="490,-1052 490,-1109 612,-1109 612,-1052 490,-1052"/>
<text text-anchor="middle" x="551" y="-1097" font-family="Helvetica,sans-Serif" font-size="10.00">static const size_type</text>
<polyline fill="none" stroke="#bfbfbf" points="490,-1090 612,-1090 "/>
<text text-anchor="middle" x="551" y="-1078" font-family="Helvetica,sans-Serif" font-size="10.00"> </text>
<polyline fill="none" stroke="#bfbfbf" points="490,-1071 612,-1071 "/>
<text text-anchor="middle" x="551" y="-1059" font-family="Helvetica,sans-Serif" font-size="10.00"> </text>
</a>
</g>
</g>
<!-- Node16&#45;&gt;Node5 -->
<g id="edge17" class="edge">
<title>Node16&#45;&gt;Node5</title>
<path fill="none" stroke="#404040" d="M549.98,-1051.8C548.89,-1013.36 548.04,-941.71 554,-881 561.89,-800.67 577.31,-713.95 593.63,-636.51"/>
<polygon fill="none" stroke="#404040" points="593.65,-636.4 590.99,-629.7 596.15,-624.66 598.81,-631.36 593.65,-636.4"/>
<text text-anchor="middle" x="619.5" y="-765.5" font-family="Helvetica,sans-Serif" font-size="10.00"> +Geometry</text>
<text text-anchor="middle" x="619.5" y="-754.5" font-family="Helvetica,sans-Serif" font-size="10.00">+Shape</text>
</g>
<!-- Node16&#45;&gt;Node9 -->
<g id="edge16" class="edge">
<title>Node16&#45;&gt;Node9</title>
<path fill="none" stroke="#404040" d="M517.96,-1051.65C495.16,-1032.12 468.38,-1008.4 465,-1002 453.29,-979.81 445.53,-925.93 440.58,-874.99"/>
<polygon fill="none" stroke="#404040" points="440.56,-874.76 436.02,-869.16 439.45,-862.81 443.99,-868.42 440.56,-874.76"/>
<text text-anchor="middle" x="495.5" y="-939" font-family="Helvetica,sans-Serif" font-size="10.00"> +Geometry</text>
</g>
<!-- Node17 -->
<g id="node17" class="node">
<title>Node17</title>
<g id="a_node17"><a xlink:href="classbool.html" target="_top" xlink:title=" ">
<polygon fill="white" stroke="#bfbfbf" points="1000,-369.5 1000,-426.5 1038,-426.5 1038,-369.5 1000,-369.5"/>
<text text-anchor="middle" x="1019" y="-414.5" font-family="Helvetica,sans-Serif" font-size="10.00">bool</text>
<polyline fill="none" stroke="#bfbfbf" points="1000,-407.5 1038,-407.5 "/>
<text text-anchor="middle" x="1019" y="-395.5" font-family="Helvetica,sans-Serif" font-size="10.00"> </text>
<polyline fill="none" stroke="#bfbfbf" points="1000,-388.5 1038,-388.5 "/>
<text text-anchor="middle" x="1019" y="-376.5" font-family="Helvetica,sans-Serif" font-size="10.00"> </text>
</a>
</g>
</g>
<!-- Node17&#45;&gt;Node1 -->
<g id="edge21" class="edge">
<title>Node17&#45;&gt;Node1</title>
<path fill="none" stroke="#404040" d="M1024.92,-369.14C1034.24,-316.88 1045.62,-203.88 986,-142 932.2,-86.16 705.95,-69.75 587.31,-64.96"/>
<polygon fill="none" stroke="#404040" points="587.13,-64.95 580.98,-68.72 575.13,-64.49 581.28,-60.73 587.13,-64.95"/>
<text text-anchor="middle" x="1026" y="-145" font-family="Helvetica,sans-Serif" font-size="10.00"> +is_simplex</text>
</g>
</g>
</svg>
