<?xml version="1.0" encoding="UTF-8" standalone="no"?>
<!DOCTYPE svg PUBLIC "-//W3C//DTD SVG 1.1//EN"
 "http://www.w3.org/Graphics/SVG/1.1/DTD/svg11.dtd">
<!-- Generated by graphviz version 2.43.0 (0)
 -->
<!-- Title: Feel::FeelModels::ModelPhysics&lt; Dim &gt; Pages: 1 -->
<svg width="583pt" height="1109pt"
 viewBox="0.00 0.00 582.50 1109.00" xmlns="http://www.w3.org/2000/svg" xmlns:xlink="http://www.w3.org/1999/xlink">
<g id="graph0" class="graph" transform="scale(1 1) rotate(0) translate(4 1105)">
<title>Feel::FeelModels::ModelPhysics&lt; Dim &gt;</title>
<polygon fill="white" stroke="transparent" points="-4,4 -4,-1105 578.5,-1105 578.5,4 -4,4"/>
<!-- Node1 -->
<g id="node1" class="node">
<title>Node1</title>
<g id="a_node1"><a xlink:title="Physic set Model.">
<polygon fill="#bfbfbf" stroke="black" points="279,-0.5 279,-145.5 450,-145.5 450,-0.5 279,-0.5"/>
<text text-anchor="start" x="287" y="-133.5" font-family="Helvetica,sans-Serif" font-size="10.00">Feel::FeelModels::ModelPhysics</text>
<text text-anchor="middle" x="364.5" y="-122.5" font-family="Helvetica,sans-Serif" font-size="10.00">&lt; Dim &gt;</text>
<polyline fill="none" stroke="black" points="279,-115.5 450,-115.5 "/>
<text text-anchor="middle" x="364.5" y="-103.5" font-family="Helvetica,sans-Serif" font-size="10.00"> </text>
<polyline fill="none" stroke="black" points="279,-96.5 450,-96.5 "/>
<text text-anchor="start" x="287" y="-84.5" font-family="Helvetica,sans-Serif" font-size="10.00">+ addPhysics()</text>
<text text-anchor="start" x="287" y="-73.5" font-family="Helvetica,sans-Serif" font-size="10.00">+ hasPhysic()</text>
<text text-anchor="start" x="287" y="-62.5" font-family="Helvetica,sans-Serif" font-size="10.00">+ initPhysics()</text>
<text text-anchor="start" x="287" y="-51.5" font-family="Helvetica,sans-Serif" font-size="10.00">+ initPhysics()</text>
<text text-anchor="start" x="287" y="-40.5" font-family="Helvetica,sans-Serif" font-size="10.00">+ ModelPhysics()</text>
<text text-anchor="start" x="287" y="-29.5" font-family="Helvetica,sans-Serif" font-size="10.00">and 18 more...</text>
<text text-anchor="start" x="287" y="-18.5" font-family="Helvetica,sans-Serif" font-size="10.00"># initPhysics()</text>
<text text-anchor="start" x="287" y="-7.5" font-family="Helvetica,sans-Serif" font-size="10.00"># updatePhysics()</text>
</a>
</g>
</g>
<!-- Node2 -->
<g id="node2" class="node">
<title>Node2</title>
<g id="a_node2"><a xlink:href="classFeel_1_1FeelModels_1_1ModelBase.html" target="_top" xlink:title="Model base class.">
<polygon fill="white" stroke="black" points="0,-508 0,-620 193,-620 193,-508 0,-508"/>
<text text-anchor="middle" x="96.5" y="-608" font-family="Helvetica,sans-Serif" font-size="10.00">Feel::FeelModels::ModelBase</text>
<polyline fill="none" stroke="black" points="0,-601 193,-601 "/>
<text text-anchor="middle" x="96.5" y="-589" font-family="Helvetica,sans-Serif" font-size="10.00"> </text>
<polyline fill="none" stroke="black" points="0,-582 193,-582 "/>
<text text-anchor="start" x="8" y="-570" font-family="Helvetica,sans-Serif" font-size="10.00">+ addParameterInModelProperties()</text>
<text text-anchor="start" x="8" y="-559" font-family="Helvetica,sans-Serif" font-size="10.00">+ addTimerTool()</text>
<text text-anchor="start" x="8" y="-548" font-family="Helvetica,sans-Serif" font-size="10.00">+ clovm()</text>
<text text-anchor="start" x="8" y="-537" font-family="Helvetica,sans-Serif" font-size="10.00">+ createWorldsComm()</text>
<text text-anchor="start" x="8" y="-526" font-family="Helvetica,sans-Serif" font-size="10.00">+ hasModelProperties()</text>
<text text-anchor="start" x="8" y="-515" font-family="Helvetica,sans-Serif" font-size="10.00">and 54 more...</text>
</a>
</g>
</g>
<!-- Node2&#45;&gt;Node1 -->
<g id="edge1" class="edge">
<title>Node2&#45;&gt;Node1</title>
<path fill="none" stroke="midnightblue" d="M92.91,-497.69C92.4,-450.12 96.16,-384.86 115.5,-331 145.42,-247.68 219.18,-177.49 278.71,-131.62"/>
<polygon fill="none" stroke="midnightblue" points="89.41,-497.93 93.08,-507.87 96.41,-497.81 89.41,-497.93"/>
</g>
<!-- Node3 -->
<g id="node3" class="node">
<title>Node3</title>
<g id="a_node3"><a xlink:href="classFeel_1_1JournalWatcher.html" target="_top" xlink:title=" ">
<polygon fill="white" stroke="#bfbfbf" points="195,-717.5 195,-1005.5 372,-1005.5 372,-717.5 195,-717.5"/>
<text text-anchor="middle" x="283.5" y="-993.5" font-family="Helvetica,sans-Serif" font-size="10.00">Feel::JournalWatcher</text>
<polyline fill="none" stroke="#bfbfbf" points="195,-986.5 372,-986.5 "/>
<text text-anchor="middle" x="283.5" y="-974.5" font-family="Helvetica,sans-Serif" font-size="10.00"> </text>
<polyline fill="none" stroke="#bfbfbf" points="195,-967.5 372,-967.5 "/>
<text text-anchor="start" x="203" y="-955.5" font-family="Helvetica,sans-Serif" font-size="10.00">* M_journal_is_connected</text>
<text text-anchor="start" x="203" y="-944.5" font-family="Helvetica,sans-Serif" font-size="10.00">* M_category</text>
<text text-anchor="start" x="203" y="-933.5" font-family="Helvetica,sans-Serif" font-size="10.00">* M_name</text>
<text text-anchor="start" x="203" y="-922.5" font-family="Helvetica,sans-Serif" font-size="10.00">* M_function_updateInformation</text>
<text text-anchor="start" x="203" y="-911.5" font-family="Helvetica,sans-Serif" font-size="10.00">Object</text>
<text text-anchor="start" x="203" y="-900.5" font-family="Helvetica,sans-Serif" font-size="10.00">* M_informationObject</text>
<text text-anchor="start" x="203" y="-889.5" font-family="Helvetica,sans-Serif" font-size="10.00">* S_counterObjectByCategory</text>
<text text-anchor="start" x="203" y="-878.5" font-family="Helvetica,sans-Serif" font-size="10.00">* JournalWatcher()</text>
<text text-anchor="start" x="203" y="-867.5" font-family="Helvetica,sans-Serif" font-size="10.00">* JournalWatcher()</text>
<text text-anchor="start" x="203" y="-856.5" font-family="Helvetica,sans-Serif" font-size="10.00">* JournalWatcher()</text>
<text text-anchor="start" x="203" y="-845.5" font-family="Helvetica,sans-Serif" font-size="10.00">* JournalWatcher()</text>
<text text-anchor="start" x="203" y="-834.5" font-family="Helvetica,sans-Serif" font-size="10.00">* ~JournalWatcher()</text>
<text text-anchor="start" x="203" y="-823.5" font-family="Helvetica,sans-Serif" font-size="10.00">* journalIsConnected()</text>
<text text-anchor="start" x="203" y="-812.5" font-family="Helvetica,sans-Serif" font-size="10.00">* journalWatcherInstanceName()</text>
<text text-anchor="start" x="203" y="-801.5" font-family="Helvetica,sans-Serif" font-size="10.00">* journalSection()</text>
<text text-anchor="start" x="203" y="-790.5" font-family="Helvetica,sans-Serif" font-size="10.00">* informationObject()</text>
<text text-anchor="start" x="203" y="-779.5" font-family="Helvetica,sans-Serif" font-size="10.00">* journalConnect()</text>
<text text-anchor="start" x="203" y="-768.5" font-family="Helvetica,sans-Serif" font-size="10.00">* journalDisconnect()</text>
<text text-anchor="start" x="203" y="-757.5" font-family="Helvetica,sans-Serif" font-size="10.00">* updateInformationObject()</text>
<text text-anchor="start" x="203" y="-746.5" font-family="Helvetica,sans-Serif" font-size="10.00">* setInformationObject()</text>
<text text-anchor="start" x="203" y="-735.5" font-family="Helvetica,sans-Serif" font-size="10.00">* putInformationObject()</text>
<text text-anchor="start" x="203" y="-724.5" font-family="Helvetica,sans-Serif" font-size="10.00">and 4 more...</text>
</a>
</g>
</g>
<!-- Node3&#45;&gt;Node2 -->
<g id="edge2" class="edge">
<title>Node3&#45;&gt;Node2</title>
<path fill="none" stroke="midnightblue" d="M189.37,-711.76C168.63,-678.99 147.94,-646.29 131.37,-620.1"/>
<polygon fill="none" stroke="midnightblue" points="186.62,-713.96 194.93,-720.54 192.54,-710.22 186.62,-713.96"/>
</g>
<!-- Node12 -->
<g id="node12" class="node">
<title>Node12</title>
<g id="a_node12"><a xlink:href="classFeel_1_1FeelModels_1_1ModelPhysic.html" target="_top" xlink:title=" ">
<polygon fill="white" stroke="black" points="211,-458.5 211,-669.5 402,-669.5 402,-458.5 211,-458.5"/>
<text text-anchor="start" x="219" y="-657.5" font-family="Helvetica,sans-Serif" font-size="10.00">Feel::FeelModels::ModelPhysic</text>
<text text-anchor="middle" x="306.5" y="-646.5" font-family="Helvetica,sans-Serif" font-size="10.00">&lt; nDim &gt;</text>
<polyline fill="none" stroke="black" points="211,-639.5 402,-639.5 "/>
<text text-anchor="middle" x="306.5" y="-627.5" font-family="Helvetica,sans-Serif" font-size="10.00"> </text>
<polyline fill="none" stroke="black" points="211,-620.5 402,-620.5 "/>
<text text-anchor="start" x="219" y="-608.5" font-family="Helvetica,sans-Serif" font-size="10.00">+ addMaterialNames()</text>
<text text-anchor="start" x="219" y="-597.5" font-family="Helvetica,sans-Serif" font-size="10.00">+ addMaterialPropertyDescription()</text>
<text text-anchor="start" x="219" y="-586.5" font-family="Helvetica,sans-Serif" font-size="10.00">+ addParameter()</text>
<text text-anchor="start" x="219" y="-575.5" font-family="Helvetica,sans-Serif" font-size="10.00">+ addParameter()</text>
<text text-anchor="start" x="219" y="-564.5" font-family="Helvetica,sans-Serif" font-size="10.00">+ addParameter()</text>
<text text-anchor="start" x="219" y="-553.5" font-family="Helvetica,sans-Serif" font-size="10.00">and 28 more...</text>
<text text-anchor="start" x="219" y="-542.5" font-family="Helvetica,sans-Serif" font-size="10.00">+ New()</text>
<text text-anchor="start" x="219" y="-531.5" font-family="Helvetica,sans-Serif" font-size="10.00"># parameterModelExpr()</text>
<text text-anchor="start" x="219" y="-520.5" font-family="Helvetica,sans-Serif" font-size="10.00"># updateTabulateInformations</text>
<text text-anchor="start" x="219" y="-509.5" font-family="Helvetica,sans-Serif" font-size="10.00">Basic()</text>
<text text-anchor="start" x="219" y="-498.5" font-family="Helvetica,sans-Serif" font-size="10.00"># updateTabulateInformations</text>
<text text-anchor="start" x="219" y="-487.5" font-family="Helvetica,sans-Serif" font-size="10.00">Parameters()</text>
<text text-anchor="start" x="219" y="-476.5" font-family="Helvetica,sans-Serif" font-size="10.00"># updateTabulateInformations</text>
<text text-anchor="start" x="219" y="-465.5" font-family="Helvetica,sans-Serif" font-size="10.00">Subphysics()</text>
</a>
</g>
</g>
<!-- Node3&#45;&gt;Node12 -->
<g id="edge12" class="edge">
<title>Node3&#45;&gt;Node12</title>
<path fill="none" stroke="midnightblue" d="M295.45,-706.93C296.44,-694.29 297.42,-681.7 298.36,-669.54"/>
<polygon fill="none" stroke="midnightblue" points="291.95,-706.84 294.66,-717.08 298.93,-707.38 291.95,-706.84"/>
</g>
<!-- Node4 -->
<g id="node4" class="node">
<title>Node4</title>
<g id="a_node4"><a xlink:title=" ">
<polygon fill="white" stroke="#bfbfbf" points="230,-1043.5 230,-1100.5 337,-1100.5 337,-1043.5 230,-1043.5"/>
<text text-anchor="middle" x="283.5" y="-1088.5" font-family="Helvetica,sans-Serif" font-size="10.00">Event::SlotHandler</text>
<polyline fill="none" stroke="#bfbfbf" points="230,-1081.5 337,-1081.5 "/>
<text text-anchor="middle" x="283.5" y="-1069.5" font-family="Helvetica,sans-Serif" font-size="10.00"> </text>
<polyline fill="none" stroke="#bfbfbf" points="230,-1062.5 337,-1062.5 "/>
<text text-anchor="middle" x="283.5" y="-1050.5" font-family="Helvetica,sans-Serif" font-size="10.00"> </text>
</a>
</g>
</g>
<!-- Node4&#45;&gt;Node3 -->
<g id="edge3" class="edge">
<title>Node4&#45;&gt;Node3</title>
<path fill="none" stroke="midnightblue" d="M283.5,-1033.25C283.5,-1024.86 283.5,-1015.49 283.5,-1005.57"/>
<polygon fill="none" stroke="midnightblue" points="280,-1033.31 283.5,-1043.31 287,-1033.31 280,-1033.31"/>
</g>
<!-- Node5 -->
<g id="node5" class="node">
<title>Node5</title>
<g id="a_node5"><a xlink:title=" ">
<polygon fill="white" stroke="#bfbfbf" points="24,-827.5 24,-895.5 169,-895.5 169,-827.5 24,-827.5"/>
<text text-anchor="start" x="32" y="-883.5" font-family="Helvetica,sans-Serif" font-size="10.00">std::enable_shared</text>
<text text-anchor="middle" x="96.5" y="-872.5" font-family="Helvetica,sans-Serif" font-size="10.00">_from_this&lt; ModelBase &gt;</text>
<polyline fill="none" stroke="#bfbfbf" points="24,-865.5 169,-865.5 "/>
<text text-anchor="middle" x="96.5" y="-853.5" font-family="Helvetica,sans-Serif" font-size="10.00"> </text>
<polyline fill="none" stroke="#bfbfbf" points="24,-846.5 169,-846.5 "/>
<text text-anchor="middle" x="96.5" y="-834.5" font-family="Helvetica,sans-Serif" font-size="10.00"> </text>
</a>
</g>
</g>
<!-- Node5&#45;&gt;Node2 -->
<g id="edge4" class="edge">
<title>Node5&#45;&gt;Node2</title>
<path fill="none" stroke="midnightblue" d="M96.5,-817.2C96.5,-764.99 96.5,-677.16 96.5,-620.15"/>
<polygon fill="none" stroke="midnightblue" points="93,-817.46 96.5,-827.46 100,-817.46 93,-817.46"/>
</g>
<!-- Node6 -->
<g id="node6" class="node">
<title>Node6</title>
<g id="a_node6"><a xlink:title=" ">
<polygon fill="white" stroke="#bfbfbf" points="430.5,-833 430.5,-890 564.5,-890 564.5,-833 430.5,-833"/>
<text text-anchor="middle" x="497.5" y="-878" font-family="Helvetica,sans-Serif" font-size="10.00">static const uint16_type</text>
<polyline fill="none" stroke="#bfbfbf" points="430.5,-871 564.5,-871 "/>
<text text-anchor="middle" x="497.5" y="-859" font-family="Helvetica,sans-Serif" font-size="10.00"> </text>
<polyline fill="none" stroke="#bfbfbf" points="430.5,-852 564.5,-852 "/>
<text text-anchor="middle" x="497.5" y="-840" font-family="Helvetica,sans-Serif" font-size="10.00"> </text>
</a>
</g>
</g>
<!-- Node6&#45;&gt;Node1 -->
<g id="edge5" class="edge">
<title>Node6&#45;&gt;Node1</title>
<path fill="none" stroke="#404040" d="M503.59,-832.96C514.56,-780.9 536.5,-664.35 536.5,-565 536.5,-565 536.5,-565 536.5,-237.5 536.5,-204.16 541.03,-191.02 521.5,-164 506.02,-142.58 483.76,-125.52 460.85,-112.27"/>
<polygon fill="none" stroke="#404040" points="460.81,-112.24 453.62,-112.84 450.3,-106.44 457.49,-105.84 460.81,-112.24"/>
<text text-anchor="middle" x="555.5" y="-368.5" font-family="Helvetica,sans-Serif" font-size="10.00"> +nDim</text>
</g>
<!-- Node6&#45;&gt;Node12 -->
<g id="edge13" class="edge">
<title>Node6&#45;&gt;Node12</title>
<path fill="none" stroke="#404040" d="M479.7,-832.97C457.17,-798.1 416.92,-735.84 380.9,-680.11"/>
<polygon fill="none" stroke="#404040" points="380.74,-679.86 374.12,-676.99 374.23,-669.78 380.84,-672.65 380.74,-679.86"/>
<text text-anchor="middle" x="410.5" y="-691" font-family="Helvetica,sans-Serif" font-size="10.00"> +nDim</text>
</g>
<!-- Node7 -->
<g id="node7" class="node">
<title>Node7</title>
<g id="a_node7"><a xlink:title=" ">
<polygon fill="white" stroke="black" points="416,-210 416,-267 481,-267 481,-210 416,-210"/>
<text text-anchor="middle" x="448.5" y="-255" font-family="Helvetica,sans-Serif" font-size="10.00">std::string</text>
<polyline fill="none" stroke="black" points="416,-248 481,-248 "/>
<text text-anchor="middle" x="448.5" y="-236" font-family="Helvetica,sans-Serif" font-size="10.00"> </text>
<polyline fill="none" stroke="black" points="416,-229 481,-229 "/>
<text text-anchor="middle" x="448.5" y="-217" font-family="Helvetica,sans-Serif" font-size="10.00"> </text>
</a>
</g>
</g>
<!-- Node7&#45;&gt;Node1 -->
<g id="edge6" class="edge">
<title>Node7&#45;&gt;Node1</title>
<path fill="none" stroke="#404040" d="M434.25,-209.76C426.59,-194.85 416.7,-175.6 406.78,-156.3"/>
<polygon fill="none" stroke="#404040" points="406.77,-156.28 400.47,-152.77 401.29,-145.61 407.59,-149.11 406.77,-156.28"/>
<text text-anchor="middle" x="466" y="-167" font-family="Helvetica,sans-Serif" font-size="10.00"> #M_physicModeling</text>
</g>
<!-- Node8 -->
<g id="node8" class="node">
<title>Node8</title>
<g id="a_node8"><a xlink:title=" ">
<polygon fill="white" stroke="black" points="396.5,-337 396.5,-405 500.5,-405 500.5,-337 396.5,-337"/>
<text text-anchor="start" x="404.5" y="-393" font-family="Helvetica,sans-Serif" font-size="10.00">std::basic_string&lt;</text>
<text text-anchor="middle" x="448.5" y="-382" font-family="Helvetica,sans-Serif" font-size="10.00"> Char &gt;</text>
<polyline fill="none" stroke="black" points="396.5,-375 500.5,-375 "/>
<text text-anchor="middle" x="448.5" y="-363" font-family="Helvetica,sans-Serif" font-size="10.00"> </text>
<polyline fill="none" stroke="black" points="396.5,-356 500.5,-356 "/>
<text text-anchor="middle" x="448.5" y="-344" font-family="Helvetica,sans-Serif" font-size="10.00"> </text>
</a>
</g>
</g>
<!-- Node8&#45;&gt;Node7 -->
<g id="edge7" class="edge">
<title>Node8&#45;&gt;Node7</title>
<path fill="none" stroke="midnightblue" d="M448.5,-326.55C448.5,-307.05 448.5,-284.62 448.5,-267.41"/>
<polygon fill="none" stroke="midnightblue" points="445,-326.73 448.5,-336.73 452,-326.73 445,-326.73"/>
</g>
<!-- Node9 -->
<g id="node9" class="node">
<title>Node9</title>
<g id="a_node9"><a xlink:title=" ">
<polygon fill="white" stroke="black" points="221,-193.5 221,-283.5 398,-283.5 398,-193.5 221,-193.5"/>
<text text-anchor="start" x="229" y="-271.5" font-family="Helvetica,sans-Serif" font-size="10.00">std::map&lt; physic_id</text>
<text text-anchor="start" x="229" y="-260.5" font-family="Helvetica,sans-Serif" font-size="10.00">_type, std::shared_ptr</text>
<text text-anchor="start" x="229" y="-249.5" font-family="Helvetica,sans-Serif" font-size="10.00">&lt; Feel::FeelModels::ModelPhysic</text>
<text text-anchor="middle" x="309.5" y="-238.5" font-family="Helvetica,sans-Serif" font-size="10.00">&lt; nDim &gt; &gt; &gt;</text>
<polyline fill="none" stroke="black" points="221,-231.5 398,-231.5 "/>
<text text-anchor="middle" x="309.5" y="-219.5" font-family="Helvetica,sans-Serif" font-size="10.00"> </text>
<polyline fill="none" stroke="black" points="221,-212.5 398,-212.5 "/>
<text text-anchor="middle" x="309.5" y="-200.5" font-family="Helvetica,sans-Serif" font-size="10.00"> </text>
</a>
</g>
</g>
<!-- Node9&#45;&gt;Node1 -->
<g id="edge8" class="edge">
<title>Node9&#45;&gt;Node1</title>
<path fill="none" stroke="#404040" d="M315.42,-193.13C317.25,-183.41 319.57,-173.27 322.5,-164 323.25,-161.62 324.05,-159.23 324.89,-156.82"/>
<polygon fill="none" stroke="#404040" points="324.9,-156.79 323.25,-149.77 329.1,-145.55 330.75,-152.57 324.9,-156.79"/>
<text text-anchor="middle" x="354" y="-167" font-family="Helvetica,sans-Serif" font-size="10.00"> #M_physics</text>
</g>
<!-- Node10 -->
<g id="node10" class="node">
<title>Node10</title>
<g id="a_node10"><a xlink:title=" ">
<polygon fill="white" stroke="#bfbfbf" points="289,-342.5 289,-399.5 378,-399.5 378,-342.5 289,-342.5"/>
<text text-anchor="middle" x="333.5" y="-387.5" font-family="Helvetica,sans-Serif" font-size="10.00">physic_id_type</text>
<polyline fill="none" stroke="#bfbfbf" points="289,-380.5 378,-380.5 "/>
<text text-anchor="middle" x="333.5" y="-368.5" font-family="Helvetica,sans-Serif" font-size="10.00"> </text>
<polyline fill="none" stroke="#bfbfbf" points="289,-361.5 378,-361.5 "/>
<text text-anchor="middle" x="333.5" y="-349.5" font-family="Helvetica,sans-Serif" font-size="10.00"> </text>
</a>
</g>
</g>
<!-- Node10&#45;&gt;Node9 -->
<g id="edge9" class="edge">
<title>Node10&#45;&gt;Node9</title>
<path fill="none" stroke="#404040" d="M328.41,-342.32C325.91,-328.73 322.8,-311.84 319.83,-295.7"/>
<polygon fill="none" stroke="#404040" points="319.77,-295.37 314.76,-290.19 317.6,-283.57 322.62,-288.75 319.77,-295.37"/>
<text text-anchor="middle" x="340.5" y="-305" font-family="Helvetica,sans-Serif" font-size="10.00"> +keys</text>
</g>
<!-- Node11 -->
<g id="node11" class="node">
<title>Node11</title>
<g id="a_node11"><a xlink:title=" ">
<polygon fill="white" stroke="black" points="124.5,-331.5 124.5,-410.5 270.5,-410.5 270.5,-331.5 124.5,-331.5"/>
<text text-anchor="start" x="132.5" y="-398.5" font-family="Helvetica,sans-Serif" font-size="10.00">std::shared_ptr&lt; Feel</text>
<text text-anchor="start" x="132.5" y="-387.5" font-family="Helvetica,sans-Serif" font-size="10.00">::FeelModels::ModelPhysic</text>
<text text-anchor="middle" x="197.5" y="-376.5" font-family="Helvetica,sans-Serif" font-size="10.00">&lt; nDim &gt; &gt;</text>
<polyline fill="none" stroke="black" points="124.5,-369.5 270.5,-369.5 "/>
<text text-anchor="middle" x="197.5" y="-357.5" font-family="Helvetica,sans-Serif" font-size="10.00"> </text>
<polyline fill="none" stroke="black" points="124.5,-350.5 270.5,-350.5 "/>
<text text-anchor="start" x="132.5" y="-338.5" font-family="Helvetica,sans-Serif" font-size="10.00">+ operator&#45;&gt;()</text>
</a>
</g>
</g>
<!-- Node11&#45;&gt;Node9 -->
<g id="edge10" class="edge">
<title>Node11&#45;&gt;Node9</title>
<path fill="none" stroke="#404040" d="M230.8,-331.2C241.07,-319.23 252.57,-305.83 263.54,-293.05"/>
<polygon fill="none" stroke="#404040" points="263.6,-292.99 264.47,-285.83 271.41,-283.88 270.54,-291.04 263.6,-292.99"/>
<text text-anchor="middle" x="282.5" y="-305" font-family="Helvetica,sans-Serif" font-size="10.00"> +elements</text>
</g>
<!-- Node12&#45;&gt;Node11 -->
<g id="edge11" class="edge">
<title>Node12&#45;&gt;Node11</title>
<path fill="none" stroke="#404040" d="M246.74,-458.28C239.37,-445.37 232.14,-432.7 225.58,-421.2"/>
<polygon fill="none" stroke="#404040" points="225.46,-420.99 219.01,-417.76 219.51,-410.57 225.96,-413.8 225.46,-420.99"/>
<text text-anchor="middle" x="249" y="-432" font-family="Helvetica,sans-Serif" font-size="10.00"> +ptr</text>
</g>
</g>
</svg>
