<?xml version="1.0" encoding="UTF-8" standalone="no"?>
<!DOCTYPE svg PUBLIC "-//W3C//DTD SVG 1.1//EN"
 "http://www.w3.org/Graphics/SVG/1.1/DTD/svg11.dtd">
<!-- Generated by graphviz version 2.43.0 (0)
 -->
<!-- Title: nlohmann::detail::binary_reader&lt; BasicJsonType, InputAdapterType, SAX &gt; Pages: 1 -->
<svg width="380pt" height="292pt"
 viewBox="0.00 0.00 379.50 292.00" xmlns="http://www.w3.org/2000/svg" xmlns:xlink="http://www.w3.org/1999/xlink">
<g id="graph0" class="graph" transform="scale(1 1) rotate(0) translate(4 288)">
<title>nlohmann::detail::binary_reader&lt; BasicJsonType, InputAdapterType, SAX &gt;</title>
<polygon fill="white" stroke="transparent" points="-4,4 -4,-288 375.5,-288 375.5,4 -4,4"/>
<!-- Node1 -->
<g id="node1" class="node">
<title>Node1</title>
<g id="a_node1"><a xlink:title="deserialization of CBOR, MessagePack, and UBJSON values">
<polygon fill="#bfbfbf" stroke="black" points="86,-0.5 86,-145.5 229,-145.5 229,-0.5 86,-0.5"/>
<text text-anchor="start" x="94" y="-133.5" font-family="Helvetica,sans-Serif" font-size="10.00">nlohmann::detail::binary</text>
<text text-anchor="start" x="94" y="-122.5" font-family="Helvetica,sans-Serif" font-size="10.00">_reader&lt; BasicJsonType,</text>
<text text-anchor="middle" x="157.5" y="-111.5" font-family="Helvetica,sans-Serif" font-size="10.00"> InputAdapterType, SAX &gt;</text>
<polyline fill="none" stroke="black" points="86,-104.5 229,-104.5 "/>
<text text-anchor="middle" x="157.5" y="-92.5" font-family="Helvetica,sans-Serif" font-size="10.00"> </text>
<polyline fill="none" stroke="black" points="86,-85.5 229,-85.5 "/>
<text text-anchor="start" x="94" y="-73.5" font-family="Helvetica,sans-Serif" font-size="10.00">+ __attribute__()</text>
<text text-anchor="start" x="94" y="-62.5" font-family="Helvetica,sans-Serif" font-size="10.00">+ binary_reader()</text>
<text text-anchor="start" x="94" y="-51.5" font-family="Helvetica,sans-Serif" font-size="10.00">+ binary_reader()</text>
<text text-anchor="start" x="94" y="-40.5" font-family="Helvetica,sans-Serif" font-size="10.00">+ binary_reader()</text>
<text text-anchor="start" x="94" y="-29.5" font-family="Helvetica,sans-Serif" font-size="10.00">+ operator=()</text>
<text text-anchor="start" x="94" y="-18.5" font-family="Helvetica,sans-Serif" font-size="10.00">+ operator=()</text>
<text text-anchor="start" x="94" y="-7.5" font-family="Helvetica,sans-Serif" font-size="10.00">+ ~binary_reader()</text>
</a>
</g>
</g>
<!-- Node2 -->
<g id="node2" class="node">
<title>Node2</title>
<g id="a_node2"><a xlink:title=" ">
<polygon fill="white" stroke="#bfbfbf" points="0,-226.5 0,-283.5 77,-283.5 77,-226.5 0,-226.5"/>
<text text-anchor="middle" x="38.5" y="-271.5" font-family="Helvetica,sans-Serif" font-size="10.00">json_sax_t *</text>
<polyline fill="none" stroke="#bfbfbf" points="0,-264.5 77,-264.5 "/>
<text text-anchor="middle" x="38.5" y="-252.5" font-family="Helvetica,sans-Serif" font-size="10.00"> </text>
<polyline fill="none" stroke="#bfbfbf" points="0,-245.5 77,-245.5 "/>
<text text-anchor="middle" x="38.5" y="-233.5" font-family="Helvetica,sans-Serif" font-size="10.00"> </text>
</a>
</g>
</g>
<!-- Node2&#45;&gt;Node1 -->
<g id="edge1" class="edge">
<title>Node2&#45;&gt;Node1</title>
<path fill="none" stroke="#404040" d="M49.96,-226.3C58.03,-208.01 69.64,-183.85 82.5,-164 84.37,-161.12 86.31,-158.23 88.32,-155.34"/>
<polygon fill="none" stroke="#404040" points="88.35,-155.29 88.6,-148.09 95.35,-145.54 95.1,-152.75 88.35,-155.29"/>
<text text-anchor="middle" x="99.5" y="-189" font-family="Helvetica,sans-Serif" font-size="10.00"> +sax_</text>
<text text-anchor="middle" x="99.5" y="-178" font-family="Helvetica,sans-Serif" font-size="10.00">+sax</text>
</g>
<!-- Node3 -->
<g id="node3" class="node">
<title>Node3</title>
<g id="a_node3"><a xlink:title=" ">
<polygon fill="white" stroke="#bfbfbf" points="95.5,-226.5 95.5,-283.5 151.5,-283.5 151.5,-226.5 95.5,-226.5"/>
<text text-anchor="middle" x="123.5" y="-271.5" font-family="Helvetica,sans-Serif" font-size="10.00">int_type</text>
<polyline fill="none" stroke="#bfbfbf" points="95.5,-264.5 151.5,-264.5 "/>
<text text-anchor="middle" x="123.5" y="-252.5" font-family="Helvetica,sans-Serif" font-size="10.00"> </text>
<polyline fill="none" stroke="#bfbfbf" points="95.5,-245.5 151.5,-245.5 "/>
<text text-anchor="middle" x="123.5" y="-233.5" font-family="Helvetica,sans-Serif" font-size="10.00"> </text>
</a>
</g>
</g>
<!-- Node3&#45;&gt;Node1 -->
<g id="edge2" class="edge">
<title>Node3&#45;&gt;Node1</title>
<path fill="none" stroke="#404040" d="M121.39,-226.19C120.63,-208.29 120.73,-184.6 124.5,-164 124.9,-161.82 125.35,-159.63 125.83,-157.43"/>
<polygon fill="none" stroke="#404040" points="125.88,-157.24 123.46,-150.45 128.81,-145.61 131.22,-152.4 125.88,-157.24"/>
<text text-anchor="middle" x="147.5" y="-183.5" font-family="Helvetica,sans-Serif" font-size="10.00"> +current</text>
</g>
<!-- Node4 -->
<g id="node4" class="node">
<title>Node4</title>
<g id="a_node4"><a xlink:href="classbool.html" target="_top" xlink:title=" ">
<polygon fill="white" stroke="black" points="173.5,-226.5 173.5,-283.5 211.5,-283.5 211.5,-226.5 173.5,-226.5"/>
<text text-anchor="middle" x="192.5" y="-271.5" font-family="Helvetica,sans-Serif" font-size="10.00">bool</text>
<polyline fill="none" stroke="black" points="173.5,-264.5 211.5,-264.5 "/>
<text text-anchor="middle" x="192.5" y="-252.5" font-family="Helvetica,sans-Serif" font-size="10.00"> </text>
<polyline fill="none" stroke="black" points="173.5,-245.5 211.5,-245.5 "/>
<text text-anchor="middle" x="192.5" y="-233.5" font-family="Helvetica,sans-Serif" font-size="10.00"> </text>
</a>
</g>
</g>
<!-- Node4&#45;&gt;Node1 -->
<g id="edge3" class="edge">
<title>Node4&#45;&gt;Node1</title>
<path fill="none" stroke="#404040" d="M187.11,-226.27C183.52,-207.79 178.59,-182.45 173.78,-157.74"/>
<polygon fill="none" stroke="#404040" points="173.73,-157.48 168.66,-152.35 171.44,-145.7 176.51,-150.82 173.73,-157.48"/>
<text text-anchor="middle" x="232.5" y="-200" font-family="Helvetica,sans-Serif" font-size="10.00"> +is_little_endian</text>
<text text-anchor="middle" x="232.5" y="-189" font-family="Helvetica,sans-Serif" font-size="10.00">+InputIsLittleEndian</text>
<text text-anchor="middle" x="232.5" y="-178" font-family="Helvetica,sans-Serif" font-size="10.00">+strict</text>
<text text-anchor="middle" x="232.5" y="-167" font-family="Helvetica,sans-Serif" font-size="10.00">+tag_handler</text>
</g>
<!-- Node5 -->
<g id="node5" class="node">
<title>Node5</title>
<g id="a_node5"><a xlink:title=" ">
<polygon fill="white" stroke="#bfbfbf" points="293,-226.5 293,-283.5 338,-283.5 338,-226.5 293,-226.5"/>
<text text-anchor="middle" x="315.5" y="-271.5" font-family="Helvetica,sans-Serif" font-size="10.00">size_t</text>
<polyline fill="none" stroke="#bfbfbf" points="293,-264.5 338,-264.5 "/>
<text text-anchor="middle" x="315.5" y="-252.5" font-family="Helvetica,sans-Serif" font-size="10.00"> </text>
<polyline fill="none" stroke="#bfbfbf" points="293,-245.5 338,-245.5 "/>
<text text-anchor="middle" x="315.5" y="-233.5" font-family="Helvetica,sans-Serif" font-size="10.00"> </text>
</a>
</g>
</g>
<!-- Node5&#45;&gt;Node1 -->
<g id="edge4" class="edge">
<title>Node5&#45;&gt;Node1</title>
<path fill="none" stroke="#404040" d="M311.37,-226.28C307.45,-207.3 300.07,-182.35 286.5,-164 273.81,-146.84 256.84,-131.77 239.4,-119.11"/>
<polygon fill="none" stroke="#404040" points="238.94,-118.79 231.73,-118.65 229.1,-111.94 236.31,-112.08 238.94,-118.79"/>
<text text-anchor="middle" x="339" y="-183.5" font-family="Helvetica,sans-Serif" font-size="10.00"> +chars_read</text>
</g>
</g>
</svg>
