<?xml version="1.0" encoding="UTF-8" standalone="no"?>
<!DOCTYPE svg PUBLIC "-//W3C//DTD SVG 1.1//EN"
 "http://www.w3.org/Graphics/SVG/1.1/DTD/svg11.dtd">
<!-- Generated by graphviz version 2.43.0 (0)
 -->
<!-- Title: Feel::GeoElement0D&lt; Dim, SubFace, T, IndexT &gt; Pages: 1 -->
<!--zoomable 1383 -->
<svg id="main" version="1.1" xmlns="http://www.w3.org/2000/svg" xmlns:xlink="http://www.w3.org/1999/xlink" xml:space="preserve" onload="init(evt)">
<style type="text/css"><![CDATA[
.edge:hover path { stroke: red; }
.edge:hover polygon { stroke: red; fill: red; }
]]></style>
<script type="text/javascript"><![CDATA[
var edges = document.getElementsByTagName('g');
if (edges && edges.length) {
  for (var i=0;i<edges.length;i++) {
    if (edges[i].id.substr(0,4)=='edge') {
      edges[i].setAttribute('class','edge');
    }
  }
}
]]></script>
        <defs>
                <circle id="rim" cx="0" cy="0" r="7"/>
                <circle id="rim2" cx="0" cy="0" r="3.5"/>
                <g id="zoomPlus">
                        <use xlink:href="#rim" fill="#404040">
                                <set attributeName="fill" to="#808080" begin="zoomplus.mouseover" end="zoomplus.mouseout"/>
                        </use>
                        <path d="M-4,0h8M0,-4v8" fill="none" stroke="white" stroke-width="1.5" pointer-events="none"/>
                </g>
                <g id="zoomMin">
                        <use xlink:href="#rim" fill="#404040">
                                <set attributeName="fill" to="#808080" begin="zoomminus.mouseover" end="zoomminus.mouseout"/>
                        </use>
                        <path d="M-4,0h8" fill="none" stroke="white" stroke-width="1.5" pointer-events="none"/>
                </g>
                <g id="dirArrow">
                        <path fill="none" stroke="white" stroke-width="1.5" d="M0,-3.0v7 M-2.5,-0.5L0,-3.0L2.5,-0.5"/>
                </g>
               <g id="resetDef">
                       <use xlink:href="#rim2" fill="#404040">
                               <set attributeName="fill" to="#808080" begin="reset.mouseover" end="reset.mouseout"/>
                       </use>
               </g>
        </defs>

<script type="text/javascript">
var viewWidth = 1006;
var viewHeight = 1383;
var sectionId = 'dynsection-0';
</script>
<script xlink:href="svgpan.js"/>
<svg id="graph" class="graph">
<g id="viewport">
<title>Feel::GeoElement0D&lt; Dim, SubFace, T, IndexT &gt;</title>
<polygon fill="white" stroke="transparent" points="-4,4 -4,-1379 1001.5,-1379 1001.5,4 -4,4"/>
<!-- Node1 -->
<g id="node1" class="node">
<title>Node1</title>
<g id="a_node1"><a xlink:title="Class for Points and Vertices.">
<polygon fill="#bfbfbf" stroke="black" points="341,-0.5 341,-156.5 503,-156.5 503,-0.5 341,-0.5"/>
<text text-anchor="start" x="349" y="-144.5" font-family="Helvetica,sans-Serif" font-size="10.00">Feel::GeoElement0D</text>
<text text-anchor="middle" x="422" y="-133.5" font-family="Helvetica,sans-Serif" font-size="10.00">&lt; Dim, SubFace, T, IndexT &gt;</text>
<polyline fill="none" stroke="black" points="341,-126.5 503,-126.5 "/>
<text text-anchor="start" x="349" y="-114.5" font-family="Helvetica,sans-Serif" font-size="10.00">+ is_simplex</text>
<text text-anchor="start" x="349" y="-103.5" font-family="Helvetica,sans-Serif" font-size="10.00">+ nDim</text>
<text text-anchor="start" x="349" y="-92.5" font-family="Helvetica,sans-Serif" font-size="10.00">+ nRealDim</text>
<text text-anchor="start" x="349" y="-81.5" font-family="Helvetica,sans-Serif" font-size="10.00">+ numLocalVertices</text>
<polyline fill="none" stroke="black" points="341,-74.5 503,-74.5 "/>
<text text-anchor="start" x="349" y="-62.5" font-family="Helvetica,sans-Serif" font-size="10.00">+ boundaryEntityDimension()</text>
<text text-anchor="start" x="349" y="-51.5" font-family="Helvetica,sans-Serif" font-size="10.00">+ G()</text>
<text text-anchor="start" x="349" y="-40.5" font-family="Helvetica,sans-Serif" font-size="10.00">+ GeoElement0D()</text>
<text text-anchor="start" x="349" y="-29.5" font-family="Helvetica,sans-Serif" font-size="10.00">+ GeoElement0D()</text>
<text text-anchor="start" x="349" y="-18.5" font-family="Helvetica,sans-Serif" font-size="10.00">+ GeoElement0D()</text>
<text text-anchor="start" x="349" y="-7.5" font-family="Helvetica,sans-Serif" font-size="10.00">and 23 more...</text>
</a>
</g>
</g>
<!-- Node2 -->
<g id="node2" class="node">
<title>Node2</title>
<g id="a_node2"><a xlink:href="classFeel_1_1Geo0D.html" target="_top" xlink:title=" ">
<polygon fill="white" stroke="black" points="265.5,-193.5 265.5,-327.5 414.5,-327.5 414.5,-193.5 265.5,-193.5"/>
<text text-anchor="start" x="273.5" y="-315.5" font-family="Helvetica,sans-Serif" font-size="10.00">Feel::Geo0D&lt; Dim, double,</text>
<text text-anchor="middle" x="340" y="-304.5" font-family="Helvetica,sans-Serif" font-size="10.00"> uint32_type &gt;</text>
<polyline fill="none" stroke="black" points="265.5,-297.5 414.5,-297.5 "/>
<text text-anchor="start" x="273.5" y="-285.5" font-family="Helvetica,sans-Serif" font-size="10.00">+ is_simplex</text>
<text text-anchor="start" x="273.5" y="-274.5" font-family="Helvetica,sans-Serif" font-size="10.00">+ nDim</text>
<polyline fill="none" stroke="black" points="265.5,-267.5 414.5,-267.5 "/>
<text text-anchor="start" x="273.5" y="-255.5" font-family="Helvetica,sans-Serif" font-size="10.00">+ G()</text>
<text text-anchor="start" x="273.5" y="-244.5" font-family="Helvetica,sans-Serif" font-size="10.00">+ gDim()</text>
<text text-anchor="start" x="273.5" y="-233.5" font-family="Helvetica,sans-Serif" font-size="10.00">+ Geo0D()</text>
<text text-anchor="start" x="273.5" y="-222.5" font-family="Helvetica,sans-Serif" font-size="10.00">+ Geo0D()</text>
<text text-anchor="start" x="273.5" y="-211.5" font-family="Helvetica,sans-Serif" font-size="10.00">+ Geo0D()</text>
<text text-anchor="start" x="273.5" y="-200.5" font-family="Helvetica,sans-Serif" font-size="10.00">and 46 more...</text>
</a>
</g>
</g>
<!-- Node2&#45;&gt;Node1 -->
<g id="edge1" class="edge">
<title>Node2&#45;&gt;Node1</title>
<path fill="none" stroke="midnightblue" d="M374.32,-184.16C378.45,-175.11 382.66,-165.86 386.79,-156.78"/>
<polygon fill="none" stroke="midnightblue" points="371.03,-182.95 370.07,-193.5 377.4,-185.85 371.03,-182.95"/>
</g>
<!-- Node3 -->
<g id="node3" class="node">
<title>Node3</title>
<g id="a_node3"><a xlink:title=" ">
<polygon fill="white" stroke="#bfbfbf" points="0,-557 0,-625 154,-625 154,-557 0,-557"/>
<text text-anchor="start" x="8" y="-613" font-family="Helvetica,sans-Serif" font-size="10.00">boost::equality_comparable</text>
<text text-anchor="middle" x="77" y="-602" font-family="Helvetica,sans-Serif" font-size="10.00">&lt; Geo0D&lt; Dim, double &gt; &gt;</text>
<polyline fill="none" stroke="#bfbfbf" points="0,-595 154,-595 "/>
<text text-anchor="middle" x="77" y="-583" font-family="Helvetica,sans-Serif" font-size="10.00"> </text>
<polyline fill="none" stroke="#bfbfbf" points="0,-576 154,-576 "/>
<text text-anchor="middle" x="77" y="-564" font-family="Helvetica,sans-Serif" font-size="10.00"> </text>
</a>
</g>
</g>
<!-- Node3&#45;&gt;Node2 -->
<g id="edge2" class="edge">
<title>Node3&#45;&gt;Node2</title>
<path fill="none" stroke="midnightblue" d="M84.38,-546.92C94.66,-497.86 117.42,-417.59 163,-364 190.26,-331.95 230.21,-307.6 265.26,-290.7"/>
<polygon fill="none" stroke="midnightblue" points="80.91,-546.4 82.37,-556.9 87.78,-547.78 80.91,-546.4"/>
</g>
<!-- Node4 -->
<g id="node4" class="node">
<title>Node4</title>
<g id="a_node4"><a xlink:title=" ">
<polygon fill="white" stroke="#bfbfbf" points="172.5,-557 172.5,-625 331.5,-625 331.5,-557 172.5,-557"/>
<text text-anchor="start" x="180.5" y="-613" font-family="Helvetica,sans-Serif" font-size="10.00">boost::less_than_comparable</text>
<text text-anchor="middle" x="252" y="-602" font-family="Helvetica,sans-Serif" font-size="10.00">&lt; Geo0D&lt; Dim, double &gt; &gt;</text>
<polyline fill="none" stroke="#bfbfbf" points="172.5,-595 331.5,-595 "/>
<text text-anchor="middle" x="252" y="-583" font-family="Helvetica,sans-Serif" font-size="10.00"> </text>
<polyline fill="none" stroke="#bfbfbf" points="172.5,-576 331.5,-576 "/>
<text text-anchor="middle" x="252" y="-564" font-family="Helvetica,sans-Serif" font-size="10.00"> </text>
</a>
</g>
</g>
<!-- Node4&#45;&gt;Node2 -->
<g id="edge3" class="edge">
<title>Node4&#45;&gt;Node2</title>
<path fill="none" stroke="midnightblue" d="M263.5,-547.07C278.47,-491.2 304.78,-392.97 322.3,-327.57"/>
<polygon fill="none" stroke="midnightblue" points="260.05,-546.43 260.84,-557 266.81,-548.24 260.05,-546.43"/>
</g>
<!-- Node5 -->
<g id="node5" class="node">
<title>Node5</title>
<g id="a_node5"><a xlink:title=" ">
<polygon fill="white" stroke="#bfbfbf" points="349.5,-551.5 349.5,-630.5 508.5,-630.5 508.5,-551.5 349.5,-551.5"/>
<text text-anchor="start" x="357.5" y="-618.5" font-family="Helvetica,sans-Serif" font-size="10.00">boost::less_than_comparable</text>
<text text-anchor="start" x="357.5" y="-607.5" font-family="Helvetica,sans-Serif" font-size="10.00">&lt; Geo0D&lt; Dim, double &gt;,</text>
<text text-anchor="middle" x="429" y="-596.5" font-family="Helvetica,sans-Serif" font-size="10.00"> uint32_type &gt;</text>
<polyline fill="none" stroke="#bfbfbf" points="349.5,-589.5 508.5,-589.5 "/>
<text text-anchor="middle" x="429" y="-577.5" font-family="Helvetica,sans-Serif" font-size="10.00"> </text>
<polyline fill="none" stroke="#bfbfbf" points="349.5,-570.5 508.5,-570.5 "/>
<text text-anchor="middle" x="429" y="-558.5" font-family="Helvetica,sans-Serif" font-size="10.00"> </text>
</a>
</g>
</g>
<!-- Node5&#45;&gt;Node2 -->
<g id="edge4" class="edge">
<title>Node5&#45;&gt;Node2</title>
<path fill="none" stroke="midnightblue" d="M415.88,-541.56C400.53,-484.9 375.03,-390.81 357.88,-327.5"/>
<polygon fill="none" stroke="midnightblue" points="412.54,-542.61 418.53,-551.35 419.29,-540.78 412.54,-542.61"/>
</g>
<!-- Node6 -->
<g id="node6" class="node">
<title>Node6</title>
<g id="a_node6"><a xlink:href="classFeel_1_1GeoEntity.html" target="_top" xlink:title=" ">
<polygon fill="white" stroke="black" points="527,-364.5 527,-817.5 715,-817.5 715,-364.5 527,-364.5"/>
<text text-anchor="start" x="535" y="-805.5" font-family="Helvetica,sans-Serif" font-size="10.00">Feel::GeoEntity&lt; Simplex</text>
<text text-anchor="start" x="535" y="-794.5" font-family="Helvetica,sans-Serif" font-size="10.00">&lt; 0, 1, Dim &gt;, double,</text>
<text text-anchor="middle" x="621" y="-783.5" font-family="Helvetica,sans-Serif" font-size="10.00"> uint32_type &gt;</text>
<polyline fill="none" stroke="black" points="527,-776.5 715,-776.5 "/>
<text text-anchor="middle" x="621" y="-764.5" font-family="Helvetica,sans-Serif" font-size="10.00"> </text>
<polyline fill="none" stroke="black" points="527,-757.5 715,-757.5 "/>
<text text-anchor="start" x="535" y="-745.5" font-family="Helvetica,sans-Serif" font-size="10.00">* super</text>
<text text-anchor="start" x="535" y="-734.5" font-family="Helvetica,sans-Serif" font-size="10.00">* GeoShape</text>
<text text-anchor="start" x="535" y="-723.5" font-family="Helvetica,sans-Serif" font-size="10.00">* self_type</text>
<text text-anchor="start" x="535" y="-712.5" font-family="Helvetica,sans-Serif" font-size="10.00">* value_type</text>
<text text-anchor="start" x="535" y="-701.5" font-family="Helvetica,sans-Serif" font-size="10.00">* index_type</text>
<text text-anchor="start" x="535" y="-690.5" font-family="Helvetica,sans-Serif" font-size="10.00">and 26 more...</text>
<text text-anchor="start" x="535" y="-679.5" font-family="Helvetica,sans-Serif" font-size="10.00">* boost::serialization</text>
<text text-anchor="start" x="535" y="-668.5" font-family="Helvetica,sans-Serif" font-size="10.00">::access</text>
<text text-anchor="start" x="535" y="-657.5" font-family="Helvetica,sans-Serif" font-size="10.00">* M_id</text>
<text text-anchor="start" x="535" y="-646.5" font-family="Helvetica,sans-Serif" font-size="10.00">* M_entity</text>
<text text-anchor="start" x="535" y="-635.5" font-family="Helvetica,sans-Serif" font-size="10.00">* M_boundaryEntityDimension</text>
<text text-anchor="start" x="535" y="-624.5" font-family="Helvetica,sans-Serif" font-size="10.00">* M_pid</text>
<text text-anchor="start" x="535" y="-613.5" font-family="Helvetica,sans-Serif" font-size="10.00">and 41 more...</text>
<text text-anchor="start" x="535" y="-602.5" font-family="Helvetica,sans-Serif" font-size="10.00">* GeoEntity()</text>
<text text-anchor="start" x="535" y="-591.5" font-family="Helvetica,sans-Serif" font-size="10.00">* GeoEntity()</text>
<text text-anchor="start" x="535" y="-580.5" font-family="Helvetica,sans-Serif" font-size="10.00">* GeoEntity()</text>
<text text-anchor="start" x="535" y="-569.5" font-family="Helvetica,sans-Serif" font-size="10.00">* GeoEntity()</text>
<text text-anchor="start" x="535" y="-558.5" font-family="Helvetica,sans-Serif" font-size="10.00">* operator=()</text>
<text text-anchor="start" x="535" y="-547.5" font-family="Helvetica,sans-Serif" font-size="10.00">* operator=()</text>
<text text-anchor="start" x="535" y="-536.5" font-family="Helvetica,sans-Serif" font-size="10.00">* ~GeoEntity()</text>
<text text-anchor="start" x="535" y="-525.5" font-family="Helvetica,sans-Serif" font-size="10.00">* operator==()</text>
<text text-anchor="start" x="535" y="-514.5" font-family="Helvetica,sans-Serif" font-size="10.00">* operator&lt;()</text>
<text text-anchor="start" x="535" y="-503.5" font-family="Helvetica,sans-Serif" font-size="10.00">* operator&lt;()</text>
<text text-anchor="start" x="535" y="-492.5" font-family="Helvetica,sans-Serif" font-size="10.00">* id()</text>
<text text-anchor="start" x="535" y="-481.5" font-family="Helvetica,sans-Serif" font-size="10.00">* refDim()</text>
<text text-anchor="start" x="535" y="-470.5" font-family="Helvetica,sans-Serif" font-size="10.00">* nPoints()</text>
<text text-anchor="start" x="535" y="-459.5" font-family="Helvetica,sans-Serif" font-size="10.00">* nVertices()</text>
<text text-anchor="start" x="535" y="-448.5" font-family="Helvetica,sans-Serif" font-size="10.00">* nEdges()</text>
<text text-anchor="start" x="535" y="-437.5" font-family="Helvetica,sans-Serif" font-size="10.00">and 42 more...</text>
<text text-anchor="start" x="535" y="-426.5" font-family="Helvetica,sans-Serif" font-size="10.00">* setId()</text>
<text text-anchor="start" x="535" y="-415.5" font-family="Helvetica,sans-Serif" font-size="10.00">* setOnBoundary()</text>
<text text-anchor="start" x="535" y="-404.5" font-family="Helvetica,sans-Serif" font-size="10.00">* setNumberOfPartitions()</text>
<text text-anchor="start" x="535" y="-393.5" font-family="Helvetica,sans-Serif" font-size="10.00">* setNumberOfNeighborPartitions()</text>
<text text-anchor="start" x="535" y="-382.5" font-family="Helvetica,sans-Serif" font-size="10.00">* setNeighborPartitionIds()</text>
<text text-anchor="start" x="535" y="-371.5" font-family="Helvetica,sans-Serif" font-size="10.00">* addNeighborPartitionId()</text>
</a>
</g>
</g>
<!-- Node6&#45;&gt;Node2 -->
<g id="edge5" class="edge">
<title>Node6&#45;&gt;Node2</title>
<path fill="none" stroke="midnightblue" d="M519.46,-366.35C518.65,-365.56 517.83,-364.78 517,-364 484.7,-333.65 462.47,-350 424,-328 420.93,-326.25 417.86,-324.39 414.79,-322.44"/>
<polygon fill="none" stroke="midnightblue" points="517.13,-368.98 526.63,-373.68 522.14,-364.08 517.13,-368.98"/>
</g>
<!-- Node7 -->
<g id="node7" class="node">
<title>Node7</title>
<g id="a_node7"><a xlink:title=" ">
<polygon fill="white" stroke="#bfbfbf" points="283,-937 283,-1027 435,-1027 435,-937 283,-937"/>
<text text-anchor="start" x="291" y="-1015" font-family="Helvetica,sans-Serif" font-size="10.00">boost::equality_comparable</text>
<text text-anchor="start" x="291" y="-1004" font-family="Helvetica,sans-Serif" font-size="10.00">&lt; GeoEntity&lt; Simplex&lt; 0,</text>
<text text-anchor="start" x="291" y="-993" font-family="Helvetica,sans-Serif" font-size="10.00"> 1, Dim &gt;, double, uint32</text>
<text text-anchor="middle" x="359" y="-982" font-family="Helvetica,sans-Serif" font-size="10.00">_type &gt; &gt;</text>
<polyline fill="none" stroke="#bfbfbf" points="283,-975 435,-975 "/>
<text text-anchor="middle" x="359" y="-963" font-family="Helvetica,sans-Serif" font-size="10.00"> </text>
<polyline fill="none" stroke="#bfbfbf" points="283,-956 435,-956 "/>
<text text-anchor="middle" x="359" y="-944" font-family="Helvetica,sans-Serif" font-size="10.00"> </text>
</a>
</g>
</g>
<!-- Node7&#45;&gt;Node6 -->
<g id="edge6" class="edge">
<title>Node7&#45;&gt;Node6</title>
<path fill="none" stroke="#8b1a1a" d="M386.11,-927.78C400.7,-903.02 420.54,-874.56 444,-854 471.21,-830.16 491.77,-843.92 517,-818 520.31,-814.6 523.54,-811.07 526.67,-807.43"/>
<polygon fill="none" stroke="#8b1a1a" points="382.92,-926.31 380.97,-936.72 388.99,-929.8 382.92,-926.31"/>
</g>
<!-- Node8 -->
<g id="node8" class="node">
<title>Node8</title>
<g id="a_node8"><a xlink:title=" ">
<polygon fill="white" stroke="#bfbfbf" points="453.5,-937 453.5,-1027 612.5,-1027 612.5,-937 453.5,-937"/>
<text text-anchor="start" x="461.5" y="-1015" font-family="Helvetica,sans-Serif" font-size="10.00">boost::less_than_comparable</text>
<text text-anchor="start" x="461.5" y="-1004" font-family="Helvetica,sans-Serif" font-size="10.00">&lt; GeoEntity&lt; Simplex&lt; 0,</text>
<text text-anchor="start" x="461.5" y="-993" font-family="Helvetica,sans-Serif" font-size="10.00"> 1, Dim &gt;, double, uint32</text>
<text text-anchor="middle" x="533" y="-982" font-family="Helvetica,sans-Serif" font-size="10.00">_type &gt; &gt;</text>
<polyline fill="none" stroke="#bfbfbf" points="453.5,-975 612.5,-975 "/>
<text text-anchor="middle" x="533" y="-963" font-family="Helvetica,sans-Serif" font-size="10.00"> </text>
<polyline fill="none" stroke="#bfbfbf" points="453.5,-956 612.5,-956 "/>
<text text-anchor="middle" x="533" y="-944" font-family="Helvetica,sans-Serif" font-size="10.00"> </text>
</a>
</g>
</g>
<!-- Node8&#45;&gt;Node6 -->
<g id="edge7" class="edge">
<title>Node8&#45;&gt;Node6</title>
<path fill="none" stroke="#8b1a1a" d="M545.28,-926.71C551.96,-897.18 560.72,-858.46 569.91,-817.86"/>
<polygon fill="none" stroke="#8b1a1a" points="541.8,-926.23 543.01,-936.76 548.63,-927.77 541.8,-926.23"/>
</g>
<!-- Node9 -->
<g id="node9" class="node">
<title>Node9</title>
<g id="a_node9"><a xlink:title=" ">
<polygon fill="white" stroke="#bfbfbf" points="630.5,-937 630.5,-1027 789.5,-1027 789.5,-937 630.5,-937"/>
<text text-anchor="start" x="638.5" y="-1015" font-family="Helvetica,sans-Serif" font-size="10.00">boost::less_than_comparable</text>
<text text-anchor="start" x="638.5" y="-1004" font-family="Helvetica,sans-Serif" font-size="10.00">&lt; GeoEntity&lt; Simplex&lt; 0,</text>
<text text-anchor="start" x="638.5" y="-993" font-family="Helvetica,sans-Serif" font-size="10.00"> 1, Dim &gt;, double, uint32</text>
<text text-anchor="middle" x="710" y="-982" font-family="Helvetica,sans-Serif" font-size="10.00">_type &gt;, uint32_type &gt;</text>
<polyline fill="none" stroke="#bfbfbf" points="630.5,-975 789.5,-975 "/>
<text text-anchor="middle" x="710" y="-963" font-family="Helvetica,sans-Serif" font-size="10.00"> </text>
<polyline fill="none" stroke="#bfbfbf" points="630.5,-956 789.5,-956 "/>
<text text-anchor="middle" x="710" y="-944" font-family="Helvetica,sans-Serif" font-size="10.00"> </text>
</a>
</g>
</g>
<!-- Node9&#45;&gt;Node6 -->
<g id="edge8" class="edge">
<title>Node9&#45;&gt;Node6</title>
<path fill="none" stroke="#8b1a1a" d="M697.58,-926.71C690.82,-897.18 681.96,-858.46 672.67,-817.86"/>
<polygon fill="none" stroke="#8b1a1a" points="694.24,-927.79 699.88,-936.76 701.06,-926.23 694.24,-927.79"/>
</g>
<!-- Node10 -->
<g id="node10" class="node">
<title>Node10</title>
<g id="a_node10"><a xlink:href="classFeel_1_1Simplex.html" target="_top" xlink:title=" ">
<polygon fill="white" stroke="black" points="808,-854.5 808,-1109.5 950,-1109.5 950,-854.5 808,-854.5"/>
<text text-anchor="start" x="816" y="-1097.5" font-family="Helvetica,sans-Serif" font-size="10.00">Feel::Simplex&lt; 0, 1,</text>
<text text-anchor="middle" x="879" y="-1086.5" font-family="Helvetica,sans-Serif" font-size="10.00"> Dim &gt;</text>
<polyline fill="none" stroke="black" points="808,-1079.5 950,-1079.5 "/>
<text text-anchor="start" x="816" y="-1067.5" font-family="Helvetica,sans-Serif" font-size="10.00">+ Geometry</text>
<text text-anchor="start" x="816" y="-1056.5" font-family="Helvetica,sans-Serif" font-size="10.00">+ is_hypercube</text>
<text text-anchor="start" x="816" y="-1045.5" font-family="Helvetica,sans-Serif" font-size="10.00">+ is_simplex</text>
<text text-anchor="start" x="816" y="-1034.5" font-family="Helvetica,sans-Serif" font-size="10.00">+ nbPtsPerEdge</text>
<text text-anchor="start" x="816" y="-1023.5" font-family="Helvetica,sans-Serif" font-size="10.00">+ nbPtsPerFace</text>
<text text-anchor="start" x="816" y="-1012.5" font-family="Helvetica,sans-Serif" font-size="10.00">and 17 more...</text>
<polyline fill="none" stroke="black" points="808,-1005.5 950,-1005.5 "/>
<text text-anchor="start" x="816" y="-993.5" font-family="Helvetica,sans-Serif" font-size="10.00">+ dimension()</text>
<text text-anchor="start" x="816" y="-982.5" font-family="Helvetica,sans-Serif" font-size="10.00">+ operator=()</text>
<text text-anchor="start" x="816" y="-971.5" font-family="Helvetica,sans-Serif" font-size="10.00">+ operator=()</text>
<text text-anchor="start" x="816" y="-960.5" font-family="Helvetica,sans-Serif" font-size="10.00">+ Simplex()</text>
<text text-anchor="start" x="816" y="-949.5" font-family="Helvetica,sans-Serif" font-size="10.00">+ Simplex()</text>
<text text-anchor="start" x="816" y="-938.5" font-family="Helvetica,sans-Serif" font-size="10.00">+ Simplex()</text>
<text text-anchor="start" x="816" y="-927.5" font-family="Helvetica,sans-Serif" font-size="10.00">+ topologicalDimension()</text>
<text text-anchor="start" x="816" y="-916.5" font-family="Helvetica,sans-Serif" font-size="10.00">+ e2p()</text>
<text text-anchor="start" x="816" y="-905.5" font-family="Helvetica,sans-Serif" font-size="10.00">+ f2e()</text>
<text text-anchor="start" x="816" y="-894.5" font-family="Helvetica,sans-Serif" font-size="10.00">+ f2eLoc()</text>
<text text-anchor="start" x="816" y="-883.5" font-family="Helvetica,sans-Serif" font-size="10.00">+ f2p()</text>
<text text-anchor="start" x="816" y="-872.5" font-family="Helvetica,sans-Serif" font-size="10.00">+ getShape()</text>
<text text-anchor="start" x="816" y="-861.5" font-family="Helvetica,sans-Serif" font-size="10.00">and 12 more...</text>
</a>
</g>
</g>
<!-- Node10&#45;&gt;Node6 -->
<g id="edge9" class="edge">
<title>Node10&#45;&gt;Node6</title>
<path fill="none" stroke="midnightblue" d="M802.27,-860.52C800.84,-858.33 799.41,-856.15 798,-854 771.41,-813.5 742.12,-769.79 715.15,-729.9"/>
<polygon fill="none" stroke="midnightblue" points="799.43,-862.58 807.83,-869.05 805.3,-858.76 799.43,-862.58"/>
</g>
<!-- Node11 -->
<g id="node11" class="node">
<title>Node11</title>
<g id="a_node11"><a xlink:href="classFeel_1_1Convex.html" target="_top" xlink:title=" ">
<polygon fill="white" stroke="black" points="758,-1146.5 758,-1280.5 872,-1280.5 872,-1146.5 758,-1146.5"/>
<text text-anchor="start" x="766" y="-1268.5" font-family="Helvetica,sans-Serif" font-size="10.00">Feel::Convex&lt; Dim,</text>
<text text-anchor="middle" x="815" y="-1257.5" font-family="Helvetica,sans-Serif" font-size="10.00"> Order, RDim &gt;</text>
<polyline fill="none" stroke="black" points="758,-1250.5 872,-1250.5 "/>
<text text-anchor="middle" x="815" y="-1238.5" font-family="Helvetica,sans-Serif" font-size="10.00"> </text>
<polyline fill="none" stroke="black" points="758,-1231.5 872,-1231.5 "/>
<text text-anchor="start" x="766" y="-1219.5" font-family="Helvetica,sans-Serif" font-size="10.00">* nDim</text>
<text text-anchor="start" x="766" y="-1208.5" font-family="Helvetica,sans-Serif" font-size="10.00">* nOrder</text>
<text text-anchor="start" x="766" y="-1197.5" font-family="Helvetica,sans-Serif" font-size="10.00">* nRealDim</text>
<text text-anchor="start" x="766" y="-1186.5" font-family="Helvetica,sans-Serif" font-size="10.00">* Convex()</text>
<text text-anchor="start" x="766" y="-1175.5" font-family="Helvetica,sans-Serif" font-size="10.00">* Convex()</text>
<text text-anchor="start" x="766" y="-1164.5" font-family="Helvetica,sans-Serif" font-size="10.00">* ~Convex()</text>
<text text-anchor="start" x="766" y="-1153.5" font-family="Helvetica,sans-Serif" font-size="10.00">* operator=()</text>
</a>
</g>
</g>
<!-- Node11&#45;&gt;Node10 -->
<g id="edge10" class="edge">
<title>Node11&#45;&gt;Node10</title>
<path fill="none" stroke="midnightblue" d="M836.14,-1136.7C838.58,-1127.94 841.12,-1118.83 843.69,-1109.63"/>
<polygon fill="none" stroke="midnightblue" points="832.74,-1135.85 833.43,-1146.43 839.48,-1137.73 832.74,-1135.85"/>
</g>
<!-- Node12 -->
<g id="node12" class="node">
<title>Node12</title>
<g id="a_node12"><a xlink:href="classFeel_1_1ConvexBase.html" target="_top" xlink:title=" ">
<polygon fill="white" stroke="#bfbfbf" points="763,-1317.5 763,-1374.5 867,-1374.5 867,-1317.5 763,-1317.5"/>
<text text-anchor="middle" x="815" y="-1362.5" font-family="Helvetica,sans-Serif" font-size="10.00">Feel::ConvexBase</text>
<polyline fill="none" stroke="#bfbfbf" points="763,-1355.5 867,-1355.5 "/>
<text text-anchor="middle" x="815" y="-1343.5" font-family="Helvetica,sans-Serif" font-size="10.00"> </text>
<polyline fill="none" stroke="#bfbfbf" points="763,-1336.5 867,-1336.5 "/>
<text text-anchor="middle" x="815" y="-1324.5" font-family="Helvetica,sans-Serif" font-size="10.00"> </text>
</a>
</g>
</g>
<!-- Node12&#45;&gt;Node11 -->
<g id="edge11" class="edge">
<title>Node12&#45;&gt;Node11</title>
<path fill="none" stroke="midnightblue" d="M815,-1307.16C815,-1298.78 815,-1289.67 815,-1280.53"/>
<polygon fill="none" stroke="midnightblue" points="811.5,-1307.32 815,-1317.32 818.5,-1307.32 811.5,-1307.32"/>
</g>
<!-- Node13 -->
<g id="node13" class="node">
<title>Node13</title>
<g id="a_node13"><a xlink:href="classFeel_1_1SimplexBase.html" target="_top" xlink:title=" ">
<polygon fill="white" stroke="#bfbfbf" points="890.5,-1185 890.5,-1242 997.5,-1242 997.5,-1185 890.5,-1185"/>
<text text-anchor="middle" x="944" y="-1230" font-family="Helvetica,sans-Serif" font-size="10.00">Feel::SimplexBase</text>
<polyline fill="none" stroke="#bfbfbf" points="890.5,-1223 997.5,-1223 "/>
<text text-anchor="middle" x="944" y="-1211" font-family="Helvetica,sans-Serif" font-size="10.00"> </text>
<polyline fill="none" stroke="#bfbfbf" points="890.5,-1204 997.5,-1204 "/>
<text text-anchor="middle" x="944" y="-1192" font-family="Helvetica,sans-Serif" font-size="10.00"> </text>
</a>
</g>
</g>
<!-- Node13&#45;&gt;Node10 -->
<g id="edge12" class="edge">
<title>Node13&#45;&gt;Node10</title>
<path fill="none" stroke="#8b1a1a" d="M933.43,-1175.17C928.24,-1156.86 921.65,-1133.6 914.87,-1109.65"/>
<polygon fill="none" stroke="#8b1a1a" points="930.07,-1176.15 936.16,-1184.82 936.8,-1174.24 930.07,-1176.15"/>
</g>
<!-- Node14 -->
<g id="node14" class="node">
<title>Node14</title>
<g id="a_node14"><a xlink:href="classFeel_1_1SubFaceOfNone.html" target="_top" xlink:title=" ">
<polygon fill="white" stroke="#bfbfbf" points="433,-199 433,-322 575,-322 575,-199 433,-199"/>
<text text-anchor="start" x="441" y="-310" font-family="Helvetica,sans-Serif" font-size="10.00">Feel::SubFaceOfNone</text>
<text text-anchor="middle" x="504" y="-299" font-family="Helvetica,sans-Serif" font-size="10.00">&lt; Dim &gt;</text>
<polyline fill="none" stroke="#bfbfbf" points="433,-292 575,-292 "/>
<text text-anchor="start" x="441" y="-280" font-family="Helvetica,sans-Serif" font-size="10.00">+ nDim</text>
<polyline fill="none" stroke="#bfbfbf" points="433,-273 575,-273 "/>
<text text-anchor="start" x="441" y="-261" font-family="Helvetica,sans-Serif" font-size="10.00">+ element()</text>
<text text-anchor="start" x="441" y="-250" font-family="Helvetica,sans-Serif" font-size="10.00">+ isGhostFace()</text>
<text text-anchor="start" x="441" y="-239" font-family="Helvetica,sans-Serif" font-size="10.00">+ isInterProcessDomain()</text>
<text text-anchor="start" x="441" y="-228" font-family="Helvetica,sans-Serif" font-size="10.00">+ operator=()</text>
<text text-anchor="start" x="441" y="-217" font-family="Helvetica,sans-Serif" font-size="10.00">+ operator=()</text>
<text text-anchor="start" x="441" y="-206" font-family="Helvetica,sans-Serif" font-size="10.00">and 7 more...</text>
</a>
</g>
</g>
<!-- Node14&#45;&gt;Node1 -->
<g id="edge13" class="edge">
<title>Node14&#45;&gt;Node1</title>
<path fill="none" stroke="midnightblue" d="M472.09,-189.45C467.17,-178.66 462.07,-167.46 457.09,-156.53"/>
<polygon fill="none" stroke="midnightblue" points="469.02,-191.16 476.35,-198.81 475.39,-188.26 469.02,-191.16"/>
</g>
</g>
</svg>
        <g id="navigator" transform="translate(0 0)" fill="#404254">
                <rect fill="#f2f5e9" fill-opacity="0.5" stroke="#606060" stroke-width=".5" x="0" y="0" width="60" height="60"/>
                <use id="zoomplus" xlink:href="#zoomPlus" x="17" y="9" onmousedown="handleZoom(evt,'in')"/>
                <use id="zoomminus" xlink:href="#zoomMin" x="42" y="9" onmousedown="handleZoom(evt,'out')"/>
                <use id="reset" xlink:href="#resetDef" x="30" y="36" onmousedown="handleReset()"/>
                <g id="arrowUp" xlink:href="#dirArrow" transform="translate(30 24)" onmousedown="handlePan(0,-1)">
                  <use xlink:href="#rim" fill="#404040">
                        <set attributeName="fill" to="#808080" begin="arrowUp.mouseover" end="arrowUp.mouseout"/>
                  </use>
                  <path fill="none" stroke="white" stroke-width="1.5" d="M0,-3.0v7 M-2.5,-0.5L0,-3.0L2.5,-0.5"/>
                </g>
                <g id="arrowRight" xlink:href="#dirArrow" transform="rotate(90) translate(36 -43)" onmousedown="handlePan(1,0)">
                  <use xlink:href="#rim" fill="#404040">
                        <set attributeName="fill" to="#808080" begin="arrowRight.mouseover" end="arrowRight.mouseout"/>
                  </use>
                  <path fill="none" stroke="white" stroke-width="1.5" d="M0,-3.0v7 M-2.5,-0.5L0,-3.0L2.5,-0.5"/>
                </g>
                <g id="arrowDown" xlink:href="#dirArrow" transform="rotate(180) translate(-30 -48)" onmousedown="handlePan(0,1)">
                  <use xlink:href="#rim" fill="#404040">
                        <set attributeName="fill" to="#808080" begin="arrowDown.mouseover" end="arrowDown.mouseout"/>
                  </use>
                  <path fill="none" stroke="white" stroke-width="1.5" d="M0,-3.0v7 M-2.5,-0.5L0,-3.0L2.5,-0.5"/>
                </g>
                <g id="arrowLeft" xlink:href="#dirArrow" transform="rotate(270) translate(-36 17)" onmousedown="handlePan(-1,0)">
                  <use xlink:href="#rim" fill="#404040">
                        <set attributeName="fill" to="#808080" begin="arrowLeft.mouseover" end="arrowLeft.mouseout"/>
                  </use>
                  <path fill="none" stroke="white" stroke-width="1.5" d="M0,-3.0v7 M-2.5,-0.5L0,-3.0L2.5,-0.5"/>
                </g>
        </g>
        <svg viewBox="0 0 15 15" width="100%" height="30px" preserveAspectRatio="xMaxYMin meet">
         <g id="arrow_out" transform="scale(0.3 0.3)">
          <a xlink:href="classFeel_1_1GeoElement0D__inherit__graph_org.svg" target="_base">
           <rect id="button" ry="5" rx="5" y="6" x="6" height="38" width="38"
                fill="#f2f5e9" fill-opacity="0.5" stroke="#606060" stroke-width="1.0"/>
           <path id="arrow"
             d="M 11.500037,31.436501 C 11.940474,20.09759 22.043105,11.32322 32.158766,21.979434 L 37.068811,17.246167 C 37.068811,17.246167 37.088388,32 37.088388,32 L 22.160133,31.978069 C 22.160133,31.978069 26.997745,27.140456 26.997745,27.140456 C 18.528582,18.264221 13.291696,25.230495 11.500037,31.436501 z"
             style="fill:#404040;"/>
          </a>
         </g>
        </svg>
</svg>
