<?xml version="1.0" encoding="UTF-8" standalone="no"?>
<!DOCTYPE svg PUBLIC "-//W3C//DTD SVG 1.1//EN"
 "http://www.w3.org/Graphics/SVG/1.1/DTD/svg11.dtd">
<!-- Generated by graphviz version 2.43.0 (0)
 -->
<!-- Title: Feel::GeometricSpace&lt; MeshType &gt;::Context Pages: 1 -->
<svg width="187pt" height="281pt"
 viewBox="0.00 0.00 187.00 281.00" xmlns="http://www.w3.org/2000/svg" xmlns:xlink="http://www.w3.org/1999/xlink">
<g id="graph0" class="graph" transform="scale(1 1) rotate(0) translate(4 277)">
<title>Feel::GeometricSpace&lt; MeshType &gt;::Context</title>
<polygon fill="white" stroke="transparent" points="-4,4 -4,-277 183,-277 183,4 -4,4"/>
<!-- Node1 -->
<g id="node1" class="node">
<title>Node1</title>
<g id="a_node1"><a xlink:title=" ">
<polygon fill="#bfbfbf" stroke="black" points="0,-0.5 0,-123.5 179,-123.5 179,-0.5 0,-0.5"/>
<text text-anchor="start" x="8" y="-111.5" font-family="Helvetica,sans-Serif" font-size="10.00">Feel::GeometricSpace</text>
<text text-anchor="middle" x="89.5" y="-100.5" font-family="Helvetica,sans-Serif" font-size="10.00">&lt; MeshType &gt;::Context</text>
<polyline fill="none" stroke="black" points="0,-93.5 179,-93.5 "/>
<text text-anchor="middle" x="89.5" y="-81.5" font-family="Helvetica,sans-Serif" font-size="10.00"> </text>
<polyline fill="none" stroke="black" points="0,-74.5 179,-74.5 "/>
<text text-anchor="start" x="8" y="-62.5" font-family="Helvetica,sans-Serif" font-size="10.00">+ add()</text>
<text text-anchor="start" x="8" y="-51.5" font-family="Helvetica,sans-Serif" font-size="10.00">+ Context()</text>
<text text-anchor="start" x="8" y="-40.5" font-family="Helvetica,sans-Serif" font-size="10.00">+ ctxHaveBeenMpiBroadcasted()</text>
<text text-anchor="start" x="8" y="-29.5" font-family="Helvetica,sans-Serif" font-size="10.00">+ functionSpace()</text>
<text text-anchor="start" x="8" y="-18.5" font-family="Helvetica,sans-Serif" font-size="10.00">+ nPoints()</text>
<text text-anchor="start" x="8" y="-7.5" font-family="Helvetica,sans-Serif" font-size="10.00">and 5 more...</text>
</a>
</g>
</g>
<!-- Node2 -->
<g id="node2" class="node">
<title>Node2</title>
<g id="a_node2"><a xlink:title="STL class.">
<polygon fill="white" stroke="#bfbfbf" points="21.5,-160.5 21.5,-272.5 157.5,-272.5 157.5,-160.5 21.5,-160.5"/>
<text text-anchor="start" x="29.5" y="-260.5" font-family="Helvetica,sans-Serif" font-size="10.00">std::map&lt; int, std</text>
<text text-anchor="start" x="29.5" y="-249.5" font-family="Helvetica,sans-Serif" font-size="10.00">::pair&lt; std::shared</text>
<text text-anchor="start" x="29.5" y="-238.5" font-family="Helvetica,sans-Serif" font-size="10.00">_ptr&lt; ContextGeometric</text>
<text text-anchor="start" x="29.5" y="-227.5" font-family="Helvetica,sans-Serif" font-size="10.00"> &gt;, std::vector&lt; index</text>
<text text-anchor="middle" x="89.5" y="-216.5" font-family="Helvetica,sans-Serif" font-size="10.00">_type &gt; &gt; &gt;</text>
<polyline fill="none" stroke="#bfbfbf" points="21.5,-209.5 157.5,-209.5 "/>
<text text-anchor="start" x="29.5" y="-197.5" font-family="Helvetica,sans-Serif" font-size="10.00">+ elements</text>
<text text-anchor="start" x="29.5" y="-186.5" font-family="Helvetica,sans-Serif" font-size="10.00">+ keys</text>
<polyline fill="none" stroke="#bfbfbf" points="21.5,-179.5 157.5,-179.5 "/>
<text text-anchor="middle" x="89.5" y="-167.5" font-family="Helvetica,sans-Serif" font-size="10.00"> </text>
</a>
</g>
</g>
<!-- Node2&#45;&gt;Node1 -->
<g id="edge1" class="edge">
<title>Node2&#45;&gt;Node1</title>
<path fill="none" stroke="midnightblue" d="M89.5,-150.22C89.5,-141.4 89.5,-132.39 89.5,-123.66"/>
<polygon fill="none" stroke="midnightblue" points="86,-150.44 89.5,-160.44 93,-150.44 86,-150.44"/>
</g>
</g>
</svg>
