<?xml version="1.0" encoding="UTF-8" standalone="no"?>
<!DOCTYPE svg PUBLIC "-//W3C//DTD SVG 1.1//EN"
 "http://www.w3.org/Graphics/SVG/1.1/DTD/svg11.dtd">
<!-- Generated by graphviz version 2.43.0 (0)
 -->
<!-- Title: Feel::GinacExprManagerImpl Pages: 1 -->
<svg width="240pt" height="171pt"
 viewBox="0.00 0.00 239.50 171.00" xmlns="http://www.w3.org/2000/svg" xmlns:xlink="http://www.w3.org/1999/xlink">
<g id="graph0" class="graph" transform="scale(1 1) rotate(0) translate(4 167)">
<title>Feel::GinacExprManagerImpl</title>
<polygon fill="white" stroke="transparent" points="-4,4 -4,-167 235.5,-167 235.5,4 -4,4"/>
<!-- Node1 -->
<g id="node1" class="node">
<title>Node1</title>
<g id="a_node1"><a xlink:title=" ">
<polygon fill="#bfbfbf" stroke="black" points="34,-0.5 34,-57.5 191,-57.5 191,-0.5 34,-0.5"/>
<text text-anchor="middle" x="112.5" y="-45.5" font-family="Helvetica,sans-Serif" font-size="10.00">Feel::GinacExprManagerImpl</text>
<polyline fill="none" stroke="black" points="34,-38.5 191,-38.5 "/>
<text text-anchor="middle" x="112.5" y="-26.5" font-family="Helvetica,sans-Serif" font-size="10.00"> </text>
<polyline fill="none" stroke="black" points="34,-19.5 191,-19.5 "/>
<text text-anchor="middle" x="112.5" y="-7.5" font-family="Helvetica,sans-Serif" font-size="10.00"> </text>
</a>
</g>
</g>
<!-- Node2 -->
<g id="node2" class="node">
<title>Node2</title>
<g id="a_node2"><a xlink:title=" ">
<polygon fill="white" stroke="black" points="0,-94.5 0,-162.5 101,-162.5 101,-94.5 0,-94.5"/>
<text text-anchor="middle" x="50.5" y="-150.5" font-family="Helvetica,sans-Serif" font-size="10.00">std::map&lt; K, T &gt;</text>
<polyline fill="none" stroke="black" points="0,-143.5 101,-143.5 "/>
<text text-anchor="start" x="8" y="-131.5" font-family="Helvetica,sans-Serif" font-size="10.00">+ elements</text>
<text text-anchor="start" x="8" y="-120.5" font-family="Helvetica,sans-Serif" font-size="10.00">+ keys</text>
<polyline fill="none" stroke="black" points="0,-113.5 101,-113.5 "/>
<text text-anchor="middle" x="50.5" y="-101.5" font-family="Helvetica,sans-Serif" font-size="10.00"> </text>
</a>
</g>
</g>
<!-- Node2&#45;&gt;Node1 -->
<g id="edge1" class="edge">
<title>Node2&#45;&gt;Node1</title>
<path fill="none" stroke="midnightblue" d="M76.95,-85.91C82.99,-76.41 89.27,-66.53 94.84,-57.78"/>
<polygon fill="none" stroke="midnightblue" points="73.9,-84.17 71.49,-94.49 79.81,-87.93 73.9,-84.17"/>
</g>
<!-- Node3 -->
<g id="node3" class="node">
<title>Node3</title>
<g id="a_node3"><a xlink:title=" ">
<polygon fill="white" stroke="#bfbfbf" points="119.5,-100 119.5,-157 231.5,-157 231.5,-100 119.5,-100"/>
<text text-anchor="middle" x="175.5" y="-145" font-family="Helvetica,sans-Serif" font-size="10.00">boost::noncopyable</text>
<polyline fill="none" stroke="#bfbfbf" points="119.5,-138 231.5,-138 "/>
<text text-anchor="middle" x="175.5" y="-126" font-family="Helvetica,sans-Serif" font-size="10.00"> </text>
<polyline fill="none" stroke="#bfbfbf" points="119.5,-119 231.5,-119 "/>
<text text-anchor="middle" x="175.5" y="-107" font-family="Helvetica,sans-Serif" font-size="10.00"> </text>
</a>
</g>
</g>
<!-- Node3&#45;&gt;Node1 -->
<g id="edge2" class="edge">
<title>Node3&#45;&gt;Node1</title>
<path fill="none" stroke="midnightblue" d="M152.04,-91.19C144.89,-80.13 137.15,-68.15 130.43,-57.75"/>
<polygon fill="none" stroke="midnightblue" points="149.25,-93.32 157.62,-99.82 155.13,-89.52 149.25,-93.32"/>
</g>
</g>
</svg>
