<?xml version="1.0" encoding="UTF-8" standalone="no"?>
<!DOCTYPE svg PUBLIC "-//W3C//DTD SVG 1.1//EN"
 "http://www.w3.org/Graphics/SVG/1.1/DTD/svg11.dtd">
<!-- Generated by graphviz version 2.43.0 (0)
 -->
<!-- Title: Feel::FeelModels::ModelBase Pages: 1 -->
<svg width="1697pt" height="1284pt"
 viewBox="0.00 0.00 1696.50 1284.00" xmlns="http://www.w3.org/2000/svg" xmlns:xlink="http://www.w3.org/1999/xlink">
<g id="graph0" class="graph" transform="scale(1 1) rotate(0) translate(4 1280)">
<title>Feel::FeelModels::ModelBase</title>
<polygon fill="white" stroke="transparent" points="-4,4 -4,-1280 1692.5,-1280 1692.5,4 -4,4"/>
<!-- Node1 -->
<g id="node1" class="node">
<title>Node1</title>
<g id="a_node1"><a xlink:title="Model base class.">
<polygon fill="#bfbfbf" stroke="black" points="817,-744.5 817,-856.5 1010,-856.5 1010,-744.5 817,-744.5"/>
<text text-anchor="middle" x="913.5" y="-844.5" font-family="Helvetica,sans-Serif" font-size="10.00">Feel::FeelModels::ModelBase</text>
<polyline fill="none" stroke="black" points="817,-837.5 1010,-837.5 "/>
<text text-anchor="middle" x="913.5" y="-825.5" font-family="Helvetica,sans-Serif" font-size="10.00"> </text>
<polyline fill="none" stroke="black" points="817,-818.5 1010,-818.5 "/>
<text text-anchor="start" x="825" y="-806.5" font-family="Helvetica,sans-Serif" font-size="10.00">+ addParameterInModelProperties()</text>
<text text-anchor="start" x="825" y="-795.5" font-family="Helvetica,sans-Serif" font-size="10.00">+ addTimerTool()</text>
<text text-anchor="start" x="825" y="-784.5" font-family="Helvetica,sans-Serif" font-size="10.00">+ clovm()</text>
<text text-anchor="start" x="825" y="-773.5" font-family="Helvetica,sans-Serif" font-size="10.00">+ createWorldsComm()</text>
<text text-anchor="start" x="825" y="-762.5" font-family="Helvetica,sans-Serif" font-size="10.00">+ hasModelProperties()</text>
<text text-anchor="start" x="825" y="-751.5" font-family="Helvetica,sans-Serif" font-size="10.00">and 53 more...</text>
</a>
</g>
</g>
<!-- Node5 -->
<g id="node5" class="node">
<title>Node5</title>
<g id="a_node5"><a xlink:href="classFeel_1_1FeelModels_1_1ModelMeshes.html" target="_top" xlink:title=" ">
<polygon fill="white" stroke="black" points="508,-557 508,-691 687,-691 687,-557 508,-557"/>
<text text-anchor="start" x="516" y="-679" font-family="Helvetica,sans-Serif" font-size="10.00">Feel::FeelModels::ModelMeshes</text>
<text text-anchor="middle" x="597.5" y="-668" font-family="Helvetica,sans-Serif" font-size="10.00">&lt; ModelAlgebraic::index_type &gt;</text>
<polyline fill="none" stroke="black" points="508,-661 687,-661 "/>
<text text-anchor="middle" x="597.5" y="-649" font-family="Helvetica,sans-Serif" font-size="10.00"> </text>
<polyline fill="none" stroke="black" points="508,-642 687,-642 "/>
<text text-anchor="start" x="516" y="-630" font-family="Helvetica,sans-Serif" font-size="10.00">+ applyRemesh()</text>
<text text-anchor="start" x="516" y="-619" font-family="Helvetica,sans-Serif" font-size="10.00">+ hasMeshMotion()</text>
<text text-anchor="start" x="516" y="-608" font-family="Helvetica,sans-Serif" font-size="10.00">+ hasModelMesh()</text>
<text text-anchor="start" x="516" y="-597" font-family="Helvetica,sans-Serif" font-size="10.00">+ initMeasurePointsEvaluation</text>
<text text-anchor="start" x="516" y="-586" font-family="Helvetica,sans-Serif" font-size="10.00">Tool()</text>
<text text-anchor="start" x="516" y="-575" font-family="Helvetica,sans-Serif" font-size="10.00">+ measurePointsEvaluationTool()</text>
<text text-anchor="start" x="516" y="-564" font-family="Helvetica,sans-Serif" font-size="10.00">and 23 more...</text>
</a>
</g>
</g>
<!-- Node1&#45;&gt;Node5 -->
<g id="edge4" class="edge">
<title>Node1&#45;&gt;Node5</title>
<path fill="none" stroke="midnightblue" d="M807.13,-762.03C770.87,-747.36 730.85,-728.98 696.5,-708 688.17,-702.91 679.82,-697.16 671.69,-691.11"/>
<polygon fill="none" stroke="midnightblue" points="806.17,-765.42 816.75,-765.88 808.76,-758.92 806.17,-765.42"/>
</g>
<!-- Node6 -->
<g id="node6" class="node">
<title>Node6</title>
<g id="a_node6"><a xlink:href="classFeel_1_1FeelModels_1_1ModelNumerical.html" target="_top" xlink:title="Handles some numerical model aspects: timestepping, mesh and properties.">
<polygon fill="white" stroke="black" points="496.5,-292.5 496.5,-503.5 698.5,-503.5 698.5,-292.5 496.5,-292.5"/>
<text text-anchor="middle" x="597.5" y="-491.5" font-family="Helvetica,sans-Serif" font-size="10.00">Feel::FeelModels::ModelNumerical</text>
<polyline fill="none" stroke="black" points="496.5,-484.5 698.5,-484.5 "/>
<text text-anchor="middle" x="597.5" y="-472.5" font-family="Helvetica,sans-Serif" font-size="10.00"> </text>
<polyline fill="none" stroke="black" points="496.5,-465.5 698.5,-465.5 "/>
<text text-anchor="start" x="504.5" y="-453.5" font-family="Helvetica,sans-Serif" font-size="10.00">+ checkResults()</text>
<text text-anchor="start" x="504.5" y="-442.5" font-family="Helvetica,sans-Serif" font-size="10.00">+ checkResults()</text>
<text text-anchor="start" x="504.5" y="-431.5" font-family="Helvetica,sans-Serif" font-size="10.00">+ createBdf()</text>
<text text-anchor="start" x="504.5" y="-420.5" font-family="Helvetica,sans-Serif" font-size="10.00">+ currentTime()</text>
<text text-anchor="start" x="504.5" y="-409.5" font-family="Helvetica,sans-Serif" font-size="10.00">+ doRestart()</text>
<text text-anchor="start" x="504.5" y="-398.5" font-family="Helvetica,sans-Serif" font-size="10.00">and 53 more...</text>
<text text-anchor="start" x="504.5" y="-387.5" font-family="Helvetica,sans-Serif" font-size="10.00"># addPostProcessExportsAll</text>
<text text-anchor="start" x="504.5" y="-376.5" font-family="Helvetica,sans-Serif" font-size="10.00">FieldsAvailable()</text>
<text text-anchor="start" x="504.5" y="-365.5" font-family="Helvetica,sans-Serif" font-size="10.00"># addPostProcessExportsAll</text>
<text text-anchor="start" x="504.5" y="-354.5" font-family="Helvetica,sans-Serif" font-size="10.00">FieldsAvailable()</text>
<text text-anchor="start" x="504.5" y="-343.5" font-family="Helvetica,sans-Serif" font-size="10.00"># addPostProcessMeasuresQuantities</text>
<text text-anchor="start" x="504.5" y="-332.5" font-family="Helvetica,sans-Serif" font-size="10.00">AllNamesAvailable()</text>
<text text-anchor="start" x="504.5" y="-321.5" font-family="Helvetica,sans-Serif" font-size="10.00"># initPostProcess()</text>
<text text-anchor="start" x="504.5" y="-310.5" font-family="Helvetica,sans-Serif" font-size="10.00"># initPostProcessMeshes()</text>
<text text-anchor="start" x="504.5" y="-299.5" font-family="Helvetica,sans-Serif" font-size="10.00">and 10 more...</text>
</a>
</g>
</g>
<!-- Node1&#45;&gt;Node6 -->
<g id="edge23" class="edge">
<title>Node1&#45;&gt;Node6</title>
<path fill="none" stroke="midnightblue" d="M806.65,-790.89C696.77,-779.56 536.48,-755.27 498.5,-708 451.73,-649.8 476,-611.2 498.5,-540 502.42,-527.59 507.87,-515.33 514.21,-503.53"/>
<polygon fill="none" stroke="midnightblue" points="806.49,-794.39 816.79,-791.91 807.19,-787.43 806.49,-794.39"/>
</g>
<!-- Node12 -->
<g id="node12" class="node">
<title>Node12</title>
<g id="a_node12"><a xlink:href="classFeel_1_1FeelModels_1_1ModelPhysics.html" target="_top" xlink:title=" ">
<polygon fill="white" stroke="black" points="307,-314.5 307,-481.5 478,-481.5 478,-314.5 307,-314.5"/>
<text text-anchor="start" x="315" y="-469.5" font-family="Helvetica,sans-Serif" font-size="10.00">Feel::FeelModels::ModelPhysics</text>
<text text-anchor="middle" x="392.5" y="-458.5" font-family="Helvetica,sans-Serif" font-size="10.00">&lt; ConvexType::nDim &gt;</text>
<polyline fill="none" stroke="black" points="307,-451.5 478,-451.5 "/>
<text text-anchor="start" x="315" y="-439.5" font-family="Helvetica,sans-Serif" font-size="10.00">+ nDim</text>
<text text-anchor="start" x="315" y="-428.5" font-family="Helvetica,sans-Serif" font-size="10.00"># M_physicModeling</text>
<text text-anchor="start" x="315" y="-417.5" font-family="Helvetica,sans-Serif" font-size="10.00"># M_physics</text>
<polyline fill="none" stroke="black" points="307,-410.5 478,-410.5 "/>
<text text-anchor="start" x="315" y="-398.5" font-family="Helvetica,sans-Serif" font-size="10.00">+ addPhysics()</text>
<text text-anchor="start" x="315" y="-387.5" font-family="Helvetica,sans-Serif" font-size="10.00">+ hasPhysic()</text>
<text text-anchor="start" x="315" y="-376.5" font-family="Helvetica,sans-Serif" font-size="10.00">+ initPhysics()</text>
<text text-anchor="start" x="315" y="-365.5" font-family="Helvetica,sans-Serif" font-size="10.00">+ initPhysics()</text>
<text text-anchor="start" x="315" y="-354.5" font-family="Helvetica,sans-Serif" font-size="10.00">+ ModelPhysics()</text>
<text text-anchor="start" x="315" y="-343.5" font-family="Helvetica,sans-Serif" font-size="10.00">and 18 more...</text>
<text text-anchor="start" x="315" y="-332.5" font-family="Helvetica,sans-Serif" font-size="10.00"># initPhysics()</text>
<text text-anchor="start" x="315" y="-321.5" font-family="Helvetica,sans-Serif" font-size="10.00"># updatePhysics()</text>
</a>
</g>
</g>
<!-- Node1&#45;&gt;Node12 -->
<g id="edge11" class="edge">
<title>Node1&#45;&gt;Node12</title>
<path fill="none" stroke="midnightblue" d="M807.02,-790.6C691.14,-778.73 515.99,-753.7 468.5,-708 407.99,-649.77 392.55,-551.76 389.98,-481.73"/>
<polygon fill="none" stroke="midnightblue" points="806.69,-794.08 816.99,-791.6 807.4,-787.12 806.69,-794.08"/>
</g>
<!-- Node13 -->
<g id="node13" class="node">
<title>Node13</title>
<g id="a_node13"><a xlink:href="classFeel_1_1FeelModels_1_1ModelPhysics.html" target="_top" xlink:title=" ">
<polygon fill="white" stroke="black" points="868,-314.5 868,-481.5 1039,-481.5 1039,-314.5 868,-314.5"/>
<text text-anchor="start" x="876" y="-469.5" font-family="Helvetica,sans-Serif" font-size="10.00">Feel::FeelModels::ModelPhysics</text>
<text text-anchor="middle" x="953.5" y="-458.5" font-family="Helvetica,sans-Serif" font-size="10.00">&lt; ConvexType::nRealDim &gt;</text>
<polyline fill="none" stroke="black" points="868,-451.5 1039,-451.5 "/>
<text text-anchor="start" x="876" y="-439.5" font-family="Helvetica,sans-Serif" font-size="10.00">+ nDim</text>
<text text-anchor="start" x="876" y="-428.5" font-family="Helvetica,sans-Serif" font-size="10.00"># M_physicModeling</text>
<text text-anchor="start" x="876" y="-417.5" font-family="Helvetica,sans-Serif" font-size="10.00"># M_physics</text>
<polyline fill="none" stroke="black" points="868,-410.5 1039,-410.5 "/>
<text text-anchor="start" x="876" y="-398.5" font-family="Helvetica,sans-Serif" font-size="10.00">+ addPhysics()</text>
<text text-anchor="start" x="876" y="-387.5" font-family="Helvetica,sans-Serif" font-size="10.00">+ hasPhysic()</text>
<text text-anchor="start" x="876" y="-376.5" font-family="Helvetica,sans-Serif" font-size="10.00">+ initPhysics()</text>
<text text-anchor="start" x="876" y="-365.5" font-family="Helvetica,sans-Serif" font-size="10.00">+ initPhysics()</text>
<text text-anchor="start" x="876" y="-354.5" font-family="Helvetica,sans-Serif" font-size="10.00">+ ModelPhysics()</text>
<text text-anchor="start" x="876" y="-343.5" font-family="Helvetica,sans-Serif" font-size="10.00">and 18 more...</text>
<text text-anchor="start" x="876" y="-332.5" font-family="Helvetica,sans-Serif" font-size="10.00"># initPhysics()</text>
<text text-anchor="start" x="876" y="-321.5" font-family="Helvetica,sans-Serif" font-size="10.00"># updatePhysics()</text>
</a>
</g>
</g>
<!-- Node1&#45;&gt;Node13 -->
<g id="edge16" class="edge">
<title>Node1&#45;&gt;Node13</title>
<path fill="none" stroke="midnightblue" d="M916.92,-734.27C920,-681.72 925.18,-605.98 932.5,-540 934.6,-521.06 937.34,-500.76 940.14,-481.62"/>
<polygon fill="none" stroke="midnightblue" points="913.42,-734.28 916.33,-744.46 920.4,-734.68 913.42,-734.28"/>
</g>
<!-- Node14 -->
<g id="node14" class="node">
<title>Node14</title>
<g id="a_node14"><a xlink:href="classFeel_1_1FeelModels_1_1ModelPhysics.html" target="_top" xlink:title=" ">
<polygon fill="white" stroke="black" points="942,-540.5 942,-707.5 1113,-707.5 1113,-540.5 942,-540.5"/>
<text text-anchor="start" x="950" y="-695.5" font-family="Helvetica,sans-Serif" font-size="10.00">Feel::FeelModels::ModelPhysics</text>
<text text-anchor="middle" x="1027.5" y="-684.5" font-family="Helvetica,sans-Serif" font-size="10.00">&lt; nRealDim &gt;</text>
<polyline fill="none" stroke="black" points="942,-677.5 1113,-677.5 "/>
<text text-anchor="start" x="950" y="-665.5" font-family="Helvetica,sans-Serif" font-size="10.00">+ nDim</text>
<text text-anchor="start" x="950" y="-654.5" font-family="Helvetica,sans-Serif" font-size="10.00"># M_physicModeling</text>
<text text-anchor="start" x="950" y="-643.5" font-family="Helvetica,sans-Serif" font-size="10.00"># M_physics</text>
<polyline fill="none" stroke="black" points="942,-636.5 1113,-636.5 "/>
<text text-anchor="start" x="950" y="-624.5" font-family="Helvetica,sans-Serif" font-size="10.00">+ addPhysics()</text>
<text text-anchor="start" x="950" y="-613.5" font-family="Helvetica,sans-Serif" font-size="10.00">+ hasPhysic()</text>
<text text-anchor="start" x="950" y="-602.5" font-family="Helvetica,sans-Serif" font-size="10.00">+ initPhysics()</text>
<text text-anchor="start" x="950" y="-591.5" font-family="Helvetica,sans-Serif" font-size="10.00">+ initPhysics()</text>
<text text-anchor="start" x="950" y="-580.5" font-family="Helvetica,sans-Serif" font-size="10.00">+ ModelPhysics()</text>
<text text-anchor="start" x="950" y="-569.5" font-family="Helvetica,sans-Serif" font-size="10.00">and 18 more...</text>
<text text-anchor="start" x="950" y="-558.5" font-family="Helvetica,sans-Serif" font-size="10.00"># initPhysics()</text>
<text text-anchor="start" x="950" y="-547.5" font-family="Helvetica,sans-Serif" font-size="10.00"># updatePhysics()</text>
</a>
</g>
</g>
<!-- Node1&#45;&gt;Node14 -->
<g id="edge18" class="edge">
<title>Node1&#45;&gt;Node14</title>
<path fill="none" stroke="midnightblue" d="M955.21,-735.66C961.18,-726.52 967.38,-717.02 973.55,-707.59"/>
<polygon fill="none" stroke="midnightblue" points="952.11,-734 949.57,-744.29 957.97,-737.83 952.11,-734"/>
</g>
<!-- Node15 -->
<g id="node15" class="node">
<title>Node15</title>
<g id="a_node15"><a xlink:href="classFeel_1_1FeelModels_1_1ModelPhysics.html" target="_top" xlink:title=" ">
<polygon fill="white" stroke="black" points="1131,-540.5 1131,-707.5 1302,-707.5 1302,-540.5 1131,-540.5"/>
<text text-anchor="start" x="1139" y="-695.5" font-family="Helvetica,sans-Serif" font-size="10.00">Feel::FeelModels::ModelPhysics</text>
<text text-anchor="middle" x="1216.5" y="-684.5" font-family="Helvetica,sans-Serif" font-size="10.00">&lt; nDim &gt;</text>
<polyline fill="none" stroke="black" points="1131,-677.5 1302,-677.5 "/>
<text text-anchor="start" x="1139" y="-665.5" font-family="Helvetica,sans-Serif" font-size="10.00">+ nDim</text>
<text text-anchor="start" x="1139" y="-654.5" font-family="Helvetica,sans-Serif" font-size="10.00"># M_physicModeling</text>
<text text-anchor="start" x="1139" y="-643.5" font-family="Helvetica,sans-Serif" font-size="10.00"># M_physics</text>
<polyline fill="none" stroke="black" points="1131,-636.5 1302,-636.5 "/>
<text text-anchor="start" x="1139" y="-624.5" font-family="Helvetica,sans-Serif" font-size="10.00">+ addPhysics()</text>
<text text-anchor="start" x="1139" y="-613.5" font-family="Helvetica,sans-Serif" font-size="10.00">+ hasPhysic()</text>
<text text-anchor="start" x="1139" y="-602.5" font-family="Helvetica,sans-Serif" font-size="10.00">+ initPhysics()</text>
<text text-anchor="start" x="1139" y="-591.5" font-family="Helvetica,sans-Serif" font-size="10.00">+ initPhysics()</text>
<text text-anchor="start" x="1139" y="-580.5" font-family="Helvetica,sans-Serif" font-size="10.00">+ ModelPhysics()</text>
<text text-anchor="start" x="1139" y="-569.5" font-family="Helvetica,sans-Serif" font-size="10.00">and 18 more...</text>
<text text-anchor="start" x="1139" y="-558.5" font-family="Helvetica,sans-Serif" font-size="10.00"># initPhysics()</text>
<text text-anchor="start" x="1139" y="-547.5" font-family="Helvetica,sans-Serif" font-size="10.00"># updatePhysics()</text>
</a>
</g>
</g>
<!-- Node1&#45;&gt;Node15 -->
<g id="edge19" class="edge">
<title>Node1&#45;&gt;Node15</title>
<path fill="none" stroke="midnightblue" d="M1019.48,-760.23C1053.2,-745.83 1089.93,-728.07 1121.5,-708 1124.64,-706 1127.79,-703.9 1130.92,-701.73"/>
<polygon fill="none" stroke="midnightblue" points="1017.9,-757.1 1010.05,-764.2 1020.62,-763.55 1017.9,-757.1"/>
</g>
<!-- Node16 -->
<g id="node16" class="node">
<title>Node16</title>
<g id="a_node16"><a xlink:href="classFeel_1_1FeelModels_1_1ModelAlgebraic.html" target="_top" xlink:title=" ">
<polygon fill="white" stroke="#bfbfbf" points="705.5,-568 705.5,-680 885.5,-680 885.5,-568 705.5,-568"/>
<text text-anchor="middle" x="795.5" y="-668" font-family="Helvetica,sans-Serif" font-size="10.00">Feel::FeelModels::ModelAlgebraic</text>
<polyline fill="none" stroke="#bfbfbf" points="705.5,-661 885.5,-661 "/>
<text text-anchor="middle" x="795.5" y="-649" font-family="Helvetica,sans-Serif" font-size="10.00"> </text>
<polyline fill="none" stroke="#bfbfbf" points="705.5,-642 885.5,-642 "/>
<text text-anchor="start" x="713.5" y="-630" font-family="Helvetica,sans-Serif" font-size="10.00">+ algebraicBackend()</text>
<text text-anchor="start" x="713.5" y="-619" font-family="Helvetica,sans-Serif" font-size="10.00">+ algebraicBlockVectorSolution()</text>
<text text-anchor="start" x="713.5" y="-608" font-family="Helvetica,sans-Serif" font-size="10.00">+ algebraicFactory()</text>
<text text-anchor="start" x="713.5" y="-597" font-family="Helvetica,sans-Serif" font-size="10.00">+ backend()</text>
<text text-anchor="start" x="713.5" y="-586" font-family="Helvetica,sans-Serif" font-size="10.00">+ blockPattern()</text>
<text text-anchor="start" x="713.5" y="-575" font-family="Helvetica,sans-Serif" font-size="10.00">and 75 more...</text>
</a>
</g>
</g>
<!-- Node1&#45;&gt;Node16 -->
<g id="edge20" class="edge">
<title>Node1&#45;&gt;Node16</title>
<path fill="none" stroke="midnightblue" d="M870.56,-736C858.19,-717.7 844.8,-697.9 832.8,-680.15"/>
<polygon fill="none" stroke="midnightblue" points="867.66,-737.96 876.16,-744.29 873.46,-734.04 867.66,-737.96"/>
</g>
<!-- Node17 -->
<g id="node17" class="node">
<title>Node17</title>
<g id="a_node17"><a xlink:href="classFeel_1_1FeelModels_1_1ModelMeshes.html" target="_top" xlink:title="Mesh Model Collection.">
<polygon fill="white" stroke="black" points="1320,-557 1320,-691 1499,-691 1499,-557 1320,-557"/>
<text text-anchor="start" x="1328" y="-679" font-family="Helvetica,sans-Serif" font-size="10.00">Feel::FeelModels::ModelMeshes</text>
<text text-anchor="middle" x="1409.5" y="-668" font-family="Helvetica,sans-Serif" font-size="10.00">&lt; IndexType &gt;</text>
<polyline fill="none" stroke="black" points="1320,-661 1499,-661 "/>
<text text-anchor="middle" x="1409.5" y="-649" font-family="Helvetica,sans-Serif" font-size="10.00"> </text>
<polyline fill="none" stroke="black" points="1320,-642 1499,-642 "/>
<text text-anchor="start" x="1328" y="-630" font-family="Helvetica,sans-Serif" font-size="10.00">+ applyRemesh()</text>
<text text-anchor="start" x="1328" y="-619" font-family="Helvetica,sans-Serif" font-size="10.00">+ hasMeshMotion()</text>
<text text-anchor="start" x="1328" y="-608" font-family="Helvetica,sans-Serif" font-size="10.00">+ hasModelMesh()</text>
<text text-anchor="start" x="1328" y="-597" font-family="Helvetica,sans-Serif" font-size="10.00">+ initMeasurePointsEvaluation</text>
<text text-anchor="start" x="1328" y="-586" font-family="Helvetica,sans-Serif" font-size="10.00">Tool()</text>
<text text-anchor="start" x="1328" y="-575" font-family="Helvetica,sans-Serif" font-size="10.00">+ measurePointsEvaluationTool()</text>
<text text-anchor="start" x="1328" y="-564" font-family="Helvetica,sans-Serif" font-size="10.00">and 23 more...</text>
</a>
</g>
</g>
<!-- Node1&#45;&gt;Node17 -->
<g id="edge22" class="edge">
<title>Node1&#45;&gt;Node17</title>
<path fill="none" stroke="midnightblue" d="M1019.92,-788.74C1102.6,-777.19 1218.33,-753.91 1310.5,-708 1320.04,-703.25 1329.44,-697.41 1338.44,-691.04"/>
<polygon fill="none" stroke="midnightblue" points="1019.44,-785.27 1010,-790.09 1020.38,-792.21 1019.44,-785.27"/>
</g>
<!-- Node18 -->
<g id="node18" class="node">
<title>Node18</title>
<g id="a_node18"><a xlink:href="classFeel_1_1FeelModels_1_1ModelPhysics.html" target="_top" xlink:title="Physic set Model.">
<polygon fill="white" stroke="black" points="1517,-540.5 1517,-707.5 1688,-707.5 1688,-540.5 1517,-540.5"/>
<text text-anchor="start" x="1525" y="-695.5" font-family="Helvetica,sans-Serif" font-size="10.00">Feel::FeelModels::ModelPhysics</text>
<text text-anchor="middle" x="1602.5" y="-684.5" font-family="Helvetica,sans-Serif" font-size="10.00">&lt; Dim &gt;</text>
<polyline fill="none" stroke="black" points="1517,-677.5 1688,-677.5 "/>
<text text-anchor="start" x="1525" y="-665.5" font-family="Helvetica,sans-Serif" font-size="10.00">+ nDim</text>
<text text-anchor="start" x="1525" y="-654.5" font-family="Helvetica,sans-Serif" font-size="10.00"># M_physicModeling</text>
<text text-anchor="start" x="1525" y="-643.5" font-family="Helvetica,sans-Serif" font-size="10.00"># M_physics</text>
<polyline fill="none" stroke="black" points="1517,-636.5 1688,-636.5 "/>
<text text-anchor="start" x="1525" y="-624.5" font-family="Helvetica,sans-Serif" font-size="10.00">+ addPhysics()</text>
<text text-anchor="start" x="1525" y="-613.5" font-family="Helvetica,sans-Serif" font-size="10.00">+ hasPhysic()</text>
<text text-anchor="start" x="1525" y="-602.5" font-family="Helvetica,sans-Serif" font-size="10.00">+ initPhysics()</text>
<text text-anchor="start" x="1525" y="-591.5" font-family="Helvetica,sans-Serif" font-size="10.00">+ initPhysics()</text>
<text text-anchor="start" x="1525" y="-580.5" font-family="Helvetica,sans-Serif" font-size="10.00">+ ModelPhysics()</text>
<text text-anchor="start" x="1525" y="-569.5" font-family="Helvetica,sans-Serif" font-size="10.00">and 18 more...</text>
<text text-anchor="start" x="1525" y="-558.5" font-family="Helvetica,sans-Serif" font-size="10.00"># initPhysics()</text>
<text text-anchor="start" x="1525" y="-547.5" font-family="Helvetica,sans-Serif" font-size="10.00"># updatePhysics()</text>
</a>
</g>
</g>
<!-- Node1&#45;&gt;Node18 -->
<g id="edge24" class="edge">
<title>Node1&#45;&gt;Node18</title>
<path fill="none" stroke="midnightblue" d="M1020.42,-790.24C1167.33,-776.3 1423.02,-747.3 1507.5,-708 1510.68,-706.52 1513.83,-704.9 1516.94,-703.17"/>
<polygon fill="none" stroke="midnightblue" points="1019.66,-786.8 1010.04,-791.22 1020.32,-793.77 1019.66,-786.8"/>
</g>
<!-- Node2 -->
<g id="node2" class="node">
<title>Node2</title>
<g id="a_node2"><a xlink:href="classFeel_1_1JournalWatcher.html" target="_top" xlink:title=" ">
<polygon fill="white" stroke="#bfbfbf" points="736,-893.5 736,-1181.5 913,-1181.5 913,-893.5 736,-893.5"/>
<text text-anchor="middle" x="824.5" y="-1169.5" font-family="Helvetica,sans-Serif" font-size="10.00">Feel::JournalWatcher</text>
<polyline fill="none" stroke="#bfbfbf" points="736,-1162.5 913,-1162.5 "/>
<text text-anchor="middle" x="824.5" y="-1150.5" font-family="Helvetica,sans-Serif" font-size="10.00"> </text>
<polyline fill="none" stroke="#bfbfbf" points="736,-1143.5 913,-1143.5 "/>
<text text-anchor="start" x="744" y="-1131.5" font-family="Helvetica,sans-Serif" font-size="10.00">* M_journal_is_connected</text>
<text text-anchor="start" x="744" y="-1120.5" font-family="Helvetica,sans-Serif" font-size="10.00">* M_category</text>
<text text-anchor="start" x="744" y="-1109.5" font-family="Helvetica,sans-Serif" font-size="10.00">* M_name</text>
<text text-anchor="start" x="744" y="-1098.5" font-family="Helvetica,sans-Serif" font-size="10.00">* M_function_updateInformation</text>
<text text-anchor="start" x="744" y="-1087.5" font-family="Helvetica,sans-Serif" font-size="10.00">Object</text>
<text text-anchor="start" x="744" y="-1076.5" font-family="Helvetica,sans-Serif" font-size="10.00">* M_informationObject</text>
<text text-anchor="start" x="744" y="-1065.5" font-family="Helvetica,sans-Serif" font-size="10.00">* S_counterObjectByCategory</text>
<text text-anchor="start" x="744" y="-1054.5" font-family="Helvetica,sans-Serif" font-size="10.00">* JournalWatcher()</text>
<text text-anchor="start" x="744" y="-1043.5" font-family="Helvetica,sans-Serif" font-size="10.00">* JournalWatcher()</text>
<text text-anchor="start" x="744" y="-1032.5" font-family="Helvetica,sans-Serif" font-size="10.00">* JournalWatcher()</text>
<text text-anchor="start" x="744" y="-1021.5" font-family="Helvetica,sans-Serif" font-size="10.00">* JournalWatcher()</text>
<text text-anchor="start" x="744" y="-1010.5" font-family="Helvetica,sans-Serif" font-size="10.00">* ~JournalWatcher()</text>
<text text-anchor="start" x="744" y="-999.5" font-family="Helvetica,sans-Serif" font-size="10.00">* journalIsConnected()</text>
<text text-anchor="start" x="744" y="-988.5" font-family="Helvetica,sans-Serif" font-size="10.00">* journalWatcherInstanceName()</text>
<text text-anchor="start" x="744" y="-977.5" font-family="Helvetica,sans-Serif" font-size="10.00">* journalSection()</text>
<text text-anchor="start" x="744" y="-966.5" font-family="Helvetica,sans-Serif" font-size="10.00">* informationObject()</text>
<text text-anchor="start" x="744" y="-955.5" font-family="Helvetica,sans-Serif" font-size="10.00">* journalConnect()</text>
<text text-anchor="start" x="744" y="-944.5" font-family="Helvetica,sans-Serif" font-size="10.00">* journalDisconnect()</text>
<text text-anchor="start" x="744" y="-933.5" font-family="Helvetica,sans-Serif" font-size="10.00">* updateInformationObject()</text>
<text text-anchor="start" x="744" y="-922.5" font-family="Helvetica,sans-Serif" font-size="10.00">* setInformationObject()</text>
<text text-anchor="start" x="744" y="-911.5" font-family="Helvetica,sans-Serif" font-size="10.00">* putInformationObject()</text>
<text text-anchor="start" x="744" y="-900.5" font-family="Helvetica,sans-Serif" font-size="10.00">and 4 more...</text>
</a>
</g>
</g>
<!-- Node2&#45;&gt;Node1 -->
<g id="edge1" class="edge">
<title>Node2&#45;&gt;Node1</title>
<path fill="none" stroke="midnightblue" d="M882.35,-883.76C885.95,-874.25 889.42,-865.08 892.66,-856.53"/>
<polygon fill="none" stroke="midnightblue" points="878.98,-882.78 878.71,-893.37 885.52,-885.25 878.98,-882.78"/>
</g>
<!-- Node3 -->
<g id="node3" class="node">
<title>Node3</title>
<g id="a_node3"><a xlink:title=" ">
<polygon fill="white" stroke="#bfbfbf" points="771,-1218.5 771,-1275.5 878,-1275.5 878,-1218.5 771,-1218.5"/>
<text text-anchor="middle" x="824.5" y="-1263.5" font-family="Helvetica,sans-Serif" font-size="10.00">Event::SlotHandler</text>
<polyline fill="none" stroke="#bfbfbf" points="771,-1256.5 878,-1256.5 "/>
<text text-anchor="middle" x="824.5" y="-1244.5" font-family="Helvetica,sans-Serif" font-size="10.00"> </text>
<polyline fill="none" stroke="#bfbfbf" points="771,-1237.5 878,-1237.5 "/>
<text text-anchor="middle" x="824.5" y="-1225.5" font-family="Helvetica,sans-Serif" font-size="10.00"> </text>
</a>
</g>
</g>
<!-- Node3&#45;&gt;Node2 -->
<g id="edge2" class="edge">
<title>Node3&#45;&gt;Node2</title>
<path fill="none" stroke="midnightblue" d="M824.5,-1208.38C824.5,-1200.29 824.5,-1191.28 824.5,-1181.76"/>
<polygon fill="none" stroke="midnightblue" points="821,-1208.45 824.5,-1218.45 828,-1208.45 821,-1208.45"/>
</g>
<!-- Node4 -->
<g id="node4" class="node">
<title>Node4</title>
<g id="a_node4"><a xlink:title=" ">
<polygon fill="white" stroke="#bfbfbf" points="931,-1003.5 931,-1071.5 1076,-1071.5 1076,-1003.5 931,-1003.5"/>
<text text-anchor="start" x="939" y="-1059.5" font-family="Helvetica,sans-Serif" font-size="10.00">std::enable_shared</text>
<text text-anchor="middle" x="1003.5" y="-1048.5" font-family="Helvetica,sans-Serif" font-size="10.00">_from_this&lt; ModelBase &gt;</text>
<polyline fill="none" stroke="#bfbfbf" points="931,-1041.5 1076,-1041.5 "/>
<text text-anchor="middle" x="1003.5" y="-1029.5" font-family="Helvetica,sans-Serif" font-size="10.00"> </text>
<polyline fill="none" stroke="#bfbfbf" points="931,-1022.5 1076,-1022.5 "/>
<text text-anchor="middle" x="1003.5" y="-1010.5" font-family="Helvetica,sans-Serif" font-size="10.00"> </text>
</a>
</g>
</g>
<!-- Node4&#45;&gt;Node1 -->
<g id="edge3" class="edge">
<title>Node4&#45;&gt;Node1</title>
<path fill="none" stroke="midnightblue" d="M987.21,-993.97C972.48,-955.5 950.7,-898.63 934.63,-856.68"/>
<polygon fill="none" stroke="midnightblue" points="983.95,-995.24 990.8,-1003.33 990.49,-992.74 983.95,-995.24"/>
</g>
<!-- Node5&#45;&gt;Node6 -->
<g id="edge5" class="edge">
<title>Node5&#45;&gt;Node6</title>
<path fill="none" stroke="midnightblue" d="M597.5,-546.38C597.5,-532.65 597.5,-518.13 597.5,-503.78"/>
<polygon fill="none" stroke="midnightblue" points="594,-546.7 597.5,-556.7 601,-546.7 594,-546.7"/>
</g>
<!-- Node7 -->
<g id="node7" class="node">
<title>Node7</title>
<g id="a_node7"><a xlink:href="classFeel_1_1FeelModels_1_1Electric.html" target="_top" xlink:title="Toolbox Electric.">
<polygon fill="white" stroke="black" points="647,-50 647,-206 844,-206 844,-50 647,-50"/>
<text text-anchor="start" x="655" y="-194" font-family="Helvetica,sans-Serif" font-size="10.00">Feel::FeelModels::Electric</text>
<text text-anchor="middle" x="745.5" y="-183" font-family="Helvetica,sans-Serif" font-size="10.00">&lt; ConvexType, BasisPotentialType &gt;</text>
<polyline fill="none" stroke="black" points="647,-176 844,-176 "/>
<text text-anchor="start" x="655" y="-164" font-family="Helvetica,sans-Serif" font-size="10.00">+ nDim</text>
<text text-anchor="start" x="655" y="-153" font-family="Helvetica,sans-Serif" font-size="10.00">+ nOrderGeo</text>
<text text-anchor="start" x="655" y="-142" font-family="Helvetica,sans-Serif" font-size="10.00">+ nOrderPolyElectricPotential</text>
<text text-anchor="start" x="655" y="-131" font-family="Helvetica,sans-Serif" font-size="10.00">+ nRealDim</text>
<polyline fill="none" stroke="black" points="647,-124 844,-124 "/>
<text text-anchor="start" x="655" y="-112" font-family="Helvetica,sans-Serif" font-size="10.00">+ buildBlockMatrixGraph()</text>
<text text-anchor="start" x="655" y="-101" font-family="Helvetica,sans-Serif" font-size="10.00">+ currentDensityExpr()</text>
<text text-anchor="start" x="655" y="-90" font-family="Helvetica,sans-Serif" font-size="10.00">+ currentDensityExpr()</text>
<text text-anchor="start" x="655" y="-79" font-family="Helvetica,sans-Serif" font-size="10.00">+ Electric()</text>
<text text-anchor="start" x="655" y="-68" font-family="Helvetica,sans-Serif" font-size="10.00">+ electricFieldExpr()</text>
<text text-anchor="start" x="655" y="-57" font-family="Helvetica,sans-Serif" font-size="10.00">and 51 more...</text>
</a>
</g>
</g>
<!-- Node6&#45;&gt;Node7 -->
<g id="edge6" class="edge">
<title>Node6&#45;&gt;Node7</title>
<path fill="none" stroke="midnightblue" d="M660.2,-283.46C674.57,-257.45 689.51,-230.38 702.8,-206.31"/>
<polygon fill="none" stroke="midnightblue" points="657.13,-281.79 655.36,-292.23 663.25,-285.17 657.13,-281.79"/>
</g>
<!-- Node8 -->
<g id="node8" class="node">
<title>Node8</title>
<g id="a_node8"><a xlink:href="classFeel_1_1FeelModels_1_1FluidMechanics.html" target="_top" xlink:title="Fluid Mechanics Toolbox.">
<polygon fill="white" stroke="black" points="0,-11.5 0,-244.5 191,-244.5 191,-11.5 0,-11.5"/>
<text text-anchor="start" x="8" y="-232.5" font-family="Helvetica,sans-Serif" font-size="10.00">Feel::FeelModels::FluidMechanics</text>
<text text-anchor="start" x="8" y="-221.5" font-family="Helvetica,sans-Serif" font-size="10.00">&lt; ConvexType, BasisVelocityType,</text>
<text text-anchor="middle" x="95.5" y="-210.5" font-family="Helvetica,sans-Serif" font-size="10.00"> BasisPressureType &gt;</text>
<polyline fill="none" stroke="black" points="0,-203.5 191,-203.5 "/>
<text text-anchor="start" x="8" y="-191.5" font-family="Helvetica,sans-Serif" font-size="10.00">+ nDim</text>
<text text-anchor="start" x="8" y="-180.5" font-family="Helvetica,sans-Serif" font-size="10.00">+ nOrderGeo</text>
<text text-anchor="start" x="8" y="-169.5" font-family="Helvetica,sans-Serif" font-size="10.00">+ nOrderPressure</text>
<text text-anchor="start" x="8" y="-158.5" font-family="Helvetica,sans-Serif" font-size="10.00">+ nOrderVelocity</text>
<text text-anchor="start" x="8" y="-147.5" font-family="Helvetica,sans-Serif" font-size="10.00">+ nRealDim</text>
<text text-anchor="start" x="8" y="-136.5" font-family="Helvetica,sans-Serif" font-size="10.00">+ useMixedBasis</text>
<polyline fill="none" stroke="black" points="0,-129.5 191,-129.5 "/>
<text text-anchor="start" x="8" y="-117.5" font-family="Helvetica,sans-Serif" font-size="10.00">+ addUpdateInHousePreconditioner</text>
<text text-anchor="start" x="8" y="-106.5" font-family="Helvetica,sans-Serif" font-size="10.00">PCD()</text>
<text text-anchor="start" x="8" y="-95.5" font-family="Helvetica,sans-Serif" font-size="10.00">+ applyCIPStabOnlyOnBoundary</text>
<text text-anchor="start" x="8" y="-84.5" font-family="Helvetica,sans-Serif" font-size="10.00">Faces()</text>
<text text-anchor="start" x="8" y="-73.5" font-family="Helvetica,sans-Serif" font-size="10.00">+ applyCIPStabOnlyOnBoundary</text>
<text text-anchor="start" x="8" y="-62.5" font-family="Helvetica,sans-Serif" font-size="10.00">Faces()</text>
<text text-anchor="start" x="8" y="-51.5" font-family="Helvetica,sans-Serif" font-size="10.00">+ applyMovingMeshBeforeSolve()</text>
<text text-anchor="start" x="8" y="-40.5" font-family="Helvetica,sans-Serif" font-size="10.00">+ applyRemesh()</text>
<text text-anchor="start" x="8" y="-29.5" font-family="Helvetica,sans-Serif" font-size="10.00">and 193 more...</text>
<text text-anchor="start" x="8" y="-18.5" font-family="Helvetica,sans-Serif" font-size="10.00">+ New()</text>
</a>
</g>
</g>
<!-- Node6&#45;&gt;Node8 -->
<g id="edge7" class="edge">
<title>Node6&#45;&gt;Node8</title>
<path fill="none" stroke="midnightblue" d="M487.44,-292.45C487.13,-292.3 486.81,-292.15 486.5,-292 370.26,-237.1 312.03,-318.16 199.5,-256 193.51,-252.69 187.73,-248.89 182.18,-244.71"/>
<polygon fill="none" stroke="midnightblue" points="485.98,-295.63 496.46,-297.16 489.22,-289.43 485.98,-295.63"/>
</g>
<!-- Node9 -->
<g id="node9" class="node">
<title>Node9</title>
<g id="a_node9"><a xlink:href="classFeel_1_1FeelModels_1_1Heat.html" target="_top" xlink:title=" ">
<polygon fill="white" stroke="#bfbfbf" points="209,-0.5 209,-255.5 390,-255.5 390,-0.5 209,-0.5"/>
<text text-anchor="start" x="217" y="-243.5" font-family="Helvetica,sans-Serif" font-size="10.00">Feel::FeelModels::Heat</text>
<text text-anchor="start" x="217" y="-232.5" font-family="Helvetica,sans-Serif" font-size="10.00">&lt; ConvexType, BasisTemperature</text>
<text text-anchor="middle" x="299.5" y="-221.5" font-family="Helvetica,sans-Serif" font-size="10.00">Type &gt;</text>
<polyline fill="none" stroke="#bfbfbf" points="209,-214.5 390,-214.5 "/>
<text text-anchor="start" x="217" y="-202.5" font-family="Helvetica,sans-Serif" font-size="10.00">+ nDim</text>
<text text-anchor="start" x="217" y="-191.5" font-family="Helvetica,sans-Serif" font-size="10.00">+ nOrderGeo</text>
<text text-anchor="start" x="217" y="-180.5" font-family="Helvetica,sans-Serif" font-size="10.00">+ nOrderPoly</text>
<text text-anchor="start" x="217" y="-169.5" font-family="Helvetica,sans-Serif" font-size="10.00">+ nOrderTemperature</text>
<text text-anchor="start" x="217" y="-158.5" font-family="Helvetica,sans-Serif" font-size="10.00">+ nRealDim</text>
<text text-anchor="start" x="217" y="-147.5" font-family="Helvetica,sans-Serif" font-size="10.00"># M_bdfTemperature</text>
<text text-anchor="start" x="217" y="-136.5" font-family="Helvetica,sans-Serif" font-size="10.00"># M_boundaryConditions</text>
<text text-anchor="start" x="217" y="-125.5" font-family="Helvetica,sans-Serif" font-size="10.00"># M_currentParameterValues</text>
<text text-anchor="start" x="217" y="-114.5" font-family="Helvetica,sans-Serif" font-size="10.00"># M_exporter</text>
<text text-anchor="start" x="217" y="-103.5" font-family="Helvetica,sans-Serif" font-size="10.00"># M_fieldTemperature</text>
<text text-anchor="start" x="217" y="-92.5" font-family="Helvetica,sans-Serif" font-size="10.00">and 13 more...</text>
<polyline fill="none" stroke="#bfbfbf" points="209,-85.5 390,-85.5 "/>
<text text-anchor="start" x="217" y="-73.5" font-family="Helvetica,sans-Serif" font-size="10.00">+ applyRemesh()</text>
<text text-anchor="start" x="217" y="-62.5" font-family="Helvetica,sans-Serif" font-size="10.00">+ buildBlockMatrixGraph()</text>
<text text-anchor="start" x="217" y="-51.5" font-family="Helvetica,sans-Serif" font-size="10.00">+ checkResults()</text>
<text text-anchor="start" x="217" y="-40.5" font-family="Helvetica,sans-Serif" font-size="10.00">+ executePostProcessMeasures()</text>
<text text-anchor="start" x="217" y="-29.5" font-family="Helvetica,sans-Serif" font-size="10.00">+ exportResults()</text>
<text text-anchor="start" x="217" y="-18.5" font-family="Helvetica,sans-Serif" font-size="10.00">and 64 more...</text>
<text text-anchor="start" x="217" y="-7.5" font-family="Helvetica,sans-Serif" font-size="10.00">+ New()</text>
</a>
</g>
</g>
<!-- Node6&#45;&gt;Node9 -->
<g id="edge8" class="edge">
<title>Node6&#45;&gt;Node9</title>
<path fill="none" stroke="midnightblue" d="M488.07,-293.02C487.54,-292.68 487.02,-292.34 486.5,-292 450.99,-269.09 432.18,-281.52 398.5,-256 395.71,-253.89 392.97,-251.68 390.26,-249.39"/>
<polygon fill="none" stroke="midnightblue" points="486.26,-296.02 496.49,-298.77 490.21,-290.24 486.26,-296.02"/>
</g>
<!-- Node10 -->
<g id="node10" class="node">
<title>Node10</title>
<g id="a_node10"><a xlink:href="classFeel_1_1FeelModels_1_1SolidMechanics.html" target="_top" xlink:title="Solid Mechanics Toolbox.">
<polygon fill="white" stroke="black" points="408,-33.5 408,-222.5 629,-222.5 629,-33.5 408,-33.5"/>
<text text-anchor="start" x="416" y="-210.5" font-family="Helvetica,sans-Serif" font-size="10.00">Feel::FeelModels::SolidMechanics</text>
<text text-anchor="middle" x="518.5" y="-199.5" font-family="Helvetica,sans-Serif" font-size="10.00">&lt; ConvexType, BasisDisplacementType &gt;</text>
<polyline fill="none" stroke="black" points="408,-192.5 629,-192.5 "/>
<text text-anchor="start" x="416" y="-180.5" font-family="Helvetica,sans-Serif" font-size="10.00">+ nDim</text>
<text text-anchor="start" x="416" y="-169.5" font-family="Helvetica,sans-Serif" font-size="10.00">+ nOrder</text>
<text text-anchor="start" x="416" y="-158.5" font-family="Helvetica,sans-Serif" font-size="10.00">+ nOrderDisplacement</text>
<text text-anchor="start" x="416" y="-147.5" font-family="Helvetica,sans-Serif" font-size="10.00">+ nOrderGeo</text>
<text text-anchor="start" x="416" y="-136.5" font-family="Helvetica,sans-Serif" font-size="10.00">+ nOrderPressure</text>
<text text-anchor="start" x="416" y="-125.5" font-family="Helvetica,sans-Serif" font-size="10.00">+ nRealDim</text>
<polyline fill="none" stroke="black" points="408,-118.5 629,-118.5 "/>
<text text-anchor="start" x="416" y="-106.5" font-family="Helvetica,sans-Serif" font-size="10.00">+ blockPattern()</text>
<text text-anchor="start" x="416" y="-95.5" font-family="Helvetica,sans-Serif" font-size="10.00">+ buildBlockMatrixGraph()</text>
<text text-anchor="start" x="416" y="-84.5" font-family="Helvetica,sans-Serif" font-size="10.00">+ computeExtremumValue()</text>
<text text-anchor="start" x="416" y="-73.5" font-family="Helvetica,sans-Serif" font-size="10.00">+ computeVolumeVariation()</text>
<text text-anchor="start" x="416" y="-62.5" font-family="Helvetica,sans-Serif" font-size="10.00">+ couplingFSIcondition()</text>
<text text-anchor="start" x="416" y="-51.5" font-family="Helvetica,sans-Serif" font-size="10.00">and 108 more...</text>
<text text-anchor="start" x="416" y="-40.5" font-family="Helvetica,sans-Serif" font-size="10.00">+ New()</text>
</a>
</g>
</g>
<!-- Node6&#45;&gt;Node10 -->
<g id="edge9" class="edge">
<title>Node6&#45;&gt;Node10</title>
<path fill="none" stroke="midnightblue" d="M563.75,-282.51C557.88,-262.59 551.83,-242.07 546.15,-222.79"/>
<polygon fill="none" stroke="midnightblue" points="560.43,-283.63 566.62,-292.23 567.15,-281.65 560.43,-283.63"/>
</g>
<!-- Node11 -->
<g id="node11" class="node">
<title>Node11</title>
<g id="a_node11"><a xlink:href="classFeel_1_1FeelModels_1_1SolidMechanics1dReduced.html" target="_top" xlink:title=" ">
<polygon fill="white" stroke="#bfbfbf" points="862,-50 862,-206 1125,-206 1125,-50 862,-50"/>
<text text-anchor="start" x="870" y="-194" font-family="Helvetica,sans-Serif" font-size="10.00">Feel::FeelModels::SolidMechanics1d</text>
<text text-anchor="middle" x="993.5" y="-183" font-family="Helvetica,sans-Serif" font-size="10.00">Reduced&lt; ConvexType, BasisDisplacementType &gt;</text>
<polyline fill="none" stroke="#bfbfbf" points="862,-176 1125,-176 "/>
<text text-anchor="start" x="870" y="-164" font-family="Helvetica,sans-Serif" font-size="10.00">+ nDim</text>
<text text-anchor="start" x="870" y="-153" font-family="Helvetica,sans-Serif" font-size="10.00">+ nOrderDisplacement</text>
<text text-anchor="start" x="870" y="-142" font-family="Helvetica,sans-Serif" font-size="10.00">+ nOrderGeo</text>
<text text-anchor="start" x="870" y="-131" font-family="Helvetica,sans-Serif" font-size="10.00">+ nRealDim</text>
<polyline fill="none" stroke="#bfbfbf" points="862,-124 1125,-124 "/>
<text text-anchor="start" x="870" y="-112" font-family="Helvetica,sans-Serif" font-size="10.00">+ buildBlockMatrixGraph()</text>
<text text-anchor="start" x="870" y="-101" font-family="Helvetica,sans-Serif" font-size="10.00">+ exportResults()</text>
<text text-anchor="start" x="870" y="-90" font-family="Helvetica,sans-Serif" font-size="10.00">+ exportResults()</text>
<text text-anchor="start" x="870" y="-79" font-family="Helvetica,sans-Serif" font-size="10.00">+ exprPostProcessExports()</text>
<text text-anchor="start" x="870" y="-68" font-family="Helvetica,sans-Serif" font-size="10.00">+ extendVelocity1dReducedVectorial()</text>
<text text-anchor="start" x="870" y="-57" font-family="Helvetica,sans-Serif" font-size="10.00">and 39 more...</text>
</a>
</g>
</g>
<!-- Node6&#45;&gt;Node11 -->
<g id="edge10" class="edge">
<title>Node6&#45;&gt;Node11</title>
<path fill="none" stroke="midnightblue" d="M707.89,-343.03C754.03,-318.69 807.31,-288.2 852.5,-256 873.43,-241.09 894.69,-223.47 914.14,-206.18"/>
<polygon fill="none" stroke="midnightblue" points="706,-340.07 698.76,-347.81 709.25,-346.27 706,-340.07"/>
</g>
<!-- Node12&#45;&gt;Node7 -->
<g id="edge12" class="edge">
<title>Node12&#45;&gt;Node7</title>
<path fill="none" stroke="midnightblue" d="M465.78,-307.45C472.71,-301.71 479.98,-296.46 487.5,-292 546.46,-257.02 579.08,-291.88 637.5,-256 658.46,-243.12 677.41,-224.8 693.37,-206.06"/>
<polygon fill="none" stroke="midnightblue" points="463.05,-305.18 457.79,-314.38 467.64,-310.47 463.05,-305.18"/>
</g>
<!-- Node12&#45;&gt;Node8 -->
<g id="edge13" class="edge">
<title>Node12&#45;&gt;Node8</title>
<path fill="none" stroke="midnightblue" d="M298.44,-335.53C265.7,-312.29 229.65,-284.53 199.5,-256 195.67,-252.38 191.85,-248.61 188.06,-244.75"/>
<polygon fill="none" stroke="midnightblue" points="296.5,-338.44 306.69,-341.33 300.53,-332.71 296.5,-338.44"/>
</g>
<!-- Node12&#45;&gt;Node9 -->
<g id="edge14" class="edge">
<title>Node12&#45;&gt;Node9</title>
<path fill="none" stroke="midnightblue" d="M360.46,-304.68C354.98,-288.87 349.19,-272.2 343.46,-255.67"/>
<polygon fill="none" stroke="midnightblue" points="357.25,-306.1 363.84,-314.4 363.87,-303.81 357.25,-306.1"/>
</g>
<!-- Node12&#45;&gt;Node10 -->
<g id="edge15" class="edge">
<title>Node12&#45;&gt;Node10</title>
<path fill="none" stroke="midnightblue" d="M435.71,-305.09C448.24,-278.44 461.94,-249.31 474.51,-222.56"/>
<polygon fill="none" stroke="midnightblue" points="432.42,-303.87 431.33,-314.4 438.75,-306.84 432.42,-303.87"/>
</g>
<!-- Node13&#45;&gt;Node11 -->
<g id="edge17" class="edge">
<title>Node13&#45;&gt;Node11</title>
<path fill="none" stroke="midnightblue" d="M967.36,-304.17C972.12,-272.24 977.4,-236.85 981.96,-206.29"/>
<polygon fill="none" stroke="midnightblue" points="963.84,-304 965.83,-314.4 970.77,-305.03 963.84,-304"/>
</g>
<!-- Node16&#45;&gt;Node6 -->
<g id="edge21" class="edge">
<title>Node16&#45;&gt;Node6</title>
<path fill="none" stroke="midnightblue" d="M739.83,-560.02C724.35,-542.5 707.11,-523 690.12,-503.78"/>
<polygon fill="none" stroke="midnightblue" points="737.56,-562.74 746.81,-567.92 742.81,-558.11 737.56,-562.74"/>
</g>
<!-- Node19 -->
<g id="node19" class="node">
<title>Node19</title>
<g id="a_node19"><a xlink:href="classFeel_1_1FeelModels_1_1ModelGenericPDE.html" target="_top" xlink:title="Generic PDE Model class.">
<polygon fill="white" stroke="black" points="1516.5,-336.5 1516.5,-459.5 1688.5,-459.5 1688.5,-336.5 1516.5,-336.5"/>
<text text-anchor="start" x="1524.5" y="-447.5" font-family="Helvetica,sans-Serif" font-size="10.00">Feel::FeelModels::ModelGeneric</text>
<text text-anchor="middle" x="1602.5" y="-436.5" font-family="Helvetica,sans-Serif" font-size="10.00">PDE&lt; Dim &gt;</text>
<polyline fill="none" stroke="black" points="1516.5,-429.5 1688.5,-429.5 "/>
<text text-anchor="middle" x="1602.5" y="-417.5" font-family="Helvetica,sans-Serif" font-size="10.00"> </text>
<polyline fill="none" stroke="black" points="1516.5,-410.5 1688.5,-410.5 "/>
<text text-anchor="start" x="1524.5" y="-398.5" font-family="Helvetica,sans-Serif" font-size="10.00">+ equationName()</text>
<text text-anchor="start" x="1524.5" y="-387.5" font-family="Helvetica,sans-Serif" font-size="10.00">+ ModelGenericPDE()</text>
<text text-anchor="start" x="1524.5" y="-376.5" font-family="Helvetica,sans-Serif" font-size="10.00">+ ModelGenericPDE()</text>
<text text-anchor="start" x="1524.5" y="-365.5" font-family="Helvetica,sans-Serif" font-size="10.00">+ ModelGenericPDE()</text>
<text text-anchor="start" x="1524.5" y="-354.5" font-family="Helvetica,sans-Serif" font-size="10.00">+ physic()</text>
<text text-anchor="start" x="1524.5" y="-343.5" font-family="Helvetica,sans-Serif" font-size="10.00">and 3 more...</text>
</a>
</g>
</g>
<!-- Node18&#45;&gt;Node19 -->
<g id="edge25" class="edge">
<title>Node18&#45;&gt;Node19</title>
<path fill="none" stroke="midnightblue" d="M1602.5,-530.13C1602.5,-506.36 1602.5,-481.41 1602.5,-459.73"/>
<polygon fill="none" stroke="midnightblue" points="1599,-530.23 1602.5,-540.23 1606,-530.23 1599,-530.23"/>
</g>
</g>
</svg>
