<?xml version="1.0" encoding="UTF-8" standalone="no"?>
<!DOCTYPE svg PUBLIC "-//W3C//DTD SVG 1.1//EN"
 "http://www.w3.org/Graphics/SVG/1.1/DTD/svg11.dtd">
<!-- Generated by graphviz version 2.43.0 (0)
 -->
<!-- Title: Feel::ExpressionEvaluator&lt; EltT, ExprT &gt; Pages: 1 -->
<svg width="670pt" height="408pt"
 viewBox="0.00 0.00 670.00 408.00" xmlns="http://www.w3.org/2000/svg" xmlns:xlink="http://www.w3.org/1999/xlink">
<g id="graph0" class="graph" transform="scale(1 1) rotate(0) translate(4 404)">
<title>Feel::ExpressionEvaluator&lt; EltT, ExprT &gt;</title>
<polygon fill="white" stroke="transparent" points="-4,4 -4,-404 666,-404 666,4 -4,4"/>
<!-- Node1 -->
<g id="node1" class="node">
<title>Node1</title>
<g id="a_node1"><a xlink:title=" ">
<polygon fill="#bfbfbf" stroke="black" points="236,-0.5 236,-123.5 379,-123.5 379,-0.5 236,-0.5"/>
<text text-anchor="start" x="244" y="-111.5" font-family="Helvetica,sans-Serif" font-size="10.00">Feel::ExpressionEvaluator</text>
<text text-anchor="middle" x="307.5" y="-100.5" font-family="Helvetica,sans-Serif" font-size="10.00">&lt; EltT, ExprT &gt;</text>
<polyline fill="none" stroke="black" points="236,-93.5 379,-93.5 "/>
<text text-anchor="middle" x="307.5" y="-81.5" font-family="Helvetica,sans-Serif" font-size="10.00"> </text>
<polyline fill="none" stroke="black" points="236,-74.5 379,-74.5 "/>
<text text-anchor="start" x="244" y="-62.5" font-family="Helvetica,sans-Serif" font-size="10.00">+ eval()</text>
<text text-anchor="start" x="244" y="-51.5" font-family="Helvetica,sans-Serif" font-size="10.00">+ expression()</text>
<text text-anchor="start" x="244" y="-40.5" font-family="Helvetica,sans-Serif" font-size="10.00">+ ExpressionEvaluator()</text>
<text text-anchor="start" x="244" y="-29.5" font-family="Helvetica,sans-Serif" font-size="10.00">+ init()</text>
<text text-anchor="start" x="244" y="-18.5" font-family="Helvetica,sans-Serif" font-size="10.00">+ nPoints()</text>
<text text-anchor="start" x="244" y="-7.5" font-family="Helvetica,sans-Serif" font-size="10.00">and 4 more...</text>
</a>
</g>
</g>
<!-- Node2 -->
<g id="node2" class="node">
<title>Node2</title>
<g id="a_node2"><a xlink:href="classFeel_1_1ExpressionEvaluatorBase.html" target="_top" xlink:title=" ">
<polygon fill="white" stroke="#bfbfbf" points="0,-171.5 0,-294.5 159,-294.5 159,-171.5 0,-171.5"/>
<text text-anchor="start" x="8" y="-282.5" font-family="Helvetica,sans-Serif" font-size="10.00">Feel::ExpressionEvaluator</text>
<text text-anchor="middle" x="79.5" y="-271.5" font-family="Helvetica,sans-Serif" font-size="10.00">Base&lt; EltT &gt;</text>
<polyline fill="none" stroke="#bfbfbf" points="0,-264.5 159,-264.5 "/>
<text text-anchor="middle" x="79.5" y="-252.5" font-family="Helvetica,sans-Serif" font-size="10.00"> </text>
<polyline fill="none" stroke="#bfbfbf" points="0,-245.5 159,-245.5 "/>
<text text-anchor="start" x="8" y="-233.5" font-family="Helvetica,sans-Serif" font-size="10.00">+ component()</text>
<text text-anchor="start" x="8" y="-222.5" font-family="Helvetica,sans-Serif" font-size="10.00">+ eval()</text>
<text text-anchor="start" x="8" y="-211.5" font-family="Helvetica,sans-Serif" font-size="10.00">+ ExpressionEvaluatorBase()</text>
<text text-anchor="start" x="8" y="-200.5" font-family="Helvetica,sans-Serif" font-size="10.00">+ init()</text>
<text text-anchor="start" x="8" y="-189.5" font-family="Helvetica,sans-Serif" font-size="10.00">+ nPoints()</text>
<text text-anchor="start" x="8" y="-178.5" font-family="Helvetica,sans-Serif" font-size="10.00">and 4 more...</text>
</a>
</g>
</g>
<!-- Node2&#45;&gt;Node1 -->
<g id="edge1" class="edge">
<title>Node2&#45;&gt;Node1</title>
<path fill="none" stroke="midnightblue" d="M167.5,-166.77C190.1,-150.02 214.14,-132.2 235.8,-116.15"/>
<polygon fill="none" stroke="midnightblue" points="165.19,-164.13 159.24,-172.89 169.36,-169.75 165.19,-164.13"/>
</g>
<!-- Node3 -->
<g id="node3" class="node">
<title>Node3</title>
<g id="a_node3"><a xlink:href="classEltT.html" target="_top" xlink:title=" ">
<polygon fill="white" stroke="#bfbfbf" points="24,-342.5 24,-399.5 59,-399.5 59,-342.5 24,-342.5"/>
<text text-anchor="middle" x="41.5" y="-387.5" font-family="Helvetica,sans-Serif" font-size="10.00">EltT</text>
<polyline fill="none" stroke="#bfbfbf" points="24,-380.5 59,-380.5 "/>
<text text-anchor="middle" x="41.5" y="-368.5" font-family="Helvetica,sans-Serif" font-size="10.00"> </text>
<polyline fill="none" stroke="#bfbfbf" points="24,-361.5 59,-361.5 "/>
<text text-anchor="middle" x="41.5" y="-349.5" font-family="Helvetica,sans-Serif" font-size="10.00"> </text>
</a>
</g>
</g>
<!-- Node3&#45;&gt;Node2 -->
<g id="edge2" class="edge">
<title>Node3&#45;&gt;Node2</title>
<path fill="none" stroke="#404040" d="M39.67,-342.46C39.65,-333.02 40.31,-322.45 42.5,-313 43,-310.83 43.57,-308.64 44.2,-306.45"/>
<polygon fill="none" stroke="#404040" points="44.29,-306.18 42.35,-299.23 48.01,-294.77 49.95,-301.72 44.29,-306.18"/>
<text text-anchor="middle" x="69.5" y="-316" font-family="Helvetica,sans-Serif" font-size="10.00"> #M_range</text>
</g>
<!-- Node4 -->
<g id="node4" class="node">
<title>Node4</title>
<g id="a_node4"><a xlink:href="classint.html" target="_top" xlink:title=" ">
<polygon fill="white" stroke="#bfbfbf" points="104,-342.5 104,-399.5 133,-399.5 133,-342.5 104,-342.5"/>
<text text-anchor="middle" x="118.5" y="-387.5" font-family="Helvetica,sans-Serif" font-size="10.00">int</text>
<polyline fill="none" stroke="#bfbfbf" points="104,-380.5 133,-380.5 "/>
<text text-anchor="middle" x="118.5" y="-368.5" font-family="Helvetica,sans-Serif" font-size="10.00"> </text>
<polyline fill="none" stroke="#bfbfbf" points="104,-361.5 133,-361.5 "/>
<text text-anchor="middle" x="118.5" y="-349.5" font-family="Helvetica,sans-Serif" font-size="10.00"> </text>
</a>
</g>
</g>
<!-- Node4&#45;&gt;Node2 -->
<g id="edge3" class="edge">
<title>Node4&#45;&gt;Node2</title>
<path fill="none" stroke="#404040" d="M110.61,-342.48C107.57,-331.9 103.95,-319.27 100.27,-306.42"/>
<polygon fill="none" stroke="#404040" points="100.19,-306.16 94.69,-301.49 96.88,-294.62 102.38,-299.29 100.19,-306.16"/>
<text text-anchor="middle" x="132" y="-316" font-family="Helvetica,sans-Serif" font-size="10.00"> #M_comp</text>
</g>
<!-- Node5 -->
<g id="node5" class="node">
<title>Node5</title>
<g id="a_node5"><a xlink:title=" ">
<polygon fill="white" stroke="#bfbfbf" points="176.5,-204.5 176.5,-261.5 220.5,-261.5 220.5,-204.5 176.5,-204.5"/>
<text text-anchor="middle" x="198.5" y="-249.5" font-family="Helvetica,sans-Serif" font-size="10.00">ExprT</text>
<polyline fill="none" stroke="#bfbfbf" points="176.5,-242.5 220.5,-242.5 "/>
<text text-anchor="middle" x="198.5" y="-230.5" font-family="Helvetica,sans-Serif" font-size="10.00"> </text>
<polyline fill="none" stroke="#bfbfbf" points="176.5,-223.5 220.5,-223.5 "/>
<text text-anchor="middle" x="198.5" y="-211.5" font-family="Helvetica,sans-Serif" font-size="10.00"> </text>
</a>
</g>
</g>
<!-- Node5&#45;&gt;Node1 -->
<g id="edge4" class="edge">
<title>Node5&#45;&gt;Node1</title>
<path fill="none" stroke="#404040" d="M211.35,-204.48C216.62,-193.82 223,-181.65 229.5,-171 237.03,-158.66 245.53,-145.91 254.08,-133.68"/>
<polygon fill="none" stroke="#404040" points="254.32,-133.35 254.52,-126.14 261.26,-123.55 261.05,-130.76 254.32,-133.35"/>
<text text-anchor="middle" x="271.5" y="-145" font-family="Helvetica,sans-Serif" font-size="10.00"> +M_expr</text>
</g>
<!-- Node6 -->
<g id="node6" class="node">
<title>Node6</title>
<g id="a_node6"><a xlink:title=" ">
<polygon fill="white" stroke="black" points="239,-199 239,-267 376,-267 376,-199 239,-199"/>
<text text-anchor="start" x="247" y="-255" font-family="Helvetica,sans-Serif" font-size="10.00">std::shared_ptr&lt; context</text>
<text text-anchor="middle" x="307.5" y="-244" font-family="Helvetica,sans-Serif" font-size="10.00">_type &gt;</text>
<polyline fill="none" stroke="black" points="239,-237 376,-237 "/>
<text text-anchor="middle" x="307.5" y="-225" font-family="Helvetica,sans-Serif" font-size="10.00"> </text>
<polyline fill="none" stroke="black" points="239,-218 376,-218 "/>
<text text-anchor="start" x="247" y="-206" font-family="Helvetica,sans-Serif" font-size="10.00">+ operator&#45;&gt;()</text>
</a>
</g>
</g>
<!-- Node6&#45;&gt;Node1 -->
<g id="edge5" class="edge">
<title>Node6&#45;&gt;Node1</title>
<path fill="none" stroke="#404040" d="M307.5,-198.61C307.5,-180.59 307.5,-157.61 307.5,-135.7"/>
<polygon fill="none" stroke="#404040" points="307.5,-135.68 303.5,-129.68 307.5,-123.68 311.5,-129.68 307.5,-135.68"/>
<text text-anchor="middle" x="328" y="-145" font-family="Helvetica,sans-Serif" font-size="10.00"> #M_ctx</text>
</g>
<!-- Node7 -->
<g id="node7" class="node">
<title>Node7</title>
<g id="a_node7"><a xlink:title=" ">
<polygon fill="white" stroke="#bfbfbf" points="267.5,-342.5 267.5,-399.5 347.5,-399.5 347.5,-342.5 267.5,-342.5"/>
<text text-anchor="middle" x="307.5" y="-387.5" font-family="Helvetica,sans-Serif" font-size="10.00">context_type</text>
<polyline fill="none" stroke="#bfbfbf" points="267.5,-380.5 347.5,-380.5 "/>
<text text-anchor="middle" x="307.5" y="-368.5" font-family="Helvetica,sans-Serif" font-size="10.00"> </text>
<polyline fill="none" stroke="#bfbfbf" points="267.5,-361.5 347.5,-361.5 "/>
<text text-anchor="middle" x="307.5" y="-349.5" font-family="Helvetica,sans-Serif" font-size="10.00"> </text>
</a>
</g>
</g>
<!-- Node7&#45;&gt;Node6 -->
<g id="edge6" class="edge">
<title>Node7&#45;&gt;Node6</title>
<path fill="none" stroke="#404040" d="M307.5,-342.48C307.5,-324.4 307.5,-300.31 307.5,-279.43"/>
<polygon fill="none" stroke="#404040" points="307.5,-279.25 303.5,-273.25 307.5,-267.25 311.5,-273.25 307.5,-279.25"/>
<text text-anchor="middle" x="320" y="-316" font-family="Helvetica,sans-Serif" font-size="10.00"> +ptr</text>
</g>
<!-- Node8 -->
<g id="node8" class="node">
<title>Node8</title>
<g id="a_node8"><a xlink:title=" ">
<polygon fill="white" stroke="black" points="394,-199 394,-267 541,-267 541,-199 394,-199"/>
<text text-anchor="start" x="402" y="-255" font-family="Helvetica,sans-Serif" font-size="10.00">std::shared_ptr&lt; evaluator</text>
<text text-anchor="middle" x="467.5" y="-244" font-family="Helvetica,sans-Serif" font-size="10.00">_type &gt;</text>
<polyline fill="none" stroke="black" points="394,-237 541,-237 "/>
<text text-anchor="middle" x="467.5" y="-225" font-family="Helvetica,sans-Serif" font-size="10.00"> </text>
<polyline fill="none" stroke="black" points="394,-218 541,-218 "/>
<text text-anchor="start" x="402" y="-206" font-family="Helvetica,sans-Serif" font-size="10.00">+ operator&#45;&gt;()</text>
</a>
</g>
</g>
<!-- Node8&#45;&gt;Node1 -->
<g id="edge7" class="edge">
<title>Node8&#45;&gt;Node1</title>
<path fill="none" stroke="#404040" d="M435.89,-198.61C418.04,-179.76 395.04,-155.47 373.46,-132.67"/>
<polygon fill="none" stroke="#404040" points="373.2,-132.4 366.17,-130.79 364.95,-123.68 371.98,-125.29 373.2,-132.4"/>
<text text-anchor="middle" x="428" y="-145" font-family="Helvetica,sans-Serif" font-size="10.00"> #M_evaluator</text>
</g>
<!-- Node9 -->
<g id="node9" class="node">
<title>Node9</title>
<g id="a_node9"><a xlink:title=" ">
<polygon fill="white" stroke="#bfbfbf" points="422.5,-342.5 422.5,-399.5 512.5,-399.5 512.5,-342.5 422.5,-342.5"/>
<text text-anchor="middle" x="467.5" y="-387.5" font-family="Helvetica,sans-Serif" font-size="10.00">evaluator_type</text>
<polyline fill="none" stroke="#bfbfbf" points="422.5,-380.5 512.5,-380.5 "/>
<text text-anchor="middle" x="467.5" y="-368.5" font-family="Helvetica,sans-Serif" font-size="10.00"> </text>
<polyline fill="none" stroke="#bfbfbf" points="422.5,-361.5 512.5,-361.5 "/>
<text text-anchor="middle" x="467.5" y="-349.5" font-family="Helvetica,sans-Serif" font-size="10.00"> </text>
</a>
</g>
</g>
<!-- Node9&#45;&gt;Node8 -->
<g id="edge8" class="edge">
<title>Node9&#45;&gt;Node8</title>
<path fill="none" stroke="#404040" d="M467.5,-342.48C467.5,-324.4 467.5,-300.31 467.5,-279.43"/>
<polygon fill="none" stroke="#404040" points="467.5,-279.25 463.5,-273.25 467.5,-267.25 471.5,-273.25 467.5,-279.25"/>
<text text-anchor="middle" x="480" y="-316" font-family="Helvetica,sans-Serif" font-size="10.00"> +ptr</text>
</g>
<!-- Node10 -->
<g id="node10" class="node">
<title>Node10</title>
<g id="a_node10"><a xlink:title=" ">
<polygon fill="white" stroke="#bfbfbf" points="559,-204.5 559,-261.5 662,-261.5 662,-204.5 559,-204.5"/>
<text text-anchor="middle" x="610.5" y="-249.5" font-family="Helvetica,sans-Serif" font-size="10.00">vector&lt; double &gt;</text>
<polyline fill="none" stroke="#bfbfbf" points="559,-242.5 662,-242.5 "/>
<text text-anchor="middle" x="610.5" y="-230.5" font-family="Helvetica,sans-Serif" font-size="10.00"> </text>
<polyline fill="none" stroke="#bfbfbf" points="559,-223.5 662,-223.5 "/>
<text text-anchor="middle" x="610.5" y="-211.5" font-family="Helvetica,sans-Serif" font-size="10.00"> </text>
</a>
</g>
</g>
<!-- Node10&#45;&gt;Node1 -->
<g id="edge9" class="edge">
<title>Node10&#45;&gt;Node1</title>
<path fill="none" stroke="#404040" d="M587.6,-204.5C577.13,-193.11 564.05,-180.39 550.5,-171 501.32,-136.92 439.65,-109.67 390.74,-91.06"/>
<polygon fill="none" stroke="#404040" points="390.48,-90.96 383.46,-92.6 379.24,-86.75 386.26,-85.11 390.48,-90.96"/>
<text text-anchor="middle" x="551.5" y="-145" font-family="Helvetica,sans-Serif" font-size="10.00"> #M_weights</text>
</g>
</g>
</svg>
