<?xml version="1.0" encoding="UTF-8" standalone="no"?>
<!DOCTYPE svg PUBLIC "-//W3C//DTD SVG 1.1//EN"
 "http://www.w3.org/Graphics/SVG/1.1/DTD/svg11.dtd">
<!-- Generated by graphviz version 2.43.0 (0)
 -->
<!-- Title: Feel::FeelModels::Heat&lt; ConvexType, BasisTemperatureType &gt; Pages: 1 -->
<svg width="529pt" height="1262pt"
 viewBox="0.00 0.00 529.00 1262.00" xmlns="http://www.w3.org/2000/svg" xmlns:xlink="http://www.w3.org/1999/xlink">
<g id="graph0" class="graph" transform="scale(1 1) rotate(0) translate(4 1258)">
<title>Feel::FeelModels::Heat&lt; ConvexType, BasisTemperatureType &gt;</title>
<polygon fill="white" stroke="transparent" points="-4,4 -4,-1258 525,-1258 525,4 -4,4"/>
<!-- Node1 -->
<g id="node1" class="node">
<title>Node1</title>
<g id="a_node1"><a xlink:title="class for heat transfer toolbox">
<polygon fill="#bfbfbf" stroke="black" points="234,-0.5 234,-266.5 415,-266.5 415,-0.5 234,-0.5"/>
<text text-anchor="start" x="242" y="-254.5" font-family="Helvetica,sans-Serif" font-size="10.00">Feel::FeelModels::Heat</text>
<text text-anchor="start" x="242" y="-243.5" font-family="Helvetica,sans-Serif" font-size="10.00">&lt; ConvexType, BasisTemperature</text>
<text text-anchor="middle" x="324.5" y="-232.5" font-family="Helvetica,sans-Serif" font-size="10.00">Type &gt;</text>
<polyline fill="none" stroke="black" points="234,-225.5 415,-225.5 "/>
<text text-anchor="start" x="242" y="-213.5" font-family="Helvetica,sans-Serif" font-size="10.00">+ nDim</text>
<text text-anchor="start" x="242" y="-202.5" font-family="Helvetica,sans-Serif" font-size="10.00">+ nOrderGeo</text>
<text text-anchor="start" x="242" y="-191.5" font-family="Helvetica,sans-Serif" font-size="10.00">+ nOrderPoly</text>
<text text-anchor="start" x="242" y="-180.5" font-family="Helvetica,sans-Serif" font-size="10.00">+ nOrderTemperature</text>
<text text-anchor="start" x="242" y="-169.5" font-family="Helvetica,sans-Serif" font-size="10.00">+ nRealDim</text>
<text text-anchor="start" x="242" y="-158.5" font-family="Helvetica,sans-Serif" font-size="10.00"># M_bdfTemperature</text>
<text text-anchor="start" x="242" y="-147.5" font-family="Helvetica,sans-Serif" font-size="10.00"># M_boundaryConditions</text>
<text text-anchor="start" x="242" y="-136.5" font-family="Helvetica,sans-Serif" font-size="10.00"># M_currentParameterValues</text>
<text text-anchor="start" x="242" y="-125.5" font-family="Helvetica,sans-Serif" font-size="10.00"># M_exporter</text>
<text text-anchor="start" x="242" y="-114.5" font-family="Helvetica,sans-Serif" font-size="10.00"># M_fieldTemperature</text>
<text text-anchor="start" x="242" y="-103.5" font-family="Helvetica,sans-Serif" font-size="10.00">and 13 more...</text>
<polyline fill="none" stroke="black" points="234,-96.5 415,-96.5 "/>
<text text-anchor="start" x="242" y="-84.5" font-family="Helvetica,sans-Serif" font-size="10.00">+ applyRemesh()</text>
<text text-anchor="start" x="242" y="-73.5" font-family="Helvetica,sans-Serif" font-size="10.00">+ buildBlockMatrixGraph()</text>
<text text-anchor="start" x="242" y="-62.5" font-family="Helvetica,sans-Serif" font-size="10.00">+ checkResults()</text>
<text text-anchor="start" x="242" y="-51.5" font-family="Helvetica,sans-Serif" font-size="10.00">+ executePostProcessMeasures()</text>
<text text-anchor="start" x="242" y="-40.5" font-family="Helvetica,sans-Serif" font-size="10.00">+ exportResults()</text>
<text text-anchor="start" x="242" y="-29.5" font-family="Helvetica,sans-Serif" font-size="10.00">and 64 more...</text>
<text text-anchor="start" x="242" y="-18.5" font-family="Helvetica,sans-Serif" font-size="10.00">+ create_program_options()</text>
<text text-anchor="start" x="242" y="-7.5" font-family="Helvetica,sans-Serif" font-size="10.00">+ New()</text>
</a>
</g>
</g>
<!-- Node2 -->
<g id="node2" class="node">
<title>Node2</title>
<g id="a_node2"><a xlink:href="classFeel_1_1FeelModels_1_1ModelNumerical.html" target="_top" xlink:title="Handles some numerical model aspects: timestepping, mesh and properties.">
<polygon fill="white" stroke="black" points="121.5,-303.5 121.5,-514.5 323.5,-514.5 323.5,-303.5 121.5,-303.5"/>
<text text-anchor="middle" x="222.5" y="-502.5" font-family="Helvetica,sans-Serif" font-size="10.00">Feel::FeelModels::ModelNumerical</text>
<polyline fill="none" stroke="black" points="121.5,-495.5 323.5,-495.5 "/>
<text text-anchor="middle" x="222.5" y="-483.5" font-family="Helvetica,sans-Serif" font-size="10.00"> </text>
<polyline fill="none" stroke="black" points="121.5,-476.5 323.5,-476.5 "/>
<text text-anchor="start" x="129.5" y="-464.5" font-family="Helvetica,sans-Serif" font-size="10.00">+ checkResults()</text>
<text text-anchor="start" x="129.5" y="-453.5" font-family="Helvetica,sans-Serif" font-size="10.00">+ checkResults()</text>
<text text-anchor="start" x="129.5" y="-442.5" font-family="Helvetica,sans-Serif" font-size="10.00">+ createBdf()</text>
<text text-anchor="start" x="129.5" y="-431.5" font-family="Helvetica,sans-Serif" font-size="10.00">+ currentTime()</text>
<text text-anchor="start" x="129.5" y="-420.5" font-family="Helvetica,sans-Serif" font-size="10.00">+ doRestart()</text>
<text text-anchor="start" x="129.5" y="-409.5" font-family="Helvetica,sans-Serif" font-size="10.00">and 53 more...</text>
<text text-anchor="start" x="129.5" y="-398.5" font-family="Helvetica,sans-Serif" font-size="10.00"># addPostProcessExportsAll</text>
<text text-anchor="start" x="129.5" y="-387.5" font-family="Helvetica,sans-Serif" font-size="10.00">FieldsAvailable()</text>
<text text-anchor="start" x="129.5" y="-376.5" font-family="Helvetica,sans-Serif" font-size="10.00"># addPostProcessExportsAll</text>
<text text-anchor="start" x="129.5" y="-365.5" font-family="Helvetica,sans-Serif" font-size="10.00">FieldsAvailable()</text>
<text text-anchor="start" x="129.5" y="-354.5" font-family="Helvetica,sans-Serif" font-size="10.00"># addPostProcessMeasuresQuantities</text>
<text text-anchor="start" x="129.5" y="-343.5" font-family="Helvetica,sans-Serif" font-size="10.00">AllNamesAvailable()</text>
<text text-anchor="start" x="129.5" y="-332.5" font-family="Helvetica,sans-Serif" font-size="10.00"># initPostProcess()</text>
<text text-anchor="start" x="129.5" y="-321.5" font-family="Helvetica,sans-Serif" font-size="10.00"># initPostProcessMeshes()</text>
<text text-anchor="start" x="129.5" y="-310.5" font-family="Helvetica,sans-Serif" font-size="10.00">and 9 more...</text>
</a>
</g>
</g>
<!-- Node2&#45;&gt;Node1 -->
<g id="edge1" class="edge">
<title>Node2&#45;&gt;Node1</title>
<path fill="none" stroke="midnightblue" d="M265,-294.04C268.38,-284.97 271.82,-275.76 275.24,-266.58"/>
<polygon fill="none" stroke="midnightblue" points="261.71,-292.84 261.5,-303.43 268.27,-295.28 261.71,-292.84"/>
</g>
<!-- Node3 -->
<g id="node3" class="node">
<title>Node3</title>
<g id="a_node3"><a xlink:href="classFeel_1_1FeelModels_1_1ModelBase.html" target="_top" xlink:title="Model base class.">
<polygon fill="white" stroke="black" points="193,-722.5 193,-834.5 386,-834.5 386,-722.5 193,-722.5"/>
<text text-anchor="middle" x="289.5" y="-822.5" font-family="Helvetica,sans-Serif" font-size="10.00">Feel::FeelModels::ModelBase</text>
<polyline fill="none" stroke="black" points="193,-815.5 386,-815.5 "/>
<text text-anchor="middle" x="289.5" y="-803.5" font-family="Helvetica,sans-Serif" font-size="10.00"> </text>
<polyline fill="none" stroke="black" points="193,-796.5 386,-796.5 "/>
<text text-anchor="start" x="201" y="-784.5" font-family="Helvetica,sans-Serif" font-size="10.00">+ addParameterInModelProperties()</text>
<text text-anchor="start" x="201" y="-773.5" font-family="Helvetica,sans-Serif" font-size="10.00">+ addTimerTool()</text>
<text text-anchor="start" x="201" y="-762.5" font-family="Helvetica,sans-Serif" font-size="10.00">+ clovm()</text>
<text text-anchor="start" x="201" y="-751.5" font-family="Helvetica,sans-Serif" font-size="10.00">+ createWorldsComm()</text>
<text text-anchor="start" x="201" y="-740.5" font-family="Helvetica,sans-Serif" font-size="10.00">+ hasModelProperties()</text>
<text text-anchor="start" x="201" y="-729.5" font-family="Helvetica,sans-Serif" font-size="10.00">and 54 more...</text>
</a>
</g>
</g>
<!-- Node3&#45;&gt;Node2 -->
<g id="edge2" class="edge">
<title>Node3&#45;&gt;Node2</title>
<path fill="none" stroke="midnightblue" d="M238.75,-713.48C233.79,-704.64 229.49,-695.37 226.5,-686 209.03,-631.21 207.06,-567.14 209.89,-514.53"/>
<polygon fill="none" stroke="midnightblue" points="235.8,-715.35 243.92,-722.15 241.81,-711.77 235.8,-715.35"/>
</g>
<!-- Node7 -->
<g id="node7" class="node">
<title>Node7</title>
<g id="a_node7"><a xlink:href="classFeel_1_1FeelModels_1_1ModelAlgebraic.html" target="_top" xlink:title=" ">
<polygon fill="white" stroke="#bfbfbf" points="235.5,-562.5 235.5,-674.5 415.5,-674.5 415.5,-562.5 235.5,-562.5"/>
<text text-anchor="middle" x="325.5" y="-662.5" font-family="Helvetica,sans-Serif" font-size="10.00">Feel::FeelModels::ModelAlgebraic</text>
<polyline fill="none" stroke="#bfbfbf" points="235.5,-655.5 415.5,-655.5 "/>
<text text-anchor="middle" x="325.5" y="-643.5" font-family="Helvetica,sans-Serif" font-size="10.00"> </text>
<polyline fill="none" stroke="#bfbfbf" points="235.5,-636.5 415.5,-636.5 "/>
<text text-anchor="start" x="243.5" y="-624.5" font-family="Helvetica,sans-Serif" font-size="10.00">+ algebraicBackend()</text>
<text text-anchor="start" x="243.5" y="-613.5" font-family="Helvetica,sans-Serif" font-size="10.00">+ algebraicBlockVectorSolution()</text>
<text text-anchor="start" x="243.5" y="-602.5" font-family="Helvetica,sans-Serif" font-size="10.00">+ algebraicFactory()</text>
<text text-anchor="start" x="243.5" y="-591.5" font-family="Helvetica,sans-Serif" font-size="10.00">+ backend()</text>
<text text-anchor="start" x="243.5" y="-580.5" font-family="Helvetica,sans-Serif" font-size="10.00">+ blockPattern()</text>
<text text-anchor="start" x="243.5" y="-569.5" font-family="Helvetica,sans-Serif" font-size="10.00">and 75 more...</text>
</a>
</g>
</g>
<!-- Node3&#45;&gt;Node7 -->
<g id="edge7" class="edge">
<title>Node3&#45;&gt;Node7</title>
<path fill="none" stroke="midnightblue" d="M304.35,-712.34C307.19,-699.85 310.15,-686.88 312.92,-674.73"/>
<polygon fill="none" stroke="midnightblue" points="300.9,-711.71 302.09,-722.24 307.73,-713.27 300.9,-711.71"/>
</g>
<!-- Node8 -->
<g id="node8" class="node">
<title>Node8</title>
<g id="a_node8"><a xlink:href="classFeel_1_1FeelModels_1_1ModelMeshes.html" target="_top" xlink:title=" ">
<polygon fill="white" stroke="black" points="0,-551.5 0,-685.5 179,-685.5 179,-551.5 0,-551.5"/>
<text text-anchor="start" x="8" y="-673.5" font-family="Helvetica,sans-Serif" font-size="10.00">Feel::FeelModels::ModelMeshes</text>
<text text-anchor="middle" x="89.5" y="-662.5" font-family="Helvetica,sans-Serif" font-size="10.00">&lt; ModelAlgebraic::index_type &gt;</text>
<polyline fill="none" stroke="black" points="0,-655.5 179,-655.5 "/>
<text text-anchor="middle" x="89.5" y="-643.5" font-family="Helvetica,sans-Serif" font-size="10.00"> </text>
<polyline fill="none" stroke="black" points="0,-636.5 179,-636.5 "/>
<text text-anchor="start" x="8" y="-624.5" font-family="Helvetica,sans-Serif" font-size="10.00">+ applyRemesh()</text>
<text text-anchor="start" x="8" y="-613.5" font-family="Helvetica,sans-Serif" font-size="10.00">+ hasMeshMotion()</text>
<text text-anchor="start" x="8" y="-602.5" font-family="Helvetica,sans-Serif" font-size="10.00">+ hasModelMesh()</text>
<text text-anchor="start" x="8" y="-591.5" font-family="Helvetica,sans-Serif" font-size="10.00">+ initMeasurePointsEvaluation</text>
<text text-anchor="start" x="8" y="-580.5" font-family="Helvetica,sans-Serif" font-size="10.00">Tool()</text>
<text text-anchor="start" x="8" y="-569.5" font-family="Helvetica,sans-Serif" font-size="10.00">+ measurePointsEvaluationTool()</text>
<text text-anchor="start" x="8" y="-558.5" font-family="Helvetica,sans-Serif" font-size="10.00">and 27 more...</text>
</a>
</g>
</g>
<!-- Node3&#45;&gt;Node8 -->
<g id="edge10" class="edge">
<title>Node3&#45;&gt;Node8</title>
<path fill="none" stroke="midnightblue" d="M211.66,-716.01C199.1,-706.09 186.06,-695.78 173.37,-685.76"/>
<polygon fill="none" stroke="midnightblue" points="209.81,-719.01 219.83,-722.46 214.15,-713.52 209.81,-719.01"/>
</g>
<!-- Node10 -->
<g id="node10" class="node">
<title>Node10</title>
<g id="a_node10"><a xlink:href="classFeel_1_1FeelModels_1_1ModelPhysics.html" target="_top" xlink:title=" ">
<polygon fill="white" stroke="black" points="350,-325.5 350,-492.5 521,-492.5 521,-325.5 350,-325.5"/>
<text text-anchor="start" x="358" y="-480.5" font-family="Helvetica,sans-Serif" font-size="10.00">Feel::FeelModels::ModelPhysics</text>
<text text-anchor="middle" x="435.5" y="-469.5" font-family="Helvetica,sans-Serif" font-size="10.00">&lt; ConvexType::nDim &gt;</text>
<polyline fill="none" stroke="black" points="350,-462.5 521,-462.5 "/>
<text text-anchor="start" x="358" y="-450.5" font-family="Helvetica,sans-Serif" font-size="10.00">+ nDim</text>
<text text-anchor="start" x="358" y="-439.5" font-family="Helvetica,sans-Serif" font-size="10.00"># M_physicModeling</text>
<text text-anchor="start" x="358" y="-428.5" font-family="Helvetica,sans-Serif" font-size="10.00"># M_physics</text>
<polyline fill="none" stroke="black" points="350,-421.5 521,-421.5 "/>
<text text-anchor="start" x="358" y="-409.5" font-family="Helvetica,sans-Serif" font-size="10.00">+ addPhysics()</text>
<text text-anchor="start" x="358" y="-398.5" font-family="Helvetica,sans-Serif" font-size="10.00">+ hasPhysic()</text>
<text text-anchor="start" x="358" y="-387.5" font-family="Helvetica,sans-Serif" font-size="10.00">+ initPhysics()</text>
<text text-anchor="start" x="358" y="-376.5" font-family="Helvetica,sans-Serif" font-size="10.00">+ initPhysics()</text>
<text text-anchor="start" x="358" y="-365.5" font-family="Helvetica,sans-Serif" font-size="10.00">+ ModelPhysics()</text>
<text text-anchor="start" x="358" y="-354.5" font-family="Helvetica,sans-Serif" font-size="10.00">and 18 more...</text>
<text text-anchor="start" x="358" y="-343.5" font-family="Helvetica,sans-Serif" font-size="10.00"># initPhysics()</text>
<text text-anchor="start" x="358" y="-332.5" font-family="Helvetica,sans-Serif" font-size="10.00"># updatePhysics()</text>
</a>
</g>
</g>
<!-- Node3&#45;&gt;Node10 -->
<g id="edge12" class="edge">
<title>Node3&#45;&gt;Node10</title>
<path fill="none" stroke="midnightblue" d="M393.9,-722.54C406.04,-711.99 416.81,-699.83 424.5,-686 457.13,-627.32 457.36,-550.28 450.87,-492.51"/>
<polygon fill="none" stroke="midnightblue" points="391.68,-719.84 386.19,-728.9 396.13,-725.24 391.68,-719.84"/>
</g>
<!-- Node4 -->
<g id="node4" class="node">
<title>Node4</title>
<g id="a_node4"><a xlink:href="classFeel_1_1JournalWatcher.html" target="_top" xlink:title=" ">
<polygon fill="white" stroke="#bfbfbf" points="111,-871.5 111,-1159.5 288,-1159.5 288,-871.5 111,-871.5"/>
<text text-anchor="middle" x="199.5" y="-1147.5" font-family="Helvetica,sans-Serif" font-size="10.00">Feel::JournalWatcher</text>
<polyline fill="none" stroke="#bfbfbf" points="111,-1140.5 288,-1140.5 "/>
<text text-anchor="middle" x="199.5" y="-1128.5" font-family="Helvetica,sans-Serif" font-size="10.00"> </text>
<polyline fill="none" stroke="#bfbfbf" points="111,-1121.5 288,-1121.5 "/>
<text text-anchor="start" x="119" y="-1109.5" font-family="Helvetica,sans-Serif" font-size="10.00">* M_journal_is_connected</text>
<text text-anchor="start" x="119" y="-1098.5" font-family="Helvetica,sans-Serif" font-size="10.00">* M_category</text>
<text text-anchor="start" x="119" y="-1087.5" font-family="Helvetica,sans-Serif" font-size="10.00">* M_name</text>
<text text-anchor="start" x="119" y="-1076.5" font-family="Helvetica,sans-Serif" font-size="10.00">* M_function_updateInformation</text>
<text text-anchor="start" x="119" y="-1065.5" font-family="Helvetica,sans-Serif" font-size="10.00">Object</text>
<text text-anchor="start" x="119" y="-1054.5" font-family="Helvetica,sans-Serif" font-size="10.00">* M_informationObject</text>
<text text-anchor="start" x="119" y="-1043.5" font-family="Helvetica,sans-Serif" font-size="10.00">* S_counterObjectByCategory</text>
<text text-anchor="start" x="119" y="-1032.5" font-family="Helvetica,sans-Serif" font-size="10.00">* JournalWatcher()</text>
<text text-anchor="start" x="119" y="-1021.5" font-family="Helvetica,sans-Serif" font-size="10.00">* JournalWatcher()</text>
<text text-anchor="start" x="119" y="-1010.5" font-family="Helvetica,sans-Serif" font-size="10.00">* JournalWatcher()</text>
<text text-anchor="start" x="119" y="-999.5" font-family="Helvetica,sans-Serif" font-size="10.00">* JournalWatcher()</text>
<text text-anchor="start" x="119" y="-988.5" font-family="Helvetica,sans-Serif" font-size="10.00">* ~JournalWatcher()</text>
<text text-anchor="start" x="119" y="-977.5" font-family="Helvetica,sans-Serif" font-size="10.00">* journalIsConnected()</text>
<text text-anchor="start" x="119" y="-966.5" font-family="Helvetica,sans-Serif" font-size="10.00">* journalWatcherInstanceName()</text>
<text text-anchor="start" x="119" y="-955.5" font-family="Helvetica,sans-Serif" font-size="10.00">* journalSection()</text>
<text text-anchor="start" x="119" y="-944.5" font-family="Helvetica,sans-Serif" font-size="10.00">* informationObject()</text>
<text text-anchor="start" x="119" y="-933.5" font-family="Helvetica,sans-Serif" font-size="10.00">* journalConnect()</text>
<text text-anchor="start" x="119" y="-922.5" font-family="Helvetica,sans-Serif" font-size="10.00">* journalDisconnect()</text>
<text text-anchor="start" x="119" y="-911.5" font-family="Helvetica,sans-Serif" font-size="10.00">* updateInformationObject()</text>
<text text-anchor="start" x="119" y="-900.5" font-family="Helvetica,sans-Serif" font-size="10.00">* setInformationObject()</text>
<text text-anchor="start" x="119" y="-889.5" font-family="Helvetica,sans-Serif" font-size="10.00">* putInformationObject()</text>
<text text-anchor="start" x="119" y="-878.5" font-family="Helvetica,sans-Serif" font-size="10.00">and 4 more...</text>
</a>
</g>
</g>
<!-- Node4&#45;&gt;Node3 -->
<g id="edge3" class="edge">
<title>Node4&#45;&gt;Node3</title>
<path fill="none" stroke="midnightblue" d="M258,-861.76C261.64,-852.25 265.15,-843.08 268.42,-834.53"/>
<polygon fill="none" stroke="midnightblue" points="254.63,-860.78 254.32,-871.37 261.16,-863.28 254.63,-860.78"/>
</g>
<!-- Node5 -->
<g id="node5" class="node">
<title>Node5</title>
<g id="a_node5"><a xlink:title=" ">
<polygon fill="white" stroke="#bfbfbf" points="146,-1196.5 146,-1253.5 253,-1253.5 253,-1196.5 146,-1196.5"/>
<text text-anchor="middle" x="199.5" y="-1241.5" font-family="Helvetica,sans-Serif" font-size="10.00">Event::SlotHandler</text>
<polyline fill="none" stroke="#bfbfbf" points="146,-1234.5 253,-1234.5 "/>
<text text-anchor="middle" x="199.5" y="-1222.5" font-family="Helvetica,sans-Serif" font-size="10.00"> </text>
<polyline fill="none" stroke="#bfbfbf" points="146,-1215.5 253,-1215.5 "/>
<text text-anchor="middle" x="199.5" y="-1203.5" font-family="Helvetica,sans-Serif" font-size="10.00"> </text>
</a>
</g>
</g>
<!-- Node5&#45;&gt;Node4 -->
<g id="edge4" class="edge">
<title>Node5&#45;&gt;Node4</title>
<path fill="none" stroke="midnightblue" d="M199.5,-1186.38C199.5,-1178.29 199.5,-1169.28 199.5,-1159.76"/>
<polygon fill="none" stroke="midnightblue" points="196,-1186.45 199.5,-1196.45 203,-1186.45 196,-1186.45"/>
</g>
<!-- Node6 -->
<g id="node6" class="node">
<title>Node6</title>
<g id="a_node6"><a xlink:title=" ">
<polygon fill="white" stroke="#bfbfbf" points="306,-981.5 306,-1049.5 451,-1049.5 451,-981.5 306,-981.5"/>
<text text-anchor="start" x="314" y="-1037.5" font-family="Helvetica,sans-Serif" font-size="10.00">std::enable_shared</text>
<text text-anchor="middle" x="378.5" y="-1026.5" font-family="Helvetica,sans-Serif" font-size="10.00">_from_this&lt; ModelBase &gt;</text>
<polyline fill="none" stroke="#bfbfbf" points="306,-1019.5 451,-1019.5 "/>
<text text-anchor="middle" x="378.5" y="-1007.5" font-family="Helvetica,sans-Serif" font-size="10.00"> </text>
<polyline fill="none" stroke="#bfbfbf" points="306,-1000.5 451,-1000.5 "/>
<text text-anchor="middle" x="378.5" y="-988.5" font-family="Helvetica,sans-Serif" font-size="10.00"> </text>
</a>
</g>
</g>
<!-- Node6&#45;&gt;Node3 -->
<g id="edge5" class="edge">
<title>Node6&#45;&gt;Node3</title>
<path fill="none" stroke="midnightblue" d="M362.39,-971.97C347.82,-933.5 326.29,-876.63 310.4,-834.68"/>
<polygon fill="none" stroke="midnightblue" points="359.12,-973.22 365.94,-981.33 365.67,-970.74 359.12,-973.22"/>
</g>
<!-- Node7&#45;&gt;Node2 -->
<g id="edge6" class="edge">
<title>Node7&#45;&gt;Node2</title>
<path fill="none" stroke="midnightblue" d="M293.6,-553.24C287.52,-540.98 281,-527.85 274.47,-514.7"/>
<polygon fill="none" stroke="midnightblue" points="290.59,-555.04 298.17,-562.44 296.86,-551.93 290.59,-555.04"/>
</g>
<!-- Node8&#45;&gt;Node2 -->
<g id="edge8" class="edge">
<title>Node8&#45;&gt;Node2</title>
<path fill="none" stroke="midnightblue" d="M137.49,-542.62C143.35,-533.49 149.42,-524.02 155.49,-514.55"/>
<polygon fill="none" stroke="midnightblue" points="134.4,-540.97 131.95,-551.28 140.29,-544.74 134.4,-540.97"/>
</g>
<!-- Node9 -->
<g id="node9" class="node">
<title>Node9</title>
<g id="a_node9"><a xlink:title=" ">
<polygon fill="white" stroke="black" points="39,-744.5 39,-812.5 140,-812.5 140,-744.5 39,-744.5"/>
<text text-anchor="middle" x="89.5" y="-800.5" font-family="Helvetica,sans-Serif" font-size="10.00">std::map&lt; K, T &gt;</text>
<polyline fill="none" stroke="black" points="39,-793.5 140,-793.5 "/>
<text text-anchor="start" x="47" y="-781.5" font-family="Helvetica,sans-Serif" font-size="10.00">+ elements</text>
<text text-anchor="start" x="47" y="-770.5" font-family="Helvetica,sans-Serif" font-size="10.00">+ keys</text>
<polyline fill="none" stroke="black" points="39,-763.5 140,-763.5 "/>
<text text-anchor="middle" x="89.5" y="-751.5" font-family="Helvetica,sans-Serif" font-size="10.00"> </text>
</a>
</g>
</g>
<!-- Node9&#45;&gt;Node8 -->
<g id="edge9" class="edge">
<title>Node9&#45;&gt;Node8</title>
<path fill="none" stroke="darkgreen" d="M89.5,-733.95C89.5,-719.07 89.5,-702.06 89.5,-685.79"/>
<polygon fill="none" stroke="darkgreen" points="86,-734.38 89.5,-744.38 93,-734.38 86,-734.38"/>
</g>
<!-- Node10&#45;&gt;Node1 -->
<g id="edge11" class="edge">
<title>Node10&#45;&gt;Node1</title>
<path fill="none" stroke="midnightblue" d="M397.96,-315.5C391.56,-299.73 384.8,-283.08 378.08,-266.52"/>
<polygon fill="none" stroke="midnightblue" points="394.89,-317.25 401.9,-325.2 401.38,-314.62 394.89,-317.25"/>
</g>
</g>
</svg>
