<?xml version="1.0" encoding="UTF-8" standalone="no"?>
<!DOCTYPE svg PUBLIC "-//W3C//DTD SVG 1.1//EN"
 "http://www.w3.org/Graphics/SVG/1.1/DTD/svg11.dtd">
<!-- Generated by graphviz version 2.43.0 (0)
 -->
<!-- Title: Feel::Mesh&lt; GeoShape, T, Tag, IndexT &gt; Pages: 1 -->
<svg width="801pt" height="732pt"
 viewBox="0.00 0.00 800.50 732.00" xmlns="http://www.w3.org/2000/svg" xmlns:xlink="http://www.w3.org/1999/xlink">
<g id="graph0" class="graph" transform="scale(1 1) rotate(0) translate(4 728)">
<title>Feel::Mesh&lt; GeoShape, T, Tag, IndexT &gt;</title>
<polygon fill="white" stroke="transparent" points="-4,4 -4,-728 796.5,-728 796.5,4 -4,4"/>
<!-- Node1 -->
<g id="node1" class="node">
<title>Node1</title>
<g id="a_node1"><a xlink:title="unifying mesh class">
<polygon fill="#bfbfbf" stroke="black" points="258.5,-0.5 258.5,-552.5 464.5,-552.5 464.5,-0.5 258.5,-0.5"/>
<text text-anchor="start" x="266.5" y="-540.5" font-family="Helvetica,sans-Serif" font-size="10.00">Feel::Mesh&lt; GeoShape,</text>
<text text-anchor="middle" x="361.5" y="-529.5" font-family="Helvetica,sans-Serif" font-size="10.00"> T, Tag, IndexT &gt;</text>
<polyline fill="none" stroke="black" points="258.5,-522.5 464.5,-522.5 "/>
<text text-anchor="middle" x="361.5" y="-510.5" font-family="Helvetica,sans-Serif" font-size="10.00"> </text>
<polyline fill="none" stroke="black" points="258.5,-503.5 464.5,-503.5 "/>
<text text-anchor="start" x="266.5" y="-491.5" font-family="Helvetica,sans-Serif" font-size="10.00">+ checkLocalPermutation()</text>
<text text-anchor="start" x="266.5" y="-480.5" font-family="Helvetica,sans-Serif" font-size="10.00">+ checkLocalPermutation()</text>
<text text-anchor="start" x="266.5" y="-469.5" font-family="Helvetica,sans-Serif" font-size="10.00">+ decode()</text>
<text text-anchor="start" x="266.5" y="-458.5" font-family="Helvetica,sans-Serif" font-size="10.00">+ encode()</text>
<text text-anchor="start" x="266.5" y="-447.5" font-family="Helvetica,sans-Serif" font-size="10.00">+ FEELPP_DEFINE_VISITABLE()</text>
<text text-anchor="start" x="266.5" y="-436.5" font-family="Helvetica,sans-Serif" font-size="10.00">and 21 more...</text>
<text text-anchor="start" x="266.5" y="-425.5" font-family="Helvetica,sans-Serif" font-size="10.00"># check()</text>
<text text-anchor="start" x="266.5" y="-414.5" font-family="Helvetica,sans-Serif" font-size="10.00"># updateAdjacencyElements()</text>
<text text-anchor="start" x="266.5" y="-403.5" font-family="Helvetica,sans-Serif" font-size="10.00"># updateEntitiesCoDimension</text>
<text text-anchor="start" x="266.5" y="-392.5" font-family="Helvetica,sans-Serif" font-size="10.00">GhostCellByUsingBlockingComm()</text>
<text text-anchor="start" x="266.5" y="-381.5" font-family="Helvetica,sans-Serif" font-size="10.00"># updateEntitiesCoDimension</text>
<text text-anchor="start" x="266.5" y="-370.5" font-family="Helvetica,sans-Serif" font-size="10.00">GhostCellByUsingNonBlockingComm()</text>
<text text-anchor="start" x="266.5" y="-359.5" font-family="Helvetica,sans-Serif" font-size="10.00"># updateEntitiesCoDimension</text>
<text text-anchor="start" x="266.5" y="-348.5" font-family="Helvetica,sans-Serif" font-size="10.00">One()</text>
<text text-anchor="start" x="266.5" y="-337.5" font-family="Helvetica,sans-Serif" font-size="10.00">and 3 more...</text>
<text text-anchor="start" x="266.5" y="-326.5" font-family="Helvetica,sans-Serif" font-size="10.00">* type</text>
<text text-anchor="start" x="266.5" y="-315.5" font-family="Helvetica,sans-Serif" font-size="10.00">* ptrtype</text>
<text text-anchor="start" x="266.5" y="-304.5" font-family="Helvetica,sans-Serif" font-size="10.00">* value_type</text>
<text text-anchor="start" x="266.5" y="-293.5" font-family="Helvetica,sans-Serif" font-size="10.00">* index_type</text>
<text text-anchor="start" x="266.5" y="-282.5" font-family="Helvetica,sans-Serif" font-size="10.00">* size_type</text>
<text text-anchor="start" x="266.5" y="-271.5" font-family="Helvetica,sans-Serif" font-size="10.00">and 45 more...</text>
<text text-anchor="start" x="266.5" y="-260.5" font-family="Helvetica,sans-Serif" font-size="10.00">* addObserver()</text>
<text text-anchor="start" x="266.5" y="-249.5" font-family="Helvetica,sans-Serif" font-size="10.00">* removeFacesFromBoundary()</text>
<text text-anchor="start" x="266.5" y="-238.5" font-family="Helvetica,sans-Serif" font-size="10.00">* beginNeighborSubdomains()</text>
<text text-anchor="start" x="266.5" y="-227.5" font-family="Helvetica,sans-Serif" font-size="10.00">* endNeighborSubdomains()</text>
<text text-anchor="start" x="266.5" y="-216.5" font-family="Helvetica,sans-Serif" font-size="10.00">* neighborSubdomains()</text>
<text text-anchor="start" x="266.5" y="-205.5" font-family="Helvetica,sans-Serif" font-size="10.00">and 5 more...</text>
<text text-anchor="start" x="266.5" y="-194.5" font-family="Helvetica,sans-Serif" font-size="10.00">* statNumElementsActive()</text>
<text text-anchor="start" x="266.5" y="-183.5" font-family="Helvetica,sans-Serif" font-size="10.00">* statNumElementsAll()</text>
<text text-anchor="start" x="266.5" y="-172.5" font-family="Helvetica,sans-Serif" font-size="10.00">* statNumFacesActive()</text>
<text text-anchor="start" x="266.5" y="-161.5" font-family="Helvetica,sans-Serif" font-size="10.00">* statNumFacesMarkedAll()</text>
<text text-anchor="start" x="266.5" y="-150.5" font-family="Helvetica,sans-Serif" font-size="10.00">* statNumEdgesActive()</text>
<text text-anchor="start" x="266.5" y="-139.5" font-family="Helvetica,sans-Serif" font-size="10.00">and 34 more...</text>
<text text-anchor="start" x="266.5" y="-128.5" font-family="Helvetica,sans-Serif" font-size="10.00">* setSubStructuring()</text>
<text text-anchor="start" x="266.5" y="-117.5" font-family="Helvetica,sans-Serif" font-size="10.00">* setPartitioner()</text>
<text text-anchor="start" x="266.5" y="-106.5" font-family="Helvetica,sans-Serif" font-size="10.00">* localFaceId()</text>
<text text-anchor="start" x="266.5" y="-95.5" font-family="Helvetica,sans-Serif" font-size="10.00">* localFaceId()</text>
<text text-anchor="start" x="266.5" y="-84.5" font-family="Helvetica,sans-Serif" font-size="10.00">* tool_localization()</text>
<text text-anchor="start" x="266.5" y="-73.5" font-family="Helvetica,sans-Serif" font-size="10.00">and 6 more...</text>
<text text-anchor="start" x="266.5" y="-62.5" font-family="Helvetica,sans-Serif" font-size="10.00">* eraseElement()</text>
<text text-anchor="start" x="266.5" y="-51.5" font-family="Helvetica,sans-Serif" font-size="10.00">* addElement()</text>
<text text-anchor="start" x="266.5" y="-40.5" font-family="Helvetica,sans-Serif" font-size="10.00">* addElement()</text>
<text text-anchor="start" x="266.5" y="-29.5" font-family="Helvetica,sans-Serif" font-size="10.00">* trace()</text>
<text text-anchor="start" x="266.5" y="-18.5" font-family="Helvetica,sans-Serif" font-size="10.00">* trace()</text>
<text text-anchor="start" x="266.5" y="-7.5" font-family="Helvetica,sans-Serif" font-size="10.00">and 24 more...</text>
</a>
</g>
</g>
<!-- Node2 -->
<g id="node2" class="node">
<title>Node2</title>
<g id="a_node2"><a xlink:title=" ">
<polygon fill="white" stroke="#bfbfbf" points="0,-655.5 0,-712.5 109,-712.5 109,-655.5 0,-655.5"/>
<text text-anchor="middle" x="54.5" y="-700.5" font-family="Helvetica,sans-Serif" font-size="10.00">mpl::if_::type::type</text>
<polyline fill="none" stroke="#bfbfbf" points="0,-693.5 109,-693.5 "/>
<text text-anchor="middle" x="54.5" y="-681.5" font-family="Helvetica,sans-Serif" font-size="10.00"> </text>
<polyline fill="none" stroke="#bfbfbf" points="0,-674.5 109,-674.5 "/>
<text text-anchor="middle" x="54.5" y="-662.5" font-family="Helvetica,sans-Serif" font-size="10.00"> </text>
</a>
</g>
</g>
<!-- Node2&#45;&gt;Node1 -->
<g id="edge1" class="edge">
<title>Node2&#45;&gt;Node1</title>
<path fill="none" stroke="midnightblue" d="M81.58,-647.23C120.85,-595.36 195.74,-496.44 258.18,-413.96"/>
<polygon fill="none" stroke="midnightblue" points="78.61,-645.36 75.36,-655.45 84.19,-649.59 78.61,-645.36"/>
</g>
<!-- Node3 -->
<g id="node3" class="node">
<title>Node3</title>
<g id="a_node3"><a xlink:title=" ">
<polygon fill="white" stroke="#bfbfbf" points="127,-644.5 127,-723.5 258,-723.5 258,-644.5 127,-644.5"/>
<text text-anchor="start" x="135" y="-711.5" font-family="Helvetica,sans-Serif" font-size="10.00">boost::addable&lt; Mesh</text>
<text text-anchor="start" x="135" y="-700.5" font-family="Helvetica,sans-Serif" font-size="10.00">&lt; GeoShape, double, 0,</text>
<text text-anchor="middle" x="192.5" y="-689.5" font-family="Helvetica,sans-Serif" font-size="10.00"> uint32_type &gt; &gt;</text>
<polyline fill="none" stroke="#bfbfbf" points="127,-682.5 258,-682.5 "/>
<text text-anchor="middle" x="192.5" y="-670.5" font-family="Helvetica,sans-Serif" font-size="10.00"> </text>
<polyline fill="none" stroke="#bfbfbf" points="127,-663.5 258,-663.5 "/>
<text text-anchor="middle" x="192.5" y="-651.5" font-family="Helvetica,sans-Serif" font-size="10.00"> </text>
</a>
</g>
</g>
<!-- Node3&#45;&gt;Node1 -->
<g id="edge2" class="edge">
<title>Node3&#45;&gt;Node1</title>
<path fill="none" stroke="midnightblue" d="M212.47,-635.09C224.52,-606.18 240.89,-566.89 258.38,-524.92"/>
<polygon fill="none" stroke="midnightblue" points="209.17,-633.91 208.55,-644.49 215.63,-636.6 209.17,-633.91"/>
</g>
<!-- Node4 -->
<g id="node4" class="node">
<title>Node4</title>
<g id="a_node4"><a xlink:title=" ">
<polygon fill="white" stroke="#bfbfbf" points="276.5,-644.5 276.5,-723.5 446.5,-723.5 446.5,-644.5 276.5,-644.5"/>
<text text-anchor="start" x="284.5" y="-711.5" font-family="Helvetica,sans-Serif" font-size="10.00">std::enable_shared</text>
<text text-anchor="start" x="284.5" y="-700.5" font-family="Helvetica,sans-Serif" font-size="10.00">_from_this&lt; Mesh&lt; GeoShape,</text>
<text text-anchor="middle" x="361.5" y="-689.5" font-family="Helvetica,sans-Serif" font-size="10.00"> double, 0, uint32_type &gt; &gt;</text>
<polyline fill="none" stroke="#bfbfbf" points="276.5,-682.5 446.5,-682.5 "/>
<text text-anchor="middle" x="361.5" y="-670.5" font-family="Helvetica,sans-Serif" font-size="10.00"> </text>
<polyline fill="none" stroke="#bfbfbf" points="276.5,-663.5 446.5,-663.5 "/>
<text text-anchor="middle" x="361.5" y="-651.5" font-family="Helvetica,sans-Serif" font-size="10.00"> </text>
</a>
</g>
</g>
<!-- Node4&#45;&gt;Node1 -->
<g id="edge3" class="edge">
<title>Node4&#45;&gt;Node1</title>
<path fill="none" stroke="midnightblue" d="M361.5,-634.35C361.5,-612.03 361.5,-583.64 361.5,-552.65"/>
<polygon fill="none" stroke="midnightblue" points="358,-634.49 361.5,-644.49 365,-634.49 358,-634.49"/>
</g>
<!-- Node5 -->
<g id="node5" class="node">
<title>Node5</title>
<g id="a_node5"><a xlink:title=" ">
<polygon fill="white" stroke="#bfbfbf" points="464.5,-655.5 464.5,-712.5 598.5,-712.5 598.5,-655.5 464.5,-655.5"/>
<text text-anchor="middle" x="531.5" y="-700.5" font-family="Helvetica,sans-Serif" font-size="10.00">static const uint16_type</text>
<polyline fill="none" stroke="#bfbfbf" points="464.5,-693.5 598.5,-693.5 "/>
<text text-anchor="middle" x="531.5" y="-681.5" font-family="Helvetica,sans-Serif" font-size="10.00"> </text>
<polyline fill="none" stroke="#bfbfbf" points="464.5,-674.5 598.5,-674.5 "/>
<text text-anchor="middle" x="531.5" y="-662.5" font-family="Helvetica,sans-Serif" font-size="10.00"> </text>
</a>
</g>
</g>
<!-- Node5&#45;&gt;Node1 -->
<g id="edge4" class="edge">
<title>Node5&#45;&gt;Node1</title>
<path fill="none" stroke="#404040" d="M519.95,-655.45C508.55,-628.27 489.9,-583.76 469.31,-534.66"/>
<polygon fill="none" stroke="#404040" points="469.25,-534.51 463.24,-530.52 464.61,-523.44 470.62,-527.43 469.25,-534.51"/>
<text text-anchor="middle" x="536" y="-618" font-family="Helvetica,sans-Serif" font-size="10.00"> +Shape</text>
<text text-anchor="middle" x="536" y="-607" font-family="Helvetica,sans-Serif" font-size="10.00">+nDim</text>
<text text-anchor="middle" x="536" y="-596" font-family="Helvetica,sans-Serif" font-size="10.00">+nOrder</text>
<text text-anchor="middle" x="536" y="-585" font-family="Helvetica,sans-Serif" font-size="10.00">+nRealDim</text>
<text text-anchor="middle" x="536" y="-574" font-family="Helvetica,sans-Serif" font-size="10.00">+tag</text>
</g>
<!-- Node6 -->
<g id="node6" class="node">
<title>Node6</title>
<g id="a_node6"><a xlink:title=" ">
<polygon fill="white" stroke="#bfbfbf" points="616.5,-655.5 616.5,-712.5 792.5,-712.5 792.5,-655.5 616.5,-655.5"/>
<text text-anchor="middle" x="704.5" y="-700.5" font-family="Helvetica,sans-Serif" font-size="10.00">signal&lt; void(MESH_CHANGES)&gt;</text>
<polyline fill="none" stroke="#bfbfbf" points="616.5,-693.5 792.5,-693.5 "/>
<text text-anchor="middle" x="704.5" y="-681.5" font-family="Helvetica,sans-Serif" font-size="10.00"> </text>
<polyline fill="none" stroke="#bfbfbf" points="616.5,-674.5 792.5,-674.5 "/>
<text text-anchor="middle" x="704.5" y="-662.5" font-family="Helvetica,sans-Serif" font-size="10.00"> </text>
</a>
</g>
</g>
<!-- Node6&#45;&gt;Node1 -->
<g id="edge5" class="edge">
<title>Node6&#45;&gt;Node1</title>
<path fill="none" stroke="#404040" d="M681.19,-655.45C638.89,-605.43 546.95,-496.74 472.47,-408.7"/>
<polygon fill="none" stroke="#404040" points="472.39,-408.59 465.46,-406.59 464.64,-399.43 471.56,-401.43 472.39,-408.59"/>
<text text-anchor="middle" x="695.5" y="-596" font-family="Helvetica,sans-Serif" font-size="10.00"> +meshChanged</text>
</g>
</g>
</svg>
