<?xml version="1.0" encoding="UTF-8" standalone="no"?>
<!DOCTYPE svg PUBLIC "-//W3C//DTD SVG 1.1//EN"
 "http://www.w3.org/Graphics/SVG/1.1/DTD/svg11.dtd">
<!-- Generated by graphviz version 2.43.0 (0)
 -->
<!-- Title: Feel::ProductSpaces&lt; SpaceList &gt;::Element Pages: 1 -->
<svg width="324pt" height="248pt"
 viewBox="0.00 0.00 323.50 248.00" xmlns="http://www.w3.org/2000/svg" xmlns:xlink="http://www.w3.org/1999/xlink">
<g id="graph0" class="graph" transform="scale(1 1) rotate(0) translate(4 244)">
<title>Feel::ProductSpaces&lt; SpaceList &gt;::Element</title>
<polygon fill="white" stroke="transparent" points="-4,4 -4,-244 319.5,-244 319.5,4 -4,4"/>
<!-- Node1 -->
<g id="node1" class="node">
<title>Node1</title>
<g id="a_node1"><a xlink:title=" ">
<polygon fill="#bfbfbf" stroke="black" points="97,-0.5 97,-134.5 229,-134.5 229,-0.5 97,-0.5"/>
<text text-anchor="start" x="105" y="-122.5" font-family="Helvetica,sans-Serif" font-size="10.00">Feel::ProductSpaces</text>
<text text-anchor="middle" x="163" y="-111.5" font-family="Helvetica,sans-Serif" font-size="10.00">&lt; SpaceList &gt;::Element</text>
<polyline fill="none" stroke="black" points="97,-104.5 229,-104.5 "/>
<text text-anchor="start" x="105" y="-92.5" font-family="Helvetica,sans-Serif" font-size="10.00">+ M_fspace</text>
<text text-anchor="start" x="105" y="-81.5" font-family="Helvetica,sans-Serif" font-size="10.00">+ nspaces</text>
<polyline fill="none" stroke="black" points="97,-74.5 229,-74.5 "/>
<text text-anchor="start" x="105" y="-62.5" font-family="Helvetica,sans-Serif" font-size="10.00">+ Element()</text>
<text text-anchor="start" x="105" y="-51.5" font-family="Helvetica,sans-Serif" font-size="10.00">+ Element()</text>
<text text-anchor="start" x="105" y="-40.5" font-family="Helvetica,sans-Serif" font-size="10.00">+ Element()</text>
<text text-anchor="start" x="105" y="-29.5" font-family="Helvetica,sans-Serif" font-size="10.00">+ Element()</text>
<text text-anchor="start" x="105" y="-18.5" font-family="Helvetica,sans-Serif" font-size="10.00">+ functionSpace()</text>
<text text-anchor="start" x="105" y="-7.5" font-family="Helvetica,sans-Serif" font-size="10.00">and 7 more...</text>
</a>
</g>
</g>
<!-- Node2 -->
<g id="node2" class="node">
<title>Node2</title>
<g id="a_node2"><a xlink:href="classBlocksBaseVector.html" target="_top" xlink:title=" ">
<polygon fill="white" stroke="#bfbfbf" points="0,-177 0,-234 160,-234 160,-177 0,-177"/>
<text text-anchor="middle" x="80" y="-222" font-family="Helvetica,sans-Serif" font-size="10.00">BlocksBaseVector&lt; double &gt;</text>
<polyline fill="none" stroke="#bfbfbf" points="0,-215 160,-215 "/>
<text text-anchor="middle" x="80" y="-203" font-family="Helvetica,sans-Serif" font-size="10.00"> </text>
<polyline fill="none" stroke="#bfbfbf" points="0,-196 160,-196 "/>
<text text-anchor="middle" x="80" y="-184" font-family="Helvetica,sans-Serif" font-size="10.00"> </text>
</a>
</g>
</g>
<!-- Node2&#45;&gt;Node1 -->
<g id="edge1" class="edge">
<title>Node2&#45;&gt;Node1</title>
<path fill="none" stroke="midnightblue" d="M102.12,-168.25C108.43,-157.91 115.51,-146.31 122.55,-134.78"/>
<polygon fill="none" stroke="midnightblue" points="99.02,-166.62 96.8,-176.98 104.99,-170.27 99.02,-166.62"/>
</g>
<!-- Node3 -->
<g id="node3" class="node">
<title>Node3</title>
<g id="a_node3"><a xlink:href="classFeel_1_1FunctionSpaceBase_1_1ElementBase.html" target="_top" xlink:title=" ">
<polygon fill="white" stroke="#bfbfbf" points="178.5,-171.5 178.5,-239.5 315.5,-239.5 315.5,-171.5 178.5,-171.5"/>
<text text-anchor="start" x="186.5" y="-227.5" font-family="Helvetica,sans-Serif" font-size="10.00">Feel::FunctionSpaceBase</text>
<text text-anchor="middle" x="247" y="-216.5" font-family="Helvetica,sans-Serif" font-size="10.00">::ElementBase</text>
<polyline fill="none" stroke="#bfbfbf" points="178.5,-209.5 315.5,-209.5 "/>
<text text-anchor="middle" x="247" y="-197.5" font-family="Helvetica,sans-Serif" font-size="10.00"> </text>
<polyline fill="none" stroke="#bfbfbf" points="178.5,-190.5 315.5,-190.5 "/>
<text text-anchor="middle" x="247" y="-178.5" font-family="Helvetica,sans-Serif" font-size="10.00"> </text>
</a>
</g>
</g>
<!-- Node3&#45;&gt;Node1 -->
<g id="edge2" class="edge">
<title>Node3&#45;&gt;Node1</title>
<path fill="none" stroke="#8b1a1a" d="M221.14,-162.63C215.66,-153.76 209.76,-144.2 203.88,-134.68"/>
<polygon fill="none" stroke="#8b1a1a" points="218.22,-164.56 226.45,-171.23 224.17,-160.88 218.22,-164.56"/>
</g>
</g>
</svg>
