<?xml version="1.0" encoding="UTF-8" standalone="no"?>
<!DOCTYPE svg PUBLIC "-//W3C//DTD SVG 1.1//EN"
 "http://www.w3.org/Graphics/SVG/1.1/DTD/svg11.dtd">
<!-- Generated by graphviz version 2.43.0 (0)
 -->
<!-- Title: Feel::TimerData Pages: 1 -->
<svg width="132pt" height="215pt"
 viewBox="0.00 0.00 132.00 215.00" xmlns="http://www.w3.org/2000/svg" xmlns:xlink="http://www.w3.org/1999/xlink">
<g id="graph0" class="graph" transform="scale(1 1) rotate(0) translate(4 211)">
<title>Feel::TimerData</title>
<polygon fill="white" stroke="transparent" points="-4,4 -4,-211 128,-211 128,4 -4,4"/>
<!-- Node1 -->
<g id="node1" class="node">
<title>Node1</title>
<g id="a_node1"><a xlink:title="TimerData is the value for the TimerTable map.">
<polygon fill="#bfbfbf" stroke="black" points="11,-0.5 11,-112.5 113,-112.5 113,-0.5 11,-0.5"/>
<text text-anchor="middle" x="62" y="-100.5" font-family="Helvetica,sans-Serif" font-size="10.00">Feel::TimerData</text>
<polyline fill="none" stroke="black" points="11,-93.5 113,-93.5 "/>
<text text-anchor="start" x="19" y="-81.5" font-family="Helvetica,sans-Serif" font-size="10.00">+ instance_name</text>
<text text-anchor="start" x="19" y="-70.5" font-family="Helvetica,sans-Serif" font-size="10.00">+ level</text>
<text text-anchor="start" x="19" y="-59.5" font-family="Helvetica,sans-Serif" font-size="10.00">+ msg</text>
<polyline fill="none" stroke="black" points="11,-52.5 113,-52.5 "/>
<text text-anchor="start" x="19" y="-40.5" font-family="Helvetica,sans-Serif" font-size="10.00">+ add()</text>
<text text-anchor="start" x="19" y="-29.5" font-family="Helvetica,sans-Serif" font-size="10.00">+ TimerData()</text>
<text text-anchor="start" x="19" y="-18.5" font-family="Helvetica,sans-Serif" font-size="10.00">+ TimerData()</text>
<text text-anchor="start" x="19" y="-7.5" font-family="Helvetica,sans-Serif" font-size="10.00">+ TimerData()</text>
</a>
</g>
</g>
<!-- Node2 -->
<g id="node2" class="node">
<title>Node2</title>
<g id="a_node2"><a xlink:title="STL class.">
<polygon fill="white" stroke="#bfbfbf" points="0,-149.5 0,-206.5 124,-206.5 124,-149.5 0,-149.5"/>
<text text-anchor="middle" x="62" y="-194.5" font-family="Helvetica,sans-Serif" font-size="10.00">std::vector&lt; double &gt;</text>
<polyline fill="none" stroke="#bfbfbf" points="0,-187.5 124,-187.5 "/>
<text text-anchor="start" x="8" y="-175.5" font-family="Helvetica,sans-Serif" font-size="10.00">+ elements</text>
<polyline fill="none" stroke="#bfbfbf" points="0,-168.5 124,-168.5 "/>
<text text-anchor="middle" x="62" y="-156.5" font-family="Helvetica,sans-Serif" font-size="10.00"> </text>
</a>
</g>
</g>
<!-- Node2&#45;&gt;Node1 -->
<g id="edge1" class="edge">
<title>Node2&#45;&gt;Node1</title>
<path fill="none" stroke="midnightblue" d="M62,-139.11C62,-130.75 62,-121.73 62,-112.83"/>
<polygon fill="none" stroke="midnightblue" points="58.5,-139.28 62,-149.28 65.5,-139.28 58.5,-139.28"/>
</g>
</g>
</svg>
