<?xml version="1.0" encoding="UTF-8" standalone="no"?>
<!DOCTYPE svg PUBLIC "-//W3C//DTD SVG 1.1//EN"
 "http://www.w3.org/Graphics/SVG/1.1/DTD/svg11.dtd">
<!-- Generated by graphviz version 2.43.0 (0)
 -->
<!-- Title: Feel::FeelModels::ModelNumerical Pages: 1 -->
<svg width="1774pt" height="1488pt"
 viewBox="0.00 0.00 1773.50 1488.00" xmlns="http://www.w3.org/2000/svg" xmlns:xlink="http://www.w3.org/1999/xlink">
<g id="graph0" class="graph" transform="scale(1 1) rotate(0) translate(4 1484)">
<title>Feel::FeelModels::ModelNumerical</title>
<polygon fill="white" stroke="transparent" points="-4,4 -4,-1484 1769.5,-1484 1769.5,4 -4,4"/>
<!-- Node1 -->
<g id="node1" class="node">
<title>Node1</title>
<g id="a_node1"><a xlink:title="Handles some numerical model aspects: timestepping, mesh and properties.">
<polygon fill="#bfbfbf" stroke="black" points="781,-529.5 781,-740.5 983,-740.5 983,-529.5 781,-529.5"/>
<text text-anchor="middle" x="882" y="-728.5" font-family="Helvetica,sans-Serif" font-size="10.00">Feel::FeelModels::ModelNumerical</text>
<polyline fill="none" stroke="black" points="781,-721.5 983,-721.5 "/>
<text text-anchor="middle" x="882" y="-709.5" font-family="Helvetica,sans-Serif" font-size="10.00"> </text>
<polyline fill="none" stroke="black" points="781,-702.5 983,-702.5 "/>
<text text-anchor="start" x="789" y="-690.5" font-family="Helvetica,sans-Serif" font-size="10.00">+ checkResults()</text>
<text text-anchor="start" x="789" y="-679.5" font-family="Helvetica,sans-Serif" font-size="10.00">+ checkResults()</text>
<text text-anchor="start" x="789" y="-668.5" font-family="Helvetica,sans-Serif" font-size="10.00">+ createBdf()</text>
<text text-anchor="start" x="789" y="-657.5" font-family="Helvetica,sans-Serif" font-size="10.00">+ currentTime()</text>
<text text-anchor="start" x="789" y="-646.5" font-family="Helvetica,sans-Serif" font-size="10.00">+ doRestart()</text>
<text text-anchor="start" x="789" y="-635.5" font-family="Helvetica,sans-Serif" font-size="10.00">and 53 more...</text>
<text text-anchor="start" x="789" y="-624.5" font-family="Helvetica,sans-Serif" font-size="10.00"># addPostProcessExportsAll</text>
<text text-anchor="start" x="789" y="-613.5" font-family="Helvetica,sans-Serif" font-size="10.00">FieldsAvailable()</text>
<text text-anchor="start" x="789" y="-602.5" font-family="Helvetica,sans-Serif" font-size="10.00"># addPostProcessExportsAll</text>
<text text-anchor="start" x="789" y="-591.5" font-family="Helvetica,sans-Serif" font-size="10.00">FieldsAvailable()</text>
<text text-anchor="start" x="789" y="-580.5" font-family="Helvetica,sans-Serif" font-size="10.00"># addPostProcessMeasuresQuantities</text>
<text text-anchor="start" x="789" y="-569.5" font-family="Helvetica,sans-Serif" font-size="10.00">AllNamesAvailable()</text>
<text text-anchor="start" x="789" y="-558.5" font-family="Helvetica,sans-Serif" font-size="10.00"># initPostProcess()</text>
<text text-anchor="start" x="789" y="-547.5" font-family="Helvetica,sans-Serif" font-size="10.00"># initPostProcessMeshes()</text>
<text text-anchor="start" x="789" y="-536.5" font-family="Helvetica,sans-Serif" font-size="10.00">and 9 more...</text>
</a>
</g>
</g>
<!-- Node9 -->
<g id="node9" class="node">
<title>Node9</title>
<g id="a_node9"><a xlink:href="classFeel_1_1FeelModels_1_1CoefficientFormPDEBase.html" target="_top" xlink:title=" ">
<polygon fill="white" stroke="#bfbfbf" points="0,-226.5 0,-492.5 218,-492.5 218,-226.5 0,-226.5"/>
<text text-anchor="start" x="8" y="-480.5" font-family="Helvetica,sans-Serif" font-size="10.00">Feel::FeelModels::Coefficient</text>
<text text-anchor="middle" x="109" y="-469.5" font-family="Helvetica,sans-Serif" font-size="10.00">FormPDEBase&lt; ConvexType &gt;</text>
<polyline fill="none" stroke="#bfbfbf" points="0,-462.5 218,-462.5 "/>
<text text-anchor="start" x="8" y="-450.5" font-family="Helvetica,sans-Serif" font-size="10.00">+ nDim</text>
<text text-anchor="start" x="8" y="-439.5" font-family="Helvetica,sans-Serif" font-size="10.00">+ nOrderGeo</text>
<text text-anchor="start" x="8" y="-428.5" font-family="Helvetica,sans-Serif" font-size="10.00">+ nRealDim</text>
<text text-anchor="start" x="8" y="-417.5" font-family="Helvetica,sans-Serif" font-size="10.00"># M_applyStabilization</text>
<text text-anchor="start" x="8" y="-406.5" font-family="Helvetica,sans-Serif" font-size="10.00"># M_exporter</text>
<text text-anchor="start" x="8" y="-395.5" font-family="Helvetica,sans-Serif" font-size="10.00"># M_materialsProperties</text>
<text text-anchor="start" x="8" y="-384.5" font-family="Helvetica,sans-Serif" font-size="10.00"># M_rangeMeshElements</text>
<text text-anchor="start" x="8" y="-373.5" font-family="Helvetica,sans-Serif" font-size="10.00"># M_stabilizationDoAssembly</text>
<text text-anchor="start" x="8" y="-362.5" font-family="Helvetica,sans-Serif" font-size="10.00">WithGradDiffusionCoeff</text>
<text text-anchor="start" x="8" y="-351.5" font-family="Helvetica,sans-Serif" font-size="10.00">and 6 more...</text>
<polyline fill="none" stroke="#bfbfbf" points="0,-344.5 218,-344.5 "/>
<text text-anchor="start" x="8" y="-332.5" font-family="Helvetica,sans-Serif" font-size="10.00">+ applyStabilization()</text>
<text text-anchor="start" x="8" y="-321.5" font-family="Helvetica,sans-Serif" font-size="10.00">+ CoefficientFormPDEBase()</text>
<text text-anchor="start" x="8" y="-310.5" font-family="Helvetica,sans-Serif" font-size="10.00">+ hasSymbolDependencyInCoefficients()</text>
<text text-anchor="start" x="8" y="-299.5" font-family="Helvetica,sans-Serif" font-size="10.00">+ materialsProperties()</text>
<text text-anchor="start" x="8" y="-288.5" font-family="Helvetica,sans-Serif" font-size="10.00">+ materialsProperties()</text>
<text text-anchor="start" x="8" y="-277.5" font-family="Helvetica,sans-Serif" font-size="10.00">and 16 more...</text>
<text text-anchor="start" x="8" y="-266.5" font-family="Helvetica,sans-Serif" font-size="10.00"># initBasePostProcess()</text>
<text text-anchor="start" x="8" y="-255.5" font-family="Helvetica,sans-Serif" font-size="10.00"># initMaterialProperties()</text>
<text text-anchor="start" x="8" y="-244.5" font-family="Helvetica,sans-Serif" font-size="10.00"># initMesh()</text>
<text text-anchor="start" x="8" y="-233.5" font-family="Helvetica,sans-Serif" font-size="10.00"># loadParameterFromOptionsVm()</text>
</a>
</g>
</g>
<!-- Node1&#45;&gt;Node9 -->
<g id="edge10" class="edge">
<title>Node1&#45;&gt;Node9</title>
<path fill="none" stroke="midnightblue" d="M770.68,-630.84C633.96,-622.49 399.07,-593.27 227,-493 224.07,-491.29 221.18,-489.49 218.32,-487.6"/>
<polygon fill="none" stroke="midnightblue" points="770.57,-634.34 780.75,-631.43 770.97,-627.35 770.57,-634.34"/>
</g>
<!-- Node11 -->
<g id="node11" class="node">
<title>Node11</title>
<g id="a_node11"><a xlink:href="classFeel_1_1FeelModels_1_1CoefficientFormPDEs.html" target="_top" xlink:title="class for Coefficient Form PDE toolbox">
<polygon fill="white" stroke="black" points="236.5,-270.5 236.5,-448.5 451.5,-448.5 451.5,-270.5 236.5,-270.5"/>
<text text-anchor="start" x="244.5" y="-436.5" font-family="Helvetica,sans-Serif" font-size="10.00">Feel::FeelModels::Coefficient</text>
<text text-anchor="start" x="244.5" y="-425.5" font-family="Helvetica,sans-Serif" font-size="10.00">FormPDEs&lt; ConvexType, BasisUnknown</text>
<text text-anchor="middle" x="344" y="-414.5" font-family="Helvetica,sans-Serif" font-size="10.00">Type &gt;</text>
<polyline fill="none" stroke="black" points="236.5,-407.5 451.5,-407.5 "/>
<text text-anchor="start" x="244.5" y="-395.5" font-family="Helvetica,sans-Serif" font-size="10.00">+ nDim</text>
<text text-anchor="start" x="244.5" y="-384.5" font-family="Helvetica,sans-Serif" font-size="10.00">+ nOrderGeo</text>
<text text-anchor="start" x="244.5" y="-373.5" font-family="Helvetica,sans-Serif" font-size="10.00">+ tuple_type_unknown</text>
<text text-anchor="start" x="244.5" y="-362.5" font-family="Helvetica,sans-Serif" font-size="10.00">_basis</text>
<polyline fill="none" stroke="black" points="236.5,-355.5 451.5,-355.5 "/>
<text text-anchor="start" x="244.5" y="-343.5" font-family="Helvetica,sans-Serif" font-size="10.00">+ apply()</text>
<text text-anchor="start" x="244.5" y="-332.5" font-family="Helvetica,sans-Serif" font-size="10.00">+ buildBlockMatrixGraph()</text>
<text text-anchor="start" x="244.5" y="-321.5" font-family="Helvetica,sans-Serif" font-size="10.00">+ checkResults()</text>
<text text-anchor="start" x="244.5" y="-310.5" font-family="Helvetica,sans-Serif" font-size="10.00">+ coefficientFormPDE()</text>
<text text-anchor="start" x="244.5" y="-299.5" font-family="Helvetica,sans-Serif" font-size="10.00">+ coefficientFormPDE()</text>
<text text-anchor="start" x="244.5" y="-288.5" font-family="Helvetica,sans-Serif" font-size="10.00">and 53 more...</text>
<text text-anchor="start" x="244.5" y="-277.5" font-family="Helvetica,sans-Serif" font-size="10.00">+ unknowBasisTag()</text>
</a>
</g>
</g>
<!-- Node1&#45;&gt;Node11 -->
<g id="edge12" class="edge">
<title>Node1&#45;&gt;Node11</title>
<path fill="none" stroke="midnightblue" d="M770.79,-613.68C681.27,-593.54 555.15,-556.31 460,-493 441.67,-480.81 424.48,-464.99 409.23,-448.55"/>
<polygon fill="none" stroke="midnightblue" points="770.18,-617.13 780.7,-615.88 771.69,-610.3 770.18,-617.13"/>
</g>
<!-- Node12 -->
<g id="node12" class="node">
<title>Node12</title>
<g id="a_node12"><a xlink:href="classFeel_1_1FeelModels_1_1Electric.html" target="_top" xlink:title="class for Electric toolbox">
<polygon fill="white" stroke="black" points="469.5,-281.5 469.5,-437.5 666.5,-437.5 666.5,-281.5 469.5,-281.5"/>
<text text-anchor="start" x="477.5" y="-425.5" font-family="Helvetica,sans-Serif" font-size="10.00">Feel::FeelModels::Electric</text>
<text text-anchor="middle" x="568" y="-414.5" font-family="Helvetica,sans-Serif" font-size="10.00">&lt; ConvexType, BasisPotentialType &gt;</text>
<polyline fill="none" stroke="black" points="469.5,-407.5 666.5,-407.5 "/>
<text text-anchor="start" x="477.5" y="-395.5" font-family="Helvetica,sans-Serif" font-size="10.00">+ nDim</text>
<text text-anchor="start" x="477.5" y="-384.5" font-family="Helvetica,sans-Serif" font-size="10.00">+ nOrderGeo</text>
<text text-anchor="start" x="477.5" y="-373.5" font-family="Helvetica,sans-Serif" font-size="10.00">+ nOrderPolyElectricPotential</text>
<text text-anchor="start" x="477.5" y="-362.5" font-family="Helvetica,sans-Serif" font-size="10.00">+ nRealDim</text>
<polyline fill="none" stroke="black" points="469.5,-355.5 666.5,-355.5 "/>
<text text-anchor="start" x="477.5" y="-343.5" font-family="Helvetica,sans-Serif" font-size="10.00">+ buildBlockMatrixGraph()</text>
<text text-anchor="start" x="477.5" y="-332.5" font-family="Helvetica,sans-Serif" font-size="10.00">+ currentDensityExpr()</text>
<text text-anchor="start" x="477.5" y="-321.5" font-family="Helvetica,sans-Serif" font-size="10.00">+ currentDensityExpr()</text>
<text text-anchor="start" x="477.5" y="-310.5" font-family="Helvetica,sans-Serif" font-size="10.00">+ Electric()</text>
<text text-anchor="start" x="477.5" y="-299.5" font-family="Helvetica,sans-Serif" font-size="10.00">+ electricFieldExpr()</text>
<text text-anchor="start" x="477.5" y="-288.5" font-family="Helvetica,sans-Serif" font-size="10.00">and 51 more...</text>
</a>
</g>
</g>
<!-- Node1&#45;&gt;Node12 -->
<g id="edge13" class="edge">
<title>Node1&#45;&gt;Node12</title>
<path fill="none" stroke="midnightblue" d="M772.23,-567.94C739.44,-545.96 704.42,-520.12 675,-493 657.06,-476.47 639.58,-456.83 624.11,-437.8"/>
<polygon fill="none" stroke="midnightblue" points="770.69,-571.12 780.96,-573.74 774.57,-565.29 770.69,-571.12"/>
</g>
<!-- Node13 -->
<g id="node13" class="node">
<title>Node13</title>
<g id="a_node13"><a xlink:href="classFeel_1_1FeelModels_1_1FluidMechanics.html" target="_top" xlink:title="Fluid Mechanics Toolbox.">
<polygon fill="white" stroke="black" points="684.5,-243 684.5,-476 875.5,-476 875.5,-243 684.5,-243"/>
<text text-anchor="start" x="692.5" y="-464" font-family="Helvetica,sans-Serif" font-size="10.00">Feel::FeelModels::FluidMechanics</text>
<text text-anchor="start" x="692.5" y="-453" font-family="Helvetica,sans-Serif" font-size="10.00">&lt; ConvexType, BasisVelocityType,</text>
<text text-anchor="middle" x="780" y="-442" font-family="Helvetica,sans-Serif" font-size="10.00"> BasisPressureType &gt;</text>
<polyline fill="none" stroke="black" points="684.5,-435 875.5,-435 "/>
<text text-anchor="start" x="692.5" y="-423" font-family="Helvetica,sans-Serif" font-size="10.00">+ nDim</text>
<text text-anchor="start" x="692.5" y="-412" font-family="Helvetica,sans-Serif" font-size="10.00">+ nOrderGeo</text>
<text text-anchor="start" x="692.5" y="-401" font-family="Helvetica,sans-Serif" font-size="10.00">+ nOrderPressure</text>
<text text-anchor="start" x="692.5" y="-390" font-family="Helvetica,sans-Serif" font-size="10.00">+ nOrderVelocity</text>
<text text-anchor="start" x="692.5" y="-379" font-family="Helvetica,sans-Serif" font-size="10.00">+ nRealDim</text>
<text text-anchor="start" x="692.5" y="-368" font-family="Helvetica,sans-Serif" font-size="10.00">+ useMixedBasis</text>
<polyline fill="none" stroke="black" points="684.5,-361 875.5,-361 "/>
<text text-anchor="start" x="692.5" y="-349" font-family="Helvetica,sans-Serif" font-size="10.00">+ addUpdateInHousePreconditioner</text>
<text text-anchor="start" x="692.5" y="-338" font-family="Helvetica,sans-Serif" font-size="10.00">PCD()</text>
<text text-anchor="start" x="692.5" y="-327" font-family="Helvetica,sans-Serif" font-size="10.00">+ applyCIPStabOnlyOnBoundary</text>
<text text-anchor="start" x="692.5" y="-316" font-family="Helvetica,sans-Serif" font-size="10.00">Faces()</text>
<text text-anchor="start" x="692.5" y="-305" font-family="Helvetica,sans-Serif" font-size="10.00">+ applyCIPStabOnlyOnBoundary</text>
<text text-anchor="start" x="692.5" y="-294" font-family="Helvetica,sans-Serif" font-size="10.00">Faces()</text>
<text text-anchor="start" x="692.5" y="-283" font-family="Helvetica,sans-Serif" font-size="10.00">+ applyMovingMeshBeforeSolve()</text>
<text text-anchor="start" x="692.5" y="-272" font-family="Helvetica,sans-Serif" font-size="10.00">+ applyRemesh()</text>
<text text-anchor="start" x="692.5" y="-261" font-family="Helvetica,sans-Serif" font-size="10.00">and 193 more...</text>
<text text-anchor="start" x="692.5" y="-250" font-family="Helvetica,sans-Serif" font-size="10.00">+ New()</text>
</a>
</g>
</g>
<!-- Node1&#45;&gt;Node13 -->
<g id="edge14" class="edge">
<title>Node1&#45;&gt;Node13</title>
<path fill="none" stroke="midnightblue" d="M839.49,-520.02C834.12,-505.61 828.61,-490.85 823.23,-476.41"/>
<polygon fill="none" stroke="midnightblue" points="836.23,-521.28 843,-529.43 842.79,-518.84 836.23,-521.28"/>
</g>
<!-- Node14 -->
<g id="node14" class="node">
<title>Node14</title>
<g id="a_node14"><a xlink:href="classFeel_1_1FeelModels_1_1Heat.html" target="_top" xlink:title="class for heat transfer toolbox">
<polygon fill="white" stroke="black" points="893.5,-226.5 893.5,-492.5 1074.5,-492.5 1074.5,-226.5 893.5,-226.5"/>
<text text-anchor="start" x="901.5" y="-480.5" font-family="Helvetica,sans-Serif" font-size="10.00">Feel::FeelModels::Heat</text>
<text text-anchor="start" x="901.5" y="-469.5" font-family="Helvetica,sans-Serif" font-size="10.00">&lt; ConvexType, BasisTemperature</text>
<text text-anchor="middle" x="984" y="-458.5" font-family="Helvetica,sans-Serif" font-size="10.00">Type &gt;</text>
<polyline fill="none" stroke="black" points="893.5,-451.5 1074.5,-451.5 "/>
<text text-anchor="start" x="901.5" y="-439.5" font-family="Helvetica,sans-Serif" font-size="10.00">+ nDim</text>
<text text-anchor="start" x="901.5" y="-428.5" font-family="Helvetica,sans-Serif" font-size="10.00">+ nOrderGeo</text>
<text text-anchor="start" x="901.5" y="-417.5" font-family="Helvetica,sans-Serif" font-size="10.00">+ nOrderPoly</text>
<text text-anchor="start" x="901.5" y="-406.5" font-family="Helvetica,sans-Serif" font-size="10.00">+ nOrderTemperature</text>
<text text-anchor="start" x="901.5" y="-395.5" font-family="Helvetica,sans-Serif" font-size="10.00">+ nRealDim</text>
<text text-anchor="start" x="901.5" y="-384.5" font-family="Helvetica,sans-Serif" font-size="10.00"># M_bdfTemperature</text>
<text text-anchor="start" x="901.5" y="-373.5" font-family="Helvetica,sans-Serif" font-size="10.00"># M_boundaryConditions</text>
<text text-anchor="start" x="901.5" y="-362.5" font-family="Helvetica,sans-Serif" font-size="10.00"># M_currentParameterValues</text>
<text text-anchor="start" x="901.5" y="-351.5" font-family="Helvetica,sans-Serif" font-size="10.00"># M_exporter</text>
<text text-anchor="start" x="901.5" y="-340.5" font-family="Helvetica,sans-Serif" font-size="10.00"># M_fieldTemperature</text>
<text text-anchor="start" x="901.5" y="-329.5" font-family="Helvetica,sans-Serif" font-size="10.00">and 13 more...</text>
<polyline fill="none" stroke="black" points="893.5,-322.5 1074.5,-322.5 "/>
<text text-anchor="start" x="901.5" y="-310.5" font-family="Helvetica,sans-Serif" font-size="10.00">+ applyRemesh()</text>
<text text-anchor="start" x="901.5" y="-299.5" font-family="Helvetica,sans-Serif" font-size="10.00">+ buildBlockMatrixGraph()</text>
<text text-anchor="start" x="901.5" y="-288.5" font-family="Helvetica,sans-Serif" font-size="10.00">+ checkResults()</text>
<text text-anchor="start" x="901.5" y="-277.5" font-family="Helvetica,sans-Serif" font-size="10.00">+ executePostProcessMeasures()</text>
<text text-anchor="start" x="901.5" y="-266.5" font-family="Helvetica,sans-Serif" font-size="10.00">+ exportResults()</text>
<text text-anchor="start" x="901.5" y="-255.5" font-family="Helvetica,sans-Serif" font-size="10.00">and 64 more...</text>
<text text-anchor="start" x="901.5" y="-244.5" font-family="Helvetica,sans-Serif" font-size="10.00">+ create_program_options()</text>
<text text-anchor="start" x="901.5" y="-233.5" font-family="Helvetica,sans-Serif" font-size="10.00">+ New()</text>
</a>
</g>
</g>
<!-- Node1&#45;&gt;Node14 -->
<g id="edge15" class="edge">
<title>Node1&#45;&gt;Node14</title>
<path fill="none" stroke="midnightblue" d="M924.5,-520.04C927.88,-510.97 931.32,-501.76 934.74,-492.58"/>
<polygon fill="none" stroke="midnightblue" points="921.21,-518.84 921,-529.43 927.77,-521.28 921.21,-518.84"/>
</g>
<!-- Node15 -->
<g id="node15" class="node">
<title>Node15</title>
<g id="a_node15"><a xlink:href="classFeel_1_1FeelModels_1_1HeatFluid.html" target="_top" xlink:title="class for conjuguate heat transfer toolbox">
<polygon fill="white" stroke="black" points="1093,-298 1093,-421 1245,-421 1245,-298 1093,-298"/>
<text text-anchor="start" x="1101" y="-409" font-family="Helvetica,sans-Serif" font-size="10.00">Feel::FeelModels::HeatFluid</text>
<text text-anchor="middle" x="1169" y="-398" font-family="Helvetica,sans-Serif" font-size="10.00">&lt; HeatType, FluidType &gt;</text>
<polyline fill="none" stroke="black" points="1093,-391 1245,-391 "/>
<text text-anchor="start" x="1101" y="-379" font-family="Helvetica,sans-Serif" font-size="10.00">+ nDim</text>
<polyline fill="none" stroke="black" points="1093,-372 1245,-372 "/>
<text text-anchor="start" x="1101" y="-360" font-family="Helvetica,sans-Serif" font-size="10.00">+ applyRemesh()</text>
<text text-anchor="start" x="1101" y="-349" font-family="Helvetica,sans-Serif" font-size="10.00">+ buildBlockMatrixGraph()</text>
<text text-anchor="start" x="1101" y="-338" font-family="Helvetica,sans-Serif" font-size="10.00">+ checkResults()</text>
<text text-anchor="start" x="1101" y="-327" font-family="Helvetica,sans-Serif" font-size="10.00">+ exportResults()</text>
<text text-anchor="start" x="1101" y="-316" font-family="Helvetica,sans-Serif" font-size="10.00">+ exportResults()</text>
<text text-anchor="start" x="1101" y="-305" font-family="Helvetica,sans-Serif" font-size="10.00">and 51 more...</text>
</a>
</g>
</g>
<!-- Node1&#45;&gt;Node15 -->
<g id="edge16" class="edge">
<title>Node1&#45;&gt;Node15</title>
<path fill="none" stroke="midnightblue" d="M991.6,-568.98C1023.45,-547.17 1056.92,-521.16 1084,-493 1104.37,-471.82 1122.62,-445.07 1136.94,-421.15"/>
<polygon fill="none" stroke="midnightblue" points="989.43,-566.23 983.1,-574.73 993.35,-572.03 989.43,-566.23"/>
</g>
<!-- Node16 -->
<g id="node16" class="node">
<title>Node16</title>
<g id="a_node16"><a xlink:href="classFeel_1_1FeelModels_1_1SolidMechanics.html" target="_top" xlink:title="class for Solid Mechanics toolbox">
<polygon fill="white" stroke="black" points="1263.5,-265 1263.5,-454 1484.5,-454 1484.5,-265 1263.5,-265"/>
<text text-anchor="start" x="1271.5" y="-442" font-family="Helvetica,sans-Serif" font-size="10.00">Feel::FeelModels::SolidMechanics</text>
<text text-anchor="middle" x="1374" y="-431" font-family="Helvetica,sans-Serif" font-size="10.00">&lt; ConvexType, BasisDisplacementType &gt;</text>
<polyline fill="none" stroke="black" points="1263.5,-424 1484.5,-424 "/>
<text text-anchor="start" x="1271.5" y="-412" font-family="Helvetica,sans-Serif" font-size="10.00">+ nDim</text>
<text text-anchor="start" x="1271.5" y="-401" font-family="Helvetica,sans-Serif" font-size="10.00">+ nOrder</text>
<text text-anchor="start" x="1271.5" y="-390" font-family="Helvetica,sans-Serif" font-size="10.00">+ nOrderDisplacement</text>
<text text-anchor="start" x="1271.5" y="-379" font-family="Helvetica,sans-Serif" font-size="10.00">+ nOrderGeo</text>
<text text-anchor="start" x="1271.5" y="-368" font-family="Helvetica,sans-Serif" font-size="10.00">+ nOrderPressure</text>
<text text-anchor="start" x="1271.5" y="-357" font-family="Helvetica,sans-Serif" font-size="10.00">+ nRealDim</text>
<polyline fill="none" stroke="black" points="1263.5,-350 1484.5,-350 "/>
<text text-anchor="start" x="1271.5" y="-338" font-family="Helvetica,sans-Serif" font-size="10.00">+ blockPattern()</text>
<text text-anchor="start" x="1271.5" y="-327" font-family="Helvetica,sans-Serif" font-size="10.00">+ buildBlockMatrixGraph()</text>
<text text-anchor="start" x="1271.5" y="-316" font-family="Helvetica,sans-Serif" font-size="10.00">+ computeExtremumValue()</text>
<text text-anchor="start" x="1271.5" y="-305" font-family="Helvetica,sans-Serif" font-size="10.00">+ computeVolumeVariation()</text>
<text text-anchor="start" x="1271.5" y="-294" font-family="Helvetica,sans-Serif" font-size="10.00">+ couplingFSIcondition()</text>
<text text-anchor="start" x="1271.5" y="-283" font-family="Helvetica,sans-Serif" font-size="10.00">and 108 more...</text>
<text text-anchor="start" x="1271.5" y="-272" font-family="Helvetica,sans-Serif" font-size="10.00">+ New()</text>
</a>
</g>
</g>
<!-- Node1&#45;&gt;Node16 -->
<g id="edge17" class="edge">
<title>Node1&#45;&gt;Node16</title>
<path fill="none" stroke="midnightblue" d="M993.1,-606.84C1070.69,-584.42 1174.25,-547.4 1254,-493 1270.15,-481.98 1285.62,-468.36 1299.77,-454.09"/>
<polygon fill="none" stroke="midnightblue" points="991.94,-603.52 983.29,-609.63 993.86,-610.26 991.94,-603.52"/>
</g>
<!-- Node17 -->
<g id="node17" class="node">
<title>Node17</title>
<g id="a_node17"><a xlink:href="classFeel_1_1FeelModels_1_1SolidMechanics1dReduced.html" target="_top" xlink:title=" ">
<polygon fill="white" stroke="#bfbfbf" points="1502.5,-281.5 1502.5,-437.5 1765.5,-437.5 1765.5,-281.5 1502.5,-281.5"/>
<text text-anchor="start" x="1510.5" y="-425.5" font-family="Helvetica,sans-Serif" font-size="10.00">Feel::FeelModels::SolidMechanics1d</text>
<text text-anchor="middle" x="1634" y="-414.5" font-family="Helvetica,sans-Serif" font-size="10.00">Reduced&lt; ConvexType, BasisDisplacementType &gt;</text>
<polyline fill="none" stroke="#bfbfbf" points="1502.5,-407.5 1765.5,-407.5 "/>
<text text-anchor="start" x="1510.5" y="-395.5" font-family="Helvetica,sans-Serif" font-size="10.00">+ nDim</text>
<text text-anchor="start" x="1510.5" y="-384.5" font-family="Helvetica,sans-Serif" font-size="10.00">+ nOrderDisplacement</text>
<text text-anchor="start" x="1510.5" y="-373.5" font-family="Helvetica,sans-Serif" font-size="10.00">+ nOrderGeo</text>
<text text-anchor="start" x="1510.5" y="-362.5" font-family="Helvetica,sans-Serif" font-size="10.00">+ nRealDim</text>
<polyline fill="none" stroke="#bfbfbf" points="1502.5,-355.5 1765.5,-355.5 "/>
<text text-anchor="start" x="1510.5" y="-343.5" font-family="Helvetica,sans-Serif" font-size="10.00">+ buildBlockMatrixGraph()</text>
<text text-anchor="start" x="1510.5" y="-332.5" font-family="Helvetica,sans-Serif" font-size="10.00">+ exportResults()</text>
<text text-anchor="start" x="1510.5" y="-321.5" font-family="Helvetica,sans-Serif" font-size="10.00">+ exportResults()</text>
<text text-anchor="start" x="1510.5" y="-310.5" font-family="Helvetica,sans-Serif" font-size="10.00">+ exprPostProcessExports()</text>
<text text-anchor="start" x="1510.5" y="-299.5" font-family="Helvetica,sans-Serif" font-size="10.00">+ extendVelocity1dReducedVectorial()</text>
<text text-anchor="start" x="1510.5" y="-288.5" font-family="Helvetica,sans-Serif" font-size="10.00">and 39 more...</text>
</a>
</g>
</g>
<!-- Node1&#45;&gt;Node17 -->
<g id="edge18" class="edge">
<title>Node1&#45;&gt;Node17</title>
<path fill="none" stroke="midnightblue" d="M993.22,-626.03C1120.8,-613.02 1333.08,-579.28 1494,-493 1520.4,-478.85 1545.45,-458.4 1566.87,-437.78"/>
<polygon fill="none" stroke="midnightblue" points="992.65,-622.57 983.05,-627.04 993.35,-629.54 992.65,-622.57"/>
</g>
<!-- Node2 -->
<g id="node2" class="node">
<title>Node2</title>
<g id="a_node2"><a xlink:href="classFeel_1_1FeelModels_1_1ModelBase.html" target="_top" xlink:title="Model base class.">
<polygon fill="white" stroke="black" points="809.5,-948.5 809.5,-1060.5 1002.5,-1060.5 1002.5,-948.5 809.5,-948.5"/>
<text text-anchor="middle" x="906" y="-1048.5" font-family="Helvetica,sans-Serif" font-size="10.00">Feel::FeelModels::ModelBase</text>
<polyline fill="none" stroke="black" points="809.5,-1041.5 1002.5,-1041.5 "/>
<text text-anchor="middle" x="906" y="-1029.5" font-family="Helvetica,sans-Serif" font-size="10.00"> </text>
<polyline fill="none" stroke="black" points="809.5,-1022.5 1002.5,-1022.5 "/>
<text text-anchor="start" x="817.5" y="-1010.5" font-family="Helvetica,sans-Serif" font-size="10.00">+ addParameterInModelProperties()</text>
<text text-anchor="start" x="817.5" y="-999.5" font-family="Helvetica,sans-Serif" font-size="10.00">+ addTimerTool()</text>
<text text-anchor="start" x="817.5" y="-988.5" font-family="Helvetica,sans-Serif" font-size="10.00">+ clovm()</text>
<text text-anchor="start" x="817.5" y="-977.5" font-family="Helvetica,sans-Serif" font-size="10.00">+ createWorldsComm()</text>
<text text-anchor="start" x="817.5" y="-966.5" font-family="Helvetica,sans-Serif" font-size="10.00">+ hasModelProperties()</text>
<text text-anchor="start" x="817.5" y="-955.5" font-family="Helvetica,sans-Serif" font-size="10.00">and 54 more...</text>
</a>
</g>
</g>
<!-- Node2&#45;&gt;Node1 -->
<g id="edge1" class="edge">
<title>Node2&#45;&gt;Node1</title>
<path fill="none" stroke="midnightblue" d="M901.74,-938.21C898.16,-883.44 892.98,-804.2 888.83,-740.6"/>
<polygon fill="none" stroke="midnightblue" points="898.26,-938.73 902.41,-948.48 905.25,-938.27 898.26,-938.73"/>
</g>
<!-- Node6 -->
<g id="node6" class="node">
<title>Node6</title>
<g id="a_node6"><a xlink:href="classFeel_1_1FeelModels_1_1ModelAlgebraic.html" target="_top" xlink:title=" ">
<polygon fill="white" stroke="#bfbfbf" points="910,-788.5 910,-900.5 1090,-900.5 1090,-788.5 910,-788.5"/>
<text text-anchor="middle" x="1000" y="-888.5" font-family="Helvetica,sans-Serif" font-size="10.00">Feel::FeelModels::ModelAlgebraic</text>
<polyline fill="none" stroke="#bfbfbf" points="910,-881.5 1090,-881.5 "/>
<text text-anchor="middle" x="1000" y="-869.5" font-family="Helvetica,sans-Serif" font-size="10.00"> </text>
<polyline fill="none" stroke="#bfbfbf" points="910,-862.5 1090,-862.5 "/>
<text text-anchor="start" x="918" y="-850.5" font-family="Helvetica,sans-Serif" font-size="10.00">+ algebraicBackend()</text>
<text text-anchor="start" x="918" y="-839.5" font-family="Helvetica,sans-Serif" font-size="10.00">+ algebraicBlockVectorSolution()</text>
<text text-anchor="start" x="918" y="-828.5" font-family="Helvetica,sans-Serif" font-size="10.00">+ algebraicFactory()</text>
<text text-anchor="start" x="918" y="-817.5" font-family="Helvetica,sans-Serif" font-size="10.00">+ backend()</text>
<text text-anchor="start" x="918" y="-806.5" font-family="Helvetica,sans-Serif" font-size="10.00">+ blockPattern()</text>
<text text-anchor="start" x="918" y="-795.5" font-family="Helvetica,sans-Serif" font-size="10.00">and 75 more...</text>
</a>
</g>
</g>
<!-- Node2&#45;&gt;Node6 -->
<g id="edge6" class="edge">
<title>Node2&#45;&gt;Node6</title>
<path fill="none" stroke="midnightblue" d="M944.1,-939.46C951.74,-926.62 959.7,-913.24 967.14,-900.73"/>
<polygon fill="none" stroke="midnightblue" points="940.98,-937.86 938.88,-948.24 947,-941.43 940.98,-937.86"/>
</g>
<!-- Node7 -->
<g id="node7" class="node">
<title>Node7</title>
<g id="a_node7"><a xlink:href="classFeel_1_1FeelModels_1_1ModelMeshes.html" target="_top" xlink:title=" ">
<polygon fill="white" stroke="black" points="674.5,-777.5 674.5,-911.5 853.5,-911.5 853.5,-777.5 674.5,-777.5"/>
<text text-anchor="start" x="682.5" y="-899.5" font-family="Helvetica,sans-Serif" font-size="10.00">Feel::FeelModels::ModelMeshes</text>
<text text-anchor="middle" x="764" y="-888.5" font-family="Helvetica,sans-Serif" font-size="10.00">&lt; ModelAlgebraic::index_type &gt;</text>
<polyline fill="none" stroke="black" points="674.5,-881.5 853.5,-881.5 "/>
<text text-anchor="middle" x="764" y="-869.5" font-family="Helvetica,sans-Serif" font-size="10.00"> </text>
<polyline fill="none" stroke="black" points="674.5,-862.5 853.5,-862.5 "/>
<text text-anchor="start" x="682.5" y="-850.5" font-family="Helvetica,sans-Serif" font-size="10.00">+ applyRemesh()</text>
<text text-anchor="start" x="682.5" y="-839.5" font-family="Helvetica,sans-Serif" font-size="10.00">+ hasMeshMotion()</text>
<text text-anchor="start" x="682.5" y="-828.5" font-family="Helvetica,sans-Serif" font-size="10.00">+ hasModelMesh()</text>
<text text-anchor="start" x="682.5" y="-817.5" font-family="Helvetica,sans-Serif" font-size="10.00">+ initMeasurePointsEvaluation</text>
<text text-anchor="start" x="682.5" y="-806.5" font-family="Helvetica,sans-Serif" font-size="10.00">Tool()</text>
<text text-anchor="start" x="682.5" y="-795.5" font-family="Helvetica,sans-Serif" font-size="10.00">+ measurePointsEvaluationTool()</text>
<text text-anchor="start" x="682.5" y="-784.5" font-family="Helvetica,sans-Serif" font-size="10.00">and 27 more...</text>
</a>
</g>
</g>
<!-- Node2&#45;&gt;Node7 -->
<g id="edge9" class="edge">
<title>Node2&#45;&gt;Node7</title>
<path fill="none" stroke="midnightblue" d="M849.52,-940.66C840.93,-931.1 832.04,-921.21 823.39,-911.59"/>
<polygon fill="none" stroke="midnightblue" points="847.05,-943.14 856.34,-948.24 852.25,-938.46 847.05,-943.14"/>
</g>
<!-- Node3 -->
<g id="node3" class="node">
<title>Node3</title>
<g id="a_node3"><a xlink:href="classFeel_1_1JournalWatcher.html" target="_top" xlink:title=" ">
<polygon fill="white" stroke="#bfbfbf" points="727.5,-1097.5 727.5,-1385.5 904.5,-1385.5 904.5,-1097.5 727.5,-1097.5"/>
<text text-anchor="middle" x="816" y="-1373.5" font-family="Helvetica,sans-Serif" font-size="10.00">Feel::JournalWatcher</text>
<polyline fill="none" stroke="#bfbfbf" points="727.5,-1366.5 904.5,-1366.5 "/>
<text text-anchor="middle" x="816" y="-1354.5" font-family="Helvetica,sans-Serif" font-size="10.00"> </text>
<polyline fill="none" stroke="#bfbfbf" points="727.5,-1347.5 904.5,-1347.5 "/>
<text text-anchor="start" x="735.5" y="-1335.5" font-family="Helvetica,sans-Serif" font-size="10.00">* M_journal_is_connected</text>
<text text-anchor="start" x="735.5" y="-1324.5" font-family="Helvetica,sans-Serif" font-size="10.00">* M_category</text>
<text text-anchor="start" x="735.5" y="-1313.5" font-family="Helvetica,sans-Serif" font-size="10.00">* M_name</text>
<text text-anchor="start" x="735.5" y="-1302.5" font-family="Helvetica,sans-Serif" font-size="10.00">* M_function_updateInformation</text>
<text text-anchor="start" x="735.5" y="-1291.5" font-family="Helvetica,sans-Serif" font-size="10.00">Object</text>
<text text-anchor="start" x="735.5" y="-1280.5" font-family="Helvetica,sans-Serif" font-size="10.00">* M_informationObject</text>
<text text-anchor="start" x="735.5" y="-1269.5" font-family="Helvetica,sans-Serif" font-size="10.00">* S_counterObjectByCategory</text>
<text text-anchor="start" x="735.5" y="-1258.5" font-family="Helvetica,sans-Serif" font-size="10.00">* JournalWatcher()</text>
<text text-anchor="start" x="735.5" y="-1247.5" font-family="Helvetica,sans-Serif" font-size="10.00">* JournalWatcher()</text>
<text text-anchor="start" x="735.5" y="-1236.5" font-family="Helvetica,sans-Serif" font-size="10.00">* JournalWatcher()</text>
<text text-anchor="start" x="735.5" y="-1225.5" font-family="Helvetica,sans-Serif" font-size="10.00">* JournalWatcher()</text>
<text text-anchor="start" x="735.5" y="-1214.5" font-family="Helvetica,sans-Serif" font-size="10.00">* ~JournalWatcher()</text>
<text text-anchor="start" x="735.5" y="-1203.5" font-family="Helvetica,sans-Serif" font-size="10.00">* journalIsConnected()</text>
<text text-anchor="start" x="735.5" y="-1192.5" font-family="Helvetica,sans-Serif" font-size="10.00">* journalWatcherInstanceName()</text>
<text text-anchor="start" x="735.5" y="-1181.5" font-family="Helvetica,sans-Serif" font-size="10.00">* journalSection()</text>
<text text-anchor="start" x="735.5" y="-1170.5" font-family="Helvetica,sans-Serif" font-size="10.00">* informationObject()</text>
<text text-anchor="start" x="735.5" y="-1159.5" font-family="Helvetica,sans-Serif" font-size="10.00">* journalConnect()</text>
<text text-anchor="start" x="735.5" y="-1148.5" font-family="Helvetica,sans-Serif" font-size="10.00">* journalDisconnect()</text>
<text text-anchor="start" x="735.5" y="-1137.5" font-family="Helvetica,sans-Serif" font-size="10.00">* updateInformationObject()</text>
<text text-anchor="start" x="735.5" y="-1126.5" font-family="Helvetica,sans-Serif" font-size="10.00">* setInformationObject()</text>
<text text-anchor="start" x="735.5" y="-1115.5" font-family="Helvetica,sans-Serif" font-size="10.00">* putInformationObject()</text>
<text text-anchor="start" x="735.5" y="-1104.5" font-family="Helvetica,sans-Serif" font-size="10.00">and 4 more...</text>
</a>
</g>
</g>
<!-- Node3&#45;&gt;Node2 -->
<g id="edge2" class="edge">
<title>Node3&#45;&gt;Node2</title>
<path fill="none" stroke="midnightblue" d="M874.5,-1087.76C878.14,-1078.25 881.65,-1069.08 884.92,-1060.53"/>
<polygon fill="none" stroke="midnightblue" points="871.13,-1086.78 870.82,-1097.37 877.66,-1089.28 871.13,-1086.78"/>
</g>
<!-- Node4 -->
<g id="node4" class="node">
<title>Node4</title>
<g id="a_node4"><a xlink:title=" ">
<polygon fill="white" stroke="#bfbfbf" points="762.5,-1422.5 762.5,-1479.5 869.5,-1479.5 869.5,-1422.5 762.5,-1422.5"/>
<text text-anchor="middle" x="816" y="-1467.5" font-family="Helvetica,sans-Serif" font-size="10.00">Event::SlotHandler</text>
<polyline fill="none" stroke="#bfbfbf" points="762.5,-1460.5 869.5,-1460.5 "/>
<text text-anchor="middle" x="816" y="-1448.5" font-family="Helvetica,sans-Serif" font-size="10.00"> </text>
<polyline fill="none" stroke="#bfbfbf" points="762.5,-1441.5 869.5,-1441.5 "/>
<text text-anchor="middle" x="816" y="-1429.5" font-family="Helvetica,sans-Serif" font-size="10.00"> </text>
</a>
</g>
</g>
<!-- Node4&#45;&gt;Node3 -->
<g id="edge3" class="edge">
<title>Node4&#45;&gt;Node3</title>
<path fill="none" stroke="midnightblue" d="M816,-1412.38C816,-1404.29 816,-1395.28 816,-1385.76"/>
<polygon fill="none" stroke="midnightblue" points="812.5,-1412.45 816,-1422.45 819.5,-1412.45 812.5,-1412.45"/>
</g>
<!-- Node5 -->
<g id="node5" class="node">
<title>Node5</title>
<g id="a_node5"><a xlink:title=" ">
<polygon fill="white" stroke="#bfbfbf" points="922.5,-1207.5 922.5,-1275.5 1067.5,-1275.5 1067.5,-1207.5 922.5,-1207.5"/>
<text text-anchor="start" x="930.5" y="-1263.5" font-family="Helvetica,sans-Serif" font-size="10.00">std::enable_shared</text>
<text text-anchor="middle" x="995" y="-1252.5" font-family="Helvetica,sans-Serif" font-size="10.00">_from_this&lt; ModelBase &gt;</text>
<polyline fill="none" stroke="#bfbfbf" points="922.5,-1245.5 1067.5,-1245.5 "/>
<text text-anchor="middle" x="995" y="-1233.5" font-family="Helvetica,sans-Serif" font-size="10.00"> </text>
<polyline fill="none" stroke="#bfbfbf" points="922.5,-1226.5 1067.5,-1226.5 "/>
<text text-anchor="middle" x="995" y="-1214.5" font-family="Helvetica,sans-Serif" font-size="10.00"> </text>
</a>
</g>
</g>
<!-- Node5&#45;&gt;Node2 -->
<g id="edge4" class="edge">
<title>Node5&#45;&gt;Node2</title>
<path fill="none" stroke="midnightblue" d="M978.89,-1197.97C964.32,-1159.5 942.79,-1102.63 926.9,-1060.68"/>
<polygon fill="none" stroke="midnightblue" points="975.62,-1199.22 982.44,-1207.33 982.17,-1196.74 975.62,-1199.22"/>
</g>
<!-- Node6&#45;&gt;Node1 -->
<g id="edge5" class="edge">
<title>Node6&#45;&gt;Node1</title>
<path fill="none" stroke="midnightblue" d="M963.66,-779.6C956.63,-767.24 949.09,-753.98 941.54,-740.7"/>
<polygon fill="none" stroke="midnightblue" points="960.7,-781.48 968.69,-788.44 966.79,-778.02 960.7,-781.48"/>
</g>
<!-- Node7&#45;&gt;Node1 -->
<g id="edge7" class="edge">
<title>Node7&#45;&gt;Node1</title>
<path fill="none" stroke="midnightblue" d="M806.74,-768.34C811.89,-759.29 817.21,-749.93 822.54,-740.55"/>
<polygon fill="none" stroke="midnightblue" points="803.56,-766.85 801.66,-777.28 809.65,-770.31 803.56,-766.85"/>
</g>
<!-- Node8 -->
<g id="node8" class="node">
<title>Node8</title>
<g id="a_node8"><a xlink:title=" ">
<polygon fill="white" stroke="black" points="690.5,-970.5 690.5,-1038.5 791.5,-1038.5 791.5,-970.5 690.5,-970.5"/>
<text text-anchor="middle" x="741" y="-1026.5" font-family="Helvetica,sans-Serif" font-size="10.00">std::map&lt; K, T &gt;</text>
<polyline fill="none" stroke="black" points="690.5,-1019.5 791.5,-1019.5 "/>
<text text-anchor="start" x="698.5" y="-1007.5" font-family="Helvetica,sans-Serif" font-size="10.00">+ elements</text>
<text text-anchor="start" x="698.5" y="-996.5" font-family="Helvetica,sans-Serif" font-size="10.00">+ keys</text>
<polyline fill="none" stroke="black" points="690.5,-989.5 791.5,-989.5 "/>
<text text-anchor="middle" x="741" y="-977.5" font-family="Helvetica,sans-Serif" font-size="10.00"> </text>
</a>
</g>
</g>
<!-- Node8&#45;&gt;Node7 -->
<g id="edge8" class="edge">
<title>Node8&#45;&gt;Node7</title>
<path fill="none" stroke="darkgreen" d="M747.28,-960.39C749.46,-945.4 751.96,-928.22 754.35,-911.79"/>
<polygon fill="none" stroke="darkgreen" points="743.8,-959.98 745.82,-970.38 750.73,-960.99 743.8,-959.98"/>
</g>
<!-- Node10 -->
<g id="node10" class="node">
<title>Node10</title>
<g id="a_node10"><a xlink:href="classFeel_1_1FeelModels_1_1CoefficientFormPDE.html" target="_top" xlink:title="class for a single CoefficientFormPDE">
<polygon fill="white" stroke="black" points="4.5,-0.5 4.5,-189.5 213.5,-189.5 213.5,-0.5 4.5,-0.5"/>
<text text-anchor="start" x="12.5" y="-177.5" font-family="Helvetica,sans-Serif" font-size="10.00">Feel::FeelModels::Coefficient</text>
<text text-anchor="start" x="12.5" y="-166.5" font-family="Helvetica,sans-Serif" font-size="10.00">FormPDE&lt; ConvexType, BasisUnknown</text>
<text text-anchor="middle" x="109" y="-155.5" font-family="Helvetica,sans-Serif" font-size="10.00">Type &gt;</text>
<polyline fill="none" stroke="black" points="4.5,-148.5 213.5,-148.5 "/>
<text text-anchor="start" x="12.5" y="-136.5" font-family="Helvetica,sans-Serif" font-size="10.00">+ nDim</text>
<text text-anchor="start" x="12.5" y="-125.5" font-family="Helvetica,sans-Serif" font-size="10.00">+ nOrderGeo</text>
<text text-anchor="start" x="12.5" y="-114.5" font-family="Helvetica,sans-Serif" font-size="10.00">+ nOrderUnknown</text>
<text text-anchor="start" x="12.5" y="-103.5" font-family="Helvetica,sans-Serif" font-size="10.00">+ nRealDim</text>
<text text-anchor="start" x="12.5" y="-92.5" font-family="Helvetica,sans-Serif" font-size="10.00">+ unknown_is_scalar</text>
<text text-anchor="start" x="12.5" y="-81.5" font-family="Helvetica,sans-Serif" font-size="10.00">+ unknown_is_vectorial</text>
<polyline fill="none" stroke="black" points="4.5,-74.5 213.5,-74.5 "/>
<text text-anchor="start" x="12.5" y="-62.5" font-family="Helvetica,sans-Serif" font-size="10.00">+ buildBlockMatrixGraph()</text>
<text text-anchor="start" x="12.5" y="-51.5" font-family="Helvetica,sans-Serif" font-size="10.00">+ CoefficientFormPDE()</text>
<text text-anchor="start" x="12.5" y="-40.5" font-family="Helvetica,sans-Serif" font-size="10.00">+ executePostProcessMeasures()</text>
<text text-anchor="start" x="12.5" y="-29.5" font-family="Helvetica,sans-Serif" font-size="10.00">+ exportResults()</text>
<text text-anchor="start" x="12.5" y="-18.5" font-family="Helvetica,sans-Serif" font-size="10.00">+ exportResults()</text>
<text text-anchor="start" x="12.5" y="-7.5" font-family="Helvetica,sans-Serif" font-size="10.00">and 38 more...</text>
</a>
</g>
</g>
<!-- Node9&#45;&gt;Node10 -->
<g id="edge11" class="edge">
<title>Node9&#45;&gt;Node10</title>
<path fill="none" stroke="midnightblue" d="M109,-216.33C109,-207.36 109,-198.46 109,-189.8"/>
<polygon fill="none" stroke="midnightblue" points="105.5,-216.48 109,-226.48 112.5,-216.48 105.5,-216.48"/>
</g>
</g>
</svg>
