<?xml version="1.0" encoding="UTF-8" standalone="no"?>
<!DOCTYPE svg PUBLIC "-//W3C//DTD SVG 1.1//EN"
 "http://www.w3.org/Graphics/SVG/1.1/DTD/svg11.dtd">
<!-- Generated by graphviz version 2.43.0 (0)
 -->
<!-- Title: Feel::MeshStructuredSetupWithCoordinates&lt; Dim, RealDim, T, IndexT &gt; Pages: 1 -->
<svg width="881pt" height="536pt"
 viewBox="0.00 0.00 881.00 536.00" xmlns="http://www.w3.org/2000/svg" xmlns:xlink="http://www.w3.org/1999/xlink">
<g id="graph0" class="graph" transform="scale(1 1) rotate(0) translate(4 532)">
<title>Feel::MeshStructuredSetupWithCoordinates&lt; Dim, RealDim, T, IndexT &gt;</title>
<polygon fill="white" stroke="transparent" points="-4,4 -4,-532 877,-532 877,4 -4,4"/>
<!-- Node1 -->
<g id="node1" class="node">
<title>Node1</title>
<g id="a_node1"><a xlink:title=" ">
<polygon fill="#bfbfbf" stroke="black" points="26,-0.5 26,-90.5 247,-90.5 247,-0.5 26,-0.5"/>
<text text-anchor="start" x="34" y="-78.5" font-family="Helvetica,sans-Serif" font-size="10.00">Feel::MeshStructuredSetup</text>
<text text-anchor="start" x="34" y="-67.5" font-family="Helvetica,sans-Serif" font-size="10.00">WithCoordinates&lt; Dim, RealDim,</text>
<text text-anchor="middle" x="136.5" y="-56.5" font-family="Helvetica,sans-Serif" font-size="10.00"> T, IndexT &gt;</text>
<polyline fill="none" stroke="black" points="26,-49.5 247,-49.5 "/>
<text text-anchor="middle" x="136.5" y="-37.5" font-family="Helvetica,sans-Serif" font-size="10.00"> </text>
<polyline fill="none" stroke="black" points="26,-30.5 247,-30.5 "/>
<text text-anchor="start" x="34" y="-18.5" font-family="Helvetica,sans-Serif" font-size="10.00">+ MeshStructuredSetupWithCoordinates()</text>
<text text-anchor="start" x="34" y="-7.5" font-family="Helvetica,sans-Serif" font-size="10.00">+ pointCoordinates()</text>
</a>
</g>
</g>
<!-- Node2 -->
<g id="node2" class="node">
<title>Node2</title>
<g id="a_node2"><a xlink:href="classFeel_1_1MeshStructuredSetup.html" target="_top" xlink:title=" ">
<polygon fill="white" stroke="black" points="234.5,-128.5 234.5,-273.5 422.5,-273.5 422.5,-128.5 234.5,-128.5"/>
<text text-anchor="start" x="242.5" y="-261.5" font-family="Helvetica,sans-Serif" font-size="10.00">Feel::MeshStructuredSetup</text>
<text text-anchor="middle" x="328.5" y="-250.5" font-family="Helvetica,sans-Serif" font-size="10.00">&lt; Dim, Dim, double, uint32_type &gt;</text>
<polyline fill="none" stroke="black" points="234.5,-243.5 422.5,-243.5 "/>
<text text-anchor="middle" x="328.5" y="-231.5" font-family="Helvetica,sans-Serif" font-size="10.00"> </text>
<polyline fill="none" stroke="black" points="234.5,-224.5 422.5,-224.5 "/>
<text text-anchor="start" x="242.5" y="-212.5" font-family="Helvetica,sans-Serif" font-size="10.00">+ cellId()</text>
<text text-anchor="start" x="242.5" y="-201.5" font-family="Helvetica,sans-Serif" font-size="10.00">+ isCartesian()</text>
<text text-anchor="start" x="242.5" y="-190.5" font-family="Helvetica,sans-Serif" font-size="10.00">+ MeshStructuredSetup()</text>
<text text-anchor="start" x="242.5" y="-179.5" font-family="Helvetica,sans-Serif" font-size="10.00">+ nPointByAxis()</text>
<text text-anchor="start" x="242.5" y="-168.5" font-family="Helvetica,sans-Serif" font-size="10.00">+ pointCoordinates()</text>
<text text-anchor="start" x="242.5" y="-157.5" font-family="Helvetica,sans-Serif" font-size="10.00">and 3 more...</text>
<text text-anchor="start" x="242.5" y="-146.5" font-family="Helvetica,sans-Serif" font-size="10.00">+ New()</text>
<text text-anchor="start" x="242.5" y="-135.5" font-family="Helvetica,sans-Serif" font-size="10.00"># updateDiscretisation()</text>
</a>
</g>
</g>
<!-- Node2&#45;&gt;Node1 -->
<g id="edge1" class="edge">
<title>Node2&#45;&gt;Node1</title>
<path fill="none" stroke="midnightblue" d="M231.01,-122.06C217.5,-111.26 204.03,-100.49 191.67,-90.61"/>
<polygon fill="none" stroke="midnightblue" points="228.97,-124.91 238.96,-128.42 233.34,-119.44 228.97,-124.91"/>
</g>
<!-- Node3 -->
<g id="node3" class="node">
<title>Node3</title>
<g id="a_node3"><a xlink:title=" ">
<polygon fill="white" stroke="#bfbfbf" points="0,-343.5 0,-400.5 155,-400.5 155,-343.5 0,-343.5"/>
<text text-anchor="middle" x="77.5" y="-388.5" font-family="Helvetica,sans-Serif" font-size="10.00">static constexpr uint16_type</text>
<polyline fill="none" stroke="#bfbfbf" points="0,-381.5 155,-381.5 "/>
<text text-anchor="middle" x="77.5" y="-369.5" font-family="Helvetica,sans-Serif" font-size="10.00"> </text>
<polyline fill="none" stroke="#bfbfbf" points="0,-362.5 155,-362.5 "/>
<text text-anchor="middle" x="77.5" y="-350.5" font-family="Helvetica,sans-Serif" font-size="10.00"> </text>
</a>
</g>
</g>
<!-- Node3&#45;&gt;Node1 -->
<g id="edge14" class="edge">
<title>Node3&#45;&gt;Node1</title>
<path fill="none" stroke="#404040" d="M82.53,-343.33C92.19,-290.2 113.51,-172.93 126.28,-102.73"/>
<polygon fill="none" stroke="#404040" points="126.33,-102.43 123.47,-95.81 128.48,-90.63 131.34,-97.24 126.33,-102.43"/>
<text text-anchor="middle" x="151" y="-204" font-family="Helvetica,sans-Serif" font-size="10.00"> +nDim</text>
<text text-anchor="middle" x="151" y="-193" font-family="Helvetica,sans-Serif" font-size="10.00">+nRealDim</text>
</g>
<!-- Node3&#45;&gt;Node2 -->
<g id="edge2" class="edge">
<title>Node3&#45;&gt;Node2</title>
<path fill="none" stroke="#404040" d="M92.55,-343.35C102.67,-326.77 117.28,-306.21 134.5,-292 160.51,-270.53 192.49,-252.96 222.93,-239.23"/>
<polygon fill="none" stroke="#404040" points="223.07,-239.17 226.96,-233.1 234.06,-234.35 230.17,-240.42 223.07,-239.17"/>
<text text-anchor="middle" x="163" y="-306" font-family="Helvetica,sans-Serif" font-size="10.00"> +nDim</text>
<text text-anchor="middle" x="163" y="-295" font-family="Helvetica,sans-Serif" font-size="10.00">+nRealDim</text>
</g>
<!-- Node4 -->
<g id="node4" class="node">
<title>Node4</title>
<g id="a_node4"><a xlink:href="classint.html" target="_top" xlink:title=" ">
<polygon fill="white" stroke="#bfbfbf" points="173,-343.5 173,-400.5 202,-400.5 202,-343.5 173,-343.5"/>
<text text-anchor="middle" x="187.5" y="-388.5" font-family="Helvetica,sans-Serif" font-size="10.00">int</text>
<polyline fill="none" stroke="#bfbfbf" points="173,-381.5 202,-381.5 "/>
<text text-anchor="middle" x="187.5" y="-369.5" font-family="Helvetica,sans-Serif" font-size="10.00"> </text>
<polyline fill="none" stroke="#bfbfbf" points="173,-362.5 202,-362.5 "/>
<text text-anchor="middle" x="187.5" y="-350.5" font-family="Helvetica,sans-Serif" font-size="10.00"> </text>
</a>
</g>
</g>
<!-- Node4&#45;&gt;Node2 -->
<g id="edge3" class="edge">
<title>Node4&#45;&gt;Node2</title>
<path fill="none" stroke="#404040" d="M189.03,-343.16C191.04,-327.1 195.53,-307.16 205.5,-292 211.14,-283.42 217.9,-275.37 225.31,-267.89"/>
<polygon fill="none" stroke="#404040" points="225.57,-267.64 227.17,-260.61 234.27,-259.37 232.68,-266.41 225.57,-267.64"/>
<text text-anchor="middle" x="240.5" y="-300.5" font-family="Helvetica,sans-Serif" font-size="10.00"> +nPointInCell</text>
</g>
<!-- Node5 -->
<g id="node5" class="node">
<title>Node5</title>
<g id="a_node5"><a xlink:title=" ">
<polygon fill="white" stroke="black" points="220,-343.5 220,-400.5 285,-400.5 285,-343.5 220,-343.5"/>
<text text-anchor="middle" x="252.5" y="-388.5" font-family="Helvetica,sans-Serif" font-size="10.00">std::string</text>
<polyline fill="none" stroke="black" points="220,-381.5 285,-381.5 "/>
<text text-anchor="middle" x="252.5" y="-369.5" font-family="Helvetica,sans-Serif" font-size="10.00"> </text>
<polyline fill="none" stroke="black" points="220,-362.5 285,-362.5 "/>
<text text-anchor="middle" x="252.5" y="-350.5" font-family="Helvetica,sans-Serif" font-size="10.00"> </text>
</a>
</g>
</g>
<!-- Node5&#45;&gt;Node2 -->
<g id="edge4" class="edge">
<title>Node5&#45;&gt;Node2</title>
<path fill="none" stroke="#404040" d="M264.88,-343.47C272.15,-327.3 281.76,-305.93 291.31,-284.7"/>
<polygon fill="none" stroke="#404040" points="291.36,-284.59 290.17,-277.47 296.28,-273.64 297.47,-280.75 291.36,-284.59"/>
<text text-anchor="middle" x="314" y="-300.5" font-family="Helvetica,sans-Serif" font-size="10.00"> #M_shape</text>
</g>
<!-- Node6 -->
<g id="node6" class="node">
<title>Node6</title>
<g id="a_node6"><a xlink:title=" ">
<polygon fill="white" stroke="black" points="200.5,-459.5 200.5,-527.5 304.5,-527.5 304.5,-459.5 200.5,-459.5"/>
<text text-anchor="start" x="208.5" y="-515.5" font-family="Helvetica,sans-Serif" font-size="10.00">std::basic_string&lt;</text>
<text text-anchor="middle" x="252.5" y="-504.5" font-family="Helvetica,sans-Serif" font-size="10.00"> Char &gt;</text>
<polyline fill="none" stroke="black" points="200.5,-497.5 304.5,-497.5 "/>
<text text-anchor="middle" x="252.5" y="-485.5" font-family="Helvetica,sans-Serif" font-size="10.00"> </text>
<polyline fill="none" stroke="black" points="200.5,-478.5 304.5,-478.5 "/>
<text text-anchor="middle" x="252.5" y="-466.5" font-family="Helvetica,sans-Serif" font-size="10.00"> </text>
</a>
</g>
</g>
<!-- Node6&#45;&gt;Node5 -->
<g id="edge5" class="edge">
<title>Node6&#45;&gt;Node5</title>
<path fill="none" stroke="midnightblue" d="M252.5,-448.96C252.5,-432.9 252.5,-415.16 252.5,-400.86"/>
<polygon fill="none" stroke="midnightblue" points="249,-449.21 252.5,-459.21 256,-449.21 249,-449.21"/>
</g>
<!-- Node7 -->
<g id="node7" class="node">
<title>Node7</title>
<g id="a_node7"><a xlink:title=" ">
<polygon fill="white" stroke="black" points="303.5,-338 303.5,-406 439.5,-406 439.5,-338 303.5,-338"/>
<text text-anchor="start" x="311.5" y="-394" font-family="Helvetica,sans-Serif" font-size="10.00">std::vector&lt; node_eigen</text>
<text text-anchor="middle" x="371.5" y="-383" font-family="Helvetica,sans-Serif" font-size="10.00">_type &gt;</text>
<polyline fill="none" stroke="black" points="303.5,-376 439.5,-376 "/>
<text text-anchor="middle" x="371.5" y="-364" font-family="Helvetica,sans-Serif" font-size="10.00"> </text>
<polyline fill="none" stroke="black" points="303.5,-357 439.5,-357 "/>
<text text-anchor="middle" x="371.5" y="-345" font-family="Helvetica,sans-Serif" font-size="10.00"> </text>
</a>
</g>
</g>
<!-- Node7&#45;&gt;Node2 -->
<g id="edge6" class="edge">
<title>Node7&#45;&gt;Node2</title>
<path fill="none" stroke="#404040" d="M363,-337.61C359.17,-322.55 354.46,-304.01 349.75,-285.54"/>
<polygon fill="none" stroke="#404040" points="349.72,-285.39 344.36,-280.56 346.76,-273.76 352.11,-278.59 349.72,-285.39"/>
<text text-anchor="middle" x="409.5" y="-300.5" font-family="Helvetica,sans-Serif" font-size="10.00"> #M_geometricPoints</text>
</g>
<!-- Node8 -->
<g id="node8" class="node">
<title>Node8</title>
<g id="a_node8"><a xlink:title=" ">
<polygon fill="white" stroke="#bfbfbf" points="322.5,-465 322.5,-522 422.5,-522 422.5,-465 322.5,-465"/>
<text text-anchor="middle" x="372.5" y="-510" font-family="Helvetica,sans-Serif" font-size="10.00">node_eigen_type</text>
<polyline fill="none" stroke="#bfbfbf" points="322.5,-503 422.5,-503 "/>
<text text-anchor="middle" x="372.5" y="-491" font-family="Helvetica,sans-Serif" font-size="10.00"> </text>
<polyline fill="none" stroke="#bfbfbf" points="322.5,-484 422.5,-484 "/>
<text text-anchor="middle" x="372.5" y="-472" font-family="Helvetica,sans-Serif" font-size="10.00"> </text>
</a>
</g>
</g>
<!-- Node8&#45;&gt;Node7 -->
<g id="edge7" class="edge">
<title>Node8&#45;&gt;Node7</title>
<path fill="none" stroke="#404040" d="M372.27,-464.78C372.15,-450.97 372.01,-433.9 371.88,-418.25"/>
<polygon fill="none" stroke="#404040" points="371.88,-418.09 367.83,-412.12 371.78,-406.09 375.83,-412.06 371.88,-418.09"/>
<text text-anchor="middle" x="401.5" y="-433" font-family="Helvetica,sans-Serif" font-size="10.00"> +elements</text>
</g>
<!-- Node9 -->
<g id="node9" class="node">
<title>Node9</title>
<g id="a_node9"><a xlink:title=" ">
<polygon fill="white" stroke="black" points="458,-338 458,-406 583,-406 583,-338 458,-338"/>
<text text-anchor="start" x="466" y="-394" font-family="Helvetica,sans-Serif" font-size="10.00">std::vector&lt; std::tuple</text>
<text text-anchor="middle" x="520.5" y="-383" font-family="Helvetica,sans-Serif" font-size="10.00">&lt; int, int, int &gt; &gt;</text>
<polyline fill="none" stroke="black" points="458,-376 583,-376 "/>
<text text-anchor="middle" x="520.5" y="-364" font-family="Helvetica,sans-Serif" font-size="10.00"> </text>
<polyline fill="none" stroke="black" points="458,-357 583,-357 "/>
<text text-anchor="middle" x="520.5" y="-345" font-family="Helvetica,sans-Serif" font-size="10.00"> </text>
</a>
</g>
</g>
<!-- Node9&#45;&gt;Node2 -->
<g id="edge8" class="edge">
<title>Node9&#45;&gt;Node2</title>
<path fill="none" stroke="#404040" d="M501.83,-337.66C492.44,-322.66 480.16,-305.36 466.5,-292 456.28,-282 444.78,-272.47 432.91,-263.61"/>
<polygon fill="none" stroke="#404040" points="432.58,-263.37 425.37,-263.09 422.86,-256.33 430.06,-256.61 432.58,-263.37"/>
<text text-anchor="middle" x="538" y="-300.5" font-family="Helvetica,sans-Serif" font-size="10.00"> #M_geometricEdges</text>
</g>
<!-- Node10 -->
<g id="node10" class="node">
<title>Node10</title>
<g id="a_node10"><a xlink:title=" ">
<polygon fill="white" stroke="#bfbfbf" points="463.5,-465 463.5,-522 577.5,-522 577.5,-465 463.5,-465"/>
<text text-anchor="middle" x="520.5" y="-510" font-family="Helvetica,sans-Serif" font-size="10.00">tuple&lt; int, int, int &gt;</text>
<polyline fill="none" stroke="#bfbfbf" points="463.5,-503 577.5,-503 "/>
<text text-anchor="middle" x="520.5" y="-491" font-family="Helvetica,sans-Serif" font-size="10.00"> </text>
<polyline fill="none" stroke="#bfbfbf" points="463.5,-484 577.5,-484 "/>
<text text-anchor="middle" x="520.5" y="-472" font-family="Helvetica,sans-Serif" font-size="10.00"> </text>
</a>
</g>
</g>
<!-- Node10&#45;&gt;Node9 -->
<g id="edge9" class="edge">
<title>Node10&#45;&gt;Node9</title>
<path fill="none" stroke="#404040" d="M520.5,-464.78C520.5,-450.97 520.5,-433.9 520.5,-418.25"/>
<polygon fill="none" stroke="#404040" points="520.5,-418.09 516.5,-412.09 520.5,-406.09 524.5,-412.09 520.5,-418.09"/>
<text text-anchor="middle" x="549.5" y="-433" font-family="Helvetica,sans-Serif" font-size="10.00"> +elements</text>
</g>
<!-- Node11 -->
<g id="node11" class="node">
<title>Node11</title>
<g id="a_node11"><a xlink:title=" ">
<polygon fill="white" stroke="black" points="601,-338 601,-406 708,-406 708,-338 601,-338"/>
<text text-anchor="start" x="609" y="-394" font-family="Helvetica,sans-Serif" font-size="10.00">std::vector&lt; index</text>
<text text-anchor="middle" x="654.5" y="-383" font-family="Helvetica,sans-Serif" font-size="10.00">_type &gt;</text>
<polyline fill="none" stroke="black" points="601,-376 708,-376 "/>
<text text-anchor="middle" x="654.5" y="-364" font-family="Helvetica,sans-Serif" font-size="10.00"> </text>
<polyline fill="none" stroke="black" points="601,-357 708,-357 "/>
<text text-anchor="middle" x="654.5" y="-345" font-family="Helvetica,sans-Serif" font-size="10.00"> </text>
</a>
</g>
</g>
<!-- Node11&#45;&gt;Node2 -->
<g id="edge10" class="edge">
<title>Node11&#45;&gt;Node2</title>
<path fill="none" stroke="#404040" d="M635.63,-337.63C625.27,-321.88 611.14,-303.97 594.5,-292 547.23,-257.99 486.17,-236.12 434.47,-222.47"/>
<polygon fill="none" stroke="#404040" points="434.19,-222.4 427.39,-224.79 422.57,-219.43 429.37,-217.04 434.19,-222.4"/>
<text text-anchor="middle" x="662" y="-300.5" font-family="Helvetica,sans-Serif" font-size="10.00"> #M_nPointByAxis</text>
</g>
<!-- Node12 -->
<g id="node12" class="node">
<title>Node12</title>
<g id="a_node12"><a xlink:title=" ">
<polygon fill="white" stroke="#bfbfbf" points="619,-465 619,-522 690,-522 690,-465 619,-465"/>
<text text-anchor="middle" x="654.5" y="-510" font-family="Helvetica,sans-Serif" font-size="10.00">index_type</text>
<polyline fill="none" stroke="#bfbfbf" points="619,-503 690,-503 "/>
<text text-anchor="middle" x="654.5" y="-491" font-family="Helvetica,sans-Serif" font-size="10.00"> </text>
<polyline fill="none" stroke="#bfbfbf" points="619,-484 690,-484 "/>
<text text-anchor="middle" x="654.5" y="-472" font-family="Helvetica,sans-Serif" font-size="10.00"> </text>
</a>
</g>
</g>
<!-- Node12&#45;&gt;Node11 -->
<g id="edge11" class="edge">
<title>Node12&#45;&gt;Node11</title>
<path fill="none" stroke="#404040" d="M654.5,-464.78C654.5,-450.97 654.5,-433.9 654.5,-418.25"/>
<polygon fill="none" stroke="#404040" points="654.5,-418.09 650.5,-412.09 654.5,-406.09 658.5,-412.09 654.5,-418.09"/>
<text text-anchor="middle" x="683.5" y="-433" font-family="Helvetica,sans-Serif" font-size="10.00"> +elements</text>
</g>
<!-- Node13 -->
<g id="node13" class="node">
<title>Node13</title>
<g id="a_node13"><a xlink:title=" ">
<polygon fill="white" stroke="black" points="726,-332.5 726,-411.5 873,-411.5 873,-332.5 726,-332.5"/>
<text text-anchor="start" x="734" y="-399.5" font-family="Helvetica,sans-Serif" font-size="10.00">std::vector&lt; std::tuple</text>
<text text-anchor="start" x="734" y="-388.5" font-family="Helvetica,sans-Serif" font-size="10.00">&lt; DivisionEdgeType, value</text>
<text text-anchor="middle" x="799.5" y="-377.5" font-family="Helvetica,sans-Serif" font-size="10.00">_type &gt; &gt;</text>
<polyline fill="none" stroke="black" points="726,-370.5 873,-370.5 "/>
<text text-anchor="middle" x="799.5" y="-358.5" font-family="Helvetica,sans-Serif" font-size="10.00"> </text>
<polyline fill="none" stroke="black" points="726,-351.5 873,-351.5 "/>
<text text-anchor="middle" x="799.5" y="-339.5" font-family="Helvetica,sans-Serif" font-size="10.00"> </text>
</a>
</g>
</g>
<!-- Node13&#45;&gt;Node2 -->
<g id="edge12" class="edge">
<title>Node13&#45;&gt;Node2</title>
<path fill="none" stroke="#404040" d="M764.56,-332.2C749.54,-317.64 730.97,-302.17 711.5,-292 624.54,-246.6 514.6,-223.81 434.84,-212.55"/>
<polygon fill="none" stroke="#404040" points="434.69,-212.53 428.2,-215.69 422.8,-210.91 429.28,-207.76 434.69,-212.53"/>
<text text-anchor="middle" x="805" y="-300.5" font-family="Helvetica,sans-Serif" font-size="10.00"> #M_discretisationEdges</text>
</g>
<!-- Node14 -->
<g id="node14" class="node">
<title>Node14</title>
<g id="a_node14"><a xlink:title=" ">
<polygon fill="white" stroke="#bfbfbf" points="728.5,-459.5 728.5,-527.5 870.5,-527.5 870.5,-459.5 728.5,-459.5"/>
<text text-anchor="start" x="736.5" y="-515.5" font-family="Helvetica,sans-Serif" font-size="10.00">tuple&lt; DivisionEdgeType,</text>
<text text-anchor="middle" x="799.5" y="-504.5" font-family="Helvetica,sans-Serif" font-size="10.00"> value_type &gt;</text>
<polyline fill="none" stroke="#bfbfbf" points="728.5,-497.5 870.5,-497.5 "/>
<text text-anchor="middle" x="799.5" y="-485.5" font-family="Helvetica,sans-Serif" font-size="10.00"> </text>
<polyline fill="none" stroke="#bfbfbf" points="728.5,-478.5 870.5,-478.5 "/>
<text text-anchor="middle" x="799.5" y="-466.5" font-family="Helvetica,sans-Serif" font-size="10.00"> </text>
</a>
</g>
</g>
<!-- Node14&#45;&gt;Node13 -->
<g id="edge13" class="edge">
<title>Node14&#45;&gt;Node13</title>
<path fill="none" stroke="#404040" d="M799.5,-459.21C799.5,-448.24 799.5,-435.78 799.5,-423.81"/>
<polygon fill="none" stroke="#404040" points="799.5,-423.6 795.5,-417.6 799.5,-411.6 803.5,-417.6 799.5,-423.6"/>
<text text-anchor="middle" x="828.5" y="-433" font-family="Helvetica,sans-Serif" font-size="10.00"> +elements</text>
</g>
</g>
</svg>
