<?xml version="1.0" encoding="UTF-8" standalone="no"?>
<!DOCTYPE svg PUBLIC "-//W3C//DTD SVG 1.1//EN"
 "http://www.w3.org/Graphics/SVG/1.1/DTD/svg11.dtd">
<!-- Generated by graphviz version 2.43.0 (0)
 -->
<!-- Title: Feel::BVH_InHouse&lt; MeshEntityType &gt; Pages: 1 -->
<svg width="413pt" height="547pt"
 viewBox="0.00 0.00 412.50 547.00" xmlns="http://www.w3.org/2000/svg" xmlns:xlink="http://www.w3.org/1999/xlink">
<g id="graph0" class="graph" transform="scale(1 1) rotate(0) translate(4 543)">
<title>Feel::BVH_InHouse&lt; MeshEntityType &gt;</title>
<polygon fill="white" stroke="transparent" points="-4,4 -4,-543 408.5,-543 408.5,4 -4,4"/>
<!-- Node1 -->
<g id="node1" class="node">
<title>Node1</title>
<g id="a_node1"><a xlink:title="in house implementation of BVH tool">
<polygon fill="#bfbfbf" stroke="black" points="184,-0.5 184,-90.5 301,-90.5 301,-0.5 184,-0.5"/>
<text text-anchor="start" x="192" y="-78.5" font-family="Helvetica,sans-Serif" font-size="10.00">Feel::BVH_InHouse&lt;</text>
<text text-anchor="middle" x="242.5" y="-67.5" font-family="Helvetica,sans-Serif" font-size="10.00"> MeshEntityType &gt;</text>
<polyline fill="none" stroke="black" points="184,-60.5 301,-60.5 "/>
<text text-anchor="middle" x="242.5" y="-48.5" font-family="Helvetica,sans-Serif" font-size="10.00"> </text>
<polyline fill="none" stroke="black" points="184,-41.5 301,-41.5 "/>
<text text-anchor="start" x="192" y="-29.5" font-family="Helvetica,sans-Serif" font-size="10.00">+ BVH_InHouse()</text>
<text text-anchor="start" x="192" y="-18.5" font-family="Helvetica,sans-Serif" font-size="10.00">+ intersect()</text>
<text text-anchor="start" x="192" y="-7.5" font-family="Helvetica,sans-Serif" font-size="10.00">+ updateForUse()</text>
</a>
</g>
</g>
<!-- Node2 -->
<g id="node2" class="node">
<title>Node2</title>
<g id="a_node2"><a xlink:href="classFeel_1_1BVH.html" target="_top" xlink:title="BVH base class.">
<polygon fill="white" stroke="black" points="160.5,-128.5 160.5,-240.5 324.5,-240.5 324.5,-128.5 160.5,-128.5"/>
<text text-anchor="middle" x="242.5" y="-228.5" font-family="Helvetica,sans-Serif" font-size="10.00">Feel::BVH&lt; MeshEntityType &gt;</text>
<polyline fill="none" stroke="black" points="160.5,-221.5 324.5,-221.5 "/>
<text text-anchor="middle" x="242.5" y="-209.5" font-family="Helvetica,sans-Serif" font-size="10.00"> </text>
<polyline fill="none" stroke="black" points="160.5,-202.5 324.5,-202.5 "/>
<text text-anchor="start" x="168.5" y="-190.5" font-family="Helvetica,sans-Serif" font-size="10.00">+ BVH()</text>
<text text-anchor="start" x="168.5" y="-179.5" font-family="Helvetica,sans-Serif" font-size="10.00">+ BVH()</text>
<text text-anchor="start" x="168.5" y="-168.5" font-family="Helvetica,sans-Serif" font-size="10.00">+ BVH()</text>
<text text-anchor="start" x="168.5" y="-157.5" font-family="Helvetica,sans-Serif" font-size="10.00">+ intersect()</text>
<text text-anchor="start" x="168.5" y="-146.5" font-family="Helvetica,sans-Serif" font-size="10.00">+ ~BVH()</text>
<text text-anchor="start" x="168.5" y="-135.5" font-family="Helvetica,sans-Serif" font-size="10.00"># updateForUse()</text>
</a>
</g>
</g>
<!-- Node2&#45;&gt;Node1 -->
<g id="edge1" class="edge">
<title>Node2&#45;&gt;Node1</title>
<path fill="none" stroke="midnightblue" d="M242.5,-118.13C242.5,-108.83 242.5,-99.44 242.5,-90.67"/>
<polygon fill="none" stroke="midnightblue" points="239,-118.17 242.5,-128.17 246,-118.17 239,-118.17"/>
</g>
<!-- Node3 -->
<g id="node3" class="node">
<title>Node3</title>
<g id="a_node3"><a xlink:title=" ">
<polygon fill="white" stroke="#bfbfbf" points="0,-305 0,-362 155,-362 155,-305 0,-305"/>
<text text-anchor="middle" x="77.5" y="-350" font-family="Helvetica,sans-Serif" font-size="10.00">static constexpr uint16_type</text>
<polyline fill="none" stroke="#bfbfbf" points="0,-343 155,-343 "/>
<text text-anchor="middle" x="77.5" y="-331" font-family="Helvetica,sans-Serif" font-size="10.00"> </text>
<polyline fill="none" stroke="#bfbfbf" points="0,-324 155,-324 "/>
<text text-anchor="middle" x="77.5" y="-312" font-family="Helvetica,sans-Serif" font-size="10.00"> </text>
</a>
</g>
</g>
<!-- Node3&#45;&gt;Node2 -->
<g id="edge2" class="edge">
<title>Node3&#45;&gt;Node2</title>
<path fill="none" stroke="#404040" d="M108.54,-304.85C126.34,-288.99 149.47,-268.38 171.48,-248.77"/>
<polygon fill="none" stroke="#404040" points="171.54,-248.71 173.36,-241.74 180.5,-240.73 178.69,-247.71 171.54,-248.71"/>
<text text-anchor="middle" x="189" y="-273" font-family="Helvetica,sans-Serif" font-size="10.00"> +nDim</text>
<text text-anchor="middle" x="189" y="-262" font-family="Helvetica,sans-Serif" font-size="10.00">+nRealDim</text>
</g>
<!-- Node4 -->
<g id="node4" class="node">
<title>Node4</title>
<g id="a_node4"><a xlink:title=" ">
<polygon fill="white" stroke="black" points="173,-299.5 173,-367.5 312,-367.5 312,-299.5 173,-299.5"/>
<text text-anchor="start" x="181" y="-355.5" font-family="Helvetica,sans-Serif" font-size="10.00">std::vector&lt; Feel::</text>
<text text-anchor="middle" x="242.5" y="-344.5" font-family="Helvetica,sans-Serif" font-size="10.00">BVH::BVHPrimitiveInfo &gt;</text>
<polyline fill="none" stroke="black" points="173,-337.5 312,-337.5 "/>
<text text-anchor="middle" x="242.5" y="-325.5" font-family="Helvetica,sans-Serif" font-size="10.00"> </text>
<polyline fill="none" stroke="black" points="173,-318.5 312,-318.5 "/>
<text text-anchor="middle" x="242.5" y="-306.5" font-family="Helvetica,sans-Serif" font-size="10.00"> </text>
</a>
</g>
</g>
<!-- Node4&#45;&gt;Node2 -->
<g id="edge3" class="edge">
<title>Node4&#45;&gt;Node2</title>
<path fill="none" stroke="#404040" d="M242.5,-299.14C242.5,-285.37 242.5,-268.89 242.5,-252.81"/>
<polygon fill="none" stroke="#404040" points="242.5,-252.64 238.5,-246.64 242.5,-240.64 246.5,-246.64 242.5,-252.64"/>
<text text-anchor="middle" x="287" y="-267.5" font-family="Helvetica,sans-Serif" font-size="10.00"> #M_primitiveInfo</text>
</g>
<!-- Node5 -->
<g id="node5" class="node">
<title>Node5</title>
<g id="a_node5"><a xlink:href="structFeel_1_1BVH_1_1BVHPrimitiveInfo.html" target="_top" xlink:title="Information on the primitive (mesh entity, bounding box, centroid)">
<polygon fill="white" stroke="black" points="166.5,-415.5 166.5,-538.5 318.5,-538.5 318.5,-415.5 166.5,-415.5"/>
<text text-anchor="start" x="174.5" y="-526.5" font-family="Helvetica,sans-Serif" font-size="10.00">Feel::BVH&lt; MeshEntityType</text>
<text text-anchor="middle" x="242.5" y="-515.5" font-family="Helvetica,sans-Serif" font-size="10.00"> &gt;::BVHPrimitiveInfo</text>
<polyline fill="none" stroke="black" points="166.5,-508.5 318.5,-508.5 "/>
<text text-anchor="middle" x="242.5" y="-496.5" font-family="Helvetica,sans-Serif" font-size="10.00"> </text>
<polyline fill="none" stroke="black" points="166.5,-489.5 318.5,-489.5 "/>
<text text-anchor="start" x="174.5" y="-477.5" font-family="Helvetica,sans-Serif" font-size="10.00">+ boundMax()</text>
<text text-anchor="start" x="174.5" y="-466.5" font-family="Helvetica,sans-Serif" font-size="10.00">+ boundMin()</text>
<text text-anchor="start" x="174.5" y="-455.5" font-family="Helvetica,sans-Serif" font-size="10.00">+ BVHPrimitiveInfo()</text>
<text text-anchor="start" x="174.5" y="-444.5" font-family="Helvetica,sans-Serif" font-size="10.00">+ BVHPrimitiveInfo()</text>
<text text-anchor="start" x="174.5" y="-433.5" font-family="Helvetica,sans-Serif" font-size="10.00">+ BVHPrimitiveInfo()</text>
<text text-anchor="start" x="174.5" y="-422.5" font-family="Helvetica,sans-Serif" font-size="10.00">and 4 more...</text>
</a>
</g>
</g>
<!-- Node5&#45;&gt;Node4 -->
<g id="edge4" class="edge">
<title>Node5&#45;&gt;Node4</title>
<path fill="none" stroke="#404040" d="M242.5,-415.17C242.5,-403.31 242.5,-391.06 242.5,-379.81"/>
<polygon fill="none" stroke="#404040" points="242.5,-379.6 238.5,-373.6 242.5,-367.6 246.5,-373.6 242.5,-379.6"/>
<text text-anchor="middle" x="271.5" y="-389" font-family="Helvetica,sans-Serif" font-size="10.00"> +elements</text>
</g>
<!-- Node6 -->
<g id="node6" class="node">
<title>Node6</title>
<g id="a_node6"><a xlink:title=" ">
<polygon fill="white" stroke="#bfbfbf" points="330.5,-305 330.5,-362 382.5,-362 382.5,-305 330.5,-305"/>
<text text-anchor="middle" x="356.5" y="-350" font-family="Helvetica,sans-Serif" font-size="10.00">Quality</text>
<polyline fill="none" stroke="#bfbfbf" points="330.5,-343 382.5,-343 "/>
<text text-anchor="middle" x="356.5" y="-331" font-family="Helvetica,sans-Serif" font-size="10.00"> </text>
<polyline fill="none" stroke="#bfbfbf" points="330.5,-324 382.5,-324 "/>
<text text-anchor="middle" x="356.5" y="-312" font-family="Helvetica,sans-Serif" font-size="10.00"> </text>
</a>
</g>
</g>
<!-- Node6&#45;&gt;Node2 -->
<g id="edge5" class="edge">
<title>Node6&#45;&gt;Node2</title>
<path fill="none" stroke="#404040" d="M352.36,-304.95C349.19,-290.36 343.74,-272.69 334.5,-259 332.39,-255.88 330.12,-252.83 327.7,-249.86"/>
<polygon fill="none" stroke="#404040" points="327.49,-249.62 320.53,-247.76 319.56,-240.61 326.53,-242.47 327.49,-249.62"/>
<text text-anchor="middle" x="374.5" y="-267.5" font-family="Helvetica,sans-Serif" font-size="10.00"> #M_quality</text>
</g>
</g>
</svg>
