<?xml version="1.0" encoding="UTF-8" standalone="no"?>
<!DOCTYPE svg PUBLIC "-//W3C//DTD SVG 1.1//EN"
 "http://www.w3.org/Graphics/SVG/1.1/DTD/svg11.dtd">
<!-- Generated by graphviz version 2.43.0 (0)
 -->
<!-- Title: Feel::FeelModels::SolidMechanicsBoundaryConditions&lt; Dim &gt;::DisplacementImposed Pages: 1 -->
<svg width="678pt" height="1012pt"
 viewBox="0.00 0.00 677.84 1012.00" xmlns="http://www.w3.org/2000/svg" xmlns:xlink="http://www.w3.org/1999/xlink">
<g id="graph0" class="graph" transform="scale(1 1) rotate(0) translate(4 1008)">
<title>Feel::FeelModels::SolidMechanicsBoundaryConditions&lt; Dim &gt;::DisplacementImposed</title>
<polygon fill="white" stroke="transparent" points="-4,4 -4,-1008 673.84,-1008 673.84,4 -4,4"/>
<!-- Node1 -->
<g id="node1" class="node">
<title>Node1</title>
<g id="a_node1"><a xlink:title=" ">
<polygon fill="#bfbfbf" stroke="black" points="286.34,-0.5 286.34,-112.5 466.34,-112.5 466.34,-0.5 286.34,-0.5"/>
<text text-anchor="start" x="294.34" y="-100.5" font-family="Helvetica,sans-Serif" font-size="10.00">Feel::FeelModels::SolidMechanics</text>
<text text-anchor="start" x="294.34" y="-89.5" font-family="Helvetica,sans-Serif" font-size="10.00">BoundaryConditions&lt; Dim &gt;</text>
<text text-anchor="middle" x="376.34" y="-78.5" font-family="Helvetica,sans-Serif" font-size="10.00">::DisplacementImposed</text>
<polyline fill="none" stroke="black" points="286.34,-71.5 466.34,-71.5 "/>
<text text-anchor="middle" x="376.34" y="-59.5" font-family="Helvetica,sans-Serif" font-size="10.00"> </text>
<polyline fill="none" stroke="black" points="286.34,-52.5 466.34,-52.5 "/>
<text text-anchor="start" x="294.34" y="-40.5" font-family="Helvetica,sans-Serif" font-size="10.00">+ DisplacementImposed()</text>
<text text-anchor="start" x="294.34" y="-29.5" font-family="Helvetica,sans-Serif" font-size="10.00">+ DisplacementImposed()</text>
<text text-anchor="start" x="294.34" y="-18.5" font-family="Helvetica,sans-Serif" font-size="10.00">+ DisplacementImposed()</text>
<text text-anchor="start" x="294.34" y="-7.5" font-family="Helvetica,sans-Serif" font-size="10.00">+ type()</text>
</a>
</g>
</g>
<!-- Node2 -->
<g id="node2" class="node">
<title>Node2</title>
<g id="a_node2"><a xlink:href="classFeel_1_1FeelModels_1_1GenericDirichletBoundaryCondition.html" target="_top" xlink:title=" ">
<polygon fill="white" stroke="#bfbfbf" points="293.84,-150.5 293.84,-306.5 458.84,-306.5 458.84,-150.5 293.84,-150.5"/>
<text text-anchor="start" x="301.84" y="-294.5" font-family="Helvetica,sans-Serif" font-size="10.00">Feel::FeelModels::Generic</text>
<text text-anchor="start" x="301.84" y="-283.5" font-family="Helvetica,sans-Serif" font-size="10.00">DirichletBoundaryCondition</text>
<text text-anchor="middle" x="376.34" y="-272.5" font-family="Helvetica,sans-Serif" font-size="10.00">&lt; Dim, 1 &gt;</text>
<polyline fill="none" stroke="#bfbfbf" points="293.84,-265.5 458.84,-265.5 "/>
<text text-anchor="middle" x="376.34" y="-253.5" font-family="Helvetica,sans-Serif" font-size="10.00"> </text>
<polyline fill="none" stroke="#bfbfbf" points="293.84,-246.5 458.84,-246.5 "/>
<text text-anchor="start" x="301.84" y="-234.5" font-family="Helvetica,sans-Serif" font-size="10.00">+ applyDofEliminationLinear()</text>
<text text-anchor="start" x="301.84" y="-223.5" font-family="Helvetica,sans-Serif" font-size="10.00">+ applyNewtonInitialGuess()</text>
<text text-anchor="start" x="301.84" y="-212.5" font-family="Helvetica,sans-Serif" font-size="10.00">+ expr()</text>
<text text-anchor="start" x="301.84" y="-201.5" font-family="Helvetica,sans-Serif" font-size="10.00">+ exprComponent()</text>
<text text-anchor="start" x="301.84" y="-190.5" font-family="Helvetica,sans-Serif" font-size="10.00">+ GenericDirichletBoundary</text>
<text text-anchor="start" x="301.84" y="-179.5" font-family="Helvetica,sans-Serif" font-size="10.00">Condition()</text>
<text text-anchor="start" x="301.84" y="-168.5" font-family="Helvetica,sans-Serif" font-size="10.00">and 12 more...</text>
<text text-anchor="start" x="301.84" y="-157.5" font-family="Helvetica,sans-Serif" font-size="10.00">+ tabulateInformations()</text>
</a>
</g>
</g>
<!-- Node2&#45;&gt;Node1 -->
<g id="edge1" class="edge">
<title>Node2&#45;&gt;Node1</title>
<path fill="none" stroke="midnightblue" d="M376.34,-140.35C376.34,-131.02 376.34,-121.73 376.34,-112.93"/>
<polygon fill="none" stroke="midnightblue" points="372.84,-140.46 376.34,-150.46 379.84,-140.46 372.84,-140.46"/>
</g>
<!-- Node3 -->
<g id="node3" class="node">
<title>Node3</title>
<g id="a_node3"><a xlink:title=" ">
<polygon fill="white" stroke="black" points="35.84,-498 35.84,-555 100.84,-555 100.84,-498 35.84,-498"/>
<text text-anchor="middle" x="68.34" y="-543" font-family="Helvetica,sans-Serif" font-size="10.00">std::string</text>
<polyline fill="none" stroke="black" points="35.84,-536 100.84,-536 "/>
<text text-anchor="middle" x="68.34" y="-524" font-family="Helvetica,sans-Serif" font-size="10.00"> </text>
<polyline fill="none" stroke="black" points="35.84,-517 100.84,-517 "/>
<text text-anchor="middle" x="68.34" y="-505" font-family="Helvetica,sans-Serif" font-size="10.00"> </text>
</a>
</g>
</g>
<!-- Node3&#45;&gt;Node2 -->
<g id="edge2" class="edge">
<title>Node3&#45;&gt;Node2</title>
<path fill="none" stroke="#404040" d="M45.27,-497.94C18.13,-462 -19.44,-398.46 12.34,-354 73.12,-268.98 195.59,-241.38 281.63,-232.77"/>
<polygon fill="none" stroke="#404040" points="281.83,-232.75 287.44,-228.22 293.78,-231.66 288.17,-236.19 281.83,-232.75"/>
<text text-anchor="middle" x="39.34" y="-386" font-family="Helvetica,sans-Serif" font-size="10.00"> #M_name</text>
</g>
<!-- Node11 -->
<g id="node11" class="node">
<title>Node11</title>
<g id="a_node11"><a xlink:title=" ">
<polygon fill="white" stroke="black" points="75.34,-360 75.34,-417 199.34,-417 199.34,-360 75.34,-360"/>
<text text-anchor="middle" x="137.34" y="-405" font-family="Helvetica,sans-Serif" font-size="10.00">std::set&lt; std::string &gt;</text>
<polyline fill="none" stroke="black" points="75.34,-398 199.34,-398 "/>
<text text-anchor="middle" x="137.34" y="-386" font-family="Helvetica,sans-Serif" font-size="10.00"> </text>
<polyline fill="none" stroke="black" points="75.34,-379 199.34,-379 "/>
<text text-anchor="middle" x="137.34" y="-367" font-family="Helvetica,sans-Serif" font-size="10.00"> </text>
</a>
</g>
</g>
<!-- Node3&#45;&gt;Node11 -->
<g id="edge11" class="edge">
<title>Node3&#45;&gt;Node11</title>
<path fill="none" stroke="#404040" d="M82.31,-497.98C92.48,-477.93 106.4,-450.49 117.69,-428.23"/>
<polygon fill="none" stroke="#404040" points="117.73,-428.15 116.88,-420.99 123.16,-417.45 124.02,-424.61 117.73,-428.15"/>
<text text-anchor="middle" x="128.34" y="-444" font-family="Helvetica,sans-Serif" font-size="10.00"> +keys</text>
</g>
<!-- Node4 -->
<g id="node4" class="node">
<title>Node4</title>
<g id="a_node4"><a xlink:title=" ">
<polygon fill="white" stroke="black" points="16.34,-730.5 16.34,-798.5 120.34,-798.5 120.34,-730.5 16.34,-730.5"/>
<text text-anchor="start" x="24.34" y="-786.5" font-family="Helvetica,sans-Serif" font-size="10.00">std::basic_string&lt;</text>
<text text-anchor="middle" x="68.34" y="-775.5" font-family="Helvetica,sans-Serif" font-size="10.00"> Char &gt;</text>
<polyline fill="none" stroke="black" points="16.34,-768.5 120.34,-768.5 "/>
<text text-anchor="middle" x="68.34" y="-756.5" font-family="Helvetica,sans-Serif" font-size="10.00"> </text>
<polyline fill="none" stroke="black" points="16.34,-749.5 120.34,-749.5 "/>
<text text-anchor="middle" x="68.34" y="-737.5" font-family="Helvetica,sans-Serif" font-size="10.00"> </text>
</a>
</g>
</g>
<!-- Node4&#45;&gt;Node3 -->
<g id="edge3" class="edge">
<title>Node4&#45;&gt;Node3</title>
<path fill="none" stroke="midnightblue" d="M68.34,-720.33C68.34,-672.23 68.34,-595.89 68.34,-555.19"/>
<polygon fill="none" stroke="midnightblue" points="64.84,-720.44 68.34,-730.44 71.84,-720.44 64.84,-720.44"/>
</g>
<!-- Node5 -->
<g id="node5" class="node">
<title>Node5</title>
<g id="a_node5"><a xlink:title=" ">
<polygon fill="white" stroke="black" points="217.84,-354.5 217.84,-422.5 366.84,-422.5 366.84,-354.5 217.84,-354.5"/>
<text text-anchor="start" x="225.84" y="-410.5" font-family="Helvetica,sans-Serif" font-size="10.00">std::weak_ptr&lt; Feel</text>
<text text-anchor="middle" x="292.34" y="-399.5" font-family="Helvetica,sans-Serif" font-size="10.00">::FeelModels::ModelBase &gt;</text>
<polyline fill="none" stroke="black" points="217.84,-392.5 366.84,-392.5 "/>
<text text-anchor="middle" x="292.34" y="-380.5" font-family="Helvetica,sans-Serif" font-size="10.00"> </text>
<polyline fill="none" stroke="black" points="217.84,-373.5 366.84,-373.5 "/>
<text text-anchor="start" x="225.84" y="-361.5" font-family="Helvetica,sans-Serif" font-size="10.00">+ operator&#45;&gt;()</text>
</a>
</g>
</g>
<!-- Node5&#45;&gt;Node2 -->
<g id="edge4" class="edge">
<title>Node5&#45;&gt;Node2</title>
<path fill="none" stroke="#404040" d="M302.33,-354.46C305.7,-344.77 309.77,-334.29 314.34,-325 315.61,-322.42 316.94,-319.82 318.31,-317.22"/>
<polygon fill="none" stroke="#404040" points="318.41,-317.04 317.79,-309.86 324.18,-306.52 324.8,-313.7 318.41,-317.04"/>
<text text-anchor="middle" x="361.34" y="-328" font-family="Helvetica,sans-Serif" font-size="10.00"> #M_toolboxParent</text>
</g>
<!-- Node6 -->
<g id="node6" class="node">
<title>Node6</title>
<g id="a_node6"><a xlink:href="classFeel_1_1FeelModels_1_1ModelBase.html" target="_top" xlink:title="Model base class.">
<polygon fill="white" stroke="black" points="195.84,-470.5 195.84,-582.5 388.84,-582.5 388.84,-470.5 195.84,-470.5"/>
<text text-anchor="middle" x="292.34" y="-570.5" font-family="Helvetica,sans-Serif" font-size="10.00">Feel::FeelModels::ModelBase</text>
<polyline fill="none" stroke="black" points="195.84,-563.5 388.84,-563.5 "/>
<text text-anchor="middle" x="292.34" y="-551.5" font-family="Helvetica,sans-Serif" font-size="10.00"> </text>
<polyline fill="none" stroke="black" points="195.84,-544.5 388.84,-544.5 "/>
<text text-anchor="start" x="203.84" y="-532.5" font-family="Helvetica,sans-Serif" font-size="10.00">+ addParameterInModelProperties()</text>
<text text-anchor="start" x="203.84" y="-521.5" font-family="Helvetica,sans-Serif" font-size="10.00">+ addTimerTool()</text>
<text text-anchor="start" x="203.84" y="-510.5" font-family="Helvetica,sans-Serif" font-size="10.00">+ clovm()</text>
<text text-anchor="start" x="203.84" y="-499.5" font-family="Helvetica,sans-Serif" font-size="10.00">+ createWorldsComm()</text>
<text text-anchor="start" x="203.84" y="-488.5" font-family="Helvetica,sans-Serif" font-size="10.00">+ hasModelProperties()</text>
<text text-anchor="start" x="203.84" y="-477.5" font-family="Helvetica,sans-Serif" font-size="10.00">and 53 more...</text>
</a>
</g>
</g>
<!-- Node6&#45;&gt;Node5 -->
<g id="edge5" class="edge">
<title>Node6&#45;&gt;Node5</title>
<path fill="none" stroke="#404040" d="M292.34,-470.18C292.34,-458.43 292.34,-446.15 292.34,-434.82"/>
<polygon fill="none" stroke="#404040" points="292.34,-434.51 288.34,-428.51 292.34,-422.51 296.34,-428.51 292.34,-434.51"/>
<text text-anchor="middle" x="304.84" y="-444" font-family="Helvetica,sans-Serif" font-size="10.00"> +ptr</text>
</g>
<!-- Node7 -->
<g id="node7" class="node">
<title>Node7</title>
<g id="a_node7"><a xlink:href="classFeel_1_1JournalWatcher.html" target="_top" xlink:title=" ">
<polygon fill="white" stroke="#bfbfbf" points="170.84,-620.5 170.84,-908.5 347.84,-908.5 347.84,-620.5 170.84,-620.5"/>
<text text-anchor="middle" x="259.34" y="-896.5" font-family="Helvetica,sans-Serif" font-size="10.00">Feel::JournalWatcher</text>
<polyline fill="none" stroke="#bfbfbf" points="170.84,-889.5 347.84,-889.5 "/>
<text text-anchor="middle" x="259.34" y="-877.5" font-family="Helvetica,sans-Serif" font-size="10.00"> </text>
<polyline fill="none" stroke="#bfbfbf" points="170.84,-870.5 347.84,-870.5 "/>
<text text-anchor="start" x="178.84" y="-858.5" font-family="Helvetica,sans-Serif" font-size="10.00">* M_journal_is_connected</text>
<text text-anchor="start" x="178.84" y="-847.5" font-family="Helvetica,sans-Serif" font-size="10.00">* M_category</text>
<text text-anchor="start" x="178.84" y="-836.5" font-family="Helvetica,sans-Serif" font-size="10.00">* M_name</text>
<text text-anchor="start" x="178.84" y="-825.5" font-family="Helvetica,sans-Serif" font-size="10.00">* M_function_updateInformation</text>
<text text-anchor="start" x="178.84" y="-814.5" font-family="Helvetica,sans-Serif" font-size="10.00">Object</text>
<text text-anchor="start" x="178.84" y="-803.5" font-family="Helvetica,sans-Serif" font-size="10.00">* M_informationObject</text>
<text text-anchor="start" x="178.84" y="-792.5" font-family="Helvetica,sans-Serif" font-size="10.00">* S_counterObjectByCategory</text>
<text text-anchor="start" x="178.84" y="-781.5" font-family="Helvetica,sans-Serif" font-size="10.00">* JournalWatcher()</text>
<text text-anchor="start" x="178.84" y="-770.5" font-family="Helvetica,sans-Serif" font-size="10.00">* JournalWatcher()</text>
<text text-anchor="start" x="178.84" y="-759.5" font-family="Helvetica,sans-Serif" font-size="10.00">* JournalWatcher()</text>
<text text-anchor="start" x="178.84" y="-748.5" font-family="Helvetica,sans-Serif" font-size="10.00">* JournalWatcher()</text>
<text text-anchor="start" x="178.84" y="-737.5" font-family="Helvetica,sans-Serif" font-size="10.00">* ~JournalWatcher()</text>
<text text-anchor="start" x="178.84" y="-726.5" font-family="Helvetica,sans-Serif" font-size="10.00">* journalIsConnected()</text>
<text text-anchor="start" x="178.84" y="-715.5" font-family="Helvetica,sans-Serif" font-size="10.00">* journalWatcherInstanceName()</text>
<text text-anchor="start" x="178.84" y="-704.5" font-family="Helvetica,sans-Serif" font-size="10.00">* journalSection()</text>
<text text-anchor="start" x="178.84" y="-693.5" font-family="Helvetica,sans-Serif" font-size="10.00">* informationObject()</text>
<text text-anchor="start" x="178.84" y="-682.5" font-family="Helvetica,sans-Serif" font-size="10.00">* journalConnect()</text>
<text text-anchor="start" x="178.84" y="-671.5" font-family="Helvetica,sans-Serif" font-size="10.00">* journalDisconnect()</text>
<text text-anchor="start" x="178.84" y="-660.5" font-family="Helvetica,sans-Serif" font-size="10.00">* updateInformationObject()</text>
<text text-anchor="start" x="178.84" y="-649.5" font-family="Helvetica,sans-Serif" font-size="10.00">* setInformationObject()</text>
<text text-anchor="start" x="178.84" y="-638.5" font-family="Helvetica,sans-Serif" font-size="10.00">* putInformationObject()</text>
<text text-anchor="start" x="178.84" y="-627.5" font-family="Helvetica,sans-Serif" font-size="10.00">and 4 more...</text>
</a>
</g>
</g>
<!-- Node7&#45;&gt;Node6 -->
<g id="edge6" class="edge">
<title>Node7&#45;&gt;Node6</title>
<path fill="none" stroke="midnightblue" d="M280.77,-610.28C282.12,-600.64 283.42,-591.35 284.63,-582.69"/>
<polygon fill="none" stroke="midnightblue" points="277.27,-610.05 279.35,-620.43 284.2,-611.02 277.27,-610.05"/>
</g>
<!-- Node8 -->
<g id="node8" class="node">
<title>Node8</title>
<g id="a_node8"><a xlink:title=" ">
<polygon fill="white" stroke="#bfbfbf" points="205.84,-946.5 205.84,-1003.5 312.84,-1003.5 312.84,-946.5 205.84,-946.5"/>
<text text-anchor="middle" x="259.34" y="-991.5" font-family="Helvetica,sans-Serif" font-size="10.00">Event::SlotHandler</text>
<polyline fill="none" stroke="#bfbfbf" points="205.84,-984.5 312.84,-984.5 "/>
<text text-anchor="middle" x="259.34" y="-972.5" font-family="Helvetica,sans-Serif" font-size="10.00"> </text>
<polyline fill="none" stroke="#bfbfbf" points="205.84,-965.5 312.84,-965.5 "/>
<text text-anchor="middle" x="259.34" y="-953.5" font-family="Helvetica,sans-Serif" font-size="10.00"> </text>
</a>
</g>
</g>
<!-- Node8&#45;&gt;Node7 -->
<g id="edge7" class="edge">
<title>Node8&#45;&gt;Node7</title>
<path fill="none" stroke="midnightblue" d="M259.34,-936.25C259.34,-927.86 259.34,-918.49 259.34,-908.57"/>
<polygon fill="none" stroke="midnightblue" points="255.84,-936.31 259.34,-946.31 262.84,-936.31 255.84,-936.31"/>
</g>
<!-- Node9 -->
<g id="node9" class="node">
<title>Node9</title>
<g id="a_node9"><a xlink:title=" ">
<polygon fill="white" stroke="#bfbfbf" points="365.84,-730.5 365.84,-798.5 510.84,-798.5 510.84,-730.5 365.84,-730.5"/>
<text text-anchor="start" x="373.84" y="-786.5" font-family="Helvetica,sans-Serif" font-size="10.00">std::enable_shared</text>
<text text-anchor="middle" x="438.34" y="-775.5" font-family="Helvetica,sans-Serif" font-size="10.00">_from_this&lt; ModelBase &gt;</text>
<polyline fill="none" stroke="#bfbfbf" points="365.84,-768.5 510.84,-768.5 "/>
<text text-anchor="middle" x="438.34" y="-756.5" font-family="Helvetica,sans-Serif" font-size="10.00"> </text>
<polyline fill="none" stroke="#bfbfbf" points="365.84,-749.5 510.84,-749.5 "/>
<text text-anchor="middle" x="438.34" y="-737.5" font-family="Helvetica,sans-Serif" font-size="10.00"> </text>
</a>
</g>
</g>
<!-- Node9&#45;&gt;Node6 -->
<g id="edge8" class="edge">
<title>Node9&#45;&gt;Node6</title>
<path fill="none" stroke="midnightblue" d="M415.46,-721.25C399.5,-692.36 377.39,-653.41 356.34,-620 348.64,-607.77 340.04,-594.89 331.71,-582.74"/>
<polygon fill="none" stroke="midnightblue" points="412.52,-723.18 420.41,-730.25 418.66,-719.8 412.52,-723.18"/>
</g>
<!-- Node10 -->
<g id="node10" class="node">
<title>Node10</title>
<g id="a_node10"><a xlink:title=" ">
<polygon fill="white" stroke="#bfbfbf" points="385.34,-360 385.34,-417 485.34,-417 485.34,-360 385.34,-360"/>
<text text-anchor="middle" x="435.34" y="-405" font-family="Helvetica,sans-Serif" font-size="10.00">ModelExpression</text>
<polyline fill="none" stroke="#bfbfbf" points="385.34,-398 485.34,-398 "/>
<text text-anchor="middle" x="435.34" y="-386" font-family="Helvetica,sans-Serif" font-size="10.00"> </text>
<polyline fill="none" stroke="#bfbfbf" points="385.34,-379 485.34,-379 "/>
<text text-anchor="middle" x="435.34" y="-367" font-family="Helvetica,sans-Serif" font-size="10.00"> </text>
</a>
</g>
</g>
<!-- Node10&#45;&gt;Node2 -->
<g id="edge9" class="edge">
<title>Node10&#45;&gt;Node2</title>
<path fill="none" stroke="#404040" d="M425.07,-359.98C420.62,-348.07 415.14,-333.4 409.48,-318.25"/>
<polygon fill="none" stroke="#404040" points="409.33,-317.84 403.48,-313.62 405.13,-306.6 410.98,-310.82 409.33,-317.84"/>
<text text-anchor="middle" x="443.34" y="-328" font-family="Helvetica,sans-Serif" font-size="10.00"> #M_mexpr</text>
</g>
<!-- Node11&#45;&gt;Node2 -->
<g id="edge10" class="edge">
<title>Node11&#45;&gt;Node2</title>
<path fill="none" stroke="#404040" d="M178.97,-359.98C207.82,-340.91 247.4,-314.74 283.54,-290.85"/>
<polygon fill="none" stroke="#404040" points="283.62,-290.8 286.42,-284.15 293.63,-284.18 290.83,-290.82 283.62,-290.8"/>
<text text-anchor="middle" x="262.34" y="-328" font-family="Helvetica,sans-Serif" font-size="10.00"> #M_markers</text>
</g>
<!-- Node12 -->
<g id="node12" class="node">
<title>Node12</title>
<g id="a_node12"><a xlink:title=" ">
<polygon fill="white" stroke="#bfbfbf" points="503.84,-360 503.84,-417 598.84,-417 598.84,-360 503.84,-360"/>
<text text-anchor="middle" x="551.34" y="-405" font-family="Helvetica,sans-Serif" font-size="10.00">ComponentType</text>
<polyline fill="none" stroke="#bfbfbf" points="503.84,-398 598.84,-398 "/>
<text text-anchor="middle" x="551.34" y="-386" font-family="Helvetica,sans-Serif" font-size="10.00"> </text>
<polyline fill="none" stroke="#bfbfbf" points="503.84,-379 598.84,-379 "/>
<text text-anchor="middle" x="551.34" y="-367" font-family="Helvetica,sans-Serif" font-size="10.00"> </text>
</a>
</g>
</g>
<!-- Node12&#45;&gt;Node2 -->
<g id="edge12" class="edge">
<title>Node12&#45;&gt;Node2</title>
<path fill="none" stroke="#404040" d="M520.86,-359.98C505.98,-346.55 487.21,-329.59 468.16,-312.4"/>
<polygon fill="none" stroke="#404040" points="468.01,-312.26 460.88,-311.21 459.1,-304.22 466.24,-305.27 468.01,-312.26"/>
<text text-anchor="middle" x="515.84" y="-328" font-family="Helvetica,sans-Serif" font-size="10.00"> #M_comp</text>
</g>
<!-- Node13 -->
<g id="node13" class="node">
<title>Node13</title>
<g id="a_node13"><a xlink:title=" ">
<polygon fill="white" stroke="#bfbfbf" points="616.84,-360 616.84,-417 669.84,-417 669.84,-360 616.84,-360"/>
<text text-anchor="middle" x="643.34" y="-405" font-family="Helvetica,sans-Serif" font-size="10.00">Method</text>
<polyline fill="none" stroke="#bfbfbf" points="616.84,-398 669.84,-398 "/>
<text text-anchor="middle" x="643.34" y="-386" font-family="Helvetica,sans-Serif" font-size="10.00"> </text>
<polyline fill="none" stroke="#bfbfbf" points="616.84,-379 669.84,-379 "/>
<text text-anchor="middle" x="643.34" y="-367" font-family="Helvetica,sans-Serif" font-size="10.00"> </text>
</a>
</g>
</g>
<!-- Node13&#45;&gt;Node2 -->
<g id="edge13" class="edge">
<title>Node13&#45;&gt;Node2</title>
<path fill="none" stroke="#404040" d="M616.45,-360.42C613.79,-358.15 611.07,-355.98 608.34,-354 565.38,-322.8 513.64,-294.29 469.93,-272.44"/>
<polygon fill="none" stroke="#404040" points="469.76,-272.35 462.61,-273.28 459.01,-267.03 466.16,-266.11 469.76,-272.35"/>
<text text-anchor="middle" x="610.34" y="-328" font-family="Helvetica,sans-Serif" font-size="10.00"> #M_method</text>
</g>
</g>
</svg>
