<?xml version="1.0" encoding="UTF-8" standalone="no"?>
<!DOCTYPE svg PUBLIC "-//W3C//DTD SVG 1.1//EN"
 "http://www.w3.org/Graphics/SVG/1.1/DTD/svg11.dtd">
<!-- Generated by graphviz version 2.43.0 (0)
 -->
<!-- Title: Feel::Mesh2D&lt; Shape, T, IndexT &gt; Pages: 1 -->
<!--zoomable 1157 -->
<svg id="main" version="1.1" xmlns="http://www.w3.org/2000/svg" xmlns:xlink="http://www.w3.org/1999/xlink" xml:space="preserve" onload="init(evt)">
<style type="text/css"><![CDATA[
.edge:hover path { stroke: red; }
.edge:hover polygon { stroke: red; fill: red; }
]]></style>
<script type="text/javascript"><![CDATA[
var edges = document.getElementsByTagName('g');
if (edges && edges.length) {
  for (var i=0;i<edges.length;i++) {
    if (edges[i].id.substr(0,4)=='edge') {
      edges[i].setAttribute('class','edge');
    }
  }
}
]]></script>
        <defs>
                <circle id="rim" cx="0" cy="0" r="7"/>
                <circle id="rim2" cx="0" cy="0" r="3.5"/>
                <g id="zoomPlus">
                        <use xlink:href="#rim" fill="#404040">
                                <set attributeName="fill" to="#808080" begin="zoomplus.mouseover" end="zoomplus.mouseout"/>
                        </use>
                        <path d="M-4,0h8M0,-4v8" fill="none" stroke="white" stroke-width="1.5" pointer-events="none"/>
                </g>
                <g id="zoomMin">
                        <use xlink:href="#rim" fill="#404040">
                                <set attributeName="fill" to="#808080" begin="zoomminus.mouseover" end="zoomminus.mouseout"/>
                        </use>
                        <path d="M-4,0h8" fill="none" stroke="white" stroke-width="1.5" pointer-events="none"/>
                </g>
                <g id="dirArrow">
                        <path fill="none" stroke="white" stroke-width="1.5" d="M0,-3.0v7 M-2.5,-0.5L0,-3.0L2.5,-0.5"/>
                </g>
               <g id="resetDef">
                       <use xlink:href="#rim2" fill="#404040">
                               <set attributeName="fill" to="#808080" begin="reset.mouseover" end="reset.mouseout"/>
                       </use>
               </g>
        </defs>

<script type="text/javascript">
var viewWidth = 1025;
var viewHeight = 1157;
var sectionId = 'dynsection-1';
</script>
<script xlink:href="svgpan.js"/>
<svg id="graph" class="graph">
<g id="viewport">
<title>Feel::Mesh2D&lt; Shape, T, IndexT &gt;</title>
<polygon fill="white" stroke="transparent" points="-4,4 -4,-1153 1021,-1153 1021,4 -4,4"/>
<!-- Node1 -->
<g id="node1" class="node">
<title>Node1</title>
<g id="a_node1"><a xlink:title="2D mesh class">
<polygon fill="#bfbfbf" stroke="black" points="416.5,-0.5 416.5,-332.5 577.5,-332.5 577.5,-0.5 416.5,-0.5"/>
<text text-anchor="start" x="424.5" y="-320.5" font-family="Helvetica,sans-Serif" font-size="10.00">Feel::Mesh2D&lt; Shape,</text>
<text text-anchor="middle" x="497" y="-309.5" font-family="Helvetica,sans-Serif" font-size="10.00"> T, IndexT &gt;</text>
<polyline fill="none" stroke="black" points="416.5,-302.5 577.5,-302.5 "/>
<text text-anchor="middle" x="497" y="-290.5" font-family="Helvetica,sans-Serif" font-size="10.00"> </text>
<polyline fill="none" stroke="black" points="416.5,-283.5 577.5,-283.5 "/>
<text text-anchor="start" x="424.5" y="-271.5" font-family="Helvetica,sans-Serif" font-size="10.00">* return_type</text>
<text text-anchor="start" x="424.5" y="-260.5" font-family="Helvetica,sans-Serif" font-size="10.00">* super_visitable</text>
<text text-anchor="start" x="424.5" y="-249.5" font-family="Helvetica,sans-Serif" font-size="10.00">* super</text>
<text text-anchor="start" x="424.5" y="-238.5" font-family="Helvetica,sans-Serif" font-size="10.00">* index_type</text>
<text text-anchor="start" x="424.5" y="-227.5" font-family="Helvetica,sans-Serif" font-size="10.00">* size_type</text>
<text text-anchor="start" x="424.5" y="-216.5" font-family="Helvetica,sans-Serif" font-size="10.00">and 26 more...</text>
<text text-anchor="start" x="424.5" y="-205.5" font-family="Helvetica,sans-Serif" font-size="10.00">* boost::serialization</text>
<text text-anchor="start" x="424.5" y="-194.5" font-family="Helvetica,sans-Serif" font-size="10.00">::access</text>
<text text-anchor="start" x="424.5" y="-183.5" font-family="Helvetica,sans-Serif" font-size="10.00">* beginEdge()</text>
<text text-anchor="start" x="424.5" y="-172.5" font-family="Helvetica,sans-Serif" font-size="10.00">* endEdge()</text>
<text text-anchor="start" x="424.5" y="-161.5" font-family="Helvetica,sans-Serif" font-size="10.00">* edges()</text>
<text text-anchor="start" x="424.5" y="-150.5" font-family="Helvetica,sans-Serif" font-size="10.00">* setWorldComm()</text>
<text text-anchor="start" x="424.5" y="-139.5" font-family="Helvetica,sans-Serif" font-size="10.00">and 8 more...</text>
<text text-anchor="start" x="424.5" y="-128.5" font-family="Helvetica,sans-Serif" font-size="10.00">* Mesh2D()</text>
<text text-anchor="start" x="424.5" y="-117.5" font-family="Helvetica,sans-Serif" font-size="10.00">* Mesh2D()</text>
<text text-anchor="start" x="424.5" y="-106.5" font-family="Helvetica,sans-Serif" font-size="10.00">* Mesh2D()</text>
<text text-anchor="start" x="424.5" y="-95.5" font-family="Helvetica,sans-Serif" font-size="10.00">* ~Mesh2D()</text>
<text text-anchor="start" x="424.5" y="-84.5" font-family="Helvetica,sans-Serif" font-size="10.00">* operator=()</text>
<text text-anchor="start" x="424.5" y="-73.5" font-family="Helvetica,sans-Serif" font-size="10.00">* operator=()</text>
<text text-anchor="start" x="424.5" y="-62.5" font-family="Helvetica,sans-Serif" font-size="10.00">* isEmpty()</text>
<text text-anchor="start" x="424.5" y="-51.5" font-family="Helvetica,sans-Serif" font-size="10.00">* numElements()</text>
<text text-anchor="start" x="424.5" y="-40.5" font-family="Helvetica,sans-Serif" font-size="10.00">* numLocalEdges()</text>
<text text-anchor="start" x="424.5" y="-29.5" font-family="Helvetica,sans-Serif" font-size="10.00">* numLocalFaces()</text>
<text text-anchor="start" x="424.5" y="-18.5" font-family="Helvetica,sans-Serif" font-size="10.00">* numLocalTopologicalFaces()</text>
<text text-anchor="start" x="424.5" y="-7.5" font-family="Helvetica,sans-Serif" font-size="10.00">and 4 more...</text>
</a>
</g>
</g>
<!-- Node2 -->
<g id="node2" class="node">
<title>Node2</title>
<g id="a_node2"><a xlink:href="classFeel_1_1VisitableBase.html" target="_top" xlink:title=" ">
<polygon fill="white" stroke="black" points="0,-556.5 0,-646.5 126,-646.5 126,-556.5 0,-556.5"/>
<text text-anchor="middle" x="63" y="-634.5" font-family="Helvetica,sans-Serif" font-size="10.00">Feel::VisitableBase&lt;&gt;</text>
<polyline fill="none" stroke="black" points="0,-627.5 126,-627.5 "/>
<text text-anchor="middle" x="63" y="-615.5" font-family="Helvetica,sans-Serif" font-size="10.00"> </text>
<polyline fill="none" stroke="black" points="0,-608.5 126,-608.5 "/>
<text text-anchor="start" x="8" y="-596.5" font-family="Helvetica,sans-Serif" font-size="10.00">+ accept()</text>
<text text-anchor="start" x="8" y="-585.5" font-family="Helvetica,sans-Serif" font-size="10.00">+ accept()</text>
<text text-anchor="start" x="8" y="-574.5" font-family="Helvetica,sans-Serif" font-size="10.00">+ ~VisitableBase()</text>
<text text-anchor="start" x="8" y="-563.5" font-family="Helvetica,sans-Serif" font-size="10.00"># acceptImpl()</text>
</a>
</g>
</g>
<!-- Node2&#45;&gt;Node1 -->
<g id="edge1" class="edge">
<title>Node2&#45;&gt;Node1</title>
<path fill="none" stroke="midnightblue" d="M71.17,-546.22C80.3,-500.76 98.83,-436.24 135,-391 209.6,-297.68 334.44,-233.06 416.26,-198.13"/>
<polygon fill="none" stroke="midnightblue" points="67.71,-545.71 69.26,-556.19 74.58,-547.03 67.71,-545.71"/>
</g>
<!-- Node3 -->
<g id="node3" class="node">
<title>Node3</title>
<g id="a_node3"><a xlink:href="classFeel_1_1MeshBase.html" target="_top" xlink:title=" ">
<polygon fill="white" stroke="black" points="144.5,-391.5 144.5,-811.5 317.5,-811.5 317.5,-391.5 144.5,-391.5"/>
<text text-anchor="start" x="152.5" y="-799.5" font-family="Helvetica,sans-Serif" font-size="10.00">Feel::MeshBase&lt; uint32</text>
<text text-anchor="middle" x="231" y="-788.5" font-family="Helvetica,sans-Serif" font-size="10.00">_type &gt;</text>
<polyline fill="none" stroke="black" points="144.5,-781.5 317.5,-781.5 "/>
<text text-anchor="middle" x="231" y="-769.5" font-family="Helvetica,sans-Serif" font-size="10.00"> </text>
<polyline fill="none" stroke="black" points="144.5,-762.5 317.5,-762.5 "/>
<text text-anchor="start" x="152.5" y="-750.5" font-family="Helvetica,sans-Serif" font-size="10.00">* super</text>
<text text-anchor="start" x="152.5" y="-739.5" font-family="Helvetica,sans-Serif" font-size="10.00">* index_type</text>
<text text-anchor="start" x="152.5" y="-728.5" font-family="Helvetica,sans-Serif" font-size="10.00">* index_t</text>
<text text-anchor="start" x="152.5" y="-717.5" font-family="Helvetica,sans-Serif" font-size="10.00">* size_type</text>
<text text-anchor="start" x="152.5" y="-706.5" font-family="Helvetica,sans-Serif" font-size="10.00">* face_processor_type</text>
<text text-anchor="start" x="152.5" y="-695.5" font-family="Helvetica,sans-Serif" font-size="10.00">* smd_type</text>
<text text-anchor="start" x="152.5" y="-684.5" font-family="Helvetica,sans-Serif" font-size="10.00">* smd_ptrtype</text>
<text text-anchor="start" x="152.5" y="-673.5" font-family="Helvetica,sans-Serif" font-size="10.00">* boost::serialization</text>
<text text-anchor="start" x="152.5" y="-662.5" font-family="Helvetica,sans-Serif" font-size="10.00">::access</text>
<text text-anchor="start" x="152.5" y="-651.5" font-family="Helvetica,sans-Serif" font-size="10.00">* M_topodim</text>
<text text-anchor="start" x="152.5" y="-640.5" font-family="Helvetica,sans-Serif" font-size="10.00">* M_realdim</text>
<text text-anchor="start" x="152.5" y="-629.5" font-family="Helvetica,sans-Serif" font-size="10.00">* M_components</text>
<text text-anchor="start" x="152.5" y="-618.5" font-family="Helvetica,sans-Serif" font-size="10.00">* M_is_updated</text>
<text text-anchor="start" x="152.5" y="-607.5" font-family="Helvetica,sans-Serif" font-size="10.00">and 65 more...</text>
<text text-anchor="start" x="152.5" y="-596.5" font-family="Helvetica,sans-Serif" font-size="10.00">* MeshBase()</text>
<text text-anchor="start" x="152.5" y="-585.5" font-family="Helvetica,sans-Serif" font-size="10.00">* MeshBase()</text>
<text text-anchor="start" x="152.5" y="-574.5" font-family="Helvetica,sans-Serif" font-size="10.00">* MeshBase()</text>
<text text-anchor="start" x="152.5" y="-563.5" font-family="Helvetica,sans-Serif" font-size="10.00">* MeshBase()</text>
<text text-anchor="start" x="152.5" y="-552.5" font-family="Helvetica,sans-Serif" font-size="10.00">* MeshBase()</text>
<text text-anchor="start" x="152.5" y="-541.5" font-family="Helvetica,sans-Serif" font-size="10.00">* MeshBase()</text>
<text text-anchor="start" x="152.5" y="-530.5" font-family="Helvetica,sans-Serif" font-size="10.00">* ~MeshBase()</text>
<text text-anchor="start" x="152.5" y="-519.5" font-family="Helvetica,sans-Serif" font-size="10.00">* operator=()</text>
<text text-anchor="start" x="152.5" y="-508.5" font-family="Helvetica,sans-Serif" font-size="10.00">* operator=()</text>
<text text-anchor="start" x="152.5" y="-497.5" font-family="Helvetica,sans-Serif" font-size="10.00">* shared_from_this_meshbase()</text>
<text text-anchor="start" x="152.5" y="-486.5" font-family="Helvetica,sans-Serif" font-size="10.00">* shared_from_this_meshbase()</text>
<text text-anchor="start" x="152.5" y="-475.5" font-family="Helvetica,sans-Serif" font-size="10.00">* isUpdatedForUse()</text>
<text text-anchor="start" x="152.5" y="-464.5" font-family="Helvetica,sans-Serif" font-size="10.00">* setTopologicalDimension()</text>
<text text-anchor="start" x="152.5" y="-453.5" font-family="Helvetica,sans-Serif" font-size="10.00">* setRealDimension()</text>
<text text-anchor="start" x="152.5" y="-442.5" font-family="Helvetica,sans-Serif" font-size="10.00">and 14 more...</text>
<text text-anchor="start" x="152.5" y="-431.5" font-family="Helvetica,sans-Serif" font-size="10.00">* setNumberOfPartitions()</text>
<text text-anchor="start" x="152.5" y="-420.5" font-family="Helvetica,sans-Serif" font-size="10.00">* setNumVertices()</text>
<text text-anchor="start" x="152.5" y="-409.5" font-family="Helvetica,sans-Serif" font-size="10.00">* setComponents()</text>
<text text-anchor="start" x="152.5" y="-398.5" font-family="Helvetica,sans-Serif" font-size="10.00">* setParametric()</text>
</a>
</g>
</g>
<!-- Node3&#45;&gt;Node1 -->
<g id="edge2" class="edge">
<title>Node3&#45;&gt;Node1</title>
<path fill="none" stroke="midnightblue" d="M322.54,-398.56C324.02,-396.01 325.51,-393.49 327,-391 353.19,-347.3 386.33,-302.04 416.37,-263.77"/>
<polygon fill="none" stroke="midnightblue" points="319.47,-396.88 317.55,-407.29 325.55,-400.35 319.47,-396.88"/>
</g>
<!-- Node4 -->
<g id="node4" class="node">
<title>Node4</title>
<g id="a_node4"><a xlink:title=" ">
<polygon fill="white" stroke="#bfbfbf" points="155,-859.5 155,-927.5 307,-927.5 307,-859.5 155,-859.5"/>
<text text-anchor="start" x="163" y="-915.5" font-family="Helvetica,sans-Serif" font-size="10.00">std::map&lt; std::string,</text>
<text text-anchor="middle" x="231" y="-904.5" font-family="Helvetica,sans-Serif" font-size="10.00"> std::vector&lt; size_type &gt; &gt;</text>
<polyline fill="none" stroke="#bfbfbf" points="155,-897.5 307,-897.5 "/>
<text text-anchor="middle" x="231" y="-885.5" font-family="Helvetica,sans-Serif" font-size="10.00"> </text>
<polyline fill="none" stroke="#bfbfbf" points="155,-878.5 307,-878.5 "/>
<text text-anchor="middle" x="231" y="-866.5" font-family="Helvetica,sans-Serif" font-size="10.00"> </text>
</a>
</g>
</g>
<!-- Node4&#45;&gt;Node3 -->
<g id="edge3" class="edge">
<title>Node4&#45;&gt;Node3</title>
<path fill="none" stroke="#404040" d="M231,-859.23C231,-849.1 231,-837.11 231,-823.95"/>
<polygon fill="none" stroke="#404040" points="231,-823.54 227,-817.54 231,-811.54 235,-817.54 231,-823.54"/>
<text text-anchor="middle" x="275" y="-833" font-family="Helvetica,sans-Serif" font-size="10.00"> #M_markername</text>
</g>
<!-- Node5 -->
<g id="node5" class="node">
<title>Node5</title>
<g id="a_node5"><a xlink:title="STL class.">
<polygon fill="white" stroke="#bfbfbf" points="139.5,-975.5 139.5,-1032.5 204.5,-1032.5 204.5,-975.5 139.5,-975.5"/>
<text text-anchor="middle" x="172" y="-1020.5" font-family="Helvetica,sans-Serif" font-size="10.00">std::string</text>
<polyline fill="none" stroke="#bfbfbf" points="139.5,-1013.5 204.5,-1013.5 "/>
<text text-anchor="middle" x="172" y="-1001.5" font-family="Helvetica,sans-Serif" font-size="10.00"> </text>
<polyline fill="none" stroke="#bfbfbf" points="139.5,-994.5 204.5,-994.5 "/>
<text text-anchor="middle" x="172" y="-982.5" font-family="Helvetica,sans-Serif" font-size="10.00"> </text>
</a>
</g>
</g>
<!-- Node5&#45;&gt;Node4 -->
<g id="edge4" class="edge">
<title>Node5&#45;&gt;Node4</title>
<path fill="none" stroke="#404040" d="M187.04,-975.34C193.17,-964.07 200.4,-950.78 207.21,-938.25"/>
<polygon fill="none" stroke="#404040" points="207.31,-938.06 206.66,-930.88 213.05,-927.52 213.69,-934.7 207.31,-938.06"/>
<text text-anchor="middle" x="219" y="-949" font-family="Helvetica,sans-Serif" font-size="10.00"> +keys</text>
</g>
<!-- Node6 -->
<g id="node6" class="node">
<title>Node6</title>
<g id="a_node6"><a xlink:title="STL class.">
<polygon fill="white" stroke="#bfbfbf" points="120,-1080.5 120,-1148.5 224,-1148.5 224,-1080.5 120,-1080.5"/>
<text text-anchor="start" x="128" y="-1136.5" font-family="Helvetica,sans-Serif" font-size="10.00">std::basic_string&lt;</text>
<text text-anchor="middle" x="172" y="-1125.5" font-family="Helvetica,sans-Serif" font-size="10.00"> char &gt;</text>
<polyline fill="none" stroke="#bfbfbf" points="120,-1118.5 224,-1118.5 "/>
<text text-anchor="middle" x="172" y="-1106.5" font-family="Helvetica,sans-Serif" font-size="10.00"> </text>
<polyline fill="none" stroke="#bfbfbf" points="120,-1099.5 224,-1099.5 "/>
<text text-anchor="middle" x="172" y="-1087.5" font-family="Helvetica,sans-Serif" font-size="10.00"> </text>
</a>
</g>
</g>
<!-- Node6&#45;&gt;Node5 -->
<g id="edge5" class="edge">
<title>Node6&#45;&gt;Node5</title>
<path fill="none" stroke="midnightblue" d="M172,-1070.06C172,-1057.51 172,-1044.15 172,-1032.83"/>
<polygon fill="none" stroke="midnightblue" points="168.5,-1070.36 172,-1080.36 175.5,-1070.36 168.5,-1070.36"/>
</g>
<!-- Node7 -->
<g id="node7" class="node">
<title>Node7</title>
<g id="a_node7"><a xlink:title=" ">
<polygon fill="white" stroke="#bfbfbf" points="222.5,-975.5 222.5,-1032.5 359.5,-1032.5 359.5,-975.5 222.5,-975.5"/>
<text text-anchor="middle" x="291" y="-1020.5" font-family="Helvetica,sans-Serif" font-size="10.00">std::vector&lt; size_type &gt;</text>
<polyline fill="none" stroke="#bfbfbf" points="222.5,-1013.5 359.5,-1013.5 "/>
<text text-anchor="middle" x="291" y="-1001.5" font-family="Helvetica,sans-Serif" font-size="10.00"> </text>
<polyline fill="none" stroke="#bfbfbf" points="222.5,-994.5 359.5,-994.5 "/>
<text text-anchor="middle" x="291" y="-982.5" font-family="Helvetica,sans-Serif" font-size="10.00"> </text>
</a>
</g>
</g>
<!-- Node7&#45;&gt;Node4 -->
<g id="edge6" class="edge">
<title>Node7&#45;&gt;Node4</title>
<path fill="none" stroke="#404040" d="M275.7,-975.34C269.47,-964.07 262.12,-950.78 255.2,-938.25"/>
<polygon fill="none" stroke="#404040" points="255.07,-938.02 248.66,-934.7 249.26,-927.52 255.66,-930.83 255.07,-938.02"/>
<text text-anchor="middle" x="294" y="-949" font-family="Helvetica,sans-Serif" font-size="10.00"> +elements</text>
</g>
<!-- Node8 -->
<g id="node8" class="node">
<title>Node8</title>
<g id="a_node8"><a xlink:href="classsize__type.html" target="_top" xlink:title=" ">
<polygon fill="white" stroke="black" points="259.5,-1086 259.5,-1143 322.5,-1143 322.5,-1086 259.5,-1086"/>
<text text-anchor="middle" x="291" y="-1131" font-family="Helvetica,sans-Serif" font-size="10.00">size_type</text>
<polyline fill="none" stroke="black" points="259.5,-1124 322.5,-1124 "/>
<text text-anchor="middle" x="291" y="-1112" font-family="Helvetica,sans-Serif" font-size="10.00"> </text>
<polyline fill="none" stroke="black" points="259.5,-1105 322.5,-1105 "/>
<text text-anchor="middle" x="291" y="-1093" font-family="Helvetica,sans-Serif" font-size="10.00"> </text>
</a>
</g>
</g>
<!-- Node8&#45;&gt;Node7 -->
<g id="edge7" class="edge">
<title>Node8&#45;&gt;Node7</title>
<path fill="none" stroke="#404040" d="M291,-1085.84C291,-1073.34 291,-1058.34 291,-1044.68"/>
<polygon fill="none" stroke="#404040" points="291,-1044.61 287,-1038.61 291,-1032.61 295,-1038.61 291,-1044.61"/>
<text text-anchor="middle" x="320" y="-1054" font-family="Helvetica,sans-Serif" font-size="10.00"> +elements</text>
</g>
<!-- Node9 -->
<g id="node9" class="node">
<title>Node9</title>
<g id="a_node9"><a xlink:href="classElements.html" target="_top" xlink:title=" ">
<polygon fill="white" stroke="black" points="336,-573 336,-630 490,-630 490,-573 336,-573"/>
<text text-anchor="middle" x="413" y="-618" font-family="Helvetica,sans-Serif" font-size="10.00">Elements&lt; Shape, double &gt;</text>
<polyline fill="none" stroke="black" points="336,-611 490,-611 "/>
<text text-anchor="middle" x="413" y="-599" font-family="Helvetica,sans-Serif" font-size="10.00"> </text>
<polyline fill="none" stroke="black" points="336,-592 490,-592 "/>
<text text-anchor="middle" x="413" y="-580" font-family="Helvetica,sans-Serif" font-size="10.00"> </text>
</a>
</g>
</g>
<!-- Node9&#45;&gt;Node1 -->
<g id="edge8" class="edge">
<title>Node9&#45;&gt;Node1</title>
<path fill="none" stroke="midnightblue" d="M420.31,-562.8C430.25,-511.57 448.66,-416.68 464.95,-332.72"/>
<polygon fill="none" stroke="midnightblue" points="416.85,-562.27 418.38,-572.76 423.72,-563.6 416.85,-562.27"/>
</g>
<!-- Node10 -->
<g id="node10" class="node">
<title>Node10</title>
<g id="a_node10"><a xlink:href="classPoints.html" target="_top" xlink:title=" ">
<polygon fill="white" stroke="black" points="508.5,-567.5 508.5,-635.5 653.5,-635.5 653.5,-567.5 508.5,-567.5"/>
<text text-anchor="start" x="516.5" y="-623.5" font-family="Helvetica,sans-Serif" font-size="10.00">Points&lt; Shape::nRealDim,</text>
<text text-anchor="middle" x="581" y="-612.5" font-family="Helvetica,sans-Serif" font-size="10.00"> double &gt;</text>
<polyline fill="none" stroke="black" points="508.5,-605.5 653.5,-605.5 "/>
<text text-anchor="middle" x="581" y="-593.5" font-family="Helvetica,sans-Serif" font-size="10.00"> </text>
<polyline fill="none" stroke="black" points="508.5,-586.5 653.5,-586.5 "/>
<text text-anchor="middle" x="581" y="-574.5" font-family="Helvetica,sans-Serif" font-size="10.00"> </text>
</a>
</g>
</g>
<!-- Node10&#45;&gt;Node1 -->
<g id="edge9" class="edge">
<title>Node10&#45;&gt;Node1</title>
<path fill="none" stroke="midnightblue" d="M572.62,-557.31C562.47,-504.98 544.77,-413.74 529.04,-332.68"/>
<polygon fill="none" stroke="midnightblue" points="569.21,-558.09 574.55,-567.24 576.08,-556.76 569.21,-558.09"/>
</g>
<!-- Node11 -->
<g id="node11" class="node">
<title>Node11</title>
<g id="a_node11"><a xlink:href="classFaces.html" target="_top" xlink:title=" ">
<polygon fill="white" stroke="black" points="671.5,-556.5 671.5,-646.5 864.5,-646.5 864.5,-556.5 671.5,-556.5"/>
<text text-anchor="start" x="679.5" y="-634.5" font-family="Helvetica,sans-Serif" font-size="10.00">Faces&lt; Shape::template</text>
<text text-anchor="start" x="679.5" y="-623.5" font-family="Helvetica,sans-Serif" font-size="10.00"> shape&lt; 1, Shape::nOrder,</text>
<text text-anchor="start" x="679.5" y="-612.5" font-family="Helvetica,sans-Serif" font-size="10.00"> Shape::nRealDim &gt;, Elements</text>
<text text-anchor="middle" x="768" y="-601.5" font-family="Helvetica,sans-Serif" font-size="10.00">&lt; Shape, double &gt;::element_type &gt;</text>
<polyline fill="none" stroke="black" points="671.5,-594.5 864.5,-594.5 "/>
<text text-anchor="middle" x="768" y="-582.5" font-family="Helvetica,sans-Serif" font-size="10.00"> </text>
<polyline fill="none" stroke="black" points="671.5,-575.5 864.5,-575.5 "/>
<text text-anchor="middle" x="768" y="-563.5" font-family="Helvetica,sans-Serif" font-size="10.00"> </text>
</a>
</g>
</g>
<!-- Node11&#45;&gt;Node1 -->
<g id="edge10" class="edge">
<title>Node11&#45;&gt;Node1</title>
<path fill="none" stroke="midnightblue" d="M744.08,-547.23C723.99,-504.08 693.57,-442.25 662,-391 636.57,-349.73 605.68,-306.42 577.53,-269.03"/>
<polygon fill="none" stroke="midnightblue" points="740.96,-548.81 748.33,-556.42 747.31,-545.87 740.96,-548.81"/>
</g>
<!-- Node12 -->
<g id="node12" class="node">
<title>Node12</title>
<g id="a_node12"><a xlink:title=" ">
<polygon fill="white" stroke="#bfbfbf" points="883,-573 883,-630 1017,-630 1017,-573 883,-573"/>
<text text-anchor="middle" x="950" y="-618" font-family="Helvetica,sans-Serif" font-size="10.00">static const uint16_type</text>
<polyline fill="none" stroke="#bfbfbf" points="883,-611 1017,-611 "/>
<text text-anchor="middle" x="950" y="-599" font-family="Helvetica,sans-Serif" font-size="10.00"> </text>
<polyline fill="none" stroke="#bfbfbf" points="883,-592 1017,-592 "/>
<text text-anchor="middle" x="950" y="-580" font-family="Helvetica,sans-Serif" font-size="10.00"> </text>
</a>
</g>
</g>
<!-- Node12&#45;&gt;Node1 -->
<g id="edge11" class="edge">
<title>Node12&#45;&gt;Node1</title>
<path fill="none" stroke="#404040" d="M946.06,-572.76C938.7,-529.61 919.29,-445.67 874,-391 797.93,-299.17 673.72,-236.02 588.81,-200.84"/>
<polygon fill="none" stroke="#404040" points="588.73,-200.81 581.66,-202.24 577.62,-196.27 584.68,-194.84 588.73,-200.81"/>
<text text-anchor="middle" x="878.5" y="-365" font-family="Helvetica,sans-Serif" font-size="10.00"> +nDim</text>
<text text-anchor="middle" x="878.5" y="-354" font-family="Helvetica,sans-Serif" font-size="10.00">+nRealDim</text>
</g>
</g>
</svg>
        <g id="navigator" transform="translate(0 0)" fill="#404254">
                <rect fill="#f2f5e9" fill-opacity="0.5" stroke="#606060" stroke-width=".5" x="0" y="0" width="60" height="60"/>
                <use id="zoomplus" xlink:href="#zoomPlus" x="17" y="9" onmousedown="handleZoom(evt,'in')"/>
                <use id="zoomminus" xlink:href="#zoomMin" x="42" y="9" onmousedown="handleZoom(evt,'out')"/>
                <use id="reset" xlink:href="#resetDef" x="30" y="36" onmousedown="handleReset()"/>
                <g id="arrowUp" xlink:href="#dirArrow" transform="translate(30 24)" onmousedown="handlePan(0,-1)">
                  <use xlink:href="#rim" fill="#404040">
                        <set attributeName="fill" to="#808080" begin="arrowUp.mouseover" end="arrowUp.mouseout"/>
                  </use>
                  <path fill="none" stroke="white" stroke-width="1.5" d="M0,-3.0v7 M-2.5,-0.5L0,-3.0L2.5,-0.5"/>
                </g>
                <g id="arrowRight" xlink:href="#dirArrow" transform="rotate(90) translate(36 -43)" onmousedown="handlePan(1,0)">
                  <use xlink:href="#rim" fill="#404040">
                        <set attributeName="fill" to="#808080" begin="arrowRight.mouseover" end="arrowRight.mouseout"/>
                  </use>
                  <path fill="none" stroke="white" stroke-width="1.5" d="M0,-3.0v7 M-2.5,-0.5L0,-3.0L2.5,-0.5"/>
                </g>
                <g id="arrowDown" xlink:href="#dirArrow" transform="rotate(180) translate(-30 -48)" onmousedown="handlePan(0,1)">
                  <use xlink:href="#rim" fill="#404040">
                        <set attributeName="fill" to="#808080" begin="arrowDown.mouseover" end="arrowDown.mouseout"/>
                  </use>
                  <path fill="none" stroke="white" stroke-width="1.5" d="M0,-3.0v7 M-2.5,-0.5L0,-3.0L2.5,-0.5"/>
                </g>
                <g id="arrowLeft" xlink:href="#dirArrow" transform="rotate(270) translate(-36 17)" onmousedown="handlePan(-1,0)">
                  <use xlink:href="#rim" fill="#404040">
                        <set attributeName="fill" to="#808080" begin="arrowLeft.mouseover" end="arrowLeft.mouseout"/>
                  </use>
                  <path fill="none" stroke="white" stroke-width="1.5" d="M0,-3.0v7 M-2.5,-0.5L0,-3.0L2.5,-0.5"/>
                </g>
        </g>
        <svg viewBox="0 0 15 15" width="100%" height="30px" preserveAspectRatio="xMaxYMin meet">
         <g id="arrow_out" transform="scale(0.3 0.3)">
          <a xlink:href="classFeel_1_1Mesh2D__coll__graph_org.svg" target="_base">
           <rect id="button" ry="5" rx="5" y="6" x="6" height="38" width="38"
                fill="#f2f5e9" fill-opacity="0.5" stroke="#606060" stroke-width="1.0"/>
           <path id="arrow"
             d="M 11.500037,31.436501 C 11.940474,20.09759 22.043105,11.32322 32.158766,21.979434 L 37.068811,17.246167 C 37.068811,17.246167 37.088388,32 37.088388,32 L 22.160133,31.978069 C 22.160133,31.978069 26.997745,27.140456 26.997745,27.140456 C 18.528582,18.264221 13.291696,25.230495 11.500037,31.436501 z"
             style="fill:#404040;"/>
          </a>
         </g>
        </svg>
</svg>
