<?xml version="1.0" encoding="UTF-8" standalone="no"?>
<!DOCTYPE svg PUBLIC "-//W3C//DTD SVG 1.1//EN"
 "http://www.w3.org/Graphics/SVG/1.1/DTD/svg11.dtd">
<!-- Generated by graphviz version 2.43.0 (0)
 -->
<!-- Title: Feel::BVH&lt; MeshEntityType &gt; Pages: 1 -->
<svg width="262pt" height="292pt"
 viewBox="0.00 0.00 262.00 292.00" xmlns="http://www.w3.org/2000/svg" xmlns:xlink="http://www.w3.org/1999/xlink">
<g id="graph0" class="graph" transform="scale(1 1) rotate(0) translate(4 288)">
<title>Feel::BVH&lt; MeshEntityType &gt;</title>
<polygon fill="white" stroke="transparent" points="-4,4 -4,-288 258,-288 258,4 -4,4"/>
<!-- Node1 -->
<g id="node1" class="node">
<title>Node1</title>
<g id="a_node1"><a xlink:title="BVH base class.">
<polygon fill="#bfbfbf" stroke="black" points="44.5,-138.5 44.5,-283.5 208.5,-283.5 208.5,-138.5 44.5,-138.5"/>
<text text-anchor="middle" x="126.5" y="-271.5" font-family="Helvetica,sans-Serif" font-size="10.00">Feel::BVH&lt; MeshEntityType &gt;</text>
<polyline fill="none" stroke="black" points="44.5,-264.5 208.5,-264.5 "/>
<text text-anchor="start" x="52.5" y="-252.5" font-family="Helvetica,sans-Serif" font-size="10.00">+ nDim</text>
<text text-anchor="start" x="52.5" y="-241.5" font-family="Helvetica,sans-Serif" font-size="10.00">+ nRealDim</text>
<text text-anchor="start" x="52.5" y="-230.5" font-family="Helvetica,sans-Serif" font-size="10.00"># M_primitiveInfo</text>
<text text-anchor="start" x="52.5" y="-219.5" font-family="Helvetica,sans-Serif" font-size="10.00"># M_quality</text>
<polyline fill="none" stroke="black" points="44.5,-212.5 208.5,-212.5 "/>
<text text-anchor="start" x="52.5" y="-200.5" font-family="Helvetica,sans-Serif" font-size="10.00">+ BVH()</text>
<text text-anchor="start" x="52.5" y="-189.5" font-family="Helvetica,sans-Serif" font-size="10.00">+ BVH()</text>
<text text-anchor="start" x="52.5" y="-178.5" font-family="Helvetica,sans-Serif" font-size="10.00">+ BVH()</text>
<text text-anchor="start" x="52.5" y="-167.5" font-family="Helvetica,sans-Serif" font-size="10.00">+ intersect()</text>
<text text-anchor="start" x="52.5" y="-156.5" font-family="Helvetica,sans-Serif" font-size="10.00">+ ~BVH()</text>
<text text-anchor="start" x="52.5" y="-145.5" font-family="Helvetica,sans-Serif" font-size="10.00"># updateForUse()</text>
</a>
</g>
</g>
<!-- Node2 -->
<g id="node2" class="node">
<title>Node2</title>
<g id="a_node2"><a xlink:href="classFeel_1_1BVH__InHouse.html" target="_top" xlink:title="in house implementation of BVH tool">
<polygon fill="white" stroke="black" points="0,-6 0,-96 117,-96 117,-6 0,-6"/>
<text text-anchor="start" x="8" y="-84" font-family="Helvetica,sans-Serif" font-size="10.00">Feel::BVH_InHouse&lt;</text>
<text text-anchor="middle" x="58.5" y="-73" font-family="Helvetica,sans-Serif" font-size="10.00"> MeshEntityType &gt;</text>
<polyline fill="none" stroke="black" points="0,-66 117,-66 "/>
<text text-anchor="middle" x="58.5" y="-54" font-family="Helvetica,sans-Serif" font-size="10.00"> </text>
<polyline fill="none" stroke="black" points="0,-47 117,-47 "/>
<text text-anchor="start" x="8" y="-35" font-family="Helvetica,sans-Serif" font-size="10.00">+ BVH_InHouse()</text>
<text text-anchor="start" x="8" y="-24" font-family="Helvetica,sans-Serif" font-size="10.00">+ intersect()</text>
<text text-anchor="start" x="8" y="-13" font-family="Helvetica,sans-Serif" font-size="10.00">+ updateForUse()</text>
</a>
</g>
</g>
<!-- Node1&#45;&gt;Node2 -->
<g id="edge1" class="edge">
<title>Node1&#45;&gt;Node2</title>
<path fill="none" stroke="midnightblue" d="M91.61,-128.94C86.76,-117.67 81.94,-106.46 77.53,-96.22"/>
<polygon fill="none" stroke="midnightblue" points="88.52,-130.59 95.68,-138.4 94.94,-127.83 88.52,-130.59"/>
</g>
<!-- Node3 -->
<g id="node3" class="node">
<title>Node3</title>
<g id="a_node3"><a xlink:href="classFeel_1_1BVH__ThirdParty.html" target="_top" xlink:title="implementation of BVH tool with an external third party">
<polygon fill="white" stroke="black" points="135,-0.5 135,-101.5 254,-101.5 254,-0.5 135,-0.5"/>
<text text-anchor="start" x="143" y="-89.5" font-family="Helvetica,sans-Serif" font-size="10.00">Feel::BVH_ThirdParty</text>
<text text-anchor="middle" x="194.5" y="-78.5" font-family="Helvetica,sans-Serif" font-size="10.00">&lt; MeshEntityType &gt;</text>
<polyline fill="none" stroke="black" points="135,-71.5 254,-71.5 "/>
<text text-anchor="middle" x="194.5" y="-59.5" font-family="Helvetica,sans-Serif" font-size="10.00"> </text>
<polyline fill="none" stroke="black" points="135,-52.5 254,-52.5 "/>
<text text-anchor="start" x="143" y="-40.5" font-family="Helvetica,sans-Serif" font-size="10.00">+ BVH_ThirdParty()</text>
<text text-anchor="start" x="143" y="-29.5" font-family="Helvetica,sans-Serif" font-size="10.00">+ BVH_ThirdParty()</text>
<text text-anchor="start" x="143" y="-18.5" font-family="Helvetica,sans-Serif" font-size="10.00">+ intersect()</text>
<text text-anchor="start" x="143" y="-7.5" font-family="Helvetica,sans-Serif" font-size="10.00">+ updateForUse()</text>
</a>
</g>
</g>
<!-- Node1&#45;&gt;Node3 -->
<g id="edge2" class="edge">
<title>Node1&#45;&gt;Node3</title>
<path fill="none" stroke="midnightblue" d="M161.33,-129.06C165.35,-119.72 169.36,-110.41 173.12,-101.67"/>
<polygon fill="none" stroke="midnightblue" points="158.06,-127.83 157.32,-138.4 164.48,-130.59 158.06,-127.83"/>
</g>
</g>
</svg>
