<?xml version="1.0" encoding="UTF-8" standalone="no"?>
<!DOCTYPE svg PUBLIC "-//W3C//DTD SVG 1.1//EN"
 "http://www.w3.org/Graphics/SVG/1.1/DTD/svg11.dtd">
<!-- Generated by graphviz version 2.43.0 (0)
 -->
<!-- Title: Feel::FeelModels::SelectorModelField&lt; FieldTagType &gt; Pages: 1 -->
<svg width="161pt" height="332pt"
 viewBox="0.00 0.00 161.00 332.00" xmlns="http://www.w3.org/2000/svg" xmlns:xlink="http://www.w3.org/1999/xlink">
<g id="graph0" class="graph" transform="scale(1 1) rotate(0) translate(4 328)">
<title>Feel::FeelModels::SelectorModelField&lt; FieldTagType &gt;</title>
<polygon fill="white" stroke="transparent" points="-4,4 -4,-328 157,-328 157,4 -4,4"/>
<!-- Node1 -->
<g id="node1" class="node">
<title>Node1</title>
<g id="a_node1"><a xlink:title=" ">
<polygon fill="#bfbfbf" stroke="black" points="0,-0.5 0,-112.5 153,-112.5 153,-0.5 0,-0.5"/>
<text text-anchor="start" x="8" y="-100.5" font-family="Helvetica,sans-Serif" font-size="10.00">Feel::FeelModels::Selector</text>
<text text-anchor="middle" x="76.5" y="-89.5" font-family="Helvetica,sans-Serif" font-size="10.00">ModelField&lt; FieldTagType &gt;</text>
<polyline fill="none" stroke="black" points="0,-82.5 153,-82.5 "/>
<text text-anchor="middle" x="76.5" y="-70.5" font-family="Helvetica,sans-Serif" font-size="10.00"> </text>
<polyline fill="none" stroke="black" points="0,-63.5 153,-63.5 "/>
<text text-anchor="start" x="8" y="-51.5" font-family="Helvetica,sans-Serif" font-size="10.00">+ operator=()</text>
<text text-anchor="start" x="8" y="-40.5" font-family="Helvetica,sans-Serif" font-size="10.00">+ SelectorModelField()</text>
<text text-anchor="start" x="8" y="-29.5" font-family="Helvetica,sans-Serif" font-size="10.00">+ SelectorModelField()</text>
<text text-anchor="start" x="8" y="-18.5" font-family="Helvetica,sans-Serif" font-size="10.00">+ SelectorModelField()</text>
<text text-anchor="start" x="8" y="-7.5" font-family="Helvetica,sans-Serif" font-size="10.00">+ SelectorModelField()</text>
</a>
</g>
</g>
<!-- Node2 -->
<g id="node2" class="node">
<title>Node2</title>
<g id="a_node2"><a xlink:title="STL class.">
<polygon fill="white" stroke="#bfbfbf" points="2,-150.5 2,-218.5 151,-218.5 151,-150.5 2,-150.5"/>
<text text-anchor="start" x="10" y="-206.5" font-family="Helvetica,sans-Serif" font-size="10.00">std::vector&lt; SelectorModel</text>
<text text-anchor="middle" x="76.5" y="-195.5" font-family="Helvetica,sans-Serif" font-size="10.00">Field1&lt; FieldTagType &gt; &gt;</text>
<polyline fill="none" stroke="#bfbfbf" points="2,-188.5 151,-188.5 "/>
<text text-anchor="middle" x="76.5" y="-176.5" font-family="Helvetica,sans-Serif" font-size="10.00"> </text>
<polyline fill="none" stroke="#bfbfbf" points="2,-169.5 151,-169.5 "/>
<text text-anchor="middle" x="76.5" y="-157.5" font-family="Helvetica,sans-Serif" font-size="10.00"> </text>
</a>
</g>
</g>
<!-- Node2&#45;&gt;Node1 -->
<g id="edge1" class="edge">
<title>Node2&#45;&gt;Node1</title>
<path fill="none" stroke="midnightblue" d="M76.5,-140.31C76.5,-131.45 76.5,-122.01 76.5,-112.79"/>
<polygon fill="none" stroke="midnightblue" points="73,-140.39 76.5,-150.39 80,-140.4 73,-140.39"/>
</g>
<!-- Node3 -->
<g id="node3" class="node">
<title>Node3</title>
<g id="a_node3"><a xlink:title=" ">
<polygon fill="white" stroke="#bfbfbf" points="62,-266.5 62,-323.5 91,-323.5 91,-266.5 62,-266.5"/>
<text text-anchor="middle" x="76.5" y="-311.5" font-family="Helvetica,sans-Serif" font-size="10.00">T</text>
<polyline fill="none" stroke="#bfbfbf" points="62,-304.5 91,-304.5 "/>
<text text-anchor="middle" x="76.5" y="-292.5" font-family="Helvetica,sans-Serif" font-size="10.00"> </text>
<polyline fill="none" stroke="#bfbfbf" points="62,-285.5 91,-285.5 "/>
<text text-anchor="middle" x="76.5" y="-273.5" font-family="Helvetica,sans-Serif" font-size="10.00"> </text>
</a>
</g>
</g>
<!-- Node3&#45;&gt;Node2 -->
<g id="edge2" class="edge">
<title>Node3&#45;&gt;Node2</title>
<path fill="none" stroke="#404040" d="M76.5,-266.34C76.5,-255.53 76.5,-242.85 76.5,-230.77"/>
<polygon fill="none" stroke="#404040" points="76.5,-230.52 72.5,-224.52 76.5,-218.52 80.5,-224.52 76.5,-230.52"/>
<text text-anchor="middle" x="105.5" y="-240" font-family="Helvetica,sans-Serif" font-size="10.00"> +elements</text>
</g>
</g>
</svg>
