<?xml version="1.0" encoding="UTF-8" standalone="no"?>
<!DOCTYPE svg PUBLIC "-//W3C//DTD SVG 1.1//EN"
 "http://www.w3.org/Graphics/SVG/1.1/DTD/svg11.dtd">
<!-- Generated by graphviz version 2.43.0 (0)
 -->
<!-- Title: F Pages: 1 -->
<svg width="191pt" height="427pt"
 viewBox="0.00 0.00 191.00 427.00" xmlns="http://www.w3.org/2000/svg" xmlns:xlink="http://www.w3.org/1999/xlink">
<g id="graph0" class="graph" transform="scale(1 1) rotate(0) translate(4 423)">
<title>F</title>
<polygon fill="white" stroke="transparent" points="-4,4 -4,-423 187,-423 187,4 -4,4"/>
<!-- Node1 -->
<g id="node1" class="node">
<title>Node1</title>
<g id="a_node1"><a xlink:title=" ">
<polygon fill="#bfbfbf" stroke="black" points="53.5,-0.5 53.5,-79.5 112.5,-79.5 112.5,-0.5 53.5,-0.5"/>
<text text-anchor="middle" x="83" y="-67.5" font-family="Helvetica,sans-Serif" font-size="10.00">F</text>
<polyline fill="none" stroke="black" points="53.5,-60.5 112.5,-60.5 "/>
<text text-anchor="middle" x="83" y="-48.5" font-family="Helvetica,sans-Serif" font-size="10.00"> </text>
<polyline fill="none" stroke="black" points="53.5,-41.5 112.5,-41.5 "/>
<text text-anchor="start" x="61.5" y="-29.5" font-family="Helvetica,sans-Serif" font-size="10.00">+ F()</text>
<text text-anchor="start" x="61.5" y="-18.5" font-family="Helvetica,sans-Serif" font-size="10.00">+ F()</text>
<text text-anchor="start" x="61.5" y="-7.5" font-family="Helvetica,sans-Serif" font-size="10.00">+ hello()</text>
</a>
</g>
</g>
<!-- Node2 -->
<g id="node2" class="node">
<title>Node2</title>
<g id="a_node2"><a xlink:href="classD.html" target="_top" xlink:title=" ">
<polygon fill="white" stroke="black" points="14.5,-127.5 14.5,-184.5 73.5,-184.5 73.5,-127.5 14.5,-127.5"/>
<text text-anchor="middle" x="44" y="-172.5" font-family="Helvetica,sans-Serif" font-size="10.00">D</text>
<polyline fill="none" stroke="black" points="14.5,-165.5 73.5,-165.5 "/>
<text text-anchor="middle" x="44" y="-153.5" font-family="Helvetica,sans-Serif" font-size="10.00"> </text>
<polyline fill="none" stroke="black" points="14.5,-146.5 73.5,-146.5 "/>
<text text-anchor="start" x="22.5" y="-134.5" font-family="Helvetica,sans-Serif" font-size="10.00">+ hello()</text>
</a>
</g>
</g>
<!-- Node2&#45;&gt;Node1 -->
<g id="edge1" class="edge">
<title>Node2&#45;&gt;Node1</title>
<path fill="none" stroke="midnightblue" d="M56.69,-117.91C60.89,-105.62 65.58,-91.93 69.82,-79.54"/>
<polygon fill="none" stroke="midnightblue" points="53.37,-116.81 53.44,-127.4 59.99,-119.08 53.37,-116.81"/>
</g>
<!-- Node3 -->
<g id="node3" class="node">
<title>Node3</title>
<g id="a_node3"><a xlink:href="classB.html" target="_top" xlink:title=" ">
<polygon fill="white" stroke="black" points="1.5,-222.5 1.5,-290.5 60.5,-290.5 60.5,-222.5 1.5,-222.5"/>
<text text-anchor="middle" x="31" y="-278.5" font-family="Helvetica,sans-Serif" font-size="10.00">B</text>
<polyline fill="none" stroke="black" points="1.5,-271.5 60.5,-271.5 "/>
<text text-anchor="middle" x="31" y="-259.5" font-family="Helvetica,sans-Serif" font-size="10.00"> </text>
<polyline fill="none" stroke="black" points="1.5,-252.5 60.5,-252.5 "/>
<text text-anchor="start" x="9.5" y="-240.5" font-family="Helvetica,sans-Serif" font-size="10.00">+ hello()</text>
<text text-anchor="start" x="9.5" y="-229.5" font-family="Helvetica,sans-Serif" font-size="10.00">+ ~B()</text>
</a>
</g>
</g>
<!-- Node3&#45;&gt;Node2 -->
<g id="edge2" class="edge">
<title>Node3&#45;&gt;Node2</title>
<path fill="none" stroke="midnightblue" d="M36.69,-212.38C37.94,-202.94 39.22,-193.2 40.36,-184.57"/>
<polygon fill="none" stroke="midnightblue" points="33.2,-212.05 35.36,-222.43 40.14,-212.97 33.2,-212.05"/>
</g>
<!-- Node4 -->
<g id="node4" class="node">
<title>Node4</title>
<g id="a_node4"><a xlink:href="classA.html" target="_top" xlink:title=" ">
<polygon fill="white" stroke="black" points="0,-328.5 0,-418.5 62,-418.5 62,-328.5 0,-328.5"/>
<text text-anchor="middle" x="31" y="-406.5" font-family="Helvetica,sans-Serif" font-size="10.00">A</text>
<polyline fill="none" stroke="black" points="0,-399.5 62,-399.5 "/>
<text text-anchor="middle" x="31" y="-387.5" font-family="Helvetica,sans-Serif" font-size="10.00"> </text>
<polyline fill="none" stroke="black" points="0,-380.5 62,-380.5 "/>
<text text-anchor="start" x="8" y="-368.5" font-family="Helvetica,sans-Serif" font-size="10.00">+ A()</text>
<text text-anchor="start" x="8" y="-357.5" font-family="Helvetica,sans-Serif" font-size="10.00">+ hello()</text>
<text text-anchor="start" x="8" y="-346.5" font-family="Helvetica,sans-Serif" font-size="10.00">+ value()</text>
<text text-anchor="start" x="8" y="-335.5" font-family="Helvetica,sans-Serif" font-size="10.00">+ ~A()</text>
</a>
</g>
</g>
<!-- Node4&#45;&gt;Node3 -->
<g id="edge3" class="edge">
<title>Node4&#45;&gt;Node3</title>
<path fill="none" stroke="midnightblue" d="M31,-318.23C31,-308.8 31,-299.26 31,-290.62"/>
<polygon fill="none" stroke="midnightblue" points="27.5,-318.37 31,-328.37 34.5,-318.37 27.5,-318.37"/>
</g>
<!-- Node5 -->
<g id="node5" class="node">
<title>Node5</title>
<g id="a_node5"><a xlink:title="STL class.">
<polygon fill="white" stroke="#bfbfbf" points="96.5,-127.5 96.5,-184.5 161.5,-184.5 161.5,-127.5 96.5,-127.5"/>
<text text-anchor="middle" x="129" y="-172.5" font-family="Helvetica,sans-Serif" font-size="10.00">std::string</text>
<polyline fill="none" stroke="#bfbfbf" points="96.5,-165.5 161.5,-165.5 "/>
<text text-anchor="middle" x="129" y="-153.5" font-family="Helvetica,sans-Serif" font-size="10.00"> </text>
<polyline fill="none" stroke="#bfbfbf" points="96.5,-146.5 161.5,-146.5 "/>
<text text-anchor="middle" x="129" y="-134.5" font-family="Helvetica,sans-Serif" font-size="10.00"> </text>
</a>
</g>
</g>
<!-- Node5&#45;&gt;Node1 -->
<g id="edge4" class="edge">
<title>Node5&#45;&gt;Node1</title>
<path fill="none" stroke="#404040" d="M117.86,-127.4C113.43,-116.41 108.18,-103.4 103.12,-90.85"/>
<polygon fill="none" stroke="#404040" points="103.04,-90.67 97.09,-86.6 98.55,-79.54 104.51,-83.61 103.04,-90.67"/>
<text text-anchor="middle" x="123.5" y="-101" font-family="Helvetica,sans-Serif" font-size="10.00"> +str</text>
</g>
<!-- Node6 -->
<g id="node6" class="node">
<title>Node6</title>
<g id="a_node6"><a xlink:title="STL class.">
<polygon fill="white" stroke="#bfbfbf" points="79,-222.5 79,-290.5 183,-290.5 183,-222.5 79,-222.5"/>
<text text-anchor="start" x="87" y="-278.5" font-family="Helvetica,sans-Serif" font-size="10.00">std::basic_string&lt;</text>
<text text-anchor="middle" x="131" y="-267.5" font-family="Helvetica,sans-Serif" font-size="10.00"> char &gt;</text>
<polyline fill="none" stroke="#bfbfbf" points="79,-260.5 183,-260.5 "/>
<text text-anchor="middle" x="131" y="-248.5" font-family="Helvetica,sans-Serif" font-size="10.00"> </text>
<polyline fill="none" stroke="#bfbfbf" points="79,-241.5 183,-241.5 "/>
<text text-anchor="middle" x="131" y="-229.5" font-family="Helvetica,sans-Serif" font-size="10.00"> </text>
</a>
</g>
</g>
<!-- Node6&#45;&gt;Node5 -->
<g id="edge5" class="edge">
<title>Node6&#45;&gt;Node5</title>
<path fill="none" stroke="midnightblue" d="M130.12,-212.38C129.93,-202.94 129.74,-193.2 129.56,-184.57"/>
<polygon fill="none" stroke="midnightblue" points="126.63,-212.5 130.33,-222.43 133.62,-212.36 126.63,-212.5"/>
</g>
</g>
</svg>
