<?xml version="1.0" encoding="UTF-8" standalone="no"?>
<!DOCTYPE svg PUBLIC "-//W3C//DTD SVG 1.1//EN"
 "http://www.w3.org/Graphics/SVG/1.1/DTD/svg11.dtd">
<!-- Generated by graphviz version 2.43.0 (0)
 -->
<!-- Title: Feel::MongoConfig Pages: 1 -->
<svg width="118pt" height="343pt"
 viewBox="0.00 0.00 117.50 343.00" xmlns="http://www.w3.org/2000/svg" xmlns:xlink="http://www.w3.org/1999/xlink">
<g id="graph0" class="graph" transform="scale(1 1) rotate(0) translate(4 339)">
<title>Feel::MongoConfig</title>
<polygon fill="white" stroke="transparent" points="-4,4 -4,-339 113.5,-339 113.5,4 -4,4"/>
<!-- Node1 -->
<g id="node1" class="node">
<title>Node1</title>
<g id="a_node1"><a xlink:title=" ">
<polygon fill="#bfbfbf" stroke="black" points="0,-0.5 0,-57.5 107,-57.5 107,-0.5 0,-0.5"/>
<text text-anchor="middle" x="53.5" y="-45.5" font-family="Helvetica,sans-Serif" font-size="10.00">Feel::MongoConfig</text>
<polyline fill="none" stroke="black" points="0,-38.5 107,-38.5 "/>
<text text-anchor="middle" x="53.5" y="-26.5" font-family="Helvetica,sans-Serif" font-size="10.00"> </text>
<polyline fill="none" stroke="black" points="0,-19.5 107,-19.5 "/>
<text text-anchor="start" x="8" y="-7.5" font-family="Helvetica,sans-Serif" font-size="10.00">+ operator()()</text>
</a>
</g>
</g>
<!-- Node2 -->
<g id="node2" class="node">
<title>Node2</title>
<g id="a_node2"><a xlink:title="STL class.">
<polygon fill="white" stroke="#bfbfbf" points="21,-171.5 21,-228.5 86,-228.5 86,-171.5 21,-171.5"/>
<text text-anchor="middle" x="53.5" y="-216.5" font-family="Helvetica,sans-Serif" font-size="10.00">std::string</text>
<polyline fill="none" stroke="#bfbfbf" points="21,-209.5 86,-209.5 "/>
<text text-anchor="middle" x="53.5" y="-197.5" font-family="Helvetica,sans-Serif" font-size="10.00"> </text>
<polyline fill="none" stroke="#bfbfbf" points="21,-190.5 86,-190.5 "/>
<text text-anchor="middle" x="53.5" y="-178.5" font-family="Helvetica,sans-Serif" font-size="10.00"> </text>
</a>
</g>
</g>
<!-- Node2&#45;&gt;Node1 -->
<g id="edge1" class="edge">
<title>Node2&#45;&gt;Node1</title>
<path fill="none" stroke="#404040" d="M53.5,-171.47C53.5,-143.85 53.5,-101.03 53.5,-69.73"/>
<polygon fill="none" stroke="#404040" points="53.5,-69.52 49.5,-63.52 53.5,-57.52 57.5,-63.52 53.5,-69.52"/>
<text text-anchor="middle" x="81.5" y="-145" font-family="Helvetica,sans-Serif" font-size="10.00"> +host</text>
<text text-anchor="middle" x="81.5" y="-134" font-family="Helvetica,sans-Serif" font-size="10.00">+user</text>
<text text-anchor="middle" x="81.5" y="-123" font-family="Helvetica,sans-Serif" font-size="10.00">+password</text>
<text text-anchor="middle" x="81.5" y="-112" font-family="Helvetica,sans-Serif" font-size="10.00">+name</text>
<text text-anchor="middle" x="81.5" y="-101" font-family="Helvetica,sans-Serif" font-size="10.00">+collection</text>
<text text-anchor="middle" x="81.5" y="-90" font-family="Helvetica,sans-Serif" font-size="10.00">+port</text>
<text text-anchor="middle" x="81.5" y="-79" font-family="Helvetica,sans-Serif" font-size="10.00">+authsrc</text>
</g>
<!-- Node3 -->
<g id="node3" class="node">
<title>Node3</title>
<g id="a_node3"><a xlink:title="STL class.">
<polygon fill="white" stroke="#bfbfbf" points="1.5,-266.5 1.5,-334.5 105.5,-334.5 105.5,-266.5 1.5,-266.5"/>
<text text-anchor="start" x="9.5" y="-322.5" font-family="Helvetica,sans-Serif" font-size="10.00">std::basic_string&lt;</text>
<text text-anchor="middle" x="53.5" y="-311.5" font-family="Helvetica,sans-Serif" font-size="10.00"> char &gt;</text>
<polyline fill="none" stroke="#bfbfbf" points="1.5,-304.5 105.5,-304.5 "/>
<text text-anchor="middle" x="53.5" y="-292.5" font-family="Helvetica,sans-Serif" font-size="10.00"> </text>
<polyline fill="none" stroke="#bfbfbf" points="1.5,-285.5 105.5,-285.5 "/>
<text text-anchor="middle" x="53.5" y="-273.5" font-family="Helvetica,sans-Serif" font-size="10.00"> </text>
</a>
</g>
</g>
<!-- Node3&#45;&gt;Node2 -->
<g id="edge2" class="edge">
<title>Node3&#45;&gt;Node2</title>
<path fill="none" stroke="midnightblue" d="M53.5,-256.38C53.5,-246.94 53.5,-237.2 53.5,-228.57"/>
<polygon fill="none" stroke="midnightblue" points="50,-256.43 53.5,-266.43 57,-256.43 50,-256.43"/>
</g>
</g>
</svg>
