<?xml version="1.0" encoding="UTF-8" standalone="no"?>
<!DOCTYPE svg PUBLIC "-//W3C//DTD SVG 1.1//EN"
 "http://www.w3.org/Graphics/SVG/1.1/DTD/svg11.dtd">
<!-- Generated by graphviz version 2.43.0 (0)
 -->
<!-- Title: Feel::BasisFunctions&lt; SpaceType, IsTest &gt; Pages: 1 -->
<svg width="190pt" height="397pt"
 viewBox="0.00 0.00 190.00 397.00" xmlns="http://www.w3.org/2000/svg" xmlns:xlink="http://www.w3.org/1999/xlink">
<g id="graph0" class="graph" transform="scale(1 1) rotate(0) translate(4 393)">
<title>Feel::BasisFunctions&lt; SpaceType, IsTest &gt;</title>
<polygon fill="white" stroke="transparent" points="-4,4 -4,-393 186,-393 186,4 -4,4"/>
<!-- Node1 -->
<g id="node1" class="node">
<title>Node1</title>
<g id="a_node1"><a xlink:title="base class for basis functions">
<polygon fill="#bfbfbf" stroke="black" points="0,-0.5 0,-167.5 134,-167.5 134,-0.5 0,-0.5"/>
<text text-anchor="start" x="8" y="-155.5" font-family="Helvetica,sans-Serif" font-size="10.00">Feel::BasisFunctions</text>
<text text-anchor="middle" x="67" y="-144.5" font-family="Helvetica,sans-Serif" font-size="10.00">&lt; SpaceType, IsTest &gt;</text>
<polyline fill="none" stroke="black" points="0,-137.5 134,-137.5 "/>
<text text-anchor="middle" x="67" y="-125.5" font-family="Helvetica,sans-Serif" font-size="10.00"> </text>
<polyline fill="none" stroke="black" points="0,-118.5 134,-118.5 "/>
<text text-anchor="start" x="8" y="-106.5" font-family="Helvetica,sans-Serif" font-size="10.00">* functionspace_type</text>
<text text-anchor="start" x="8" y="-95.5" font-family="Helvetica,sans-Serif" font-size="10.00">* functionspace_ptrtype</text>
<text text-anchor="start" x="8" y="-84.5" font-family="Helvetica,sans-Serif" font-size="10.00">* space_type</text>
<text text-anchor="start" x="8" y="-73.5" font-family="Helvetica,sans-Serif" font-size="10.00">* space_ptrtype</text>
<text text-anchor="start" x="8" y="-62.5" font-family="Helvetica,sans-Serif" font-size="10.00">* basis_type</text>
<text text-anchor="start" x="8" y="-51.5" font-family="Helvetica,sans-Serif" font-size="10.00">* space()</text>
<text text-anchor="start" x="8" y="-40.5" font-family="Helvetica,sans-Serif" font-size="10.00">* basis()</text>
<text text-anchor="start" x="8" y="-29.5" font-family="Helvetica,sans-Serif" font-size="10.00">* BasisFunctions()</text>
<text text-anchor="start" x="8" y="-18.5" font-family="Helvetica,sans-Serif" font-size="10.00">* BasisFunctions()</text>
<text text-anchor="start" x="8" y="-7.5" font-family="Helvetica,sans-Serif" font-size="10.00">* ~BasisFunctions()</text>
</a>
</g>
</g>
<!-- Node2 -->
<g id="node2" class="node">
<title>Node2</title>
<g id="a_node2"><a xlink:href="classbool.html" target="_top" xlink:title=" ">
<polygon fill="white" stroke="#bfbfbf" points="8,-226.5 8,-283.5 46,-283.5 46,-226.5 8,-226.5"/>
<text text-anchor="middle" x="27" y="-271.5" font-family="Helvetica,sans-Serif" font-size="10.00">bool</text>
<polyline fill="none" stroke="#bfbfbf" points="8,-264.5 46,-264.5 "/>
<text text-anchor="middle" x="27" y="-252.5" font-family="Helvetica,sans-Serif" font-size="10.00"> </text>
<polyline fill="none" stroke="#bfbfbf" points="8,-245.5 46,-245.5 "/>
<text text-anchor="middle" x="27" y="-233.5" font-family="Helvetica,sans-Serif" font-size="10.00"> </text>
</a>
</g>
</g>
<!-- Node2&#45;&gt;Node1 -->
<g id="edge1" class="edge">
<title>Node2&#45;&gt;Node1</title>
<path fill="none" stroke="#404040" d="M32.97,-226.17C35.66,-213.85 38.91,-199.18 42,-186 42.5,-183.85 43.01,-181.68 43.53,-179.49"/>
<polygon fill="none" stroke="#404040" points="43.58,-179.31 41.08,-172.54 46.36,-167.64 48.86,-174.4 43.58,-179.31"/>
<text text-anchor="middle" x="64" y="-200" font-family="Helvetica,sans-Serif" font-size="10.00"> +is_test</text>
<text text-anchor="middle" x="64" y="-189" font-family="Helvetica,sans-Serif" font-size="10.00">+is_trial</text>
</g>
<!-- Node3 -->
<g id="node3" class="node">
<title>Node3</title>
<g id="a_node3"><a xlink:title=" ">
<polygon fill="white" stroke="black" points="64,-226.5 64,-283.5 182,-283.5 182,-226.5 64,-226.5"/>
<text text-anchor="middle" x="123" y="-271.5" font-family="Helvetica,sans-Serif" font-size="10.00">std::shared_ptr&lt; T &gt;</text>
<polyline fill="none" stroke="black" points="64,-264.5 182,-264.5 "/>
<text text-anchor="middle" x="123" y="-252.5" font-family="Helvetica,sans-Serif" font-size="10.00"> </text>
<polyline fill="none" stroke="black" points="64,-245.5 182,-245.5 "/>
<text text-anchor="start" x="72" y="-233.5" font-family="Helvetica,sans-Serif" font-size="10.00">+ operator&#45;&gt;()</text>
</a>
</g>
</g>
<!-- Node3&#45;&gt;Node1 -->
<g id="edge2" class="edge">
<title>Node3&#45;&gt;Node1</title>
<path fill="none" stroke="#404040" d="M113.88,-226.47C109.48,-213.2 103.92,-196.41 98.18,-179.08"/>
<polygon fill="none" stroke="#404040" points="98.16,-179.04 92.48,-174.6 94.39,-167.65 100.07,-172.09 98.16,-179.04"/>
<text text-anchor="middle" x="133.5" y="-194.5" font-family="Helvetica,sans-Serif" font-size="10.00"> #M_space</text>
</g>
<!-- Node4 -->
<g id="node4" class="node">
<title>Node4</title>
<g id="a_node4"><a xlink:title=" ">
<polygon fill="white" stroke="#bfbfbf" points="108.5,-331.5 108.5,-388.5 137.5,-388.5 137.5,-331.5 108.5,-331.5"/>
<text text-anchor="middle" x="123" y="-376.5" font-family="Helvetica,sans-Serif" font-size="10.00">T</text>
<polyline fill="none" stroke="#bfbfbf" points="108.5,-369.5 137.5,-369.5 "/>
<text text-anchor="middle" x="123" y="-357.5" font-family="Helvetica,sans-Serif" font-size="10.00"> </text>
<polyline fill="none" stroke="#bfbfbf" points="108.5,-350.5 137.5,-350.5 "/>
<text text-anchor="middle" x="123" y="-338.5" font-family="Helvetica,sans-Serif" font-size="10.00"> </text>
</a>
</g>
</g>
<!-- Node4&#45;&gt;Node3 -->
<g id="edge3" class="edge">
<title>Node4&#45;&gt;Node3</title>
<path fill="none" stroke="#404040" d="M123,-331.4C123,-320.55 123,-307.87 123,-296.05"/>
<polygon fill="none" stroke="#404040" points="123,-295.68 119,-289.68 123,-283.68 127,-289.68 123,-295.68"/>
<text text-anchor="middle" x="135.5" y="-305" font-family="Helvetica,sans-Serif" font-size="10.00"> +ptr</text>
</g>
</g>
</svg>
