<?xml version="1.0" encoding="UTF-8" standalone="no"?>
<!DOCTYPE svg PUBLIC "-//W3C//DTD SVG 1.1//EN"
 "http://www.w3.org/Graphics/SVG/1.1/DTD/svg11.dtd">
<!-- Generated by graphviz version 2.43.0 (0)
 -->
<!-- Title: Feel::Mesh0D&lt; Shape, T, IndexT &gt; Pages: 1 -->
<!--zoomable 1190 -->
<svg id="main" version="1.1" xmlns="http://www.w3.org/2000/svg" xmlns:xlink="http://www.w3.org/1999/xlink" xml:space="preserve" onload="init(evt)">
<style type="text/css"><![CDATA[
.edge:hover path { stroke: red; }
.edge:hover polygon { stroke: red; fill: red; }
]]></style>
<script type="text/javascript"><![CDATA[
var edges = document.getElementsByTagName('g');
if (edges && edges.length) {
  for (var i=0;i<edges.length;i++) {
    if (edges[i].id.substr(0,4)=='edge') {
      edges[i].setAttribute('class','edge');
    }
  }
}
]]></script>
        <defs>
                <circle id="rim" cx="0" cy="0" r="7"/>
                <circle id="rim2" cx="0" cy="0" r="3.5"/>
                <g id="zoomPlus">
                        <use xlink:href="#rim" fill="#404040">
                                <set attributeName="fill" to="#808080" begin="zoomplus.mouseover" end="zoomplus.mouseout"/>
                        </use>
                        <path d="M-4,0h8M0,-4v8" fill="none" stroke="white" stroke-width="1.5" pointer-events="none"/>
                </g>
                <g id="zoomMin">
                        <use xlink:href="#rim" fill="#404040">
                                <set attributeName="fill" to="#808080" begin="zoomminus.mouseover" end="zoomminus.mouseout"/>
                        </use>
                        <path d="M-4,0h8" fill="none" stroke="white" stroke-width="1.5" pointer-events="none"/>
                </g>
                <g id="dirArrow">
                        <path fill="none" stroke="white" stroke-width="1.5" d="M0,-3.0v7 M-2.5,-0.5L0,-3.0L2.5,-0.5"/>
                </g>
               <g id="resetDef">
                       <use xlink:href="#rim2" fill="#404040">
                               <set attributeName="fill" to="#808080" begin="reset.mouseover" end="reset.mouseout"/>
                       </use>
               </g>
        </defs>

<script type="text/javascript">
var viewWidth = 814;
var viewHeight = 1190;
var sectionId = 'dynsection-1';
</script>
<script xlink:href="svgpan.js"/>
<svg id="graph" class="graph">
<g id="viewport">
<title>Feel::Mesh0D&lt; Shape, T, IndexT &gt;</title>
<polygon fill="white" stroke="transparent" points="-4,4 -4,-1186 810,-1186 810,4 -4,4"/>
<!-- Node1 -->
<g id="node1" class="node">
<title>Node1</title>
<g id="a_node1"><a xlink:title="0D mesh class">
<polygon fill="#bfbfbf" stroke="black" points="319.5,-0.5 319.5,-365.5 506.5,-365.5 506.5,-0.5 319.5,-0.5"/>
<text text-anchor="start" x="327.5" y="-353.5" font-family="Helvetica,sans-Serif" font-size="10.00">Feel::Mesh0D&lt; Shape,</text>
<text text-anchor="middle" x="413" y="-342.5" font-family="Helvetica,sans-Serif" font-size="10.00"> T, IndexT &gt;</text>
<polyline fill="none" stroke="black" points="319.5,-335.5 506.5,-335.5 "/>
<text text-anchor="middle" x="413" y="-323.5" font-family="Helvetica,sans-Serif" font-size="10.00"> </text>
<polyline fill="none" stroke="black" points="319.5,-316.5 506.5,-316.5 "/>
<text text-anchor="start" x="327.5" y="-304.5" font-family="Helvetica,sans-Serif" font-size="10.00">* return_type</text>
<text text-anchor="start" x="327.5" y="-293.5" font-family="Helvetica,sans-Serif" font-size="10.00">* super_visitable</text>
<text text-anchor="start" x="327.5" y="-282.5" font-family="Helvetica,sans-Serif" font-size="10.00">* super</text>
<text text-anchor="start" x="327.5" y="-271.5" font-family="Helvetica,sans-Serif" font-size="10.00">* index_type</text>
<text text-anchor="start" x="327.5" y="-260.5" font-family="Helvetica,sans-Serif" font-size="10.00">* size_type</text>
<text text-anchor="start" x="327.5" y="-249.5" font-family="Helvetica,sans-Serif" font-size="10.00">and 53 more...</text>
<text text-anchor="start" x="327.5" y="-238.5" font-family="Helvetica,sans-Serif" font-size="10.00">* boost::serialization</text>
<text text-anchor="start" x="327.5" y="-227.5" font-family="Helvetica,sans-Serif" font-size="10.00">::access</text>
<text text-anchor="start" x="327.5" y="-216.5" font-family="Helvetica,sans-Serif" font-size="10.00">* clear()</text>
<text text-anchor="start" x="327.5" y="-205.5" font-family="Helvetica,sans-Serif" font-size="10.00">* FEELPP_DEFINE_VISITABLE()</text>
<text text-anchor="start" x="327.5" y="-194.5" font-family="Helvetica,sans-Serif" font-size="10.00">* renumber()</text>
<text text-anchor="start" x="327.5" y="-183.5" font-family="Helvetica,sans-Serif" font-size="10.00">* updateEntitiesCoDimension</text>
<text text-anchor="start" x="327.5" y="-172.5" font-family="Helvetica,sans-Serif" font-size="10.00">OnePermutation()</text>
<text text-anchor="start" x="327.5" y="-161.5" font-family="Helvetica,sans-Serif" font-size="10.00">* updateEntitiesCoDimensionTwo()</text>
<text text-anchor="start" x="327.5" y="-150.5" font-family="Helvetica,sans-Serif" font-size="10.00">* serialize()</text>
<text text-anchor="start" x="327.5" y="-139.5" font-family="Helvetica,sans-Serif" font-size="10.00">* Mesh0D()</text>
<text text-anchor="start" x="327.5" y="-128.5" font-family="Helvetica,sans-Serif" font-size="10.00">* Mesh0D()</text>
<text text-anchor="start" x="327.5" y="-117.5" font-family="Helvetica,sans-Serif" font-size="10.00">* Mesh0D()</text>
<text text-anchor="start" x="327.5" y="-106.5" font-family="Helvetica,sans-Serif" font-size="10.00">* ~Mesh0D()</text>
<text text-anchor="start" x="327.5" y="-95.5" font-family="Helvetica,sans-Serif" font-size="10.00">* operator=()</text>
<text text-anchor="start" x="327.5" y="-84.5" font-family="Helvetica,sans-Serif" font-size="10.00">* operator=()</text>
<text text-anchor="start" x="327.5" y="-73.5" font-family="Helvetica,sans-Serif" font-size="10.00">* isEmpty()</text>
<text text-anchor="start" x="327.5" y="-62.5" font-family="Helvetica,sans-Serif" font-size="10.00">* numElements()</text>
<text text-anchor="start" x="327.5" y="-51.5" font-family="Helvetica,sans-Serif" font-size="10.00">* numLocalFaces()</text>
<text text-anchor="start" x="327.5" y="-40.5" font-family="Helvetica,sans-Serif" font-size="10.00">* numLocalVertices()</text>
<text text-anchor="start" x="327.5" y="-29.5" font-family="Helvetica,sans-Serif" font-size="10.00">* numFaces()</text>
<text text-anchor="start" x="327.5" y="-18.5" font-family="Helvetica,sans-Serif" font-size="10.00">* numPoints()</text>
<text text-anchor="start" x="327.5" y="-7.5" font-family="Helvetica,sans-Serif" font-size="10.00">* setWorldComm()</text>
</a>
</g>
</g>
<!-- Node2 -->
<g id="node2" class="node">
<title>Node2</title>
<g id="a_node2"><a xlink:href="classFeel_1_1VisitableBase.html" target="_top" xlink:title=" ">
<polygon fill="white" stroke="black" points="0,-589.5 0,-679.5 126,-679.5 126,-589.5 0,-589.5"/>
<text text-anchor="middle" x="63" y="-667.5" font-family="Helvetica,sans-Serif" font-size="10.00">Feel::VisitableBase&lt;&gt;</text>
<polyline fill="none" stroke="black" points="0,-660.5 126,-660.5 "/>
<text text-anchor="middle" x="63" y="-648.5" font-family="Helvetica,sans-Serif" font-size="10.00"> </text>
<polyline fill="none" stroke="black" points="0,-641.5 126,-641.5 "/>
<text text-anchor="start" x="8" y="-629.5" font-family="Helvetica,sans-Serif" font-size="10.00">+ accept()</text>
<text text-anchor="start" x="8" y="-618.5" font-family="Helvetica,sans-Serif" font-size="10.00">+ accept()</text>
<text text-anchor="start" x="8" y="-607.5" font-family="Helvetica,sans-Serif" font-size="10.00">+ ~VisitableBase()</text>
<text text-anchor="start" x="8" y="-596.5" font-family="Helvetica,sans-Serif" font-size="10.00"># acceptImpl()</text>
</a>
</g>
</g>
<!-- Node2&#45;&gt;Node1 -->
<g id="edge1" class="edge">
<title>Node2&#45;&gt;Node1</title>
<path fill="none" stroke="midnightblue" d="M73.35,-579.36C83.71,-534.83 102.84,-471.53 135,-424 183.68,-352.05 259.29,-288.7 319.38,-245.18"/>
<polygon fill="none" stroke="midnightblue" points="69.93,-578.61 71.14,-589.13 76.76,-580.15 69.93,-578.61"/>
</g>
<!-- Node3 -->
<g id="node3" class="node">
<title>Node3</title>
<g id="a_node3"><a xlink:href="classFeel_1_1MeshBase.html" target="_top" xlink:title=" ">
<polygon fill="white" stroke="black" points="144.5,-424.5 144.5,-844.5 317.5,-844.5 317.5,-424.5 144.5,-424.5"/>
<text text-anchor="start" x="152.5" y="-832.5" font-family="Helvetica,sans-Serif" font-size="10.00">Feel::MeshBase&lt; uint32</text>
<text text-anchor="middle" x="231" y="-821.5" font-family="Helvetica,sans-Serif" font-size="10.00">_type &gt;</text>
<polyline fill="none" stroke="black" points="144.5,-814.5 317.5,-814.5 "/>
<text text-anchor="middle" x="231" y="-802.5" font-family="Helvetica,sans-Serif" font-size="10.00"> </text>
<polyline fill="none" stroke="black" points="144.5,-795.5 317.5,-795.5 "/>
<text text-anchor="start" x="152.5" y="-783.5" font-family="Helvetica,sans-Serif" font-size="10.00">* super</text>
<text text-anchor="start" x="152.5" y="-772.5" font-family="Helvetica,sans-Serif" font-size="10.00">* index_type</text>
<text text-anchor="start" x="152.5" y="-761.5" font-family="Helvetica,sans-Serif" font-size="10.00">* index_t</text>
<text text-anchor="start" x="152.5" y="-750.5" font-family="Helvetica,sans-Serif" font-size="10.00">* size_type</text>
<text text-anchor="start" x="152.5" y="-739.5" font-family="Helvetica,sans-Serif" font-size="10.00">* face_processor_type</text>
<text text-anchor="start" x="152.5" y="-728.5" font-family="Helvetica,sans-Serif" font-size="10.00">* smd_type</text>
<text text-anchor="start" x="152.5" y="-717.5" font-family="Helvetica,sans-Serif" font-size="10.00">* smd_ptrtype</text>
<text text-anchor="start" x="152.5" y="-706.5" font-family="Helvetica,sans-Serif" font-size="10.00">* boost::serialization</text>
<text text-anchor="start" x="152.5" y="-695.5" font-family="Helvetica,sans-Serif" font-size="10.00">::access</text>
<text text-anchor="start" x="152.5" y="-684.5" font-family="Helvetica,sans-Serif" font-size="10.00">* M_topodim</text>
<text text-anchor="start" x="152.5" y="-673.5" font-family="Helvetica,sans-Serif" font-size="10.00">* M_realdim</text>
<text text-anchor="start" x="152.5" y="-662.5" font-family="Helvetica,sans-Serif" font-size="10.00">* M_components</text>
<text text-anchor="start" x="152.5" y="-651.5" font-family="Helvetica,sans-Serif" font-size="10.00">* M_is_updated</text>
<text text-anchor="start" x="152.5" y="-640.5" font-family="Helvetica,sans-Serif" font-size="10.00">and 65 more...</text>
<text text-anchor="start" x="152.5" y="-629.5" font-family="Helvetica,sans-Serif" font-size="10.00">* MeshBase()</text>
<text text-anchor="start" x="152.5" y="-618.5" font-family="Helvetica,sans-Serif" font-size="10.00">* MeshBase()</text>
<text text-anchor="start" x="152.5" y="-607.5" font-family="Helvetica,sans-Serif" font-size="10.00">* MeshBase()</text>
<text text-anchor="start" x="152.5" y="-596.5" font-family="Helvetica,sans-Serif" font-size="10.00">* MeshBase()</text>
<text text-anchor="start" x="152.5" y="-585.5" font-family="Helvetica,sans-Serif" font-size="10.00">* MeshBase()</text>
<text text-anchor="start" x="152.5" y="-574.5" font-family="Helvetica,sans-Serif" font-size="10.00">* MeshBase()</text>
<text text-anchor="start" x="152.5" y="-563.5" font-family="Helvetica,sans-Serif" font-size="10.00">* ~MeshBase()</text>
<text text-anchor="start" x="152.5" y="-552.5" font-family="Helvetica,sans-Serif" font-size="10.00">* operator=()</text>
<text text-anchor="start" x="152.5" y="-541.5" font-family="Helvetica,sans-Serif" font-size="10.00">* operator=()</text>
<text text-anchor="start" x="152.5" y="-530.5" font-family="Helvetica,sans-Serif" font-size="10.00">* shared_from_this_meshbase()</text>
<text text-anchor="start" x="152.5" y="-519.5" font-family="Helvetica,sans-Serif" font-size="10.00">* shared_from_this_meshbase()</text>
<text text-anchor="start" x="152.5" y="-508.5" font-family="Helvetica,sans-Serif" font-size="10.00">* isUpdatedForUse()</text>
<text text-anchor="start" x="152.5" y="-497.5" font-family="Helvetica,sans-Serif" font-size="10.00">* setTopologicalDimension()</text>
<text text-anchor="start" x="152.5" y="-486.5" font-family="Helvetica,sans-Serif" font-size="10.00">* setRealDimension()</text>
<text text-anchor="start" x="152.5" y="-475.5" font-family="Helvetica,sans-Serif" font-size="10.00">and 14 more...</text>
<text text-anchor="start" x="152.5" y="-464.5" font-family="Helvetica,sans-Serif" font-size="10.00">* setNumberOfPartitions()</text>
<text text-anchor="start" x="152.5" y="-453.5" font-family="Helvetica,sans-Serif" font-size="10.00">* setNumVertices()</text>
<text text-anchor="start" x="152.5" y="-442.5" font-family="Helvetica,sans-Serif" font-size="10.00">* setComponents()</text>
<text text-anchor="start" x="152.5" y="-431.5" font-family="Helvetica,sans-Serif" font-size="10.00">* setParametric()</text>
</a>
</g>
</g>
<!-- Node3&#45;&gt;Node1 -->
<g id="edge2" class="edge">
<title>Node3&#45;&gt;Node1</title>
<path fill="none" stroke="midnightblue" d="M319.65,-414.56C326.29,-398.16 332.95,-381.72 339.48,-365.58"/>
<polygon fill="none" stroke="midnightblue" points="316.25,-413.63 315.74,-424.21 322.74,-416.26 316.25,-413.63"/>
</g>
<!-- Node4 -->
<g id="node4" class="node">
<title>Node4</title>
<g id="a_node4"><a xlink:title=" ">
<polygon fill="white" stroke="#bfbfbf" points="155,-892.5 155,-960.5 307,-960.5 307,-892.5 155,-892.5"/>
<text text-anchor="start" x="163" y="-948.5" font-family="Helvetica,sans-Serif" font-size="10.00">std::map&lt; std::string,</text>
<text text-anchor="middle" x="231" y="-937.5" font-family="Helvetica,sans-Serif" font-size="10.00"> std::vector&lt; size_type &gt; &gt;</text>
<polyline fill="none" stroke="#bfbfbf" points="155,-930.5 307,-930.5 "/>
<text text-anchor="middle" x="231" y="-918.5" font-family="Helvetica,sans-Serif" font-size="10.00"> </text>
<polyline fill="none" stroke="#bfbfbf" points="155,-911.5 307,-911.5 "/>
<text text-anchor="middle" x="231" y="-899.5" font-family="Helvetica,sans-Serif" font-size="10.00"> </text>
</a>
</g>
</g>
<!-- Node4&#45;&gt;Node3 -->
<g id="edge3" class="edge">
<title>Node4&#45;&gt;Node3</title>
<path fill="none" stroke="#404040" d="M231,-892.23C231,-882.1 231,-870.11 231,-856.95"/>
<polygon fill="none" stroke="#404040" points="231,-856.54 227,-850.54 231,-844.54 235,-850.54 231,-856.54"/>
<text text-anchor="middle" x="275" y="-866" font-family="Helvetica,sans-Serif" font-size="10.00"> #M_markername</text>
</g>
<!-- Node5 -->
<g id="node5" class="node">
<title>Node5</title>
<g id="a_node5"><a xlink:title="STL class.">
<polygon fill="white" stroke="#bfbfbf" points="139.5,-1008.5 139.5,-1065.5 204.5,-1065.5 204.5,-1008.5 139.5,-1008.5"/>
<text text-anchor="middle" x="172" y="-1053.5" font-family="Helvetica,sans-Serif" font-size="10.00">std::string</text>
<polyline fill="none" stroke="#bfbfbf" points="139.5,-1046.5 204.5,-1046.5 "/>
<text text-anchor="middle" x="172" y="-1034.5" font-family="Helvetica,sans-Serif" font-size="10.00"> </text>
<polyline fill="none" stroke="#bfbfbf" points="139.5,-1027.5 204.5,-1027.5 "/>
<text text-anchor="middle" x="172" y="-1015.5" font-family="Helvetica,sans-Serif" font-size="10.00"> </text>
</a>
</g>
</g>
<!-- Node5&#45;&gt;Node4 -->
<g id="edge4" class="edge">
<title>Node5&#45;&gt;Node4</title>
<path fill="none" stroke="#404040" d="M187.04,-1008.34C193.17,-997.07 200.4,-983.78 207.21,-971.25"/>
<polygon fill="none" stroke="#404040" points="207.31,-971.06 206.66,-963.88 213.05,-960.52 213.69,-967.7 207.31,-971.06"/>
<text text-anchor="middle" x="219" y="-982" font-family="Helvetica,sans-Serif" font-size="10.00"> +keys</text>
</g>
<!-- Node6 -->
<g id="node6" class="node">
<title>Node6</title>
<g id="a_node6"><a xlink:title="STL class.">
<polygon fill="white" stroke="#bfbfbf" points="120,-1113.5 120,-1181.5 224,-1181.5 224,-1113.5 120,-1113.5"/>
<text text-anchor="start" x="128" y="-1169.5" font-family="Helvetica,sans-Serif" font-size="10.00">std::basic_string&lt;</text>
<text text-anchor="middle" x="172" y="-1158.5" font-family="Helvetica,sans-Serif" font-size="10.00"> char &gt;</text>
<polyline fill="none" stroke="#bfbfbf" points="120,-1151.5 224,-1151.5 "/>
<text text-anchor="middle" x="172" y="-1139.5" font-family="Helvetica,sans-Serif" font-size="10.00"> </text>
<polyline fill="none" stroke="#bfbfbf" points="120,-1132.5 224,-1132.5 "/>
<text text-anchor="middle" x="172" y="-1120.5" font-family="Helvetica,sans-Serif" font-size="10.00"> </text>
</a>
</g>
</g>
<!-- Node6&#45;&gt;Node5 -->
<g id="edge5" class="edge">
<title>Node6&#45;&gt;Node5</title>
<path fill="none" stroke="midnightblue" d="M172,-1103.06C172,-1090.51 172,-1077.15 172,-1065.83"/>
<polygon fill="none" stroke="midnightblue" points="168.5,-1103.36 172,-1113.36 175.5,-1103.36 168.5,-1103.36"/>
</g>
<!-- Node7 -->
<g id="node7" class="node">
<title>Node7</title>
<g id="a_node7"><a xlink:title=" ">
<polygon fill="white" stroke="#bfbfbf" points="222.5,-1008.5 222.5,-1065.5 359.5,-1065.5 359.5,-1008.5 222.5,-1008.5"/>
<text text-anchor="middle" x="291" y="-1053.5" font-family="Helvetica,sans-Serif" font-size="10.00">std::vector&lt; size_type &gt;</text>
<polyline fill="none" stroke="#bfbfbf" points="222.5,-1046.5 359.5,-1046.5 "/>
<text text-anchor="middle" x="291" y="-1034.5" font-family="Helvetica,sans-Serif" font-size="10.00"> </text>
<polyline fill="none" stroke="#bfbfbf" points="222.5,-1027.5 359.5,-1027.5 "/>
<text text-anchor="middle" x="291" y="-1015.5" font-family="Helvetica,sans-Serif" font-size="10.00"> </text>
</a>
</g>
</g>
<!-- Node7&#45;&gt;Node4 -->
<g id="edge6" class="edge">
<title>Node7&#45;&gt;Node4</title>
<path fill="none" stroke="#404040" d="M275.7,-1008.34C269.47,-997.07 262.12,-983.78 255.2,-971.25"/>
<polygon fill="none" stroke="#404040" points="255.07,-971.02 248.66,-967.7 249.26,-960.52 255.66,-963.83 255.07,-971.02"/>
<text text-anchor="middle" x="294" y="-982" font-family="Helvetica,sans-Serif" font-size="10.00"> +elements</text>
</g>
<!-- Node8 -->
<g id="node8" class="node">
<title>Node8</title>
<g id="a_node8"><a xlink:href="classsize__type.html" target="_top" xlink:title=" ">
<polygon fill="white" stroke="black" points="259.5,-1119 259.5,-1176 322.5,-1176 322.5,-1119 259.5,-1119"/>
<text text-anchor="middle" x="291" y="-1164" font-family="Helvetica,sans-Serif" font-size="10.00">size_type</text>
<polyline fill="none" stroke="black" points="259.5,-1157 322.5,-1157 "/>
<text text-anchor="middle" x="291" y="-1145" font-family="Helvetica,sans-Serif" font-size="10.00"> </text>
<polyline fill="none" stroke="black" points="259.5,-1138 322.5,-1138 "/>
<text text-anchor="middle" x="291" y="-1126" font-family="Helvetica,sans-Serif" font-size="10.00"> </text>
</a>
</g>
</g>
<!-- Node8&#45;&gt;Node7 -->
<g id="edge7" class="edge">
<title>Node8&#45;&gt;Node7</title>
<path fill="none" stroke="#404040" d="M291,-1118.84C291,-1106.34 291,-1091.34 291,-1077.68"/>
<polygon fill="none" stroke="#404040" points="291,-1077.61 287,-1071.61 291,-1065.61 295,-1071.61 291,-1077.61"/>
<text text-anchor="middle" x="320" y="-1087" font-family="Helvetica,sans-Serif" font-size="10.00"> +elements</text>
</g>
<!-- Node9 -->
<g id="node9" class="node">
<title>Node9</title>
<g id="a_node9"><a xlink:href="classElements.html" target="_top" xlink:title=" ">
<polygon fill="white" stroke="black" points="336,-606 336,-663 490,-663 490,-606 336,-606"/>
<text text-anchor="middle" x="413" y="-651" font-family="Helvetica,sans-Serif" font-size="10.00">Elements&lt; Shape, double &gt;</text>
<polyline fill="none" stroke="black" points="336,-644 490,-644 "/>
<text text-anchor="middle" x="413" y="-632" font-family="Helvetica,sans-Serif" font-size="10.00"> </text>
<polyline fill="none" stroke="black" points="336,-625 490,-625 "/>
<text text-anchor="middle" x="413" y="-613" font-family="Helvetica,sans-Serif" font-size="10.00"> </text>
</a>
</g>
</g>
<!-- Node9&#45;&gt;Node1 -->
<g id="edge8" class="edge">
<title>Node9&#45;&gt;Node1</title>
<path fill="none" stroke="midnightblue" d="M413,-595.53C413,-544.62 413,-450.75 413,-365.51"/>
<polygon fill="none" stroke="midnightblue" points="409.5,-595.72 413,-605.72 416.5,-595.72 409.5,-595.72"/>
</g>
<!-- Node10 -->
<g id="node10" class="node">
<title>Node10</title>
<g id="a_node10"><a xlink:href="classPoints.html" target="_top" xlink:title=" ">
<polygon fill="white" stroke="black" points="508.5,-600.5 508.5,-668.5 653.5,-668.5 653.5,-600.5 508.5,-600.5"/>
<text text-anchor="start" x="516.5" y="-656.5" font-family="Helvetica,sans-Serif" font-size="10.00">Points&lt; Shape::nRealDim,</text>
<text text-anchor="middle" x="581" y="-645.5" font-family="Helvetica,sans-Serif" font-size="10.00"> double &gt;</text>
<polyline fill="none" stroke="black" points="508.5,-638.5 653.5,-638.5 "/>
<text text-anchor="middle" x="581" y="-626.5" font-family="Helvetica,sans-Serif" font-size="10.00"> </text>
<polyline fill="none" stroke="black" points="508.5,-619.5 653.5,-619.5 "/>
<text text-anchor="middle" x="581" y="-607.5" font-family="Helvetica,sans-Serif" font-size="10.00"> </text>
</a>
</g>
</g>
<!-- Node10&#45;&gt;Node1 -->
<g id="edge9" class="edge">
<title>Node10&#45;&gt;Node1</title>
<path fill="none" stroke="midnightblue" d="M565.09,-590.93C545.73,-539.14 511.8,-448.35 480.89,-365.65"/>
<polygon fill="none" stroke="midnightblue" points="561.87,-592.31 568.65,-600.45 568.42,-589.85 561.87,-592.31"/>
</g>
<!-- Node11 -->
<g id="node11" class="node">
<title>Node11</title>
<g id="a_node11"><a xlink:title=" ">
<polygon fill="white" stroke="#bfbfbf" points="672,-606 672,-663 806,-663 806,-606 672,-606"/>
<text text-anchor="middle" x="739" y="-651" font-family="Helvetica,sans-Serif" font-size="10.00">static const uint16_type</text>
<polyline fill="none" stroke="#bfbfbf" points="672,-644 806,-644 "/>
<text text-anchor="middle" x="739" y="-632" font-family="Helvetica,sans-Serif" font-size="10.00"> </text>
<polyline fill="none" stroke="#bfbfbf" points="672,-625 806,-625 "/>
<text text-anchor="middle" x="739" y="-613" font-family="Helvetica,sans-Serif" font-size="10.00"> </text>
</a>
</g>
</g>
<!-- Node11&#45;&gt;Node1 -->
<g id="edge10" class="edge">
<title>Node11&#45;&gt;Node1</title>
<path fill="none" stroke="#404040" d="M733.25,-605.9C723.62,-564.01 701.41,-483.02 663,-424 623.53,-363.35 565.97,-306.72 516.03,-263.72"/>
<polygon fill="none" stroke="#404040" points="515.93,-263.63 508.77,-262.78 506.8,-255.85 513.96,-256.69 515.93,-263.63"/>
<text text-anchor="middle" x="675.5" y="-398" font-family="Helvetica,sans-Serif" font-size="10.00"> +nDim</text>
<text text-anchor="middle" x="675.5" y="-387" font-family="Helvetica,sans-Serif" font-size="10.00">+nRealDim</text>
</g>
</g>
</svg>
        <g id="navigator" transform="translate(0 0)" fill="#404254">
                <rect fill="#f2f5e9" fill-opacity="0.5" stroke="#606060" stroke-width=".5" x="0" y="0" width="60" height="60"/>
                <use id="zoomplus" xlink:href="#zoomPlus" x="17" y="9" onmousedown="handleZoom(evt,'in')"/>
                <use id="zoomminus" xlink:href="#zoomMin" x="42" y="9" onmousedown="handleZoom(evt,'out')"/>
                <use id="reset" xlink:href="#resetDef" x="30" y="36" onmousedown="handleReset()"/>
                <g id="arrowUp" xlink:href="#dirArrow" transform="translate(30 24)" onmousedown="handlePan(0,-1)">
                  <use xlink:href="#rim" fill="#404040">
                        <set attributeName="fill" to="#808080" begin="arrowUp.mouseover" end="arrowUp.mouseout"/>
                  </use>
                  <path fill="none" stroke="white" stroke-width="1.5" d="M0,-3.0v7 M-2.5,-0.5L0,-3.0L2.5,-0.5"/>
                </g>
                <g id="arrowRight" xlink:href="#dirArrow" transform="rotate(90) translate(36 -43)" onmousedown="handlePan(1,0)">
                  <use xlink:href="#rim" fill="#404040">
                        <set attributeName="fill" to="#808080" begin="arrowRight.mouseover" end="arrowRight.mouseout"/>
                  </use>
                  <path fill="none" stroke="white" stroke-width="1.5" d="M0,-3.0v7 M-2.5,-0.5L0,-3.0L2.5,-0.5"/>
                </g>
                <g id="arrowDown" xlink:href="#dirArrow" transform="rotate(180) translate(-30 -48)" onmousedown="handlePan(0,1)">
                  <use xlink:href="#rim" fill="#404040">
                        <set attributeName="fill" to="#808080" begin="arrowDown.mouseover" end="arrowDown.mouseout"/>
                  </use>
                  <path fill="none" stroke="white" stroke-width="1.5" d="M0,-3.0v7 M-2.5,-0.5L0,-3.0L2.5,-0.5"/>
                </g>
                <g id="arrowLeft" xlink:href="#dirArrow" transform="rotate(270) translate(-36 17)" onmousedown="handlePan(-1,0)">
                  <use xlink:href="#rim" fill="#404040">
                        <set attributeName="fill" to="#808080" begin="arrowLeft.mouseover" end="arrowLeft.mouseout"/>
                  </use>
                  <path fill="none" stroke="white" stroke-width="1.5" d="M0,-3.0v7 M-2.5,-0.5L0,-3.0L2.5,-0.5"/>
                </g>
        </g>
        <svg viewBox="0 0 15 15" width="100%" height="30px" preserveAspectRatio="xMaxYMin meet">
         <g id="arrow_out" transform="scale(0.3 0.3)">
          <a xlink:href="classFeel_1_1Mesh0D__coll__graph_org.svg" target="_base">
           <rect id="button" ry="5" rx="5" y="6" x="6" height="38" width="38"
                fill="#f2f5e9" fill-opacity="0.5" stroke="#606060" stroke-width="1.0"/>
           <path id="arrow"
             d="M 11.500037,31.436501 C 11.940474,20.09759 22.043105,11.32322 32.158766,21.979434 L 37.068811,17.246167 C 37.068811,17.246167 37.088388,32 37.088388,32 L 22.160133,31.978069 C 22.160133,31.978069 26.997745,27.140456 26.997745,27.140456 C 18.528582,18.264221 13.291696,25.230495 11.500037,31.436501 z"
             style="fill:#404040;"/>
          </a>
         </g>
        </svg>
</svg>
