<?xml version="1.0" encoding="UTF-8" standalone="no"?>
<!DOCTYPE svg PUBLIC "-//W3C//DTD SVG 1.1//EN"
 "http://www.w3.org/Graphics/SVG/1.1/DTD/svg11.dtd">
<!-- Generated by graphviz version 2.43.0 (0)
 -->
<!-- Title: Feel::GeoND&lt; Dim, GEOSHAPE, T, IndexT, POINTTYPE, UseMeasuresStorage &gt; Pages: 1 -->
<!--zoomable 925 -->
<svg id="main" version="1.1" xmlns="http://www.w3.org/2000/svg" xmlns:xlink="http://www.w3.org/1999/xlink" xml:space="preserve" onload="init(evt)">
<style type="text/css"><![CDATA[
.edge:hover path { stroke: red; }
.edge:hover polygon { stroke: red; fill: red; }
]]></style>
<script type="text/javascript"><![CDATA[
var edges = document.getElementsByTagName('g');
if (edges && edges.length) {
  for (var i=0;i<edges.length;i++) {
    if (edges[i].id.substr(0,4)=='edge') {
      edges[i].setAttribute('class','edge');
    }
  }
}
]]></script>
        <defs>
                <circle id="rim" cx="0" cy="0" r="7"/>
                <circle id="rim2" cx="0" cy="0" r="3.5"/>
                <g id="zoomPlus">
                        <use xlink:href="#rim" fill="#404040">
                                <set attributeName="fill" to="#808080" begin="zoomplus.mouseover" end="zoomplus.mouseout"/>
                        </use>
                        <path d="M-4,0h8M0,-4v8" fill="none" stroke="white" stroke-width="1.5" pointer-events="none"/>
                </g>
                <g id="zoomMin">
                        <use xlink:href="#rim" fill="#404040">
                                <set attributeName="fill" to="#808080" begin="zoomminus.mouseover" end="zoomminus.mouseout"/>
                        </use>
                        <path d="M-4,0h8" fill="none" stroke="white" stroke-width="1.5" pointer-events="none"/>
                </g>
                <g id="dirArrow">
                        <path fill="none" stroke="white" stroke-width="1.5" d="M0,-3.0v7 M-2.5,-0.5L0,-3.0L2.5,-0.5"/>
                </g>
               <g id="resetDef">
                       <use xlink:href="#rim2" fill="#404040">
                               <set attributeName="fill" to="#808080" begin="reset.mouseover" end="reset.mouseout"/>
                       </use>
               </g>
        </defs>

<script type="text/javascript">
var viewWidth = 1471;
var viewHeight = 925;
var sectionId = 'dynsection-1';
</script>
<script xlink:href="svgpan.js"/>
<svg id="graph" class="graph">
<g id="viewport">
<title>Feel::GeoND&lt; Dim, GEOSHAPE, T, IndexT, POINTTYPE, UseMeasuresStorage &gt;</title>
<polygon fill="white" stroke="transparent" points="-4,4 -4,-921 1466.5,-921 1466.5,4 -4,4"/>
<!-- Node1 -->
<g id="node1" class="node">
<title>Node1</title>
<g id="a_node1"><a xlink:title="Base class for Multi&#45;dimensional basis Geometrical Entities.">
<polygon fill="#bfbfbf" stroke="black" points="919.5,-0.5 919.5,-167.5 1116.5,-167.5 1116.5,-0.5 919.5,-0.5"/>
<text text-anchor="start" x="927.5" y="-155.5" font-family="Helvetica,sans-Serif" font-size="10.00">Feel::GeoND&lt; Dim, GEOSHAPE,</text>
<text text-anchor="start" x="927.5" y="-144.5" font-family="Helvetica,sans-Serif" font-size="10.00"> T, IndexT, POINTTYPE, UseMeasures</text>
<text text-anchor="middle" x="1018" y="-133.5" font-family="Helvetica,sans-Serif" font-size="10.00">Storage &gt;</text>
<polyline fill="none" stroke="black" points="919.5,-126.5 1116.5,-126.5 "/>
<text text-anchor="middle" x="1018" y="-114.5" font-family="Helvetica,sans-Serif" font-size="10.00"> </text>
<polyline fill="none" stroke="black" points="919.5,-107.5 1116.5,-107.5 "/>
<text text-anchor="start" x="927.5" y="-95.5" font-family="Helvetica,sans-Serif" font-size="10.00">+ applyDisplacement()</text>
<text text-anchor="start" x="927.5" y="-84.5" font-family="Helvetica,sans-Serif" font-size="10.00">+ applyDisplacementG()</text>
<text text-anchor="start" x="927.5" y="-73.5" font-family="Helvetica,sans-Serif" font-size="10.00">+ barycenter()</text>
<text text-anchor="start" x="927.5" y="-62.5" font-family="Helvetica,sans-Serif" font-size="10.00">+ beginPoint()</text>
<text text-anchor="start" x="927.5" y="-51.5" font-family="Helvetica,sans-Serif" font-size="10.00">+ beginPoint()</text>
<text text-anchor="start" x="927.5" y="-40.5" font-family="Helvetica,sans-Serif" font-size="10.00">and 62 more...</text>
<text text-anchor="start" x="927.5" y="-29.5" font-family="Helvetica,sans-Serif" font-size="10.00">+ fToP()</text>
<text text-anchor="start" x="927.5" y="-18.5" font-family="Helvetica,sans-Serif" font-size="10.00">+ imMeasure()</text>
<text text-anchor="start" x="927.5" y="-7.5" font-family="Helvetica,sans-Serif" font-size="10.00">+ imMeasureOrder1()</text>
</a>
</g>
</g>
<!-- Node2 -->
<g id="node2" class="node">
<title>Node2</title>
<g id="a_node2"><a xlink:href="classFeel_1_1GeoEntity.html" target="_top" xlink:title=" ">
<polygon fill="white" stroke="black" points="529,-237.5 529,-679.5 717,-679.5 717,-237.5 529,-237.5"/>
<text text-anchor="start" x="537" y="-667.5" font-family="Helvetica,sans-Serif" font-size="10.00">Feel::GeoEntity&lt; GEOSHAPE,</text>
<text text-anchor="middle" x="623" y="-656.5" font-family="Helvetica,sans-Serif" font-size="10.00"> double &gt;</text>
<polyline fill="none" stroke="black" points="529,-649.5 717,-649.5 "/>
<text text-anchor="middle" x="623" y="-637.5" font-family="Helvetica,sans-Serif" font-size="10.00"> </text>
<polyline fill="none" stroke="black" points="529,-630.5 717,-630.5 "/>
<text text-anchor="start" x="537" y="-618.5" font-family="Helvetica,sans-Serif" font-size="10.00">* super</text>
<text text-anchor="start" x="537" y="-607.5" font-family="Helvetica,sans-Serif" font-size="10.00">* GeoShape</text>
<text text-anchor="start" x="537" y="-596.5" font-family="Helvetica,sans-Serif" font-size="10.00">* self_type</text>
<text text-anchor="start" x="537" y="-585.5" font-family="Helvetica,sans-Serif" font-size="10.00">* value_type</text>
<text text-anchor="start" x="537" y="-574.5" font-family="Helvetica,sans-Serif" font-size="10.00">* index_type</text>
<text text-anchor="start" x="537" y="-563.5" font-family="Helvetica,sans-Serif" font-size="10.00">and 12 more...</text>
<text text-anchor="start" x="537" y="-552.5" font-family="Helvetica,sans-Serif" font-size="10.00">* boost::serialization</text>
<text text-anchor="start" x="537" y="-541.5" font-family="Helvetica,sans-Serif" font-size="10.00">::access</text>
<text text-anchor="start" x="537" y="-530.5" font-family="Helvetica,sans-Serif" font-size="10.00">* M_id</text>
<text text-anchor="start" x="537" y="-519.5" font-family="Helvetica,sans-Serif" font-size="10.00">* M_entity</text>
<text text-anchor="start" x="537" y="-508.5" font-family="Helvetica,sans-Serif" font-size="10.00">* M_boundaryEntityDimension</text>
<text text-anchor="start" x="537" y="-497.5" font-family="Helvetica,sans-Serif" font-size="10.00">* M_pid</text>
<text text-anchor="start" x="537" y="-486.5" font-family="Helvetica,sans-Serif" font-size="10.00">and 41 more...</text>
<text text-anchor="start" x="537" y="-475.5" font-family="Helvetica,sans-Serif" font-size="10.00">* GeoEntity()</text>
<text text-anchor="start" x="537" y="-464.5" font-family="Helvetica,sans-Serif" font-size="10.00">* GeoEntity()</text>
<text text-anchor="start" x="537" y="-453.5" font-family="Helvetica,sans-Serif" font-size="10.00">* GeoEntity()</text>
<text text-anchor="start" x="537" y="-442.5" font-family="Helvetica,sans-Serif" font-size="10.00">* GeoEntity()</text>
<text text-anchor="start" x="537" y="-431.5" font-family="Helvetica,sans-Serif" font-size="10.00">* operator=()</text>
<text text-anchor="start" x="537" y="-420.5" font-family="Helvetica,sans-Serif" font-size="10.00">* operator=()</text>
<text text-anchor="start" x="537" y="-409.5" font-family="Helvetica,sans-Serif" font-size="10.00">* ~GeoEntity()</text>
<text text-anchor="start" x="537" y="-398.5" font-family="Helvetica,sans-Serif" font-size="10.00">* operator==()</text>
<text text-anchor="start" x="537" y="-387.5" font-family="Helvetica,sans-Serif" font-size="10.00">* operator&lt;()</text>
<text text-anchor="start" x="537" y="-376.5" font-family="Helvetica,sans-Serif" font-size="10.00">* operator&lt;()</text>
<text text-anchor="start" x="537" y="-365.5" font-family="Helvetica,sans-Serif" font-size="10.00">* id()</text>
<text text-anchor="start" x="537" y="-354.5" font-family="Helvetica,sans-Serif" font-size="10.00">* refDim()</text>
<text text-anchor="start" x="537" y="-343.5" font-family="Helvetica,sans-Serif" font-size="10.00">* nPoints()</text>
<text text-anchor="start" x="537" y="-332.5" font-family="Helvetica,sans-Serif" font-size="10.00">* nVertices()</text>
<text text-anchor="start" x="537" y="-321.5" font-family="Helvetica,sans-Serif" font-size="10.00">* nEdges()</text>
<text text-anchor="start" x="537" y="-310.5" font-family="Helvetica,sans-Serif" font-size="10.00">and 42 more...</text>
<text text-anchor="start" x="537" y="-299.5" font-family="Helvetica,sans-Serif" font-size="10.00">* setId()</text>
<text text-anchor="start" x="537" y="-288.5" font-family="Helvetica,sans-Serif" font-size="10.00">* setOnBoundary()</text>
<text text-anchor="start" x="537" y="-277.5" font-family="Helvetica,sans-Serif" font-size="10.00">* setNumberOfPartitions()</text>
<text text-anchor="start" x="537" y="-266.5" font-family="Helvetica,sans-Serif" font-size="10.00">* setNumberOfNeighborPartitions()</text>
<text text-anchor="start" x="537" y="-255.5" font-family="Helvetica,sans-Serif" font-size="10.00">* setNeighborPartitionIds()</text>
<text text-anchor="start" x="537" y="-244.5" font-family="Helvetica,sans-Serif" font-size="10.00">* addNeighborPartitionId()</text>
</a>
</g>
</g>
<!-- Node2&#45;&gt;Node1 -->
<g id="edge1" class="edge">
<title>Node2&#45;&gt;Node1</title>
<path fill="none" stroke="midnightblue" d="M724.31,-352.34C774.83,-301.04 837.5,-239.1 896,-186 903.53,-179.16 911.44,-172.19 919.45,-165.27"/>
<polygon fill="none" stroke="midnightblue" points="721.77,-349.92 717.26,-359.5 726.77,-354.83 721.77,-349.92"/>
</g>
<!-- Node3 -->
<g id="node3" class="node">
<title>Node3</title>
<g id="a_node3"><a xlink:title=" ">
<polygon fill="white" stroke="#bfbfbf" points="140,-837.5 140,-916.5 322,-916.5 322,-837.5 140,-837.5"/>
<text text-anchor="start" x="148" y="-904.5" font-family="Helvetica,sans-Serif" font-size="10.00">boost::equality_comparable</text>
<text text-anchor="start" x="148" y="-893.5" font-family="Helvetica,sans-Serif" font-size="10.00">&lt; GeoEntity&lt; GEOSHAPE, double,</text>
<text text-anchor="middle" x="231" y="-882.5" font-family="Helvetica,sans-Serif" font-size="10.00"> uint32_type &gt; &gt;</text>
<polyline fill="none" stroke="#bfbfbf" points="140,-875.5 322,-875.5 "/>
<text text-anchor="middle" x="231" y="-863.5" font-family="Helvetica,sans-Serif" font-size="10.00"> </text>
<polyline fill="none" stroke="#bfbfbf" points="140,-856.5 322,-856.5 "/>
<text text-anchor="middle" x="231" y="-844.5" font-family="Helvetica,sans-Serif" font-size="10.00"> </text>
</a>
</g>
</g>
<!-- Node3&#45;&gt;Node2 -->
<g id="edge2" class="edge">
<title>Node3&#45;&gt;Node2</title>
<path fill="none" stroke="#8b1a1a" d="M274.72,-829.55C335.84,-764.61 448.37,-645.04 528.99,-559.39"/>
<polygon fill="none" stroke="#8b1a1a" points="271.83,-827.51 267.53,-837.19 276.93,-832.31 271.83,-827.51"/>
</g>
<!-- Node4 -->
<g id="node4" class="node">
<title>Node4</title>
<g id="a_node4"><a xlink:title=" ">
<polygon fill="white" stroke="#bfbfbf" points="340,-837.5 340,-916.5 522,-916.5 522,-837.5 340,-837.5"/>
<text text-anchor="start" x="348" y="-904.5" font-family="Helvetica,sans-Serif" font-size="10.00">boost::less_than_comparable</text>
<text text-anchor="start" x="348" y="-893.5" font-family="Helvetica,sans-Serif" font-size="10.00">&lt; GeoEntity&lt; GEOSHAPE, double,</text>
<text text-anchor="middle" x="431" y="-882.5" font-family="Helvetica,sans-Serif" font-size="10.00"> uint32_type &gt; &gt;</text>
<polyline fill="none" stroke="#bfbfbf" points="340,-875.5 522,-875.5 "/>
<text text-anchor="middle" x="431" y="-863.5" font-family="Helvetica,sans-Serif" font-size="10.00"> </text>
<polyline fill="none" stroke="#bfbfbf" points="340,-856.5 522,-856.5 "/>
<text text-anchor="middle" x="431" y="-844.5" font-family="Helvetica,sans-Serif" font-size="10.00"> </text>
</a>
</g>
</g>
<!-- Node4&#45;&gt;Node2 -->
<g id="edge3" class="edge">
<title>Node4&#45;&gt;Node2</title>
<path fill="none" stroke="#8b1a1a" d="M453.12,-828.01C472,-787.06 500.51,-725.22 528.81,-663.83"/>
<polygon fill="none" stroke="#8b1a1a" points="449.9,-826.64 448.89,-837.19 456.26,-829.57 449.9,-826.64"/>
</g>
<!-- Node5 -->
<g id="node5" class="node">
<title>Node5</title>
<g id="a_node5"><a xlink:title=" ">
<polygon fill="white" stroke="#bfbfbf" points="596,-837.5 596,-916.5 778,-916.5 778,-837.5 596,-837.5"/>
<text text-anchor="start" x="604" y="-904.5" font-family="Helvetica,sans-Serif" font-size="10.00">boost::less_than_comparable</text>
<text text-anchor="start" x="604" y="-893.5" font-family="Helvetica,sans-Serif" font-size="10.00">&lt; GeoEntity&lt; GEOSHAPE, double,</text>
<text text-anchor="middle" x="687" y="-882.5" font-family="Helvetica,sans-Serif" font-size="10.00"> uint32_type &gt;, uint32_type &gt;</text>
<polyline fill="none" stroke="#bfbfbf" points="596,-875.5 778,-875.5 "/>
<text text-anchor="middle" x="687" y="-863.5" font-family="Helvetica,sans-Serif" font-size="10.00"> </text>
<polyline fill="none" stroke="#bfbfbf" points="596,-856.5 778,-856.5 "/>
<text text-anchor="middle" x="687" y="-844.5" font-family="Helvetica,sans-Serif" font-size="10.00"> </text>
</a>
</g>
</g>
<!-- Node5&#45;&gt;Node2 -->
<g id="edge4" class="edge">
<title>Node5&#45;&gt;Node2</title>
<path fill="none" stroke="#8b1a1a" d="M679.49,-827.11C673.74,-789.7 665.37,-735.26 656.83,-679.67"/>
<polygon fill="none" stroke="#8b1a1a" points="676.06,-827.84 681.04,-837.19 682.98,-826.78 676.06,-827.84"/>
</g>
<!-- Node6 -->
<g id="node6" class="node">
<title>Node6</title>
<g id="a_node6"><a xlink:title=" ">
<polygon fill="white" stroke="#bfbfbf" points="796,-848.5 796,-905.5 866,-905.5 866,-848.5 796,-848.5"/>
<text text-anchor="middle" x="831" y="-893.5" font-family="Helvetica,sans-Serif" font-size="10.00">GEOSHAPE</text>
<polyline fill="none" stroke="#bfbfbf" points="796,-886.5 866,-886.5 "/>
<text text-anchor="middle" x="831" y="-874.5" font-family="Helvetica,sans-Serif" font-size="10.00"> </text>
<polyline fill="none" stroke="#bfbfbf" points="796,-867.5 866,-867.5 "/>
<text text-anchor="middle" x="831" y="-855.5" font-family="Helvetica,sans-Serif" font-size="10.00"> </text>
</a>
</g>
</g>
<!-- Node6&#45;&gt;Node2 -->
<g id="edge5" class="edge">
<title>Node6&#45;&gt;Node2</title>
<path fill="none" stroke="midnightblue" d="M791.79,-841.23C778.69,-829.59 767.29,-819.41 767,-819 737.45,-776.9 712.7,-727.86 692.52,-679.79"/>
<polygon fill="none" stroke="midnightblue" points="789.83,-844.17 799.63,-848.2 794.48,-838.94 789.83,-844.17"/>
</g>
<!-- Node7 -->
<g id="node7" class="node">
<title>Node7</title>
<g id="a_node7"><a xlink:title=" ">
<polygon fill="white" stroke="#bfbfbf" points="0,-848.5 0,-905.5 122,-905.5 122,-848.5 0,-848.5"/>
<text text-anchor="middle" x="61" y="-893.5" font-family="Helvetica,sans-Serif" font-size="10.00">static const size_type</text>
<polyline fill="none" stroke="#bfbfbf" points="0,-886.5 122,-886.5 "/>
<text text-anchor="middle" x="61" y="-874.5" font-family="Helvetica,sans-Serif" font-size="10.00"> </text>
<polyline fill="none" stroke="#bfbfbf" points="0,-867.5 122,-867.5 "/>
<text text-anchor="middle" x="61" y="-855.5" font-family="Helvetica,sans-Serif" font-size="10.00"> </text>
</a>
</g>
</g>
<!-- Node7&#45;&gt;Node1 -->
<g id="edge10" class="edge">
<title>Node7&#45;&gt;Node1</title>
<path fill="none" stroke="#404040" d="M63.82,-848.48C68.36,-812.37 79.41,-747.73 104,-698 220.97,-461.51 257.57,-381.98 478,-237 610.23,-150.03 792.17,-112.23 907.43,-96.21"/>
<polygon fill="none" stroke="#404040" points="907.52,-96.2 912.93,-91.43 919.41,-94.59 914,-99.36 907.52,-96.2"/>
<text text-anchor="middle" x="499" y="-456" font-family="Helvetica,sans-Serif" font-size="10.00"> +Shape</text>
</g>
<!-- Node7&#45;&gt;Node2 -->
<g id="edge6" class="edge">
<title>Node7&#45;&gt;Node2</title>
<path fill="none" stroke="#404040" d="M81.89,-848.35C110.84,-811.21 166.05,-744.53 223,-698 315.22,-622.65 433.74,-555.05 517.76,-511.23"/>
<polygon fill="none" stroke="#404040" points="517.96,-511.13 521.44,-504.82 528.61,-505.61 525.12,-511.92 517.96,-511.13"/>
<text text-anchor="middle" x="253.5" y="-761.5" font-family="Helvetica,sans-Serif" font-size="10.00"> +Geometry</text>
<text text-anchor="middle" x="253.5" y="-750.5" font-family="Helvetica,sans-Serif" font-size="10.00">+Shape</text>
</g>
<!-- Node8 -->
<g id="node8" class="node">
<title>Node8</title>
<g id="a_node8"><a xlink:title=" ">
<polygon fill="white" stroke="#bfbfbf" points="884,-848.5 884,-905.5 1018,-905.5 1018,-848.5 884,-848.5"/>
<text text-anchor="middle" x="951" y="-893.5" font-family="Helvetica,sans-Serif" font-size="10.00">static const uint16_type</text>
<polyline fill="none" stroke="#bfbfbf" points="884,-886.5 1018,-886.5 "/>
<text text-anchor="middle" x="951" y="-874.5" font-family="Helvetica,sans-Serif" font-size="10.00"> </text>
<polyline fill="none" stroke="#bfbfbf" points="884,-867.5 1018,-867.5 "/>
<text text-anchor="middle" x="951" y="-855.5" font-family="Helvetica,sans-Serif" font-size="10.00"> </text>
</a>
</g>
</g>
<!-- Node8&#45;&gt;Node1 -->
<g id="edge11" class="edge">
<title>Node8&#45;&gt;Node1</title>
<path fill="none" stroke="#404040" d="M943.35,-848.46C919.64,-758.34 852.87,-465.01 920,-237 925.96,-216.76 935.54,-196.68 946.43,-178.06"/>
<polygon fill="none" stroke="#404040" points="946.57,-177.84 946.26,-170.63 952.79,-167.58 953.1,-174.78 946.57,-177.84"/>
<text text-anchor="middle" x="968" y="-500" font-family="Helvetica,sans-Serif" font-size="10.00"> +nDim</text>
<text text-anchor="middle" x="968" y="-489" font-family="Helvetica,sans-Serif" font-size="10.00">+nOrder</text>
<text text-anchor="middle" x="968" y="-478" font-family="Helvetica,sans-Serif" font-size="10.00">+nRealDim</text>
<text text-anchor="middle" x="968" y="-467" font-family="Helvetica,sans-Serif" font-size="10.00">+numLocalEdges</text>
<text text-anchor="middle" x="968" y="-456" font-family="Helvetica,sans-Serif" font-size="10.00">+numLocalPoints</text>
<text text-anchor="middle" x="968" y="-445" font-family="Helvetica,sans-Serif" font-size="10.00">+numLocalVertices</text>
<text text-anchor="middle" x="968" y="-434" font-family="Helvetica,sans-Serif" font-size="10.00">+numNeighbors</text>
<text text-anchor="middle" x="968" y="-423" font-family="Helvetica,sans-Serif" font-size="10.00">+numPoints</text>
<text text-anchor="middle" x="968" y="-412" font-family="Helvetica,sans-Serif" font-size="10.00">+numVertices</text>
</g>
<!-- Node8&#45;&gt;Node2 -->
<g id="edge7" class="edge">
<title>Node8&#45;&gt;Node2</title>
<path fill="none" stroke="#404040" d="M901.99,-848.4C893.18,-844.16 883.95,-840.15 875,-837 837.34,-823.76 816.74,-845.63 787,-819 744.91,-781.3 769.86,-750.1 748,-698 740.18,-679.36 731.43,-660.2 722.29,-641.25"/>
<polygon fill="none" stroke="#404040" points="722.28,-641.22 716.06,-637.57 717.03,-630.43 723.25,-634.07 722.28,-641.22"/>
<text text-anchor="middle" x="841.5" y="-811" font-family="Helvetica,sans-Serif" font-size="10.00"> +nDim</text>
<text text-anchor="middle" x="841.5" y="-800" font-family="Helvetica,sans-Serif" font-size="10.00">+nOrder</text>
<text text-anchor="middle" x="841.5" y="-789" font-family="Helvetica,sans-Serif" font-size="10.00">+nRealDim</text>
<text text-anchor="middle" x="841.5" y="-778" font-family="Helvetica,sans-Serif" font-size="10.00">+nbPtsPerEdge</text>
<text text-anchor="middle" x="841.5" y="-767" font-family="Helvetica,sans-Serif" font-size="10.00">+nbPtsPerFace</text>
<text text-anchor="middle" x="841.5" y="-756" font-family="Helvetica,sans-Serif" font-size="10.00">+nbPtsPerVertex</text>
<text text-anchor="middle" x="841.5" y="-745" font-family="Helvetica,sans-Serif" font-size="10.00">+nbPtsPerVolume</text>
<text text-anchor="middle" x="841.5" y="-734" font-family="Helvetica,sans-Serif" font-size="10.00">+numEdges</text>
<text text-anchor="middle" x="841.5" y="-723" font-family="Helvetica,sans-Serif" font-size="10.00">+numFaces</text>
<text text-anchor="middle" x="841.5" y="-712" font-family="Helvetica,sans-Serif" font-size="10.00">+numGeometricFaces</text>
<text text-anchor="middle" x="841.5" y="-701" font-family="Helvetica,sans-Serif" font-size="10.00">...</text>
</g>
<!-- Node9 -->
<g id="node9" class="node">
<title>Node9</title>
<g id="a_node9"><a xlink:href="classbool.html" target="_top" xlink:title=" ">
<polygon fill="white" stroke="#bfbfbf" points="540,-848.5 540,-905.5 578,-905.5 578,-848.5 540,-848.5"/>
<text text-anchor="middle" x="559" y="-893.5" font-family="Helvetica,sans-Serif" font-size="10.00">bool</text>
<polyline fill="none" stroke="#bfbfbf" points="540,-886.5 578,-886.5 "/>
<text text-anchor="middle" x="559" y="-874.5" font-family="Helvetica,sans-Serif" font-size="10.00"> </text>
<polyline fill="none" stroke="#bfbfbf" points="540,-867.5 578,-867.5 "/>
<text text-anchor="middle" x="559" y="-855.5" font-family="Helvetica,sans-Serif" font-size="10.00"> </text>
</a>
</g>
</g>
<!-- Node9&#45;&gt;Node2 -->
<g id="edge8" class="edge">
<title>Node9&#45;&gt;Node2</title>
<path fill="none" stroke="#404040" d="M561.96,-848.5C565.82,-813.47 573.05,-751.12 581,-698 581.31,-695.93 581.62,-693.85 581.94,-691.75"/>
<polygon fill="none" stroke="#404040" points="581.97,-691.56 578.93,-685.02 583.8,-679.69 586.84,-686.23 581.97,-691.56"/>
<text text-anchor="middle" x="619" y="-761.5" font-family="Helvetica,sans-Serif" font-size="10.00"> +is_hypercube</text>
<text text-anchor="middle" x="619" y="-750.5" font-family="Helvetica,sans-Serif" font-size="10.00">+is_simplex</text>
</g>
<!-- Node10 -->
<g id="node10" class="node">
<title>Node10</title>
<g id="a_node10"><a xlink:href="classmpl_1_1if___3_01mpl_1_1bool___3_01false_01_4_00_01mpl_1_1identity_3_01GeoNDMeasuresStorage_1b4a2037756985fd616e6afd271a4aef.html" target="_top" xlink:title=" ">
<polygon fill="white" stroke="#bfbfbf" points="1024.5,-402.5 1024.5,-514.5 1229.5,-514.5 1229.5,-402.5 1024.5,-402.5"/>
<text text-anchor="start" x="1032.5" y="-502.5" font-family="Helvetica,sans-Serif" font-size="10.00">mpl::if_&lt; mpl::bool</text>
<text text-anchor="start" x="1032.5" y="-491.5" font-family="Helvetica,sans-Serif" font-size="10.00">_&lt; false &gt;, mpl::identity</text>
<text text-anchor="start" x="1032.5" y="-480.5" font-family="Helvetica,sans-Serif" font-size="10.00">&lt; GeoNDMeasuresStorage&lt;</text>
<text text-anchor="start" x="1032.5" y="-469.5" font-family="Helvetica,sans-Serif" font-size="10.00"> double &gt; &gt;, mpl::identity</text>
<text text-anchor="start" x="1032.5" y="-458.5" font-family="Helvetica,sans-Serif" font-size="10.00">&lt; GeoNDNoMeasuresStorage&lt; double</text>
<text text-anchor="middle" x="1127" y="-447.5" font-family="Helvetica,sans-Serif" font-size="10.00"> &gt; &gt; &gt;::type::type</text>
<polyline fill="none" stroke="#bfbfbf" points="1024.5,-440.5 1229.5,-440.5 "/>
<text text-anchor="middle" x="1127" y="-428.5" font-family="Helvetica,sans-Serif" font-size="10.00"> </text>
<polyline fill="none" stroke="#bfbfbf" points="1024.5,-421.5 1229.5,-421.5 "/>
<text text-anchor="middle" x="1127" y="-409.5" font-family="Helvetica,sans-Serif" font-size="10.00"> </text>
</a>
</g>
</g>
<!-- Node10&#45;&gt;Node1 -->
<g id="edge9" class="edge">
<title>Node10&#45;&gt;Node1</title>
<path fill="none" stroke="midnightblue" d="M1107.95,-392.39C1089.67,-329.92 1061.99,-235.33 1042.17,-167.58"/>
<polygon fill="none" stroke="midnightblue" points="1104.63,-393.52 1110.8,-402.14 1111.35,-391.55 1104.63,-393.52"/>
</g>
<!-- Node11 -->
<g id="node11" class="node">
<title>Node11</title>
<g id="a_node11"><a xlink:href="classint.html" target="_top" xlink:title=" ">
<polygon fill="white" stroke="#bfbfbf" points="1247.5,-430 1247.5,-487 1276.5,-487 1276.5,-430 1247.5,-430"/>
<text text-anchor="middle" x="1262" y="-475" font-family="Helvetica,sans-Serif" font-size="10.00">int</text>
<polyline fill="none" stroke="#bfbfbf" points="1247.5,-468 1276.5,-468 "/>
<text text-anchor="middle" x="1262" y="-456" font-family="Helvetica,sans-Serif" font-size="10.00"> </text>
<polyline fill="none" stroke="#bfbfbf" points="1247.5,-449 1276.5,-449 "/>
<text text-anchor="middle" x="1262" y="-437" font-family="Helvetica,sans-Serif" font-size="10.00"> </text>
</a>
</g>
</g>
<!-- Node11&#45;&gt;Node1 -->
<g id="edge12" class="edge">
<title>Node11&#45;&gt;Node1</title>
<path fill="none" stroke="#404040" d="M1265.94,-429.79C1270.78,-385.62 1274.36,-298.03 1238,-237 1212.21,-193.71 1168.73,-159.8 1127.21,-135.1"/>
<polygon fill="none" stroke="#404040" points="1127.09,-135.03 1119.89,-135.49 1116.71,-129.02 1123.9,-128.57 1127.09,-135.03"/>
<text text-anchor="middle" x="1277.5" y="-211" font-family="Helvetica,sans-Serif" font-size="10.00"> +numEdges</text>
<text text-anchor="middle" x="1277.5" y="-200" font-family="Helvetica,sans-Serif" font-size="10.00">+numFaces</text>
<text text-anchor="middle" x="1277.5" y="-189" font-family="Helvetica,sans-Serif" font-size="10.00">+numTopologicalFaces</text>
</g>
<!-- Node12 -->
<g id="node12" class="node">
<title>Node12</title>
<g id="a_node12"><a xlink:title=" ">
<polygon fill="white" stroke="#bfbfbf" points="1307.5,-430 1307.5,-487 1462.5,-487 1462.5,-430 1307.5,-430"/>
<text text-anchor="middle" x="1385" y="-475" font-family="Helvetica,sans-Serif" font-size="10.00">static constexpr uint16_type</text>
<polyline fill="none" stroke="#bfbfbf" points="1307.5,-468 1462.5,-468 "/>
<text text-anchor="middle" x="1385" y="-456" font-family="Helvetica,sans-Serif" font-size="10.00"> </text>
<polyline fill="none" stroke="#bfbfbf" points="1307.5,-449 1462.5,-449 "/>
<text text-anchor="middle" x="1385" y="-437" font-family="Helvetica,sans-Serif" font-size="10.00"> </text>
</a>
</g>
</g>
<!-- Node12&#45;&gt;Node1 -->
<g id="edge13" class="edge">
<title>Node12&#45;&gt;Node1</title>
<path fill="none" stroke="#404040" d="M1388.81,-429.74C1394.57,-375.76 1399.07,-255.88 1338,-186 1285.9,-126.39 1198.95,-101.61 1128.82,-91.47"/>
<polygon fill="none" stroke="#404040" points="1128.72,-91.46 1122.24,-94.62 1116.83,-89.86 1123.31,-86.69 1128.72,-91.46"/>
<text text-anchor="middle" x="1407.5" y="-200" font-family="Helvetica,sans-Serif" font-size="10.00"> +meas_quad_order</text>
</g>
</g>
</svg>
        <g id="navigator" transform="translate(0 0)" fill="#404254">
                <rect fill="#f2f5e9" fill-opacity="0.5" stroke="#606060" stroke-width=".5" x="0" y="0" width="60" height="60"/>
                <use id="zoomplus" xlink:href="#zoomPlus" x="17" y="9" onmousedown="handleZoom(evt,'in')"/>
                <use id="zoomminus" xlink:href="#zoomMin" x="42" y="9" onmousedown="handleZoom(evt,'out')"/>
                <use id="reset" xlink:href="#resetDef" x="30" y="36" onmousedown="handleReset()"/>
                <g id="arrowUp" xlink:href="#dirArrow" transform="translate(30 24)" onmousedown="handlePan(0,-1)">
                  <use xlink:href="#rim" fill="#404040">
                        <set attributeName="fill" to="#808080" begin="arrowUp.mouseover" end="arrowUp.mouseout"/>
                  </use>
                  <path fill="none" stroke="white" stroke-width="1.5" d="M0,-3.0v7 M-2.5,-0.5L0,-3.0L2.5,-0.5"/>
                </g>
                <g id="arrowRight" xlink:href="#dirArrow" transform="rotate(90) translate(36 -43)" onmousedown="handlePan(1,0)">
                  <use xlink:href="#rim" fill="#404040">
                        <set attributeName="fill" to="#808080" begin="arrowRight.mouseover" end="arrowRight.mouseout"/>
                  </use>
                  <path fill="none" stroke="white" stroke-width="1.5" d="M0,-3.0v7 M-2.5,-0.5L0,-3.0L2.5,-0.5"/>
                </g>
                <g id="arrowDown" xlink:href="#dirArrow" transform="rotate(180) translate(-30 -48)" onmousedown="handlePan(0,1)">
                  <use xlink:href="#rim" fill="#404040">
                        <set attributeName="fill" to="#808080" begin="arrowDown.mouseover" end="arrowDown.mouseout"/>
                  </use>
                  <path fill="none" stroke="white" stroke-width="1.5" d="M0,-3.0v7 M-2.5,-0.5L0,-3.0L2.5,-0.5"/>
                </g>
                <g id="arrowLeft" xlink:href="#dirArrow" transform="rotate(270) translate(-36 17)" onmousedown="handlePan(-1,0)">
                  <use xlink:href="#rim" fill="#404040">
                        <set attributeName="fill" to="#808080" begin="arrowLeft.mouseover" end="arrowLeft.mouseout"/>
                  </use>
                  <path fill="none" stroke="white" stroke-width="1.5" d="M0,-3.0v7 M-2.5,-0.5L0,-3.0L2.5,-0.5"/>
                </g>
        </g>
        <svg viewBox="0 0 15 15" width="100%" height="30px" preserveAspectRatio="xMaxYMin meet">
         <g id="arrow_out" transform="scale(0.3 0.3)">
          <a xlink:href="classFeel_1_1GeoND__coll__graph_org.svg" target="_base">
           <rect id="button" ry="5" rx="5" y="6" x="6" height="38" width="38"
                fill="#f2f5e9" fill-opacity="0.5" stroke="#606060" stroke-width="1.0"/>
           <path id="arrow"
             d="M 11.500037,31.436501 C 11.940474,20.09759 22.043105,11.32322 32.158766,21.979434 L 37.068811,17.246167 C 37.068811,17.246167 37.088388,32 37.088388,32 L 22.160133,31.978069 C 22.160133,31.978069 26.997745,27.140456 26.997745,27.140456 C 18.528582,18.264221 13.291696,25.230495 11.500037,31.436501 z"
             style="fill:#404040;"/>
          </a>
         </g>
        </svg>
</svg>
