<?xml version="1.0" encoding="UTF-8" standalone="no"?>
<!DOCTYPE svg PUBLIC "-//W3C//DTD SVG 1.1//EN"
 "http://www.w3.org/Graphics/SVG/1.1/DTD/svg11.dtd">
<!-- Generated by graphviz version 2.43.0 (0)
 -->
<!-- Title: Feel::Hypercube&lt; Dim, Order, RDim &gt; Pages: 1 -->
<!--zoomable 570 -->
<svg id="main" version="1.1" xmlns="http://www.w3.org/2000/svg" xmlns:xlink="http://www.w3.org/1999/xlink" xml:space="preserve" onload="init(evt)">
<style type="text/css"><![CDATA[
.edge:hover path { stroke: red; }
.edge:hover polygon { stroke: red; fill: red; }
]]></style>
<script type="text/javascript"><![CDATA[
var edges = document.getElementsByTagName('g');
if (edges && edges.length) {
  for (var i=0;i<edges.length;i++) {
    if (edges[i].id.substr(0,4)=='edge') {
      edges[i].setAttribute('class','edge');
    }
  }
}
]]></script>
        <defs>
                <circle id="rim" cx="0" cy="0" r="7"/>
                <circle id="rim2" cx="0" cy="0" r="3.5"/>
                <g id="zoomPlus">
                        <use xlink:href="#rim" fill="#404040">
                                <set attributeName="fill" to="#808080" begin="zoomplus.mouseover" end="zoomplus.mouseout"/>
                        </use>
                        <path d="M-4,0h8M0,-4v8" fill="none" stroke="white" stroke-width="1.5" pointer-events="none"/>
                </g>
                <g id="zoomMin">
                        <use xlink:href="#rim" fill="#404040">
                                <set attributeName="fill" to="#808080" begin="zoomminus.mouseover" end="zoomminus.mouseout"/>
                        </use>
                        <path d="M-4,0h8" fill="none" stroke="white" stroke-width="1.5" pointer-events="none"/>
                </g>
                <g id="dirArrow">
                        <path fill="none" stroke="white" stroke-width="1.5" d="M0,-3.0v7 M-2.5,-0.5L0,-3.0L2.5,-0.5"/>
                </g>
               <g id="resetDef">
                       <use xlink:href="#rim2" fill="#404040">
                               <set attributeName="fill" to="#808080" begin="reset.mouseover" end="reset.mouseout"/>
                       </use>
               </g>
        </defs>

<script type="text/javascript">
var viewWidth = 550;
var viewHeight = 570;
var sectionId = 'dynsection-1';
</script>
<script xlink:href="svgpan.js"/>
<svg id="graph" class="graph">
<g id="viewport">
<title>Feel::Hypercube&lt; Dim, Order, RDim &gt;</title>
<polygon fill="white" stroke="transparent" points="-4,4 -4,-566 546,-566 546,4 -4,4"/>
<!-- Node1 -->
<g id="node1" class="node">
<title>Node1</title>
<g id="a_node1"><a xlink:title=" ">
<polygon fill="#bfbfbf" stroke="black" points="285.5,-0.5 285.5,-255.5 410.5,-255.5 410.5,-0.5 285.5,-0.5"/>
<text text-anchor="start" x="293.5" y="-243.5" font-family="Helvetica,sans-Serif" font-size="10.00">Feel::Hypercube&lt; Dim,</text>
<text text-anchor="middle" x="348" y="-232.5" font-family="Helvetica,sans-Serif" font-size="10.00"> Order, RDim &gt;</text>
<polyline fill="none" stroke="black" points="285.5,-225.5 410.5,-225.5 "/>
<text text-anchor="start" x="293.5" y="-213.5" font-family="Helvetica,sans-Serif" font-size="10.00">+ numNormals</text>
<text text-anchor="start" x="293.5" y="-202.5" font-family="Helvetica,sans-Serif" font-size="10.00">+ numPoints</text>
<text text-anchor="start" x="293.5" y="-191.5" font-family="Helvetica,sans-Serif" font-size="10.00">+ numTopologicalFaces</text>
<text text-anchor="start" x="293.5" y="-180.5" font-family="Helvetica,sans-Serif" font-size="10.00">+ numVertices</text>
<text text-anchor="start" x="293.5" y="-169.5" font-family="Helvetica,sans-Serif" font-size="10.00">+ numVolumes</text>
<text text-anchor="start" x="293.5" y="-158.5" font-family="Helvetica,sans-Serif" font-size="10.00">and 3 more...</text>
<polyline fill="none" stroke="black" points="285.5,-151.5 410.5,-151.5 "/>
<text text-anchor="start" x="293.5" y="-139.5" font-family="Helvetica,sans-Serif" font-size="10.00">+ dimension()</text>
<text text-anchor="start" x="293.5" y="-128.5" font-family="Helvetica,sans-Serif" font-size="10.00">+ Hypercube()</text>
<text text-anchor="start" x="293.5" y="-117.5" font-family="Helvetica,sans-Serif" font-size="10.00">+ Hypercube()</text>
<text text-anchor="start" x="293.5" y="-106.5" font-family="Helvetica,sans-Serif" font-size="10.00">+ Hypercube()</text>
<text text-anchor="start" x="293.5" y="-95.5" font-family="Helvetica,sans-Serif" font-size="10.00">+ operator=()</text>
<text text-anchor="start" x="293.5" y="-84.5" font-family="Helvetica,sans-Serif" font-size="10.00">+ operator=()</text>
<text text-anchor="start" x="293.5" y="-73.5" font-family="Helvetica,sans-Serif" font-size="10.00">+ topologicalDimension()</text>
<text text-anchor="start" x="293.5" y="-62.5" font-family="Helvetica,sans-Serif" font-size="10.00">+ e2p()</text>
<text text-anchor="start" x="293.5" y="-51.5" font-family="Helvetica,sans-Serif" font-size="10.00">+ f2e()</text>
<text text-anchor="start" x="293.5" y="-40.5" font-family="Helvetica,sans-Serif" font-size="10.00">+ f2p()</text>
<text text-anchor="start" x="293.5" y="-29.5" font-family="Helvetica,sans-Serif" font-size="10.00">+ name()</text>
<text text-anchor="start" x="293.5" y="-18.5" font-family="Helvetica,sans-Serif" font-size="10.00">+ nPointsOnEdge()</text>
<text text-anchor="start" x="293.5" y="-7.5" font-family="Helvetica,sans-Serif" font-size="10.00">and 5 more...</text>
</a>
</g>
</g>
<!-- Node2 -->
<g id="node2" class="node">
<title>Node2</title>
<g id="a_node2"><a xlink:href="classFeel_1_1Convex.html" target="_top" xlink:title=" ">
<polygon fill="white" stroke="black" points="35.5,-324 35.5,-425 140.5,-425 140.5,-324 35.5,-324"/>
<text text-anchor="start" x="43.5" y="-413" font-family="Helvetica,sans-Serif" font-size="10.00">Feel::Convex&lt; Dim,</text>
<text text-anchor="middle" x="88" y="-402" font-family="Helvetica,sans-Serif" font-size="10.00"> 1, Dim &gt;</text>
<polyline fill="none" stroke="black" points="35.5,-395 140.5,-395 "/>
<text text-anchor="middle" x="88" y="-383" font-family="Helvetica,sans-Serif" font-size="10.00"> </text>
<polyline fill="none" stroke="black" points="35.5,-376 140.5,-376 "/>
<text text-anchor="start" x="43.5" y="-364" font-family="Helvetica,sans-Serif" font-size="10.00">* Convex()</text>
<text text-anchor="start" x="43.5" y="-353" font-family="Helvetica,sans-Serif" font-size="10.00">* Convex()</text>
<text text-anchor="start" x="43.5" y="-342" font-family="Helvetica,sans-Serif" font-size="10.00">* ~Convex()</text>
<text text-anchor="start" x="43.5" y="-331" font-family="Helvetica,sans-Serif" font-size="10.00">* operator=()</text>
</a>
</g>
</g>
<!-- Node2&#45;&gt;Node1 -->
<g id="edge1" class="edge">
<title>Node2&#45;&gt;Node1</title>
<path fill="none" stroke="midnightblue" d="M127.66,-315.59C138.44,-301.39 150.59,-286.65 163,-274 200.3,-235.99 247.65,-199.05 285.1,-171.97"/>
<polygon fill="none" stroke="midnightblue" points="124.65,-313.76 121.47,-323.87 130.26,-317.95 124.65,-313.76"/>
</g>
<!-- Node3 -->
<g id="node3" class="node">
<title>Node3</title>
<g id="a_node3"><a xlink:href="classFeel_1_1ConvexBase.html" target="_top" xlink:title=" ">
<polygon fill="white" stroke="#bfbfbf" points="0,-504.5 0,-561.5 98,-561.5 98,-504.5 0,-504.5"/>
<text text-anchor="middle" x="49" y="-549.5" font-family="Helvetica,sans-Serif" font-size="10.00">Feel::ConvexBase</text>
<polyline fill="none" stroke="#bfbfbf" points="0,-542.5 98,-542.5 "/>
<text text-anchor="middle" x="49" y="-530.5" font-family="Helvetica,sans-Serif" font-size="10.00"> </text>
<polyline fill="none" stroke="#bfbfbf" points="0,-523.5 98,-523.5 "/>
<text text-anchor="middle" x="49" y="-511.5" font-family="Helvetica,sans-Serif" font-size="10.00"> </text>
</a>
</g>
</g>
<!-- Node3&#45;&gt;Node2 -->
<g id="edge2" class="edge">
<title>Node3&#45;&gt;Node2</title>
<path fill="none" stroke="midnightblue" d="M58.31,-494.66C63.48,-473.89 69.99,-447.77 75.59,-425.29"/>
<polygon fill="none" stroke="midnightblue" points="54.9,-493.83 55.88,-504.38 61.7,-495.52 54.9,-493.83"/>
</g>
<!-- Node4 -->
<g id="node4" class="node">
<title>Node4</title>
<g id="a_node4"><a xlink:title=" ">
<polygon fill="white" stroke="#bfbfbf" points="116.5,-504.5 116.5,-561.5 237.5,-561.5 237.5,-504.5 116.5,-504.5"/>
<text text-anchor="middle" x="177" y="-549.5" font-family="Helvetica,sans-Serif" font-size="10.00">static const uint16_type</text>
<polyline fill="none" stroke="#bfbfbf" points="116.5,-542.5 237.5,-542.5 "/>
<text text-anchor="middle" x="177" y="-530.5" font-family="Helvetica,sans-Serif" font-size="10.00"> </text>
<polyline fill="none" stroke="#bfbfbf" points="116.5,-523.5 237.5,-523.5 "/>
<text text-anchor="middle" x="177" y="-511.5" font-family="Helvetica,sans-Serif" font-size="10.00"> </text>
</a>
</g>
</g>
<!-- Node4&#45;&gt;Node1 -->
<g id="edge7" class="edge">
<title>Node4&#45;&gt;Node1</title>
<path fill="none" stroke="#404040" d="M172.64,-504.28C167.15,-461.65 161.29,-378.19 187,-314 206.04,-266.47 242.72,-222.77 276.26,-189.79"/>
<polygon fill="none" stroke="#404040" points="276.52,-189.54 278.07,-182.5 285.16,-181.21 283.62,-188.26 276.52,-189.54"/>
<text text-anchor="middle" x="235.5" y="-427" font-family="Helvetica,sans-Serif" font-size="10.00"> +nDim</text>
<text text-anchor="middle" x="235.5" y="-416" font-family="Helvetica,sans-Serif" font-size="10.00">+nOrder</text>
<text text-anchor="middle" x="235.5" y="-405" font-family="Helvetica,sans-Serif" font-size="10.00">+nRealDim</text>
<text text-anchor="middle" x="235.5" y="-394" font-family="Helvetica,sans-Serif" font-size="10.00">+nbPtsPerEdge</text>
<text text-anchor="middle" x="235.5" y="-383" font-family="Helvetica,sans-Serif" font-size="10.00">+nbPtsPerFace</text>
<text text-anchor="middle" x="235.5" y="-372" font-family="Helvetica,sans-Serif" font-size="10.00">+nbPtsPerVertex</text>
<text text-anchor="middle" x="235.5" y="-361" font-family="Helvetica,sans-Serif" font-size="10.00">+nbPtsPerVolume</text>
<text text-anchor="middle" x="235.5" y="-350" font-family="Helvetica,sans-Serif" font-size="10.00">+numEdges</text>
<text text-anchor="middle" x="235.5" y="-339" font-family="Helvetica,sans-Serif" font-size="10.00">+numFaces</text>
<text text-anchor="middle" x="235.5" y="-328" font-family="Helvetica,sans-Serif" font-size="10.00">+numGeometricFaces</text>
<text text-anchor="middle" x="235.5" y="-317" font-family="Helvetica,sans-Serif" font-size="10.00">...</text>
</g>
<!-- Node4&#45;&gt;Node2 -->
<g id="edge3" class="edge">
<title>Node4&#45;&gt;Node2</title>
<path fill="none" stroke="#404040" d="M129.87,-504.43C123.46,-499.01 117.53,-492.84 113,-486 103.43,-471.55 97.49,-453.96 93.8,-437.1"/>
<polygon fill="none" stroke="#404040" points="93.75,-436.79 88.7,-431.65 91.51,-425 96.56,-430.15 93.75,-436.79"/>
<text text-anchor="middle" x="138" y="-478" font-family="Helvetica,sans-Serif" font-size="10.00"> +nDim</text>
<text text-anchor="middle" x="138" y="-467" font-family="Helvetica,sans-Serif" font-size="10.00">+nOrder</text>
<text text-anchor="middle" x="138" y="-456" font-family="Helvetica,sans-Serif" font-size="10.00">+nRealDim</text>
</g>
<!-- Node5 -->
<g id="node5" class="node">
<title>Node5</title>
<g id="a_node5"><a xlink:href="classFeel_1_1HypercubeBase.html" target="_top" xlink:title=" ">
<polygon fill="white" stroke="#bfbfbf" points="292.5,-346 292.5,-403 403.5,-403 403.5,-346 292.5,-346"/>
<text text-anchor="middle" x="348" y="-391" font-family="Helvetica,sans-Serif" font-size="10.00">Feel::HypercubeBase</text>
<polyline fill="none" stroke="#bfbfbf" points="292.5,-384 403.5,-384 "/>
<text text-anchor="middle" x="348" y="-372" font-family="Helvetica,sans-Serif" font-size="10.00"> </text>
<polyline fill="none" stroke="#bfbfbf" points="292.5,-365 403.5,-365 "/>
<text text-anchor="middle" x="348" y="-353" font-family="Helvetica,sans-Serif" font-size="10.00"> </text>
</a>
</g>
</g>
<!-- Node5&#45;&gt;Node1 -->
<g id="edge4" class="edge">
<title>Node5&#45;&gt;Node1</title>
<path fill="none" stroke="#8b1a1a" d="M348,-335.79C348,-313.92 348,-284.99 348,-255.71"/>
<polygon fill="none" stroke="#8b1a1a" points="344.5,-335.93 348,-345.93 351.5,-335.93 344.5,-335.93"/>
</g>
<!-- Node6 -->
<g id="node6" class="node">
<title>Node6</title>
<g id="a_node6"><a xlink:href="classbool.html" target="_top" xlink:title=" ">
<polygon fill="white" stroke="#bfbfbf" points="421.5,-346 421.5,-403 456.5,-403 456.5,-346 421.5,-346"/>
<text text-anchor="middle" x="439" y="-391" font-family="Helvetica,sans-Serif" font-size="10.00">bool</text>
<polyline fill="none" stroke="#bfbfbf" points="421.5,-384 456.5,-384 "/>
<text text-anchor="middle" x="439" y="-372" font-family="Helvetica,sans-Serif" font-size="10.00"> </text>
<polyline fill="none" stroke="#bfbfbf" points="421.5,-365 456.5,-365 "/>
<text text-anchor="middle" x="439" y="-353" font-family="Helvetica,sans-Serif" font-size="10.00"> </text>
</a>
</g>
</g>
<!-- Node6&#45;&gt;Node1 -->
<g id="edge5" class="edge">
<title>Node6&#45;&gt;Node1</title>
<path fill="none" stroke="#404040" d="M428.74,-345.93C421.3,-325.94 410.62,-297.25 399.46,-267.25"/>
<polygon fill="none" stroke="#404040" points="399.34,-266.95 393.5,-262.72 395.16,-255.71 401,-259.93 399.34,-266.95"/>
<text text-anchor="middle" x="442.5" y="-288" font-family="Helvetica,sans-Serif" font-size="10.00"> +is_hypercube</text>
<text text-anchor="middle" x="442.5" y="-277" font-family="Helvetica,sans-Serif" font-size="10.00">+is_simplex</text>
</g>
<!-- Node7 -->
<g id="node7" class="node">
<title>Node7</title>
<g id="a_node7"><a xlink:href="classsize__t.html" target="_top" xlink:title=" ">
<polygon fill="white" stroke="#bfbfbf" points="490.5,-346 490.5,-403 533.5,-403 533.5,-346 490.5,-346"/>
<text text-anchor="middle" x="512" y="-391" font-family="Helvetica,sans-Serif" font-size="10.00">size_t</text>
<polyline fill="none" stroke="#bfbfbf" points="490.5,-384 533.5,-384 "/>
<text text-anchor="middle" x="512" y="-372" font-family="Helvetica,sans-Serif" font-size="10.00"> </text>
<polyline fill="none" stroke="#bfbfbf" points="490.5,-365 533.5,-365 "/>
<text text-anchor="middle" x="512" y="-353" font-family="Helvetica,sans-Serif" font-size="10.00"> </text>
</a>
</g>
</g>
<!-- Node7&#45;&gt;Node1 -->
<g id="edge6" class="edge">
<title>Node7&#45;&gt;Node1</title>
<path fill="none" stroke="#404040" d="M506.4,-345.58C501.46,-324.87 493,-296.46 480,-274 463.59,-245.66 440.87,-218.14 418.9,-194.83"/>
<polygon fill="none" stroke="#404040" points="418.84,-194.76 411.8,-193.2 410.53,-186.1 417.57,-187.66 418.84,-194.76"/>
<text text-anchor="middle" x="516" y="-288" font-family="Helvetica,sans-Serif" font-size="10.00"> +Geometry</text>
<text text-anchor="middle" x="516" y="-277" font-family="Helvetica,sans-Serif" font-size="10.00">+Shape</text>
</g>
</g>
</svg>
        <g id="navigator" transform="translate(0 0)" fill="#404254">
                <rect fill="#f2f5e9" fill-opacity="0.5" stroke="#606060" stroke-width=".5" x="0" y="0" width="60" height="60"/>
                <use id="zoomplus" xlink:href="#zoomPlus" x="17" y="9" onmousedown="handleZoom(evt,'in')"/>
                <use id="zoomminus" xlink:href="#zoomMin" x="42" y="9" onmousedown="handleZoom(evt,'out')"/>
                <use id="reset" xlink:href="#resetDef" x="30" y="36" onmousedown="handleReset()"/>
                <g id="arrowUp" xlink:href="#dirArrow" transform="translate(30 24)" onmousedown="handlePan(0,-1)">
                  <use xlink:href="#rim" fill="#404040">
                        <set attributeName="fill" to="#808080" begin="arrowUp.mouseover" end="arrowUp.mouseout"/>
                  </use>
                  <path fill="none" stroke="white" stroke-width="1.5" d="M0,-3.0v7 M-2.5,-0.5L0,-3.0L2.5,-0.5"/>
                </g>
                <g id="arrowRight" xlink:href="#dirArrow" transform="rotate(90) translate(36 -43)" onmousedown="handlePan(1,0)">
                  <use xlink:href="#rim" fill="#404040">
                        <set attributeName="fill" to="#808080" begin="arrowRight.mouseover" end="arrowRight.mouseout"/>
                  </use>
                  <path fill="none" stroke="white" stroke-width="1.5" d="M0,-3.0v7 M-2.5,-0.5L0,-3.0L2.5,-0.5"/>
                </g>
                <g id="arrowDown" xlink:href="#dirArrow" transform="rotate(180) translate(-30 -48)" onmousedown="handlePan(0,1)">
                  <use xlink:href="#rim" fill="#404040">
                        <set attributeName="fill" to="#808080" begin="arrowDown.mouseover" end="arrowDown.mouseout"/>
                  </use>
                  <path fill="none" stroke="white" stroke-width="1.5" d="M0,-3.0v7 M-2.5,-0.5L0,-3.0L2.5,-0.5"/>
                </g>
                <g id="arrowLeft" xlink:href="#dirArrow" transform="rotate(270) translate(-36 17)" onmousedown="handlePan(-1,0)">
                  <use xlink:href="#rim" fill="#404040">
                        <set attributeName="fill" to="#808080" begin="arrowLeft.mouseover" end="arrowLeft.mouseout"/>
                  </use>
                  <path fill="none" stroke="white" stroke-width="1.5" d="M0,-3.0v7 M-2.5,-0.5L0,-3.0L2.5,-0.5"/>
                </g>
        </g>
        <svg viewBox="0 0 15 15" width="100%" height="30px" preserveAspectRatio="xMaxYMin meet">
         <g id="arrow_out" transform="scale(0.3 0.3)">
          <a xlink:href="classFeel_1_1Hypercube__coll__graph_org.svg" target="_base">
           <rect id="button" ry="5" rx="5" y="6" x="6" height="38" width="38"
                fill="#f2f5e9" fill-opacity="0.5" stroke="#606060" stroke-width="1.0"/>
           <path id="arrow"
             d="M 11.500037,31.436501 C 11.940474,20.09759 22.043105,11.32322 32.158766,21.979434 L 37.068811,17.246167 C 37.068811,17.246167 37.088388,32 37.088388,32 L 22.160133,31.978069 C 22.160133,31.978069 26.997745,27.140456 26.997745,27.140456 C 18.528582,18.264221 13.291696,25.230495 11.500037,31.436501 z"
             style="fill:#404040;"/>
          </a>
         </g>
        </svg>
</svg>
