<?xml version="1.0" encoding="UTF-8" standalone="no"?>
<!DOCTYPE svg PUBLIC "-//W3C//DTD SVG 1.1//EN"
 "http://www.w3.org/Graphics/SVG/1.1/DTD/svg11.dtd">
<!-- Generated by graphviz version 2.43.0 (0)
 -->
<!-- Title: Feel::Parameter Pages: 1 -->
<svg width="128pt" height="425pt"
 viewBox="0.00 0.00 128.00 425.00" xmlns="http://www.w3.org/2000/svg" xmlns:xlink="http://www.w3.org/1999/xlink">
<g id="graph0" class="graph" transform="scale(1 1) rotate(0) translate(4 421)">
<title>Feel::Parameter</title>
<polygon fill="white" stroke="transparent" points="-4,4 -4,-421 124,-421 124,4 -4,4"/>
<!-- Node1 -->
<g id="node1" class="node">
<title>Node1</title>
<g id="a_node1"><a xlink:title="parameter class to describe code inputs">
<polygon fill="#bfbfbf" stroke="black" points="13.5,-210.5 13.5,-267.5 106.5,-267.5 106.5,-210.5 13.5,-210.5"/>
<text text-anchor="middle" x="60" y="-255.5" font-family="Helvetica,sans-Serif" font-size="10.00">Feel::Parameter</text>
<polyline fill="none" stroke="black" points="13.5,-248.5 106.5,-248.5 "/>
<text text-anchor="middle" x="60" y="-236.5" font-family="Helvetica,sans-Serif" font-size="10.00"> </text>
<polyline fill="none" stroke="black" points="13.5,-229.5 106.5,-229.5 "/>
<text text-anchor="start" x="21.5" y="-217.5" font-family="Helvetica,sans-Serif" font-size="10.00">+ Parameter()</text>
</a>
</g>
</g>
<!-- Node3 -->
<g id="node3" class="node">
<title>Node3</title>
<g id="a_node3"><a xlink:href="classFeel_1_1Output__impl.html" target="_top" xlink:title=" ">
<polygon fill="white" stroke="black" points="0,-94.5 0,-173.5 120,-173.5 120,-94.5 0,-94.5"/>
<text text-anchor="middle" x="60" y="-161.5" font-family="Helvetica,sans-Serif" font-size="10.00">Feel::Output_impl</text>
<polyline fill="none" stroke="black" points="0,-154.5 120,-154.5 "/>
<text text-anchor="middle" x="60" y="-142.5" font-family="Helvetica,sans-Serif" font-size="10.00"> </text>
<polyline fill="none" stroke="black" points="0,-135.5 120,-135.5 "/>
<text text-anchor="start" x="8" y="-123.5" font-family="Helvetica,sans-Serif" font-size="10.00">+ getDependencies()</text>
<text text-anchor="start" x="8" y="-112.5" font-family="Helvetica,sans-Serif" font-size="10.00">+ getFuncs()</text>
<text text-anchor="start" x="8" y="-101.5" font-family="Helvetica,sans-Serif" font-size="10.00">+ Output_impl()</text>
</a>
</g>
</g>
<!-- Node1&#45;&gt;Node3 -->
<g id="edge2" class="edge">
<title>Node1&#45;&gt;Node3</title>
<path fill="none" stroke="midnightblue" d="M60,-200.16C60,-191.47 60,-182.23 60,-173.52"/>
<polygon fill="none" stroke="midnightblue" points="56.5,-200.4 60,-210.4 63.5,-200.4 56.5,-200.4"/>
</g>
<!-- Node2 -->
<g id="node2" class="node">
<title>Node2</title>
<g id="a_node2"><a xlink:href="classFeel_1_1Parameter__impl.html" target="_top" xlink:title=" ">
<polygon fill="white" stroke="black" points="0,-304.5 0,-416.5 120,-416.5 120,-304.5 0,-304.5"/>
<text text-anchor="middle" x="60" y="-404.5" font-family="Helvetica,sans-Serif" font-size="10.00">Feel::Parameter_impl</text>
<polyline fill="none" stroke="black" points="0,-397.5 120,-397.5 "/>
<text text-anchor="middle" x="60" y="-385.5" font-family="Helvetica,sans-Serif" font-size="10.00"> </text>
<polyline fill="none" stroke="black" points="0,-378.5 120,-378.5 "/>
<text text-anchor="start" x="8" y="-366.5" font-family="Helvetica,sans-Serif" font-size="10.00">+ getAttrNames()</text>
<text text-anchor="start" x="8" y="-355.5" font-family="Helvetica,sans-Serif" font-size="10.00">+ getAttrValues()</text>
<text text-anchor="start" x="8" y="-344.5" font-family="Helvetica,sans-Serif" font-size="10.00">+ getName()</text>
<text text-anchor="start" x="8" y="-333.5" font-family="Helvetica,sans-Serif" font-size="10.00">+ getValues()</text>
<text text-anchor="start" x="8" y="-322.5" font-family="Helvetica,sans-Serif" font-size="10.00">+ Parameter_impl()</text>
<text text-anchor="start" x="8" y="-311.5" font-family="Helvetica,sans-Serif" font-size="10.00">+ Parameter_impl()</text>
</a>
</g>
</g>
<!-- Node2&#45;&gt;Node1 -->
<g id="edge1" class="edge">
<title>Node2&#45;&gt;Node1</title>
<path fill="none" stroke="midnightblue" d="M60,-294.15C60,-284.82 60,-275.67 60,-267.63"/>
<polygon fill="none" stroke="midnightblue" points="56.5,-294.3 60,-304.3 63.5,-294.3 56.5,-294.3"/>
</g>
<!-- Node4 -->
<g id="node4" class="node">
<title>Node4</title>
<g id="a_node4"><a xlink:href="classFeel_1_1Output.html" target="_top" xlink:title="output class to describe code outputs">
<polygon fill="white" stroke="black" points="22,-0.5 22,-57.5 98,-57.5 98,-0.5 22,-0.5"/>
<text text-anchor="middle" x="60" y="-45.5" font-family="Helvetica,sans-Serif" font-size="10.00">Feel::Output</text>
<polyline fill="none" stroke="black" points="22,-38.5 98,-38.5 "/>
<text text-anchor="middle" x="60" y="-26.5" font-family="Helvetica,sans-Serif" font-size="10.00"> </text>
<polyline fill="none" stroke="black" points="22,-19.5 98,-19.5 "/>
<text text-anchor="middle" x="60" y="-7.5" font-family="Helvetica,sans-Serif" font-size="10.00"> </text>
</a>
</g>
</g>
<!-- Node3&#45;&gt;Node4 -->
<g id="edge3" class="edge">
<title>Node3&#45;&gt;Node4</title>
<path fill="none" stroke="midnightblue" d="M60,-84.16C60,-75.04 60,-65.81 60,-57.61"/>
<polygon fill="none" stroke="midnightblue" points="56.5,-84.35 60,-94.35 63.5,-84.35 56.5,-84.35"/>
</g>
</g>
</svg>
