<?xml version="1.0" encoding="UTF-8" standalone="no"?>
<!DOCTYPE svg PUBLIC "-//W3C//DTD SVG 1.1//EN"
 "http://www.w3.org/Graphics/SVG/1.1/DTD/svg11.dtd">
<!-- Generated by graphviz version 2.43.0 (0)
 -->
<!-- Title: Feel::MeshSupport&lt; MeshType &gt; Pages: 1 -->
<svg width="186pt" height="292pt"
 viewBox="0.00 0.00 186.00 292.00" xmlns="http://www.w3.org/2000/svg" xmlns:xlink="http://www.w3.org/1999/xlink">
<g id="graph0" class="graph" transform="scale(1 1) rotate(0) translate(4 288)">
<title>Feel::MeshSupport&lt; MeshType &gt;</title>
<polygon fill="white" stroke="transparent" points="-4,4 -4,-288 182,-288 182,4 -4,4"/>
<!-- Node1 -->
<g id="node1" class="node">
<title>Node1</title>
<g id="a_node1"><a xlink:title="Description of a mesh support.">
<polygon fill="#bfbfbf" stroke="black" points="53.5,-0.5 53.5,-123.5 175.5,-123.5 175.5,-0.5 53.5,-0.5"/>
<text text-anchor="start" x="61.5" y="-111.5" font-family="Helvetica,sans-Serif" font-size="10.00">Feel::MeshSupport&lt;</text>
<text text-anchor="middle" x="114.5" y="-100.5" font-family="Helvetica,sans-Serif" font-size="10.00"> MeshType &gt;</text>
<polyline fill="none" stroke="black" points="53.5,-93.5 175.5,-93.5 "/>
<text text-anchor="middle" x="114.5" y="-81.5" font-family="Helvetica,sans-Serif" font-size="10.00"> </text>
<polyline fill="none" stroke="black" points="53.5,-74.5 175.5,-74.5 "/>
<text text-anchor="start" x="61.5" y="-62.5" font-family="Helvetica,sans-Serif" font-size="10.00">+ hasAnyMarker()</text>
<text text-anchor="start" x="61.5" y="-51.5" font-family="Helvetica,sans-Serif" font-size="10.00">+ hasElement()</text>
<text text-anchor="start" x="61.5" y="-40.5" font-family="Helvetica,sans-Serif" font-size="10.00">+ hasGhostElement()</text>
<text text-anchor="start" x="61.5" y="-29.5" font-family="Helvetica,sans-Serif" font-size="10.00">+ isFullSupport()</text>
<text text-anchor="start" x="61.5" y="-18.5" font-family="Helvetica,sans-Serif" font-size="10.00">+ isGhostFace()</text>
<text text-anchor="start" x="61.5" y="-7.5" font-family="Helvetica,sans-Serif" font-size="10.00">and 21 more...</text>
</a>
</g>
</g>
<!-- Node2 -->
<g id="node2" class="node">
<title>Node2</title>
<g id="a_node2"><a xlink:href="classFeel_1_1MeshSupportBase.html" target="_top" xlink:title="Description of a mesh support.">
<polygon fill="white" stroke="black" points="0,-171.5 0,-283.5 131,-283.5 131,-171.5 0,-171.5"/>
<text text-anchor="middle" x="65.5" y="-271.5" font-family="Helvetica,sans-Serif" font-size="10.00">Feel::MeshSupportBase</text>
<polyline fill="none" stroke="black" points="0,-264.5 131,-264.5 "/>
<text text-anchor="middle" x="65.5" y="-252.5" font-family="Helvetica,sans-Serif" font-size="10.00"> </text>
<polyline fill="none" stroke="black" points="0,-245.5 131,-245.5 "/>
<text text-anchor="start" x="8" y="-233.5" font-family="Helvetica,sans-Serif" font-size="10.00">+ hasElement()</text>
<text text-anchor="start" x="8" y="-222.5" font-family="Helvetica,sans-Serif" font-size="10.00">+ hasGhostElement()</text>
<text text-anchor="start" x="8" y="-211.5" font-family="Helvetica,sans-Serif" font-size="10.00">+ isFullSupport()</text>
<text text-anchor="start" x="8" y="-200.5" font-family="Helvetica,sans-Serif" font-size="10.00">+ isPartialSupport()</text>
<text text-anchor="start" x="8" y="-189.5" font-family="Helvetica,sans-Serif" font-size="10.00">+ numElements()</text>
<text text-anchor="start" x="8" y="-178.5" font-family="Helvetica,sans-Serif" font-size="10.00">and 4 more...</text>
</a>
</g>
</g>
<!-- Node2&#45;&gt;Node1 -->
<g id="edge1" class="edge">
<title>Node2&#45;&gt;Node1</title>
<path fill="none" stroke="midnightblue" d="M85.04,-161.31C88.76,-148.88 92.65,-135.91 96.33,-123.63"/>
<polygon fill="none" stroke="midnightblue" points="81.61,-160.56 82.09,-171.15 88.31,-162.57 81.61,-160.56"/>
</g>
<!-- Node3 -->
<g id="node3" class="node">
<title>Node3</title>
<g id="a_node3"><a xlink:href="classint.html" target="_top" xlink:title=" ">
<polygon fill="white" stroke="#bfbfbf" points="149,-199 149,-256 178,-256 178,-199 149,-199"/>
<text text-anchor="middle" x="163.5" y="-244" font-family="Helvetica,sans-Serif" font-size="10.00">int</text>
<polyline fill="none" stroke="#bfbfbf" points="149,-237 178,-237 "/>
<text text-anchor="middle" x="163.5" y="-225" font-family="Helvetica,sans-Serif" font-size="10.00"> </text>
<polyline fill="none" stroke="#bfbfbf" points="149,-218 178,-218 "/>
<text text-anchor="middle" x="163.5" y="-206" font-family="Helvetica,sans-Serif" font-size="10.00"> </text>
</a>
</g>
</g>
<!-- Node3&#45;&gt;Node1 -->
<g id="edge2" class="edge">
<title>Node3&#45;&gt;Node1</title>
<path fill="none" stroke="#404040" d="M155.19,-198.76C149.96,-181.31 142.94,-157.9 136.21,-135.45"/>
<polygon fill="none" stroke="#404040" points="136.18,-135.32 130.62,-130.72 132.73,-123.83 138.28,-128.43 136.18,-135.32"/>
<text text-anchor="middle" x="158.5" y="-145" font-family="Helvetica,sans-Serif" font-size="10.00"> +nDim</text>
</g>
</g>
</svg>
