<?xml version="1.0" encoding="UTF-8" standalone="no"?>
<!DOCTYPE svg PUBLIC "-//W3C//DTD SVG 1.1//EN"
 "http://www.w3.org/Graphics/SVG/1.1/DTD/svg11.dtd">
<!-- Generated by graphviz version 2.43.0 (0)
 -->
<!-- Title: Feel::mpfr::MpfrClass Pages: 1 -->
<!--zoomable 463 -->
<svg id="main" version="1.1" xmlns="http://www.w3.org/2000/svg" xmlns:xlink="http://www.w3.org/1999/xlink" xml:space="preserve" onload="init(evt)">
<style type="text/css"><![CDATA[
.edge:hover path { stroke: red; }
.edge:hover polygon { stroke: red; fill: red; }
]]></style>
<script type="text/javascript"><![CDATA[
var edges = document.getElementsByTagName('g');
if (edges && edges.length) {
  for (var i=0;i<edges.length;i++) {
    if (edges[i].id.substr(0,4)=='edge') {
      edges[i].setAttribute('class','edge');
    }
  }
}
]]></script>
        <defs>
                <circle id="rim" cx="0" cy="0" r="7"/>
                <circle id="rim2" cx="0" cy="0" r="3.5"/>
                <g id="zoomPlus">
                        <use xlink:href="#rim" fill="#404040">
                                <set attributeName="fill" to="#808080" begin="zoomplus.mouseover" end="zoomplus.mouseout"/>
                        </use>
                        <path d="M-4,0h8M0,-4v8" fill="none" stroke="white" stroke-width="1.5" pointer-events="none"/>
                </g>
                <g id="zoomMin">
                        <use xlink:href="#rim" fill="#404040">
                                <set attributeName="fill" to="#808080" begin="zoomminus.mouseover" end="zoomminus.mouseout"/>
                        </use>
                        <path d="M-4,0h8" fill="none" stroke="white" stroke-width="1.5" pointer-events="none"/>
                </g>
                <g id="dirArrow">
                        <path fill="none" stroke="white" stroke-width="1.5" d="M0,-3.0v7 M-2.5,-0.5L0,-3.0L2.5,-0.5"/>
                </g>
               <g id="resetDef">
                       <use xlink:href="#rim2" fill="#404040">
                               <set attributeName="fill" to="#808080" begin="reset.mouseover" end="reset.mouseout"/>
                       </use>
               </g>
        </defs>

<script type="text/javascript">
var viewWidth = 640;
var viewHeight = 463;
var sectionId = 'dynsection-0';
</script>
<script xlink:href="svgpan.js"/>
<svg id="graph" class="graph">
<g id="viewport">
<title>Feel::mpfr::MpfrClass</title>
<polygon fill="white" stroke="transparent" points="-4,4 -4,-459 635.5,-459 635.5,4 -4,4"/>
<!-- Node1 -->
<g id="node1" class="node">
<title>Node1</title>
<g id="a_node1"><a xlink:title=" ">
<polygon fill="#bfbfbf" stroke="black" points="211,-0.5 211,-178.5 344,-178.5 344,-0.5 211,-0.5"/>
<text text-anchor="middle" x="277.5" y="-166.5" font-family="Helvetica,sans-Serif" font-size="10.00">Feel::mpfr::MpfrClass</text>
<polyline fill="none" stroke="black" points="211,-159.5 344,-159.5 "/>
<text text-anchor="middle" x="277.5" y="-147.5" font-family="Helvetica,sans-Serif" font-size="10.00"> </text>
<polyline fill="none" stroke="black" points="211,-140.5 344,-140.5 "/>
<text text-anchor="start" x="219" y="-128.5" font-family="Helvetica,sans-Serif" font-size="10.00">+ CanRound()</text>
<text text-anchor="start" x="219" y="-117.5" font-family="Helvetica,sans-Serif" font-size="10.00">+ ChangePrec()</text>
<text text-anchor="start" x="219" y="-106.5" font-family="Helvetica,sans-Serif" font-size="10.00">+ copy()</text>
<text text-anchor="start" x="219" y="-95.5" font-family="Helvetica,sans-Serif" font-size="10.00">+ GetPrecision()</text>
<text text-anchor="start" x="219" y="-84.5" font-family="Helvetica,sans-Serif" font-size="10.00">+ MpfrClass()</text>
<text text-anchor="start" x="219" y="-73.5" font-family="Helvetica,sans-Serif" font-size="10.00">and 61 more...</text>
<text text-anchor="start" x="219" y="-62.5" font-family="Helvetica,sans-Serif" font-size="10.00">+ add()</text>
<text text-anchor="start" x="219" y="-51.5" font-family="Helvetica,sans-Serif" font-size="10.00">+ div()</text>
<text text-anchor="start" x="219" y="-40.5" font-family="Helvetica,sans-Serif" font-size="10.00">+ Euler()</text>
<text text-anchor="start" x="219" y="-29.5" font-family="Helvetica,sans-Serif" font-size="10.00">+ fma()</text>
<text text-anchor="start" x="219" y="-18.5" font-family="Helvetica,sans-Serif" font-size="10.00">+ GetDefaultPrecision()</text>
<text text-anchor="start" x="219" y="-7.5" font-family="Helvetica,sans-Serif" font-size="10.00">and 8 more...</text>
</a>
</g>
</g>
<!-- Node2 -->
<g id="node2" class="node">
<title>Node2</title>
<g id="a_node2"><a xlink:title=" ">
<polygon fill="white" stroke="#bfbfbf" points="0,-259.5 0,-316.5 49,-316.5 49,-259.5 0,-259.5"/>
<text text-anchor="middle" x="24.5" y="-304.5" font-family="Helvetica,sans-Serif" font-size="10.00">mpfr_t</text>
<polyline fill="none" stroke="#bfbfbf" points="0,-297.5 49,-297.5 "/>
<text text-anchor="middle" x="24.5" y="-285.5" font-family="Helvetica,sans-Serif" font-size="10.00"> </text>
<polyline fill="none" stroke="#bfbfbf" points="0,-278.5 49,-278.5 "/>
<text text-anchor="middle" x="24.5" y="-266.5" font-family="Helvetica,sans-Serif" font-size="10.00"> </text>
</a>
</g>
</g>
<!-- Node2&#45;&gt;Node1 -->
<g id="edge1" class="edge">
<title>Node2&#45;&gt;Node1</title>
<path fill="none" stroke="#404040" d="M35.73,-259.19C41.16,-248.01 48.48,-235.54 57.5,-226 97.8,-183.37 154.33,-148.94 200,-125.45"/>
<polygon fill="none" stroke="#404040" points="200.05,-125.43 203.6,-119.15 210.76,-120.01 207.21,-126.29 200.05,-125.43"/>
<text text-anchor="middle" x="116.5" y="-200" font-family="Helvetica,sans-Serif" font-size="10.00"> #mpfr_rep</text>
</g>
<!-- Node3 -->
<g id="node3" class="node">
<title>Node3</title>
<g id="a_node3"><a xlink:href="classFeel_1_1mpfr_1_1InexactFlag.html" target="_top" xlink:title=" ">
<polygon fill="white" stroke="#bfbfbf" points="67,-237.5 67,-338.5 196,-338.5 196,-237.5 67,-237.5"/>
<text text-anchor="middle" x="131.5" y="-326.5" font-family="Helvetica,sans-Serif" font-size="10.00">Feel::mpfr::InexactFlag</text>
<polyline fill="none" stroke="#bfbfbf" points="67,-319.5 196,-319.5 "/>
<text text-anchor="middle" x="131.5" y="-307.5" font-family="Helvetica,sans-Serif" font-size="10.00"> </text>
<polyline fill="none" stroke="#bfbfbf" points="67,-300.5 196,-300.5 "/>
<text text-anchor="start" x="75" y="-288.5" font-family="Helvetica,sans-Serif" font-size="10.00">+ getvalue()</text>
<text text-anchor="start" x="75" y="-277.5" font-family="Helvetica,sans-Serif" font-size="10.00">+ InexactFlag()</text>
<text text-anchor="start" x="75" y="-266.5" font-family="Helvetica,sans-Serif" font-size="10.00">+ refvalue()</text>
<text text-anchor="start" x="75" y="-255.5" font-family="Helvetica,sans-Serif" font-size="10.00">+ val()</text>
<text text-anchor="start" x="75" y="-244.5" font-family="Helvetica,sans-Serif" font-size="10.00">+ ~InexactFlag()</text>
</a>
</g>
</g>
<!-- Node3&#45;&gt;Node1 -->
<g id="edge2" class="edge">
<title>Node3&#45;&gt;Node1</title>
<path fill="none" stroke="#404040" d="M168.34,-237.41C179.43,-222.49 192,-205.57 204.58,-188.65"/>
<polygon fill="none" stroke="#404040" points="204.81,-188.33 205.18,-181.13 211.97,-178.7 211.6,-185.9 204.81,-188.33"/>
<text text-anchor="middle" x="220.5" y="-200" font-family="Helvetica,sans-Serif" font-size="10.00"> #inexact</text>
</g>
<!-- Node4 -->
<g id="node4" class="node">
<title>Node4</title>
<g id="a_node4"><a xlink:href="classint.html" target="_top" xlink:title=" ">
<polygon fill="white" stroke="#bfbfbf" points="117,-397.5 117,-454.5 146,-454.5 146,-397.5 117,-397.5"/>
<text text-anchor="middle" x="131.5" y="-442.5" font-family="Helvetica,sans-Serif" font-size="10.00">int</text>
<polyline fill="none" stroke="#bfbfbf" points="117,-435.5 146,-435.5 "/>
<text text-anchor="middle" x="131.5" y="-423.5" font-family="Helvetica,sans-Serif" font-size="10.00"> </text>
<polyline fill="none" stroke="#bfbfbf" points="117,-416.5 146,-416.5 "/>
<text text-anchor="middle" x="131.5" y="-404.5" font-family="Helvetica,sans-Serif" font-size="10.00"> </text>
</a>
</g>
</g>
<!-- Node4&#45;&gt;Node3 -->
<g id="edge3" class="edge">
<title>Node4&#45;&gt;Node3</title>
<path fill="none" stroke="#404040" d="M131.5,-397.48C131.5,-384.06 131.5,-367.33 131.5,-351.06"/>
<polygon fill="none" stroke="#404040" points="131.5,-350.76 127.5,-344.76 131.5,-338.76 135.5,-344.76 131.5,-350.76"/>
<text text-anchor="middle" x="167.5" y="-371" font-family="Helvetica,sans-Serif" font-size="10.00"> #inexact_flag</text>
</g>
<!-- Node5 -->
<g id="node5" class="node">
<title>Node5</title>
<g id="a_node5"><a xlink:href="classFeel_1_1mpfr_1_1RefCounter.html" target="_top" xlink:title=" ">
<polygon fill="white" stroke="#bfbfbf" points="214,-226.5 214,-349.5 341,-349.5 341,-226.5 214,-226.5"/>
<text text-anchor="middle" x="277.5" y="-337.5" font-family="Helvetica,sans-Serif" font-size="10.00">Feel::mpfr::RefCounter</text>
<polyline fill="none" stroke="#bfbfbf" points="214,-330.5 341,-330.5 "/>
<text text-anchor="middle" x="277.5" y="-318.5" font-family="Helvetica,sans-Serif" font-size="10.00"> </text>
<polyline fill="none" stroke="#bfbfbf" points="214,-311.5 341,-311.5 "/>
<text text-anchor="start" x="222" y="-299.5" font-family="Helvetica,sans-Serif" font-size="10.00">+ decr()</text>
<text text-anchor="start" x="222" y="-288.5" font-family="Helvetica,sans-Serif" font-size="10.00">+ getvalue()</text>
<text text-anchor="start" x="222" y="-277.5" font-family="Helvetica,sans-Serif" font-size="10.00">+ incr()</text>
<text text-anchor="start" x="222" y="-266.5" font-family="Helvetica,sans-Serif" font-size="10.00">+ RefCounter()</text>
<text text-anchor="start" x="222" y="-255.5" font-family="Helvetica,sans-Serif" font-size="10.00">+ refvalue()</text>
<text text-anchor="start" x="222" y="-244.5" font-family="Helvetica,sans-Serif" font-size="10.00">+ val()</text>
<text text-anchor="start" x="222" y="-233.5" font-family="Helvetica,sans-Serif" font-size="10.00">+ ~RefCounter()</text>
</a>
</g>
</g>
<!-- Node5&#45;&gt;Node1 -->
<g id="edge4" class="edge">
<title>Node5&#45;&gt;Node1</title>
<path fill="none" stroke="#404040" d="M277.5,-226.44C277.5,-215.11 277.5,-202.99 277.5,-190.82"/>
<polygon fill="none" stroke="#404040" points="277.5,-190.67 273.5,-184.67 277.5,-178.67 281.5,-184.67 277.5,-190.67"/>
<text text-anchor="middle" x="296" y="-200" font-family="Helvetica,sans-Serif" font-size="10.00"> #nbref</text>
</g>
<!-- Node6 -->
<g id="node6" class="node">
<title>Node6</title>
<g id="a_node6"><a xlink:title=" ">
<polygon fill="white" stroke="#bfbfbf" points="258.5,-397.5 258.5,-454.5 296.5,-454.5 296.5,-397.5 258.5,-397.5"/>
<text text-anchor="middle" x="277.5" y="-442.5" font-family="Helvetica,sans-Serif" font-size="10.00">long</text>
<polyline fill="none" stroke="#bfbfbf" points="258.5,-435.5 296.5,-435.5 "/>
<text text-anchor="middle" x="277.5" y="-423.5" font-family="Helvetica,sans-Serif" font-size="10.00"> </text>
<polyline fill="none" stroke="#bfbfbf" points="258.5,-416.5 296.5,-416.5 "/>
<text text-anchor="middle" x="277.5" y="-404.5" font-family="Helvetica,sans-Serif" font-size="10.00"> </text>
</a>
</g>
</g>
<!-- Node6&#45;&gt;Node5 -->
<g id="edge5" class="edge">
<title>Node6&#45;&gt;Node5</title>
<path fill="none" stroke="#404040" d="M277.5,-397.48C277.5,-387.01 277.5,-374.53 277.5,-361.82"/>
<polygon fill="none" stroke="#404040" points="277.5,-361.62 273.5,-355.62 277.5,-349.62 281.5,-355.62 277.5,-361.62"/>
<text text-anchor="middle" x="302" y="-371" font-family="Helvetica,sans-Serif" font-size="10.00"> #counter</text>
</g>
<!-- Node7 -->
<g id="node7" class="node">
<title>Node7</title>
<g id="a_node7"><a xlink:title=" ">
<polygon fill="white" stroke="#bfbfbf" points="359.5,-259.5 359.5,-316.5 483.5,-316.5 483.5,-259.5 359.5,-259.5"/>
<text text-anchor="middle" x="421.5" y="-304.5" font-family="Helvetica,sans-Serif" font-size="10.00">static PrecisionType &amp;</text>
<polyline fill="none" stroke="#bfbfbf" points="359.5,-297.5 483.5,-297.5 "/>
<text text-anchor="middle" x="421.5" y="-285.5" font-family="Helvetica,sans-Serif" font-size="10.00"> </text>
<polyline fill="none" stroke="#bfbfbf" points="359.5,-278.5 483.5,-278.5 "/>
<text text-anchor="middle" x="421.5" y="-266.5" font-family="Helvetica,sans-Serif" font-size="10.00"> </text>
</a>
</g>
</g>
<!-- Node7&#45;&gt;Node1 -->
<g id="edge6" class="edge">
<title>Node7&#45;&gt;Node1</title>
<path fill="none" stroke="#404040" d="M401.17,-259.26C387.42,-240.5 368.36,-214.49 349.32,-188.5"/>
<polygon fill="none" stroke="#404040" points="349.12,-188.24 342.35,-185.76 342.03,-178.56 348.8,-181.03 349.12,-188.24"/>
<text text-anchor="middle" x="399.5" y="-200" font-family="Helvetica,sans-Serif" font-size="10.00"> #CurrPrecision</text>
</g>
<!-- Node8 -->
<g id="node8" class="node">
<title>Node8</title>
<g id="a_node8"><a xlink:title=" ">
<polygon fill="white" stroke="#bfbfbf" points="501.5,-259.5 501.5,-316.5 631.5,-316.5 631.5,-259.5 501.5,-259.5"/>
<text text-anchor="middle" x="566.5" y="-304.5" font-family="Helvetica,sans-Serif" font-size="10.00">static RoundingMode &amp;</text>
<polyline fill="none" stroke="#bfbfbf" points="501.5,-297.5 631.5,-297.5 "/>
<text text-anchor="middle" x="566.5" y="-285.5" font-family="Helvetica,sans-Serif" font-size="10.00"> </text>
<polyline fill="none" stroke="#bfbfbf" points="501.5,-278.5 631.5,-278.5 "/>
<text text-anchor="middle" x="566.5" y="-266.5" font-family="Helvetica,sans-Serif" font-size="10.00"> </text>
</a>
</g>
</g>
<!-- Node8&#45;&gt;Node1 -->
<g id="edge7" class="edge">
<title>Node8&#45;&gt;Node1</title>
<path fill="none" stroke="#404040" d="M534.79,-259.36C521.95,-248.57 506.8,-236.34 492.5,-226 448.16,-193.95 396.34,-161.16 354.68,-135.87"/>
<polygon fill="none" stroke="#404040" points="354.59,-135.81 347.38,-136.13 344.32,-129.6 351.52,-129.28 354.59,-135.81"/>
<text text-anchor="middle" x="502.5" y="-200" font-family="Helvetica,sans-Serif" font-size="10.00"> #CurrRndMode</text>
</g>
</g>
</svg>
        <g id="navigator" transform="translate(0 0)" fill="#404254">
                <rect fill="#f2f5e9" fill-opacity="0.5" stroke="#606060" stroke-width=".5" x="0" y="0" width="60" height="60"/>
                <use id="zoomplus" xlink:href="#zoomPlus" x="17" y="9" onmousedown="handleZoom(evt,'in')"/>
                <use id="zoomminus" xlink:href="#zoomMin" x="42" y="9" onmousedown="handleZoom(evt,'out')"/>
                <use id="reset" xlink:href="#resetDef" x="30" y="36" onmousedown="handleReset()"/>
                <g id="arrowUp" xlink:href="#dirArrow" transform="translate(30 24)" onmousedown="handlePan(0,-1)">
                  <use xlink:href="#rim" fill="#404040">
                        <set attributeName="fill" to="#808080" begin="arrowUp.mouseover" end="arrowUp.mouseout"/>
                  </use>
                  <path fill="none" stroke="white" stroke-width="1.5" d="M0,-3.0v7 M-2.5,-0.5L0,-3.0L2.5,-0.5"/>
                </g>
                <g id="arrowRight" xlink:href="#dirArrow" transform="rotate(90) translate(36 -43)" onmousedown="handlePan(1,0)">
                  <use xlink:href="#rim" fill="#404040">
                        <set attributeName="fill" to="#808080" begin="arrowRight.mouseover" end="arrowRight.mouseout"/>
                  </use>
                  <path fill="none" stroke="white" stroke-width="1.5" d="M0,-3.0v7 M-2.5,-0.5L0,-3.0L2.5,-0.5"/>
                </g>
                <g id="arrowDown" xlink:href="#dirArrow" transform="rotate(180) translate(-30 -48)" onmousedown="handlePan(0,1)">
                  <use xlink:href="#rim" fill="#404040">
                        <set attributeName="fill" to="#808080" begin="arrowDown.mouseover" end="arrowDown.mouseout"/>
                  </use>
                  <path fill="none" stroke="white" stroke-width="1.5" d="M0,-3.0v7 M-2.5,-0.5L0,-3.0L2.5,-0.5"/>
                </g>
                <g id="arrowLeft" xlink:href="#dirArrow" transform="rotate(270) translate(-36 17)" onmousedown="handlePan(-1,0)">
                  <use xlink:href="#rim" fill="#404040">
                        <set attributeName="fill" to="#808080" begin="arrowLeft.mouseover" end="arrowLeft.mouseout"/>
                  </use>
                  <path fill="none" stroke="white" stroke-width="1.5" d="M0,-3.0v7 M-2.5,-0.5L0,-3.0L2.5,-0.5"/>
                </g>
        </g>
        <svg viewBox="0 0 15 15" width="100%" height="30px" preserveAspectRatio="xMaxYMin meet">
         <g id="arrow_out" transform="scale(0.3 0.3)">
          <a xlink:href="classFeel_1_1mpfr_1_1MpfrClass__coll__graph_org.svg" target="_base">
           <rect id="button" ry="5" rx="5" y="6" x="6" height="38" width="38"
                fill="#f2f5e9" fill-opacity="0.5" stroke="#606060" stroke-width="1.0"/>
           <path id="arrow"
             d="M 11.500037,31.436501 C 11.940474,20.09759 22.043105,11.32322 32.158766,21.979434 L 37.068811,17.246167 C 37.068811,17.246167 37.088388,32 37.088388,32 L 22.160133,31.978069 C 22.160133,31.978069 26.997745,27.140456 26.997745,27.140456 C 18.528582,18.264221 13.291696,25.230495 11.500037,31.436501 z"
             style="fill:#404040;"/>
          </a>
         </g>
        </svg>
</svg>
