<?xml version="1.0" encoding="UTF-8" standalone="no"?>
<!DOCTYPE svg PUBLIC "-//W3C//DTD SVG 1.1//EN"
 "http://www.w3.org/Graphics/SVG/1.1/DTD/svg11.dtd">
<!-- Generated by graphviz version 2.43.0 (0)
 -->
<!-- Title: Feel::FunctionSpace&lt; MeshTypes, BasisTypes, T, PeriodicityType, MortarType &gt;::Element&lt; TT, Cont &gt; Pages: 1 -->
<svg width="1267pt" height="710pt"
 viewBox="0.00 0.00 1267.00 710.00" xmlns="http://www.w3.org/2000/svg" xmlns:xlink="http://www.w3.org/1999/xlink">
<g id="graph0" class="graph" transform="scale(1 1) rotate(0) translate(4 706)">
<title>Feel::FunctionSpace&lt; MeshTypes, BasisTypes, T, PeriodicityType, MortarType &gt;::Element&lt; TT, Cont &gt;</title>
<polygon fill="white" stroke="transparent" points="-4,4 -4,-706 1263,-706 1263,4 -4,4"/>
<!-- Node1 -->
<g id="node1" class="node">
<title>Node1</title>
<g id="a_node1"><a xlink:title=" ">
<polygon fill="#bfbfbf" stroke="black" points="622.5,-0.5 622.5,-486.5 789.5,-486.5 789.5,-0.5 622.5,-0.5"/>
<text text-anchor="start" x="630.5" y="-474.5" font-family="Helvetica,sans-Serif" font-size="10.00">Feel::FunctionSpace</text>
<text text-anchor="start" x="630.5" y="-463.5" font-family="Helvetica,sans-Serif" font-size="10.00">&lt; MeshTypes, BasisTypes,</text>
<text text-anchor="start" x="630.5" y="-452.5" font-family="Helvetica,sans-Serif" font-size="10.00"> T, PeriodicityType, MortarType</text>
<text text-anchor="middle" x="706" y="-441.5" font-family="Helvetica,sans-Serif" font-size="10.00"> &gt;::Element&lt; TT, Cont &gt;</text>
<polyline fill="none" stroke="black" points="622.5,-434.5 789.5,-434.5 "/>
<text text-anchor="middle" x="706" y="-422.5" font-family="Helvetica,sans-Serif" font-size="10.00"> </text>
<polyline fill="none" stroke="black" points="622.5,-415.5 789.5,-415.5 "/>
<text text-anchor="start" x="630.5" y="-403.5" font-family="Helvetica,sans-Serif" font-size="10.00">+ element()</text>
<text text-anchor="start" x="630.5" y="-392.5" font-family="Helvetica,sans-Serif" font-size="10.00">+ elementImpl()</text>
<text text-anchor="start" x="630.5" y="-381.5" font-family="Helvetica,sans-Serif" font-size="10.00">+ onImpl()</text>
<text text-anchor="start" x="630.5" y="-370.5" font-family="Helvetica,sans-Serif" font-size="10.00">+ onImpl()</text>
<text text-anchor="start" x="630.5" y="-359.5" font-family="Helvetica,sans-Serif" font-size="10.00">+ onImpl()</text>
<text text-anchor="start" x="630.5" y="-348.5" font-family="Helvetica,sans-Serif" font-size="10.00">and 5 more...</text>
<text text-anchor="start" x="630.5" y="-337.5" font-family="Helvetica,sans-Serif" font-size="10.00">* real_type</text>
<text text-anchor="start" x="630.5" y="-326.5" font-family="Helvetica,sans-Serif" font-size="10.00">* element_type</text>
<text text-anchor="start" x="630.5" y="-315.5" font-family="Helvetica,sans-Serif" font-size="10.00">* super</text>
<text text-anchor="start" x="630.5" y="-304.5" font-family="Helvetica,sans-Serif" font-size="10.00">* container_type</text>
<text text-anchor="start" x="630.5" y="-293.5" font-family="Helvetica,sans-Serif" font-size="10.00">* vector_temporary_type</text>
<text text-anchor="start" x="630.5" y="-282.5" font-family="Helvetica,sans-Serif" font-size="10.00">and 25 more...</text>
<text text-anchor="start" x="630.5" y="-271.5" font-family="Helvetica,sans-Serif" font-size="10.00">* p0dh_t</text>
<text text-anchor="start" x="630.5" y="-260.5" font-family="Helvetica,sans-Serif" font-size="10.00">* p0dh_element_t</text>
<text text-anchor="start" x="630.5" y="-249.5" font-family="Helvetica,sans-Serif" font-size="10.00">* operator+</text>
<text text-anchor="start" x="630.5" y="-238.5" font-family="Helvetica,sans-Serif" font-size="10.00">* operator&#45;</text>
<text text-anchor="start" x="630.5" y="-227.5" font-family="Helvetica,sans-Serif" font-size="10.00">* operator*</text>
<text text-anchor="start" x="630.5" y="-216.5" font-family="Helvetica,sans-Serif" font-size="10.00">and 50 more...</text>
<text text-anchor="start" x="630.5" y="-205.5" font-family="Helvetica,sans-Serif" font-size="10.00">* array_type</text>
<text text-anchor="start" x="630.5" y="-194.5" font-family="Helvetica,sans-Serif" font-size="10.00">* _id_type</text>
<text text-anchor="start" x="630.5" y="-183.5" font-family="Helvetica,sans-Serif" font-size="10.00">* _grad_type</text>
<text text-anchor="start" x="630.5" y="-172.5" font-family="Helvetica,sans-Serif" font-size="10.00">* _dn_type</text>
<text text-anchor="start" x="630.5" y="-161.5" font-family="Helvetica,sans-Serif" font-size="10.00">* _hess_type</text>
<text text-anchor="start" x="630.5" y="-150.5" font-family="Helvetica,sans-Serif" font-size="10.00">and 134 more...</text>
<text text-anchor="start" x="630.5" y="-139.5" font-family="Helvetica,sans-Serif" font-size="10.00">* boost::serialization</text>
<text text-anchor="start" x="630.5" y="-128.5" font-family="Helvetica,sans-Serif" font-size="10.00">::access</text>
<text text-anchor="start" x="630.5" y="-117.5" font-family="Helvetica,sans-Serif" font-size="10.00">* M_functionspace</text>
<text text-anchor="start" x="630.5" y="-106.5" font-family="Helvetica,sans-Serif" font-size="10.00">* M_name</text>
<text text-anchor="start" x="630.5" y="-95.5" font-family="Helvetica,sans-Serif" font-size="10.00">* M_desc</text>
<text text-anchor="start" x="630.5" y="-84.5" font-family="Helvetica,sans-Serif" font-size="10.00">* M_start</text>
<text text-anchor="start" x="630.5" y="-73.5" font-family="Helvetica,sans-Serif" font-size="10.00">and 27 more...</text>
<text text-anchor="start" x="630.5" y="-62.5" font-family="Helvetica,sans-Serif" font-size="10.00">* Element()</text>
<text text-anchor="start" x="630.5" y="-51.5" font-family="Helvetica,sans-Serif" font-size="10.00">* Element()</text>
<text text-anchor="start" x="630.5" y="-40.5" font-family="Helvetica,sans-Serif" font-size="10.00">* Element()</text>
<text text-anchor="start" x="630.5" y="-29.5" font-family="Helvetica,sans-Serif" font-size="10.00">* Element()</text>
<text text-anchor="start" x="630.5" y="-18.5" font-family="Helvetica,sans-Serif" font-size="10.00">* Element()</text>
<text text-anchor="start" x="630.5" y="-7.5" font-family="Helvetica,sans-Serif" font-size="10.00">and 5 more...</text>
</a>
</g>
</g>
<!-- Node2 -->
<g id="node2" class="node">
<title>Node2</title>
<g id="a_node2"><a xlink:href="classVectorUblas.html" target="_top" xlink:title=" ">
<polygon fill="white" stroke="#bfbfbf" points="0,-633.5 0,-690.5 128,-690.5 128,-633.5 0,-633.5"/>
<text text-anchor="middle" x="64" y="-678.5" font-family="Helvetica,sans-Serif" font-size="10.00">VectorUblas&lt;double &gt;</text>
<polyline fill="none" stroke="#bfbfbf" points="0,-671.5 128,-671.5 "/>
<text text-anchor="middle" x="64" y="-659.5" font-family="Helvetica,sans-Serif" font-size="10.00"> </text>
<polyline fill="none" stroke="#bfbfbf" points="0,-652.5 128,-652.5 "/>
<text text-anchor="middle" x="64" y="-640.5" font-family="Helvetica,sans-Serif" font-size="10.00"> </text>
</a>
</g>
</g>
<!-- Node2&#45;&gt;Node1 -->
<g id="edge1" class="edge">
<title>Node2&#45;&gt;Node1</title>
<path fill="none" stroke="midnightblue" d="M109.46,-627.48C153.54,-595.29 222.57,-545.68 284,-505 399.39,-428.58 536.26,-345.42 622.14,-294.12"/>
<polygon fill="none" stroke="midnightblue" points="107.26,-624.76 101.25,-633.48 111.39,-630.41 107.26,-624.76"/>
</g>
<!-- Node3 -->
<g id="node3" class="node">
<title>Node3</title>
<g id="a_node3"><a xlink:title=" ">
<polygon fill="white" stroke="#bfbfbf" points="146,-622.5 146,-701.5 286,-701.5 286,-622.5 146,-622.5"/>
<text text-anchor="start" x="154" y="-689.5" font-family="Helvetica,sans-Serif" font-size="10.00">boost::addable&lt; Element</text>
<text text-anchor="start" x="154" y="-678.5" font-family="Helvetica,sans-Serif" font-size="10.00">&lt; double, VectorUblas</text>
<text text-anchor="middle" x="216" y="-667.5" font-family="Helvetica,sans-Serif" font-size="10.00">&lt; double &gt; &gt; &gt;</text>
<polyline fill="none" stroke="#bfbfbf" points="146,-660.5 286,-660.5 "/>
<text text-anchor="middle" x="216" y="-648.5" font-family="Helvetica,sans-Serif" font-size="10.00"> </text>
<polyline fill="none" stroke="#bfbfbf" points="146,-641.5 286,-641.5 "/>
<text text-anchor="middle" x="216" y="-629.5" font-family="Helvetica,sans-Serif" font-size="10.00"> </text>
</a>
</g>
</g>
<!-- Node3&#45;&gt;Node1 -->
<g id="edge2" class="edge">
<title>Node3&#45;&gt;Node1</title>
<path fill="none" stroke="#8b1a1a" d="M269.37,-615.63C354.33,-543.42 521.04,-401.72 622.09,-315.83"/>
<polygon fill="none" stroke="#8b1a1a" points="267.01,-613.05 261.66,-622.19 271.54,-618.38 267.01,-613.05"/>
</g>
<!-- Node4 -->
<g id="node4" class="node">
<title>Node4</title>
<g id="a_node4"><a xlink:title=" ">
<polygon fill="white" stroke="#bfbfbf" points="304,-622.5 304,-701.5 458,-701.5 458,-622.5 304,-622.5"/>
<text text-anchor="start" x="312" y="-689.5" font-family="Helvetica,sans-Serif" font-size="10.00">boost::subtractable</text>
<text text-anchor="start" x="312" y="-678.5" font-family="Helvetica,sans-Serif" font-size="10.00">&lt; Element&lt; double ,</text>
<text text-anchor="middle" x="381" y="-667.5" font-family="Helvetica,sans-Serif" font-size="10.00"> VectorUblas&lt;double &gt; &gt; &gt;</text>
<polyline fill="none" stroke="#bfbfbf" points="304,-660.5 458,-660.5 "/>
<text text-anchor="middle" x="381" y="-648.5" font-family="Helvetica,sans-Serif" font-size="10.00"> </text>
<polyline fill="none" stroke="#bfbfbf" points="304,-641.5 458,-641.5 "/>
<text text-anchor="middle" x="381" y="-629.5" font-family="Helvetica,sans-Serif" font-size="10.00"> </text>
</a>
</g>
</g>
<!-- Node4&#45;&gt;Node1 -->
<g id="edge3" class="edge">
<title>Node4&#45;&gt;Node1</title>
<path fill="none" stroke="#8b1a1a" d="M417.68,-613.99C467,-550.79 556.14,-436.55 622.29,-351.77"/>
<polygon fill="none" stroke="#8b1a1a" points="414.68,-612.15 411.28,-622.19 420.19,-616.46 414.68,-612.15"/>
</g>
<!-- Node5 -->
<g id="node5" class="node">
<title>Node5</title>
<g id="a_node5"><a xlink:href="classFeel_1_1FunctionSpaceBase_1_1ElementBase.html" target="_top" xlink:title=" ">
<polygon fill="white" stroke="#bfbfbf" points="476.5,-628 476.5,-696 613.5,-696 613.5,-628 476.5,-628"/>
<text text-anchor="start" x="484.5" y="-684" font-family="Helvetica,sans-Serif" font-size="10.00">Feel::FunctionSpaceBase</text>
<text text-anchor="middle" x="545" y="-673" font-family="Helvetica,sans-Serif" font-size="10.00">::ElementBase</text>
<polyline fill="none" stroke="#bfbfbf" points="476.5,-666 613.5,-666 "/>
<text text-anchor="middle" x="545" y="-654" font-family="Helvetica,sans-Serif" font-size="10.00"> </text>
<polyline fill="none" stroke="#bfbfbf" points="476.5,-647 613.5,-647 "/>
<text text-anchor="middle" x="545" y="-635" font-family="Helvetica,sans-Serif" font-size="10.00"> </text>
</a>
</g>
</g>
<!-- Node5&#45;&gt;Node1 -->
<g id="edge4" class="edge">
<title>Node5&#45;&gt;Node1</title>
<path fill="none" stroke="#8b1a1a" d="M561.54,-618.22C576.34,-579.92 599.24,-520.68 622.48,-460.57"/>
<polygon fill="none" stroke="#8b1a1a" points="558.11,-617.38 557.77,-627.97 564.64,-619.9 558.11,-617.38"/>
</g>
<!-- Node6 -->
<g id="node6" class="node">
<title>Node6</title>
<g id="a_node6"><a xlink:title=" ">
<polygon fill="white" stroke="#bfbfbf" points="631.5,-633.5 631.5,-690.5 780.5,-690.5 780.5,-633.5 631.5,-633.5"/>
<text text-anchor="middle" x="706" y="-678.5" font-family="Helvetica,sans-Serif" font-size="10.00">basis_0_type::polyset_type</text>
<polyline fill="none" stroke="#bfbfbf" points="631.5,-671.5 780.5,-671.5 "/>
<text text-anchor="middle" x="706" y="-659.5" font-family="Helvetica,sans-Serif" font-size="10.00"> </text>
<polyline fill="none" stroke="#bfbfbf" points="631.5,-652.5 780.5,-652.5 "/>
<text text-anchor="middle" x="706" y="-640.5" font-family="Helvetica,sans-Serif" font-size="10.00"> </text>
</a>
</g>
</g>
<!-- Node6&#45;&gt;Node1 -->
<g id="edge5" class="edge">
<title>Node6&#45;&gt;Node1</title>
<path fill="none" stroke="#8b1a1a" d="M706,-622.93C706,-590.18 706,-539.88 706,-486.54"/>
<polygon fill="none" stroke="#8b1a1a" points="702.5,-623.35 706,-633.35 709.5,-623.35 702.5,-623.35"/>
</g>
<!-- Node7 -->
<g id="node7" class="node">
<title>Node7</title>
<g id="a_node7"><a xlink:title=" ">
<polygon fill="white" stroke="#bfbfbf" points="798.5,-633.5 798.5,-690.5 953.5,-690.5 953.5,-633.5 798.5,-633.5"/>
<text text-anchor="middle" x="876" y="-678.5" font-family="Helvetica,sans-Serif" font-size="10.00">static constexpr uint16_type</text>
<polyline fill="none" stroke="#bfbfbf" points="798.5,-671.5 953.5,-671.5 "/>
<text text-anchor="middle" x="876" y="-659.5" font-family="Helvetica,sans-Serif" font-size="10.00"> </text>
<polyline fill="none" stroke="#bfbfbf" points="798.5,-652.5 953.5,-652.5 "/>
<text text-anchor="middle" x="876" y="-640.5" font-family="Helvetica,sans-Serif" font-size="10.00"> </text>
</a>
</g>
</g>
<!-- Node7&#45;&gt;Node1 -->
<g id="edge6" class="edge">
<title>Node7&#45;&gt;Node1</title>
<path fill="none" stroke="#404040" d="M851.72,-633.24C844.71,-624.31 837.49,-614.11 832,-604 813.99,-570.81 797.74,-534.55 783.37,-498.23"/>
<polygon fill="none" stroke="#404040" points="783.34,-498.14 777.43,-494 778.97,-486.96 784.88,-491.09 783.34,-498.14"/>
<text text-anchor="middle" x="881" y="-585" font-family="Helvetica,sans-Serif" font-size="10.00"> +nComponents</text>
<text text-anchor="middle" x="881" y="-574" font-family="Helvetica,sans-Serif" font-size="10.00">+nComponents1</text>
<text text-anchor="middle" x="881" y="-563" font-family="Helvetica,sans-Serif" font-size="10.00">+nComponents2</text>
<text text-anchor="middle" x="881" y="-552" font-family="Helvetica,sans-Serif" font-size="10.00">+nDim</text>
<text text-anchor="middle" x="881" y="-541" font-family="Helvetica,sans-Serif" font-size="10.00">+nRealComponents</text>
<text text-anchor="middle" x="881" y="-530" font-family="Helvetica,sans-Serif" font-size="10.00">+nRealDim</text>
<text text-anchor="middle" x="881" y="-519" font-family="Helvetica,sans-Serif" font-size="10.00">+nSpaces</text>
</g>
<!-- Node8 -->
<g id="node8" class="node">
<title>Node8</title>
<g id="a_node8"><a xlink:href="classbool.html" target="_top" xlink:title=" ">
<polygon fill="white" stroke="#bfbfbf" points="972,-633.5 972,-690.5 1010,-690.5 1010,-633.5 972,-633.5"/>
<text text-anchor="middle" x="991" y="-678.5" font-family="Helvetica,sans-Serif" font-size="10.00">bool</text>
<polyline fill="none" stroke="#bfbfbf" points="972,-671.5 1010,-671.5 "/>
<text text-anchor="middle" x="991" y="-659.5" font-family="Helvetica,sans-Serif" font-size="10.00"> </text>
<polyline fill="none" stroke="#bfbfbf" points="972,-652.5 1010,-652.5 "/>
<text text-anchor="middle" x="991" y="-640.5" font-family="Helvetica,sans-Serif" font-size="10.00"> </text>
</a>
</g>
</g>
<!-- Node8&#45;&gt;Node1 -->
<g id="edge7" class="edge">
<title>Node8&#45;&gt;Node1</title>
<path fill="none" stroke="#404040" d="M972,-634.48C963.94,-622.84 955.76,-610.39 953,-604 935.07,-562.54 950.43,-545.29 930,-505 896.93,-439.77 844.15,-377.26 798.12,-329.84"/>
<polygon fill="none" stroke="#404040" points="798.02,-329.73 790.96,-328.24 789.62,-321.16 796.67,-322.64 798.02,-329.73"/>
<text text-anchor="middle" x="1006.5" y="-596" font-family="Helvetica,sans-Serif" font-size="10.00"> +is_composite</text>
<text text-anchor="middle" x="1006.5" y="-585" font-family="Helvetica,sans-Serif" font-size="10.00">+is_continuous</text>
<text text-anchor="middle" x="1006.5" y="-574" font-family="Helvetica,sans-Serif" font-size="10.00">+is_hcurl_conforming</text>
<text text-anchor="middle" x="1006.5" y="-563" font-family="Helvetica,sans-Serif" font-size="10.00">+is_hdiv_conforming</text>
<text text-anchor="middle" x="1006.5" y="-552" font-family="Helvetica,sans-Serif" font-size="10.00">+is_mortar</text>
<text text-anchor="middle" x="1006.5" y="-541" font-family="Helvetica,sans-Serif" font-size="10.00">+is_scalar</text>
<text text-anchor="middle" x="1006.5" y="-530" font-family="Helvetica,sans-Serif" font-size="10.00">+is_tensor2</text>
<text text-anchor="middle" x="1006.5" y="-519" font-family="Helvetica,sans-Serif" font-size="10.00">+is_tensor2symm</text>
<text text-anchor="middle" x="1006.5" y="-508" font-family="Helvetica,sans-Serif" font-size="10.00">+is_vectorial</text>
</g>
<!-- Node9 -->
<g id="node9" class="node">
<title>Node9</title>
<g id="a_node9"><a xlink:href="classint.html" target="_top" xlink:title=" ">
<polygon fill="white" stroke="#bfbfbf" points="1067.5,-633.5 1067.5,-690.5 1096.5,-690.5 1096.5,-633.5 1067.5,-633.5"/>
<text text-anchor="middle" x="1082" y="-678.5" font-family="Helvetica,sans-Serif" font-size="10.00">int</text>
<polyline fill="none" stroke="#bfbfbf" points="1067.5,-671.5 1096.5,-671.5 "/>
<text text-anchor="middle" x="1082" y="-659.5" font-family="Helvetica,sans-Serif" font-size="10.00"> </text>
<polyline fill="none" stroke="#bfbfbf" points="1067.5,-652.5 1096.5,-652.5 "/>
<text text-anchor="middle" x="1082" y="-640.5" font-family="Helvetica,sans-Serif" font-size="10.00"> </text>
</a>
</g>
</g>
<!-- Node9&#45;&gt;Node1 -->
<g id="edge8" class="edge">
<title>Node9&#45;&gt;Node1</title>
<path fill="none" stroke="#404040" d="M1084.3,-633.24C1085.71,-600.29 1083.77,-544.81 1060,-505 999.63,-403.89 883.41,-330.02 800.6,-287.29"/>
<polygon fill="none" stroke="#404040" points="800.36,-287.17 793.2,-288.01 789.66,-281.72 796.82,-280.88 800.36,-287.17"/>
<text text-anchor="middle" x="1101" y="-552" font-family="Helvetica,sans-Serif" font-size="10.00"> +rank</text>
</g>
<!-- Node10 -->
<g id="node10" class="node">
<title>Node10</title>
<g id="a_node10"><a xlink:title=" ">
<polygon fill="white" stroke="#bfbfbf" points="1115,-633.5 1115,-690.5 1259,-690.5 1259,-633.5 1115,-633.5"/>
<text text-anchor="middle" x="1187" y="-678.5" font-family="Helvetica,sans-Serif" font-size="10.00">static constexpr size_type</text>
<polyline fill="none" stroke="#bfbfbf" points="1115,-671.5 1259,-671.5 "/>
<text text-anchor="middle" x="1187" y="-659.5" font-family="Helvetica,sans-Serif" font-size="10.00"> </text>
<polyline fill="none" stroke="#bfbfbf" points="1115,-652.5 1259,-652.5 "/>
<text text-anchor="middle" x="1187" y="-640.5" font-family="Helvetica,sans-Serif" font-size="10.00"> </text>
</a>
</g>
</g>
<!-- Node10&#45;&gt;Node1 -->
<g id="edge9" class="edge">
<title>Node10&#45;&gt;Node1</title>
<path fill="none" stroke="#404040" d="M1180.99,-633.48C1172.54,-600.02 1154.44,-543.27 1122,-505 1033.98,-401.15 893.81,-325.47 800.86,-283.24"/>
<polygon fill="none" stroke="#404040" points="800.71,-283.17 793.6,-284.36 789.77,-278.25 796.88,-277.06 800.71,-283.17"/>
<text text-anchor="middle" x="1204.5" y="-552" font-family="Helvetica,sans-Serif" font-size="10.00"> +DefaultCTX</text>
</g>
</g>
</svg>
