<?xml version="1.0" encoding="UTF-8" standalone="no"?>
<!DOCTYPE svg PUBLIC "-//W3C//DTD SVG 1.1//EN"
 "http://www.w3.org/Graphics/SVG/1.1/DTD/svg11.dtd">
<!-- Generated by graphviz version 2.43.0 (0)
 -->
<!-- Title: Feel::BVH_ThirdParty&lt; MeshEntityType &gt; Pages: 1 -->
<svg width="516pt" height="624pt"
 viewBox="0.00 0.00 515.50 624.00" xmlns="http://www.w3.org/2000/svg" xmlns:xlink="http://www.w3.org/1999/xlink">
<g id="graph0" class="graph" transform="scale(1 1) rotate(0) translate(4 620)">
<title>Feel::BVH_ThirdParty&lt; MeshEntityType &gt;</title>
<polygon fill="white" stroke="transparent" points="-4,4 -4,-620 511.5,-620 511.5,4 -4,4"/>
<!-- Node1 -->
<g id="node1" class="node">
<title>Node1</title>
<g id="a_node1"><a xlink:title="implementation of BVH tool with an external third party">
<polygon fill="#bfbfbf" stroke="black" points="204,-0.5 204,-90.5 323,-90.5 323,-0.5 204,-0.5"/>
<text text-anchor="start" x="212" y="-78.5" font-family="Helvetica,sans-Serif" font-size="10.00">Feel::BVH_ThirdParty</text>
<text text-anchor="middle" x="263.5" y="-67.5" font-family="Helvetica,sans-Serif" font-size="10.00">&lt; MeshEntityType &gt;</text>
<polyline fill="none" stroke="black" points="204,-60.5 323,-60.5 "/>
<text text-anchor="middle" x="263.5" y="-48.5" font-family="Helvetica,sans-Serif" font-size="10.00"> </text>
<polyline fill="none" stroke="black" points="204,-41.5 323,-41.5 "/>
<text text-anchor="start" x="212" y="-29.5" font-family="Helvetica,sans-Serif" font-size="10.00">+ BVH_ThirdParty()</text>
<text text-anchor="start" x="212" y="-18.5" font-family="Helvetica,sans-Serif" font-size="10.00">+ BVH_ThirdParty()</text>
<text text-anchor="start" x="212" y="-7.5" font-family="Helvetica,sans-Serif" font-size="10.00">+ updateForUse()</text>
</a>
</g>
</g>
<!-- Node2 -->
<g id="node2" class="node">
<title>Node2</title>
<g id="a_node2"><a xlink:href="classFeel_1_1BVH.html" target="_top" xlink:title="BVH base class.">
<polygon fill="white" stroke="black" points="181.5,-128.5 181.5,-273.5 345.5,-273.5 345.5,-128.5 181.5,-128.5"/>
<text text-anchor="middle" x="263.5" y="-261.5" font-family="Helvetica,sans-Serif" font-size="10.00">Feel::BVH&lt; MeshEntityType &gt;</text>
<polyline fill="none" stroke="black" points="181.5,-254.5 345.5,-254.5 "/>
<text text-anchor="middle" x="263.5" y="-242.5" font-family="Helvetica,sans-Serif" font-size="10.00"> </text>
<polyline fill="none" stroke="black" points="181.5,-235.5 345.5,-235.5 "/>
<text text-anchor="start" x="189.5" y="-223.5" font-family="Helvetica,sans-Serif" font-size="10.00">+ BVH()</text>
<text text-anchor="start" x="189.5" y="-212.5" font-family="Helvetica,sans-Serif" font-size="10.00">+ BVH()</text>
<text text-anchor="start" x="189.5" y="-201.5" font-family="Helvetica,sans-Serif" font-size="10.00">+ BVH()</text>
<text text-anchor="start" x="189.5" y="-190.5" font-family="Helvetica,sans-Serif" font-size="10.00">+ intersect()</text>
<text text-anchor="start" x="189.5" y="-179.5" font-family="Helvetica,sans-Serif" font-size="10.00">+ primitiveInfo()</text>
<text text-anchor="start" x="189.5" y="-168.5" font-family="Helvetica,sans-Serif" font-size="10.00">+ primitiveInfo()</text>
<text text-anchor="start" x="189.5" y="-157.5" font-family="Helvetica,sans-Serif" font-size="10.00">+ ~BVH()</text>
<text text-anchor="start" x="189.5" y="-146.5" font-family="Helvetica,sans-Serif" font-size="10.00"># intersectSequential()</text>
<text text-anchor="start" x="189.5" y="-135.5" font-family="Helvetica,sans-Serif" font-size="10.00"># updateForUse()</text>
</a>
</g>
</g>
<!-- Node2&#45;&gt;Node1 -->
<g id="edge1" class="edge">
<title>Node2&#45;&gt;Node1</title>
<path fill="none" stroke="midnightblue" d="M263.5,-117.98C263.5,-108.59 263.5,-99.3 263.5,-90.68"/>
<polygon fill="none" stroke="midnightblue" points="260,-118.19 263.5,-128.19 267,-118.19 260,-118.19"/>
</g>
<!-- Node3 -->
<g id="node3" class="node">
<title>Node3</title>
<g id="a_node3"><a xlink:href="classFeel_1_1CommObject.html" target="_top" xlink:title=" ">
<polygon fill="white" stroke="#bfbfbf" points="0,-332.5 0,-444.5 107,-444.5 107,-332.5 0,-332.5"/>
<text text-anchor="middle" x="53.5" y="-432.5" font-family="Helvetica,sans-Serif" font-size="10.00">Feel::CommObject</text>
<polyline fill="none" stroke="#bfbfbf" points="0,-425.5 107,-425.5 "/>
<text text-anchor="middle" x="53.5" y="-413.5" font-family="Helvetica,sans-Serif" font-size="10.00"> </text>
<polyline fill="none" stroke="#bfbfbf" points="0,-406.5 107,-406.5 "/>
<text text-anchor="start" x="8" y="-394.5" font-family="Helvetica,sans-Serif" font-size="10.00">+ comm()</text>
<text text-anchor="start" x="8" y="-383.5" font-family="Helvetica,sans-Serif" font-size="10.00">+ CommObject()</text>
<text text-anchor="start" x="8" y="-372.5" font-family="Helvetica,sans-Serif" font-size="10.00">+ CommObject()</text>
<text text-anchor="start" x="8" y="-361.5" font-family="Helvetica,sans-Serif" font-size="10.00">+ CommObject()</text>
<text text-anchor="start" x="8" y="-350.5" font-family="Helvetica,sans-Serif" font-size="10.00">+ CommObject()</text>
<text text-anchor="start" x="8" y="-339.5" font-family="Helvetica,sans-Serif" font-size="10.00">and 13 more...</text>
</a>
</g>
</g>
<!-- Node3&#45;&gt;Node2 -->
<g id="edge2" class="edge">
<title>Node3&#45;&gt;Node2</title>
<path fill="none" stroke="midnightblue" d="M114.74,-332.68C114.99,-332.45 115.25,-332.22 115.5,-332 136.87,-313.05 160.04,-292.64 181.57,-273.72"/>
<polygon fill="none" stroke="midnightblue" points="112.39,-330.08 107.24,-339.34 117.04,-335.31 112.39,-330.08"/>
</g>
<!-- Node4 -->
<g id="node4" class="node">
<title>Node4</title>
<g id="a_node4"><a xlink:title=" ">
<polygon fill="white" stroke="#bfbfbf" points="125,-360 125,-417 280,-417 280,-360 125,-360"/>
<text text-anchor="middle" x="202.5" y="-405" font-family="Helvetica,sans-Serif" font-size="10.00">static constexpr uint16_type</text>
<polyline fill="none" stroke="#bfbfbf" points="125,-398 280,-398 "/>
<text text-anchor="middle" x="202.5" y="-386" font-family="Helvetica,sans-Serif" font-size="10.00"> </text>
<polyline fill="none" stroke="#bfbfbf" points="125,-379 280,-379 "/>
<text text-anchor="middle" x="202.5" y="-367" font-family="Helvetica,sans-Serif" font-size="10.00"> </text>
</a>
</g>
</g>
<!-- Node4&#45;&gt;Node2 -->
<g id="edge3" class="edge">
<title>Node4&#45;&gt;Node2</title>
<path fill="none" stroke="#404040" d="M211.63,-359.73C218.18,-339.83 227.36,-311.91 236.18,-285.09"/>
<polygon fill="none" stroke="#404040" points="236.18,-285.08 234.25,-278.13 239.93,-273.68 241.85,-280.63 236.18,-285.08"/>
<text text-anchor="middle" x="262" y="-306" font-family="Helvetica,sans-Serif" font-size="10.00"> +nDim</text>
<text text-anchor="middle" x="262" y="-295" font-family="Helvetica,sans-Serif" font-size="10.00">+nRealDim</text>
</g>
<!-- Node5 -->
<g id="node5" class="node">
<title>Node5</title>
<g id="a_node5"><a xlink:title=" ">
<polygon fill="white" stroke="black" points="298,-354.5 298,-422.5 437,-422.5 437,-354.5 298,-354.5"/>
<text text-anchor="start" x="306" y="-410.5" font-family="Helvetica,sans-Serif" font-size="10.00">std::vector&lt; Feel::</text>
<text text-anchor="middle" x="367.5" y="-399.5" font-family="Helvetica,sans-Serif" font-size="10.00">BVH::BVHPrimitiveInfo &gt;</text>
<polyline fill="none" stroke="black" points="298,-392.5 437,-392.5 "/>
<text text-anchor="middle" x="367.5" y="-380.5" font-family="Helvetica,sans-Serif" font-size="10.00"> </text>
<polyline fill="none" stroke="black" points="298,-373.5 437,-373.5 "/>
<text text-anchor="middle" x="367.5" y="-361.5" font-family="Helvetica,sans-Serif" font-size="10.00"> </text>
</a>
</g>
</g>
<!-- Node5&#45;&gt;Node2 -->
<g id="edge4" class="edge">
<title>Node5&#45;&gt;Node2</title>
<path fill="none" stroke="#404040" d="M348.91,-354.34C337.92,-334.73 323.47,-308.97 309.59,-284.22"/>
<polygon fill="none" stroke="#404040" points="309.56,-284.16 303.14,-280.88 303.69,-273.69 310.12,-276.97 309.56,-284.16"/>
<text text-anchor="middle" x="369" y="-300.5" font-family="Helvetica,sans-Serif" font-size="10.00"> #M_primitiveInfo</text>
</g>
<!-- Node6 -->
<g id="node6" class="node">
<title>Node6</title>
<g id="a_node6"><a xlink:href="structFeel_1_1BVH_1_1BVHPrimitiveInfo.html" target="_top" xlink:title="Information on the primitive (mesh entity, bounding box, centroid)">
<polygon fill="white" stroke="black" points="291.5,-492.5 291.5,-615.5 443.5,-615.5 443.5,-492.5 291.5,-492.5"/>
<text text-anchor="start" x="299.5" y="-603.5" font-family="Helvetica,sans-Serif" font-size="10.00">Feel::BVH&lt; MeshEntityType</text>
<text text-anchor="middle" x="367.5" y="-592.5" font-family="Helvetica,sans-Serif" font-size="10.00"> &gt;::BVHPrimitiveInfo</text>
<polyline fill="none" stroke="black" points="291.5,-585.5 443.5,-585.5 "/>
<text text-anchor="middle" x="367.5" y="-573.5" font-family="Helvetica,sans-Serif" font-size="10.00"> </text>
<polyline fill="none" stroke="black" points="291.5,-566.5 443.5,-566.5 "/>
<text text-anchor="start" x="299.5" y="-554.5" font-family="Helvetica,sans-Serif" font-size="10.00">+ boundMax()</text>
<text text-anchor="start" x="299.5" y="-543.5" font-family="Helvetica,sans-Serif" font-size="10.00">+ boundMin()</text>
<text text-anchor="start" x="299.5" y="-532.5" font-family="Helvetica,sans-Serif" font-size="10.00">+ BVHPrimitiveInfo()</text>
<text text-anchor="start" x="299.5" y="-521.5" font-family="Helvetica,sans-Serif" font-size="10.00">+ BVHPrimitiveInfo()</text>
<text text-anchor="start" x="299.5" y="-510.5" font-family="Helvetica,sans-Serif" font-size="10.00">+ BVHPrimitiveInfo()</text>
<text text-anchor="start" x="299.5" y="-499.5" font-family="Helvetica,sans-Serif" font-size="10.00">and 4 more...</text>
</a>
</g>
</g>
<!-- Node6&#45;&gt;Node5 -->
<g id="edge5" class="edge">
<title>Node6&#45;&gt;Node5</title>
<path fill="none" stroke="#404040" d="M367.5,-492.12C367.5,-473.18 367.5,-452.64 367.5,-434.94"/>
<polygon fill="none" stroke="#404040" points="367.5,-434.91 363.5,-428.91 367.5,-422.91 371.5,-428.91 367.5,-434.91"/>
<text text-anchor="middle" x="396.5" y="-466" font-family="Helvetica,sans-Serif" font-size="10.00"> +elements</text>
</g>
<!-- Node7 -->
<g id="node7" class="node">
<title>Node7</title>
<g id="a_node7"><a xlink:title=" ">
<polygon fill="white" stroke="#bfbfbf" points="455.5,-360 455.5,-417 507.5,-417 507.5,-360 455.5,-360"/>
<text text-anchor="middle" x="481.5" y="-405" font-family="Helvetica,sans-Serif" font-size="10.00">Quality</text>
<polyline fill="none" stroke="#bfbfbf" points="455.5,-398 507.5,-398 "/>
<text text-anchor="middle" x="481.5" y="-386" font-family="Helvetica,sans-Serif" font-size="10.00"> </text>
<polyline fill="none" stroke="#bfbfbf" points="455.5,-379 507.5,-379 "/>
<text text-anchor="middle" x="481.5" y="-367" font-family="Helvetica,sans-Serif" font-size="10.00"> </text>
</a>
</g>
</g>
<!-- Node7&#45;&gt;Node2 -->
<g id="edge6" class="edge">
<title>Node7&#45;&gt;Node2</title>
<path fill="none" stroke="#404040" d="M467.7,-359.74C456.39,-339.1 438.8,-311.3 417.5,-292 399.26,-275.47 377.5,-260.53 356.16,-247.78"/>
<polygon fill="none" stroke="#404040" points="356.1,-247.75 348.9,-248.18 345.74,-241.7 352.93,-241.27 356.1,-247.75"/>
<text text-anchor="middle" x="466.5" y="-300.5" font-family="Helvetica,sans-Serif" font-size="10.00"> #M_quality</text>
</g>
</g>
</svg>
