<?xml version="1.0" encoding="UTF-8" standalone="no"?>
<!DOCTYPE svg PUBLIC "-//W3C//DTD SVG 1.1//EN"
 "http://www.w3.org/Graphics/SVG/1.1/DTD/svg11.dtd">
<!-- Generated by graphviz version 2.43.0 (0)
 -->
<!-- Title: Feel::GinacExprManagerImpl Pages: 1 -->
<svg width="240pt" height="288pt"
 viewBox="0.00 0.00 239.50 288.00" xmlns="http://www.w3.org/2000/svg" xmlns:xlink="http://www.w3.org/1999/xlink">
<g id="graph0" class="graph" transform="scale(1 1) rotate(0) translate(4 284)">
<title>Feel::GinacExprManagerImpl</title>
<polygon fill="white" stroke="transparent" points="-4,4 -4,-284 235.5,-284 235.5,4 -4,4"/>
<!-- Node1 -->
<g id="node1" class="node">
<title>Node1</title>
<g id="a_node1"><a xlink:title=" ">
<polygon fill="#bfbfbf" stroke="black" points="50.5,-0.5 50.5,-57.5 207.5,-57.5 207.5,-0.5 50.5,-0.5"/>
<text text-anchor="middle" x="129" y="-45.5" font-family="Helvetica,sans-Serif" font-size="10.00">Feel::GinacExprManagerImpl</text>
<polyline fill="none" stroke="black" points="50.5,-38.5 207.5,-38.5 "/>
<text text-anchor="middle" x="129" y="-26.5" font-family="Helvetica,sans-Serif" font-size="10.00"> </text>
<polyline fill="none" stroke="black" points="50.5,-19.5 207.5,-19.5 "/>
<text text-anchor="middle" x="129" y="-7.5" font-family="Helvetica,sans-Serif" font-size="10.00"> </text>
</a>
</g>
</g>
<!-- Node2 -->
<g id="node2" class="node">
<title>Node2</title>
<g id="a_node2"><a xlink:title="STL class.">
<polygon fill="white" stroke="#bfbfbf" points="0,-95.5 0,-174.5 134,-174.5 134,-95.5 0,-95.5"/>
<text text-anchor="start" x="8" y="-162.5" font-family="Helvetica,sans-Serif" font-size="10.00">std::map&lt; std::string,</text>
<text text-anchor="start" x="8" y="-151.5" font-family="Helvetica,sans-Serif" font-size="10.00"> std::shared_ptr&lt; GiNaC</text>
<text text-anchor="middle" x="67" y="-140.5" font-family="Helvetica,sans-Serif" font-size="10.00">::FUNCP_CUBA &gt; &gt;</text>
<polyline fill="none" stroke="#bfbfbf" points="0,-133.5 134,-133.5 "/>
<text text-anchor="middle" x="67" y="-121.5" font-family="Helvetica,sans-Serif" font-size="10.00"> </text>
<polyline fill="none" stroke="#bfbfbf" points="0,-114.5 134,-114.5 "/>
<text text-anchor="middle" x="67" y="-102.5" font-family="Helvetica,sans-Serif" font-size="10.00"> </text>
</a>
</g>
</g>
<!-- Node2&#45;&gt;Node1 -->
<g id="edge1" class="edge">
<title>Node2&#45;&gt;Node1</title>
<path fill="none" stroke="midnightblue" d="M95.22,-86.66C101.13,-76.76 107.17,-66.62 112.48,-57.72"/>
<polygon fill="none" stroke="midnightblue" points="92.2,-84.89 90.09,-95.27 98.21,-88.48 92.2,-84.89"/>
</g>
<!-- Node3 -->
<g id="node3" class="node">
<title>Node3</title>
<g id="a_node3"><a xlink:title=" ">
<polygon fill="white" stroke="#bfbfbf" points="24.5,-222.5 24.5,-279.5 53.5,-279.5 53.5,-222.5 24.5,-222.5"/>
<text text-anchor="middle" x="39" y="-267.5" font-family="Helvetica,sans-Serif" font-size="10.00">K</text>
<polyline fill="none" stroke="#bfbfbf" points="24.5,-260.5 53.5,-260.5 "/>
<text text-anchor="middle" x="39" y="-248.5" font-family="Helvetica,sans-Serif" font-size="10.00"> </text>
<polyline fill="none" stroke="#bfbfbf" points="24.5,-241.5 53.5,-241.5 "/>
<text text-anchor="middle" x="39" y="-229.5" font-family="Helvetica,sans-Serif" font-size="10.00"> </text>
</a>
</g>
</g>
<!-- Node3&#45;&gt;Node2 -->
<g id="edge2" class="edge">
<title>Node3&#45;&gt;Node2</title>
<path fill="none" stroke="#404040" d="M37.15,-222.46C37.12,-213.01 37.79,-202.44 40,-193 40.53,-190.72 41.17,-188.43 41.88,-186.13"/>
<polygon fill="none" stroke="#404040" points="41.91,-186.05 40.19,-179.04 46,-174.76 47.71,-181.77 41.91,-186.05"/>
<text text-anchor="middle" x="57" y="-196" font-family="Helvetica,sans-Serif" font-size="10.00"> +keys</text>
</g>
<!-- Node4 -->
<g id="node4" class="node">
<title>Node4</title>
<g id="a_node4"><a xlink:title=" ">
<polygon fill="white" stroke="#bfbfbf" points="81.5,-222.5 81.5,-279.5 110.5,-279.5 110.5,-222.5 81.5,-222.5"/>
<text text-anchor="middle" x="96" y="-267.5" font-family="Helvetica,sans-Serif" font-size="10.00">T</text>
<polyline fill="none" stroke="#bfbfbf" points="81.5,-260.5 110.5,-260.5 "/>
<text text-anchor="middle" x="96" y="-248.5" font-family="Helvetica,sans-Serif" font-size="10.00"> </text>
<polyline fill="none" stroke="#bfbfbf" points="81.5,-241.5 110.5,-241.5 "/>
<text text-anchor="middle" x="96" y="-229.5" font-family="Helvetica,sans-Serif" font-size="10.00"> </text>
</a>
</g>
</g>
<!-- Node4&#45;&gt;Node2 -->
<g id="edge3" class="edge">
<title>Node4&#45;&gt;Node2</title>
<path fill="none" stroke="#404040" d="M88.98,-222.4C86.21,-211.52 82.94,-198.66 79.78,-186.24"/>
<polygon fill="none" stroke="#404040" points="79.76,-186.17 74.41,-181.34 76.8,-174.54 82.16,-179.37 79.76,-186.17"/>
<text text-anchor="middle" x="114" y="-196" font-family="Helvetica,sans-Serif" font-size="10.00"> +elements</text>
</g>
<!-- Node5 -->
<g id="node5" class="node">
<title>Node5</title>
<g id="a_node5"><a xlink:title=" ">
<polygon fill="white" stroke="#bfbfbf" points="152.5,-106.5 152.5,-163.5 231.5,-163.5 231.5,-106.5 152.5,-106.5"/>
<text text-anchor="middle" x="192" y="-151.5" font-family="Helvetica,sans-Serif" font-size="10.00">noncopyable</text>
<polyline fill="none" stroke="#bfbfbf" points="152.5,-144.5 231.5,-144.5 "/>
<text text-anchor="middle" x="192" y="-132.5" font-family="Helvetica,sans-Serif" font-size="10.00"> </text>
<polyline fill="none" stroke="#bfbfbf" points="152.5,-125.5 231.5,-125.5 "/>
<text text-anchor="middle" x="192" y="-113.5" font-family="Helvetica,sans-Serif" font-size="10.00"> </text>
</a>
</g>
</g>
<!-- Node5&#45;&gt;Node1 -->
<g id="edge4" class="edge">
<title>Node5&#45;&gt;Node1</title>
<path fill="none" stroke="midnightblue" d="M169.96,-97.62C162.03,-84.52 153.21,-69.97 145.8,-57.73"/>
<polygon fill="none" stroke="midnightblue" points="167.11,-99.66 175.28,-106.4 173.09,-96.04 167.11,-99.66"/>
</g>
</g>
</svg>
