<?xml version="1.0" encoding="UTF-8" standalone="no"?>
<!DOCTYPE svg PUBLIC "-//W3C//DTD SVG 1.1//EN"
 "http://www.w3.org/Graphics/SVG/1.1/DTD/svg11.dtd">
<!-- Generated by graphviz version 2.43.0 (0)
 -->
<!-- Title: Feel::CNAB2&lt; FieldType &gt; Pages: 1 -->
<!--zoomable 613 -->
<svg id="main" version="1.1" xmlns="http://www.w3.org/2000/svg" xmlns:xlink="http://www.w3.org/1999/xlink" xml:space="preserve" onload="init(evt)">
<style type="text/css"><![CDATA[
.edge:hover path { stroke: red; }
.edge:hover polygon { stroke: red; fill: red; }
]]></style>
<script type="text/javascript"><![CDATA[
var edges = document.getElementsByTagName('g');
if (edges && edges.length) {
  for (var i=0;i<edges.length;i++) {
    if (edges[i].id.substr(0,4)=='edge') {
      edges[i].setAttribute('class','edge');
    }
  }
}
]]></script>
        <defs>
                <circle id="rim" cx="0" cy="0" r="7"/>
                <circle id="rim2" cx="0" cy="0" r="3.5"/>
                <g id="zoomPlus">
                        <use xlink:href="#rim" fill="#404040">
                                <set attributeName="fill" to="#808080" begin="zoomplus.mouseover" end="zoomplus.mouseout"/>
                        </use>
                        <path d="M-4,0h8M0,-4v8" fill="none" stroke="white" stroke-width="1.5" pointer-events="none"/>
                </g>
                <g id="zoomMin">
                        <use xlink:href="#rim" fill="#404040">
                                <set attributeName="fill" to="#808080" begin="zoomminus.mouseover" end="zoomminus.mouseout"/>
                        </use>
                        <path d="M-4,0h8" fill="none" stroke="white" stroke-width="1.5" pointer-events="none"/>
                </g>
                <g id="dirArrow">
                        <path fill="none" stroke="white" stroke-width="1.5" d="M0,-3.0v7 M-2.5,-0.5L0,-3.0L2.5,-0.5"/>
                </g>
               <g id="resetDef">
                       <use xlink:href="#rim2" fill="#404040">
                               <set attributeName="fill" to="#808080" begin="reset.mouseover" end="reset.mouseout"/>
                       </use>
               </g>
        </defs>

<script type="text/javascript">
var viewWidth = 442;
var viewHeight = 613;
var sectionId = 'dynsection-1';
</script>
<script xlink:href="svgpan.js"/>
<svg id="graph" class="graph">
<g id="viewport">
<title>Feel::CNAB2&lt; FieldType &gt;</title>
<polygon fill="white" stroke="transparent" points="-4,4 -4,-609 437.5,-609 437.5,4 -4,4"/>
<!-- Node1 -->
<g id="node1" class="node">
<title>Node1</title>
<g id="a_node1"><a xlink:title=" ">
<polygon fill="#bfbfbf" stroke="black" points="150,-0.5 150,-134.5 285,-134.5 285,-0.5 150,-0.5"/>
<text text-anchor="middle" x="217.5" y="-122.5" font-family="Helvetica,sans-Serif" font-size="10.00">Feel::CNAB2&lt; FieldType &gt;</text>
<polyline fill="none" stroke="black" points="150,-115.5 285,-115.5 "/>
<text text-anchor="start" x="158" y="-103.5" font-family="Helvetica,sans-Serif" font-size="10.00">+ ustar</text>
<text text-anchor="start" x="158" y="-92.5" font-family="Helvetica,sans-Serif" font-size="10.00">+ w</text>
<text text-anchor="start" x="158" y="-81.5" font-family="Helvetica,sans-Serif" font-size="10.00">+ ww</text>
<polyline fill="none" stroke="black" points="150,-74.5 285,-74.5 "/>
<text text-anchor="start" x="158" y="-62.5" font-family="Helvetica,sans-Serif" font-size="10.00">+ addStep()</text>
<text text-anchor="start" x="158" y="-51.5" font-family="Helvetica,sans-Serif" font-size="10.00">+ addStep()</text>
<text text-anchor="start" x="158" y="-40.5" font-family="Helvetica,sans-Serif" font-size="10.00">+ addStep()</text>
<text text-anchor="start" x="158" y="-29.5" font-family="Helvetica,sans-Serif" font-size="10.00">+ averaging()</text>
<text text-anchor="start" x="158" y="-18.5" font-family="Helvetica,sans-Serif" font-size="10.00">+ CNAB2()</text>
<text text-anchor="start" x="158" y="-7.5" font-family="Helvetica,sans-Serif" font-size="10.00">and 11 more...</text>
</a>
</g>
</g>
<!-- Node2 -->
<g id="node2" class="node">
<title>Node2</title>
<g id="a_node2"><a xlink:href="classFeel_1_1TimeSet.html" target="_top" xlink:title="Handles a set of time steps.">
<polygon fill="white" stroke="black" points="4.5,-292.5 4.5,-404.5 82.5,-404.5 82.5,-292.5 4.5,-292.5"/>
<text text-anchor="middle" x="43.5" y="-392.5" font-family="Helvetica,sans-Serif" font-size="10.00">Feel::TimeSet</text>
<polyline fill="none" stroke="black" points="4.5,-385.5 82.5,-385.5 "/>
<text text-anchor="middle" x="43.5" y="-373.5" font-family="Helvetica,sans-Serif" font-size="10.00"> </text>
<polyline fill="none" stroke="black" points="4.5,-366.5 82.5,-366.5 "/>
<text text-anchor="start" x="12.5" y="-354.5" font-family="Helvetica,sans-Serif" font-size="10.00">+ index()</text>
<text text-anchor="start" x="12.5" y="-343.5" font-family="Helvetica,sans-Serif" font-size="10.00">+ k()</text>
<text text-anchor="start" x="12.5" y="-332.5" font-family="Helvetica,sans-Serif" font-size="10.00">+ k()</text>
<text text-anchor="start" x="12.5" y="-321.5" font-family="Helvetica,sans-Serif" font-size="10.00">+ kprev()</text>
<text text-anchor="start" x="12.5" y="-310.5" font-family="Helvetica,sans-Serif" font-size="10.00">+ kprev()</text>
<text text-anchor="start" x="12.5" y="-299.5" font-family="Helvetica,sans-Serif" font-size="10.00">and 8 more...</text>
</a>
</g>
</g>
<!-- Node2&#45;&gt;Node1 -->
<g id="edge1" class="edge">
<title>Node2&#45;&gt;Node1</title>
<path fill="none" stroke="midnightblue" d="M53.42,-282.32C61.95,-242.21 77.34,-191.34 104.5,-153 116.54,-136.01 133.04,-120.99 149.71,-108.5"/>
<polygon fill="none" stroke="midnightblue" points="49.96,-281.77 51.4,-292.27 56.82,-283.17 49.96,-281.77"/>
</g>
<!-- Node3 -->
<g id="node3" class="node">
<title>Node3</title>
<g id="a_node3"><a xlink:title=" ">
<polygon fill="white" stroke="black" points="0,-442.5 0,-499.5 87,-499.5 87,-442.5 0,-442.5"/>
<text text-anchor="middle" x="43.5" y="-487.5" font-family="Helvetica,sans-Serif" font-size="10.00">std::vector&lt; T &gt;</text>
<polyline fill="none" stroke="black" points="0,-480.5 87,-480.5 "/>
<text text-anchor="middle" x="43.5" y="-468.5" font-family="Helvetica,sans-Serif" font-size="10.00"> </text>
<polyline fill="none" stroke="black" points="0,-461.5 87,-461.5 "/>
<text text-anchor="middle" x="43.5" y="-449.5" font-family="Helvetica,sans-Serif" font-size="10.00"> </text>
</a>
</g>
</g>
<!-- Node3&#45;&gt;Node2 -->
<g id="edge2" class="edge">
<title>Node3&#45;&gt;Node2</title>
<path fill="none" stroke="midnightblue" d="M43.5,-432.11C43.5,-423.36 43.5,-413.88 43.5,-404.57"/>
<polygon fill="none" stroke="midnightblue" points="40,-432.35 43.5,-442.35 47,-432.35 40,-432.35"/>
</g>
<!-- Node4 -->
<g id="node4" class="node">
<title>Node4</title>
<g id="a_node4"><a xlink:title=" ">
<polygon fill="white" stroke="#bfbfbf" points="29,-547.5 29,-604.5 58,-604.5 58,-547.5 29,-547.5"/>
<text text-anchor="middle" x="43.5" y="-592.5" font-family="Helvetica,sans-Serif" font-size="10.00">T</text>
<polyline fill="none" stroke="#bfbfbf" points="29,-585.5 58,-585.5 "/>
<text text-anchor="middle" x="43.5" y="-573.5" font-family="Helvetica,sans-Serif" font-size="10.00"> </text>
<polyline fill="none" stroke="#bfbfbf" points="29,-566.5 58,-566.5 "/>
<text text-anchor="middle" x="43.5" y="-554.5" font-family="Helvetica,sans-Serif" font-size="10.00"> </text>
</a>
</g>
</g>
<!-- Node4&#45;&gt;Node3 -->
<g id="edge3" class="edge">
<title>Node4&#45;&gt;Node3</title>
<path fill="none" stroke="#404040" d="M43.5,-547.4C43.5,-536.55 43.5,-523.87 43.5,-512.05"/>
<polygon fill="none" stroke="#404040" points="43.5,-511.68 39.5,-505.68 43.5,-499.68 47.5,-505.68 43.5,-511.68"/>
<text text-anchor="middle" x="68" y="-521" font-family="Helvetica,sans-Serif" font-size="10.00"> +elements</text>
</g>
<!-- Node5 -->
<g id="node5" class="node">
<title>Node5</title>
<g id="a_node5"><a xlink:href="classbool.html" target="_top" xlink:title=" ">
<polygon fill="white" stroke="#bfbfbf" points="101,-320 101,-377 136,-377 136,-320 101,-320"/>
<text text-anchor="middle" x="118.5" y="-365" font-family="Helvetica,sans-Serif" font-size="10.00">bool</text>
<polyline fill="none" stroke="#bfbfbf" points="101,-358 136,-358 "/>
<text text-anchor="middle" x="118.5" y="-346" font-family="Helvetica,sans-Serif" font-size="10.00"> </text>
<polyline fill="none" stroke="#bfbfbf" points="101,-339 136,-339 "/>
<text text-anchor="middle" x="118.5" y="-327" font-family="Helvetica,sans-Serif" font-size="10.00"> </text>
</a>
</g>
</g>
<!-- Node5&#45;&gt;Node1 -->
<g id="edge4" class="edge">
<title>Node5&#45;&gt;Node1</title>
<path fill="none" stroke="#404040" d="M113.31,-319.88C107.33,-280.74 101.26,-207.79 126.5,-153 130.43,-144.46 135.67,-136.38 141.64,-128.85"/>
<polygon fill="none" stroke="#404040" points="141.75,-128.72 142.62,-121.57 149.56,-119.62 148.69,-126.77 141.75,-128.72"/>
<text text-anchor="middle" x="146" y="-211" font-family="Helvetica,sans-Serif" font-size="10.00"> +steady</text>
</g>
<!-- Node6 -->
<g id="node6" class="node">
<title>Node6</title>
<g id="a_node6"><a xlink:title=" ">
<polygon fill="white" stroke="#bfbfbf" points="158,-320 158,-377 203,-377 203,-320 158,-320"/>
<text text-anchor="middle" x="180.5" y="-365" font-family="Helvetica,sans-Serif" font-size="10.00">double</text>
<polyline fill="none" stroke="#bfbfbf" points="158,-358 203,-358 "/>
<text text-anchor="middle" x="180.5" y="-346" font-family="Helvetica,sans-Serif" font-size="10.00"> </text>
<polyline fill="none" stroke="#bfbfbf" points="158,-339 203,-339 "/>
<text text-anchor="middle" x="180.5" y="-327" font-family="Helvetica,sans-Serif" font-size="10.00"> </text>
</a>
</g>
</g>
<!-- Node6&#45;&gt;Node1 -->
<g id="edge5" class="edge">
<title>Node6&#45;&gt;Node1</title>
<path fill="none" stroke="#404040" d="M176.03,-319.7C170.81,-281.58 164.43,-211.16 177.5,-153 177.99,-150.84 178.53,-148.67 179.14,-146.49"/>
<polygon fill="none" stroke="#404040" points="179.19,-146.31 177.2,-139.38 182.82,-134.88 184.82,-141.81 179.19,-146.31"/>
<text text-anchor="middle" x="203.5" y="-227.5" font-family="Helvetica,sans-Serif" font-size="10.00"> +T</text>
<text text-anchor="middle" x="203.5" y="-216.5" font-family="Helvetica,sans-Serif" font-size="10.00">+k0</text>
<text text-anchor="middle" x="203.5" y="-205.5" font-family="Helvetica,sans-Serif" font-size="10.00">+keps</text>
<text text-anchor="middle" x="203.5" y="-194.5" font-family="Helvetica,sans-Serif" font-size="10.00">+steady_tol</text>
</g>
<!-- Node7 -->
<g id="node7" class="node">
<title>Node7</title>
<g id="a_node7"><a xlink:href="classint.html" target="_top" xlink:title=" ">
<polygon fill="white" stroke="#bfbfbf" points="232,-320 232,-377 261,-377 261,-320 232,-320"/>
<text text-anchor="middle" x="246.5" y="-365" font-family="Helvetica,sans-Serif" font-size="10.00">int</text>
<polyline fill="none" stroke="#bfbfbf" points="232,-358 261,-358 "/>
<text text-anchor="middle" x="246.5" y="-346" font-family="Helvetica,sans-Serif" font-size="10.00"> </text>
<polyline fill="none" stroke="#bfbfbf" points="232,-339 261,-339 "/>
<text text-anchor="middle" x="246.5" y="-327" font-family="Helvetica,sans-Serif" font-size="10.00"> </text>
</a>
</g>
</g>
<!-- Node7&#45;&gt;Node1 -->
<g id="edge6" class="edge">
<title>Node7&#45;&gt;Node1</title>
<path fill="none" stroke="#404040" d="M245.69,-319.7C244.36,-281.86 241.04,-212.08 233.5,-153 233.24,-150.96 232.96,-148.9 232.67,-146.82"/>
<polygon fill="none" stroke="#404040" points="232.64,-146.67 227.79,-141.34 230.84,-134.8 235.69,-140.13 232.64,-146.67"/>
<text text-anchor="middle" x="259" y="-211" font-family="Helvetica,sans-Serif" font-size="10.00"> +nstar</text>
</g>
<!-- Node8 -->
<g id="node8" class="node">
<title>Node8</title>
<g id="a_node8"><a xlink:title=" ">
<polygon fill="white" stroke="#bfbfbf" points="279.5,-320 279.5,-377 355.5,-377 355.5,-320 279.5,-320"/>
<text text-anchor="middle" x="317.5" y="-365" font-family="Helvetica,sans-Serif" font-size="10.00">mesh_ptrtype</text>
<polyline fill="none" stroke="#bfbfbf" points="279.5,-358 355.5,-358 "/>
<text text-anchor="middle" x="317.5" y="-346" font-family="Helvetica,sans-Serif" font-size="10.00"> </text>
<polyline fill="none" stroke="#bfbfbf" points="279.5,-339 355.5,-339 "/>
<text text-anchor="middle" x="317.5" y="-327" font-family="Helvetica,sans-Serif" font-size="10.00"> </text>
</a>
</g>
</g>
<!-- Node8&#45;&gt;Node1 -->
<g id="edge7" class="edge">
<title>Node8&#45;&gt;Node1</title>
<path fill="none" stroke="#404040" d="M315.67,-319.98C312.3,-281.27 303.02,-209.18 278.5,-153 277.41,-150.51 276.24,-148.02 275,-145.53"/>
<polygon fill="none" stroke="#404040" points="274.87,-145.3 268.5,-141.93 269.17,-134.74 275.54,-138.12 274.87,-145.3"/>
<text text-anchor="middle" x="326.5" y="-211" font-family="Helvetica,sans-Serif" font-size="10.00"> +mesh</text>
</g>
<!-- Node9 -->
<g id="node9" class="node">
<title>Node9</title>
<g id="a_node9"><a xlink:title=" ">
<polygon fill="white" stroke="#bfbfbf" points="374,-320 374,-377 433,-377 433,-320 374,-320"/>
<text text-anchor="middle" x="403.5" y="-365" font-family="Helvetica,sans-Serif" font-size="10.00">FieldType</text>
<polyline fill="none" stroke="#bfbfbf" points="374,-358 433,-358 "/>
<text text-anchor="middle" x="403.5" y="-346" font-family="Helvetica,sans-Serif" font-size="10.00"> </text>
<polyline fill="none" stroke="#bfbfbf" points="374,-339 433,-339 "/>
<text text-anchor="middle" x="403.5" y="-327" font-family="Helvetica,sans-Serif" font-size="10.00"> </text>
</a>
</g>
</g>
<!-- Node9&#45;&gt;Node1 -->
<g id="edge8" class="edge">
<title>Node9&#45;&gt;Node1</title>
<path fill="none" stroke="#404040" d="M401.58,-319.69C397.53,-279.34 385.14,-203.83 347.5,-153 333.85,-134.57 314.89,-119.05 295.67,-106.54"/>
<polygon fill="none" stroke="#404040" points="295.49,-106.43 288.28,-106.66 285.31,-100.09 292.51,-99.87 295.49,-106.43"/>
<text text-anchor="middle" x="414" y="-266" font-family="Helvetica,sans-Serif" font-size="10.00"> +acc</text>
<text text-anchor="middle" x="414" y="-255" font-family="Helvetica,sans-Serif" font-size="10.00">+acc_try</text>
<text text-anchor="middle" x="414" y="-244" font-family="Helvetica,sans-Serif" font-size="10.00">+accp</text>
<text text-anchor="middle" x="414" y="-233" font-family="Helvetica,sans-Serif" font-size="10.00">+accstar</text>
<text text-anchor="middle" x="414" y="-222" font-family="Helvetica,sans-Serif" font-size="10.00">+d</text>
<text text-anchor="middle" x="414" y="-211" font-family="Helvetica,sans-Serif" font-size="10.00">+dd</text>
<text text-anchor="middle" x="414" y="-200" font-family="Helvetica,sans-Serif" font-size="10.00">+u</text>
<text text-anchor="middle" x="414" y="-189" font-family="Helvetica,sans-Serif" font-size="10.00">+u_try</text>
<text text-anchor="middle" x="414" y="-178" font-family="Helvetica,sans-Serif" font-size="10.00">+uab2</text>
<text text-anchor="middle" x="414" y="-167" font-family="Helvetica,sans-Serif" font-size="10.00">+up</text>
<text text-anchor="middle" x="414" y="-156" font-family="Helvetica,sans-Serif" font-size="10.00">...</text>
</g>
</g>
</svg>
        <g id="navigator" transform="translate(0 0)" fill="#404254">
                <rect fill="#f2f5e9" fill-opacity="0.5" stroke="#606060" stroke-width=".5" x="0" y="0" width="60" height="60"/>
                <use id="zoomplus" xlink:href="#zoomPlus" x="17" y="9" onmousedown="handleZoom(evt,'in')"/>
                <use id="zoomminus" xlink:href="#zoomMin" x="42" y="9" onmousedown="handleZoom(evt,'out')"/>
                <use id="reset" xlink:href="#resetDef" x="30" y="36" onmousedown="handleReset()"/>
                <g id="arrowUp" xlink:href="#dirArrow" transform="translate(30 24)" onmousedown="handlePan(0,-1)">
                  <use xlink:href="#rim" fill="#404040">
                        <set attributeName="fill" to="#808080" begin="arrowUp.mouseover" end="arrowUp.mouseout"/>
                  </use>
                  <path fill="none" stroke="white" stroke-width="1.5" d="M0,-3.0v7 M-2.5,-0.5L0,-3.0L2.5,-0.5"/>
                </g>
                <g id="arrowRight" xlink:href="#dirArrow" transform="rotate(90) translate(36 -43)" onmousedown="handlePan(1,0)">
                  <use xlink:href="#rim" fill="#404040">
                        <set attributeName="fill" to="#808080" begin="arrowRight.mouseover" end="arrowRight.mouseout"/>
                  </use>
                  <path fill="none" stroke="white" stroke-width="1.5" d="M0,-3.0v7 M-2.5,-0.5L0,-3.0L2.5,-0.5"/>
                </g>
                <g id="arrowDown" xlink:href="#dirArrow" transform="rotate(180) translate(-30 -48)" onmousedown="handlePan(0,1)">
                  <use xlink:href="#rim" fill="#404040">
                        <set attributeName="fill" to="#808080" begin="arrowDown.mouseover" end="arrowDown.mouseout"/>
                  </use>
                  <path fill="none" stroke="white" stroke-width="1.5" d="M0,-3.0v7 M-2.5,-0.5L0,-3.0L2.5,-0.5"/>
                </g>
                <g id="arrowLeft" xlink:href="#dirArrow" transform="rotate(270) translate(-36 17)" onmousedown="handlePan(-1,0)">
                  <use xlink:href="#rim" fill="#404040">
                        <set attributeName="fill" to="#808080" begin="arrowLeft.mouseover" end="arrowLeft.mouseout"/>
                  </use>
                  <path fill="none" stroke="white" stroke-width="1.5" d="M0,-3.0v7 M-2.5,-0.5L0,-3.0L2.5,-0.5"/>
                </g>
        </g>
        <svg viewBox="0 0 15 15" width="100%" height="30px" preserveAspectRatio="xMaxYMin meet">
         <g id="arrow_out" transform="scale(0.3 0.3)">
          <a xlink:href="classFeel_1_1CNAB2__coll__graph_org.svg" target="_base">
           <rect id="button" ry="5" rx="5" y="6" x="6" height="38" width="38"
                fill="#f2f5e9" fill-opacity="0.5" stroke="#606060" stroke-width="1.0"/>
           <path id="arrow"
             d="M 11.500037,31.436501 C 11.940474,20.09759 22.043105,11.32322 32.158766,21.979434 L 37.068811,17.246167 C 37.068811,17.246167 37.088388,32 37.088388,32 L 22.160133,31.978069 C 22.160133,31.978069 26.997745,27.140456 26.997745,27.140456 C 18.528582,18.264221 13.291696,25.230495 11.500037,31.436501 z"
             style="fill:#404040;"/>
          </a>
         </g>
        </svg>
</svg>
