<?xml version="1.0" encoding="UTF-8" standalone="no"?>
<!DOCTYPE svg PUBLIC "-//W3C//DTD SVG 1.1//EN"
 "http://www.w3.org/Graphics/SVG/1.1/DTD/svg11.dtd">
<!-- Generated by graphviz version 2.43.0 (0)
 -->
<!-- Title: Feel::Mesh2D&lt; Shape, T, IndexT &gt; Pages: 1 -->
<!--zoomable 1377 -->
<svg id="main" version="1.1" xmlns="http://www.w3.org/2000/svg" xmlns:xlink="http://www.w3.org/1999/xlink" xml:space="preserve" onload="init(evt)">
<style type="text/css"><![CDATA[
.edge:hover path { stroke: red; }
.edge:hover polygon { stroke: red; fill: red; }
]]></style>
<script type="text/javascript"><![CDATA[
var edges = document.getElementsByTagName('g');
if (edges && edges.length) {
  for (var i=0;i<edges.length;i++) {
    if (edges[i].id.substr(0,4)=='edge') {
      edges[i].setAttribute('class','edge');
    }
  }
}
]]></script>
        <defs>
                <circle id="rim" cx="0" cy="0" r="7"/>
                <circle id="rim2" cx="0" cy="0" r="3.5"/>
                <g id="zoomPlus">
                        <use xlink:href="#rim" fill="#404040">
                                <set attributeName="fill" to="#808080" begin="zoomplus.mouseover" end="zoomplus.mouseout"/>
                        </use>
                        <path d="M-4,0h8M0,-4v8" fill="none" stroke="white" stroke-width="1.5" pointer-events="none"/>
                </g>
                <g id="zoomMin">
                        <use xlink:href="#rim" fill="#404040">
                                <set attributeName="fill" to="#808080" begin="zoomminus.mouseover" end="zoomminus.mouseout"/>
                        </use>
                        <path d="M-4,0h8" fill="none" stroke="white" stroke-width="1.5" pointer-events="none"/>
                </g>
                <g id="dirArrow">
                        <path fill="none" stroke="white" stroke-width="1.5" d="M0,-3.0v7 M-2.5,-0.5L0,-3.0L2.5,-0.5"/>
                </g>
               <g id="resetDef">
                       <use xlink:href="#rim2" fill="#404040">
                               <set attributeName="fill" to="#808080" begin="reset.mouseover" end="reset.mouseout"/>
                       </use>
               </g>
        </defs>

<script type="text/javascript">
var viewWidth = 1009;
var viewHeight = 1377;
var sectionId = 'dynsection-1';
</script>
<script xlink:href="svgpan.js"/>
<svg id="graph" class="graph">
<g id="viewport">
<title>Feel::Mesh2D&lt; Shape, T, IndexT &gt;</title>
<polygon fill="white" stroke="transparent" points="-4,4 -4,-1373 1005,-1373 1005,4 -4,4"/>
<!-- Node1 -->
<g id="node1" class="node">
<title>Node1</title>
<g id="a_node1"><a xlink:title="2D mesh class">
<polygon fill="#bfbfbf" stroke="black" points="400,-0.5 400,-332.5 562,-332.5 562,-0.5 400,-0.5"/>
<text text-anchor="start" x="408" y="-320.5" font-family="Helvetica,sans-Serif" font-size="10.00">Feel::Mesh2D&lt; Shape,</text>
<text text-anchor="middle" x="481" y="-309.5" font-family="Helvetica,sans-Serif" font-size="10.00"> T, IndexT &gt;</text>
<polyline fill="none" stroke="black" points="400,-302.5 562,-302.5 "/>
<text text-anchor="middle" x="481" y="-290.5" font-family="Helvetica,sans-Serif" font-size="10.00"> </text>
<polyline fill="none" stroke="black" points="400,-283.5 562,-283.5 "/>
<text text-anchor="start" x="408" y="-271.5" font-family="Helvetica,sans-Serif" font-size="10.00">* return_type</text>
<text text-anchor="start" x="408" y="-260.5" font-family="Helvetica,sans-Serif" font-size="10.00">* super_visitable</text>
<text text-anchor="start" x="408" y="-249.5" font-family="Helvetica,sans-Serif" font-size="10.00">* super</text>
<text text-anchor="start" x="408" y="-238.5" font-family="Helvetica,sans-Serif" font-size="10.00">* index_type</text>
<text text-anchor="start" x="408" y="-227.5" font-family="Helvetica,sans-Serif" font-size="10.00">* size_type</text>
<text text-anchor="start" x="408" y="-216.5" font-family="Helvetica,sans-Serif" font-size="10.00">and 26 more...</text>
<text text-anchor="start" x="408" y="-205.5" font-family="Helvetica,sans-Serif" font-size="10.00">* boost::serialization</text>
<text text-anchor="start" x="408" y="-194.5" font-family="Helvetica,sans-Serif" font-size="10.00">::access</text>
<text text-anchor="start" x="408" y="-183.5" font-family="Helvetica,sans-Serif" font-size="10.00">* beginEdge()</text>
<text text-anchor="start" x="408" y="-172.5" font-family="Helvetica,sans-Serif" font-size="10.00">* endEdge()</text>
<text text-anchor="start" x="408" y="-161.5" font-family="Helvetica,sans-Serif" font-size="10.00">* edges()</text>
<text text-anchor="start" x="408" y="-150.5" font-family="Helvetica,sans-Serif" font-size="10.00">* setWorldComm()</text>
<text text-anchor="start" x="408" y="-139.5" font-family="Helvetica,sans-Serif" font-size="10.00">and 8 more...</text>
<text text-anchor="start" x="408" y="-128.5" font-family="Helvetica,sans-Serif" font-size="10.00">* Mesh2D()</text>
<text text-anchor="start" x="408" y="-117.5" font-family="Helvetica,sans-Serif" font-size="10.00">* Mesh2D()</text>
<text text-anchor="start" x="408" y="-106.5" font-family="Helvetica,sans-Serif" font-size="10.00">* Mesh2D()</text>
<text text-anchor="start" x="408" y="-95.5" font-family="Helvetica,sans-Serif" font-size="10.00">* ~Mesh2D()</text>
<text text-anchor="start" x="408" y="-84.5" font-family="Helvetica,sans-Serif" font-size="10.00">* operator=()</text>
<text text-anchor="start" x="408" y="-73.5" font-family="Helvetica,sans-Serif" font-size="10.00">* operator=()</text>
<text text-anchor="start" x="408" y="-62.5" font-family="Helvetica,sans-Serif" font-size="10.00">* isEmpty()</text>
<text text-anchor="start" x="408" y="-51.5" font-family="Helvetica,sans-Serif" font-size="10.00">* numElements()</text>
<text text-anchor="start" x="408" y="-40.5" font-family="Helvetica,sans-Serif" font-size="10.00">* numLocalEdges()</text>
<text text-anchor="start" x="408" y="-29.5" font-family="Helvetica,sans-Serif" font-size="10.00">* numLocalFaces()</text>
<text text-anchor="start" x="408" y="-18.5" font-family="Helvetica,sans-Serif" font-size="10.00">* numLocalTopologicalFaces()</text>
<text text-anchor="start" x="408" y="-7.5" font-family="Helvetica,sans-Serif" font-size="10.00">and 4 more...</text>
</a>
</g>
</g>
<!-- Node2 -->
<g id="node2" class="node">
<title>Node2</title>
<g id="a_node2"><a xlink:href="classFeel_1_1VisitableBase.html" target="_top" xlink:title=" ">
<polygon fill="white" stroke="#bfbfbf" points="0,-551 0,-652 110,-652 110,-551 0,-551"/>
<text text-anchor="start" x="8" y="-640" font-family="Helvetica,sans-Serif" font-size="10.00">Feel::VisitableBase</text>
<text text-anchor="middle" x="55" y="-629" font-family="Helvetica,sans-Serif" font-size="10.00">&lt; R, CatchAll &gt;</text>
<polyline fill="none" stroke="#bfbfbf" points="0,-622 110,-622 "/>
<text text-anchor="middle" x="55" y="-610" font-family="Helvetica,sans-Serif" font-size="10.00"> </text>
<polyline fill="none" stroke="#bfbfbf" points="0,-603 110,-603 "/>
<text text-anchor="start" x="8" y="-591" font-family="Helvetica,sans-Serif" font-size="10.00">+ accept()</text>
<text text-anchor="start" x="8" y="-580" font-family="Helvetica,sans-Serif" font-size="10.00">+ accept()</text>
<text text-anchor="start" x="8" y="-569" font-family="Helvetica,sans-Serif" font-size="10.00">+ ~VisitableBase()</text>
<text text-anchor="start" x="8" y="-558" font-family="Helvetica,sans-Serif" font-size="10.00"># acceptImpl()</text>
</a>
</g>
</g>
<!-- Node2&#45;&gt;Node1 -->
<g id="edge1" class="edge">
<title>Node2&#45;&gt;Node1</title>
<path fill="none" stroke="midnightblue" d="M61.73,-540.72C69.35,-495.71 85.42,-434.53 119,-391 192.09,-296.26 317.64,-231.92 399.98,-197.45"/>
<polygon fill="none" stroke="midnightblue" points="58.27,-540.21 60.15,-550.64 65.18,-541.32 58.27,-540.21"/>
</g>
<!-- Node3 -->
<g id="node3" class="node">
<title>Node3</title>
<g id="a_node3"><a xlink:href="classFeel_1_1MeshBase.html" target="_top" xlink:title=" ">
<polygon fill="white" stroke="black" points="128.5,-391.5 128.5,-811.5 301.5,-811.5 301.5,-391.5 128.5,-391.5"/>
<text text-anchor="start" x="136.5" y="-799.5" font-family="Helvetica,sans-Serif" font-size="10.00">Feel::MeshBase&lt; uint32</text>
<text text-anchor="middle" x="215" y="-788.5" font-family="Helvetica,sans-Serif" font-size="10.00">_type &gt;</text>
<polyline fill="none" stroke="black" points="128.5,-781.5 301.5,-781.5 "/>
<text text-anchor="middle" x="215" y="-769.5" font-family="Helvetica,sans-Serif" font-size="10.00"> </text>
<polyline fill="none" stroke="black" points="128.5,-762.5 301.5,-762.5 "/>
<text text-anchor="start" x="136.5" y="-750.5" font-family="Helvetica,sans-Serif" font-size="10.00">* super</text>
<text text-anchor="start" x="136.5" y="-739.5" font-family="Helvetica,sans-Serif" font-size="10.00">* index_type</text>
<text text-anchor="start" x="136.5" y="-728.5" font-family="Helvetica,sans-Serif" font-size="10.00">* index_t</text>
<text text-anchor="start" x="136.5" y="-717.5" font-family="Helvetica,sans-Serif" font-size="10.00">* size_type</text>
<text text-anchor="start" x="136.5" y="-706.5" font-family="Helvetica,sans-Serif" font-size="10.00">* face_processor_type</text>
<text text-anchor="start" x="136.5" y="-695.5" font-family="Helvetica,sans-Serif" font-size="10.00">* smd_type</text>
<text text-anchor="start" x="136.5" y="-684.5" font-family="Helvetica,sans-Serif" font-size="10.00">* smd_ptrtype</text>
<text text-anchor="start" x="136.5" y="-673.5" font-family="Helvetica,sans-Serif" font-size="10.00">* boost::serialization</text>
<text text-anchor="start" x="136.5" y="-662.5" font-family="Helvetica,sans-Serif" font-size="10.00">::access</text>
<text text-anchor="start" x="136.5" y="-651.5" font-family="Helvetica,sans-Serif" font-size="10.00">* M_topodim</text>
<text text-anchor="start" x="136.5" y="-640.5" font-family="Helvetica,sans-Serif" font-size="10.00">* M_realdim</text>
<text text-anchor="start" x="136.5" y="-629.5" font-family="Helvetica,sans-Serif" font-size="10.00">* M_components</text>
<text text-anchor="start" x="136.5" y="-618.5" font-family="Helvetica,sans-Serif" font-size="10.00">* M_is_updated</text>
<text text-anchor="start" x="136.5" y="-607.5" font-family="Helvetica,sans-Serif" font-size="10.00">and 65 more...</text>
<text text-anchor="start" x="136.5" y="-596.5" font-family="Helvetica,sans-Serif" font-size="10.00">* MeshBase()</text>
<text text-anchor="start" x="136.5" y="-585.5" font-family="Helvetica,sans-Serif" font-size="10.00">* MeshBase()</text>
<text text-anchor="start" x="136.5" y="-574.5" font-family="Helvetica,sans-Serif" font-size="10.00">* MeshBase()</text>
<text text-anchor="start" x="136.5" y="-563.5" font-family="Helvetica,sans-Serif" font-size="10.00">* MeshBase()</text>
<text text-anchor="start" x="136.5" y="-552.5" font-family="Helvetica,sans-Serif" font-size="10.00">* MeshBase()</text>
<text text-anchor="start" x="136.5" y="-541.5" font-family="Helvetica,sans-Serif" font-size="10.00">* MeshBase()</text>
<text text-anchor="start" x="136.5" y="-530.5" font-family="Helvetica,sans-Serif" font-size="10.00">* ~MeshBase()</text>
<text text-anchor="start" x="136.5" y="-519.5" font-family="Helvetica,sans-Serif" font-size="10.00">* operator=()</text>
<text text-anchor="start" x="136.5" y="-508.5" font-family="Helvetica,sans-Serif" font-size="10.00">* operator=()</text>
<text text-anchor="start" x="136.5" y="-497.5" font-family="Helvetica,sans-Serif" font-size="10.00">* shared_from_this_meshbase()</text>
<text text-anchor="start" x="136.5" y="-486.5" font-family="Helvetica,sans-Serif" font-size="10.00">* shared_from_this_meshbase()</text>
<text text-anchor="start" x="136.5" y="-475.5" font-family="Helvetica,sans-Serif" font-size="10.00">* isUpdatedForUse()</text>
<text text-anchor="start" x="136.5" y="-464.5" font-family="Helvetica,sans-Serif" font-size="10.00">* setTopologicalDimension()</text>
<text text-anchor="start" x="136.5" y="-453.5" font-family="Helvetica,sans-Serif" font-size="10.00">* setRealDimension()</text>
<text text-anchor="start" x="136.5" y="-442.5" font-family="Helvetica,sans-Serif" font-size="10.00">and 14 more...</text>
<text text-anchor="start" x="136.5" y="-431.5" font-family="Helvetica,sans-Serif" font-size="10.00">* setNumberOfPartitions()</text>
<text text-anchor="start" x="136.5" y="-420.5" font-family="Helvetica,sans-Serif" font-size="10.00">* setNumVertices()</text>
<text text-anchor="start" x="136.5" y="-409.5" font-family="Helvetica,sans-Serif" font-size="10.00">* setComponents()</text>
<text text-anchor="start" x="136.5" y="-398.5" font-family="Helvetica,sans-Serif" font-size="10.00">* setParametric()</text>
</a>
</g>
</g>
<!-- Node3&#45;&gt;Node1 -->
<g id="edge2" class="edge">
<title>Node3&#45;&gt;Node1</title>
<path fill="none" stroke="midnightblue" d="M306.54,-398.56C308.02,-396.01 309.51,-393.49 311,-391 337.07,-347.51 370.01,-302.47 399.94,-264.32"/>
<polygon fill="none" stroke="midnightblue" points="303.47,-396.88 301.55,-407.29 309.55,-400.35 303.47,-396.88"/>
</g>
<!-- Node4 -->
<g id="node4" class="node">
<title>Node4</title>
<g id="a_node4"><a xlink:href="classFeel_1_1CommObject.html" target="_top" xlink:title=" ">
<polygon fill="white" stroke="#bfbfbf" points="1.5,-947.5 1.5,-1059.5 108.5,-1059.5 108.5,-947.5 1.5,-947.5"/>
<text text-anchor="middle" x="55" y="-1047.5" font-family="Helvetica,sans-Serif" font-size="10.00">Feel::CommObject</text>
<polyline fill="none" stroke="#bfbfbf" points="1.5,-1040.5 108.5,-1040.5 "/>
<text text-anchor="middle" x="55" y="-1028.5" font-family="Helvetica,sans-Serif" font-size="10.00"> </text>
<polyline fill="none" stroke="#bfbfbf" points="1.5,-1021.5 108.5,-1021.5 "/>
<text text-anchor="start" x="9.5" y="-1009.5" font-family="Helvetica,sans-Serif" font-size="10.00">+ comm()</text>
<text text-anchor="start" x="9.5" y="-998.5" font-family="Helvetica,sans-Serif" font-size="10.00">+ CommObject()</text>
<text text-anchor="start" x="9.5" y="-987.5" font-family="Helvetica,sans-Serif" font-size="10.00">+ CommObject()</text>
<text text-anchor="start" x="9.5" y="-976.5" font-family="Helvetica,sans-Serif" font-size="10.00">+ CommObject()</text>
<text text-anchor="start" x="9.5" y="-965.5" font-family="Helvetica,sans-Serif" font-size="10.00">+ CommObject()</text>
<text text-anchor="start" x="9.5" y="-954.5" font-family="Helvetica,sans-Serif" font-size="10.00">and 13 more...</text>
</a>
</g>
</g>
<!-- Node4&#45;&gt;Node3 -->
<g id="edge3" class="edge">
<title>Node4&#45;&gt;Node3</title>
<path fill="none" stroke="midnightblue" d="M80.91,-937.73C94.89,-902.78 113.01,-857.48 131.39,-811.53"/>
<polygon fill="none" stroke="midnightblue" points="77.54,-936.72 77.08,-947.3 84.04,-939.32 77.54,-936.72"/>
</g>
<!-- Node5 -->
<g id="node5" class="node">
<title>Node5</title>
<g id="a_node5"><a xlink:href="classFeel_1_1JournalWatcher.html" target="_top" xlink:title=" ">
<polygon fill="white" stroke="#bfbfbf" points="126.5,-859.5 126.5,-1147.5 303.5,-1147.5 303.5,-859.5 126.5,-859.5"/>
<text text-anchor="middle" x="215" y="-1135.5" font-family="Helvetica,sans-Serif" font-size="10.00">Feel::JournalWatcher</text>
<polyline fill="none" stroke="#bfbfbf" points="126.5,-1128.5 303.5,-1128.5 "/>
<text text-anchor="middle" x="215" y="-1116.5" font-family="Helvetica,sans-Serif" font-size="10.00"> </text>
<polyline fill="none" stroke="#bfbfbf" points="126.5,-1109.5 303.5,-1109.5 "/>
<text text-anchor="start" x="134.5" y="-1097.5" font-family="Helvetica,sans-Serif" font-size="10.00">* M_journal_is_connected</text>
<text text-anchor="start" x="134.5" y="-1086.5" font-family="Helvetica,sans-Serif" font-size="10.00">* M_category</text>
<text text-anchor="start" x="134.5" y="-1075.5" font-family="Helvetica,sans-Serif" font-size="10.00">* M_name</text>
<text text-anchor="start" x="134.5" y="-1064.5" font-family="Helvetica,sans-Serif" font-size="10.00">* M_function_updateInformation</text>
<text text-anchor="start" x="134.5" y="-1053.5" font-family="Helvetica,sans-Serif" font-size="10.00">Object</text>
<text text-anchor="start" x="134.5" y="-1042.5" font-family="Helvetica,sans-Serif" font-size="10.00">* M_informationObject</text>
<text text-anchor="start" x="134.5" y="-1031.5" font-family="Helvetica,sans-Serif" font-size="10.00">* S_counterObjectByCategory</text>
<text text-anchor="start" x="134.5" y="-1020.5" font-family="Helvetica,sans-Serif" font-size="10.00">* JournalWatcher()</text>
<text text-anchor="start" x="134.5" y="-1009.5" font-family="Helvetica,sans-Serif" font-size="10.00">* JournalWatcher()</text>
<text text-anchor="start" x="134.5" y="-998.5" font-family="Helvetica,sans-Serif" font-size="10.00">* JournalWatcher()</text>
<text text-anchor="start" x="134.5" y="-987.5" font-family="Helvetica,sans-Serif" font-size="10.00">* JournalWatcher()</text>
<text text-anchor="start" x="134.5" y="-976.5" font-family="Helvetica,sans-Serif" font-size="10.00">* ~JournalWatcher()</text>
<text text-anchor="start" x="134.5" y="-965.5" font-family="Helvetica,sans-Serif" font-size="10.00">* journalIsConnected()</text>
<text text-anchor="start" x="134.5" y="-954.5" font-family="Helvetica,sans-Serif" font-size="10.00">* journalWatcherInstanceName()</text>
<text text-anchor="start" x="134.5" y="-943.5" font-family="Helvetica,sans-Serif" font-size="10.00">* journalSection()</text>
<text text-anchor="start" x="134.5" y="-932.5" font-family="Helvetica,sans-Serif" font-size="10.00">* informationObject()</text>
<text text-anchor="start" x="134.5" y="-921.5" font-family="Helvetica,sans-Serif" font-size="10.00">* journalConnect()</text>
<text text-anchor="start" x="134.5" y="-910.5" font-family="Helvetica,sans-Serif" font-size="10.00">* journalDisconnect()</text>
<text text-anchor="start" x="134.5" y="-899.5" font-family="Helvetica,sans-Serif" font-size="10.00">* updateInformationObject()</text>
<text text-anchor="start" x="134.5" y="-888.5" font-family="Helvetica,sans-Serif" font-size="10.00">* setInformationObject()</text>
<text text-anchor="start" x="134.5" y="-877.5" font-family="Helvetica,sans-Serif" font-size="10.00">* putInformationObject()</text>
<text text-anchor="start" x="134.5" y="-866.5" font-family="Helvetica,sans-Serif" font-size="10.00">and 4 more...</text>
</a>
</g>
</g>
<!-- Node5&#45;&gt;Node3 -->
<g id="edge4" class="edge">
<title>Node5&#45;&gt;Node3</title>
<path fill="none" stroke="midnightblue" d="M215,-849C215,-836.77 215,-824.28 215,-811.75"/>
<polygon fill="none" stroke="midnightblue" points="211.5,-849.22 215,-859.22 218.5,-849.22 211.5,-849.22"/>
</g>
<!-- Node6 -->
<g id="node6" class="node">
<title>Node6</title>
<g id="a_node6"><a xlink:title=" ">
<polygon fill="white" stroke="#bfbfbf" points="161.5,-1195.5 161.5,-1252.5 268.5,-1252.5 268.5,-1195.5 161.5,-1195.5"/>
<text text-anchor="middle" x="215" y="-1240.5" font-family="Helvetica,sans-Serif" font-size="10.00">Event::SlotHandler</text>
<polyline fill="none" stroke="#bfbfbf" points="161.5,-1233.5 268.5,-1233.5 "/>
<text text-anchor="middle" x="215" y="-1221.5" font-family="Helvetica,sans-Serif" font-size="10.00"> </text>
<polyline fill="none" stroke="#bfbfbf" points="161.5,-1214.5 268.5,-1214.5 "/>
<text text-anchor="middle" x="215" y="-1202.5" font-family="Helvetica,sans-Serif" font-size="10.00"> </text>
</a>
</g>
</g>
<!-- Node6&#45;&gt;Node5 -->
<g id="edge5" class="edge">
<title>Node6&#45;&gt;Node5</title>
<path fill="none" stroke="midnightblue" d="M215,-1185.3C215,-1174.26 215,-1161.47 215,-1147.9"/>
<polygon fill="none" stroke="midnightblue" points="211.5,-1185.33 215,-1195.33 218.5,-1185.33 211.5,-1185.33"/>
</g>
<!-- Node7 -->
<g id="node7" class="node">
<title>Node7</title>
<g id="a_node7"><a xlink:title=" ">
<polygon fill="white" stroke="black" points="322,-969.5 322,-1037.5 474,-1037.5 474,-969.5 322,-969.5"/>
<text text-anchor="start" x="330" y="-1025.5" font-family="Helvetica,sans-Serif" font-size="10.00">std::map&lt; std::string,</text>
<text text-anchor="middle" x="398" y="-1014.5" font-family="Helvetica,sans-Serif" font-size="10.00"> std::vector&lt; size_type &gt; &gt;</text>
<polyline fill="none" stroke="black" points="322,-1007.5 474,-1007.5 "/>
<text text-anchor="middle" x="398" y="-995.5" font-family="Helvetica,sans-Serif" font-size="10.00"> </text>
<polyline fill="none" stroke="black" points="322,-988.5 474,-988.5 "/>
<text text-anchor="middle" x="398" y="-976.5" font-family="Helvetica,sans-Serif" font-size="10.00"> </text>
</a>
</g>
</g>
<!-- Node7&#45;&gt;Node3 -->
<g id="edge6" class="edge">
<title>Node7&#45;&gt;Node3</title>
<path fill="none" stroke="#404040" d="M382.87,-969.43C365.71,-931.91 336.26,-867.55 306.78,-803.11"/>
<polygon fill="none" stroke="#404040" points="306.65,-802.84 300.52,-799.05 301.66,-791.93 307.8,-795.72 306.65,-802.84"/>
<text text-anchor="middle" x="367" y="-833" font-family="Helvetica,sans-Serif" font-size="10.00"> #M_markername</text>
</g>
<!-- Node8 -->
<g id="node8" class="node">
<title>Node8</title>
<g id="a_node8"><a xlink:title=" ">
<polygon fill="white" stroke="black" points="326.5,-1195.5 326.5,-1252.5 391.5,-1252.5 391.5,-1195.5 326.5,-1195.5"/>
<text text-anchor="middle" x="359" y="-1240.5" font-family="Helvetica,sans-Serif" font-size="10.00">std::string</text>
<polyline fill="none" stroke="black" points="326.5,-1233.5 391.5,-1233.5 "/>
<text text-anchor="middle" x="359" y="-1221.5" font-family="Helvetica,sans-Serif" font-size="10.00"> </text>
<polyline fill="none" stroke="black" points="326.5,-1214.5 391.5,-1214.5 "/>
<text text-anchor="middle" x="359" y="-1202.5" font-family="Helvetica,sans-Serif" font-size="10.00"> </text>
</a>
</g>
</g>
<!-- Node8&#45;&gt;Node7 -->
<g id="edge7" class="edge">
<title>Node8&#45;&gt;Node7</title>
<path fill="none" stroke="#404040" d="M363.94,-1195.33C370.48,-1158.67 382.11,-1093.54 389.93,-1049.69"/>
<polygon fill="none" stroke="#404040" points="389.97,-1049.47 387.09,-1042.86 392.08,-1037.65 394.97,-1044.26 389.97,-1049.47"/>
<text text-anchor="middle" x="386" y="-1169" font-family="Helvetica,sans-Serif" font-size="10.00"> +keys</text>
</g>
<!-- Node9 -->
<g id="node9" class="node">
<title>Node9</title>
<g id="a_node9"><a xlink:title=" ">
<polygon fill="white" stroke="black" points="307,-1300.5 307,-1368.5 411,-1368.5 411,-1300.5 307,-1300.5"/>
<text text-anchor="start" x="315" y="-1356.5" font-family="Helvetica,sans-Serif" font-size="10.00">std::basic_string&lt;</text>
<text text-anchor="middle" x="359" y="-1345.5" font-family="Helvetica,sans-Serif" font-size="10.00"> Char &gt;</text>
<polyline fill="none" stroke="black" points="307,-1338.5 411,-1338.5 "/>
<text text-anchor="middle" x="359" y="-1326.5" font-family="Helvetica,sans-Serif" font-size="10.00"> </text>
<polyline fill="none" stroke="black" points="307,-1319.5 411,-1319.5 "/>
<text text-anchor="middle" x="359" y="-1307.5" font-family="Helvetica,sans-Serif" font-size="10.00"> </text>
</a>
</g>
</g>
<!-- Node9&#45;&gt;Node8 -->
<g id="edge8" class="edge">
<title>Node9&#45;&gt;Node8</title>
<path fill="none" stroke="midnightblue" d="M359,-1290.06C359,-1277.51 359,-1264.15 359,-1252.83"/>
<polygon fill="none" stroke="midnightblue" points="355.5,-1290.36 359,-1300.36 362.5,-1290.36 355.5,-1290.36"/>
</g>
<!-- Node10 -->
<g id="node10" class="node">
<title>Node10</title>
<g id="a_node10"><a xlink:title=" ">
<polygon fill="white" stroke="black" points="409.5,-1195.5 409.5,-1252.5 546.5,-1252.5 546.5,-1195.5 409.5,-1195.5"/>
<text text-anchor="middle" x="478" y="-1240.5" font-family="Helvetica,sans-Serif" font-size="10.00">std::vector&lt; size_type &gt;</text>
<polyline fill="none" stroke="black" points="409.5,-1233.5 546.5,-1233.5 "/>
<text text-anchor="middle" x="478" y="-1221.5" font-family="Helvetica,sans-Serif" font-size="10.00"> </text>
<polyline fill="none" stroke="black" points="409.5,-1214.5 546.5,-1214.5 "/>
<text text-anchor="middle" x="478" y="-1202.5" font-family="Helvetica,sans-Serif" font-size="10.00"> </text>
</a>
</g>
</g>
<!-- Node10&#45;&gt;Node7 -->
<g id="edge9" class="edge">
<title>Node10&#45;&gt;Node7</title>
<path fill="none" stroke="#404040" d="M467.87,-1195.33C454.39,-1158.51 430.39,-1092.98 414.34,-1049.13"/>
<polygon fill="none" stroke="#404040" points="414.26,-1048.92 408.44,-1044.66 410.14,-1037.65 415.96,-1041.91 414.26,-1048.92"/>
<text text-anchor="middle" x="490" y="-1169" font-family="Helvetica,sans-Serif" font-size="10.00"> +elements</text>
</g>
<!-- Node11 -->
<g id="node11" class="node">
<title>Node11</title>
<g id="a_node11"><a xlink:title=" ">
<polygon fill="white" stroke="#bfbfbf" points="446.5,-1306 446.5,-1363 509.5,-1363 509.5,-1306 446.5,-1306"/>
<text text-anchor="middle" x="478" y="-1351" font-family="Helvetica,sans-Serif" font-size="10.00">size_type</text>
<polyline fill="none" stroke="#bfbfbf" points="446.5,-1344 509.5,-1344 "/>
<text text-anchor="middle" x="478" y="-1332" font-family="Helvetica,sans-Serif" font-size="10.00"> </text>
<polyline fill="none" stroke="#bfbfbf" points="446.5,-1325 509.5,-1325 "/>
<text text-anchor="middle" x="478" y="-1313" font-family="Helvetica,sans-Serif" font-size="10.00"> </text>
</a>
</g>
</g>
<!-- Node11&#45;&gt;Node10 -->
<g id="edge10" class="edge">
<title>Node11&#45;&gt;Node10</title>
<path fill="none" stroke="#404040" d="M478,-1305.84C478,-1293.34 478,-1278.34 478,-1264.68"/>
<polygon fill="none" stroke="#404040" points="478,-1264.61 474,-1258.61 478,-1252.61 482,-1258.61 478,-1264.61"/>
<text text-anchor="middle" x="507" y="-1274" font-family="Helvetica,sans-Serif" font-size="10.00"> +elements</text>
</g>
<!-- Node12 -->
<g id="node12" class="node">
<title>Node12</title>
<g id="a_node12"><a xlink:href="classElements.html" target="_top" xlink:title=" ">
<polygon fill="white" stroke="#bfbfbf" points="320,-573 320,-630 474,-630 474,-573 320,-573"/>
<text text-anchor="middle" x="397" y="-618" font-family="Helvetica,sans-Serif" font-size="10.00">Elements&lt; Shape, double &gt;</text>
<polyline fill="none" stroke="#bfbfbf" points="320,-611 474,-611 "/>
<text text-anchor="middle" x="397" y="-599" font-family="Helvetica,sans-Serif" font-size="10.00"> </text>
<polyline fill="none" stroke="#bfbfbf" points="320,-592 474,-592 "/>
<text text-anchor="middle" x="397" y="-580" font-family="Helvetica,sans-Serif" font-size="10.00"> </text>
</a>
</g>
</g>
<!-- Node12&#45;&gt;Node1 -->
<g id="edge11" class="edge">
<title>Node12&#45;&gt;Node1</title>
<path fill="none" stroke="midnightblue" d="M404.31,-562.8C414.25,-511.57 432.66,-416.68 448.95,-332.72"/>
<polygon fill="none" stroke="midnightblue" points="400.85,-562.27 402.38,-572.76 407.72,-563.6 400.85,-562.27"/>
</g>
<!-- Node13 -->
<g id="node13" class="node">
<title>Node13</title>
<g id="a_node13"><a xlink:href="classPoints.html" target="_top" xlink:title=" ">
<polygon fill="white" stroke="#bfbfbf" points="492.5,-567.5 492.5,-635.5 637.5,-635.5 637.5,-567.5 492.5,-567.5"/>
<text text-anchor="start" x="500.5" y="-623.5" font-family="Helvetica,sans-Serif" font-size="10.00">Points&lt; Shape::nRealDim,</text>
<text text-anchor="middle" x="565" y="-612.5" font-family="Helvetica,sans-Serif" font-size="10.00"> double &gt;</text>
<polyline fill="none" stroke="#bfbfbf" points="492.5,-605.5 637.5,-605.5 "/>
<text text-anchor="middle" x="565" y="-593.5" font-family="Helvetica,sans-Serif" font-size="10.00"> </text>
<polyline fill="none" stroke="#bfbfbf" points="492.5,-586.5 637.5,-586.5 "/>
<text text-anchor="middle" x="565" y="-574.5" font-family="Helvetica,sans-Serif" font-size="10.00"> </text>
</a>
</g>
</g>
<!-- Node13&#45;&gt;Node1 -->
<g id="edge12" class="edge">
<title>Node13&#45;&gt;Node1</title>
<path fill="none" stroke="midnightblue" d="M556.62,-557.31C546.47,-504.98 528.77,-413.74 513.04,-332.68"/>
<polygon fill="none" stroke="midnightblue" points="553.21,-558.09 558.55,-567.24 560.08,-556.76 553.21,-558.09"/>
</g>
<!-- Node14 -->
<g id="node14" class="node">
<title>Node14</title>
<g id="a_node14"><a xlink:href="classFaces.html" target="_top" xlink:title=" ">
<polygon fill="white" stroke="#bfbfbf" points="655.5,-556.5 655.5,-646.5 848.5,-646.5 848.5,-556.5 655.5,-556.5"/>
<text text-anchor="start" x="663.5" y="-634.5" font-family="Helvetica,sans-Serif" font-size="10.00">Faces&lt; Shape::template</text>
<text text-anchor="start" x="663.5" y="-623.5" font-family="Helvetica,sans-Serif" font-size="10.00"> shape&lt; 1, Shape::nOrder,</text>
<text text-anchor="start" x="663.5" y="-612.5" font-family="Helvetica,sans-Serif" font-size="10.00"> Shape::nRealDim &gt;, Elements</text>
<text text-anchor="middle" x="752" y="-601.5" font-family="Helvetica,sans-Serif" font-size="10.00">&lt; Shape, double &gt;::element_type &gt;</text>
<polyline fill="none" stroke="#bfbfbf" points="655.5,-594.5 848.5,-594.5 "/>
<text text-anchor="middle" x="752" y="-582.5" font-family="Helvetica,sans-Serif" font-size="10.00"> </text>
<polyline fill="none" stroke="#bfbfbf" points="655.5,-575.5 848.5,-575.5 "/>
<text text-anchor="middle" x="752" y="-563.5" font-family="Helvetica,sans-Serif" font-size="10.00"> </text>
</a>
</g>
</g>
<!-- Node14&#45;&gt;Node1 -->
<g id="edge13" class="edge">
<title>Node14&#45;&gt;Node1</title>
<path fill="none" stroke="midnightblue" d="M728.08,-547.23C707.99,-504.08 677.57,-442.25 646,-391 620.76,-350.04 590.14,-307.07 562.17,-269.87"/>
<polygon fill="none" stroke="midnightblue" points="724.96,-548.81 732.33,-556.42 731.31,-545.87 724.96,-548.81"/>
</g>
<!-- Node15 -->
<g id="node15" class="node">
<title>Node15</title>
<g id="a_node15"><a xlink:title=" ">
<polygon fill="white" stroke="#bfbfbf" points="867,-573 867,-630 1001,-630 1001,-573 867,-573"/>
<text text-anchor="middle" x="934" y="-618" font-family="Helvetica,sans-Serif" font-size="10.00">static const uint16_type</text>
<polyline fill="none" stroke="#bfbfbf" points="867,-611 1001,-611 "/>
<text text-anchor="middle" x="934" y="-599" font-family="Helvetica,sans-Serif" font-size="10.00"> </text>
<polyline fill="none" stroke="#bfbfbf" points="867,-592 1001,-592 "/>
<text text-anchor="middle" x="934" y="-580" font-family="Helvetica,sans-Serif" font-size="10.00"> </text>
</a>
</g>
</g>
<!-- Node15&#45;&gt;Node1 -->
<g id="edge14" class="edge">
<title>Node15&#45;&gt;Node1</title>
<path fill="none" stroke="#404040" d="M930.06,-572.76C922.7,-529.61 903.29,-445.67 858,-391 782.05,-299.31 658.1,-236.21 573.2,-201"/>
<polygon fill="none" stroke="#404040" points="573.12,-200.97 566.05,-202.4 562.01,-196.43 569.07,-195 573.12,-200.97"/>
<text text-anchor="middle" x="862.5" y="-365" font-family="Helvetica,sans-Serif" font-size="10.00"> +nDim</text>
<text text-anchor="middle" x="862.5" y="-354" font-family="Helvetica,sans-Serif" font-size="10.00">+nRealDim</text>
</g>
</g>
</svg>
        <g id="navigator" transform="translate(0 0)" fill="#404254">
                <rect fill="#f2f5e9" fill-opacity="0.5" stroke="#606060" stroke-width=".5" x="0" y="0" width="60" height="60"/>
                <use id="zoomplus" xlink:href="#zoomPlus" x="17" y="9" onmousedown="handleZoom(evt,'in')"/>
                <use id="zoomminus" xlink:href="#zoomMin" x="42" y="9" onmousedown="handleZoom(evt,'out')"/>
                <use id="reset" xlink:href="#resetDef" x="30" y="36" onmousedown="handleReset()"/>
                <g id="arrowUp" xlink:href="#dirArrow" transform="translate(30 24)" onmousedown="handlePan(0,-1)">
                  <use xlink:href="#rim" fill="#404040">
                        <set attributeName="fill" to="#808080" begin="arrowUp.mouseover" end="arrowUp.mouseout"/>
                  </use>
                  <path fill="none" stroke="white" stroke-width="1.5" d="M0,-3.0v7 M-2.5,-0.5L0,-3.0L2.5,-0.5"/>
                </g>
                <g id="arrowRight" xlink:href="#dirArrow" transform="rotate(90) translate(36 -43)" onmousedown="handlePan(1,0)">
                  <use xlink:href="#rim" fill="#404040">
                        <set attributeName="fill" to="#808080" begin="arrowRight.mouseover" end="arrowRight.mouseout"/>
                  </use>
                  <path fill="none" stroke="white" stroke-width="1.5" d="M0,-3.0v7 M-2.5,-0.5L0,-3.0L2.5,-0.5"/>
                </g>
                <g id="arrowDown" xlink:href="#dirArrow" transform="rotate(180) translate(-30 -48)" onmousedown="handlePan(0,1)">
                  <use xlink:href="#rim" fill="#404040">
                        <set attributeName="fill" to="#808080" begin="arrowDown.mouseover" end="arrowDown.mouseout"/>
                  </use>
                  <path fill="none" stroke="white" stroke-width="1.5" d="M0,-3.0v7 M-2.5,-0.5L0,-3.0L2.5,-0.5"/>
                </g>
                <g id="arrowLeft" xlink:href="#dirArrow" transform="rotate(270) translate(-36 17)" onmousedown="handlePan(-1,0)">
                  <use xlink:href="#rim" fill="#404040">
                        <set attributeName="fill" to="#808080" begin="arrowLeft.mouseover" end="arrowLeft.mouseout"/>
                  </use>
                  <path fill="none" stroke="white" stroke-width="1.5" d="M0,-3.0v7 M-2.5,-0.5L0,-3.0L2.5,-0.5"/>
                </g>
        </g>
        <svg viewBox="0 0 15 15" width="100%" height="30px" preserveAspectRatio="xMaxYMin meet">
         <g id="arrow_out" transform="scale(0.3 0.3)">
          <a xlink:href="classFeel_1_1Mesh2D__coll__graph_org.svg" target="_base">
           <rect id="button" ry="5" rx="5" y="6" x="6" height="38" width="38"
                fill="#f2f5e9" fill-opacity="0.5" stroke="#606060" stroke-width="1.0"/>
           <path id="arrow"
             d="M 11.500037,31.436501 C 11.940474,20.09759 22.043105,11.32322 32.158766,21.979434 L 37.068811,17.246167 C 37.068811,17.246167 37.088388,32 37.088388,32 L 22.160133,31.978069 C 22.160133,31.978069 26.997745,27.140456 26.997745,27.140456 C 18.528582,18.264221 13.291696,25.230495 11.500037,31.436501 z"
             style="fill:#404040;"/>
          </a>
         </g>
        </svg>
</svg>
