<?xml version="1.0" encoding="UTF-8" standalone="no"?>
<!DOCTYPE svg PUBLIC "-//W3C//DTD SVG 1.1//EN"
 "http://www.w3.org/Graphics/SVG/1.1/DTD/svg11.dtd">
<!-- Generated by graphviz version 2.43.0 (0)
 -->
<!-- Title: Feel::FeelModels::BoundaryConditionsBase Pages: 1 -->
<!--zoomable 281 -->
<svg id="main" version="1.1" xmlns="http://www.w3.org/2000/svg" xmlns:xlink="http://www.w3.org/1999/xlink" xml:space="preserve" onload="init(evt)">
<style type="text/css"><![CDATA[
.edge:hover path { stroke: red; }
.edge:hover polygon { stroke: red; fill: red; }
]]></style>
<script type="text/javascript"><![CDATA[
var edges = document.getElementsByTagName('g');
if (edges && edges.length) {
  for (var i=0;i<edges.length;i++) {
    if (edges[i].id.substr(0,4)=='edge') {
      edges[i].setAttribute('class','edge');
    }
  }
}
]]></script>
        <defs>
                <circle id="rim" cx="0" cy="0" r="7"/>
                <circle id="rim2" cx="0" cy="0" r="3.5"/>
                <g id="zoomPlus">
                        <use xlink:href="#rim" fill="#404040">
                                <set attributeName="fill" to="#808080" begin="zoomplus.mouseover" end="zoomplus.mouseout"/>
                        </use>
                        <path d="M-4,0h8M0,-4v8" fill="none" stroke="white" stroke-width="1.5" pointer-events="none"/>
                </g>
                <g id="zoomMin">
                        <use xlink:href="#rim" fill="#404040">
                                <set attributeName="fill" to="#808080" begin="zoomminus.mouseover" end="zoomminus.mouseout"/>
                        </use>
                        <path d="M-4,0h8" fill="none" stroke="white" stroke-width="1.5" pointer-events="none"/>
                </g>
                <g id="dirArrow">
                        <path fill="none" stroke="white" stroke-width="1.5" d="M0,-3.0v7 M-2.5,-0.5L0,-3.0L2.5,-0.5"/>
                </g>
               <g id="resetDef">
                       <use xlink:href="#rim2" fill="#404040">
                               <set attributeName="fill" to="#808080" begin="reset.mouseover" end="reset.mouseout"/>
                       </use>
               </g>
        </defs>

<script type="text/javascript">
var viewWidth = 1014;
var viewHeight = 281;
var sectionId = 'dynsection-0';
</script>
<script xlink:href="svgpan.js"/>
<svg id="graph" class="graph">
<g id="viewport">
<title>Feel::FeelModels::BoundaryConditionsBase</title>
<polygon fill="white" stroke="transparent" points="-4,4 -4,-277 1010,-277 1010,4 -4,4"/>
<!-- Node1 -->
<g id="node1" class="node">
<title>Node1</title>
<g id="a_node1"><a xlink:title=" ">
<polygon fill="#bfbfbf" stroke="black" points="424,-171.5 424,-272.5 582,-272.5 582,-171.5 424,-171.5"/>
<text text-anchor="start" x="432" y="-260.5" font-family="Helvetica,sans-Serif" font-size="10.00">Feel::FeelModels::Boundary</text>
<text text-anchor="middle" x="503" y="-249.5" font-family="Helvetica,sans-Serif" font-size="10.00">ConditionsBase</text>
<polyline fill="none" stroke="black" points="424,-242.5 582,-242.5 "/>
<text text-anchor="start" x="432" y="-230.5" font-family="Helvetica,sans-Serif" font-size="10.00"># M_toolboxParent</text>
<polyline fill="none" stroke="black" points="424,-223.5 582,-223.5 "/>
<text text-anchor="start" x="432" y="-211.5" font-family="Helvetica,sans-Serif" font-size="10.00">+ BoundaryConditionsBase()</text>
<text text-anchor="start" x="432" y="-200.5" font-family="Helvetica,sans-Serif" font-size="10.00">+ BoundaryConditionsBase()</text>
<text text-anchor="start" x="432" y="-189.5" font-family="Helvetica,sans-Serif" font-size="10.00">+ BoundaryConditionsBase()</text>
<text text-anchor="start" x="432" y="-178.5" font-family="Helvetica,sans-Serif" font-size="10.00">+ toolboxParent()</text>
</a>
</g>
</g>
<!-- Node2 -->
<g id="node2" class="node">
<title>Node2</title>
<g id="a_node2"><a xlink:href="classFeel_1_1FeelModels_1_1ElectricBoundaryConditions.html" target="_top" xlink:title=" ">
<polygon fill="white" stroke="black" points="0,-0.5 0,-134.5 170,-134.5 170,-0.5 0,-0.5"/>
<text text-anchor="start" x="8" y="-122.5" font-family="Helvetica,sans-Serif" font-size="10.00">Feel::FeelModels::Electric</text>
<text text-anchor="middle" x="85" y="-111.5" font-family="Helvetica,sans-Serif" font-size="10.00">BoundaryConditions</text>
<polyline fill="none" stroke="black" points="0,-104.5 170,-104.5 "/>
<text text-anchor="middle" x="85" y="-92.5" font-family="Helvetica,sans-Serif" font-size="10.00"> </text>
<polyline fill="none" stroke="black" points="0,-85.5 170,-85.5 "/>
<text text-anchor="start" x="8" y="-73.5" font-family="Helvetica,sans-Serif" font-size="10.00">+ applyDofEliminationLinear()</text>
<text text-anchor="start" x="8" y="-62.5" font-family="Helvetica,sans-Serif" font-size="10.00">+ applyNewtonInitialGuess()</text>
<text text-anchor="start" x="8" y="-51.5" font-family="Helvetica,sans-Serif" font-size="10.00">+ ElectricBoundaryConditions()</text>
<text text-anchor="start" x="8" y="-40.5" font-family="Helvetica,sans-Serif" font-size="10.00">+ ElectricBoundaryConditions()</text>
<text text-anchor="start" x="8" y="-29.5" font-family="Helvetica,sans-Serif" font-size="10.00">+ ElectricBoundaryConditions()</text>
<text text-anchor="start" x="8" y="-18.5" font-family="Helvetica,sans-Serif" font-size="10.00">and 6 more...</text>
<text text-anchor="start" x="8" y="-7.5" font-family="Helvetica,sans-Serif" font-size="10.00">+ tabulateInformations()</text>
</a>
</g>
</g>
<!-- Node1&#45;&gt;Node2 -->
<g id="edge1" class="edge">
<title>Node1&#45;&gt;Node2</title>
<path fill="none" stroke="midnightblue" d="M413.62,-206.18C346.84,-193.02 254.46,-170.3 179,-135 176.01,-133.6 173.02,-132.11 170.03,-130.54"/>
<polygon fill="none" stroke="midnightblue" points="413.21,-209.67 423.7,-208.13 414.54,-202.79 413.21,-209.67"/>
</g>
<!-- Node3 -->
<g id="node3" class="node">
<title>Node3</title>
<g id="a_node3"><a xlink:href="classFeel_1_1FeelModels_1_1FluidMechanicsBoundaryConditions.html" target="_top" xlink:title="Boundary Conditions in fluid mechanics.">
<polygon fill="white" stroke="black" points="188.5,-0.5 188.5,-134.5 397.5,-134.5 397.5,-0.5 188.5,-0.5"/>
<text text-anchor="start" x="196.5" y="-122.5" font-family="Helvetica,sans-Serif" font-size="10.00">Feel::FeelModels::FluidMechanics</text>
<text text-anchor="middle" x="293" y="-111.5" font-family="Helvetica,sans-Serif" font-size="10.00">BoundaryConditions&lt; Dim &gt;</text>
<polyline fill="none" stroke="black" points="188.5,-104.5 397.5,-104.5 "/>
<text text-anchor="middle" x="293" y="-92.5" font-family="Helvetica,sans-Serif" font-size="10.00"> </text>
<polyline fill="none" stroke="black" points="188.5,-85.5 397.5,-85.5 "/>
<text text-anchor="start" x="196.5" y="-73.5" font-family="Helvetica,sans-Serif" font-size="10.00">+ applyDofEliminationLinear()</text>
<text text-anchor="start" x="196.5" y="-62.5" font-family="Helvetica,sans-Serif" font-size="10.00">+ applyNewtonInitialGuess()</text>
<text text-anchor="start" x="196.5" y="-51.5" font-family="Helvetica,sans-Serif" font-size="10.00">+ bodyInterface()</text>
<text text-anchor="start" x="196.5" y="-40.5" font-family="Helvetica,sans-Serif" font-size="10.00">+ FluidMechanicsBoundaryConditions()</text>
<text text-anchor="start" x="196.5" y="-29.5" font-family="Helvetica,sans-Serif" font-size="10.00">+ FluidMechanicsBoundaryConditions()</text>
<text text-anchor="start" x="196.5" y="-18.5" font-family="Helvetica,sans-Serif" font-size="10.00">and 15 more...</text>
<text text-anchor="start" x="196.5" y="-7.5" font-family="Helvetica,sans-Serif" font-size="10.00">+ tabulateInformations()</text>
</a>
</g>
</g>
<!-- Node1&#45;&gt;Node3 -->
<g id="edge2" class="edge">
<title>Node1&#45;&gt;Node3</title>
<path fill="none" stroke="midnightblue" d="M426.37,-165.35C412.65,-155.39 398.23,-144.91 384.14,-134.69"/>
<polygon fill="none" stroke="midnightblue" points="424.67,-168.44 434.82,-171.49 428.78,-162.78 424.67,-168.44"/>
</g>
<!-- Node4 -->
<g id="node4" class="node">
<title>Node4</title>
<g id="a_node4"><a xlink:href="classFeel_1_1FeelModels_1_1HeatBoundaryConditions.html" target="_top" xlink:title=" ">
<polygon fill="white" stroke="black" points="416,-0.5 416,-134.5 590,-134.5 590,-0.5 416,-0.5"/>
<text text-anchor="start" x="424" y="-122.5" font-family="Helvetica,sans-Serif" font-size="10.00">Feel::FeelModels::HeatBoundary</text>
<text text-anchor="middle" x="503" y="-111.5" font-family="Helvetica,sans-Serif" font-size="10.00">Conditions</text>
<polyline fill="none" stroke="black" points="416,-104.5 590,-104.5 "/>
<text text-anchor="middle" x="503" y="-92.5" font-family="Helvetica,sans-Serif" font-size="10.00"> </text>
<polyline fill="none" stroke="black" points="416,-85.5 590,-85.5 "/>
<text text-anchor="start" x="424" y="-73.5" font-family="Helvetica,sans-Serif" font-size="10.00">+ applyDofEliminationLinear()</text>
<text text-anchor="start" x="424" y="-62.5" font-family="Helvetica,sans-Serif" font-size="10.00">+ applyNewtonInitialGuess()</text>
<text text-anchor="start" x="424" y="-51.5" font-family="Helvetica,sans-Serif" font-size="10.00">+ convectiveHeatFlux()</text>
<text text-anchor="start" x="424" y="-40.5" font-family="Helvetica,sans-Serif" font-size="10.00">+ hasTypeDofElimination()</text>
<text text-anchor="start" x="424" y="-29.5" font-family="Helvetica,sans-Serif" font-size="10.00">+ HeatBoundaryConditions()</text>
<text text-anchor="start" x="424" y="-18.5" font-family="Helvetica,sans-Serif" font-size="10.00">and 7 more...</text>
<text text-anchor="start" x="424" y="-7.5" font-family="Helvetica,sans-Serif" font-size="10.00">+ tabulateInformations()</text>
</a>
</g>
</g>
<!-- Node1&#45;&gt;Node4 -->
<g id="edge3" class="edge">
<title>Node1&#45;&gt;Node4</title>
<path fill="none" stroke="midnightblue" d="M503,-161.38C503,-152.63 503,-143.56 503,-134.69"/>
<polygon fill="none" stroke="midnightblue" points="499.5,-161.49 503,-171.49 506.5,-161.49 499.5,-161.49"/>
</g>
<!-- Node5 -->
<g id="node5" class="node">
<title>Node5</title>
<g id="a_node5"><a xlink:href="classFeel_1_1FeelModels_1_1SolidMechanics1dReducedBoundaryConditions.html" target="_top" xlink:title=" ">
<polygon fill="white" stroke="black" points="608,-0.5 608,-134.5 808,-134.5 808,-0.5 608,-0.5"/>
<text text-anchor="start" x="616" y="-122.5" font-family="Helvetica,sans-Serif" font-size="10.00">Feel::FeelModels::SolidMechanics1d</text>
<text text-anchor="middle" x="708" y="-111.5" font-family="Helvetica,sans-Serif" font-size="10.00">ReducedBoundaryConditions&lt; Dim &gt;</text>
<polyline fill="none" stroke="black" points="608,-104.5 808,-104.5 "/>
<text text-anchor="middle" x="708" y="-92.5" font-family="Helvetica,sans-Serif" font-size="10.00"> </text>
<polyline fill="none" stroke="black" points="608,-85.5 808,-85.5 "/>
<text text-anchor="start" x="616" y="-73.5" font-family="Helvetica,sans-Serif" font-size="10.00">+ applyDofEliminationLinear()</text>
<text text-anchor="start" x="616" y="-62.5" font-family="Helvetica,sans-Serif" font-size="10.00">+ applyNewtonInitialGuess()</text>
<text text-anchor="start" x="616" y="-51.5" font-family="Helvetica,sans-Serif" font-size="10.00">+ displacementImposed()</text>
<text text-anchor="start" x="616" y="-40.5" font-family="Helvetica,sans-Serif" font-size="10.00">+ hasTypeDofElimination()</text>
<text text-anchor="start" x="616" y="-29.5" font-family="Helvetica,sans-Serif" font-size="10.00">+ setParameterValues()</text>
<text text-anchor="start" x="616" y="-18.5" font-family="Helvetica,sans-Serif" font-size="10.00">and 5 more...</text>
<text text-anchor="start" x="616" y="-7.5" font-family="Helvetica,sans-Serif" font-size="10.00">+ tabulateInformations()</text>
</a>
</g>
</g>
<!-- Node1&#45;&gt;Node5 -->
<g id="edge4" class="edge">
<title>Node1&#45;&gt;Node5</title>
<path fill="none" stroke="midnightblue" d="M577.8,-165.35C591.2,-155.39 605.28,-144.91 619.03,-134.69"/>
<polygon fill="none" stroke="midnightblue" points="575.49,-162.71 569.56,-171.49 579.67,-168.33 575.49,-162.71"/>
</g>
<!-- Node6 -->
<g id="node6" class="node">
<title>Node6</title>
<g id="a_node6"><a xlink:href="classFeel_1_1FeelModels_1_1SolidMechanicsBoundaryConditions.html" target="_top" xlink:title=" ">
<polygon fill="white" stroke="black" points="826,-0.5 826,-134.5 1006,-134.5 1006,-0.5 826,-0.5"/>
<text text-anchor="start" x="834" y="-122.5" font-family="Helvetica,sans-Serif" font-size="10.00">Feel::FeelModels::SolidMechanics</text>
<text text-anchor="middle" x="916" y="-111.5" font-family="Helvetica,sans-Serif" font-size="10.00">BoundaryConditions&lt; Dim &gt;</text>
<polyline fill="none" stroke="black" points="826,-104.5 1006,-104.5 "/>
<text text-anchor="middle" x="916" y="-92.5" font-family="Helvetica,sans-Serif" font-size="10.00"> </text>
<polyline fill="none" stroke="black" points="826,-85.5 1006,-85.5 "/>
<text text-anchor="start" x="834" y="-73.5" font-family="Helvetica,sans-Serif" font-size="10.00">+ applyDofEliminationLinear()</text>
<text text-anchor="start" x="834" y="-62.5" font-family="Helvetica,sans-Serif" font-size="10.00">+ applyNewtonInitialGuess()</text>
<text text-anchor="start" x="834" y="-51.5" font-family="Helvetica,sans-Serif" font-size="10.00">+ displacementImposed()</text>
<text text-anchor="start" x="834" y="-40.5" font-family="Helvetica,sans-Serif" font-size="10.00">+ hasTypeDofElimination()</text>
<text text-anchor="start" x="834" y="-29.5" font-family="Helvetica,sans-Serif" font-size="10.00">+ normalStress()</text>
<text text-anchor="start" x="834" y="-18.5" font-family="Helvetica,sans-Serif" font-size="10.00">and 7 more...</text>
<text text-anchor="start" x="834" y="-7.5" font-family="Helvetica,sans-Serif" font-size="10.00">+ tabulateInformations()</text>
</a>
</g>
</g>
<!-- Node1&#45;&gt;Node6 -->
<g id="edge5" class="edge">
<title>Node1&#45;&gt;Node6</title>
<path fill="none" stroke="midnightblue" d="M592.35,-204.6C656.7,-190.89 744.56,-168.17 817,-135 819.92,-133.66 822.85,-132.25 825.77,-130.76"/>
<polygon fill="none" stroke="midnightblue" points="591.3,-201.25 582.24,-206.73 592.74,-208.1 591.3,-201.25"/>
</g>
</g>
</svg>
        <g id="navigator" transform="translate(0 0)" fill="#404254">
                <rect fill="#f2f5e9" fill-opacity="0.5" stroke="#606060" stroke-width=".5" x="0" y="0" width="60" height="60"/>
                <use id="zoomplus" xlink:href="#zoomPlus" x="17" y="9" onmousedown="handleZoom(evt,'in')"/>
                <use id="zoomminus" xlink:href="#zoomMin" x="42" y="9" onmousedown="handleZoom(evt,'out')"/>
                <use id="reset" xlink:href="#resetDef" x="30" y="36" onmousedown="handleReset()"/>
                <g id="arrowUp" xlink:href="#dirArrow" transform="translate(30 24)" onmousedown="handlePan(0,-1)">
                  <use xlink:href="#rim" fill="#404040">
                        <set attributeName="fill" to="#808080" begin="arrowUp.mouseover" end="arrowUp.mouseout"/>
                  </use>
                  <path fill="none" stroke="white" stroke-width="1.5" d="M0,-3.0v7 M-2.5,-0.5L0,-3.0L2.5,-0.5"/>
                </g>
                <g id="arrowRight" xlink:href="#dirArrow" transform="rotate(90) translate(36 -43)" onmousedown="handlePan(1,0)">
                  <use xlink:href="#rim" fill="#404040">
                        <set attributeName="fill" to="#808080" begin="arrowRight.mouseover" end="arrowRight.mouseout"/>
                  </use>
                  <path fill="none" stroke="white" stroke-width="1.5" d="M0,-3.0v7 M-2.5,-0.5L0,-3.0L2.5,-0.5"/>
                </g>
                <g id="arrowDown" xlink:href="#dirArrow" transform="rotate(180) translate(-30 -48)" onmousedown="handlePan(0,1)">
                  <use xlink:href="#rim" fill="#404040">
                        <set attributeName="fill" to="#808080" begin="arrowDown.mouseover" end="arrowDown.mouseout"/>
                  </use>
                  <path fill="none" stroke="white" stroke-width="1.5" d="M0,-3.0v7 M-2.5,-0.5L0,-3.0L2.5,-0.5"/>
                </g>
                <g id="arrowLeft" xlink:href="#dirArrow" transform="rotate(270) translate(-36 17)" onmousedown="handlePan(-1,0)">
                  <use xlink:href="#rim" fill="#404040">
                        <set attributeName="fill" to="#808080" begin="arrowLeft.mouseover" end="arrowLeft.mouseout"/>
                  </use>
                  <path fill="none" stroke="white" stroke-width="1.5" d="M0,-3.0v7 M-2.5,-0.5L0,-3.0L2.5,-0.5"/>
                </g>
        </g>
        <svg viewBox="0 0 15 15" width="100%" height="30px" preserveAspectRatio="xMaxYMin meet">
         <g id="arrow_out" transform="scale(0.3 0.3)">
          <a xlink:href="classFeel_1_1FeelModels_1_1BoundaryConditionsBase__inherit__graph_org.svg" target="_base">
           <rect id="button" ry="5" rx="5" y="6" x="6" height="38" width="38"
                fill="#f2f5e9" fill-opacity="0.5" stroke="#606060" stroke-width="1.0"/>
           <path id="arrow"
             d="M 11.500037,31.436501 C 11.940474,20.09759 22.043105,11.32322 32.158766,21.979434 L 37.068811,17.246167 C 37.068811,17.246167 37.088388,32 37.088388,32 L 22.160133,31.978069 C 22.160133,31.978069 26.997745,27.140456 26.997745,27.140456 C 18.528582,18.264221 13.291696,25.230495 11.500037,31.436501 z"
             style="fill:#404040;"/>
          </a>
         </g>
        </svg>
</svg>
