<?xml version="1.0" encoding="UTF-8" standalone="no"?>
<!DOCTYPE svg PUBLIC "-//W3C//DTD SVG 1.1//EN"
 "http://www.w3.org/Graphics/SVG/1.1/DTD/svg11.dtd">
<!-- Generated by graphviz version 2.43.0 (0)
 -->
<!-- Title: /nvme0/prudhomm/github&#45;actions/actions&#45;runner&#45;4/_work/feelpp/feelpp/feelpp/feel Pages: 1 -->
<svg width="412pt" height="183pt"
 viewBox="0.00 0.00 412.00 183.00" xmlns="http://www.w3.org/2000/svg" xmlns:xlink="http://www.w3.org/1999/xlink">
<g id="graph0" class="graph" transform="scale(1 1) rotate(0) translate(4 179)">
<title>/nvme0/prudhomm/github&#45;actions/actions&#45;runner&#45;4/_work/feelpp/feelpp/feelpp/feel</title>
<polygon fill="white" stroke="transparent" points="-4,4 -4,-179 408,-179 408,4 -4,4"/>
<g id="clust1" class="cluster">
<title>clusterdir_58d06d4a5699d8c5c3ef959b17fcd092</title>
<g id="a_clust1"><a xlink:href="dir_58d06d4a5699d8c5c3ef959b17fcd092.html" target="_top" xlink:title="feelpp">
<polygon fill="#f4f7ed" stroke="#404040" stroke-dasharray="5,2" points="8,-8 8,-167 396,-167 396,-8 8,-8"/>
<text text-anchor="middle" x="202" y="-155" font-family="Helvetica,sans-Serif" font-size="10.00">feelpp</text>
</a>
</g>
</g>
<g id="clust2" class="cluster">
<title>clusterdir_a4c121e06ebcc119b041a36581d5d48a</title>
<g id="a_clust2"><a xlink:href="dir_a4c121e06ebcc119b041a36581d5d48a.html" target="_top">
<polygon fill="#f4f7ed" stroke="#404040" stroke-width="2" points="16,-16 16,-140 388,-140 388,-16 16,-16"/>
</a>
</g>
</g>
<!-- dir_a4c121e06ebcc119b041a36581d5d48a -->
<g id="node1" class="node">
<title>dir_a4c121e06ebcc119b041a36581d5d48a</title>
<text text-anchor="middle" x="353" y="-111.5" font-family="Helvetica,sans-Serif" font-size="10.00">feel</text>
</g>
<!-- dir_f953484fe51916b7b30cc3393ae061de -->
<g id="node2" class="node">
<title>dir_f953484fe51916b7b30cc3393ae061de</title>
<g id="a_node2"><a xlink:href="dir_f953484fe51916b7b30cc3393ae061de.html" target="_top" xlink:title="feelcore">
<polygon fill="#c9d6a2" stroke="#404040" points="189,-60 133,-60 133,-24 189,-24 189,-60"/>
<text text-anchor="middle" x="161" y="-39.5" font-family="Helvetica,sans-Serif" font-size="10.00">feelcore</text>
</a>
</g>
</g>
<!-- dir_201afb6b72871638822819f2c834f547 -->
<g id="node3" class="node">
<title>dir_201afb6b72871638822819f2c834f547</title>
<g id="a_node3"><a xlink:href="dir_201afb6b72871638822819f2c834f547.html" target="_top" xlink:title="feeldiscr">
<polygon fill="#c9d6a2" stroke="#404040" points="307.5,-132 248.5,-132 248.5,-96 307.5,-96 307.5,-132"/>
<text text-anchor="middle" x="278" y="-111.5" font-family="Helvetica,sans-Serif" font-size="10.00">feeldiscr</text>
</a>
</g>
</g>
<!-- dir_201afb6b72871638822819f2c834f547&#45;&gt;dir_f953484fe51916b7b30cc3393ae061de -->
<g id="edge1" class="edge">
<title>dir_201afb6b72871638822819f2c834f547&#45;&gt;dir_f953484fe51916b7b30cc3393ae061de</title>
<path fill="none" stroke="black" d="M249.38,-95.88C233.97,-86.66 214.77,-75.17 198.21,-65.26"/>
<polygon fill="black" stroke="black" points="199.7,-62.08 189.33,-59.95 196.11,-68.08 199.7,-62.08"/>
<g id="a_edge1&#45;headlabel"><a xlink:href="dir_000013_000011.html" target="_top" xlink:title="2">
<text text-anchor="middle" x="204.25" y="-58.99" font-family="Helvetica,sans-Serif" font-size="10.00">2</text>
</a>
</g>
</g>
<!-- dir_a5cc16706b2f696b4aa39af29b07fbf0 -->
<g id="node4" class="node">
<title>dir_a5cc16706b2f696b4aa39af29b07fbf0</title>
<g id="a_node4"><a xlink:href="dir_a5cc16706b2f696b4aa39af29b07fbf0.html" target="_top" xlink:title="feelmesh">
<polygon fill="#c9d6a2" stroke="#404040" points="230,-132 168,-132 168,-96 230,-96 230,-132"/>
<text text-anchor="middle" x="199" y="-111.5" font-family="Helvetica,sans-Serif" font-size="10.00">feelmesh</text>
</a>
</g>
</g>
<!-- dir_a5cc16706b2f696b4aa39af29b07fbf0&#45;&gt;dir_f953484fe51916b7b30cc3393ae061de -->
<g id="edge2" class="edge">
<title>dir_a5cc16706b2f696b4aa39af29b07fbf0&#45;&gt;dir_f953484fe51916b7b30cc3393ae061de</title>
<path fill="none" stroke="black" d="M189.61,-95.7C185.24,-87.64 179.94,-77.89 175.1,-68.98"/>
<polygon fill="black" stroke="black" points="178.13,-67.22 170.29,-60.1 171.98,-70.56 178.13,-67.22"/>
<g id="a_edge2&#45;headlabel"><a xlink:href="dir_000014_000011.html" target="_top" xlink:title="4">
<text text-anchor="middle" x="182.34" y="-66.53" font-family="Helvetica,sans-Serif" font-size="10.00">4</text>
</a>
</g>
</g>
<!-- dir_ae42fc5760cccf0772f16e08b35ec1ab -->
<g id="node5" class="node">
<title>dir_ae42fc5760cccf0772f16e08b35ec1ab</title>
<g id="a_node5"><a xlink:href="dir_ae42fc5760cccf0772f16e08b35ec1ab.html" target="_top" xlink:title="feelts">
<polygon fill="#c9d6a2" stroke="#404040" points="150,-132 96,-132 96,-96 150,-96 150,-132"/>
<text text-anchor="middle" x="123" y="-111.5" font-family="Helvetica,sans-Serif" font-size="10.00">feelts</text>
</a>
</g>
</g>
<!-- dir_ae42fc5760cccf0772f16e08b35ec1ab&#45;&gt;dir_f953484fe51916b7b30cc3393ae061de -->
<g id="edge3" class="edge">
<title>dir_ae42fc5760cccf0772f16e08b35ec1ab&#45;&gt;dir_f953484fe51916b7b30cc3393ae061de</title>
<path fill="none" stroke="black" d="M132.39,-95.7C136.76,-87.64 142.06,-77.89 146.9,-68.98"/>
<polygon fill="black" stroke="black" points="150.02,-70.56 151.71,-60.1 143.87,-67.22 150.02,-70.56"/>
<g id="a_edge3&#45;headlabel"><a xlink:href="dir_000018_000011.html" target="_top" xlink:title="3">
<text text-anchor="middle" x="150.8" y="-72.58" font-family="Helvetica,sans-Serif" font-size="10.00">3</text>
</a>
</g>
</g>
<!-- dir_3028df760d4718d3ad7450f123c25719 -->
<g id="node6" class="node">
<title>dir_3028df760d4718d3ad7450f123c25719</title>
<g id="a_node6"><a xlink:href="dir_3028df760d4718d3ad7450f123c25719.html" target="_top" xlink:title="feelvf">
<polygon fill="#c9d6a2" stroke="#404040" points="78,-132 24,-132 24,-96 78,-96 78,-132"/>
<text text-anchor="middle" x="51" y="-111.5" font-family="Helvetica,sans-Serif" font-size="10.00">feelvf</text>
</a>
</g>
</g>
<!-- dir_3028df760d4718d3ad7450f123c25719&#45;&gt;dir_f953484fe51916b7b30cc3393ae061de -->
<g id="edge4" class="edge">
<title>dir_3028df760d4718d3ad7450f123c25719&#45;&gt;dir_f953484fe51916b7b30cc3393ae061de</title>
<path fill="none" stroke="black" d="M77.91,-95.88C92.16,-86.81 109.85,-75.55 125.24,-65.76"/>
<polygon fill="black" stroke="black" points="127.43,-68.51 133.99,-60.19 123.67,-62.61 127.43,-68.51"/>
<g id="a_edge4&#45;headlabel"><a xlink:href="dir_000019_000011.html" target="_top" xlink:title="3">
<text text-anchor="middle" x="125.92" y="-70.34" font-family="Helvetica,sans-Serif" font-size="10.00">3</text>
</a>
</g>
</g>
</g>
</svg>
