<?xml version="1.0" encoding="UTF-8" standalone="no"?>
<!DOCTYPE svg PUBLIC "-//W3C//DTD SVG 1.1//EN"
 "http://www.w3.org/Graphics/SVG/1.1/DTD/svg11.dtd">
<!-- Generated by graphviz version 2.43.0 (0)
 -->
<!-- Title: /nvme0/prudhomm/actions&#45;runner&#45;3/_work/feelpp/feelpp/toolboxes/feel/feelmodels Pages: 1 -->
<!--zoomable 159 -->
<svg id="main" version="1.1" xmlns="http://www.w3.org/2000/svg" xmlns:xlink="http://www.w3.org/1999/xlink" xml:space="preserve" onload="init(evt)">
<style type="text/css"><![CDATA[
.edge:hover path { stroke: red; }
.edge:hover polygon { stroke: red; fill: red; }
]]></style>
<script type="text/javascript"><![CDATA[
var edges = document.getElementsByTagName('g');
if (edges && edges.length) {
  for (var i=0;i<edges.length;i++) {
    if (edges[i].id.substr(0,4)=='edge') {
      edges[i].setAttribute('class','edge');
    }
  }
}
]]></script>
        <defs>
                <circle id="rim" cx="0" cy="0" r="7"/>
                <circle id="rim2" cx="0" cy="0" r="3.5"/>
                <g id="zoomPlus">
                        <use xlink:href="#rim" fill="#404040">
                                <set attributeName="fill" to="#808080" begin="zoomplus.mouseover" end="zoomplus.mouseout"/>
                        </use>
                        <path d="M-4,0h8M0,-4v8" fill="none" stroke="white" stroke-width="1.5" pointer-events="none"/>
                </g>
                <g id="zoomMin">
                        <use xlink:href="#rim" fill="#404040">
                                <set attributeName="fill" to="#808080" begin="zoomminus.mouseover" end="zoomminus.mouseout"/>
                        </use>
                        <path d="M-4,0h8" fill="none" stroke="white" stroke-width="1.5" pointer-events="none"/>
                </g>
                <g id="dirArrow">
                        <path fill="none" stroke="white" stroke-width="1.5" d="M0,-3.0v7 M-2.5,-0.5L0,-3.0L2.5,-0.5"/>
                </g>
               <g id="resetDef">
                       <use xlink:href="#rim2" fill="#404040">
                               <set attributeName="fill" to="#808080" begin="reset.mouseover" end="reset.mouseout"/>
                       </use>
               </g>
        </defs>

<script type="text/javascript">
var viewWidth = 713;
var viewHeight = 159;
var sectionId = 'dynsection-0';
</script>
<script xlink:href="svgpan.js"/>
<svg id="graph" class="graph">
<g id="viewport">
<title>/nvme0/prudhomm/actions&#45;runner&#45;3/_work/feelpp/feelpp/toolboxes/feel/feelmodels</title>
<polygon fill="white" stroke="transparent" points="-4,4 -4,-155 709,-155 709,4 -4,4"/>
<g id="clust1" class="cluster">
<title>clusterdir_8376fd919d814f8832f4b02c35fe6e7c</title>
<g id="a_clust1"><a xlink:href="dir_8376fd919d814f8832f4b02c35fe6e7c.html" target="_top" xlink:title="feel">
<polygon fill="#f4f7ed" stroke="#7f7f7f" stroke-dasharray="5,2" points="8,-56 8,-143 697,-143 697,-56 8,-56"/>
<text text-anchor="middle" x="352.5" y="-131" font-family="Helvetica,sans-Serif" font-size="10.00">feel</text>
</a>
</g>
</g>
<g id="clust2" class="cluster">
<title>clusterdir_54eb110a0490902ff309094075525fc9</title>
<g id="a_clust2"><a xlink:href="dir_54eb110a0490902ff309094075525fc9.html" target="_top">
<polygon fill="#f4f7ed" stroke="#404040" stroke-width="2" points="16,-64 16,-116 689,-116 689,-64 16,-64"/>
</a>
</g>
</g>
<!-- dir_54eb110a0490902ff309094075525fc9 -->
<g id="node1" class="node">
<title>dir_54eb110a0490902ff309094075525fc9</title>
<text text-anchor="middle" x="645" y="-87.5" font-family="Helvetica,sans-Serif" font-size="10.00">feelmodels</text>
</g>
<!-- dir_cc6d7b0dad3c5b7549324cf911027d1e -->
<g id="node2" class="node">
<title>dir_cc6d7b0dad3c5b7549324cf911027d1e</title>
<g id="a_node2"><a xlink:href="dir_cc6d7b0dad3c5b7549324cf911027d1e.html" target="_top" xlink:title="coefficientformpdes">
<polygon fill="#c9d6a2" stroke="#404040" points="591.5,-108 476.5,-108 476.5,-72 591.5,-72 591.5,-108"/>
<text text-anchor="middle" x="534" y="-87.5" font-family="Helvetica,sans-Serif" font-size="10.00">coefficientformpdes</text>
</a>
</g>
</g>
<!-- dir_c57732ed23dc3b01bf44b5fbe95d14f7 -->
<g id="node3" class="node">
<title>dir_c57732ed23dc3b01bf44b5fbe95d14f7</title>
<g id="a_node3"><a xlink:href="dir_c57732ed23dc3b01bf44b5fbe95d14f7.html" target="_top" xlink:title="electric">
<polygon fill="#c9d6a2" stroke="#404040" points="458,-108 404,-108 404,-72 458,-72 458,-108"/>
<text text-anchor="middle" x="431" y="-87.5" font-family="Helvetica,sans-Serif" font-size="10.00">electric</text>
</a>
</g>
</g>
<!-- dir_58d06d4a5699d8c5c3ef959b17fcd092 -->
<g id="node9" class="node">
<title>dir_58d06d4a5699d8c5c3ef959b17fcd092</title>
<g id="a_node9"><a xlink:href="dir_58d06d4a5699d8c5c3ef959b17fcd092.html" target="_top" xlink:title="feelpp">
<polygon fill="none" stroke="red" points="312,-36 258,-36 258,0 312,0 312,-36"/>
<text text-anchor="middle" x="285" y="-15.5" font-family="Helvetica,sans-Serif" font-size="10.00">feelpp</text>
</a>
</g>
</g>
<!-- dir_c57732ed23dc3b01bf44b5fbe95d14f7&#45;&gt;dir_58d06d4a5699d8c5c3ef959b17fcd092 -->
<g id="edge1" class="edge">
<title>dir_c57732ed23dc3b01bf44b5fbe95d14f7&#45;&gt;dir_58d06d4a5699d8c5c3ef959b17fcd092</title>
<path fill="none" stroke="black" d="M415.32,-71.97C409.39,-66.29 402.3,-60.31 395,-56 372.28,-42.59 344.02,-33.22 321.84,-27.26"/>
<polygon fill="black" stroke="black" points="322.67,-23.86 312.11,-24.76 320.93,-30.64 322.67,-23.86"/>
<g id="a_edge1&#45;headlabel"><a xlink:href="dir_000007_000017.html" target="_top" xlink:title="1">
<text text-anchor="middle" x="326.86" y="-19.51" font-family="Helvetica,sans-Serif" font-size="10.00">1</text>
</a>
</g>
</g>
<!-- dir_5722ddd198ee32bd64bda56e78a97877 -->
<g id="node4" class="node">
<title>dir_5722ddd198ee32bd64bda56e78a97877</title>
<g id="a_node4"><a xlink:href="dir_5722ddd198ee32bd64bda56e78a97877.html" target="_top" xlink:title="fluid">
<polygon fill="#c9d6a2" stroke="#404040" points="386,-108 332,-108 332,-72 386,-72 386,-108"/>
<text text-anchor="middle" x="359" y="-87.5" font-family="Helvetica,sans-Serif" font-size="10.00">fluid</text>
</a>
</g>
</g>
<!-- dir_5722ddd198ee32bd64bda56e78a97877&#45;&gt;dir_58d06d4a5699d8c5c3ef959b17fcd092 -->
<g id="edge2" class="edge">
<title>dir_5722ddd198ee32bd64bda56e78a97877&#45;&gt;dir_58d06d4a5699d8c5c3ef959b17fcd092</title>
<path fill="none" stroke="black" d="M340.71,-71.7C331.57,-63.05 320.36,-52.45 310.4,-43.03"/>
<polygon fill="black" stroke="black" points="312.75,-40.43 303.08,-36.1 307.94,-45.52 312.75,-40.43"/>
<g id="a_edge2&#45;headlabel"><a xlink:href="dir_000020_000017.html" target="_top" xlink:title="12">
<text text-anchor="middle" x="317.31" y="-38.34" font-family="Helvetica,sans-Serif" font-size="10.00">12</text>
</a>
</g>
</g>
<!-- dir_f35ff70e894d16f8af6447700ed819dc -->
<g id="node5" class="node">
<title>dir_f35ff70e894d16f8af6447700ed819dc</title>
<g id="a_node5"><a xlink:href="dir_f35ff70e894d16f8af6447700ed819dc.html" target="_top" xlink:title="heat">
<polygon fill="#c9d6a2" stroke="#404040" points="314,-108 260,-108 260,-72 314,-72 314,-108"/>
<text text-anchor="middle" x="287" y="-87.5" font-family="Helvetica,sans-Serif" font-size="10.00">heat</text>
</a>
</g>
</g>
<!-- dir_9e4b3202e39896c5774500e980667bf6 -->
<g id="node6" class="node">
<title>dir_9e4b3202e39896c5774500e980667bf6</title>
<g id="a_node6"><a xlink:href="dir_9e4b3202e39896c5774500e980667bf6.html" target="_top" xlink:title="heatfluid">
<polygon fill="#c9d6a2" stroke="#404040" points="242,-108 182,-108 182,-72 242,-72 242,-108"/>
<text text-anchor="middle" x="212" y="-87.5" font-family="Helvetica,sans-Serif" font-size="10.00">heatfluid</text>
</a>
</g>
</g>
<!-- dir_9e4b3202e39896c5774500e980667bf6&#45;&gt;dir_58d06d4a5699d8c5c3ef959b17fcd092 -->
<g id="edge3" class="edge">
<title>dir_9e4b3202e39896c5774500e980667bf6&#45;&gt;dir_58d06d4a5699d8c5c3ef959b17fcd092</title>
<path fill="none" stroke="black" d="M230.04,-71.7C239.06,-63.05 250.12,-52.45 259.94,-43.03"/>
<polygon fill="black" stroke="black" points="262.37,-45.55 267.16,-36.1 257.52,-40.5 262.37,-45.55"/>
<g id="a_edge3&#45;headlabel"><a xlink:href="dir_000022_000017.html" target="_top" xlink:title="1">
<text text-anchor="middle" x="261.74" y="-47.59" font-family="Helvetica,sans-Serif" font-size="10.00">1</text>
</a>
</g>
</g>
<!-- dir_dea2f840933db37d8d7fe2fd193f98c8 -->
<g id="node7" class="node">
<title>dir_dea2f840933db37d8d7fe2fd193f98c8</title>
<g id="a_node7"><a xlink:href="dir_dea2f840933db37d8d7fe2fd193f98c8.html" target="_top" xlink:title="modelcore">
<polygon fill="#c9d6a2" stroke="#404040" points="164,-108 96,-108 96,-72 164,-72 164,-108"/>
<text text-anchor="middle" x="130" y="-87.5" font-family="Helvetica,sans-Serif" font-size="10.00">modelcore</text>
</a>
</g>
</g>
<!-- dir_dea2f840933db37d8d7fe2fd193f98c8&#45;&gt;dir_58d06d4a5699d8c5c3ef959b17fcd092 -->
<g id="edge4" class="edge">
<title>dir_dea2f840933db37d8d7fe2fd193f98c8&#45;&gt;dir_58d06d4a5699d8c5c3ef959b17fcd092</title>
<path fill="none" stroke="black" d="M149.61,-71.74C156.64,-66.16 164.85,-60.31 173,-56 196.7,-43.46 225.46,-34.06 247.9,-27.88"/>
<polygon fill="black" stroke="black" points="248.96,-31.22 257.72,-25.27 247.16,-24.46 248.96,-31.22"/>
<g id="a_edge4&#45;headlabel"><a xlink:href="dir_000023_000017.html" target="_top" xlink:title="2">
<text text-anchor="middle" x="246.22" y="-32.39" font-family="Helvetica,sans-Serif" font-size="10.00">2</text>
</a>
</g>
</g>
<!-- dir_131c83556db37b45d88be5c6fb48541d -->
<g id="node8" class="node">
<title>dir_131c83556db37b45d88be5c6fb48541d</title>
<g id="a_node8"><a xlink:href="dir_131c83556db37b45d88be5c6fb48541d.html" target="_top" xlink:title="solid">
<polygon fill="#c9d6a2" stroke="#404040" points="78,-108 24,-108 24,-72 78,-72 78,-108"/>
<text text-anchor="middle" x="51" y="-87.5" font-family="Helvetica,sans-Serif" font-size="10.00">solid</text>
</a>
</g>
</g>
</g>
</svg>
        <g id="navigator" transform="translate(0 0)" fill="#404254">
                <rect fill="#f2f5e9" fill-opacity="0.5" stroke="#606060" stroke-width=".5" x="0" y="0" width="60" height="60"/>
                <use id="zoomplus" xlink:href="#zoomPlus" x="17" y="9" onmousedown="handleZoom(evt,'in')"/>
                <use id="zoomminus" xlink:href="#zoomMin" x="42" y="9" onmousedown="handleZoom(evt,'out')"/>
                <use id="reset" xlink:href="#resetDef" x="30" y="36" onmousedown="handleReset()"/>
                <g id="arrowUp" xlink:href="#dirArrow" transform="translate(30 24)" onmousedown="handlePan(0,-1)">
                  <use xlink:href="#rim" fill="#404040">
                        <set attributeName="fill" to="#808080" begin="arrowUp.mouseover" end="arrowUp.mouseout"/>
                  </use>
                  <path fill="none" stroke="white" stroke-width="1.5" d="M0,-3.0v7 M-2.5,-0.5L0,-3.0L2.5,-0.5"/>
                </g>
                <g id="arrowRight" xlink:href="#dirArrow" transform="rotate(90) translate(36 -43)" onmousedown="handlePan(1,0)">
                  <use xlink:href="#rim" fill="#404040">
                        <set attributeName="fill" to="#808080" begin="arrowRight.mouseover" end="arrowRight.mouseout"/>
                  </use>
                  <path fill="none" stroke="white" stroke-width="1.5" d="M0,-3.0v7 M-2.5,-0.5L0,-3.0L2.5,-0.5"/>
                </g>
                <g id="arrowDown" xlink:href="#dirArrow" transform="rotate(180) translate(-30 -48)" onmousedown="handlePan(0,1)">
                  <use xlink:href="#rim" fill="#404040">
                        <set attributeName="fill" to="#808080" begin="arrowDown.mouseover" end="arrowDown.mouseout"/>
                  </use>
                  <path fill="none" stroke="white" stroke-width="1.5" d="M0,-3.0v7 M-2.5,-0.5L0,-3.0L2.5,-0.5"/>
                </g>
                <g id="arrowLeft" xlink:href="#dirArrow" transform="rotate(270) translate(-36 17)" onmousedown="handlePan(-1,0)">
                  <use xlink:href="#rim" fill="#404040">
                        <set attributeName="fill" to="#808080" begin="arrowLeft.mouseover" end="arrowLeft.mouseout"/>
                  </use>
                  <path fill="none" stroke="white" stroke-width="1.5" d="M0,-3.0v7 M-2.5,-0.5L0,-3.0L2.5,-0.5"/>
                </g>
        </g>
        <svg viewBox="0 0 15 15" width="100%" height="30px" preserveAspectRatio="xMaxYMin meet">
         <g id="arrow_out" transform="scale(0.3 0.3)">
          <a xlink:href="dir_54eb110a0490902ff309094075525fc9_dep_org.svg" target="_base">
           <rect id="button" ry="5" rx="5" y="6" x="6" height="38" width="38"
                fill="#f2f5e9" fill-opacity="0.5" stroke="#606060" stroke-width="1.0"/>
           <path id="arrow"
             d="M 11.500037,31.436501 C 11.940474,20.09759 22.043105,11.32322 32.158766,21.979434 L 37.068811,17.246167 C 37.068811,17.246167 37.088388,32 37.088388,32 L 22.160133,31.978069 C 22.160133,31.978069 26.997745,27.140456 26.997745,27.140456 C 18.528582,18.264221 13.291696,25.230495 11.500037,31.436501 z"
             style="fill:#404040;"/>
          </a>
         </g>
        </svg>
</svg>
