<?xml version="1.0" encoding="UTF-8" standalone="no"?>
<!DOCTYPE svg PUBLIC "-//W3C//DTD SVG 1.1//EN"
 "http://www.w3.org/Graphics/SVG/1.1/DTD/svg11.dtd">
<!-- Generated by graphviz version 2.43.0 (0)
 -->
<!-- Title: /home/runner/work/feelpp/feelpp/feelpp/feel/feeldiscr Pages: 1 -->
<svg width="188pt" height="159pt"
 viewBox="0.00 0.00 188.00 159.00" xmlns="http://www.w3.org/2000/svg" xmlns:xlink="http://www.w3.org/1999/xlink">
<g id="graph0" class="graph" transform="scale(1 1) rotate(0) translate(4 155)">
<title>/home/runner/work/feelpp/feelpp/feelpp/feel/feeldiscr</title>
<polygon fill="white" stroke="transparent" points="-4,4 -4,-155 184,-155 184,4 -4,4"/>
<g id="clust1" class="cluster">
<title>clusterdir_a4c121e06ebcc119b041a36581d5d48a</title>
<g id="a_clust1"><a xlink:href="dir_a4c121e06ebcc119b041a36581d5d48a.html" target="_top" xlink:title="feel">
<polygon fill="#ddddee" stroke="black" points="8,-56 8,-143 172,-143 172,-56 8,-56"/>
<text text-anchor="middle" x="90" y="-131" font-family="Helvetica,sans-Serif" font-size="10.00">feel</text>
</a>
</g>
</g>
<g id="clust2" class="cluster">
<title>clusterdir_201afb6b72871638822819f2c834f547</title>
<g id="a_clust2"><a xlink:href="dir_201afb6b72871638822819f2c834f547.html" target="_top">
<polygon fill="#eeeeff" stroke="black" points="16,-64 16,-116 164,-116 164,-64 16,-64"/>
</a>
</g>
</g>
<!-- dir_201afb6b72871638822819f2c834f547 -->
<g id="node1" class="node">
<title>dir_201afb6b72871638822819f2c834f547</title>
<text text-anchor="middle" x="126" y="-87.5" font-family="Helvetica,sans-Serif" font-size="10.00">feeldiscr</text>
</g>
<!-- dir_f953484fe51916b7b30cc3393ae061de -->
<g id="node3" class="node">
<title>dir_f953484fe51916b7b30cc3393ae061de</title>
<g id="a_node3"><a xlink:href="dir_f953484fe51916b7b30cc3393ae061de.html" target="_top" xlink:title="feelcore">
<polygon fill="none" stroke="black" points="154,-36 98,-36 98,0 154,0 154,-36"/>
<text text-anchor="middle" x="126" y="-15.5" font-family="Helvetica,sans-Serif" font-size="10.00">feelcore</text>
</a>
</g>
</g>
<!-- dir_201afb6b72871638822819f2c834f547&#45;&gt;dir_f953484fe51916b7b30cc3393ae061de -->
<g id="edge1" class="edge">
<title>dir_201afb6b72871638822819f2c834f547&#45;&gt;dir_f953484fe51916b7b30cc3393ae061de</title>
<path fill="none" stroke="black" d="M126,-71.7C126,-63.98 126,-54.71 126,-46.11"/>
<polygon fill="black" stroke="black" points="129.5,-46.1 126,-36.1 122.5,-46.1 129.5,-46.1"/>
<g id="a_edge1&#45;headlabel"><a xlink:href="dir_000004_000002.html" target="_top" xlink:title="2">
<text text-anchor="middle" x="132.34" y="-47.2" font-family="Helvetica,sans-Serif" font-size="10.00">2</text>
</a>
</g>
</g>
<!-- dir_4d6064020e48c1ac64ebe36d12eab2ff -->
<g id="node2" class="node">
<title>dir_4d6064020e48c1ac64ebe36d12eab2ff</title>
<g id="a_node2"><a xlink:href="dir_4d6064020e48c1ac64ebe36d12eab2ff.html" target="_top" xlink:title="detail">
<polygon fill="white" stroke="black" points="78,-108 24,-108 24,-72 78,-72 78,-108"/>
<text text-anchor="middle" x="51" y="-87.5" font-family="Helvetica,sans-Serif" font-size="10.00">detail</text>
</a>
</g>
</g>
</g>
</svg>
