<?xml version="1.0" encoding="UTF-8" standalone="no"?>
<!DOCTYPE svg PUBLIC "-//W3C//DTD SVG 1.1//EN"
 "http://www.w3.org/Graphics/SVG/1.1/DTD/svg11.dtd">
<!-- Generated by graphviz version 2.43.0 (0)
 -->
<!-- Title: /nvme0/prudhomm/actions&#45;runner/_work/feelpp/feelpp/toolboxes/feel/feelmodels/fluid Pages: 1 -->
<svg width="95pt" height="151pt"
 viewBox="0.00 0.00 95.00 151.00" xmlns="http://www.w3.org/2000/svg" xmlns:xlink="http://www.w3.org/1999/xlink">
<g id="graph0" class="graph" transform="scale(1 1) rotate(0) translate(4 147)">
<title>/nvme0/prudhomm/actions&#45;runner/_work/feelpp/feelpp/toolboxes/feel/feelmodels/fluid</title>
<polygon fill="white" stroke="transparent" points="-4,4 -4,-147 91,-147 91,4 -4,4"/>
<g id="clust1" class="cluster">
<title>clusterdir_54eb110a0490902ff309094075525fc9</title>
<g id="a_clust1"><a xlink:href="dir_54eb110a0490902ff309094075525fc9.html" target="_top" xlink:title="feelmodels">
<polygon fill="#f4f7ed" stroke="#7f7f7f" stroke-dasharray="5,2" points="8,-64 8,-135 79,-135 79,-64 8,-64"/>
<text text-anchor="middle" x="43.5" y="-123" font-family="Helvetica,sans-Serif" font-size="10.00">feelmodels</text>
</a>
</g>
</g>
<!-- dir_5722ddd198ee32bd64bda56e78a97877 -->
<g id="node1" class="node">
<title>dir_5722ddd198ee32bd64bda56e78a97877</title>
<g id="a_node1"><a xlink:href="dir_5722ddd198ee32bd64bda56e78a97877.html" target="_top" xlink:title="fluid">
<polygon fill="#f4f7ed" stroke="#404040" stroke-width="2" points="70,-108 16,-108 16,-72 70,-72 70,-108"/>
<text text-anchor="middle" x="43" y="-87.5" font-family="Helvetica,sans-Serif" font-size="10.00">fluid</text>
</a>
</g>
</g>
<!-- dir_58d06d4a5699d8c5c3ef959b17fcd092 -->
<g id="node2" class="node">
<title>dir_58d06d4a5699d8c5c3ef959b17fcd092</title>
<g id="a_node2"><a xlink:href="dir_58d06d4a5699d8c5c3ef959b17fcd092.html" target="_top" xlink:title="feelpp">
<polygon fill="none" stroke="red" points="70,-36 16,-36 16,0 70,0 70,-36"/>
<text text-anchor="middle" x="43" y="-15.5" font-family="Helvetica,sans-Serif" font-size="10.00">feelpp</text>
</a>
</g>
</g>
<!-- dir_5722ddd198ee32bd64bda56e78a97877&#45;&gt;dir_58d06d4a5699d8c5c3ef959b17fcd092 -->
<g id="edge1" class="edge">
<title>dir_5722ddd198ee32bd64bda56e78a97877&#45;&gt;dir_58d06d4a5699d8c5c3ef959b17fcd092</title>
<path fill="none" stroke="black" d="M43,-71.7C43,-63.98 43,-54.71 43,-46.11"/>
<polygon fill="black" stroke="black" points="46.5,-46.1 43,-36.1 39.5,-46.1 46.5,-46.1"/>
<g id="a_edge1&#45;headlabel"><a xlink:href="dir_000020_000017.html" target="_top" xlink:title="12">
<text text-anchor="middle" x="49.34" y="-47.2" font-family="Helvetica,sans-Serif" font-size="10.00">12</text>
</a>
</g>
</g>
</g>
</svg>
