<?xml version="1.0" encoding="UTF-8" standalone="no"?>
<!DOCTYPE svg PUBLIC "-//W3C//DTD SVG 1.1//EN"
 "http://www.w3.org/Graphics/SVG/1.1/DTD/svg11.dtd">
<!-- Generated by graphviz version 2.43.0 (0)
 -->
<!-- Title: /nvme0/prudhomm/github&#45;actions/actions&#45;runner&#45;2/_work/feelpp/feelpp/feelpp/feel/feelmesh Pages: 1 -->
<svg width="190pt" height="175pt"
 viewBox="0.00 0.00 190.00 175.00" xmlns="http://www.w3.org/2000/svg" xmlns:xlink="http://www.w3.org/1999/xlink">
<g id="graph0" class="graph" transform="scale(1 1) rotate(0) translate(4 171)">
<title>/nvme0/prudhomm/github&#45;actions/actions&#45;runner&#45;2/_work/feelpp/feelpp/feelpp/feel/feelmesh</title>
<polygon fill="white" stroke="transparent" points="-4,4 -4,-171 186,-171 186,4 -4,4"/>
<g id="clust1" class="cluster">
<title>clusterdir_a4c121e06ebcc119b041a36581d5d48a</title>
<g id="a_clust1"><a xlink:href="dir_a4c121e06ebcc119b041a36581d5d48a.html" target="_top" xlink:title="feel">
<polygon fill="#f4f7ed" stroke="#7f7f7f" stroke-dasharray="5,2" points="8,-8 8,-159 174,-159 174,-8 8,-8"/>
<text text-anchor="middle" x="91" y="-147" font-family="Helvetica,sans-Serif" font-size="10.00">feel</text>
</a>
</g>
</g>
<g id="clust2" class="cluster">
<title>clusterdir_a5cc16706b2f696b4aa39af29b07fbf0</title>
<g id="a_clust2"><a xlink:href="dir_a5cc16706b2f696b4aa39af29b07fbf0.html" target="_top">
<polygon fill="#f4f7ed" stroke="#404040" stroke-width="2" points="16,-80 16,-132 166,-132 166,-80 16,-80"/>
</a>
</g>
</g>
<!-- dir_f953484fe51916b7b30cc3393ae061de -->
<g id="node1" class="node">
<title>dir_f953484fe51916b7b30cc3393ae061de</title>
<g id="a_node1"><a xlink:href="dir_f953484fe51916b7b30cc3393ae061de.html" target="_top" xlink:title="feelcore">
<polygon fill="#c9d6a2" stroke="#404040" points="155,-52 99,-52 99,-16 155,-16 155,-52"/>
<text text-anchor="middle" x="127" y="-31.5" font-family="Helvetica,sans-Serif" font-size="10.00">feelcore</text>
</a>
</g>
</g>
<!-- dir_a5cc16706b2f696b4aa39af29b07fbf0 -->
<g id="node2" class="node">
<title>dir_a5cc16706b2f696b4aa39af29b07fbf0</title>
<text text-anchor="middle" x="127" y="-103.5" font-family="Helvetica,sans-Serif" font-size="10.00">feelmesh</text>
</g>
<!-- dir_a5cc16706b2f696b4aa39af29b07fbf0&#45;&gt;dir_f953484fe51916b7b30cc3393ae061de -->
<g id="edge1" class="edge">
<title>dir_a5cc16706b2f696b4aa39af29b07fbf0&#45;&gt;dir_f953484fe51916b7b30cc3393ae061de</title>
<path fill="none" stroke="black" d="M127,-87.7C127,-79.98 127,-70.71 127,-62.11"/>
<polygon fill="black" stroke="black" points="130.5,-62.1 127,-52.1 123.5,-62.1 130.5,-62.1"/>
<g id="a_edge1&#45;headlabel"><a xlink:href="dir_000014_000011.html" target="_top" xlink:title="4">
<text text-anchor="middle" x="133.34" y="-63.2" font-family="Helvetica,sans-Serif" font-size="10.00">4</text>
</a>
</g>
</g>
<!-- dir_95ff000cf1450fd862876eb858a0a6ab -->
<g id="node3" class="node">
<title>dir_95ff000cf1450fd862876eb858a0a6ab</title>
<g id="a_node3"><a xlink:href="dir_95ff000cf1450fd862876eb858a0a6ab.html" target="_top" xlink:title="detail">
<polygon fill="#c9d6a2" stroke="#404040" points="78,-124 24,-124 24,-88 78,-88 78,-124"/>
<text text-anchor="middle" x="51" y="-103.5" font-family="Helvetica,sans-Serif" font-size="10.00">detail</text>
</a>
</g>
</g>
</g>
</svg>
