<?xml version="1.0" encoding="UTF-8" standalone="no"?>
<!DOCTYPE svg PUBLIC "-//W3C//DTD SVG 1.1//EN"
 "http://www.w3.org/Graphics/SVG/1.1/DTD/svg11.dtd">
<!-- Generated by graphviz version 2.43.0 (0)
 -->
<!-- Title: /nvme0/prudhomm/actions&#45;runner&#45;2/_work/feelpp/feelpp/toolboxes/feel Pages: 1 -->
<svg width="200pt" height="159pt"
 viewBox="0.00 0.00 200.00 159.00" xmlns="http://www.w3.org/2000/svg" xmlns:xlink="http://www.w3.org/1999/xlink">
<g id="graph0" class="graph" transform="scale(1 1) rotate(0) translate(4 155)">
<title>/nvme0/prudhomm/actions&#45;runner&#45;2/_work/feelpp/feelpp/toolboxes/feel</title>
<polygon fill="white" stroke="transparent" points="-4,4 -4,-155 196,-155 196,4 -4,4"/>
<g id="clust1" class="cluster">
<title>clusterdir_cf1beb539ef5c09a983cc00836e8c765</title>
<g id="a_clust1"><a xlink:href="dir_cf1beb539ef5c09a983cc00836e8c765.html" target="_top" xlink:title="toolboxes">
<polygon fill="#f4f7ed" stroke="#404040" stroke-dasharray="5,2" points="8,-56 8,-143 184,-143 184,-56 8,-56"/>
<text text-anchor="middle" x="96" y="-131" font-family="Helvetica,sans-Serif" font-size="10.00">toolboxes</text>
</a>
</g>
</g>
<g id="clust2" class="cluster">
<title>clusterdir_8376fd919d814f8832f4b02c35fe6e7c</title>
<g id="a_clust2"><a xlink:href="dir_8376fd919d814f8832f4b02c35fe6e7c.html" target="_top">
<polygon fill="#f4f7ed" stroke="#404040" stroke-width="2" points="16,-64 16,-116 176,-116 176,-64 16,-64"/>
</a>
</g>
</g>
<!-- dir_8376fd919d814f8832f4b02c35fe6e7c -->
<g id="node1" class="node">
<title>dir_8376fd919d814f8832f4b02c35fe6e7c</title>
<text text-anchor="middle" x="141" y="-87.5" font-family="Helvetica,sans-Serif" font-size="10.00">feel</text>
</g>
<!-- dir_54eb110a0490902ff309094075525fc9 -->
<g id="node2" class="node">
<title>dir_54eb110a0490902ff309094075525fc9</title>
<g id="a_node2"><a xlink:href="dir_54eb110a0490902ff309094075525fc9.html" target="_top" xlink:title="feelmodels">
<polygon fill="#c9d6a2" stroke="#404040" points="95.5,-108 24.5,-108 24.5,-72 95.5,-72 95.5,-108"/>
<text text-anchor="middle" x="60" y="-87.5" font-family="Helvetica,sans-Serif" font-size="10.00">feelmodels</text>
</a>
</g>
</g>
<!-- dir_58d06d4a5699d8c5c3ef959b17fcd092 -->
<g id="node3" class="node">
<title>dir_58d06d4a5699d8c5c3ef959b17fcd092</title>
<g id="a_node3"><a xlink:href="dir_58d06d4a5699d8c5c3ef959b17fcd092.html" target="_top" xlink:title="feelpp">
<polygon fill="none" stroke="red" points="87,-36 33,-36 33,0 87,0 87,-36"/>
<text text-anchor="middle" x="60" y="-15.5" font-family="Helvetica,sans-Serif" font-size="10.00">feelpp</text>
</a>
</g>
</g>
<!-- dir_54eb110a0490902ff309094075525fc9&#45;&gt;dir_58d06d4a5699d8c5c3ef959b17fcd092 -->
<g id="edge1" class="edge">
<title>dir_54eb110a0490902ff309094075525fc9&#45;&gt;dir_58d06d4a5699d8c5c3ef959b17fcd092</title>
<path fill="none" stroke="black" d="M60,-71.7C60,-63.98 60,-54.71 60,-46.11"/>
<polygon fill="black" stroke="black" points="63.5,-46.1 60,-36.1 56.5,-46.1 63.5,-46.1"/>
<g id="a_edge1&#45;headlabel"><a xlink:href="dir_000016_000017.html" target="_top" xlink:title="16">
<text text-anchor="middle" x="66.34" y="-47.2" font-family="Helvetica,sans-Serif" font-size="10.00">16</text>
</a>
</g>
</g>
</g>
</svg>
