<?xml version="1.0" encoding="UTF-8" standalone="no"?>
<!DOCTYPE svg PUBLIC "-//W3C//DTD SVG 1.1//EN"
 "http://www.w3.org/Graphics/SVG/1.1/DTD/svg11.dtd">
<!-- Generated by graphviz version 2.43.0 (0)
 -->
<!-- Title: /nvme0/prudhomm/github&#45;actions/actions&#45;runner&#45;2/_work/feelpp/feelpp/feelpp/feel/feelvf Pages: 1 -->
<svg width="182pt" height="175pt"
 viewBox="0.00 0.00 182.00 175.00" xmlns="http://www.w3.org/2000/svg" xmlns:xlink="http://www.w3.org/1999/xlink">
<g id="graph0" class="graph" transform="scale(1 1) rotate(0) translate(4 171)">
<title>/nvme0/prudhomm/github&#45;actions/actions&#45;runner&#45;2/_work/feelpp/feelpp/feelpp/feel/feelvf</title>
<polygon fill="white" stroke="transparent" points="-4,4 -4,-171 178,-171 178,4 -4,4"/>
<g id="clust1" class="cluster">
<title>clusterdir_a4c121e06ebcc119b041a36581d5d48a</title>
<g id="a_clust1"><a xlink:href="dir_a4c121e06ebcc119b041a36581d5d48a.html" target="_top" xlink:title="feel">
<polygon fill="#f4f7ed" stroke="#7f7f7f" stroke-dasharray="5,2" points="8,-8 8,-159 166,-159 166,-8 8,-8"/>
<text text-anchor="middle" x="87" y="-147" font-family="Helvetica,sans-Serif" font-size="10.00">feel</text>
</a>
</g>
</g>
<g id="clust2" class="cluster">
<title>clusterdir_3028df760d4718d3ad7450f123c25719</title>
<g id="a_clust2"><a xlink:href="dir_3028df760d4718d3ad7450f123c25719.html" target="_top">
<polygon fill="#f4f7ed" stroke="#404040" stroke-width="2" points="16,-80 16,-132 158,-132 158,-80 16,-80"/>
</a>
</g>
</g>
<!-- dir_f953484fe51916b7b30cc3393ae061de -->
<g id="node1" class="node">
<title>dir_f953484fe51916b7b30cc3393ae061de</title>
<g id="a_node1"><a xlink:href="dir_f953484fe51916b7b30cc3393ae061de.html" target="_top" xlink:title="feelcore">
<polygon fill="#c9d6a2" stroke="#404040" points="115,-52 59,-52 59,-16 115,-16 115,-52"/>
<text text-anchor="middle" x="87" y="-31.5" font-family="Helvetica,sans-Serif" font-size="10.00">feelcore</text>
</a>
</g>
</g>
<!-- dir_3028df760d4718d3ad7450f123c25719 -->
<g id="node2" class="node">
<title>dir_3028df760d4718d3ad7450f123c25719</title>
<text text-anchor="middle" x="123" y="-103.5" font-family="Helvetica,sans-Serif" font-size="10.00">feelvf</text>
</g>
<!-- dir_3028df760d4718d3ad7450f123c25719&#45;&gt;dir_f953484fe51916b7b30cc3393ae061de -->
<g id="edge1" class="edge">
<title>dir_3028df760d4718d3ad7450f123c25719&#45;&gt;dir_f953484fe51916b7b30cc3393ae061de</title>
<path fill="none" stroke="black" d="M114.1,-87.7C110,-79.73 105.05,-70.1 100.51,-61.26"/>
<polygon fill="black" stroke="black" points="103.48,-59.4 95.8,-52.1 97.26,-62.6 103.48,-59.4"/>
<g id="a_edge1&#45;headlabel"><a xlink:href="dir_000019_000011.html" target="_top" xlink:title="3">
<text text-anchor="middle" x="107.65" y="-58.79" font-family="Helvetica,sans-Serif" font-size="10.00">3</text>
</a>
</g>
</g>
<!-- dir_8e1007eda518a56815ea54c5ff0df4a3 -->
<g id="node3" class="node">
<title>dir_8e1007eda518a56815ea54c5ff0df4a3</title>
<g id="a_node3"><a xlink:href="dir_8e1007eda518a56815ea54c5ff0df4a3.html" target="_top" xlink:title="detail">
<polygon fill="#c9d6a2" stroke="#404040" points="78,-124 24,-124 24,-88 78,-88 78,-124"/>
<text text-anchor="middle" x="51" y="-103.5" font-family="Helvetica,sans-Serif" font-size="10.00">detail</text>
</a>
</g>
</g>
<!-- dir_8e1007eda518a56815ea54c5ff0df4a3&#45;&gt;dir_f953484fe51916b7b30cc3393ae061de -->
<g id="edge2" class="edge">
<title>dir_8e1007eda518a56815ea54c5ff0df4a3&#45;&gt;dir_f953484fe51916b7b30cc3393ae061de</title>
<path fill="none" stroke="black" d="M59.9,-87.7C64,-79.73 68.95,-70.1 73.49,-61.26"/>
<polygon fill="black" stroke="black" points="76.74,-62.6 78.2,-52.1 70.52,-59.4 76.74,-62.6"/>
<g id="a_edge2&#45;headlabel"><a xlink:href="dir_000005_000011.html" target="_top" xlink:title="1">
<text text-anchor="middle" x="77.62" y="-64.59" font-family="Helvetica,sans-Serif" font-size="10.00">1</text>
</a>
</g>
</g>
</g>
</svg>
