<?xml version="1.0" encoding="UTF-8" standalone="no"?>
<!DOCTYPE svg PUBLIC "-//W3C//DTD SVG 1.1//EN"
 "http://www.w3.org/Graphics/SVG/1.1/DTD/svg11.dtd">
<!-- Generated by graphviz version 2.43.0 (0)
 -->
<!-- Title: /nvme0/prudhomm/actions&#45;runner/_work/feelpp/feelpp/feelpp/feel/feelmesh/entities.cpp Pages: 1 -->
<svg width="453pt" height="106pt"
 viewBox="0.00 0.00 453.00 106.00" xmlns="http://www.w3.org/2000/svg" xmlns:xlink="http://www.w3.org/1999/xlink">
<g id="graph0" class="graph" transform="scale(1 1) rotate(0) translate(4 102)">
<title>/nvme0/prudhomm/actions&#45;runner/_work/feelpp/feelpp/feelpp/feel/feelmesh/entities.cpp</title>
<polygon fill="white" stroke="transparent" points="-4,4 -4,-102 449,-102 449,4 -4,4"/>
<!-- Node1 -->
<g id="node1" class="node">
<title>Node1</title>
<g id="a_node1"><a xlink:title=" ">
<polygon fill="#bfbfbf" stroke="black" points="131,-56.5 131,-97.5 312,-97.5 312,-56.5 131,-56.5"/>
<text text-anchor="start" x="139" y="-85.5" font-family="Helvetica,sans-Serif" font-size="10.00">/nvme0/prudhomm/actions</text>
<text text-anchor="start" x="139" y="-74.5" font-family="Helvetica,sans-Serif" font-size="10.00">&#45;runner/_work/feelpp/feelpp</text>
<text text-anchor="middle" x="221.5" y="-63.5" font-family="Helvetica,sans-Serif" font-size="10.00">/feelpp/feel/feelmesh/entities.cpp</text>
</a>
</g>
</g>
<!-- Node2 -->
<g id="node2" class="node">
<title>Node2</title>
<g id="a_node2"><a xlink:title=" ">
<polygon fill="white" stroke="#bfbfbf" points="0,-0.5 0,-19.5 143,-19.5 143,-0.5 0,-0.5"/>
<text text-anchor="middle" x="71.5" y="-7.5" font-family="Helvetica,sans-Serif" font-size="10.00">boost/detail/identifier.hpp</text>
</a>
</g>
</g>
<!-- Node1&#45;&gt;Node2 -->
<g id="edge1" class="edge">
<title>Node1&#45;&gt;Node2</title>
<path fill="none" stroke="midnightblue" d="M176.5,-56.5C151.95,-45.86 122.27,-33 100.74,-23.67"/>
<polygon fill="midnightblue" stroke="midnightblue" points="102.03,-20.42 91.47,-19.65 99.25,-26.84 102.03,-20.42"/>
</g>
<!-- Node3 -->
<g id="node3" class="node">
<title>Node3</title>
<g id="a_node3"><a xlink:href="feel_8hpp.html" target="_top" xlink:title="&#45;*&#45; mode: c++; coding: utf&#45;8; tab&#45;width: 4; indent&#45;tabs&#45;mode: nil; c&#45;basic&#45;offset: 4; show&#45;trailing&#45;w...">
<polygon fill="white" stroke="black" points="161,-0.5 161,-19.5 282,-19.5 282,-0.5 161,-0.5"/>
<text text-anchor="middle" x="221.5" y="-7.5" font-family="Helvetica,sans-Serif" font-size="10.00">feel/feelcore/feel.hpp</text>
</a>
</g>
</g>
<!-- Node1&#45;&gt;Node3 -->
<g id="edge2" class="edge">
<title>Node1&#45;&gt;Node3</title>
<path fill="none" stroke="midnightblue" d="M221.5,-56.5C221.5,-48.07 221.5,-38.24 221.5,-29.87"/>
<polygon fill="midnightblue" stroke="midnightblue" points="225,-29.65 221.5,-19.65 218,-29.65 225,-29.65"/>
</g>
<!-- Node4 -->
<g id="node4" class="node">
<title>Node4</title>
<g id="a_node4"><a xlink:title=" ">
<polygon fill="white" stroke="#bfbfbf" points="300,-0.5 300,-19.5 445,-19.5 445,-0.5 300,-0.5"/>
<text text-anchor="middle" x="372.5" y="-7.5" font-family="Helvetica,sans-Serif" font-size="10.00">feel/feelmesh/entities.hpp</text>
</a>
</g>
</g>
<!-- Node1&#45;&gt;Node4 -->
<g id="edge3" class="edge">
<title>Node1&#45;&gt;Node4</title>
<path fill="none" stroke="midnightblue" d="M266.8,-56.5C291.51,-45.86 321.39,-33 343.07,-23.67"/>
<polygon fill="midnightblue" stroke="midnightblue" points="344.6,-26.82 352.4,-19.65 341.83,-20.39 344.6,-26.82"/>
</g>
</g>
</svg>
