<?xml version="1.0" encoding="UTF-8" standalone="no"?>
<!DOCTYPE svg PUBLIC "-//W3C//DTD SVG 1.1//EN"
 "http://www.w3.org/Graphics/SVG/1.1/DTD/svg11.dtd">
<!-- Generated by graphviz version 2.43.0 (0)
 -->
<!-- Title: /home/runner/work/feelpp/feelpp/feelpp/feel/feelcore/environment.hpp Pages: 1 -->
<svg width="3922pt" height="128pt"
 viewBox="0.00 0.00 3922.00 128.00" xmlns="http://www.w3.org/2000/svg" xmlns:xlink="http://www.w3.org/1999/xlink">
<g id="graph0" class="graph" transform="scale(1 1) rotate(0) translate(4 124)">
<title>/home/runner/work/feelpp/feelpp/feelpp/feel/feelcore/environment.hpp</title>
<polygon fill="white" stroke="transparent" points="-4,4 -4,-124 3918,-124 3918,4 -4,4"/>
<!-- Node1 -->
<g id="node1" class="node">
<title>Node1</title>
<g id="a_node1"><a xlink:title="&#45;*&#45; mode: c++; coding: utf&#45;8; tab&#45;width: 4; indent&#45;tabs&#45;mode: nil; c&#45;basic&#45;offset: 4; show&#45;trailing&#45;w...">
<polygon fill="#bfbfbf" stroke="black" points="1914,-78.5 1914,-119.5 2063,-119.5 2063,-78.5 1914,-78.5"/>
<text text-anchor="start" x="1922" y="-107.5" font-family="Helvetica,sans-Serif" font-size="10.00">/home/runner/work/feelpp</text>
<text text-anchor="start" x="1922" y="-96.5" font-family="Helvetica,sans-Serif" font-size="10.00">/feelpp/feelpp/feel/feelcore</text>
<text text-anchor="middle" x="1988.5" y="-85.5" font-family="Helvetica,sans-Serif" font-size="10.00">/environment.hpp</text>
</a>
</g>
</g>
<!-- Node2 -->
<g id="node2" class="node">
<title>Node2</title>
<g id="a_node2"><a xlink:href="application_8cpp.html" target="_top" xlink:title=" ">
<polygon fill="white" stroke="black" points="0,-0.5 0,-41.5 149,-41.5 149,-0.5 0,-0.5"/>
<text text-anchor="start" x="8" y="-29.5" font-family="Helvetica,sans-Serif" font-size="10.00">/home/runner/work/feelpp</text>
<text text-anchor="start" x="8" y="-18.5" font-family="Helvetica,sans-Serif" font-size="10.00">/feelpp/feelpp/feel/feelcore</text>
<text text-anchor="middle" x="74.5" y="-7.5" font-family="Helvetica,sans-Serif" font-size="10.00">/application.cpp</text>
</a>
</g>
</g>
<!-- Node1&#45;&gt;Node2 -->
<g id="edge1" class="edge">
<title>Node1&#45;&gt;Node2</title>
<path fill="none" stroke="midnightblue" d="M1903.59,-97.72C1590.58,-96.33 501.59,-88.22 157.5,-42 154.71,-41.63 151.87,-41.2 149.02,-40.72"/>
<polygon fill="midnightblue" stroke="midnightblue" points="1903.94,-101.22 1913.96,-97.77 1903.97,-94.22 1903.94,-101.22"/>
</g>
<!-- Node3 -->
<g id="node3" class="node">
<title>Node3</title>
<g id="a_node3"><a xlink:title=" ">
<polygon fill="white" stroke="#bfbfbf" points="167,-0.5 167,-41.5 316,-41.5 316,-0.5 167,-0.5"/>
<text text-anchor="start" x="175" y="-29.5" font-family="Helvetica,sans-Serif" font-size="10.00">/home/runner/work/feelpp</text>
<text text-anchor="start" x="175" y="-18.5" font-family="Helvetica,sans-Serif" font-size="10.00">/feelpp/feelpp/feel/feelcore</text>
<text text-anchor="middle" x="241.5" y="-7.5" font-family="Helvetica,sans-Serif" font-size="10.00">/environment.cpp</text>
</a>
</g>
</g>
<!-- Node1&#45;&gt;Node3 -->
<g id="edge2" class="edge">
<title>Node1&#45;&gt;Node3</title>
<path fill="none" stroke="midnightblue" d="M1903.75,-97.42C1609.7,-95.05 634.46,-84.12 324.5,-42 321.71,-41.62 318.88,-41.19 316.02,-40.71"/>
<polygon fill="midnightblue" stroke="midnightblue" points="1903.9,-100.92 1913.92,-97.5 1903.95,-93.92 1903.9,-100.92"/>
</g>
<!-- Node4 -->
<g id="node4" class="node">
<title>Node4</title>
<g id="a_node4"><a xlink:title=" ">
<polygon fill="white" stroke="#bfbfbf" points="334,-0.5 334,-41.5 483,-41.5 483,-0.5 334,-0.5"/>
<text text-anchor="start" x="342" y="-29.5" font-family="Helvetica,sans-Serif" font-size="10.00">/home/runner/work/feelpp</text>
<text text-anchor="start" x="342" y="-18.5" font-family="Helvetica,sans-Serif" font-size="10.00">/feelpp/feelpp/feel/feelcore</text>
<text text-anchor="middle" x="408.5" y="-7.5" font-family="Helvetica,sans-Serif" font-size="10.00">/exceptions.cpp</text>
</a>
</g>
</g>
<!-- Node1&#45;&gt;Node4 -->
<g id="edge3" class="edge">
<title>Node1&#45;&gt;Node4</title>
<path fill="none" stroke="midnightblue" d="M1903.57,-97.05C1629.03,-93.61 767.34,-80.01 491.5,-42 488.71,-41.62 485.88,-41.18 483.02,-40.7"/>
<polygon fill="midnightblue" stroke="midnightblue" points="1903.82,-100.55 1913.87,-97.17 1903.91,-93.55 1903.82,-100.55"/>
</g>
<!-- Node5 -->
<g id="node5" class="node">
<title>Node5</title>
<g id="a_node5"><a xlink:title=" ">
<polygon fill="white" stroke="#bfbfbf" points="501,-0.5 501,-41.5 650,-41.5 650,-0.5 501,-0.5"/>
<text text-anchor="start" x="509" y="-29.5" font-family="Helvetica,sans-Serif" font-size="10.00">/home/runner/work/feelpp</text>
<text text-anchor="start" x="509" y="-18.5" font-family="Helvetica,sans-Serif" font-size="10.00">/feelpp/feelpp/feel/feelcore</text>
<text text-anchor="middle" x="575.5" y="-7.5" font-family="Helvetica,sans-Serif" font-size="10.00">/journalmanager.cpp</text>
</a>
</g>
</g>
<!-- Node1&#45;&gt;Node5 -->
<g id="edge4" class="edge">
<title>Node1&#45;&gt;Node5</title>
<path fill="none" stroke="midnightblue" d="M1903.65,-96.58C1650.05,-92.01 900.47,-75.92 658.5,-42 655.71,-41.61 652.88,-41.17 650.03,-40.68"/>
<polygon fill="midnightblue" stroke="midnightblue" points="1903.84,-100.09 1913.9,-96.77 1903.97,-93.09 1903.84,-100.09"/>
</g>
<!-- Node6 -->
<g id="node6" class="node">
<title>Node6</title>
<g id="a_node6"><a xlink:title=" ">
<polygon fill="white" stroke="#bfbfbf" points="668,-0.5 668,-41.5 817,-41.5 817,-0.5 668,-0.5"/>
<text text-anchor="start" x="676" y="-29.5" font-family="Helvetica,sans-Serif" font-size="10.00">/home/runner/work/feelpp</text>
<text text-anchor="start" x="676" y="-18.5" font-family="Helvetica,sans-Serif" font-size="10.00">/feelpp/feelpp/feel/feelcore</text>
<text text-anchor="middle" x="742.5" y="-7.5" font-family="Helvetica,sans-Serif" font-size="10.00">/pslogger.cpp</text>
</a>
</g>
</g>
<!-- Node1&#45;&gt;Node6 -->
<g id="edge5" class="edge">
<title>Node1&#45;&gt;Node6</title>
<path fill="none" stroke="midnightblue" d="M1903.64,-95.99C1672.25,-90.18 1033.76,-71.83 825.5,-42 822.71,-41.6 819.88,-41.15 817.03,-40.66"/>
<polygon fill="midnightblue" stroke="midnightblue" points="1903.6,-99.49 1913.69,-96.24 1903.78,-92.49 1903.6,-99.49"/>
</g>
<!-- Node7 -->
<g id="node7" class="node">
<title>Node7</title>
<g id="a_node7"><a xlink:title=" ">
<polygon fill="white" stroke="#bfbfbf" points="835,-0.5 835,-41.5 984,-41.5 984,-0.5 835,-0.5"/>
<text text-anchor="start" x="843" y="-29.5" font-family="Helvetica,sans-Serif" font-size="10.00">/home/runner/work/feelpp</text>
<text text-anchor="start" x="843" y="-18.5" font-family="Helvetica,sans-Serif" font-size="10.00">/feelpp/feelpp/feel/feelcore</text>
<text text-anchor="middle" x="909.5" y="-7.5" font-family="Helvetica,sans-Serif" font-size="10.00">/ptreetools.cpp</text>
</a>
</g>
</g>
<!-- Node1&#45;&gt;Node7 -->
<g id="edge6" class="edge">
<title>Node1&#45;&gt;Node7</title>
<path fill="none" stroke="midnightblue" d="M1903.66,-98.37C1731.1,-97.98 1327.23,-91.33 992.5,-42 989.71,-41.59 986.88,-41.13 984.03,-40.63"/>
<polygon fill="midnightblue" stroke="midnightblue" points="1903.69,-101.87 1913.69,-98.38 1903.7,-94.87 1903.69,-101.87"/>
</g>
<!-- Node8 -->
<g id="node8" class="node">
<title>Node8</title>
<g id="a_node8"><a xlink:href="simget_8cpp.html" target="_top" xlink:title=" ">
<polygon fill="white" stroke="black" points="1002,-0.5 1002,-41.5 1151,-41.5 1151,-0.5 1002,-0.5"/>
<text text-anchor="start" x="1010" y="-29.5" font-family="Helvetica,sans-Serif" font-size="10.00">/home/runner/work/feelpp</text>
<text text-anchor="start" x="1010" y="-18.5" font-family="Helvetica,sans-Serif" font-size="10.00">/feelpp/feelpp/feel/feelcore</text>
<text text-anchor="middle" x="1076.5" y="-7.5" font-family="Helvetica,sans-Serif" font-size="10.00">/simget.cpp</text>
</a>
</g>
</g>
<!-- Node1&#45;&gt;Node8 -->
<g id="edge7" class="edge">
<title>Node1&#45;&gt;Node8</title>
<path fill="none" stroke="midnightblue" d="M1903.62,-96.99C1752.94,-94.14 1429.21,-83.3 1159.5,-42 1156.72,-41.57 1153.89,-41.1 1151.04,-40.59"/>
<polygon fill="midnightblue" stroke="midnightblue" points="1903.67,-100.49 1913.73,-97.17 1903.79,-93.49 1903.67,-100.49"/>
</g>
<!-- Node9 -->
<g id="node9" class="node">
<title>Node9</title>
<g id="a_node9"><a xlink:href="worldcomm_8cpp.html" target="_top" xlink:title=" ">
<polygon fill="white" stroke="black" points="1169,-0.5 1169,-41.5 1318,-41.5 1318,-0.5 1169,-0.5"/>
<text text-anchor="start" x="1177" y="-29.5" font-family="Helvetica,sans-Serif" font-size="10.00">/home/runner/work/feelpp</text>
<text text-anchor="start" x="1177" y="-18.5" font-family="Helvetica,sans-Serif" font-size="10.00">/feelpp/feelpp/feel/feelcore</text>
<text text-anchor="middle" x="1243.5" y="-7.5" font-family="Helvetica,sans-Serif" font-size="10.00">/worldcomm.cpp</text>
</a>
</g>
</g>
<!-- Node1&#45;&gt;Node9 -->
<g id="edge8" class="edge">
<title>Node1&#45;&gt;Node9</title>
<path fill="none" stroke="midnightblue" d="M1903.58,-94.95C1777.12,-89.47 1532.14,-75.28 1326.5,-42 1323.72,-41.55 1320.9,-41.06 1318.05,-40.53"/>
<polygon fill="midnightblue" stroke="midnightblue" points="1903.45,-98.45 1913.59,-95.37 1903.75,-91.45 1903.45,-98.45"/>
</g>
<!-- Node10 -->
<g id="node10" class="node">
<title>Node10</title>
<g id="a_node10"><a xlink:title=" ">
<polygon fill="white" stroke="#bfbfbf" points="1336,-0.5 1336,-41.5 1491,-41.5 1491,-0.5 1336,-0.5"/>
<text text-anchor="start" x="1344" y="-29.5" font-family="Helvetica,sans-Serif" font-size="10.00">/home/runner/work/feelpp</text>
<text text-anchor="start" x="1344" y="-18.5" font-family="Helvetica,sans-Serif" font-size="10.00">/feelpp/feelpp/feel/feelmesh</text>
<text text-anchor="middle" x="1413.5" y="-7.5" font-family="Helvetica,sans-Serif" font-size="10.00">/remesher.cpp</text>
</a>
</g>
</g>
<!-- Node1&#45;&gt;Node10 -->
<g id="edge9" class="edge">
<title>Node1&#45;&gt;Node10</title>
<path fill="none" stroke="midnightblue" d="M1903.85,-91.27C1806.02,-82.81 1640.39,-66.37 1499.5,-42 1496.78,-41.53 1494.02,-41.03 1491.23,-40.5"/>
<polygon fill="midnightblue" stroke="midnightblue" points="1903.71,-94.77 1913.98,-92.14 1904.31,-87.8 1903.71,-94.77"/>
</g>
<!-- Node11 -->
<g id="node11" class="node">
<title>Node11</title>
<g id="a_node11"><a xlink:title=" ">
<polygon fill="white" stroke="#bfbfbf" points="1509,-0.5 1509,-41.5 1652,-41.5 1652,-0.5 1509,-0.5"/>
<text text-anchor="start" x="1517" y="-29.5" font-family="Helvetica,sans-Serif" font-size="10.00">/home/runner/work/feelpp</text>
<text text-anchor="start" x="1517" y="-18.5" font-family="Helvetica,sans-Serif" font-size="10.00">/feelpp/feelpp/feel/feelts</text>
<text text-anchor="middle" x="1580.5" y="-7.5" font-family="Helvetica,sans-Serif" font-size="10.00">/timeset.cpp</text>
</a>
</g>
</g>
<!-- Node1&#45;&gt;Node11 -->
<g id="edge10" class="edge">
<title>Node1&#45;&gt;Node11</title>
<path fill="none" stroke="midnightblue" d="M1903.94,-85.37C1837.5,-75.01 1742.77,-59.28 1660.5,-42 1657.84,-41.44 1655.13,-40.85 1652.4,-40.25"/>
<polygon fill="midnightblue" stroke="midnightblue" points="1903.52,-88.85 1913.94,-86.92 1904.6,-81.93 1903.52,-88.85"/>
</g>
<!-- Node12 -->
<g id="node12" class="node">
<title>Node12</title>
<g id="a_node12"><a xlink:href="tsbase_8cpp.html" target="_top" xlink:title=" ">
<polygon fill="white" stroke="black" points="1670,-0.5 1670,-41.5 1813,-41.5 1813,-0.5 1670,-0.5"/>
<text text-anchor="start" x="1678" y="-29.5" font-family="Helvetica,sans-Serif" font-size="10.00">/home/runner/work/feelpp</text>
<text text-anchor="start" x="1678" y="-18.5" font-family="Helvetica,sans-Serif" font-size="10.00">/feelpp/feelpp/feel/feelts</text>
<text text-anchor="middle" x="1741.5" y="-7.5" font-family="Helvetica,sans-Serif" font-size="10.00">/tsbase.cpp</text>
</a>
</g>
</g>
<!-- Node1&#45;&gt;Node12 -->
<g id="edge11" class="edge">
<title>Node1&#45;&gt;Node12</title>
<path fill="none" stroke="midnightblue" d="M1915.19,-75.44C1880.13,-64.66 1838.57,-51.87 1804.89,-41.51"/>
<polygon fill="midnightblue" stroke="midnightblue" points="1914.3,-78.83 1924.89,-78.43 1916.36,-72.14 1914.3,-78.83"/>
</g>
<!-- Node13 -->
<g id="node13" class="node">
<title>Node13</title>
<g id="a_node13"><a xlink:title=" ">
<polygon fill="white" stroke="#bfbfbf" points="1831,-0.5 1831,-41.5 1982,-41.5 1982,-0.5 1831,-0.5"/>
<text text-anchor="start" x="1839" y="-29.5" font-family="Helvetica,sans-Serif" font-size="10.00">/home/runner/work/feelpp</text>
<text text-anchor="start" x="1839" y="-18.5" font-family="Helvetica,sans-Serif" font-size="10.00">/feelpp/feelpp/feel/feelvf</text>
<text text-anchor="middle" x="1906.5" y="-7.5" font-family="Helvetica,sans-Serif" font-size="10.00">/detail/ginacbuildlibrary.cpp</text>
</a>
</g>
</g>
<!-- Node1&#45;&gt;Node13 -->
<g id="edge12" class="edge">
<title>Node1&#45;&gt;Node13</title>
<path fill="none" stroke="midnightblue" d="M1959.9,-71.49C1949.26,-61.63 1937.39,-50.63 1927.55,-41.51"/>
<polygon fill="midnightblue" stroke="midnightblue" points="1957.67,-74.2 1967.38,-78.43 1962.43,-69.06 1957.67,-74.2"/>
</g>
<!-- Node14 -->
<g id="node14" class="node">
<title>Node14</title>
<g id="a_node14"><a xlink:href="ginac_8cpp.html" target="_top" xlink:title=" ">
<polygon fill="white" stroke="black" points="2000,-0.5 2000,-41.5 2143,-41.5 2143,-0.5 2000,-0.5"/>
<text text-anchor="start" x="2008" y="-29.5" font-family="Helvetica,sans-Serif" font-size="10.00">/home/runner/work/feelpp</text>
<text text-anchor="start" x="2008" y="-18.5" font-family="Helvetica,sans-Serif" font-size="10.00">/feelpp/feelpp/feel/feelvf</text>
<text text-anchor="middle" x="2071.5" y="-7.5" font-family="Helvetica,sans-Serif" font-size="10.00">/ginac.cpp</text>
</a>
</g>
</g>
<!-- Node1&#45;&gt;Node14 -->
<g id="edge13" class="edge">
<title>Node1&#45;&gt;Node14</title>
<path fill="none" stroke="midnightblue" d="M2017.45,-71.49C2028.22,-61.63 2040.24,-50.63 2050.2,-41.51"/>
<polygon fill="midnightblue" stroke="midnightblue" points="2014.89,-69.09 2009.87,-78.43 2019.61,-74.26 2014.89,-69.09"/>
</g>
<!-- Node15 -->
<g id="node15" class="node">
<title>Node15</title>
<g id="a_node15"><a xlink:href="test__env_8cpp.html" target="_top" xlink:title=" ">
<polygon fill="white" stroke="black" points="2161,-0.5 2161,-41.5 2304,-41.5 2304,-0.5 2161,-0.5"/>
<text text-anchor="start" x="2169" y="-29.5" font-family="Helvetica,sans-Serif" font-size="10.00">/home/runner/work/feelpp</text>
<text text-anchor="start" x="2169" y="-18.5" font-family="Helvetica,sans-Serif" font-size="10.00">/feelpp/testsuite/feelcore</text>
<text text-anchor="middle" x="2232.5" y="-7.5" font-family="Helvetica,sans-Serif" font-size="10.00">/test_env.cpp</text>
</a>
</g>
</g>
<!-- Node1&#45;&gt;Node15 -->
<g id="edge14" class="edge">
<title>Node1&#45;&gt;Node15</title>
<path fill="none" stroke="midnightblue" d="M2060.92,-75.44C2095.55,-64.66 2136.61,-51.87 2169.88,-41.51"/>
<polygon fill="midnightblue" stroke="midnightblue" points="2059.84,-72.11 2051.34,-78.43 2061.92,-78.8 2059.84,-72.11"/>
</g>
<!-- Node16 -->
<g id="node16" class="node">
<title>Node16</title>
<g id="a_node16"><a xlink:title=" ">
<polygon fill="white" stroke="#bfbfbf" points="2322,-0.5 2322,-41.5 2465,-41.5 2465,-0.5 2322,-0.5"/>
<text text-anchor="start" x="2330" y="-29.5" font-family="Helvetica,sans-Serif" font-size="10.00">/home/runner/work/feelpp</text>
<text text-anchor="start" x="2330" y="-18.5" font-family="Helvetica,sans-Serif" font-size="10.00">/feelpp/testsuite/feelcore</text>
<text text-anchor="middle" x="2393.5" y="-7.5" font-family="Helvetica,sans-Serif" font-size="10.00">/test_feelio.cpp</text>
</a>
</g>
</g>
<!-- Node1&#45;&gt;Node16 -->
<g id="edge15" class="edge">
<title>Node1&#45;&gt;Node16</title>
<path fill="none" stroke="midnightblue" d="M2072.93,-85.22C2138.72,-74.83 2232.24,-59.13 2313.5,-42 2316.16,-41.44 2318.87,-40.85 2321.6,-40.24"/>
<polygon fill="midnightblue" stroke="midnightblue" points="2072.35,-81.76 2063.02,-86.77 2073.44,-88.68 2072.35,-81.76"/>
</g>
<!-- Node17 -->
<g id="node17" class="node">
<title>Node17</title>
<g id="a_node17"><a xlink:href="test__git_8cpp.html" target="_top" xlink:title=" ">
<polygon fill="white" stroke="black" points="2483,-0.5 2483,-41.5 2626,-41.5 2626,-0.5 2483,-0.5"/>
<text text-anchor="start" x="2491" y="-29.5" font-family="Helvetica,sans-Serif" font-size="10.00">/home/runner/work/feelpp</text>
<text text-anchor="start" x="2491" y="-18.5" font-family="Helvetica,sans-Serif" font-size="10.00">/feelpp/testsuite/feelcore</text>
<text text-anchor="middle" x="2554.5" y="-7.5" font-family="Helvetica,sans-Serif" font-size="10.00">/test_git.cpp</text>
</a>
</g>
</g>
<!-- Node1&#45;&gt;Node17 -->
<g id="edge16" class="edge">
<title>Node1&#45;&gt;Node17</title>
<path fill="none" stroke="midnightblue" d="M2073.13,-91.61C2170.48,-83.49 2334.88,-67.39 2474.5,-42 2477.18,-41.51 2479.9,-40.99 2482.64,-40.43"/>
<polygon fill="midnightblue" stroke="midnightblue" points="2072.72,-88.13 2063.05,-92.45 2073.3,-95.11 2072.72,-88.13"/>
</g>
<!-- Node18 -->
<g id="node18" class="node">
<title>Node18</title>
<g id="a_node18"><a xlink:title=" ">
<polygon fill="white" stroke="#bfbfbf" points="2644,-0.5 2644,-41.5 2787,-41.5 2787,-0.5 2644,-0.5"/>
<text text-anchor="start" x="2652" y="-29.5" font-family="Helvetica,sans-Serif" font-size="10.00">/home/runner/work/feelpp</text>
<text text-anchor="start" x="2652" y="-18.5" font-family="Helvetica,sans-Serif" font-size="10.00">/feelpp/testsuite/feelcore</text>
<text text-anchor="middle" x="2715.5" y="-7.5" font-family="Helvetica,sans-Serif" font-size="10.00">/test_hana.cpp</text>
</a>
</g>
</g>
<!-- Node1&#45;&gt;Node18 -->
<g id="edge17" class="edge">
<title>Node1&#45;&gt;Node18</title>
<path fill="none" stroke="midnightblue" d="M2073.41,-94.95C2197.58,-89.51 2435.67,-75.41 2635.5,-42 2638.18,-41.55 2640.91,-41.06 2643.65,-40.53"/>
<polygon fill="midnightblue" stroke="midnightblue" points="2073.05,-91.46 2063.21,-95.38 2073.35,-98.45 2073.05,-91.46"/>
</g>
<!-- Node19 -->
<g id="node19" class="node">
<title>Node19</title>
<g id="a_node19"><a xlink:href="test__json_8cpp.html" target="_top" xlink:title=" ">
<polygon fill="white" stroke="black" points="2805,-0.5 2805,-41.5 2948,-41.5 2948,-0.5 2805,-0.5"/>
<text text-anchor="start" x="2813" y="-29.5" font-family="Helvetica,sans-Serif" font-size="10.00">/home/runner/work/feelpp</text>
<text text-anchor="start" x="2813" y="-18.5" font-family="Helvetica,sans-Serif" font-size="10.00">/feelpp/testsuite/feelcore</text>
<text text-anchor="middle" x="2876.5" y="-7.5" font-family="Helvetica,sans-Serif" font-size="10.00">/test_json.cpp</text>
</a>
</g>
</g>
<!-- Node1&#45;&gt;Node19 -->
<g id="edge18" class="edge">
<title>Node1&#45;&gt;Node19</title>
<path fill="none" stroke="midnightblue" d="M2073.43,-97.01C2221.26,-94.2 2535.08,-83.41 2796.5,-42 2799.19,-41.57 2801.92,-41.1 2804.66,-40.59"/>
<polygon fill="midnightblue" stroke="midnightblue" points="2073.01,-93.52 2063.07,-97.2 2073.14,-100.52 2073.01,-93.52"/>
</g>
<!-- Node20 -->
<g id="node20" class="node">
<title>Node20</title>
<g id="a_node20"><a xlink:title=" ">
<polygon fill="white" stroke="#bfbfbf" points="2966,-0.5 2966,-41.5 3109,-41.5 3109,-0.5 2966,-0.5"/>
<text text-anchor="start" x="2974" y="-29.5" font-family="Helvetica,sans-Serif" font-size="10.00">/home/runner/work/feelpp</text>
<text text-anchor="start" x="2974" y="-18.5" font-family="Helvetica,sans-Serif" font-size="10.00">/feelpp/testsuite/feelcore</text>
<text text-anchor="middle" x="3037.5" y="-7.5" font-family="Helvetica,sans-Serif" font-size="10.00">/test_mpi.cpp</text>
</a>
</g>
</g>
<!-- Node1&#45;&gt;Node20 -->
<g id="edge19" class="edge">
<title>Node1&#45;&gt;Node20</title>
<path fill="none" stroke="midnightblue" d="M2073.24,-98.41C2242.37,-98.07 2633.45,-91.42 2957.5,-42 2960.19,-41.59 2962.92,-41.13 2965.67,-40.63"/>
<polygon fill="midnightblue" stroke="midnightblue" points="2073.15,-94.91 2063.15,-98.43 2073.15,-101.91 2073.15,-94.91"/>
</g>
<!-- Node21 -->
<g id="node21" class="node">
<title>Node21</title>
<g id="a_node21"><a xlink:href="test__multithread_8cpp.html" target="_top" xlink:title=" ">
<polygon fill="white" stroke="black" points="3127,-0.5 3127,-41.5 3270,-41.5 3270,-0.5 3127,-0.5"/>
<text text-anchor="start" x="3135" y="-29.5" font-family="Helvetica,sans-Serif" font-size="10.00">/home/runner/work/feelpp</text>
<text text-anchor="start" x="3135" y="-18.5" font-family="Helvetica,sans-Serif" font-size="10.00">/feelpp/testsuite/feelcore</text>
<text text-anchor="middle" x="3198.5" y="-7.5" font-family="Helvetica,sans-Serif" font-size="10.00">/test_multithread.cpp</text>
</a>
</g>
</g>
<!-- Node1&#45;&gt;Node21 -->
<g id="edge20" class="edge">
<title>Node1&#45;&gt;Node21</title>
<path fill="none" stroke="midnightblue" d="M2073.31,-95.95C2300.1,-90.11 2916.98,-71.89 3118.5,-42 3121.19,-41.6 3123.92,-41.15 3126.67,-40.66"/>
<polygon fill="midnightblue" stroke="midnightblue" points="2073.04,-92.45 2063.13,-96.21 2073.22,-99.45 2073.04,-92.45"/>
</g>
<!-- Node22 -->
<g id="node22" class="node">
<title>Node22</title>
<g id="a_node22"><a xlink:title=" ">
<polygon fill="white" stroke="#bfbfbf" points="3288,-0.5 3288,-41.5 3431,-41.5 3431,-0.5 3288,-0.5"/>
<text text-anchor="start" x="3296" y="-29.5" font-family="Helvetica,sans-Serif" font-size="10.00">/home/runner/work/feelpp</text>
<text text-anchor="start" x="3296" y="-18.5" font-family="Helvetica,sans-Serif" font-size="10.00">/feelpp/testsuite/feelcore</text>
<text text-anchor="middle" x="3359.5" y="-7.5" font-family="Helvetica,sans-Serif" font-size="10.00">/test_serialization.cpp</text>
</a>
</g>
</g>
<!-- Node1&#45;&gt;Node22 -->
<g id="edge21" class="edge">
<title>Node1&#45;&gt;Node22</title>
<path fill="none" stroke="midnightblue" d="M2073.48,-96.55C2322.16,-91.95 3045.6,-75.96 3279.5,-42 3282.19,-41.61 3284.92,-41.17 3287.68,-40.68"/>
<polygon fill="midnightblue" stroke="midnightblue" points="2073.35,-93.05 2063.41,-96.73 2073.48,-100.05 2073.35,-93.05"/>
</g>
<!-- Node23 -->
<g id="node23" class="node">
<title>Node23</title>
<g id="a_node23"><a xlink:href="test__simget_8cpp.html" target="_top" xlink:title=" ">
<polygon fill="white" stroke="black" points="3449,-0.5 3449,-41.5 3592,-41.5 3592,-0.5 3449,-0.5"/>
<text text-anchor="start" x="3457" y="-29.5" font-family="Helvetica,sans-Serif" font-size="10.00">/home/runner/work/feelpp</text>
<text text-anchor="start" x="3457" y="-18.5" font-family="Helvetica,sans-Serif" font-size="10.00">/feelpp/testsuite/feelcore</text>
<text text-anchor="middle" x="3520.5" y="-7.5" font-family="Helvetica,sans-Serif" font-size="10.00">/test_simget.cpp</text>
</a>
</g>
</g>
<!-- Node1&#45;&gt;Node23 -->
<g id="edge22" class="edge">
<title>Node1&#45;&gt;Node23</title>
<path fill="none" stroke="midnightblue" d="M2073.21,-97.03C2342.04,-93.58 3173.9,-80.05 3440.5,-42 3443.19,-41.62 3445.93,-41.18 3448.68,-40.7"/>
<polygon fill="midnightblue" stroke="midnightblue" points="2073.07,-93.53 2063.12,-97.16 2073.16,-100.53 2073.07,-93.53"/>
</g>
<!-- Node24 -->
<g id="node24" class="node">
<title>Node24</title>
<g id="a_node24"><a xlink:href="test__taskflow_8cpp.html" target="_top" xlink:title=" ">
<polygon fill="white" stroke="black" points="3610,-0.5 3610,-41.5 3753,-41.5 3753,-0.5 3610,-0.5"/>
<text text-anchor="start" x="3618" y="-29.5" font-family="Helvetica,sans-Serif" font-size="10.00">/home/runner/work/feelpp</text>
<text text-anchor="start" x="3618" y="-18.5" font-family="Helvetica,sans-Serif" font-size="10.00">/feelpp/testsuite/feelcore</text>
<text text-anchor="middle" x="3681.5" y="-7.5" font-family="Helvetica,sans-Serif" font-size="10.00">/test_taskflow.cpp</text>
</a>
</g>
</g>
<!-- Node1&#45;&gt;Node24 -->
<g id="edge23" class="edge">
<title>Node1&#45;&gt;Node24</title>
<path fill="none" stroke="midnightblue" d="M2073.55,-97.41C2362.07,-95.02 3302.24,-84.12 3601.5,-42 3604.19,-41.62 3606.93,-41.19 3609.68,-40.71"/>
<polygon fill="midnightblue" stroke="midnightblue" points="2073.12,-93.91 2063.15,-97.49 2073.18,-100.91 2073.12,-93.91"/>
</g>
<!-- Node25 -->
<g id="node25" class="node">
<title>Node25</title>
<g id="a_node25"><a xlink:href="test__tbb_8cpp.html" target="_top" xlink:title=" ">
<polygon fill="white" stroke="black" points="3771,-0.5 3771,-41.5 3914,-41.5 3914,-0.5 3771,-0.5"/>
<text text-anchor="start" x="3779" y="-29.5" font-family="Helvetica,sans-Serif" font-size="10.00">/home/runner/work/feelpp</text>
<text text-anchor="start" x="3779" y="-18.5" font-family="Helvetica,sans-Serif" font-size="10.00">/feelpp/testsuite/feelcore</text>
<text text-anchor="middle" x="3842.5" y="-7.5" font-family="Helvetica,sans-Serif" font-size="10.00">/test_tbb.cpp</text>
</a>
</g>
</g>
<!-- Node1&#45;&gt;Node25 -->
<g id="edge24" class="edge">
<title>Node1&#45;&gt;Node25</title>
<path fill="none" stroke="midnightblue" d="M2073.63,-97.72C2380.66,-96.33 3430.36,-88.22 3762.5,-42 3765.19,-41.63 3767.93,-41.2 3770.68,-40.72"/>
<polygon fill="midnightblue" stroke="midnightblue" points="2073.45,-94.22 2063.46,-97.76 2073.48,-101.22 2073.45,-94.22"/>
</g>
</g>
</svg>
