<?xml version="1.0" encoding="UTF-8" standalone="no"?>
<!DOCTYPE svg PUBLIC "-//W3C//DTD SVG 1.1//EN"
 "http://www.w3.org/Graphics/SVG/1.1/DTD/svg11.dtd">
<!-- Generated by graphviz version 2.43.0 (0)
 -->
<!-- Title: /home/runner/work/feelpp/feelpp/feelpp/feel/feelcore/feel.hpp Pages: 1 -->
<!--zoomable 128 -->
<svg id="main" version="1.1" xmlns="http://www.w3.org/2000/svg" xmlns:xlink="http://www.w3.org/1999/xlink" xml:space="preserve" onload="init(evt)">
<style type="text/css"><![CDATA[
.edge:hover path { stroke: red; }
.edge:hover polygon { stroke: red; fill: red; }
]]></style>
<script type="text/javascript"><![CDATA[
var edges = document.getElementsByTagName('g');
if (edges && edges.length) {
  for (var i=0;i<edges.length;i++) {
    if (edges[i].id.substr(0,4)=='edge') {
      edges[i].setAttribute('class','edge');
    }
  }
}
]]></script>
        <defs>
                <circle id="rim" cx="0" cy="0" r="7"/>
                <circle id="rim2" cx="0" cy="0" r="3.5"/>
                <g id="zoomPlus">
                        <use xlink:href="#rim" fill="#404040">
                                <set attributeName="fill" to="#808080" begin="zoomplus.mouseover" end="zoomplus.mouseout"/>
                        </use>
                        <path d="M-4,0h8M0,-4v8" fill="none" stroke="white" stroke-width="1.5" pointer-events="none"/>
                </g>
                <g id="zoomMin">
                        <use xlink:href="#rim" fill="#404040">
                                <set attributeName="fill" to="#808080" begin="zoomminus.mouseover" end="zoomminus.mouseout"/>
                        </use>
                        <path d="M-4,0h8" fill="none" stroke="white" stroke-width="1.5" pointer-events="none"/>
                </g>
                <g id="dirArrow">
                        <path fill="none" stroke="white" stroke-width="1.5" d="M0,-3.0v7 M-2.5,-0.5L0,-3.0L2.5,-0.5"/>
                </g>
               <g id="resetDef">
                       <use xlink:href="#rim2" fill="#404040">
                               <set attributeName="fill" to="#808080" begin="reset.mouseover" end="reset.mouseout"/>
                       </use>
               </g>
        </defs>

<script type="text/javascript">
var viewWidth = 3690;
var viewHeight = 128;
var sectionId = 'dynsection-0';
</script>
<script xlink:href="svgpan.js"/>
<svg id="graph" class="graph">
<g id="viewport">
<title>/home/runner/work/feelpp/feelpp/feelpp/feel/feelcore/feel.hpp</title>
<polygon fill="white" stroke="transparent" points="-4,4 -4,-124 3686,-124 3686,4 -4,4"/>
<!-- Node1 -->
<g id="node1" class="node">
<title>Node1</title>
<g id="a_node1"><a xlink:title="&#45;*&#45; mode: c++; coding: utf&#45;8; tab&#45;width: 4; indent&#45;tabs&#45;mode: nil; c&#45;basic&#45;offset: 4; show&#45;trailing&#45;w...">
<polygon fill="#bfbfbf" stroke="black" points="1759,-78.5 1759,-119.5 1908,-119.5 1908,-78.5 1759,-78.5"/>
<text text-anchor="start" x="1767" y="-107.5" font-family="Helvetica,sans-Serif" font-size="10.00">/home/runner/work/feelpp</text>
<text text-anchor="start" x="1767" y="-96.5" font-family="Helvetica,sans-Serif" font-size="10.00">/feelpp/feelpp/feel/feelcore</text>
<text text-anchor="middle" x="1833.5" y="-85.5" font-family="Helvetica,sans-Serif" font-size="10.00">/feel.hpp</text>
</a>
</g>
</g>
<!-- Node2 -->
<g id="node2" class="node">
<title>Node2</title>
<g id="a_node2"><a xlink:href="about_8cpp.html" target="_top" xlink:title=" ">
<polygon fill="white" stroke="black" points="0,-0.5 0,-41.5 149,-41.5 149,-0.5 0,-0.5"/>
<text text-anchor="start" x="8" y="-29.5" font-family="Helvetica,sans-Serif" font-size="10.00">/home/runner/work/feelpp</text>
<text text-anchor="start" x="8" y="-18.5" font-family="Helvetica,sans-Serif" font-size="10.00">/feelpp/feelpp/feel/feelcore</text>
<text text-anchor="middle" x="74.5" y="-7.5" font-family="Helvetica,sans-Serif" font-size="10.00">/about.cpp</text>
</a>
</g>
</g>
<!-- Node1&#45;&gt;Node2 -->
<g id="edge1" class="edge">
<title>Node1&#45;&gt;Node2</title>
<path fill="none" stroke="midnightblue" d="M1748.65,-97.44C1453.09,-95.14 469.87,-84.41 157.5,-42 154.71,-41.62 151.88,-41.19 149.02,-40.71"/>
<polygon fill="midnightblue" stroke="midnightblue" points="1748.84,-100.94 1758.87,-97.52 1748.9,-93.94 1748.84,-100.94"/>
</g>
<!-- Node3 -->
<g id="node3" class="node">
<title>Node3</title>
<g id="a_node3"><a xlink:href="application_8cpp.html" target="_top" xlink:title=" ">
<polygon fill="white" stroke="black" points="167,-0.5 167,-41.5 316,-41.5 316,-0.5 167,-0.5"/>
<text text-anchor="start" x="175" y="-29.5" font-family="Helvetica,sans-Serif" font-size="10.00">/home/runner/work/feelpp</text>
<text text-anchor="start" x="175" y="-18.5" font-family="Helvetica,sans-Serif" font-size="10.00">/feelpp/feelpp/feel/feelcore</text>
<text text-anchor="middle" x="241.5" y="-7.5" font-family="Helvetica,sans-Serif" font-size="10.00">/application.cpp</text>
</a>
</g>
</g>
<!-- Node1&#45;&gt;Node3 -->
<g id="edge2" class="edge">
<title>Node1&#45;&gt;Node3</title>
<path fill="none" stroke="midnightblue" d="M1748.37,-97.07C1472.15,-93.71 602.71,-80.29 324.5,-42 321.71,-41.62 318.88,-41.18 316.02,-40.7"/>
<polygon fill="midnightblue" stroke="midnightblue" points="1748.68,-100.58 1758.72,-97.2 1748.77,-93.58 1748.68,-100.58"/>
</g>
<!-- Node4 -->
<g id="node4" class="node">
<title>Node4</title>
<g id="a_node4"><a xlink:title=" ">
<polygon fill="white" stroke="#bfbfbf" points="334,-0.5 334,-41.5 483,-41.5 483,-0.5 334,-0.5"/>
<text text-anchor="start" x="342" y="-29.5" font-family="Helvetica,sans-Serif" font-size="10.00">/home/runner/work/feelpp</text>
<text text-anchor="start" x="342" y="-18.5" font-family="Helvetica,sans-Serif" font-size="10.00">/feelpp/feelpp/feel/feelcore</text>
<text text-anchor="middle" x="408.5" y="-7.5" font-family="Helvetica,sans-Serif" font-size="10.00">/applicationmpi.cpp</text>
</a>
</g>
</g>
<!-- Node1&#45;&gt;Node4 -->
<g id="edge3" class="edge">
<title>Node1&#45;&gt;Node4</title>
<path fill="none" stroke="midnightblue" d="M1748.33,-96.62C1492.88,-92.12 735.79,-76.2 491.5,-42 488.71,-41.61 485.88,-41.17 483.03,-40.68"/>
<polygon fill="midnightblue" stroke="midnightblue" points="1748.6,-100.12 1758.66,-96.8 1748.72,-93.12 1748.6,-100.12"/>
</g>
<!-- Node5 -->
<g id="node5" class="node">
<title>Node5</title>
<g id="a_node5"><a xlink:title=" ">
<polygon fill="white" stroke="#bfbfbf" points="501,-0.5 501,-41.5 650,-41.5 650,-0.5 501,-0.5"/>
<text text-anchor="start" x="509" y="-29.5" font-family="Helvetica,sans-Serif" font-size="10.00">/home/runner/work/feelpp</text>
<text text-anchor="start" x="509" y="-18.5" font-family="Helvetica,sans-Serif" font-size="10.00">/feelpp/feelpp/feel/feelcore</text>
<text text-anchor="middle" x="575.5" y="-7.5" font-family="Helvetica,sans-Serif" font-size="10.00">/debug.cpp</text>
</a>
</g>
</g>
<!-- Node1&#45;&gt;Node5 -->
<g id="edge4" class="edge">
<title>Node1&#45;&gt;Node5</title>
<path fill="none" stroke="midnightblue" d="M1748.59,-96.04C1515.52,-90.31 869.16,-72.13 658.5,-42 655.71,-41.6 652.88,-41.15 650.03,-40.66"/>
<polygon fill="midnightblue" stroke="midnightblue" points="1748.63,-99.54 1758.71,-96.28 1748.8,-92.54 1748.63,-99.54"/>
</g>
<!-- Node6 -->
<g id="node6" class="node">
<title>Node6</title>
<g id="a_node6"><a xlink:title=" ">
<polygon fill="white" stroke="#bfbfbf" points="668,-0.5 668,-41.5 817,-41.5 817,-0.5 668,-0.5"/>
<text text-anchor="start" x="676" y="-29.5" font-family="Helvetica,sans-Serif" font-size="10.00">/home/runner/work/feelpp</text>
<text text-anchor="start" x="676" y="-18.5" font-family="Helvetica,sans-Serif" font-size="10.00">/feelpp/feelpp/feel/feelcore</text>
<text text-anchor="middle" x="742.5" y="-7.5" font-family="Helvetica,sans-Serif" font-size="10.00">/environment.cpp</text>
</a>
</g>
</g>
<!-- Node1&#45;&gt;Node6 -->
<g id="edge5" class="edge">
<title>Node1&#45;&gt;Node6</title>
<path fill="none" stroke="midnightblue" d="M1748.62,-98.45C1574.54,-98.23 1164.9,-91.9 825.5,-42 822.71,-41.59 819.88,-41.13 817.03,-40.63"/>
<polygon fill="midnightblue" stroke="midnightblue" points="1748.74,-101.95 1758.74,-98.45 1748.74,-94.95 1748.74,-101.95"/>
</g>
<!-- Node7 -->
<g id="node7" class="node">
<title>Node7</title>
<g id="a_node7"><a xlink:href="feel_8cpp.html" target="_top" xlink:title=" ">
<polygon fill="white" stroke="black" points="835,-0.5 835,-41.5 984,-41.5 984,-0.5 835,-0.5"/>
<text text-anchor="start" x="843" y="-29.5" font-family="Helvetica,sans-Serif" font-size="10.00">/home/runner/work/feelpp</text>
<text text-anchor="start" x="843" y="-18.5" font-family="Helvetica,sans-Serif" font-size="10.00">/feelpp/feelpp/feel/feelcore</text>
<text text-anchor="middle" x="909.5" y="-7.5" font-family="Helvetica,sans-Serif" font-size="10.00">/feel.cpp</text>
</a>
</g>
</g>
<!-- Node1&#45;&gt;Node7 -->
<g id="edge6" class="edge">
<title>Node1&#45;&gt;Node7</title>
<path fill="none" stroke="midnightblue" d="M1748.57,-97.1C1596.23,-94.44 1266.83,-83.87 992.5,-42 989.72,-41.58 986.89,-41.1 984.04,-40.59"/>
<polygon fill="midnightblue" stroke="midnightblue" points="1748.73,-100.61 1758.79,-97.27 1748.85,-93.61 1748.73,-100.61"/>
</g>
<!-- Node8 -->
<g id="node8" class="node">
<title>Node8</title>
<g id="a_node8"><a xlink:title=" ">
<polygon fill="white" stroke="#bfbfbf" points="1002,-0.5 1002,-41.5 1151,-41.5 1151,-0.5 1002,-0.5"/>
<text text-anchor="start" x="1010" y="-29.5" font-family="Helvetica,sans-Serif" font-size="10.00">/home/runner/work/feelpp</text>
<text text-anchor="start" x="1010" y="-18.5" font-family="Helvetica,sans-Serif" font-size="10.00">/feelpp/feelpp/feel/feelcore</text>
<text text-anchor="middle" x="1076.5" y="-7.5" font-family="Helvetica,sans-Serif" font-size="10.00">/mpfr.cpp</text>
</a>
</g>
</g>
<!-- Node1&#45;&gt;Node8 -->
<g id="edge7" class="edge">
<title>Node1&#45;&gt;Node8</title>
<path fill="none" stroke="midnightblue" d="M1748.85,-95.14C1620.64,-89.86 1369.86,-75.88 1159.5,-42 1156.72,-41.55 1153.89,-41.06 1151.05,-40.53"/>
<polygon fill="midnightblue" stroke="midnightblue" points="1748.86,-98.64 1759,-95.55 1749.15,-91.65 1748.86,-98.64"/>
</g>
<!-- Node9 -->
<g id="node9" class="node">
<title>Node9</title>
<g id="a_node9"><a xlink:title=" ">
<polygon fill="white" stroke="#bfbfbf" points="1169,-0.5 1169,-41.5 1318,-41.5 1318,-0.5 1169,-0.5"/>
<text text-anchor="start" x="1177" y="-29.5" font-family="Helvetica,sans-Serif" font-size="10.00">/home/runner/work/feelpp</text>
<text text-anchor="start" x="1177" y="-18.5" font-family="Helvetica,sans-Serif" font-size="10.00">/feelpp/feelpp/feel/feelcore</text>
<text text-anchor="middle" x="1243.5" y="-7.5" font-family="Helvetica,sans-Serif" font-size="10.00">/ptreetools.cpp</text>
</a>
</g>
</g>
<!-- Node1&#45;&gt;Node9 -->
<g id="edge8" class="edge">
<title>Node1&#45;&gt;Node9</title>
<path fill="none" stroke="midnightblue" d="M1748.62,-91.92C1647.55,-83.93 1473.87,-67.79 1326.5,-42 1323.73,-41.51 1320.91,-40.99 1318.06,-40.44"/>
<polygon fill="midnightblue" stroke="midnightblue" points="1748.53,-95.43 1758.77,-92.72 1749.07,-88.45 1748.53,-95.43"/>
</g>
<!-- Node10 -->
<g id="node10" class="node">
<title>Node10</title>
<g id="a_node10"><a xlink:title=" ">
<polygon fill="white" stroke="#bfbfbf" points="1336,-0.5 1336,-41.5 1485,-41.5 1485,-0.5 1336,-0.5"/>
<text text-anchor="start" x="1344" y="-29.5" font-family="Helvetica,sans-Serif" font-size="10.00">/home/runner/work/feelpp</text>
<text text-anchor="start" x="1344" y="-18.5" font-family="Helvetica,sans-Serif" font-size="10.00">/feelpp/feelpp/feel/feelcore</text>
<text text-anchor="middle" x="1410.5" y="-7.5" font-family="Helvetica,sans-Serif" font-size="10.00">/typeinfo.cpp</text>
</a>
</g>
</g>
<!-- Node1&#45;&gt;Node10 -->
<g id="edge9" class="edge">
<title>Node1&#45;&gt;Node10</title>
<path fill="none" stroke="midnightblue" d="M1748.98,-85.84C1680,-75.49 1580.12,-59.55 1493.5,-42 1490.74,-41.44 1487.93,-40.85 1485.1,-40.25"/>
<polygon fill="midnightblue" stroke="midnightblue" points="1748.52,-89.31 1758.93,-87.32 1749.56,-82.39 1748.52,-89.31"/>
</g>
<!-- Node11 -->
<g id="node11" class="node">
<title>Node11</title>
<g id="a_node11"><a xlink:href="worldcomm_8cpp.html" target="_top" xlink:title=" ">
<polygon fill="white" stroke="black" points="1503,-0.5 1503,-41.5 1652,-41.5 1652,-0.5 1503,-0.5"/>
<text text-anchor="start" x="1511" y="-29.5" font-family="Helvetica,sans-Serif" font-size="10.00">/home/runner/work/feelpp</text>
<text text-anchor="start" x="1511" y="-18.5" font-family="Helvetica,sans-Serif" font-size="10.00">/feelpp/feelpp/feel/feelcore</text>
<text text-anchor="middle" x="1577.5" y="-7.5" font-family="Helvetica,sans-Serif" font-size="10.00">/worldcomm.cpp</text>
</a>
</g>
</g>
<!-- Node1&#45;&gt;Node11 -->
<g id="edge10" class="edge">
<title>Node1&#45;&gt;Node11</title>
<path fill="none" stroke="midnightblue" d="M1757.98,-75.58C1721.55,-64.76 1678.25,-51.91 1643.2,-41.51"/>
<polygon fill="midnightblue" stroke="midnightblue" points="1756.99,-78.94 1767.57,-78.43 1758.98,-72.23 1756.99,-78.94"/>
</g>
<!-- Node12 -->
<g id="node12" class="node">
<title>Node12</title>
<g id="a_node12"><a xlink:href="entities_8cpp.html" target="_top" xlink:title=" ">
<polygon fill="white" stroke="black" points="1670,-0.5 1670,-41.5 1825,-41.5 1825,-0.5 1670,-0.5"/>
<text text-anchor="start" x="1678" y="-29.5" font-family="Helvetica,sans-Serif" font-size="10.00">/home/runner/work/feelpp</text>
<text text-anchor="start" x="1678" y="-18.5" font-family="Helvetica,sans-Serif" font-size="10.00">/feelpp/feelpp/feel/feelmesh</text>
<text text-anchor="middle" x="1747.5" y="-7.5" font-family="Helvetica,sans-Serif" font-size="10.00">/entities.cpp</text>
</a>
</g>
</g>
<!-- Node1&#45;&gt;Node12 -->
<g id="edge11" class="edge">
<title>Node1&#45;&gt;Node12</title>
<path fill="none" stroke="midnightblue" d="M1803.83,-71.78C1792.59,-61.84 1779.99,-50.72 1769.57,-41.51"/>
<polygon fill="midnightblue" stroke="midnightblue" points="1801.54,-74.43 1811.35,-78.43 1806.18,-69.18 1801.54,-74.43"/>
</g>
<!-- Node13 -->
<g id="node13" class="node">
<title>Node13</title>
<g id="a_node13"><a xlink:href="functors_8cpp.html" target="_top" xlink:title=" ">
<polygon fill="white" stroke="black" points="1843,-0.5 1843,-41.5 1998,-41.5 1998,-0.5 1843,-0.5"/>
<text text-anchor="start" x="1851" y="-29.5" font-family="Helvetica,sans-Serif" font-size="10.00">/home/runner/work/feelpp</text>
<text text-anchor="start" x="1851" y="-18.5" font-family="Helvetica,sans-Serif" font-size="10.00">/feelpp/feelpp/feel/feelmesh</text>
<text text-anchor="middle" x="1920.5" y="-7.5" font-family="Helvetica,sans-Serif" font-size="10.00">/functors.cpp</text>
</a>
</g>
</g>
<!-- Node1&#45;&gt;Node13 -->
<g id="edge12" class="edge">
<title>Node1&#45;&gt;Node13</title>
<path fill="none" stroke="midnightblue" d="M1863.52,-71.78C1874.89,-61.84 1887.63,-50.72 1898.17,-41.51"/>
<polygon fill="midnightblue" stroke="midnightblue" points="1861.13,-69.21 1855.9,-78.43 1865.74,-74.49 1861.13,-69.21"/>
</g>
<!-- Node14 -->
<g id="node14" class="node">
<title>Node14</title>
<g id="a_node14"><a xlink:title=" ">
<polygon fill="white" stroke="#bfbfbf" points="2016,-0.5 2016,-41.5 2171,-41.5 2171,-0.5 2016,-0.5"/>
<text text-anchor="start" x="2024" y="-29.5" font-family="Helvetica,sans-Serif" font-size="10.00">/home/runner/work/feelpp</text>
<text text-anchor="start" x="2024" y="-18.5" font-family="Helvetica,sans-Serif" font-size="10.00">/feelpp/feelpp/feel/feelmesh</text>
<text text-anchor="middle" x="2093.5" y="-7.5" font-family="Helvetica,sans-Serif" font-size="10.00">/remesher.cpp</text>
</a>
</g>
</g>
<!-- Node1&#45;&gt;Node14 -->
<g id="edge13" class="edge">
<title>Node1&#45;&gt;Node14</title>
<path fill="none" stroke="midnightblue" d="M1910.2,-75.58C1947.2,-64.76 1991.17,-51.91 2026.77,-41.51"/>
<polygon fill="midnightblue" stroke="midnightblue" points="1909.07,-72.26 1900.46,-78.43 1911.04,-78.98 1909.07,-72.26"/>
</g>
<!-- Node15 -->
<g id="node15" class="node">
<title>Node15</title>
<g id="a_node15"><a xlink:title=" ">
<polygon fill="white" stroke="#bfbfbf" points="2189,-0.5 2189,-41.5 2340,-41.5 2340,-0.5 2189,-0.5"/>
<text text-anchor="start" x="2197" y="-29.5" font-family="Helvetica,sans-Serif" font-size="10.00">/home/runner/work/feelpp</text>
<text text-anchor="start" x="2197" y="-18.5" font-family="Helvetica,sans-Serif" font-size="10.00">/feelpp/feelpp/feel/feeldiscr</text>
<text text-anchor="middle" x="2264.5" y="-7.5" font-family="Helvetica,sans-Serif" font-size="10.00">/oseendata.cpp</text>
</a>
</g>
</g>
<!-- Node1&#45;&gt;Node15 -->
<g id="edge14" class="edge">
<title>Node1&#45;&gt;Node15</title>
<path fill="none" stroke="midnightblue" d="M1918.4,-86.08C1988.84,-75.77 2091.52,-59.75 2180.5,-42 2183.15,-41.47 2185.84,-40.92 2188.55,-40.35"/>
<polygon fill="midnightblue" stroke="midnightblue" points="1917.63,-82.66 1908.24,-87.56 1918.64,-89.59 1917.63,-82.66"/>
</g>
<!-- Node16 -->
<g id="node16" class="node">
<title>Node16</title>
<g id="a_node16"><a xlink:href="feeldiscr_2timeset_8cpp.html" target="_top" xlink:title=" ">
<polygon fill="white" stroke="black" points="2358,-0.5 2358,-41.5 2509,-41.5 2509,-0.5 2358,-0.5"/>
<text text-anchor="start" x="2366" y="-29.5" font-family="Helvetica,sans-Serif" font-size="10.00">/home/runner/work/feelpp</text>
<text text-anchor="start" x="2366" y="-18.5" font-family="Helvetica,sans-Serif" font-size="10.00">/feelpp/feelpp/feel/feeldiscr</text>
<text text-anchor="middle" x="2433.5" y="-7.5" font-family="Helvetica,sans-Serif" font-size="10.00">/timeset.cpp</text>
</a>
</g>
</g>
<!-- Node1&#45;&gt;Node16 -->
<g id="edge15" class="edge">
<title>Node1&#45;&gt;Node16</title>
<path fill="none" stroke="midnightblue" d="M1918.25,-92.09C2020.86,-84.17 2198.68,-68.03 2349.5,-42 2352.16,-41.54 2354.86,-41.05 2357.58,-40.53"/>
<polygon fill="midnightblue" stroke="midnightblue" points="1917.96,-88.6 1908.25,-92.85 1918.49,-95.58 1917.96,-88.6"/>
</g>
<!-- Node17 -->
<g id="node17" class="node">
<title>Node17</title>
<g id="a_node17"><a xlink:title=" ">
<polygon fill="white" stroke="#bfbfbf" points="2527,-0.5 2527,-41.5 2670,-41.5 2670,-0.5 2527,-0.5"/>
<text text-anchor="start" x="2535" y="-29.5" font-family="Helvetica,sans-Serif" font-size="10.00">/home/runner/work/feelpp</text>
<text text-anchor="start" x="2535" y="-18.5" font-family="Helvetica,sans-Serif" font-size="10.00">/feelpp/feelpp/feel/feelts</text>
<text text-anchor="middle" x="2598.5" y="-7.5" font-family="Helvetica,sans-Serif" font-size="10.00">/timeset.cpp</text>
</a>
</g>
</g>
<!-- Node1&#45;&gt;Node17 -->
<g id="edge16" class="edge">
<title>Node1&#45;&gt;Node17</title>
<path fill="none" stroke="midnightblue" d="M1918.52,-95.51C2048.55,-90.7 2304.29,-77.29 2518.5,-42 2521.18,-41.56 2523.91,-41.07 2526.66,-40.55"/>
<polygon fill="midnightblue" stroke="midnightblue" points="1918.1,-92.02 1908.24,-95.88 1918.36,-99.02 1918.1,-92.02"/>
</g>
<!-- Node18 -->
<g id="node18" class="node">
<title>Node18</title>
<g id="a_node18"><a xlink:href="expr_8cpp.html" target="_top" xlink:title=" ">
<polygon fill="white" stroke="black" points="2688,-0.5 2688,-41.5 2831,-41.5 2831,-0.5 2688,-0.5"/>
<text text-anchor="start" x="2696" y="-29.5" font-family="Helvetica,sans-Serif" font-size="10.00">/home/runner/work/feelpp</text>
<text text-anchor="start" x="2696" y="-18.5" font-family="Helvetica,sans-Serif" font-size="10.00">/feelpp/feelpp/feel/feelvf</text>
<text text-anchor="middle" x="2759.5" y="-7.5" font-family="Helvetica,sans-Serif" font-size="10.00">/expr.cpp</text>
</a>
</g>
</g>
<!-- Node1&#45;&gt;Node18 -->
<g id="edge17" class="edge">
<title>Node1&#45;&gt;Node18</title>
<path fill="none" stroke="midnightblue" d="M1918.38,-97.39C2071.42,-95.17 2403.37,-85.3 2679.5,-42 2682.19,-41.58 2684.92,-41.11 2687.67,-40.6"/>
<polygon fill="midnightblue" stroke="midnightblue" points="1918.07,-93.89 1908.12,-97.53 1918.16,-100.89 1918.07,-93.89"/>
</g>
<!-- Node19 -->
<g id="node19" class="node">
<title>Node19</title>
<g id="a_node19"><a xlink:title=" ">
<polygon fill="white" stroke="#bfbfbf" points="2849.5,-0.5 2849.5,-41.5 3037.5,-41.5 3037.5,-0.5 2849.5,-0.5"/>
<text text-anchor="start" x="2857.5" y="-29.5" font-family="Helvetica,sans-Serif" font-size="10.00">/home/runner/work/feelpp</text>
<text text-anchor="start" x="2857.5" y="-18.5" font-family="Helvetica,sans-Serif" font-size="10.00">/feelpp/toolboxes/feel</text>
<text text-anchor="middle" x="2943.5" y="-7.5" font-family="Helvetica,sans-Serif" font-size="10.00">/feelmodels/modelcore/options.cpp</text>
</a>
</g>
</g>
<!-- Node1&#45;&gt;Node19 -->
<g id="edge18" class="edge">
<title>Node1&#45;&gt;Node19</title>
<path fill="none" stroke="midnightblue" d="M1918.12,-97.18C2091.72,-94.64 2500.41,-84.28 2840.5,-42 2843.39,-41.64 2846.33,-41.25 2849.28,-40.83"/>
<polygon fill="midnightblue" stroke="midnightblue" points="1917.98,-93.68 1908.03,-97.32 1918.08,-100.68 1917.98,-93.68"/>
</g>
<!-- Node20 -->
<g id="node20" class="node">
<title>Node20</title>
<g id="a_node20"><a xlink:href="test__context_8cpp.html" target="_top" xlink:title=" ">
<polygon fill="white" stroke="black" points="3056,-0.5 3056,-41.5 3199,-41.5 3199,-0.5 3056,-0.5"/>
<text text-anchor="start" x="3064" y="-29.5" font-family="Helvetica,sans-Serif" font-size="10.00">/home/runner/work/feelpp</text>
<text text-anchor="start" x="3064" y="-18.5" font-family="Helvetica,sans-Serif" font-size="10.00">/feelpp/testsuite/feelcore</text>
<text text-anchor="middle" x="3127.5" y="-7.5" font-family="Helvetica,sans-Serif" font-size="10.00">/test_context.cpp</text>
</a>
</g>
</g>
<!-- Node1&#45;&gt;Node20 -->
<g id="edge19" class="edge">
<title>Node1&#45;&gt;Node20</title>
<path fill="none" stroke="midnightblue" d="M1918.62,-96.24C2157.05,-90.96 2828.34,-73.66 3046.5,-42 3049.51,-41.56 3052.57,-41.06 3055.66,-40.51"/>
<polygon fill="midnightblue" stroke="midnightblue" points="1918.19,-92.75 1908.27,-96.47 1918.35,-99.75 1918.19,-92.75"/>
</g>
<!-- Node21 -->
<g id="node21" class="node">
<title>Node21</title>
<g id="a_node21"><a xlink:title=" ">
<polygon fill="white" stroke="#bfbfbf" points="3217,-0.5 3217,-41.5 3360,-41.5 3360,-0.5 3217,-0.5"/>
<text text-anchor="start" x="3225" y="-29.5" font-family="Helvetica,sans-Serif" font-size="10.00">/home/runner/work/feelpp</text>
<text text-anchor="start" x="3225" y="-18.5" font-family="Helvetica,sans-Serif" font-size="10.00">/feelpp/testsuite/feelcore</text>
<text text-anchor="middle" x="3288.5" y="-7.5" font-family="Helvetica,sans-Serif" font-size="10.00">/test_debug.cpp</text>
</a>
</g>
</g>
<!-- Node1&#45;&gt;Node21 -->
<g id="edge20" class="edge">
<title>Node1&#45;&gt;Node21</title>
<path fill="none" stroke="midnightblue" d="M1918.12,-96.82C2177.25,-92.84 2957.49,-78.1 3208.5,-42 3211.19,-41.61 3213.93,-41.17 3216.68,-40.69"/>
<polygon fill="midnightblue" stroke="midnightblue" points="1917.96,-93.32 1908.01,-96.97 1918.07,-100.32 1917.96,-93.32"/>
</g>
<!-- Node22 -->
<g id="node22" class="node">
<title>Node22</title>
<g id="a_node22"><a xlink:href="test__enums_8cpp.html" target="_top" xlink:title="&#45;*&#45; mode: c++; coding: utf&#45;8; tab&#45;width: 4; indent&#45;tabs&#45;mode: nil; c&#45;basic&#45;offset: 4; show&#45;trailing&#45;w...">
<polygon fill="white" stroke="black" points="3378,-0.5 3378,-41.5 3521,-41.5 3521,-0.5 3378,-0.5"/>
<text text-anchor="start" x="3386" y="-29.5" font-family="Helvetica,sans-Serif" font-size="10.00">/home/runner/work/feelpp</text>
<text text-anchor="start" x="3386" y="-18.5" font-family="Helvetica,sans-Serif" font-size="10.00">/feelpp/testsuite/feelcore</text>
<text text-anchor="middle" x="3449.5" y="-7.5" font-family="Helvetica,sans-Serif" font-size="10.00">/test_enums.cpp</text>
</a>
</g>
</g>
<!-- Node1&#45;&gt;Node22 -->
<g id="edge21" class="edge">
<title>Node1&#45;&gt;Node22</title>
<path fill="none" stroke="midnightblue" d="M1918.3,-97.24C2197.43,-94.35 3085.85,-82.18 3369.5,-42 3372.19,-41.62 3374.93,-41.18 3377.68,-40.7"/>
<polygon fill="midnightblue" stroke="midnightblue" points="1918.2,-93.74 1908.24,-97.34 1918.27,-100.74 1918.2,-93.74"/>
</g>
<!-- Node23 -->
<g id="node23" class="node">
<title>Node23</title>
<g id="a_node23"><a xlink:href="test__tbb_8cpp.html" target="_top" xlink:title=" ">
<polygon fill="white" stroke="black" points="3539,-0.5 3539,-41.5 3682,-41.5 3682,-0.5 3539,-0.5"/>
<text text-anchor="start" x="3547" y="-29.5" font-family="Helvetica,sans-Serif" font-size="10.00">/home/runner/work/feelpp</text>
<text text-anchor="start" x="3547" y="-18.5" font-family="Helvetica,sans-Serif" font-size="10.00">/feelpp/testsuite/feelcore</text>
<text text-anchor="middle" x="3610.5" y="-7.5" font-family="Helvetica,sans-Serif" font-size="10.00">/test_tbb.cpp</text>
</a>
</g>
</g>
<!-- Node1&#45;&gt;Node23 -->
<g id="edge22" class="edge">
<title>Node1&#45;&gt;Node23</title>
<path fill="none" stroke="midnightblue" d="M1918.41,-97.58C2216.46,-95.72 3214.04,-86.27 3530.5,-42 3533.19,-41.62 3535.93,-41.19 3538.68,-40.72"/>
<polygon fill="midnightblue" stroke="midnightblue" points="1918.08,-94.08 1908.1,-97.64 1918.12,-101.08 1918.08,-94.08"/>
</g>
</g>
</svg>
        <g id="navigator" transform="translate(0 0)" fill="#404254">
                <rect fill="#f2f5e9" fill-opacity="0.5" stroke="#606060" stroke-width=".5" x="0" y="0" width="60" height="60"/>
                <use id="zoomplus" xlink:href="#zoomPlus" x="17" y="9" onmousedown="handleZoom(evt,'in')"/>
                <use id="zoomminus" xlink:href="#zoomMin" x="42" y="9" onmousedown="handleZoom(evt,'out')"/>
                <use id="reset" xlink:href="#resetDef" x="30" y="36" onmousedown="handleReset()"/>
                <g id="arrowUp" xlink:href="#dirArrow" transform="translate(30 24)" onmousedown="handlePan(0,-1)">
                  <use xlink:href="#rim" fill="#404040">
                        <set attributeName="fill" to="#808080" begin="arrowUp.mouseover" end="arrowUp.mouseout"/>
                  </use>
                  <path fill="none" stroke="white" stroke-width="1.5" d="M0,-3.0v7 M-2.5,-0.5L0,-3.0L2.5,-0.5"/>
                </g>
                <g id="arrowRight" xlink:href="#dirArrow" transform="rotate(90) translate(36 -43)" onmousedown="handlePan(1,0)">
                  <use xlink:href="#rim" fill="#404040">
                        <set attributeName="fill" to="#808080" begin="arrowRight.mouseover" end="arrowRight.mouseout"/>
                  </use>
                  <path fill="none" stroke="white" stroke-width="1.5" d="M0,-3.0v7 M-2.5,-0.5L0,-3.0L2.5,-0.5"/>
                </g>
                <g id="arrowDown" xlink:href="#dirArrow" transform="rotate(180) translate(-30 -48)" onmousedown="handlePan(0,1)">
                  <use xlink:href="#rim" fill="#404040">
                        <set attributeName="fill" to="#808080" begin="arrowDown.mouseover" end="arrowDown.mouseout"/>
                  </use>
                  <path fill="none" stroke="white" stroke-width="1.5" d="M0,-3.0v7 M-2.5,-0.5L0,-3.0L2.5,-0.5"/>
                </g>
                <g id="arrowLeft" xlink:href="#dirArrow" transform="rotate(270) translate(-36 17)" onmousedown="handlePan(-1,0)">
                  <use xlink:href="#rim" fill="#404040">
                        <set attributeName="fill" to="#808080" begin="arrowLeft.mouseover" end="arrowLeft.mouseout"/>
                  </use>
                  <path fill="none" stroke="white" stroke-width="1.5" d="M0,-3.0v7 M-2.5,-0.5L0,-3.0L2.5,-0.5"/>
                </g>
        </g>
        <svg viewBox="0 0 15 15" width="100%" height="30px" preserveAspectRatio="xMaxYMin meet">
         <g id="arrow_out" transform="scale(0.3 0.3)">
          <a xlink:href="feel_8hpp__dep__incl_org.svg" target="_base">
           <rect id="button" ry="5" rx="5" y="6" x="6" height="38" width="38"
                fill="#f2f5e9" fill-opacity="0.5" stroke="#606060" stroke-width="1.0"/>
           <path id="arrow"
             d="M 11.500037,31.436501 C 11.940474,20.09759 22.043105,11.32322 32.158766,21.979434 L 37.068811,17.246167 C 37.068811,17.246167 37.088388,32 37.088388,32 L 22.160133,31.978069 C 22.160133,31.978069 26.997745,27.140456 26.997745,27.140456 C 18.528582,18.264221 13.291696,25.230495 11.500037,31.436501 z"
             style="fill:#404040;"/>
          </a>
         </g>
        </svg>
</svg>
