<?xml version="1.0" encoding="UTF-8" standalone="no"?>
<!DOCTYPE svg PUBLIC "-//W3C//DTD SVG 1.1//EN"
 "http://www.w3.org/Graphics/SVG/1.1/DTD/svg11.dtd">
<!-- Generated by graphviz version 2.43.0 (0)
 -->
<!-- Title: /nvme0/prudhomm/actions&#45;runner/_work/feelpp/feelpp/toolboxes/feel/feelmodels/fluid/fluidmechanics.hpp Pages: 1 -->
<!--zoomable 250 -->
<svg id="main" version="1.1" xmlns="http://www.w3.org/2000/svg" xmlns:xlink="http://www.w3.org/1999/xlink" xml:space="preserve" onload="init(evt)">
<style type="text/css"><![CDATA[
.edge:hover path { stroke: red; }
.edge:hover polygon { stroke: red; fill: red; }
]]></style>
<script type="text/javascript"><![CDATA[
var edges = document.getElementsByTagName('g');
if (edges && edges.length) {
  for (var i=0;i<edges.length;i++) {
    if (edges[i].id.substr(0,4)=='edge') {
      edges[i].setAttribute('class','edge');
    }
  }
}
]]></script>
        <defs>
                <circle id="rim" cx="0" cy="0" r="7"/>
                <circle id="rim2" cx="0" cy="0" r="3.5"/>
                <g id="zoomPlus">
                        <use xlink:href="#rim" fill="#404040">
                                <set attributeName="fill" to="#808080" begin="zoomplus.mouseover" end="zoomplus.mouseout"/>
                        </use>
                        <path d="M-4,0h8M0,-4v8" fill="none" stroke="white" stroke-width="1.5" pointer-events="none"/>
                </g>
                <g id="zoomMin">
                        <use xlink:href="#rim" fill="#404040">
                                <set attributeName="fill" to="#808080" begin="zoomminus.mouseover" end="zoomminus.mouseout"/>
                        </use>
                        <path d="M-4,0h8" fill="none" stroke="white" stroke-width="1.5" pointer-events="none"/>
                </g>
                <g id="dirArrow">
                        <path fill="none" stroke="white" stroke-width="1.5" d="M0,-3.0v7 M-2.5,-0.5L0,-3.0L2.5,-0.5"/>
                </g>
               <g id="resetDef">
                       <use xlink:href="#rim2" fill="#404040">
                               <set attributeName="fill" to="#808080" begin="reset.mouseover" end="reset.mouseout"/>
                       </use>
               </g>
        </defs>

<script type="text/javascript">
var viewWidth = 1595;
var viewHeight = 250;
var sectionId = 'dynsection-0';
</script>
<script xlink:href="svgpan.js"/>
<svg id="graph" class="graph">
<g id="viewport">
<title>/nvme0/prudhomm/actions&#45;runner/_work/feelpp/feelpp/toolboxes/feel/feelmodels/fluid/fluidmechanics.hpp</title>
<polygon fill="white" stroke="transparent" points="-4,4 -4,-246 1591,-246 1591,4 -4,4"/>
<!-- Node1 -->
<g id="node1" class="node">
<title>Node1</title>
<g id="a_node1"><a xlink:title=" ">
<polygon fill="#bfbfbf" stroke="black" points="764.5,-189.5 764.5,-241.5 916.5,-241.5 916.5,-189.5 764.5,-189.5"/>
<text text-anchor="start" x="772.5" y="-229.5" font-family="Helvetica,sans-Serif" font-size="10.00">/nvme0/prudhomm/actions</text>
<text text-anchor="start" x="772.5" y="-218.5" font-family="Helvetica,sans-Serif" font-size="10.00">&#45;runner/_work/feelpp/feelpp</text>
<text text-anchor="start" x="772.5" y="-207.5" font-family="Helvetica,sans-Serif" font-size="10.00">/toolboxes/feel/feelmodels</text>
<text text-anchor="middle" x="840.5" y="-196.5" font-family="Helvetica,sans-Serif" font-size="10.00">/fluid/fluidmechanics.hpp</text>
</a>
</g>
</g>
<!-- Node2 -->
<g id="node2" class="node">
<title>Node2</title>
<g id="a_node2"><a xlink:title=" ">
<polygon fill="white" stroke="#bfbfbf" points="0,-100.5 0,-152.5 227,-152.5 227,-100.5 0,-100.5"/>
<text text-anchor="start" x="8" y="-140.5" font-family="Helvetica,sans-Serif" font-size="10.00">/nvme0/prudhomm/actions</text>
<text text-anchor="start" x="8" y="-129.5" font-family="Helvetica,sans-Serif" font-size="10.00">&#45;runner/_work/feelpp/feelpp</text>
<text text-anchor="start" x="8" y="-118.5" font-family="Helvetica,sans-Serif" font-size="10.00">/toolboxes/feel/feelmodels</text>
<text text-anchor="middle" x="113.5" y="-107.5" font-family="Helvetica,sans-Serif" font-size="10.00">/fluid/fluidmechanicsassemblyjacobian.cpp</text>
</a>
</g>
</g>
<!-- Node1&#45;&gt;Node2 -->
<g id="edge1" class="edge">
<title>Node1&#45;&gt;Node2</title>
<path fill="none" stroke="midnightblue" d="M754.36,-208.53C636.86,-199.76 419.97,-181.28 236.5,-153 233.37,-152.52 230.21,-152.01 227.02,-151.48"/>
<polygon fill="midnightblue" stroke="midnightblue" points="754.15,-212.03 764.38,-209.28 754.66,-205.05 754.15,-212.03"/>
</g>
<!-- Node4 -->
<g id="node4" class="node">
<title>Node4</title>
<g id="a_node4"><a xlink:title=" ">
<polygon fill="white" stroke="#bfbfbf" points="245.5,-100.5 245.5,-152.5 459.5,-152.5 459.5,-100.5 245.5,-100.5"/>
<text text-anchor="start" x="253.5" y="-140.5" font-family="Helvetica,sans-Serif" font-size="10.00">/nvme0/prudhomm/actions</text>
<text text-anchor="start" x="253.5" y="-129.5" font-family="Helvetica,sans-Serif" font-size="10.00">&#45;runner/_work/feelpp/feelpp</text>
<text text-anchor="start" x="253.5" y="-118.5" font-family="Helvetica,sans-Serif" font-size="10.00">/toolboxes/feel/feelmodels</text>
<text text-anchor="middle" x="352.5" y="-107.5" font-family="Helvetica,sans-Serif" font-size="10.00">/fluid/fluidmechanicsassemblylinear.cpp</text>
</a>
</g>
</g>
<!-- Node1&#45;&gt;Node4 -->
<g id="edge3" class="edge">
<title>Node1&#45;&gt;Node4</title>
<path fill="none" stroke="midnightblue" d="M754.47,-201.59C678.93,-189.94 566.16,-171.79 468.5,-153 465.56,-152.44 462.59,-151.85 459.59,-151.26"/>
<polygon fill="midnightblue" stroke="midnightblue" points="754,-205.06 764.41,-203.12 755.06,-198.14 754,-205.06"/>
</g>
<!-- Node6 -->
<g id="node6" class="node">
<title>Node6</title>
<g id="a_node6"><a xlink:title=" ">
<polygon fill="white" stroke="#bfbfbf" points="478,-100.5 478,-152.5 703,-152.5 703,-100.5 478,-100.5"/>
<text text-anchor="start" x="486" y="-140.5" font-family="Helvetica,sans-Serif" font-size="10.00">/nvme0/prudhomm/actions</text>
<text text-anchor="start" x="486" y="-129.5" font-family="Helvetica,sans-Serif" font-size="10.00">&#45;runner/_work/feelpp/feelpp</text>
<text text-anchor="start" x="486" y="-118.5" font-family="Helvetica,sans-Serif" font-size="10.00">/toolboxes/feel/feelmodels</text>
<text text-anchor="middle" x="590.5" y="-107.5" font-family="Helvetica,sans-Serif" font-size="10.00">/fluid/fluidmechanicsassemblyresidual.cpp</text>
</a>
</g>
</g>
<!-- Node1&#45;&gt;Node6 -->
<g id="edge5" class="edge">
<title>Node1&#45;&gt;Node6</title>
<path fill="none" stroke="midnightblue" d="M759,-186.14C727.85,-175.3 692.59,-163.03 662.4,-152.52"/>
<polygon fill="midnightblue" stroke="midnightblue" points="757.93,-189.47 768.53,-189.45 760.23,-182.86 757.93,-189.47"/>
</g>
<!-- Node8 -->
<g id="node8" class="node">
<title>Node8</title>
<g id="a_node8"><a xlink:title=" ">
<polygon fill="white" stroke="#bfbfbf" points="721.5,-100.5 721.5,-152.5 959.5,-152.5 959.5,-100.5 721.5,-100.5"/>
<text text-anchor="start" x="729.5" y="-140.5" font-family="Helvetica,sans-Serif" font-size="10.00">/nvme0/prudhomm/actions</text>
<text text-anchor="start" x="729.5" y="-129.5" font-family="Helvetica,sans-Serif" font-size="10.00">&#45;runner/_work/feelpp/feelpp</text>
<text text-anchor="start" x="729.5" y="-118.5" font-family="Helvetica,sans-Serif" font-size="10.00">/toolboxes/feel/feelmodels</text>
<text text-anchor="middle" x="840.5" y="-107.5" font-family="Helvetica,sans-Serif" font-size="10.00">/fluid/fluidmechanicsassemblyturbulence.cpp</text>
</a>
</g>
</g>
<!-- Node1&#45;&gt;Node8 -->
<g id="edge7" class="edge">
<title>Node1&#45;&gt;Node8</title>
<path fill="none" stroke="midnightblue" d="M840.5,-179.19C840.5,-170.28 840.5,-160.9 840.5,-152.61"/>
<polygon fill="midnightblue" stroke="midnightblue" points="837,-179.34 840.5,-189.34 844,-179.34 837,-179.34"/>
</g>
<!-- Node10 -->
<g id="node10" class="node">
<title>Node10</title>
<g id="a_node10"><a xlink:title=" ">
<polygon fill="white" stroke="#bfbfbf" points="977.5,-100.5 977.5,-152.5 1147.5,-152.5 1147.5,-100.5 977.5,-100.5"/>
<text text-anchor="start" x="985.5" y="-140.5" font-family="Helvetica,sans-Serif" font-size="10.00">/nvme0/prudhomm/actions</text>
<text text-anchor="start" x="985.5" y="-129.5" font-family="Helvetica,sans-Serif" font-size="10.00">&#45;runner/_work/feelpp/feelpp</text>
<text text-anchor="start" x="985.5" y="-118.5" font-family="Helvetica,sans-Serif" font-size="10.00">/toolboxes/feel/feelmodels</text>
<text text-anchor="middle" x="1062.5" y="-107.5" font-family="Helvetica,sans-Serif" font-size="10.00">/fluid/fluidmechanicscreate.cpp</text>
</a>
</g>
</g>
<!-- Node1&#45;&gt;Node10 -->
<g id="edge9" class="edge">
<title>Node1&#45;&gt;Node10</title>
<path fill="none" stroke="midnightblue" d="M913.95,-185.72C941.34,-174.98 972.19,-162.89 998.65,-152.52"/>
<polygon fill="midnightblue" stroke="midnightblue" points="912.45,-182.55 904.41,-189.45 915,-189.06 912.45,-182.55"/>
</g>
<!-- Node12 -->
<g id="node12" class="node">
<title>Node12</title>
<g id="a_node12"><a xlink:title=" ">
<polygon fill="white" stroke="#bfbfbf" points="1165.5,-100.5 1165.5,-152.5 1335.5,-152.5 1335.5,-100.5 1165.5,-100.5"/>
<text text-anchor="start" x="1173.5" y="-140.5" font-family="Helvetica,sans-Serif" font-size="10.00">/nvme0/prudhomm/actions</text>
<text text-anchor="start" x="1173.5" y="-129.5" font-family="Helvetica,sans-Serif" font-size="10.00">&#45;runner/_work/feelpp/feelpp</text>
<text text-anchor="start" x="1173.5" y="-118.5" font-family="Helvetica,sans-Serif" font-size="10.00">/toolboxes/feel/feelmodels</text>
<text text-anchor="middle" x="1250.5" y="-107.5" font-family="Helvetica,sans-Serif" font-size="10.00">/fluid/fluidmechanicsothers.cpp</text>
</a>
</g>
</g>
<!-- Node1&#45;&gt;Node12 -->
<g id="edge11" class="edge">
<title>Node1&#45;&gt;Node12</title>
<path fill="none" stroke="midnightblue" d="M926.82,-199.45C990.54,-187.92 1079.25,-170.97 1156.5,-153 1159.38,-152.33 1162.31,-151.63 1165.26,-150.91"/>
<polygon fill="midnightblue" stroke="midnightblue" points="926.03,-196.04 916.81,-201.25 927.27,-202.92 926.03,-196.04"/>
</g>
<!-- Node14 -->
<g id="node14" class="node">
<title>Node14</title>
<g id="a_node14"><a xlink:title=" ">
<polygon fill="white" stroke="#bfbfbf" points="1354,-100.5 1354,-152.5 1587,-152.5 1587,-100.5 1354,-100.5"/>
<text text-anchor="start" x="1362" y="-140.5" font-family="Helvetica,sans-Serif" font-size="10.00">/nvme0/prudhomm/actions</text>
<text text-anchor="start" x="1362" y="-129.5" font-family="Helvetica,sans-Serif" font-size="10.00">&#45;runner/_work/feelpp/feelpp</text>
<text text-anchor="start" x="1362" y="-118.5" font-family="Helvetica,sans-Serif" font-size="10.00">/toolboxes/feel/feelmodels</text>
<text text-anchor="middle" x="1470.5" y="-107.5" font-family="Helvetica,sans-Serif" font-size="10.00">/fluid/fluidmechanicsupdatestabilisation.cpp</text>
</a>
</g>
</g>
<!-- Node1&#45;&gt;Node14 -->
<g id="edge13" class="edge">
<title>Node1&#45;&gt;Node14</title>
<path fill="none" stroke="midnightblue" d="M926.87,-206.04C1027.47,-195.7 1198.54,-176.64 1344.5,-153 1347.58,-152.5 1350.71,-151.98 1353.86,-151.44"/>
<polygon fill="midnightblue" stroke="midnightblue" points="926.35,-202.57 916.75,-207.07 927.06,-209.54 926.35,-202.57"/>
</g>
<!-- Node3 -->
<g id="node3" class="node">
<title>Node3</title>
<g id="a_node3"><a xlink:title=" ">
<polygon fill="white" stroke="#bfbfbf" points="10,-0.5 10,-63.5 217,-63.5 217,-0.5 10,-0.5"/>
<text text-anchor="start" x="18" y="-51.5" font-family="Helvetica,sans-Serif" font-size="10.00">/nvme0/prudhomm/actions</text>
<text text-anchor="start" x="18" y="-40.5" font-family="Helvetica,sans-Serif" font-size="10.00">&#45;runner/_work/feelpp/feelpp</text>
<text text-anchor="start" x="18" y="-29.5" font-family="Helvetica,sans-Serif" font-size="10.00">/toolboxes/feel/feelmodels</text>
<text text-anchor="start" x="18" y="-18.5" font-family="Helvetica,sans-Serif" font-size="10.00">/fluid/fluidmechanicsassemblyjacobian</text>
<text text-anchor="middle" x="113.5" y="-7.5" font-family="Helvetica,sans-Serif" font-size="10.00">_inst.cpp</text>
</a>
</g>
</g>
<!-- Node2&#45;&gt;Node3 -->
<g id="edge2" class="edge">
<title>Node2&#45;&gt;Node3</title>
<path fill="none" stroke="midnightblue" d="M113.5,-89.94C113.5,-81.23 113.5,-71.97 113.5,-63.51"/>
<polygon fill="midnightblue" stroke="midnightblue" points="110,-90.22 113.5,-100.22 117,-90.22 110,-90.22"/>
</g>
<!-- Node5 -->
<g id="node5" class="node">
<title>Node5</title>
<g id="a_node5"><a xlink:title=" ">
<polygon fill="white" stroke="#bfbfbf" points="255.5,-0.5 255.5,-63.5 449.5,-63.5 449.5,-0.5 255.5,-0.5"/>
<text text-anchor="start" x="263.5" y="-51.5" font-family="Helvetica,sans-Serif" font-size="10.00">/nvme0/prudhomm/actions</text>
<text text-anchor="start" x="263.5" y="-40.5" font-family="Helvetica,sans-Serif" font-size="10.00">&#45;runner/_work/feelpp/feelpp</text>
<text text-anchor="start" x="263.5" y="-29.5" font-family="Helvetica,sans-Serif" font-size="10.00">/toolboxes/feel/feelmodels</text>
<text text-anchor="start" x="263.5" y="-18.5" font-family="Helvetica,sans-Serif" font-size="10.00">/fluid/fluidmechanicsassemblylinear</text>
<text text-anchor="middle" x="352.5" y="-7.5" font-family="Helvetica,sans-Serif" font-size="10.00">_inst.cpp</text>
</a>
</g>
</g>
<!-- Node4&#45;&gt;Node5 -->
<g id="edge4" class="edge">
<title>Node4&#45;&gt;Node5</title>
<path fill="none" stroke="midnightblue" d="M352.5,-89.94C352.5,-81.23 352.5,-71.97 352.5,-63.51"/>
<polygon fill="midnightblue" stroke="midnightblue" points="349,-90.22 352.5,-100.22 356,-90.22 349,-90.22"/>
</g>
<!-- Node7 -->
<g id="node7" class="node">
<title>Node7</title>
<g id="a_node7"><a xlink:title=" ">
<polygon fill="white" stroke="#bfbfbf" points="488,-0.5 488,-63.5 693,-63.5 693,-0.5 488,-0.5"/>
<text text-anchor="start" x="496" y="-51.5" font-family="Helvetica,sans-Serif" font-size="10.00">/nvme0/prudhomm/actions</text>
<text text-anchor="start" x="496" y="-40.5" font-family="Helvetica,sans-Serif" font-size="10.00">&#45;runner/_work/feelpp/feelpp</text>
<text text-anchor="start" x="496" y="-29.5" font-family="Helvetica,sans-Serif" font-size="10.00">/toolboxes/feel/feelmodels</text>
<text text-anchor="start" x="496" y="-18.5" font-family="Helvetica,sans-Serif" font-size="10.00">/fluid/fluidmechanicsassemblyresidual</text>
<text text-anchor="middle" x="590.5" y="-7.5" font-family="Helvetica,sans-Serif" font-size="10.00">_inst.cpp</text>
</a>
</g>
</g>
<!-- Node6&#45;&gt;Node7 -->
<g id="edge6" class="edge">
<title>Node6&#45;&gt;Node7</title>
<path fill="none" stroke="midnightblue" d="M590.5,-89.94C590.5,-81.23 590.5,-71.97 590.5,-63.51"/>
<polygon fill="midnightblue" stroke="midnightblue" points="587,-90.22 590.5,-100.22 594,-90.22 587,-90.22"/>
</g>
<!-- Node9 -->
<g id="node9" class="node">
<title>Node9</title>
<g id="a_node9"><a xlink:title=" ">
<polygon fill="white" stroke="#bfbfbf" points="731.5,-0.5 731.5,-63.5 949.5,-63.5 949.5,-0.5 731.5,-0.5"/>
<text text-anchor="start" x="739.5" y="-51.5" font-family="Helvetica,sans-Serif" font-size="10.00">/nvme0/prudhomm/actions</text>
<text text-anchor="start" x="739.5" y="-40.5" font-family="Helvetica,sans-Serif" font-size="10.00">&#45;runner/_work/feelpp/feelpp</text>
<text text-anchor="start" x="739.5" y="-29.5" font-family="Helvetica,sans-Serif" font-size="10.00">/toolboxes/feel/feelmodels</text>
<text text-anchor="start" x="739.5" y="-18.5" font-family="Helvetica,sans-Serif" font-size="10.00">/fluid/fluidmechanicsassemblyturbulence</text>
<text text-anchor="middle" x="840.5" y="-7.5" font-family="Helvetica,sans-Serif" font-size="10.00">_inst.cpp</text>
</a>
</g>
</g>
<!-- Node8&#45;&gt;Node9 -->
<g id="edge8" class="edge">
<title>Node8&#45;&gt;Node9</title>
<path fill="none" stroke="midnightblue" d="M840.5,-89.94C840.5,-81.23 840.5,-71.97 840.5,-63.51"/>
<polygon fill="midnightblue" stroke="midnightblue" points="837,-90.22 840.5,-100.22 844,-90.22 837,-90.22"/>
</g>
<!-- Node11 -->
<g id="node11" class="node">
<title>Node11</title>
<g id="a_node11"><a xlink:title=" ">
<polygon fill="white" stroke="#bfbfbf" points="986.5,-0.5 986.5,-63.5 1138.5,-63.5 1138.5,-0.5 986.5,-0.5"/>
<text text-anchor="start" x="994.5" y="-51.5" font-family="Helvetica,sans-Serif" font-size="10.00">/nvme0/prudhomm/actions</text>
<text text-anchor="start" x="994.5" y="-40.5" font-family="Helvetica,sans-Serif" font-size="10.00">&#45;runner/_work/feelpp/feelpp</text>
<text text-anchor="start" x="994.5" y="-29.5" font-family="Helvetica,sans-Serif" font-size="10.00">/toolboxes/feel/feelmodels</text>
<text text-anchor="start" x="994.5" y="-18.5" font-family="Helvetica,sans-Serif" font-size="10.00">/fluid/fluidmechanicscreate</text>
<text text-anchor="middle" x="1062.5" y="-7.5" font-family="Helvetica,sans-Serif" font-size="10.00">_inst.cpp</text>
</a>
</g>
</g>
<!-- Node10&#45;&gt;Node11 -->
<g id="edge10" class="edge">
<title>Node10&#45;&gt;Node11</title>
<path fill="none" stroke="midnightblue" d="M1062.5,-89.94C1062.5,-81.23 1062.5,-71.97 1062.5,-63.51"/>
<polygon fill="midnightblue" stroke="midnightblue" points="1059,-90.22 1062.5,-100.22 1066,-90.22 1059,-90.22"/>
</g>
<!-- Node13 -->
<g id="node13" class="node">
<title>Node13</title>
<g id="a_node13"><a xlink:title=" ">
<polygon fill="white" stroke="#bfbfbf" points="1174.5,-0.5 1174.5,-63.5 1326.5,-63.5 1326.5,-0.5 1174.5,-0.5"/>
<text text-anchor="start" x="1182.5" y="-51.5" font-family="Helvetica,sans-Serif" font-size="10.00">/nvme0/prudhomm/actions</text>
<text text-anchor="start" x="1182.5" y="-40.5" font-family="Helvetica,sans-Serif" font-size="10.00">&#45;runner/_work/feelpp/feelpp</text>
<text text-anchor="start" x="1182.5" y="-29.5" font-family="Helvetica,sans-Serif" font-size="10.00">/toolboxes/feel/feelmodels</text>
<text text-anchor="start" x="1182.5" y="-18.5" font-family="Helvetica,sans-Serif" font-size="10.00">/fluid/fluidmechanicsothers</text>
<text text-anchor="middle" x="1250.5" y="-7.5" font-family="Helvetica,sans-Serif" font-size="10.00">_inst.cpp</text>
</a>
</g>
</g>
<!-- Node12&#45;&gt;Node13 -->
<g id="edge12" class="edge">
<title>Node12&#45;&gt;Node13</title>
<path fill="none" stroke="midnightblue" d="M1250.5,-89.94C1250.5,-81.23 1250.5,-71.97 1250.5,-63.51"/>
<polygon fill="midnightblue" stroke="midnightblue" points="1247,-90.22 1250.5,-100.22 1254,-90.22 1247,-90.22"/>
</g>
<!-- Node15 -->
<g id="node15" class="node">
<title>Node15</title>
<g id="a_node15"><a xlink:title=" ">
<polygon fill="white" stroke="#bfbfbf" points="1364.5,-0.5 1364.5,-63.5 1576.5,-63.5 1576.5,-0.5 1364.5,-0.5"/>
<text text-anchor="start" x="1372.5" y="-51.5" font-family="Helvetica,sans-Serif" font-size="10.00">/nvme0/prudhomm/actions</text>
<text text-anchor="start" x="1372.5" y="-40.5" font-family="Helvetica,sans-Serif" font-size="10.00">&#45;runner/_work/feelpp/feelpp</text>
<text text-anchor="start" x="1372.5" y="-29.5" font-family="Helvetica,sans-Serif" font-size="10.00">/toolboxes/feel/feelmodels</text>
<text text-anchor="start" x="1372.5" y="-18.5" font-family="Helvetica,sans-Serif" font-size="10.00">/fluid/fluidmechanicsupdatestabilisation</text>
<text text-anchor="middle" x="1470.5" y="-7.5" font-family="Helvetica,sans-Serif" font-size="10.00">_inst.cpp</text>
</a>
</g>
</g>
<!-- Node14&#45;&gt;Node15 -->
<g id="edge14" class="edge">
<title>Node14&#45;&gt;Node15</title>
<path fill="none" stroke="midnightblue" d="M1470.5,-89.94C1470.5,-81.23 1470.5,-71.97 1470.5,-63.51"/>
<polygon fill="midnightblue" stroke="midnightblue" points="1467,-90.22 1470.5,-100.22 1474,-90.22 1467,-90.22"/>
</g>
</g>
</svg>
        <g id="navigator" transform="translate(0 0)" fill="#404254">
                <rect fill="#f2f5e9" fill-opacity="0.5" stroke="#606060" stroke-width=".5" x="0" y="0" width="60" height="60"/>
                <use id="zoomplus" xlink:href="#zoomPlus" x="17" y="9" onmousedown="handleZoom(evt,'in')"/>
                <use id="zoomminus" xlink:href="#zoomMin" x="42" y="9" onmousedown="handleZoom(evt,'out')"/>
                <use id="reset" xlink:href="#resetDef" x="30" y="36" onmousedown="handleReset()"/>
                <g id="arrowUp" xlink:href="#dirArrow" transform="translate(30 24)" onmousedown="handlePan(0,-1)">
                  <use xlink:href="#rim" fill="#404040">
                        <set attributeName="fill" to="#808080" begin="arrowUp.mouseover" end="arrowUp.mouseout"/>
                  </use>
                  <path fill="none" stroke="white" stroke-width="1.5" d="M0,-3.0v7 M-2.5,-0.5L0,-3.0L2.5,-0.5"/>
                </g>
                <g id="arrowRight" xlink:href="#dirArrow" transform="rotate(90) translate(36 -43)" onmousedown="handlePan(1,0)">
                  <use xlink:href="#rim" fill="#404040">
                        <set attributeName="fill" to="#808080" begin="arrowRight.mouseover" end="arrowRight.mouseout"/>
                  </use>
                  <path fill="none" stroke="white" stroke-width="1.5" d="M0,-3.0v7 M-2.5,-0.5L0,-3.0L2.5,-0.5"/>
                </g>
                <g id="arrowDown" xlink:href="#dirArrow" transform="rotate(180) translate(-30 -48)" onmousedown="handlePan(0,1)">
                  <use xlink:href="#rim" fill="#404040">
                        <set attributeName="fill" to="#808080" begin="arrowDown.mouseover" end="arrowDown.mouseout"/>
                  </use>
                  <path fill="none" stroke="white" stroke-width="1.5" d="M0,-3.0v7 M-2.5,-0.5L0,-3.0L2.5,-0.5"/>
                </g>
                <g id="arrowLeft" xlink:href="#dirArrow" transform="rotate(270) translate(-36 17)" onmousedown="handlePan(-1,0)">
                  <use xlink:href="#rim" fill="#404040">
                        <set attributeName="fill" to="#808080" begin="arrowLeft.mouseover" end="arrowLeft.mouseout"/>
                  </use>
                  <path fill="none" stroke="white" stroke-width="1.5" d="M0,-3.0v7 M-2.5,-0.5L0,-3.0L2.5,-0.5"/>
                </g>
        </g>
        <svg viewBox="0 0 15 15" width="100%" height="30px" preserveAspectRatio="xMaxYMin meet">
         <g id="arrow_out" transform="scale(0.3 0.3)">
          <a xlink:href="fluidmechanics_8hpp__dep__incl_org.svg" target="_base">
           <rect id="button" ry="5" rx="5" y="6" x="6" height="38" width="38"
                fill="#f2f5e9" fill-opacity="0.5" stroke="#606060" stroke-width="1.0"/>
           <path id="arrow"
             d="M 11.500037,31.436501 C 11.940474,20.09759 22.043105,11.32322 32.158766,21.979434 L 37.068811,17.246167 C 37.068811,17.246167 37.088388,32 37.088388,32 L 22.160133,31.978069 C 22.160133,31.978069 26.997745,27.140456 26.997745,27.140456 C 18.528582,18.264221 13.291696,25.230495 11.500037,31.436501 z"
             style="fill:#404040;"/>
          </a>
         </g>
        </svg>
</svg>
