<?xml version="1.0" encoding="UTF-8" standalone="no"?>
<!DOCTYPE svg PUBLIC "-//W3C//DTD SVG 1.1//EN"
 "http://www.w3.org/Graphics/SVG/1.1/DTD/svg11.dtd">
<!-- Generated by graphviz version 2.43.0 (0)
 -->
<!-- Title: /data/cemosis/github&#45;actions&#45;runner/actions&#45;runner&#45;3/_work/feelpp/feelpp/toolboxes/feel/feelmodels/fluid/fluidmechanics.hpp Pages: 1 -->
<!--zoomable 272 -->
<svg id="main" version="1.1" xmlns="http://www.w3.org/2000/svg" xmlns:xlink="http://www.w3.org/1999/xlink" xml:space="preserve" onload="init(evt)">
<style type="text/css"><![CDATA[
.edge:hover path { stroke: red; }
.edge:hover polygon { stroke: red; fill: red; }
]]></style>
<script type="text/javascript"><![CDATA[
var edges = document.getElementsByTagName('g');
if (edges && edges.length) {
  for (var i=0;i<edges.length;i++) {
    if (edges[i].id.substr(0,4)=='edge') {
      edges[i].setAttribute('class','edge');
    }
  }
}
]]></script>
        <defs>
                <circle id="rim" cx="0" cy="0" r="7"/>
                <circle id="rim2" cx="0" cy="0" r="3.5"/>
                <g id="zoomPlus">
                        <use xlink:href="#rim" fill="#404040">
                                <set attributeName="fill" to="#808080" begin="zoomplus.mouseover" end="zoomplus.mouseout"/>
                        </use>
                        <path d="M-4,0h8M0,-4v8" fill="none" stroke="white" stroke-width="1.5" pointer-events="none"/>
                </g>
                <g id="zoomMin">
                        <use xlink:href="#rim" fill="#404040">
                                <set attributeName="fill" to="#808080" begin="zoomminus.mouseover" end="zoomminus.mouseout"/>
                        </use>
                        <path d="M-4,0h8" fill="none" stroke="white" stroke-width="1.5" pointer-events="none"/>
                </g>
                <g id="dirArrow">
                        <path fill="none" stroke="white" stroke-width="1.5" d="M0,-3.0v7 M-2.5,-0.5L0,-3.0L2.5,-0.5"/>
                </g>
               <g id="resetDef">
                       <use xlink:href="#rim2" fill="#404040">
                               <set attributeName="fill" to="#808080" begin="reset.mouseover" end="reset.mouseout"/>
                       </use>
               </g>
        </defs>

<script type="text/javascript">
var viewWidth = 1757;
var viewHeight = 272;
var sectionId = 'dynsection-0';
</script>
<script xlink:href="svgpan.js"/>
<svg id="graph" class="graph">
<g id="viewport">
<title>/data/cemosis/github&#45;actions&#45;runner/actions&#45;runner&#45;3/_work/feelpp/feelpp/toolboxes/feel/feelmodels/fluid/fluidmechanics.hpp</title>
<polygon fill="white" stroke="transparent" points="-4,4 -4,-268 1752.5,-268 1752.5,4 -4,4"/>
<!-- Node1 -->
<g id="node1" class="node">
<title>Node1</title>
<g id="a_node1"><a xlink:title=" ">
<polygon fill="#bfbfbf" stroke="black" points="831.5,-200.5 831.5,-263.5 1011.5,-263.5 1011.5,-200.5 831.5,-200.5"/>
<text text-anchor="start" x="839.5" y="-251.5" font-family="Helvetica,sans-Serif" font-size="10.00">/data/cemosis/github</text>
<text text-anchor="start" x="839.5" y="-240.5" font-family="Helvetica,sans-Serif" font-size="10.00">&#45;actions&#45;runner/actions</text>
<text text-anchor="start" x="839.5" y="-229.5" font-family="Helvetica,sans-Serif" font-size="10.00">&#45;runner&#45;3/_work/feelpp</text>
<text text-anchor="start" x="839.5" y="-218.5" font-family="Helvetica,sans-Serif" font-size="10.00">/feelpp/toolboxes/feel/feelmodels</text>
<text text-anchor="middle" x="921.5" y="-207.5" font-family="Helvetica,sans-Serif" font-size="10.00">/fluid/fluidmechanics.hpp</text>
</a>
</g>
</g>
<!-- Node2 -->
<g id="node2" class="node">
<title>Node2</title>
<g id="a_node2"><a xlink:title=" ">
<polygon fill="white" stroke="#bfbfbf" points="35,-100.5 35,-163.5 262,-163.5 262,-100.5 35,-100.5"/>
<text text-anchor="start" x="43" y="-151.5" font-family="Helvetica,sans-Serif" font-size="10.00">/data/cemosis/github</text>
<text text-anchor="start" x="43" y="-140.5" font-family="Helvetica,sans-Serif" font-size="10.00">&#45;actions&#45;runner/actions</text>
<text text-anchor="start" x="43" y="-129.5" font-family="Helvetica,sans-Serif" font-size="10.00">&#45;runner&#45;3/_work/feelpp</text>
<text text-anchor="start" x="43" y="-118.5" font-family="Helvetica,sans-Serif" font-size="10.00">/feelpp/toolboxes/feel/feelmodels</text>
<text text-anchor="middle" x="148.5" y="-107.5" font-family="Helvetica,sans-Serif" font-size="10.00">/fluid/fluidmechanicsassemblyjacobian.cpp</text>
</a>
</g>
</g>
<!-- Node1&#45;&gt;Node2 -->
<g id="edge1" class="edge">
<title>Node1&#45;&gt;Node2</title>
<path fill="none" stroke="midnightblue" d="M821.3,-224.32C695.05,-215.03 471.69,-195.68 282.5,-164 275.91,-162.9 269.15,-161.66 262.35,-160.34"/>
<polygon fill="midnightblue" stroke="midnightblue" points="821.11,-227.82 831.34,-225.05 821.62,-220.84 821.11,-227.82"/>
</g>
<!-- Node4 -->
<g id="node4" class="node">
<title>Node4</title>
<g id="a_node4"><a xlink:title=" ">
<polygon fill="white" stroke="#bfbfbf" points="291.5,-100.5 291.5,-163.5 505.5,-163.5 505.5,-100.5 291.5,-100.5"/>
<text text-anchor="start" x="299.5" y="-151.5" font-family="Helvetica,sans-Serif" font-size="10.00">/data/cemosis/github</text>
<text text-anchor="start" x="299.5" y="-140.5" font-family="Helvetica,sans-Serif" font-size="10.00">&#45;actions&#45;runner/actions</text>
<text text-anchor="start" x="299.5" y="-129.5" font-family="Helvetica,sans-Serif" font-size="10.00">&#45;runner&#45;3/_work/feelpp</text>
<text text-anchor="start" x="299.5" y="-118.5" font-family="Helvetica,sans-Serif" font-size="10.00">/feelpp/toolboxes/feel/feelmodels</text>
<text text-anchor="middle" x="398.5" y="-107.5" font-family="Helvetica,sans-Serif" font-size="10.00">/fluid/fluidmechanicsassemblylinear.cpp</text>
</a>
</g>
</g>
<!-- Node1&#45;&gt;Node4 -->
<g id="edge3" class="edge">
<title>Node1&#45;&gt;Node4</title>
<path fill="none" stroke="midnightblue" d="M821.02,-214.79C743.41,-201.95 633.42,-183.05 537.5,-164 527.19,-161.95 516.48,-159.73 505.77,-157.45"/>
<polygon fill="midnightblue" stroke="midnightblue" points="820.84,-218.3 831.28,-216.48 821.98,-211.4 820.84,-218.3"/>
</g>
<!-- Node6 -->
<g id="node6" class="node">
<title>Node6</title>
<g id="a_node6"><a xlink:title=" ">
<polygon fill="white" stroke="#bfbfbf" points="547,-100.5 547,-163.5 772,-163.5 772,-100.5 547,-100.5"/>
<text text-anchor="start" x="555" y="-151.5" font-family="Helvetica,sans-Serif" font-size="10.00">/data/cemosis/github</text>
<text text-anchor="start" x="555" y="-140.5" font-family="Helvetica,sans-Serif" font-size="10.00">&#45;actions&#45;runner/actions</text>
<text text-anchor="start" x="555" y="-129.5" font-family="Helvetica,sans-Serif" font-size="10.00">&#45;runner&#45;3/_work/feelpp</text>
<text text-anchor="start" x="555" y="-118.5" font-family="Helvetica,sans-Serif" font-size="10.00">/feelpp/toolboxes/feel/feelmodels</text>
<text text-anchor="middle" x="659.5" y="-107.5" font-family="Helvetica,sans-Serif" font-size="10.00">/fluid/fluidmechanicsassemblyresidual.cpp</text>
</a>
</g>
</g>
<!-- Node1&#45;&gt;Node6 -->
<g id="edge5" class="edge">
<title>Node1&#45;&gt;Node6</title>
<path fill="none" stroke="midnightblue" d="M829.99,-196.77C801.08,-185.96 769.33,-174.08 741.15,-163.54"/>
<polygon fill="midnightblue" stroke="midnightblue" points="829.09,-200.17 839.68,-200.4 831.54,-193.61 829.09,-200.17"/>
</g>
<!-- Node8 -->
<g id="node8" class="node">
<title>Node8</title>
<g id="a_node8"><a xlink:title=" ">
<polygon fill="white" stroke="#bfbfbf" points="802.5,-100.5 802.5,-163.5 1040.5,-163.5 1040.5,-100.5 802.5,-100.5"/>
<text text-anchor="start" x="810.5" y="-151.5" font-family="Helvetica,sans-Serif" font-size="10.00">/data/cemosis/github</text>
<text text-anchor="start" x="810.5" y="-140.5" font-family="Helvetica,sans-Serif" font-size="10.00">&#45;actions&#45;runner/actions</text>
<text text-anchor="start" x="810.5" y="-129.5" font-family="Helvetica,sans-Serif" font-size="10.00">&#45;runner&#45;3/_work/feelpp</text>
<text text-anchor="start" x="810.5" y="-118.5" font-family="Helvetica,sans-Serif" font-size="10.00">/feelpp/toolboxes/feel/feelmodels</text>
<text text-anchor="middle" x="921.5" y="-107.5" font-family="Helvetica,sans-Serif" font-size="10.00">/fluid/fluidmechanicsassemblyturbulence.cpp</text>
</a>
</g>
</g>
<!-- Node1&#45;&gt;Node8 -->
<g id="edge7" class="edge">
<title>Node1&#45;&gt;Node8</title>
<path fill="none" stroke="midnightblue" d="M921.5,-190.1C921.5,-181.24 921.5,-172.01 921.5,-163.63"/>
<polygon fill="midnightblue" stroke="midnightblue" points="918,-190.26 921.5,-200.26 925,-190.26 918,-190.26"/>
</g>
<!-- Node10 -->
<g id="node10" class="node">
<title>Node10</title>
<g id="a_node10"><a xlink:title=" ">
<polygon fill="white" stroke="#bfbfbf" points="1067.5,-100.5 1067.5,-163.5 1247.5,-163.5 1247.5,-100.5 1067.5,-100.5"/>
<text text-anchor="start" x="1075.5" y="-151.5" font-family="Helvetica,sans-Serif" font-size="10.00">/data/cemosis/github</text>
<text text-anchor="start" x="1075.5" y="-140.5" font-family="Helvetica,sans-Serif" font-size="10.00">&#45;actions&#45;runner/actions</text>
<text text-anchor="start" x="1075.5" y="-129.5" font-family="Helvetica,sans-Serif" font-size="10.00">&#45;runner&#45;3/_work/feelpp</text>
<text text-anchor="start" x="1075.5" y="-118.5" font-family="Helvetica,sans-Serif" font-size="10.00">/feelpp/toolboxes/feel/feelmodels</text>
<text text-anchor="middle" x="1157.5" y="-107.5" font-family="Helvetica,sans-Serif" font-size="10.00">/fluid/fluidmechanicscreate.cpp</text>
</a>
</g>
</g>
<!-- Node1&#45;&gt;Node10 -->
<g id="edge9" class="edge">
<title>Node1&#45;&gt;Node10</title>
<path fill="none" stroke="midnightblue" d="M1004.61,-196.49C1030.47,-185.75 1058.79,-173.99 1083.95,-163.54"/>
<polygon fill="midnightblue" stroke="midnightblue" points="1003.09,-193.33 995.2,-200.4 1005.78,-199.79 1003.09,-193.33"/>
</g>
<!-- Node12 -->
<g id="node12" class="node">
<title>Node12</title>
<g id="a_node12"><a xlink:title=" ">
<polygon fill="white" stroke="#bfbfbf" points="1276.5,-100.5 1276.5,-163.5 1456.5,-163.5 1456.5,-100.5 1276.5,-100.5"/>
<text text-anchor="start" x="1284.5" y="-151.5" font-family="Helvetica,sans-Serif" font-size="10.00">/data/cemosis/github</text>
<text text-anchor="start" x="1284.5" y="-140.5" font-family="Helvetica,sans-Serif" font-size="10.00">&#45;actions&#45;runner/actions</text>
<text text-anchor="start" x="1284.5" y="-129.5" font-family="Helvetica,sans-Serif" font-size="10.00">&#45;runner&#45;3/_work/feelpp</text>
<text text-anchor="start" x="1284.5" y="-118.5" font-family="Helvetica,sans-Serif" font-size="10.00">/feelpp/toolboxes/feel/feelmodels</text>
<text text-anchor="middle" x="1366.5" y="-107.5" font-family="Helvetica,sans-Serif" font-size="10.00">/fluid/fluidmechanicsothers.cpp</text>
</a>
</g>
</g>
<!-- Node1&#45;&gt;Node12 -->
<g id="edge11" class="edge">
<title>Node1&#45;&gt;Node12</title>
<path fill="none" stroke="midnightblue" d="M1021.94,-213.01C1088.72,-200.54 1178.2,-182.83 1256.5,-164 1262.96,-162.45 1269.62,-160.77 1276.3,-159.02"/>
<polygon fill="midnightblue" stroke="midnightblue" points="1021.04,-209.62 1011.85,-214.89 1022.32,-216.5 1021.04,-209.62"/>
</g>
<!-- Node14 -->
<g id="node14" class="node">
<title>Node14</title>
<g id="a_node14"><a xlink:title=" ">
<polygon fill="white" stroke="#bfbfbf" points="1489,-100.5 1489,-163.5 1722,-163.5 1722,-100.5 1489,-100.5"/>
<text text-anchor="start" x="1497" y="-151.5" font-family="Helvetica,sans-Serif" font-size="10.00">/data/cemosis/github</text>
<text text-anchor="start" x="1497" y="-140.5" font-family="Helvetica,sans-Serif" font-size="10.00">&#45;actions&#45;runner/actions</text>
<text text-anchor="start" x="1497" y="-129.5" font-family="Helvetica,sans-Serif" font-size="10.00">&#45;runner&#45;3/_work/feelpp</text>
<text text-anchor="start" x="1497" y="-118.5" font-family="Helvetica,sans-Serif" font-size="10.00">/feelpp/toolboxes/feel/feelmodels</text>
<text text-anchor="middle" x="1605.5" y="-107.5" font-family="Helvetica,sans-Serif" font-size="10.00">/fluid/fluidmechanicsupdatestabilisation.cpp</text>
</a>
</g>
</g>
<!-- Node1&#45;&gt;Node14 -->
<g id="edge13" class="edge">
<title>Node1&#45;&gt;Node14</title>
<path fill="none" stroke="midnightblue" d="M1021.93,-221.53C1131.42,-210.53 1311.58,-190.46 1465.5,-164 1473.11,-162.69 1480.92,-161.25 1488.79,-159.72"/>
<polygon fill="midnightblue" stroke="midnightblue" points="1021.49,-218.06 1011.89,-222.53 1022.19,-225.02 1021.49,-218.06"/>
</g>
<!-- Node3 -->
<g id="node3" class="node">
<title>Node3</title>
<g id="a_node3"><a xlink:title=" ">
<polygon fill="white" stroke="#bfbfbf" points="0,-0.5 0,-63.5 251,-63.5 251,-0.5 0,-0.5"/>
<text text-anchor="start" x="8" y="-51.5" font-family="Helvetica,sans-Serif" font-size="10.00">/data/cemosis/github</text>
<text text-anchor="start" x="8" y="-40.5" font-family="Helvetica,sans-Serif" font-size="10.00">&#45;actions&#45;runner/actions</text>
<text text-anchor="start" x="8" y="-29.5" font-family="Helvetica,sans-Serif" font-size="10.00">&#45;runner&#45;3/_work/feelpp</text>
<text text-anchor="start" x="8" y="-18.5" font-family="Helvetica,sans-Serif" font-size="10.00">/feelpp/toolboxes/feel/feelmodels</text>
<text text-anchor="middle" x="125.5" y="-7.5" font-family="Helvetica,sans-Serif" font-size="10.00">/fluid/fluidmechanicsassemblyjacobian_inst.cpp</text>
</a>
</g>
</g>
<!-- Node2&#45;&gt;Node3 -->
<g id="edge2" class="edge">
<title>Node2&#45;&gt;Node3</title>
<path fill="none" stroke="midnightblue" d="M138.97,-90.39C136.87,-81.44 134.68,-72.11 132.69,-63.63"/>
<polygon fill="midnightblue" stroke="midnightblue" points="135.59,-91.33 141.29,-100.26 142.41,-89.73 135.59,-91.33"/>
</g>
<!-- Node5 -->
<g id="node5" class="node">
<title>Node5</title>
<g id="a_node5"><a xlink:title=" ">
<polygon fill="white" stroke="#bfbfbf" points="269,-0.5 269,-63.5 506,-63.5 506,-0.5 269,-0.5"/>
<text text-anchor="start" x="277" y="-51.5" font-family="Helvetica,sans-Serif" font-size="10.00">/data/cemosis/github</text>
<text text-anchor="start" x="277" y="-40.5" font-family="Helvetica,sans-Serif" font-size="10.00">&#45;actions&#45;runner/actions</text>
<text text-anchor="start" x="277" y="-29.5" font-family="Helvetica,sans-Serif" font-size="10.00">&#45;runner&#45;3/_work/feelpp</text>
<text text-anchor="start" x="277" y="-18.5" font-family="Helvetica,sans-Serif" font-size="10.00">/feelpp/toolboxes/feel/feelmodels</text>
<text text-anchor="middle" x="387.5" y="-7.5" font-family="Helvetica,sans-Serif" font-size="10.00">/fluid/fluidmechanicsassemblylinear_inst.cpp</text>
</a>
</g>
</g>
<!-- Node4&#45;&gt;Node5 -->
<g id="edge4" class="edge">
<title>Node4&#45;&gt;Node5</title>
<path fill="none" stroke="midnightblue" d="M393.91,-90.1C392.91,-81.24 391.88,-72.01 390.94,-63.63"/>
<polygon fill="midnightblue" stroke="midnightblue" points="390.46,-90.71 395.05,-100.26 397.41,-89.93 390.46,-90.71"/>
</g>
<!-- Node7 -->
<g id="node7" class="node">
<title>Node7</title>
<g id="a_node7"><a xlink:title=" ">
<polygon fill="white" stroke="#bfbfbf" points="524.5,-0.5 524.5,-63.5 772.5,-63.5 772.5,-0.5 524.5,-0.5"/>
<text text-anchor="start" x="532.5" y="-51.5" font-family="Helvetica,sans-Serif" font-size="10.00">/data/cemosis/github</text>
<text text-anchor="start" x="532.5" y="-40.5" font-family="Helvetica,sans-Serif" font-size="10.00">&#45;actions&#45;runner/actions</text>
<text text-anchor="start" x="532.5" y="-29.5" font-family="Helvetica,sans-Serif" font-size="10.00">&#45;runner&#45;3/_work/feelpp</text>
<text text-anchor="start" x="532.5" y="-18.5" font-family="Helvetica,sans-Serif" font-size="10.00">/feelpp/toolboxes/feel/feelmodels</text>
<text text-anchor="middle" x="648.5" y="-7.5" font-family="Helvetica,sans-Serif" font-size="10.00">/fluid/fluidmechanicsassemblyresidual_inst.cpp</text>
</a>
</g>
</g>
<!-- Node6&#45;&gt;Node7 -->
<g id="edge6" class="edge">
<title>Node6&#45;&gt;Node7</title>
<path fill="none" stroke="midnightblue" d="M654.91,-90.1C653.91,-81.24 652.88,-72.01 651.94,-63.63"/>
<polygon fill="midnightblue" stroke="midnightblue" points="651.46,-90.71 656.05,-100.26 658.41,-89.93 651.46,-90.71"/>
</g>
<!-- Node9 -->
<g id="node9" class="node">
<title>Node9</title>
<g id="a_node9"><a xlink:title=" ">
<polygon fill="white" stroke="#bfbfbf" points="791,-0.5 791,-63.5 1052,-63.5 1052,-0.5 791,-0.5"/>
<text text-anchor="start" x="799" y="-51.5" font-family="Helvetica,sans-Serif" font-size="10.00">/data/cemosis/github</text>
<text text-anchor="start" x="799" y="-40.5" font-family="Helvetica,sans-Serif" font-size="10.00">&#45;actions&#45;runner/actions</text>
<text text-anchor="start" x="799" y="-29.5" font-family="Helvetica,sans-Serif" font-size="10.00">&#45;runner&#45;3/_work/feelpp</text>
<text text-anchor="start" x="799" y="-18.5" font-family="Helvetica,sans-Serif" font-size="10.00">/feelpp/toolboxes/feel/feelmodels</text>
<text text-anchor="middle" x="921.5" y="-7.5" font-family="Helvetica,sans-Serif" font-size="10.00">/fluid/fluidmechanicsassemblyturbulence_inst.cpp</text>
</a>
</g>
</g>
<!-- Node8&#45;&gt;Node9 -->
<g id="edge8" class="edge">
<title>Node8&#45;&gt;Node9</title>
<path fill="none" stroke="midnightblue" d="M921.5,-90.1C921.5,-81.24 921.5,-72.01 921.5,-63.63"/>
<polygon fill="midnightblue" stroke="midnightblue" points="918,-90.26 921.5,-100.26 925,-90.26 918,-90.26"/>
</g>
<!-- Node11 -->
<g id="node11" class="node">
<title>Node11</title>
<g id="a_node11"><a xlink:title=" ">
<polygon fill="white" stroke="#bfbfbf" points="1070,-0.5 1070,-63.5 1263,-63.5 1263,-0.5 1070,-0.5"/>
<text text-anchor="start" x="1078" y="-51.5" font-family="Helvetica,sans-Serif" font-size="10.00">/data/cemosis/github</text>
<text text-anchor="start" x="1078" y="-40.5" font-family="Helvetica,sans-Serif" font-size="10.00">&#45;actions&#45;runner/actions</text>
<text text-anchor="start" x="1078" y="-29.5" font-family="Helvetica,sans-Serif" font-size="10.00">&#45;runner&#45;3/_work/feelpp</text>
<text text-anchor="start" x="1078" y="-18.5" font-family="Helvetica,sans-Serif" font-size="10.00">/feelpp/toolboxes/feel/feelmodels</text>
<text text-anchor="middle" x="1166.5" y="-7.5" font-family="Helvetica,sans-Serif" font-size="10.00">/fluid/fluidmechanicscreate_inst.cpp</text>
</a>
</g>
</g>
<!-- Node10&#45;&gt;Node11 -->
<g id="edge10" class="edge">
<title>Node10&#45;&gt;Node11</title>
<path fill="none" stroke="midnightblue" d="M1161.26,-90.1C1162.07,-81.24 1162.92,-72.01 1163.69,-63.63"/>
<polygon fill="midnightblue" stroke="midnightblue" points="1157.75,-89.98 1160.32,-100.26 1164.72,-90.62 1157.75,-89.98"/>
</g>
<!-- Node13 -->
<g id="node13" class="node">
<title>Node13</title>
<g id="a_node13"><a xlink:title=" ">
<polygon fill="white" stroke="#bfbfbf" points="1281,-0.5 1281,-63.5 1474,-63.5 1474,-0.5 1281,-0.5"/>
<text text-anchor="start" x="1289" y="-51.5" font-family="Helvetica,sans-Serif" font-size="10.00">/data/cemosis/github</text>
<text text-anchor="start" x="1289" y="-40.5" font-family="Helvetica,sans-Serif" font-size="10.00">&#45;actions&#45;runner/actions</text>
<text text-anchor="start" x="1289" y="-29.5" font-family="Helvetica,sans-Serif" font-size="10.00">&#45;runner&#45;3/_work/feelpp</text>
<text text-anchor="start" x="1289" y="-18.5" font-family="Helvetica,sans-Serif" font-size="10.00">/feelpp/toolboxes/feel/feelmodels</text>
<text text-anchor="middle" x="1377.5" y="-7.5" font-family="Helvetica,sans-Serif" font-size="10.00">/fluid/fluidmechanicsothers_inst.cpp</text>
</a>
</g>
</g>
<!-- Node12&#45;&gt;Node13 -->
<g id="edge12" class="edge">
<title>Node12&#45;&gt;Node13</title>
<path fill="none" stroke="midnightblue" d="M1371.09,-90.1C1372.09,-81.24 1373.12,-72.01 1374.06,-63.63"/>
<polygon fill="midnightblue" stroke="midnightblue" points="1367.59,-89.93 1369.95,-100.26 1374.54,-90.71 1367.59,-89.93"/>
</g>
<!-- Node15 -->
<g id="node15" class="node">
<title>Node15</title>
<g id="a_node15"><a xlink:title=" ">
<polygon fill="white" stroke="#bfbfbf" points="1492.5,-0.5 1492.5,-63.5 1748.5,-63.5 1748.5,-0.5 1492.5,-0.5"/>
<text text-anchor="start" x="1500.5" y="-51.5" font-family="Helvetica,sans-Serif" font-size="10.00">/data/cemosis/github</text>
<text text-anchor="start" x="1500.5" y="-40.5" font-family="Helvetica,sans-Serif" font-size="10.00">&#45;actions&#45;runner/actions</text>
<text text-anchor="start" x="1500.5" y="-29.5" font-family="Helvetica,sans-Serif" font-size="10.00">&#45;runner&#45;3/_work/feelpp</text>
<text text-anchor="start" x="1500.5" y="-18.5" font-family="Helvetica,sans-Serif" font-size="10.00">/feelpp/toolboxes/feel/feelmodels</text>
<text text-anchor="middle" x="1620.5" y="-7.5" font-family="Helvetica,sans-Serif" font-size="10.00">/fluid/fluidmechanicsupdatestabilisation_inst.cpp</text>
</a>
</g>
</g>
<!-- Node14&#45;&gt;Node15 -->
<g id="edge14" class="edge">
<title>Node14&#45;&gt;Node15</title>
<path fill="none" stroke="midnightblue" d="M1611.76,-90.1C1613.12,-81.24 1614.53,-72.01 1615.81,-63.63"/>
<polygon fill="midnightblue" stroke="midnightblue" points="1608.26,-89.85 1610.2,-100.26 1615.18,-90.91 1608.26,-89.85"/>
</g>
</g>
</svg>
        <g id="navigator" transform="translate(0 0)" fill="#404254">
                <rect fill="#f2f5e9" fill-opacity="0.5" stroke="#606060" stroke-width=".5" x="0" y="0" width="60" height="60"/>
                <use id="zoomplus" xlink:href="#zoomPlus" x="17" y="9" onmousedown="handleZoom(evt,'in')"/>
                <use id="zoomminus" xlink:href="#zoomMin" x="42" y="9" onmousedown="handleZoom(evt,'out')"/>
                <use id="reset" xlink:href="#resetDef" x="30" y="36" onmousedown="handleReset()"/>
                <g id="arrowUp" xlink:href="#dirArrow" transform="translate(30 24)" onmousedown="handlePan(0,-1)">
                  <use xlink:href="#rim" fill="#404040">
                        <set attributeName="fill" to="#808080" begin="arrowUp.mouseover" end="arrowUp.mouseout"/>
                  </use>
                  <path fill="none" stroke="white" stroke-width="1.5" d="M0,-3.0v7 M-2.5,-0.5L0,-3.0L2.5,-0.5"/>
                </g>
                <g id="arrowRight" xlink:href="#dirArrow" transform="rotate(90) translate(36 -43)" onmousedown="handlePan(1,0)">
                  <use xlink:href="#rim" fill="#404040">
                        <set attributeName="fill" to="#808080" begin="arrowRight.mouseover" end="arrowRight.mouseout"/>
                  </use>
                  <path fill="none" stroke="white" stroke-width="1.5" d="M0,-3.0v7 M-2.5,-0.5L0,-3.0L2.5,-0.5"/>
                </g>
                <g id="arrowDown" xlink:href="#dirArrow" transform="rotate(180) translate(-30 -48)" onmousedown="handlePan(0,1)">
                  <use xlink:href="#rim" fill="#404040">
                        <set attributeName="fill" to="#808080" begin="arrowDown.mouseover" end="arrowDown.mouseout"/>
                  </use>
                  <path fill="none" stroke="white" stroke-width="1.5" d="M0,-3.0v7 M-2.5,-0.5L0,-3.0L2.5,-0.5"/>
                </g>
                <g id="arrowLeft" xlink:href="#dirArrow" transform="rotate(270) translate(-36 17)" onmousedown="handlePan(-1,0)">
                  <use xlink:href="#rim" fill="#404040">
                        <set attributeName="fill" to="#808080" begin="arrowLeft.mouseover" end="arrowLeft.mouseout"/>
                  </use>
                  <path fill="none" stroke="white" stroke-width="1.5" d="M0,-3.0v7 M-2.5,-0.5L0,-3.0L2.5,-0.5"/>
                </g>
        </g>
        <svg viewBox="0 0 15 15" width="100%" height="30px" preserveAspectRatio="xMaxYMin meet">
         <g id="arrow_out" transform="scale(0.3 0.3)">
          <a xlink:href="fluidmechanics_8hpp__dep__incl_org.svg" target="_base">
           <rect id="button" ry="5" rx="5" y="6" x="6" height="38" width="38"
                fill="#f2f5e9" fill-opacity="0.5" stroke="#606060" stroke-width="1.0"/>
           <path id="arrow"
             d="M 11.500037,31.436501 C 11.940474,20.09759 22.043105,11.32322 32.158766,21.979434 L 37.068811,17.246167 C 37.068811,17.246167 37.088388,32 37.088388,32 L 22.160133,31.978069 C 22.160133,31.978069 26.997745,27.140456 26.997745,27.140456 C 18.528582,18.264221 13.291696,25.230495 11.500037,31.436501 z"
             style="fill:#404040;"/>
          </a>
         </g>
        </svg>
</svg>
