<?xml version="1.0" encoding="UTF-8" standalone="no"?>
<!DOCTYPE svg PUBLIC "-//W3C//DTD SVG 1.1//EN"
 "http://www.w3.org/Graphics/SVG/1.1/DTD/svg11.dtd">
<!-- Generated by graphviz version 2.43.0 (0)
 -->
<!-- Title: /nvme0/prudhomm/github&#45;actions/actions&#45;runner&#45;2/_work/feelpp/feelpp/toolboxes/feel/feelmodels/fluid/fluidmechanics.hpp Pages: 1 -->
<svg width="2314pt" height="239pt"
 viewBox="0.00 0.00 2313.50 239.00" xmlns="http://www.w3.org/2000/svg" xmlns:xlink="http://www.w3.org/1999/xlink">
<g id="graph0" class="graph" transform="scale(1 1) rotate(0) translate(4 235)">
<title>/nvme0/prudhomm/github&#45;actions/actions&#45;runner&#45;2/_work/feelpp/feelpp/toolboxes/feel/feelmodels/fluid/fluidmechanics.hpp</title>
<polygon fill="white" stroke="transparent" points="-4,4 -4,-235 2309.5,-235 2309.5,4 -4,4"/>
<!-- Node1 -->
<g id="node1" class="node">
<title>Node1</title>
<g id="a_node1"><a xlink:title=" ">
<polygon fill="#bfbfbf" stroke="black" points="1091.5,-178.5 1091.5,-230.5 1310.5,-230.5 1310.5,-178.5 1091.5,-178.5"/>
<text text-anchor="start" x="1099.5" y="-218.5" font-family="Helvetica,sans-Serif" font-size="10.00">/nvme0/prudhomm/github</text>
<text text-anchor="start" x="1099.5" y="-207.5" font-family="Helvetica,sans-Serif" font-size="10.00">&#45;actions/actions&#45;runner</text>
<text text-anchor="start" x="1099.5" y="-196.5" font-family="Helvetica,sans-Serif" font-size="10.00">&#45;2/_work/feelpp/feelpp/toolboxes</text>
<text text-anchor="middle" x="1201" y="-185.5" font-family="Helvetica,sans-Serif" font-size="10.00">/feel/feelmodels/fluid/fluidmechanics.hpp</text>
</a>
</g>
</g>
<!-- Node2 -->
<g id="node2" class="node">
<title>Node2</title>
<g id="a_node2"><a xlink:title=" ">
<polygon fill="white" stroke="#bfbfbf" points="35.5,-89.5 35.5,-141.5 342.5,-141.5 342.5,-89.5 35.5,-89.5"/>
<text text-anchor="start" x="43.5" y="-129.5" font-family="Helvetica,sans-Serif" font-size="10.00">/nvme0/prudhomm/github</text>
<text text-anchor="start" x="43.5" y="-118.5" font-family="Helvetica,sans-Serif" font-size="10.00">&#45;actions/actions&#45;runner</text>
<text text-anchor="start" x="43.5" y="-107.5" font-family="Helvetica,sans-Serif" font-size="10.00">&#45;2/_work/feelpp/feelpp/toolboxes</text>
<text text-anchor="middle" x="189" y="-96.5" font-family="Helvetica,sans-Serif" font-size="10.00">/feel/feelmodels/fluid/fluidmechanicsassemblyjacobian.cpp</text>
</a>
</g>
</g>
<!-- Node1&#45;&gt;Node2 -->
<g id="edge1" class="edge">
<title>Node1&#45;&gt;Node2</title>
<path fill="none" stroke="midnightblue" d="M1081.25,-197.44C918.39,-188.57 618.12,-170.02 363,-142 356.32,-141.27 349.51,-140.47 342.63,-139.63"/>
<polygon fill="midnightblue" stroke="midnightblue" points="1081.12,-200.94 1091.29,-197.98 1081.5,-193.95 1081.12,-200.94"/>
</g>
<!-- Node4 -->
<g id="node4" class="node">
<title>Node4</title>
<g id="a_node4"><a xlink:title=" ">
<polygon fill="white" stroke="#bfbfbf" points="372.5,-89.5 372.5,-141.5 665.5,-141.5 665.5,-89.5 372.5,-89.5"/>
<text text-anchor="start" x="380.5" y="-129.5" font-family="Helvetica,sans-Serif" font-size="10.00">/nvme0/prudhomm/github</text>
<text text-anchor="start" x="380.5" y="-118.5" font-family="Helvetica,sans-Serif" font-size="10.00">&#45;actions/actions&#45;runner</text>
<text text-anchor="start" x="380.5" y="-107.5" font-family="Helvetica,sans-Serif" font-size="10.00">&#45;2/_work/feelpp/feelpp/toolboxes</text>
<text text-anchor="middle" x="519" y="-96.5" font-family="Helvetica,sans-Serif" font-size="10.00">/feel/feelmodels/fluid/fluidmechanicsassemblylinear.cpp</text>
</a>
</g>
</g>
<!-- Node1&#45;&gt;Node4 -->
<g id="edge3" class="edge">
<title>Node1&#45;&gt;Node4</title>
<path fill="none" stroke="midnightblue" d="M1081,-189.51C979.04,-177.45 828.83,-159.32 698,-142 687.58,-140.62 676.81,-139.17 665.98,-137.68"/>
<polygon fill="midnightblue" stroke="midnightblue" points="1080.68,-192.99 1091.02,-190.69 1081.5,-186.04 1080.68,-192.99"/>
</g>
<!-- Node6 -->
<g id="node6" class="node">
<title>Node6</title>
<g id="a_node6"><a xlink:title=" ">
<polygon fill="white" stroke="#bfbfbf" points="707.5,-89.5 707.5,-141.5 1012.5,-141.5 1012.5,-89.5 707.5,-89.5"/>
<text text-anchor="start" x="715.5" y="-129.5" font-family="Helvetica,sans-Serif" font-size="10.00">/nvme0/prudhomm/github</text>
<text text-anchor="start" x="715.5" y="-118.5" font-family="Helvetica,sans-Serif" font-size="10.00">&#45;actions/actions&#45;runner</text>
<text text-anchor="start" x="715.5" y="-107.5" font-family="Helvetica,sans-Serif" font-size="10.00">&#45;2/_work/feelpp/feelpp/toolboxes</text>
<text text-anchor="middle" x="860" y="-96.5" font-family="Helvetica,sans-Serif" font-size="10.00">/feel/feelmodels/fluid/fluidmechanicsassemblyresidual.cpp</text>
</a>
</g>
</g>
<!-- Node1&#45;&gt;Node6 -->
<g id="edge5" class="edge">
<title>Node1&#45;&gt;Node6</title>
<path fill="none" stroke="midnightblue" d="M1093.12,-175.98C1049.84,-164.93 1000.31,-152.3 958.07,-141.52"/>
<polygon fill="midnightblue" stroke="midnightblue" points="1092.27,-179.37 1102.83,-178.45 1094,-172.59 1092.27,-179.37"/>
</g>
<!-- Node8 -->
<g id="node8" class="node">
<title>Node8</title>
<g id="a_node8"><a xlink:title=" ">
<polygon fill="white" stroke="#bfbfbf" points="1042.5,-89.5 1042.5,-141.5 1359.5,-141.5 1359.5,-89.5 1042.5,-89.5"/>
<text text-anchor="start" x="1050.5" y="-129.5" font-family="Helvetica,sans-Serif" font-size="10.00">/nvme0/prudhomm/github</text>
<text text-anchor="start" x="1050.5" y="-118.5" font-family="Helvetica,sans-Serif" font-size="10.00">&#45;actions/actions&#45;runner</text>
<text text-anchor="start" x="1050.5" y="-107.5" font-family="Helvetica,sans-Serif" font-size="10.00">&#45;2/_work/feelpp/feelpp/toolboxes</text>
<text text-anchor="middle" x="1201" y="-96.5" font-family="Helvetica,sans-Serif" font-size="10.00">/feel/feelmodels/fluid/fluidmechanicsassemblyturbulence.cpp</text>
</a>
</g>
</g>
<!-- Node1&#45;&gt;Node8 -->
<g id="edge7" class="edge">
<title>Node1&#45;&gt;Node8</title>
<path fill="none" stroke="midnightblue" d="M1201,-168.19C1201,-159.28 1201,-149.9 1201,-141.61"/>
<polygon fill="midnightblue" stroke="midnightblue" points="1197.5,-168.34 1201,-178.34 1204.5,-168.34 1197.5,-168.34"/>
</g>
<!-- Node10 -->
<g id="node10" class="node">
<title>Node10</title>
<g id="a_node10"><a xlink:title=" ">
<polygon fill="white" stroke="#bfbfbf" points="1389.5,-89.5 1389.5,-141.5 1638.5,-141.5 1638.5,-89.5 1389.5,-89.5"/>
<text text-anchor="start" x="1397.5" y="-129.5" font-family="Helvetica,sans-Serif" font-size="10.00">/nvme0/prudhomm/github</text>
<text text-anchor="start" x="1397.5" y="-118.5" font-family="Helvetica,sans-Serif" font-size="10.00">&#45;actions/actions&#45;runner</text>
<text text-anchor="start" x="1397.5" y="-107.5" font-family="Helvetica,sans-Serif" font-size="10.00">&#45;2/_work/feelpp/feelpp/toolboxes</text>
<text text-anchor="middle" x="1514" y="-96.5" font-family="Helvetica,sans-Serif" font-size="10.00">/feel/feelmodels/fluid/fluidmechanicscreate.cpp</text>
</a>
</g>
</g>
<!-- Node1&#45;&gt;Node10 -->
<g id="edge9" class="edge">
<title>Node1&#45;&gt;Node10</title>
<path fill="none" stroke="midnightblue" d="M1300.77,-175.77C1340.32,-164.78 1385.45,-152.23 1423.98,-141.52"/>
<polygon fill="midnightblue" stroke="midnightblue" points="1299.81,-172.4 1291.11,-178.45 1301.68,-179.15 1299.81,-172.4"/>
</g>
<!-- Node12 -->
<g id="node12" class="node">
<title>Node12</title>
<g id="a_node12"><a xlink:title=" ">
<polygon fill="white" stroke="#bfbfbf" points="1673.5,-89.5 1673.5,-141.5 1922.5,-141.5 1922.5,-89.5 1673.5,-89.5"/>
<text text-anchor="start" x="1681.5" y="-129.5" font-family="Helvetica,sans-Serif" font-size="10.00">/nvme0/prudhomm/github</text>
<text text-anchor="start" x="1681.5" y="-118.5" font-family="Helvetica,sans-Serif" font-size="10.00">&#45;actions/actions&#45;runner</text>
<text text-anchor="start" x="1681.5" y="-107.5" font-family="Helvetica,sans-Serif" font-size="10.00">&#45;2/_work/feelpp/feelpp/toolboxes</text>
<text text-anchor="middle" x="1798" y="-96.5" font-family="Helvetica,sans-Serif" font-size="10.00">/feel/feelmodels/fluid/fluidmechanicsothers.cpp</text>
</a>
</g>
</g>
<!-- Node1&#45;&gt;Node12 -->
<g id="edge11" class="edge">
<title>Node1&#45;&gt;Node12</title>
<path fill="none" stroke="midnightblue" d="M1320.6,-188.01C1410.49,-176.12 1536.6,-158.93 1647,-142 1655.54,-140.69 1664.35,-139.3 1673.21,-137.88"/>
<polygon fill="midnightblue" stroke="midnightblue" points="1320.11,-184.54 1310.65,-189.32 1321.02,-191.48 1320.11,-184.54"/>
</g>
<!-- Node14 -->
<g id="node14" class="node">
<title>Node14</title>
<g id="a_node14"><a xlink:title=" ">
<polygon fill="white" stroke="#bfbfbf" points="1961,-89.5 1961,-141.5 2273,-141.5 2273,-89.5 1961,-89.5"/>
<text text-anchor="start" x="1969" y="-129.5" font-family="Helvetica,sans-Serif" font-size="10.00">/nvme0/prudhomm/github</text>
<text text-anchor="start" x="1969" y="-118.5" font-family="Helvetica,sans-Serif" font-size="10.00">&#45;actions/actions&#45;runner</text>
<text text-anchor="start" x="1969" y="-107.5" font-family="Helvetica,sans-Serif" font-size="10.00">&#45;2/_work/feelpp/feelpp/toolboxes</text>
<text text-anchor="middle" x="2117" y="-96.5" font-family="Helvetica,sans-Serif" font-size="10.00">/feel/feelmodels/fluid/fluidmechanicsupdatestabilisation.cpp</text>
</a>
</g>
</g>
<!-- Node1&#45;&gt;Node14 -->
<g id="edge13" class="edge">
<title>Node1&#45;&gt;Node14</title>
<path fill="none" stroke="midnightblue" d="M1320.86,-195.33C1465.65,-185.02 1716.5,-165.72 1931,-142 1940.72,-140.93 1950.71,-139.75 1960.79,-138.52"/>
<polygon fill="midnightblue" stroke="midnightblue" points="1320.35,-191.86 1310.62,-196.06 1320.85,-198.84 1320.35,-191.86"/>
</g>
<!-- Node3 -->
<g id="node3" class="node">
<title>Node3</title>
<g id="a_node3"><a xlink:title=" ">
<polygon fill="white" stroke="#bfbfbf" points="0,-0.5 0,-52.5 330,-52.5 330,-0.5 0,-0.5"/>
<text text-anchor="start" x="8" y="-40.5" font-family="Helvetica,sans-Serif" font-size="10.00">/nvme0/prudhomm/github</text>
<text text-anchor="start" x="8" y="-29.5" font-family="Helvetica,sans-Serif" font-size="10.00">&#45;actions/actions&#45;runner</text>
<text text-anchor="start" x="8" y="-18.5" font-family="Helvetica,sans-Serif" font-size="10.00">&#45;2/_work/feelpp/feelpp/toolboxes</text>
<text text-anchor="middle" x="165" y="-7.5" font-family="Helvetica,sans-Serif" font-size="10.00">/feel/feelmodels/fluid/fluidmechanicsassemblyjacobian_inst.cpp</text>
</a>
</g>
</g>
<!-- Node2&#45;&gt;Node3 -->
<g id="edge2" class="edge">
<title>Node2&#45;&gt;Node3</title>
<path fill="none" stroke="midnightblue" d="M179.34,-79.48C176.86,-70.49 174.24,-60.99 171.93,-52.61"/>
<polygon fill="midnightblue" stroke="midnightblue" points="176.02,-80.63 182.06,-89.34 182.77,-78.77 176.02,-80.63"/>
</g>
<!-- Node5 -->
<g id="node5" class="node">
<title>Node5</title>
<g id="a_node5"><a xlink:title=" ">
<polygon fill="white" stroke="#bfbfbf" points="348.5,-0.5 348.5,-52.5 665.5,-52.5 665.5,-0.5 348.5,-0.5"/>
<text text-anchor="start" x="356.5" y="-40.5" font-family="Helvetica,sans-Serif" font-size="10.00">/nvme0/prudhomm/github</text>
<text text-anchor="start" x="356.5" y="-29.5" font-family="Helvetica,sans-Serif" font-size="10.00">&#45;actions/actions&#45;runner</text>
<text text-anchor="start" x="356.5" y="-18.5" font-family="Helvetica,sans-Serif" font-size="10.00">&#45;2/_work/feelpp/feelpp/toolboxes</text>
<text text-anchor="middle" x="507" y="-7.5" font-family="Helvetica,sans-Serif" font-size="10.00">/feel/feelmodels/fluid/fluidmechanicsassemblylinear_inst.cpp</text>
</a>
</g>
</g>
<!-- Node4&#45;&gt;Node5 -->
<g id="edge4" class="edge">
<title>Node4&#45;&gt;Node5</title>
<path fill="none" stroke="midnightblue" d="M514.13,-79.19C512.9,-70.28 511.61,-60.9 510.46,-52.61"/>
<polygon fill="midnightblue" stroke="midnightblue" points="510.7,-79.91 515.53,-89.34 517.63,-78.95 510.7,-79.91"/>
</g>
<!-- Node7 -->
<g id="node7" class="node">
<title>Node7</title>
<g id="a_node7"><a xlink:title=" ">
<polygon fill="white" stroke="#bfbfbf" points="684,-0.5 684,-52.5 1012,-52.5 1012,-0.5 684,-0.5"/>
<text text-anchor="start" x="692" y="-40.5" font-family="Helvetica,sans-Serif" font-size="10.00">/nvme0/prudhomm/github</text>
<text text-anchor="start" x="692" y="-29.5" font-family="Helvetica,sans-Serif" font-size="10.00">&#45;actions/actions&#45;runner</text>
<text text-anchor="start" x="692" y="-18.5" font-family="Helvetica,sans-Serif" font-size="10.00">&#45;2/_work/feelpp/feelpp/toolboxes</text>
<text text-anchor="middle" x="848" y="-7.5" font-family="Helvetica,sans-Serif" font-size="10.00">/feel/feelmodels/fluid/fluidmechanicsassemblyresidual_inst.cpp</text>
</a>
</g>
</g>
<!-- Node6&#45;&gt;Node7 -->
<g id="edge6" class="edge">
<title>Node6&#45;&gt;Node7</title>
<path fill="none" stroke="midnightblue" d="M855.13,-79.19C853.9,-70.28 852.61,-60.9 851.46,-52.61"/>
<polygon fill="midnightblue" stroke="midnightblue" points="851.7,-79.91 856.53,-89.34 858.63,-78.95 851.7,-79.91"/>
</g>
<!-- Node9 -->
<g id="node9" class="node">
<title>Node9</title>
<g id="a_node9"><a xlink:title=" ">
<polygon fill="white" stroke="#bfbfbf" points="1030.5,-0.5 1030.5,-52.5 1371.5,-52.5 1371.5,-0.5 1030.5,-0.5"/>
<text text-anchor="start" x="1038.5" y="-40.5" font-family="Helvetica,sans-Serif" font-size="10.00">/nvme0/prudhomm/github</text>
<text text-anchor="start" x="1038.5" y="-29.5" font-family="Helvetica,sans-Serif" font-size="10.00">&#45;actions/actions&#45;runner</text>
<text text-anchor="start" x="1038.5" y="-18.5" font-family="Helvetica,sans-Serif" font-size="10.00">&#45;2/_work/feelpp/feelpp/toolboxes</text>
<text text-anchor="middle" x="1201" y="-7.5" font-family="Helvetica,sans-Serif" font-size="10.00">/feel/feelmodels/fluid/fluidmechanicsassemblyturbulence_inst.cpp</text>
</a>
</g>
</g>
<!-- Node8&#45;&gt;Node9 -->
<g id="edge8" class="edge">
<title>Node8&#45;&gt;Node9</title>
<path fill="none" stroke="midnightblue" d="M1201,-79.19C1201,-70.28 1201,-60.9 1201,-52.61"/>
<polygon fill="midnightblue" stroke="midnightblue" points="1197.5,-79.34 1201,-89.34 1204.5,-79.34 1197.5,-79.34"/>
</g>
<!-- Node11 -->
<g id="node11" class="node">
<title>Node11</title>
<g id="a_node11"><a xlink:title=" ">
<polygon fill="white" stroke="#bfbfbf" points="1390,-0.5 1390,-52.5 1662,-52.5 1662,-0.5 1390,-0.5"/>
<text text-anchor="start" x="1398" y="-40.5" font-family="Helvetica,sans-Serif" font-size="10.00">/nvme0/prudhomm/github</text>
<text text-anchor="start" x="1398" y="-29.5" font-family="Helvetica,sans-Serif" font-size="10.00">&#45;actions/actions&#45;runner</text>
<text text-anchor="start" x="1398" y="-18.5" font-family="Helvetica,sans-Serif" font-size="10.00">&#45;2/_work/feelpp/feelpp/toolboxes</text>
<text text-anchor="middle" x="1526" y="-7.5" font-family="Helvetica,sans-Serif" font-size="10.00">/feel/feelmodels/fluid/fluidmechanicscreate_inst.cpp</text>
</a>
</g>
</g>
<!-- Node10&#45;&gt;Node11 -->
<g id="edge10" class="edge">
<title>Node10&#45;&gt;Node11</title>
<path fill="none" stroke="midnightblue" d="M1518.87,-79.19C1520.1,-70.28 1521.39,-60.9 1522.54,-52.61"/>
<polygon fill="midnightblue" stroke="midnightblue" points="1515.37,-78.95 1517.47,-89.34 1522.3,-79.91 1515.37,-78.95"/>
</g>
<!-- Node13 -->
<g id="node13" class="node">
<title>Node13</title>
<g id="a_node13"><a xlink:title=" ">
<polygon fill="white" stroke="#bfbfbf" points="1680,-0.5 1680,-52.5 1952,-52.5 1952,-0.5 1680,-0.5"/>
<text text-anchor="start" x="1688" y="-40.5" font-family="Helvetica,sans-Serif" font-size="10.00">/nvme0/prudhomm/github</text>
<text text-anchor="start" x="1688" y="-29.5" font-family="Helvetica,sans-Serif" font-size="10.00">&#45;actions/actions&#45;runner</text>
<text text-anchor="start" x="1688" y="-18.5" font-family="Helvetica,sans-Serif" font-size="10.00">&#45;2/_work/feelpp/feelpp/toolboxes</text>
<text text-anchor="middle" x="1816" y="-7.5" font-family="Helvetica,sans-Serif" font-size="10.00">/feel/feelmodels/fluid/fluidmechanicsothers_inst.cpp</text>
</a>
</g>
</g>
<!-- Node12&#45;&gt;Node13 -->
<g id="edge12" class="edge">
<title>Node12&#45;&gt;Node13</title>
<path fill="none" stroke="midnightblue" d="M1805.25,-79.48C1807.11,-70.49 1809.07,-60.99 1810.81,-52.61"/>
<polygon fill="midnightblue" stroke="midnightblue" points="1801.81,-78.83 1803.21,-89.34 1808.66,-80.25 1801.81,-78.83"/>
</g>
<!-- Node15 -->
<g id="node15" class="node">
<title>Node15</title>
<g id="a_node15"><a xlink:title=" ">
<polygon fill="white" stroke="#bfbfbf" points="1970.5,-0.5 1970.5,-52.5 2305.5,-52.5 2305.5,-0.5 1970.5,-0.5"/>
<text text-anchor="start" x="1978.5" y="-40.5" font-family="Helvetica,sans-Serif" font-size="10.00">/nvme0/prudhomm/github</text>
<text text-anchor="start" x="1978.5" y="-29.5" font-family="Helvetica,sans-Serif" font-size="10.00">&#45;actions/actions&#45;runner</text>
<text text-anchor="start" x="1978.5" y="-18.5" font-family="Helvetica,sans-Serif" font-size="10.00">&#45;2/_work/feelpp/feelpp/toolboxes</text>
<text text-anchor="middle" x="2138" y="-7.5" font-family="Helvetica,sans-Serif" font-size="10.00">/feel/feelmodels/fluid/fluidmechanicsupdatestabilisation_inst.cpp</text>
</a>
</g>
</g>
<!-- Node14&#45;&gt;Node15 -->
<g id="edge14" class="edge">
<title>Node14&#45;&gt;Node15</title>
<path fill="none" stroke="midnightblue" d="M2125.45,-79.48C2127.62,-70.49 2129.92,-60.99 2131.94,-52.61"/>
<polygon fill="midnightblue" stroke="midnightblue" points="2122.02,-78.79 2123.07,-89.34 2128.82,-80.44 2122.02,-78.79"/>
</g>
</g>
</svg>
