<?xml version="1.0" encoding="UTF-8" standalone="no"?>
<!DOCTYPE svg PUBLIC "-//W3C//DTD SVG 1.1//EN"
 "http://www.w3.org/Graphics/SVG/1.1/DTD/svg11.dtd">
<!-- Generated by graphviz version 2.43.0 (0)
 -->
<!-- Title: /nvme0/prudhomm/actions&#45;runner/_work/feelpp/feelpp/feelpp/feel/feelvf/geometricdata.hpp Pages: 1 -->
<svg width="207pt" height="239pt"
 viewBox="0.00 0.00 207.00 239.00" xmlns="http://www.w3.org/2000/svg" xmlns:xlink="http://www.w3.org/1999/xlink">
<g id="graph0" class="graph" transform="scale(1 1) rotate(0) translate(4 235)">
<title>/nvme0/prudhomm/actions&#45;runner/_work/feelpp/feelpp/feelpp/feel/feelvf/geometricdata.hpp</title>
<polygon fill="white" stroke="transparent" points="-4,4 -4,-235 203,-235 203,4 -4,4"/>
<!-- Node1 -->
<g id="node1" class="node">
<title>Node1</title>
<g id="a_node1"><a xlink:title=" ">
<polygon fill="#bfbfbf" stroke="black" points="0,-189.5 0,-230.5 199,-230.5 199,-189.5 0,-189.5"/>
<text text-anchor="start" x="8" y="-218.5" font-family="Helvetica,sans-Serif" font-size="10.00">/nvme0/prudhomm/actions</text>
<text text-anchor="start" x="8" y="-207.5" font-family="Helvetica,sans-Serif" font-size="10.00">&#45;runner/_work/feelpp/feelpp</text>
<text text-anchor="middle" x="99.5" y="-196.5" font-family="Helvetica,sans-Serif" font-size="10.00">/feelpp/feel/feelvf/geometricdata.hpp</text>
</a>
</g>
</g>
<!-- Node2 -->
<g id="node2" class="node">
<title>Node2</title>
<g id="a_node2"><a xlink:title=" ">
<polygon fill="white" stroke="#bfbfbf" points="14.5,-100.5 14.5,-152.5 184.5,-152.5 184.5,-100.5 14.5,-100.5"/>
<text text-anchor="start" x="22.5" y="-140.5" font-family="Helvetica,sans-Serif" font-size="10.00">/nvme0/prudhomm/actions</text>
<text text-anchor="start" x="22.5" y="-129.5" font-family="Helvetica,sans-Serif" font-size="10.00">&#45;runner/_work/feelpp/feelpp</text>
<text text-anchor="start" x="22.5" y="-118.5" font-family="Helvetica,sans-Serif" font-size="10.00">/toolboxes/feel/feelmodels</text>
<text text-anchor="middle" x="99.5" y="-107.5" font-family="Helvetica,sans-Serif" font-size="10.00">/fluid/fluidmechanicsothers.cpp</text>
</a>
</g>
</g>
<!-- Node1&#45;&gt;Node2 -->
<g id="edge1" class="edge">
<title>Node1&#45;&gt;Node2</title>
<path fill="none" stroke="midnightblue" d="M99.5,-179.12C99.5,-170.41 99.5,-160.99 99.5,-152.61"/>
<polygon fill="midnightblue" stroke="midnightblue" points="96,-179.27 99.5,-189.27 103,-179.27 96,-179.27"/>
</g>
<!-- Node3 -->
<g id="node3" class="node">
<title>Node3</title>
<g id="a_node3"><a xlink:title=" ">
<polygon fill="white" stroke="#bfbfbf" points="23.5,-0.5 23.5,-63.5 175.5,-63.5 175.5,-0.5 23.5,-0.5"/>
<text text-anchor="start" x="31.5" y="-51.5" font-family="Helvetica,sans-Serif" font-size="10.00">/nvme0/prudhomm/actions</text>
<text text-anchor="start" x="31.5" y="-40.5" font-family="Helvetica,sans-Serif" font-size="10.00">&#45;runner/_work/feelpp/feelpp</text>
<text text-anchor="start" x="31.5" y="-29.5" font-family="Helvetica,sans-Serif" font-size="10.00">/toolboxes/feel/feelmodels</text>
<text text-anchor="start" x="31.5" y="-18.5" font-family="Helvetica,sans-Serif" font-size="10.00">/fluid/fluidmechanicsothers</text>
<text text-anchor="middle" x="99.5" y="-7.5" font-family="Helvetica,sans-Serif" font-size="10.00">_inst.cpp</text>
</a>
</g>
</g>
<!-- Node2&#45;&gt;Node3 -->
<g id="edge2" class="edge">
<title>Node2&#45;&gt;Node3</title>
<path fill="none" stroke="midnightblue" d="M99.5,-89.94C99.5,-81.23 99.5,-71.97 99.5,-63.51"/>
<polygon fill="midnightblue" stroke="midnightblue" points="96,-90.22 99.5,-100.22 103,-90.22 96,-90.22"/>
</g>
</g>
</svg>
