<?xml version="1.0" encoding="UTF-8" standalone="no"?>
<!DOCTYPE svg PUBLIC "-//W3C//DTD SVG 1.1//EN"
 "http://www.w3.org/Graphics/SVG/1.1/DTD/svg11.dtd">
<!-- Generated by graphviz version 2.43.0 (0)
 -->
<!-- Title: /home/runner/work/feelpp/feelpp/feelpp/feel/feelvf/ginac.cpp Pages: 1 -->
<svg width="641pt" height="117pt"
 viewBox="0.00 0.00 640.50 117.00" xmlns="http://www.w3.org/2000/svg" xmlns:xlink="http://www.w3.org/1999/xlink">
<g id="graph0" class="graph" transform="scale(1 1) rotate(0) translate(4 113)">
<title>/home/runner/work/feelpp/feelpp/feelpp/feel/feelvf/ginac.cpp</title>
<polygon fill="white" stroke="transparent" points="-4,4 -4,-113 636.5,-113 636.5,4 -4,4"/>
<!-- Node1 -->
<g id="node1" class="node">
<title>Node1</title>
<g id="a_node1"><a xlink:title=" ">
<polygon fill="#bfbfbf" stroke="black" points="313,-67.5 313,-108.5 456,-108.5 456,-67.5 313,-67.5"/>
<text text-anchor="start" x="321" y="-96.5" font-family="Helvetica,sans-Serif" font-size="10.00">/home/runner/work/feelpp</text>
<text text-anchor="start" x="321" y="-85.5" font-family="Helvetica,sans-Serif" font-size="10.00">/feelpp/feelpp/feel/feelvf</text>
<text text-anchor="middle" x="384.5" y="-74.5" font-family="Helvetica,sans-Serif" font-size="10.00">/ginac.cpp</text>
</a>
</g>
</g>
<!-- Node2 -->
<g id="node2" class="node">
<title>Node2</title>
<g id="a_node2"><a xlink:title=" ">
<polygon fill="white" stroke="#bfbfbf" points="0,-0.5 0,-30.5 125,-30.5 125,-0.5 0,-0.5"/>
<text text-anchor="start" x="8" y="-18.5" font-family="Helvetica,sans-Serif" font-size="10.00">boost/algorithm/string</text>
<text text-anchor="middle" x="62.5" y="-7.5" font-family="Helvetica,sans-Serif" font-size="10.00">/predicate.hpp</text>
</a>
</g>
</g>
<!-- Node1&#45;&gt;Node2 -->
<g id="edge1" class="edge">
<title>Node1&#45;&gt;Node2</title>
<path fill="none" stroke="midnightblue" d="M312.64,-71.27C259.79,-59.7 188.23,-44.03 135.19,-32.41"/>
<polygon fill="midnightblue" stroke="midnightblue" points="135.69,-28.94 125.17,-30.22 134.19,-35.78 135.69,-28.94"/>
</g>
<!-- Node3 -->
<g id="node3" class="node">
<title>Node3</title>
<g id="a_node3"><a xlink:href="environment_8hpp.html" target="_top" xlink:title="&#45;*&#45; mode: c++; coding: utf&#45;8; tab&#45;width: 4; indent&#45;tabs&#45;mode: nil; c&#45;basic&#45;offset: 4; show&#45;trailing&#45;w...">
<polygon fill="white" stroke="black" points="143.5,-6 143.5,-25 307.5,-25 307.5,-6 143.5,-6"/>
<text text-anchor="middle" x="225.5" y="-13" font-family="Helvetica,sans-Serif" font-size="10.00">feel/feelcore/environment.hpp</text>
</a>
</g>
</g>
<!-- Node1&#45;&gt;Node3 -->
<g id="edge2" class="edge">
<title>Node1&#45;&gt;Node3</title>
<path fill="none" stroke="midnightblue" d="M340.21,-67.36C312.75,-55.19 278.27,-39.9 254.32,-29.28"/>
<polygon fill="midnightblue" stroke="midnightblue" points="255.62,-26.03 245.06,-25.17 252.78,-32.43 255.62,-26.03"/>
</g>
<!-- Node4 -->
<g id="node4" class="node">
<title>Node4</title>
<g id="a_node4"><a xlink:href="ginac_8hpp.html" target="_top" xlink:title=" ">
<polygon fill="white" stroke="black" points="326,-6 326,-25 443,-25 443,-6 326,-6"/>
<text text-anchor="middle" x="384.5" y="-13" font-family="Helvetica,sans-Serif" font-size="10.00">feel/feelvf/ginac.hpp</text>
</a>
</g>
</g>
<!-- Node1&#45;&gt;Node4 -->
<g id="edge3" class="edge">
<title>Node1&#45;&gt;Node4</title>
<path fill="none" stroke="midnightblue" d="M384.5,-67.36C384.5,-57.3 384.5,-45.1 384.5,-35.18"/>
<polygon fill="midnightblue" stroke="midnightblue" points="388,-35.17 384.5,-25.17 381,-35.17 388,-35.17"/>
</g>
<!-- Node5 -->
<g id="node5" class="node">
<title>Node5</title>
<g id="a_node5"><a xlink:title=" ">
<polygon fill="white" stroke="#bfbfbf" points="461,-6 461,-25 528,-25 528,-6 461,-6"/>
<text text-anchor="middle" x="494.5" y="-13" font-family="Helvetica,sans-Serif" font-size="10.00">fmt/core.h</text>
</a>
</g>
</g>
<!-- Node1&#45;&gt;Node5 -->
<g id="edge4" class="edge">
<title>Node1&#45;&gt;Node5</title>
<path fill="none" stroke="midnightblue" d="M415.14,-67.36C433.38,-55.67 456.09,-41.12 472.54,-30.57"/>
<polygon fill="midnightblue" stroke="midnightblue" points="474.44,-33.52 480.97,-25.17 470.66,-27.62 474.44,-33.52"/>
</g>
<!-- Node6 -->
<g id="node6" class="node">
<title>Node6</title>
<g id="a_node6"><a xlink:title=" ">
<polygon fill="white" stroke="#bfbfbf" points="546.5,-6 546.5,-25 632.5,-25 632.5,-6 546.5,-6"/>
<text text-anchor="middle" x="589.5" y="-13" font-family="Helvetica,sans-Serif" font-size="10.00">fmt/ostream.h</text>
</a>
</g>
</g>
<!-- Node1&#45;&gt;Node6 -->
<g id="edge5" class="edge">
<title>Node1&#45;&gt;Node6</title>
<path fill="none" stroke="midnightblue" d="M441.33,-67.46C477.9,-54.88 524.21,-38.95 555.24,-28.28"/>
<polygon fill="midnightblue" stroke="midnightblue" points="556.43,-31.57 564.75,-25.01 554.15,-24.96 556.43,-31.57"/>
</g>
</g>
</svg>
