<?xml version="1.0" encoding="UTF-8" standalone="no"?>
<!DOCTYPE svg PUBLIC "-//W3C//DTD SVG 1.1//EN"
 "http://www.w3.org/Graphics/SVG/1.1/DTD/svg11.dtd">
<!-- Generated by graphviz version 2.43.0 (0)
 -->
<!-- Title: /data/cemosis/github&#45;actions&#45;runner/actions&#45;runner&#45;feelpp&#45;1/_work/feelpp/feelpp/feelpp/feel/feelvf/ginac.hpp Pages: 1 -->
<svg width="296pt" height="172pt"
 viewBox="0.00 0.00 295.50 172.00" xmlns="http://www.w3.org/2000/svg" xmlns:xlink="http://www.w3.org/1999/xlink">
<g id="graph0" class="graph" transform="scale(1 1) rotate(0) translate(4 168)">
<title>/data/cemosis/github&#45;actions&#45;runner/actions&#45;runner&#45;feelpp&#45;1/_work/feelpp/feelpp/feelpp/feel/feelvf/ginac.hpp</title>
<polygon fill="white" stroke="transparent" points="-4,4 -4,-168 291.5,-168 291.5,4 -4,4"/>
<!-- Node1 -->
<g id="node1" class="node">
<title>Node1</title>
<g id="a_node1"><a xlink:title=" ">
<polygon fill="#bfbfbf" stroke="black" points="76,-100.5 76,-163.5 199,-163.5 199,-100.5 76,-100.5"/>
<text text-anchor="start" x="84" y="-151.5" font-family="Helvetica,sans-Serif" font-size="10.00">/data/cemosis/github</text>
<text text-anchor="start" x="84" y="-140.5" font-family="Helvetica,sans-Serif" font-size="10.00">&#45;actions&#45;runner/actions</text>
<text text-anchor="start" x="84" y="-129.5" font-family="Helvetica,sans-Serif" font-size="10.00">&#45;runner&#45;feelpp&#45;1/_work</text>
<text text-anchor="start" x="84" y="-118.5" font-family="Helvetica,sans-Serif" font-size="10.00">/feelpp/feelpp/feelpp/feel</text>
<text text-anchor="middle" x="137.5" y="-107.5" font-family="Helvetica,sans-Serif" font-size="10.00">/feelvf/ginac.hpp</text>
</a>
</g>
</g>
<!-- Node2 -->
<g id="node2" class="node">
<title>Node2</title>
<g id="a_node2"><a xlink:href="ginac_8cpp.html" target="_top" xlink:title=" ">
<polygon fill="white" stroke="black" points="0,-0.5 0,-63.5 123,-63.5 123,-0.5 0,-0.5"/>
<text text-anchor="start" x="8" y="-51.5" font-family="Helvetica,sans-Serif" font-size="10.00">/data/cemosis/github</text>
<text text-anchor="start" x="8" y="-40.5" font-family="Helvetica,sans-Serif" font-size="10.00">&#45;actions&#45;runner/actions</text>
<text text-anchor="start" x="8" y="-29.5" font-family="Helvetica,sans-Serif" font-size="10.00">&#45;runner&#45;feelpp&#45;1/_work</text>
<text text-anchor="start" x="8" y="-18.5" font-family="Helvetica,sans-Serif" font-size="10.00">/feelpp/feelpp/feelpp/feel</text>
<text text-anchor="middle" x="61.5" y="-7.5" font-family="Helvetica,sans-Serif" font-size="10.00">/feelvf/ginac.cpp</text>
</a>
</g>
</g>
<!-- Node1&#45;&gt;Node2 -->
<g id="edge1" class="edge">
<title>Node1&#45;&gt;Node2</title>
<path fill="none" stroke="midnightblue" d="M107.34,-92.11C100,-82.65 92.25,-72.65 85.25,-63.63"/>
<polygon fill="midnightblue" stroke="midnightblue" points="104.77,-94.5 113.66,-100.26 110.3,-90.21 104.77,-94.5"/>
</g>
<!-- Node3 -->
<g id="node3" class="node">
<title>Node3</title>
<g id="a_node3"><a xlink:href="test__multithread_8cpp.html" target="_top" xlink:title=" ">
<polygon fill="white" stroke="black" points="141.5,-0.5 141.5,-63.5 287.5,-63.5 287.5,-0.5 141.5,-0.5"/>
<text text-anchor="start" x="149.5" y="-51.5" font-family="Helvetica,sans-Serif" font-size="10.00">/data/cemosis/github</text>
<text text-anchor="start" x="149.5" y="-40.5" font-family="Helvetica,sans-Serif" font-size="10.00">&#45;actions&#45;runner/actions</text>
<text text-anchor="start" x="149.5" y="-29.5" font-family="Helvetica,sans-Serif" font-size="10.00">&#45;runner&#45;feelpp&#45;1/_work</text>
<text text-anchor="start" x="149.5" y="-18.5" font-family="Helvetica,sans-Serif" font-size="10.00">/feelpp/feelpp/testsuite</text>
<text text-anchor="middle" x="214.5" y="-7.5" font-family="Helvetica,sans-Serif" font-size="10.00">/feelcore/test_multithread.cpp</text>
</a>
</g>
</g>
<!-- Node1&#45;&gt;Node3 -->
<g id="edge2" class="edge">
<title>Node1&#45;&gt;Node3</title>
<path fill="none" stroke="midnightblue" d="M168.05,-92.11C175.49,-82.65 183.34,-72.65 190.43,-63.63"/>
<polygon fill="midnightblue" stroke="midnightblue" points="165.08,-90.24 161.65,-100.26 170.58,-94.56 165.08,-90.24"/>
</g>
</g>
</svg>
