<?xml version="1.0" encoding="UTF-8" standalone="no"?>
<!DOCTYPE svg PUBLIC "-//W3C//DTD SVG 1.1//EN"
 "http://www.w3.org/Graphics/SVG/1.1/DTD/svg11.dtd">
<!-- Generated by graphviz version 2.43.0 (0)
 -->
<!-- Title: Feelpp Pages: 1 -->
<svg width="252pt" height="286pt"
 viewBox="0.00 0.00 252.00 286.00" xmlns="http://www.w3.org/2000/svg" xmlns:xlink="http://www.w3.org/1999/xlink">
<g id="graph0" class="graph" transform="scale(1 1) rotate(0) translate(4 282)">
<title>Feelpp</title>
<polygon fill="white" stroke="transparent" points="-4,4 -4,-282 248,-282 248,4 -4,4"/>
<!-- Node2 -->
<g id="node1" class="node">
<title>Node2</title>
<g id="a_node1"><a xlink:href="group__Core.html" target="_top" xlink:title="Core classes provided by the library.">
<polygon fill="white" stroke="black" points="184,-278 145,-278 145,-259 184,-259 184,-278"/>
<text text-anchor="middle" x="164.5" y="-266" font-family="Helvetica,sans-Serif" font-size="10.00">Core</text>
</a>
</g>
</g>
<!-- Node6 -->
<g id="node2" class="node">
<title>Node6</title>
<g id="a_node2"><a xlink:href="group__DSEL-Variational-Formulation.html" target="_top" xlink:title="Variational forms provided by the library.">
<polygon fill="white" stroke="black" points="244,-241 85,-241 85,-222 244,-222 244,-241"/>
<text text-anchor="middle" x="164.5" y="-229" font-family="Helvetica,sans-Serif" font-size="10.00">DSEL&#45;Variational&#45;Formulation</text>
</a>
</g>
</g>
<!-- Node4 -->
<g id="node3" class="node">
<title>Node4</title>
<g id="a_node3"><a xlink:href="group__Discretization.html" target="_top" xlink:title="Discretization classes and algorithms provided by the library.">
<polygon fill="white" stroke="black" points="206.5,-204 122.5,-204 122.5,-185 206.5,-185 206.5,-204"/>
<text text-anchor="middle" x="164.5" y="-192" font-family="Helvetica,sans-Serif" font-size="10.00">Discretization</text>
</a>
</g>
</g>
<!-- Node1 -->
<g id="node4" class="node">
<title>Node1</title>
<g id="a_node4"><a xlink:title="Feel++ classes and methods.">
<polygon fill="#bfbfbf" stroke="black" points="49,-148 0,-148 0,-129 49,-129 49,-148"/>
<text text-anchor="middle" x="24.5" y="-136" font-family="Helvetica,sans-Serif" font-size="10.00">Feelpp</text>
</a>
</g>
</g>
<!-- Node1&#45;&gt;Node2 -->
<g id="edge1" class="edge">
<title>Node1&#45;&gt;Node2</title>
<path fill="none" stroke="black" d="M30.4,-157.96C37.83,-183.28 54.4,-227.05 85,-250.5 102.31,-263.77 127.68,-267.55 144.85,-268.48"/>
<polygon fill="black" stroke="black" points="33.71,-156.78 27.7,-148.06 26.96,-158.63 33.71,-156.78"/>
</g>
<!-- Node1&#45;&gt;Node6 -->
<g id="edge5" class="edge">
<title>Node1&#45;&gt;Node6</title>
<path fill="none" stroke="black" d="M35.38,-157.18C45.52,-174.47 62.91,-199.56 85,-213.5 90.44,-216.93 96.46,-219.71 102.67,-221.96"/>
<polygon fill="black" stroke="black" points="38.2,-155.06 30.27,-148.04 32.1,-158.47 38.2,-155.06"/>
</g>
<!-- Node1&#45;&gt;Node4 -->
<g id="edge3" class="edge">
<title>Node1&#45;&gt;Node4</title>
<path fill="none" stroke="black" d="M46.14,-154.18C57.16,-161.89 71.26,-170.74 85,-176.5 96.73,-181.42 110.05,-185.11 122.33,-187.84"/>
<polygon fill="black" stroke="black" points="48.18,-151.33 38.02,-148.32 44.08,-157.01 48.18,-151.33"/>
</g>
<!-- Node5 -->
<g id="node5" class="node">
<title>Node5</title>
<g id="a_node5"><a xlink:href="group__Filters.html" target="_top" xlink:title="Filter classes provided by the library.">
<polygon fill="white" stroke="black" points="187.5,-167 141.5,-167 141.5,-148 187.5,-148 187.5,-167"/>
<text text-anchor="middle" x="164.5" y="-155" font-family="Helvetica,sans-Serif" font-size="10.00">Filters</text>
</a>
</g>
</g>
<!-- Node1&#45;&gt;Node5 -->
<g id="edge4" class="edge">
<title>Node1&#45;&gt;Node5</title>
<path fill="none" stroke="black" d="M59.24,-143.15C84.84,-146.67 119.29,-151.41 141.45,-154.46"/>
<polygon fill="black" stroke="black" points="59.61,-139.66 49.22,-141.77 58.65,-146.6 59.61,-139.66"/>
</g>
<!-- Node3 -->
<g id="node6" class="node">
<title>Node3</title>
<g id="a_node6"><a xlink:href="group__Mesh.html" target="_top" xlink:title="Mesh classes and algorithms provided by the library.">
<polygon fill="white" stroke="black" points="186,-130 143,-130 143,-111 186,-111 186,-130"/>
<text text-anchor="middle" x="164.5" y="-118" font-family="Helvetica,sans-Serif" font-size="10.00">Mesh</text>
</a>
</g>
</g>
<!-- Node1&#45;&gt;Node3 -->
<g id="edge2" class="edge">
<title>Node1&#45;&gt;Node3</title>
<path fill="none" stroke="black" d="M59.43,-134.07C85.53,-130.67 120.75,-126.08 142.79,-123.2"/>
<polygon fill="black" stroke="black" points="58.69,-130.64 49.22,-135.41 59.59,-137.58 58.69,-130.64"/>
</g>
<!-- Node7 -->
<g id="node7" class="node">
<title>Node7</title>
<g id="a_node7"><a xlink:href="group__SpaceTime.html" target="_top" xlink:title="Time stepping including space provided by the library.">
<polygon fill="white" stroke="black" points="199.5,-93 129.5,-93 129.5,-74 199.5,-74 199.5,-93"/>
<text text-anchor="middle" x="164.5" y="-81" font-family="Helvetica,sans-Serif" font-size="10.00">SpaceTime</text>
</a>
</g>
</g>
<!-- Node1&#45;&gt;Node7 -->
<g id="edge6" class="edge">
<title>Node1&#45;&gt;Node7</title>
<path fill="none" stroke="black" d="M47.04,-123.26C57.98,-116.1 71.74,-107.96 85,-102.5 99,-96.73 115.16,-92.45 129.17,-89.42"/>
<polygon fill="black" stroke="black" points="44.91,-120.47 38.58,-128.96 48.83,-126.28 44.91,-120.47"/>
</g>
<!-- Node8 -->
<g id="node8" class="node">
<title>Node8</title>
<g id="a_node8"><a xlink:href="group__Timing.html" target="_top" xlink:title="Timing methods provided by the library.">
<polygon fill="white" stroke="black" points="189.5,-56 139.5,-56 139.5,-37 189.5,-37 189.5,-56"/>
<text text-anchor="middle" x="164.5" y="-44" font-family="Helvetica,sans-Serif" font-size="10.00">Timing</text>
</a>
</g>
</g>
<!-- Node1&#45;&gt;Node8 -->
<g id="edge7" class="edge">
<title>Node1&#45;&gt;Node8</title>
<path fill="none" stroke="black" d="M35.87,-119.84C46.16,-103.07 63.49,-79.05 85,-65.5 101.37,-55.19 122.9,-50.47 139.28,-48.31"/>
<polygon fill="black" stroke="black" points="32.68,-118.35 30.64,-128.75 38.72,-121.89 32.68,-118.35"/>
</g>
<!-- Node9 -->
<g id="node9" class="node">
<title>Node9</title>
<g id="a_node9"><a xlink:href="group__Traits.html" target="_top" xlink:title="Traits provided by the library.">
<polygon fill="white" stroke="black" points="186.5,-19 142.5,-19 142.5,0 186.5,0 186.5,-19"/>
<text text-anchor="middle" x="164.5" y="-7" font-family="Helvetica,sans-Serif" font-size="10.00">Traits</text>
</a>
</g>
</g>
<!-- Node1&#45;&gt;Node9 -->
<g id="edge8" class="edge">
<title>Node1&#45;&gt;Node9</title>
<path fill="none" stroke="black" d="M30.66,-119.06C38.29,-94.19 55.03,-51.58 85,-28.5 101.55,-15.75 125.43,-11.41 142.5,-10"/>
<polygon fill="black" stroke="black" points="27.26,-118.24 27.86,-128.82 33.98,-120.17 27.26,-118.24"/>
</g>
</g>
</svg>
