<?xml version="1.0" encoding="UTF-8" standalone="no"?>
<!DOCTYPE svg PUBLIC "-//W3C//DTD SVG 1.1//EN"
 "http://www.w3.org/Graphics/SVG/1.1/DTD/svg11.dtd">
<!-- Generated by graphviz version 2.43.0 (0)
 -->
<!-- Title: /data/cemosis/github&#45;actions&#45;runner/actions&#45;runner&#45;4/_work/feelpp/feelpp/toolboxes/feel/feelmodels/heat/heat.hpp Pages: 1 -->
<svg width="821pt" height="272pt"
 viewBox="0.00 0.00 821.00 272.00" xmlns="http://www.w3.org/2000/svg" xmlns:xlink="http://www.w3.org/1999/xlink">
<g id="graph0" class="graph" transform="scale(1 1) rotate(0) translate(4 268)">
<title>/data/cemosis/github&#45;actions&#45;runner/actions&#45;runner&#45;4/_work/feelpp/feelpp/toolboxes/feel/feelmodels/heat/heat.hpp</title>
<polygon fill="white" stroke="transparent" points="-4,4 -4,-268 817,-268 817,4 -4,4"/>
<!-- Node1 -->
<g id="node1" class="node">
<title>Node1</title>
<g id="a_node1"><a xlink:title=" ">
<polygon fill="#bfbfbf" stroke="black" points="309,-200.5 309,-263.5 489,-263.5 489,-200.5 309,-200.5"/>
<text text-anchor="start" x="317" y="-251.5" font-family="Helvetica,sans-Serif" font-size="10.00">/data/cemosis/github</text>
<text text-anchor="start" x="317" y="-240.5" font-family="Helvetica,sans-Serif" font-size="10.00">&#45;actions&#45;runner/actions</text>
<text text-anchor="start" x="317" y="-229.5" font-family="Helvetica,sans-Serif" font-size="10.00">&#45;runner&#45;4/_work/feelpp</text>
<text text-anchor="start" x="317" y="-218.5" font-family="Helvetica,sans-Serif" font-size="10.00">/feelpp/toolboxes/feel/feelmodels</text>
<text text-anchor="middle" x="399" y="-207.5" font-family="Helvetica,sans-Serif" font-size="10.00">/heat/heat.hpp</text>
</a>
</g>
</g>
<!-- Node2 -->
<g id="node2" class="node">
<title>Node2</title>
<g id="a_node2"><a xlink:title=" ">
<polygon fill="white" stroke="#bfbfbf" points="8,-100.5 8,-163.5 188,-163.5 188,-100.5 8,-100.5"/>
<text text-anchor="start" x="16" y="-151.5" font-family="Helvetica,sans-Serif" font-size="10.00">/data/cemosis/github</text>
<text text-anchor="start" x="16" y="-140.5" font-family="Helvetica,sans-Serif" font-size="10.00">&#45;actions&#45;runner/actions</text>
<text text-anchor="start" x="16" y="-129.5" font-family="Helvetica,sans-Serif" font-size="10.00">&#45;runner&#45;4/_work/feelpp</text>
<text text-anchor="start" x="16" y="-118.5" font-family="Helvetica,sans-Serif" font-size="10.00">/feelpp/toolboxes/feel/feelmodels</text>
<text text-anchor="middle" x="98" y="-107.5" font-family="Helvetica,sans-Serif" font-size="10.00">/heat/heat.cpp</text>
</a>
</g>
</g>
<!-- Node1&#45;&gt;Node2 -->
<g id="edge1" class="edge">
<title>Node1&#45;&gt;Node2</title>
<path fill="none" stroke="midnightblue" d="M298.74,-198.36C263.03,-186.73 223.06,-173.72 188.25,-162.38"/>
<polygon fill="midnightblue" stroke="midnightblue" points="298.1,-201.83 308.69,-201.6 300.26,-195.17 298.1,-201.83"/>
</g>
<!-- Node4 -->
<g id="node4" class="node">
<title>Node4</title>
<g id="a_node4"><a xlink:title=" ">
<polygon fill="white" stroke="#bfbfbf" points="210,-100.5 210,-163.5 390,-163.5 390,-100.5 210,-100.5"/>
<text text-anchor="start" x="218" y="-151.5" font-family="Helvetica,sans-Serif" font-size="10.00">/data/cemosis/github</text>
<text text-anchor="start" x="218" y="-140.5" font-family="Helvetica,sans-Serif" font-size="10.00">&#45;actions&#45;runner/actions</text>
<text text-anchor="start" x="218" y="-129.5" font-family="Helvetica,sans-Serif" font-size="10.00">&#45;runner&#45;4/_work/feelpp</text>
<text text-anchor="start" x="218" y="-118.5" font-family="Helvetica,sans-Serif" font-size="10.00">/feelpp/toolboxes/feel/feelmodels</text>
<text text-anchor="middle" x="300" y="-107.5" font-family="Helvetica,sans-Serif" font-size="10.00">/heat/heatassemblyjacobian.cpp</text>
</a>
</g>
</g>
<!-- Node1&#45;&gt;Node4 -->
<g id="edge3" class="edge">
<title>Node1&#45;&gt;Node4</title>
<path fill="none" stroke="midnightblue" d="M360.59,-192.97C350.77,-183.25 340.33,-172.93 330.94,-163.63"/>
<polygon fill="midnightblue" stroke="midnightblue" points="358.38,-195.71 367.95,-200.26 363.3,-190.74 358.38,-195.71"/>
</g>
<!-- Node6 -->
<g id="node6" class="node">
<title>Node6</title>
<g id="a_node6"><a xlink:title=" ">
<polygon fill="white" stroke="#bfbfbf" points="414,-100.5 414,-163.5 594,-163.5 594,-100.5 414,-100.5"/>
<text text-anchor="start" x="422" y="-151.5" font-family="Helvetica,sans-Serif" font-size="10.00">/data/cemosis/github</text>
<text text-anchor="start" x="422" y="-140.5" font-family="Helvetica,sans-Serif" font-size="10.00">&#45;actions&#45;runner/actions</text>
<text text-anchor="start" x="422" y="-129.5" font-family="Helvetica,sans-Serif" font-size="10.00">&#45;runner&#45;4/_work/feelpp</text>
<text text-anchor="start" x="422" y="-118.5" font-family="Helvetica,sans-Serif" font-size="10.00">/feelpp/toolboxes/feel/feelmodels</text>
<text text-anchor="middle" x="504" y="-107.5" font-family="Helvetica,sans-Serif" font-size="10.00">/heat/heatassemblylinear.cpp</text>
</a>
</g>
</g>
<!-- Node1&#45;&gt;Node6 -->
<g id="edge5" class="edge">
<title>Node1&#45;&gt;Node6</title>
<path fill="none" stroke="midnightblue" d="M439.44,-193.26C449.94,-183.46 461.12,-173.02 471.18,-163.63"/>
<polygon fill="midnightblue" stroke="midnightblue" points="436.86,-190.88 431.93,-200.26 441.63,-196 436.86,-190.88"/>
</g>
<!-- Node8 -->
<g id="node8" class="node">
<title>Node8</title>
<g id="a_node8"><a xlink:title=" ">
<polygon fill="white" stroke="#bfbfbf" points="620,-100.5 620,-163.5 800,-163.5 800,-100.5 620,-100.5"/>
<text text-anchor="start" x="628" y="-151.5" font-family="Helvetica,sans-Serif" font-size="10.00">/data/cemosis/github</text>
<text text-anchor="start" x="628" y="-140.5" font-family="Helvetica,sans-Serif" font-size="10.00">&#45;actions&#45;runner/actions</text>
<text text-anchor="start" x="628" y="-129.5" font-family="Helvetica,sans-Serif" font-size="10.00">&#45;runner&#45;4/_work/feelpp</text>
<text text-anchor="start" x="628" y="-118.5" font-family="Helvetica,sans-Serif" font-size="10.00">/feelpp/toolboxes/feel/feelmodels</text>
<text text-anchor="middle" x="710" y="-107.5" font-family="Helvetica,sans-Serif" font-size="10.00">/heat/heatassemblyresidual.cpp</text>
</a>
</g>
</g>
<!-- Node1&#45;&gt;Node8 -->
<g id="edge7" class="edge">
<title>Node1&#45;&gt;Node8</title>
<path fill="none" stroke="midnightblue" d="M499.13,-199.45C537.97,-187.21 582.11,-173.3 619.94,-161.38"/>
<polygon fill="midnightblue" stroke="midnightblue" points="497.86,-196.18 489.37,-202.52 499.96,-202.86 497.86,-196.18"/>
</g>
<!-- Node3 -->
<g id="node3" class="node">
<title>Node3</title>
<g id="a_node3"><a xlink:title=" ">
<polygon fill="white" stroke="#bfbfbf" points="0,-0.5 0,-63.5 180,-63.5 180,-0.5 0,-0.5"/>
<text text-anchor="start" x="8" y="-51.5" font-family="Helvetica,sans-Serif" font-size="10.00">/data/cemosis/github</text>
<text text-anchor="start" x="8" y="-40.5" font-family="Helvetica,sans-Serif" font-size="10.00">&#45;actions&#45;runner/actions</text>
<text text-anchor="start" x="8" y="-29.5" font-family="Helvetica,sans-Serif" font-size="10.00">&#45;runner&#45;4/_work/feelpp</text>
<text text-anchor="start" x="8" y="-18.5" font-family="Helvetica,sans-Serif" font-size="10.00">/feelpp/toolboxes/feel/feelmodels</text>
<text text-anchor="middle" x="90" y="-7.5" font-family="Helvetica,sans-Serif" font-size="10.00">/heat/heat_inst.cpp</text>
</a>
</g>
</g>
<!-- Node2&#45;&gt;Node3 -->
<g id="edge2" class="edge">
<title>Node2&#45;&gt;Node3</title>
<path fill="none" stroke="midnightblue" d="M94.66,-90.1C93.94,-81.24 93.18,-72.01 92.5,-63.63"/>
<polygon fill="midnightblue" stroke="midnightblue" points="91.19,-90.58 95.49,-100.26 98.17,-90.01 91.19,-90.58"/>
</g>
<!-- Node5 -->
<g id="node5" class="node">
<title>Node5</title>
<g id="a_node5"><a xlink:title=" ">
<polygon fill="white" stroke="#bfbfbf" points="198,-0.5 198,-63.5 396,-63.5 396,-0.5 198,-0.5"/>
<text text-anchor="start" x="206" y="-51.5" font-family="Helvetica,sans-Serif" font-size="10.00">/data/cemosis/github</text>
<text text-anchor="start" x="206" y="-40.5" font-family="Helvetica,sans-Serif" font-size="10.00">&#45;actions&#45;runner/actions</text>
<text text-anchor="start" x="206" y="-29.5" font-family="Helvetica,sans-Serif" font-size="10.00">&#45;runner&#45;4/_work/feelpp</text>
<text text-anchor="start" x="206" y="-18.5" font-family="Helvetica,sans-Serif" font-size="10.00">/feelpp/toolboxes/feel/feelmodels</text>
<text text-anchor="middle" x="297" y="-7.5" font-family="Helvetica,sans-Serif" font-size="10.00">/heat/heatassemblyjacobian_inst.cpp</text>
</a>
</g>
</g>
<!-- Node4&#45;&gt;Node5 -->
<g id="edge4" class="edge">
<title>Node4&#45;&gt;Node5</title>
<path fill="none" stroke="midnightblue" d="M298.75,-90.1C298.48,-81.24 298.19,-72.01 297.94,-63.63"/>
<polygon fill="midnightblue" stroke="midnightblue" points="295.25,-90.37 299.06,-100.26 302.25,-90.16 295.25,-90.37"/>
</g>
<!-- Node7 -->
<g id="node7" class="node">
<title>Node7</title>
<g id="a_node7"><a xlink:title=" ">
<polygon fill="white" stroke="#bfbfbf" points="414.5,-0.5 414.5,-63.5 599.5,-63.5 599.5,-0.5 414.5,-0.5"/>
<text text-anchor="start" x="422.5" y="-51.5" font-family="Helvetica,sans-Serif" font-size="10.00">/data/cemosis/github</text>
<text text-anchor="start" x="422.5" y="-40.5" font-family="Helvetica,sans-Serif" font-size="10.00">&#45;actions&#45;runner/actions</text>
<text text-anchor="start" x="422.5" y="-29.5" font-family="Helvetica,sans-Serif" font-size="10.00">&#45;runner&#45;4/_work/feelpp</text>
<text text-anchor="start" x="422.5" y="-18.5" font-family="Helvetica,sans-Serif" font-size="10.00">/feelpp/toolboxes/feel/feelmodels</text>
<text text-anchor="middle" x="507" y="-7.5" font-family="Helvetica,sans-Serif" font-size="10.00">/heat/heatassemblylinear_inst.cpp</text>
</a>
</g>
</g>
<!-- Node6&#45;&gt;Node7 -->
<g id="edge6" class="edge">
<title>Node6&#45;&gt;Node7</title>
<path fill="none" stroke="midnightblue" d="M505.25,-90.1C505.52,-81.24 505.81,-72.01 506.06,-63.63"/>
<polygon fill="midnightblue" stroke="midnightblue" points="501.75,-90.16 504.94,-100.26 508.75,-90.37 501.75,-90.16"/>
</g>
<!-- Node9 -->
<g id="node9" class="node">
<title>Node9</title>
<g id="a_node9"><a xlink:title=" ">
<polygon fill="white" stroke="#bfbfbf" points="617,-0.5 617,-63.5 813,-63.5 813,-0.5 617,-0.5"/>
<text text-anchor="start" x="625" y="-51.5" font-family="Helvetica,sans-Serif" font-size="10.00">/data/cemosis/github</text>
<text text-anchor="start" x="625" y="-40.5" font-family="Helvetica,sans-Serif" font-size="10.00">&#45;actions&#45;runner/actions</text>
<text text-anchor="start" x="625" y="-29.5" font-family="Helvetica,sans-Serif" font-size="10.00">&#45;runner&#45;4/_work/feelpp</text>
<text text-anchor="start" x="625" y="-18.5" font-family="Helvetica,sans-Serif" font-size="10.00">/feelpp/toolboxes/feel/feelmodels</text>
<text text-anchor="middle" x="715" y="-7.5" font-family="Helvetica,sans-Serif" font-size="10.00">/heat/heatassemblyresidual_inst.cpp</text>
</a>
</g>
</g>
<!-- Node8&#45;&gt;Node9 -->
<g id="edge8" class="edge">
<title>Node8&#45;&gt;Node9</title>
<path fill="none" stroke="midnightblue" d="M712.09,-90.1C712.54,-81.24 713.01,-72.01 713.44,-63.63"/>
<polygon fill="midnightblue" stroke="midnightblue" points="708.58,-90.1 711.57,-100.26 715.57,-90.45 708.58,-90.1"/>
</g>
</g>
</svg>
