<?xml version="1.0" encoding="UTF-8" standalone="no"?>
<!DOCTYPE svg PUBLIC "-//W3C//DTD SVG 1.1//EN"
 "http://www.w3.org/Graphics/SVG/1.1/DTD/svg11.dtd">
<!-- Generated by graphviz version 2.43.0 (0)
 -->
<!-- Title: /nvme0/prudhomm/actions&#45;runner&#45;2/_work/feelpp/feelpp/feelpp/feel/feelcore/info.cpp Pages: 1 -->
<svg width="421pt" height="117pt"
 viewBox="0.00 0.00 420.50 117.00" xmlns="http://www.w3.org/2000/svg" xmlns:xlink="http://www.w3.org/1999/xlink">
<g id="graph0" class="graph" transform="scale(1 1) rotate(0) translate(4 113)">
<title>/nvme0/prudhomm/actions&#45;runner&#45;2/_work/feelpp/feelpp/feelpp/feel/feelcore/info.cpp</title>
<polygon fill="white" stroke="transparent" points="-4,4 -4,-113 416.5,-113 416.5,4 -4,4"/>
<!-- Node1 -->
<g id="node1" class="node">
<title>Node1</title>
<g id="a_node1"><a xlink:title=" ">
<polygon fill="#bfbfbf" stroke="black" points="101.5,-56.5 101.5,-108.5 250.5,-108.5 250.5,-56.5 101.5,-56.5"/>
<text text-anchor="start" x="109.5" y="-96.5" font-family="Helvetica,sans-Serif" font-size="10.00">/nvme0/prudhomm/actions</text>
<text text-anchor="start" x="109.5" y="-85.5" font-family="Helvetica,sans-Serif" font-size="10.00">&#45;runner&#45;2/_work/feelpp</text>
<text text-anchor="start" x="109.5" y="-74.5" font-family="Helvetica,sans-Serif" font-size="10.00">/feelpp/feelpp/feel/feelcore</text>
<text text-anchor="middle" x="176" y="-63.5" font-family="Helvetica,sans-Serif" font-size="10.00">/info.cpp</text>
</a>
</g>
</g>
<!-- Node2 -->
<g id="node2" class="node">
<title>Node2</title>
<g id="a_node2"><a xlink:title=" ">
<polygon fill="white" stroke="#bfbfbf" points="0,-0.5 0,-19.5 56,-19.5 56,-0.5 0,-0.5"/>
<text text-anchor="middle" x="28" y="-7.5" font-family="Helvetica,sans-Serif" font-size="10.00">sstream</text>
</a>
</g>
</g>
<!-- Node1&#45;&gt;Node2 -->
<g id="edge1" class="edge">
<title>Node1&#45;&gt;Node2</title>
<path fill="none" stroke="midnightblue" d="M123.4,-56.45C100.34,-45.46 74.24,-33.03 55.17,-23.94"/>
<polygon fill="midnightblue" stroke="midnightblue" points="56.43,-20.67 45.9,-19.53 53.42,-26.99 56.43,-20.67"/>
</g>
<!-- Node3 -->
<g id="node3" class="node">
<title>Node3</title>
<g id="a_node3"><a xlink:title=" ">
<polygon fill="white" stroke="#bfbfbf" points="74,-0.5 74,-19.5 170,-19.5 170,-0.5 74,-0.5"/>
<text text-anchor="middle" x="122" y="-7.5" font-family="Helvetica,sans-Serif" font-size="10.00">feel/feelconfig.h</text>
</a>
</g>
</g>
<!-- Node1&#45;&gt;Node3 -->
<g id="edge2" class="edge">
<title>Node1&#45;&gt;Node3</title>
<path fill="none" stroke="midnightblue" d="M156.81,-56.45C149.52,-46.93 141.4,-36.33 134.84,-27.76"/>
<polygon fill="midnightblue" stroke="midnightblue" points="137.52,-25.51 128.66,-19.7 131.96,-29.76 137.52,-25.51"/>
</g>
<!-- Node4 -->
<g id="node4" class="node">
<title>Node4</title>
<g id="a_node4"><a xlink:title=" ">
<polygon fill="white" stroke="#bfbfbf" points="188.5,-0.5 188.5,-19.5 273.5,-19.5 273.5,-0.5 188.5,-0.5"/>
<text text-anchor="middle" x="231" y="-7.5" font-family="Helvetica,sans-Serif" font-size="10.00">feel/feelinfo.h</text>
</a>
</g>
</g>
<!-- Node1&#45;&gt;Node4 -->
<g id="edge3" class="edge">
<title>Node1&#45;&gt;Node4</title>
<path fill="none" stroke="midnightblue" d="M195.55,-56.45C202.97,-46.93 211.24,-36.33 217.93,-27.76"/>
<polygon fill="midnightblue" stroke="midnightblue" points="220.82,-29.73 224.22,-19.7 215.31,-25.43 220.82,-29.73"/>
</g>
<!-- Node5 -->
<g id="node5" class="node">
<title>Node5</title>
<g id="a_node5"><a xlink:title=" ">
<polygon fill="white" stroke="#bfbfbf" points="291.5,-0.5 291.5,-19.5 412.5,-19.5 412.5,-0.5 291.5,-0.5"/>
<text text-anchor="middle" x="352" y="-7.5" font-family="Helvetica,sans-Serif" font-size="10.00">feel/feelcore/info.hpp</text>
</a>
</g>
</g>
<!-- Node1&#45;&gt;Node5 -->
<g id="edge4" class="edge">
<title>Node1&#45;&gt;Node5</title>
<path fill="none" stroke="midnightblue" d="M238.55,-56.45C266.6,-45.21 298.44,-32.45 321.23,-23.33"/>
<polygon fill="midnightblue" stroke="midnightblue" points="322.73,-26.49 330.71,-19.53 320.13,-20 322.73,-26.49"/>
</g>
</g>
</svg>
