<?xml version="1.0" encoding="UTF-8" standalone="no"?>
<!DOCTYPE svg PUBLIC "-//W3C//DTD SVG 1.1//EN"
 "http://www.w3.org/Graphics/SVG/1.1/DTD/svg11.dtd">
<!-- Generated by graphviz version 2.43.0 (0)
 -->
<!-- Title: Graphical Class Hierarchy Pages: 1 -->
<svg width="379pt" height="61pt"
 viewBox="0.00 0.00 379.00 61.00" xmlns="http://www.w3.org/2000/svg" xmlns:xlink="http://www.w3.org/1999/xlink">
<g id="graph0" class="graph" transform="scale(1 1) rotate(0) translate(4 57)">
<title>Graphical Class Hierarchy</title>
<polygon fill="white" stroke="transparent" points="-4,4 -4,-57 375,-57 375,4 -4,4"/>
<!-- Node0 -->
<g id="node1" class="node">
<title>Node0</title>
<g id="a_node1"><a xlink:href="classGenericDirichletBoundaryCondition_3_07EquationRank_01_4_0a1_08_04Dim_11_00_07EquationRank_01_4_0a2_08_04Dim_11_01_4.html" target="_top" xlink:title=" ">
<polygon fill="white" stroke="black" points="0,-0.5 0,-52.5 155,-52.5 155,-0.5 0,-0.5"/>
<text text-anchor="start" x="8" y="-40.5" font-family="Helvetica,sans-Serif" font-size="10.00">GenericDirichletBoundary</text>
<text text-anchor="start" x="8" y="-29.5" font-family="Helvetica,sans-Serif" font-size="10.00">Condition&lt;(EquationRank</text>
<text text-anchor="start" x="8" y="-18.5" font-family="Helvetica,sans-Serif" font-size="10.00"> &gt;=1)?Dim:1,(EquationRank</text>
<text text-anchor="middle" x="77.5" y="-7.5" font-family="Helvetica,sans-Serif" font-size="10.00"> &gt;=2)?Dim:1 &gt;</text>
</a>
</g>
</g>
<!-- Node1 -->
<g id="node2" class="node">
<title>Node1</title>
<g id="a_node2"><a xlink:href="classFeel_1_1FeelModels_1_1CoefficientFormPDEBoundaryConditions_1_1Dirichlet.html" target="_top" xlink:title=" ">
<polygon fill="white" stroke="black" points="191,-6 191,-47 371,-47 371,-6 191,-6"/>
<text text-anchor="start" x="199" y="-35" font-family="Helvetica,sans-Serif" font-size="10.00">Feel::FeelModels::Coefficient</text>
<text text-anchor="start" x="199" y="-24" font-family="Helvetica,sans-Serif" font-size="10.00">FormPDEBoundaryConditions</text>
<text text-anchor="middle" x="281" y="-13" font-family="Helvetica,sans-Serif" font-size="10.00">&lt; Dim, EquationRank &gt;::Dirichlet</text>
</a>
</g>
</g>
<!-- Node0&#45;&gt;Node1 -->
<g id="edge1" class="edge">
<title>Node0&#45;&gt;Node1</title>
<path fill="none" stroke="midnightblue" d="M165.48,-26.5C173.93,-26.5 182.51,-26.5 190.98,-26.5"/>
<polygon fill="midnightblue" stroke="midnightblue" points="165.25,-23 155.25,-26.5 165.25,-30 165.25,-23"/>
</g>
</g>
</svg>
