<?xml version="1.0" encoding="UTF-8" standalone="no"?>
<!DOCTYPE svg PUBLIC "-//W3C//DTD SVG 1.1//EN"
 "http://www.w3.org/Graphics/SVG/1.1/DTD/svg11.dtd">
<!-- Generated by graphviz version 2.43.0 (0)
 -->
<!-- Title: Graphical Class Hierarchy Pages: 1 -->
<svg width="269pt" height="215pt"
 viewBox="0.00 0.00 269.00 215.00" xmlns="http://www.w3.org/2000/svg" xmlns:xlink="http://www.w3.org/1999/xlink">
<g id="graph0" class="graph" transform="scale(1 1) rotate(0) translate(4 211)">
<title>Graphical Class Hierarchy</title>
<polygon fill="white" stroke="transparent" points="-4,4 -4,-211 265,-211 265,4 -4,4"/>
<!-- Node188 -->
<g id="node1" class="node">
<title>Node188</title>
<g id="a_node1"><a xlink:title=" ">
<polygon fill="white" stroke="#bfbfbf" points="0,-94 0,-113 85,-113 85,-94 0,-94"/>
<text text-anchor="middle" x="42.5" y="-101" font-family="Helvetica,sans-Serif" font-size="10.00">bool_constant</text>
</a>
</g>
</g>
<!-- Node0 -->
<g id="node2" class="node">
<title>Node0</title>
<g id="a_node2"><a xlink:href="structFeel_1_1is__ptr__or__shared__ptr.html" target="_top" xlink:title=" ">
<polygon fill="white" stroke="black" points="129.5,-176.5 129.5,-206.5 252.5,-206.5 252.5,-176.5 129.5,-176.5"/>
<text text-anchor="start" x="137.5" y="-194.5" font-family="Helvetica,sans-Serif" font-size="10.00">Feel::is_ptr_or_shared</text>
<text text-anchor="middle" x="191" y="-183.5" font-family="Helvetica,sans-Serif" font-size="10.00">_ptr&lt; T &gt;</text>
</a>
</g>
</g>
<!-- Node188&#45;&gt;Node0 -->
<g id="edge1" class="edge">
<title>Node188&#45;&gt;Node0</title>
<path fill="none" stroke="midnightblue" d="M60.66,-120.32C75.59,-134.21 98.34,-153.67 121,-166.5 127.54,-170.2 134.73,-173.53 141.93,-176.45"/>
<polygon fill="midnightblue" stroke="midnightblue" points="62.88,-117.6 53.22,-113.25 58.06,-122.67 62.88,-117.6"/>
</g>
<!-- Node190 -->
<g id="node3" class="node">
<title>Node190</title>
<g id="a_node3"><a xlink:href="structFeel_1_1is__shared__ptr.html" target="_top" xlink:title=" ">
<polygon fill="white" stroke="black" points="122.5,-138 122.5,-157 259.5,-157 259.5,-138 122.5,-138"/>
<text text-anchor="middle" x="191" y="-145" font-family="Helvetica,sans-Serif" font-size="10.00">Feel::is_shared_ptr&lt; T &gt;</text>
</a>
</g>
</g>
<!-- Node188&#45;&gt;Node190 -->
<g id="edge2" class="edge">
<title>Node188&#45;&gt;Node190</title>
<path fill="none" stroke="midnightblue" d="M81.76,-116.2C94.23,-120.25 108.17,-124.67 121,-128.5 131.71,-131.7 143.42,-135 154.1,-137.93"/>
<polygon fill="midnightblue" stroke="midnightblue" points="82.71,-112.83 72.12,-113.06 80.54,-119.49 82.71,-112.83"/>
</g>
<!-- Node191 -->
<g id="node4" class="node">
<title>Node191</title>
<g id="a_node4"><a xlink:href="structFeel_1_1is__shared__ptr_3_01std_1_1shared__ptr_3_01T_01_4_01_4.html" target="_top" xlink:title=" ">
<polygon fill="white" stroke="black" points="121,-88.5 121,-118.5 261,-118.5 261,-88.5 121,-88.5"/>
<text text-anchor="start" x="129" y="-106.5" font-family="Helvetica,sans-Serif" font-size="10.00">Feel::is_shared_ptr</text>
<text text-anchor="middle" x="191" y="-95.5" font-family="Helvetica,sans-Serif" font-size="10.00">&lt; std::shared_ptr&lt; T &gt; &gt;</text>
</a>
</g>
</g>
<!-- Node188&#45;&gt;Node191 -->
<g id="edge3" class="edge">
<title>Node188&#45;&gt;Node191</title>
<path fill="none" stroke="midnightblue" d="M95.32,-103.5C103.59,-103.5 112.27,-103.5 120.87,-103.5"/>
<polygon fill="midnightblue" stroke="midnightblue" points="95.09,-100 85.09,-103.5 95.09,-107 95.09,-100"/>
</g>
<!-- Node192 -->
<g id="node5" class="node">
<title>Node192</title>
<g id="a_node5"><a xlink:href="structFeel_1_1is__std__vector.html" target="_top" xlink:title=" ">
<polygon fill="white" stroke="black" points="123,-50 123,-69 259,-69 259,-50 123,-50"/>
<text text-anchor="middle" x="191" y="-57" font-family="Helvetica,sans-Serif" font-size="10.00">Feel::is_std_vector&lt; T &gt;</text>
</a>
</g>
</g>
<!-- Node188&#45;&gt;Node192 -->
<g id="edge4" class="edge">
<title>Node188&#45;&gt;Node192</title>
<path fill="none" stroke="midnightblue" d="M83.74,-90.89C95.72,-87.17 108.88,-83.13 121,-79.5 132.59,-76.03 145.3,-72.31 156.62,-69.04"/>
<polygon fill="midnightblue" stroke="midnightblue" points="82.52,-87.6 74.01,-93.91 84.6,-94.28 82.52,-87.6"/>
</g>
<!-- Node193 -->
<g id="node6" class="node">
<title>Node193</title>
<g id="a_node6"><a xlink:href="structFeel_1_1is__std__vector_3_01std_1_1vector_3_01T_01_4_01_4.html" target="_top" xlink:title=" ">
<polygon fill="white" stroke="black" points="131.5,-0.5 131.5,-30.5 250.5,-30.5 250.5,-0.5 131.5,-0.5"/>
<text text-anchor="start" x="139.5" y="-18.5" font-family="Helvetica,sans-Serif" font-size="10.00">Feel::is_std_vector</text>
<text text-anchor="middle" x="191" y="-7.5" font-family="Helvetica,sans-Serif" font-size="10.00">&lt; std::vector&lt; T &gt; &gt;</text>
</a>
</g>
</g>
<!-- Node188&#45;&gt;Node193 -->
<g id="edge5" class="edge">
<title>Node188&#45;&gt;Node193</title>
<path fill="none" stroke="midnightblue" d="M60.66,-86.68C75.59,-72.79 98.34,-53.33 121,-40.5 127.54,-36.8 134.73,-33.47 141.93,-30.55"/>
<polygon fill="midnightblue" stroke="midnightblue" points="58.06,-84.33 53.22,-93.75 62.88,-89.4 58.06,-84.33"/>
</g>
</g>
</svg>
