<?xml version="1.0" encoding="UTF-8" standalone="no"?>
<!DOCTYPE svg PUBLIC "-//W3C//DTD SVG 1.1//EN"
 "http://www.w3.org/Graphics/SVG/1.1/DTD/svg11.dtd">
<!-- Generated by graphviz version 2.43.0 (0)
 -->
<!-- Title: Graphical Class Hierarchy Pages: 1 -->
<svg width="363pt" height="220pt"
 viewBox="0.00 0.00 363.00 220.00" xmlns="http://www.w3.org/2000/svg" xmlns:xlink="http://www.w3.org/1999/xlink">
<g id="graph0" class="graph" transform="scale(1 1) rotate(0) translate(4 216)">
<title>Graphical Class Hierarchy</title>
<polygon fill="white" stroke="transparent" points="-4,4 -4,-216 359,-216 359,4 -4,4"/>
<!-- Node0 -->
<g id="node1" class="node">
<title>Node0</title>
<g id="a_node1"><a xlink:title=" ">
<polygon fill="white" stroke="#bfbfbf" points="0,-93.5 0,-112.5 139,-112.5 139,-93.5 0,-93.5"/>
<text text-anchor="middle" x="69.5" y="-100.5" font-family="Helvetica,sans-Serif" font-size="10.00">boost::remove_reference</text>
</a>
</g>
</g>
<!-- Node1 -->
<g id="node2" class="node">
<title>Node1</title>
<g id="a_node2"><a xlink:href="structFeel_1_1detail_1_1NLocalDof_1_1result_3_01NLocalDof_07S_00_01T_08_4.html" target="_top" xlink:title=" ">
<polygon fill="white" stroke="black" points="187.5,-170.5 187.5,-211.5 342.5,-211.5 342.5,-170.5 187.5,-170.5"/>
<text text-anchor="start" x="195.5" y="-199.5" font-family="Helvetica,sans-Serif" font-size="10.00">Feel::detail::NLocalDof</text>
<text text-anchor="start" x="195.5" y="-188.5" font-family="Helvetica,sans-Serif" font-size="10.00">&lt; IsWithGhostType &gt;::result</text>
<text text-anchor="middle" x="265" y="-177.5" font-family="Helvetica,sans-Serif" font-size="10.00">&lt; NLocalDof(S, T)&gt;</text>
</a>
</g>
</g>
<!-- Node0&#45;&gt;Node1 -->
<g id="edge1" class="edge">
<title>Node0&#45;&gt;Node1</title>
<path fill="none" stroke="midnightblue" d="M94.4,-117.91C115.18,-130.46 146.36,-148.35 175,-161 182.46,-164.29 190.4,-167.45 198.35,-170.38"/>
<polygon fill="midnightblue" stroke="midnightblue" points="95.99,-114.78 85.63,-112.55 92.34,-120.75 95.99,-114.78"/>
</g>
<!-- Node2 -->
<g id="node3" class="node">
<title>Node2</title>
<g id="a_node3"><a xlink:href="structFeel_1_1detail_1_1NLocalDofOnProc_1_1result_3_01NLocalDofOnProc_07S_00_01T_08_4.html" target="_top" xlink:title=" ">
<polygon fill="white" stroke="black" points="175,-110.5 175,-151.5 355,-151.5 355,-110.5 175,-110.5"/>
<text text-anchor="start" x="183" y="-139.5" font-family="Helvetica,sans-Serif" font-size="10.00">Feel::detail::NLocalDofOn</text>
<text text-anchor="start" x="183" y="-128.5" font-family="Helvetica,sans-Serif" font-size="10.00">Proc&lt; IsWithGhostType &gt;</text>
<text text-anchor="middle" x="265" y="-117.5" font-family="Helvetica,sans-Serif" font-size="10.00">::result&lt; NLocalDofOnProc(S, T)&gt;</text>
</a>
</g>
</g>
<!-- Node0&#45;&gt;Node2 -->
<g id="edge2" class="edge">
<title>Node0&#45;&gt;Node2</title>
<path fill="none" stroke="midnightblue" d="M146.29,-113.97C155.63,-115.32 165.24,-116.71 174.75,-118.09"/>
<polygon fill="midnightblue" stroke="midnightblue" points="146.68,-110.49 136.28,-112.52 145.68,-117.41 146.68,-110.49"/>
</g>
<!-- Node3 -->
<g id="node4" class="node">
<title>Node3</title>
<g id="a_node4"><a xlink:href="structFeel_1_1detail_1_1NbDof_1_1result_3_01NbDof_07S_00_01T_08_4.html" target="_top" xlink:title=" ">
<polygon fill="white" stroke="black" points="202,-61 202,-91 328,-91 328,-61 202,-61"/>
<text text-anchor="start" x="210" y="-79" font-family="Helvetica,sans-Serif" font-size="10.00">Feel::detail::NbDof</text>
<text text-anchor="middle" x="265" y="-68" font-family="Helvetica,sans-Serif" font-size="10.00">::result&lt; NbDof(S, T)&gt;</text>
</a>
</g>
</g>
<!-- Node0&#45;&gt;Node3 -->
<g id="edge3" class="edge">
<title>Node0&#45;&gt;Node3</title>
<path fill="none" stroke="midnightblue" d="M148.98,-92.05C166.59,-89.59 185.04,-87.02 201.88,-84.67"/>
<polygon fill="midnightblue" stroke="midnightblue" points="148.14,-88.63 138.72,-93.48 149.11,-95.57 148.14,-88.63"/>
</g>
<!-- Node4 -->
<g id="node5" class="node">
<title>Node4</title>
<g id="a_node5"><a xlink:href="structFeel_1_1detail_1_1searchIndicesBySpace_1_1result_3_01searchIndicesBySpace_07M_00_01T_08_4.html" target="_top" xlink:title=" ">
<polygon fill="white" stroke="black" points="178.5,-0.5 178.5,-41.5 351.5,-41.5 351.5,-0.5 178.5,-0.5"/>
<text text-anchor="start" x="186.5" y="-29.5" font-family="Helvetica,sans-Serif" font-size="10.00">Feel::detail::searchIndices</text>
<text text-anchor="start" x="186.5" y="-18.5" font-family="Helvetica,sans-Serif" font-size="10.00">BySpace&lt; map_type &gt;::result</text>
<text text-anchor="middle" x="265" y="-7.5" font-family="Helvetica,sans-Serif" font-size="10.00">&lt; searchIndicesBySpace(M, T)&gt;</text>
</a>
</g>
</g>
<!-- Node0&#45;&gt;Node4 -->
<g id="edge4" class="edge">
<title>Node0&#45;&gt;Node4</title>
<path fill="none" stroke="midnightblue" d="M97.24,-88.86C118.12,-78.08 148.01,-63.24 175,-52 183.61,-48.41 192.8,-44.89 201.88,-41.57"/>
<polygon fill="midnightblue" stroke="midnightblue" points="95.58,-85.77 88.32,-93.49 98.81,-91.98 95.58,-85.77"/>
</g>
</g>
</svg>
