<?xml version="1.0" encoding="UTF-8" standalone="no"?>
<!DOCTYPE svg PUBLIC "-//W3C//DTD SVG 1.1//EN"
 "http://www.w3.org/Graphics/SVG/1.1/DTD/svg11.dtd">
<!-- Generated by graphviz version 2.43.0 (0)
 -->
<!-- Title: Graphical Class Hierarchy Pages: 1 -->
<svg width="286pt" height="127pt"
 viewBox="0.00 0.00 286.00 127.00" xmlns="http://www.w3.org/2000/svg" xmlns:xlink="http://www.w3.org/1999/xlink">
<g id="graph0" class="graph" transform="scale(1 1) rotate(0) translate(4 123)">
<title>Graphical Class Hierarchy</title>
<polygon fill="white" stroke="transparent" points="-4,4 -4,-123 282,-123 282,4 -4,4"/>
<!-- Node0 -->
<g id="node1" class="node">
<title>Node0</title>
<g id="a_node1"><a xlink:title=" ">
<polygon fill="white" stroke="#bfbfbf" points="0,-50 0,-69 106,-69 106,-50 0,-50"/>
<text text-anchor="middle" x="53" y="-57" font-family="Helvetica,sans-Serif" font-size="10.00">std::bool_constant</text>
</a>
</g>
</g>
<!-- Node1 -->
<g id="node2" class="node">
<title>Node1</title>
<g id="a_node2"><a xlink:href="structFeel_1_1is__ptr__or__shared__ptr.html" target="_top" xlink:title=" ">
<polygon fill="white" stroke="black" points="148.5,-88.5 148.5,-118.5 271.5,-118.5 271.5,-88.5 148.5,-88.5"/>
<text text-anchor="start" x="156.5" y="-106.5" font-family="Helvetica,sans-Serif" font-size="10.00">Feel::is_ptr_or_shared</text>
<text text-anchor="middle" x="210" y="-95.5" font-family="Helvetica,sans-Serif" font-size="10.00">_ptr&lt; T &gt;</text>
</a>
</g>
</g>
<!-- Node0&#45;&gt;Node1 -->
<g id="edge1" class="edge">
<title>Node0&#45;&gt;Node1</title>
<path fill="none" stroke="midnightblue" d="M97.37,-71.81C115.54,-76.97 136.84,-83.01 155.93,-88.43"/>
<polygon fill="midnightblue" stroke="midnightblue" points="98.21,-68.41 87.63,-69.05 96.3,-75.15 98.21,-68.41"/>
</g>
<!-- Node2 -->
<g id="node3" class="node">
<title>Node2</title>
<g id="a_node3"><a xlink:href="structFeel_1_1is__std__vector.html" target="_top" xlink:title=" ">
<polygon fill="white" stroke="black" points="142,-50 142,-69 278,-69 278,-50 142,-50"/>
<text text-anchor="middle" x="210" y="-57" font-family="Helvetica,sans-Serif" font-size="10.00">Feel::is_std_vector&lt; T &gt;</text>
</a>
</g>
</g>
<!-- Node0&#45;&gt;Node2 -->
<g id="edge2" class="edge">
<title>Node0&#45;&gt;Node2</title>
<path fill="none" stroke="midnightblue" d="M116.22,-59.5C124.69,-59.5 133.41,-59.5 141.95,-59.5"/>
<polygon fill="midnightblue" stroke="midnightblue" points="116.04,-56 106.04,-59.5 116.04,-63 116.04,-56"/>
</g>
<!-- Node3 -->
<g id="node4" class="node">
<title>Node3</title>
<g id="a_node4"><a xlink:href="structFeel_1_1is__std__vector_3_01std_1_1vector_3_01T_01_4_01_4.html" target="_top" xlink:title=" ">
<polygon fill="white" stroke="black" points="150.5,-0.5 150.5,-30.5 269.5,-30.5 269.5,-0.5 150.5,-0.5"/>
<text text-anchor="start" x="158.5" y="-18.5" font-family="Helvetica,sans-Serif" font-size="10.00">Feel::is_std_vector</text>
<text text-anchor="middle" x="210" y="-7.5" font-family="Helvetica,sans-Serif" font-size="10.00">&lt; std::vector&lt; T &gt; &gt;</text>
</a>
</g>
</g>
<!-- Node0&#45;&gt;Node3 -->
<g id="edge3" class="edge">
<title>Node0&#45;&gt;Node3</title>
<path fill="none" stroke="midnightblue" d="M97.37,-47.19C115.54,-42.03 136.84,-35.99 155.93,-30.57"/>
<polygon fill="midnightblue" stroke="midnightblue" points="96.3,-43.85 87.63,-49.95 98.21,-50.59 96.3,-43.85"/>
</g>
</g>
</svg>
