<?xml version="1.0" encoding="UTF-8" standalone="no"?>
<!DOCTYPE svg PUBLIC "-//W3C//DTD SVG 1.1//EN"
 "http://www.w3.org/Graphics/SVG/1.1/DTD/svg11.dtd">
<!-- Generated by graphviz version 2.43.0 (0)
 -->
<!-- Title: Graphical Class Hierarchy Pages: 1 -->
<svg width="276pt" height="137pt"
 viewBox="0.00 0.00 276.00 137.00" xmlns="http://www.w3.org/2000/svg" xmlns:xlink="http://www.w3.org/1999/xlink">
<g id="graph0" class="graph" transform="scale(1 1) rotate(0) translate(4 133)">
<title>Graphical Class Hierarchy</title>
<polygon fill="white" stroke="transparent" points="-4,4 -4,-133 272,-133 272,4 -4,4"/>
<!-- Node217 -->
<g id="node1" class="node">
<title>Node217</title>
<g id="a_node1"><a xlink:title=" ">
<polygon fill="white" stroke="#bfbfbf" points="0,-55 0,-74 112,-74 112,-55 0,-55"/>
<text text-anchor="middle" x="56" y="-62" font-family="Helvetica,sans-Serif" font-size="10.00">ProductSpacesBase</text>
</a>
</g>
</g>
<!-- Node0 -->
<g id="node2" class="node">
<title>Node0</title>
<g id="a_node2"><a xlink:href="classFeel_1_1ProductSpaces.html" target="_top" xlink:title=" ">
<polygon fill="white" stroke="black" points="151,-98.5 151,-128.5 265,-128.5 265,-98.5 151,-98.5"/>
<text text-anchor="start" x="159" y="-116.5" font-family="Helvetica,sans-Serif" font-size="10.00">Feel::ProductSpaces</text>
<text text-anchor="middle" x="208" y="-105.5" font-family="Helvetica,sans-Serif" font-size="10.00">&lt; SpaceList &gt;</text>
</a>
</g>
</g>
<!-- Node217&#45;&gt;Node0 -->
<g id="edge1" class="edge">
<title>Node217&#45;&gt;Node0</title>
<path fill="none" stroke="midnightblue" d="M95.94,-77.22C115.83,-83.72 140.16,-91.66 160.97,-98.46"/>
<polygon fill="midnightblue" stroke="midnightblue" points="96.87,-73.84 86.28,-74.06 94.7,-80.5 96.87,-73.84"/>
</g>
<!-- Node219 -->
<g id="node3" class="node">
<title>Node219</title>
<g id="a_node3"><a xlink:href="classFeel_1_1ProductSpaces2.html" target="_top" xlink:title="class mixing dynamic and compile&#45;time space product">
<polygon fill="white" stroke="black" points="148,-49.5 148,-79.5 268,-79.5 268,-49.5 148,-49.5"/>
<text text-anchor="start" x="156" y="-67.5" font-family="Helvetica,sans-Serif" font-size="10.00">Feel::ProductSpaces2</text>
<text text-anchor="middle" x="208" y="-56.5" font-family="Helvetica,sans-Serif" font-size="10.00">&lt; T, SpaceList &gt;</text>
</a>
</g>
</g>
<!-- Node217&#45;&gt;Node219 -->
<g id="edge2" class="edge">
<title>Node217&#45;&gt;Node219</title>
<path fill="none" stroke="midnightblue" d="M122.02,-64.5C130.64,-64.5 139.45,-64.5 147.96,-64.5"/>
<polygon fill="midnightblue" stroke="midnightblue" points="122,-61 112,-64.5 122,-68 122,-61"/>
</g>
<!-- Node220 -->
<g id="node4" class="node">
<title>Node220</title>
<g id="a_node4"><a xlink:href="classFeel_1_1ProductSpaces2.html" target="_top" xlink:title=" ">
<polygon fill="white" stroke="black" points="148,-0.5 148,-30.5 268,-30.5 268,-0.5 148,-0.5"/>
<text text-anchor="start" x="156" y="-18.5" font-family="Helvetica,sans-Serif" font-size="10.00">Feel::ProductSpaces2</text>
<text text-anchor="middle" x="208" y="-7.5" font-family="Helvetica,sans-Serif" font-size="10.00">&lt; T, SpaceList... &gt;</text>
</a>
</g>
</g>
<!-- Node217&#45;&gt;Node220 -->
<g id="edge3" class="edge">
<title>Node217&#45;&gt;Node220</title>
<path fill="none" stroke="midnightblue" d="M95.94,-51.78C115.83,-45.28 140.16,-37.34 160.97,-30.54"/>
<polygon fill="midnightblue" stroke="midnightblue" points="94.7,-48.5 86.28,-54.94 96.87,-55.16 94.7,-48.5"/>
</g>
</g>
</svg>
