<?xml version="1.0" encoding="UTF-8" standalone="no"?>
<!DOCTYPE svg PUBLIC "-//W3C//DTD SVG 1.1//EN"
 "http://www.w3.org/Graphics/SVG/1.1/DTD/svg11.dtd">
<!-- Generated by graphviz version 2.43.0 (0)
 -->
<!-- Title: Graphical Class Hierarchy Pages: 1 -->
<svg width="266pt" height="306pt"
 viewBox="0.00 0.00 266.00 305.50" xmlns="http://www.w3.org/2000/svg" xmlns:xlink="http://www.w3.org/1999/xlink">
<g id="graph0" class="graph" transform="scale(1 1) rotate(0) translate(4 301.5)">
<title>Graphical Class Hierarchy</title>
<polygon fill="white" stroke="transparent" points="-4,4 -4,-301.5 262,-301.5 262,4 -4,4"/>
<!-- Node0 -->
<g id="node1" class="node">
<title>Node0</title>
<g id="a_node1"><a xlink:href="classboost_1_1mpl_1_1bool__.html" target="_top" xlink:title=" ">
<polygon fill="white" stroke="black" points="0,-145 0,-164 101,-164 101,-145 0,-145"/>
<text text-anchor="middle" x="50.5" y="-152" font-family="Helvetica,sans-Serif" font-size="10.00">boost::mpl::bool_</text>
</a>
</g>
</g>
<!-- Node1 -->
<g id="node2" class="node">
<title>Node1</title>
<g id="a_node2"><a xlink:href="structFeel_1_1is__0d__real.html" target="_top" xlink:title=" ">
<polygon fill="white" stroke="black" points="137,-278 137,-297 258,-297 258,-278 137,-278"/>
<text text-anchor="middle" x="197.5" y="-285" font-family="Helvetica,sans-Serif" font-size="10.00">Feel::is_0d_real&lt; T &gt;</text>
</a>
</g>
</g>
<!-- Node0&#45;&gt;Node1 -->
<g id="edge1" class="edge">
<title>Node0&#45;&gt;Node1</title>
<path fill="none" stroke="midnightblue" d="M60.61,-172.93C73.97,-198.11 101.23,-243.06 137,-268.5 142.39,-272.33 148.59,-275.42 154.91,-277.9"/>
<polygon fill="midnightblue" stroke="midnightblue" points="63.72,-171.33 56.03,-164.03 57.49,-174.53 63.72,-171.33"/>
</g>
<!-- Node2 -->
<g id="node3" class="node">
<title>Node2</title>
<g id="a_node3"><a xlink:href="structFeel_1_1is__1d__real.html" target="_top" xlink:title=" ">
<polygon fill="white" stroke="black" points="137,-240 137,-259 258,-259 258,-240 137,-240"/>
<text text-anchor="middle" x="197.5" y="-247" font-family="Helvetica,sans-Serif" font-size="10.00">Feel::is_1d_real&lt; T &gt;</text>
</a>
</g>
</g>
<!-- Node0&#45;&gt;Node2 -->
<g id="edge2" class="edge">
<title>Node0&#45;&gt;Node2</title>
<path fill="none" stroke="midnightblue" d="M66.69,-171.69C82.66,-188.79 109.27,-214.7 137,-230.5 143.6,-234.26 151.03,-237.38 158.36,-239.94"/>
<polygon fill="midnightblue" stroke="midnightblue" points="69.08,-169.11 59.75,-164.08 63.91,-173.83 69.08,-169.11"/>
</g>
<!-- Node3 -->
<g id="node4" class="node">
<title>Node3</title>
<g id="a_node4"><a xlink:href="structFeel_1_1is__2d__real.html" target="_top" xlink:title=" ">
<polygon fill="white" stroke="black" points="137,-202 137,-221 258,-221 258,-202 137,-202"/>
<text text-anchor="middle" x="197.5" y="-209" font-family="Helvetica,sans-Serif" font-size="10.00">Feel::is_2d_real&lt; T &gt;</text>
</a>
</g>
</g>
<!-- Node0&#45;&gt;Node3 -->
<g id="edge3" class="edge">
<title>Node0&#45;&gt;Node3</title>
<path fill="none" stroke="midnightblue" d="M80.37,-168.27C96.78,-175.87 117.84,-185.21 137,-192.5 145.82,-195.86 155.51,-199.12 164.47,-201.98"/>
<polygon fill="midnightblue" stroke="midnightblue" points="81.82,-165.09 71.28,-164.03 78.86,-171.43 81.82,-165.09"/>
</g>
<!-- Node4 -->
<g id="node5" class="node">
<title>Node4</title>
<g id="a_node5"><a xlink:href="structFeel_1_1is__3d__real.html" target="_top" xlink:title=" ">
<polygon fill="white" stroke="black" points="137,-164 137,-183 258,-183 258,-164 137,-164"/>
<text text-anchor="middle" x="197.5" y="-171" font-family="Helvetica,sans-Serif" font-size="10.00">Feel::is_3d_real&lt; T &gt;</text>
</a>
</g>
</g>
<!-- Node0&#45;&gt;Node4 -->
<g id="edge4" class="edge">
<title>Node0&#45;&gt;Node4</title>
<path fill="none" stroke="midnightblue" d="M111.45,-162.36C119.81,-163.45 128.4,-164.58 136.75,-165.67"/>
<polygon fill="midnightblue" stroke="midnightblue" points="111.77,-158.87 101.4,-161.04 110.86,-165.81 111.77,-158.87"/>
</g>
<!-- Node5 -->
<g id="node6" class="node">
<title>Node5</title>
<g id="a_node6"><a xlink:href="structFeel_1_1is__edge.html" target="_top" xlink:title=" ">
<polygon fill="white" stroke="black" points="143,-126 143,-145 252,-145 252,-126 143,-126"/>
<text text-anchor="middle" x="197.5" y="-133" font-family="Helvetica,sans-Serif" font-size="10.00">Feel::is_edge&lt; T &gt;</text>
</a>
</g>
</g>
<!-- Node0&#45;&gt;Node5 -->
<g id="edge5" class="edge">
<title>Node0&#45;&gt;Node5</title>
<path fill="none" stroke="midnightblue" d="M111.53,-146.63C121.81,-145.29 132.43,-143.89 142.54,-142.57"/>
<polygon fill="midnightblue" stroke="midnightblue" points="110.86,-143.19 101.4,-147.96 111.77,-150.13 110.86,-143.19"/>
</g>
<!-- Node6 -->
<g id="node7" class="node">
<title>Node6</title>
<g id="a_node7"><a xlink:href="structFeel_1_1is__face.html" target="_top" xlink:title=" ">
<polygon fill="white" stroke="black" points="144.5,-88 144.5,-107 250.5,-107 250.5,-88 144.5,-88"/>
<text text-anchor="middle" x="197.5" y="-95" font-family="Helvetica,sans-Serif" font-size="10.00">Feel::is_face&lt; T &gt;</text>
</a>
</g>
</g>
<!-- Node0&#45;&gt;Node6 -->
<g id="edge6" class="edge">
<title>Node0&#45;&gt;Node6</title>
<path fill="none" stroke="midnightblue" d="M80.37,-140.73C96.78,-133.13 117.84,-123.79 137,-116.5 145.82,-113.14 155.51,-109.88 164.47,-107.02"/>
<polygon fill="midnightblue" stroke="midnightblue" points="78.86,-137.57 71.28,-144.97 81.82,-143.91 78.86,-137.57"/>
</g>
<!-- Node7 -->
<g id="node8" class="node">
<title>Node7</title>
<g id="a_node8"><a xlink:href="structFeel_1_1is__point.html" target="_top" xlink:title=" ">
<polygon fill="white" stroke="black" points="142.5,-50 142.5,-69 252.5,-69 252.5,-50 142.5,-50"/>
<text text-anchor="middle" x="197.5" y="-57" font-family="Helvetica,sans-Serif" font-size="10.00">Feel::is_point&lt; T &gt;</text>
</a>
</g>
</g>
<!-- Node0&#45;&gt;Node7 -->
<g id="edge7" class="edge">
<title>Node0&#45;&gt;Node7</title>
<path fill="none" stroke="midnightblue" d="M66.69,-137.31C82.66,-120.21 109.27,-94.3 137,-78.5 143.6,-74.74 151.03,-71.62 158.36,-69.06"/>
<polygon fill="midnightblue" stroke="midnightblue" points="63.91,-135.17 59.75,-144.92 69.08,-139.89 63.91,-135.17"/>
</g>
<!-- Node8 -->
<g id="node9" class="node">
<title>Node8</title>
<g id="a_node9"><a xlink:href="structFeel_1_1is__topological__face.html" target="_top" xlink:title=" ">
<polygon fill="white" stroke="black" points="142.5,-0.5 142.5,-30.5 252.5,-30.5 252.5,-0.5 142.5,-0.5"/>
<text text-anchor="start" x="150.5" y="-18.5" font-family="Helvetica,sans-Serif" font-size="10.00">Feel::is_topological</text>
<text text-anchor="middle" x="197.5" y="-7.5" font-family="Helvetica,sans-Serif" font-size="10.00">_face&lt; T &gt;</text>
</a>
</g>
</g>
<!-- Node0&#45;&gt;Node8 -->
<g id="edge8" class="edge">
<title>Node0&#45;&gt;Node8</title>
<path fill="none" stroke="midnightblue" d="M61.32,-135.81C75.2,-111.01 102.71,-67.25 137,-40.5 141.86,-36.71 147.38,-33.39 153.04,-30.52"/>
<polygon fill="midnightblue" stroke="midnightblue" points="58.09,-134.43 56.38,-144.89 64.24,-137.78 58.09,-134.43"/>
</g>
</g>
</svg>
