<?xml version="1.0" encoding="UTF-8" standalone="no"?>
<!DOCTYPE svg PUBLIC "-//W3C//DTD SVG 1.1//EN"
 "http://www.w3.org/Graphics/SVG/1.1/DTD/svg11.dtd">
<!-- Generated by graphviz version 2.43.0 (0)
 -->
<!-- Title: Graphical Class Hierarchy Pages: 1 -->
<svg width="357pt" height="181pt"
 viewBox="0.00 0.00 357.00 181.00" xmlns="http://www.w3.org/2000/svg" xmlns:xlink="http://www.w3.org/1999/xlink">
<g id="graph0" class="graph" transform="scale(1 1) rotate(0) translate(4 177)">
<title>Graphical Class Hierarchy</title>
<polygon fill="white" stroke="transparent" points="-4,4 -4,-177 353,-177 353,4 -4,4"/>
<!-- Node0 -->
<g id="node1" class="node">
<title>Node0</title>
<g id="a_node1"><a xlink:href="classboost_1_1hana_1_1integral__constant.html" target="_top" xlink:title=" ">
<polygon fill="white" stroke="black" points="0,-66 0,-85 101,-85 101,-66 0,-66"/>
<text text-anchor="middle" x="50.5" y="-73" font-family="Helvetica,sans-Serif" font-size="10.00">integral_constant</text>
</a>
</g>
</g>
<!-- Node1 -->
<g id="node2" class="node">
<title>Node1</title>
<g id="a_node2"><a xlink:href="structFeel_1_1detail_1_1AdvancedConcatOfTupleContainerType_1_1is__a__t.html" target="_top" xlink:title=" ">
<polygon fill="white" stroke="black" points="137,-120.5 137,-172.5 349,-172.5 349,-120.5 137,-120.5"/>
<text text-anchor="start" x="145" y="-160.5" font-family="Helvetica,sans-Serif" font-size="10.00">Feel::detail::AdvancedConcat</text>
<text text-anchor="start" x="145" y="-149.5" font-family="Helvetica,sans-Serif" font-size="10.00">OfTupleContainerType&lt; FeelppTag</text>
<text text-anchor="start" x="145" y="-138.5" font-family="Helvetica,sans-Serif" font-size="10.00">OfTupleType, FeelppTagOfContainerType</text>
<text text-anchor="middle" x="243" y="-127.5" font-family="Helvetica,sans-Serif" font-size="10.00"> &gt;::is_a_t&lt; Tag, T &gt;</text>
</a>
</g>
</g>
<!-- Node0&#45;&gt;Node1 -->
<g id="edge1" class="edge">
<title>Node0&#45;&gt;Node1</title>
<path fill="none" stroke="midnightblue" d="M82.58,-89.26C98.69,-96.23 118.78,-104.64 137,-111.5 145,-114.51 153.4,-117.54 161.8,-120.48"/>
<polygon fill="midnightblue" stroke="midnightblue" points="83.67,-85.92 73.1,-85.14 80.87,-92.34 83.67,-85.92"/>
</g>
<!-- Node2 -->
<g id="node3" class="node">
<title>Node2</title>
<g id="a_node3"><a xlink:href="structFeel_1_1FeelModels_1_1AdvancedConcatOfMapContainerType_1_1is__a__t.html" target="_top" xlink:title=" ">
<polygon fill="white" stroke="black" points="144.5,-49.5 144.5,-101.5 341.5,-101.5 341.5,-49.5 144.5,-49.5"/>
<text text-anchor="start" x="152.5" y="-89.5" font-family="Helvetica,sans-Serif" font-size="10.00">Feel::FeelModels::Advanced</text>
<text text-anchor="start" x="152.5" y="-78.5" font-family="Helvetica,sans-Serif" font-size="10.00">ConcatOfMapContainerType</text>
<text text-anchor="start" x="152.5" y="-67.5" font-family="Helvetica,sans-Serif" font-size="10.00">&lt; FeelppTagOfMapType, FeelppTagOf</text>
<text text-anchor="middle" x="243" y="-56.5" font-family="Helvetica,sans-Serif" font-size="10.00">ContainerType &gt;::is_a_t&lt; Tag, T &gt;</text>
</a>
</g>
</g>
<!-- Node0&#45;&gt;Node2 -->
<g id="edge2" class="edge">
<title>Node0&#45;&gt;Node2</title>
<path fill="none" stroke="midnightblue" d="M111.33,-75.5C121.85,-75.5 133.05,-75.5 144.29,-75.5"/>
<polygon fill="midnightblue" stroke="midnightblue" points="111.05,-72 101.05,-75.5 111.05,-79 111.05,-72"/>
</g>
<!-- Node3 -->
<g id="node4" class="node">
<title>Node3</title>
<g id="a_node4"><a xlink:href="structstd_1_1tuple__size_3_01boost_1_1hana_1_1tuple_3_01Types_8_8_8_01_4_01_4.html" target="_top" xlink:title=" ">
<polygon fill="white" stroke="black" points="169,-0.5 169,-30.5 317,-30.5 317,-0.5 169,-0.5"/>
<text text-anchor="start" x="177" y="-18.5" font-family="Helvetica,sans-Serif" font-size="10.00">std::tuple_size&lt; boost</text>
<text text-anchor="middle" x="243" y="-7.5" font-family="Helvetica,sans-Serif" font-size="10.00">::hana::tuple&lt; Types... &gt; &gt;</text>
</a>
</g>
</g>
<!-- Node0&#45;&gt;Node3 -->
<g id="edge3" class="edge">
<title>Node0&#45;&gt;Node3</title>
<path fill="none" stroke="midnightblue" d="M81.72,-61.79C97.89,-54.8 118.29,-46.52 137,-40.5 148.24,-36.89 160.3,-33.54 172.11,-30.54"/>
<polygon fill="midnightblue" stroke="midnightblue" points="80,-58.72 72.25,-65.95 82.81,-65.13 80,-58.72"/>
</g>
</g>
</svg>
