<?xml version="1.0" encoding="UTF-8" standalone="no"?>
<!DOCTYPE svg PUBLIC "-//W3C//DTD SVG 1.1//EN"
 "http://www.w3.org/Graphics/SVG/1.1/DTD/svg11.dtd">
<!-- Generated by graphviz version 2.43.0 (0)
 -->
<!-- Title: Graphical Class Hierarchy Pages: 1 -->
<svg width="243pt" height="88pt"
 viewBox="0.00 0.00 243.00 88.00" xmlns="http://www.w3.org/2000/svg" xmlns:xlink="http://www.w3.org/1999/xlink">
<g id="graph0" class="graph" transform="scale(1 1) rotate(0) translate(4 84)">
<title>Graphical Class Hierarchy</title>
<polygon fill="white" stroke="transparent" points="-4,4 -4,-84 239,-84 239,4 -4,4"/>
<!-- Node0 -->
<g id="node1" class="node">
<title>Node0</title>
<g id="a_node1"><a xlink:title=" ">
<polygon fill="white" stroke="#bfbfbf" points="0,-30 0,-49 74,-49 74,-30 0,-30"/>
<text text-anchor="middle" x="37" y="-37" font-family="Helvetica,sans-Serif" font-size="10.00">boost::tuple</text>
</a>
</g>
</g>
<!-- Node1 -->
<g id="node2" class="node">
<title>Node1</title>
<g id="a_node2"><a xlink:href="structFeel_1_1vf_1_1minmaxData.html" target="_top" xlink:title="data returned by minmax">
<polygon fill="white" stroke="black" points="111.5,-49.5 111.5,-79.5 233.5,-79.5 233.5,-49.5 111.5,-49.5"/>
<text text-anchor="start" x="119.5" y="-67.5" font-family="Helvetica,sans-Serif" font-size="10.00">Feel::vf::minmaxData</text>
<text text-anchor="middle" x="172.5" y="-56.5" font-family="Helvetica,sans-Serif" font-size="10.00">&lt; Dim &gt;</text>
</a>
</g>
</g>
<!-- Node0&#45;&gt;Node1 -->
<g id="edge1" class="edge">
<title>Node0&#45;&gt;Node1</title>
<path fill="none" stroke="midnightblue" d="M84.16,-48.14C92.95,-49.79 102.27,-51.54 111.42,-53.25"/>
<polygon fill="midnightblue" stroke="midnightblue" points="84.6,-44.67 74.13,-46.27 83.31,-51.55 84.6,-44.67"/>
</g>
<!-- Node2 -->
<g id="node3" class="node">
<title>Node2</title>
<g id="a_node3"><a xlink:href="structFeel_1_1vf_1_1normLinfData.html" target="_top" xlink:title="data returned by normLinf">
<polygon fill="white" stroke="black" points="110,-0.5 110,-30.5 235,-30.5 235,-0.5 110,-0.5"/>
<text text-anchor="start" x="118" y="-18.5" font-family="Helvetica,sans-Serif" font-size="10.00">Feel::vf::normLinfData</text>
<text text-anchor="middle" x="172.5" y="-7.5" font-family="Helvetica,sans-Serif" font-size="10.00">&lt; Dim &gt;</text>
</a>
</g>
</g>
<!-- Node0&#45;&gt;Node2 -->
<g id="edge2" class="edge">
<title>Node0&#45;&gt;Node2</title>
<path fill="none" stroke="midnightblue" d="M84.02,-31.23C92.36,-29.73 101.18,-28.14 109.88,-26.58"/>
<polygon fill="midnightblue" stroke="midnightblue" points="83.35,-27.79 74.13,-33.01 84.59,-34.68 83.35,-27.79"/>
</g>
</g>
</svg>
