<?xml version="1.0" encoding="UTF-8" standalone="no"?>
<!DOCTYPE svg PUBLIC "-//W3C//DTD SVG 1.1//EN"
 "http://www.w3.org/Graphics/SVG/1.1/DTD/svg11.dtd">
<!-- Generated by graphviz version 2.43.0 (0)
 -->
<!-- Title: Graphical Class Hierarchy Pages: 1 -->
<svg width="608pt" height="340pt"
 viewBox="0.00 0.00 608.00 339.50" xmlns="http://www.w3.org/2000/svg" xmlns:xlink="http://www.w3.org/1999/xlink">
<g id="graph0" class="graph" transform="scale(1 1) rotate(0) translate(4 335.5)">
<title>Graphical Class Hierarchy</title>
<polygon fill="white" stroke="transparent" points="-4,4 -4,-335.5 604,-335.5 604,4 -4,4"/>
<!-- Node0 -->
<g id="node1" class="node">
<title>Node0</title>
<g id="a_node1"><a xlink:href="classFeel_1_1InterpolationTypeBaseBase.html" target="_top" xlink:title=" ">
<polygon fill="white" stroke="black" points="0,-156 0,-186 152,-186 152,-156 0,-156"/>
<text text-anchor="start" x="8" y="-174" font-family="Helvetica,sans-Serif" font-size="10.00">Feel::InterpolationTypeBase</text>
<text text-anchor="middle" x="76" y="-163" font-family="Helvetica,sans-Serif" font-size="10.00">Base&lt; C, O &gt;</text>
</a>
</g>
</g>
<!-- Node1 -->
<g id="node2" class="node">
<title>Node1</title>
<g id="a_node2"><a xlink:href="classFeel_1_1InterpolationTypeBase.html" target="_top" xlink:title=" ">
<polygon fill="white" stroke="black" points="209,-301 209,-331 361,-331 361,-301 209,-301"/>
<text text-anchor="start" x="217" y="-319" font-family="Helvetica,sans-Serif" font-size="10.00">Feel::InterpolationTypeBase</text>
<text text-anchor="middle" x="285" y="-308" font-family="Helvetica,sans-Serif" font-size="10.00">&lt; C, O &gt;</text>
</a>
</g>
</g>
<!-- Node0&#45;&gt;Node1 -->
<g id="edge1" class="edge">
<title>Node0&#45;&gt;Node1</title>
<path fill="none" stroke="midnightblue" d="M92.52,-194.67C111.7,-222 146.87,-266.37 188,-291 194.5,-294.89 201.6,-298.19 208.91,-300.97"/>
<polygon fill="midnightblue" stroke="midnightblue" points="95.19,-192.37 86.65,-186.1 89.42,-196.33 95.19,-192.37"/>
</g>
<!-- Node2 -->
<g id="node3" class="node">
<title>Node2</title>
<g id="a_node3"><a xlink:href="classFeel_1_1InterpolationTypeBase.html" target="_top" xlink:title=" ">
<polygon fill="white" stroke="black" points="202.5,-240.5 202.5,-281.5 367.5,-281.5 367.5,-240.5 202.5,-240.5"/>
<text text-anchor="start" x="210.5" y="-269.5" font-family="Helvetica,sans-Serif" font-size="10.00">Feel::InterpolationTypeBase</text>
<text text-anchor="start" x="210.5" y="-258.5" font-family="Helvetica,sans-Serif" font-size="10.00">&lt; false, interpolation_operand</text>
<text text-anchor="middle" x="285" y="-247.5" font-family="Helvetica,sans-Serif" font-size="10.00">_type::ID &gt;</text>
</a>
</g>
</g>
<!-- Node0&#45;&gt;Node2 -->
<g id="edge2" class="edge">
<title>Node0&#45;&gt;Node2</title>
<path fill="none" stroke="midnightblue" d="M110.66,-191.4C132.24,-203.92 161.16,-219.68 188,-231 195.96,-234.36 204.44,-237.54 212.93,-240.49"/>
<polygon fill="midnightblue" stroke="midnightblue" points="112.28,-188.29 101.88,-186.25 108.74,-194.33 112.28,-188.29"/>
</g>
<!-- Node4 -->
<g id="node5" class="node">
<title>Node4</title>
<g id="a_node5"><a xlink:href="classFeel_1_1InterpolationTypeBase.html" target="_top" xlink:title=" ">
<polygon fill="white" stroke="black" points="188,-180.5 188,-221.5 382,-221.5 382,-180.5 188,-180.5"/>
<text text-anchor="start" x="196" y="-209.5" font-family="Helvetica,sans-Serif" font-size="10.00">Feel::InterpolationTypeBase</text>
<text text-anchor="start" x="196" y="-198.5" font-family="Helvetica,sans-Serif" font-size="10.00">&lt; is_conforming&lt; C &gt;, interpolation</text>
<text text-anchor="middle" x="285" y="-187.5" font-family="Helvetica,sans-Serif" font-size="10.00">_operand_type::CURL &gt;</text>
</a>
</g>
</g>
<!-- Node0&#45;&gt;Node4 -->
<g id="edge4" class="edge">
<title>Node0&#45;&gt;Node4</title>
<path fill="none" stroke="midnightblue" d="M161.99,-183.32C170.57,-184.56 179.32,-185.83 188,-187.09"/>
<polygon fill="midnightblue" stroke="midnightblue" points="162.42,-179.84 152.02,-181.87 161.42,-186.77 162.42,-179.84"/>
</g>
<!-- Node6 -->
<g id="node7" class="node">
<title>Node6</title>
<g id="a_node7"><a xlink:href="classFeel_1_1InterpolationTypeBase.html" target="_top" xlink:title=" ">
<polygon fill="white" stroke="black" points="188,-120.5 188,-161.5 382,-161.5 382,-120.5 188,-120.5"/>
<text text-anchor="start" x="196" y="-149.5" font-family="Helvetica,sans-Serif" font-size="10.00">Feel::InterpolationTypeBase</text>
<text text-anchor="start" x="196" y="-138.5" font-family="Helvetica,sans-Serif" font-size="10.00">&lt; is_conforming&lt; C &gt;, interpolation</text>
<text text-anchor="middle" x="285" y="-127.5" font-family="Helvetica,sans-Serif" font-size="10.00">_operand_type::DIV &gt;</text>
</a>
</g>
</g>
<!-- Node0&#45;&gt;Node6 -->
<g id="edge6" class="edge">
<title>Node0&#45;&gt;Node6</title>
<path fill="none" stroke="midnightblue" d="M161.99,-158.68C170.57,-157.44 179.32,-156.17 188,-154.91"/>
<polygon fill="midnightblue" stroke="midnightblue" points="161.42,-155.23 152.02,-160.13 162.42,-162.16 161.42,-155.23"/>
</g>
<!-- Node8 -->
<g id="node9" class="node">
<title>Node8</title>
<g id="a_node9"><a xlink:href="classFeel_1_1InterpolationTypeBase.html" target="_top" xlink:title=" ">
<polygon fill="white" stroke="black" points="188,-60.5 188,-101.5 382,-101.5 382,-60.5 188,-60.5"/>
<text text-anchor="start" x="196" y="-89.5" font-family="Helvetica,sans-Serif" font-size="10.00">Feel::InterpolationTypeBase</text>
<text text-anchor="start" x="196" y="-78.5" font-family="Helvetica,sans-Serif" font-size="10.00">&lt; is_conforming&lt; C &gt;, interpolation</text>
<text text-anchor="middle" x="285" y="-67.5" font-family="Helvetica,sans-Serif" font-size="10.00">_operand_type::GRADIENT &gt;</text>
</a>
</g>
</g>
<!-- Node0&#45;&gt;Node8 -->
<g id="edge8" class="edge">
<title>Node0&#45;&gt;Node8</title>
<path fill="none" stroke="midnightblue" d="M110.66,-150.6C132.24,-138.08 161.16,-122.32 188,-111 195.96,-107.64 204.44,-104.46 212.93,-101.51"/>
<polygon fill="midnightblue" stroke="midnightblue" points="108.74,-147.67 101.88,-155.75 112.28,-153.71 108.74,-147.67"/>
</g>
<!-- Node10 -->
<g id="node11" class="node">
<title>Node10</title>
<g id="a_node11"><a xlink:href="classFeel_1_1InterpolationTypeBase.html" target="_top" xlink:title=" ">
<polygon fill="white" stroke="black" points="204.5,-0.5 204.5,-41.5 365.5,-41.5 365.5,-0.5 204.5,-0.5"/>
<text text-anchor="start" x="212.5" y="-29.5" font-family="Helvetica,sans-Serif" font-size="10.00">Feel::InterpolationTypeBase</text>
<text text-anchor="start" x="212.5" y="-18.5" font-family="Helvetica,sans-Serif" font-size="10.00">&lt; true, interpolation_operand</text>
<text text-anchor="middle" x="285" y="-7.5" font-family="Helvetica,sans-Serif" font-size="10.00">_type::ID &gt;</text>
</a>
</g>
</g>
<!-- Node0&#45;&gt;Node10 -->
<g id="edge10" class="edge">
<title>Node0&#45;&gt;Node10</title>
<path fill="none" stroke="midnightblue" d="M93.04,-147.24C112.48,-120.2 147.69,-76.47 188,-51 193.61,-47.46 199.67,-44.3 205.92,-41.5"/>
<polygon fill="midnightblue" stroke="midnightblue" points="89.96,-145.53 87.07,-155.73 95.69,-149.56 89.96,-145.53"/>
</g>
<!-- Node3 -->
<g id="node4" class="node">
<title>Node3</title>
<g id="a_node4"><a xlink:href="structFeel_1_1InterpolationNonConforming.html" target="_top" xlink:title=" ">
<polygon fill="white" stroke="black" points="418,-251.5 418,-270.5 600,-270.5 600,-251.5 418,-251.5"/>
<text text-anchor="middle" x="509" y="-258.5" font-family="Helvetica,sans-Serif" font-size="10.00">Feel::InterpolationNonConforming</text>
</a>
</g>
</g>
<!-- Node2&#45;&gt;Node3 -->
<g id="edge3" class="edge">
<title>Node2&#45;&gt;Node3</title>
<path fill="none" stroke="midnightblue" d="M377.76,-261C391.01,-261 404.64,-261 417.85,-261"/>
<polygon fill="midnightblue" stroke="midnightblue" points="377.72,-257.5 367.72,-261 377.72,-264.5 377.72,-257.5"/>
</g>
<!-- Node5 -->
<g id="node6" class="node">
<title>Node5</title>
<g id="a_node6"><a xlink:href="structFeel_1_1InterpolationCurl.html" target="_top" xlink:title=" ">
<polygon fill="white" stroke="black" points="432,-191.5 432,-210.5 586,-210.5 586,-191.5 432,-191.5"/>
<text text-anchor="middle" x="509" y="-198.5" font-family="Helvetica,sans-Serif" font-size="10.00">Feel::InterpolationCurl&lt; C &gt;</text>
</a>
</g>
</g>
<!-- Node4&#45;&gt;Node5 -->
<g id="edge5" class="edge">
<title>Node4&#45;&gt;Node5</title>
<path fill="none" stroke="midnightblue" d="M392.26,-201C405.62,-201 419.07,-201 431.84,-201"/>
<polygon fill="midnightblue" stroke="midnightblue" points="392.08,-197.5 382.08,-201 392.08,-204.5 392.08,-197.5"/>
</g>
<!-- Node7 -->
<g id="node8" class="node">
<title>Node7</title>
<g id="a_node8"><a xlink:href="structFeel_1_1InterpolationDiv.html" target="_top" xlink:title=" ">
<polygon fill="white" stroke="black" points="433.5,-131.5 433.5,-150.5 584.5,-150.5 584.5,-131.5 433.5,-131.5"/>
<text text-anchor="middle" x="509" y="-138.5" font-family="Helvetica,sans-Serif" font-size="10.00">Feel::InterpolationDiv&lt; C &gt;</text>
</a>
</g>
</g>
<!-- Node6&#45;&gt;Node7 -->
<g id="edge7" class="edge">
<title>Node6&#45;&gt;Node7</title>
<path fill="none" stroke="midnightblue" d="M392.15,-141C406.02,-141 419.98,-141 433.19,-141"/>
<polygon fill="midnightblue" stroke="midnightblue" points="392.08,-137.5 382.08,-141 392.08,-144.5 392.08,-137.5"/>
</g>
<!-- Node9 -->
<g id="node10" class="node">
<title>Node9</title>
<g id="a_node10"><a xlink:href="structFeel_1_1InterpolationGradient.html" target="_top" xlink:title=" ">
<polygon fill="white" stroke="black" points="421,-71.5 421,-90.5 597,-90.5 597,-71.5 421,-71.5"/>
<text text-anchor="middle" x="509" y="-78.5" font-family="Helvetica,sans-Serif" font-size="10.00">Feel::InterpolationGradient&lt; C &gt;</text>
</a>
</g>
</g>
<!-- Node8&#45;&gt;Node9 -->
<g id="edge9" class="edge">
<title>Node8&#45;&gt;Node9</title>
<path fill="none" stroke="midnightblue" d="M392.09,-81C401.73,-81 411.42,-81 420.86,-81"/>
<polygon fill="midnightblue" stroke="midnightblue" points="392.08,-77.5 382.08,-81 392.08,-84.5 392.08,-77.5"/>
</g>
<!-- Node11 -->
<g id="node12" class="node">
<title>Node11</title>
<g id="a_node12"><a xlink:href="structFeel_1_1InterpolationConforming.html" target="_top" xlink:title=" ">
<polygon fill="white" stroke="black" points="428,-11.5 428,-30.5 590,-30.5 590,-11.5 428,-11.5"/>
<text text-anchor="middle" x="509" y="-18.5" font-family="Helvetica,sans-Serif" font-size="10.00">Feel::InterpolationConforming</text>
</a>
</g>
</g>
<!-- Node10&#45;&gt;Node11 -->
<g id="edge11" class="edge">
<title>Node10&#45;&gt;Node11</title>
<path fill="none" stroke="midnightblue" d="M375.61,-21C392.92,-21 410.94,-21 427.92,-21"/>
<polygon fill="midnightblue" stroke="midnightblue" points="375.52,-17.5 365.52,-21 375.52,-24.5 375.52,-17.5"/>
</g>
</g>
</svg>
