<?xml version="1.0" encoding="UTF-8" standalone="no"?>
<!DOCTYPE svg PUBLIC "-//W3C//DTD SVG 1.1//EN"
 "http://www.w3.org/Graphics/SVG/1.1/DTD/svg11.dtd">
<!-- Generated by graphviz version 2.43.0 (0)
 -->
<!-- Title: Graphical Class Hierarchy Pages: 1 -->
<svg width="232pt" height="66pt"
 viewBox="0.00 0.00 232.00 66.00" xmlns="http://www.w3.org/2000/svg" xmlns:xlink="http://www.w3.org/1999/xlink">
<g id="graph0" class="graph" transform="scale(1 1) rotate(0) translate(4 62)">
<title>Graphical Class Hierarchy</title>
<polygon fill="white" stroke="transparent" points="-4,4 -4,-62 228,-62 228,4 -4,4"/>
<!-- Node0 -->
<g id="node1" class="node">
<title>Node0</title>
<g id="a_node1"><a xlink:href="classA.html" target="_top" xlink:title=" ">
<polygon fill="white" stroke="black" points="0,-19.5 0,-38.5 29,-38.5 29,-19.5 0,-19.5"/>
<text text-anchor="middle" x="14.5" y="-26.5" font-family="Helvetica,sans-Serif" font-size="10.00">A</text>
</a>
</g>
</g>
<!-- Node1 -->
<g id="node2" class="node">
<title>Node1</title>
<g id="a_node2"><a xlink:href="classB.html" target="_top" xlink:title=" ">
<polygon fill="white" stroke="black" points="65,-38.5 65,-57.5 94,-57.5 94,-38.5 65,-38.5"/>
<text text-anchor="middle" x="79.5" y="-45.5" font-family="Helvetica,sans-Serif" font-size="10.00">B</text>
</a>
</g>
</g>
<!-- Node0&#45;&gt;Node1 -->
<g id="edge1" class="edge">
<title>Node0&#45;&gt;Node1</title>
<path fill="none" stroke="midnightblue" d="M38.86,-36.04C47.61,-38.68 57.27,-41.6 64.86,-43.89"/>
<polygon fill="midnightblue" stroke="midnightblue" points="39.75,-32.66 29.17,-33.12 37.73,-39.36 39.75,-32.66"/>
</g>
<!-- Node4 -->
<g id="node5" class="node">
<title>Node4</title>
<g id="a_node5"><a xlink:href="classC.html" target="_top" xlink:title=" ">
<polygon fill="white" stroke="black" points="65,-0.5 65,-19.5 94,-19.5 94,-0.5 65,-0.5"/>
<text text-anchor="middle" x="79.5" y="-7.5" font-family="Helvetica,sans-Serif" font-size="10.00">C</text>
</a>
</g>
</g>
<!-- Node0&#45;&gt;Node4 -->
<g id="edge4" class="edge">
<title>Node0&#45;&gt;Node4</title>
<path fill="none" stroke="midnightblue" d="M38.86,-21.96C47.61,-19.32 57.27,-16.4 64.86,-14.11"/>
<polygon fill="midnightblue" stroke="midnightblue" points="37.73,-18.64 29.17,-24.88 39.75,-25.34 37.73,-18.64"/>
</g>
<!-- Node2 -->
<g id="node3" class="node">
<title>Node2</title>
<g id="a_node3"><a xlink:href="classD.html" target="_top" xlink:title=" ">
<polygon fill="white" stroke="black" points="130,-38.5 130,-57.5 159,-57.5 159,-38.5 130,-38.5"/>
<text text-anchor="middle" x="144.5" y="-45.5" font-family="Helvetica,sans-Serif" font-size="10.00">D</text>
</a>
</g>
</g>
<!-- Node1&#45;&gt;Node2 -->
<g id="edge2" class="edge">
<title>Node1&#45;&gt;Node2</title>
<path fill="none" stroke="midnightblue" d="M104.43,-48C113.03,-48 122.43,-48 129.86,-48"/>
<polygon fill="midnightblue" stroke="midnightblue" points="104.17,-44.5 94.17,-48 104.17,-51.5 104.17,-44.5"/>
</g>
<!-- Node3 -->
<g id="node4" class="node">
<title>Node3</title>
<g id="a_node4"><a xlink:href="classF.html" target="_top" xlink:title=" ">
<polygon fill="white" stroke="black" points="195,-38.5 195,-57.5 224,-57.5 224,-38.5 195,-38.5"/>
<text text-anchor="middle" x="209.5" y="-45.5" font-family="Helvetica,sans-Serif" font-size="10.00">F</text>
</a>
</g>
</g>
<!-- Node2&#45;&gt;Node3 -->
<g id="edge3" class="edge">
<title>Node2&#45;&gt;Node3</title>
<path fill="none" stroke="midnightblue" d="M169.43,-48C178.03,-48 187.43,-48 194.86,-48"/>
<polygon fill="midnightblue" stroke="midnightblue" points="169.17,-44.5 159.17,-48 169.17,-51.5 169.17,-44.5"/>
</g>
<!-- Node5 -->
<g id="node6" class="node">
<title>Node5</title>
<g id="a_node6"><a xlink:href="classE.html" target="_top" xlink:title=" ">
<polygon fill="white" stroke="black" points="130,-0.5 130,-19.5 159,-19.5 159,-0.5 130,-0.5"/>
<text text-anchor="middle" x="144.5" y="-7.5" font-family="Helvetica,sans-Serif" font-size="10.00">E</text>
</a>
</g>
</g>
<!-- Node4&#45;&gt;Node5 -->
<g id="edge5" class="edge">
<title>Node4&#45;&gt;Node5</title>
<path fill="none" stroke="midnightblue" d="M104.43,-10C113.03,-10 122.43,-10 129.86,-10"/>
<polygon fill="midnightblue" stroke="midnightblue" points="104.17,-6.5 94.17,-10 104.17,-13.5 104.17,-6.5"/>
</g>
</g>
</svg>
