<?xml version="1.0" encoding="UTF-8" standalone="no"?>
<!DOCTYPE svg PUBLIC "-//W3C//DTD SVG 1.1//EN"
 "http://www.w3.org/Graphics/SVG/1.1/DTD/svg11.dtd">
<!-- Generated by graphviz version 2.43.0 (0)
 -->
<!-- Title: Graphical Class Hierarchy Pages: 1 -->
<svg width="629pt" height="230pt"
 viewBox="0.00 0.00 629.00 230.00" xmlns="http://www.w3.org/2000/svg" xmlns:xlink="http://www.w3.org/1999/xlink">
<g id="graph0" class="graph" transform="scale(1 1) rotate(0) translate(4 226)">
<title>Graphical Class Hierarchy</title>
<polygon fill="white" stroke="transparent" points="-4,4 -4,-226 625,-226 625,4 -4,4"/>
<!-- Node0 -->
<g id="node1" class="node">
<title>Node0</title>
<g id="a_node1"><a xlink:href="classFeel_1_1FsFunctional.html" target="_top" xlink:title=" ">
<polygon fill="white" stroke="black" points="0,-117.5 0,-147.5 104,-147.5 104,-117.5 0,-117.5"/>
<text text-anchor="start" x="8" y="-135.5" font-family="Helvetica,sans-Serif" font-size="10.00">Feel::FsFunctional</text>
<text text-anchor="middle" x="52" y="-124.5" font-family="Helvetica,sans-Serif" font-size="10.00">&lt; Space &gt;</text>
</a>
</g>
</g>
<!-- Node1 -->
<g id="node2" class="node">
<title>Node1</title>
<g id="a_node2"><a xlink:href="classFeel_1_1FsFunctionalLinear.html" target="_top" xlink:title=" ">
<polygon fill="white" stroke="black" points="140,-117.5 140,-147.5 274,-147.5 274,-117.5 140,-117.5"/>
<text text-anchor="start" x="148" y="-135.5" font-family="Helvetica,sans-Serif" font-size="10.00">Feel::FsFunctionalLinear</text>
<text text-anchor="middle" x="207" y="-124.5" font-family="Helvetica,sans-Serif" font-size="10.00">&lt; Space &gt;</text>
</a>
</g>
</g>
<!-- Node0&#45;&gt;Node1 -->
<g id="edge1" class="edge">
<title>Node0&#45;&gt;Node1</title>
<path fill="none" stroke="midnightblue" d="M114.42,-132.5C122.77,-132.5 131.38,-132.5 139.82,-132.5"/>
<polygon fill="midnightblue" stroke="midnightblue" points="114.37,-129 104.37,-132.5 114.37,-136 114.37,-129"/>
</g>
<!-- Node2 -->
<g id="node3" class="node">
<title>Node2</title>
<g id="a_node3"><a xlink:href="classFeel_1_1FsFunctionalLinearComposite.html" target="_top" xlink:title=" ">
<polygon fill="white" stroke="black" points="319,-191.5 319,-221.5 453,-221.5 453,-191.5 319,-191.5"/>
<text text-anchor="start" x="327" y="-209.5" font-family="Helvetica,sans-Serif" font-size="10.00">Feel::FsFunctionalLinear</text>
<text text-anchor="middle" x="386" y="-198.5" font-family="Helvetica,sans-Serif" font-size="10.00">Composite&lt; Space &gt;</text>
</a>
</g>
</g>
<!-- Node1&#45;&gt;Node2 -->
<g id="edge2" class="edge">
<title>Node1&#45;&gt;Node2</title>
<path fill="none" stroke="midnightblue" d="M245.04,-152.28C264.14,-162.06 287.99,-173.64 310,-182.5 317.86,-185.67 326.32,-188.71 334.61,-191.49"/>
<polygon fill="midnightblue" stroke="midnightblue" points="246.56,-149.13 236.07,-147.64 243.35,-155.35 246.56,-149.13"/>
</g>
<!-- Node3 -->
<g id="node4" class="node">
<title>Node3</title>
<g id="a_node4"><a xlink:href="classFeel_1_1FsFunctionalLinearFree.html" target="_top" xlink:title=" ">
<polygon fill="white" stroke="black" points="316,-142.5 316,-172.5 456,-172.5 456,-142.5 316,-142.5"/>
<text text-anchor="start" x="324" y="-160.5" font-family="Helvetica,sans-Serif" font-size="10.00">Feel::FsFunctionalLinear</text>
<text text-anchor="middle" x="386" y="-149.5" font-family="Helvetica,sans-Serif" font-size="10.00">Free&lt; Space, ExprType &gt;</text>
</a>
</g>
</g>
<!-- Node1&#45;&gt;Node3 -->
<g id="edge3" class="edge">
<title>Node1&#45;&gt;Node3</title>
<path fill="none" stroke="midnightblue" d="M284.19,-143.26C294.75,-144.75 305.55,-146.28 315.96,-147.75"/>
<polygon fill="midnightblue" stroke="midnightblue" points="284.55,-139.78 274.16,-141.84 283.57,-146.71 284.55,-139.78"/>
</g>
<!-- Node4 -->
<g id="node5" class="node">
<title>Node4</title>
<g id="a_node5"><a xlink:href="classFeel_1_1SensorBase.html" target="_top" xlink:title="base class for sensors">
<polygon fill="white" stroke="black" points="314.5,-93.5 314.5,-123.5 457.5,-123.5 457.5,-93.5 314.5,-93.5"/>
<text text-anchor="start" x="322.5" y="-111.5" font-family="Helvetica,sans-Serif" font-size="10.00">Feel::SensorBase&lt; Space,</text>
<text text-anchor="middle" x="386" y="-100.5" font-family="Helvetica,sans-Serif" font-size="10.00"> ValueT &gt;</text>
</a>
</g>
</g>
<!-- Node1&#45;&gt;Node4 -->
<g id="edge4" class="edge">
<title>Node1&#45;&gt;Node4</title>
<path fill="none" stroke="midnightblue" d="M284.14,-122.18C294.21,-120.81 304.5,-119.41 314.48,-118.06"/>
<polygon fill="midnightblue" stroke="midnightblue" points="283.6,-118.72 274.16,-123.53 284.54,-125.65 283.6,-118.72"/>
</g>
<!-- Node5 -->
<g id="node6" class="node">
<title>Node5</title>
<g id="a_node6"><a xlink:href="classFeel_1_1SensorBase.html" target="_top" xlink:title=" ">
<polygon fill="white" stroke="black" points="310,-55 310,-74 462,-74 462,-55 310,-55"/>
<text text-anchor="middle" x="386" y="-62" font-family="Helvetica,sans-Serif" font-size="10.00">Feel::SensorBase&lt; Space &gt;</text>
</a>
</g>
</g>
<!-- Node1&#45;&gt;Node5 -->
<g id="edge5" class="edge">
<title>Node1&#45;&gt;Node5</title>
<path fill="none" stroke="midnightblue" d="M245.62,-112.82C264.58,-103.41 288.14,-92.48 310,-84.5 320.76,-80.57 332.64,-77.04 343.72,-74.09"/>
<polygon fill="midnightblue" stroke="midnightblue" points="243.79,-109.82 236.43,-117.44 246.94,-116.07 243.79,-109.82"/>
</g>
<!-- Node6 -->
<g id="node7" class="node">
<title>Node6</title>
<g id="a_node7"><a xlink:href="classFeel_1_1SensorGaussian.html" target="_top" xlink:title="gaussian type sensor">
<polygon fill="white" stroke="black" points="499,-98.5 499,-128.5 620,-128.5 620,-98.5 499,-98.5"/>
<text text-anchor="start" x="507" y="-116.5" font-family="Helvetica,sans-Serif" font-size="10.00">Feel::SensorGaussian</text>
<text text-anchor="middle" x="559.5" y="-105.5" font-family="Helvetica,sans-Serif" font-size="10.00">&lt; Space &gt;</text>
</a>
</g>
</g>
<!-- Node5&#45;&gt;Node6 -->
<g id="edge6" class="edge">
<title>Node5&#45;&gt;Node6</title>
<path fill="none" stroke="midnightblue" d="M433.37,-76.62C442.86,-79.17 452.76,-81.88 462,-84.5 477.48,-88.89 494.3,-93.87 509.49,-98.45"/>
<polygon fill="midnightblue" stroke="midnightblue" points="434.25,-73.23 423.68,-74.04 432.44,-80 434.25,-73.23"/>
</g>
<!-- Node7 -->
<g id="node8" class="node">
<title>Node7</title>
<g id="a_node8"><a xlink:href="classFeel_1_1SensorPointwise.html" target="_top" xlink:title="pointwise type sensor">
<polygon fill="white" stroke="black" points="498,-49.5 498,-79.5 621,-79.5 621,-49.5 498,-49.5"/>
<text text-anchor="start" x="506" y="-67.5" font-family="Helvetica,sans-Serif" font-size="10.00">Feel::SensorPointwise</text>
<text text-anchor="middle" x="559.5" y="-56.5" font-family="Helvetica,sans-Serif" font-size="10.00">&lt; Space &gt;</text>
</a>
</g>
</g>
<!-- Node5&#45;&gt;Node7 -->
<g id="edge7" class="edge">
<title>Node5&#45;&gt;Node7</title>
<path fill="none" stroke="midnightblue" d="M472.29,-64.5C480.89,-64.5 489.49,-64.5 497.75,-64.5"/>
<polygon fill="midnightblue" stroke="midnightblue" points="472.22,-61 462.22,-64.5 472.22,-68 472.22,-61"/>
</g>
<!-- Node8 -->
<g id="node9" class="node">
<title>Node8</title>
<g id="a_node9"><a xlink:href="classFeel_1_1SensorSurface.html" target="_top" xlink:title="surface type sensor">
<polygon fill="white" stroke="black" points="503,-0.5 503,-30.5 616,-30.5 616,-0.5 503,-0.5"/>
<text text-anchor="start" x="511" y="-18.5" font-family="Helvetica,sans-Serif" font-size="10.00">Feel::SensorSurface</text>
<text text-anchor="middle" x="559.5" y="-7.5" font-family="Helvetica,sans-Serif" font-size="10.00">&lt; Space &gt;</text>
</a>
</g>
</g>
<!-- Node5&#45;&gt;Node8 -->
<g id="edge8" class="edge">
<title>Node5&#45;&gt;Node8</title>
<path fill="none" stroke="midnightblue" d="M430.28,-52.13C453.24,-45.57 481.64,-37.46 505.87,-30.54"/>
<polygon fill="midnightblue" stroke="midnightblue" points="429.13,-48.82 420.47,-54.94 431.05,-55.55 429.13,-48.82"/>
</g>
</g>
</svg>
