<?xml version="1.0" encoding="UTF-8" standalone="no"?>
<!DOCTYPE svg PUBLIC "-//W3C//DTD SVG 1.1//EN"
 "http://www.w3.org/Graphics/SVG/1.1/DTD/svg11.dtd">
<!-- Generated by graphviz version 2.43.0 (0)
 -->
<!-- Title: Graphical Class Hierarchy Pages: 1 -->
<svg width="604pt" height="61pt"
 viewBox="0.00 0.00 604.00 61.00" xmlns="http://www.w3.org/2000/svg" xmlns:xlink="http://www.w3.org/1999/xlink">
<g id="graph0" class="graph" transform="scale(1 1) rotate(0) translate(4 57)">
<title>Graphical Class Hierarchy</title>
<polygon fill="white" stroke="transparent" points="-4,4 -4,-57 600,-57 600,4 -4,4"/>
<!-- Node0 -->
<g id="node1" class="node">
<title>Node0</title>
<g id="a_node1"><a xlink:href="classFeel_1_1Operator.html" target="_top" xlink:title=" ">
<polygon fill="white" stroke="black" points="0,-0.5 0,-52.5 181,-52.5 181,-0.5 0,-0.5"/>
<text text-anchor="start" x="8" y="-40.5" font-family="Helvetica,sans-Serif" font-size="10.00">Feel::Operator&lt; SpaceType,</text>
<text text-anchor="start" x="8" y="-29.5" font-family="Helvetica,sans-Serif" font-size="10.00"> detailOpLagP1::SpaceToLagrange</text>
<text text-anchor="start" x="8" y="-18.5" font-family="Helvetica,sans-Serif" font-size="10.00">P1Space&lt; SpaceType &gt;::image</text>
<text text-anchor="middle" x="90.5" y="-7.5" font-family="Helvetica,sans-Serif" font-size="10.00">_space_type &gt;</text>
</a>
</g>
</g>
<!-- Node1 -->
<g id="node2" class="node">
<title>Node1</title>
<g id="a_node2"><a xlink:href="classFeel_1_1OperatorLinear.html" target="_top" xlink:title=" ">
<polygon fill="white" stroke="black" points="217,-0.5 217,-52.5 417,-52.5 417,-0.5 217,-0.5"/>
<text text-anchor="start" x="225" y="-40.5" font-family="Helvetica,sans-Serif" font-size="10.00">Feel::OperatorLinear</text>
<text text-anchor="start" x="225" y="-29.5" font-family="Helvetica,sans-Serif" font-size="10.00">&lt; SpaceType, detailOpLagP1</text>
<text text-anchor="start" x="225" y="-18.5" font-family="Helvetica,sans-Serif" font-size="10.00">::SpaceToLagrangeP1Space</text>
<text text-anchor="middle" x="317" y="-7.5" font-family="Helvetica,sans-Serif" font-size="10.00">&lt; SpaceType &gt;::image_space_type &gt;</text>
</a>
</g>
</g>
<!-- Node0&#45;&gt;Node1 -->
<g id="edge1" class="edge">
<title>Node0&#45;&gt;Node1</title>
<path fill="none" stroke="midnightblue" d="M191.44,-26.5C199.88,-26.5 208.42,-26.5 216.86,-26.5"/>
<polygon fill="midnightblue" stroke="midnightblue" points="191.2,-23 181.2,-26.5 191.2,-30 191.2,-23"/>
</g>
<!-- Node2 -->
<g id="node3" class="node">
<title>Node2</title>
<g id="a_node3"><a xlink:href="classFeel_1_1OperatorLagrangeP1.html" target="_top" xlink:title=" ">
<polygon fill="white" stroke="black" points="453,-11.5 453,-41.5 596,-41.5 596,-11.5 453,-11.5"/>
<text text-anchor="start" x="461" y="-29.5" font-family="Helvetica,sans-Serif" font-size="10.00">Feel::OperatorLagrangeP1</text>
<text text-anchor="middle" x="524.5" y="-18.5" font-family="Helvetica,sans-Serif" font-size="10.00">&lt; SpaceType &gt;</text>
</a>
</g>
</g>
<!-- Node1&#45;&gt;Node2 -->
<g id="edge2" class="edge">
<title>Node1&#45;&gt;Node2</title>
<path fill="none" stroke="midnightblue" d="M427.36,-26.5C436.05,-26.5 444.68,-26.5 453,-26.5"/>
<polygon fill="midnightblue" stroke="midnightblue" points="427.14,-23 417.14,-26.5 427.14,-30 427.14,-23"/>
</g>
</g>
</svg>
