<?xml version="1.0" encoding="UTF-8" standalone="no"?>
<!DOCTYPE svg PUBLIC "-//W3C//DTD SVG 1.1//EN"
 "http://www.w3.org/Graphics/SVG/1.1/DTD/svg11.dtd">
<!-- Generated by graphviz version 2.43.0 (0)
 -->
<!-- Title: Graphical Class Hierarchy Pages: 1 -->
<svg width="1124pt" height="798pt"
 viewBox="0.00 0.00 1124.00 798.00" xmlns="http://www.w3.org/2000/svg" xmlns:xlink="http://www.w3.org/1999/xlink">
<g id="graph0" class="graph" transform="scale(1 1) rotate(0) translate(4 794)">
<title>Graphical Class Hierarchy</title>
<polygon fill="white" stroke="transparent" points="-4,4 -4,-794 1120,-794 1120,4 -4,4"/>
<!-- Node1105 -->
<g id="node1" class="node">
<title>Node1105</title>
<g id="a_node1"><a xlink:title=" ">
<polygon fill="white" stroke="#bfbfbf" points="306.5,-514.5 306.5,-533.5 425.5,-533.5 425.5,-514.5 306.5,-514.5"/>
<text text-anchor="middle" x="366" y="-521.5" font-family="Helvetica,sans-Serif" font-size="10.00">equality_comparable</text>
</a>
</g>
</g>
<!-- Node1096 -->
<g id="node2" class="node">
<title>Node1096</title>
<g id="a_node2"><a xlink:href="classFeel_1_1detail_1_1TimeSet_1_1Step.html" target="_top" xlink:title="a step in a time set">
<polygon fill="white" stroke="black" points="487.5,-465 487.5,-495 616.5,-495 616.5,-465 487.5,-465"/>
<text text-anchor="start" x="495.5" y="-483" font-family="Helvetica,sans-Serif" font-size="10.00">Feel::detail::TimeSet</text>
<text text-anchor="middle" x="552" y="-472" font-family="Helvetica,sans-Serif" font-size="10.00">&lt; MeshType, N &gt;::Step</text>
</a>
</g>
</g>
<!-- Node1105&#45;&gt;Node1096 -->
<g id="edge1" class="edge">
<title>Node1105&#45;&gt;Node1096</title>
<path fill="none" stroke="#8b1a1a" d="M416.7,-512.12C438.65,-506.87 464.7,-500.64 488,-495.07"/>
<polygon fill="#8b1a1a" stroke="#8b1a1a" points="415.84,-508.72 406.93,-514.45 417.47,-515.53 415.84,-508.72"/>
</g>
<!-- Node579 -->
<g id="node3" class="node">
<title>Node579</title>
<g id="a_node3"><a xlink:href="classFeel_1_1Geo0D.html" target="_top" xlink:title=" ">
<polygon fill="white" stroke="black" points="720,-553 720,-583 842,-583 842,-553 720,-553"/>
<text text-anchor="start" x="728" y="-571" font-family="Helvetica,sans-Serif" font-size="10.00">Feel::Geo0D&lt; Dim, T,</text>
<text text-anchor="middle" x="781" y="-560" font-family="Helvetica,sans-Serif" font-size="10.00"> IndexT &gt;</text>
</a>
</g>
</g>
<!-- Node1105&#45;&gt;Node579 -->
<g id="edge2" class="edge">
<title>Node1105&#45;&gt;Node579</title>
<path fill="none" stroke="midnightblue" d="M423.28,-537.67C428.15,-540.03 432.82,-542.78 437,-546 460.74,-564.28 446.76,-588.54 473,-603 548.61,-644.68 583.23,-613.89 667,-593 684.06,-588.75 702.66,-584.48 719.75,-580.71"/>
<polygon fill="midnightblue" stroke="midnightblue" points="424.27,-534.29 413.7,-533.62 421.55,-540.74 424.27,-534.29"/>
</g>
<!-- Node881 -->
<g id="node4" class="node">
<title>Node881</title>
<g id="a_node4"><a xlink:href="classFeel_1_1GeoEntity.html" target="_top" xlink:title="base class for all geometric entities">
<polygon fill="white" stroke="black" points="485,-416 485,-446 619,-446 619,-416 485,-416"/>
<text text-anchor="start" x="493" y="-434" font-family="Helvetica,sans-Serif" font-size="10.00">Feel::GeoEntity&lt; Entity,</text>
<text text-anchor="middle" x="552" y="-423" font-family="Helvetica,sans-Serif" font-size="10.00"> T, IndexT &gt;</text>
</a>
</g>
</g>
<!-- Node1105&#45;&gt;Node881 -->
<g id="edge3" class="edge">
<title>Node1105&#45;&gt;Node881</title>
<path fill="none" stroke="#8b1a1a" d="M387.76,-508.36C408.47,-493.33 441.64,-470.77 473,-456 480.72,-452.36 489.1,-449.06 497.42,-446.13"/>
<polygon fill="#8b1a1a" stroke="#8b1a1a" points="385.41,-505.74 379.43,-514.49 389.56,-511.38 385.41,-505.74"/>
</g>
<!-- Node580 -->
<g id="node5" class="node">
<title>Node580</title>
<g id="a_node5"><a xlink:href="classFeel_1_1Geo0D.html" target="_top" xlink:title=" ">
<polygon fill="white" stroke="black" points="729,-514.5 729,-533.5 833,-533.5 833,-514.5 729,-514.5"/>
<text text-anchor="middle" x="781" y="-521.5" font-family="Helvetica,sans-Serif" font-size="10.00">Feel::Geo0D&lt; 3 &gt;</text>
</a>
</g>
</g>
<!-- Node1105&#45;&gt;Node580 -->
<g id="edge4" class="edge">
<title>Node1105&#45;&gt;Node580</title>
<path fill="none" stroke="midnightblue" d="M435.78,-524C518.42,-524 655.13,-524 728.95,-524"/>
<polygon fill="midnightblue" stroke="midnightblue" points="435.73,-520.5 425.73,-524 435.73,-527.5 435.73,-520.5"/>
</g>
<!-- Node581 -->
<g id="node6" class="node">
<title>Node581</title>
<g id="a_node6"><a xlink:href="classFeel_1_1Geo0D.html" target="_top" xlink:title=" ">
<polygon fill="white" stroke="black" points="706.5,-602 706.5,-632 855.5,-632 855.5,-602 706.5,-602"/>
<text text-anchor="start" x="714.5" y="-620" font-family="Helvetica,sans-Serif" font-size="10.00">Feel::Geo0D&lt; Dim, double,</text>
<text text-anchor="middle" x="781" y="-609" font-family="Helvetica,sans-Serif" font-size="10.00"> uint32_type &gt;</text>
</a>
</g>
</g>
<!-- Node1105&#45;&gt;Node581 -->
<g id="edge5" class="edge">
<title>Node1105&#45;&gt;Node581</title>
<path fill="none" stroke="midnightblue" d="M425.51,-537.97C429.64,-540.26 433.54,-542.91 437,-546 466.39,-572.23 439.97,-605.53 473,-627 554.72,-680.1 676.21,-652.29 739.05,-632.03"/>
<polygon fill="midnightblue" stroke="midnightblue" points="426.69,-534.66 416.16,-533.55 423.7,-540.99 426.69,-534.66"/>
</g>
<!-- Node366 -->
<g id="node8" class="node">
<title>Node366</title>
<g id="a_node8"><a xlink:href="classFeel_1_1GeoEntity.html" target="_top" xlink:title=" ">
<polygon fill="white" stroke="black" points="473,-252 473,-282 631,-282 631,-252 473,-252"/>
<text text-anchor="start" x="481" y="-270" font-family="Helvetica,sans-Serif" font-size="10.00">Feel::GeoEntity&lt; GEOSHAPE,</text>
<text text-anchor="middle" x="552" y="-259" font-family="Helvetica,sans-Serif" font-size="10.00"> double &gt;</text>
</a>
</g>
</g>
<!-- Node1105&#45;&gt;Node366 -->
<g id="edge7" class="edge">
<title>Node1105&#45;&gt;Node366</title>
<path fill="none" stroke="#8b1a1a" d="M385.17,-506.81C399.97,-492.36 420.95,-470.79 437,-450 482.06,-391.63 525.28,-314.73 542.81,-282.38"/>
<polygon fill="#8b1a1a" stroke="#8b1a1a" points="382.43,-504.59 377.66,-514.06 387.29,-509.63 382.43,-504.59"/>
</g>
<!-- Node578 -->
<g id="node15" class="node">
<title>Node578</title>
<g id="a_node15"><a xlink:href="classFeel_1_1GeoEntity.html" target="_top" xlink:title=" ">
<polygon fill="white" stroke="black" points="481,-552.5 481,-593.5 623,-593.5 623,-552.5 481,-552.5"/>
<text text-anchor="start" x="489" y="-581.5" font-family="Helvetica,sans-Serif" font-size="10.00">Feel::GeoEntity&lt; Simplex</text>
<text text-anchor="start" x="489" y="-570.5" font-family="Helvetica,sans-Serif" font-size="10.00">&lt; 0, 1, Dim &gt;, double,</text>
<text text-anchor="middle" x="552" y="-559.5" font-family="Helvetica,sans-Serif" font-size="10.00"> uint32_type &gt;</text>
</a>
</g>
</g>
<!-- Node1105&#45;&gt;Node578 -->
<g id="edge14" class="edge">
<title>Node1105&#45;&gt;Node578</title>
<path fill="none" stroke="#8b1a1a" d="M412.66,-536.16C433.25,-541.64 458.03,-548.24 480.89,-554.33"/>
<polygon fill="#8b1a1a" stroke="#8b1a1a" points="413.48,-532.76 402.91,-533.56 411.68,-539.52 413.48,-532.76"/>
</g>
<!-- Node26 -->
<g id="node7" class="node">
<title>Node26</title>
<g id="a_node7"><a xlink:href="classFeel_1_1GeoElement0D.html" target="_top" xlink:title="Class for Points and Vertices.">
<polygon fill="white" stroke="black" points="945,-533 945,-563 1102,-563 1102,-533 945,-533"/>
<text text-anchor="start" x="953" y="-551" font-family="Helvetica,sans-Serif" font-size="10.00">Feel::GeoElement0D</text>
<text text-anchor="middle" x="1023.5" y="-540" font-family="Helvetica,sans-Serif" font-size="10.00">&lt; Dim, SubFace, T, IndexT &gt;</text>
</a>
</g>
</g>
<!-- Node581&#45;&gt;Node26 -->
<g id="edge6" class="edge">
<title>Node581&#45;&gt;Node26</title>
<path fill="none" stroke="midnightblue" d="M865.53,-600.54C875.51,-598.2 885.52,-595.67 895,-593 925.39,-584.45 959.04,-572.46 984.14,-563.01"/>
<polygon fill="midnightblue" stroke="midnightblue" points="864.55,-597.17 855.59,-602.82 866.12,-604 864.55,-597.17"/>
</g>
<!-- Node367 -->
<g id="node9" class="node">
<title>Node367</title>
<g id="a_node9"><a xlink:href="classFeel_1_1GeoND.html" target="_top" xlink:title="Base class for Multi&#45;dimensional basis Geometrical Entities.">
<polygon fill="white" stroke="black" points="682.5,-104.5 682.5,-145.5 879.5,-145.5 879.5,-104.5 682.5,-104.5"/>
<text text-anchor="start" x="690.5" y="-133.5" font-family="Helvetica,sans-Serif" font-size="10.00">Feel::GeoND&lt; Dim, GEOSHAPE,</text>
<text text-anchor="start" x="690.5" y="-122.5" font-family="Helvetica,sans-Serif" font-size="10.00"> T, IndexT, POINTTYPE, UseMeasures</text>
<text text-anchor="middle" x="781" y="-111.5" font-family="Helvetica,sans-Serif" font-size="10.00">Storage &gt;</text>
</a>
</g>
</g>
<!-- Node366&#45;&gt;Node367 -->
<g id="edge8" class="edge">
<title>Node366&#45;&gt;Node367</title>
<path fill="none" stroke="midnightblue" d="M625.62,-246.4C627.5,-245.03 629.3,-243.56 631,-242 661.54,-213.99 635.88,-183.35 667,-156 671.66,-151.9 676.81,-148.34 682.28,-145.25"/>
<polygon fill="midnightblue" stroke="midnightblue" points="623.54,-243.57 616.93,-251.85 627.26,-249.5 623.54,-243.57"/>
</g>
<!-- Node368 -->
<g id="node10" class="node">
<title>Node368</title>
<g id="a_node10"><a xlink:href="classFeel_1_1GeoND.html" target="_top" xlink:title=" ">
<polygon fill="white" stroke="black" points="676.5,-165 676.5,-217 885.5,-217 885.5,-165 676.5,-165"/>
<text text-anchor="start" x="684.5" y="-205" font-family="Helvetica,sans-Serif" font-size="10.00">Feel::GeoND&lt; Dim, GEOSHAPE,</text>
<text text-anchor="start" x="684.5" y="-194" font-family="Helvetica,sans-Serif" font-size="10.00"> double, uint32_type, GeoElement0</text>
<text text-anchor="start" x="684.5" y="-183" font-family="Helvetica,sans-Serif" font-size="10.00">D&lt; Dim, SubFaceOfNone&lt; 0 &gt;, double,</text>
<text text-anchor="middle" x="781" y="-172" font-family="Helvetica,sans-Serif" font-size="10.00"> uint32_type &gt;, false &gt;</text>
</a>
</g>
</g>
<!-- Node366&#45;&gt;Node368 -->
<g id="edge9" class="edge">
<title>Node366&#45;&gt;Node368</title>
<path fill="none" stroke="midnightblue" d="M611.81,-248.74C618.31,-246.55 624.81,-244.28 631,-242 647.27,-236.02 650.73,-232.97 667,-227 676.18,-223.63 685.85,-220.27 695.5,-217.04"/>
<polygon fill="midnightblue" stroke="midnightblue" points="610.7,-245.42 602.31,-251.89 612.91,-252.06 610.7,-245.42"/>
</g>
<!-- Node369 -->
<g id="node13" class="node">
<title>Node369</title>
<g id="a_node13"><a xlink:href="classFeel_1_1GeoND.html" target="_top" xlink:title=" ">
<polygon fill="white" stroke="black" points="667,-274.5 667,-403.5 895,-403.5 895,-274.5 667,-274.5"/>
<text text-anchor="start" x="675" y="-391.5" font-family="Helvetica,sans-Serif" font-size="10.00">Feel::GeoND&lt; Dim, GEOSHAPE,</text>
<text text-anchor="start" x="675" y="-380.5" font-family="Helvetica,sans-Serif" font-size="10.00"> double, uint32_type, mpl</text>
<text text-anchor="start" x="675" y="-369.5" font-family="Helvetica,sans-Serif" font-size="10.00">::if_&lt; mpl::bool_&lt; false &gt;</text>
<text text-anchor="start" x="675" y="-358.5" font-family="Helvetica,sans-Serif" font-size="10.00">, mpl::identity&lt; GeoElement0D</text>
<text text-anchor="start" x="675" y="-347.5" font-family="Helvetica,sans-Serif" font-size="10.00">&lt; Dim, SubFaceOf&lt; GeoElement1D</text>
<text text-anchor="start" x="675" y="-336.5" font-family="Helvetica,sans-Serif" font-size="10.00">&lt; Dim, GEOSHAPE, SubFaceOfNone</text>
<text text-anchor="start" x="675" y="-325.5" font-family="Helvetica,sans-Serif" font-size="10.00">&lt; 0 &gt;, double, uint32_type, false,</text>
<text text-anchor="start" x="675" y="-314.5" font-family="Helvetica,sans-Serif" font-size="10.00"> false &gt; &gt;, double, uint32_type &gt;</text>
<text text-anchor="start" x="675" y="-303.5" font-family="Helvetica,sans-Serif" font-size="10.00"> &gt;, mpl::identity&lt; GeoElement0D&lt; Dim,</text>
<text text-anchor="start" x="675" y="-292.5" font-family="Helvetica,sans-Serif" font-size="10.00"> SubFaceOfNone&lt; 0 &gt;, double, uint32_type</text>
<text text-anchor="middle" x="781" y="-281.5" font-family="Helvetica,sans-Serif" font-size="10.00"> &gt; &gt; &gt;::type::type, false &gt;</text>
</a>
</g>
</g>
<!-- Node366&#45;&gt;Node369 -->
<g id="edge12" class="edge">
<title>Node366&#45;&gt;Node369</title>
<path fill="none" stroke="midnightblue" d="M610.21,-285.15C627.51,-290.63 647.15,-296.86 666.77,-303.09"/>
<polygon fill="midnightblue" stroke="midnightblue" points="610.9,-281.69 600.31,-282.01 608.78,-288.37 610.9,-281.69"/>
</g>
<!-- Node29 -->
<g id="node11" class="node">
<title>Node29</title>
<g id="a_node11"><a xlink:href="classFeel_1_1GeoElement2D.html" target="_top" xlink:title="Class for 2D elements.">
<polygon fill="white" stroke="black" points="931,-227.5 931,-268.5 1116,-268.5 1116,-227.5 931,-227.5"/>
<text text-anchor="start" x="939" y="-256.5" font-family="Helvetica,sans-Serif" font-size="10.00">Feel::GeoElement2D</text>
<text text-anchor="start" x="939" y="-245.5" font-family="Helvetica,sans-Serif" font-size="10.00">&lt; Dim, GEOSHAPE, SubFace,</text>
<text text-anchor="middle" x="1023.5" y="-234.5" font-family="Helvetica,sans-Serif" font-size="10.00"> T, IndexT, UseMeasuresStorage &gt;</text>
</a>
</g>
</g>
<!-- Node368&#45;&gt;Node29 -->
<g id="edge10" class="edge">
<title>Node368&#45;&gt;Node29</title>
<path fill="none" stroke="midnightblue" d="M895.54,-217.91C909.03,-221.11 922.64,-224.33 935.68,-227.42"/>
<polygon fill="midnightblue" stroke="midnightblue" points="896.28,-214.49 885.74,-215.59 894.66,-221.3 896.28,-214.49"/>
</g>
<!-- Node30 -->
<g id="node12" class="node">
<title>Node30</title>
<g id="a_node12"><a xlink:href="classFeel_1_1GeoElement3D.html" target="_top" xlink:title="Class for 3D elements.">
<polygon fill="white" stroke="black" points="937,-167.5 937,-208.5 1110,-208.5 1110,-167.5 937,-167.5"/>
<text text-anchor="start" x="945" y="-196.5" font-family="Helvetica,sans-Serif" font-size="10.00">Feel::GeoElement3D</text>
<text text-anchor="start" x="945" y="-185.5" font-family="Helvetica,sans-Serif" font-size="10.00">&lt; Dim, GEOSHAPE, T,</text>
<text text-anchor="middle" x="1023.5" y="-174.5" font-family="Helvetica,sans-Serif" font-size="10.00"> IndexT, UseMeasuresStorage &gt;</text>
</a>
</g>
</g>
<!-- Node368&#45;&gt;Node30 -->
<g id="edge11" class="edge">
<title>Node368&#45;&gt;Node30</title>
<path fill="none" stroke="midnightblue" d="M895.76,-189.58C909.57,-189.41 923.49,-189.24 936.79,-189.07"/>
<polygon fill="midnightblue" stroke="midnightblue" points="895.69,-186.08 885.74,-189.71 895.78,-193.08 895.69,-186.08"/>
</g>
<!-- Node28 -->
<g id="node14" class="node">
<title>Node28</title>
<g id="a_node14"><a xlink:href="classFeel_1_1GeoElement1D.html" target="_top" xlink:title="class for 1D elements">
<polygon fill="white" stroke="black" points="940,-300 940,-352 1107,-352 1107,-300 940,-300"/>
<text text-anchor="start" x="948" y="-340" font-family="Helvetica,sans-Serif" font-size="10.00">Feel::GeoElement1D</text>
<text text-anchor="start" x="948" y="-329" font-family="Helvetica,sans-Serif" font-size="10.00">&lt; Dim, GEOSHAPE, SubFace,</text>
<text text-anchor="start" x="948" y="-318" font-family="Helvetica,sans-Serif" font-size="10.00"> T, IndexT, PointTypeIsSubFace</text>
<text text-anchor="middle" x="1023.5" y="-307" font-family="Helvetica,sans-Serif" font-size="10.00">Of, UseMeasuresStorage &gt;</text>
</a>
</g>
</g>
<!-- Node369&#45;&gt;Node28 -->
<g id="edge13" class="edge">
<title>Node369&#45;&gt;Node28</title>
<path fill="none" stroke="midnightblue" d="M905.4,-332.33C917.01,-331.7 928.57,-331.08 939.67,-330.48"/>
<polygon fill="midnightblue" stroke="midnightblue" points="905,-328.85 895.21,-332.88 905.38,-335.84 905,-328.85"/>
</g>
<!-- Node578&#45;&gt;Node579 -->
<g id="edge15" class="edge">
<title>Node578&#45;&gt;Node579</title>
<path fill="none" stroke="midnightblue" d="M633.56,-571.23C661.9,-570.6 693.24,-569.91 719.63,-569.33"/>
<polygon fill="midnightblue" stroke="midnightblue" points="633.19,-567.73 623.27,-571.45 633.34,-574.73 633.19,-567.73"/>
</g>
<!-- Node578&#45;&gt;Node580 -->
<g id="edge16" class="edge">
<title>Node578&#45;&gt;Node580</title>
<path fill="none" stroke="midnightblue" d="M632.98,-551.86C644.37,-549.08 655.96,-546.38 667,-544 687.16,-539.66 709.49,-535.56 728.94,-532.21"/>
<polygon fill="midnightblue" stroke="midnightblue" points="631.92,-548.52 623.05,-554.31 633.59,-555.31 631.92,-548.52"/>
</g>
<!-- Node578&#45;&gt;Node581 -->
<g id="edge17" class="edge">
<title>Node578&#45;&gt;Node581</title>
<path fill="none" stroke="midnightblue" d="M633.29,-588.56C657.01,-593.16 682.84,-598.17 706.13,-602.68"/>
<polygon fill="midnightblue" stroke="midnightblue" points="633.75,-585.09 623.27,-586.62 632.42,-591.96 633.75,-585.09"/>
</g>
<!-- Node1095 -->
<g id="node16" class="node">
<title>Node1095</title>
<g id="a_node16"><a xlink:title=" ">
<polygon fill="white" stroke="#bfbfbf" points="303,-377.5 303,-396.5 429,-396.5 429,-377.5 303,-377.5"/>
<text text-anchor="middle" x="366" y="-384.5" font-family="Helvetica,sans-Serif" font-size="10.00">less_than_comparable</text>
</a>
</g>
</g>
<!-- Node1095&#45;&gt;Node1096 -->
<g id="edge18" class="edge">
<title>Node1095&#45;&gt;Node1096</title>
<path fill="none" stroke="#8b1a1a" d="M414.94,-400.17C422.68,-403.39 430.33,-407.3 437,-412 457.65,-426.56 452.03,-441.91 473,-456 478.06,-459.4 483.61,-462.33 489.36,-464.86"/>
<polygon fill="#8b1a1a" stroke="#8b1a1a" points="416.11,-396.87 405.52,-396.59 413.62,-403.42 416.11,-396.87"/>
</g>
<!-- Node1095&#45;&gt;Node579 -->
<g id="edge19" class="edge">
<title>Node1095&#45;&gt;Node579</title>
<path fill="none" stroke="midnightblue" d="M397.34,-373.64C451.01,-352.29 563.36,-318.18 631,-373 691,-421.63 612.64,-488.14 667,-543 680.86,-556.99 700.67,-563.93 719.84,-567.17"/>
<polygon fill="midnightblue" stroke="midnightblue" points="395.96,-370.42 388.03,-377.45 398.61,-376.9 395.96,-370.42"/>
</g>
<!-- Node1095&#45;&gt;Node881 -->
<g id="edge20" class="edge">
<title>Node1095&#45;&gt;Node881</title>
<path fill="none" stroke="#8b1a1a" d="M416.7,-398.88C438.65,-404.13 464.7,-410.36 488,-415.93"/>
<polygon fill="#8b1a1a" stroke="#8b1a1a" points="417.47,-395.47 406.93,-396.55 415.84,-402.28 417.47,-395.47"/>
</g>
<!-- Node1095&#45;&gt;Node580 -->
<g id="edge21" class="edge">
<title>Node1095&#45;&gt;Node580</title>
<path fill="none" stroke="midnightblue" d="M389.57,-371.79C439.12,-340.46 558.72,-276.42 631,-335 691,-383.63 611.25,-451.55 667,-505 683.23,-520.56 707.14,-526.08 728.8,-527.4"/>
<polygon fill="midnightblue" stroke="midnightblue" points="387.4,-369.03 380.9,-377.39 391.2,-374.9 387.4,-369.03"/>
</g>
<!-- Node1095&#45;&gt;Node581 -->
<g id="edge22" class="edge">
<title>Node1095&#45;&gt;Node581</title>
<path fill="none" stroke="midnightblue" d="M439.51,-382.99C507.81,-380.85 603.62,-382.61 631,-407 693.88,-463 608,-532.92 667,-593 677.54,-603.73 691.6,-610.24 706.22,-614.07"/>
<polygon fill="midnightblue" stroke="midnightblue" points="439.1,-379.5 429.22,-383.35 439.34,-386.5 439.1,-379.5"/>
</g>
<!-- Node1095&#45;&gt;Node366 -->
<g id="edge23" class="edge">
<title>Node1095&#45;&gt;Node366</title>
<path fill="none" stroke="#8b1a1a" d="M383.34,-370.01C403.06,-350.28 437.97,-317.79 473,-297 482.61,-291.3 493.49,-286.31 504.02,-282.13"/>
<polygon fill="#8b1a1a" stroke="#8b1a1a" points="380.61,-367.79 376.09,-377.37 385.6,-372.7 380.61,-367.79"/>
</g>
<!-- Node1095&#45;&gt;Node578 -->
<g id="edge24" class="edge">
<title>Node1095&#45;&gt;Node578</title>
<path fill="none" stroke="#8b1a1a" d="M421.1,-400.79C426.92,-403.82 432.39,-407.51 437,-412 468.75,-442.93 447.55,-468.71 473,-505 485.89,-523.39 504.79,-540.03 520.76,-552.25"/>
<polygon fill="#8b1a1a" stroke="#8b1a1a" points="422.29,-397.49 411.73,-396.55 419.4,-403.86 422.29,-397.49"/>
</g>
<!-- Node1072 -->
<g id="node17" class="node">
<title>Node1072</title>
<g id="a_node17"><a xlink:title=" ">
<polygon fill="white" stroke="#bfbfbf" points="533,-87.5 533,-106.5 571,-106.5 571,-87.5 533,-87.5"/>
<text text-anchor="middle" x="552" y="-94.5" font-family="Helvetica,sans-Serif" font-size="10.00">type</text>
</a>
</g>
</g>
<!-- Node1072&#45;&gt;Node367 -->
<g id="edge25" class="edge">
<title>Node1072&#45;&gt;Node367</title>
<path fill="none" stroke="midnightblue" d="M581.22,-100.48C606.67,-103.62 645.62,-108.42 682.31,-112.95"/>
<polygon fill="midnightblue" stroke="midnightblue" points="581.55,-96.99 571.19,-99.24 580.69,-103.94 581.55,-96.99"/>
</g>
<!-- Node1072&#45;&gt;Node368 -->
<g id="edge28" class="edge">
<title>Node1072&#45;&gt;Node368</title>
<path fill="none" stroke="midnightblue" d="M581.23,-99.83C596.75,-102.35 615.87,-107.09 631,-116 651.33,-127.97 647.1,-142.33 667,-155 672.73,-158.65 678.86,-161.96 685.2,-164.95"/>
<polygon fill="midnightblue" stroke="midnightblue" points="581.54,-96.34 571.15,-98.42 580.57,-103.27 581.54,-96.34"/>
</g>
<!-- Node1072&#45;&gt;Node369 -->
<g id="edge29" class="edge">
<title>Node1072&#45;&gt;Node369</title>
<path fill="none" stroke="midnightblue" d="M581.31,-96.91C597.9,-98.39 618.08,-103.05 631,-116 679.13,-164.22 627.75,-209.32 667,-265 669.3,-268.26 671.79,-271.41 674.43,-274.46"/>
<polygon fill="midnightblue" stroke="midnightblue" points="581.21,-93.4 571.03,-96.35 580.83,-100.39 581.21,-93.4"/>
</g>
<!-- Node1073 -->
<g id="node18" class="node">
<title>Node1073</title>
<g id="a_node18"><a xlink:href="structFeel_1_1Mesh_1_1Inverse.html" target="_top" xlink:title=" ">
<polygon fill="white" stroke="black" points="711,-55 711,-85 851,-85 851,-55 711,-55"/>
<text text-anchor="start" x="719" y="-73" font-family="Helvetica,sans-Serif" font-size="10.00">Feel::Mesh&lt; GeoShape,</text>
<text text-anchor="middle" x="781" y="-62" font-family="Helvetica,sans-Serif" font-size="10.00"> T, Tag, IndexT &gt;::Inverse</text>
</a>
</g>
</g>
<!-- Node1072&#45;&gt;Node1073 -->
<g id="edge26" class="edge">
<title>Node1072&#45;&gt;Node1073</title>
<path fill="none" stroke="midnightblue" d="M581.25,-93.64C613.5,-89.8 667.4,-83.39 710.94,-78.21"/>
<polygon fill="midnightblue" stroke="midnightblue" points="580.71,-90.18 571.19,-94.84 581.54,-97.13 580.71,-90.18"/>
</g>
<!-- Node1 -->
<g id="node19" class="node">
<title>Node1</title>
<g id="a_node19"><a xlink:href="classFeel_1_1VisitorList.html" target="_top" xlink:title=" ">
<polygon fill="white" stroke="black" points="731,-6 731,-36 831,-36 831,-6 731,-6"/>
<text text-anchor="start" x="739" y="-24" font-family="Helvetica,sans-Serif" font-size="10.00">Feel::VisitorList&lt;</text>
<text text-anchor="middle" x="781" y="-13" font-family="Helvetica,sans-Serif" font-size="10.00"> TList, R &gt;</text>
</a>
</g>
</g>
<!-- Node1072&#45;&gt;Node1 -->
<g id="edge27" class="edge">
<title>Node1072&#45;&gt;Node1</title>
<path fill="none" stroke="midnightblue" d="M579.68,-82.81C602.37,-71.24 636.09,-55.2 667,-45 687.57,-38.21 710.9,-32.88 730.99,-28.99"/>
<polygon fill="midnightblue" stroke="midnightblue" points="577.95,-79.76 570.67,-87.46 581.16,-85.98 577.95,-79.76"/>
</g>
<!-- Node973 -->
<g id="node20" class="node">
<title>Node973</title>
<g id="a_node20"><a xlink:href="classFeel_1_1ConvexBase.html" target="_top" xlink:title=" ">
<polygon fill="white" stroke="black" points="0,-560.5 0,-579.5 104,-579.5 104,-560.5 0,-560.5"/>
<text text-anchor="middle" x="52" y="-567.5" font-family="Helvetica,sans-Serif" font-size="10.00">Feel::ConvexBase</text>
</a>
</g>
</g>
<!-- Node974 -->
<g id="node21" class="node">
<title>Node974</title>
<g id="a_node21"><a xlink:href="classFeel_1_1Convex.html" target="_top" xlink:title=" ">
<polygon fill="white" stroke="black" points="142.5,-629 142.5,-659 256.5,-659 256.5,-629 142.5,-629"/>
<text text-anchor="start" x="150.5" y="-647" font-family="Helvetica,sans-Serif" font-size="10.00">Feel::Convex&lt; Dim,</text>
<text text-anchor="middle" x="199.5" y="-636" font-family="Helvetica,sans-Serif" font-size="10.00"> 1, Dim &gt;</text>
</a>
</g>
</g>
<!-- Node973&#45;&gt;Node974 -->
<g id="edge30" class="edge">
<title>Node973&#45;&gt;Node974</title>
<path fill="none" stroke="midnightblue" d="M80.75,-584.11C105.93,-596.92 142.96,-615.75 168.75,-628.87"/>
<polygon fill="midnightblue" stroke="midnightblue" points="82.22,-580.94 71.72,-579.52 79.05,-587.18 82.22,-580.94"/>
</g>
<!-- Node975 -->
<g id="node26" class="node">
<title>Node975</title>
<g id="a_node26"><a xlink:href="classFeel_1_1Convex.html" target="_top" xlink:title=" ">
<polygon fill="white" stroke="black" points="142.5,-173 142.5,-203 256.5,-203 256.5,-173 142.5,-173"/>
<text text-anchor="start" x="150.5" y="-191" font-family="Helvetica,sans-Serif" font-size="10.00">Feel::Convex&lt; Dim,</text>
<text text-anchor="middle" x="199.5" y="-180" font-family="Helvetica,sans-Serif" font-size="10.00"> Order, Dim &gt;</text>
</a>
</g>
</g>
<!-- Node973&#45;&gt;Node975 -->
<g id="edge35" class="edge">
<title>Node973&#45;&gt;Node975</title>
<path fill="none" stroke="midnightblue" d="M55.45,-550.43C64.14,-483.59 95.46,-265.56 140,-213 143.28,-209.12 147.28,-205.83 151.62,-203.04"/>
<polygon fill="midnightblue" stroke="midnightblue" points="51.96,-550.09 54.16,-560.45 58.9,-550.98 51.96,-550.09"/>
</g>
<!-- Node976 -->
<g id="node33" class="node">
<title>Node976</title>
<g id="a_node33"><a xlink:href="classFeel_1_1Convex.html" target="_top" xlink:title="Convex base class.">
<polygon fill="white" stroke="black" points="142.5,-555 142.5,-585 256.5,-585 256.5,-555 142.5,-555"/>
<text text-anchor="start" x="150.5" y="-573" font-family="Helvetica,sans-Serif" font-size="10.00">Feel::Convex&lt; Dim,</text>
<text text-anchor="middle" x="199.5" y="-562" font-family="Helvetica,sans-Serif" font-size="10.00"> Order, RDim &gt;</text>
</a>
</g>
</g>
<!-- Node973&#45;&gt;Node976 -->
<g id="edge42" class="edge">
<title>Node973&#45;&gt;Node976</title>
<path fill="none" stroke="midnightblue" d="M114.53,-570C123.72,-570 133.15,-570 142.22,-570"/>
<polygon fill="midnightblue" stroke="midnightblue" points="114.3,-566.5 104.3,-570 114.3,-573.5 114.3,-566.5"/>
</g>
<!-- Node697 -->
<g id="node22" class="node">
<title>Node697</title>
<g id="a_node22"><a xlink:href="classFeel_1_1Hypercube.html" target="_top" xlink:title=" ">
<polygon fill="white" stroke="black" points="301,-728 301,-758 431,-758 431,-728 301,-728"/>
<text text-anchor="start" x="309" y="-746" font-family="Helvetica,sans-Serif" font-size="10.00">Feel::Hypercube&lt; Dim,</text>
<text text-anchor="middle" x="366" y="-735" font-family="Helvetica,sans-Serif" font-size="10.00"> Order, RDim &gt;</text>
</a>
</g>
</g>
<!-- Node974&#45;&gt;Node697 -->
<g id="edge31" class="edge">
<title>Node974&#45;&gt;Node697</title>
<path fill="none" stroke="midnightblue" d="M234.33,-664.36C265.76,-683.28 311.84,-711.01 340.05,-727.99"/>
<polygon fill="midnightblue" stroke="midnightblue" points="235.86,-661.19 225.48,-659.04 232.25,-667.19 235.86,-661.19"/>
</g>
<!-- Node575 -->
<g id="node24" class="node">
<title>Node575</title>
<g id="a_node24"><a xlink:href="classFeel_1_1Simplex.html" target="_top" xlink:title="simplex of dimension Dim">
<polygon fill="white" stroke="black" points="307.5,-629 307.5,-659 424.5,-659 424.5,-629 307.5,-629"/>
<text text-anchor="start" x="315.5" y="-647" font-family="Helvetica,sans-Serif" font-size="10.00">Feel::Simplex&lt; Dim,</text>
<text text-anchor="middle" x="366" y="-636" font-family="Helvetica,sans-Serif" font-size="10.00"> Order, RDim &gt;</text>
</a>
</g>
</g>
<!-- Node974&#45;&gt;Node575 -->
<g id="edge33" class="edge">
<title>Node974&#45;&gt;Node575</title>
<path fill="none" stroke="midnightblue" d="M266.8,-644C280.25,-644 294.3,-644 307.42,-644"/>
<polygon fill="midnightblue" stroke="midnightblue" points="266.65,-640.5 256.65,-644 266.65,-647.5 266.65,-640.5"/>
</g>
<!-- Node698 -->
<g id="node23" class="node">
<title>Node698</title>
<g id="a_node23"><a xlink:href="classFeel_1_1Reference_3_01Hypercube_3_01Dim_00_01Order_00_01RDim_01_4_00_01Dim_00_01Order_00_01RDim_00_01T_01_4.html" target="_top" xlink:title=" ">
<polygon fill="white" stroke="black" points="474,-748.5 474,-789.5 630,-789.5 630,-748.5 474,-748.5"/>
<text text-anchor="start" x="482" y="-777.5" font-family="Helvetica,sans-Serif" font-size="10.00">Feel::Reference&lt; Hypercube</text>
<text text-anchor="start" x="482" y="-766.5" font-family="Helvetica,sans-Serif" font-size="10.00">&lt; Dim, Order, RDim &gt;, Dim,</text>
<text text-anchor="middle" x="552" y="-755.5" font-family="Helvetica,sans-Serif" font-size="10.00"> Order, RDim, T &gt;</text>
</a>
</g>
</g>
<!-- Node697&#45;&gt;Node698 -->
<g id="edge32" class="edge">
<title>Node697&#45;&gt;Node698</title>
<path fill="none" stroke="midnightblue" d="M441.26,-753.49C451.99,-755.01 463.06,-756.57 473.84,-758.1"/>
<polygon fill="midnightblue" stroke="midnightblue" points="441.49,-749.99 431.1,-752.06 440.51,-756.92 441.49,-749.99"/>
</g>
<!-- Node576 -->
<g id="node25" class="node">
<title>Node576</title>
<g id="a_node25"><a xlink:href="classFeel_1_1Reference_3_01Simplex_3_01Dim_00_01Order_00_01RDim_01_4_00_01Dim_00_01Order_00_01RDim_00_01T_01_4.html" target="_top" xlink:title=" ">
<polygon fill="white" stroke="black" points="474.5,-688.5 474.5,-729.5 629.5,-729.5 629.5,-688.5 474.5,-688.5"/>
<text text-anchor="start" x="482.5" y="-717.5" font-family="Helvetica,sans-Serif" font-size="10.00">Feel::Reference&lt; Simplex</text>
<text text-anchor="start" x="482.5" y="-706.5" font-family="Helvetica,sans-Serif" font-size="10.00">&lt; Dim, Order, RDim &gt;, Dim,</text>
<text text-anchor="middle" x="552" y="-695.5" font-family="Helvetica,sans-Serif" font-size="10.00"> Order, RDim, T &gt;</text>
</a>
</g>
</g>
<!-- Node575&#45;&gt;Node576 -->
<g id="edge34" class="edge">
<title>Node575&#45;&gt;Node576</title>
<path fill="none" stroke="midnightblue" d="M419.25,-662.46C442.21,-670.57 469.27,-680.13 492.88,-688.47"/>
<polygon fill="midnightblue" stroke="midnightblue" points="420.27,-659.11 409.68,-659.08 417.94,-665.71 420.27,-659.11"/>
</g>
<!-- Node582 -->
<g id="node27" class="node">
<title>Node582</title>
<g id="a_node27"><a xlink:href="classFeel_1_1Simplex.html" target="_top" xlink:title=" ">
<polygon fill="white" stroke="black" points="297.5,-140.5 297.5,-159.5 434.5,-159.5 434.5,-140.5 297.5,-140.5"/>
<text text-anchor="middle" x="366" y="-147.5" font-family="Helvetica,sans-Serif" font-size="10.00">Feel::Simplex&lt; 1, Dim &gt;</text>
</a>
</g>
</g>
<!-- Node975&#45;&gt;Node582 -->
<g id="edge36" class="edge">
<title>Node975&#45;&gt;Node582</title>
<path fill="none" stroke="midnightblue" d="M266.59,-172.73C285.86,-168.28 306.36,-163.54 323.64,-159.55"/>
<polygon fill="midnightblue" stroke="midnightblue" points="265.61,-169.37 256.65,-175.03 267.18,-176.19 265.61,-169.37"/>
</g>
<!-- Node584 -->
<g id="node29" class="node">
<title>Node584</title>
<g id="a_node29"><a xlink:href="classFeel_1_1Simplex.html" target="_top" xlink:title=" ">
<polygon fill="white" stroke="black" points="297.5,-216.5 297.5,-235.5 434.5,-235.5 434.5,-216.5 297.5,-216.5"/>
<text text-anchor="middle" x="366" y="-223.5" font-family="Helvetica,sans-Serif" font-size="10.00">Feel::Simplex&lt; 2, Dim &gt;</text>
</a>
</g>
</g>
<!-- Node975&#45;&gt;Node584 -->
<g id="edge38" class="edge">
<title>Node975&#45;&gt;Node584</title>
<path fill="none" stroke="midnightblue" d="M266.59,-203.27C285.86,-207.72 306.36,-212.46 323.64,-216.45"/>
<polygon fill="midnightblue" stroke="midnightblue" points="267.18,-199.81 256.65,-200.97 265.61,-206.63 267.18,-199.81"/>
</g>
<!-- Node586 -->
<g id="node31" class="node">
<title>Node586</title>
<g id="a_node31"><a xlink:href="classFeel_1_1Simplex.html" target="_top" xlink:title=" ">
<polygon fill="white" stroke="black" points="297.5,-178.5 297.5,-197.5 434.5,-197.5 434.5,-178.5 297.5,-178.5"/>
<text text-anchor="middle" x="366" y="-185.5" font-family="Helvetica,sans-Serif" font-size="10.00">Feel::Simplex&lt; 3, Dim &gt;</text>
</a>
</g>
</g>
<!-- Node975&#45;&gt;Node586 -->
<g id="edge40" class="edge">
<title>Node975&#45;&gt;Node586</title>
<path fill="none" stroke="midnightblue" d="M266.66,-188C276.8,-188 287.28,-188 297.45,-188"/>
<polygon fill="midnightblue" stroke="midnightblue" points="266.65,-184.5 256.65,-188 266.65,-191.5 266.65,-184.5"/>
</g>
<!-- Node583 -->
<g id="node28" class="node">
<title>Node583</title>
<g id="a_node28"><a xlink:href="structFeel_1_1Line.html" target="_top" xlink:title=" ">
<polygon fill="white" stroke="black" points="499,-125.5 499,-144.5 605,-144.5 605,-125.5 499,-125.5"/>
<text text-anchor="middle" x="552" y="-132.5" font-family="Helvetica,sans-Serif" font-size="10.00">Feel::Line&lt; Dim &gt;</text>
</a>
</g>
</g>
<!-- Node582&#45;&gt;Node583 -->
<g id="edge37" class="edge">
<title>Node582&#45;&gt;Node583</title>
<path fill="none" stroke="midnightblue" d="M444.79,-143.66C463.07,-142.17 482.12,-140.61 498.96,-139.24"/>
<polygon fill="midnightblue" stroke="midnightblue" points="444.41,-140.18 434.73,-144.48 444.98,-147.15 444.41,-140.18"/>
</g>
<!-- Node585 -->
<g id="node30" class="node">
<title>Node585</title>
<g id="a_node30"><a xlink:href="structFeel_1_1Triangle.html" target="_top" xlink:title=" ">
<polygon fill="white" stroke="black" points="489.5,-213.5 489.5,-232.5 614.5,-232.5 614.5,-213.5 489.5,-213.5"/>
<text text-anchor="middle" x="552" y="-220.5" font-family="Helvetica,sans-Serif" font-size="10.00">Feel::Triangle&lt; Dim &gt;</text>
</a>
</g>
</g>
<!-- Node584&#45;&gt;Node585 -->
<g id="edge39" class="edge">
<title>Node584&#45;&gt;Node585</title>
<path fill="none" stroke="midnightblue" d="M444.88,-224.73C459.68,-224.49 474.98,-224.24 489.2,-224.01"/>
<polygon fill="midnightblue" stroke="midnightblue" points="444.67,-221.23 434.73,-224.9 444.79,-228.23 444.67,-221.23"/>
</g>
<!-- Node587 -->
<g id="node32" class="node">
<title>Node587</title>
<g id="a_node32"><a xlink:href="structFeel_1_1Tetrahedron.html" target="_top" xlink:title=" ">
<polygon fill="white" stroke="black" points="497.5,-164 497.5,-194 606.5,-194 606.5,-164 497.5,-164"/>
<text text-anchor="start" x="505.5" y="-182" font-family="Helvetica,sans-Serif" font-size="10.00">Feel::Tetrahedron&lt;</text>
<text text-anchor="middle" x="552" y="-171" font-family="Helvetica,sans-Serif" font-size="10.00"> Dim &gt;</text>
</a>
</g>
</g>
<!-- Node586&#45;&gt;Node587 -->
<g id="edge41" class="edge">
<title>Node586&#45;&gt;Node587</title>
<path fill="none" stroke="midnightblue" d="M444.99,-184.19C462.58,-183.32 480.88,-182.43 497.22,-181.63"/>
<polygon fill="midnightblue" stroke="midnightblue" points="444.55,-180.7 434.73,-184.69 444.89,-187.69 444.55,-180.7"/>
</g>
<!-- Node577 -->
<g id="node34" class="node">
<title>Node577</title>
<g id="a_node34"><a xlink:href="classFeel_1_1Simplex.html" target="_top" xlink:title=" ">
<polygon fill="white" stroke="black" points="308.5,-555 308.5,-585 423.5,-585 423.5,-555 308.5,-555"/>
<text text-anchor="start" x="316.5" y="-573" font-family="Helvetica,sans-Serif" font-size="10.00">Feel::Simplex&lt; 0, 1,</text>
<text text-anchor="middle" x="366" y="-562" font-family="Helvetica,sans-Serif" font-size="10.00"> Dim &gt;</text>
</a>
</g>
</g>
<!-- Node976&#45;&gt;Node577 -->
<g id="edge43" class="edge">
<title>Node976&#45;&gt;Node577</title>
<path fill="none" stroke="midnightblue" d="M266.97,-570C280.66,-570 294.96,-570 308.26,-570"/>
<polygon fill="midnightblue" stroke="midnightblue" points="266.65,-566.5 256.65,-570 266.65,-573.5 266.65,-566.5"/>
</g>
<!-- Node577&#45;&gt;Node578 -->
<g id="edge44" class="edge">
<title>Node577&#45;&gt;Node578</title>
<path fill="none" stroke="midnightblue" d="M434.07,-571.09C449.29,-571.34 465.5,-571.61 480.85,-571.86"/>
<polygon fill="midnightblue" stroke="midnightblue" points="433.76,-567.59 423.71,-570.92 433.65,-574.59 433.76,-567.59"/>
</g>
<!-- Node880 -->
<g id="node35" class="node">
<title>Node880</title>
<g id="a_node35"><a xlink:href="classFeel_1_1Entity.html" target="_top" xlink:title=" ">
<polygon fill="white" stroke="black" points="295,-421.5 295,-440.5 437,-440.5 437,-421.5 295,-421.5"/>
<text text-anchor="middle" x="366" y="-428.5" font-family="Helvetica,sans-Serif" font-size="10.00">Feel::Entity&lt; ShapeE, T &gt;</text>
</a>
</g>
</g>
<!-- Node880&#45;&gt;Node881 -->
<g id="edge45" class="edge">
<title>Node880&#45;&gt;Node881</title>
<path fill="none" stroke="midnightblue" d="M447.46,-431C459.91,-431 472.65,-431 484.74,-431"/>
<polygon fill="midnightblue" stroke="midnightblue" points="447.09,-427.5 437.09,-431 447.09,-434.5 447.09,-427.5"/>
</g>
<!-- Node696 -->
<g id="node36" class="node">
<title>Node696</title>
<g id="a_node36"><a xlink:href="classFeel_1_1HypercubeBase.html" target="_top" xlink:title=" ">
<polygon fill="white" stroke="black" points="140,-733.5 140,-752.5 259,-752.5 259,-733.5 140,-733.5"/>
<text text-anchor="middle" x="199.5" y="-740.5" font-family="Helvetica,sans-Serif" font-size="10.00">Feel::HypercubeBase</text>
</a>
</g>
</g>
<!-- Node696&#45;&gt;Node697 -->
<g id="edge46" class="edge">
<title>Node696&#45;&gt;Node697</title>
<path fill="none" stroke="#8b1a1a" d="M269.66,-743C280.02,-743 290.67,-743 300.92,-743"/>
<polygon fill="#8b1a1a" stroke="#8b1a1a" points="269.42,-739.5 259.42,-743 269.42,-746.5 269.42,-739.5"/>
</g>
<!-- Node574 -->
<g id="node37" class="node">
<title>Node574</title>
<g id="a_node37"><a xlink:href="classFeel_1_1SimplexBase.html" target="_top" xlink:title=" ">
<polygon fill="white" stroke="black" points="146,-222.5 146,-241.5 253,-241.5 253,-222.5 146,-222.5"/>
<text text-anchor="middle" x="199.5" y="-229.5" font-family="Helvetica,sans-Serif" font-size="10.00">Feel::SimplexBase</text>
</a>
</g>
</g>
<!-- Node574&#45;&gt;Node575 -->
<g id="edge47" class="edge">
<title>Node574&#45;&gt;Node575</title>
<path fill="none" stroke="#8b1a1a" d="M200.98,-251.68C203.3,-309.61 216.78,-482.45 295,-595 304.91,-609.25 320.38,-620.71 334.26,-628.95"/>
<polygon fill="#8b1a1a" stroke="#8b1a1a" points="204.48,-251.56 200.65,-241.68 197.48,-251.79 204.48,-251.56"/>
</g>
<!-- Node574&#45;&gt;Node582 -->
<g id="edge49" class="edge">
<title>Node574&#45;&gt;Node582</title>
<path fill="none" stroke="#8b1a1a" d="M249.71,-218.39C252.96,-216.78 256.09,-214.99 259,-213 279.86,-198.74 273.8,-182.74 295,-169 301.02,-165.1 307.83,-161.99 314.78,-159.52"/>
<polygon fill="#8b1a1a" stroke="#8b1a1a" points="248.11,-215.27 240.34,-222.48 250.9,-221.69 248.11,-215.27"/>
</g>
<!-- Node574&#45;&gt;Node584 -->
<g id="edge50" class="edge">
<title>Node574&#45;&gt;Node584</title>
<path fill="none" stroke="#8b1a1a" d="M263.11,-229.72C274.31,-229.31 286.03,-228.88 297.36,-228.47"/>
<polygon fill="#8b1a1a" stroke="#8b1a1a" points="262.87,-226.22 253,-230.09 263.12,-233.22 262.87,-226.22"/>
</g>
<!-- Node574&#45;&gt;Node586 -->
<g id="edge51" class="edge">
<title>Node574&#45;&gt;Node586</title>
<path fill="none" stroke="#8b1a1a" d="M245.94,-219.85C272.26,-212.8 304.92,-204.07 329.38,-197.53"/>
<polygon fill="#8b1a1a" stroke="#8b1a1a" points="244.95,-216.49 236.19,-222.45 246.76,-223.25 244.95,-216.49"/>
</g>
<!-- Node574&#45;&gt;Node577 -->
<g id="edge48" class="edge">
<title>Node574&#45;&gt;Node577</title>
<path fill="none" stroke="#8b1a1a" d="M200.8,-251.82C202.68,-305.81 215.19,-457.12 295,-543 299.43,-547.77 304.81,-551.71 310.58,-554.95"/>
<polygon fill="#8b1a1a" stroke="#8b1a1a" points="204.29,-251.48 200.54,-241.58 197.29,-251.66 204.29,-251.48"/>
</g>
<!-- Node365 -->
<g id="node38" class="node">
<title>Node365</title>
<g id="a_node38"><a xlink:title=" ">
<polygon fill="white" stroke="#bfbfbf" points="331,-257.5 331,-276.5 401,-276.5 401,-257.5 331,-257.5"/>
<text text-anchor="middle" x="366" y="-264.5" font-family="Helvetica,sans-Serif" font-size="10.00">GEOSHAPE</text>
</a>
</g>
</g>
<!-- Node365&#45;&gt;Node366 -->
<g id="edge52" class="edge">
<title>Node365&#45;&gt;Node366</title>
<path fill="none" stroke="midnightblue" d="M411.31,-267C429.76,-267 451.74,-267 472.74,-267"/>
<polygon fill="midnightblue" stroke="midnightblue" points="411.18,-263.5 401.18,-267 411.18,-270.5 411.18,-263.5"/>
</g>
<!-- Node27 -->
<g id="node39" class="node">
<title>Node27</title>
<g id="a_node39"><a xlink:href="classFeel_1_1SubFaceOfNone.html" target="_top" xlink:title=" ">
<polygon fill="white" stroke="black" points="706.5,-236.5 706.5,-255.5 855.5,-255.5 855.5,-236.5 706.5,-236.5"/>
<text text-anchor="middle" x="781" y="-243.5" font-family="Helvetica,sans-Serif" font-size="10.00">Feel::SubFaceOfNone&lt; 0 &gt;</text>
</a>
</g>
</g>
<!-- Node27&#45;&gt;Node29 -->
<g id="edge54" class="edge">
<title>Node27&#45;&gt;Node29</title>
<path fill="none" stroke="midnightblue" d="M865.91,-246.7C886.81,-246.87 909.32,-247.06 930.58,-247.24"/>
<polygon fill="midnightblue" stroke="midnightblue" points="865.82,-243.2 855.79,-246.61 865.76,-250.2 865.82,-243.2"/>
</g>
<!-- Node27&#45;&gt;Node30 -->
<g id="edge55" class="edge">
<title>Node27&#45;&gt;Node30</title>
<path fill="none" stroke="midnightblue" d="M857.44,-234.72C870.04,-232.44 882.93,-229.85 895,-227 916.74,-221.87 940.21,-215.07 961.01,-208.58"/>
<polygon fill="midnightblue" stroke="midnightblue" points="856.66,-231.3 847.42,-236.49 857.88,-238.2 856.66,-231.3"/>
</g>
<!-- Node27&#45;&gt;Node28 -->
<g id="edge53" class="edge">
<title>Node27&#45;&gt;Node28</title>
<path fill="none" stroke="midnightblue" d="M865.63,-257.35C875.63,-259.5 885.61,-262.03 895,-265 922.84,-273.81 952.35,-287.61 975.96,-299.86"/>
<polygon fill="midnightblue" stroke="midnightblue" points="866.15,-253.88 855.65,-255.32 864.76,-260.74 866.15,-253.88"/>
</g>
<!-- Node25 -->
<g id="node40" class="node">
<title>Node25</title>
<g id="a_node40"><a xlink:href="classFeel_1_1SubFaceOfNone.html" target="_top" xlink:title=" ">
<polygon fill="white" stroke="black" points="721,-465 721,-495 841,-495 841,-465 721,-465"/>
<text text-anchor="start" x="729" y="-483" font-family="Helvetica,sans-Serif" font-size="10.00">Feel::SubFaceOfNone</text>
<text text-anchor="middle" x="781" y="-472" font-family="Helvetica,sans-Serif" font-size="10.00">&lt; Dim &gt;</text>
</a>
</g>
</g>
<!-- Node25&#45;&gt;Node26 -->
<g id="edge56" class="edge">
<title>Node25&#45;&gt;Node26</title>
<path fill="none" stroke="midnightblue" d="M851.18,-494.07C865.73,-497.37 880.92,-501.08 895,-505 924.26,-513.14 956.68,-524.11 981.51,-532.92"/>
<polygon fill="midnightblue" stroke="midnightblue" points="851.76,-490.61 841.24,-491.85 850.24,-497.44 851.76,-490.61"/>
</g>
<!-- Node0 -->
<g id="node41" class="node">
<title>Node0</title>
<g id="a_node41"><a xlink:href="classFeel_1_1Visitor.html" target="_top" xlink:title=" ">
<polygon fill="white" stroke="black" points="491,-0.5 491,-41.5 613,-41.5 613,-0.5 491,-0.5"/>
<text text-anchor="start" x="499" y="-29.5" font-family="Helvetica,sans-Serif" font-size="10.00">Feel::Visitor&lt; mpl</text>
<text text-anchor="start" x="499" y="-18.5" font-family="Helvetica,sans-Serif" font-size="10.00">::front&lt; TList &gt;::type,</text>
<text text-anchor="middle" x="552" y="-7.5" font-family="Helvetica,sans-Serif" font-size="10.00"> void &gt;</text>
</a>
</g>
</g>
<!-- Node0&#45;&gt;Node1 -->
<g id="edge57" class="edge">
<title>Node0&#45;&gt;Node1</title>
<path fill="none" stroke="midnightblue" d="M623.37,-21C658.26,-21 699.54,-21 730.96,-21"/>
<polygon fill="midnightblue" stroke="midnightblue" points="623.24,-17.5 613.24,-21 623.24,-24.5 623.24,-17.5"/>
</g>
</g>
</svg>
