<?xml version="1.0" encoding="UTF-8" standalone="no"?>
<!DOCTYPE svg PUBLIC "-//W3C//DTD SVG 1.1//EN"
 "http://www.w3.org/Graphics/SVG/1.1/DTD/svg11.dtd">
<!-- Generated by graphviz version 2.43.0 (0)
 -->
<!-- Title: Graphical Class Hierarchy Pages: 1 -->
<svg width="377pt" height="100pt"
 viewBox="0.00 0.00 377.00 99.50" xmlns="http://www.w3.org/2000/svg" xmlns:xlink="http://www.w3.org/1999/xlink">
<g id="graph0" class="graph" transform="scale(1 1) rotate(0) translate(4 95.5)">
<title>Graphical Class Hierarchy</title>
<polygon fill="white" stroke="transparent" points="-4,4 -4,-95.5 373,-95.5 373,4 -4,4"/>
<!-- Node0 -->
<g id="node1" class="node">
<title>Node0</title>
<g id="a_node1"><a xlink:href="structFeel_1_1vf_1_1ExprTensorsFromSymbolsExpr.html" target="_top" xlink:title=" ">
<polygon fill="white" stroke="black" points="0,-33 0,-63 141,-63 141,-33 0,-33"/>
<text text-anchor="start" x="8" y="-51" font-family="Helvetica,sans-Serif" font-size="10.00">Feel::vf::ExprTensorsFrom</text>
<text text-anchor="middle" x="70.5" y="-40" font-family="Helvetica,sans-Serif" font-size="10.00">SymbolsExpr&lt; Geo_t &gt;</text>
</a>
</g>
</g>
<!-- Node1 -->
<g id="node2" class="node">
<title>Node1</title>
<g id="a_node2"><a xlink:href="structFeel_1_1vf_1_1ExprTensorsFromSymbolsExprDummyImpl.html" target="_top" xlink:title=" ">
<polygon fill="white" stroke="black" points="177,-61 177,-91 369,-91 369,-61 177,-61"/>
<text text-anchor="start" x="185" y="-79" font-family="Helvetica,sans-Serif" font-size="10.00">Feel::vf::ExprTensorsFrom</text>
<text text-anchor="middle" x="273" y="-68" font-family="Helvetica,sans-Serif" font-size="10.00">SymbolsExprDummyImpl&lt; Geo_t &gt;</text>
</a>
</g>
</g>
<!-- Node0&#45;&gt;Node1 -->
<g id="edge1" class="edge">
<title>Node0&#45;&gt;Node1</title>
<path fill="none" stroke="midnightblue" d="M151.2,-59.13C159.61,-60.3 168.22,-61.51 176.78,-62.7"/>
<polygon fill="midnightblue" stroke="midnightblue" points="151.45,-55.63 141.06,-57.71 150.48,-62.56 151.45,-55.63"/>
</g>
<!-- Node2 -->
<g id="node3" class="node">
<title>Node2</title>
<g id="a_node3"><a xlink:href="structFeel_1_1vf_1_1ExprTensorsFromSymbolsExprImpl.html" target="_top" xlink:title=" ">
<polygon fill="white" stroke="black" points="200.5,-0.5 200.5,-41.5 345.5,-41.5 345.5,-0.5 200.5,-0.5"/>
<text text-anchor="start" x="208.5" y="-29.5" font-family="Helvetica,sans-Serif" font-size="10.00">Feel::vf::ExprTensorsFrom</text>
<text text-anchor="start" x="208.5" y="-18.5" font-family="Helvetica,sans-Serif" font-size="10.00">SymbolsExprImpl&lt; Geo_t,</text>
<text text-anchor="middle" x="273" y="-7.5" font-family="Helvetica,sans-Serif" font-size="10.00"> SymbolsExprType &gt;</text>
</a>
</g>
</g>
<!-- Node0&#45;&gt;Node2 -->
<g id="edge2" class="edge">
<title>Node0&#45;&gt;Node2</title>
<path fill="none" stroke="midnightblue" d="M151.05,-37.29C167.27,-35.1 184.25,-32.82 200.18,-30.67"/>
<polygon fill="midnightblue" stroke="midnightblue" points="150.51,-33.83 141.06,-38.63 151.44,-40.77 150.51,-33.83"/>
</g>
</g>
</svg>
