<?xml version="1.0" encoding="UTF-8" standalone="no"?>
<!DOCTYPE svg PUBLIC "-//W3C//DTD SVG 1.1//EN"
 "http://www.w3.org/Graphics/SVG/1.1/DTD/svg11.dtd">
<!-- Generated by graphviz version 2.43.0 (0)
 -->
<!-- Title: Graphical Class Hierarchy Pages: 1 -->
<svg width="266pt" height="458pt"
 viewBox="0.00 0.00 266.00 457.50" xmlns="http://www.w3.org/2000/svg" xmlns:xlink="http://www.w3.org/1999/xlink">
<g id="graph0" class="graph" transform="scale(1 1) rotate(0) translate(4 453.5)">
<title>Graphical Class Hierarchy</title>
<polygon fill="white" stroke="transparent" points="-4,4 -4,-453.5 262,-453.5 262,4 -4,4"/>
<!-- Node0 -->
<g id="node1" class="node">
<title>Node0</title>
<g id="a_node1"><a xlink:href="classboost_1_1mpl_1_1bool__.html" target="_top" xlink:title=" ">
<polygon fill="white" stroke="black" points="0,-221 0,-240 101,-240 101,-221 0,-221"/>
<text text-anchor="middle" x="50.5" y="-228" font-family="Helvetica,sans-Serif" font-size="10.00">boost::mpl::bool_</text>
</a>
</g>
</g>
<!-- Node1 -->
<g id="node2" class="node">
<title>Node1</title>
<g id="a_node2"><a xlink:href="structFeel_1_1is__0d.html" target="_top" xlink:title=" ">
<polygon fill="white" stroke="black" points="149,-430 149,-449 246,-449 246,-430 149,-430"/>
<text text-anchor="middle" x="197.5" y="-437" font-family="Helvetica,sans-Serif" font-size="10.00">Feel::is_0d&lt; T &gt;</text>
</a>
</g>
</g>
<!-- Node0&#45;&gt;Node1 -->
<g id="edge1" class="edge">
<title>Node0&#45;&gt;Node1</title>
<path fill="none" stroke="midnightblue" d="M54.81,-249.86C62.36,-288.08 84.43,-373.59 137,-420.5 141.37,-424.4 146.54,-427.5 151.99,-429.96"/>
<polygon fill="midnightblue" stroke="midnightblue" points="58.25,-249.2 52.98,-240 51.37,-250.47 58.25,-249.2"/>
</g>
<!-- Node2 -->
<g id="node3" class="node">
<title>Node2</title>
<g id="a_node3"><a xlink:href="structFeel_1_1is__0d__real.html" target="_top" xlink:title=" ">
<polygon fill="white" stroke="black" points="137,-392 137,-411 258,-411 258,-392 137,-392"/>
<text text-anchor="middle" x="197.5" y="-399" font-family="Helvetica,sans-Serif" font-size="10.00">Feel::is_0d_real&lt; T &gt;</text>
</a>
</g>
</g>
<!-- Node0&#45;&gt;Node2 -->
<g id="edge2" class="edge">
<title>Node0&#45;&gt;Node2</title>
<path fill="none" stroke="midnightblue" d="M57.24,-249.94C67.75,-282.2 93.14,-346.76 137,-382.5 141.79,-386.4 147.4,-389.51 153.22,-391.98"/>
<polygon fill="midnightblue" stroke="midnightblue" points="60.56,-248.83 54.24,-240.33 53.88,-250.92 60.56,-248.83"/>
</g>
<!-- Node3 -->
<g id="node4" class="node">
<title>Node3</title>
<g id="a_node4"><a xlink:href="structFeel_1_1is__1d.html" target="_top" xlink:title=" ">
<polygon fill="white" stroke="black" points="149,-354 149,-373 246,-373 246,-354 149,-354"/>
<text text-anchor="middle" x="197.5" y="-361" font-family="Helvetica,sans-Serif" font-size="10.00">Feel::is_1d&lt; T &gt;</text>
</a>
</g>
</g>
<!-- Node0&#45;&gt;Node3 -->
<g id="edge3" class="edge">
<title>Node0&#45;&gt;Node3</title>
<path fill="none" stroke="midnightblue" d="M60.61,-248.93C73.97,-274.11 101.23,-319.06 137,-344.5 142.39,-348.33 148.59,-351.42 154.91,-353.9"/>
<polygon fill="midnightblue" stroke="midnightblue" points="63.72,-247.33 56.03,-240.03 57.49,-250.53 63.72,-247.33"/>
</g>
<!-- Node4 -->
<g id="node5" class="node">
<title>Node4</title>
<g id="a_node5"><a xlink:href="structFeel_1_1is__1d__real.html" target="_top" xlink:title=" ">
<polygon fill="white" stroke="black" points="137,-316 137,-335 258,-335 258,-316 137,-316"/>
<text text-anchor="middle" x="197.5" y="-323" font-family="Helvetica,sans-Serif" font-size="10.00">Feel::is_1d_real&lt; T &gt;</text>
</a>
</g>
</g>
<!-- Node0&#45;&gt;Node4 -->
<g id="edge4" class="edge">
<title>Node0&#45;&gt;Node4</title>
<path fill="none" stroke="midnightblue" d="M66.69,-247.69C82.66,-264.79 109.27,-290.7 137,-306.5 143.6,-310.26 151.03,-313.38 158.36,-315.94"/>
<polygon fill="midnightblue" stroke="midnightblue" points="69.08,-245.11 59.75,-240.08 63.91,-249.83 69.08,-245.11"/>
</g>
<!-- Node5 -->
<g id="node6" class="node">
<title>Node5</title>
<g id="a_node6"><a xlink:href="structFeel_1_1is__2d.html" target="_top" xlink:title=" ">
<polygon fill="white" stroke="black" points="149,-278 149,-297 246,-297 246,-278 149,-278"/>
<text text-anchor="middle" x="197.5" y="-285" font-family="Helvetica,sans-Serif" font-size="10.00">Feel::is_2d&lt; T &gt;</text>
</a>
</g>
</g>
<!-- Node0&#45;&gt;Node5 -->
<g id="edge5" class="edge">
<title>Node0&#45;&gt;Node5</title>
<path fill="none" stroke="midnightblue" d="M80.37,-244.27C96.78,-251.87 117.84,-261.21 137,-268.5 145.82,-271.86 155.51,-275.12 164.47,-277.98"/>
<polygon fill="midnightblue" stroke="midnightblue" points="81.82,-241.09 71.28,-240.03 78.86,-247.43 81.82,-241.09"/>
</g>
<!-- Node6 -->
<g id="node7" class="node">
<title>Node6</title>
<g id="a_node7"><a xlink:href="structFeel_1_1is__2d__real.html" target="_top" xlink:title=" ">
<polygon fill="white" stroke="black" points="137,-240 137,-259 258,-259 258,-240 137,-240"/>
<text text-anchor="middle" x="197.5" y="-247" font-family="Helvetica,sans-Serif" font-size="10.00">Feel::is_2d_real&lt; T &gt;</text>
</a>
</g>
</g>
<!-- Node0&#45;&gt;Node6 -->
<g id="edge6" class="edge">
<title>Node0&#45;&gt;Node6</title>
<path fill="none" stroke="midnightblue" d="M111.45,-238.36C119.81,-239.45 128.4,-240.58 136.75,-241.67"/>
<polygon fill="midnightblue" stroke="midnightblue" points="111.77,-234.87 101.4,-237.04 110.86,-241.81 111.77,-234.87"/>
</g>
<!-- Node7 -->
<g id="node8" class="node">
<title>Node7</title>
<g id="a_node8"><a xlink:href="structFeel_1_1is__3d.html" target="_top" xlink:title=" ">
<polygon fill="white" stroke="black" points="149,-202 149,-221 246,-221 246,-202 149,-202"/>
<text text-anchor="middle" x="197.5" y="-209" font-family="Helvetica,sans-Serif" font-size="10.00">Feel::is_3d&lt; T &gt;</text>
</a>
</g>
</g>
<!-- Node0&#45;&gt;Node7 -->
<g id="edge7" class="edge">
<title>Node0&#45;&gt;Node7</title>
<path fill="none" stroke="midnightblue" d="M111.32,-222.66C123.86,-221.02 136.93,-219.31 148.95,-217.73"/>
<polygon fill="midnightblue" stroke="midnightblue" points="110.86,-219.19 101.4,-223.96 111.77,-226.13 110.86,-219.19"/>
</g>
<!-- Node8 -->
<g id="node9" class="node">
<title>Node8</title>
<g id="a_node9"><a xlink:href="structFeel_1_1is__3d__real.html" target="_top" xlink:title=" ">
<polygon fill="white" stroke="black" points="137,-164 137,-183 258,-183 258,-164 137,-164"/>
<text text-anchor="middle" x="197.5" y="-171" font-family="Helvetica,sans-Serif" font-size="10.00">Feel::is_3d_real&lt; T &gt;</text>
</a>
</g>
</g>
<!-- Node0&#45;&gt;Node8 -->
<g id="edge8" class="edge">
<title>Node0&#45;&gt;Node8</title>
<path fill="none" stroke="midnightblue" d="M80.37,-216.73C96.78,-209.13 117.84,-199.79 137,-192.5 145.82,-189.14 155.51,-185.88 164.47,-183.02"/>
<polygon fill="midnightblue" stroke="midnightblue" points="78.86,-213.57 71.28,-220.97 81.82,-219.91 78.86,-213.57"/>
</g>
<!-- Node9 -->
<g id="node10" class="node">
<title>Node9</title>
<g id="a_node10"><a xlink:href="structFeel_1_1is__edge.html" target="_top" xlink:title=" ">
<polygon fill="white" stroke="black" points="143,-126 143,-145 252,-145 252,-126 143,-126"/>
<text text-anchor="middle" x="197.5" y="-133" font-family="Helvetica,sans-Serif" font-size="10.00">Feel::is_edge&lt; T &gt;</text>
</a>
</g>
</g>
<!-- Node0&#45;&gt;Node9 -->
<g id="edge9" class="edge">
<title>Node0&#45;&gt;Node9</title>
<path fill="none" stroke="midnightblue" d="M66.69,-213.31C82.66,-196.21 109.27,-170.3 137,-154.5 143.6,-150.74 151.03,-147.62 158.36,-145.06"/>
<polygon fill="midnightblue" stroke="midnightblue" points="63.91,-211.17 59.75,-220.92 69.08,-215.89 63.91,-211.17"/>
</g>
<!-- Node10 -->
<g id="node11" class="node">
<title>Node10</title>
<g id="a_node11"><a xlink:href="structFeel_1_1is__face.html" target="_top" xlink:title=" ">
<polygon fill="white" stroke="black" points="144.5,-88 144.5,-107 250.5,-107 250.5,-88 144.5,-88"/>
<text text-anchor="middle" x="197.5" y="-95" font-family="Helvetica,sans-Serif" font-size="10.00">Feel::is_face&lt; T &gt;</text>
</a>
</g>
</g>
<!-- Node0&#45;&gt;Node10 -->
<g id="edge10" class="edge">
<title>Node0&#45;&gt;Node10</title>
<path fill="none" stroke="midnightblue" d="M60.61,-212.07C73.97,-186.89 101.23,-141.94 137,-116.5 142.39,-112.67 148.59,-109.58 154.91,-107.1"/>
<polygon fill="midnightblue" stroke="midnightblue" points="57.49,-210.47 56.03,-220.97 63.72,-213.67 57.49,-210.47"/>
</g>
<!-- Node11 -->
<g id="node12" class="node">
<title>Node11</title>
<g id="a_node12"><a xlink:href="structFeel_1_1is__point.html" target="_top" xlink:title=" ">
<polygon fill="white" stroke="black" points="142.5,-50 142.5,-69 252.5,-69 252.5,-50 142.5,-50"/>
<text text-anchor="middle" x="197.5" y="-57" font-family="Helvetica,sans-Serif" font-size="10.00">Feel::is_point&lt; T &gt;</text>
</a>
</g>
</g>
<!-- Node0&#45;&gt;Node11 -->
<g id="edge11" class="edge">
<title>Node0&#45;&gt;Node11</title>
<path fill="none" stroke="midnightblue" d="M57.24,-211.06C67.75,-178.8 93.14,-114.24 137,-78.5 141.79,-74.6 147.4,-71.49 153.22,-69.02"/>
<polygon fill="midnightblue" stroke="midnightblue" points="53.88,-210.08 54.24,-220.67 60.56,-212.17 53.88,-210.08"/>
</g>
<!-- Node12 -->
<g id="node13" class="node">
<title>Node12</title>
<g id="a_node13"><a xlink:href="structFeel_1_1is__topological__face.html" target="_top" xlink:title=" ">
<polygon fill="white" stroke="black" points="142.5,-0.5 142.5,-30.5 252.5,-30.5 252.5,-0.5 142.5,-0.5"/>
<text text-anchor="start" x="150.5" y="-18.5" font-family="Helvetica,sans-Serif" font-size="10.00">Feel::is_topological</text>
<text text-anchor="middle" x="197.5" y="-7.5" font-family="Helvetica,sans-Serif" font-size="10.00">_face&lt; T &gt;</text>
</a>
</g>
</g>
<!-- Node0&#45;&gt;Node12 -->
<g id="edge12" class="edge">
<title>Node0&#45;&gt;Node12</title>
<path fill="none" stroke="midnightblue" d="M55.4,-210.52C63.8,-172.51 87.01,-89.25 137,-40.5 140.93,-36.67 145.54,-33.39 150.41,-30.58"/>
<polygon fill="midnightblue" stroke="midnightblue" points="51.88,-210.27 53.26,-220.77 58.73,-211.7 51.88,-210.27"/>
</g>
</g>
</svg>
