<?xml version="1.0" encoding="UTF-8" standalone="no"?>
<!DOCTYPE svg PUBLIC "-//W3C//DTD SVG 1.1//EN"
 "http://www.w3.org/Graphics/SVG/1.1/DTD/svg11.dtd">
<!-- Generated by graphviz version 2.43.0 (0)
 -->
<!-- Title: Graphical Class Hierarchy Pages: 1 -->
<svg width="261pt" height="225pt"
 viewBox="0.00 0.00 261.00 225.00" xmlns="http://www.w3.org/2000/svg" xmlns:xlink="http://www.w3.org/1999/xlink">
<g id="graph0" class="graph" transform="scale(1 1) rotate(0) translate(4 221)">
<title>Graphical Class Hierarchy</title>
<polygon fill="white" stroke="transparent" points="-4,4 -4,-221 257,-221 257,4 -4,4"/>
<!-- Node91 -->
<g id="node1" class="node">
<title>Node91</title>
<g id="a_node1"><a xlink:title=" ">
<polygon fill="white" stroke="#bfbfbf" points="0,-104 0,-123 35,-123 35,-104 0,-104"/>
<text text-anchor="middle" x="17.5" y="-111" font-family="Helvetica,sans-Serif" font-size="10.00">pair</text>
</a>
</g>
</g>
<!-- Node0 -->
<g id="node2" class="node">
<title>Node0</title>
<g id="a_node2"><a xlink:href="classFeel_1_1LocalDof.html" target="_top" xlink:title=" ">
<polygon fill="white" stroke="black" points="105,-186.5 105,-216.5 219,-216.5 219,-186.5 105,-186.5"/>
<text text-anchor="start" x="113" y="-204.5" font-family="Helvetica,sans-Serif" font-size="10.00">Feel::LocalDof&lt; NC,</text>
<text text-anchor="middle" x="162" y="-193.5" font-family="Helvetica,sans-Serif" font-size="10.00"> SizeT &gt;</text>
</a>
</g>
</g>
<!-- Node91&#45;&gt;Node0 -->
<g id="edge1" class="edge">
<title>Node91&#45;&gt;Node0</title>
<path fill="none" stroke="midnightblue" d="M29.26,-131.67C38.59,-145.89 53.34,-165.09 71,-176.5 81.22,-183.1 93.17,-187.98 104.97,-191.58"/>
<polygon fill="midnightblue" stroke="midnightblue" points="32.22,-129.8 23.94,-123.18 26.29,-133.52 32.22,-129.8"/>
</g>
<!-- Node93 -->
<g id="node3" class="node">
<title>Node93</title>
<g id="a_node3"><a xlink:href="structFeel_1_1TimerPair.html" target="_top" xlink:title=" ">
<polygon fill="white" stroke="black" points="117.5,-148 117.5,-167 206.5,-167 206.5,-148 117.5,-148"/>
<text text-anchor="middle" x="162" y="-155" font-family="Helvetica,sans-Serif" font-size="10.00">Feel::TimerPair</text>
</a>
</g>
</g>
<!-- Node91&#45;&gt;Node93 -->
<g id="edge2" class="edge">
<title>Node91&#45;&gt;Node93</title>
<path fill="none" stroke="midnightblue" d="M44.04,-127.15C52.45,-131.24 61.97,-135.44 71,-138.5 85.82,-143.52 102.49,-147.48 117.41,-150.45"/>
<polygon fill="midnightblue" stroke="midnightblue" points="45.61,-124.02 35.1,-122.65 42.46,-130.27 45.61,-124.02"/>
</g>
<!-- Node94 -->
<g id="node4" class="node">
<title>Node94</title>
<g id="a_node4"><a xlink:href="classFeel_1_1LocalDof.html" target="_top" xlink:title=" ">
<polygon fill="white" stroke="black" points="109,-98.5 109,-128.5 215,-128.5 215,-98.5 109,-98.5"/>
<text text-anchor="start" x="117" y="-116.5" font-family="Helvetica,sans-Serif" font-size="10.00">Feel::LocalDof&lt; 1,</text>
<text text-anchor="middle" x="162" y="-105.5" font-family="Helvetica,sans-Serif" font-size="10.00"> uint32_type &gt;</text>
</a>
</g>
</g>
<!-- Node91&#45;&gt;Node94 -->
<g id="edge3" class="edge">
<title>Node91&#45;&gt;Node94</title>
<path fill="none" stroke="midnightblue" d="M45.35,-113.5C63.18,-113.5 87.17,-113.5 108.68,-113.5"/>
<polygon fill="midnightblue" stroke="midnightblue" points="45.13,-110 35.13,-113.5 45.13,-117 45.13,-110"/>
</g>
<!-- Node95 -->
<g id="node5" class="node">
<title>Node95</title>
<g id="a_node5"><a xlink:href="classFeel_1_1LocalDof.html" target="_top" xlink:title=" ">
<polygon fill="white" stroke="black" points="105,-49.5 105,-79.5 219,-79.5 219,-49.5 105,-49.5"/>
<text text-anchor="start" x="113" y="-67.5" font-family="Helvetica,sans-Serif" font-size="10.00">Feel::LocalDof&lt; NC,</text>
<text text-anchor="middle" x="162" y="-56.5" font-family="Helvetica,sans-Serif" font-size="10.00"> size_type &gt;</text>
</a>
</g>
</g>
<!-- Node91&#45;&gt;Node95 -->
<g id="edge4" class="edge">
<title>Node91&#45;&gt;Node95</title>
<path fill="none" stroke="midnightblue" d="M44.48,-100.64C52.83,-96.77 62.2,-92.71 71,-89.5 81.82,-85.55 93.56,-81.87 104.87,-78.61"/>
<polygon fill="midnightblue" stroke="midnightblue" points="42.77,-97.58 35.24,-105.03 45.77,-103.9 42.77,-97.58"/>
</g>
<!-- Node96 -->
<g id="node6" class="node">
<title>Node96</title>
<g id="a_node6"><a xlink:href="classFeel_1_1LocalDof.html" target="_top" xlink:title=" ">
<polygon fill="white" stroke="black" points="71,-0.5 71,-30.5 253,-30.5 253,-0.5 71,-0.5"/>
<text text-anchor="start" x="79" y="-18.5" font-family="Helvetica,sans-Serif" font-size="10.00">Feel::LocalDof&lt; nDofComponents</text>
<text text-anchor="middle" x="162" y="-7.5" font-family="Helvetica,sans-Serif" font-size="10.00">(), size_type &gt;</text>
</a>
</g>
</g>
<!-- Node91&#45;&gt;Node96 -->
<g id="edge5" class="edge">
<title>Node91&#45;&gt;Node96</title>
<path fill="none" stroke="midnightblue" d="M27.47,-94.53C36.28,-77.89 51.28,-54.26 71,-40.5 76.59,-36.6 82.76,-33.31 89.18,-30.53"/>
<polygon fill="midnightblue" stroke="midnightblue" points="24.15,-93.33 22.79,-103.84 30.41,-96.47 24.15,-93.33"/>
</g>
</g>
</svg>
