<?xml version="1.0" encoding="UTF-8" standalone="no"?>
<!DOCTYPE svg PUBLIC "-//W3C//DTD SVG 1.1//EN"
 "http://www.w3.org/Graphics/SVG/1.1/DTD/svg11.dtd">
<!-- Generated by graphviz version 2.43.0 (0)
 -->
<!-- Title: Graphical Class Hierarchy Pages: 1 -->
<svg width="373pt" height="132pt"
 viewBox="0.00 0.00 373.00 132.00" xmlns="http://www.w3.org/2000/svg" xmlns:xlink="http://www.w3.org/1999/xlink">
<g id="graph0" class="graph" transform="scale(1 1) rotate(0) translate(4 128)">
<title>Graphical Class Hierarchy</title>
<polygon fill="white" stroke="transparent" points="-4,4 -4,-128 369,-128 369,4 -4,4"/>
<!-- Node0 -->
<g id="node1" class="node">
<title>Node0</title>
<g id="a_node1"><a xlink:href="classboost_1_1hana_1_1integral__constant.html" target="_top" xlink:title=" ">
<polygon fill="white" stroke="black" points="0,-46.5 0,-76.5 117,-76.5 117,-46.5 0,-46.5"/>
<text text-anchor="start" x="8" y="-64.5" font-family="Helvetica,sans-Serif" font-size="10.00">boost::hana::integral</text>
<text text-anchor="middle" x="58.5" y="-53.5" font-family="Helvetica,sans-Serif" font-size="10.00">_constant</text>
</a>
</g>
</g>
<!-- Node1 -->
<g id="node2" class="node">
<title>Node1</title>
<g id="a_node2"><a xlink:href="structFeel_1_1FeelModels_1_1AdvancedConcatOfMapContainerType_1_1is__a__t.html" target="_top" xlink:title=" ">
<polygon fill="white" stroke="black" points="160.5,-71.5 160.5,-123.5 357.5,-123.5 357.5,-71.5 160.5,-71.5"/>
<text text-anchor="start" x="168.5" y="-111.5" font-family="Helvetica,sans-Serif" font-size="10.00">Feel::FeelModels::Advanced</text>
<text text-anchor="start" x="168.5" y="-100.5" font-family="Helvetica,sans-Serif" font-size="10.00">ConcatOfMapContainerType</text>
<text text-anchor="start" x="168.5" y="-89.5" font-family="Helvetica,sans-Serif" font-size="10.00">&lt; FeelppTagOfMapType, FeelppTagOf</text>
<text text-anchor="middle" x="259" y="-78.5" font-family="Helvetica,sans-Serif" font-size="10.00">ContainerType &gt;::is_a_t&lt; Tag, T &gt;</text>
</a>
</g>
</g>
<!-- Node0&#45;&gt;Node1 -->
<g id="edge1" class="edge">
<title>Node0&#45;&gt;Node1</title>
<path fill="none" stroke="midnightblue" d="M127.2,-73.78C137.84,-75.71 149.01,-77.73 160.17,-79.76"/>
<polygon fill="midnightblue" stroke="midnightblue" points="127.65,-70.3 117.18,-71.96 126.4,-77.19 127.65,-70.3"/>
</g>
<!-- Node2 -->
<g id="node3" class="node">
<title>Node2</title>
<g id="a_node3"><a xlink:href="structFeel_1_1detail_1_1AdvancedConcatOfTupleContainerType_1_1is__a__t.html" target="_top" xlink:title=" ">
<polygon fill="white" stroke="black" points="153,-0.5 153,-52.5 365,-52.5 365,-0.5 153,-0.5"/>
<text text-anchor="start" x="161" y="-40.5" font-family="Helvetica,sans-Serif" font-size="10.00">Feel::detail::AdvancedConcat</text>
<text text-anchor="start" x="161" y="-29.5" font-family="Helvetica,sans-Serif" font-size="10.00">OfTupleContainerType&lt; FeelppTag</text>
<text text-anchor="start" x="161" y="-18.5" font-family="Helvetica,sans-Serif" font-size="10.00">OfTupleType, FeelppTagOfContainerType</text>
<text text-anchor="middle" x="259" y="-7.5" font-family="Helvetica,sans-Serif" font-size="10.00"> &gt;::is_a_t&lt; Tag, T &gt;</text>
</a>
</g>
</g>
<!-- Node0&#45;&gt;Node2 -->
<g id="edge2" class="edge">
<title>Node0&#45;&gt;Node2</title>
<path fill="none" stroke="midnightblue" d="M127.11,-49.58C135.39,-48.12 144.01,-46.6 152.69,-45.07"/>
<polygon fill="midnightblue" stroke="midnightblue" points="126.42,-46.15 117.18,-51.33 127.64,-53.04 126.42,-46.15"/>
</g>
</g>
</svg>
