<?xml version="1.0" encoding="UTF-8" standalone="no"?>
<!DOCTYPE svg PUBLIC "-//W3C//DTD SVG 1.1//EN"
 "http://www.w3.org/Graphics/SVG/1.1/DTD/svg11.dtd">
<!-- Generated by graphviz version 2.43.0 (0)
 -->
<!-- Title: Graphical Class Hierarchy Pages: 1 -->
<svg width="312pt" height="170pt"
 viewBox="0.00 0.00 312.00 170.00" xmlns="http://www.w3.org/2000/svg" xmlns:xlink="http://www.w3.org/1999/xlink">
<g id="graph0" class="graph" transform="scale(1 1) rotate(0) translate(4 166)">
<title>Graphical Class Hierarchy</title>
<polygon fill="white" stroke="transparent" points="-4,4 -4,-166 308,-166 308,4 -4,4"/>
<!-- Node194 -->
<g id="node1" class="node">
<title>Node194</title>
<g id="a_node1"><a xlink:title=" ">
<polygon fill="white" stroke="#bfbfbf" points="0,-71.5 0,-90.5 92,-90.5 92,-71.5 0,-71.5"/>
<text text-anchor="middle" x="46" y="-78.5" font-family="Helvetica,sans-Serif" font-size="10.00">binary_function</text>
</a>
</g>
</g>
<!-- Node0 -->
<g id="node2" class="node">
<title>Node0</title>
<g id="a_node2"><a xlink:href="structFeel_1_1details_1_1RemoveMarkerNameWithoutEntityForAllReduce.html" target="_top" xlink:title=" ">
<polygon fill="white" stroke="black" points="128,-120.5 128,-161.5 304,-161.5 304,-120.5 128,-120.5"/>
<text text-anchor="start" x="136" y="-149.5" font-family="Helvetica,sans-Serif" font-size="10.00">Feel::details::RemoveMarker</text>
<text text-anchor="start" x="136" y="-138.5" font-family="Helvetica,sans-Serif" font-size="10.00">NameWithoutEntityForAllReduce</text>
<text text-anchor="middle" x="216" y="-127.5" font-family="Helvetica,sans-Serif" font-size="10.00">&lt; IndexT &gt;</text>
</a>
</g>
</g>
<!-- Node194&#45;&gt;Node0 -->
<g id="edge1" class="edge">
<title>Node194&#45;&gt;Node0</title>
<path fill="none" stroke="midnightblue" d="M81.92,-94.13C96.18,-99.44 112.86,-105.59 128,-111 136.58,-114.07 145.64,-117.25 154.56,-120.36"/>
<polygon fill="midnightblue" stroke="midnightblue" points="83.08,-90.83 72.48,-90.61 80.63,-97.38 83.08,-90.83"/>
</g>
<!-- Node196 -->
<g id="node3" class="node">
<title>Node196</title>
<g id="a_node3"><a xlink:href="structFeel_1_1Mesh_1_1UpdateNumGlobalEntitiesForAllReduce.html" target="_top" xlink:title=" ">
<polygon fill="white" stroke="black" points="134.5,-60.5 134.5,-101.5 297.5,-101.5 297.5,-60.5 134.5,-60.5"/>
<text text-anchor="start" x="142.5" y="-89.5" font-family="Helvetica,sans-Serif" font-size="10.00">Feel::Mesh&lt; GeoShape,</text>
<text text-anchor="start" x="142.5" y="-78.5" font-family="Helvetica,sans-Serif" font-size="10.00"> T, Tag, IndexT &gt;::UpdateNum</text>
<text text-anchor="middle" x="216" y="-67.5" font-family="Helvetica,sans-Serif" font-size="10.00">GlobalEntitiesForAllReduce</text>
</a>
</g>
</g>
<!-- Node194&#45;&gt;Node196 -->
<g id="edge2" class="edge">
<title>Node194&#45;&gt;Node196</title>
<path fill="none" stroke="midnightblue" d="M102.06,-81C112.35,-81 123.3,-81 134.18,-81"/>
<polygon fill="midnightblue" stroke="midnightblue" points="102.02,-77.5 92.02,-81 102.02,-84.5 102.02,-77.5"/>
</g>
<!-- Node197 -->
<g id="node4" class="node">
<title>Node197</title>
<g id="a_node4"><a xlink:href="structFeel_1_1Mesh_1_1UpdateSetForAllReduce.html" target="_top" xlink:title=" ">
<polygon fill="white" stroke="black" points="138.5,-0.5 138.5,-41.5 293.5,-41.5 293.5,-0.5 138.5,-0.5"/>
<text text-anchor="start" x="146.5" y="-29.5" font-family="Helvetica,sans-Serif" font-size="10.00">Feel::Mesh&lt; GeoShape,</text>
<text text-anchor="start" x="146.5" y="-18.5" font-family="Helvetica,sans-Serif" font-size="10.00"> T, Tag, IndexT &gt;::UpdateSet</text>
<text text-anchor="middle" x="216" y="-7.5" font-family="Helvetica,sans-Serif" font-size="10.00">ForAllReduce&lt; ContType &gt;</text>
</a>
</g>
</g>
<!-- Node194&#45;&gt;Node197 -->
<g id="edge3" class="edge">
<title>Node194&#45;&gt;Node197</title>
<path fill="none" stroke="midnightblue" d="M81.92,-67.87C96.18,-62.56 112.86,-56.41 128,-51 136.58,-47.93 145.64,-44.75 154.56,-41.64"/>
<polygon fill="midnightblue" stroke="midnightblue" points="80.63,-64.62 72.48,-71.39 83.08,-71.17 80.63,-64.62"/>
</g>
</g>
</svg>
