<?xml version="1.0" encoding="UTF-8" standalone="no"?>
<!DOCTYPE svg PUBLIC "-//W3C//DTD SVG 1.1//EN"
 "http://www.w3.org/Graphics/SVG/1.1/DTD/svg11.dtd">
<!-- Generated by graphviz version 2.43.0 (0)
 -->
<!-- Title: Graphical Class Hierarchy Pages: 1 -->
<svg width="490pt" height="323pt"
 viewBox="0.00 0.00 490.00 322.50" xmlns="http://www.w3.org/2000/svg" xmlns:xlink="http://www.w3.org/1999/xlink">
<g id="graph0" class="graph" transform="scale(1 1) rotate(0) translate(4 318.5)">
<title>Graphical Class Hierarchy</title>
<polygon fill="white" stroke="transparent" points="-4,4 -4,-318.5 486,-318.5 486,4 -4,4"/>
<!-- Node159 -->
<g id="node1" class="node">
<title>Node159</title>
<g id="a_node1"><a xlink:title="STL class.">
<polygon fill="white" stroke="#bfbfbf" points="0,-166.5 0,-185.5 86,-185.5 86,-166.5 0,-166.5"/>
<text text-anchor="middle" x="43" y="-173.5" font-family="Helvetica,sans-Serif" font-size="10.00">std::exception</text>
</a>
</g>
</g>
<!-- Node0 -->
<g id="node2" class="node">
<title>Node0</title>
<g id="a_node2"><a xlink:href="classFeel_1_1FactoryDefaultError_1_1Exception.html" target="_top" xlink:title=" ">
<polygon fill="white" stroke="black" points="122,-204.5 122,-245.5 300,-245.5 300,-204.5 122,-204.5"/>
<text text-anchor="start" x="130" y="-233.5" font-family="Helvetica,sans-Serif" font-size="10.00">Feel::FactoryDefaultError</text>
<text text-anchor="start" x="130" y="-222.5" font-family="Helvetica,sans-Serif" font-size="10.00">&lt; IdentifierType, AbstractProduct</text>
<text text-anchor="middle" x="211" y="-211.5" font-family="Helvetica,sans-Serif" font-size="10.00"> &gt;::Exception</text>
</a>
</g>
</g>
<!-- Node159&#45;&gt;Node0 -->
<g id="edge1" class="edge">
<title>Node159&#45;&gt;Node0</title>
<path fill="none" stroke="midnightblue" d="M86.22,-188.46C102.64,-193.31 121.89,-198.99 140.25,-204.41"/>
<polygon fill="midnightblue" stroke="midnightblue" points="86.98,-185.04 76.4,-185.56 85,-191.75 86.98,-185.04"/>
</g>
<!-- Node161 -->
<g id="node3" class="node">
<title>Node161</title>
<g id="a_node3"><a xlink:href="classnlohmann_1_1detail_1_1exception.html" target="_top" xlink:title="general exception of the basic_json class">
<polygon fill="white" stroke="black" points="134.5,-166.5 134.5,-185.5 287.5,-185.5 287.5,-166.5 134.5,-166.5"/>
<text text-anchor="middle" x="211" y="-173.5" font-family="Helvetica,sans-Serif" font-size="10.00">nlohmann::detail::exception</text>
</a>
</g>
</g>
<!-- Node159&#45;&gt;Node161 -->
<g id="edge2" class="edge">
<title>Node159&#45;&gt;Node161</title>
<path fill="none" stroke="midnightblue" d="M96.56,-176C108.53,-176 121.48,-176 134.2,-176"/>
<polygon fill="midnightblue" stroke="midnightblue" points="96.32,-172.5 86.32,-176 96.32,-179.5 96.32,-172.5"/>
</g>
<!-- Node167 -->
<g id="node9" class="node">
<title>Node167</title>
<g id="a_node9"><a xlink:title="STL class.">
<polygon fill="white" stroke="#bfbfbf" points="166.5,-44.5 166.5,-63.5 255.5,-63.5 255.5,-44.5 166.5,-44.5"/>
<text text-anchor="middle" x="211" y="-51.5" font-family="Helvetica,sans-Serif" font-size="10.00">std::logic_error</text>
</a>
</g>
</g>
<!-- Node159&#45;&gt;Node167 -->
<g id="edge8" class="edge">
<title>Node159&#45;&gt;Node167</title>
<path fill="none" stroke="midnightblue" d="M65.11,-160.48C99.96,-134.87 168.48,-84.51 197.03,-63.53"/>
<polygon fill="midnightblue" stroke="midnightblue" points="63.01,-157.68 57.03,-166.43 67.16,-163.33 63.01,-157.68"/>
</g>
<!-- Node162 -->
<g id="node4" class="node">
<title>Node162</title>
<g id="a_node4"><a xlink:href="classnlohmann_1_1detail_1_1invalid__iterator.html" target="_top" xlink:title="exception indicating errors with iterators">
<polygon fill="white" stroke="black" points="340,-284 340,-314 478,-314 478,-284 340,-284"/>
<text text-anchor="start" x="348" y="-302" font-family="Helvetica,sans-Serif" font-size="10.00">nlohmann::detail::invalid</text>
<text text-anchor="middle" x="409" y="-291" font-family="Helvetica,sans-Serif" font-size="10.00">_iterator</text>
</a>
</g>
</g>
<!-- Node161&#45;&gt;Node162 -->
<g id="edge3" class="edge">
<title>Node161&#45;&gt;Node162</title>
<path fill="none" stroke="midnightblue" d="M293.46,-190.37C295.74,-191.78 297.93,-193.32 300,-195 330.31,-219.53 307.07,-248.86 336,-275 339.81,-278.45 344.13,-281.4 348.72,-283.93"/>
<polygon fill="midnightblue" stroke="midnightblue" points="294.76,-187.1 284.28,-185.55 291.5,-193.3 294.76,-187.1"/>
</g>
<!-- Node163 -->
<g id="node5" class="node">
<title>Node163</title>
<g id="a_node5"><a xlink:href="classnlohmann_1_1detail_1_1other__error.html" target="_top" xlink:title="exception indicating other library errors">
<polygon fill="white" stroke="black" points="343.5,-235 343.5,-265 474.5,-265 474.5,-235 343.5,-235"/>
<text text-anchor="start" x="351.5" y="-253" font-family="Helvetica,sans-Serif" font-size="10.00">nlohmann::detail::other</text>
<text text-anchor="middle" x="409" y="-242" font-family="Helvetica,sans-Serif" font-size="10.00">_error</text>
</a>
</g>
</g>
<!-- Node161&#45;&gt;Node163 -->
<g id="edge4" class="edge">
<title>Node161&#45;&gt;Node163</title>
<path fill="none" stroke="midnightblue" d="M284.57,-188.58C289.9,-190.44 295.1,-192.56 300,-195 318.9,-204.41 317.64,-215.58 336,-226 341.84,-229.32 348.22,-232.27 354.68,-234.86"/>
<polygon fill="midnightblue" stroke="midnightblue" points="285.45,-185.19 274.86,-185.53 283.35,-191.87 285.45,-185.19"/>
</g>
<!-- Node164 -->
<g id="node6" class="node">
<title>Node164</title>
<g id="a_node6"><a xlink:href="classnlohmann_1_1detail_1_1out__of__range.html" target="_top" xlink:title="exception indicating access out of the defined range">
<polygon fill="white" stroke="black" points="348.5,-186 348.5,-216 469.5,-216 469.5,-186 348.5,-186"/>
<text text-anchor="start" x="356.5" y="-204" font-family="Helvetica,sans-Serif" font-size="10.00">nlohmann::detail::out</text>
<text text-anchor="middle" x="409" y="-193" font-family="Helvetica,sans-Serif" font-size="10.00">_of_range</text>
</a>
</g>
</g>
<!-- Node161&#45;&gt;Node164 -->
<g id="edge5" class="edge">
<title>Node161&#45;&gt;Node164</title>
<path fill="none" stroke="midnightblue" d="M296.82,-186.82C314.22,-189.04 332.19,-191.33 348.47,-193.41"/>
<polygon fill="midnightblue" stroke="midnightblue" points="297.02,-183.32 286.66,-185.52 296.14,-190.26 297.02,-183.32"/>
</g>
<!-- Node165 -->
<g id="node7" class="node">
<title>Node165</title>
<g id="a_node7"><a xlink:href="classnlohmann_1_1detail_1_1parse__error.html" target="_top" xlink:title="exception indicating a parse error">
<polygon fill="white" stroke="black" points="343,-137 343,-167 475,-167 475,-137 343,-137"/>
<text text-anchor="start" x="351" y="-155" font-family="Helvetica,sans-Serif" font-size="10.00">nlohmann::detail::parse</text>
<text text-anchor="middle" x="409" y="-144" font-family="Helvetica,sans-Serif" font-size="10.00">_error</text>
</a>
</g>
</g>
<!-- Node161&#45;&gt;Node165 -->
<g id="edge6" class="edge">
<title>Node161&#45;&gt;Node165</title>
<path fill="none" stroke="midnightblue" d="M298.12,-165.46C313.16,-163.61 328.58,-161.72 342.94,-159.97"/>
<polygon fill="midnightblue" stroke="midnightblue" points="297.28,-162.03 287.78,-166.72 298.13,-168.98 297.28,-162.03"/>
</g>
<!-- Node166 -->
<g id="node8" class="node">
<title>Node166</title>
<g id="a_node8"><a xlink:href="classnlohmann_1_1detail_1_1type__error.html" target="_top" xlink:title="exception indicating executing a member function with a wrong type">
<polygon fill="white" stroke="black" points="345.5,-88 345.5,-118 472.5,-118 472.5,-88 345.5,-88"/>
<text text-anchor="start" x="353.5" y="-106" font-family="Helvetica,sans-Serif" font-size="10.00">nlohmann::detail::type</text>
<text text-anchor="middle" x="409" y="-95" font-family="Helvetica,sans-Serif" font-size="10.00">_error</text>
</a>
</g>
</g>
<!-- Node161&#45;&gt;Node166 -->
<g id="edge7" class="edge">
<title>Node161&#45;&gt;Node166</title>
<path fill="none" stroke="midnightblue" d="M245.49,-162.67C270.38,-152.85 305.2,-139.31 336,-128 344.94,-124.72 354.55,-121.3 363.74,-118.09"/>
<polygon fill="midnightblue" stroke="midnightblue" points="244.15,-159.43 236.14,-166.37 246.73,-165.94 244.15,-159.43"/>
</g>
<!-- Node168 -->
<g id="node10" class="node">
<title>Node168</title>
<g id="a_node10"><a xlink:href="structFeel_1_1CheckerConvergenceFailed.html" target="_top" xlink:title=" ">
<polygon fill="white" stroke="black" points="336,-39 336,-69 482,-69 482,-39 336,-39"/>
<text text-anchor="start" x="344" y="-57" font-family="Helvetica,sans-Serif" font-size="10.00">Feel::CheckerConvergence</text>
<text text-anchor="middle" x="409" y="-46" font-family="Helvetica,sans-Serif" font-size="10.00">Failed</text>
</a>
</g>
</g>
<!-- Node167&#45;&gt;Node168 -->
<g id="edge9" class="edge">
<title>Node167&#45;&gt;Node168</title>
<path fill="none" stroke="midnightblue" d="M266.22,-54C287.7,-54 312.71,-54 335.7,-54"/>
<polygon fill="midnightblue" stroke="midnightblue" points="265.99,-50.5 255.99,-54 265.99,-57.5 265.99,-50.5"/>
</g>
<!-- Node169 -->
<g id="node11" class="node">
<title>Node169</title>
<g id="a_node11"><a xlink:href="structFeel_1_1CheckerExactFailed.html" target="_top" xlink:title=" ">
<polygon fill="white" stroke="black" points="340,-0.5 340,-19.5 478,-19.5 478,-0.5 340,-0.5"/>
<text text-anchor="middle" x="409" y="-7.5" font-family="Helvetica,sans-Serif" font-size="10.00">Feel::CheckerExactFailed</text>
</a>
</g>
</g>
<!-- Node167&#45;&gt;Node169 -->
<g id="edge10" class="edge">
<title>Node167&#45;&gt;Node169</title>
<path fill="none" stroke="midnightblue" d="M264.49,-42.22C296.13,-35.11 335.91,-26.18 365.55,-19.53"/>
<polygon fill="midnightblue" stroke="midnightblue" points="263.52,-38.85 254.53,-44.45 265.05,-45.68 263.52,-38.85"/>
</g>
</g>
</svg>
