<?xml version="1.0" encoding="UTF-8" standalone="no"?>
<!DOCTYPE svg PUBLIC "-//W3C//DTD SVG 1.1//EN"
 "http://www.w3.org/Graphics/SVG/1.1/DTD/svg11.dtd">
<!-- Generated by graphviz version 2.43.0 (0)
 -->
<!-- Title: Graphical Class Hierarchy Pages: 1 -->
<svg width="334pt" height="271pt"
 viewBox="0.00 0.00 334.00 271.00" xmlns="http://www.w3.org/2000/svg" xmlns:xlink="http://www.w3.org/1999/xlink">
<g id="graph0" class="graph" transform="scale(1 1) rotate(0) translate(4 267)">
<title>Graphical Class Hierarchy</title>
<polygon fill="white" stroke="transparent" points="-4,4 -4,-267 330,-267 330,4 -4,4"/>
<!-- Node1034 -->
<g id="node1" class="node">
<title>Node1034</title>
<g id="a_node1"><a xlink:href="classEdges.html" target="_top" xlink:title=" ">
<polygon fill="white" stroke="black" points="44.5,-243.5 44.5,-262.5 90.5,-262.5 90.5,-243.5 44.5,-243.5"/>
<text text-anchor="middle" x="67.5" y="-250.5" font-family="Helvetica,sans-Serif" font-size="10.00">Edges</text>
</a>
</g>
</g>
<!-- Node4 -->
<g id="node2" class="node">
<title>Node4</title>
<g id="a_node2"><a xlink:href="classFeel_1_1Mesh3D.html" target="_top" xlink:title="3D mesh class">
<polygon fill="white" stroke="black" points="185,-186 185,-216 312,-216 312,-186 185,-186"/>
<text text-anchor="start" x="193" y="-204" font-family="Helvetica,sans-Serif" font-size="10.00">Feel::Mesh3D&lt; Shape,</text>
<text text-anchor="middle" x="248.5" y="-193" font-family="Helvetica,sans-Serif" font-size="10.00"> T, IndexT &gt;</text>
</a>
</g>
</g>
<!-- Node1034&#45;&gt;Node4 -->
<g id="edge1" class="edge">
<title>Node1034&#45;&gt;Node4</title>
<path fill="none" stroke="midnightblue" d="M100.31,-243.96C111.3,-240.82 123.7,-237.27 135,-234 155.14,-228.17 177.28,-221.69 196.56,-216.02"/>
<polygon fill="midnightblue" stroke="midnightblue" points="99.34,-240.6 90.68,-246.71 101.25,-247.33 99.34,-240.6"/>
</g>
<!-- Node1033 -->
<g id="node3" class="node">
<title>Node1033</title>
<g id="a_node3"><a xlink:href="classElements.html" target="_top" xlink:title=" ">
<polygon fill="white" stroke="black" points="36.5,-167.5 36.5,-186.5 98.5,-186.5 98.5,-167.5 36.5,-167.5"/>
<text text-anchor="middle" x="67.5" y="-174.5" font-family="Helvetica,sans-Serif" font-size="10.00">Elements</text>
</a>
</g>
</g>
<!-- Node1033&#45;&gt;Node4 -->
<g id="edge5" class="edge">
<title>Node1033&#45;&gt;Node4</title>
<path fill="none" stroke="midnightblue" d="M108.99,-182.43C131.32,-185.42 159.52,-189.2 184.64,-192.57"/>
<polygon fill="midnightblue" stroke="midnightblue" points="109.24,-178.93 98.86,-181.07 108.31,-185.87 109.24,-178.93"/>
</g>
<!-- Node1 -->
<g id="node4" class="node">
<title>Node1</title>
<g id="a_node4"><a xlink:href="classFeel_1_1Mesh0D.html" target="_top" xlink:title="0D mesh class">
<polygon fill="white" stroke="black" points="185,-39 185,-69 312,-69 312,-39 185,-39"/>
<text text-anchor="start" x="193" y="-57" font-family="Helvetica,sans-Serif" font-size="10.00">Feel::Mesh0D&lt; Shape,</text>
<text text-anchor="middle" x="248.5" y="-46" font-family="Helvetica,sans-Serif" font-size="10.00"> T, IndexT &gt;</text>
</a>
</g>
</g>
<!-- Node1033&#45;&gt;Node1 -->
<g id="edge2" class="edge">
<title>Node1033&#45;&gt;Node1</title>
<path fill="none" stroke="midnightblue" d="M108.43,-171.54C117.94,-168.72 127.5,-164.45 135,-158 164.24,-132.83 142.24,-104.72 171,-79 175.37,-75.09 180.37,-71.79 185.67,-69"/>
<polygon fill="midnightblue" stroke="midnightblue" points="107.47,-168.17 98.61,-173.99 109.16,-174.97 107.47,-168.17"/>
</g>
<!-- Node2 -->
<g id="node5" class="node">
<title>Node2</title>
<g id="a_node5"><a xlink:href="classFeel_1_1Mesh1D.html" target="_top" xlink:title="1D mesh class">
<polygon fill="white" stroke="black" points="185,-88 185,-118 312,-118 312,-88 185,-88"/>
<text text-anchor="start" x="193" y="-106" font-family="Helvetica,sans-Serif" font-size="10.00">Feel::Mesh1D&lt; Shape,</text>
<text text-anchor="middle" x="248.5" y="-95" font-family="Helvetica,sans-Serif" font-size="10.00"> T, IndexT &gt;</text>
</a>
</g>
</g>
<!-- Node1033&#45;&gt;Node2 -->
<g id="edge3" class="edge">
<title>Node1033&#45;&gt;Node2</title>
<path fill="none" stroke="midnightblue" d="M108.58,-168.46C117.55,-165.77 126.83,-162.32 135,-158 153.41,-148.26 152.78,-138.08 171,-128 177.72,-124.28 185.09,-121 192.51,-118.15"/>
<polygon fill="midnightblue" stroke="midnightblue" points="107.36,-165.17 98.65,-171.2 109.22,-171.92 107.36,-165.17"/>
</g>
<!-- Node3 -->
<g id="node6" class="node">
<title>Node3</title>
<g id="a_node6"><a xlink:href="classFeel_1_1Mesh2D.html" target="_top" xlink:title="2D mesh class">
<polygon fill="white" stroke="black" points="185,-137 185,-167 312,-167 312,-137 185,-137"/>
<text text-anchor="start" x="193" y="-155" font-family="Helvetica,sans-Serif" font-size="10.00">Feel::Mesh2D&lt; Shape,</text>
<text text-anchor="middle" x="248.5" y="-144" font-family="Helvetica,sans-Serif" font-size="10.00"> T, IndexT &gt;</text>
</a>
</g>
</g>
<!-- Node1033&#45;&gt;Node3 -->
<g id="edge4" class="edge">
<title>Node1033&#45;&gt;Node3</title>
<path fill="none" stroke="midnightblue" d="M108.99,-171.34C131.32,-168.23 159.52,-164.29 184.64,-160.78"/>
<polygon fill="midnightblue" stroke="midnightblue" points="108.28,-167.91 98.86,-172.76 109.25,-174.84 108.28,-167.91"/>
</g>
<!-- Node1001 -->
<g id="node7" class="node">
<title>Node1001</title>
<g id="a_node7"><a xlink:href="classFaces.html" target="_top" xlink:title=" ">
<polygon fill="white" stroke="black" points="45.5,-205.5 45.5,-224.5 89.5,-224.5 89.5,-205.5 45.5,-205.5"/>
<text text-anchor="middle" x="67.5" y="-212.5" font-family="Helvetica,sans-Serif" font-size="10.00">Faces</text>
</a>
</g>
</g>
<!-- Node1001&#45;&gt;Node4 -->
<g id="edge7" class="edge">
<title>Node1001&#45;&gt;Node4</title>
<path fill="none" stroke="midnightblue" d="M99.79,-212.55C123.23,-210.72 156.06,-208.15 184.82,-205.9"/>
<polygon fill="midnightblue" stroke="midnightblue" points="99.43,-209.07 89.74,-213.34 99.98,-216.05 99.43,-209.07"/>
</g>
<!-- Node1001&#45;&gt;Node3 -->
<g id="edge6" class="edge">
<title>Node1001&#45;&gt;Node3</title>
<path fill="none" stroke="midnightblue" d="M99.46,-207.59C110.81,-204.5 123.65,-200.56 135,-196 151.79,-189.26 154.34,-184.06 171,-177 179.36,-173.46 188.41,-170.1 197.26,-167.07"/>
<polygon fill="midnightblue" stroke="midnightblue" points="98.33,-204.26 89.54,-210.18 100.1,-211.04 98.33,-204.26"/>
</g>
<!-- Node626 -->
<g id="node8" class="node">
<title>Node626</title>
<g id="a_node8"><a xlink:href="classFeel_1_1PointSetBase.html" target="_top" xlink:title="base class for point sets, to be used eg with SFINAE">
<polygon fill="white" stroke="black" points="14,-0.5 14,-19.5 121,-19.5 121,-0.5 14,-0.5"/>
<text text-anchor="middle" x="67.5" y="-7.5" font-family="Helvetica,sans-Serif" font-size="10.00">Feel::PointSetBase</text>
</a>
</g>
</g>
<!-- Node5 -->
<g id="node9" class="node">
<title>Node5</title>
<g id="a_node9"><a xlink:href="classFeel_1_1PointSet.html" target="_top" xlink:title="Class of all PointSet on a Convex.">
<polygon fill="white" stroke="black" points="171,-0.5 171,-19.5 326,-19.5 326,-0.5 171,-0.5"/>
<text text-anchor="middle" x="248.5" y="-7.5" font-family="Helvetica,sans-Serif" font-size="10.00">Feel::PointSet&lt; Convex, T &gt;</text>
</a>
</g>
</g>
<!-- Node626&#45;&gt;Node5 -->
<g id="edge8" class="edge">
<title>Node626&#45;&gt;Node5</title>
<path fill="none" stroke="midnightblue" d="M131.31,-10C144.11,-10 157.71,-10 170.93,-10"/>
<polygon fill="midnightblue" stroke="midnightblue" points="131.24,-6.5 121.24,-10 131.24,-13.5 131.24,-6.5"/>
</g>
<!-- Node352 -->
<g id="node10" class="node">
<title>Node352</title>
<g id="a_node10"><a xlink:href="classFeel_1_1MeshBase.html" target="_top" xlink:title=" ">
<polygon fill="white" stroke="black" points="0,-118 0,-148 135,-148 135,-118 0,-118"/>
<text text-anchor="start" x="8" y="-136" font-family="Helvetica,sans-Serif" font-size="10.00">Feel::MeshBase&lt; uint32</text>
<text text-anchor="middle" x="67.5" y="-125" font-family="Helvetica,sans-Serif" font-size="10.00">_type &gt;</text>
</a>
</g>
</g>
<!-- Node352&#45;&gt;Node4 -->
<g id="edge12" class="edge">
<title>Node352&#45;&gt;Node4</title>
<path fill="none" stroke="midnightblue" d="M120.51,-151.83C125.44,-153.83 130.34,-155.9 135,-158 151.5,-165.42 154.3,-170.04 171,-177 178.71,-180.21 187.01,-183.24 195.19,-185.99"/>
<polygon fill="midnightblue" stroke="midnightblue" points="121.63,-148.51 111.04,-148.08 119.05,-155.01 121.63,-148.51"/>
</g>
<!-- Node352&#45;&gt;Node1 -->
<g id="edge9" class="edge">
<title>Node352&#45;&gt;Node1</title>
<path fill="none" stroke="midnightblue" d="M123.66,-113.86C127.57,-112.02 131.39,-110.06 135,-108 152.84,-97.81 152.94,-88.8 171,-79 177.88,-75.27 185.41,-71.97 192.97,-69.1"/>
<polygon fill="midnightblue" stroke="midnightblue" points="122.18,-110.68 114.45,-117.93 125.01,-117.09 122.18,-110.68"/>
</g>
<!-- Node352&#45;&gt;Node2 -->
<g id="edge10" class="edge">
<title>Node352&#45;&gt;Node2</title>
<path fill="none" stroke="midnightblue" d="M145.2,-120.15C158.46,-117.92 172.11,-115.64 184.94,-113.48"/>
<polygon fill="midnightblue" stroke="midnightblue" points="144.44,-116.72 135.15,-121.83 145.59,-123.63 144.44,-116.72"/>
</g>
<!-- Node352&#45;&gt;Node3 -->
<g id="edge11" class="edge">
<title>Node352&#45;&gt;Node3</title>
<path fill="none" stroke="midnightblue" d="M145.2,-141.14C158.46,-142.55 172.11,-144 184.94,-145.36"/>
<polygon fill="midnightblue" stroke="midnightblue" points="145.47,-137.65 135.15,-140.07 144.73,-144.61 145.47,-137.65"/>
</g>
<!-- Node222 -->
<g id="node11" class="node">
<title>Node222</title>
<g id="a_node11"><a xlink:href="classPoints.html" target="_top" xlink:title=" ">
<polygon fill="white" stroke="black" points="44,-79.5 44,-98.5 91,-98.5 91,-79.5 44,-79.5"/>
<text text-anchor="middle" x="67.5" y="-86.5" font-family="Helvetica,sans-Serif" font-size="10.00">Points</text>
</a>
</g>
</g>
<!-- Node222&#45;&gt;Node4 -->
<g id="edge16" class="edge">
<title>Node222&#45;&gt;Node4</title>
<path fill="none" stroke="midnightblue" d="M101.13,-93.45C112.8,-96.35 125.42,-101.12 135,-109 161.42,-130.71 144.71,-155.13 171,-177 175.17,-180.47 179.85,-183.44 184.78,-185.99"/>
<polygon fill="midnightblue" stroke="midnightblue" points="101.73,-90 91.22,-91.36 100.29,-96.85 101.73,-90"/>
</g>
<!-- Node222&#45;&gt;Node1 -->
<g id="edge13" class="edge">
<title>Node222&#45;&gt;Node1</title>
<path fill="none" stroke="midnightblue" d="M101.21,-82.6C124.5,-78.05 156.52,-71.79 184.67,-66.28"/>
<polygon fill="midnightblue" stroke="midnightblue" points="100.31,-79.21 91.17,-84.57 101.66,-86.08 100.31,-79.21"/>
</g>
<!-- Node222&#45;&gt;Node2 -->
<g id="edge14" class="edge">
<title>Node222&#45;&gt;Node2</title>
<path fill="none" stroke="midnightblue" d="M101.21,-91.56C124.5,-93.38 156.52,-95.88 184.67,-98.09"/>
<polygon fill="midnightblue" stroke="midnightblue" points="101.41,-88.06 91.17,-90.77 100.87,-95.04 101.41,-88.06"/>
</g>
<!-- Node222&#45;&gt;Node3 -->
<g id="edge15" class="edge">
<title>Node222&#45;&gt;Node3</title>
<path fill="none" stroke="midnightblue" d="M100.73,-97.33C111.76,-100.54 124.07,-104.52 135,-109 151.74,-115.86 154.3,-121.04 171,-128 178.71,-131.21 187.01,-134.24 195.19,-136.99"/>
<polygon fill="midnightblue" stroke="midnightblue" points="101.61,-93.94 91.04,-94.61 99.72,-100.68 101.61,-93.94"/>
</g>
<!-- Node0 -->
<g id="node12" class="node">
<title>Node0</title>
<g id="a_node12"><a xlink:href="classFeel_1_1VisitableBase.html" target="_top" xlink:title=" ">
<polygon fill="white" stroke="black" points="4.5,-41.5 4.5,-60.5 130.5,-60.5 130.5,-41.5 4.5,-41.5"/>
<text text-anchor="middle" x="67.5" y="-48.5" font-family="Helvetica,sans-Serif" font-size="10.00">Feel::VisitableBase&lt;&gt;</text>
</a>
</g>
</g>
<!-- Node0&#45;&gt;Node4 -->
<g id="edge20" class="edge">
<title>Node0&#45;&gt;Node4</title>
<path fill="none" stroke="midnightblue" d="M129.69,-65.63C131.56,-66.96 133.34,-68.42 135,-70 171.29,-104.65 135.16,-141.89 171,-177 175.08,-180.99 179.81,-184.32 184.88,-187.1"/>
<polygon fill="midnightblue" stroke="midnightblue" points="131.34,-62.54 120.94,-60.52 127.81,-68.59 131.34,-62.54"/>
</g>
<!-- Node0&#45;&gt;Node1 -->
<g id="edge17" class="edge">
<title>Node0&#45;&gt;Node1</title>
<path fill="none" stroke="midnightblue" d="M140.63,-52.21C155.29,-52.45 170.6,-52.71 184.9,-52.95"/>
<polygon fill="midnightblue" stroke="midnightblue" points="140.66,-48.71 130.6,-52.04 140.54,-55.71 140.66,-48.71"/>
</g>
<!-- Node0&#45;&gt;Node2 -->
<g id="edge18" class="edge">
<title>Node0&#45;&gt;Node2</title>
<path fill="none" stroke="midnightblue" d="M111.66,-63.28C119.43,-65.51 127.46,-67.82 135,-70 155.14,-75.83 177.28,-82.31 196.56,-87.98"/>
<polygon fill="midnightblue" stroke="midnightblue" points="112.58,-59.91 102,-60.52 110.65,-66.64 112.58,-59.91"/>
</g>
<!-- Node0&#45;&gt;Node3 -->
<g id="edge19" class="edge">
<title>Node0&#45;&gt;Node3</title>
<path fill="none" stroke="midnightblue" d="M127,-64.87C129.81,-66.4 132.49,-68.11 135,-70 159.21,-88.28 147.03,-109.41 171,-128 175.4,-131.41 180.29,-134.34 185.42,-136.86"/>
<polygon fill="midnightblue" stroke="midnightblue" points="128.25,-61.59 117.71,-60.52 125.28,-67.93 128.25,-61.59"/>
</g>
<!-- Node0&#45;&gt;Node5 -->
<g id="edge21" class="edge">
<title>Node0&#45;&gt;Node5</title>
<path fill="none" stroke="midnightblue" d="M119.78,-39.25C147.08,-33 180.22,-25.41 205.9,-19.53"/>
<polygon fill="midnightblue" stroke="midnightblue" points="118.98,-35.85 110.02,-41.49 120.55,-42.67 118.98,-35.85"/>
</g>
</g>
</svg>
