<?xml version="1.0" encoding="UTF-8" standalone="no"?>
<!DOCTYPE svg PUBLIC "-//W3C//DTD SVG 1.1//EN"
 "http://www.w3.org/Graphics/SVG/1.1/DTD/svg11.dtd">
<!-- Generated by graphviz version 2.43.0 (0)
 -->
<!-- Title: Graphical Class Hierarchy Pages: 1 -->
<svg width="338pt" height="274pt"
 viewBox="0.00 0.00 338.00 273.50" xmlns="http://www.w3.org/2000/svg" xmlns:xlink="http://www.w3.org/1999/xlink">
<g id="graph0" class="graph" transform="scale(1 1) rotate(0) translate(4 269.5)">
<title>Graphical Class Hierarchy</title>
<polygon fill="white" stroke="transparent" points="-4,4 -4,-269.5 334,-269.5 334,4 -4,4"/>
<!-- Node1112 -->
<g id="node1" class="node">
<title>Node1112</title>
<g id="a_node1"><a xlink:title=" ">
<polygon fill="white" stroke="#bfbfbf" points="28.5,-170 28.5,-189 108.5,-189 108.5,-170 28.5,-170"/>
<text text-anchor="middle" x="68.5" y="-177" font-family="Helvetica,sans-Serif" font-size="10.00">polyset_type</text>
</a>
</g>
</g>
<!-- Node1 -->
<g id="node2" class="node">
<title>Node1</title>
<g id="a_node2"><a xlink:href="classFeel_1_1FunctionSpace_1_1Element.html" target="_top" xlink:title=" ">
<polygon fill="white" stroke="black" points="186,-159 186,-200 317,-200 317,-159 186,-159"/>
<text text-anchor="start" x="194" y="-188" font-family="Helvetica,sans-Serif" font-size="10.00">Feel::FunctionSpace</text>
<text text-anchor="start" x="194" y="-177" font-family="Helvetica,sans-Serif" font-size="10.00">&lt; A0, A1, A2, A3, A4</text>
<text text-anchor="middle" x="251.5" y="-166" font-family="Helvetica,sans-Serif" font-size="10.00"> &gt;::Element&lt; T, Cont &gt;</text>
</a>
</g>
</g>
<!-- Node1112&#45;&gt;Node1 -->
<g id="edge1" class="edge">
<title>Node1112&#45;&gt;Node1</title>
<path fill="none" stroke="#8b1a1a" d="M118.88,-179.5C139.47,-179.5 163.68,-179.5 185.68,-179.5"/>
<polygon fill="#8b1a1a" stroke="#8b1a1a" points="118.77,-176 108.77,-179.5 118.77,-183 118.77,-176"/>
</g>
<!-- Node1107 -->
<g id="node3" class="node">
<title>Node1107</title>
<g id="a_node3"><a xlink:href="classBlocksBaseVector.html" target="_top" xlink:title=" ">
<polygon fill="white" stroke="black" points="16.5,-44 16.5,-63 120.5,-63 120.5,-44 16.5,-44"/>
<text text-anchor="middle" x="68.5" y="-51" font-family="Helvetica,sans-Serif" font-size="10.00">BlocksBaseVector</text>
</a>
</g>
</g>
<!-- Node715 -->
<g id="node4" class="node">
<title>Node715</title>
<g id="a_node4"><a xlink:href="classFeel_1_1ProductSpace_1_1Element.html" target="_top" xlink:title=" ">
<polygon fill="white" stroke="black" points="173,-98.5 173,-128.5 330,-128.5 330,-98.5 173,-98.5"/>
<text text-anchor="start" x="181" y="-116.5" font-family="Helvetica,sans-Serif" font-size="10.00">Feel::ProductSpace</text>
<text text-anchor="middle" x="251.5" y="-105.5" font-family="Helvetica,sans-Serif" font-size="10.00">&lt; T, same_mesh &gt;::Element</text>
</a>
</g>
</g>
<!-- Node1107&#45;&gt;Node715 -->
<g id="edge2" class="edge">
<title>Node1107&#45;&gt;Node715</title>
<path fill="none" stroke="midnightblue" d="M114.58,-65.97C122.12,-68.31 129.82,-70.85 137,-73.5 153.43,-79.56 156.61,-83.34 173,-89.5 181.31,-92.62 190.22,-95.66 198.94,-98.46"/>
<polygon fill="midnightblue" stroke="midnightblue" points="115.4,-62.56 104.82,-63.02 113.38,-69.26 115.4,-62.56"/>
</g>
<!-- Node716 -->
<g id="node5" class="node">
<title>Node716</title>
<g id="a_node5"><a xlink:href="classFeel_1_1ProductSpaces2_1_1Element.html" target="_top" xlink:title=" ">
<polygon fill="white" stroke="black" points="179.5,-49.5 179.5,-79.5 323.5,-79.5 323.5,-49.5 179.5,-49.5"/>
<text text-anchor="start" x="187.5" y="-67.5" font-family="Helvetica,sans-Serif" font-size="10.00">Feel::ProductSpaces2</text>
<text text-anchor="middle" x="251.5" y="-56.5" font-family="Helvetica,sans-Serif" font-size="10.00">&lt; T, SpaceList &gt;::Element</text>
</a>
</g>
</g>
<!-- Node1107&#45;&gt;Node716 -->
<g id="edge3" class="edge">
<title>Node1107&#45;&gt;Node716</title>
<path fill="none" stroke="midnightblue" d="M130.92,-57.23C146.5,-58.18 163.37,-59.2 179.39,-60.18"/>
<polygon fill="midnightblue" stroke="midnightblue" points="131.08,-53.74 120.88,-56.62 130.65,-60.72 131.08,-53.74"/>
</g>
<!-- Node717 -->
<g id="node6" class="node">
<title>Node717</title>
<g id="a_node6"><a xlink:href="classFeel_1_1ProductSpaces_1_1Element.html" target="_top" xlink:title=" ">
<polygon fill="white" stroke="black" points="185.5,-0.5 185.5,-30.5 317.5,-30.5 317.5,-0.5 185.5,-0.5"/>
<text text-anchor="start" x="193.5" y="-18.5" font-family="Helvetica,sans-Serif" font-size="10.00">Feel::ProductSpaces</text>
<text text-anchor="middle" x="251.5" y="-7.5" font-family="Helvetica,sans-Serif" font-size="10.00">&lt; SpaceList &gt;::Element</text>
</a>
</g>
</g>
<!-- Node1107&#45;&gt;Node717 -->
<g id="edge4" class="edge">
<title>Node1107&#45;&gt;Node717</title>
<path fill="none" stroke="midnightblue" d="M125.17,-41.81C144.2,-37.82 165.65,-33.31 185.35,-29.18"/>
<polygon fill="midnightblue" stroke="midnightblue" points="124.24,-38.43 115.17,-43.91 125.68,-45.28 124.24,-38.43"/>
</g>
<!-- Node1106 -->
<g id="node7" class="node">
<title>Node1106</title>
<g id="a_node7"><a xlink:title=" ">
<polygon fill="white" stroke="#bfbfbf" points="40.5,-132 40.5,-151 96.5,-151 96.5,-132 40.5,-132"/>
<text text-anchor="middle" x="68.5" y="-139" font-family="Helvetica,sans-Serif" font-size="10.00">addable</text>
</a>
</g>
</g>
<!-- Node1106&#45;&gt;Node1 -->
<g id="edge5" class="edge">
<title>Node1106&#45;&gt;Node1</title>
<path fill="none" stroke="#8b1a1a" d="M106.56,-149.28C129.41,-154.08 159.35,-160.36 186,-165.96"/>
<polygon fill="#8b1a1a" stroke="#8b1a1a" points="107.1,-145.82 96.6,-147.19 105.67,-152.67 107.1,-145.82"/>
</g>
<!-- Node1049 -->
<g id="node8" class="node">
<title>Node1049</title>
<g id="a_node8"><a xlink:title=" ">
<polygon fill="white" stroke="#bfbfbf" points="30,-246 30,-265 107,-265 107,-246 30,-246"/>
<text text-anchor="middle" x="68.5" y="-253" font-family="Helvetica,sans-Serif" font-size="10.00">subtractable</text>
</a>
</g>
</g>
<!-- Node1049&#45;&gt;Node1 -->
<g id="edge6" class="edge">
<title>Node1049&#45;&gt;Node1</title>
<path fill="none" stroke="#8b1a1a" d="M116.93,-243.39C123.73,-241.3 130.59,-238.98 137,-236.5 163.52,-226.22 192.13,-211.82 214,-200.07"/>
<polygon fill="#8b1a1a" stroke="#8b1a1a" points="115.66,-240.12 107.05,-246.3 117.64,-246.83 115.66,-240.12"/>
</g>
<!-- Node714 -->
<g id="node9" class="node">
<title>Node714</title>
<g id="a_node9"><a xlink:href="classFeel_1_1FunctionSpaceBase_1_1ElementBase.html" target="_top" xlink:title=" ">
<polygon fill="white" stroke="black" points="0,-82.5 0,-112.5 137,-112.5 137,-82.5 0,-82.5"/>
<text text-anchor="start" x="8" y="-100.5" font-family="Helvetica,sans-Serif" font-size="10.00">Feel::FunctionSpaceBase</text>
<text text-anchor="middle" x="68.5" y="-89.5" font-family="Helvetica,sans-Serif" font-size="10.00">::ElementBase</text>
</a>
</g>
</g>
<!-- Node714&#45;&gt;Node1 -->
<g id="edge7" class="edge">
<title>Node714&#45;&gt;Node1</title>
<path fill="none" stroke="#8b1a1a" d="M121.65,-116.15C126.86,-118.22 132.06,-120.35 137,-122.5 162.48,-133.58 190.37,-147.56 212.13,-158.9"/>
<polygon fill="#8b1a1a" stroke="#8b1a1a" points="122.86,-112.87 112.27,-112.53 120.34,-119.4 122.86,-112.87"/>
</g>
<!-- Node714&#45;&gt;Node715 -->
<g id="edge8" class="edge">
<title>Node714&#45;&gt;Node715</title>
<path fill="none" stroke="#8b1a1a" d="M147.37,-104.38C155.82,-105.13 164.43,-105.89 172.88,-106.64"/>
<polygon fill="#8b1a1a" stroke="#8b1a1a" points="147.42,-100.87 137.16,-103.48 146.81,-107.85 147.42,-100.87"/>
</g>
<!-- Node714&#45;&gt;Node716 -->
<g id="edge9" class="edge">
<title>Node714&#45;&gt;Node716</title>
<path fill="none" stroke="#8b1a1a" d="M147.26,-83.32C157.9,-81.38 168.78,-79.4 179.3,-77.48"/>
<polygon fill="#8b1a1a" stroke="#8b1a1a" points="146.37,-79.93 137.16,-85.17 147.62,-86.81 146.37,-79.93"/>
</g>
<!-- Node714&#45;&gt;Node717 -->
<g id="edge10" class="edge">
<title>Node714&#45;&gt;Node717</title>
<path fill="none" stroke="#8b1a1a" d="M126.32,-78.25C130.01,-76.46 133.6,-74.54 137,-72.5 155.35,-61.48 154.42,-51.12 173,-40.5 179.63,-36.71 186.91,-33.41 194.27,-30.55"/>
<polygon fill="#8b1a1a" stroke="#8b1a1a" points="124.69,-75.15 117.02,-82.46 127.58,-81.53 124.69,-75.15"/>
</g>
<!-- Node0 -->
<g id="node10" class="node">
<title>Node0</title>
<g id="a_node10"><a xlink:href="classVectorUblas.html" target="_top" xlink:title=" ">
<polygon fill="white" stroke="black" points="30.5,-208 30.5,-227 106.5,-227 106.5,-208 30.5,-208"/>
<text text-anchor="middle" x="68.5" y="-215" font-family="Helvetica,sans-Serif" font-size="10.00">VectorUblas</text>
</a>
</g>
</g>
<!-- Node0&#45;&gt;Node1 -->
<g id="edge11" class="edge">
<title>Node0&#45;&gt;Node1</title>
<path fill="none" stroke="midnightblue" d="M116.55,-207.62C137.63,-203.2 162.83,-197.91 185.65,-193.11"/>
<polygon fill="midnightblue" stroke="midnightblue" points="115.63,-204.24 106.56,-209.72 117.07,-211.09 115.63,-204.24"/>
</g>
</g>
</svg>
