<?xml version="1.0" encoding="UTF-8" standalone="no"?>
<!DOCTYPE svg PUBLIC "-//W3C//DTD SVG 1.1//EN"
 "http://www.w3.org/Graphics/SVG/1.1/DTD/svg11.dtd">
<!-- Generated by graphviz version 2.43.0 (0)
 -->
<!-- Title: Graphical Class Hierarchy Pages: 1 -->
<svg width="301pt" height="344pt"
 viewBox="0.00 0.00 301.00 344.00" xmlns="http://www.w3.org/2000/svg" xmlns:xlink="http://www.w3.org/1999/xlink">
<g id="graph0" class="graph" transform="scale(1 1) rotate(0) translate(4 340)">
<title>Graphical Class Hierarchy</title>
<polygon fill="white" stroke="transparent" points="-4,4 -4,-340 297,-340 297,4 -4,4"/>
<!-- Node0 -->
<g id="node1" class="node">
<title>Node0</title>
<g id="a_node1"><a xlink:href="classboost_1_1parameter_1_1template__keyword.html" target="_top" xlink:title=" ">
<polygon fill="white" stroke="black" points="0,-152.5 0,-171.5 107,-171.5 107,-152.5 0,-152.5"/>
<text text-anchor="middle" x="53.5" y="-159.5" font-family="Helvetica,sans-Serif" font-size="10.00">template_keyword</text>
</a>
</g>
</g>
<!-- Node1 -->
<g id="node2" class="node">
<title>Node1</title>
<g id="a_node2"><a xlink:href="structFeel_1_1bases__list.html" target="_top" xlink:title=" ">
<polygon fill="white" stroke="black" points="158,-316.5 158,-335.5 278,-335.5 278,-316.5 158,-316.5"/>
<text text-anchor="middle" x="218" y="-323.5" font-family="Helvetica,sans-Serif" font-size="10.00">Feel::bases_list&lt; T &gt;</text>
</a>
</g>
</g>
<!-- Node0&#45;&gt;Node1 -->
<g id="edge1" class="edge">
<title>Node0&#45;&gt;Node1</title>
<path fill="none" stroke="midnightblue" d="M60.83,-181.24C72.15,-212.57 98.89,-274.36 143,-307 148.22,-310.87 154.16,-313.95 160.34,-316.4"/>
<polygon fill="midnightblue" stroke="midnightblue" points="64.05,-179.84 57.47,-171.53 57.43,-182.13 64.05,-179.84"/>
</g>
<!-- Node2 -->
<g id="node3" class="node">
<title>Node2</title>
<g id="a_node3"><a xlink:href="structFeel_1_1basis__type.html" target="_top" xlink:title=" ">
<polygon fill="white" stroke="black" points="156,-278.5 156,-297.5 280,-297.5 280,-278.5 156,-278.5"/>
<text text-anchor="middle" x="218" y="-285.5" font-family="Helvetica,sans-Serif" font-size="10.00">Feel::basis_type&lt; T &gt;</text>
</a>
</g>
</g>
<!-- Node0&#45;&gt;Node2 -->
<g id="edge2" class="edge">
<title>Node0&#45;&gt;Node2</title>
<path fill="none" stroke="midnightblue" d="M64.8,-180.61C79.14,-204.74 107.4,-246.41 143,-269 149.16,-272.91 156.09,-276.02 163.17,-278.48"/>
<polygon fill="midnightblue" stroke="midnightblue" points="67.71,-178.65 59.68,-171.73 61.64,-182.14 67.71,-178.65"/>
</g>
<!-- Node3 -->
<g id="node4" class="node">
<title>Node3</title>
<g id="a_node4"><a xlink:href="structFeel_1_1continuity__type.html" target="_top" xlink:title=" ">
<polygon fill="white" stroke="black" points="144.5,-240.5 144.5,-259.5 291.5,-259.5 291.5,-240.5 144.5,-240.5"/>
<text text-anchor="middle" x="218" y="-247.5" font-family="Helvetica,sans-Serif" font-size="10.00">Feel::continuity_type&lt; T &gt;</text>
</a>
</g>
</g>
<!-- Node0&#45;&gt;Node3 -->
<g id="edge3" class="edge">
<title>Node0&#45;&gt;Node3</title>
<path fill="none" stroke="midnightblue" d="M71.29,-178.59C88.09,-194.29 115.35,-217.41 143,-231 150.74,-234.8 159.32,-237.9 167.81,-240.4"/>
<polygon fill="midnightblue" stroke="midnightblue" points="73.58,-175.93 63.93,-171.55 68.74,-180.99 73.58,-175.93"/>
</g>
<!-- Node4 -->
<g id="node5" class="node">
<title>Node4</title>
<g id="a_node5"><a xlink:href="structFeel_1_1domain__value__type.html" target="_top" xlink:title=" ">
<polygon fill="white" stroke="black" points="162,-191 162,-221 274,-221 274,-191 162,-191"/>
<text text-anchor="start" x="170" y="-209" font-family="Helvetica,sans-Serif" font-size="10.00">Feel::domain_value</text>
<text text-anchor="middle" x="218" y="-198" font-family="Helvetica,sans-Serif" font-size="10.00">_type&lt; T &gt;</text>
</a>
</g>
</g>
<!-- Node0&#45;&gt;Node4 -->
<g id="edge4" class="edge">
<title>Node0&#45;&gt;Node4</title>
<path fill="none" stroke="midnightblue" d="M99.53,-174.19C118.88,-179.43 141.66,-185.6 162,-191.11"/>
<polygon fill="midnightblue" stroke="midnightblue" points="100.33,-170.78 89.76,-171.55 98.5,-177.54 100.33,-170.78"/>
</g>
<!-- Node5 -->
<g id="node6" class="node">
<title>Node5</title>
<g id="a_node6"><a xlink:href="structFeel_1_1expansion__type.html" target="_top" xlink:title=" ">
<polygon fill="white" stroke="black" points="143.5,-152.5 143.5,-171.5 292.5,-171.5 292.5,-152.5 143.5,-152.5"/>
<text text-anchor="middle" x="218" y="-159.5" font-family="Helvetica,sans-Serif" font-size="10.00">Feel::expansion_type&lt; T &gt;</text>
</a>
</g>
</g>
<!-- Node0&#45;&gt;Node5 -->
<g id="edge5" class="edge">
<title>Node0&#45;&gt;Node5</title>
<path fill="none" stroke="midnightblue" d="M117.42,-162C125.88,-162 134.62,-162 143.25,-162"/>
<polygon fill="midnightblue" stroke="midnightblue" points="117.26,-158.5 107.26,-162 117.26,-165.5 117.26,-158.5"/>
</g>
<!-- Node6 -->
<g id="node7" class="node">
<title>Node6</title>
<g id="a_node7"><a xlink:href="structFeel_1_1mesh__type.html" target="_top" xlink:title=" ">
<polygon fill="white" stroke="black" points="155.5,-114.5 155.5,-133.5 280.5,-133.5 280.5,-114.5 155.5,-114.5"/>
<text text-anchor="middle" x="218" y="-121.5" font-family="Helvetica,sans-Serif" font-size="10.00">Feel::mesh_type&lt; T &gt;</text>
</a>
</g>
</g>
<!-- Node0&#45;&gt;Node6 -->
<g id="edge6" class="edge">
<title>Node0&#45;&gt;Node6</title>
<path fill="none" stroke="midnightblue" d="M105.37,-150.1C128.21,-144.76 154.8,-138.55 176.29,-133.52"/>
<polygon fill="midnightblue" stroke="midnightblue" points="104.45,-146.73 95.51,-152.41 106.04,-153.54 104.45,-146.73"/>
</g>
<!-- Node7 -->
<g id="node8" class="node">
<title>Node7</title>
<g id="a_node8"><a xlink:href="structFeel_1_1model__type.html" target="_top" xlink:title=" ">
<polygon fill="white" stroke="black" points="153.5,-76.5 153.5,-95.5 282.5,-95.5 282.5,-76.5 153.5,-76.5"/>
<text text-anchor="middle" x="218" y="-83.5" font-family="Helvetica,sans-Serif" font-size="10.00">Feel::model_type&lt; T &gt;</text>
</a>
</g>
</g>
<!-- Node0&#45;&gt;Node7 -->
<g id="edge7" class="edge">
<title>Node0&#45;&gt;Node7</title>
<path fill="none" stroke="midnightblue" d="M74.87,-146.17C92.15,-133.43 118.04,-115.9 143,-105 151.63,-101.23 161.17,-98.09 170.44,-95.52"/>
<polygon fill="midnightblue" stroke="midnightblue" points="72.56,-143.53 66.67,-152.34 76.77,-149.12 72.56,-143.53"/>
</g>
<!-- Node8 -->
<g id="node9" class="node">
<title>Node8</title>
<g id="a_node9"><a xlink:href="structFeel_1_1mortar__type.html" target="_top" xlink:title=" ">
<polygon fill="white" stroke="black" points="152.5,-38.5 152.5,-57.5 283.5,-57.5 283.5,-38.5 152.5,-38.5"/>
<text text-anchor="middle" x="218" y="-45.5" font-family="Helvetica,sans-Serif" font-size="10.00">Feel::mortar_type&lt; T &gt;</text>
</a>
</g>
</g>
<!-- Node0&#45;&gt;Node8 -->
<g id="edge8" class="edge">
<title>Node0&#45;&gt;Node8</title>
<path fill="none" stroke="midnightblue" d="M66.43,-143.9C81.63,-122.3 109.93,-86.64 143,-67 149.5,-63.14 156.77,-60.05 164.16,-57.59"/>
<polygon fill="midnightblue" stroke="midnightblue" points="63.5,-141.98 60.74,-152.21 69.28,-145.94 63.5,-141.98"/>
</g>
<!-- Node9 -->
<g id="node10" class="node">
<title>Node9</title>
<g id="a_node10"><a xlink:href="structFeel_1_1periodicity__type.html" target="_top" xlink:title=" ">
<polygon fill="white" stroke="black" points="143,-0.5 143,-19.5 293,-19.5 293,-0.5 143,-0.5"/>
<text text-anchor="middle" x="218" y="-7.5" font-family="Helvetica,sans-Serif" font-size="10.00">Feel::periodicity_type&lt; T &gt;</text>
</a>
</g>
</g>
<!-- Node0&#45;&gt;Node9 -->
<g id="edge9" class="edge">
<title>Node0&#45;&gt;Node9</title>
<path fill="none" stroke="midnightblue" d="M61.98,-142.69C74.3,-113.47 101.71,-58.32 143,-29 148.52,-25.08 154.77,-21.97 161.25,-19.5"/>
<polygon fill="midnightblue" stroke="midnightblue" points="58.64,-141.61 58.12,-152.19 65.12,-144.24 58.64,-141.61"/>
</g>
</g>
</svg>
