<?xml version="1.0" encoding="UTF-8" standalone="no"?>
<!DOCTYPE svg PUBLIC "-//W3C//DTD SVG 1.1//EN"
 "http://www.w3.org/Graphics/SVG/1.1/DTD/svg11.dtd">
<!-- Generated by graphviz version 2.43.0 (0)
 -->
<!-- Title: Graphical Class Hierarchy Pages: 1 -->
<svg width="591pt" height="110pt"
 viewBox="0.00 0.00 591.00 110.00" xmlns="http://www.w3.org/2000/svg" xmlns:xlink="http://www.w3.org/1999/xlink">
<g id="graph0" class="graph" transform="scale(1 1) rotate(0) translate(4 106)">
<title>Graphical Class Hierarchy</title>
<polygon fill="white" stroke="transparent" points="-4,4 -4,-106 587,-106 587,4 -4,4"/>
<!-- Node0 -->
<g id="node1" class="node">
<title>Node0</title>
<g id="a_node1"><a xlink:href="classFeel_1_1FeelModels_1_1GenericDirichletBoundaryCondition.html" target="_top" xlink:title=" ">
<polygon fill="white" stroke="black" points="0,-30.5 0,-71.5 151,-71.5 151,-30.5 0,-30.5"/>
<text text-anchor="start" x="8" y="-59.5" font-family="Helvetica,sans-Serif" font-size="10.00">Feel::FeelModels::Generic</text>
<text text-anchor="start" x="8" y="-48.5" font-family="Helvetica,sans-Serif" font-size="10.00">DirichletBoundaryCondition</text>
<text text-anchor="middle" x="75.5" y="-37.5" font-family="Helvetica,sans-Serif" font-size="10.00">&lt; Dim, 1 &gt;</text>
</a>
</g>
</g>
<!-- Node1 -->
<g id="node2" class="node">
<title>Node1</title>
<g id="a_node2"><a xlink:href="classFeel_1_1FeelModels_1_1FluidMechanicsBoundaryConditions_1_1VelocityImposed.html" target="_top" xlink:title=" ">
<polygon fill="white" stroke="black" points="187,-60.5 187,-101.5 367,-101.5 367,-60.5 187,-60.5"/>
<text text-anchor="start" x="195" y="-89.5" font-family="Helvetica,sans-Serif" font-size="10.00">Feel::FeelModels::FluidMechanics</text>
<text text-anchor="start" x="195" y="-78.5" font-family="Helvetica,sans-Serif" font-size="10.00">BoundaryConditions&lt; Dim &gt;</text>
<text text-anchor="middle" x="277" y="-67.5" font-family="Helvetica,sans-Serif" font-size="10.00">::VelocityImposed</text>
</a>
</g>
</g>
<!-- Node0&#45;&gt;Node1 -->
<g id="edge1" class="edge">
<title>Node0&#45;&gt;Node1</title>
<path fill="none" stroke="midnightblue" d="M160.98,-63.7C169.49,-64.98 178.15,-66.29 186.71,-67.57"/>
<polygon fill="midnightblue" stroke="midnightblue" points="161.48,-60.24 151.07,-62.21 160.44,-67.16 161.48,-60.24"/>
</g>
<!-- Node3 -->
<g id="node4" class="node">
<title>Node3</title>
<g id="a_node4"><a xlink:href="classFeel_1_1FeelModels_1_1SolidMechanicsBoundaryConditions_1_1DisplacementImposed.html" target="_top" xlink:title=" ">
<polygon fill="white" stroke="black" points="187,-0.5 187,-41.5 367,-41.5 367,-0.5 187,-0.5"/>
<text text-anchor="start" x="195" y="-29.5" font-family="Helvetica,sans-Serif" font-size="10.00">Feel::FeelModels::SolidMechanics</text>
<text text-anchor="start" x="195" y="-18.5" font-family="Helvetica,sans-Serif" font-size="10.00">BoundaryConditions&lt; Dim &gt;</text>
<text text-anchor="middle" x="277" y="-7.5" font-family="Helvetica,sans-Serif" font-size="10.00">::DisplacementImposed</text>
</a>
</g>
</g>
<!-- Node0&#45;&gt;Node3 -->
<g id="edge3" class="edge">
<title>Node0&#45;&gt;Node3</title>
<path fill="none" stroke="midnightblue" d="M160.98,-38.3C169.49,-37.02 178.15,-35.71 186.71,-34.43"/>
<polygon fill="midnightblue" stroke="midnightblue" points="160.44,-34.84 151.07,-39.79 161.48,-41.76 160.44,-34.84"/>
</g>
<!-- Node2 -->
<g id="node3" class="node">
<title>Node2</title>
<g id="a_node3"><a xlink:href="classFeel_1_1FeelModels_1_1FluidMechanicsBoundaryConditions_1_1MeshVelocityImposed.html" target="_top" xlink:title=" ">
<polygon fill="white" stroke="black" points="403,-60.5 403,-101.5 583,-101.5 583,-60.5 403,-60.5"/>
<text text-anchor="start" x="411" y="-89.5" font-family="Helvetica,sans-Serif" font-size="10.00">Feel::FeelModels::FluidMechanics</text>
<text text-anchor="start" x="411" y="-78.5" font-family="Helvetica,sans-Serif" font-size="10.00">BoundaryConditions&lt; Dim &gt;</text>
<text text-anchor="middle" x="493" y="-67.5" font-family="Helvetica,sans-Serif" font-size="10.00">::MeshVelocityImposed</text>
</a>
</g>
</g>
<!-- Node1&#45;&gt;Node2 -->
<g id="edge2" class="edge">
<title>Node1&#45;&gt;Node2</title>
<path fill="none" stroke="midnightblue" d="M377.23,-81C385.81,-81 394.45,-81 402.94,-81"/>
<polygon fill="midnightblue" stroke="midnightblue" points="377.21,-77.5 367.21,-81 377.21,-84.5 377.21,-77.5"/>
</g>
</g>
</svg>
