<?xml version="1.0" encoding="UTF-8" standalone="no"?>
<!DOCTYPE svg PUBLIC "-//W3C//DTD SVG 1.1//EN"
 "http://www.w3.org/Graphics/SVG/1.1/DTD/svg11.dtd">
<!-- Generated by graphviz version 2.43.0 (0)
 -->
<!-- Title: Graphical Class Hierarchy Pages: 1 -->
<svg width="287pt" height="66pt"
 viewBox="0.00 0.00 287.00 66.00" xmlns="http://www.w3.org/2000/svg" xmlns:xlink="http://www.w3.org/1999/xlink">
<g id="graph0" class="graph" transform="scale(1 1) rotate(0) translate(4 62)">
<title>Graphical Class Hierarchy</title>
<polygon fill="white" stroke="transparent" points="-4,4 -4,-62 283,-62 283,4 -4,4"/>
<!-- Node0 -->
<g id="node1" class="node">
<title>Node0</title>
<g id="a_node1"><a xlink:href="classFeel_1_1TSBase.html" target="_top" xlink:title="base class for time sets">
<polygon fill="white" stroke="black" points="0,-19.5 0,-38.5 79,-38.5 79,-19.5 0,-19.5"/>
<text text-anchor="middle" x="39.5" y="-26.5" font-family="Helvetica,sans-Serif" font-size="10.00">Feel::TSBase</text>
</a>
</g>
</g>
<!-- Node1 -->
<g id="node2" class="node">
<title>Node1</title>
<g id="a_node2"><a xlink:href="classFeel_1_1Bdf.html" target="_top" xlink:title="Backward differencing formula time discretization.">
<polygon fill="white" stroke="black" points="130,-38.5 130,-57.5 264,-57.5 264,-38.5 130,-38.5"/>
<text text-anchor="middle" x="197" y="-45.5" font-family="Helvetica,sans-Serif" font-size="10.00">Feel::Bdf&lt; SpaceType &gt;</text>
</a>
</g>
</g>
<!-- Node0&#45;&gt;Node1 -->
<g id="edge1" class="edge">
<title>Node0&#45;&gt;Node1</title>
<path fill="none" stroke="midnightblue" d="M89.34,-34.97C102.19,-36.54 116.26,-38.26 129.85,-39.92"/>
<polygon fill="midnightblue" stroke="midnightblue" points="89.69,-31.48 79.34,-33.75 88.84,-38.43 89.69,-31.48"/>
</g>
<!-- Node2 -->
<g id="node3" class="node">
<title>Node2</title>
<g id="a_node3"><a xlink:href="classFeel_1_1Newmark.html" target="_top" xlink:title="Newmark discretization.">
<polygon fill="white" stroke="black" points="115,-0.5 115,-19.5 279,-19.5 279,-0.5 115,-0.5"/>
<text text-anchor="middle" x="197" y="-7.5" font-family="Helvetica,sans-Serif" font-size="10.00">Feel::Newmark&lt; SpaceType &gt;</text>
</a>
</g>
</g>
<!-- Node0&#45;&gt;Node2 -->
<g id="edge2" class="edge">
<title>Node0&#45;&gt;Node2</title>
<path fill="none" stroke="midnightblue" d="M89.41,-23.02C98.6,-21.9 108.41,-20.7 118.23,-19.5"/>
<polygon fill="midnightblue" stroke="midnightblue" points="88.84,-19.57 79.34,-24.25 89.69,-26.52 88.84,-19.57"/>
</g>
</g>
</svg>
