<?xml version="1.0" encoding="UTF-8" standalone="no"?>
<!DOCTYPE svg PUBLIC "-//W3C//DTD SVG 1.1//EN"
 "http://www.w3.org/Graphics/SVG/1.1/DTD/svg11.dtd">
<!-- Generated by graphviz version 2.43.0 (0)
 -->
<!-- Title: /data/cemosis/github&#45;actions&#45;runner/actions&#45;runner&#45;3/_work/feelpp/feelpp/feelpp/feel/feelvf/inv.hpp Pages: 1 -->
<svg width="201pt" height="272pt"
 viewBox="0.00 0.00 201.00 272.00" xmlns="http://www.w3.org/2000/svg" xmlns:xlink="http://www.w3.org/1999/xlink">
<g id="graph0" class="graph" transform="scale(1 1) rotate(0) translate(4 268)">
<title>/data/cemosis/github&#45;actions&#45;runner/actions&#45;runner&#45;3/_work/feelpp/feelpp/feelpp/feel/feelvf/inv.hpp</title>
<polygon fill="white" stroke="transparent" points="-4,4 -4,-268 197,-268 197,4 -4,4"/>
<!-- Node1 -->
<g id="node1" class="node">
<title>Node1</title>
<g id="a_node1"><a xlink:title=" ">
<polygon fill="#bfbfbf" stroke="black" points="28,-200.5 28,-263.5 165,-263.5 165,-200.5 28,-200.5"/>
<text text-anchor="start" x="36" y="-251.5" font-family="Helvetica,sans-Serif" font-size="10.00">/data/cemosis/github</text>
<text text-anchor="start" x="36" y="-240.5" font-family="Helvetica,sans-Serif" font-size="10.00">&#45;actions&#45;runner/actions</text>
<text text-anchor="start" x="36" y="-229.5" font-family="Helvetica,sans-Serif" font-size="10.00">&#45;runner&#45;3/_work/feelpp</text>
<text text-anchor="start" x="36" y="-218.5" font-family="Helvetica,sans-Serif" font-size="10.00">/feelpp/feelpp/feel/feelvf</text>
<text text-anchor="middle" x="96.5" y="-207.5" font-family="Helvetica,sans-Serif" font-size="10.00">/inv.hpp</text>
</a>
</g>
</g>
<!-- Node2 -->
<g id="node2" class="node">
<title>Node2</title>
<g id="a_node2"><a xlink:title=" ">
<polygon fill="white" stroke="#bfbfbf" points="6.5,-100.5 6.5,-163.5 186.5,-163.5 186.5,-100.5 6.5,-100.5"/>
<text text-anchor="start" x="14.5" y="-151.5" font-family="Helvetica,sans-Serif" font-size="10.00">/data/cemosis/github</text>
<text text-anchor="start" x="14.5" y="-140.5" font-family="Helvetica,sans-Serif" font-size="10.00">&#45;actions&#45;runner/actions</text>
<text text-anchor="start" x="14.5" y="-129.5" font-family="Helvetica,sans-Serif" font-size="10.00">&#45;runner&#45;3/_work/feelpp</text>
<text text-anchor="start" x="14.5" y="-118.5" font-family="Helvetica,sans-Serif" font-size="10.00">/feelpp/toolboxes/feel/feelmodels</text>
<text text-anchor="middle" x="96.5" y="-107.5" font-family="Helvetica,sans-Serif" font-size="10.00">/fluid/fluidmechanicsothers.cpp</text>
</a>
</g>
</g>
<!-- Node1&#45;&gt;Node2 -->
<g id="edge1" class="edge">
<title>Node1&#45;&gt;Node2</title>
<path fill="none" stroke="midnightblue" d="M96.5,-190.1C96.5,-181.24 96.5,-172.01 96.5,-163.63"/>
<polygon fill="midnightblue" stroke="midnightblue" points="93,-190.26 96.5,-200.26 100,-190.26 93,-190.26"/>
</g>
<!-- Node3 -->
<g id="node3" class="node">
<title>Node3</title>
<g id="a_node3"><a xlink:title=" ">
<polygon fill="white" stroke="#bfbfbf" points="0,-0.5 0,-63.5 193,-63.5 193,-0.5 0,-0.5"/>
<text text-anchor="start" x="8" y="-51.5" font-family="Helvetica,sans-Serif" font-size="10.00">/data/cemosis/github</text>
<text text-anchor="start" x="8" y="-40.5" font-family="Helvetica,sans-Serif" font-size="10.00">&#45;actions&#45;runner/actions</text>
<text text-anchor="start" x="8" y="-29.5" font-family="Helvetica,sans-Serif" font-size="10.00">&#45;runner&#45;3/_work/feelpp</text>
<text text-anchor="start" x="8" y="-18.5" font-family="Helvetica,sans-Serif" font-size="10.00">/feelpp/toolboxes/feel/feelmodels</text>
<text text-anchor="middle" x="96.5" y="-7.5" font-family="Helvetica,sans-Serif" font-size="10.00">/fluid/fluidmechanicsothers_inst.cpp</text>
</a>
</g>
</g>
<!-- Node2&#45;&gt;Node3 -->
<g id="edge2" class="edge">
<title>Node2&#45;&gt;Node3</title>
<path fill="none" stroke="midnightblue" d="M96.5,-90.1C96.5,-81.24 96.5,-72.01 96.5,-63.63"/>
<polygon fill="midnightblue" stroke="midnightblue" points="93,-90.26 96.5,-100.26 100,-90.26 93,-90.26"/>
</g>
</g>
</svg>
