<?xml version="1.0" encoding="UTF-8" standalone="no"?>
<!DOCTYPE svg PUBLIC "-//W3C//DTD SVG 1.1//EN"
 "http://www.w3.org/Graphics/SVG/1.1/DTD/svg11.dtd">
<!-- Generated by graphviz version 2.43.0 (0)
 -->
<!-- Title: /data/cemosis/github&#45;actions&#45;runner/actions&#45;runner&#45;3/_work/feelpp/feelpp/feelpp/feel/feeldiscr/mesh1.cpp Pages: 1 -->
<svg width="276pt" height="128pt"
 viewBox="0.00 0.00 275.50 128.00" xmlns="http://www.w3.org/2000/svg" xmlns:xlink="http://www.w3.org/1999/xlink">
<g id="graph0" class="graph" transform="scale(1 1) rotate(0) translate(4 124)">
<title>/data/cemosis/github&#45;actions&#45;runner/actions&#45;runner&#45;3/_work/feelpp/feelpp/feelpp/feel/feeldiscr/mesh1.cpp</title>
<polygon fill="white" stroke="transparent" points="-4,4 -4,-124 271.5,-124 271.5,4 -4,4"/>
<!-- Node1 -->
<g id="node1" class="node">
<title>Node1</title>
<g id="a_node1"><a xlink:title=" ">
<polygon fill="#bfbfbf" stroke="black" points="43.5,-56.5 43.5,-119.5 194.5,-119.5 194.5,-56.5 43.5,-56.5"/>
<text text-anchor="start" x="51.5" y="-107.5" font-family="Helvetica,sans-Serif" font-size="10.00">/data/cemosis/github</text>
<text text-anchor="start" x="51.5" y="-96.5" font-family="Helvetica,sans-Serif" font-size="10.00">&#45;actions&#45;runner/actions</text>
<text text-anchor="start" x="51.5" y="-85.5" font-family="Helvetica,sans-Serif" font-size="10.00">&#45;runner&#45;3/_work/feelpp</text>
<text text-anchor="start" x="51.5" y="-74.5" font-family="Helvetica,sans-Serif" font-size="10.00">/feelpp/feelpp/feel/feeldiscr</text>
<text text-anchor="middle" x="119" y="-63.5" font-family="Helvetica,sans-Serif" font-size="10.00">/mesh1.cpp</text>
</a>
</g>
</g>
<!-- Node2 -->
<g id="node2" class="node">
<title>Node2</title>
<g id="a_node2"><a xlink:title=" ">
<polygon fill="white" stroke="#bfbfbf" points="0,-0.5 0,-19.5 96,-19.5 96,-0.5 0,-0.5"/>
<text text-anchor="middle" x="48" y="-7.5" font-family="Helvetica,sans-Serif" font-size="10.00">feel/feelconfig.h</text>
</a>
</g>
</g>
<!-- Node1&#45;&gt;Node2 -->
<g id="edge1" class="edge">
<title>Node1&#45;&gt;Node2</title>
<path fill="none" stroke="midnightblue" d="M90.12,-56.09C80.81,-46.12 70.87,-35.48 62.99,-27.04"/>
<polygon fill="midnightblue" stroke="midnightblue" points="65.53,-24.64 56.14,-19.72 60.41,-29.41 65.53,-24.64"/>
</g>
<!-- Node3 -->
<g id="node3" class="node">
<title>Node3</title>
<g id="a_node3"><a xlink:href="meshimpl_8hpp.html" target="_top" xlink:title=" ">
<polygon fill="white" stroke="black" points="114.5,-0.5 114.5,-19.5 267.5,-19.5 267.5,-0.5 114.5,-0.5"/>
<text text-anchor="middle" x="191" y="-7.5" font-family="Helvetica,sans-Serif" font-size="10.00">feel/feeldiscr/meshimpl.hpp</text>
</a>
</g>
</g>
<!-- Node1&#45;&gt;Node3 -->
<g id="edge2" class="edge">
<title>Node1&#45;&gt;Node3</title>
<path fill="none" stroke="midnightblue" d="M148.29,-56.09C157.73,-46.12 167.81,-35.48 175.8,-27.04"/>
<polygon fill="midnightblue" stroke="midnightblue" points="178.4,-29.38 182.74,-19.72 173.32,-24.57 178.4,-29.38"/>
</g>
</g>
</svg>
