<?xml version="1.0" encoding="UTF-8" standalone="no"?>
<!DOCTYPE svg PUBLIC "-//W3C//DTD SVG 1.1//EN"
 "http://www.w3.org/Graphics/SVG/1.1/DTD/svg11.dtd">
<!-- Generated by graphviz version 2.43.0 (0)
 -->
<!-- Title: /nvme0/prudhomm/actions&#45;runner/_work/feelpp/feelpp/feelpp/feel/feeldiscr/mesh.cpp Pages: 1 -->
<!--zoomable 117 -->
<svg id="main" version="1.1" xmlns="http://www.w3.org/2000/svg" xmlns:xlink="http://www.w3.org/1999/xlink" xml:space="preserve" onload="init(evt)">
<style type="text/css"><![CDATA[
.edge:hover path { stroke: red; }
.edge:hover polygon { stroke: red; fill: red; }
]]></style>
<script type="text/javascript"><![CDATA[
var edges = document.getElementsByTagName('g');
if (edges && edges.length) {
  for (var i=0;i<edges.length;i++) {
    if (edges[i].id.substr(0,4)=='edge') {
      edges[i].setAttribute('class','edge');
    }
  }
}
]]></script>
        <defs>
                <circle id="rim" cx="0" cy="0" r="7"/>
                <circle id="rim2" cx="0" cy="0" r="3.5"/>
                <g id="zoomPlus">
                        <use xlink:href="#rim" fill="#404040">
                                <set attributeName="fill" to="#808080" begin="zoomplus.mouseover" end="zoomplus.mouseout"/>
                        </use>
                        <path d="M-4,0h8M0,-4v8" fill="none" stroke="white" stroke-width="1.5" pointer-events="none"/>
                </g>
                <g id="zoomMin">
                        <use xlink:href="#rim" fill="#404040">
                                <set attributeName="fill" to="#808080" begin="zoomminus.mouseover" end="zoomminus.mouseout"/>
                        </use>
                        <path d="M-4,0h8" fill="none" stroke="white" stroke-width="1.5" pointer-events="none"/>
                </g>
                <g id="dirArrow">
                        <path fill="none" stroke="white" stroke-width="1.5" d="M0,-3.0v7 M-2.5,-0.5L0,-3.0L2.5,-0.5"/>
                </g>
               <g id="resetDef">
                       <use xlink:href="#rim2" fill="#404040">
                               <set attributeName="fill" to="#808080" begin="reset.mouseover" end="reset.mouseout"/>
                       </use>
               </g>
        </defs>

<script type="text/javascript">
var viewWidth = 1612;
var viewHeight = 117;
var sectionId = 'dynsection-0';
</script>
<script xlink:href="svgpan.js"/>
<svg id="graph" class="graph">
<g id="viewport">
<title>/nvme0/prudhomm/actions&#45;runner/_work/feelpp/feelpp/feelpp/feel/feeldiscr/mesh.cpp</title>
<polygon fill="white" stroke="transparent" points="-4,4 -4,-113 1608,-113 1608,4 -4,4"/>
<!-- Node1 -->
<g id="node1" class="node">
<title>Node1</title>
<g id="a_node1"><a xlink:title=" ">
<polygon fill="#bfbfbf" stroke="black" points="841,-67.5 841,-108.5 1008,-108.5 1008,-67.5 841,-67.5"/>
<text text-anchor="start" x="849" y="-96.5" font-family="Helvetica,sans-Serif" font-size="10.00">/nvme0/prudhomm/actions</text>
<text text-anchor="start" x="849" y="-85.5" font-family="Helvetica,sans-Serif" font-size="10.00">&#45;runner/_work/feelpp/feelpp</text>
<text text-anchor="middle" x="924.5" y="-74.5" font-family="Helvetica,sans-Serif" font-size="10.00">/feelpp/feel/feeldiscr/mesh.cpp</text>
</a>
</g>
</g>
<!-- Node2 -->
<g id="node2" class="node">
<title>Node2</title>
<g id="a_node2"><a xlink:title=" ">
<polygon fill="white" stroke="#bfbfbf" points="0,-0.5 0,-30.5 119,-30.5 119,-0.5 0,-0.5"/>
<text text-anchor="start" x="8" y="-18.5" font-family="Helvetica,sans-Serif" font-size="10.00">boost/config/warning</text>
<text text-anchor="middle" x="59.5" y="-7.5" font-family="Helvetica,sans-Serif" font-size="10.00">_disable.hpp</text>
</a>
</g>
</g>
<!-- Node1&#45;&gt;Node2 -->
<g id="edge1" class="edge">
<title>Node1&#45;&gt;Node2</title>
<path fill="none" stroke="midnightblue" d="M840.74,-84.88C697.08,-80.4 394.43,-67.36 129.45,-30.99"/>
<polygon fill="midnightblue" stroke="midnightblue" points="129.64,-27.49 119.25,-29.58 128.68,-34.42 129.64,-27.49"/>
</g>
<!-- Node3 -->
<g id="node3" class="node">
<title>Node3</title>
<g id="a_node3"><a xlink:title=" ">
<polygon fill="white" stroke="#bfbfbf" points="137.5,-0.5 137.5,-30.5 247.5,-30.5 247.5,-0.5 137.5,-0.5"/>
<text text-anchor="start" x="145.5" y="-18.5" font-family="Helvetica,sans-Serif" font-size="10.00">boost/spirit/include</text>
<text text-anchor="middle" x="192.5" y="-7.5" font-family="Helvetica,sans-Serif" font-size="10.00">/qi.hpp</text>
</a>
</g>
</g>
<!-- Node1&#45;&gt;Node3 -->
<g id="edge2" class="edge">
<title>Node1&#45;&gt;Node3</title>
<path fill="none" stroke="midnightblue" d="M840.75,-83.72C715.7,-78 472.75,-63.68 257.47,-31.01"/>
<polygon fill="midnightblue" stroke="midnightblue" points="257.98,-27.54 247.56,-29.49 256.92,-34.46 257.98,-27.54"/>
</g>
<!-- Node4 -->
<g id="node4" class="node">
<title>Node4</title>
<g id="a_node4"><a xlink:title=" ">
<polygon fill="white" stroke="#bfbfbf" points="265.5,-0.5 265.5,-30.5 375.5,-30.5 375.5,-0.5 265.5,-0.5"/>
<text text-anchor="start" x="273.5" y="-18.5" font-family="Helvetica,sans-Serif" font-size="10.00">boost/spirit/include</text>
<text text-anchor="middle" x="320.5" y="-7.5" font-family="Helvetica,sans-Serif" font-size="10.00">/phoenix_core.hpp</text>
</a>
</g>
</g>
<!-- Node1&#45;&gt;Node4 -->
<g id="edge3" class="edge">
<title>Node1&#45;&gt;Node4</title>
<path fill="none" stroke="midnightblue" d="M840.83,-81.44C736.42,-73.8 552.3,-58.03 385.52,-31.04"/>
<polygon fill="midnightblue" stroke="midnightblue" points="386.01,-27.58 375.58,-29.42 384.88,-34.48 386.01,-27.58"/>
</g>
<!-- Node5 -->
<g id="node5" class="node">
<title>Node5</title>
<g id="a_node5"><a xlink:title=" ">
<polygon fill="white" stroke="#bfbfbf" points="393.5,-0.5 393.5,-30.5 519.5,-30.5 519.5,-0.5 393.5,-0.5"/>
<text text-anchor="start" x="401.5" y="-18.5" font-family="Helvetica,sans-Serif" font-size="10.00">boost/spirit/include</text>
<text text-anchor="middle" x="456.5" y="-7.5" font-family="Helvetica,sans-Serif" font-size="10.00">/phoenix_operator.hpp</text>
</a>
</g>
</g>
<!-- Node1&#45;&gt;Node5 -->
<g id="edge4" class="edge">
<title>Node1&#45;&gt;Node5</title>
<path fill="none" stroke="midnightblue" d="M840.84,-76.61C762.82,-66.59 642.97,-50.35 529.57,-31.13"/>
<polygon fill="midnightblue" stroke="midnightblue" points="530.12,-27.67 519.68,-29.44 528.95,-34.57 530.12,-27.67"/>
</g>
<!-- Node6 -->
<g id="node6" class="node">
<title>Node6</title>
<g id="a_node6"><a xlink:title=" ">
<polygon fill="white" stroke="#bfbfbf" points="538,-0.5 538,-30.5 653,-30.5 653,-0.5 538,-0.5"/>
<text text-anchor="start" x="546" y="-18.5" font-family="Helvetica,sans-Serif" font-size="10.00">boost/spirit/include</text>
<text text-anchor="middle" x="595.5" y="-7.5" font-family="Helvetica,sans-Serif" font-size="10.00">/phoenix_object.hpp</text>
</a>
</g>
</g>
<!-- Node1&#45;&gt;Node6 -->
<g id="edge5" class="edge">
<title>Node1&#45;&gt;Node6</title>
<path fill="none" stroke="midnightblue" d="M840.97,-69.36C791.78,-58.94 728.08,-45.38 663.1,-31.34"/>
<polygon fill="midnightblue" stroke="midnightblue" points="663.6,-27.87 653.09,-29.17 662.12,-34.71 663.6,-27.87"/>
</g>
<!-- Node7 -->
<g id="node7" class="node">
<title>Node7</title>
<g id="a_node7"><a xlink:title=" ">
<polygon fill="white" stroke="#bfbfbf" points="671,-0.5 671,-30.5 786,-30.5 786,-0.5 671,-0.5"/>
<text text-anchor="start" x="679" y="-18.5" font-family="Helvetica,sans-Serif" font-size="10.00">boost/fusion/include</text>
<text text-anchor="middle" x="728.5" y="-7.5" font-family="Helvetica,sans-Serif" font-size="10.00">/std_pair.hpp</text>
</a>
</g>
</g>
<!-- Node1&#45;&gt;Node7 -->
<g id="edge6" class="edge">
<title>Node1&#45;&gt;Node7</title>
<path fill="none" stroke="midnightblue" d="M870.16,-67.46C841.08,-56.99 805.54,-44.21 777.34,-34.07"/>
<polygon fill="midnightblue" stroke="midnightblue" points="778.29,-30.69 767.69,-30.6 775.92,-37.27 778.29,-30.69"/>
</g>
<!-- Node8 -->
<g id="node8" class="node">
<title>Node8</title>
<g id="a_node8"><a xlink:title=" ">
<polygon fill="white" stroke="#bfbfbf" points="804.5,-0.5 804.5,-30.5 914.5,-30.5 914.5,-0.5 804.5,-0.5"/>
<text text-anchor="start" x="812.5" y="-18.5" font-family="Helvetica,sans-Serif" font-size="10.00">boost/spirit/include</text>
<text text-anchor="middle" x="859.5" y="-7.5" font-family="Helvetica,sans-Serif" font-size="10.00">/qi_symbols.hpp</text>
</a>
</g>
</g>
<!-- Node1&#45;&gt;Node8 -->
<g id="edge7" class="edge">
<title>Node1&#45;&gt;Node8</title>
<path fill="none" stroke="midnightblue" d="M906.39,-67.36C898.06,-58.32 888.14,-47.57 879.58,-38.28"/>
<polygon fill="midnightblue" stroke="midnightblue" points="882.12,-35.87 872.77,-30.89 876.97,-40.62 882.12,-35.87"/>
</g>
<!-- Node9 -->
<g id="node9" class="node">
<title>Node9</title>
<g id="a_node9"><a xlink:title=" ">
<polygon fill="white" stroke="#bfbfbf" points="933,-0.5 933,-30.5 1048,-30.5 1048,-0.5 933,-0.5"/>
<text text-anchor="start" x="941" y="-18.5" font-family="Helvetica,sans-Serif" font-size="10.00">boost/fusion/include</text>
<text text-anchor="middle" x="990.5" y="-7.5" font-family="Helvetica,sans-Serif" font-size="10.00">/adapt_struct.hpp</text>
</a>
</g>
</g>
<!-- Node1&#45;&gt;Node9 -->
<g id="edge8" class="edge">
<title>Node1&#45;&gt;Node9</title>
<path fill="none" stroke="midnightblue" d="M942.88,-67.36C951.35,-58.32 961.42,-47.57 970.11,-38.28"/>
<polygon fill="midnightblue" stroke="midnightblue" points="972.75,-40.58 977.03,-30.89 967.64,-35.8 972.75,-40.58"/>
</g>
<!-- Node10 -->
<g id="node10" class="node">
<title>Node10</title>
<g id="a_node10"><a xlink:title=" ">
<polygon fill="white" stroke="#bfbfbf" points="1066,-0.5 1066,-30.5 1181,-30.5 1181,-0.5 1066,-0.5"/>
<text text-anchor="start" x="1074" y="-18.5" font-family="Helvetica,sans-Serif" font-size="10.00">boost/fusion/include</text>
<text text-anchor="middle" x="1123.5" y="-7.5" font-family="Helvetica,sans-Serif" font-size="10.00">/io.hpp</text>
</a>
</g>
</g>
<!-- Node1&#45;&gt;Node10 -->
<g id="edge9" class="edge">
<title>Node1&#45;&gt;Node10</title>
<path fill="none" stroke="midnightblue" d="M979.67,-67.46C1009.2,-56.99 1045.28,-44.21 1073.91,-34.07"/>
<polygon fill="midnightblue" stroke="midnightblue" points="1075.45,-37.24 1083.71,-30.6 1073.11,-30.64 1075.45,-37.24"/>
</g>
<!-- Node11 -->
<g id="node11" class="node">
<title>Node11</title>
<g id="a_node11"><a xlink:title=" ">
<polygon fill="white" stroke="#bfbfbf" points="1199.5,-6 1199.5,-25 1237.5,-25 1237.5,-6 1199.5,-6"/>
<text text-anchor="middle" x="1218.5" y="-13" font-family="Helvetica,sans-Serif" font-size="10.00">map</text>
</a>
</g>
</g>
<!-- Node1&#45;&gt;Node11 -->
<g id="edge10" class="edge">
<title>Node1&#45;&gt;Node11</title>
<path fill="none" stroke="midnightblue" d="M1008.17,-75.34C1061.37,-66.49 1131.16,-52.17 1190.5,-31 1191.75,-30.56 1193.01,-30.06 1194.27,-29.54"/>
<polygon fill="midnightblue" stroke="midnightblue" points="1196.16,-32.52 1203.72,-25.1 1193.18,-26.19 1196.16,-32.52"/>
</g>
<!-- Node12 -->
<g id="node12" class="node">
<title>Node12</title>
<g id="a_node12"><a xlink:title=" ">
<polygon fill="white" stroke="#bfbfbf" points="1255.5,-6 1255.5,-25 1315.5,-25 1315.5,-6 1255.5,-6"/>
<text text-anchor="middle" x="1285.5" y="-13" font-family="Helvetica,sans-Serif" font-size="10.00">iostream</text>
</a>
</g>
</g>
<!-- Node1&#45;&gt;Node12 -->
<g id="edge11" class="edge">
<title>Node1&#45;&gt;Node12</title>
<path fill="none" stroke="midnightblue" d="M1008.14,-76.75C1073.68,-67.69 1166.8,-52.55 1246.5,-31 1249.31,-30.24 1252.2,-29.36 1255.08,-28.42"/>
<polygon fill="midnightblue" stroke="midnightblue" points="1256.41,-31.66 1264.68,-25.05 1254.09,-25.06 1256.41,-31.66"/>
</g>
<!-- Node13 -->
<g id="node13" class="node">
<title>Node13</title>
<g id="a_node13"><a xlink:title=" ">
<polygon fill="white" stroke="#bfbfbf" points="1333.5,-6 1333.5,-25 1377.5,-25 1377.5,-6 1333.5,-6"/>
<text text-anchor="middle" x="1355.5" y="-13" font-family="Helvetica,sans-Serif" font-size="10.00">string</text>
</a>
</g>
</g>
<!-- Node1&#45;&gt;Node13 -->
<g id="edge12" class="edge">
<title>Node1&#45;&gt;Node13</title>
<path fill="none" stroke="midnightblue" d="M1008.39,-82.54C1090.4,-76.49 1218.11,-62.55 1324.5,-31 1326.38,-30.44 1328.29,-29.79 1330.19,-29.07"/>
<polygon fill="midnightblue" stroke="midnightblue" points="1331.63,-32.26 1339.45,-25.12 1328.88,-25.83 1331.63,-32.26"/>
</g>
<!-- Node14 -->
<g id="node14" class="node">
<title>Node14</title>
<g id="a_node14"><a xlink:title=" ">
<polygon fill="white" stroke="#bfbfbf" points="1396,-6 1396,-25 1455,-25 1455,-6 1396,-6"/>
<text text-anchor="middle" x="1425.5" y="-13" font-family="Helvetica,sans-Serif" font-size="10.00">complex</text>
</a>
</g>
</g>
<!-- Node1&#45;&gt;Node14 -->
<g id="edge13" class="edge">
<title>Node1&#45;&gt;Node14</title>
<path fill="none" stroke="midnightblue" d="M1008.17,-82.79C1101.54,-76.72 1256.56,-62.56 1386.5,-31 1389.49,-30.27 1392.57,-29.39 1395.62,-28.41"/>
<polygon fill="midnightblue" stroke="midnightblue" points="1396.84,-31.69 1405.14,-25.1 1394.54,-25.08 1396.84,-31.69"/>
</g>
<!-- Node15 -->
<g id="node15" class="node">
<title>Node15</title>
<g id="a_node15"><a xlink:href="mesh_8hpp.html" target="_top" xlink:title="&#45;*&#45; mode: c++; coding: utf&#45;8; tab&#45;width: 4; indent&#45;tabs&#45;mode: nil; c&#45;basic&#45;offset: 4; show&#45;trailing&#45;w...">
<polygon fill="white" stroke="black" points="1473,-6 1473,-25 1604,-25 1604,-6 1473,-6"/>
<text text-anchor="middle" x="1538.5" y="-13" font-family="Helvetica,sans-Serif" font-size="10.00">feel/feeldiscr/mesh.hpp</text>
</a>
</g>
</g>
<!-- Node1&#45;&gt;Node15 -->
<g id="edge14" class="edge">
<title>Node1&#45;&gt;Node15</title>
<path fill="none" stroke="midnightblue" d="M1008.05,-80.69C1114.42,-72.11 1303.7,-55.04 1464.5,-31 1472.24,-29.84 1480.4,-28.44 1488.36,-26.96"/>
<polygon fill="midnightblue" stroke="midnightblue" points="1489.12,-30.38 1498.29,-25.06 1487.81,-23.5 1489.12,-30.38"/>
</g>
</g>
</svg>
        <g id="navigator" transform="translate(0 0)" fill="#404254">
                <rect fill="#f2f5e9" fill-opacity="0.5" stroke="#606060" stroke-width=".5" x="0" y="0" width="60" height="60"/>
                <use id="zoomplus" xlink:href="#zoomPlus" x="17" y="9" onmousedown="handleZoom(evt,'in')"/>
                <use id="zoomminus" xlink:href="#zoomMin" x="42" y="9" onmousedown="handleZoom(evt,'out')"/>
                <use id="reset" xlink:href="#resetDef" x="30" y="36" onmousedown="handleReset()"/>
                <g id="arrowUp" xlink:href="#dirArrow" transform="translate(30 24)" onmousedown="handlePan(0,-1)">
                  <use xlink:href="#rim" fill="#404040">
                        <set attributeName="fill" to="#808080" begin="arrowUp.mouseover" end="arrowUp.mouseout"/>
                  </use>
                  <path fill="none" stroke="white" stroke-width="1.5" d="M0,-3.0v7 M-2.5,-0.5L0,-3.0L2.5,-0.5"/>
                </g>
                <g id="arrowRight" xlink:href="#dirArrow" transform="rotate(90) translate(36 -43)" onmousedown="handlePan(1,0)">
                  <use xlink:href="#rim" fill="#404040">
                        <set attributeName="fill" to="#808080" begin="arrowRight.mouseover" end="arrowRight.mouseout"/>
                  </use>
                  <path fill="none" stroke="white" stroke-width="1.5" d="M0,-3.0v7 M-2.5,-0.5L0,-3.0L2.5,-0.5"/>
                </g>
                <g id="arrowDown" xlink:href="#dirArrow" transform="rotate(180) translate(-30 -48)" onmousedown="handlePan(0,1)">
                  <use xlink:href="#rim" fill="#404040">
                        <set attributeName="fill" to="#808080" begin="arrowDown.mouseover" end="arrowDown.mouseout"/>
                  </use>
                  <path fill="none" stroke="white" stroke-width="1.5" d="M0,-3.0v7 M-2.5,-0.5L0,-3.0L2.5,-0.5"/>
                </g>
                <g id="arrowLeft" xlink:href="#dirArrow" transform="rotate(270) translate(-36 17)" onmousedown="handlePan(-1,0)">
                  <use xlink:href="#rim" fill="#404040">
                        <set attributeName="fill" to="#808080" begin="arrowLeft.mouseover" end="arrowLeft.mouseout"/>
                  </use>
                  <path fill="none" stroke="white" stroke-width="1.5" d="M0,-3.0v7 M-2.5,-0.5L0,-3.0L2.5,-0.5"/>
                </g>
        </g>
        <svg viewBox="0 0 15 15" width="100%" height="30px" preserveAspectRatio="xMaxYMin meet">
         <g id="arrow_out" transform="scale(0.3 0.3)">
          <a xlink:href="mesh_8cpp__incl_org.svg" target="_base">
           <rect id="button" ry="5" rx="5" y="6" x="6" height="38" width="38"
                fill="#f2f5e9" fill-opacity="0.5" stroke="#606060" stroke-width="1.0"/>
           <path id="arrow"
             d="M 11.500037,31.436501 C 11.940474,20.09759 22.043105,11.32322 32.158766,21.979434 L 37.068811,17.246167 C 37.068811,17.246167 37.088388,32 37.088388,32 L 22.160133,31.978069 C 22.160133,31.978069 26.997745,27.140456 26.997745,27.140456 C 18.528582,18.264221 13.291696,25.230495 11.500037,31.436501 z"
             style="fill:#404040;"/>
          </a>
         </g>
        </svg>
</svg>
