<?xml version="1.0" encoding="UTF-8" standalone="no"?>
<!DOCTYPE svg PUBLIC "-//W3C//DTD SVG 1.1//EN"
 "http://www.w3.org/Graphics/SVG/1.1/DTD/svg11.dtd">
<!-- Generated by graphviz version 2.43.0 (0)
 -->
<!-- Title: /nvme0/prudhomm/github&#45;actions/actions&#45;runner&#45;2/_work/feelpp/feelpp/feelpp/feel/feeldiscr/mesh.cpp Pages: 1 -->
<!--zoomable 128 -->
<svg id="main" version="1.1" xmlns="http://www.w3.org/2000/svg" xmlns:xlink="http://www.w3.org/1999/xlink" xml:space="preserve" onload="init(evt)">
<style type="text/css"><![CDATA[
.edge:hover path { stroke: red; }
.edge:hover polygon { stroke: red; fill: red; }
]]></style>
<script type="text/javascript"><![CDATA[
var edges = document.getElementsByTagName('g');
if (edges && edges.length) {
  for (var i=0;i<edges.length;i++) {
    if (edges[i].id.substr(0,4)=='edge') {
      edges[i].setAttribute('class','edge');
    }
  }
}
]]></script>
        <defs>
                <circle id="rim" cx="0" cy="0" r="7"/>
                <circle id="rim2" cx="0" cy="0" r="3.5"/>
                <g id="zoomPlus">
                        <use xlink:href="#rim" fill="#404040">
                                <set attributeName="fill" to="#808080" begin="zoomplus.mouseover" end="zoomplus.mouseout"/>
                        </use>
                        <path d="M-4,0h8M0,-4v8" fill="none" stroke="white" stroke-width="1.5" pointer-events="none"/>
                </g>
                <g id="zoomMin">
                        <use xlink:href="#rim" fill="#404040">
                                <set attributeName="fill" to="#808080" begin="zoomminus.mouseover" end="zoomminus.mouseout"/>
                        </use>
                        <path d="M-4,0h8" fill="none" stroke="white" stroke-width="1.5" pointer-events="none"/>
                </g>
                <g id="dirArrow">
                        <path fill="none" stroke="white" stroke-width="1.5" d="M0,-3.0v7 M-2.5,-0.5L0,-3.0L2.5,-0.5"/>
                </g>
               <g id="resetDef">
                       <use xlink:href="#rim2" fill="#404040">
                               <set attributeName="fill" to="#808080" begin="reset.mouseover" end="reset.mouseout"/>
                       </use>
               </g>
        </defs>

<script type="text/javascript">
var viewWidth = 1612;
var viewHeight = 128;
var sectionId = 'dynsection-0';
</script>
<script xlink:href="svgpan.js"/>
<svg id="graph" class="graph">
<g id="viewport">
<title>/nvme0/prudhomm/github&#45;actions/actions&#45;runner&#45;2/_work/feelpp/feelpp/feelpp/feel/feeldiscr/mesh.cpp</title>
<polygon fill="white" stroke="transparent" points="-4,4 -4,-124 1608,-124 1608,4 -4,4"/>
<!-- Node1 -->
<g id="node1" class="node">
<title>Node1</title>
<g id="a_node1"><a xlink:title=" ">
<polygon fill="#bfbfbf" stroke="black" points="844.5,-67.5 844.5,-119.5 1004.5,-119.5 1004.5,-67.5 844.5,-67.5"/>
<text text-anchor="start" x="852.5" y="-107.5" font-family="Helvetica,sans-Serif" font-size="10.00">/nvme0/prudhomm/github</text>
<text text-anchor="start" x="852.5" y="-96.5" font-family="Helvetica,sans-Serif" font-size="10.00">&#45;actions/actions&#45;runner</text>
<text text-anchor="start" x="852.5" y="-85.5" font-family="Helvetica,sans-Serif" font-size="10.00">&#45;2/_work/feelpp/feelpp/feelpp</text>
<text text-anchor="middle" x="924.5" y="-74.5" font-family="Helvetica,sans-Serif" font-size="10.00">/feel/feeldiscr/mesh.cpp</text>
</a>
</g>
</g>
<!-- Node2 -->
<g id="node2" class="node">
<title>Node2</title>
<g id="a_node2"><a xlink:title=" ">
<polygon fill="white" stroke="#bfbfbf" points="0,-0.5 0,-30.5 119,-30.5 119,-0.5 0,-0.5"/>
<text text-anchor="start" x="8" y="-18.5" font-family="Helvetica,sans-Serif" font-size="10.00">boost/config/warning</text>
<text text-anchor="middle" x="59.5" y="-7.5" font-family="Helvetica,sans-Serif" font-size="10.00">_disable.hpp</text>
</a>
</g>
</g>
<!-- Node1&#45;&gt;Node2 -->
<g id="edge1" class="edge">
<title>Node1&#45;&gt;Node2</title>
<path fill="none" stroke="midnightblue" d="M844.47,-89.76C702.4,-84.14 396.74,-68.65 129.54,-31.02"/>
<polygon fill="midnightblue" stroke="midnightblue" points="129.65,-27.5 119.25,-29.55 128.66,-34.43 129.65,-27.5"/>
</g>
<!-- Node3 -->
<g id="node3" class="node">
<title>Node3</title>
<g id="a_node3"><a xlink:title=" ">
<polygon fill="white" stroke="#bfbfbf" points="137.5,-0.5 137.5,-30.5 247.5,-30.5 247.5,-0.5 137.5,-0.5"/>
<text text-anchor="start" x="145.5" y="-18.5" font-family="Helvetica,sans-Serif" font-size="10.00">boost/spirit/include</text>
<text text-anchor="middle" x="192.5" y="-7.5" font-family="Helvetica,sans-Serif" font-size="10.00">/qi.hpp</text>
</a>
</g>
</g>
<!-- Node1&#45;&gt;Node3 -->
<g id="edge2" class="edge">
<title>Node1&#45;&gt;Node3</title>
<path fill="none" stroke="midnightblue" d="M844.39,-88.52C720.49,-81.62 474.86,-64.95 257.57,-31.03"/>
<polygon fill="midnightblue" stroke="midnightblue" points="257.99,-27.56 247.57,-29.46 256.9,-34.47 257.99,-27.56"/>
</g>
<!-- Node4 -->
<g id="node4" class="node">
<title>Node4</title>
<g id="a_node4"><a xlink:title=" ">
<polygon fill="white" stroke="#bfbfbf" points="265.5,-0.5 265.5,-30.5 375.5,-30.5 375.5,-0.5 265.5,-0.5"/>
<text text-anchor="start" x="273.5" y="-18.5" font-family="Helvetica,sans-Serif" font-size="10.00">boost/spirit/include</text>
<text text-anchor="middle" x="320.5" y="-7.5" font-family="Helvetica,sans-Serif" font-size="10.00">/phoenix_core.hpp</text>
</a>
</g>
</g>
<!-- Node1&#45;&gt;Node4 -->
<g id="edge3" class="edge">
<title>Node1&#45;&gt;Node4</title>
<path fill="none" stroke="midnightblue" d="M844.06,-86.11C740.28,-77.24 554.05,-59.23 385.63,-31.08"/>
<polygon fill="midnightblue" stroke="midnightblue" points="386.02,-27.59 375.58,-29.38 384.86,-34.5 386.02,-27.59"/>
</g>
<!-- Node5 -->
<g id="node5" class="node">
<title>Node5</title>
<g id="a_node5"><a xlink:title=" ">
<polygon fill="white" stroke="#bfbfbf" points="393.5,-0.5 393.5,-30.5 519.5,-30.5 519.5,-0.5 393.5,-0.5"/>
<text text-anchor="start" x="401.5" y="-18.5" font-family="Helvetica,sans-Serif" font-size="10.00">boost/spirit/include</text>
<text text-anchor="middle" x="456.5" y="-7.5" font-family="Helvetica,sans-Serif" font-size="10.00">/phoenix_operator.hpp</text>
</a>
</g>
</g>
<!-- Node1&#45;&gt;Node5 -->
<g id="edge4" class="edge">
<title>Node1&#45;&gt;Node5</title>
<path fill="none" stroke="midnightblue" d="M844.31,-81.12C766.46,-69.82 644.71,-51.52 529.72,-31.17"/>
<polygon fill="midnightblue" stroke="midnightblue" points="530.14,-27.69 519.69,-29.39 528.92,-34.59 530.14,-27.69"/>
</g>
<!-- Node6 -->
<g id="node6" class="node">
<title>Node6</title>
<g id="a_node6"><a xlink:title=" ">
<polygon fill="white" stroke="#bfbfbf" points="538,-0.5 538,-30.5 653,-30.5 653,-0.5 538,-0.5"/>
<text text-anchor="start" x="546" y="-18.5" font-family="Helvetica,sans-Serif" font-size="10.00">boost/spirit/include</text>
<text text-anchor="middle" x="595.5" y="-7.5" font-family="Helvetica,sans-Serif" font-size="10.00">/phoenix_object.hpp</text>
</a>
</g>
</g>
<!-- Node1&#45;&gt;Node6 -->
<g id="edge5" class="edge">
<title>Node1&#45;&gt;Node6</title>
<path fill="none" stroke="midnightblue" d="M844.44,-74.01C788.87,-61.17 715.65,-44.26 663.03,-32.1"/>
<polygon fill="midnightblue" stroke="midnightblue" points="663.66,-28.65 653.12,-29.81 662.08,-35.47 663.66,-28.65"/>
</g>
<!-- Node7 -->
<g id="node7" class="node">
<title>Node7</title>
<g id="a_node7"><a xlink:title=" ">
<polygon fill="white" stroke="#bfbfbf" points="671,-0.5 671,-30.5 786,-30.5 786,-0.5 671,-0.5"/>
<text text-anchor="start" x="679" y="-18.5" font-family="Helvetica,sans-Serif" font-size="10.00">boost/fusion/include</text>
<text text-anchor="middle" x="728.5" y="-7.5" font-family="Helvetica,sans-Serif" font-size="10.00">/std_pair.hpp</text>
</a>
</g>
</g>
<!-- Node1&#45;&gt;Node7 -->
<g id="edge6" class="edge">
<title>Node1&#45;&gt;Node7</title>
<path fill="none" stroke="midnightblue" d="M859.78,-67.4C831.8,-56.55 799.71,-44.11 774.26,-34.24"/>
<polygon fill="midnightblue" stroke="midnightblue" points="775.44,-30.95 764.86,-30.6 772.91,-37.48 775.44,-30.95"/>
</g>
<!-- Node8 -->
<g id="node8" class="node">
<title>Node8</title>
<g id="a_node8"><a xlink:title=" ">
<polygon fill="white" stroke="#bfbfbf" points="804.5,-0.5 804.5,-30.5 914.5,-30.5 914.5,-0.5 804.5,-0.5"/>
<text text-anchor="start" x="812.5" y="-18.5" font-family="Helvetica,sans-Serif" font-size="10.00">boost/spirit/include</text>
<text text-anchor="middle" x="859.5" y="-7.5" font-family="Helvetica,sans-Serif" font-size="10.00">/qi_symbols.hpp</text>
</a>
</g>
</g>
<!-- Node1&#45;&gt;Node8 -->
<g id="edge7" class="edge">
<title>Node1&#45;&gt;Node8</title>
<path fill="none" stroke="midnightblue" d="M902.86,-67.19C894.94,-57.94 886.05,-47.54 878.39,-38.59"/>
<polygon fill="midnightblue" stroke="midnightblue" points="880.93,-36.17 871.77,-30.85 875.61,-40.72 880.93,-36.17"/>
</g>
<!-- Node9 -->
<g id="node9" class="node">
<title>Node9</title>
<g id="a_node9"><a xlink:title=" ">
<polygon fill="white" stroke="#bfbfbf" points="933,-0.5 933,-30.5 1048,-30.5 1048,-0.5 933,-0.5"/>
<text text-anchor="start" x="941" y="-18.5" font-family="Helvetica,sans-Serif" font-size="10.00">boost/fusion/include</text>
<text text-anchor="middle" x="990.5" y="-7.5" font-family="Helvetica,sans-Serif" font-size="10.00">/adapt_struct.hpp</text>
</a>
</g>
</g>
<!-- Node1&#45;&gt;Node9 -->
<g id="edge8" class="edge">
<title>Node1&#45;&gt;Node9</title>
<path fill="none" stroke="midnightblue" d="M946.48,-67.19C954.52,-57.94 963.54,-47.54 971.32,-38.59"/>
<polygon fill="midnightblue" stroke="midnightblue" points="974.13,-40.69 978.04,-30.85 968.84,-36.1 974.13,-40.69"/>
</g>
<!-- Node10 -->
<g id="node10" class="node">
<title>Node10</title>
<g id="a_node10"><a xlink:title=" ">
<polygon fill="white" stroke="#bfbfbf" points="1066,-0.5 1066,-30.5 1181,-30.5 1181,-0.5 1066,-0.5"/>
<text text-anchor="start" x="1074" y="-18.5" font-family="Helvetica,sans-Serif" font-size="10.00">boost/fusion/include</text>
<text text-anchor="middle" x="1123.5" y="-7.5" font-family="Helvetica,sans-Serif" font-size="10.00">/io.hpp</text>
</a>
</g>
</g>
<!-- Node1&#45;&gt;Node10 -->
<g id="edge9" class="edge">
<title>Node1&#45;&gt;Node10</title>
<path fill="none" stroke="midnightblue" d="M990.21,-67.4C1018.62,-56.55 1051.2,-44.11 1077.04,-34.24"/>
<polygon fill="midnightblue" stroke="midnightblue" points="1078.49,-37.43 1086.59,-30.6 1076,-30.9 1078.49,-37.43"/>
</g>
<!-- Node11 -->
<g id="node11" class="node">
<title>Node11</title>
<g id="a_node11"><a xlink:title=" ">
<polygon fill="white" stroke="#bfbfbf" points="1199.5,-6 1199.5,-25 1237.5,-25 1237.5,-6 1199.5,-6"/>
<text text-anchor="middle" x="1218.5" y="-13" font-family="Helvetica,sans-Serif" font-size="10.00">map</text>
</a>
</g>
</g>
<!-- Node1&#45;&gt;Node11 -->
<g id="edge10" class="edge">
<title>Node1&#45;&gt;Node11</title>
<path fill="none" stroke="midnightblue" d="M1004.58,-79.41C1058.19,-69.34 1129.78,-53.34 1190.5,-31 1191.74,-30.54 1193,-30.04 1194.26,-29.51"/>
<polygon fill="midnightblue" stroke="midnightblue" points="1196.16,-32.48 1203.7,-25.04 1193.17,-26.16 1196.16,-32.48"/>
</g>
<!-- Node12 -->
<g id="node12" class="node">
<title>Node12</title>
<g id="a_node12"><a xlink:title=" ">
<polygon fill="white" stroke="#bfbfbf" points="1255.5,-6 1255.5,-25 1315.5,-25 1315.5,-6 1255.5,-6"/>
<text text-anchor="middle" x="1285.5" y="-13" font-family="Helvetica,sans-Serif" font-size="10.00">iostream</text>
</a>
</g>
</g>
<!-- Node1&#45;&gt;Node12 -->
<g id="edge11" class="edge">
<title>Node1&#45;&gt;Node12</title>
<path fill="none" stroke="midnightblue" d="M1004.76,-81C1070.43,-70.67 1165.37,-53.66 1246.5,-31 1249.15,-30.26 1251.87,-29.42 1254.59,-28.53"/>
<polygon fill="midnightblue" stroke="midnightblue" points="1255.98,-31.75 1264.26,-25.13 1253.66,-25.14 1255.98,-31.75"/>
</g>
<!-- Node13 -->
<g id="node13" class="node">
<title>Node13</title>
<g id="a_node13"><a xlink:title=" ">
<polygon fill="white" stroke="#bfbfbf" points="1333.5,-6 1333.5,-25 1377.5,-25 1377.5,-6 1333.5,-6"/>
<text text-anchor="middle" x="1355.5" y="-13" font-family="Helvetica,sans-Serif" font-size="10.00">string</text>
</a>
</g>
</g>
<!-- Node1&#45;&gt;Node13 -->
<g id="edge12" class="edge">
<title>Node1&#45;&gt;Node13</title>
<path fill="none" stroke="midnightblue" d="M1004.54,-86.93C1086.37,-79.69 1216.44,-63.84 1324.5,-31 1326.38,-30.43 1328.28,-29.77 1330.18,-29.04"/>
<polygon fill="midnightblue" stroke="midnightblue" points="1331.62,-32.23 1339.43,-25.07 1328.86,-25.8 1331.62,-32.23"/>
</g>
<!-- Node14 -->
<g id="node14" class="node">
<title>Node14</title>
<g id="a_node14"><a xlink:title=" ">
<polygon fill="white" stroke="#bfbfbf" points="1396,-6 1396,-25 1455,-25 1455,-6 1396,-6"/>
<text text-anchor="middle" x="1425.5" y="-13" font-family="Helvetica,sans-Serif" font-size="10.00">complex</text>
</a>
</g>
</g>
<!-- Node1&#45;&gt;Node14 -->
<g id="edge13" class="edge">
<title>Node1&#45;&gt;Node14</title>
<path fill="none" stroke="midnightblue" d="M1004.81,-87.28C1097.79,-79.98 1254.99,-63.76 1386.5,-31 1389.49,-30.26 1392.56,-29.36 1395.61,-28.38"/>
<polygon fill="midnightblue" stroke="midnightblue" points="1396.84,-31.65 1405.13,-25.05 1394.53,-25.05 1396.84,-31.65"/>
</g>
<!-- Node15 -->
<g id="node15" class="node">
<title>Node15</title>
<g id="a_node15"><a xlink:href="mesh_8hpp.html" target="_top" xlink:title="&#45;*&#45; mode: c++; coding: utf&#45;8; tab&#45;width: 4; indent&#45;tabs&#45;mode: nil; c&#45;basic&#45;offset: 4; show&#45;trailing&#45;w...">
<polygon fill="white" stroke="black" points="1473,-6 1473,-25 1604,-25 1604,-6 1473,-6"/>
<text text-anchor="middle" x="1538.5" y="-13" font-family="Helvetica,sans-Serif" font-size="10.00">feel/feeldiscr/mesh.hpp</text>
</a>
</g>
</g>
<!-- Node1&#45;&gt;Node15 -->
<g id="edge14" class="edge">
<title>Node1&#45;&gt;Node15</title>
<path fill="none" stroke="midnightblue" d="M1004.82,-85.38C1110.54,-75.54 1302.02,-56.13 1464.5,-31 1472.14,-29.82 1480.2,-28.41 1488.07,-26.94"/>
<polygon fill="midnightblue" stroke="midnightblue" points="1488.73,-30.38 1497.89,-25.06 1487.41,-23.5 1488.73,-30.38"/>
</g>
</g>
</svg>
        <g id="navigator" transform="translate(0 0)" fill="#404254">
                <rect fill="#f2f5e9" fill-opacity="0.5" stroke="#606060" stroke-width=".5" x="0" y="0" width="60" height="60"/>
                <use id="zoomplus" xlink:href="#zoomPlus" x="17" y="9" onmousedown="handleZoom(evt,'in')"/>
                <use id="zoomminus" xlink:href="#zoomMin" x="42" y="9" onmousedown="handleZoom(evt,'out')"/>
                <use id="reset" xlink:href="#resetDef" x="30" y="36" onmousedown="handleReset()"/>
                <g id="arrowUp" xlink:href="#dirArrow" transform="translate(30 24)" onmousedown="handlePan(0,-1)">
                  <use xlink:href="#rim" fill="#404040">
                        <set attributeName="fill" to="#808080" begin="arrowUp.mouseover" end="arrowUp.mouseout"/>
                  </use>
                  <path fill="none" stroke="white" stroke-width="1.5" d="M0,-3.0v7 M-2.5,-0.5L0,-3.0L2.5,-0.5"/>
                </g>
                <g id="arrowRight" xlink:href="#dirArrow" transform="rotate(90) translate(36 -43)" onmousedown="handlePan(1,0)">
                  <use xlink:href="#rim" fill="#404040">
                        <set attributeName="fill" to="#808080" begin="arrowRight.mouseover" end="arrowRight.mouseout"/>
                  </use>
                  <path fill="none" stroke="white" stroke-width="1.5" d="M0,-3.0v7 M-2.5,-0.5L0,-3.0L2.5,-0.5"/>
                </g>
                <g id="arrowDown" xlink:href="#dirArrow" transform="rotate(180) translate(-30 -48)" onmousedown="handlePan(0,1)">
                  <use xlink:href="#rim" fill="#404040">
                        <set attributeName="fill" to="#808080" begin="arrowDown.mouseover" end="arrowDown.mouseout"/>
                  </use>
                  <path fill="none" stroke="white" stroke-width="1.5" d="M0,-3.0v7 M-2.5,-0.5L0,-3.0L2.5,-0.5"/>
                </g>
                <g id="arrowLeft" xlink:href="#dirArrow" transform="rotate(270) translate(-36 17)" onmousedown="handlePan(-1,0)">
                  <use xlink:href="#rim" fill="#404040">
                        <set attributeName="fill" to="#808080" begin="arrowLeft.mouseover" end="arrowLeft.mouseout"/>
                  </use>
                  <path fill="none" stroke="white" stroke-width="1.5" d="M0,-3.0v7 M-2.5,-0.5L0,-3.0L2.5,-0.5"/>
                </g>
        </g>
        <svg viewBox="0 0 15 15" width="100%" height="30px" preserveAspectRatio="xMaxYMin meet">
         <g id="arrow_out" transform="scale(0.3 0.3)">
          <a xlink:href="mesh_8cpp__incl_org.svg" target="_base">
           <rect id="button" ry="5" rx="5" y="6" x="6" height="38" width="38"
                fill="#f2f5e9" fill-opacity="0.5" stroke="#606060" stroke-width="1.0"/>
           <path id="arrow"
             d="M 11.500037,31.436501 C 11.940474,20.09759 22.043105,11.32322 32.158766,21.979434 L 37.068811,17.246167 C 37.068811,17.246167 37.088388,32 37.088388,32 L 22.160133,31.978069 C 22.160133,31.978069 26.997745,27.140456 26.997745,27.140456 C 18.528582,18.264221 13.291696,25.230495 11.500037,31.436501 z"
             style="fill:#404040;"/>
          </a>
         </g>
        </svg>
</svg>
