<?xml version="1.0" encoding="UTF-8" standalone="no"?>
<!DOCTYPE svg PUBLIC "-//W3C//DTD SVG 1.1//EN"
 "http://www.w3.org/Graphics/SVG/1.1/DTD/svg11.dtd">
<!-- Generated by graphviz version 2.43.0 (0)
 -->
<!-- Title: /data/cemosis/github&#45;actions&#45;runner/actions&#45;runner&#45;4/_work/feelpp/feelpp/feelpp/feel/feelmesh/meshmover.cpp Pages: 1 -->
<svg width="175pt" height="128pt"
 viewBox="0.00 0.00 175.00 128.00" xmlns="http://www.w3.org/2000/svg" xmlns:xlink="http://www.w3.org/1999/xlink">
<g id="graph0" class="graph" transform="scale(1 1) rotate(0) translate(4 124)">
<title>/data/cemosis/github&#45;actions&#45;runner/actions&#45;runner&#45;4/_work/feelpp/feelpp/feelpp/feel/feelmesh/meshmover.cpp</title>
<polygon fill="white" stroke="transparent" points="-4,4 -4,-124 171,-124 171,4 -4,4"/>
<!-- Node1 -->
<g id="node1" class="node">
<title>Node1</title>
<g id="a_node1"><a xlink:title=" ">
<polygon fill="#bfbfbf" stroke="black" points="6,-56.5 6,-119.5 161,-119.5 161,-56.5 6,-56.5"/>
<text text-anchor="start" x="14" y="-107.5" font-family="Helvetica,sans-Serif" font-size="10.00">/data/cemosis/github</text>
<text text-anchor="start" x="14" y="-96.5" font-family="Helvetica,sans-Serif" font-size="10.00">&#45;actions&#45;runner/actions</text>
<text text-anchor="start" x="14" y="-85.5" font-family="Helvetica,sans-Serif" font-size="10.00">&#45;runner&#45;4/_work/feelpp</text>
<text text-anchor="start" x="14" y="-74.5" font-family="Helvetica,sans-Serif" font-size="10.00">/feelpp/feelpp/feel/feelmesh</text>
<text text-anchor="middle" x="83.5" y="-63.5" font-family="Helvetica,sans-Serif" font-size="10.00">/meshmover.cpp</text>
</a>
</g>
</g>
<!-- Node2 -->
<g id="node2" class="node">
<title>Node2</title>
<g id="a_node2"><a xlink:title=" ">
<polygon fill="white" stroke="#bfbfbf" points="0,-0.5 0,-19.5 167,-19.5 167,-0.5 0,-0.5"/>
<text text-anchor="middle" x="83.5" y="-7.5" font-family="Helvetica,sans-Serif" font-size="10.00">feel/feelmesh/meshmover.hpp</text>
</a>
</g>
</g>
<!-- Node1&#45;&gt;Node2 -->
<g id="edge1" class="edge">
<title>Node1&#45;&gt;Node2</title>
<path fill="none" stroke="midnightblue" d="M83.5,-56.09C83.5,-47.15 83.5,-37.67 83.5,-29.72"/>
<polygon fill="midnightblue" stroke="midnightblue" points="87,-29.72 83.5,-19.72 80,-29.72 87,-29.72"/>
</g>
</g>
</svg>
