<?xml version="1.0" encoding="UTF-8" standalone="no"?>
<!DOCTYPE svg PUBLIC "-//W3C//DTD SVG 1.1//EN"
 "http://www.w3.org/Graphics/SVG/1.1/DTD/svg11.dtd">
<!-- Generated by graphviz version 2.43.0 (0)
 -->
<!-- Title: /nvme0/prudhomm/github&#45;actions/actions&#45;runner&#45;4/_work/feelpp/feelpp/toolboxes/feel/feelmodels/modelcore/modelbase.cpp Pages: 1 -->
<svg width="236pt" height="128pt"
 viewBox="0.00 0.00 236.00 128.00" xmlns="http://www.w3.org/2000/svg" xmlns:xlink="http://www.w3.org/1999/xlink">
<g id="graph0" class="graph" transform="scale(1 1) rotate(0) translate(4 124)">
<title>/nvme0/prudhomm/github&#45;actions/actions&#45;runner&#45;4/_work/feelpp/feelpp/toolboxes/feel/feelmodels/modelcore/modelbase.cpp</title>
<polygon fill="white" stroke="transparent" points="-4,4 -4,-124 232,-124 232,4 -4,4"/>
<!-- Node1 -->
<g id="node1" class="node">
<title>Node1</title>
<g id="a_node1"><a xlink:title=" ">
<polygon fill="#bfbfbf" stroke="black" points="0,-67.5 0,-119.5 228,-119.5 228,-67.5 0,-67.5"/>
<text text-anchor="start" x="8" y="-107.5" font-family="Helvetica,sans-Serif" font-size="10.00">/nvme0/prudhomm/github</text>
<text text-anchor="start" x="8" y="-96.5" font-family="Helvetica,sans-Serif" font-size="10.00">&#45;actions/actions&#45;runner</text>
<text text-anchor="start" x="8" y="-85.5" font-family="Helvetica,sans-Serif" font-size="10.00">&#45;4/_work/feelpp/feelpp/toolboxes</text>
<text text-anchor="middle" x="114" y="-74.5" font-family="Helvetica,sans-Serif" font-size="10.00">/feel/feelmodels/modelcore/modelbase.cpp</text>
</a>
</g>
</g>
<!-- Node2 -->
<g id="node2" class="node">
<title>Node2</title>
<g id="a_node2"><a xlink:href="modelbase_8hpp.html" target="_top" xlink:title=" ">
<polygon fill="white" stroke="black" points="40,-0.5 40,-30.5 188,-30.5 188,-0.5 40,-0.5"/>
<text text-anchor="start" x="48" y="-18.5" font-family="Helvetica,sans-Serif" font-size="10.00">feel/feelmodels/modelcore</text>
<text text-anchor="middle" x="114" y="-7.5" font-family="Helvetica,sans-Serif" font-size="10.00">/modelbase.hpp</text>
</a>
</g>
</g>
<!-- Node1&#45;&gt;Node2 -->
<g id="edge1" class="edge">
<title>Node1&#45;&gt;Node2</title>
<path fill="none" stroke="midnightblue" d="M114,-67.19C114,-58.79 114,-49.44 114,-41.09"/>
<polygon fill="midnightblue" stroke="midnightblue" points="117.5,-40.85 114,-30.85 110.5,-40.85 117.5,-40.85"/>
</g>
</g>
</svg>
