<?xml version="1.0" encoding="UTF-8" standalone="no"?>
<!DOCTYPE svg PUBLIC "-//W3C//DTD SVG 1.1//EN"
 "http://www.w3.org/Graphics/SVG/1.1/DTD/svg11.dtd">
<!-- Generated by graphviz version 2.43.0 (0)
 -->
<!-- Title: /nvme0/prudhomm/github&#45;actions/actions&#45;runner&#45;3/_work/feelpp/feelpp/toolboxes/feel/feelmodels/modelcore/modelnumerical.cpp Pages: 1 -->
<svg width="334pt" height="128pt"
 viewBox="0.00 0.00 333.50 128.00" xmlns="http://www.w3.org/2000/svg" xmlns:xlink="http://www.w3.org/1999/xlink">
<g id="graph0" class="graph" transform="scale(1 1) rotate(0) translate(4 124)">
<title>/nvme0/prudhomm/github&#45;actions/actions&#45;runner&#45;3/_work/feelpp/feelpp/toolboxes/feel/feelmodels/modelcore/modelnumerical.cpp</title>
<polygon fill="white" stroke="transparent" points="-4,4 -4,-124 329.5,-124 329.5,4 -4,4"/>
<!-- Node1 -->
<g id="node1" class="node">
<title>Node1</title>
<g id="a_node1"><a xlink:title=" ">
<polygon fill="#bfbfbf" stroke="black" points="33,-67.5 33,-119.5 287,-119.5 287,-67.5 33,-67.5"/>
<text text-anchor="start" x="41" y="-107.5" font-family="Helvetica,sans-Serif" font-size="10.00">/nvme0/prudhomm/github</text>
<text text-anchor="start" x="41" y="-96.5" font-family="Helvetica,sans-Serif" font-size="10.00">&#45;actions/actions&#45;runner</text>
<text text-anchor="start" x="41" y="-85.5" font-family="Helvetica,sans-Serif" font-size="10.00">&#45;3/_work/feelpp/feelpp/toolboxes</text>
<text text-anchor="middle" x="160" y="-74.5" font-family="Helvetica,sans-Serif" font-size="10.00">/feel/feelmodels/modelcore/modelnumerical.cpp</text>
</a>
</g>
</g>
<!-- Node2 -->
<g id="node2" class="node">
<title>Node2</title>
<g id="a_node2"><a xlink:href="modelnumerical_8hpp.html" target="_top" xlink:title=" ">
<polygon fill="white" stroke="black" points="0,-0.5 0,-30.5 148,-30.5 148,-0.5 0,-0.5"/>
<text text-anchor="start" x="8" y="-18.5" font-family="Helvetica,sans-Serif" font-size="10.00">feel/feelmodels/modelcore</text>
<text text-anchor="middle" x="74" y="-7.5" font-family="Helvetica,sans-Serif" font-size="10.00">/modelnumerical.hpp</text>
</a>
</g>
</g>
<!-- Node1&#45;&gt;Node2 -->
<g id="edge1" class="edge">
<title>Node1&#45;&gt;Node2</title>
<path fill="none" stroke="midnightblue" d="M131.36,-67.19C120.46,-57.56 108.17,-46.69 97.76,-37.5"/>
<polygon fill="midnightblue" stroke="midnightblue" points="100.04,-34.84 90.23,-30.85 95.41,-40.09 100.04,-34.84"/>
</g>
<!-- Node3 -->
<g id="node3" class="node">
<title>Node3</title>
<g id="a_node3"><a xlink:title=" ">
<polygon fill="white" stroke="#bfbfbf" points="166.5,-6 166.5,-25 325.5,-25 325.5,-6 166.5,-6"/>
<text text-anchor="middle" x="246" y="-13" font-family="Helvetica,sans-Serif" font-size="10.00">feel/feelcore/remotedata.hpp</text>
</a>
</g>
</g>
<!-- Node1&#45;&gt;Node3 -->
<g id="edge2" class="edge">
<title>Node1&#45;&gt;Node3</title>
<path fill="none" stroke="midnightblue" d="M188.64,-67.19C201.85,-55.52 217.1,-42.04 228.56,-31.91"/>
<polygon fill="midnightblue" stroke="midnightblue" points="230.97,-34.45 236.15,-25.21 226.33,-29.21 230.97,-34.45"/>
</g>
</g>
</svg>
