<?xml version="1.0" encoding="UTF-8" standalone="no"?>
<!DOCTYPE svg PUBLIC "-//W3C//DTD SVG 1.1//EN"
 "http://www.w3.org/Graphics/SVG/1.1/DTD/svg11.dtd">
<!-- Generated by graphviz version 2.43.0 (0)
 -->
<!-- Title: /nvme0/prudhomm/github&#45;actions/actions&#45;runner&#45;2/_work/feelpp/feelpp/toolboxes/feel/feelmodels/modelcore/modelalgebraicfactory.cpp Pages: 1 -->
<svg width="475pt" height="128pt"
 viewBox="0.00 0.00 475.00 128.00" xmlns="http://www.w3.org/2000/svg" xmlns:xlink="http://www.w3.org/1999/xlink">
<g id="graph0" class="graph" transform="scale(1 1) rotate(0) translate(4 124)">
<title>/nvme0/prudhomm/github&#45;actions/actions&#45;runner&#45;2/_work/feelpp/feelpp/toolboxes/feel/feelmodels/modelcore/modelalgebraicfactory.cpp</title>
<polygon fill="white" stroke="transparent" points="-4,4 -4,-124 471,-124 471,4 -4,4"/>
<!-- Node1 -->
<g id="node1" class="node">
<title>Node1</title>
<g id="a_node1"><a xlink:title=" ">
<polygon fill="#bfbfbf" stroke="black" points="102,-67.5 102,-119.5 385,-119.5 385,-67.5 102,-67.5"/>
<text text-anchor="start" x="110" y="-107.5" font-family="Helvetica,sans-Serif" font-size="10.00">/nvme0/prudhomm/github</text>
<text text-anchor="start" x="110" y="-96.5" font-family="Helvetica,sans-Serif" font-size="10.00">&#45;actions/actions&#45;runner</text>
<text text-anchor="start" x="110" y="-85.5" font-family="Helvetica,sans-Serif" font-size="10.00">&#45;2/_work/feelpp/feelpp/toolboxes</text>
<text text-anchor="middle" x="243.5" y="-74.5" font-family="Helvetica,sans-Serif" font-size="10.00">/feel/feelmodels/modelcore/modelalgebraicfactory.cpp</text>
</a>
</g>
</g>
<!-- Node2 -->
<g id="node2" class="node">
<title>Node2</title>
<g id="a_node2"><a xlink:href="modelalgebraicfactory_8hpp.html" target="_top" xlink:title=" ">
<polygon fill="white" stroke="black" points="0,-0.5 0,-30.5 149,-30.5 149,-0.5 0,-0.5"/>
<text text-anchor="start" x="8" y="-18.5" font-family="Helvetica,sans-Serif" font-size="10.00">feel/feelmodels/modelcore</text>
<text text-anchor="middle" x="74.5" y="-7.5" font-family="Helvetica,sans-Serif" font-size="10.00">/modelalgebraicfactory.hpp</text>
</a>
</g>
</g>
<!-- Node1&#45;&gt;Node2 -->
<g id="edge1" class="edge">
<title>Node1&#45;&gt;Node2</title>
<path fill="none" stroke="midnightblue" d="M187.69,-67.4C164.08,-56.78 137.07,-44.64 115.35,-34.87"/>
<polygon fill="midnightblue" stroke="midnightblue" points="116.65,-31.62 106.09,-30.71 113.78,-38 116.65,-31.62"/>
</g>
<!-- Node3 -->
<g id="node3" class="node">
<title>Node3</title>
<g id="a_node3"><a xlink:title=" ">
<polygon fill="white" stroke="#bfbfbf" points="167,-6 167,-25 320,-25 320,-6 167,-6"/>
<text text-anchor="middle" x="243.5" y="-13" font-family="Helvetica,sans-Serif" font-size="10.00">feel/feelalg/vectorublas.hpp</text>
</a>
</g>
</g>
<!-- Node1&#45;&gt;Node3 -->
<g id="edge2" class="edge">
<title>Node1&#45;&gt;Node3</title>
<path fill="none" stroke="midnightblue" d="M243.5,-67.19C243.5,-56.76 243.5,-44.9 243.5,-35.27"/>
<polygon fill="midnightblue" stroke="midnightblue" points="247,-35.21 243.5,-25.21 240,-35.21 247,-35.21"/>
</g>
<!-- Node4 -->
<g id="node4" class="node">
<title>Node4</title>
<g id="a_node4"><a xlink:title=" ">
<polygon fill="white" stroke="#bfbfbf" points="338,-6 338,-25 467,-25 467,-6 338,-6"/>
<text text-anchor="middle" x="402.5" y="-13" font-family="Helvetica,sans-Serif" font-size="10.00">feel/feelalg/enums.hpp</text>
</a>
</g>
</g>
<!-- Node1&#45;&gt;Node4 -->
<g id="edge3" class="edge">
<title>Node1&#45;&gt;Node4</title>
<path fill="none" stroke="midnightblue" d="M296,-67.4C322.52,-54.73 353.58,-39.89 375.29,-29.51"/>
<polygon fill="midnightblue" stroke="midnightblue" points="377.04,-32.55 384.55,-25.08 374.02,-26.23 377.04,-32.55"/>
</g>
</g>
</svg>
