<?xml version="1.0" encoding="UTF-8" standalone="no"?>
<!DOCTYPE svg PUBLIC "-//W3C//DTD SVG 1.1//EN"
 "http://www.w3.org/Graphics/SVG/1.1/DTD/svg11.dtd">
<!-- Generated by graphviz version 2.43.0 (0)
 -->
<!-- Title: /data/cemosis/github&#45;actions&#45;runner/actions&#45;runner&#45;3/_work/feelpp/feelpp/toolboxes/feel/feelmodels/modelcore/modelalgebraicfactory.cpp Pages: 1 -->
<svg width="475pt" height="139pt"
 viewBox="0.00 0.00 475.00 139.00" xmlns="http://www.w3.org/2000/svg" xmlns:xlink="http://www.w3.org/1999/xlink">
<g id="graph0" class="graph" transform="scale(1 1) rotate(0) translate(4 135)">
<title>/data/cemosis/github&#45;actions&#45;runner/actions&#45;runner&#45;3/_work/feelpp/feelpp/toolboxes/feel/feelmodels/modelcore/modelalgebraicfactory.cpp</title>
<polygon fill="white" stroke="transparent" points="-4,4 -4,-135 471,-135 471,4 -4,4"/>
<!-- Node1 -->
<g id="node1" class="node">
<title>Node1</title>
<g id="a_node1"><a xlink:title=" ">
<polygon fill="#bfbfbf" stroke="black" points="142,-67.5 142,-130.5 345,-130.5 345,-67.5 142,-67.5"/>
<text text-anchor="start" x="150" y="-118.5" font-family="Helvetica,sans-Serif" font-size="10.00">/data/cemosis/github</text>
<text text-anchor="start" x="150" y="-107.5" font-family="Helvetica,sans-Serif" font-size="10.00">&#45;actions&#45;runner/actions</text>
<text text-anchor="start" x="150" y="-96.5" font-family="Helvetica,sans-Serif" font-size="10.00">&#45;runner&#45;3/_work/feelpp</text>
<text text-anchor="start" x="150" y="-85.5" font-family="Helvetica,sans-Serif" font-size="10.00">/feelpp/toolboxes/feel/feelmodels</text>
<text text-anchor="middle" x="243.5" y="-74.5" font-family="Helvetica,sans-Serif" font-size="10.00">/modelcore/modelalgebraicfactory.cpp</text>
</a>
</g>
</g>
<!-- Node2 -->
<g id="node2" class="node">
<title>Node2</title>
<g id="a_node2"><a xlink:href="modelalgebraicfactory_8hpp.html" target="_top" xlink:title=" ">
<polygon fill="white" stroke="black" points="0,-0.5 0,-30.5 149,-30.5 149,-0.5 0,-0.5"/>
<text text-anchor="start" x="8" y="-18.5" font-family="Helvetica,sans-Serif" font-size="10.00">feel/feelmodels/modelcore</text>
<text text-anchor="middle" x="74.5" y="-7.5" font-family="Helvetica,sans-Serif" font-size="10.00">/modelalgebraicfactory.hpp</text>
</a>
</g>
</g>
<!-- Node1&#45;&gt;Node2 -->
<g id="edge1" class="edge">
<title>Node1&#45;&gt;Node2</title>
<path fill="none" stroke="midnightblue" d="M180.09,-67.42C157.45,-56.5 132.65,-44.54 112.78,-34.96"/>
<polygon fill="midnightblue" stroke="midnightblue" points="114.27,-31.79 103.74,-30.6 111.23,-38.1 114.27,-31.79"/>
</g>
<!-- Node3 -->
<g id="node3" class="node">
<title>Node3</title>
<g id="a_node3"><a xlink:title=" ">
<polygon fill="white" stroke="#bfbfbf" points="167,-6 167,-25 320,-25 320,-6 167,-6"/>
<text text-anchor="middle" x="243.5" y="-13" font-family="Helvetica,sans-Serif" font-size="10.00">feel/feelalg/vectorublas.hpp</text>
</a>
</g>
</g>
<!-- Node1&#45;&gt;Node3 -->
<g id="edge2" class="edge">
<title>Node1&#45;&gt;Node3</title>
<path fill="none" stroke="midnightblue" d="M243.5,-67.19C243.5,-56.55 243.5,-44.95 243.5,-35.53"/>
<polygon fill="midnightblue" stroke="midnightblue" points="247,-35.34 243.5,-25.34 240,-35.34 247,-35.34"/>
</g>
<!-- Node4 -->
<g id="node4" class="node">
<title>Node4</title>
<g id="a_node4"><a xlink:title=" ">
<polygon fill="white" stroke="#bfbfbf" points="338,-6 338,-25 467,-25 467,-6 338,-6"/>
<text text-anchor="middle" x="402.5" y="-13" font-family="Helvetica,sans-Serif" font-size="10.00">feel/feelalg/enums.hpp</text>
</a>
</g>
</g>
<!-- Node1&#45;&gt;Node4 -->
<g id="edge3" class="edge">
<title>Node1&#45;&gt;Node4</title>
<path fill="none" stroke="midnightblue" d="M303.16,-67.42C328.6,-54.38 356.94,-39.85 376.82,-29.66"/>
<polygon fill="midnightblue" stroke="midnightblue" points="378.55,-32.71 385.85,-25.03 375.35,-26.48 378.55,-32.71"/>
</g>
</g>
</svg>
