<?xml version="1.0" encoding="UTF-8" standalone="no"?>
<!DOCTYPE svg PUBLIC "-//W3C//DTD SVG 1.1//EN"
 "http://www.w3.org/Graphics/SVG/1.1/DTD/svg11.dtd">
<!-- Generated by graphviz version 2.43.0 (0)
 -->
<!-- Title: /nvme0/prudhomm/github&#45;actions/actions&#45;runner&#45;3/_work/feelpp/feelpp/feelpp/feel/feelvf/operators.hpp Pages: 1 -->
<svg width="205pt" height="261pt"
 viewBox="0.00 0.00 205.00 261.00" xmlns="http://www.w3.org/2000/svg" xmlns:xlink="http://www.w3.org/1999/xlink">
<g id="graph0" class="graph" transform="scale(1 1) rotate(0) translate(4 257)">
<title>/nvme0/prudhomm/github&#45;actions/actions&#45;runner&#45;3/_work/feelpp/feelpp/feelpp/feel/feelvf/operators.hpp</title>
<polygon fill="white" stroke="transparent" points="-4,4 -4,-257 201,-257 201,4 -4,4"/>
<!-- Node1 -->
<g id="node1" class="node">
<title>Node1</title>
<g id="a_node1"><a xlink:title=" ">
<polygon fill="#bfbfbf" stroke="black" points="18.5,-200.5 18.5,-252.5 178.5,-252.5 178.5,-200.5 18.5,-200.5"/>
<text text-anchor="start" x="26.5" y="-240.5" font-family="Helvetica,sans-Serif" font-size="10.00">/nvme0/prudhomm/github</text>
<text text-anchor="start" x="26.5" y="-229.5" font-family="Helvetica,sans-Serif" font-size="10.00">&#45;actions/actions&#45;runner</text>
<text text-anchor="start" x="26.5" y="-218.5" font-family="Helvetica,sans-Serif" font-size="10.00">&#45;3/_work/feelpp/feelpp/feelpp</text>
<text text-anchor="middle" x="98.5" y="-207.5" font-family="Helvetica,sans-Serif" font-size="10.00">/feel/feelvf/operators.hpp</text>
</a>
</g>
</g>
<!-- Node2 -->
<g id="node2" class="node">
<title>Node2</title>
<g id="a_node2"><a xlink:title=" ">
<polygon fill="white" stroke="#bfbfbf" points="0,-100.5 0,-163.5 197,-163.5 197,-100.5 0,-100.5"/>
<text text-anchor="start" x="8" y="-151.5" font-family="Helvetica,sans-Serif" font-size="10.00">/nvme0/prudhomm/github</text>
<text text-anchor="start" x="8" y="-140.5" font-family="Helvetica,sans-Serif" font-size="10.00">&#45;actions/actions&#45;runner</text>
<text text-anchor="start" x="8" y="-129.5" font-family="Helvetica,sans-Serif" font-size="10.00">&#45;3/_work/feelpp/feelpp/toolboxes</text>
<text text-anchor="start" x="8" y="-118.5" font-family="Helvetica,sans-Serif" font-size="10.00">/feel/feelmodels/coefficientformpdes</text>
<text text-anchor="middle" x="98.5" y="-107.5" font-family="Helvetica,sans-Serif" font-size="10.00">/coefficientformpdes.cpp</text>
</a>
</g>
</g>
<!-- Node1&#45;&gt;Node2 -->
<g id="edge1" class="edge">
<title>Node1&#45;&gt;Node2</title>
<path fill="none" stroke="midnightblue" d="M98.5,-189.94C98.5,-181.23 98.5,-171.97 98.5,-163.51"/>
<polygon fill="midnightblue" stroke="midnightblue" points="95,-190.22 98.5,-200.22 102,-190.22 95,-190.22"/>
</g>
<!-- Node3 -->
<g id="node3" class="node">
<title>Node3</title>
<g id="a_node3"><a xlink:title=" ">
<polygon fill="white" stroke="#bfbfbf" points="0,-0.5 0,-63.5 197,-63.5 197,-0.5 0,-0.5"/>
<text text-anchor="start" x="8" y="-51.5" font-family="Helvetica,sans-Serif" font-size="10.00">/nvme0/prudhomm/github</text>
<text text-anchor="start" x="8" y="-40.5" font-family="Helvetica,sans-Serif" font-size="10.00">&#45;actions/actions&#45;runner</text>
<text text-anchor="start" x="8" y="-29.5" font-family="Helvetica,sans-Serif" font-size="10.00">&#45;3/_work/feelpp/feelpp/toolboxes</text>
<text text-anchor="start" x="8" y="-18.5" font-family="Helvetica,sans-Serif" font-size="10.00">/feel/feelmodels/coefficientformpdes</text>
<text text-anchor="middle" x="98.5" y="-7.5" font-family="Helvetica,sans-Serif" font-size="10.00">/coefficientformpdes_inst.cpp</text>
</a>
</g>
</g>
<!-- Node2&#45;&gt;Node3 -->
<g id="edge2" class="edge">
<title>Node2&#45;&gt;Node3</title>
<path fill="none" stroke="midnightblue" d="M98.5,-90.1C98.5,-81.24 98.5,-72.01 98.5,-63.63"/>
<polygon fill="midnightblue" stroke="midnightblue" points="95,-90.26 98.5,-100.26 102,-90.26 95,-90.26"/>
</g>
</g>
</svg>
