<?xml version="1.0" encoding="UTF-8" standalone="no"?>
<!DOCTYPE svg PUBLIC "-//W3C//DTD SVG 1.1//EN"
 "http://www.w3.org/Graphics/SVG/1.1/DTD/svg11.dtd">
<!-- Generated by graphviz version 2.43.0 (0)
 -->
<!-- Title: /nvme0/prudhomm/actions&#45;runner&#45;2/_work/feelpp/feelpp/feelpp/feel/feeldiscr/pch.hpp Pages: 1 -->
<svg width="492pt" height="150pt"
 viewBox="0.00 0.00 491.50 150.00" xmlns="http://www.w3.org/2000/svg" xmlns:xlink="http://www.w3.org/1999/xlink">
<g id="graph0" class="graph" transform="scale(1 1) rotate(0) translate(4 146)">
<title>/nvme0/prudhomm/actions&#45;runner&#45;2/_work/feelpp/feelpp/feelpp/feel/feeldiscr/pch.hpp</title>
<polygon fill="white" stroke="transparent" points="-4,4 -4,-146 487.5,-146 487.5,4 -4,4"/>
<!-- Node1 -->
<g id="node1" class="node">
<title>Node1</title>
<g id="a_node1"><a xlink:title=" ">
<polygon fill="#bfbfbf" stroke="black" points="168,-89.5 168,-141.5 319,-141.5 319,-89.5 168,-89.5"/>
<text text-anchor="start" x="176" y="-129.5" font-family="Helvetica,sans-Serif" font-size="10.00">/nvme0/prudhomm/actions</text>
<text text-anchor="start" x="176" y="-118.5" font-family="Helvetica,sans-Serif" font-size="10.00">&#45;runner&#45;2/_work/feelpp</text>
<text text-anchor="start" x="176" y="-107.5" font-family="Helvetica,sans-Serif" font-size="10.00">/feelpp/feelpp/feel/feeldiscr</text>
<text text-anchor="middle" x="243.5" y="-96.5" font-family="Helvetica,sans-Serif" font-size="10.00">/pch.hpp</text>
</a>
</g>
</g>
<!-- Node2 -->
<g id="node2" class="node">
<title>Node2</title>
<g id="a_node2"><a xlink:title=" ">
<polygon fill="white" stroke="#bfbfbf" points="0,-0.5 0,-52.5 151,-52.5 151,-0.5 0,-0.5"/>
<text text-anchor="start" x="8" y="-40.5" font-family="Helvetica,sans-Serif" font-size="10.00">/nvme0/prudhomm/actions</text>
<text text-anchor="start" x="8" y="-29.5" font-family="Helvetica,sans-Serif" font-size="10.00">&#45;runner&#45;2/_work/feelpp</text>
<text text-anchor="start" x="8" y="-18.5" font-family="Helvetica,sans-Serif" font-size="10.00">/feelpp/feelpp/feel/feeldiscr</text>
<text text-anchor="middle" x="75.5" y="-7.5" font-family="Helvetica,sans-Serif" font-size="10.00">/pch.cpp</text>
</a>
</g>
</g>
<!-- Node1&#45;&gt;Node2 -->
<g id="edge1" class="edge">
<title>Node1&#45;&gt;Node2</title>
<path fill="none" stroke="midnightblue" d="M185.83,-84.64C165.69,-74.2 143.3,-62.61 123.98,-52.61"/>
<polygon fill="midnightblue" stroke="midnightblue" points="184.42,-87.85 194.91,-89.34 187.64,-81.63 184.42,-87.85"/>
</g>
<!-- Node3 -->
<g id="node3" class="node">
<title>Node3</title>
<g id="a_node3"><a xlink:title=" ">
<polygon fill="white" stroke="#bfbfbf" points="169.5,-0.5 169.5,-52.5 317.5,-52.5 317.5,-0.5 169.5,-0.5"/>
<text text-anchor="start" x="177.5" y="-40.5" font-family="Helvetica,sans-Serif" font-size="10.00">/nvme0/prudhomm/actions</text>
<text text-anchor="start" x="177.5" y="-29.5" font-family="Helvetica,sans-Serif" font-size="10.00">&#45;runner&#45;2/_work/feelpp</text>
<text text-anchor="start" x="177.5" y="-18.5" font-family="Helvetica,sans-Serif" font-size="10.00">/feelpp/testsuite/feelcore</text>
<text text-anchor="middle" x="243.5" y="-7.5" font-family="Helvetica,sans-Serif" font-size="10.00">/test_serialization.cpp</text>
</a>
</g>
</g>
<!-- Node1&#45;&gt;Node3 -->
<g id="edge2" class="edge">
<title>Node1&#45;&gt;Node3</title>
<path fill="none" stroke="midnightblue" d="M243.5,-79.19C243.5,-70.28 243.5,-60.9 243.5,-52.61"/>
<polygon fill="midnightblue" stroke="midnightblue" points="240,-79.34 243.5,-89.34 247,-79.34 240,-79.34"/>
</g>
<!-- Node4 -->
<g id="node4" class="node">
<title>Node4</title>
<g id="a_node4"><a xlink:title=" ">
<polygon fill="white" stroke="#bfbfbf" points="335.5,-0.5 335.5,-52.5 483.5,-52.5 483.5,-0.5 335.5,-0.5"/>
<text text-anchor="start" x="343.5" y="-40.5" font-family="Helvetica,sans-Serif" font-size="10.00">/nvme0/prudhomm/actions</text>
<text text-anchor="start" x="343.5" y="-29.5" font-family="Helvetica,sans-Serif" font-size="10.00">&#45;runner&#45;2/_work/feelpp</text>
<text text-anchor="start" x="343.5" y="-18.5" font-family="Helvetica,sans-Serif" font-size="10.00">/feelpp/testsuite/feelcore</text>
<text text-anchor="middle" x="409.5" y="-7.5" font-family="Helvetica,sans-Serif" font-size="10.00">/test_worldcomm.cpp</text>
</a>
</g>
</g>
<!-- Node1&#45;&gt;Node4 -->
<g id="edge3" class="edge">
<title>Node1&#45;&gt;Node4</title>
<path fill="none" stroke="midnightblue" d="M300.48,-84.64C320.38,-74.2 342.51,-62.61 361.59,-52.61"/>
<polygon fill="midnightblue" stroke="midnightblue" points="298.75,-81.59 291.51,-89.34 302,-87.79 298.75,-81.59"/>
</g>
</g>
</svg>
