<?xml version="1.0" encoding="UTF-8" standalone="no"?>
<!DOCTYPE svg PUBLIC "-//W3C//DTD SVG 1.1//EN"
 "http://www.w3.org/Graphics/SVG/1.1/DTD/svg11.dtd">
<!-- Generated by graphviz version 2.43.0 (0)
 -->
<!-- Title: /nvme0/prudhomm/actions&#45;runner/_work/feelpp/feelpp/toolboxes/feel/feelmodels/solid/solidmechanics.hpp Pages: 1 -->
<svg width="1061pt" height="250pt"
 viewBox="0.00 0.00 1061.00 250.00" xmlns="http://www.w3.org/2000/svg" xmlns:xlink="http://www.w3.org/1999/xlink">
<g id="graph0" class="graph" transform="scale(1 1) rotate(0) translate(4 246)">
<title>/nvme0/prudhomm/actions&#45;runner/_work/feelpp/feelpp/toolboxes/feel/feelmodels/solid/solidmechanics.hpp</title>
<polygon fill="white" stroke="transparent" points="-4,4 -4,-246 1057,-246 1057,4 -4,4"/>
<!-- Node1 -->
<g id="node1" class="node">
<title>Node1</title>
<g id="a_node1"><a xlink:title=" ">
<polygon fill="#bfbfbf" stroke="black" points="414.5,-189.5 414.5,-241.5 566.5,-241.5 566.5,-189.5 414.5,-189.5"/>
<text text-anchor="start" x="422.5" y="-229.5" font-family="Helvetica,sans-Serif" font-size="10.00">/nvme0/prudhomm/actions</text>
<text text-anchor="start" x="422.5" y="-218.5" font-family="Helvetica,sans-Serif" font-size="10.00">&#45;runner/_work/feelpp/feelpp</text>
<text text-anchor="start" x="422.5" y="-207.5" font-family="Helvetica,sans-Serif" font-size="10.00">/toolboxes/feel/feelmodels</text>
<text text-anchor="middle" x="490.5" y="-196.5" font-family="Helvetica,sans-Serif" font-size="10.00">/solid/solidmechanics.hpp</text>
</a>
</g>
</g>
<!-- Node2 -->
<g id="node2" class="node">
<title>Node2</title>
<g id="a_node2"><a xlink:title=" ">
<polygon fill="white" stroke="#bfbfbf" points="0,-100.5 0,-152.5 173,-152.5 173,-100.5 0,-100.5"/>
<text text-anchor="start" x="8" y="-140.5" font-family="Helvetica,sans-Serif" font-size="10.00">/nvme0/prudhomm/actions</text>
<text text-anchor="start" x="8" y="-129.5" font-family="Helvetica,sans-Serif" font-size="10.00">&#45;runner/_work/feelpp/feelpp</text>
<text text-anchor="start" x="8" y="-118.5" font-family="Helvetica,sans-Serif" font-size="10.00">/toolboxes/feel/feelmodels</text>
<text text-anchor="middle" x="86.5" y="-107.5" font-family="Helvetica,sans-Serif" font-size="10.00">/solid/solidmechanicscreate.cpp</text>
</a>
</g>
</g>
<!-- Node1&#45;&gt;Node2 -->
<g id="edge1" class="edge">
<title>Node1&#45;&gt;Node2</title>
<path fill="none" stroke="midnightblue" d="M404.17,-198.89C342.02,-187.27 256.3,-170.46 181.5,-153 178.76,-152.36 175.97,-151.7 173.16,-151.01"/>
<polygon fill="midnightblue" stroke="midnightblue" points="403.85,-202.39 414.33,-200.78 405.14,-195.51 403.85,-202.39"/>
</g>
<!-- Node4 -->
<g id="node4" class="node">
<title>Node4</title>
<g id="a_node4"><a xlink:title=" ">
<polygon fill="white" stroke="#bfbfbf" points="191,-100.5 191,-152.5 364,-152.5 364,-100.5 191,-100.5"/>
<text text-anchor="start" x="199" y="-140.5" font-family="Helvetica,sans-Serif" font-size="10.00">/nvme0/prudhomm/actions</text>
<text text-anchor="start" x="199" y="-129.5" font-family="Helvetica,sans-Serif" font-size="10.00">&#45;runner/_work/feelpp/feelpp</text>
<text text-anchor="start" x="199" y="-118.5" font-family="Helvetica,sans-Serif" font-size="10.00">/toolboxes/feel/feelmodels</text>
<text text-anchor="middle" x="277.5" y="-107.5" font-family="Helvetica,sans-Serif" font-size="10.00">/solid/solidmechanicsothers.cpp</text>
</a>
</g>
</g>
<!-- Node1&#45;&gt;Node4 -->
<g id="edge3" class="edge">
<title>Node1&#45;&gt;Node4</title>
<path fill="none" stroke="midnightblue" d="M419.69,-185.58C393.49,-174.88 364.04,-162.85 338.76,-152.52"/>
<polygon fill="midnightblue" stroke="midnightblue" points="418.6,-188.91 429.18,-189.45 421.24,-182.43 418.6,-188.91"/>
</g>
<!-- Node6 -->
<g id="node6" class="node">
<title>Node6</title>
<g id="a_node6"><a xlink:title=" ">
<polygon fill="white" stroke="#bfbfbf" points="382,-100.5 382,-152.5 599,-152.5 599,-100.5 382,-100.5"/>
<text text-anchor="start" x="390" y="-140.5" font-family="Helvetica,sans-Serif" font-size="10.00">/nvme0/prudhomm/actions</text>
<text text-anchor="start" x="390" y="-129.5" font-family="Helvetica,sans-Serif" font-size="10.00">&#45;runner/_work/feelpp/feelpp</text>
<text text-anchor="start" x="390" y="-118.5" font-family="Helvetica,sans-Serif" font-size="10.00">/toolboxes/feel/feelmodels</text>
<text text-anchor="middle" x="490.5" y="-107.5" font-family="Helvetica,sans-Serif" font-size="10.00">/solid/solidmechanicsupdatejacobian.cpp</text>
</a>
</g>
</g>
<!-- Node1&#45;&gt;Node6 -->
<g id="edge5" class="edge">
<title>Node1&#45;&gt;Node6</title>
<path fill="none" stroke="midnightblue" d="M490.5,-179.19C490.5,-170.28 490.5,-160.9 490.5,-152.61"/>
<polygon fill="midnightblue" stroke="midnightblue" points="487,-179.34 490.5,-189.34 494,-179.34 487,-179.34"/>
</g>
<!-- Node8 -->
<g id="node8" class="node">
<title>Node8</title>
<g id="a_node8"><a xlink:title=" ">
<polygon fill="white" stroke="#bfbfbf" points="617,-100.5 617,-152.5 820,-152.5 820,-100.5 617,-100.5"/>
<text text-anchor="start" x="625" y="-140.5" font-family="Helvetica,sans-Serif" font-size="10.00">/nvme0/prudhomm/actions</text>
<text text-anchor="start" x="625" y="-129.5" font-family="Helvetica,sans-Serif" font-size="10.00">&#45;runner/_work/feelpp/feelpp</text>
<text text-anchor="start" x="625" y="-118.5" font-family="Helvetica,sans-Serif" font-size="10.00">/toolboxes/feel/feelmodels</text>
<text text-anchor="middle" x="718.5" y="-107.5" font-family="Helvetica,sans-Serif" font-size="10.00">/solid/solidmechanicsupdatelinear.cpp</text>
</a>
</g>
</g>
<!-- Node1&#45;&gt;Node8 -->
<g id="edge7" class="edge">
<title>Node1&#45;&gt;Node8</title>
<path fill="none" stroke="midnightblue" d="M565.56,-185.86C593.79,-175.09 625.63,-162.94 652.93,-152.52"/>
<polygon fill="midnightblue" stroke="midnightblue" points="564.24,-182.62 556.14,-189.45 566.73,-189.16 564.24,-182.62"/>
</g>
<!-- Node10 -->
<g id="node10" class="node">
<title>Node10</title>
<g id="a_node10"><a xlink:title=" ">
<polygon fill="white" stroke="#bfbfbf" points="838,-100.5 838,-152.5 1053,-152.5 1053,-100.5 838,-100.5"/>
<text text-anchor="start" x="846" y="-140.5" font-family="Helvetica,sans-Serif" font-size="10.00">/nvme0/prudhomm/actions</text>
<text text-anchor="start" x="846" y="-129.5" font-family="Helvetica,sans-Serif" font-size="10.00">&#45;runner/_work/feelpp/feelpp</text>
<text text-anchor="start" x="846" y="-118.5" font-family="Helvetica,sans-Serif" font-size="10.00">/toolboxes/feel/feelmodels</text>
<text text-anchor="middle" x="945.5" y="-107.5" font-family="Helvetica,sans-Serif" font-size="10.00">/solid/solidmechanicsupdateresidual.cpp</text>
</a>
</g>
</g>
<!-- Node1&#45;&gt;Node10 -->
<g id="edge9" class="edge">
<title>Node1&#45;&gt;Node10</title>
<path fill="none" stroke="midnightblue" d="M576.7,-199.66C645.09,-187.69 743.07,-170.08 828.5,-153 831.56,-152.39 834.66,-151.76 837.79,-151.12"/>
<polygon fill="midnightblue" stroke="midnightblue" points="576.07,-196.22 566.82,-201.39 577.28,-203.12 576.07,-196.22"/>
</g>
<!-- Node3 -->
<g id="node3" class="node">
<title>Node3</title>
<g id="a_node3"><a xlink:title=" ">
<polygon fill="white" stroke="#bfbfbf" points="10.5,-0.5 10.5,-63.5 162.5,-63.5 162.5,-0.5 10.5,-0.5"/>
<text text-anchor="start" x="18.5" y="-51.5" font-family="Helvetica,sans-Serif" font-size="10.00">/nvme0/prudhomm/actions</text>
<text text-anchor="start" x="18.5" y="-40.5" font-family="Helvetica,sans-Serif" font-size="10.00">&#45;runner/_work/feelpp/feelpp</text>
<text text-anchor="start" x="18.5" y="-29.5" font-family="Helvetica,sans-Serif" font-size="10.00">/toolboxes/feel/feelmodels</text>
<text text-anchor="start" x="18.5" y="-18.5" font-family="Helvetica,sans-Serif" font-size="10.00">/solid/solidmechanicscreate</text>
<text text-anchor="middle" x="86.5" y="-7.5" font-family="Helvetica,sans-Serif" font-size="10.00">_inst.cpp</text>
</a>
</g>
</g>
<!-- Node2&#45;&gt;Node3 -->
<g id="edge2" class="edge">
<title>Node2&#45;&gt;Node3</title>
<path fill="none" stroke="midnightblue" d="M86.5,-89.94C86.5,-81.23 86.5,-71.97 86.5,-63.51"/>
<polygon fill="midnightblue" stroke="midnightblue" points="83,-90.22 86.5,-100.22 90,-90.22 83,-90.22"/>
</g>
<!-- Node5 -->
<g id="node5" class="node">
<title>Node5</title>
<g id="a_node5"><a xlink:title=" ">
<polygon fill="white" stroke="#bfbfbf" points="201.5,-0.5 201.5,-63.5 353.5,-63.5 353.5,-0.5 201.5,-0.5"/>
<text text-anchor="start" x="209.5" y="-51.5" font-family="Helvetica,sans-Serif" font-size="10.00">/nvme0/prudhomm/actions</text>
<text text-anchor="start" x="209.5" y="-40.5" font-family="Helvetica,sans-Serif" font-size="10.00">&#45;runner/_work/feelpp/feelpp</text>
<text text-anchor="start" x="209.5" y="-29.5" font-family="Helvetica,sans-Serif" font-size="10.00">/toolboxes/feel/feelmodels</text>
<text text-anchor="start" x="209.5" y="-18.5" font-family="Helvetica,sans-Serif" font-size="10.00">/solid/solidmechanicsothers</text>
<text text-anchor="middle" x="277.5" y="-7.5" font-family="Helvetica,sans-Serif" font-size="10.00">_inst.cpp</text>
</a>
</g>
</g>
<!-- Node4&#45;&gt;Node5 -->
<g id="edge4" class="edge">
<title>Node4&#45;&gt;Node5</title>
<path fill="none" stroke="midnightblue" d="M277.5,-89.94C277.5,-81.23 277.5,-71.97 277.5,-63.51"/>
<polygon fill="midnightblue" stroke="midnightblue" points="274,-90.22 277.5,-100.22 281,-90.22 274,-90.22"/>
</g>
<!-- Node7 -->
<g id="node7" class="node">
<title>Node7</title>
<g id="a_node7"><a xlink:title=" ">
<polygon fill="white" stroke="#bfbfbf" points="392,-0.5 392,-63.5 589,-63.5 589,-0.5 392,-0.5"/>
<text text-anchor="start" x="400" y="-51.5" font-family="Helvetica,sans-Serif" font-size="10.00">/nvme0/prudhomm/actions</text>
<text text-anchor="start" x="400" y="-40.5" font-family="Helvetica,sans-Serif" font-size="10.00">&#45;runner/_work/feelpp/feelpp</text>
<text text-anchor="start" x="400" y="-29.5" font-family="Helvetica,sans-Serif" font-size="10.00">/toolboxes/feel/feelmodels</text>
<text text-anchor="start" x="400" y="-18.5" font-family="Helvetica,sans-Serif" font-size="10.00">/solid/solidmechanicsupdatejacobian</text>
<text text-anchor="middle" x="490.5" y="-7.5" font-family="Helvetica,sans-Serif" font-size="10.00">_inst.cpp</text>
</a>
</g>
</g>
<!-- Node6&#45;&gt;Node7 -->
<g id="edge6" class="edge">
<title>Node6&#45;&gt;Node7</title>
<path fill="none" stroke="midnightblue" d="M490.5,-89.94C490.5,-81.23 490.5,-71.97 490.5,-63.51"/>
<polygon fill="midnightblue" stroke="midnightblue" points="487,-90.22 490.5,-100.22 494,-90.22 487,-90.22"/>
</g>
<!-- Node9 -->
<g id="node9" class="node">
<title>Node9</title>
<g id="a_node9"><a xlink:title=" ">
<polygon fill="white" stroke="#bfbfbf" points="627,-0.5 627,-63.5 810,-63.5 810,-0.5 627,-0.5"/>
<text text-anchor="start" x="635" y="-51.5" font-family="Helvetica,sans-Serif" font-size="10.00">/nvme0/prudhomm/actions</text>
<text text-anchor="start" x="635" y="-40.5" font-family="Helvetica,sans-Serif" font-size="10.00">&#45;runner/_work/feelpp/feelpp</text>
<text text-anchor="start" x="635" y="-29.5" font-family="Helvetica,sans-Serif" font-size="10.00">/toolboxes/feel/feelmodels</text>
<text text-anchor="start" x="635" y="-18.5" font-family="Helvetica,sans-Serif" font-size="10.00">/solid/solidmechanicsupdatelinear</text>
<text text-anchor="middle" x="718.5" y="-7.5" font-family="Helvetica,sans-Serif" font-size="10.00">_inst.cpp</text>
</a>
</g>
</g>
<!-- Node8&#45;&gt;Node9 -->
<g id="edge8" class="edge">
<title>Node8&#45;&gt;Node9</title>
<path fill="none" stroke="midnightblue" d="M718.5,-89.94C718.5,-81.23 718.5,-71.97 718.5,-63.51"/>
<polygon fill="midnightblue" stroke="midnightblue" points="715,-90.22 718.5,-100.22 722,-90.22 715,-90.22"/>
</g>
<!-- Node11 -->
<g id="node11" class="node">
<title>Node11</title>
<g id="a_node11"><a xlink:title=" ">
<polygon fill="white" stroke="#bfbfbf" points="848.5,-0.5 848.5,-63.5 1042.5,-63.5 1042.5,-0.5 848.5,-0.5"/>
<text text-anchor="start" x="856.5" y="-51.5" font-family="Helvetica,sans-Serif" font-size="10.00">/nvme0/prudhomm/actions</text>
<text text-anchor="start" x="856.5" y="-40.5" font-family="Helvetica,sans-Serif" font-size="10.00">&#45;runner/_work/feelpp/feelpp</text>
<text text-anchor="start" x="856.5" y="-29.5" font-family="Helvetica,sans-Serif" font-size="10.00">/toolboxes/feel/feelmodels</text>
<text text-anchor="start" x="856.5" y="-18.5" font-family="Helvetica,sans-Serif" font-size="10.00">/solid/solidmechanicsupdateresidual</text>
<text text-anchor="middle" x="945.5" y="-7.5" font-family="Helvetica,sans-Serif" font-size="10.00">_inst.cpp</text>
</a>
</g>
</g>
<!-- Node10&#45;&gt;Node11 -->
<g id="edge10" class="edge">
<title>Node10&#45;&gt;Node11</title>
<path fill="none" stroke="midnightblue" d="M945.5,-89.94C945.5,-81.23 945.5,-71.97 945.5,-63.51"/>
<polygon fill="midnightblue" stroke="midnightblue" points="942,-90.22 945.5,-100.22 949,-90.22 942,-90.22"/>
</g>
</g>
</svg>
