<?xml version="1.0" encoding="UTF-8" standalone="no"?>
<!DOCTYPE svg PUBLIC "-//W3C//DTD SVG 1.1//EN"
 "http://www.w3.org/Graphics/SVG/1.1/DTD/svg11.dtd">
<!-- Generated by graphviz version 2.43.0 (0)
 -->
<!-- Title: /nvme0/prudhomm/actions&#45;runner&#45;3/_work/feelpp/feelpp/toolboxes/feel/feelmodels/solid/solidmechanics.hpp Pages: 1 -->
<!--zoomable 250 -->
<svg id="main" version="1.1" xmlns="http://www.w3.org/2000/svg" xmlns:xlink="http://www.w3.org/1999/xlink" xml:space="preserve" onload="init(evt)">
<style type="text/css"><![CDATA[
.edge:hover path { stroke: red; }
.edge:hover polygon { stroke: red; fill: red; }
]]></style>
<script type="text/javascript"><![CDATA[
var edges = document.getElementsByTagName('g');
if (edges && edges.length) {
  for (var i=0;i<edges.length;i++) {
    if (edges[i].id.substr(0,4)=='edge') {
      edges[i].setAttribute('class','edge');
    }
  }
}
]]></script>
        <defs>
                <circle id="rim" cx="0" cy="0" r="7"/>
                <circle id="rim2" cx="0" cy="0" r="3.5"/>
                <g id="zoomPlus">
                        <use xlink:href="#rim" fill="#404040">
                                <set attributeName="fill" to="#808080" begin="zoomplus.mouseover" end="zoomplus.mouseout"/>
                        </use>
                        <path d="M-4,0h8M0,-4v8" fill="none" stroke="white" stroke-width="1.5" pointer-events="none"/>
                </g>
                <g id="zoomMin">
                        <use xlink:href="#rim" fill="#404040">
                                <set attributeName="fill" to="#808080" begin="zoomminus.mouseover" end="zoomminus.mouseout"/>
                        </use>
                        <path d="M-4,0h8" fill="none" stroke="white" stroke-width="1.5" pointer-events="none"/>
                </g>
                <g id="dirArrow">
                        <path fill="none" stroke="white" stroke-width="1.5" d="M0,-3.0v7 M-2.5,-0.5L0,-3.0L2.5,-0.5"/>
                </g>
               <g id="resetDef">
                       <use xlink:href="#rim2" fill="#404040">
                               <set attributeName="fill" to="#808080" begin="reset.mouseover" end="reset.mouseout"/>
                       </use>
               </g>
        </defs>

<script type="text/javascript">
var viewWidth = 1349;
var viewHeight = 250;
var sectionId = 'dynsection-0';
</script>
<script xlink:href="svgpan.js"/>
<svg id="graph" class="graph">
<g id="viewport">
<title>/nvme0/prudhomm/actions&#45;runner&#45;3/_work/feelpp/feelpp/toolboxes/feel/feelmodels/solid/solidmechanics.hpp</title>
<polygon fill="white" stroke="transparent" points="-4,4 -4,-246 1345,-246 1345,4 -4,4"/>
<!-- Node1 -->
<g id="node1" class="node">
<title>Node1</title>
<g id="a_node1"><a xlink:title=" ">
<polygon fill="#bfbfbf" stroke="black" points="534,-189.5 534,-241.5 734,-241.5 734,-189.5 534,-189.5"/>
<text text-anchor="start" x="542" y="-229.5" font-family="Helvetica,sans-Serif" font-size="10.00">/nvme0/prudhomm/actions</text>
<text text-anchor="start" x="542" y="-218.5" font-family="Helvetica,sans-Serif" font-size="10.00">&#45;runner&#45;3/_work/feelpp</text>
<text text-anchor="start" x="542" y="-207.5" font-family="Helvetica,sans-Serif" font-size="10.00">/feelpp/toolboxes/feel</text>
<text text-anchor="middle" x="634" y="-196.5" font-family="Helvetica,sans-Serif" font-size="10.00">/feelmodels/solid/solidmechanics.hpp</text>
</a>
</g>
</g>
<!-- Node2 -->
<g id="node2" class="node">
<title>Node2</title>
<g id="a_node2"><a xlink:title=" ">
<polygon fill="white" stroke="#bfbfbf" points="0,-100.5 0,-152.5 230,-152.5 230,-100.5 0,-100.5"/>
<text text-anchor="start" x="8" y="-140.5" font-family="Helvetica,sans-Serif" font-size="10.00">/nvme0/prudhomm/actions</text>
<text text-anchor="start" x="8" y="-129.5" font-family="Helvetica,sans-Serif" font-size="10.00">&#45;runner&#45;3/_work/feelpp</text>
<text text-anchor="start" x="8" y="-118.5" font-family="Helvetica,sans-Serif" font-size="10.00">/feelpp/toolboxes/feel</text>
<text text-anchor="middle" x="115" y="-107.5" font-family="Helvetica,sans-Serif" font-size="10.00">/feelmodels/solid/solidmechanicscreate.cpp</text>
</a>
</g>
</g>
<!-- Node1&#45;&gt;Node2 -->
<g id="edge1" class="edge">
<title>Node1&#45;&gt;Node2</title>
<path fill="none" stroke="midnightblue" d="M523.92,-198.82C444.55,-187.16 334.95,-170.33 239,-153 236.08,-152.47 233.12,-151.93 230.14,-151.38"/>
<polygon fill="midnightblue" stroke="midnightblue" points="523.54,-202.3 533.94,-200.29 524.55,-195.37 523.54,-202.3"/>
</g>
<!-- Node4 -->
<g id="node4" class="node">
<title>Node4</title>
<g id="a_node4"><a xlink:title=" ">
<polygon fill="white" stroke="#bfbfbf" points="248,-100.5 248,-152.5 478,-152.5 478,-100.5 248,-100.5"/>
<text text-anchor="start" x="256" y="-140.5" font-family="Helvetica,sans-Serif" font-size="10.00">/nvme0/prudhomm/actions</text>
<text text-anchor="start" x="256" y="-129.5" font-family="Helvetica,sans-Serif" font-size="10.00">&#45;runner&#45;3/_work/feelpp</text>
<text text-anchor="start" x="256" y="-118.5" font-family="Helvetica,sans-Serif" font-size="10.00">/feelpp/toolboxes/feel</text>
<text text-anchor="middle" x="363" y="-107.5" font-family="Helvetica,sans-Serif" font-size="10.00">/feelmodels/solid/solidmechanicsothers.cpp</text>
</a>
</g>
</g>
<!-- Node1&#45;&gt;Node4 -->
<g id="edge3" class="edge">
<title>Node1&#45;&gt;Node4</title>
<path fill="none" stroke="midnightblue" d="M546.09,-186.28C512.22,-175.4 473.81,-163.07 440.94,-152.52"/>
<polygon fill="midnightblue" stroke="midnightblue" points="545.39,-189.73 555.98,-189.45 547.53,-183.06 545.39,-189.73"/>
</g>
<!-- Node6 -->
<g id="node6" class="node">
<title>Node6</title>
<g id="a_node6"><a xlink:title=" ">
<polygon fill="white" stroke="#bfbfbf" points="496.5,-100.5 496.5,-152.5 771.5,-152.5 771.5,-100.5 496.5,-100.5"/>
<text text-anchor="start" x="504.5" y="-140.5" font-family="Helvetica,sans-Serif" font-size="10.00">/nvme0/prudhomm/actions</text>
<text text-anchor="start" x="504.5" y="-129.5" font-family="Helvetica,sans-Serif" font-size="10.00">&#45;runner&#45;3/_work/feelpp</text>
<text text-anchor="start" x="504.5" y="-118.5" font-family="Helvetica,sans-Serif" font-size="10.00">/feelpp/toolboxes/feel</text>
<text text-anchor="middle" x="634" y="-107.5" font-family="Helvetica,sans-Serif" font-size="10.00">/feelmodels/solid/solidmechanicsupdatejacobian.cpp</text>
</a>
</g>
</g>
<!-- Node1&#45;&gt;Node6 -->
<g id="edge5" class="edge">
<title>Node1&#45;&gt;Node6</title>
<path fill="none" stroke="midnightblue" d="M634,-179.19C634,-170.28 634,-160.9 634,-152.61"/>
<polygon fill="midnightblue" stroke="midnightblue" points="630.5,-179.34 634,-189.34 637.5,-179.34 630.5,-179.34"/>
</g>
<!-- Node8 -->
<g id="node8" class="node">
<title>Node8</title>
<g id="a_node8"><a xlink:title=" ">
<polygon fill="white" stroke="#bfbfbf" points="789.5,-100.5 789.5,-152.5 1050.5,-152.5 1050.5,-100.5 789.5,-100.5"/>
<text text-anchor="start" x="797.5" y="-140.5" font-family="Helvetica,sans-Serif" font-size="10.00">/nvme0/prudhomm/actions</text>
<text text-anchor="start" x="797.5" y="-129.5" font-family="Helvetica,sans-Serif" font-size="10.00">&#45;runner&#45;3/_work/feelpp</text>
<text text-anchor="start" x="797.5" y="-118.5" font-family="Helvetica,sans-Serif" font-size="10.00">/feelpp/toolboxes/feel</text>
<text text-anchor="middle" x="920" y="-107.5" font-family="Helvetica,sans-Serif" font-size="10.00">/feelmodels/solid/solidmechanicsupdatelinear.cpp</text>
</a>
</g>
</g>
<!-- Node1&#45;&gt;Node8 -->
<g id="edge7" class="edge">
<title>Node1&#45;&gt;Node8</title>
<path fill="none" stroke="midnightblue" d="M726.31,-186.42C762.17,-175.51 802.91,-163.12 837.75,-152.52"/>
<polygon fill="midnightblue" stroke="midnightblue" points="724.89,-183.19 716.34,-189.45 726.93,-189.89 724.89,-183.19"/>
</g>
<!-- Node10 -->
<g id="node10" class="node">
<title>Node10</title>
<g id="a_node10"><a xlink:title=" ">
<polygon fill="white" stroke="#bfbfbf" points="1069,-100.5 1069,-152.5 1341,-152.5 1341,-100.5 1069,-100.5"/>
<text text-anchor="start" x="1077" y="-140.5" font-family="Helvetica,sans-Serif" font-size="10.00">/nvme0/prudhomm/actions</text>
<text text-anchor="start" x="1077" y="-129.5" font-family="Helvetica,sans-Serif" font-size="10.00">&#45;runner&#45;3/_work/feelpp</text>
<text text-anchor="start" x="1077" y="-118.5" font-family="Helvetica,sans-Serif" font-size="10.00">/feelpp/toolboxes/feel</text>
<text text-anchor="middle" x="1205" y="-107.5" font-family="Helvetica,sans-Serif" font-size="10.00">/feelmodels/solid/solidmechanicsupdateresidual.cpp</text>
</a>
</g>
</g>
<!-- Node1&#45;&gt;Node10 -->
<g id="edge9" class="edge">
<title>Node1&#45;&gt;Node10</title>
<path fill="none" stroke="midnightblue" d="M744.46,-199.5C830.54,-187.58 953,-170.13 1060,-153 1062.9,-152.54 1065.84,-152.06 1068.79,-151.58"/>
<polygon fill="midnightblue" stroke="midnightblue" points="743.83,-196.05 734.41,-200.89 744.79,-202.99 743.83,-196.05"/>
</g>
<!-- Node3 -->
<g id="node3" class="node">
<title>Node3</title>
<g id="a_node3"><a xlink:title=" ">
<polygon fill="white" stroke="#bfbfbf" points="10,-0.5 10,-63.5 220,-63.5 220,-0.5 10,-0.5"/>
<text text-anchor="start" x="18" y="-51.5" font-family="Helvetica,sans-Serif" font-size="10.00">/nvme0/prudhomm/actions</text>
<text text-anchor="start" x="18" y="-40.5" font-family="Helvetica,sans-Serif" font-size="10.00">&#45;runner&#45;3/_work/feelpp</text>
<text text-anchor="start" x="18" y="-29.5" font-family="Helvetica,sans-Serif" font-size="10.00">/feelpp/toolboxes/feel</text>
<text text-anchor="start" x="18" y="-18.5" font-family="Helvetica,sans-Serif" font-size="10.00">/feelmodels/solid/solidmechanicscreate</text>
<text text-anchor="middle" x="115" y="-7.5" font-family="Helvetica,sans-Serif" font-size="10.00">_inst.cpp</text>
</a>
</g>
</g>
<!-- Node2&#45;&gt;Node3 -->
<g id="edge2" class="edge">
<title>Node2&#45;&gt;Node3</title>
<path fill="none" stroke="midnightblue" d="M115,-89.94C115,-81.23 115,-71.97 115,-63.51"/>
<polygon fill="midnightblue" stroke="midnightblue" points="111.5,-90.22 115,-100.22 118.5,-90.22 111.5,-90.22"/>
</g>
<!-- Node5 -->
<g id="node5" class="node">
<title>Node5</title>
<g id="a_node5"><a xlink:title=" ">
<polygon fill="white" stroke="#bfbfbf" points="258,-0.5 258,-63.5 468,-63.5 468,-0.5 258,-0.5"/>
<text text-anchor="start" x="266" y="-51.5" font-family="Helvetica,sans-Serif" font-size="10.00">/nvme0/prudhomm/actions</text>
<text text-anchor="start" x="266" y="-40.5" font-family="Helvetica,sans-Serif" font-size="10.00">&#45;runner&#45;3/_work/feelpp</text>
<text text-anchor="start" x="266" y="-29.5" font-family="Helvetica,sans-Serif" font-size="10.00">/feelpp/toolboxes/feel</text>
<text text-anchor="start" x="266" y="-18.5" font-family="Helvetica,sans-Serif" font-size="10.00">/feelmodels/solid/solidmechanicsothers</text>
<text text-anchor="middle" x="363" y="-7.5" font-family="Helvetica,sans-Serif" font-size="10.00">_inst.cpp</text>
</a>
</g>
</g>
<!-- Node4&#45;&gt;Node5 -->
<g id="edge4" class="edge">
<title>Node4&#45;&gt;Node5</title>
<path fill="none" stroke="midnightblue" d="M363,-89.94C363,-81.23 363,-71.97 363,-63.51"/>
<polygon fill="midnightblue" stroke="midnightblue" points="359.5,-90.22 363,-100.22 366.5,-90.22 359.5,-90.22"/>
</g>
<!-- Node7 -->
<g id="node7" class="node">
<title>Node7</title>
<g id="a_node7"><a xlink:title=" ">
<polygon fill="white" stroke="#bfbfbf" points="507,-0.5 507,-63.5 761,-63.5 761,-0.5 507,-0.5"/>
<text text-anchor="start" x="515" y="-51.5" font-family="Helvetica,sans-Serif" font-size="10.00">/nvme0/prudhomm/actions</text>
<text text-anchor="start" x="515" y="-40.5" font-family="Helvetica,sans-Serif" font-size="10.00">&#45;runner&#45;3/_work/feelpp</text>
<text text-anchor="start" x="515" y="-29.5" font-family="Helvetica,sans-Serif" font-size="10.00">/feelpp/toolboxes/feel</text>
<text text-anchor="start" x="515" y="-18.5" font-family="Helvetica,sans-Serif" font-size="10.00">/feelmodels/solid/solidmechanicsupdatejacobian</text>
<text text-anchor="middle" x="634" y="-7.5" font-family="Helvetica,sans-Serif" font-size="10.00">_inst.cpp</text>
</a>
</g>
</g>
<!-- Node6&#45;&gt;Node7 -->
<g id="edge6" class="edge">
<title>Node6&#45;&gt;Node7</title>
<path fill="none" stroke="midnightblue" d="M634,-89.94C634,-81.23 634,-71.97 634,-63.51"/>
<polygon fill="midnightblue" stroke="midnightblue" points="630.5,-90.22 634,-100.22 637.5,-90.22 630.5,-90.22"/>
</g>
<!-- Node9 -->
<g id="node9" class="node">
<title>Node9</title>
<g id="a_node9"><a xlink:title=" ">
<polygon fill="white" stroke="#bfbfbf" points="799.5,-0.5 799.5,-63.5 1040.5,-63.5 1040.5,-0.5 799.5,-0.5"/>
<text text-anchor="start" x="807.5" y="-51.5" font-family="Helvetica,sans-Serif" font-size="10.00">/nvme0/prudhomm/actions</text>
<text text-anchor="start" x="807.5" y="-40.5" font-family="Helvetica,sans-Serif" font-size="10.00">&#45;runner&#45;3/_work/feelpp</text>
<text text-anchor="start" x="807.5" y="-29.5" font-family="Helvetica,sans-Serif" font-size="10.00">/feelpp/toolboxes/feel</text>
<text text-anchor="start" x="807.5" y="-18.5" font-family="Helvetica,sans-Serif" font-size="10.00">/feelmodels/solid/solidmechanicsupdatelinear</text>
<text text-anchor="middle" x="920" y="-7.5" font-family="Helvetica,sans-Serif" font-size="10.00">_inst.cpp</text>
</a>
</g>
</g>
<!-- Node8&#45;&gt;Node9 -->
<g id="edge8" class="edge">
<title>Node8&#45;&gt;Node9</title>
<path fill="none" stroke="midnightblue" d="M920,-89.94C920,-81.23 920,-71.97 920,-63.51"/>
<polygon fill="midnightblue" stroke="midnightblue" points="916.5,-90.22 920,-100.22 923.5,-90.22 916.5,-90.22"/>
</g>
<!-- Node11 -->
<g id="node11" class="node">
<title>Node11</title>
<g id="a_node11"><a xlink:title=" ">
<polygon fill="white" stroke="#bfbfbf" points="1079,-0.5 1079,-63.5 1331,-63.5 1331,-0.5 1079,-0.5"/>
<text text-anchor="start" x="1087" y="-51.5" font-family="Helvetica,sans-Serif" font-size="10.00">/nvme0/prudhomm/actions</text>
<text text-anchor="start" x="1087" y="-40.5" font-family="Helvetica,sans-Serif" font-size="10.00">&#45;runner&#45;3/_work/feelpp</text>
<text text-anchor="start" x="1087" y="-29.5" font-family="Helvetica,sans-Serif" font-size="10.00">/feelpp/toolboxes/feel</text>
<text text-anchor="start" x="1087" y="-18.5" font-family="Helvetica,sans-Serif" font-size="10.00">/feelmodels/solid/solidmechanicsupdateresidual</text>
<text text-anchor="middle" x="1205" y="-7.5" font-family="Helvetica,sans-Serif" font-size="10.00">_inst.cpp</text>
</a>
</g>
</g>
<!-- Node10&#45;&gt;Node11 -->
<g id="edge10" class="edge">
<title>Node10&#45;&gt;Node11</title>
<path fill="none" stroke="midnightblue" d="M1205,-89.94C1205,-81.23 1205,-71.97 1205,-63.51"/>
<polygon fill="midnightblue" stroke="midnightblue" points="1201.5,-90.22 1205,-100.22 1208.5,-90.22 1201.5,-90.22"/>
</g>
</g>
</svg>
        <g id="navigator" transform="translate(0 0)" fill="#404254">
                <rect fill="#f2f5e9" fill-opacity="0.5" stroke="#606060" stroke-width=".5" x="0" y="0" width="60" height="60"/>
                <use id="zoomplus" xlink:href="#zoomPlus" x="17" y="9" onmousedown="handleZoom(evt,'in')"/>
                <use id="zoomminus" xlink:href="#zoomMin" x="42" y="9" onmousedown="handleZoom(evt,'out')"/>
                <use id="reset" xlink:href="#resetDef" x="30" y="36" onmousedown="handleReset()"/>
                <g id="arrowUp" xlink:href="#dirArrow" transform="translate(30 24)" onmousedown="handlePan(0,-1)">
                  <use xlink:href="#rim" fill="#404040">
                        <set attributeName="fill" to="#808080" begin="arrowUp.mouseover" end="arrowUp.mouseout"/>
                  </use>
                  <path fill="none" stroke="white" stroke-width="1.5" d="M0,-3.0v7 M-2.5,-0.5L0,-3.0L2.5,-0.5"/>
                </g>
                <g id="arrowRight" xlink:href="#dirArrow" transform="rotate(90) translate(36 -43)" onmousedown="handlePan(1,0)">
                  <use xlink:href="#rim" fill="#404040">
                        <set attributeName="fill" to="#808080" begin="arrowRight.mouseover" end="arrowRight.mouseout"/>
                  </use>
                  <path fill="none" stroke="white" stroke-width="1.5" d="M0,-3.0v7 M-2.5,-0.5L0,-3.0L2.5,-0.5"/>
                </g>
                <g id="arrowDown" xlink:href="#dirArrow" transform="rotate(180) translate(-30 -48)" onmousedown="handlePan(0,1)">
                  <use xlink:href="#rim" fill="#404040">
                        <set attributeName="fill" to="#808080" begin="arrowDown.mouseover" end="arrowDown.mouseout"/>
                  </use>
                  <path fill="none" stroke="white" stroke-width="1.5" d="M0,-3.0v7 M-2.5,-0.5L0,-3.0L2.5,-0.5"/>
                </g>
                <g id="arrowLeft" xlink:href="#dirArrow" transform="rotate(270) translate(-36 17)" onmousedown="handlePan(-1,0)">
                  <use xlink:href="#rim" fill="#404040">
                        <set attributeName="fill" to="#808080" begin="arrowLeft.mouseover" end="arrowLeft.mouseout"/>
                  </use>
                  <path fill="none" stroke="white" stroke-width="1.5" d="M0,-3.0v7 M-2.5,-0.5L0,-3.0L2.5,-0.5"/>
                </g>
        </g>
        <svg viewBox="0 0 15 15" width="100%" height="30px" preserveAspectRatio="xMaxYMin meet">
         <g id="arrow_out" transform="scale(0.3 0.3)">
          <a xlink:href="solidmechanics_8hpp__dep__incl_org.svg" target="_base">
           <rect id="button" ry="5" rx="5" y="6" x="6" height="38" width="38"
                fill="#f2f5e9" fill-opacity="0.5" stroke="#606060" stroke-width="1.0"/>
           <path id="arrow"
             d="M 11.500037,31.436501 C 11.940474,20.09759 22.043105,11.32322 32.158766,21.979434 L 37.068811,17.246167 C 37.068811,17.246167 37.088388,32 37.088388,32 L 22.160133,31.978069 C 22.160133,31.978069 26.997745,27.140456 26.997745,27.140456 C 18.528582,18.264221 13.291696,25.230495 11.500037,31.436501 z"
             style="fill:#404040;"/>
          </a>
         </g>
        </svg>
</svg>
