<?xml version="1.0" encoding="UTF-8" standalone="no"?>
<!DOCTYPE svg PUBLIC "-//W3C//DTD SVG 1.1//EN"
 "http://www.w3.org/Graphics/SVG/1.1/DTD/svg11.dtd">
<!-- Generated by graphviz version 2.43.0 (0)
 -->
<!-- Title: Feel::vf::SymbolExpr&lt; ExprT &gt; Pages: 1 -->
<svg width="152pt" height="237pt"
 viewBox="0.00 0.00 152.00 237.00" xmlns="http://www.w3.org/2000/svg" xmlns:xlink="http://www.w3.org/1999/xlink">
<g id="graph0" class="graph" transform="scale(1 1) rotate(0) translate(4 233)">
<title>Feel::vf::SymbolExpr&lt; ExprT &gt;</title>
<polygon fill="white" stroke="transparent" points="-4,4 -4,-233 148,-233 148,4 -4,4"/>
<!-- Node1 -->
<g id="node1" class="node">
<title>Node1</title>
<g id="a_node1"><a xlink:title="attach a symbol (string) with a feel++ expression ex : auto se = SymbolExpr( &quot;u&quot;, cst(3....">
<polygon fill="#bfbfbf" stroke="black" points="14,-0.5 14,-123.5 130,-123.5 130,-0.5 14,-0.5"/>
<text text-anchor="start" x="22" y="-111.5" font-family="Helvetica,sans-Serif" font-size="10.00">Feel::vf::SymbolExpr</text>
<text text-anchor="middle" x="72" y="-100.5" font-family="Helvetica,sans-Serif" font-size="10.00">&lt; ExprT &gt;</text>
<polyline fill="none" stroke="black" points="14,-93.5 130,-93.5 "/>
<text text-anchor="middle" x="72" y="-81.5" font-family="Helvetica,sans-Serif" font-size="10.00"> </text>
<polyline fill="none" stroke="black" points="14,-74.5 130,-74.5 "/>
<text text-anchor="start" x="22" y="-62.5" font-family="Helvetica,sans-Serif" font-size="10.00">+ add()</text>
<text text-anchor="start" x="22" y="-51.5" font-family="Helvetica,sans-Serif" font-size="10.00">+ applyLambda()</text>
<text text-anchor="start" x="22" y="-40.5" font-family="Helvetica,sans-Serif" font-size="10.00">+ operator=()</text>
<text text-anchor="start" x="22" y="-29.5" font-family="Helvetica,sans-Serif" font-size="10.00">+ operator=()</text>
<text text-anchor="start" x="22" y="-18.5" font-family="Helvetica,sans-Serif" font-size="10.00">+ SymbolExpr()</text>
<text text-anchor="start" x="22" y="-7.5" font-family="Helvetica,sans-Serif" font-size="10.00">and 8 more...</text>
</a>
</g>
</g>
<!-- Node2 -->
<g id="node2" class="node">
<title>Node2</title>
<g id="a_node2"><a xlink:title="STL class.">
<polygon fill="white" stroke="#bfbfbf" points="0,-160.5 0,-228.5 144,-228.5 144,-160.5 0,-160.5"/>
<text text-anchor="start" x="8" y="-216.5" font-family="Helvetica,sans-Serif" font-size="10.00">std::vector&lt; SymbolExpr1</text>
<text text-anchor="middle" x="72" y="-205.5" font-family="Helvetica,sans-Serif" font-size="10.00">&lt; ExprT &gt; &gt;</text>
<polyline fill="none" stroke="#bfbfbf" points="0,-198.5 144,-198.5 "/>
<text text-anchor="start" x="8" y="-186.5" font-family="Helvetica,sans-Serif" font-size="10.00">+ elements</text>
<polyline fill="none" stroke="#bfbfbf" points="0,-179.5 144,-179.5 "/>
<text text-anchor="middle" x="72" y="-167.5" font-family="Helvetica,sans-Serif" font-size="10.00"> </text>
</a>
</g>
</g>
<!-- Node2&#45;&gt;Node1 -->
<g id="edge1" class="edge">
<title>Node2&#45;&gt;Node1</title>
<path fill="none" stroke="midnightblue" d="M72,-150.17C72,-141.65 72,-132.57 72,-123.61"/>
<polygon fill="none" stroke="midnightblue" points="68.5,-150.23 72,-160.23 75.5,-150.23 68.5,-150.23"/>
</g>
</g>
</svg>
