<?xml version="1.0" encoding="UTF-8" standalone="no"?>
<!DOCTYPE svg PUBLIC "-//W3C//DTD SVG 1.1//EN"
 "http://www.w3.org/Graphics/SVG/1.1/DTD/svg11.dtd">
<!-- Generated by graphviz version 2.43.0 (0)
 -->
<!-- Title: Feel::Tetrahedron&lt; Dim &gt; Pages: 1 -->
<svg width="702pt" height="676pt"
 viewBox="0.00 0.00 702.00 676.00" xmlns="http://www.w3.org/2000/svg" xmlns:xlink="http://www.w3.org/1999/xlink">
<g id="graph0" class="graph" transform="scale(1 1) rotate(0) translate(4 672)">
<title>Feel::Tetrahedron&lt; Dim &gt;</title>
<polygon fill="white" stroke="transparent" points="-4,4 -4,-672 698,-672 698,4 -4,4"/>
<!-- Node1 -->
<g id="node1" class="node">
<title>Node1</title>
<g id="a_node1"><a xlink:title=" ">
<polygon fill="#bfbfbf" stroke="black" points="317.5,-0.5 317.5,-68.5 426.5,-68.5 426.5,-0.5 317.5,-0.5"/>
<text text-anchor="start" x="325.5" y="-56.5" font-family="Helvetica,sans-Serif" font-size="10.00">Feel::Tetrahedron&lt;</text>
<text text-anchor="middle" x="372" y="-45.5" font-family="Helvetica,sans-Serif" font-size="10.00"> Dim &gt;</text>
<polyline fill="none" stroke="black" points="317.5,-38.5 426.5,-38.5 "/>
<text text-anchor="middle" x="372" y="-26.5" font-family="Helvetica,sans-Serif" font-size="10.00"> </text>
<polyline fill="none" stroke="black" points="317.5,-19.5 426.5,-19.5 "/>
<text text-anchor="middle" x="372" y="-7.5" font-family="Helvetica,sans-Serif" font-size="10.00"> </text>
</a>
</g>
</g>
<!-- Node2 -->
<g id="node2" class="node">
<title>Node2</title>
<g id="a_node2"><a xlink:href="classFeel_1_1Simplex.html" target="_top" xlink:title=" ">
<polygon fill="white" stroke="black" points="301,-106.5 301,-295.5 443,-295.5 443,-106.5 301,-106.5"/>
<text text-anchor="middle" x="372" y="-283.5" font-family="Helvetica,sans-Serif" font-size="10.00">Feel::Simplex&lt; 3, Dim &gt;</text>
<polyline fill="none" stroke="black" points="301,-276.5 443,-276.5 "/>
<text text-anchor="start" x="309" y="-264.5" font-family="Helvetica,sans-Serif" font-size="10.00">+ topological_dimension</text>
<polyline fill="none" stroke="black" points="301,-257.5 443,-257.5 "/>
<text text-anchor="start" x="309" y="-245.5" font-family="Helvetica,sans-Serif" font-size="10.00">+ dimension()</text>
<text text-anchor="start" x="309" y="-234.5" font-family="Helvetica,sans-Serif" font-size="10.00">+ operator=()</text>
<text text-anchor="start" x="309" y="-223.5" font-family="Helvetica,sans-Serif" font-size="10.00">+ operator=()</text>
<text text-anchor="start" x="309" y="-212.5" font-family="Helvetica,sans-Serif" font-size="10.00">+ Simplex()</text>
<text text-anchor="start" x="309" y="-201.5" font-family="Helvetica,sans-Serif" font-size="10.00">+ Simplex()</text>
<text text-anchor="start" x="309" y="-190.5" font-family="Helvetica,sans-Serif" font-size="10.00">+ Simplex()</text>
<text text-anchor="start" x="309" y="-179.5" font-family="Helvetica,sans-Serif" font-size="10.00">+ topologicalDimension()</text>
<text text-anchor="start" x="309" y="-168.5" font-family="Helvetica,sans-Serif" font-size="10.00">+ e2p()</text>
<text text-anchor="start" x="309" y="-157.5" font-family="Helvetica,sans-Serif" font-size="10.00">+ f2e()</text>
<text text-anchor="start" x="309" y="-146.5" font-family="Helvetica,sans-Serif" font-size="10.00">+ f2eLoc()</text>
<text text-anchor="start" x="309" y="-135.5" font-family="Helvetica,sans-Serif" font-size="10.00">+ f2p()</text>
<text text-anchor="start" x="309" y="-124.5" font-family="Helvetica,sans-Serif" font-size="10.00">+ getShape()</text>
<text text-anchor="start" x="309" y="-113.5" font-family="Helvetica,sans-Serif" font-size="10.00">and 12 more...</text>
</a>
</g>
</g>
<!-- Node2&#45;&gt;Node1 -->
<g id="edge1" class="edge">
<title>Node2&#45;&gt;Node1</title>
<path fill="none" stroke="midnightblue" d="M372,-95.95C372,-86.22 372,-76.93 372,-68.68"/>
<polygon fill="none" stroke="midnightblue" points="368.5,-96.22 372,-106.22 375.5,-96.22 368.5,-96.22"/>
</g>
<!-- Node3 -->
<g id="node3" class="node">
<title>Node3</title>
<g id="a_node3"><a xlink:href="classFeel_1_1Convex.html" target="_top" xlink:title=" ">
<polygon fill="white" stroke="black" points="39,-430 39,-531 153,-531 153,-430 39,-430"/>
<text text-anchor="start" x="47" y="-519" font-family="Helvetica,sans-Serif" font-size="10.00">Feel::Convex&lt; Dim,</text>
<text text-anchor="middle" x="96" y="-508" font-family="Helvetica,sans-Serif" font-size="10.00"> Order, Dim &gt;</text>
<polyline fill="none" stroke="black" points="39,-501 153,-501 "/>
<text text-anchor="middle" x="96" y="-489" font-family="Helvetica,sans-Serif" font-size="10.00"> </text>
<polyline fill="none" stroke="black" points="39,-482 153,-482 "/>
<text text-anchor="start" x="47" y="-470" font-family="Helvetica,sans-Serif" font-size="10.00">* Convex()</text>
<text text-anchor="start" x="47" y="-459" font-family="Helvetica,sans-Serif" font-size="10.00">* Convex()</text>
<text text-anchor="start" x="47" y="-448" font-family="Helvetica,sans-Serif" font-size="10.00">* ~Convex()</text>
<text text-anchor="start" x="47" y="-437" font-family="Helvetica,sans-Serif" font-size="10.00">* operator=()</text>
</a>
</g>
</g>
<!-- Node3&#45;&gt;Node2 -->
<g id="edge2" class="edge">
<title>Node3&#45;&gt;Node2</title>
<path fill="none" stroke="midnightblue" d="M114.14,-420.55C126.93,-386.37 146.84,-344.25 175,-314 209.71,-276.71 259.72,-248.48 300.66,-229.7"/>
<polygon fill="none" stroke="midnightblue" points="110.84,-419.36 110.72,-429.96 117.42,-421.76 110.84,-419.36"/>
</g>
<!-- Node4 -->
<g id="node4" class="node">
<title>Node4</title>
<g id="a_node4"><a xlink:href="classFeel_1_1ConvexBase.html" target="_top" xlink:title=" ">
<polygon fill="white" stroke="#bfbfbf" points="0,-610.5 0,-667.5 104,-667.5 104,-610.5 0,-610.5"/>
<text text-anchor="middle" x="52" y="-655.5" font-family="Helvetica,sans-Serif" font-size="10.00">Feel::ConvexBase</text>
<polyline fill="none" stroke="#bfbfbf" points="0,-648.5 104,-648.5 "/>
<text text-anchor="middle" x="52" y="-636.5" font-family="Helvetica,sans-Serif" font-size="10.00"> </text>
<polyline fill="none" stroke="#bfbfbf" points="0,-629.5 104,-629.5 "/>
<text text-anchor="middle" x="52" y="-617.5" font-family="Helvetica,sans-Serif" font-size="10.00"> </text>
</a>
</g>
</g>
<!-- Node4&#45;&gt;Node3 -->
<g id="edge3" class="edge">
<title>Node4&#45;&gt;Node3</title>
<path fill="none" stroke="midnightblue" d="M62.5,-600.66C68.34,-579.89 75.68,-553.77 82,-531.29"/>
<polygon fill="none" stroke="midnightblue" points="59.1,-599.81 59.77,-610.38 65.84,-601.7 59.1,-599.81"/>
</g>
<!-- Node5 -->
<g id="node5" class="node">
<title>Node5</title>
<g id="a_node5"><a xlink:title=" ">
<polygon fill="white" stroke="#bfbfbf" points="122,-610.5 122,-667.5 256,-667.5 256,-610.5 122,-610.5"/>
<text text-anchor="middle" x="189" y="-655.5" font-family="Helvetica,sans-Serif" font-size="10.00">static const uint16_type</text>
<polyline fill="none" stroke="#bfbfbf" points="122,-648.5 256,-648.5 "/>
<text text-anchor="middle" x="189" y="-636.5" font-family="Helvetica,sans-Serif" font-size="10.00"> </text>
<polyline fill="none" stroke="#bfbfbf" points="122,-629.5 256,-629.5 "/>
<text text-anchor="middle" x="189" y="-617.5" font-family="Helvetica,sans-Serif" font-size="10.00"> </text>
</a>
</g>
</g>
<!-- Node5&#45;&gt;Node2 -->
<g id="edge7" class="edge">
<title>Node5&#45;&gt;Node2</title>
<path fill="none" stroke="#404040" d="M185,-610.42C179.99,-567.97 174.75,-484.75 199,-420 218.92,-366.8 257.04,-316.48 292.43,-277.62"/>
<polygon fill="none" stroke="#404040" points="292.72,-277.31 293.87,-270.19 300.88,-268.5 299.74,-275.62 292.72,-277.31"/>
<text text-anchor="middle" x="243.5" y="-533" font-family="Helvetica,sans-Serif" font-size="10.00"> +nDim</text>
<text text-anchor="middle" x="243.5" y="-522" font-family="Helvetica,sans-Serif" font-size="10.00">+nOrder</text>
<text text-anchor="middle" x="243.5" y="-511" font-family="Helvetica,sans-Serif" font-size="10.00">+nRealDim</text>
<text text-anchor="middle" x="243.5" y="-500" font-family="Helvetica,sans-Serif" font-size="10.00">+nbPtsPerEdge</text>
<text text-anchor="middle" x="243.5" y="-489" font-family="Helvetica,sans-Serif" font-size="10.00">+nbPtsPerFace</text>
<text text-anchor="middle" x="243.5" y="-478" font-family="Helvetica,sans-Serif" font-size="10.00">+nbPtsPerVertex</text>
<text text-anchor="middle" x="243.5" y="-467" font-family="Helvetica,sans-Serif" font-size="10.00">+nbPtsPerVolume</text>
<text text-anchor="middle" x="243.5" y="-456" font-family="Helvetica,sans-Serif" font-size="10.00">+numNormals</text>
<text text-anchor="middle" x="243.5" y="-445" font-family="Helvetica,sans-Serif" font-size="10.00">+numPoints</text>
<text text-anchor="middle" x="243.5" y="-434" font-family="Helvetica,sans-Serif" font-size="10.00">+real_dimension</text>
<text text-anchor="middle" x="243.5" y="-423" font-family="Helvetica,sans-Serif" font-size="10.00">...</text>
</g>
<!-- Node5&#45;&gt;Node3 -->
<g id="edge4" class="edge">
<title>Node5&#45;&gt;Node3</title>
<path fill="none" stroke="#404040" d="M135.51,-610.38C128.83,-605.05 122.7,-598.93 118,-592 108.32,-577.74 102.7,-560.2 99.49,-543.34"/>
<polygon fill="none" stroke="#404040" points="99.45,-543.08 94.55,-537.79 97.55,-531.23 102.45,-536.53 99.45,-543.08"/>
<text text-anchor="middle" x="146.5" y="-584" font-family="Helvetica,sans-Serif" font-size="10.00"> +nDim</text>
<text text-anchor="middle" x="146.5" y="-573" font-family="Helvetica,sans-Serif" font-size="10.00">+nOrder</text>
<text text-anchor="middle" x="146.5" y="-562" font-family="Helvetica,sans-Serif" font-size="10.00">+nRealDim</text>
</g>
<!-- Node6 -->
<g id="node6" class="node">
<title>Node6</title>
<g id="a_node6"><a xlink:href="classFeel_1_1SimplexBase.html" target="_top" xlink:title=" ">
<polygon fill="white" stroke="#bfbfbf" points="296.5,-452 296.5,-509 403.5,-509 403.5,-452 296.5,-452"/>
<text text-anchor="middle" x="350" y="-497" font-family="Helvetica,sans-Serif" font-size="10.00">Feel::SimplexBase</text>
<polyline fill="none" stroke="#bfbfbf" points="296.5,-490 403.5,-490 "/>
<text text-anchor="middle" x="350" y="-478" font-family="Helvetica,sans-Serif" font-size="10.00"> </text>
<polyline fill="none" stroke="#bfbfbf" points="296.5,-471 403.5,-471 "/>
<text text-anchor="middle" x="350" y="-459" font-family="Helvetica,sans-Serif" font-size="10.00"> </text>
</a>
</g>
</g>
<!-- Node6&#45;&gt;Node2 -->
<g id="edge5" class="edge">
<title>Node6&#45;&gt;Node2</title>
<path fill="none" stroke="#8b1a1a" d="M353.02,-441.45C355.98,-404.04 360.63,-345.46 364.58,-295.61"/>
<polygon fill="none" stroke="#8b1a1a" points="349.49,-441.63 352.19,-451.88 356.47,-442.19 349.49,-441.63"/>
</g>
<!-- Node7 -->
<g id="node7" class="node">
<title>Node7</title>
<g id="a_node7"><a xlink:href="classbool.html" target="_top" xlink:title=" ">
<polygon fill="white" stroke="#bfbfbf" points="422,-452 422,-509 460,-509 460,-452 422,-452"/>
<text text-anchor="middle" x="441" y="-497" font-family="Helvetica,sans-Serif" font-size="10.00">bool</text>
<polyline fill="none" stroke="#bfbfbf" points="422,-490 460,-490 "/>
<text text-anchor="middle" x="441" y="-478" font-family="Helvetica,sans-Serif" font-size="10.00"> </text>
<polyline fill="none" stroke="#bfbfbf" points="422,-471 460,-471 "/>
<text text-anchor="middle" x="441" y="-459" font-family="Helvetica,sans-Serif" font-size="10.00"> </text>
</a>
</g>
</g>
<!-- Node7&#45;&gt;Node2 -->
<g id="edge6" class="edge">
<title>Node7&#45;&gt;Node2</title>
<path fill="none" stroke="#404040" d="M430.33,-451.75C425.73,-441.36 419.83,-429.71 413,-420 406.49,-410.74 399.92,-412.19 395,-402 386.75,-384.92 381.36,-346.38 377.89,-307.65"/>
<polygon fill="none" stroke="#404040" points="377.89,-307.6 373.4,-301.96 376.88,-295.64 381.37,-301.28 377.89,-307.6"/>
<text text-anchor="middle" x="433" y="-361" font-family="Helvetica,sans-Serif" font-size="10.00"> +is_hypercube</text>
<text text-anchor="middle" x="433" y="-350" font-family="Helvetica,sans-Serif" font-size="10.00">+is_simplex</text>
</g>
<!-- Node8 -->
<g id="node8" class="node">
<title>Node8</title>
<g id="a_node8"><a xlink:href="classint.html" target="_top" xlink:title=" ">
<polygon fill="white" stroke="#bfbfbf" points="478.5,-452 478.5,-509 507.5,-509 507.5,-452 478.5,-452"/>
<text text-anchor="middle" x="493" y="-497" font-family="Helvetica,sans-Serif" font-size="10.00">int</text>
<polyline fill="none" stroke="#bfbfbf" points="478.5,-490 507.5,-490 "/>
<text text-anchor="middle" x="493" y="-478" font-family="Helvetica,sans-Serif" font-size="10.00"> </text>
<polyline fill="none" stroke="#bfbfbf" points="478.5,-471 507.5,-471 "/>
<text text-anchor="middle" x="493" y="-459" font-family="Helvetica,sans-Serif" font-size="10.00"> </text>
</a>
</g>
</g>
<!-- Node8&#45;&gt;Node2 -->
<g id="edge8" class="edge">
<title>Node8&#45;&gt;Node2</title>
<path fill="none" stroke="#404040" d="M494.14,-451.79C494.48,-417.79 491.57,-359.09 471,-314 465.6,-302.16 458.51,-290.66 450.61,-279.82"/>
<polygon fill="none" stroke="#404040" points="450.44,-279.6 443.62,-277.26 443.15,-270.06 449.97,-272.4 450.44,-279.6"/>
<text text-anchor="middle" x="548.5" y="-394" font-family="Helvetica,sans-Serif" font-size="10.00"> +Shape</text>
<text text-anchor="middle" x="548.5" y="-383" font-family="Helvetica,sans-Serif" font-size="10.00">+numEdges</text>
<text text-anchor="middle" x="548.5" y="-372" font-family="Helvetica,sans-Serif" font-size="10.00">+numFaces</text>
<text text-anchor="middle" x="548.5" y="-361" font-family="Helvetica,sans-Serif" font-size="10.00">+numGeometricFaces</text>
<text text-anchor="middle" x="548.5" y="-350" font-family="Helvetica,sans-Serif" font-size="10.00">+numTopologicalFaces</text>
<text text-anchor="middle" x="548.5" y="-339" font-family="Helvetica,sans-Serif" font-size="10.00">+numVertices</text>
<text text-anchor="middle" x="548.5" y="-328" font-family="Helvetica,sans-Serif" font-size="10.00">+numVolumes</text>
<text text-anchor="middle" x="548.5" y="-317" font-family="Helvetica,sans-Serif" font-size="10.00">+shape_v</text>
</g>
<!-- Node9 -->
<g id="node9" class="node">
<title>Node9</title>
<g id="a_node9"><a xlink:href="classsize__t.html" target="_top" xlink:title=" ">
<polygon fill="white" stroke="#bfbfbf" points="606.5,-452 606.5,-509 651.5,-509 651.5,-452 606.5,-452"/>
<text text-anchor="middle" x="629" y="-497" font-family="Helvetica,sans-Serif" font-size="10.00">size_t</text>
<polyline fill="none" stroke="#bfbfbf" points="606.5,-490 651.5,-490 "/>
<text text-anchor="middle" x="629" y="-478" font-family="Helvetica,sans-Serif" font-size="10.00"> </text>
<polyline fill="none" stroke="#bfbfbf" points="606.5,-471 651.5,-471 "/>
<text text-anchor="middle" x="629" y="-459" font-family="Helvetica,sans-Serif" font-size="10.00"> </text>
</a>
</g>
</g>
<!-- Node9&#45;&gt;Node2 -->
<g id="edge9" class="edge">
<title>Node9&#45;&gt;Node2</title>
<path fill="none" stroke="#404040" d="M632.81,-451.99C636.18,-416.58 636.68,-354.78 607,-314 570.84,-264.31 506.8,-235.81 454.7,-220.01"/>
<polygon fill="none" stroke="#404040" points="454.62,-219.99 447.74,-222.15 443.1,-216.64 449.97,-214.47 454.62,-219.99"/>
<text text-anchor="middle" x="663.5" y="-355.5" font-family="Helvetica,sans-Serif" font-size="10.00"> +Geometry</text>
</g>
</g>
</svg>
