<?xml version="1.0" encoding="UTF-8" standalone="no"?>
<!DOCTYPE svg PUBLIC "-//W3C//DTD SVG 1.1//EN"
 "http://www.w3.org/Graphics/SVG/1.1/DTD/svg11.dtd">
<!-- Generated by graphviz version 2.43.0 (0)
 -->
<!-- Title: Feel::is_tetrahedron&lt; T &gt; Pages: 1 -->
<svg width="150pt" height="171pt"
 viewBox="0.00 0.00 150.00 171.00" xmlns="http://www.w3.org/2000/svg" xmlns:xlink="http://www.w3.org/1999/xlink">
<g id="graph0" class="graph" transform="scale(1 1) rotate(0) translate(4 167)">
<title>Feel::is_tetrahedron&lt; T &gt;</title>
<polygon fill="white" stroke="transparent" points="-4,4 -4,-167 146,-167 146,4 -4,4"/>
<!-- Node1 -->
<g id="node1" class="node">
<title>Node1</title>
<g id="a_node1"><a xlink:title=" ">
<polygon fill="#bfbfbf" stroke="black" points="0,-0.5 0,-57.5 142,-57.5 142,-0.5 0,-0.5"/>
<text text-anchor="middle" x="71" y="-45.5" font-family="Helvetica,sans-Serif" font-size="10.00">Feel::is_tetrahedron&lt; T &gt;</text>
<polyline fill="none" stroke="black" points="0,-38.5 142,-38.5 "/>
<text text-anchor="middle" x="71" y="-26.5" font-family="Helvetica,sans-Serif" font-size="10.00"> </text>
<polyline fill="none" stroke="black" points="0,-19.5 142,-19.5 "/>
<text text-anchor="middle" x="71" y="-7.5" font-family="Helvetica,sans-Serif" font-size="10.00"> </text>
</a>
</g>
</g>
<!-- Node2 -->
<g id="node2" class="node">
<title>Node2</title>
<g id="a_node2"><a xlink:href="classboost_1_1mpl_1_1and__.html" target="_top" xlink:title=" ">
<polygon fill="white" stroke="black" points="7,-94.5 7,-162.5 135,-162.5 135,-94.5 7,-94.5"/>
<text text-anchor="start" x="15" y="-150.5" font-family="Helvetica,sans-Serif" font-size="10.00">mpl::and_&lt; is_simplex</text>
<text text-anchor="middle" x="71" y="-139.5" font-family="Helvetica,sans-Serif" font-size="10.00">&lt; T &gt;, is_3d&lt; T &gt; &gt;</text>
<polyline fill="none" stroke="black" points="7,-132.5 135,-132.5 "/>
<text text-anchor="middle" x="71" y="-120.5" font-family="Helvetica,sans-Serif" font-size="10.00"> </text>
<polyline fill="none" stroke="black" points="7,-113.5 135,-113.5 "/>
<text text-anchor="middle" x="71" y="-101.5" font-family="Helvetica,sans-Serif" font-size="10.00"> </text>
</a>
</g>
</g>
<!-- Node2&#45;&gt;Node1 -->
<g id="edge1" class="edge">
<title>Node2&#45;&gt;Node1</title>
<path fill="none" stroke="midnightblue" d="M71,-84.45C71,-75.4 71,-66.09 71,-57.78"/>
<polygon fill="none" stroke="midnightblue" points="67.5,-84.49 71,-94.49 74.5,-84.49 67.5,-84.49"/>
</g>
</g>
</svg>
