<?xml version="1.0" encoding="UTF-8" standalone="no"?>
<!DOCTYPE svg PUBLIC "-//W3C//DTD SVG 1.1//EN"
 "http://www.w3.org/Graphics/SVG/1.1/DTD/svg11.dtd">
<!-- Generated by graphviz version 2.43.0 (0)
 -->
<!-- Title: pybind11::detail::type_caster&lt; nl::json &gt; Pages: 1 -->
<!--zoomable 1708 -->
<svg id="main" version="1.1" xmlns="http://www.w3.org/2000/svg" xmlns:xlink="http://www.w3.org/1999/xlink" xml:space="preserve" onload="init(evt)">
<style type="text/css"><![CDATA[
.edge:hover path { stroke: red; }
.edge:hover polygon { stroke: red; fill: red; }
]]></style>
<script type="text/javascript"><![CDATA[
var edges = document.getElementsByTagName('g');
if (edges && edges.length) {
  for (var i=0;i<edges.length;i++) {
    if (edges[i].id.substr(0,4)=='edge') {
      edges[i].setAttribute('class','edge');
    }
  }
}
]]></script>
        <defs>
                <circle id="rim" cx="0" cy="0" r="7"/>
                <circle id="rim2" cx="0" cy="0" r="3.5"/>
                <g id="zoomPlus">
                        <use xlink:href="#rim" fill="#404040">
                                <set attributeName="fill" to="#808080" begin="zoomplus.mouseover" end="zoomplus.mouseout"/>
                        </use>
                        <path d="M-4,0h8M0,-4v8" fill="none" stroke="white" stroke-width="1.5" pointer-events="none"/>
                </g>
                <g id="zoomMin">
                        <use xlink:href="#rim" fill="#404040">
                                <set attributeName="fill" to="#808080" begin="zoomminus.mouseover" end="zoomminus.mouseout"/>
                        </use>
                        <path d="M-4,0h8" fill="none" stroke="white" stroke-width="1.5" pointer-events="none"/>
                </g>
                <g id="dirArrow">
                        <path fill="none" stroke="white" stroke-width="1.5" d="M0,-3.0v7 M-2.5,-0.5L0,-3.0L2.5,-0.5"/>
                </g>
               <g id="resetDef">
                       <use xlink:href="#rim2" fill="#404040">
                               <set attributeName="fill" to="#808080" begin="reset.mouseover" end="reset.mouseout"/>
                       </use>
               </g>
        </defs>

<script type="text/javascript">
var viewWidth = 938;
var viewHeight = 1708;
var sectionId = 'dynsection-0';
</script>
<script xlink:href="svgpan.js"/>
<svg id="graph" class="graph">
<g id="viewport">
<title>pybind11::detail::type_caster&lt; nl::json &gt;</title>
<polygon fill="white" stroke="transparent" points="-4,4 -4,-1704 933.5,-1704 933.5,4 -4,4"/>
<!-- Node1 -->
<g id="node1" class="node">
<title>Node1</title>
<g id="a_node1"><a xlink:title=" ">
<polygon fill="#bfbfbf" stroke="black" points="269.5,-0.5 269.5,-123.5 402.5,-123.5 402.5,-0.5 269.5,-0.5"/>
<text text-anchor="start" x="277.5" y="-111.5" font-family="Helvetica,sans-Serif" font-size="10.00">pybind11::detail::type</text>
<text text-anchor="middle" x="336" y="-100.5" font-family="Helvetica,sans-Serif" font-size="10.00">_caster&lt; nl::json &gt;</text>
<polyline fill="none" stroke="black" points="269.5,-93.5 402.5,-93.5 "/>
<text text-anchor="middle" x="336" y="-81.5" font-family="Helvetica,sans-Serif" font-size="10.00"> </text>
<polyline fill="none" stroke="black" points="269.5,-74.5 402.5,-74.5 "/>
<text text-anchor="start" x="277.5" y="-62.5" font-family="Helvetica,sans-Serif" font-size="10.00">+ load()</text>
<text text-anchor="start" x="277.5" y="-51.5" font-family="Helvetica,sans-Serif" font-size="10.00">+ operator nl::json &amp;()</text>
<text text-anchor="start" x="277.5" y="-40.5" font-family="Helvetica,sans-Serif" font-size="10.00">+ operator nl::json &amp;&amp;()</text>
<text text-anchor="start" x="277.5" y="-29.5" font-family="Helvetica,sans-Serif" font-size="10.00">+ operator nl::json *()</text>
<text text-anchor="start" x="277.5" y="-18.5" font-family="Helvetica,sans-Serif" font-size="10.00">+ cast()</text>
<text text-anchor="start" x="277.5" y="-7.5" font-family="Helvetica,sans-Serif" font-size="10.00">+ cast()</text>
</a>
</g>
</g>
<!-- Node2 -->
<g id="node2" class="node">
<title>Node2</title>
<g id="a_node2"><a xlink:href="classnlohmann_1_1basic__json.html" target="_top" xlink:title="a class to store JSON values">
<polygon fill="white" stroke="black" points="142,-171.5 142,-1108.5 348,-1108.5 348,-171.5 142,-171.5"/>
<text text-anchor="start" x="150" y="-1096.5" font-family="Helvetica,sans-Serif" font-size="10.00">nlohmann::basic_json</text>
<text text-anchor="start" x="150" y="-1085.5" font-family="Helvetica,sans-Serif" font-size="10.00">&lt; ObjectType, ArrayType,</text>
<text text-anchor="start" x="150" y="-1074.5" font-family="Helvetica,sans-Serif" font-size="10.00"> StringType, BooleanType,</text>
<text text-anchor="start" x="150" y="-1063.5" font-family="Helvetica,sans-Serif" font-size="10.00"> NumberIntegerType, NumberUnsigned</text>
<text text-anchor="start" x="150" y="-1052.5" font-family="Helvetica,sans-Serif" font-size="10.00">Type, NumberFloatType, AllocatorType,</text>
<text text-anchor="middle" x="245" y="-1041.5" font-family="Helvetica,sans-Serif" font-size="10.00"> JSONSerializer, BinaryType &gt;</text>
<polyline fill="none" stroke="black" points="142,-1034.5 348,-1034.5 "/>
<text text-anchor="middle" x="245" y="-1022.5" font-family="Helvetica,sans-Serif" font-size="10.00"> </text>
<polyline fill="none" stroke="black" points="142,-1015.5 348,-1015.5 "/>
<text text-anchor="start" x="150" y="-1003.5" font-family="Helvetica,sans-Serif" font-size="10.00">+ __attribute__()</text>
<text text-anchor="start" x="150" y="-992.5" font-family="Helvetica,sans-Serif" font-size="10.00">+ get_allocator()</text>
<text text-anchor="start" x="150" y="-981.5" font-family="Helvetica,sans-Serif" font-size="10.00">+ get_ref_impl()</text>
<text text-anchor="start" x="150" y="-970.5" font-family="Helvetica,sans-Serif" font-size="10.00">* exception</text>
<text text-anchor="start" x="150" y="-959.5" font-family="Helvetica,sans-Serif" font-size="10.00">* parse_error</text>
<text text-anchor="start" x="150" y="-948.5" font-family="Helvetica,sans-Serif" font-size="10.00">* invalid_iterator</text>
<text text-anchor="start" x="150" y="-937.5" font-family="Helvetica,sans-Serif" font-size="10.00">* type_error</text>
<text text-anchor="start" x="150" y="-926.5" font-family="Helvetica,sans-Serif" font-size="10.00">* out_of_range</text>
<text text-anchor="start" x="150" y="-915.5" font-family="Helvetica,sans-Serif" font-size="10.00">* other_error</text>
<text text-anchor="start" x="150" y="-904.5" font-family="Helvetica,sans-Serif" font-size="10.00">* value_type</text>
<text text-anchor="start" x="150" y="-893.5" font-family="Helvetica,sans-Serif" font-size="10.00">* reference</text>
<text text-anchor="start" x="150" y="-882.5" font-family="Helvetica,sans-Serif" font-size="10.00">* const_reference</text>
<text text-anchor="start" x="150" y="-871.5" font-family="Helvetica,sans-Serif" font-size="10.00">* difference_type</text>
<text text-anchor="start" x="150" y="-860.5" font-family="Helvetica,sans-Serif" font-size="10.00">* size_type</text>
<text text-anchor="start" x="150" y="-849.5" font-family="Helvetica,sans-Serif" font-size="10.00">and 7 more...</text>
<text text-anchor="start" x="150" y="-838.5" font-family="Helvetica,sans-Serif" font-size="10.00">* object_comparator_t</text>
<text text-anchor="start" x="150" y="-827.5" font-family="Helvetica,sans-Serif" font-size="10.00">* object_t</text>
<text text-anchor="start" x="150" y="-816.5" font-family="Helvetica,sans-Serif" font-size="10.00">* array_t</text>
<text text-anchor="start" x="150" y="-805.5" font-family="Helvetica,sans-Serif" font-size="10.00">* string_t</text>
<text text-anchor="start" x="150" y="-794.5" font-family="Helvetica,sans-Serif" font-size="10.00">* boolean_t</text>
<text text-anchor="start" x="150" y="-783.5" font-family="Helvetica,sans-Serif" font-size="10.00">and 4 more...</text>
<text text-anchor="start" x="150" y="-772.5" font-family="Helvetica,sans-Serif" font-size="10.00">* swap</text>
<text text-anchor="start" x="150" y="-761.5" font-family="Helvetica,sans-Serif" font-size="10.00">* clear()</text>
<text text-anchor="start" x="150" y="-750.5" font-family="Helvetica,sans-Serif" font-size="10.00">* push_back()</text>
<text text-anchor="start" x="150" y="-739.5" font-family="Helvetica,sans-Serif" font-size="10.00">* operator+=()</text>
<text text-anchor="start" x="150" y="-728.5" font-family="Helvetica,sans-Serif" font-size="10.00">* push_back()</text>
<text text-anchor="start" x="150" y="-717.5" font-family="Helvetica,sans-Serif" font-size="10.00">and 22 more...</text>
<text text-anchor="start" x="150" y="-706.5" font-family="Helvetica,sans-Serif" font-size="10.00">* operator==</text>
<text text-anchor="start" x="150" y="-695.5" font-family="Helvetica,sans-Serif" font-size="10.00">* operator==</text>
<text text-anchor="start" x="150" y="-684.5" font-family="Helvetica,sans-Serif" font-size="10.00">* operator==</text>
<text text-anchor="start" x="150" y="-673.5" font-family="Helvetica,sans-Serif" font-size="10.00">* operator!=</text>
<text text-anchor="start" x="150" y="-662.5" font-family="Helvetica,sans-Serif" font-size="10.00">* operator!=</text>
<text text-anchor="start" x="150" y="-651.5" font-family="Helvetica,sans-Serif" font-size="10.00">and 13 more...</text>
<text text-anchor="start" x="150" y="-640.5" font-family="Helvetica,sans-Serif" font-size="10.00">* operator&lt;&lt;</text>
<text text-anchor="start" x="150" y="-629.5" font-family="Helvetica,sans-Serif" font-size="10.00">* __attribute__()</text>
<text text-anchor="start" x="150" y="-618.5" font-family="Helvetica,sans-Serif" font-size="10.00">* at()</text>
<text text-anchor="start" x="150" y="-607.5" font-family="Helvetica,sans-Serif" font-size="10.00">* at()</text>
<text text-anchor="start" x="150" y="-596.5" font-family="Helvetica,sans-Serif" font-size="10.00">* at()</text>
<text text-anchor="start" x="150" y="-585.5" font-family="Helvetica,sans-Serif" font-size="10.00">* at()</text>
<text text-anchor="start" x="150" y="-574.5" font-family="Helvetica,sans-Serif" font-size="10.00">* operator[]()</text>
<text text-anchor="start" x="150" y="-563.5" font-family="Helvetica,sans-Serif" font-size="10.00">and 17 more...</text>
<text text-anchor="start" x="150" y="-552.5" font-family="Helvetica,sans-Serif" font-size="10.00">* __attribute__()</text>
<text text-anchor="start" x="150" y="-541.5" font-family="Helvetica,sans-Serif" font-size="10.00">* __attribute__()</text>
<text text-anchor="start" x="150" y="-530.5" font-family="Helvetica,sans-Serif" font-size="10.00">* __attribute__()</text>
<text text-anchor="start" x="150" y="-519.5" font-family="Helvetica,sans-Serif" font-size="10.00">* to_cbor()</text>
<text text-anchor="start" x="150" y="-508.5" font-family="Helvetica,sans-Serif" font-size="10.00">* to_cbor()</text>
<text text-anchor="start" x="150" y="-497.5" font-family="Helvetica,sans-Serif" font-size="10.00">* to_cbor()</text>
<text text-anchor="start" x="150" y="-486.5" font-family="Helvetica,sans-Serif" font-size="10.00">* to_msgpack()</text>
<text text-anchor="start" x="150" y="-475.5" font-family="Helvetica,sans-Serif" font-size="10.00">* to_msgpack()</text>
<text text-anchor="start" x="150" y="-464.5" font-family="Helvetica,sans-Serif" font-size="10.00">and 8 more...</text>
<text text-anchor="start" x="150" y="-453.5" font-family="Helvetica,sans-Serif" font-size="10.00">* get_impl()</text>
<text text-anchor="start" x="150" y="-442.5" font-family="Helvetica,sans-Serif" font-size="10.00">* get_impl()</text>
<text text-anchor="start" x="150" y="-431.5" font-family="Helvetica,sans-Serif" font-size="10.00">* get_impl()</text>
<text text-anchor="start" x="150" y="-420.5" font-family="Helvetica,sans-Serif" font-size="10.00">* get_impl()</text>
<text text-anchor="start" x="150" y="-409.5" font-family="Helvetica,sans-Serif" font-size="10.00">* get_impl()</text>
<text text-anchor="start" x="150" y="-398.5" font-family="Helvetica,sans-Serif" font-size="10.00">and 12 more...</text>
<text text-anchor="start" x="150" y="-387.5" font-family="Helvetica,sans-Serif" font-size="10.00">* basic_json()</text>
<text text-anchor="start" x="150" y="-376.5" font-family="Helvetica,sans-Serif" font-size="10.00">* basic_json()</text>
<text text-anchor="start" x="150" y="-365.5" font-family="Helvetica,sans-Serif" font-size="10.00">* basic_json()</text>
<text text-anchor="start" x="150" y="-354.5" font-family="Helvetica,sans-Serif" font-size="10.00">* basic_json()</text>
<text text-anchor="start" x="150" y="-343.5" font-family="Helvetica,sans-Serif" font-size="10.00">* basic_json()</text>
<text text-anchor="start" x="150" y="-332.5" font-family="Helvetica,sans-Serif" font-size="10.00">and 5 more...</text>
<text text-anchor="start" x="150" y="-321.5" font-family="Helvetica,sans-Serif" font-size="10.00">* find()</text>
<text text-anchor="start" x="150" y="-310.5" font-family="Helvetica,sans-Serif" font-size="10.00">* find()</text>
<text text-anchor="start" x="150" y="-299.5" font-family="Helvetica,sans-Serif" font-size="10.00">* count()</text>
<text text-anchor="start" x="150" y="-288.5" font-family="Helvetica,sans-Serif" font-size="10.00">* contains()</text>
<text text-anchor="start" x="150" y="-277.5" font-family="Helvetica,sans-Serif" font-size="10.00">* contains()</text>
<text text-anchor="start" x="150" y="-266.5" font-family="Helvetica,sans-Serif" font-size="10.00">* begin()</text>
<text text-anchor="start" x="150" y="-255.5" font-family="Helvetica,sans-Serif" font-size="10.00">* begin()</text>
<text text-anchor="start" x="150" y="-244.5" font-family="Helvetica,sans-Serif" font-size="10.00">* cbegin()</text>
<text text-anchor="start" x="150" y="-233.5" font-family="Helvetica,sans-Serif" font-size="10.00">* end()</text>
<text text-anchor="start" x="150" y="-222.5" font-family="Helvetica,sans-Serif" font-size="10.00">* end()</text>
<text text-anchor="start" x="150" y="-211.5" font-family="Helvetica,sans-Serif" font-size="10.00">and 11 more...</text>
<text text-anchor="start" x="150" y="-200.5" font-family="Helvetica,sans-Serif" font-size="10.00">* empty()</text>
<text text-anchor="start" x="150" y="-189.5" font-family="Helvetica,sans-Serif" font-size="10.00">* size()</text>
<text text-anchor="start" x="150" y="-178.5" font-family="Helvetica,sans-Serif" font-size="10.00">* max_size()</text>
</a>
</g>
</g>
<!-- Node2&#45;&gt;Node1 -->
<g id="edge1" class="edge">
<title>Node2&#45;&gt;Node1</title>
<path fill="none" stroke="#404040" d="M303.6,-171.29C305.67,-161.43 307.8,-151.65 310,-142 310.48,-139.88 311,-137.73 311.55,-135.56"/>
<polygon fill="none" stroke="#404040" points="311.56,-135.51 309.27,-128.67 314.69,-123.92 316.99,-130.76 311.56,-135.51"/>
<text text-anchor="middle" x="329.5" y="-145" font-family="Helvetica,sans-Serif" font-size="10.00"> #value</text>
</g>
<!-- Node3 -->
<g id="node3" class="node">
<title>Node3</title>
<g id="a_node3"><a xlink:title=" ">
<polygon fill="white" stroke="#bfbfbf" points="0,-1261 0,-1329 110,-1329 110,-1261 0,-1261"/>
<text text-anchor="start" x="8" y="-1317" font-family="Helvetica,sans-Serif" font-size="10.00">const char *default</text>
<text text-anchor="middle" x="55" y="-1306" font-family="Helvetica,sans-Serif" font-size="10.00">_value</text>
<polyline fill="none" stroke="#bfbfbf" points="0,-1299 110,-1299 "/>
<text text-anchor="middle" x="55" y="-1287" font-family="Helvetica,sans-Serif" font-size="10.00"> </text>
<polyline fill="none" stroke="#bfbfbf" points="0,-1280 110,-1280 "/>
<text text-anchor="middle" x="55" y="-1268" font-family="Helvetica,sans-Serif" font-size="10.00"> </text>
</a>
</g>
</g>
<!-- Node3&#45;&gt;Node2 -->
<g id="edge2" class="edge">
<title>Node3&#45;&gt;Node2</title>
<path fill="none" stroke="#404040" d="M64.68,-1260.72C79.17,-1210.93 108.06,-1111.64 138.55,-1006.87"/>
<polygon fill="none" stroke="#404040" points="138.63,-1006.59 136.46,-999.71 141.98,-995.06 144.14,-1001.94 138.63,-1006.59"/>
<text text-anchor="middle" x="120" y="-1157.5" font-family="Helvetica,sans-Serif" font-size="10.00"> +const</text>
</g>
<!-- Node4 -->
<g id="node4" class="node">
<title>Node4</title>
<g id="a_node4"><a xlink:title=" ">
<polygon fill="white" stroke="#bfbfbf" points="128.5,-1266.5 128.5,-1323.5 259.5,-1323.5 259.5,-1266.5 128.5,-1266.5"/>
<text text-anchor="middle" x="194" y="-1311.5" font-family="Helvetica,sans-Serif" font-size="10.00">const parser_callback_t</text>
<polyline fill="none" stroke="#bfbfbf" points="128.5,-1304.5 259.5,-1304.5 "/>
<text text-anchor="middle" x="194" y="-1292.5" font-family="Helvetica,sans-Serif" font-size="10.00"> </text>
<polyline fill="none" stroke="#bfbfbf" points="128.5,-1285.5 259.5,-1285.5 "/>
<text text-anchor="middle" x="194" y="-1273.5" font-family="Helvetica,sans-Serif" font-size="10.00"> </text>
</a>
</g>
</g>
<!-- Node4&#45;&gt;Node2 -->
<g id="edge3" class="edge">
<title>Node4&#45;&gt;Node2</title>
<path fill="none" stroke="#404040" d="M196.16,-1266.36C198.53,-1236.03 202.65,-1183.26 207.53,-1120.81"/>
<polygon fill="none" stroke="#404040" points="207.54,-1120.58 204.02,-1114.28 208.48,-1108.61 212,-1114.91 207.54,-1120.58"/>
<text text-anchor="middle" x="218.5" y="-1157.5" font-family="Helvetica,sans-Serif" font-size="10.00"> +cb</text>
</g>
<!-- Node5 -->
<g id="node5" class="node">
<title>Node5</title>
<g id="a_node5"><a xlink:href="classbool.html" target="_top" xlink:title=" ">
<polygon fill="white" stroke="#bfbfbf" points="278,-1266.5 278,-1323.5 316,-1323.5 316,-1266.5 278,-1266.5"/>
<text text-anchor="middle" x="297" y="-1311.5" font-family="Helvetica,sans-Serif" font-size="10.00">bool</text>
<polyline fill="none" stroke="#bfbfbf" points="278,-1304.5 316,-1304.5 "/>
<text text-anchor="middle" x="297" y="-1292.5" font-family="Helvetica,sans-Serif" font-size="10.00"> </text>
<polyline fill="none" stroke="#bfbfbf" points="278,-1285.5 316,-1285.5 "/>
<text text-anchor="middle" x="297" y="-1273.5" font-family="Helvetica,sans-Serif" font-size="10.00"> </text>
</a>
</g>
</g>
<!-- Node5&#45;&gt;Node2 -->
<g id="edge4" class="edge">
<title>Node5&#45;&gt;Node2</title>
<path fill="none" stroke="#404040" d="M294.8,-1266.36C292.38,-1236.03 288.18,-1183.26 283.21,-1120.81"/>
<polygon fill="none" stroke="#404040" points="283.19,-1120.58 278.73,-1114.91 282.24,-1108.61 286.7,-1114.28 283.19,-1120.58"/>
<text text-anchor="middle" x="337.5" y="-1185" font-family="Helvetica,sans-Serif" font-size="10.00"> +allow_exceptions</text>
<text text-anchor="middle" x="337.5" y="-1174" font-family="Helvetica,sans-Serif" font-size="10.00">+format</text>
<text text-anchor="middle" x="337.5" y="-1163" font-family="Helvetica,sans-Serif" font-size="10.00">+ignore_comments</text>
<text text-anchor="middle" x="337.5" y="-1152" font-family="Helvetica,sans-Serif" font-size="10.00">+last</text>
<text text-anchor="middle" x="337.5" y="-1141" font-family="Helvetica,sans-Serif" font-size="10.00">+sax</text>
<text text-anchor="middle" x="337.5" y="-1130" font-family="Helvetica,sans-Serif" font-size="10.00">+strict</text>
</g>
<!-- Node6 -->
<g id="node6" class="node">
<title>Node6</title>
<g id="a_node6"><a xlink:title=" ">
<polygon fill="white" stroke="black" points="334.5,-1211.5 334.5,-1378.5 553.5,-1378.5 553.5,-1211.5 334.5,-1211.5"/>
<text text-anchor="start" x="342.5" y="-1366.5" font-family="Helvetica,sans-Serif" font-size="10.00">nlohmann::basic_json</text>
<text text-anchor="start" x="342.5" y="-1355.5" font-family="Helvetica,sans-Serif" font-size="10.00">&lt; ObjectType, ArrayType,</text>
<text text-anchor="start" x="342.5" y="-1344.5" font-family="Helvetica,sans-Serif" font-size="10.00"> StringType, BooleanType,</text>
<text text-anchor="start" x="342.5" y="-1333.5" font-family="Helvetica,sans-Serif" font-size="10.00"> NumberIntegerType, NumberUnsigned</text>
<text text-anchor="start" x="342.5" y="-1322.5" font-family="Helvetica,sans-Serif" font-size="10.00">Type, NumberFloatType, AllocatorType,</text>
<text text-anchor="middle" x="444" y="-1311.5" font-family="Helvetica,sans-Serif" font-size="10.00"> JSONSerializer, BinaryType &gt;::json_value</text>
<polyline fill="none" stroke="black" points="334.5,-1304.5 553.5,-1304.5 "/>
<text text-anchor="middle" x="444" y="-1292.5" font-family="Helvetica,sans-Serif" font-size="10.00"> </text>
<polyline fill="none" stroke="black" points="334.5,-1285.5 553.5,-1285.5 "/>
<text text-anchor="start" x="342.5" y="-1273.5" font-family="Helvetica,sans-Serif" font-size="10.00">+ destroy()</text>
<text text-anchor="start" x="342.5" y="-1262.5" font-family="Helvetica,sans-Serif" font-size="10.00">+ json_value()</text>
<text text-anchor="start" x="342.5" y="-1251.5" font-family="Helvetica,sans-Serif" font-size="10.00">+ json_value()</text>
<text text-anchor="start" x="342.5" y="-1240.5" font-family="Helvetica,sans-Serif" font-size="10.00">+ json_value()</text>
<text text-anchor="start" x="342.5" y="-1229.5" font-family="Helvetica,sans-Serif" font-size="10.00">+ json_value()</text>
<text text-anchor="start" x="342.5" y="-1218.5" font-family="Helvetica,sans-Serif" font-size="10.00">and 12 more...</text>
</a>
</g>
</g>
<!-- Node6&#45;&gt;Node2 -->
<g id="edge5" class="edge">
<title>Node6&#45;&gt;Node2</title>
<path fill="none" stroke="#404040" d="M430.42,-1211.39C422.44,-1182.3 409.83,-1150.93 390,-1127 379.34,-1114.14 367.15,-1122.27 357,-1109 356.43,-1108.25 355.86,-1107.5 355.3,-1106.75"/>
<polygon fill="none" stroke="#404040" points="355.16,-1106.56 348.39,-1104.06 348.1,-1096.85 354.87,-1099.36 355.16,-1106.56"/>
<text text-anchor="middle" x="450" y="-1157.5" font-family="Helvetica,sans-Serif" font-size="10.00"> +m_value</text>
</g>
<!-- Node7 -->
<g id="node7" class="node">
<title>Node7</title>
<g id="a_node7"><a xlink:title=" ">
<polygon fill="white" stroke="#bfbfbf" points="33,-1487 33,-1544 97,-1544 97,-1487 33,-1487"/>
<text text-anchor="middle" x="65" y="-1532" font-family="Helvetica,sans-Serif" font-size="10.00">object_t *</text>
<polyline fill="none" stroke="#bfbfbf" points="33,-1525 97,-1525 "/>
<text text-anchor="middle" x="65" y="-1513" font-family="Helvetica,sans-Serif" font-size="10.00"> </text>
<polyline fill="none" stroke="#bfbfbf" points="33,-1506 97,-1506 "/>
<text text-anchor="middle" x="65" y="-1494" font-family="Helvetica,sans-Serif" font-size="10.00"> </text>
</a>
</g>
</g>
<!-- Node7&#45;&gt;Node6 -->
<g id="edge6" class="edge">
<title>Node7&#45;&gt;Node6</title>
<path fill="none" stroke="#404040" d="M72.49,-1486.97C78.83,-1467.94 89.55,-1443.07 106,-1426 172.45,-1357.05 227.49,-1409.7 322.67,-1379.28"/>
<polygon fill="none" stroke="#404040" points="322.84,-1379.22 327.19,-1373.47 334.17,-1375.26 329.83,-1381.02 322.84,-1379.22"/>
<text text-anchor="middle" x="164" y="-1400" font-family="Helvetica,sans-Serif" font-size="10.00"> +object</text>
</g>
<!-- Node8 -->
<g id="node8" class="node">
<title>Node8</title>
<g id="a_node8"><a xlink:title=" ">
<polygon fill="white" stroke="#bfbfbf" points="115.5,-1487 115.5,-1544 174.5,-1544 174.5,-1487 115.5,-1487"/>
<text text-anchor="middle" x="145" y="-1532" font-family="Helvetica,sans-Serif" font-size="10.00">array_t *</text>
<polyline fill="none" stroke="#bfbfbf" points="115.5,-1525 174.5,-1525 "/>
<text text-anchor="middle" x="145" y="-1513" font-family="Helvetica,sans-Serif" font-size="10.00"> </text>
<polyline fill="none" stroke="#bfbfbf" points="115.5,-1506 174.5,-1506 "/>
<text text-anchor="middle" x="145" y="-1494" font-family="Helvetica,sans-Serif" font-size="10.00"> </text>
</a>
</g>
</g>
<!-- Node8&#45;&gt;Node6 -->
<g id="edge7" class="edge">
<title>Node8&#45;&gt;Node6</title>
<path fill="none" stroke="#404040" d="M151.55,-1486.72C157.31,-1467.57 167.42,-1442.66 184,-1426 228.05,-1381.74 260.94,-1403.27 323.2,-1379.24"/>
<polygon fill="none" stroke="#404040" points="323.24,-1379.23 327.23,-1373.22 334.31,-1374.59 330.32,-1380.6 323.24,-1379.23"/>
<text text-anchor="middle" x="255.5" y="-1400" font-family="Helvetica,sans-Serif" font-size="10.00"> +array</text>
</g>
<!-- Node9 -->
<g id="node9" class="node">
<title>Node9</title>
<g id="a_node9"><a xlink:title=" ">
<polygon fill="white" stroke="#bfbfbf" points="193,-1487 193,-1544 255,-1544 255,-1487 193,-1487"/>
<text text-anchor="middle" x="224" y="-1532" font-family="Helvetica,sans-Serif" font-size="10.00">string_t *</text>
<polyline fill="none" stroke="#bfbfbf" points="193,-1525 255,-1525 "/>
<text text-anchor="middle" x="224" y="-1513" font-family="Helvetica,sans-Serif" font-size="10.00"> </text>
<polyline fill="none" stroke="#bfbfbf" points="193,-1506 255,-1506 "/>
<text text-anchor="middle" x="224" y="-1494" font-family="Helvetica,sans-Serif" font-size="10.00"> </text>
</a>
</g>
</g>
<!-- Node9&#45;&gt;Node6 -->
<g id="edge8" class="edge">
<title>Node9&#45;&gt;Node6</title>
<path fill="none" stroke="#404040" d="M232.28,-1486.91C238.81,-1468.33 249.28,-1444.02 264,-1426 266.93,-1422.42 293,-1403.22 324.44,-1380.62"/>
<polygon fill="none" stroke="#404040" points="324.6,-1380.51 327.15,-1373.76 334.35,-1373.52 331.81,-1380.27 324.6,-1380.51"/>
<text text-anchor="middle" x="318" y="-1400" font-family="Helvetica,sans-Serif" font-size="10.00"> +string</text>
</g>
<!-- Node10 -->
<g id="node10" class="node">
<title>Node10</title>
<g id="a_node10"><a xlink:href="classnlohmann_1_1byte__container__with__subtype.html" target="_top" xlink:title="an internal type for a backed binary type">
<polygon fill="white" stroke="black" points="273,-1426.5 273,-1604.5 437,-1604.5 437,-1426.5 273,-1426.5"/>
<text text-anchor="start" x="281" y="-1592.5" font-family="Helvetica,sans-Serif" font-size="10.00">nlohmann::byte_container</text>
<text text-anchor="middle" x="355" y="-1581.5" font-family="Helvetica,sans-Serif" font-size="10.00">_with_subtype&lt; BinaryType &gt;</text>
<polyline fill="none" stroke="black" points="273,-1574.5 437,-1574.5 "/>
<text text-anchor="middle" x="355" y="-1562.5" font-family="Helvetica,sans-Serif" font-size="10.00"> </text>
<polyline fill="none" stroke="black" points="273,-1555.5 437,-1555.5 "/>
<text text-anchor="start" x="281" y="-1543.5" font-family="Helvetica,sans-Serif" font-size="10.00">+ byte_container_with</text>
<text text-anchor="start" x="281" y="-1532.5" font-family="Helvetica,sans-Serif" font-size="10.00">_subtype()</text>
<text text-anchor="start" x="281" y="-1521.5" font-family="Helvetica,sans-Serif" font-size="10.00">+ byte_container_with</text>
<text text-anchor="start" x="281" y="-1510.5" font-family="Helvetica,sans-Serif" font-size="10.00">_subtype()</text>
<text text-anchor="start" x="281" y="-1499.5" font-family="Helvetica,sans-Serif" font-size="10.00">+ byte_container_with</text>
<text text-anchor="start" x="281" y="-1488.5" font-family="Helvetica,sans-Serif" font-size="10.00">_subtype()</text>
<text text-anchor="start" x="281" y="-1477.5" font-family="Helvetica,sans-Serif" font-size="10.00">+ byte_container_with</text>
<text text-anchor="start" x="281" y="-1466.5" font-family="Helvetica,sans-Serif" font-size="10.00">_subtype()</text>
<text text-anchor="start" x="281" y="-1455.5" font-family="Helvetica,sans-Serif" font-size="10.00">+ byte_container_with</text>
<text text-anchor="start" x="281" y="-1444.5" font-family="Helvetica,sans-Serif" font-size="10.00">_subtype()</text>
<text text-anchor="start" x="281" y="-1433.5" font-family="Helvetica,sans-Serif" font-size="10.00">and 6 more...</text>
</a>
</g>
</g>
<!-- Node10&#45;&gt;Node6 -->
<g id="edge9" class="edge">
<title>Node10&#45;&gt;Node6</title>
<path fill="none" stroke="#404040" d="M390.94,-1426.26C395.81,-1414.32 400.81,-1402.03 405.71,-1390"/>
<polygon fill="none" stroke="#404040" points="405.84,-1389.67 404.4,-1382.61 410.37,-1378.56 411.81,-1385.63 405.84,-1389.67"/>
<text text-anchor="middle" x="423.5" y="-1400" font-family="Helvetica,sans-Serif" font-size="10.00"> +binary</text>
</g>
<!-- Node11 -->
<g id="node11" class="node">
<title>Node11</title>
<g id="a_node11"><a xlink:href="classBinaryType.html" target="_top" xlink:title=" ">
<polygon fill="white" stroke="#bfbfbf" points="319.5,-1642.5 319.5,-1699.5 390.5,-1699.5 390.5,-1642.5 319.5,-1642.5"/>
<text text-anchor="middle" x="355" y="-1687.5" font-family="Helvetica,sans-Serif" font-size="10.00">BinaryType</text>
<polyline fill="none" stroke="#bfbfbf" points="319.5,-1680.5 390.5,-1680.5 "/>
<text text-anchor="middle" x="355" y="-1668.5" font-family="Helvetica,sans-Serif" font-size="10.00"> </text>
<polyline fill="none" stroke="#bfbfbf" points="319.5,-1661.5 390.5,-1661.5 "/>
<text text-anchor="middle" x="355" y="-1649.5" font-family="Helvetica,sans-Serif" font-size="10.00"> </text>
</a>
</g>
</g>
<!-- Node11&#45;&gt;Node10 -->
<g id="edge10" class="edge">
<title>Node11&#45;&gt;Node10</title>
<path fill="none" stroke="midnightblue" d="M355,-1631.96C355,-1623.47 355,-1614.13 355,-1604.55"/>
<polygon fill="none" stroke="midnightblue" points="351.5,-1632.2 355,-1642.2 358.5,-1632.2 351.5,-1632.2"/>
</g>
<!-- Node12 -->
<g id="node12" class="node">
<title>Node12</title>
<g id="a_node12"><a xlink:title=" ">
<polygon fill="white" stroke="#bfbfbf" points="455.5,-1487 455.5,-1544 534.5,-1544 534.5,-1487 455.5,-1487"/>
<text text-anchor="middle" x="495" y="-1532" font-family="Helvetica,sans-Serif" font-size="10.00">BooleanType</text>
<polyline fill="none" stroke="#bfbfbf" points="455.5,-1525 534.5,-1525 "/>
<text text-anchor="middle" x="495" y="-1513" font-family="Helvetica,sans-Serif" font-size="10.00"> </text>
<polyline fill="none" stroke="#bfbfbf" points="455.5,-1506 534.5,-1506 "/>
<text text-anchor="middle" x="495" y="-1494" font-family="Helvetica,sans-Serif" font-size="10.00"> </text>
</a>
</g>
</g>
<!-- Node12&#45;&gt;Node6 -->
<g id="edge11" class="edge">
<title>Node12&#45;&gt;Node6</title>
<path fill="none" stroke="#404040" d="M488.54,-1486.83C482.86,-1462.48 474.24,-1425.57 466.1,-1390.68"/>
<polygon fill="none" stroke="#404040" points="466.09,-1390.63 460.83,-1385.7 463.36,-1378.95 468.62,-1383.88 466.09,-1390.63"/>
<text text-anchor="middle" x="494.5" y="-1400" font-family="Helvetica,sans-Serif" font-size="10.00"> +boolean</text>
</g>
<!-- Node13 -->
<g id="node13" class="node">
<title>Node13</title>
<g id="a_node13"><a xlink:title=" ">
<polygon fill="white" stroke="#bfbfbf" points="552.5,-1487 552.5,-1544 665.5,-1544 665.5,-1487 552.5,-1487"/>
<text text-anchor="middle" x="609" y="-1532" font-family="Helvetica,sans-Serif" font-size="10.00">NumberIntegerType</text>
<polyline fill="none" stroke="#bfbfbf" points="552.5,-1525 665.5,-1525 "/>
<text text-anchor="middle" x="609" y="-1513" font-family="Helvetica,sans-Serif" font-size="10.00"> </text>
<polyline fill="none" stroke="#bfbfbf" points="552.5,-1506 665.5,-1506 "/>
<text text-anchor="middle" x="609" y="-1494" font-family="Helvetica,sans-Serif" font-size="10.00"> </text>
</a>
</g>
</g>
<!-- Node13&#45;&gt;Node6 -->
<g id="edge12" class="edge">
<title>Node13&#45;&gt;Node6</title>
<path fill="none" stroke="#404040" d="M589.41,-1486.71C572.4,-1462.74 546.95,-1427.31 524,-1397 521.88,-1394.2 519.72,-1391.36 517.53,-1388.5"/>
<polygon fill="none" stroke="#404040" points="517.32,-1388.23 510.49,-1385.92 510,-1378.73 516.83,-1381.04 517.32,-1388.23"/>
<text text-anchor="middle" x="575.5" y="-1400" font-family="Helvetica,sans-Serif" font-size="10.00"> +number_integer</text>
</g>
<!-- Node14 -->
<g id="node14" class="node">
<title>Node14</title>
<g id="a_node14"><a xlink:title=" ">
<polygon fill="white" stroke="#bfbfbf" points="684,-1487 684,-1544 808,-1544 808,-1487 684,-1487"/>
<text text-anchor="middle" x="746" y="-1532" font-family="Helvetica,sans-Serif" font-size="10.00">NumberUnsignedType</text>
<polyline fill="none" stroke="#bfbfbf" points="684,-1525 808,-1525 "/>
<text text-anchor="middle" x="746" y="-1513" font-family="Helvetica,sans-Serif" font-size="10.00"> </text>
<polyline fill="none" stroke="#bfbfbf" points="684,-1506 808,-1506 "/>
<text text-anchor="middle" x="746" y="-1494" font-family="Helvetica,sans-Serif" font-size="10.00"> </text>
</a>
</g>
</g>
<!-- Node14&#45;&gt;Node6 -->
<g id="edge13" class="edge">
<title>Node14&#45;&gt;Node6</title>
<path fill="none" stroke="#404040" d="M727.84,-1486.66C714.7,-1467.97 695.69,-1443.63 675,-1426 642.01,-1397.88 602.02,-1372.85 564.65,-1352.45"/>
<polygon fill="none" stroke="#404040" points="564.23,-1352.23 557.06,-1352.91 553.67,-1346.54 560.85,-1345.86 564.23,-1352.23"/>
<text text-anchor="middle" x="695.5" y="-1400" font-family="Helvetica,sans-Serif" font-size="10.00"> +number_unsigned</text>
</g>
<!-- Node15 -->
<g id="node15" class="node">
<title>Node15</title>
<g id="a_node15"><a xlink:title=" ">
<polygon fill="white" stroke="#bfbfbf" points="826.5,-1487 826.5,-1544 929.5,-1544 929.5,-1487 826.5,-1487"/>
<text text-anchor="middle" x="878" y="-1532" font-family="Helvetica,sans-Serif" font-size="10.00">NumberFloatType</text>
<polyline fill="none" stroke="#bfbfbf" points="826.5,-1525 929.5,-1525 "/>
<text text-anchor="middle" x="878" y="-1513" font-family="Helvetica,sans-Serif" font-size="10.00"> </text>
<polyline fill="none" stroke="#bfbfbf" points="826.5,-1506 929.5,-1506 "/>
<text text-anchor="middle" x="878" y="-1494" font-family="Helvetica,sans-Serif" font-size="10.00"> </text>
</a>
</g>
</g>
<!-- Node15&#45;&gt;Node6 -->
<g id="edge14" class="edge">
<title>Node15&#45;&gt;Node6</title>
<path fill="none" stroke="#404040" d="M864.24,-1486.64C853.58,-1467.45 837.23,-1442.53 817,-1426 744.9,-1367.07 644.36,-1334.08 565.82,-1316.1"/>
<polygon fill="none" stroke="#404040" points="565.62,-1316.05 558.89,-1318.65 553.9,-1313.44 560.63,-1310.84 565.62,-1316.05"/>
<text text-anchor="middle" x="829.5" y="-1400" font-family="Helvetica,sans-Serif" font-size="10.00"> +number_float</text>
</g>
<!-- Node16 -->
<g id="node16" class="node">
<title>Node16</title>
<g id="a_node16"><a xlink:title=" ">
<polygon fill="white" stroke="#bfbfbf" points="366.5,-611.5 366.5,-668.5 485.5,-668.5 485.5,-611.5 366.5,-611.5"/>
<text text-anchor="middle" x="426" y="-656.5" font-family="Helvetica,sans-Serif" font-size="10.00">static constexpr auto</text>
<polyline fill="none" stroke="#bfbfbf" points="366.5,-649.5 485.5,-649.5 "/>
<text text-anchor="middle" x="426" y="-637.5" font-family="Helvetica,sans-Serif" font-size="10.00"> </text>
<polyline fill="none" stroke="#bfbfbf" points="366.5,-630.5 485.5,-630.5 "/>
<text text-anchor="middle" x="426" y="-618.5" font-family="Helvetica,sans-Serif" font-size="10.00"> </text>
</a>
</g>
</g>
<!-- Node16&#45;&gt;Node1 -->
<g id="edge15" class="edge">
<title>Node16&#45;&gt;Node1</title>
<path fill="none" stroke="#404040" d="M422.36,-611.24C412.74,-538.7 385.46,-337.57 357,-171 355.05,-159.61 352.86,-147.57 350.63,-135.83"/>
<polygon fill="none" stroke="#404040" points="350.57,-135.53 345.52,-130.39 348.32,-123.74 353.37,-128.88 350.57,-135.53"/>
<text text-anchor="middle" x="374" y="-145" font-family="Helvetica,sans-Serif" font-size="10.00"> +name</text>
</g>
</g>
</svg>
        <g id="navigator" transform="translate(0 0)" fill="#404254">
                <rect fill="#f2f5e9" fill-opacity="0.5" stroke="#606060" stroke-width=".5" x="0" y="0" width="60" height="60"/>
                <use id="zoomplus" xlink:href="#zoomPlus" x="17" y="9" onmousedown="handleZoom(evt,'in')"/>
                <use id="zoomminus" xlink:href="#zoomMin" x="42" y="9" onmousedown="handleZoom(evt,'out')"/>
                <use id="reset" xlink:href="#resetDef" x="30" y="36" onmousedown="handleReset()"/>
                <g id="arrowUp" xlink:href="#dirArrow" transform="translate(30 24)" onmousedown="handlePan(0,-1)">
                  <use xlink:href="#rim" fill="#404040">
                        <set attributeName="fill" to="#808080" begin="arrowUp.mouseover" end="arrowUp.mouseout"/>
                  </use>
                  <path fill="none" stroke="white" stroke-width="1.5" d="M0,-3.0v7 M-2.5,-0.5L0,-3.0L2.5,-0.5"/>
                </g>
                <g id="arrowRight" xlink:href="#dirArrow" transform="rotate(90) translate(36 -43)" onmousedown="handlePan(1,0)">
                  <use xlink:href="#rim" fill="#404040">
                        <set attributeName="fill" to="#808080" begin="arrowRight.mouseover" end="arrowRight.mouseout"/>
                  </use>
                  <path fill="none" stroke="white" stroke-width="1.5" d="M0,-3.0v7 M-2.5,-0.5L0,-3.0L2.5,-0.5"/>
                </g>
                <g id="arrowDown" xlink:href="#dirArrow" transform="rotate(180) translate(-30 -48)" onmousedown="handlePan(0,1)">
                  <use xlink:href="#rim" fill="#404040">
                        <set attributeName="fill" to="#808080" begin="arrowDown.mouseover" end="arrowDown.mouseout"/>
                  </use>
                  <path fill="none" stroke="white" stroke-width="1.5" d="M0,-3.0v7 M-2.5,-0.5L0,-3.0L2.5,-0.5"/>
                </g>
                <g id="arrowLeft" xlink:href="#dirArrow" transform="rotate(270) translate(-36 17)" onmousedown="handlePan(-1,0)">
                  <use xlink:href="#rim" fill="#404040">
                        <set attributeName="fill" to="#808080" begin="arrowLeft.mouseover" end="arrowLeft.mouseout"/>
                  </use>
                  <path fill="none" stroke="white" stroke-width="1.5" d="M0,-3.0v7 M-2.5,-0.5L0,-3.0L2.5,-0.5"/>
                </g>
        </g>
        <svg viewBox="0 0 15 15" width="100%" height="30px" preserveAspectRatio="xMaxYMin meet">
         <g id="arrow_out" transform="scale(0.3 0.3)">
          <a xlink:href="structpybind11_1_1detail_1_1type__caster_3_01nl_1_1json_01_4__coll__graph_org.svg" target="_base">
           <rect id="button" ry="5" rx="5" y="6" x="6" height="38" width="38"
                fill="#f2f5e9" fill-opacity="0.5" stroke="#606060" stroke-width="1.0"/>
           <path id="arrow"
             d="M 11.500037,31.436501 C 11.940474,20.09759 22.043105,11.32322 32.158766,21.979434 L 37.068811,17.246167 C 37.068811,17.246167 37.088388,32 37.088388,32 L 22.160133,31.978069 C 22.160133,31.978069 26.997745,27.140456 26.997745,27.140456 C 18.528582,18.264221 13.291696,25.230495 11.500037,31.436501 z"
             style="fill:#404040;"/>
          </a>
         </g>
        </svg>
</svg>
