<?xml version="1.0" encoding="UTF-8" standalone="no"?>
<!DOCTYPE svg PUBLIC "-//W3C//DTD SVG 1.1//EN"
 "http://www.w3.org/Graphics/SVG/1.1/DTD/svg11.dtd">
<!-- Generated by graphviz version 2.43.0 (0)
 -->
<!-- Title: Feel::vf::ExprTensorsFromSymbolsExprImpl&lt; Geo_t, SymbolsExprType &gt; Pages: 1 -->
<svg width="220pt" height="608pt"
 viewBox="0.00 0.00 220.00 608.00" xmlns="http://www.w3.org/2000/svg" xmlns:xlink="http://www.w3.org/1999/xlink">
<g id="graph0" class="graph" transform="scale(1 1) rotate(0) translate(4 604)">
<title>Feel::vf::ExprTensorsFromSymbolsExprImpl&lt; Geo_t, SymbolsExprType &gt;</title>
<polygon fill="white" stroke="transparent" points="-4,4 -4,-604 216,-604 216,4 -4,4"/>
<!-- Node1 -->
<g id="node1" class="node">
<title>Node1</title>
<g id="a_node1"><a xlink:title=" ">
<polygon fill="#bfbfbf" stroke="black" points="0,-0.5 0,-123.5 212,-123.5 212,-0.5 0,-0.5"/>
<text text-anchor="start" x="8" y="-111.5" font-family="Helvetica,sans-Serif" font-size="10.00">Feel::vf::ExprTensorsFrom</text>
<text text-anchor="start" x="8" y="-100.5" font-family="Helvetica,sans-Serif" font-size="10.00">SymbolsExprImpl&lt; Geo_t,</text>
<text text-anchor="middle" x="106" y="-89.5" font-family="Helvetica,sans-Serif" font-size="10.00"> SymbolsExprType &gt;</text>
<polyline fill="none" stroke="black" points="0,-82.5 212,-82.5 "/>
<text text-anchor="middle" x="106" y="-70.5" font-family="Helvetica,sans-Serif" font-size="10.00"> </text>
<polyline fill="none" stroke="black" points="0,-63.5 212,-63.5 "/>
<text text-anchor="start" x="8" y="-51.5" font-family="Helvetica,sans-Serif" font-size="10.00">+ ExprTensorsFromSymbolsExprImpl()</text>
<text text-anchor="start" x="8" y="-40.5" font-family="Helvetica,sans-Serif" font-size="10.00">+ init()</text>
<text text-anchor="start" x="8" y="-29.5" font-family="Helvetica,sans-Serif" font-size="10.00">+ newObjectPtr()</text>
<text text-anchor="start" x="8" y="-18.5" font-family="Helvetica,sans-Serif" font-size="10.00">+ update()</text>
<text text-anchor="start" x="8" y="-7.5" font-family="Helvetica,sans-Serif" font-size="10.00">+ ~ExprTensorsFromSymbolsExprImpl()</text>
</a>
</g>
</g>
<!-- Node2 -->
<g id="node2" class="node">
<title>Node2</title>
<g id="a_node2"><a xlink:href="structFeel_1_1vf_1_1ExprTensorsFromSymbolsExpr.html" target="_top" xlink:title=" ">
<polygon fill="white" stroke="black" points="10.5,-161.5 10.5,-273.5 201.5,-273.5 201.5,-161.5 10.5,-161.5"/>
<text text-anchor="start" x="18.5" y="-261.5" font-family="Helvetica,sans-Serif" font-size="10.00">Feel::vf::ExprTensorsFrom</text>
<text text-anchor="middle" x="106" y="-250.5" font-family="Helvetica,sans-Serif" font-size="10.00">SymbolsExpr&lt; Geo_t &gt;</text>
<polyline fill="none" stroke="black" points="10.5,-243.5 201.5,-243.5 "/>
<text text-anchor="middle" x="106" y="-231.5" font-family="Helvetica,sans-Serif" font-size="10.00"> </text>
<polyline fill="none" stroke="black" points="10.5,-224.5 201.5,-224.5 "/>
<text text-anchor="start" x="18.5" y="-212.5" font-family="Helvetica,sans-Serif" font-size="10.00">+ init()</text>
<text text-anchor="start" x="18.5" y="-201.5" font-family="Helvetica,sans-Serif" font-size="10.00">+ newObjectPtr()</text>
<text text-anchor="start" x="18.5" y="-190.5" font-family="Helvetica,sans-Serif" font-size="10.00">+ tensor()</text>
<text text-anchor="start" x="18.5" y="-179.5" font-family="Helvetica,sans-Serif" font-size="10.00">+ update()</text>
<text text-anchor="start" x="18.5" y="-168.5" font-family="Helvetica,sans-Serif" font-size="10.00">+ ~ExprTensorsFromSymbolsExpr()</text>
</a>
</g>
</g>
<!-- Node2&#45;&gt;Node1 -->
<g id="edge1" class="edge">
<title>Node2&#45;&gt;Node1</title>
<path fill="none" stroke="midnightblue" d="M106,-150.93C106,-141.84 106,-132.53 106,-123.53"/>
<polygon fill="none" stroke="midnightblue" points="102.5,-151.08 106,-161.08 109.5,-151.08 102.5,-151.08"/>
</g>
<!-- Node3 -->
<g id="node3" class="node">
<title>Node3</title>
<g id="a_node3"><a xlink:title=" ">
<polygon fill="white" stroke="#bfbfbf" points="51,-321.5 51,-389.5 161,-389.5 161,-321.5 51,-321.5"/>
<text text-anchor="start" x="59" y="-377.5" font-family="Helvetica,sans-Serif" font-size="10.00">std::vector&lt; tensor</text>
<text text-anchor="middle" x="106" y="-366.5" font-family="Helvetica,sans-Serif" font-size="10.00">_ptrtype &gt;</text>
<polyline fill="none" stroke="#bfbfbf" points="51,-359.5 161,-359.5 "/>
<text text-anchor="middle" x="106" y="-347.5" font-family="Helvetica,sans-Serif" font-size="10.00"> </text>
<polyline fill="none" stroke="#bfbfbf" points="51,-340.5 161,-340.5 "/>
<text text-anchor="middle" x="106" y="-328.5" font-family="Helvetica,sans-Serif" font-size="10.00"> </text>
</a>
</g>
</g>
<!-- Node3&#45;&gt;Node2 -->
<g id="edge2" class="edge">
<title>Node3&#45;&gt;Node2</title>
<path fill="none" stroke="#404040" d="M106,-321.23C106,-310.5 106,-298.18 106,-285.9"/>
<polygon fill="none" stroke="#404040" points="106,-285.68 102,-279.68 106,-273.68 110,-279.68 106,-285.68"/>
<text text-anchor="middle" x="134.5" y="-295" font-family="Helvetica,sans-Serif" font-size="10.00"> #M_tensor</text>
</g>
<!-- Node4 -->
<g id="node4" class="node">
<title>Node4</title>
<g id="a_node4"><a xlink:title="STL class.">
<polygon fill="white" stroke="#bfbfbf" points="47,-437.5 47,-494.5 165,-494.5 165,-437.5 47,-437.5"/>
<text text-anchor="middle" x="106" y="-482.5" font-family="Helvetica,sans-Serif" font-size="10.00">std::shared_ptr&lt; T &gt;</text>
<polyline fill="none" stroke="#bfbfbf" points="47,-475.5 165,-475.5 "/>
<text text-anchor="middle" x="106" y="-463.5" font-family="Helvetica,sans-Serif" font-size="10.00"> </text>
<polyline fill="none" stroke="#bfbfbf" points="47,-456.5 165,-456.5 "/>
<text text-anchor="start" x="55" y="-444.5" font-family="Helvetica,sans-Serif" font-size="10.00">+ operator&#45;&gt;()</text>
</a>
</g>
</g>
<!-- Node4&#45;&gt;Node3 -->
<g id="edge3" class="edge">
<title>Node4&#45;&gt;Node3</title>
<path fill="none" stroke="#404040" d="M106,-437.34C106,-426.53 106,-413.85 106,-401.77"/>
<polygon fill="none" stroke="#404040" points="106,-401.52 102,-395.52 106,-389.52 110,-395.52 106,-401.52"/>
<text text-anchor="middle" x="135" y="-411" font-family="Helvetica,sans-Serif" font-size="10.00"> +elements</text>
</g>
<!-- Node5 -->
<g id="node5" class="node">
<title>Node5</title>
<g id="a_node5"><a xlink:title=" ">
<polygon fill="white" stroke="#bfbfbf" points="91.5,-542.5 91.5,-599.5 120.5,-599.5 120.5,-542.5 91.5,-542.5"/>
<text text-anchor="middle" x="106" y="-587.5" font-family="Helvetica,sans-Serif" font-size="10.00">T</text>
<polyline fill="none" stroke="#bfbfbf" points="91.5,-580.5 120.5,-580.5 "/>
<text text-anchor="middle" x="106" y="-568.5" font-family="Helvetica,sans-Serif" font-size="10.00"> </text>
<polyline fill="none" stroke="#bfbfbf" points="91.5,-561.5 120.5,-561.5 "/>
<text text-anchor="middle" x="106" y="-549.5" font-family="Helvetica,sans-Serif" font-size="10.00"> </text>
</a>
</g>
</g>
<!-- Node5&#45;&gt;Node4 -->
<g id="edge4" class="edge">
<title>Node5&#45;&gt;Node4</title>
<path fill="none" stroke="#404040" d="M106,-542.4C106,-531.55 106,-518.87 106,-507.05"/>
<polygon fill="none" stroke="#404040" points="106,-506.68 102,-500.68 106,-494.68 110,-500.68 106,-506.68"/>
<text text-anchor="middle" x="118.5" y="-516" font-family="Helvetica,sans-Serif" font-size="10.00"> +ptr</text>
</g>
</g>
</svg>
