<?xml version="1.0" encoding="UTF-8" standalone="no"?>
<!DOCTYPE svg PUBLIC "-//W3C//DTD SVG 1.1//EN"
 "http://www.w3.org/Graphics/SVG/1.1/DTD/svg11.dtd">
<!-- Generated by graphviz version 2.43.0 (0)
 -->
<!-- Title: nlohmann::detail::is_constructible_tuple&lt; T1, std::tuple&lt; Args... &gt; &gt; Pages: 1 -->
<svg width="175pt" height="287pt"
 viewBox="0.00 0.00 175.00 287.00" xmlns="http://www.w3.org/2000/svg" xmlns:xlink="http://www.w3.org/1999/xlink">
<g id="graph0" class="graph" transform="scale(1 1) rotate(0) translate(4 283)">
<title>nlohmann::detail::is_constructible_tuple&lt; T1, std::tuple&lt; Args... &gt; &gt;</title>
<polygon fill="white" stroke="transparent" points="-4,4 -4,-283 171,-283 171,4 -4,4"/>
<!-- Node1 -->
<g id="node1" class="node">
<title>Node1</title>
<g id="a_node1"><a xlink:title=" ">
<polygon fill="#bfbfbf" stroke="black" points="14,-0.5 14,-79.5 153,-79.5 153,-0.5 14,-0.5"/>
<text text-anchor="start" x="22" y="-67.5" font-family="Helvetica,sans-Serif" font-size="10.00">nlohmann::detail::is</text>
<text text-anchor="start" x="22" y="-56.5" font-family="Helvetica,sans-Serif" font-size="10.00">_constructible_tuple</text>
<text text-anchor="middle" x="83.5" y="-45.5" font-family="Helvetica,sans-Serif" font-size="10.00">&lt; T1, std::tuple&lt; Args... &gt; &gt;</text>
<polyline fill="none" stroke="black" points="14,-38.5 153,-38.5 "/>
<text text-anchor="middle" x="83.5" y="-26.5" font-family="Helvetica,sans-Serif" font-size="10.00"> </text>
<polyline fill="none" stroke="black" points="14,-19.5 153,-19.5 "/>
<text text-anchor="middle" x="83.5" y="-7.5" font-family="Helvetica,sans-Serif" font-size="10.00"> </text>
</a>
</g>
</g>
<!-- Node2 -->
<g id="node2" class="node">
<title>Node2</title>
<g id="a_node2"><a xlink:href="structnlohmann_1_1detail_1_1conjunction.html" target="_top" xlink:title=" ">
<polygon fill="white" stroke="#bfbfbf" points="0,-116.5 0,-184.5 167,-184.5 167,-116.5 0,-116.5"/>
<text text-anchor="start" x="8" y="-172.5" font-family="Helvetica,sans-Serif" font-size="10.00">nlohmann::detail::conjunction</text>
<text text-anchor="middle" x="83.5" y="-161.5" font-family="Helvetica,sans-Serif" font-size="10.00">&lt; is_constructible&lt; T1, Args &gt;... &gt;</text>
<polyline fill="none" stroke="#bfbfbf" points="0,-154.5 167,-154.5 "/>
<text text-anchor="middle" x="83.5" y="-142.5" font-family="Helvetica,sans-Serif" font-size="10.00"> </text>
<polyline fill="none" stroke="#bfbfbf" points="0,-135.5 167,-135.5 "/>
<text text-anchor="middle" x="83.5" y="-123.5" font-family="Helvetica,sans-Serif" font-size="10.00"> </text>
</a>
</g>
</g>
<!-- Node2&#45;&gt;Node1 -->
<g id="edge1" class="edge">
<title>Node2&#45;&gt;Node1</title>
<path fill="none" stroke="midnightblue" d="M83.5,-106.27C83.5,-97.48 83.5,-88.28 83.5,-79.65"/>
<polygon fill="none" stroke="midnightblue" points="80,-106.36 83.5,-116.36 87,-106.36 80,-106.36"/>
</g>
<!-- Node3 -->
<g id="node3" class="node">
<title>Node3</title>
<g id="a_node3"><a xlink:title=" ">
<polygon fill="white" stroke="#bfbfbf" points="45,-221.5 45,-278.5 122,-278.5 122,-221.5 45,-221.5"/>
<text text-anchor="middle" x="83.5" y="-266.5" font-family="Helvetica,sans-Serif" font-size="10.00">std::true_type</text>
<polyline fill="none" stroke="#bfbfbf" points="45,-259.5 122,-259.5 "/>
<text text-anchor="middle" x="83.5" y="-247.5" font-family="Helvetica,sans-Serif" font-size="10.00"> </text>
<polyline fill="none" stroke="#bfbfbf" points="45,-240.5 122,-240.5 "/>
<text text-anchor="middle" x="83.5" y="-228.5" font-family="Helvetica,sans-Serif" font-size="10.00"> </text>
</a>
</g>
</g>
<!-- Node3&#45;&gt;Node2 -->
<g id="edge2" class="edge">
<title>Node3&#45;&gt;Node2</title>
<path fill="none" stroke="midnightblue" d="M83.5,-211.06C83.5,-202.39 83.5,-193.24 83.5,-184.79"/>
<polygon fill="none" stroke="midnightblue" points="80,-211.32 83.5,-221.32 87,-211.32 80,-211.32"/>
</g>
</g>
</svg>
