<?xml version="1.0" encoding="UTF-8" standalone="no"?>
<!DOCTYPE svg PUBLIC "-//W3C//DTD SVG 1.1//EN"
 "http://www.w3.org/Graphics/SVG/1.1/DTD/svg11.dtd">
<!-- Generated by graphviz version 2.43.0 (0)
 -->
<!-- Title: Feel::detail::NbDof::result&lt; NbDof(S, T)&gt; Pages: 1 -->
<svg width="175pt" height="171pt"
 viewBox="0.00 0.00 175.00 171.00" xmlns="http://www.w3.org/2000/svg" xmlns:xlink="http://www.w3.org/1999/xlink">
<g id="graph0" class="graph" transform="scale(1 1) rotate(0) translate(4 167)">
<title>Feel::detail::NbDof::result&lt; NbDof(S, T)&gt;</title>
<polygon fill="white" stroke="transparent" points="-4,4 -4,-167 171,-167 171,4 -4,4"/>
<!-- Node1 -->
<g id="node1" class="node">
<title>Node1</title>
<g id="a_node1"><a xlink:title=" ">
<polygon fill="#bfbfbf" stroke="black" points="20.5,-0.5 20.5,-68.5 146.5,-68.5 146.5,-0.5 20.5,-0.5"/>
<text text-anchor="start" x="28.5" y="-56.5" font-family="Helvetica,sans-Serif" font-size="10.00">Feel::detail::NbDof</text>
<text text-anchor="middle" x="83.5" y="-45.5" font-family="Helvetica,sans-Serif" font-size="10.00">::result&lt; NbDof(S, T)&gt;</text>
<polyline fill="none" stroke="black" points="20.5,-38.5 146.5,-38.5 "/>
<text text-anchor="middle" x="83.5" y="-26.5" font-family="Helvetica,sans-Serif" font-size="10.00"> </text>
<polyline fill="none" stroke="black" points="20.5,-19.5 146.5,-19.5 "/>
<text text-anchor="middle" x="83.5" y="-7.5" font-family="Helvetica,sans-Serif" font-size="10.00"> </text>
</a>
</g>
</g>
<!-- Node2 -->
<g id="node2" class="node">
<title>Node2</title>
<g id="a_node2"><a xlink:title=" ">
<polygon fill="white" stroke="#bfbfbf" points="0,-105.5 0,-162.5 167,-162.5 167,-105.5 0,-105.5"/>
<text text-anchor="middle" x="83.5" y="-150.5" font-family="Helvetica,sans-Serif" font-size="10.00">boost::remove_reference&lt; S &gt;</text>
<polyline fill="none" stroke="#bfbfbf" points="0,-143.5 167,-143.5 "/>
<text text-anchor="middle" x="83.5" y="-131.5" font-family="Helvetica,sans-Serif" font-size="10.00"> </text>
<polyline fill="none" stroke="#bfbfbf" points="0,-124.5 167,-124.5 "/>
<text text-anchor="middle" x="83.5" y="-112.5" font-family="Helvetica,sans-Serif" font-size="10.00"> </text>
</a>
</g>
</g>
<!-- Node2&#45;&gt;Node1 -->
<g id="edge1" class="edge">
<title>Node2&#45;&gt;Node1</title>
<path fill="none" stroke="midnightblue" d="M83.5,-95.06C83.5,-86.39 83.5,-77.24 83.5,-68.79"/>
<polygon fill="none" stroke="midnightblue" points="80,-95.32 83.5,-105.32 87,-95.32 80,-95.32"/>
</g>
</g>
</svg>
