<?xml version="1.0" encoding="UTF-8" standalone="no"?>
<!DOCTYPE svg PUBLIC "-//W3C//DTD SVG 1.1//EN"
 "http://www.w3.org/Graphics/SVG/1.1/DTD/svg11.dtd">
<!-- Generated by graphviz version 2.43.0 (0)
 -->
<!-- Title: nlohmann::detail::is_default_constructible&lt; T &gt; Pages: 1 -->
<svg width="190pt" height="171pt"
 viewBox="0.00 0.00 190.00 171.00" xmlns="http://www.w3.org/2000/svg" xmlns:xlink="http://www.w3.org/1999/xlink">
<g id="graph0" class="graph" transform="scale(1 1) rotate(0) translate(4 167)">
<title>nlohmann::detail::is_default_constructible&lt; T &gt;</title>
<polygon fill="white" stroke="transparent" points="-4,4 -4,-167 186,-167 186,4 -4,4"/>
<!-- Node1 -->
<g id="node1" class="node">
<title>Node1</title>
<g id="a_node1"><a xlink:title=" ">
<polygon fill="#bfbfbf" stroke="black" points="14.5,-0.5 14.5,-68.5 167.5,-68.5 167.5,-0.5 14.5,-0.5"/>
<text text-anchor="start" x="22.5" y="-56.5" font-family="Helvetica,sans-Serif" font-size="10.00">nlohmann::detail::is</text>
<text text-anchor="middle" x="91" y="-45.5" font-family="Helvetica,sans-Serif" font-size="10.00">_default_constructible&lt; T &gt;</text>
<polyline fill="none" stroke="black" points="14.5,-38.5 167.5,-38.5 "/>
<text text-anchor="middle" x="91" y="-26.5" font-family="Helvetica,sans-Serif" font-size="10.00"> </text>
<polyline fill="none" stroke="black" points="14.5,-19.5 167.5,-19.5 "/>
<text text-anchor="middle" x="91" y="-7.5" font-family="Helvetica,sans-Serif" font-size="10.00"> </text>
</a>
</g>
</g>
<!-- Node2 -->
<g id="node2" class="node">
<title>Node2</title>
<g id="a_node2"><a xlink:title=" ">
<polygon fill="white" stroke="#bfbfbf" points="0,-105.5 0,-162.5 182,-162.5 182,-105.5 0,-105.5"/>
<text text-anchor="middle" x="91" y="-150.5" font-family="Helvetica,sans-Serif" font-size="10.00">std::is_default_constructible&lt; T &gt;</text>
<polyline fill="none" stroke="#bfbfbf" points="0,-143.5 182,-143.5 "/>
<text text-anchor="middle" x="91" y="-131.5" font-family="Helvetica,sans-Serif" font-size="10.00"> </text>
<polyline fill="none" stroke="#bfbfbf" points="0,-124.5 182,-124.5 "/>
<text text-anchor="middle" x="91" y="-112.5" font-family="Helvetica,sans-Serif" font-size="10.00"> </text>
</a>
</g>
</g>
<!-- Node2&#45;&gt;Node1 -->
<g id="edge1" class="edge">
<title>Node2&#45;&gt;Node1</title>
<path fill="none" stroke="midnightblue" d="M91,-95.06C91,-86.39 91,-77.24 91,-68.79"/>
<polygon fill="none" stroke="midnightblue" points="87.5,-95.32 91,-105.32 94.5,-95.32 87.5,-95.32"/>
</g>
</g>
</svg>
