<?xml version="1.0" encoding="UTF-8" standalone="no"?>
<!DOCTYPE svg PUBLIC "-//W3C//DTD SVG 1.1//EN"
 "http://www.w3.org/Graphics/SVG/1.1/DTD/svg11.dtd">
<!-- Generated by graphviz version 2.43.0 (0)
 -->
<!-- Title: Feel::Mesh&lt; GeoShape, T, Tag, IndexT &gt;::Inverse Pages: 1 -->
<svg width="246pt" height="292pt"
 viewBox="0.00 0.00 246.00 292.00" xmlns="http://www.w3.org/2000/svg" xmlns:xlink="http://www.w3.org/1999/xlink">
<g id="graph0" class="graph" transform="scale(1 1) rotate(0) translate(4 288)">
<title>Feel::Mesh&lt; GeoShape, T, Tag, IndexT &gt;::Inverse</title>
<polygon fill="white" stroke="transparent" points="-4,4 -4,-288 242,-288 242,4 -4,4"/>
<!-- Node1 -->
<g id="node1" class="node">
<title>Node1</title>
<g id="a_node1"><a xlink:title=" ">
<polygon fill="#bfbfbf" stroke="black" points="49,-0.5 49,-123.5 189,-123.5 189,-0.5 49,-0.5"/>
<text text-anchor="start" x="57" y="-111.5" font-family="Helvetica,sans-Serif" font-size="10.00">Feel::Mesh&lt; GeoShape,</text>
<text text-anchor="middle" x="119" y="-100.5" font-family="Helvetica,sans-Serif" font-size="10.00"> T, Tag, IndexT &gt;::Inverse</text>
<polyline fill="none" stroke="black" points="49,-93.5 189,-93.5 "/>
<text text-anchor="middle" x="119" y="-81.5" font-family="Helvetica,sans-Serif" font-size="10.00"> </text>
<polyline fill="none" stroke="black" points="49,-74.5 189,-74.5 "/>
<text text-anchor="start" x="57" y="-62.5" font-family="Helvetica,sans-Serif" font-size="10.00">+ distribute()</text>
<text text-anchor="start" x="57" y="-51.5" font-family="Helvetica,sans-Serif" font-size="10.00">+ Inverse()</text>
<text text-anchor="start" x="57" y="-40.5" font-family="Helvetica,sans-Serif" font-size="10.00">+ nPointsInConvex()</text>
<text text-anchor="start" x="57" y="-29.5" font-family="Helvetica,sans-Serif" font-size="10.00">+ pointsInConvex()</text>
<text text-anchor="start" x="57" y="-18.5" font-family="Helvetica,sans-Serif" font-size="10.00">+ referenceCoords()</text>
<text text-anchor="start" x="57" y="-7.5" font-family="Helvetica,sans-Serif" font-size="10.00">+ ~Inverse()</text>
</a>
</g>
</g>
<!-- Node2 -->
<g id="node2" class="node">
<title>Node2</title>
<g id="a_node2"><a xlink:href="classmpl_1_1if___3_01mpl_1_1bool___3_01GeoShape_1_1is__simplex_01_4_00_01mpl_1_1identity_3_01Geoa8d5788622dd5f22f83013fc79c8d05d.html" target="_top" xlink:title=" ">
<polygon fill="white" stroke="#bfbfbf" points="0,-160.5 0,-283.5 238,-283.5 238,-160.5 0,-160.5"/>
<text text-anchor="start" x="8" y="-271.5" font-family="Helvetica,sans-Serif" font-size="10.00">mpl::if_&lt; mpl::bool</text>
<text text-anchor="start" x="8" y="-260.5" font-family="Helvetica,sans-Serif" font-size="10.00">_&lt; GeoShape::is_simplex</text>
<text text-anchor="start" x="8" y="-249.5" font-family="Helvetica,sans-Serif" font-size="10.00"> &gt;, mpl::identity&lt; GeoMapInverse</text>
<text text-anchor="start" x="8" y="-238.5" font-family="Helvetica,sans-Serif" font-size="10.00">&lt; nDim, nOrder, nRealDim, T,</text>
<text text-anchor="start" x="8" y="-227.5" font-family="Helvetica,sans-Serif" font-size="10.00"> Simplex &gt; &gt;, mpl::identity&lt; GeoMapInverse</text>
<text text-anchor="start" x="8" y="-216.5" font-family="Helvetica,sans-Serif" font-size="10.00">&lt; nDim, nOrder, nRealDim, T, Hypercube</text>
<text text-anchor="middle" x="119" y="-205.5" font-family="Helvetica,sans-Serif" font-size="10.00"> &gt; &gt; &gt;::type::type</text>
<polyline fill="none" stroke="#bfbfbf" points="0,-198.5 238,-198.5 "/>
<text text-anchor="middle" x="119" y="-186.5" font-family="Helvetica,sans-Serif" font-size="10.00"> </text>
<polyline fill="none" stroke="#bfbfbf" points="0,-179.5 238,-179.5 "/>
<text text-anchor="middle" x="119" y="-167.5" font-family="Helvetica,sans-Serif" font-size="10.00"> </text>
</a>
</g>
</g>
<!-- Node2&#45;&gt;Node1 -->
<g id="edge1" class="edge">
<title>Node2&#45;&gt;Node1</title>
<path fill="none" stroke="midnightblue" d="M119,-150.12C119,-141.31 119,-132.37 119,-123.73"/>
<polygon fill="none" stroke="midnightblue" points="115.5,-150.36 119,-160.36 122.5,-150.36 115.5,-150.36"/>
</g>
</g>
</svg>
