<?xml version="1.0" encoding="UTF-8" standalone="no"?>
<!DOCTYPE svg PUBLIC "-//W3C//DTD SVG 1.1//EN"
 "http://www.w3.org/Graphics/SVG/1.1/DTD/svg11.dtd">
<!-- Generated by graphviz version 2.43.0 (0)
 -->
<!-- Title: Feel::is_filter&lt; T &gt; Pages: 1 -->
<svg width="190pt" height="204pt"
 viewBox="0.00 0.00 190.00 204.00" xmlns="http://www.w3.org/2000/svg" xmlns:xlink="http://www.w3.org/1999/xlink">
<g id="graph0" class="graph" transform="scale(1 1) rotate(0) translate(4 200)">
<title>Feel::is_filter&lt; T &gt;</title>
<polygon fill="white" stroke="transparent" points="-4,4 -4,-200 186,-200 186,4 -4,4"/>
<!-- Node1 -->
<g id="node1" class="node">
<title>Node1</title>
<g id="a_node1"><a xlink:title="Filters.">
<polygon fill="#bfbfbf" stroke="black" points="37,-0.5 37,-57.5 145,-57.5 145,-0.5 37,-0.5"/>
<text text-anchor="middle" x="91" y="-45.5" font-family="Helvetica,sans-Serif" font-size="10.00">Feel::is_filter&lt; T &gt;</text>
<polyline fill="none" stroke="black" points="37,-38.5 145,-38.5 "/>
<text text-anchor="middle" x="91" y="-26.5" font-family="Helvetica,sans-Serif" font-size="10.00"> </text>
<polyline fill="none" stroke="black" points="37,-19.5 145,-19.5 "/>
<text text-anchor="middle" x="91" y="-7.5" font-family="Helvetica,sans-Serif" font-size="10.00"> </text>
</a>
</g>
</g>
<!-- Node2 -->
<g id="node2" class="node">
<title>Node2</title>
<g id="a_node2"><a xlink:title=" ">
<polygon fill="white" stroke="#bfbfbf" points="0,-94.5 0,-195.5 182,-195.5 182,-94.5 0,-94.5"/>
<text text-anchor="start" x="8" y="-183.5" font-family="Helvetica,sans-Serif" font-size="10.00">boost::mp11::mp_if</text>
<text text-anchor="start" x="8" y="-172.5" font-family="Helvetica,sans-Serif" font-size="10.00">_c&lt; has_base_rangebase</text>
<text text-anchor="start" x="8" y="-161.5" font-family="Helvetica,sans-Serif" font-size="10.00">_32_v&lt; T &gt;||has_base_rangebase</text>
<text text-anchor="start" x="8" y="-150.5" font-family="Helvetica,sans-Serif" font-size="10.00">_64_v&lt; T &gt;, std::true_type,</text>
<text text-anchor="middle" x="91" y="-139.5" font-family="Helvetica,sans-Serif" font-size="10.00"> std::false_type &gt;</text>
<polyline fill="none" stroke="#bfbfbf" points="0,-132.5 182,-132.5 "/>
<text text-anchor="middle" x="91" y="-120.5" font-family="Helvetica,sans-Serif" font-size="10.00"> </text>
<polyline fill="none" stroke="#bfbfbf" points="0,-113.5 182,-113.5 "/>
<text text-anchor="middle" x="91" y="-101.5" font-family="Helvetica,sans-Serif" font-size="10.00"> </text>
</a>
</g>
</g>
<!-- Node2&#45;&gt;Node1 -->
<g id="edge1" class="edge">
<title>Node2&#45;&gt;Node1</title>
<path fill="none" stroke="midnightblue" d="M91,-84.23C91,-74.92 91,-65.71 91,-57.59"/>
<polygon fill="none" stroke="midnightblue" points="87.5,-84.33 91,-94.33 94.5,-84.33 87.5,-84.33"/>
</g>
</g>
</svg>
