<?xml version="1.0" encoding="UTF-8" standalone="no"?>
<!DOCTYPE svg PUBLIC "-//W3C//DTD SVG 1.1//EN"
 "http://www.w3.org/Graphics/SVG/1.1/DTD/svg11.dtd">
<!-- Generated by graphviz version 2.43.0 (0)
 -->
<!-- Title: fmem Pages: 1 -->
<svg width="122pt" height="182pt"
 viewBox="0.00 0.00 121.50 182.00" xmlns="http://www.w3.org/2000/svg" xmlns:xlink="http://www.w3.org/1999/xlink">
<g id="graph0" class="graph" transform="scale(1 1) rotate(0) translate(4 178)">
<title>fmem</title>
<polygon fill="white" stroke="transparent" points="-4,4 -4,-178 117.5,-178 117.5,4 -4,4"/>
<!-- Node1 -->
<g id="node1" class="node">
<title>Node1</title>
<g id="a_node1"><a xlink:title=" ">
<polygon fill="#bfbfbf" stroke="black" points="31.5,-0.5 31.5,-57.5 77.5,-57.5 77.5,-0.5 31.5,-0.5"/>
<text text-anchor="middle" x="54.5" y="-45.5" font-family="Helvetica,sans-Serif" font-size="10.00">fmem</text>
<polyline fill="none" stroke="black" points="31.5,-38.5 77.5,-38.5 "/>
<text text-anchor="middle" x="54.5" y="-26.5" font-family="Helvetica,sans-Serif" font-size="10.00"> </text>
<polyline fill="none" stroke="black" points="31.5,-19.5 77.5,-19.5 "/>
<text text-anchor="middle" x="54.5" y="-7.5" font-family="Helvetica,sans-Serif" font-size="10.00"> </text>
</a>
</g>
</g>
<!-- Node2 -->
<g id="node2" class="node">
<title>Node2</title>
<g id="a_node2"><a xlink:href="classsize__t.html" target="_top" xlink:title=" ">
<polygon fill="white" stroke="#bfbfbf" points="0,-116.5 0,-173.5 45,-173.5 45,-116.5 0,-116.5"/>
<text text-anchor="middle" x="22.5" y="-161.5" font-family="Helvetica,sans-Serif" font-size="10.00">size_t</text>
<polyline fill="none" stroke="#bfbfbf" points="0,-154.5 45,-154.5 "/>
<text text-anchor="middle" x="22.5" y="-142.5" font-family="Helvetica,sans-Serif" font-size="10.00"> </text>
<polyline fill="none" stroke="#bfbfbf" points="0,-135.5 45,-135.5 "/>
<text text-anchor="middle" x="22.5" y="-123.5" font-family="Helvetica,sans-Serif" font-size="10.00"> </text>
</a>
</g>
</g>
<!-- Node2&#45;&gt;Node1 -->
<g id="edge1" class="edge">
<title>Node2&#45;&gt;Node1</title>
<path fill="none" stroke="#404040" d="M26.5,-116.23C28.62,-103.79 31.61,-89.01 35.5,-76 36.17,-73.76 36.91,-71.49 37.69,-69.21"/>
<polygon fill="none" stroke="#404040" points="37.72,-69.13 36.08,-62.11 41.92,-57.89 43.57,-64.91 37.72,-69.13"/>
<text text-anchor="middle" x="50" y="-90" font-family="Helvetica,sans-Serif" font-size="10.00"> +pos</text>
<text text-anchor="middle" x="50" y="-79" font-family="Helvetica,sans-Serif" font-size="10.00">+size</text>
</g>
<!-- Node3 -->
<g id="node3" class="node">
<title>Node3</title>
<g id="a_node3"><a xlink:title=" ">
<polygon fill="white" stroke="#bfbfbf" points="63.5,-116.5 63.5,-173.5 109.5,-173.5 109.5,-116.5 63.5,-116.5"/>
<text text-anchor="middle" x="86.5" y="-161.5" font-family="Helvetica,sans-Serif" font-size="10.00">char *</text>
<polyline fill="none" stroke="#bfbfbf" points="63.5,-154.5 109.5,-154.5 "/>
<text text-anchor="middle" x="86.5" y="-142.5" font-family="Helvetica,sans-Serif" font-size="10.00"> </text>
<polyline fill="none" stroke="#bfbfbf" points="63.5,-135.5 109.5,-135.5 "/>
<text text-anchor="middle" x="86.5" y="-123.5" font-family="Helvetica,sans-Serif" font-size="10.00"> </text>
</a>
</g>
</g>
<!-- Node3&#45;&gt;Node1 -->
<g id="edge2" class="edge">
<title>Node3&#45;&gt;Node1</title>
<path fill="none" stroke="#404040" d="M78.75,-116.4C74.81,-102.36 69.95,-85.05 65.62,-69.61"/>
<polygon fill="none" stroke="#404040" points="65.53,-69.29 60.06,-64.59 62.29,-57.74 67.76,-62.43 65.53,-69.29"/>
<text text-anchor="middle" x="93" y="-84.5" font-family="Helvetica,sans-Serif" font-size="10.00"> +buffer</text>
</g>
</g>
</svg>
