<?xml version="1.0" encoding="UTF-8" standalone="no"?>
<!DOCTYPE svg PUBLIC "-//W3C//DTD SVG 1.1//EN"
 "http://www.w3.org/Graphics/SVG/1.1/DTD/svg11.dtd">
<!-- Generated by graphviz version 2.43.0 (0)
 -->
<!-- Title: Feel::detail::updateDataMapProcessStandard&lt; DofType &gt; Pages: 1 -->
<svg width="396pt" height="503pt"
 viewBox="0.00 0.00 395.50 503.00" xmlns="http://www.w3.org/2000/svg" xmlns:xlink="http://www.w3.org/1999/xlink">
<g id="graph0" class="graph" transform="scale(1 1) rotate(0) translate(4 499)">
<title>Feel::detail::updateDataMapProcessStandard&lt; DofType &gt;</title>
<polygon fill="white" stroke="transparent" points="-4,4 -4,-499 391.5,-499 391.5,4 -4,4"/>
<!-- Node1 -->
<g id="node1" class="node">
<title>Node1</title>
<g id="a_node1"><a xlink:title=" ">
<polygon fill="#bfbfbf" stroke="black" points="63,-0.5 63,-79.5 257,-79.5 257,-0.5 63,-0.5"/>
<text text-anchor="start" x="71" y="-67.5" font-family="Helvetica,sans-Serif" font-size="10.00">Feel::detail::updateData</text>
<text text-anchor="middle" x="160" y="-56.5" font-family="Helvetica,sans-Serif" font-size="10.00">MapProcessStandard&lt; DofType &gt;</text>
<polyline fill="none" stroke="black" points="63,-49.5 257,-49.5 "/>
<text text-anchor="middle" x="160" y="-37.5" font-family="Helvetica,sans-Serif" font-size="10.00"> </text>
<polyline fill="none" stroke="black" points="63,-30.5 257,-30.5 "/>
<text text-anchor="start" x="71" y="-18.5" font-family="Helvetica,sans-Serif" font-size="10.00">+ operator()()</text>
<text text-anchor="start" x="71" y="-7.5" font-family="Helvetica,sans-Serif" font-size="10.00">+ updateDataMapProcessStandard()</text>
</a>
</g>
</g>
<!-- Node2 -->
<g id="node2" class="node">
<title>Node2</title>
<g id="a_node2"><a xlink:title=" ">
<polygon fill="white" stroke="#bfbfbf" points="0,-144 0,-201 56,-201 56,-144 0,-144"/>
<text text-anchor="middle" x="28" y="-189" font-family="Helvetica,sans-Serif" font-size="10.00">uint16_t</text>
<polyline fill="none" stroke="#bfbfbf" points="0,-182 56,-182 "/>
<text text-anchor="middle" x="28" y="-170" font-family="Helvetica,sans-Serif" font-size="10.00"> </text>
<polyline fill="none" stroke="#bfbfbf" points="0,-163 56,-163 "/>
<text text-anchor="middle" x="28" y="-151" font-family="Helvetica,sans-Serif" font-size="10.00"> </text>
</a>
</g>
</g>
<!-- Node2&#45;&gt;Node1 -->
<g id="edge1" class="edge">
<title>Node2&#45;&gt;Node1</title>
<path fill="none" stroke="#404040" d="M44.31,-143.98C53.69,-129.4 66.32,-111.73 80,-98 83.59,-94.4 87.43,-90.86 91.41,-87.43"/>
<polygon fill="none" stroke="#404040" points="91.64,-87.24 93.73,-80.33 100.9,-79.61 98.82,-86.51 91.64,-87.24"/>
<text text-anchor="middle" x="118" y="-112" font-family="Helvetica,sans-Serif" font-size="10.00"> +M_lastCursor</text>
<text text-anchor="middle" x="118" y="-101" font-family="Helvetica,sans-Serif" font-size="10.00">+M_cursor</text>
</g>
<!-- Node3 -->
<g id="node3" class="node">
<title>Node3</title>
<g id="a_node3"><a xlink:title=" ">
<polygon fill="white" stroke="#bfbfbf" points="74,-144 74,-201 246,-201 246,-144 74,-144"/>
<text text-anchor="middle" x="160" y="-189" font-family="Helvetica,sans-Serif" font-size="10.00">std::shared_ptr&lt; WorldComm &gt;</text>
<polyline fill="none" stroke="#bfbfbf" points="74,-182 246,-182 "/>
<text text-anchor="middle" x="160" y="-170" font-family="Helvetica,sans-Serif" font-size="10.00"> </text>
<polyline fill="none" stroke="#bfbfbf" points="74,-163 246,-163 "/>
<text text-anchor="start" x="82" y="-151" font-family="Helvetica,sans-Serif" font-size="10.00">+ operator&#45;&gt;()</text>
</a>
</g>
</g>
<!-- Node3&#45;&gt;Node1 -->
<g id="edge2" class="edge">
<title>Node3&#45;&gt;Node1</title>
<path fill="none" stroke="#404040" d="M160,-143.82C160,-128.7 160,-109.49 160,-91.78"/>
<polygon fill="none" stroke="#404040" points="160,-91.53 156,-85.53 160,-79.53 164,-85.53 160,-91.53"/>
<text text-anchor="middle" x="202.5" y="-106.5" font-family="Helvetica,sans-Serif" font-size="10.00"> +M_worldComm</text>
</g>
<!-- Node4 -->
<g id="node4" class="node">
<title>Node4</title>
<g id="a_node4"><a xlink:href="classFeel_1_1WorldComm.html" target="_top" xlink:title="Provides interface to MPI Communicators.">
<polygon fill="white" stroke="black" points="92,-254.5 92,-388.5 228,-388.5 228,-254.5 92,-254.5"/>
<text text-anchor="middle" x="160" y="-376.5" font-family="Helvetica,sans-Serif" font-size="10.00">Feel::WorldComm</text>
<polyline fill="none" stroke="black" points="92,-369.5 228,-369.5 "/>
<text text-anchor="middle" x="160" y="-357.5" font-family="Helvetica,sans-Serif" font-size="10.00"> </text>
<polyline fill="none" stroke="black" points="92,-350.5 228,-350.5 "/>
<text text-anchor="start" x="100" y="-338.5" font-family="Helvetica,sans-Serif" font-size="10.00">+ activityOnWorld()</text>
<text text-anchor="start" x="100" y="-327.5" font-family="Helvetica,sans-Serif" font-size="10.00">+ applyActivityOnlyOn()</text>
<text text-anchor="start" x="100" y="-316.5" font-family="Helvetica,sans-Serif" font-size="10.00">+ clone()</text>
<text text-anchor="start" x="100" y="-305.5" font-family="Helvetica,sans-Serif" font-size="10.00">+ comm()</text>
<text text-anchor="start" x="100" y="-294.5" font-family="Helvetica,sans-Serif" font-size="10.00">+ globalComm()</text>
<text text-anchor="start" x="100" y="-283.5" font-family="Helvetica,sans-Serif" font-size="10.00">and 61 more...</text>
<text text-anchor="start" x="100" y="-272.5" font-family="Helvetica,sans-Serif" font-size="10.00">+ New()</text>
<text text-anchor="start" x="100" y="-261.5" font-family="Helvetica,sans-Serif" font-size="10.00">+ New()</text>
</a>
</g>
</g>
<!-- Node4&#45;&gt;Node3 -->
<g id="edge3" class="edge">
<title>Node4&#45;&gt;Node3</title>
<path fill="none" stroke="#404040" d="M160,-254.31C160,-240.25 160,-225.83 160,-213.13"/>
<polygon fill="none" stroke="#404040" points="160,-213.09 156,-207.09 160,-201.09 164,-207.09 160,-213.09"/>
<text text-anchor="middle" x="172.5" y="-228" font-family="Helvetica,sans-Serif" font-size="10.00"> +ptr</text>
</g>
<!-- Node5 -->
<g id="node5" class="node">
<title>Node5</title>
<g id="a_node5"><a xlink:href="classboost_1_1mpi_1_1communicator.html" target="_top" xlink:title=" ">
<polygon fill="white" stroke="black" points="4.5,-432 4.5,-489 149.5,-489 149.5,-432 4.5,-432"/>
<text text-anchor="middle" x="77" y="-477" font-family="Helvetica,sans-Serif" font-size="10.00">boost::mpi::communicator</text>
<polyline fill="none" stroke="black" points="4.5,-470 149.5,-470 "/>
<text text-anchor="middle" x="77" y="-458" font-family="Helvetica,sans-Serif" font-size="10.00"> </text>
<polyline fill="none" stroke="black" points="4.5,-451 149.5,-451 "/>
<text text-anchor="middle" x="77" y="-439" font-family="Helvetica,sans-Serif" font-size="10.00"> </text>
</a>
</g>
</g>
<!-- Node5&#45;&gt;Node4 -->
<g id="edge4" class="edge">
<title>Node5&#45;&gt;Node4</title>
<path fill="none" stroke="midnightblue" d="M99,-423.19C105.44,-412.55 112.7,-400.58 119.9,-388.69"/>
<polygon fill="none" stroke="midnightblue" points="95.98,-421.41 93.8,-431.78 101.97,-425.04 95.98,-421.41"/>
</g>
<!-- Node6 -->
<g id="node6" class="node">
<title>Node6</title>
<g id="a_node6"><a xlink:title=" ">
<polygon fill="white" stroke="#bfbfbf" points="167.5,-426.5 167.5,-494.5 318.5,-494.5 318.5,-426.5 167.5,-426.5"/>
<text text-anchor="start" x="175.5" y="-482.5" font-family="Helvetica,sans-Serif" font-size="10.00">std::enable_shared</text>
<text text-anchor="middle" x="243" y="-471.5" font-family="Helvetica,sans-Serif" font-size="10.00">_from_this&lt; WorldComm &gt;</text>
<polyline fill="none" stroke="#bfbfbf" points="167.5,-464.5 318.5,-464.5 "/>
<text text-anchor="middle" x="243" y="-452.5" font-family="Helvetica,sans-Serif" font-size="10.00"> </text>
<polyline fill="none" stroke="#bfbfbf" points="167.5,-445.5 318.5,-445.5 "/>
<text text-anchor="middle" x="243" y="-433.5" font-family="Helvetica,sans-Serif" font-size="10.00"> </text>
</a>
</g>
</g>
<!-- Node6&#45;&gt;Node4 -->
<g id="edge5" class="edge">
<title>Node6&#45;&gt;Node4</title>
<path fill="none" stroke="midnightblue" d="M217.71,-417.76C212.13,-408.54 206.08,-398.56 200.07,-388.64"/>
<polygon fill="none" stroke="midnightblue" points="214.73,-419.6 222.91,-426.34 220.72,-415.97 214.73,-419.6"/>
</g>
<!-- Node7 -->
<g id="node7" class="node">
<title>Node7</title>
<g id="a_node7"><a xlink:title=" ">
<polygon fill="white" stroke="#bfbfbf" points="264.5,-138.5 264.5,-206.5 387.5,-206.5 387.5,-138.5 264.5,-138.5"/>
<text text-anchor="start" x="272.5" y="-194.5" font-family="Helvetica,sans-Serif" font-size="10.00">std::vector&lt; datamap</text>
<text text-anchor="middle" x="326" y="-183.5" font-family="Helvetica,sans-Serif" font-size="10.00">_ptrtype&lt;&gt; &gt;</text>
<polyline fill="none" stroke="#bfbfbf" points="264.5,-176.5 387.5,-176.5 "/>
<text text-anchor="middle" x="326" y="-164.5" font-family="Helvetica,sans-Serif" font-size="10.00"> </text>
<polyline fill="none" stroke="#bfbfbf" points="264.5,-157.5 387.5,-157.5 "/>
<text text-anchor="middle" x="326" y="-145.5" font-family="Helvetica,sans-Serif" font-size="10.00"> </text>
</a>
</g>
</g>
<!-- Node7&#45;&gt;Node1 -->
<g id="edge6" class="edge">
<title>Node7&#45;&gt;Node1</title>
<path fill="none" stroke="#404040" d="M293.91,-138.2C280.55,-125.06 264.55,-110.22 249,-98 244.16,-94.2 239.07,-90.42 233.87,-86.72"/>
<polygon fill="none" stroke="#404040" points="233.62,-86.55 226.41,-86.41 223.76,-79.71 230.97,-79.84 233.62,-86.55"/>
<text text-anchor="middle" x="303.5" y="-106.5" font-family="Helvetica,sans-Serif" font-size="10.00"> +M_subdm</text>
</g>
<!-- Node8 -->
<g id="node8" class="node">
<title>Node8</title>
<g id="a_node8"><a xlink:title=" ">
<polygon fill="white" stroke="#bfbfbf" points="267.5,-293 267.5,-350 384.5,-350 384.5,-293 267.5,-293"/>
<text text-anchor="middle" x="326" y="-338" font-family="Helvetica,sans-Serif" font-size="10.00">datamap_ptrtype&lt;&gt;</text>
<polyline fill="none" stroke="#bfbfbf" points="267.5,-331 384.5,-331 "/>
<text text-anchor="middle" x="326" y="-319" font-family="Helvetica,sans-Serif" font-size="10.00"> </text>
<polyline fill="none" stroke="#bfbfbf" points="267.5,-312 384.5,-312 "/>
<text text-anchor="middle" x="326" y="-300" font-family="Helvetica,sans-Serif" font-size="10.00"> </text>
</a>
</g>
</g>
<!-- Node8&#45;&gt;Node7 -->
<g id="edge7" class="edge">
<title>Node8&#45;&gt;Node7</title>
<path fill="none" stroke="#404040" d="M326,-292.85C326,-272.03 326,-243.03 326,-218.83"/>
<polygon fill="none" stroke="#404040" points="326,-218.69 322,-212.69 326,-206.69 330,-212.69 326,-218.69"/>
<text text-anchor="middle" x="355" y="-228" font-family="Helvetica,sans-Serif" font-size="10.00"> +elements</text>
</g>
</g>
</svg>
