<?xml version="1.0" encoding="UTF-8" standalone="no"?>
<!DOCTYPE svg PUBLIC "-//W3C//DTD SVG 1.1//EN"
 "http://www.w3.org/Graphics/SVG/1.1/DTD/svg11.dtd">
<!-- Generated by graphviz version 2.43.0 (0)
 -->
<!-- Title: Feel::detail::computeNDofForEachSpace&lt; UseComponentsSplit &gt; Pages: 1 -->
<svg width="264pt" height="331pt"
 viewBox="0.00 0.00 264.00 331.00" xmlns="http://www.w3.org/2000/svg" xmlns:xlink="http://www.w3.org/1999/xlink">
<g id="graph0" class="graph" transform="scale(1 1) rotate(0) translate(4 327)">
<title>Feel::detail::computeNDofForEachSpace&lt; UseComponentsSplit &gt;</title>
<polygon fill="white" stroke="transparent" points="-4,4 -4,-327 260,-327 260,4 -4,4"/>
<!-- Node1 -->
<g id="node1" class="node">
<title>Node1</title>
<g id="a_node1"><a xlink:title=" ">
<polygon fill="#bfbfbf" stroke="black" points="47,-0.5 47,-112.5 256,-112.5 256,-0.5 47,-0.5"/>
<text text-anchor="start" x="55" y="-100.5" font-family="Helvetica,sans-Serif" font-size="10.00">Feel::detail::computeNDof</text>
<text text-anchor="middle" x="151.5" y="-89.5" font-family="Helvetica,sans-Serif" font-size="10.00">ForEachSpace&lt; UseComponentsSplit &gt;</text>
<polyline fill="none" stroke="black" points="47,-82.5 256,-82.5 "/>
<text text-anchor="middle" x="151.5" y="-70.5" font-family="Helvetica,sans-Serif" font-size="10.00"> </text>
<polyline fill="none" stroke="black" points="47,-63.5 256,-63.5 "/>
<text text-anchor="start" x="55" y="-51.5" font-family="Helvetica,sans-Serif" font-size="10.00">+ computeNDofForEachSpace()</text>
<text text-anchor="start" x="55" y="-40.5" font-family="Helvetica,sans-Serif" font-size="10.00">+ indexSplit()</text>
<text text-anchor="start" x="55" y="-29.5" font-family="Helvetica,sans-Serif" font-size="10.00">+ operator()()</text>
<text text-anchor="start" x="55" y="-18.5" font-family="Helvetica,sans-Serif" font-size="10.00">+ operator()()</text>
<text text-anchor="start" x="55" y="-7.5" font-family="Helvetica,sans-Serif" font-size="10.00">+ operator()()</text>
</a>
</g>
</g>
<!-- Node2 -->
<g id="node2" class="node">
<title>Node2</title>
<g id="a_node2"><a xlink:title=" ">
<polygon fill="white" stroke="black" points="0,-160.5 0,-217.5 161,-217.5 161,-160.5 0,-160.5"/>
<text text-anchor="middle" x="80.5" y="-205.5" font-family="Helvetica,sans-Serif" font-size="10.00">std::shared_ptr&lt; IndexSplit &gt;</text>
<polyline fill="none" stroke="black" points="0,-198.5 161,-198.5 "/>
<text text-anchor="middle" x="80.5" y="-186.5" font-family="Helvetica,sans-Serif" font-size="10.00"> </text>
<polyline fill="none" stroke="black" points="0,-179.5 161,-179.5 "/>
<text text-anchor="start" x="8" y="-167.5" font-family="Helvetica,sans-Serif" font-size="10.00">+ operator&#45;&gt;()</text>
</a>
</g>
</g>
<!-- Node2&#45;&gt;Node1 -->
<g id="edge1" class="edge">
<title>Node2&#45;&gt;Node1</title>
<path fill="none" stroke="#404040" d="M89.12,-160.46C92.5,-150.91 96.72,-140.28 101.5,-131 102.81,-128.45 104.19,-125.89 105.63,-123.32"/>
<polygon fill="none" stroke="#404040" points="105.73,-123.15 105.33,-115.95 111.81,-112.81 112.22,-120.01 105.73,-123.15"/>
<text text-anchor="middle" x="139" y="-134" font-family="Helvetica,sans-Serif" font-size="10.00"> +M_indexSplit</text>
</g>
<!-- Node3 -->
<g id="node3" class="node">
<title>Node3</title>
<g id="a_node3"><a xlink:title=" ">
<polygon fill="white" stroke="#bfbfbf" points="48,-265.5 48,-322.5 113,-322.5 113,-265.5 48,-265.5"/>
<text text-anchor="middle" x="80.5" y="-310.5" font-family="Helvetica,sans-Serif" font-size="10.00">IndexSplit</text>
<polyline fill="none" stroke="#bfbfbf" points="48,-303.5 113,-303.5 "/>
<text text-anchor="middle" x="80.5" y="-291.5" font-family="Helvetica,sans-Serif" font-size="10.00"> </text>
<polyline fill="none" stroke="#bfbfbf" points="48,-284.5 113,-284.5 "/>
<text text-anchor="middle" x="80.5" y="-272.5" font-family="Helvetica,sans-Serif" font-size="10.00"> </text>
</a>
</g>
</g>
<!-- Node3&#45;&gt;Node2 -->
<g id="edge2" class="edge">
<title>Node3&#45;&gt;Node2</title>
<path fill="none" stroke="#404040" d="M80.5,-265.4C80.5,-254.55 80.5,-241.87 80.5,-230.05"/>
<polygon fill="none" stroke="#404040" points="80.5,-229.68 76.5,-223.68 80.5,-217.68 84.5,-223.68 80.5,-229.68"/>
<text text-anchor="middle" x="93" y="-239" font-family="Helvetica,sans-Serif" font-size="10.00"> +ptr</text>
</g>
<!-- Node4 -->
<g id="node4" class="node">
<title>Node4</title>
<g id="a_node4"><a xlink:href="classsize__t.html" target="_top" xlink:title=" ">
<polygon fill="white" stroke="#bfbfbf" points="179,-160.5 179,-217.5 224,-217.5 224,-160.5 179,-160.5"/>
<text text-anchor="middle" x="201.5" y="-205.5" font-family="Helvetica,sans-Serif" font-size="10.00">size_t</text>
<polyline fill="none" stroke="#bfbfbf" points="179,-198.5 224,-198.5 "/>
<text text-anchor="middle" x="201.5" y="-186.5" font-family="Helvetica,sans-Serif" font-size="10.00"> </text>
<polyline fill="none" stroke="#bfbfbf" points="179,-179.5 224,-179.5 "/>
<text text-anchor="middle" x="201.5" y="-167.5" font-family="Helvetica,sans-Serif" font-size="10.00"> </text>
</a>
</g>
</g>
<!-- Node4&#45;&gt;Node1 -->
<g id="edge3" class="edge">
<title>Node4&#45;&gt;Node1</title>
<path fill="none" stroke="#404040" d="M190.9,-160.32C186.77,-149.56 181.86,-136.73 176.92,-123.84"/>
<polygon fill="none" stroke="#404040" points="176.88,-123.75 171,-119.58 172.59,-112.55 178.47,-116.72 176.88,-123.75"/>
<text text-anchor="middle" x="216.5" y="-134" font-family="Helvetica,sans-Serif" font-size="10.00"> +M_startSplit</text>
</g>
</g>
</svg>
