<?xml version="1.0" encoding="UTF-8" standalone="no"?>
<!DOCTYPE svg PUBLIC "-//W3C//DTD SVG 1.1//EN"
 "http://www.w3.org/Graphics/SVG/1.1/DTD/svg11.dtd">
<!-- Generated by graphviz version 2.43.0 (0)
 -->
<!-- Title: Feel::Repository::Config Pages: 1 -->
<svg width="357pt" height="492pt"
 viewBox="0.00 0.00 357.00 492.00" xmlns="http://www.w3.org/2000/svg" xmlns:xlink="http://www.w3.org/1999/xlink">
<g id="graph0" class="graph" transform="scale(1 1) rotate(0) translate(4 488)">
<title>Feel::Repository::Config</title>
<polygon fill="white" stroke="transparent" points="-4,4 -4,-488 353,-488 353,4 -4,4"/>
<!-- Node1 -->
<g id="node1" class="node">
<title>Node1</title>
<g id="a_node1"><a xlink:title=" ">
<polygon fill="#bfbfbf" stroke="black" points="89.5,-0.5 89.5,-101.5 220.5,-101.5 220.5,-0.5 89.5,-0.5"/>
<text text-anchor="middle" x="155" y="-89.5" font-family="Helvetica,sans-Serif" font-size="10.00">Feel::Repository::Config</text>
<polyline fill="none" stroke="black" points="89.5,-82.5 220.5,-82.5 "/>
<text text-anchor="middle" x="155" y="-70.5" font-family="Helvetica,sans-Serif" font-size="10.00"> </text>
<polyline fill="none" stroke="black" points="89.5,-63.5 220.5,-63.5 "/>
<text text-anchor="start" x="97.5" y="-51.5" font-family="Helvetica,sans-Serif" font-size="10.00">+ Config()</text>
<text text-anchor="start" x="97.5" y="-40.5" font-family="Helvetica,sans-Serif" font-size="10.00">+ Config()</text>
<text text-anchor="start" x="97.5" y="-29.5" font-family="Helvetica,sans-Serif" font-size="10.00">+ Config()</text>
<text text-anchor="start" x="97.5" y="-18.5" font-family="Helvetica,sans-Serif" font-size="10.00">+ Config()</text>
<text text-anchor="start" x="97.5" y="-7.5" font-family="Helvetica,sans-Serif" font-size="10.00">+ Config()</text>
</a>
</g>
</g>
<!-- Node2 -->
<g id="node2" class="node">
<title>Node2</title>
<g id="a_node2"><a xlink:title=" ">
<polygon fill="white" stroke="#bfbfbf" points="0,-204.5 0,-261.5 38,-261.5 38,-204.5 0,-204.5"/>
<text text-anchor="middle" x="19" y="-249.5" font-family="Helvetica,sans-Serif" font-size="10.00">path</text>
<polyline fill="none" stroke="#bfbfbf" points="0,-242.5 38,-242.5 "/>
<text text-anchor="middle" x="19" y="-230.5" font-family="Helvetica,sans-Serif" font-size="10.00"> </text>
<polyline fill="none" stroke="#bfbfbf" points="0,-223.5 38,-223.5 "/>
<text text-anchor="middle" x="19" y="-211.5" font-family="Helvetica,sans-Serif" font-size="10.00"> </text>
</a>
</g>
</g>
<!-- Node2&#45;&gt;Node1 -->
<g id="edge1" class="edge">
<title>Node2&#45;&gt;Node1</title>
<path fill="none" stroke="#404040" d="M16.15,-204.26C15.08,-179.99 17.15,-144.84 34,-120 45.09,-103.65 61.49,-90.8 78.65,-80.88"/>
<polygon fill="none" stroke="#404040" points="78.84,-80.78 82.22,-74.41 89.4,-75.08 86.02,-81.45 78.84,-80.78"/>
<text text-anchor="middle" x="66" y="-178" font-family="Helvetica,sans-Serif" font-size="10.00"> +exprs</text>
<text text-anchor="middle" x="66" y="-167" font-family="Helvetica,sans-Serif" font-size="10.00">+feelppdb</text>
<text text-anchor="middle" x="66" y="-156" font-family="Helvetica,sans-Serif" font-size="10.00">+logs</text>
<text text-anchor="middle" x="66" y="-145" font-family="Helvetica,sans-Serif" font-size="10.00">+directory</text>
<text text-anchor="middle" x="66" y="-134" font-family="Helvetica,sans-Serif" font-size="10.00">+global_root</text>
<text text-anchor="middle" x="66" y="-123" font-family="Helvetica,sans-Serif" font-size="10.00">+geos</text>
</g>
<!-- Node3 -->
<g id="node3" class="node">
<title>Node3</title>
<g id="a_node3"><a xlink:href="classbool.html" target="_top" xlink:title=" ">
<polygon fill="white" stroke="black" points="85,-204.5 85,-261.5 123,-261.5 123,-204.5 85,-204.5"/>
<text text-anchor="middle" x="104" y="-249.5" font-family="Helvetica,sans-Serif" font-size="10.00">bool</text>
<polyline fill="none" stroke="black" points="85,-242.5 123,-242.5 "/>
<text text-anchor="middle" x="104" y="-230.5" font-family="Helvetica,sans-Serif" font-size="10.00"> </text>
<polyline fill="none" stroke="black" points="85,-223.5 123,-223.5 "/>
<text text-anchor="middle" x="104" y="-211.5" font-family="Helvetica,sans-Serif" font-size="10.00"> </text>
</a>
</g>
</g>
<!-- Node3&#45;&gt;Node1 -->
<g id="edge2" class="edge">
<title>Node3&#45;&gt;Node1</title>
<path fill="none" stroke="#404040" d="M101.88,-204.11C101.03,-180.99 101.91,-147.57 111,-120 111.79,-117.6 112.69,-115.2 113.67,-112.82"/>
<polygon fill="none" stroke="#404040" points="113.74,-112.67 112.67,-105.53 118.84,-101.8 119.91,-108.93 113.74,-112.67"/>
<text text-anchor="middle" x="147" y="-156" font-family="Helvetica,sans-Serif" font-size="10.00"> +append_np</text>
<text text-anchor="middle" x="147" y="-145" font-family="Helvetica,sans-Serif" font-size="10.00">+append_date</text>
</g>
<!-- Node4 -->
<g id="node4" class="node">
<title>Node4</title>
<g id="a_node4"><a xlink:href="structFeel_1_1Repository_1_1Owner.html" target="_top" xlink:title=" ">
<polygon fill="white" stroke="black" points="141,-204.5 141,-261.5 273,-261.5 273,-204.5 141,-204.5"/>
<text text-anchor="middle" x="207" y="-249.5" font-family="Helvetica,sans-Serif" font-size="10.00">Feel::Repository::Owner</text>
<polyline fill="none" stroke="black" points="141,-242.5 273,-242.5 "/>
<text text-anchor="middle" x="207" y="-230.5" font-family="Helvetica,sans-Serif" font-size="10.00"> </text>
<polyline fill="none" stroke="black" points="141,-223.5 273,-223.5 "/>
<text text-anchor="middle" x="207" y="-211.5" font-family="Helvetica,sans-Serif" font-size="10.00"> </text>
</a>
</g>
</g>
<!-- Node4&#45;&gt;Node1 -->
<g id="edge3" class="edge">
<title>Node4&#45;&gt;Node1</title>
<path fill="none" stroke="#404040" d="M202.53,-204.49C198.47,-181.6 191.78,-148.3 183,-120 182.3,-117.76 181.57,-115.49 180.79,-113.21"/>
<polygon fill="none" stroke="#404040" points="180.74,-113.05 174.94,-108.76 176.68,-101.76 182.47,-106.05 180.74,-113.05"/>
<text text-anchor="middle" x="220" y="-150.5" font-family="Helvetica,sans-Serif" font-size="10.00"> +owner</text>
</g>
<!-- Node5 -->
<g id="node5" class="node">
<title>Node5</title>
<g id="a_node5"><a xlink:title="STL class.">
<polygon fill="white" stroke="#bfbfbf" points="174.5,-320.5 174.5,-377.5 239.5,-377.5 239.5,-320.5 174.5,-320.5"/>
<text text-anchor="middle" x="207" y="-365.5" font-family="Helvetica,sans-Serif" font-size="10.00">std::string</text>
<polyline fill="none" stroke="#bfbfbf" points="174.5,-358.5 239.5,-358.5 "/>
<text text-anchor="middle" x="207" y="-346.5" font-family="Helvetica,sans-Serif" font-size="10.00"> </text>
<polyline fill="none" stroke="#bfbfbf" points="174.5,-339.5 239.5,-339.5 "/>
<text text-anchor="middle" x="207" y="-327.5" font-family="Helvetica,sans-Serif" font-size="10.00"> </text>
</a>
</g>
</g>
<!-- Node5&#45;&gt;Node4 -->
<g id="edge4" class="edge">
<title>Node5&#45;&gt;Node4</title>
<path fill="none" stroke="#404040" d="M207,-320.4C207,-306.5 207,-289.39 207,-274.07"/>
<polygon fill="none" stroke="#404040" points="207,-273.74 203,-267.74 207,-261.74 211,-267.74 207,-273.74"/>
<text text-anchor="middle" x="227" y="-294" font-family="Helvetica,sans-Serif" font-size="10.00"> +name</text>
<text text-anchor="middle" x="227" y="-283" font-family="Helvetica,sans-Serif" font-size="10.00">+email</text>
</g>
<!-- Node6 -->
<g id="node6" class="node">
<title>Node6</title>
<g id="a_node6"><a xlink:title="STL class.">
<polygon fill="white" stroke="#bfbfbf" points="155,-415.5 155,-483.5 259,-483.5 259,-415.5 155,-415.5"/>
<text text-anchor="start" x="163" y="-471.5" font-family="Helvetica,sans-Serif" font-size="10.00">std::basic_string&lt;</text>
<text text-anchor="middle" x="207" y="-460.5" font-family="Helvetica,sans-Serif" font-size="10.00"> char &gt;</text>
<polyline fill="none" stroke="#bfbfbf" points="155,-453.5 259,-453.5 "/>
<text text-anchor="middle" x="207" y="-441.5" font-family="Helvetica,sans-Serif" font-size="10.00"> </text>
<polyline fill="none" stroke="#bfbfbf" points="155,-434.5 259,-434.5 "/>
<text text-anchor="middle" x="207" y="-422.5" font-family="Helvetica,sans-Serif" font-size="10.00"> </text>
</a>
</g>
</g>
<!-- Node6&#45;&gt;Node5 -->
<g id="edge5" class="edge">
<title>Node6&#45;&gt;Node5</title>
<path fill="none" stroke="midnightblue" d="M207,-405.38C207,-395.94 207,-386.2 207,-377.57"/>
<polygon fill="none" stroke="midnightblue" points="203.5,-405.43 207,-415.43 210.5,-405.43 203.5,-405.43"/>
</g>
<!-- Node7 -->
<g id="node7" class="node">
<title>Node7</title>
<g id="a_node7"><a xlink:title=" ">
<polygon fill="white" stroke="#bfbfbf" points="291,-204.5 291,-261.5 349,-261.5 349,-204.5 291,-204.5"/>
<text text-anchor="middle" x="320" y="-249.5" font-family="Helvetica,sans-Serif" font-size="10.00">Location</text>
<polyline fill="none" stroke="#bfbfbf" points="291,-242.5 349,-242.5 "/>
<text text-anchor="middle" x="320" y="-230.5" font-family="Helvetica,sans-Serif" font-size="10.00"> </text>
<polyline fill="none" stroke="#bfbfbf" points="291,-223.5 349,-223.5 "/>
<text text-anchor="middle" x="320" y="-211.5" font-family="Helvetica,sans-Serif" font-size="10.00"> </text>
</a>
</g>
</g>
<!-- Node7&#45;&gt;Node1 -->
<g id="edge6" class="edge">
<title>Node7&#45;&gt;Node1</title>
<path fill="none" stroke="#404040" d="M305.02,-204.37C291.29,-180.49 269.43,-145.86 245,-120 240.26,-114.98 235.12,-110.06 229.78,-105.3"/>
<polygon fill="none" stroke="#404040" points="229.75,-105.27 222.59,-104.39 220.64,-97.45 227.8,-98.33 229.75,-105.27"/>
<text text-anchor="middle" x="317.5" y="-150.5" font-family="Helvetica,sans-Serif" font-size="10.00"> +location</text>
</g>
</g>
</svg>
