<?xml version="1.0" encoding="UTF-8" standalone="no"?>
<!DOCTYPE svg PUBLIC "-//W3C//DTD SVG 1.1//EN"
 "http://www.w3.org/Graphics/SVG/1.1/DTD/svg11.dtd">
<!-- Generated by graphviz version 2.43.0 (0)
 -->
<!-- Title: Feel::InterpolationCurl&lt; C &gt; Pages: 1 -->
<svg width="202pt" height="507pt"
 viewBox="0.00 0.00 202.00 507.00" xmlns="http://www.w3.org/2000/svg" xmlns:xlink="http://www.w3.org/1999/xlink">
<g id="graph0" class="graph" transform="scale(1 1) rotate(0) translate(4 503)">
<title>Feel::InterpolationCurl&lt; C &gt;</title>
<polygon fill="white" stroke="transparent" points="-4,4 -4,-503 198,-503 198,4 -4,4"/>
<!-- Node1 -->
<g id="node1" class="node">
<title>Node1</title>
<g id="a_node1"><a xlink:title=" ">
<polygon fill="#bfbfbf" stroke="black" points="20,-0.5 20,-101.5 174,-101.5 174,-0.5 20,-0.5"/>
<text text-anchor="middle" x="97" y="-89.5" font-family="Helvetica,sans-Serif" font-size="10.00">Feel::InterpolationCurl&lt; C &gt;</text>
<polyline fill="none" stroke="black" points="20,-82.5 174,-82.5 "/>
<text text-anchor="middle" x="97" y="-70.5" font-family="Helvetica,sans-Serif" font-size="10.00"> </text>
<polyline fill="none" stroke="black" points="20,-63.5 174,-63.5 "/>
<text text-anchor="start" x="28" y="-51.5" font-family="Helvetica,sans-Serif" font-size="10.00">+ InterpolationCurl()</text>
<text text-anchor="start" x="28" y="-40.5" font-family="Helvetica,sans-Serif" font-size="10.00">+ InterpolationCurl()</text>
<text text-anchor="start" x="28" y="-29.5" font-family="Helvetica,sans-Serif" font-size="10.00">+ InterpolationCurl()</text>
<text text-anchor="start" x="28" y="-18.5" font-family="Helvetica,sans-Serif" font-size="10.00">+ InterpolationCurl()</text>
<text text-anchor="start" x="28" y="-7.5" font-family="Helvetica,sans-Serif" font-size="10.00">+ operator=()</text>
</a>
</g>
</g>
<!-- Node2 -->
<g id="node2" class="node">
<title>Node2</title>
<g id="a_node2"><a xlink:href="classFeel_1_1InterpolationTypeBase.html" target="_top" xlink:title=" ">
<polygon fill="white" stroke="#bfbfbf" points="0,-138.5 0,-305.5 194,-305.5 194,-138.5 0,-138.5"/>
<text text-anchor="start" x="8" y="-293.5" font-family="Helvetica,sans-Serif" font-size="10.00">Feel::InterpolationTypeBase</text>
<text text-anchor="start" x="8" y="-282.5" font-family="Helvetica,sans-Serif" font-size="10.00">&lt; is_conforming&lt; C &gt;, interpolation</text>
<text text-anchor="middle" x="97" y="-271.5" font-family="Helvetica,sans-Serif" font-size="10.00">_operand_type::CURL &gt;</text>
<polyline fill="none" stroke="#bfbfbf" points="0,-264.5 194,-264.5 "/>
<text text-anchor="start" x="8" y="-252.5" font-family="Helvetica,sans-Serif" font-size="10.00">+ interpolation_operand</text>
<text text-anchor="start" x="8" y="-241.5" font-family="Helvetica,sans-Serif" font-size="10.00">+ is_conforming</text>
<polyline fill="none" stroke="#bfbfbf" points="0,-234.5 194,-234.5 "/>
<text text-anchor="start" x="8" y="-222.5" font-family="Helvetica,sans-Serif" font-size="10.00">+ InterpolationTypeBase()</text>
<text text-anchor="start" x="8" y="-211.5" font-family="Helvetica,sans-Serif" font-size="10.00">+ InterpolationTypeBase()</text>
<text text-anchor="start" x="8" y="-200.5" font-family="Helvetica,sans-Serif" font-size="10.00">+ InterpolationTypeBase()</text>
<text text-anchor="start" x="8" y="-189.5" font-family="Helvetica,sans-Serif" font-size="10.00">+ InterpolationTypeBase()</text>
<text text-anchor="start" x="8" y="-178.5" font-family="Helvetica,sans-Serif" font-size="10.00">+ operator=()</text>
<text text-anchor="start" x="8" y="-167.5" font-family="Helvetica,sans-Serif" font-size="10.00">+ operator=()</text>
<text text-anchor="start" x="8" y="-156.5" font-family="Helvetica,sans-Serif" font-size="10.00">+ operand()</text>
<text text-anchor="start" x="8" y="-145.5" font-family="Helvetica,sans-Serif" font-size="10.00">+ requiresDerivatives()</text>
</a>
</g>
</g>
<!-- Node2&#45;&gt;Node1 -->
<g id="edge1" class="edge">
<title>Node2&#45;&gt;Node1</title>
<path fill="none" stroke="midnightblue" d="M97,-128.47C97,-119.28 97,-110.21 97,-101.71"/>
<polygon fill="none" stroke="midnightblue" points="93.5,-128.48 97,-138.48 100.5,-128.48 93.5,-128.48"/>
</g>
<!-- Node3 -->
<g id="node3" class="node">
<title>Node3</title>
<g id="a_node3"><a xlink:href="classFeel_1_1InterpolationTypeBaseBase.html" target="_top" xlink:title=" ">
<polygon fill="white" stroke="#bfbfbf" points="13,-342.5 13,-498.5 181,-498.5 181,-342.5 13,-342.5"/>
<text text-anchor="start" x="21" y="-486.5" font-family="Helvetica,sans-Serif" font-size="10.00">Feel::InterpolationTypeBase</text>
<text text-anchor="middle" x="97" y="-475.5" font-family="Helvetica,sans-Serif" font-size="10.00">Base&lt; C, O &gt;</text>
<polyline fill="none" stroke="#bfbfbf" points="13,-468.5 181,-468.5 "/>
<text text-anchor="start" x="21" y="-456.5" font-family="Helvetica,sans-Serif" font-size="10.00">+ interpolation_operand</text>
<text text-anchor="start" x="21" y="-445.5" font-family="Helvetica,sans-Serif" font-size="10.00">+ is_conforming</text>
<polyline fill="none" stroke="#bfbfbf" points="13,-438.5 181,-438.5 "/>
<text text-anchor="start" x="21" y="-426.5" font-family="Helvetica,sans-Serif" font-size="10.00">+ componentsAreSamePoint()</text>
<text text-anchor="start" x="21" y="-415.5" font-family="Helvetica,sans-Serif" font-size="10.00">+ InterpolationTypeBaseBase()</text>
<text text-anchor="start" x="21" y="-404.5" font-family="Helvetica,sans-Serif" font-size="10.00">+ InterpolationTypeBaseBase()</text>
<text text-anchor="start" x="21" y="-393.5" font-family="Helvetica,sans-Serif" font-size="10.00">+ InterpolationTypeBaseBase()</text>
<text text-anchor="start" x="21" y="-382.5" font-family="Helvetica,sans-Serif" font-size="10.00">+ InterpolationTypeBaseBase()</text>
<text text-anchor="start" x="21" y="-371.5" font-family="Helvetica,sans-Serif" font-size="10.00">and 5 more...</text>
<text text-anchor="start" x="21" y="-360.5" font-family="Helvetica,sans-Serif" font-size="10.00">+ interpolationOperand()</text>
<text text-anchor="start" x="21" y="-349.5" font-family="Helvetica,sans-Serif" font-size="10.00">+ isConforming()</text>
</a>
</g>
</g>
<!-- Node3&#45;&gt;Node2 -->
<g id="edge2" class="edge">
<title>Node3&#45;&gt;Node2</title>
<path fill="none" stroke="midnightblue" d="M97,-332.15C97,-323.36 97,-314.45 97,-305.71"/>
<polygon fill="none" stroke="midnightblue" points="93.5,-332.4 97,-342.4 100.5,-332.4 93.5,-332.4"/>
</g>
</g>
</svg>
