<?xml version="1.0" encoding="UTF-8" standalone="no"?>
<!DOCTYPE svg PUBLIC "-//W3C//DTD SVG 1.1//EN"
 "http://www.w3.org/Graphics/SVG/1.1/DTD/svg11.dtd">
<!-- Generated by graphviz version 2.43.0 (0)
 -->
<!-- Title: Feel::FeelModels::ModelMesh&lt; IndexType &gt;::MeshAdaptation::Event Pages: 1 -->
<svg width="566pt" height="237pt"
 viewBox="0.00 0.00 566.00 237.00" xmlns="http://www.w3.org/2000/svg" xmlns:xlink="http://www.w3.org/1999/xlink">
<g id="graph0" class="graph" transform="scale(1 1) rotate(0) translate(4 233)">
<title>Feel::FeelModels::ModelMesh&lt; IndexType &gt;::MeshAdaptation::Event</title>
<polygon fill="white" stroke="transparent" points="-4,4 -4,-233 562,-233 562,4 -4,4"/>
<!-- Node1 -->
<g id="node1" class="node">
<title>Node1</title>
<g id="a_node1"><a xlink:title=" ">
<polygon fill="#bfbfbf" stroke="black" points="175,-149.5 175,-228.5 383,-228.5 383,-149.5 175,-149.5"/>
<text text-anchor="start" x="183" y="-216.5" font-family="Helvetica,sans-Serif" font-size="10.00">Feel::FeelModels::ModelMesh</text>
<text text-anchor="middle" x="279" y="-205.5" font-family="Helvetica,sans-Serif" font-size="10.00">&lt; IndexType &gt;::MeshAdaptation::Event</text>
<polyline fill="none" stroke="black" points="175,-198.5 383,-198.5 "/>
<text text-anchor="middle" x="279" y="-186.5" font-family="Helvetica,sans-Serif" font-size="10.00"> </text>
<polyline fill="none" stroke="black" points="175,-179.5 383,-179.5 "/>
<text text-anchor="start" x="183" y="-167.5" font-family="Helvetica,sans-Serif" font-size="10.00">+ type()</text>
<text text-anchor="start" x="183" y="-156.5" font-family="Helvetica,sans-Serif" font-size="10.00">+ ~Event()</text>
</a>
</g>
</g>
<!-- Node2 -->
<g id="node2" class="node">
<title>Node2</title>
<g id="a_node2"><a xlink:href="structFeel_1_1FeelModels_1_1ModelMesh_1_1MeshAdaptation_1_1EventAfterImport.html" target="_top" xlink:title=" ">
<polygon fill="white" stroke="#bfbfbf" points="0,-17 0,-96 174,-96 174,-17 0,-17"/>
<text text-anchor="start" x="8" y="-84" font-family="Helvetica,sans-Serif" font-size="10.00">Feel::FeelModels::ModelMesh</text>
<text text-anchor="start" x="8" y="-73" font-family="Helvetica,sans-Serif" font-size="10.00">&lt; IndexType &gt;::MeshAdaptation</text>
<text text-anchor="middle" x="87" y="-62" font-family="Helvetica,sans-Serif" font-size="10.00">::EventAfterImport</text>
<polyline fill="none" stroke="#bfbfbf" points="0,-55 174,-55 "/>
<text text-anchor="middle" x="87" y="-43" font-family="Helvetica,sans-Serif" font-size="10.00"> </text>
<polyline fill="none" stroke="#bfbfbf" points="0,-36 174,-36 "/>
<text text-anchor="start" x="8" y="-24" font-family="Helvetica,sans-Serif" font-size="10.00">+ type()</text>
</a>
</g>
</g>
<!-- Node1&#45;&gt;Node2 -->
<g id="edge1" class="edge">
<title>Node1&#45;&gt;Node2</title>
<path fill="none" stroke="midnightblue" d="M213.61,-143.55C190.89,-128.12 165.63,-110.94 143.68,-96.03"/>
<polygon fill="none" stroke="midnightblue" points="211.94,-146.65 222.17,-149.38 215.87,-140.86 211.94,-146.65"/>
</g>
<!-- Node3 -->
<g id="node3" class="node">
<title>Node3</title>
<g id="a_node3"><a xlink:href="structFeel_1_1FeelModels_1_1ModelMesh_1_1MeshAdaptation_1_1EventAfterInit.html" target="_top" xlink:title=" ">
<polygon fill="white" stroke="#bfbfbf" points="192,-17 192,-96 366,-96 366,-17 192,-17"/>
<text text-anchor="start" x="200" y="-84" font-family="Helvetica,sans-Serif" font-size="10.00">Feel::FeelModels::ModelMesh</text>
<text text-anchor="start" x="200" y="-73" font-family="Helvetica,sans-Serif" font-size="10.00">&lt; IndexType &gt;::MeshAdaptation</text>
<text text-anchor="middle" x="279" y="-62" font-family="Helvetica,sans-Serif" font-size="10.00">::EventAfterInit</text>
<polyline fill="none" stroke="#bfbfbf" points="192,-55 366,-55 "/>
<text text-anchor="middle" x="279" y="-43" font-family="Helvetica,sans-Serif" font-size="10.00"> </text>
<polyline fill="none" stroke="#bfbfbf" points="192,-36 366,-36 "/>
<text text-anchor="start" x="200" y="-24" font-family="Helvetica,sans-Serif" font-size="10.00">+ type()</text>
</a>
</g>
</g>
<!-- Node1&#45;&gt;Node3 -->
<g id="edge2" class="edge">
<title>Node1&#45;&gt;Node3</title>
<path fill="none" stroke="midnightblue" d="M279,-139.15C279,-125.03 279,-109.81 279,-96.38"/>
<polygon fill="none" stroke="midnightblue" points="275.5,-139.2 279,-149.2 282.5,-139.2 275.5,-139.2"/>
</g>
<!-- Node4 -->
<g id="node4" class="node">
<title>Node4</title>
<g id="a_node4"><a xlink:href="structFeel_1_1FeelModels_1_1ModelMesh_1_1MeshAdaptation_1_1EventEachTimeStep.html" target="_top" xlink:title=" ">
<polygon fill="white" stroke="#bfbfbf" points="384,-0.5 384,-112.5 558,-112.5 558,-0.5 384,-0.5"/>
<text text-anchor="start" x="392" y="-100.5" font-family="Helvetica,sans-Serif" font-size="10.00">Feel::FeelModels::ModelMesh</text>
<text text-anchor="start" x="392" y="-89.5" font-family="Helvetica,sans-Serif" font-size="10.00">&lt; IndexType &gt;::MeshAdaptation</text>
<text text-anchor="middle" x="471" y="-78.5" font-family="Helvetica,sans-Serif" font-size="10.00">::EventEachTimeStep</text>
<polyline fill="none" stroke="#bfbfbf" points="384,-71.5 558,-71.5 "/>
<text text-anchor="middle" x="471" y="-59.5" font-family="Helvetica,sans-Serif" font-size="10.00"> </text>
<polyline fill="none" stroke="#bfbfbf" points="384,-52.5 558,-52.5 "/>
<text text-anchor="start" x="392" y="-40.5" font-family="Helvetica,sans-Serif" font-size="10.00">+ currentIndex()</text>
<text text-anchor="start" x="392" y="-29.5" font-family="Helvetica,sans-Serif" font-size="10.00">+ currentTime()</text>
<text text-anchor="start" x="392" y="-18.5" font-family="Helvetica,sans-Serif" font-size="10.00">+ EventEachTimeStep()</text>
<text text-anchor="start" x="392" y="-7.5" font-family="Helvetica,sans-Serif" font-size="10.00">+ type()</text>
</a>
</g>
</g>
<!-- Node1&#45;&gt;Node4 -->
<g id="edge3" class="edge">
<title>Node1&#45;&gt;Node4</title>
<path fill="none" stroke="midnightblue" d="M344.3,-143.62C358.92,-133.68 374.6,-123.02 389.78,-112.71"/>
<polygon fill="none" stroke="midnightblue" points="342.13,-140.86 335.83,-149.38 346.06,-146.65 342.13,-140.86"/>
</g>
</g>
</svg>
