<?xml version="1.0" encoding="UTF-8" standalone="no"?>
<!DOCTYPE svg PUBLIC "-//W3C//DTD SVG 1.1//EN"
 "http://www.w3.org/Graphics/SVG/1.1/DTD/svg11.dtd">
<!-- Generated by graphviz version 2.43.0 (0)
 -->
<!-- Title: Feel::PeriodicEntity Pages: 1 -->
<svg width="238pt" height="287pt"
 viewBox="0.00 0.00 238.00 287.00" xmlns="http://www.w3.org/2000/svg" xmlns:xlink="http://www.w3.org/1999/xlink">
<g id="graph0" class="graph" transform="scale(1 1) rotate(0) translate(4 283)">
<title>Feel::PeriodicEntity</title>
<polygon fill="white" stroke="transparent" points="-4,4 -4,-283 234,-283 234,4 -4,4"/>
<!-- Node1 -->
<g id="node1" class="node">
<title>Node1</title>
<g id="a_node1"><a xlink:title=" ">
<polygon fill="#bfbfbf" stroke="black" points="0,-0.5 0,-57.5 110,-57.5 110,-0.5 0,-0.5"/>
<text text-anchor="middle" x="55" y="-45.5" font-family="Helvetica,sans-Serif" font-size="10.00">Feel::PeriodicEntity</text>
<polyline fill="none" stroke="black" points="0,-38.5 110,-38.5 "/>
<text text-anchor="middle" x="55" y="-26.5" font-family="Helvetica,sans-Serif" font-size="10.00"> </text>
<polyline fill="none" stroke="black" points="0,-19.5 110,-19.5 "/>
<text text-anchor="start" x="8" y="-7.5" font-family="Helvetica,sans-Serif" font-size="10.00">+ PeriodicEntity()</text>
</a>
</g>
</g>
<!-- Node2 -->
<g id="node2" class="node">
<title>Node2</title>
<g id="a_node2"><a xlink:href="classint.html" target="_top" xlink:title=" ">
<polygon fill="white" stroke="#bfbfbf" points="40.5,-221.5 40.5,-278.5 69.5,-278.5 69.5,-221.5 40.5,-221.5"/>
<text text-anchor="middle" x="55" y="-266.5" font-family="Helvetica,sans-Serif" font-size="10.00">int</text>
<polyline fill="none" stroke="#bfbfbf" points="40.5,-259.5 69.5,-259.5 "/>
<text text-anchor="middle" x="55" y="-247.5" font-family="Helvetica,sans-Serif" font-size="10.00"> </text>
<polyline fill="none" stroke="#bfbfbf" points="40.5,-240.5 69.5,-240.5 "/>
<text text-anchor="middle" x="55" y="-228.5" font-family="Helvetica,sans-Serif" font-size="10.00"> </text>
</a>
</g>
</g>
<!-- Node2&#45;&gt;Node1 -->
<g id="edge1" class="edge">
<title>Node2&#45;&gt;Node1</title>
<path fill="none" stroke="#404040" d="M52.56,-221.14C51.21,-204.32 49.68,-182.45 49,-163 48.1,-137.24 47.97,-130.76 49,-105 49.45,-93.62 50.3,-81.29 51.21,-69.98"/>
<polygon fill="none" stroke="#404040" points="51.23,-69.71 47.75,-63.39 52.25,-57.75 55.72,-64.07 51.23,-69.71"/>
<text text-anchor="middle" x="70.5" y="-142.5" font-family="Helvetica,sans-Serif" font-size="10.00"> +dim</text>
<text text-anchor="middle" x="70.5" y="-131.5" font-family="Helvetica,sans-Serif" font-size="10.00">+master</text>
<text text-anchor="middle" x="70.5" y="-120.5" font-family="Helvetica,sans-Serif" font-size="10.00">+slave</text>
</g>
<!-- Node3 -->
<g id="node3" class="node">
<title>Node3</title>
<g id="a_node3"><a xlink:title=" ">
<polygon fill="white" stroke="black" points="100.5,-105.5 100.5,-162.5 213.5,-162.5 213.5,-105.5 100.5,-105.5"/>
<text text-anchor="middle" x="157" y="-150.5" font-family="Helvetica,sans-Serif" font-size="10.00">std::map&lt; int, int &gt;</text>
<polyline fill="none" stroke="black" points="100.5,-143.5 213.5,-143.5 "/>
<text text-anchor="middle" x="157" y="-131.5" font-family="Helvetica,sans-Serif" font-size="10.00"> </text>
<polyline fill="none" stroke="black" points="100.5,-124.5 213.5,-124.5 "/>
<text text-anchor="middle" x="157" y="-112.5" font-family="Helvetica,sans-Serif" font-size="10.00"> </text>
</a>
</g>
</g>
<!-- Node2&#45;&gt;Node3 -->
<g id="edge3" class="edge">
<title>Node2&#45;&gt;Node3</title>
<path fill="none" stroke="#404040" d="M69.61,-232.67C83.75,-216.86 105.68,-192.36 124.03,-171.85"/>
<polygon fill="none" stroke="#404040" points="124.17,-171.69 125.19,-164.56 132.17,-162.75 131.15,-169.89 124.17,-171.69"/>
<text text-anchor="middle" x="144" y="-195" font-family="Helvetica,sans-Serif" font-size="10.00"> +elements</text>
<text text-anchor="middle" x="144" y="-184" font-family="Helvetica,sans-Serif" font-size="10.00">+keys</text>
</g>
<!-- Node3&#45;&gt;Node1 -->
<g id="edge2" class="edge">
<title>Node3&#45;&gt;Node1</title>
<path fill="none" stroke="#404040" d="M129.67,-105.4C117.78,-93.39 103.68,-79.16 90.96,-66.31"/>
<polygon fill="none" stroke="#404040" points="90.85,-66.2 83.79,-64.76 82.41,-57.68 89.47,-59.13 90.85,-66.2"/>
<text text-anchor="middle" x="169.5" y="-79" font-family="Helvetica,sans-Serif" font-size="10.00"> +correspondingVertices</text>
</g>
</g>
</svg>
