<?xml version="1.0" encoding="UTF-8" standalone="no"?>
<!DOCTYPE svg PUBLIC "-//W3C//DTD SVG 1.1//EN"
 "http://www.w3.org/Graphics/SVG/1.1/DTD/svg11.dtd">
<!-- Generated by graphviz version 2.43.0 (0)
 -->
<!-- Title: Feel::vf::SymbolExprComponentSuffix Pages: 1 -->
<svg width="181pt" height="332pt"
 viewBox="0.00 0.00 181.00 332.00" xmlns="http://www.w3.org/2000/svg" xmlns:xlink="http://www.w3.org/1999/xlink">
<g id="graph0" class="graph" transform="scale(1 1) rotate(0) translate(4 328)">
<title>Feel::vf::SymbolExprComponentSuffix</title>
<polygon fill="white" stroke="transparent" points="-4,4 -4,-328 177,-328 177,4 -4,4"/>
<!-- Node1 -->
<g id="node1" class="node">
<title>Node1</title>
<g id="a_node1"><a xlink:title=" ">
<polygon fill="#bfbfbf" stroke="black" points="0,-0.5 0,-123.5 173,-123.5 173,-0.5 0,-0.5"/>
<text text-anchor="start" x="8" y="-111.5" font-family="Helvetica,sans-Serif" font-size="10.00">Feel::vf::SymbolExprComponent</text>
<text text-anchor="middle" x="86.5" y="-100.5" font-family="Helvetica,sans-Serif" font-size="10.00">Suffix</text>
<polyline fill="none" stroke="black" points="0,-93.5 173,-93.5 "/>
<text text-anchor="middle" x="86.5" y="-81.5" font-family="Helvetica,sans-Serif" font-size="10.00"> </text>
<polyline fill="none" stroke="black" points="0,-74.5 173,-74.5 "/>
<text text-anchor="start" x="8" y="-62.5" font-family="Helvetica,sans-Serif" font-size="10.00">+ nComp1()</text>
<text text-anchor="start" x="8" y="-51.5" font-family="Helvetica,sans-Serif" font-size="10.00">+ nComp2()</text>
<text text-anchor="start" x="8" y="-40.5" font-family="Helvetica,sans-Serif" font-size="10.00">+ operator=()</text>
<text text-anchor="start" x="8" y="-29.5" font-family="Helvetica,sans-Serif" font-size="10.00">+ operator=()</text>
<text text-anchor="start" x="8" y="-18.5" font-family="Helvetica,sans-Serif" font-size="10.00">+ print()</text>
<text text-anchor="start" x="8" y="-7.5" font-family="Helvetica,sans-Serif" font-size="10.00">and 4 more...</text>
</a>
</g>
</g>
<!-- Node2 -->
<g id="node2" class="node">
<title>Node2</title>
<g id="a_node2"><a xlink:title=" ">
<polygon fill="white" stroke="black" points="38,-161.5 38,-218.5 135,-218.5 135,-161.5 38,-161.5"/>
<text text-anchor="middle" x="86.5" y="-206.5" font-family="Helvetica,sans-Serif" font-size="10.00">std::vector&lt; T &gt;</text>
<polyline fill="none" stroke="black" points="38,-199.5 135,-199.5 "/>
<text text-anchor="middle" x="86.5" y="-187.5" font-family="Helvetica,sans-Serif" font-size="10.00"> </text>
<polyline fill="none" stroke="black" points="38,-180.5 135,-180.5 "/>
<text text-anchor="middle" x="86.5" y="-168.5" font-family="Helvetica,sans-Serif" font-size="10.00"> </text>
</a>
</g>
</g>
<!-- Node2&#45;&gt;Node1 -->
<g id="edge1" class="edge">
<title>Node2&#45;&gt;Node1</title>
<path fill="none" stroke="midnightblue" d="M86.5,-151.18C86.5,-142.49 86.5,-133.03 86.5,-123.65"/>
<polygon fill="none" stroke="midnightblue" points="83,-151.35 86.5,-161.35 90,-151.35 83,-151.35"/>
</g>
<!-- Node3 -->
<g id="node3" class="node">
<title>Node3</title>
<g id="a_node3"><a xlink:title=" ">
<polygon fill="white" stroke="#bfbfbf" points="72,-266.5 72,-323.5 101,-323.5 101,-266.5 72,-266.5"/>
<text text-anchor="middle" x="86.5" y="-311.5" font-family="Helvetica,sans-Serif" font-size="10.00">T</text>
<polyline fill="none" stroke="#bfbfbf" points="72,-304.5 101,-304.5 "/>
<text text-anchor="middle" x="86.5" y="-292.5" font-family="Helvetica,sans-Serif" font-size="10.00"> </text>
<polyline fill="none" stroke="#bfbfbf" points="72,-285.5 101,-285.5 "/>
<text text-anchor="middle" x="86.5" y="-273.5" font-family="Helvetica,sans-Serif" font-size="10.00"> </text>
</a>
</g>
</g>
<!-- Node3&#45;&gt;Node2 -->
<g id="edge2" class="edge">
<title>Node3&#45;&gt;Node2</title>
<path fill="none" stroke="#404040" d="M86.5,-266.4C86.5,-255.55 86.5,-242.87 86.5,-231.05"/>
<polygon fill="none" stroke="#404040" points="86.5,-230.68 82.5,-224.68 86.5,-218.68 90.5,-224.68 86.5,-230.68"/>
<text text-anchor="middle" x="115.5" y="-240" font-family="Helvetica,sans-Serif" font-size="10.00"> +elements</text>
</g>
</g>
</svg>
