<?xml version="1.0" encoding="UTF-8" standalone="no"?>
<!DOCTYPE svg PUBLIC "-//W3C//DTD SVG 1.1//EN"
 "http://www.w3.org/Graphics/SVG/1.1/DTD/svg11.dtd">
<!-- Generated by graphviz version 2.43.0 (0)
 -->
<!-- Title: Feel::faces_mesh&lt; MeshType, TheTag &gt; Pages: 1 -->
<svg width="160pt" height="182pt"
 viewBox="0.00 0.00 160.00 182.00" xmlns="http://www.w3.org/2000/svg" xmlns:xlink="http://www.w3.org/1999/xlink">
<g id="graph0" class="graph" transform="scale(1 1) rotate(0) translate(4 178)">
<title>Feel::faces_mesh&lt; MeshType, TheTag &gt;</title>
<polygon fill="white" stroke="transparent" points="-4,4 -4,-178 156,-178 156,4 -4,4"/>
<!-- Node1 -->
<g id="node1" class="node">
<title>Node1</title>
<g id="a_node1"><a xlink:title="get the mesh type of topological dimension d+1 if the real dimension of the mesh is d+1">
<polygon fill="#bfbfbf" stroke="black" points="0,-0.5 0,-68.5 152,-68.5 152,-0.5 0,-0.5"/>
<text text-anchor="start" x="8" y="-56.5" font-family="Helvetica,sans-Serif" font-size="10.00">Feel::faces_mesh&lt; MeshType,</text>
<text text-anchor="middle" x="76" y="-45.5" font-family="Helvetica,sans-Serif" font-size="10.00"> TheTag &gt;</text>
<polyline fill="none" stroke="black" points="0,-38.5 152,-38.5 "/>
<text text-anchor="middle" x="76" y="-26.5" font-family="Helvetica,sans-Serif" font-size="10.00"> </text>
<polyline fill="none" stroke="black" points="0,-19.5 152,-19.5 "/>
<text text-anchor="middle" x="76" y="-7.5" font-family="Helvetica,sans-Serif" font-size="10.00"> </text>
</a>
</g>
</g>
<!-- Node2 -->
<g id="node2" class="node">
<title>Node2</title>
<g id="a_node2"><a xlink:href="classint.html" target="_top" xlink:title=" ">
<polygon fill="white" stroke="#bfbfbf" points="61.5,-116.5 61.5,-173.5 90.5,-173.5 90.5,-116.5 61.5,-116.5"/>
<text text-anchor="middle" x="76" y="-161.5" font-family="Helvetica,sans-Serif" font-size="10.00">int</text>
<polyline fill="none" stroke="#bfbfbf" points="61.5,-154.5 90.5,-154.5 "/>
<text text-anchor="middle" x="76" y="-142.5" font-family="Helvetica,sans-Serif" font-size="10.00"> </text>
<polyline fill="none" stroke="#bfbfbf" points="61.5,-135.5 90.5,-135.5 "/>
<text text-anchor="middle" x="76" y="-123.5" font-family="Helvetica,sans-Serif" font-size="10.00"> </text>
</a>
</g>
</g>
<!-- Node2&#45;&gt;Node1 -->
<g id="edge1" class="edge">
<title>Node2&#45;&gt;Node1</title>
<path fill="none" stroke="#404040" d="M76,-116.34C76,-105.53 76,-92.85 76,-80.77"/>
<polygon fill="none" stroke="#404040" points="76,-80.52 72,-74.52 76,-68.52 80,-74.52 76,-80.52"/>
<text text-anchor="middle" x="95.5" y="-90" font-family="Helvetica,sans-Serif" font-size="10.00"> +nOrder</text>
</g>
</g>
</svg>
