<?xml version="1.0" encoding="UTF-8" standalone="no"?>
<!DOCTYPE svg PUBLIC "-//W3C//DTD SVG 1.1//EN"
 "http://www.w3.org/Graphics/SVG/1.1/DTD/svg11.dtd">
<!-- Generated by graphviz version 2.43.0 (0)
 -->
<!-- Title: Feel::strip_comments_tokens&lt; Lexer &gt; Pages: 1 -->
<svg width="160pt" height="204pt"
 viewBox="0.00 0.00 160.00 204.00" xmlns="http://www.w3.org/2000/svg" xmlns:xlink="http://www.w3.org/1999/xlink">
<g id="graph0" class="graph" transform="scale(1 1) rotate(0) translate(4 200)">
<title>Feel::strip_comments_tokens&lt; Lexer &gt;</title>
<polygon fill="white" stroke="transparent" points="-4,4 -4,-200 156,-200 156,4 -4,4"/>
<!-- Node1 -->
<g id="node1" class="node">
<title>Node1</title>
<g id="a_node1"><a xlink:title=" ">
<polygon fill="#bfbfbf" stroke="black" points="0,-0.5 0,-90.5 152,-90.5 152,-0.5 0,-0.5"/>
<text text-anchor="start" x="8" y="-78.5" font-family="Helvetica,sans-Serif" font-size="10.00">Feel::strip_comments</text>
<text text-anchor="middle" x="76" y="-67.5" font-family="Helvetica,sans-Serif" font-size="10.00">_tokens&lt; Lexer &gt;</text>
<polyline fill="none" stroke="black" points="0,-60.5 152,-60.5 "/>
<text text-anchor="start" x="8" y="-48.5" font-family="Helvetica,sans-Serif" font-size="10.00">+ ccomment</text>
<text text-anchor="start" x="8" y="-37.5" font-family="Helvetica,sans-Serif" font-size="10.00">+ cppcomment</text>
<text text-anchor="start" x="8" y="-26.5" font-family="Helvetica,sans-Serif" font-size="10.00">+ endcomment</text>
<polyline fill="none" stroke="black" points="0,-19.5 152,-19.5 "/>
<text text-anchor="start" x="8" y="-7.5" font-family="Helvetica,sans-Serif" font-size="10.00">+ strip_comments_tokens()</text>
</a>
</g>
</g>
<!-- Node2 -->
<g id="node2" class="node">
<title>Node2</title>
<g id="a_node2"><a xlink:href="classspirit_1_1lex_1_1lexer.html" target="_top" xlink:title=" ">
<polygon fill="white" stroke="#bfbfbf" points="29.5,-127.5 29.5,-195.5 122.5,-195.5 122.5,-127.5 29.5,-127.5"/>
<text text-anchor="start" x="37.5" y="-183.5" font-family="Helvetica,sans-Serif" font-size="10.00">spirit::lex::lexer</text>
<text text-anchor="middle" x="76" y="-172.5" font-family="Helvetica,sans-Serif" font-size="10.00">&lt; Lexer &gt;</text>
<polyline fill="none" stroke="#bfbfbf" points="29.5,-165.5 122.5,-165.5 "/>
<text text-anchor="middle" x="76" y="-153.5" font-family="Helvetica,sans-Serif" font-size="10.00"> </text>
<polyline fill="none" stroke="#bfbfbf" points="29.5,-146.5 122.5,-146.5 "/>
<text text-anchor="middle" x="76" y="-134.5" font-family="Helvetica,sans-Serif" font-size="10.00"> </text>
</a>
</g>
</g>
<!-- Node2&#45;&gt;Node1 -->
<g id="edge1" class="edge">
<title>Node2&#45;&gt;Node1</title>
<path fill="none" stroke="midnightblue" d="M76,-116.97C76,-108.35 76,-99.28 76,-90.64"/>
<polygon fill="none" stroke="midnightblue" points="72.5,-117.22 76,-127.22 79.5,-117.22 72.5,-117.22"/>
</g>
</g>
</svg>
