<?xml version="1.0" encoding="UTF-8" standalone="no"?>
<!DOCTYPE svg PUBLIC "-//W3C//DTD SVG 1.1//EN"
 "http://www.w3.org/Graphics/SVG/1.1/DTD/svg11.dtd">
<!-- Generated by graphviz version 2.43.0 (0)
 -->
<!-- Title: Feel::detail::InitializeSpace&lt; SpaceType &gt; Pages: 1 -->
<!--zoomable 590 -->
<svg id="main" version="1.1" xmlns="http://www.w3.org/2000/svg" xmlns:xlink="http://www.w3.org/1999/xlink" xml:space="preserve" onload="init(evt)">
<style type="text/css"><![CDATA[
.edge:hover path { stroke: red; }
.edge:hover polygon { stroke: red; fill: red; }
]]></style>
<script type="text/javascript"><![CDATA[
var edges = document.getElementsByTagName('g');
if (edges && edges.length) {
  for (var i=0;i<edges.length;i++) {
    if (edges[i].id.substr(0,4)=='edge') {
      edges[i].setAttribute('class','edge');
    }
  }
}
]]></script>
        <defs>
                <circle id="rim" cx="0" cy="0" r="7"/>
                <circle id="rim2" cx="0" cy="0" r="3.5"/>
                <g id="zoomPlus">
                        <use xlink:href="#rim" fill="#404040">
                                <set attributeName="fill" to="#808080" begin="zoomplus.mouseover" end="zoomplus.mouseout"/>
                        </use>
                        <path d="M-4,0h8M0,-4v8" fill="none" stroke="white" stroke-width="1.5" pointer-events="none"/>
                </g>
                <g id="zoomMin">
                        <use xlink:href="#rim" fill="#404040">
                                <set attributeName="fill" to="#808080" begin="zoomminus.mouseover" end="zoomminus.mouseout"/>
                        </use>
                        <path d="M-4,0h8" fill="none" stroke="white" stroke-width="1.5" pointer-events="none"/>
                </g>
                <g id="dirArrow">
                        <path fill="none" stroke="white" stroke-width="1.5" d="M0,-3.0v7 M-2.5,-0.5L0,-3.0L2.5,-0.5"/>
                </g>
               <g id="resetDef">
                       <use xlink:href="#rim2" fill="#404040">
                               <set attributeName="fill" to="#808080" begin="reset.mouseover" end="reset.mouseout"/>
                       </use>
               </g>
        </defs>

<script type="text/javascript">
var viewWidth = 969;
var viewHeight = 590;
var sectionId = 'dynsection-0';
</script>
<script xlink:href="svgpan.js"/>
<svg id="graph" class="graph">
<g id="viewport">
<title>Feel::detail::InitializeSpace&lt; SpaceType &gt;</title>
<polygon fill="white" stroke="transparent" points="-4,4 -4,-586 964.5,-586 964.5,4 -4,4"/>
<!-- Node1 -->
<g id="node1" class="node">
<title>Node1</title>
<g id="a_node1"><a xlink:title=" ">
<polygon fill="#bfbfbf" stroke="black" points="402,-0.5 402,-79.5 522,-79.5 522,-0.5 402,-0.5"/>
<text text-anchor="start" x="410" y="-67.5" font-family="Helvetica,sans-Serif" font-size="10.00">Feel::detail::Initialize</text>
<text text-anchor="middle" x="462" y="-56.5" font-family="Helvetica,sans-Serif" font-size="10.00">Space&lt; SpaceType &gt;</text>
<polyline fill="none" stroke="black" points="402,-49.5 522,-49.5 "/>
<text text-anchor="middle" x="462" y="-37.5" font-family="Helvetica,sans-Serif" font-size="10.00"> </text>
<polyline fill="none" stroke="black" points="402,-30.5 522,-30.5 "/>
<text text-anchor="start" x="410" y="-18.5" font-family="Helvetica,sans-Serif" font-size="10.00">+ InitializeSpace()</text>
<text text-anchor="start" x="410" y="-7.5" font-family="Helvetica,sans-Serif" font-size="10.00">+ operator()()</text>
</a>
</g>
</g>
<!-- Node2 -->
<g id="node2" class="node">
<title>Node2</title>
<g id="a_node2"><a xlink:title=" ">
<polygon fill="white" stroke="#bfbfbf" points="0,-133 0,-190 56,-190 56,-133 0,-133"/>
<text text-anchor="middle" x="28" y="-178" font-family="Helvetica,sans-Serif" font-size="10.00">uint16_t</text>
<polyline fill="none" stroke="#bfbfbf" points="0,-171 56,-171 "/>
<text text-anchor="middle" x="28" y="-159" font-family="Helvetica,sans-Serif" font-size="10.00"> </text>
<polyline fill="none" stroke="#bfbfbf" points="0,-152 56,-152 "/>
<text text-anchor="middle" x="28" y="-140" font-family="Helvetica,sans-Serif" font-size="10.00"> </text>
</a>
</g>
</g>
<!-- Node2&#45;&gt;Node1 -->
<g id="edge1" class="edge">
<title>Node2&#45;&gt;Node1</title>
<path fill="none" stroke="#404040" d="M56.18,-132.93C59.05,-130.77 62.01,-128.75 65,-127 100.19,-106.44 112.53,-108.15 152,-98 232.36,-77.33 326.29,-61.14 389.52,-51.39"/>
<polygon fill="none" stroke="#404040" points="389.88,-51.33 395.21,-46.47 401.74,-49.52 396.41,-54.38 389.88,-51.33"/>
<text text-anchor="middle" x="180" y="-101" font-family="Helvetica,sans-Serif" font-size="10.00"> +M_cursor</text>
</g>
<!-- Node3 -->
<g id="node3" class="node">
<title>Node3</title>
<g id="a_node3"><a xlink:title=" ">
<polygon fill="white" stroke="#bfbfbf" points="74,-133 74,-190 158,-190 158,-133 74,-133"/>
<text text-anchor="middle" x="116" y="-178" font-family="Helvetica,sans-Serif" font-size="10.00">mesh_ptrtype</text>
<polyline fill="none" stroke="#bfbfbf" points="74,-171 158,-171 "/>
<text text-anchor="middle" x="116" y="-159" font-family="Helvetica,sans-Serif" font-size="10.00"> </text>
<polyline fill="none" stroke="#bfbfbf" points="74,-152 158,-152 "/>
<text text-anchor="middle" x="116" y="-140" font-family="Helvetica,sans-Serif" font-size="10.00"> </text>
</a>
</g>
</g>
<!-- Node3&#45;&gt;Node1 -->
<g id="edge2" class="edge">
<title>Node3&#45;&gt;Node1</title>
<path fill="none" stroke="#404040" d="M156.49,-132.89C159.99,-130.81 163.53,-128.82 167,-127 238.35,-89.67 328.11,-66.46 389.77,-53.7"/>
<polygon fill="none" stroke="#404040" points="389.96,-53.67 395.04,-48.56 401.72,-51.29 396.63,-56.4 389.96,-53.67"/>
<text text-anchor="middle" x="254.5" y="-101" font-family="Helvetica,sans-Serif" font-size="10.00"> +M_mesh</text>
</g>
<!-- Node4 -->
<g id="node4" class="node">
<title>Node4</title>
<g id="a_node4"><a xlink:title=" ">
<polygon fill="white" stroke="#bfbfbf" points="176.5,-127.5 176.5,-195.5 313.5,-195.5 313.5,-127.5 176.5,-127.5"/>
<text text-anchor="start" x="184.5" y="-183.5" font-family="Helvetica,sans-Serif" font-size="10.00">std::vector&lt; worldcomm</text>
<text text-anchor="middle" x="245" y="-172.5" font-family="Helvetica,sans-Serif" font-size="10.00">_ptr_t &gt;</text>
<polyline fill="none" stroke="#bfbfbf" points="176.5,-165.5 313.5,-165.5 "/>
<text text-anchor="middle" x="245" y="-153.5" font-family="Helvetica,sans-Serif" font-size="10.00"> </text>
<polyline fill="none" stroke="#bfbfbf" points="176.5,-146.5 313.5,-146.5 "/>
<text text-anchor="middle" x="245" y="-134.5" font-family="Helvetica,sans-Serif" font-size="10.00"> </text>
</a>
</g>
</g>
<!-- Node4&#45;&gt;Node1 -->
<g id="edge3" class="edge">
<title>Node4&#45;&gt;Node1</title>
<path fill="none" stroke="#404040" d="M274.21,-127.49C284.71,-117.03 297.15,-106.1 310,-98 334.51,-82.56 363.84,-70.32 390.17,-61.22"/>
<polygon fill="none" stroke="#404040" points="390.26,-61.19 394.68,-55.49 401.64,-57.38 397.22,-63.07 390.26,-61.19"/>
<text text-anchor="middle" x="355.5" y="-101" font-family="Helvetica,sans-Serif" font-size="10.00"> +M_worldsComm</text>
</g>
<!-- Node5 -->
<g id="node5" class="node">
<title>Node5</title>
<g id="a_node5"><a xlink:title="STL class.">
<polygon fill="white" stroke="#bfbfbf" points="186,-326 186,-383 304,-383 304,-326 186,-326"/>
<text text-anchor="middle" x="245" y="-371" font-family="Helvetica,sans-Serif" font-size="10.00">std::shared_ptr&lt; T &gt;</text>
<polyline fill="none" stroke="#bfbfbf" points="186,-364 304,-364 "/>
<text text-anchor="middle" x="245" y="-352" font-family="Helvetica,sans-Serif" font-size="10.00"> </text>
<polyline fill="none" stroke="#bfbfbf" points="186,-345 304,-345 "/>
<text text-anchor="start" x="194" y="-333" font-family="Helvetica,sans-Serif" font-size="10.00">+ operator&#45;&gt;()</text>
</a>
</g>
</g>
<!-- Node5&#45;&gt;Node4 -->
<g id="edge4" class="edge">
<title>Node5&#45;&gt;Node4</title>
<path fill="none" stroke="#404040" d="M245,-325.73C245,-294.91 245,-244.7 245,-208.09"/>
<polygon fill="none" stroke="#404040" points="245,-207.77 241,-201.77 245,-195.77 249,-201.77 245,-207.77"/>
<text text-anchor="middle" x="274" y="-217" font-family="Helvetica,sans-Serif" font-size="10.00"> +elements</text>
</g>
<!-- Node6 -->
<g id="node6" class="node">
<title>Node6</title>
<g id="a_node6"><a xlink:title=" ">
<polygon fill="white" stroke="#bfbfbf" points="230.5,-519 230.5,-576 259.5,-576 259.5,-519 230.5,-519"/>
<text text-anchor="middle" x="245" y="-564" font-family="Helvetica,sans-Serif" font-size="10.00">T</text>
<polyline fill="none" stroke="#bfbfbf" points="230.5,-557 259.5,-557 "/>
<text text-anchor="middle" x="245" y="-545" font-family="Helvetica,sans-Serif" font-size="10.00"> </text>
<polyline fill="none" stroke="#bfbfbf" points="230.5,-538 259.5,-538 "/>
<text text-anchor="middle" x="245" y="-526" font-family="Helvetica,sans-Serif" font-size="10.00"> </text>
</a>
</g>
</g>
<!-- Node6&#45;&gt;Node5 -->
<g id="edge5" class="edge">
<title>Node6&#45;&gt;Node5</title>
<path fill="none" stroke="#404040" d="M245,-518.73C245,-486.33 245,-432.52 245,-395.6"/>
<polygon fill="none" stroke="#404040" points="245,-395.31 241,-389.31 245,-383.31 249,-389.31 245,-395.31"/>
<text text-anchor="middle" x="257.5" y="-487" font-family="Helvetica,sans-Serif" font-size="10.00"> +ptr</text>
</g>
<!-- Node7 -->
<g id="node7" class="node">
<title>Node7</title>
<g id="a_node7"><a xlink:title=" ">
<polygon fill="white" stroke="#bfbfbf" points="331.5,-127.5 331.5,-195.5 452.5,-195.5 452.5,-127.5 331.5,-127.5"/>
<text text-anchor="start" x="339.5" y="-183.5" font-family="Helvetica,sans-Serif" font-size="10.00">functionspace_vector</text>
<text text-anchor="middle" x="392" y="-172.5" font-family="Helvetica,sans-Serif" font-size="10.00">_type &amp;</text>
<polyline fill="none" stroke="#bfbfbf" points="331.5,-165.5 452.5,-165.5 "/>
<text text-anchor="middle" x="392" y="-153.5" font-family="Helvetica,sans-Serif" font-size="10.00"> </text>
<polyline fill="none" stroke="#bfbfbf" points="331.5,-146.5 452.5,-146.5 "/>
<text text-anchor="middle" x="392" y="-134.5" font-family="Helvetica,sans-Serif" font-size="10.00"> </text>
</a>
</g>
</g>
<!-- Node7&#45;&gt;Node1 -->
<g id="edge6" class="edge">
<title>Node7&#45;&gt;Node1</title>
<path fill="none" stroke="#404040" d="M398.54,-127.25C401.26,-117.46 404.98,-106.97 410,-98 411.6,-95.14 413.37,-92.31 415.26,-89.52"/>
<polygon fill="none" stroke="#404040" points="415.41,-89.31 415.77,-82.11 422.56,-79.67 422.2,-86.87 415.41,-89.31"/>
<text text-anchor="middle" x="460" y="-101" font-family="Helvetica,sans-Serif" font-size="10.00"> +M_functionspaces</text>
</g>
<!-- Node8 -->
<g id="node8" class="node">
<title>Node8</title>
<g id="a_node8"><a xlink:title=" ">
<polygon fill="white" stroke="#bfbfbf" points="471,-127.5 471,-195.5 593,-195.5 593,-127.5 471,-127.5"/>
<text text-anchor="start" x="479" y="-183.5" font-family="Helvetica,sans-Serif" font-size="10.00">mesh_support_vector</text>
<text text-anchor="middle" x="532" y="-172.5" font-family="Helvetica,sans-Serif" font-size="10.00">_type const &amp;</text>
<polyline fill="none" stroke="#bfbfbf" points="471,-165.5 593,-165.5 "/>
<text text-anchor="middle" x="532" y="-153.5" font-family="Helvetica,sans-Serif" font-size="10.00"> </text>
<polyline fill="none" stroke="#bfbfbf" points="471,-146.5 593,-146.5 "/>
<text text-anchor="middle" x="532" y="-134.5" font-family="Helvetica,sans-Serif" font-size="10.00"> </text>
</a>
</g>
</g>
<!-- Node8&#45;&gt;Node1 -->
<g id="edge7" class="edge">
<title>Node8&#45;&gt;Node1</title>
<path fill="none" stroke="#404040" d="M522.84,-127.4C519.48,-117.61 515.19,-107.09 510,-98 508.4,-95.2 506.66,-92.41 504.81,-89.64"/>
<polygon fill="none" stroke="#404040" points="504.76,-89.57 498.02,-87.02 497.78,-79.81 504.52,-82.36 504.76,-89.57"/>
<text text-anchor="middle" x="559.5" y="-101" font-family="Helvetica,sans-Serif" font-size="10.00"> +M_meshSupport</text>
</g>
<!-- Node9 -->
<g id="node9" class="node">
<title>Node9</title>
<g id="a_node9"><a xlink:title=" ">
<polygon fill="white" stroke="#bfbfbf" points="611,-127.5 611,-195.5 717,-195.5 717,-127.5 611,-127.5"/>
<text text-anchor="start" x="619" y="-183.5" font-family="Helvetica,sans-Serif" font-size="10.00">std::vector&lt; Feel::</text>
<text text-anchor="middle" x="664" y="-172.5" font-family="Helvetica,sans-Serif" font-size="10.00">Dof &gt;</text>
<polyline fill="none" stroke="#bfbfbf" points="611,-165.5 717,-165.5 "/>
<text text-anchor="middle" x="664" y="-153.5" font-family="Helvetica,sans-Serif" font-size="10.00"> </text>
<polyline fill="none" stroke="#bfbfbf" points="611,-146.5 717,-146.5 "/>
<text text-anchor="middle" x="664" y="-134.5" font-family="Helvetica,sans-Serif" font-size="10.00"> </text>
</a>
</g>
</g>
<!-- Node9&#45;&gt;Node1 -->
<g id="edge8" class="edge">
<title>Node9&#45;&gt;Node1</title>
<path fill="none" stroke="#404040" d="M640.01,-127.41C631.18,-116.94 620.5,-106.03 609,-98 586.33,-82.17 558.65,-69.96 533.46,-60.97"/>
<polygon fill="none" stroke="#404040" points="533.44,-60.96 526.46,-62.8 522.09,-57.07 529.06,-55.23 533.44,-60.96"/>
<text text-anchor="middle" x="659" y="-101" font-family="Helvetica,sans-Serif" font-size="10.00"> +M_dofindices</text>
</g>
<!-- Node10 -->
<g id="node10" class="node">
<title>Node10</title>
<g id="a_node10"><a xlink:href="classFeel_1_1Dof.html" target="_top" xlink:title="class that represents a degree of freedom">
<polygon fill="white" stroke="black" points="609.5,-243.5 609.5,-465.5 718.5,-465.5 718.5,-243.5 609.5,-243.5"/>
<text text-anchor="middle" x="664" y="-453.5" font-family="Helvetica,sans-Serif" font-size="10.00">Feel::Dof&lt; SizeT &gt;</text>
<polyline fill="none" stroke="black" points="609.5,-446.5 718.5,-446.5 "/>
<text text-anchor="middle" x="664" y="-434.5" font-family="Helvetica,sans-Serif" font-size="10.00"> </text>
<polyline fill="none" stroke="black" points="609.5,-427.5 718.5,-427.5 "/>
<text text-anchor="start" x="617.5" y="-415.5" font-family="Helvetica,sans-Serif" font-size="10.00">* size_type</text>
<text text-anchor="start" x="617.5" y="-404.5" font-family="Helvetica,sans-Serif" font-size="10.00">* Dof()</text>
<text text-anchor="start" x="617.5" y="-393.5" font-family="Helvetica,sans-Serif" font-size="10.00">* Dof()</text>
<text text-anchor="start" x="617.5" y="-382.5" font-family="Helvetica,sans-Serif" font-size="10.00">* Dof()</text>
<text text-anchor="start" x="617.5" y="-371.5" font-family="Helvetica,sans-Serif" font-size="10.00">* Dof()</text>
<text text-anchor="start" x="617.5" y="-360.5" font-family="Helvetica,sans-Serif" font-size="10.00">* Dof()</text>
<text text-anchor="start" x="617.5" y="-349.5" font-family="Helvetica,sans-Serif" font-size="10.00">and 3 more...</text>
<text text-anchor="start" x="617.5" y="-338.5" font-family="Helvetica,sans-Serif" font-size="10.00">* operator=()</text>
<text text-anchor="start" x="617.5" y="-327.5" font-family="Helvetica,sans-Serif" font-size="10.00">* operator=()</text>
<text text-anchor="start" x="617.5" y="-316.5" font-family="Helvetica,sans-Serif" font-size="10.00">* operator=()</text>
<text text-anchor="start" x="617.5" y="-305.5" font-family="Helvetica,sans-Serif" font-size="10.00">* operator=()</text>
<text text-anchor="start" x="617.5" y="-294.5" font-family="Helvetica,sans-Serif" font-size="10.00">* index()</text>
<text text-anchor="start" x="617.5" y="-283.5" font-family="Helvetica,sans-Serif" font-size="10.00">* sign()</text>
<text text-anchor="start" x="617.5" y="-272.5" font-family="Helvetica,sans-Serif" font-size="10.00">* isPeriodic()</text>
<text text-anchor="start" x="617.5" y="-261.5" font-family="Helvetica,sans-Serif" font-size="10.00">* setIndex()</text>
<text text-anchor="start" x="617.5" y="-250.5" font-family="Helvetica,sans-Serif" font-size="10.00">* set()</text>
</a>
</g>
</g>
<!-- Node10&#45;&gt;Node9 -->
<g id="edge9" class="edge">
<title>Node10&#45;&gt;Node9</title>
<path fill="none" stroke="#404040" d="M664,-243.22C664,-230.86 664,-218.83 664,-208"/>
<polygon fill="none" stroke="#404040" points="664,-207.89 660,-201.89 664,-195.89 668,-201.89 664,-207.89"/>
<text text-anchor="middle" x="693" y="-217" font-family="Helvetica,sans-Serif" font-size="10.00"> +elements</text>
</g>
<!-- Node11 -->
<g id="node11" class="node">
<title>Node11</title>
<g id="a_node11"><a xlink:title=" ">
<polygon fill="white" stroke="#bfbfbf" points="612,-513.5 612,-581.5 716,-581.5 716,-513.5 612,-513.5"/>
<text text-anchor="start" x="620" y="-569.5" font-family="Helvetica,sans-Serif" font-size="10.00">std::tuple&lt; uint32</text>
<text text-anchor="middle" x="664" y="-558.5" font-family="Helvetica,sans-Serif" font-size="10.00">_type &gt;</text>
<polyline fill="none" stroke="#bfbfbf" points="612,-551.5 716,-551.5 "/>
<text text-anchor="middle" x="664" y="-539.5" font-family="Helvetica,sans-Serif" font-size="10.00"> </text>
<polyline fill="none" stroke="#bfbfbf" points="612,-532.5 716,-532.5 "/>
<text text-anchor="middle" x="664" y="-520.5" font-family="Helvetica,sans-Serif" font-size="10.00"> </text>
</a>
</g>
</g>
<!-- Node11&#45;&gt;Node10 -->
<g id="edge10" class="edge">
<title>Node11&#45;&gt;Node10</title>
<path fill="none" stroke="midnightblue" d="M664,-503.23C664,-491.86 664,-479.08 664,-465.91"/>
<polygon fill="none" stroke="midnightblue" points="660.5,-503.23 664,-513.23 667.5,-503.23 660.5,-503.23"/>
</g>
<!-- Node12 -->
<g id="node12" class="node">
<title>Node12</title>
<g id="a_node12"><a xlink:title=" ">
<polygon fill="white" stroke="#bfbfbf" points="735,-133 735,-190 847,-190 847,-133 735,-133"/>
<text text-anchor="middle" x="791" y="-178" font-family="Helvetica,sans-Serif" font-size="10.00">std::vector&lt; bool &gt;</text>
<polyline fill="none" stroke="#bfbfbf" points="735,-171 847,-171 "/>
<text text-anchor="middle" x="791" y="-159" font-family="Helvetica,sans-Serif" font-size="10.00"> </text>
<polyline fill="none" stroke="#bfbfbf" points="735,-152 847,-152 "/>
<text text-anchor="middle" x="791" y="-140" font-family="Helvetica,sans-Serif" font-size="10.00"> </text>
</a>
</g>
</g>
<!-- Node12&#45;&gt;Node1 -->
<g id="edge11" class="edge">
<title>Node12&#45;&gt;Node1</title>
<path fill="none" stroke="#404040" d="M757.76,-132.95C741.51,-120.69 721.14,-107.01 701,-98 647.69,-74.16 583.05,-59.52 534.44,-51.05"/>
<polygon fill="none" stroke="#404040" points="534.28,-51.02 527.7,-53.97 522.45,-49.03 529.03,-46.08 534.28,-51.02"/>
<text text-anchor="middle" x="776.5" y="-101" font-family="Helvetica,sans-Serif" font-size="10.00"> +M_extendedDofTable</text>
</g>
<!-- Node13 -->
<g id="node13" class="node">
<title>Node13</title>
<g id="a_node13"><a xlink:href="classbool.html" target="_top" xlink:title=" ">
<polygon fill="white" stroke="black" points="772,-326 772,-383 810,-383 810,-326 772,-326"/>
<text text-anchor="middle" x="791" y="-371" font-family="Helvetica,sans-Serif" font-size="10.00">bool</text>
<polyline fill="none" stroke="black" points="772,-364 810,-364 "/>
<text text-anchor="middle" x="791" y="-352" font-family="Helvetica,sans-Serif" font-size="10.00"> </text>
<polyline fill="none" stroke="black" points="772,-345 810,-345 "/>
<text text-anchor="middle" x="791" y="-333" font-family="Helvetica,sans-Serif" font-size="10.00"> </text>
</a>
</g>
</g>
<!-- Node13&#45;&gt;Node12 -->
<g id="edge12" class="edge">
<title>Node13&#45;&gt;Node12</title>
<path fill="none" stroke="#404040" d="M791,-325.73C791,-293.33 791,-239.52 791,-202.6"/>
<polygon fill="none" stroke="#404040" points="791,-202.31 787,-196.31 791,-190.31 795,-196.31 791,-202.31"/>
<text text-anchor="middle" x="820" y="-217" font-family="Helvetica,sans-Serif" font-size="10.00"> +elements</text>
</g>
<!-- Node14 -->
<g id="node14" class="node">
<title>Node14</title>
<g id="a_node14"><a xlink:title=" ">
<polygon fill="white" stroke="#bfbfbf" points="865.5,-133 865.5,-190 960.5,-190 960.5,-133 865.5,-133"/>
<text text-anchor="middle" x="913" y="-178" font-family="Helvetica,sans-Serif" font-size="10.00">periodicity_type</text>
<polyline fill="none" stroke="#bfbfbf" points="865.5,-171 960.5,-171 "/>
<text text-anchor="middle" x="913" y="-159" font-family="Helvetica,sans-Serif" font-size="10.00"> </text>
<polyline fill="none" stroke="#bfbfbf" points="865.5,-152 960.5,-152 "/>
<text text-anchor="middle" x="913" y="-140" font-family="Helvetica,sans-Serif" font-size="10.00"> </text>
</a>
</g>
</g>
<!-- Node14&#45;&gt;Node1 -->
<g id="edge13" class="edge">
<title>Node14&#45;&gt;Node1</title>
<path fill="none" stroke="#404040" d="M887.02,-132.75C873.6,-120.12 856.24,-106.2 838,-98 739.12,-53.53 612.38,-42.66 534.21,-40.58"/>
<polygon fill="none" stroke="#404040" points="534.09,-40.58 528,-44.45 522.09,-40.32 528.18,-36.45 534.09,-40.58"/>
<text text-anchor="middle" x="895" y="-101" font-family="Helvetica,sans-Serif" font-size="10.00"> +M_periodicity</text>
</g>
</g>
</svg>
        <g id="navigator" transform="translate(0 0)" fill="#404254">
                <rect fill="#f2f5e9" fill-opacity="0.5" stroke="#606060" stroke-width=".5" x="0" y="0" width="60" height="60"/>
                <use id="zoomplus" xlink:href="#zoomPlus" x="17" y="9" onmousedown="handleZoom(evt,'in')"/>
                <use id="zoomminus" xlink:href="#zoomMin" x="42" y="9" onmousedown="handleZoom(evt,'out')"/>
                <use id="reset" xlink:href="#resetDef" x="30" y="36" onmousedown="handleReset()"/>
                <g id="arrowUp" xlink:href="#dirArrow" transform="translate(30 24)" onmousedown="handlePan(0,-1)">
                  <use xlink:href="#rim" fill="#404040">
                        <set attributeName="fill" to="#808080" begin="arrowUp.mouseover" end="arrowUp.mouseout"/>
                  </use>
                  <path fill="none" stroke="white" stroke-width="1.5" d="M0,-3.0v7 M-2.5,-0.5L0,-3.0L2.5,-0.5"/>
                </g>
                <g id="arrowRight" xlink:href="#dirArrow" transform="rotate(90) translate(36 -43)" onmousedown="handlePan(1,0)">
                  <use xlink:href="#rim" fill="#404040">
                        <set attributeName="fill" to="#808080" begin="arrowRight.mouseover" end="arrowRight.mouseout"/>
                  </use>
                  <path fill="none" stroke="white" stroke-width="1.5" d="M0,-3.0v7 M-2.5,-0.5L0,-3.0L2.5,-0.5"/>
                </g>
                <g id="arrowDown" xlink:href="#dirArrow" transform="rotate(180) translate(-30 -48)" onmousedown="handlePan(0,1)">
                  <use xlink:href="#rim" fill="#404040">
                        <set attributeName="fill" to="#808080" begin="arrowDown.mouseover" end="arrowDown.mouseout"/>
                  </use>
                  <path fill="none" stroke="white" stroke-width="1.5" d="M0,-3.0v7 M-2.5,-0.5L0,-3.0L2.5,-0.5"/>
                </g>
                <g id="arrowLeft" xlink:href="#dirArrow" transform="rotate(270) translate(-36 17)" onmousedown="handlePan(-1,0)">
                  <use xlink:href="#rim" fill="#404040">
                        <set attributeName="fill" to="#808080" begin="arrowLeft.mouseover" end="arrowLeft.mouseout"/>
                  </use>
                  <path fill="none" stroke="white" stroke-width="1.5" d="M0,-3.0v7 M-2.5,-0.5L0,-3.0L2.5,-0.5"/>
                </g>
        </g>
        <svg viewBox="0 0 15 15" width="100%" height="30px" preserveAspectRatio="xMaxYMin meet">
         <g id="arrow_out" transform="scale(0.3 0.3)">
          <a xlink:href="structFeel_1_1detail_1_1InitializeSpace__coll__graph_org.svg" target="_base">
           <rect id="button" ry="5" rx="5" y="6" x="6" height="38" width="38"
                fill="#f2f5e9" fill-opacity="0.5" stroke="#606060" stroke-width="1.0"/>
           <path id="arrow"
             d="M 11.500037,31.436501 C 11.940474,20.09759 22.043105,11.32322 32.158766,21.979434 L 37.068811,17.246167 C 37.068811,17.246167 37.088388,32 37.088388,32 L 22.160133,31.978069 C 22.160133,31.978069 26.997745,27.140456 26.997745,27.140456 C 18.528582,18.264221 13.291696,25.230495 11.500037,31.436501 z"
             style="fill:#404040;"/>
          </a>
         </g>
        </svg>
</svg>
