<?xml version="1.0" encoding="UTF-8" standalone="no"?>
<!DOCTYPE svg PUBLIC "-//W3C//DTD SVG 1.1//EN"
 "http://www.w3.org/Graphics/SVG/1.1/DTD/svg11.dtd">
<!-- Generated by graphviz version 2.43.0 (0)
 -->
<!-- Title: Feel::InterpolationExpr&lt; ExprType, C &gt; Pages: 1 -->
<svg width="293pt" height="442pt"
 viewBox="0.00 0.00 293.00 442.00" xmlns="http://www.w3.org/2000/svg" xmlns:xlink="http://www.w3.org/1999/xlink">
<g id="graph0" class="graph" transform="scale(1 1) rotate(0) translate(4 438)">
<title>Feel::InterpolationExpr&lt; ExprType, C &gt;</title>
<polygon fill="white" stroke="transparent" points="-4,4 -4,-438 289,-438 289,4 -4,4"/>
<!-- Node1 -->
<g id="node1" class="node">
<title>Node1</title>
<g id="a_node1"><a xlink:title=" ">
<polygon fill="#bfbfbf" stroke="black" points="87.5,-0.5 87.5,-112.5 214.5,-112.5 214.5,-0.5 87.5,-0.5"/>
<text text-anchor="start" x="95.5" y="-100.5" font-family="Helvetica,sans-Serif" font-size="10.00">Feel::InterpolationExpr</text>
<text text-anchor="middle" x="151" y="-89.5" font-family="Helvetica,sans-Serif" font-size="10.00">&lt; ExprType, C &gt;</text>
<polyline fill="none" stroke="black" points="87.5,-82.5 214.5,-82.5 "/>
<text text-anchor="middle" x="151" y="-70.5" font-family="Helvetica,sans-Serif" font-size="10.00"> </text>
<polyline fill="none" stroke="black" points="87.5,-63.5 214.5,-63.5 "/>
<text text-anchor="start" x="95.5" y="-51.5" font-family="Helvetica,sans-Serif" font-size="10.00">+ InterpolationExpr()</text>
<text text-anchor="start" x="95.5" y="-40.5" font-family="Helvetica,sans-Serif" font-size="10.00">+ InterpolationExpr()</text>
<text text-anchor="start" x="95.5" y="-29.5" font-family="Helvetica,sans-Serif" font-size="10.00">+ InterpolationExpr()</text>
<text text-anchor="start" x="95.5" y="-18.5" font-family="Helvetica,sans-Serif" font-size="10.00">+ InterpolationExpr()</text>
<text text-anchor="start" x="95.5" y="-7.5" font-family="Helvetica,sans-Serif" font-size="10.00">+ operand()</text>
</a>
</g>
</g>
<!-- Node2 -->
<g id="node2" class="node">
<title>Node2</title>
<g id="a_node2"><a xlink:href="classFeel_1_1InterpolationTypeBaseBase.html" target="_top" xlink:title=" ">
<polygon fill="white" stroke="black" points="67,-150.5 67,-317.5 235,-317.5 235,-150.5 67,-150.5"/>
<text text-anchor="start" x="75" y="-305.5" font-family="Helvetica,sans-Serif" font-size="10.00">Feel::InterpolationTypeBase</text>
<text text-anchor="start" x="75" y="-294.5" font-family="Helvetica,sans-Serif" font-size="10.00">Base&lt; is_conforming&lt; C &gt;</text>
<text text-anchor="start" x="75" y="-283.5" font-family="Helvetica,sans-Serif" font-size="10.00">, interpolation_operand_type</text>
<text text-anchor="middle" x="151" y="-272.5" font-family="Helvetica,sans-Serif" font-size="10.00">::EXPR &gt;</text>
<polyline fill="none" stroke="black" points="67,-265.5 235,-265.5 "/>
<text text-anchor="middle" x="151" y="-253.5" font-family="Helvetica,sans-Serif" font-size="10.00"> </text>
<polyline fill="none" stroke="black" points="67,-246.5 235,-246.5 "/>
<text text-anchor="start" x="75" y="-234.5" font-family="Helvetica,sans-Serif" font-size="10.00">+ componentsAreSamePoint()</text>
<text text-anchor="start" x="75" y="-223.5" font-family="Helvetica,sans-Serif" font-size="10.00">+ InterpolationTypeBaseBase()</text>
<text text-anchor="start" x="75" y="-212.5" font-family="Helvetica,sans-Serif" font-size="10.00">+ InterpolationTypeBaseBase()</text>
<text text-anchor="start" x="75" y="-201.5" font-family="Helvetica,sans-Serif" font-size="10.00">+ InterpolationTypeBaseBase()</text>
<text text-anchor="start" x="75" y="-190.5" font-family="Helvetica,sans-Serif" font-size="10.00">+ InterpolationTypeBaseBase()</text>
<text text-anchor="start" x="75" y="-179.5" font-family="Helvetica,sans-Serif" font-size="10.00">and 5 more...</text>
<text text-anchor="start" x="75" y="-168.5" font-family="Helvetica,sans-Serif" font-size="10.00">+ interpolationOperand()</text>
<text text-anchor="start" x="75" y="-157.5" font-family="Helvetica,sans-Serif" font-size="10.00">+ isConforming()</text>
</a>
</g>
</g>
<!-- Node2&#45;&gt;Node1 -->
<g id="edge1" class="edge">
<title>Node2&#45;&gt;Node1</title>
<path fill="none" stroke="midnightblue" d="M151,-140.18C151,-130.77 151,-121.45 151,-112.64"/>
<polygon fill="none" stroke="midnightblue" points="147.5,-140.39 151,-150.39 154.5,-140.39 147.5,-140.39"/>
</g>
<!-- Node3 -->
<g id="node3" class="node">
<title>Node3</title>
<g id="a_node3"><a xlink:title=" ">
<polygon fill="white" stroke="#bfbfbf" points="0,-365.5 0,-433.5 160,-433.5 160,-365.5 0,-365.5"/>
<text text-anchor="start" x="8" y="-421.5" font-family="Helvetica,sans-Serif" font-size="10.00">static constexpr interpolation</text>
<text text-anchor="middle" x="80" y="-410.5" font-family="Helvetica,sans-Serif" font-size="10.00">_operand_type</text>
<polyline fill="none" stroke="#bfbfbf" points="0,-403.5 160,-403.5 "/>
<text text-anchor="middle" x="80" y="-391.5" font-family="Helvetica,sans-Serif" font-size="10.00"> </text>
<polyline fill="none" stroke="#bfbfbf" points="0,-384.5 160,-384.5 "/>
<text text-anchor="middle" x="80" y="-372.5" font-family="Helvetica,sans-Serif" font-size="10.00"> </text>
</a>
</g>
</g>
<!-- Node3&#45;&gt;Node2 -->
<g id="edge2" class="edge">
<title>Node3&#45;&gt;Node2</title>
<path fill="none" stroke="#404040" d="M76.95,-365.47C77,-355.78 78.01,-345.3 81,-336 81.78,-333.58 82.63,-331.17 83.56,-328.76"/>
<polygon fill="none" stroke="#404040" points="83.62,-328.64 82.33,-321.54 88.38,-317.62 89.67,-324.72 83.62,-328.64"/>
<text text-anchor="middle" x="140.5" y="-339" font-family="Helvetica,sans-Serif" font-size="10.00"> +interpolation_operand</text>
</g>
<!-- Node4 -->
<g id="node4" class="node">
<title>Node4</title>
<g id="a_node4"><a xlink:href="classbool.html" target="_top" xlink:title=" ">
<polygon fill="white" stroke="black" points="203,-371 203,-428 241,-428 241,-371 203,-371"/>
<text text-anchor="middle" x="222" y="-416" font-family="Helvetica,sans-Serif" font-size="10.00">bool</text>
<polyline fill="none" stroke="black" points="203,-409 241,-409 "/>
<text text-anchor="middle" x="222" y="-397" font-family="Helvetica,sans-Serif" font-size="10.00"> </text>
<polyline fill="none" stroke="black" points="203,-390 241,-390 "/>
<text text-anchor="middle" x="222" y="-378" font-family="Helvetica,sans-Serif" font-size="10.00"> </text>
</a>
</g>
</g>
<!-- Node4&#45;&gt;Node2 -->
<g id="edge3" class="edge">
<title>Node4&#45;&gt;Node2</title>
<path fill="none" stroke="#404040" d="M213.03,-370.86C209.27,-359.9 204.69,-347.25 200,-336 198.98,-333.55 197.93,-331.08 196.85,-328.59"/>
<polygon fill="none" stroke="#404040" points="196.85,-328.59 190.77,-324.71 192.01,-317.61 198.09,-321.48 196.85,-328.59"/>
<text text-anchor="middle" x="244.5" y="-339" font-family="Helvetica,sans-Serif" font-size="10.00"> +is_conforming</text>
</g>
</g>
</svg>
