<?xml version="1.0" encoding="UTF-8" standalone="no"?>
<!DOCTYPE svg PUBLIC "-//W3C//DTD SVG 1.1//EN"
 "http://www.w3.org/Graphics/SVG/1.1/DTD/svg11.dtd">
<!-- Generated by graphviz version 2.43.0 (0)
 -->
<!-- Title: Feel::detail::FunctionSpaceMeshSupport&lt; SpaceType &gt; Pages: 1 -->
<svg width="262pt" height="182pt"
 viewBox="0.00 0.00 262.00 182.00" xmlns="http://www.w3.org/2000/svg" xmlns:xlink="http://www.w3.org/1999/xlink">
<g id="graph0" class="graph" transform="scale(1 1) rotate(0) translate(4 178)">
<title>Feel::detail::FunctionSpaceMeshSupport&lt; SpaceType &gt;</title>
<polygon fill="white" stroke="transparent" points="-4,4 -4,-178 258,-178 258,4 -4,4"/>
<!-- Node1 -->
<g id="node1" class="node">
<title>Node1</title>
<g id="a_node1"><a xlink:title=" ">
<polygon fill="#bfbfbf" stroke="black" points="12,-0.5 12,-68.5 182,-68.5 182,-0.5 12,-0.5"/>
<text text-anchor="start" x="20" y="-56.5" font-family="Helvetica,sans-Serif" font-size="10.00">Feel::detail::FunctionSpace</text>
<text text-anchor="middle" x="97" y="-45.5" font-family="Helvetica,sans-Serif" font-size="10.00">MeshSupport&lt; SpaceType &gt;</text>
<polyline fill="none" stroke="black" points="12,-38.5 182,-38.5 "/>
<text text-anchor="middle" x="97" y="-26.5" font-family="Helvetica,sans-Serif" font-size="10.00"> </text>
<polyline fill="none" stroke="black" points="12,-19.5 182,-19.5 "/>
<text text-anchor="start" x="20" y="-7.5" font-family="Helvetica,sans-Serif" font-size="10.00">+ FunctionSpaceMeshSupport()</text>
</a>
</g>
</g>
<!-- Node2 -->
<g id="node2" class="node">
<title>Node2</title>
<g id="a_node2"><a xlink:title=" ">
<polygon fill="white" stroke="#bfbfbf" points="0,-116.5 0,-173.5 68,-173.5 68,-116.5 0,-116.5"/>
<text text-anchor="middle" x="34" y="-161.5" font-family="Helvetica,sans-Serif" font-size="10.00">SpaceType</text>
<polyline fill="none" stroke="#bfbfbf" points="0,-154.5 68,-154.5 "/>
<text text-anchor="middle" x="34" y="-142.5" font-family="Helvetica,sans-Serif" font-size="10.00"> </text>
<polyline fill="none" stroke="#bfbfbf" points="0,-135.5 68,-135.5 "/>
<text text-anchor="middle" x="34" y="-123.5" font-family="Helvetica,sans-Serif" font-size="10.00"> </text>
</a>
</g>
</g>
<!-- Node2&#45;&gt;Node1 -->
<g id="edge1" class="edge">
<title>Node2&#45;&gt;Node1</title>
<path fill="none" stroke="#404040" d="M50.06,-116.34C56.6,-105.07 64.32,-91.78 71.6,-79.25"/>
<polygon fill="none" stroke="#404040" points="71.8,-78.9 71.36,-71.7 77.83,-68.52 78.27,-75.72 71.8,-78.9"/>
<text text-anchor="middle" x="93.5" y="-90" font-family="Helvetica,sans-Serif" font-size="10.00"> +M_space</text>
</g>
<!-- Node3 -->
<g id="node3" class="node">
<title>Node3</title>
<g id="a_node3"><a xlink:title=" ">
<polygon fill="white" stroke="#bfbfbf" points="85.5,-116.5 85.5,-173.5 234.5,-173.5 234.5,-116.5 85.5,-116.5"/>
<text text-anchor="middle" x="160" y="-161.5" font-family="Helvetica,sans-Serif" font-size="10.00">mesh_support_vector_type</text>
<polyline fill="none" stroke="#bfbfbf" points="85.5,-154.5 234.5,-154.5 "/>
<text text-anchor="middle" x="160" y="-142.5" font-family="Helvetica,sans-Serif" font-size="10.00"> </text>
<polyline fill="none" stroke="#bfbfbf" points="85.5,-135.5 234.5,-135.5 "/>
<text text-anchor="middle" x="160" y="-123.5" font-family="Helvetica,sans-Serif" font-size="10.00"> </text>
</a>
</g>
</g>
<!-- Node3&#45;&gt;Node1 -->
<g id="edge2" class="edge">
<title>Node3&#45;&gt;Node1</title>
<path fill="none" stroke="#404040" d="M143.94,-116.34C137.4,-105.07 129.68,-91.78 122.4,-79.25"/>
<polygon fill="none" stroke="#404040" points="122.2,-78.9 115.73,-75.72 116.17,-68.52 122.64,-71.7 122.2,-78.9"/>
<text text-anchor="middle" x="193" y="-90" font-family="Helvetica,sans-Serif" font-size="10.00"> +M_meshSupportVector</text>
</g>
</g>
</svg>
