<?xml version="1.0" encoding="UTF-8" standalone="no"?>
<!DOCTYPE svg PUBLIC "-//W3C//DTD SVG 1.1//EN"
 "http://www.w3.org/Graphics/SVG/1.1/DTD/svg11.dtd">
<!-- Generated by graphviz version 2.43.0 (0)
 -->
<!-- Title: Feel::Tetrahedron&lt; Dim &gt; Pages: 1 -->
<!--zoomable 623 -->
<svg id="main" version="1.1" xmlns="http://www.w3.org/2000/svg" xmlns:xlink="http://www.w3.org/1999/xlink" xml:space="preserve" onload="init(evt)">
<style type="text/css"><![CDATA[
.edge:hover path { stroke: red; }
.edge:hover polygon { stroke: red; fill: red; }
]]></style>
<script type="text/javascript"><![CDATA[
var edges = document.getElementsByTagName('g');
if (edges && edges.length) {
  for (var i=0;i<edges.length;i++) {
    if (edges[i].id.substr(0,4)=='edge') {
      edges[i].setAttribute('class','edge');
    }
  }
}
]]></script>
        <defs>
                <circle id="rim" cx="0" cy="0" r="7"/>
                <circle id="rim2" cx="0" cy="0" r="3.5"/>
                <g id="zoomPlus">
                        <use xlink:href="#rim" fill="#404040">
                                <set attributeName="fill" to="#808080" begin="zoomplus.mouseover" end="zoomplus.mouseout"/>
                        </use>
                        <path d="M-4,0h8M0,-4v8" fill="none" stroke="white" stroke-width="1.5" pointer-events="none"/>
                </g>
                <g id="zoomMin">
                        <use xlink:href="#rim" fill="#404040">
                                <set attributeName="fill" to="#808080" begin="zoomminus.mouseover" end="zoomminus.mouseout"/>
                        </use>
                        <path d="M-4,0h8" fill="none" stroke="white" stroke-width="1.5" pointer-events="none"/>
                </g>
                <g id="dirArrow">
                        <path fill="none" stroke="white" stroke-width="1.5" d="M0,-3.0v7 M-2.5,-0.5L0,-3.0L2.5,-0.5"/>
                </g>
               <g id="resetDef">
                       <use xlink:href="#rim2" fill="#404040">
                               <set attributeName="fill" to="#808080" begin="reset.mouseover" end="reset.mouseout"/>
                       </use>
               </g>
        </defs>

<script type="text/javascript">
var viewWidth = 248;
var viewHeight = 623;
var sectionId = 'dynsection-0';
</script>
<script xlink:href="svgpan.js"/>
<svg id="graph" class="graph">
<g id="viewport">
<title>Feel::Tetrahedron&lt; Dim &gt;</title>
<polygon fill="white" stroke="transparent" points="-4,4 -4,-619 243.5,-619 243.5,4 -4,4"/>
<!-- Node1 -->
<g id="node1" class="node">
<title>Node1</title>
<g id="a_node1"><a xlink:title=" ">
<polygon fill="#bfbfbf" stroke="black" points="66.5,-0.5 66.5,-68.5 175.5,-68.5 175.5,-0.5 66.5,-0.5"/>
<text text-anchor="start" x="74.5" y="-56.5" font-family="Helvetica,sans-Serif" font-size="10.00">Feel::Tetrahedron&lt;</text>
<text text-anchor="middle" x="121" y="-45.5" font-family="Helvetica,sans-Serif" font-size="10.00"> Dim &gt;</text>
<polyline fill="none" stroke="black" points="66.5,-38.5 175.5,-38.5 "/>
<text text-anchor="middle" x="121" y="-26.5" font-family="Helvetica,sans-Serif" font-size="10.00"> </text>
<polyline fill="none" stroke="black" points="66.5,-19.5 175.5,-19.5 "/>
<text text-anchor="middle" x="121" y="-7.5" font-family="Helvetica,sans-Serif" font-size="10.00"> </text>
</a>
</g>
</g>
<!-- Node2 -->
<g id="node2" class="node">
<title>Node2</title>
<g id="a_node2"><a xlink:href="classFeel_1_1Simplex.html" target="_top" xlink:title=" ">
<polygon fill="white" stroke="black" points="50,-105.5 50,-349.5 192,-349.5 192,-105.5 50,-105.5"/>
<text text-anchor="middle" x="121" y="-337.5" font-family="Helvetica,sans-Serif" font-size="10.00">Feel::Simplex&lt; 3, Dim &gt;</text>
<polyline fill="none" stroke="black" points="50,-330.5 192,-330.5 "/>
<text text-anchor="start" x="58" y="-318.5" font-family="Helvetica,sans-Serif" font-size="10.00">+ Geometry</text>
<text text-anchor="start" x="58" y="-307.5" font-family="Helvetica,sans-Serif" font-size="10.00">+ is_hypercube</text>
<text text-anchor="start" x="58" y="-296.5" font-family="Helvetica,sans-Serif" font-size="10.00">+ is_simplex</text>
<text text-anchor="start" x="58" y="-285.5" font-family="Helvetica,sans-Serif" font-size="10.00">+ nbPtsPerEdge</text>
<text text-anchor="start" x="58" y="-274.5" font-family="Helvetica,sans-Serif" font-size="10.00">+ nbPtsPerFace</text>
<text text-anchor="start" x="58" y="-263.5" font-family="Helvetica,sans-Serif" font-size="10.00">and 17 more...</text>
<polyline fill="none" stroke="black" points="50,-256.5 192,-256.5 "/>
<text text-anchor="start" x="58" y="-244.5" font-family="Helvetica,sans-Serif" font-size="10.00">+ dimension()</text>
<text text-anchor="start" x="58" y="-233.5" font-family="Helvetica,sans-Serif" font-size="10.00">+ operator=()</text>
<text text-anchor="start" x="58" y="-222.5" font-family="Helvetica,sans-Serif" font-size="10.00">+ operator=()</text>
<text text-anchor="start" x="58" y="-211.5" font-family="Helvetica,sans-Serif" font-size="10.00">+ Simplex()</text>
<text text-anchor="start" x="58" y="-200.5" font-family="Helvetica,sans-Serif" font-size="10.00">+ Simplex()</text>
<text text-anchor="start" x="58" y="-189.5" font-family="Helvetica,sans-Serif" font-size="10.00">+ Simplex()</text>
<text text-anchor="start" x="58" y="-178.5" font-family="Helvetica,sans-Serif" font-size="10.00">+ topologicalDimension()</text>
<text text-anchor="start" x="58" y="-167.5" font-family="Helvetica,sans-Serif" font-size="10.00">+ e2p()</text>
<text text-anchor="start" x="58" y="-156.5" font-family="Helvetica,sans-Serif" font-size="10.00">+ f2e()</text>
<text text-anchor="start" x="58" y="-145.5" font-family="Helvetica,sans-Serif" font-size="10.00">+ f2eLoc()</text>
<text text-anchor="start" x="58" y="-134.5" font-family="Helvetica,sans-Serif" font-size="10.00">+ f2p()</text>
<text text-anchor="start" x="58" y="-123.5" font-family="Helvetica,sans-Serif" font-size="10.00">+ getShape()</text>
<text text-anchor="start" x="58" y="-112.5" font-family="Helvetica,sans-Serif" font-size="10.00">and 12 more...</text>
</a>
</g>
</g>
<!-- Node2&#45;&gt;Node1 -->
<g id="edge1" class="edge">
<title>Node2&#45;&gt;Node1</title>
<path fill="none" stroke="midnightblue" d="M121,-95.15C121,-85.63 121,-76.65 121,-68.7"/>
<polygon fill="none" stroke="midnightblue" points="117.5,-95.27 121,-105.27 124.5,-95.27 117.5,-95.27"/>
</g>
<!-- Node3 -->
<g id="node3" class="node">
<title>Node3</title>
<g id="a_node3"><a xlink:href="classFeel_1_1Convex.html" target="_top" xlink:title=" ">
<polygon fill="white" stroke="black" points="0,-386.5 0,-520.5 114,-520.5 114,-386.5 0,-386.5"/>
<text text-anchor="start" x="8" y="-508.5" font-family="Helvetica,sans-Serif" font-size="10.00">Feel::Convex&lt; Dim,</text>
<text text-anchor="middle" x="57" y="-497.5" font-family="Helvetica,sans-Serif" font-size="10.00"> Order, Dim &gt;</text>
<polyline fill="none" stroke="black" points="0,-490.5 114,-490.5 "/>
<text text-anchor="middle" x="57" y="-478.5" font-family="Helvetica,sans-Serif" font-size="10.00"> </text>
<polyline fill="none" stroke="black" points="0,-471.5 114,-471.5 "/>
<text text-anchor="start" x="8" y="-459.5" font-family="Helvetica,sans-Serif" font-size="10.00">* nDim</text>
<text text-anchor="start" x="8" y="-448.5" font-family="Helvetica,sans-Serif" font-size="10.00">* nOrder</text>
<text text-anchor="start" x="8" y="-437.5" font-family="Helvetica,sans-Serif" font-size="10.00">* nRealDim</text>
<text text-anchor="start" x="8" y="-426.5" font-family="Helvetica,sans-Serif" font-size="10.00">* Convex()</text>
<text text-anchor="start" x="8" y="-415.5" font-family="Helvetica,sans-Serif" font-size="10.00">* Convex()</text>
<text text-anchor="start" x="8" y="-404.5" font-family="Helvetica,sans-Serif" font-size="10.00">* ~Convex()</text>
<text text-anchor="start" x="8" y="-393.5" font-family="Helvetica,sans-Serif" font-size="10.00">* operator=()</text>
</a>
</g>
</g>
<!-- Node3&#45;&gt;Node2 -->
<g id="edge2" class="edge">
<title>Node3&#45;&gt;Node2</title>
<path fill="none" stroke="midnightblue" d="M78.71,-376.51C81.2,-367.8 83.78,-358.76 86.39,-349.63"/>
<polygon fill="none" stroke="midnightblue" points="75.32,-375.63 75.94,-386.2 82.05,-377.55 75.32,-375.63"/>
</g>
<!-- Node4 -->
<g id="node4" class="node">
<title>Node4</title>
<g id="a_node4"><a xlink:href="classFeel_1_1ConvexBase.html" target="_top" xlink:title=" ">
<polygon fill="white" stroke="black" points="5,-557.5 5,-614.5 109,-614.5 109,-557.5 5,-557.5"/>
<text text-anchor="middle" x="57" y="-602.5" font-family="Helvetica,sans-Serif" font-size="10.00">Feel::ConvexBase</text>
<polyline fill="none" stroke="black" points="5,-595.5 109,-595.5 "/>
<text text-anchor="middle" x="57" y="-583.5" font-family="Helvetica,sans-Serif" font-size="10.00"> </text>
<polyline fill="none" stroke="black" points="5,-576.5 109,-576.5 "/>
<text text-anchor="middle" x="57" y="-564.5" font-family="Helvetica,sans-Serif" font-size="10.00"> </text>
</a>
</g>
</g>
<!-- Node4&#45;&gt;Node3 -->
<g id="edge3" class="edge">
<title>Node4&#45;&gt;Node3</title>
<path fill="none" stroke="midnightblue" d="M57,-547.16C57,-538.78 57,-529.67 57,-520.53"/>
<polygon fill="none" stroke="midnightblue" points="53.5,-547.32 57,-557.32 60.5,-547.32 53.5,-547.32"/>
</g>
<!-- Node5 -->
<g id="node5" class="node">
<title>Node5</title>
<g id="a_node5"><a xlink:href="classFeel_1_1SimplexBase.html" target="_top" xlink:title=" ">
<polygon fill="white" stroke="black" points="132.5,-425 132.5,-482 239.5,-482 239.5,-425 132.5,-425"/>
<text text-anchor="middle" x="186" y="-470" font-family="Helvetica,sans-Serif" font-size="10.00">Feel::SimplexBase</text>
<polyline fill="none" stroke="black" points="132.5,-463 239.5,-463 "/>
<text text-anchor="middle" x="186" y="-451" font-family="Helvetica,sans-Serif" font-size="10.00"> </text>
<polyline fill="none" stroke="black" points="132.5,-444 239.5,-444 "/>
<text text-anchor="middle" x="186" y="-432" font-family="Helvetica,sans-Serif" font-size="10.00"> </text>
</a>
</g>
</g>
<!-- Node5&#45;&gt;Node2 -->
<g id="edge4" class="edge">
<title>Node5&#45;&gt;Node2</title>
<path fill="none" stroke="#8b1a1a" d="M175.1,-414.93C169.78,-396.61 163.06,-373.43 156.17,-349.7"/>
<polygon fill="none" stroke="#8b1a1a" points="171.75,-415.95 177.9,-424.58 178.47,-414 171.75,-415.95"/>
</g>
</g>
</svg>
        <g id="navigator" transform="translate(0 0)" fill="#404254">
                <rect fill="#f2f5e9" fill-opacity="0.5" stroke="#606060" stroke-width=".5" x="0" y="0" width="60" height="60"/>
                <use id="zoomplus" xlink:href="#zoomPlus" x="17" y="9" onmousedown="handleZoom(evt,'in')"/>
                <use id="zoomminus" xlink:href="#zoomMin" x="42" y="9" onmousedown="handleZoom(evt,'out')"/>
                <use id="reset" xlink:href="#resetDef" x="30" y="36" onmousedown="handleReset()"/>
                <g id="arrowUp" xlink:href="#dirArrow" transform="translate(30 24)" onmousedown="handlePan(0,-1)">
                  <use xlink:href="#rim" fill="#404040">
                        <set attributeName="fill" to="#808080" begin="arrowUp.mouseover" end="arrowUp.mouseout"/>
                  </use>
                  <path fill="none" stroke="white" stroke-width="1.5" d="M0,-3.0v7 M-2.5,-0.5L0,-3.0L2.5,-0.5"/>
                </g>
                <g id="arrowRight" xlink:href="#dirArrow" transform="rotate(90) translate(36 -43)" onmousedown="handlePan(1,0)">
                  <use xlink:href="#rim" fill="#404040">
                        <set attributeName="fill" to="#808080" begin="arrowRight.mouseover" end="arrowRight.mouseout"/>
                  </use>
                  <path fill="none" stroke="white" stroke-width="1.5" d="M0,-3.0v7 M-2.5,-0.5L0,-3.0L2.5,-0.5"/>
                </g>
                <g id="arrowDown" xlink:href="#dirArrow" transform="rotate(180) translate(-30 -48)" onmousedown="handlePan(0,1)">
                  <use xlink:href="#rim" fill="#404040">
                        <set attributeName="fill" to="#808080" begin="arrowDown.mouseover" end="arrowDown.mouseout"/>
                  </use>
                  <path fill="none" stroke="white" stroke-width="1.5" d="M0,-3.0v7 M-2.5,-0.5L0,-3.0L2.5,-0.5"/>
                </g>
                <g id="arrowLeft" xlink:href="#dirArrow" transform="rotate(270) translate(-36 17)" onmousedown="handlePan(-1,0)">
                  <use xlink:href="#rim" fill="#404040">
                        <set attributeName="fill" to="#808080" begin="arrowLeft.mouseover" end="arrowLeft.mouseout"/>
                  </use>
                  <path fill="none" stroke="white" stroke-width="1.5" d="M0,-3.0v7 M-2.5,-0.5L0,-3.0L2.5,-0.5"/>
                </g>
        </g>
        <svg viewBox="0 0 15 15" width="100%" height="30px" preserveAspectRatio="xMaxYMin meet">
         <g id="arrow_out" transform="scale(0.3 0.3)">
          <a xlink:href="structFeel_1_1Tetrahedron__inherit__graph_org.svg" target="_base">
           <rect id="button" ry="5" rx="5" y="6" x="6" height="38" width="38"
                fill="#f2f5e9" fill-opacity="0.5" stroke="#606060" stroke-width="1.0"/>
           <path id="arrow"
             d="M 11.500037,31.436501 C 11.940474,20.09759 22.043105,11.32322 32.158766,21.979434 L 37.068811,17.246167 C 37.068811,17.246167 37.088388,32 37.088388,32 L 22.160133,31.978069 C 22.160133,31.978069 26.997745,27.140456 26.997745,27.140456 C 18.528582,18.264221 13.291696,25.230495 11.500037,31.436501 z"
             style="fill:#404040;"/>
          </a>
         </g>
        </svg>
</svg>
