<?xml version="1.0" encoding="UTF-8" standalone="no"?>
<!DOCTYPE svg PUBLIC "-//W3C//DTD SVG 1.1//EN"
 "http://www.w3.org/Graphics/SVG/1.1/DTD/svg11.dtd">
<!-- Generated by graphviz version 2.43.0 (0)
 -->
<!-- Title: Feel::is_topological_face&lt; T &gt; Pages: 1 -->
<svg width="139pt" height="204pt"
 viewBox="0.00 0.00 139.00 204.00" xmlns="http://www.w3.org/2000/svg" xmlns:xlink="http://www.w3.org/1999/xlink">
<g id="graph0" class="graph" transform="scale(1 1) rotate(0) translate(4 200)">
<title>Feel::is_topological_face&lt; T &gt;</title>
<polygon fill="white" stroke="transparent" points="-4,4 -4,-200 135,-200 135,4 -4,4"/>
<!-- Node1 -->
<g id="node1" class="node">
<title>Node1</title>
<g id="a_node1"><a xlink:title=" ">
<polygon fill="#bfbfbf" stroke="black" points="10.5,-0.5 10.5,-68.5 120.5,-68.5 120.5,-0.5 10.5,-0.5"/>
<text text-anchor="start" x="18.5" y="-56.5" font-family="Helvetica,sans-Serif" font-size="10.00">Feel::is_topological</text>
<text text-anchor="middle" x="65.5" y="-45.5" font-family="Helvetica,sans-Serif" font-size="10.00">_face&lt; T &gt;</text>
<polyline fill="none" stroke="black" points="10.5,-38.5 120.5,-38.5 "/>
<text text-anchor="middle" x="65.5" y="-26.5" font-family="Helvetica,sans-Serif" font-size="10.00"> </text>
<polyline fill="none" stroke="black" points="10.5,-19.5 120.5,-19.5 "/>
<text text-anchor="middle" x="65.5" y="-7.5" font-family="Helvetica,sans-Serif" font-size="10.00"> </text>
</a>
</g>
</g>
<!-- Node2 -->
<g id="node2" class="node">
<title>Node2</title>
<g id="a_node2"><a xlink:href="classboost_1_1mpl_1_1bool__.html" target="_top" xlink:title=" ">
<polygon fill="white" stroke="#bfbfbf" points="0,-105.5 0,-195.5 131,-195.5 131,-105.5 0,-105.5"/>
<text text-anchor="start" x="8" y="-183.5" font-family="Helvetica,sans-Serif" font-size="10.00">boost::mpl::bool_&lt;</text>
<text text-anchor="start" x="8" y="-172.5" font-family="Helvetica,sans-Serif" font-size="10.00"> std::is_base_of_v&lt;</text>
<text text-anchor="start" x="8" y="-161.5" font-family="Helvetica,sans-Serif" font-size="10.00"> SubFaceOfBase, decay</text>
<text text-anchor="middle" x="65.5" y="-150.5" font-family="Helvetica,sans-Serif" font-size="10.00">_type&lt; T &gt; &gt; &gt;</text>
<polyline fill="none" stroke="#bfbfbf" points="0,-143.5 131,-143.5 "/>
<text text-anchor="middle" x="65.5" y="-131.5" font-family="Helvetica,sans-Serif" font-size="10.00"> </text>
<polyline fill="none" stroke="#bfbfbf" points="0,-124.5 131,-124.5 "/>
<text text-anchor="middle" x="65.5" y="-112.5" font-family="Helvetica,sans-Serif" font-size="10.00"> </text>
</a>
</g>
</g>
<!-- Node2&#45;&gt;Node1 -->
<g id="edge1" class="edge">
<title>Node2&#45;&gt;Node1</title>
<path fill="none" stroke="midnightblue" d="M65.5,-95.32C65.5,-86.28 65.5,-77.16 65.5,-68.85"/>
<polygon fill="none" stroke="midnightblue" points="62,-95.42 65.5,-105.42 69,-95.42 62,-95.42"/>
</g>
</g>
</svg>
