<?xml version="1.0" encoding="UTF-8" standalone="no"?>
<!DOCTYPE svg PUBLIC "-//W3C//DTD SVG 1.1//EN"
 "http://www.w3.org/Graphics/SVG/1.1/DTD/svg11.dtd">
<!-- Generated by graphviz version 2.43.0 (0)
 -->
<!-- Title: Feel::DofTableInfos Pages: 1 -->
<!--zoomable 486 -->
<svg id="main" version="1.1" xmlns="http://www.w3.org/2000/svg" xmlns:xlink="http://www.w3.org/1999/xlink" xml:space="preserve" onload="init(evt)">
<style type="text/css"><![CDATA[
.edge:hover path { stroke: red; }
.edge:hover polygon { stroke: red; fill: red; }
]]></style>
<script type="text/javascript"><![CDATA[
var edges = document.getElementsByTagName('g');
if (edges && edges.length) {
  for (var i=0;i<edges.length;i++) {
    if (edges[i].id.substr(0,4)=='edge') {
      edges[i].setAttribute('class','edge');
    }
  }
}
]]></script>
        <defs>
                <circle id="rim" cx="0" cy="0" r="7"/>
                <circle id="rim2" cx="0" cy="0" r="3.5"/>
                <g id="zoomPlus">
                        <use xlink:href="#rim" fill="#404040">
                                <set attributeName="fill" to="#808080" begin="zoomplus.mouseover" end="zoomplus.mouseout"/>
                        </use>
                        <path d="M-4,0h8M0,-4v8" fill="none" stroke="white" stroke-width="1.5" pointer-events="none"/>
                </g>
                <g id="zoomMin">
                        <use xlink:href="#rim" fill="#404040">
                                <set attributeName="fill" to="#808080" begin="zoomminus.mouseover" end="zoomminus.mouseout"/>
                        </use>
                        <path d="M-4,0h8" fill="none" stroke="white" stroke-width="1.5" pointer-events="none"/>
                </g>
                <g id="dirArrow">
                        <path fill="none" stroke="white" stroke-width="1.5" d="M0,-3.0v7 M-2.5,-0.5L0,-3.0L2.5,-0.5"/>
                </g>
               <g id="resetDef">
                       <use xlink:href="#rim2" fill="#404040">
                               <set attributeName="fill" to="#808080" begin="reset.mouseover" end="reset.mouseout"/>
                       </use>
               </g>
        </defs>

<script type="text/javascript">
var viewWidth = 375;
var viewHeight = 486;
var sectionId = 'dynsection-0';
</script>
<script xlink:href="svgpan.js"/>
<svg id="graph" class="graph">
<g id="viewport">
<title>Feel::DofTableInfos</title>
<polygon fill="white" stroke="transparent" points="-4,4 -4,-482 371,-482 371,4 -4,4"/>
<!-- Node1 -->
<g id="node1" class="node">
<title>Node1</title>
<g id="a_node1"><a xlink:title=" ">
<polygon fill="#bfbfbf" stroke="black" points="94,-0.5 94,-134.5 204,-134.5 204,-0.5 94,-0.5"/>
<text text-anchor="middle" x="149" y="-122.5" font-family="Helvetica,sans-Serif" font-size="10.00">Feel::DofTableInfos</text>
<polyline fill="none" stroke="black" points="94,-115.5 204,-115.5 "/>
<text text-anchor="start" x="102" y="-103.5" font-family="Helvetica,sans-Serif" font-size="10.00">+ is_tensor2</text>
<text text-anchor="start" x="102" y="-92.5" font-family="Helvetica,sans-Serif" font-size="10.00">+ is_tensor2symm</text>
<text text-anchor="start" x="102" y="-81.5" font-family="Helvetica,sans-Serif" font-size="10.00">+ is_vectorial</text>
<text text-anchor="start" x="102" y="-70.5" font-family="Helvetica,sans-Serif" font-size="10.00">+ nRealDim</text>
<polyline fill="none" stroke="black" points="94,-63.5 204,-63.5 "/>
<text text-anchor="start" x="102" y="-51.5" font-family="Helvetica,sans-Serif" font-size="10.00">+ DofTableInfos()</text>
<text text-anchor="start" x="102" y="-40.5" font-family="Helvetica,sans-Serif" font-size="10.00">+ DofTableInfos()</text>
<text text-anchor="start" x="102" y="-29.5" font-family="Helvetica,sans-Serif" font-size="10.00">+ DofTableInfos()</text>
<text text-anchor="start" x="102" y="-18.5" font-family="Helvetica,sans-Serif" font-size="10.00">+ operator=()</text>
<text text-anchor="start" x="102" y="-7.5" font-family="Helvetica,sans-Serif" font-size="10.00">+ operator=()</text>
</a>
</g>
</g>
<!-- Node2 -->
<g id="node2" class="node">
<title>Node2</title>
<g id="a_node2"><a xlink:title=" ">
<polygon fill="white" stroke="#bfbfbf" points="0,-314.5 0,-371.5 56,-371.5 56,-314.5 0,-314.5"/>
<text text-anchor="middle" x="28" y="-359.5" font-family="Helvetica,sans-Serif" font-size="10.00">uint16_t</text>
<polyline fill="none" stroke="#bfbfbf" points="0,-352.5 56,-352.5 "/>
<text text-anchor="middle" x="28" y="-340.5" font-family="Helvetica,sans-Serif" font-size="10.00"> </text>
<polyline fill="none" stroke="#bfbfbf" points="0,-333.5 56,-333.5 "/>
<text text-anchor="middle" x="28" y="-321.5" font-family="Helvetica,sans-Serif" font-size="10.00"> </text>
</a>
</g>
</g>
<!-- Node2&#45;&gt;Node1 -->
<g id="edge1" class="edge">
<title>Node2&#45;&gt;Node1</title>
<path fill="none" stroke="#404040" d="M24.53,-314.48C20.99,-275.94 19.4,-204.81 47,-153 55.91,-136.27 69.67,-121.55 84.21,-109.28"/>
<polygon fill="none" stroke="#404040" points="84.48,-109.08 86.66,-102.2 93.85,-101.58 91.66,-108.45 84.48,-109.08"/>
<text text-anchor="middle" x="96" y="-277" font-family="Helvetica,sans-Serif" font-size="10.00"> +Shape</text>
<text text-anchor="middle" x="96" y="-266" font-family="Helvetica,sans-Serif" font-size="10.00">+nComponents</text>
<text text-anchor="middle" x="96" y="-255" font-family="Helvetica,sans-Serif" font-size="10.00">+nComponents1</text>
<text text-anchor="middle" x="96" y="-244" font-family="Helvetica,sans-Serif" font-size="10.00">+nComponents2</text>
<text text-anchor="middle" x="96" y="-233" font-family="Helvetica,sans-Serif" font-size="10.00">+nDim</text>
<text text-anchor="middle" x="96" y="-222" font-family="Helvetica,sans-Serif" font-size="10.00">+nDofComponents</text>
<text text-anchor="middle" x="96" y="-211" font-family="Helvetica,sans-Serif" font-size="10.00">+nDofPerEdge</text>
<text text-anchor="middle" x="96" y="-200" font-family="Helvetica,sans-Serif" font-size="10.00">+nDofPerElement</text>
<text text-anchor="middle" x="96" y="-189" font-family="Helvetica,sans-Serif" font-size="10.00">+nOrder</text>
<text text-anchor="middle" x="96" y="-178" font-family="Helvetica,sans-Serif" font-size="10.00">+nRealComponents</text>
<text text-anchor="middle" x="96" y="-167" font-family="Helvetica,sans-Serif" font-size="10.00">...</text>
</g>
<!-- Node3 -->
<g id="node3" class="node">
<title>Node3</title>
<g id="a_node3"><a xlink:href="classbool.html" target="_top" xlink:title=" ">
<polygon fill="white" stroke="#bfbfbf" points="130,-314.5 130,-371.5 168,-371.5 168,-314.5 130,-314.5"/>
<text text-anchor="middle" x="149" y="-359.5" font-family="Helvetica,sans-Serif" font-size="10.00">bool</text>
<polyline fill="none" stroke="#bfbfbf" points="130,-352.5 168,-352.5 "/>
<text text-anchor="middle" x="149" y="-340.5" font-family="Helvetica,sans-Serif" font-size="10.00"> </text>
<polyline fill="none" stroke="#bfbfbf" points="130,-333.5 168,-333.5 "/>
<text text-anchor="middle" x="149" y="-321.5" font-family="Helvetica,sans-Serif" font-size="10.00"> </text>
</a>
</g>
</g>
<!-- Node3&#45;&gt;Node1 -->
<g id="edge2" class="edge">
<title>Node3&#45;&gt;Node1</title>
<path fill="none" stroke="#404040" d="M149,-314.27C149,-275.3 149,-202.82 149,-146.62"/>
<polygon fill="none" stroke="#404040" points="149,-146.54 145,-140.54 149,-134.54 153,-140.54 149,-146.54"/>
<text text-anchor="middle" x="202.5" y="-288" font-family="Helvetica,sans-Serif" font-size="10.00"> +is_continuous</text>
<text text-anchor="start" x="149" y="-277" font-family="Helvetica,sans-Serif" font-size="10.00">+is_discontinuous</text>
<text text-anchor="middle" x="202.5" y="-266" font-family="Helvetica,sans-Serif" font-size="10.00">_locally</text>
<text text-anchor="start" x="149" y="-255" font-family="Helvetica,sans-Serif" font-size="10.00">+is_discontinuous</text>
<text text-anchor="middle" x="202.5" y="-244" font-family="Helvetica,sans-Serif" font-size="10.00">_totally</text>
<text text-anchor="middle" x="202.5" y="-233" font-family="Helvetica,sans-Serif" font-size="10.00">+is_hcurl_conforming</text>
<text text-anchor="middle" x="202.5" y="-222" font-family="Helvetica,sans-Serif" font-size="10.00">+is_hdiv_conforming</text>
<text text-anchor="middle" x="202.5" y="-211" font-family="Helvetica,sans-Serif" font-size="10.00">+is_modal</text>
<text text-anchor="middle" x="202.5" y="-200" font-family="Helvetica,sans-Serif" font-size="10.00">+is_p0_continuous</text>
<text text-anchor="middle" x="202.5" y="-189" font-family="Helvetica,sans-Serif" font-size="10.00">+is_periodic</text>
<text text-anchor="middle" x="202.5" y="-178" font-family="Helvetica,sans-Serif" font-size="10.00">+is_product</text>
<text text-anchor="middle" x="202.5" y="-167" font-family="Helvetica,sans-Serif" font-size="10.00">+is_scalar</text>
<text text-anchor="middle" x="202.5" y="-156" font-family="Helvetica,sans-Serif" font-size="10.00">...</text>
</g>
<!-- Node4 -->
<g id="node4" class="node">
<title>Node4</title>
<g id="a_node4"><a xlink:title=" ">
<polygon fill="white" stroke="black" points="246.5,-314.5 246.5,-371.5 311.5,-371.5 311.5,-314.5 246.5,-314.5"/>
<text text-anchor="middle" x="279" y="-359.5" font-family="Helvetica,sans-Serif" font-size="10.00">std::string</text>
<polyline fill="none" stroke="black" points="246.5,-352.5 311.5,-352.5 "/>
<text text-anchor="middle" x="279" y="-340.5" font-family="Helvetica,sans-Serif" font-size="10.00"> </text>
<polyline fill="none" stroke="black" points="246.5,-333.5 311.5,-333.5 "/>
<text text-anchor="middle" x="279" y="-321.5" font-family="Helvetica,sans-Serif" font-size="10.00"> </text>
</a>
</g>
</g>
<!-- Node4&#45;&gt;Node1 -->
<g id="edge3" class="edge">
<title>Node4&#45;&gt;Node1</title>
<path fill="none" stroke="#404040" d="M282.13,-314.34C285.17,-275.62 285.78,-204.28 257,-153 246.68,-134.6 230.56,-118.82 213.9,-106.04"/>
<polygon fill="none" stroke="#404040" points="213.76,-105.94 206.56,-105.64 204.06,-98.87 211.27,-99.17 213.76,-105.94"/>
<text text-anchor="middle" x="325" y="-222" font-family="Helvetica,sans-Serif" font-size="10.00"> +feFamilyName</text>
</g>
<!-- Node5 -->
<g id="node5" class="node">
<title>Node5</title>
<g id="a_node5"><a xlink:title=" ">
<polygon fill="white" stroke="black" points="227,-409.5 227,-477.5 331,-477.5 331,-409.5 227,-409.5"/>
<text text-anchor="start" x="235" y="-465.5" font-family="Helvetica,sans-Serif" font-size="10.00">std::basic_string&lt;</text>
<text text-anchor="middle" x="279" y="-454.5" font-family="Helvetica,sans-Serif" font-size="10.00"> Char &gt;</text>
<polyline fill="none" stroke="black" points="227,-447.5 331,-447.5 "/>
<text text-anchor="middle" x="279" y="-435.5" font-family="Helvetica,sans-Serif" font-size="10.00"> </text>
<polyline fill="none" stroke="black" points="227,-428.5 331,-428.5 "/>
<text text-anchor="middle" x="279" y="-416.5" font-family="Helvetica,sans-Serif" font-size="10.00"> </text>
</a>
</g>
</g>
<!-- Node5&#45;&gt;Node4 -->
<g id="edge4" class="edge">
<title>Node5&#45;&gt;Node4</title>
<path fill="none" stroke="midnightblue" d="M279,-399.38C279,-389.94 279,-380.2 279,-371.57"/>
<polygon fill="none" stroke="midnightblue" points="275.5,-399.43 279,-409.43 282.5,-399.43 275.5,-399.43"/>
</g>
</g>
</svg>
        <g id="navigator" transform="translate(0 0)" fill="#404254">
                <rect fill="#f2f5e9" fill-opacity="0.5" stroke="#606060" stroke-width=".5" x="0" y="0" width="60" height="60"/>
                <use id="zoomplus" xlink:href="#zoomPlus" x="17" y="9" onmousedown="handleZoom(evt,'in')"/>
                <use id="zoomminus" xlink:href="#zoomMin" x="42" y="9" onmousedown="handleZoom(evt,'out')"/>
                <use id="reset" xlink:href="#resetDef" x="30" y="36" onmousedown="handleReset()"/>
                <g id="arrowUp" xlink:href="#dirArrow" transform="translate(30 24)" onmousedown="handlePan(0,-1)">
                  <use xlink:href="#rim" fill="#404040">
                        <set attributeName="fill" to="#808080" begin="arrowUp.mouseover" end="arrowUp.mouseout"/>
                  </use>
                  <path fill="none" stroke="white" stroke-width="1.5" d="M0,-3.0v7 M-2.5,-0.5L0,-3.0L2.5,-0.5"/>
                </g>
                <g id="arrowRight" xlink:href="#dirArrow" transform="rotate(90) translate(36 -43)" onmousedown="handlePan(1,0)">
                  <use xlink:href="#rim" fill="#404040">
                        <set attributeName="fill" to="#808080" begin="arrowRight.mouseover" end="arrowRight.mouseout"/>
                  </use>
                  <path fill="none" stroke="white" stroke-width="1.5" d="M0,-3.0v7 M-2.5,-0.5L0,-3.0L2.5,-0.5"/>
                </g>
                <g id="arrowDown" xlink:href="#dirArrow" transform="rotate(180) translate(-30 -48)" onmousedown="handlePan(0,1)">
                  <use xlink:href="#rim" fill="#404040">
                        <set attributeName="fill" to="#808080" begin="arrowDown.mouseover" end="arrowDown.mouseout"/>
                  </use>
                  <path fill="none" stroke="white" stroke-width="1.5" d="M0,-3.0v7 M-2.5,-0.5L0,-3.0L2.5,-0.5"/>
                </g>
                <g id="arrowLeft" xlink:href="#dirArrow" transform="rotate(270) translate(-36 17)" onmousedown="handlePan(-1,0)">
                  <use xlink:href="#rim" fill="#404040">
                        <set attributeName="fill" to="#808080" begin="arrowLeft.mouseover" end="arrowLeft.mouseout"/>
                  </use>
                  <path fill="none" stroke="white" stroke-width="1.5" d="M0,-3.0v7 M-2.5,-0.5L0,-3.0L2.5,-0.5"/>
                </g>
        </g>
        <svg viewBox="0 0 15 15" width="100%" height="30px" preserveAspectRatio="xMaxYMin meet">
         <g id="arrow_out" transform="scale(0.3 0.3)">
          <a xlink:href="structFeel_1_1DofTableInfos__coll__graph_org.svg" target="_base">
           <rect id="button" ry="5" rx="5" y="6" x="6" height="38" width="38"
                fill="#f2f5e9" fill-opacity="0.5" stroke="#606060" stroke-width="1.0"/>
           <path id="arrow"
             d="M 11.500037,31.436501 C 11.940474,20.09759 22.043105,11.32322 32.158766,21.979434 L 37.068811,17.246167 C 37.068811,17.246167 37.088388,32 37.088388,32 L 22.160133,31.978069 C 22.160133,31.978069 26.997745,27.140456 26.997745,27.140456 C 18.528582,18.264221 13.291696,25.230495 11.500037,31.436501 z"
             style="fill:#404040;"/>
          </a>
         </g>
        </svg>
</svg>
