<?xml version="1.0" encoding="UTF-8" standalone="no"?>
<!DOCTYPE svg PUBLIC "-//W3C//DTD SVG 1.1//EN"
 "http://www.w3.org/Graphics/SVG/1.1/DTD/svg11.dtd">
<!-- Generated by graphviz version 2.43.0 (0)
 -->
<!-- Title: Feel::vf::ExprTensorsFromSymbolsExprImpl&lt; Geo_t, SymbolsExprType &gt; Pages: 1 -->
<svg width="199pt" height="303pt"
 viewBox="0.00 0.00 199.00 303.00" xmlns="http://www.w3.org/2000/svg" xmlns:xlink="http://www.w3.org/1999/xlink">
<g id="graph0" class="graph" transform="scale(1 1) rotate(0) translate(4 299)">
<title>Feel::vf::ExprTensorsFromSymbolsExprImpl&lt; Geo_t, SymbolsExprType &gt;</title>
<polygon fill="white" stroke="transparent" points="-4,4 -4,-299 195,-299 195,4 -4,4"/>
<!-- Node1 -->
<g id="node1" class="node">
<title>Node1</title>
<g id="a_node1"><a xlink:title=" ">
<polygon fill="#bfbfbf" stroke="black" points="4,-0.5 4,-145.5 187,-145.5 187,-0.5 4,-0.5"/>
<text text-anchor="start" x="12" y="-133.5" font-family="Helvetica,sans-Serif" font-size="10.00">Feel::vf::ExprTensorsFrom</text>
<text text-anchor="start" x="12" y="-122.5" font-family="Helvetica,sans-Serif" font-size="10.00">SymbolsExprImpl&lt; Geo_t,</text>
<text text-anchor="middle" x="95.5" y="-111.5" font-family="Helvetica,sans-Serif" font-size="10.00"> SymbolsExprType &gt;</text>
<polyline fill="none" stroke="black" points="4,-104.5 187,-104.5 "/>
<text text-anchor="middle" x="95.5" y="-92.5" font-family="Helvetica,sans-Serif" font-size="10.00"> </text>
<polyline fill="none" stroke="black" points="4,-85.5 187,-85.5 "/>
<text text-anchor="start" x="12" y="-73.5" font-family="Helvetica,sans-Serif" font-size="10.00">+ ExprTensorsFromSymbolsExpr</text>
<text text-anchor="start" x="12" y="-62.5" font-family="Helvetica,sans-Serif" font-size="10.00">Impl()</text>
<text text-anchor="start" x="12" y="-51.5" font-family="Helvetica,sans-Serif" font-size="10.00">+ init()</text>
<text text-anchor="start" x="12" y="-40.5" font-family="Helvetica,sans-Serif" font-size="10.00">+ newObjectPtr()</text>
<text text-anchor="start" x="12" y="-29.5" font-family="Helvetica,sans-Serif" font-size="10.00">+ update()</text>
<text text-anchor="start" x="12" y="-18.5" font-family="Helvetica,sans-Serif" font-size="10.00">+ ~ExprTensorsFromSymbolsExpr</text>
<text text-anchor="start" x="12" y="-7.5" font-family="Helvetica,sans-Serif" font-size="10.00">Impl()</text>
</a>
</g>
</g>
<!-- Node2 -->
<g id="node2" class="node">
<title>Node2</title>
<g id="a_node2"><a xlink:href="structFeel_1_1vf_1_1ExprTensorsFromSymbolsExpr.html" target="_top" xlink:title=" ">
<polygon fill="white" stroke="#bfbfbf" points="0,-182.5 0,-294.5 191,-294.5 191,-182.5 0,-182.5"/>
<text text-anchor="start" x="8" y="-282.5" font-family="Helvetica,sans-Serif" font-size="10.00">Feel::vf::ExprTensorsFrom</text>
<text text-anchor="middle" x="95.5" y="-271.5" font-family="Helvetica,sans-Serif" font-size="10.00">SymbolsExpr&lt; Geo_t &gt;</text>
<polyline fill="none" stroke="#bfbfbf" points="0,-264.5 191,-264.5 "/>
<text text-anchor="start" x="8" y="-252.5" font-family="Helvetica,sans-Serif" font-size="10.00"># M_tensor</text>
<polyline fill="none" stroke="#bfbfbf" points="0,-245.5 191,-245.5 "/>
<text text-anchor="start" x="8" y="-233.5" font-family="Helvetica,sans-Serif" font-size="10.00">+ init()</text>
<text text-anchor="start" x="8" y="-222.5" font-family="Helvetica,sans-Serif" font-size="10.00">+ newObjectPtr()</text>
<text text-anchor="start" x="8" y="-211.5" font-family="Helvetica,sans-Serif" font-size="10.00">+ tensor()</text>
<text text-anchor="start" x="8" y="-200.5" font-family="Helvetica,sans-Serif" font-size="10.00">+ update()</text>
<text text-anchor="start" x="8" y="-189.5" font-family="Helvetica,sans-Serif" font-size="10.00">+ ~ExprTensorsFromSymbolsExpr()</text>
</a>
</g>
</g>
<!-- Node2&#45;&gt;Node1 -->
<g id="edge1" class="edge">
<title>Node2&#45;&gt;Node1</title>
<path fill="none" stroke="midnightblue" d="M95.5,-172.05C95.5,-163.33 95.5,-154.35 95.5,-145.53"/>
<polygon fill="none" stroke="midnightblue" points="92,-172.15 95.5,-182.15 99,-172.15 92,-172.15"/>
</g>
</g>
</svg>
