<?xml version="1.0" encoding="UTF-8" standalone="no"?>
<!DOCTYPE svg PUBLIC "-//W3C//DTD SVG 1.1//EN"
 "http://www.w3.org/Graphics/SVG/1.1/DTD/svg11.dtd">
<!-- Generated by graphviz version 2.43.0 (0)
 -->
<!-- Title: Feel::InterpolationNonConforming Pages: 1 -->
<svg width="512pt" height="624pt"
 viewBox="0.00 0.00 512.00 624.00" xmlns="http://www.w3.org/2000/svg" xmlns:xlink="http://www.w3.org/1999/xlink">
<g id="graph0" class="graph" transform="scale(1 1) rotate(0) translate(4 620)">
<title>Feel::InterpolationNonConforming</title>
<polygon fill="white" stroke="transparent" points="-4,4 -4,-620 508,-620 508,4 -4,4"/>
<!-- Node1 -->
<g id="node1" class="node">
<title>Node1</title>
<g id="a_node1"><a xlink:title=" ">
<polygon fill="#bfbfbf" stroke="black" points="262,-0.5 262,-112.5 444,-112.5 444,-0.5 262,-0.5"/>
<text text-anchor="middle" x="353" y="-100.5" font-family="Helvetica,sans-Serif" font-size="10.00">Feel::InterpolationNonConforming</text>
<polyline fill="none" stroke="black" points="262,-93.5 444,-93.5 "/>
<text text-anchor="middle" x="353" y="-81.5" font-family="Helvetica,sans-Serif" font-size="10.00"> </text>
<polyline fill="none" stroke="black" points="262,-74.5 444,-74.5 "/>
<text text-anchor="start" x="270" y="-62.5" font-family="Helvetica,sans-Serif" font-size="10.00">+ InterpolationNonConforming()</text>
<text text-anchor="start" x="270" y="-51.5" font-family="Helvetica,sans-Serif" font-size="10.00">+ InterpolationNonConforming()</text>
<text text-anchor="start" x="270" y="-40.5" font-family="Helvetica,sans-Serif" font-size="10.00">+ InterpolationNonConforming()</text>
<text text-anchor="start" x="270" y="-29.5" font-family="Helvetica,sans-Serif" font-size="10.00">+ InterpolationNonConforming()</text>
<text text-anchor="start" x="270" y="-18.5" font-family="Helvetica,sans-Serif" font-size="10.00">+ InterpolationNonConforming()</text>
<text text-anchor="start" x="270" y="-7.5" font-family="Helvetica,sans-Serif" font-size="10.00">+ operator=()</text>
</a>
</g>
</g>
<!-- Node2 -->
<g id="node2" class="node">
<title>Node2</title>
<g id="a_node2"><a xlink:href="classFeel_1_1InterpolationTypeBase.html" target="_top" xlink:title=" ">
<polygon fill="white" stroke="black" points="186.5,-160.5 186.5,-316.5 351.5,-316.5 351.5,-160.5 186.5,-160.5"/>
<text text-anchor="start" x="194.5" y="-304.5" font-family="Helvetica,sans-Serif" font-size="10.00">Feel::InterpolationTypeBase</text>
<text text-anchor="start" x="194.5" y="-293.5" font-family="Helvetica,sans-Serif" font-size="10.00">&lt; false, interpolation_operand</text>
<text text-anchor="middle" x="269" y="-282.5" font-family="Helvetica,sans-Serif" font-size="10.00">_type::ID &gt;</text>
<polyline fill="none" stroke="black" points="186.5,-275.5 351.5,-275.5 "/>
<text text-anchor="middle" x="269" y="-263.5" font-family="Helvetica,sans-Serif" font-size="10.00"> </text>
<polyline fill="none" stroke="black" points="186.5,-256.5 351.5,-256.5 "/>
<text text-anchor="start" x="194.5" y="-244.5" font-family="Helvetica,sans-Serif" font-size="10.00">+ InterpolationTypeBase()</text>
<text text-anchor="start" x="194.5" y="-233.5" font-family="Helvetica,sans-Serif" font-size="10.00">+ InterpolationTypeBase()</text>
<text text-anchor="start" x="194.5" y="-222.5" font-family="Helvetica,sans-Serif" font-size="10.00">+ InterpolationTypeBase()</text>
<text text-anchor="start" x="194.5" y="-211.5" font-family="Helvetica,sans-Serif" font-size="10.00">+ InterpolationTypeBase()</text>
<text text-anchor="start" x="194.5" y="-200.5" font-family="Helvetica,sans-Serif" font-size="10.00">+ operator=()</text>
<text text-anchor="start" x="194.5" y="-189.5" font-family="Helvetica,sans-Serif" font-size="10.00">+ operator=()</text>
<text text-anchor="start" x="194.5" y="-178.5" font-family="Helvetica,sans-Serif" font-size="10.00">+ operand()</text>
<text text-anchor="start" x="194.5" y="-167.5" font-family="Helvetica,sans-Serif" font-size="10.00">+ requiresDerivatives()</text>
</a>
</g>
</g>
<!-- Node2&#45;&gt;Node1 -->
<g id="edge1" class="edge">
<title>Node2&#45;&gt;Node1</title>
<path fill="none" stroke="midnightblue" d="M309.22,-151.32C315.35,-138.18 321.53,-124.94 327.24,-112.71"/>
<polygon fill="none" stroke="midnightblue" points="306.05,-149.84 304.99,-160.38 312.39,-152.8 306.05,-149.84"/>
</g>
<!-- Node3 -->
<g id="node3" class="node">
<title>Node3</title>
<g id="a_node3"><a xlink:href="classFeel_1_1InterpolationTypeBaseBase.html" target="_top" xlink:title=" ">
<polygon fill="white" stroke="black" points="185,-354.5 185,-499.5 353,-499.5 353,-354.5 185,-354.5"/>
<text text-anchor="start" x="193" y="-487.5" font-family="Helvetica,sans-Serif" font-size="10.00">Feel::InterpolationTypeBase</text>
<text text-anchor="middle" x="269" y="-476.5" font-family="Helvetica,sans-Serif" font-size="10.00">Base&lt; C, O &gt;</text>
<polyline fill="none" stroke="black" points="185,-469.5 353,-469.5 "/>
<text text-anchor="middle" x="269" y="-457.5" font-family="Helvetica,sans-Serif" font-size="10.00"> </text>
<polyline fill="none" stroke="black" points="185,-450.5 353,-450.5 "/>
<text text-anchor="start" x="193" y="-438.5" font-family="Helvetica,sans-Serif" font-size="10.00">+ componentsAreSamePoint()</text>
<text text-anchor="start" x="193" y="-427.5" font-family="Helvetica,sans-Serif" font-size="10.00">+ InterpolationTypeBaseBase()</text>
<text text-anchor="start" x="193" y="-416.5" font-family="Helvetica,sans-Serif" font-size="10.00">+ InterpolationTypeBaseBase()</text>
<text text-anchor="start" x="193" y="-405.5" font-family="Helvetica,sans-Serif" font-size="10.00">+ InterpolationTypeBaseBase()</text>
<text text-anchor="start" x="193" y="-394.5" font-family="Helvetica,sans-Serif" font-size="10.00">+ InterpolationTypeBaseBase()</text>
<text text-anchor="start" x="193" y="-383.5" font-family="Helvetica,sans-Serif" font-size="10.00">and 5 more...</text>
<text text-anchor="start" x="193" y="-372.5" font-family="Helvetica,sans-Serif" font-size="10.00">+ interpolationOperand()</text>
<text text-anchor="start" x="193" y="-361.5" font-family="Helvetica,sans-Serif" font-size="10.00">+ isConforming()</text>
</a>
</g>
</g>
<!-- Node3&#45;&gt;Node2 -->
<g id="edge2" class="edge">
<title>Node3&#45;&gt;Node2</title>
<path fill="none" stroke="midnightblue" d="M269,-344.21C269,-335.1 269,-325.83 269,-316.77"/>
<polygon fill="none" stroke="midnightblue" points="265.5,-344.43 269,-354.43 272.5,-344.43 265.5,-344.43"/>
</g>
<!-- Node4 -->
<g id="node4" class="node">
<title>Node4</title>
<g id="a_node4"><a xlink:title=" ">
<polygon fill="white" stroke="#bfbfbf" points="0,-547.5 0,-615.5 160,-615.5 160,-547.5 0,-547.5"/>
<text text-anchor="start" x="8" y="-603.5" font-family="Helvetica,sans-Serif" font-size="10.00">static constexpr interpolation</text>
<text text-anchor="middle" x="80" y="-592.5" font-family="Helvetica,sans-Serif" font-size="10.00">_operand_type</text>
<polyline fill="none" stroke="#bfbfbf" points="0,-585.5 160,-585.5 "/>
<text text-anchor="middle" x="80" y="-573.5" font-family="Helvetica,sans-Serif" font-size="10.00"> </text>
<polyline fill="none" stroke="#bfbfbf" points="0,-566.5 160,-566.5 "/>
<text text-anchor="middle" x="80" y="-554.5" font-family="Helvetica,sans-Serif" font-size="10.00"> </text>
</a>
</g>
</g>
<!-- Node4&#45;&gt;Node2 -->
<g id="edge5" class="edge">
<title>Node4&#45;&gt;Node2</title>
<path fill="none" stroke="#404040" d="M65.02,-547.45C46.3,-500.81 20.86,-414.59 57,-354 82.72,-310.87 130.94,-283.01 174.9,-265.59"/>
<polygon fill="none" stroke="#404040" points="175.05,-265.53 179.24,-259.66 186.27,-261.27 182.08,-267.14 175.05,-265.53"/>
<text text-anchor="middle" x="116.5" y="-424.5" font-family="Helvetica,sans-Serif" font-size="10.00"> +interpolation_operand</text>
</g>
<!-- Node4&#45;&gt;Node3 -->
<g id="edge3" class="edge">
<title>Node4&#45;&gt;Node3</title>
<path fill="none" stroke="#404040" d="M121.01,-547.41C137.15,-534.39 156.4,-518.86 175.58,-503.38"/>
<polygon fill="none" stroke="#404040" points="175.64,-503.33 177.8,-496.45 184.98,-495.79 182.82,-502.67 175.64,-503.33"/>
<text text-anchor="middle" x="212.5" y="-521" font-family="Helvetica,sans-Serif" font-size="10.00"> +interpolation_operand</text>
</g>
<!-- Node5 -->
<g id="node5" class="node">
<title>Node5</title>
<g id="a_node5"><a xlink:href="classbool.html" target="_top" xlink:title=" ">
<polygon fill="white" stroke="black" points="316,-553 316,-610 354,-610 354,-553 316,-553"/>
<text text-anchor="middle" x="335" y="-598" font-family="Helvetica,sans-Serif" font-size="10.00">bool</text>
<polyline fill="none" stroke="black" points="316,-591 354,-591 "/>
<text text-anchor="middle" x="335" y="-579" font-family="Helvetica,sans-Serif" font-size="10.00"> </text>
<polyline fill="none" stroke="black" points="316,-572 354,-572 "/>
<text text-anchor="middle" x="335" y="-560" font-family="Helvetica,sans-Serif" font-size="10.00"> </text>
</a>
</g>
</g>
<!-- Node5&#45;&gt;Node2 -->
<g id="edge6" class="edge">
<title>Node5&#45;&gt;Node2</title>
<path fill="none" stroke="#404040" d="M354.41,-561.81C362.43,-552.76 370.82,-541.21 375,-529 382,-508.59 457.78,-593.36 362,-354 358.27,-344.69 353.51,-335.54 348.11,-326.73"/>
<polygon fill="none" stroke="#404040" points="348.04,-326.62 341.42,-323.77 341.51,-316.56 348.13,-319.41 348.04,-326.62"/>
<text text-anchor="middle" x="449.5" y="-424.5" font-family="Helvetica,sans-Serif" font-size="10.00"> +is_conforming</text>
</g>
<!-- Node5&#45;&gt;Node3 -->
<g id="edge4" class="edge">
<title>Node5&#45;&gt;Node3</title>
<path fill="none" stroke="#404040" d="M315.62,-560.36C307.9,-551.37 299.55,-540.28 294,-529 291.25,-523.42 288.79,-517.51 286.59,-511.47"/>
<polygon fill="none" stroke="#404040" points="286.47,-511.11 280.78,-506.69 282.67,-499.73 288.37,-504.15 286.47,-511.11"/>
<text text-anchor="middle" x="334.5" y="-521" font-family="Helvetica,sans-Serif" font-size="10.00"> +is_conforming</text>
</g>
<!-- Node6 -->
<g id="node6" class="node">
<title>Node6</title>
<g id="a_node6"><a xlink:title=" ">
<polygon fill="white" stroke="#bfbfbf" points="370,-210 370,-267 504,-267 504,-210 370,-210"/>
<text text-anchor="middle" x="437" y="-255" font-family="Helvetica,sans-Serif" font-size="10.00">static const uint16_type</text>
<polyline fill="none" stroke="#bfbfbf" points="370,-248 504,-248 "/>
<text text-anchor="middle" x="437" y="-236" font-family="Helvetica,sans-Serif" font-size="10.00"> </text>
<polyline fill="none" stroke="#bfbfbf" points="370,-229 504,-229 "/>
<text text-anchor="middle" x="437" y="-217" font-family="Helvetica,sans-Serif" font-size="10.00"> </text>
</a>
</g>
</g>
<!-- Node6&#45;&gt;Node1 -->
<g id="edge7" class="edge">
<title>Node6&#45;&gt;Node1</title>
<path fill="none" stroke="#404040" d="M424.06,-209.77C413.41,-186.95 397.87,-153.64 384.03,-124"/>
<polygon fill="none" stroke="#404040" points="383.9,-123.72 377.74,-119.98 378.83,-112.85 384.99,-116.59 383.9,-123.72"/>
<text text-anchor="middle" x="409.5" y="-134" font-family="Helvetica,sans-Serif" font-size="10.00"> +value</text>
</g>
</g>
</svg>
