<?xml version="1.0" encoding="UTF-8" standalone="no"?>
<!DOCTYPE svg PUBLIC "-//W3C//DTD SVG 1.1//EN"
 "http://www.w3.org/Graphics/SVG/1.1/DTD/svg11.dtd">
<!-- Generated by graphviz version 2.43.0 (0)
 -->
<!-- Title: Feel::Assert Pages: 1 -->
<svg width="216pt" height="165pt"
 viewBox="0.00 0.00 216.00 165.00" xmlns="http://www.w3.org/2000/svg" xmlns:xlink="http://www.w3.org/1999/xlink">
<g id="graph0" class="graph" transform="scale(1 1) rotate(0) translate(4 161)">
<title>Feel::Assert</title>
<polygon fill="white" stroke="transparent" points="-4,4 -4,-161 212,-161 212,4 -4,4"/>
<!-- Node1 -->
<g id="node1" class="node">
<title>Node1</title>
<g id="a_node1"><a xlink:title=" ">
<polygon fill="#bfbfbf" stroke="black" points="0,-0.5 0,-156.5 89,-156.5 89,-0.5 0,-0.5"/>
<text text-anchor="middle" x="44.5" y="-144.5" font-family="Helvetica,sans-Serif" font-size="10.00">Feel::Assert</text>
<polyline fill="none" stroke="black" points="0,-137.5 89,-137.5 "/>
<text text-anchor="middle" x="44.5" y="-125.5" font-family="Helvetica,sans-Serif" font-size="10.00"> </text>
<polyline fill="none" stroke="black" points="0,-118.5 89,-118.5 "/>
<text text-anchor="start" x="8" y="-106.5" font-family="Helvetica,sans-Serif" font-size="10.00">+ Assert()</text>
<text text-anchor="start" x="8" y="-95.5" font-family="Helvetica,sans-Serif" font-size="10.00">+ Assert()</text>
<text text-anchor="start" x="8" y="-84.5" font-family="Helvetica,sans-Serif" font-size="10.00">+ debug()</text>
<text text-anchor="start" x="8" y="-73.5" font-family="Helvetica,sans-Serif" font-size="10.00">+ error()</text>
<text text-anchor="start" x="8" y="-62.5" font-family="Helvetica,sans-Serif" font-size="10.00">+ fatal()</text>
<text text-anchor="start" x="8" y="-51.5" font-family="Helvetica,sans-Serif" font-size="10.00">and 7 more...</text>
<text text-anchor="start" x="8" y="-40.5" font-family="Helvetica,sans-Serif" font-size="10.00">+ setHandler()</text>
<text text-anchor="start" x="8" y="-29.5" font-family="Helvetica,sans-Serif" font-size="10.00">+ setLog()</text>
<text text-anchor="start" x="8" y="-18.5" font-family="Helvetica,sans-Serif" font-size="10.00">+ setLog()</text>
<text text-anchor="start" x="8" y="-7.5" font-family="Helvetica,sans-Serif" font-size="10.00">+ setLog()</text>
</a>
</g>
</g>
<!-- Node1&#45;&gt;Node1 -->
<g id="edge1" class="edge">
<title>Node1&#45;&gt;Node1</title>
<path fill="none" stroke="#404040" d="M89.16,-107.11C99.45,-104.64 107,-95.11 107,-78.5 107,-68.38 104.2,-60.89 99.68,-56.02"/>
<polygon fill="none" stroke="#404040" points="99.53,-55.94 92.33,-56.37 89.16,-49.89 96.36,-49.46 99.53,-55.94"/>
<text text-anchor="middle" x="157.5" y="-81.5" font-family="Helvetica,sans-Serif" font-size="10.00"> +SMART_ASSERT_A</text>
<text text-anchor="middle" x="157.5" y="-70.5" font-family="Helvetica,sans-Serif" font-size="10.00">+SMART_ASSERT_B</text>
</g>
</g>
</svg>
