<?xml version="1.0" encoding="UTF-8" standalone="no"?>
<!DOCTYPE svg PUBLIC "-//W3C//DTD SVG 1.1//EN"
 "http://www.w3.org/Graphics/SVG/1.1/DTD/svg11.dtd">
<!-- Generated by graphviz version 2.43.0 (0)
 -->
<!-- Title: nlohmann::detail::has_from_json&lt; BasicJsonType, T, enable_if_t&lt; !is_basic_json&lt; T &gt;::value &gt; &gt; Pages: 1 -->
<svg width="162pt" height="204pt"
 viewBox="0.00 0.00 162.00 204.00" xmlns="http://www.w3.org/2000/svg" xmlns:xlink="http://www.w3.org/1999/xlink">
<g id="graph0" class="graph" transform="scale(1 1) rotate(0) translate(4 200)">
<title>nlohmann::detail::has_from_json&lt; BasicJsonType, T, enable_if_t&lt; !is_basic_json&lt; T &gt;::value &gt; &gt;</title>
<polygon fill="white" stroke="transparent" points="-4,4 -4,-200 158,-200 158,4 -4,4"/>
<!-- Node1 -->
<g id="node1" class="node">
<title>Node1</title>
<g id="a_node1"><a xlink:title=" ">
<polygon fill="#bfbfbf" stroke="black" points="0,-0.5 0,-90.5 154,-90.5 154,-0.5 0,-0.5"/>
<text text-anchor="start" x="8" y="-78.5" font-family="Helvetica,sans-Serif" font-size="10.00">nlohmann::detail::has</text>
<text text-anchor="start" x="8" y="-67.5" font-family="Helvetica,sans-Serif" font-size="10.00">_from_json&lt; BasicJsonType,</text>
<text text-anchor="start" x="8" y="-56.5" font-family="Helvetica,sans-Serif" font-size="10.00"> T, enable_if_t&lt; !is_basic</text>
<text text-anchor="middle" x="77" y="-45.5" font-family="Helvetica,sans-Serif" font-size="10.00">_json&lt; T &gt;::value &gt; &gt;</text>
<polyline fill="none" stroke="black" points="0,-38.5 154,-38.5 "/>
<text text-anchor="middle" x="77" y="-26.5" font-family="Helvetica,sans-Serif" font-size="10.00"> </text>
<polyline fill="none" stroke="black" points="0,-19.5 154,-19.5 "/>
<text text-anchor="middle" x="77" y="-7.5" font-family="Helvetica,sans-Serif" font-size="10.00"> </text>
</a>
</g>
</g>
<!-- Node2 -->
<g id="node2" class="node">
<title>Node2</title>
<g id="a_node2"><a xlink:href="classbool.html" target="_top" xlink:title=" ">
<polygon fill="white" stroke="black" points="58,-138.5 58,-195.5 96,-195.5 96,-138.5 58,-138.5"/>
<text text-anchor="middle" x="77" y="-183.5" font-family="Helvetica,sans-Serif" font-size="10.00">bool</text>
<polyline fill="none" stroke="black" points="58,-176.5 96,-176.5 "/>
<text text-anchor="middle" x="77" y="-164.5" font-family="Helvetica,sans-Serif" font-size="10.00"> </text>
<polyline fill="none" stroke="black" points="58,-157.5 96,-157.5 "/>
<text text-anchor="middle" x="77" y="-145.5" font-family="Helvetica,sans-Serif" font-size="10.00"> </text>
</a>
</g>
</g>
<!-- Node2&#45;&gt;Node1 -->
<g id="edge1" class="edge">
<title>Node2&#45;&gt;Node1</title>
<path fill="none" stroke="#404040" d="M77,-138.28C77,-127.73 77,-115.29 77,-103.03"/>
<polygon fill="none" stroke="#404040" points="77,-102.91 73,-96.91 77,-90.91 81,-96.91 77,-102.91"/>
<text text-anchor="middle" x="96.5" y="-112" font-family="Helvetica,sans-Serif" font-size="10.00"> +value</text>
</g>
</g>
</svg>
