<?xml version="1.0" encoding="UTF-8" standalone="no"?>
<!DOCTYPE svg PUBLIC "-//W3C//DTD SVG 1.1//EN"
 "http://www.w3.org/Graphics/SVG/1.1/DTD/svg11.dtd">
<!-- Generated by graphviz version 2.43.0 (0)
 -->
<!-- Title: Feel::trace_mesh&lt; MeshType, TheTag &gt; Pages: 1 -->
<svg width="171pt" height="193pt"
 viewBox="0.00 0.00 171.00 193.00" xmlns="http://www.w3.org/2000/svg" xmlns:xlink="http://www.w3.org/1999/xlink">
<g id="graph0" class="graph" transform="scale(1 1) rotate(0) translate(4 189)">
<title>Feel::trace_mesh&lt; MeshType, TheTag &gt;</title>
<polygon fill="white" stroke="transparent" points="-4,4 -4,-189 167,-189 167,4 -4,4"/>
<!-- Node1 -->
<g id="node1" class="node">
<title>Node1</title>
<g id="a_node1"><a xlink:title="helper class to get the type of the trace of a mesh">
<polygon fill="#bfbfbf" stroke="black" points="0,-0.5 0,-68.5 163,-68.5 163,-0.5 0,-0.5"/>
<text text-anchor="start" x="8" y="-56.5" font-family="Helvetica,sans-Serif" font-size="10.00">Feel::trace_mesh&lt; MeshType,</text>
<text text-anchor="middle" x="81.5" y="-45.5" font-family="Helvetica,sans-Serif" font-size="10.00"> TheTag &gt;</text>
<polyline fill="none" stroke="black" points="0,-38.5 163,-38.5 "/>
<text text-anchor="middle" x="81.5" y="-26.5" font-family="Helvetica,sans-Serif" font-size="10.00"> </text>
<polyline fill="none" stroke="black" points="0,-19.5 163,-19.5 "/>
<text text-anchor="middle" x="81.5" y="-7.5" font-family="Helvetica,sans-Serif" font-size="10.00"> </text>
</a>
</g>
</g>
<!-- Node2 -->
<g id="node2" class="node">
<title>Node2</title>
<g id="a_node2"><a xlink:href="classint.html" target="_top" xlink:title=" ">
<polygon fill="white" stroke="#bfbfbf" points="67,-127.5 67,-184.5 96,-184.5 96,-127.5 67,-127.5"/>
<text text-anchor="middle" x="81.5" y="-172.5" font-family="Helvetica,sans-Serif" font-size="10.00">int</text>
<polyline fill="none" stroke="#bfbfbf" points="67,-165.5 96,-165.5 "/>
<text text-anchor="middle" x="81.5" y="-153.5" font-family="Helvetica,sans-Serif" font-size="10.00"> </text>
<polyline fill="none" stroke="#bfbfbf" points="67,-146.5 96,-146.5 "/>
<text text-anchor="middle" x="81.5" y="-134.5" font-family="Helvetica,sans-Serif" font-size="10.00"> </text>
</a>
</g>
</g>
<!-- Node2&#45;&gt;Node1 -->
<g id="edge1" class="edge">
<title>Node2&#45;&gt;Node1</title>
<path fill="none" stroke="#404040" d="M81.5,-127.28C81.5,-113.47 81.5,-96.4 81.5,-80.75"/>
<polygon fill="none" stroke="#404040" points="81.5,-80.59 77.5,-74.59 81.5,-68.59 85.5,-74.59 81.5,-80.59"/>
<text text-anchor="middle" x="102.5" y="-101" font-family="Helvetica,sans-Serif" font-size="10.00"> +d</text>
<text text-anchor="middle" x="102.5" y="-90" font-family="Helvetica,sans-Serif" font-size="10.00">+nOrder</text>
</g>
</g>
</svg>
