<?xml version="1.0" encoding="UTF-8" standalone="no"?>
<!DOCTYPE svg PUBLIC "-//W3C//DTD SVG 1.1//EN"
 "http://www.w3.org/Graphics/SVG/1.1/DTD/svg11.dtd">
<!-- Generated by graphviz version 2.43.0 (0)
 -->
<!-- Title: Feel::vf::EvaluateDataByMeshEntity&lt; DataByMeshEntityType &gt;::HasTestFunction&lt; Func &gt; Pages: 1 -->
<svg width="189pt" height="193pt"
 viewBox="0.00 0.00 189.00 193.00" xmlns="http://www.w3.org/2000/svg" xmlns:xlink="http://www.w3.org/1999/xlink">
<g id="graph0" class="graph" transform="scale(1 1) rotate(0) translate(4 189)">
<title>Feel::vf::EvaluateDataByMeshEntity&lt; DataByMeshEntityType &gt;::HasTestFunction&lt; Func &gt;</title>
<polygon fill="white" stroke="transparent" points="-4,4 -4,-189 185,-189 185,4 -4,4"/>
<!-- Node1 -->
<g id="node1" class="node">
<title>Node1</title>
<g id="a_node1"><a xlink:title=" ">
<polygon fill="#bfbfbf" stroke="black" points="0,-0.5 0,-79.5 181,-79.5 181,-0.5 0,-0.5"/>
<text text-anchor="start" x="8" y="-67.5" font-family="Helvetica,sans-Serif" font-size="10.00">Feel::vf::EvaluateDataBy</text>
<text text-anchor="start" x="8" y="-56.5" font-family="Helvetica,sans-Serif" font-size="10.00">MeshEntity&lt; DataByMeshEntity</text>
<text text-anchor="middle" x="90.5" y="-45.5" font-family="Helvetica,sans-Serif" font-size="10.00">Type &gt;::HasTestFunction&lt; Func &gt;</text>
<polyline fill="none" stroke="black" points="0,-38.5 181,-38.5 "/>
<text text-anchor="middle" x="90.5" y="-26.5" font-family="Helvetica,sans-Serif" font-size="10.00"> </text>
<polyline fill="none" stroke="black" points="0,-19.5 181,-19.5 "/>
<text text-anchor="middle" x="90.5" y="-7.5" font-family="Helvetica,sans-Serif" font-size="10.00"> </text>
</a>
</g>
</g>
<!-- Node2 -->
<g id="node2" class="node">
<title>Node2</title>
<g id="a_node2"><a xlink:href="classbool.html" target="_top" xlink:title=" ">
<polygon fill="white" stroke="#bfbfbf" points="71.5,-127.5 71.5,-184.5 109.5,-184.5 109.5,-127.5 71.5,-127.5"/>
<text text-anchor="middle" x="90.5" y="-172.5" font-family="Helvetica,sans-Serif" font-size="10.00">bool</text>
<polyline fill="none" stroke="#bfbfbf" points="71.5,-165.5 109.5,-165.5 "/>
<text text-anchor="middle" x="90.5" y="-153.5" font-family="Helvetica,sans-Serif" font-size="10.00"> </text>
<polyline fill="none" stroke="#bfbfbf" points="71.5,-146.5 109.5,-146.5 "/>
<text text-anchor="middle" x="90.5" y="-134.5" font-family="Helvetica,sans-Serif" font-size="10.00"> </text>
</a>
</g>
</g>
<!-- Node2&#45;&gt;Node1 -->
<g id="edge1" class="edge">
<title>Node2&#45;&gt;Node1</title>
<path fill="none" stroke="#404040" d="M90.5,-127.4C90.5,-116.63 90.5,-103.93 90.5,-91.62"/>
<polygon fill="none" stroke="#404040" points="90.5,-91.54 86.5,-85.54 90.5,-79.54 94.5,-85.54 90.5,-91.54"/>
<text text-anchor="middle" x="110.5" y="-101" font-family="Helvetica,sans-Serif" font-size="10.00"> +result</text>
</g>
</g>
</svg>
