<?xml version="1.0" encoding="UTF-8" standalone="no"?>
<!DOCTYPE svg PUBLIC "-//W3C//DTD SVG 1.1//EN"
 "http://www.w3.org/Graphics/SVG/1.1/DTD/svg11.dtd">
<!-- Generated by graphviz version 2.43.0 (0)
 -->
<!-- Title: Feel::FeelModels::ModelFieldsFindTag&lt; TagType &gt;::is_same_tag&lt; T &gt; Pages: 1 -->
<svg width="170pt" height="204pt"
 viewBox="0.00 0.00 170.00 204.00" xmlns="http://www.w3.org/2000/svg" xmlns:xlink="http://www.w3.org/1999/xlink">
<g id="graph0" class="graph" transform="scale(1 1) rotate(0) translate(4 200)">
<title>Feel::FeelModels::ModelFieldsFindTag&lt; TagType &gt;::is_same_tag&lt; T &gt;</title>
<polygon fill="white" stroke="transparent" points="-4,4 -4,-200 166,-200 166,4 -4,4"/>
<!-- Node1 -->
<g id="node1" class="node">
<title>Node1</title>
<g id="a_node1"><a xlink:title=" ">
<polygon fill="#bfbfbf" stroke="black" points="0,-0.5 0,-79.5 162,-79.5 162,-0.5 0,-0.5"/>
<text text-anchor="start" x="8" y="-67.5" font-family="Helvetica,sans-Serif" font-size="10.00">Feel::FeelModels::ModelFields</text>
<text text-anchor="start" x="8" y="-56.5" font-family="Helvetica,sans-Serif" font-size="10.00">FindTag&lt; TagType &gt;::is_same</text>
<text text-anchor="middle" x="81" y="-45.5" font-family="Helvetica,sans-Serif" font-size="10.00">_tag&lt; T &gt;</text>
<polyline fill="none" stroke="black" points="0,-38.5 162,-38.5 "/>
<text text-anchor="middle" x="81" y="-26.5" font-family="Helvetica,sans-Serif" font-size="10.00"> </text>
<polyline fill="none" stroke="black" points="0,-19.5 162,-19.5 "/>
<text text-anchor="middle" x="81" y="-7.5" font-family="Helvetica,sans-Serif" font-size="10.00"> </text>
</a>
</g>
</g>
<!-- Node2 -->
<g id="node2" class="node">
<title>Node2</title>
<g id="a_node2"><a xlink:title=" ">
<polygon fill="white" stroke="#bfbfbf" points="6.5,-116.5 6.5,-195.5 155.5,-195.5 155.5,-116.5 6.5,-116.5"/>
<text text-anchor="start" x="14.5" y="-183.5" font-family="Helvetica,sans-Serif" font-size="10.00">std::integral_constant</text>
<text text-anchor="start" x="14.5" y="-172.5" font-family="Helvetica,sans-Serif" font-size="10.00">&lt; bool, std::is_same_v</text>
<text text-anchor="middle" x="81" y="-161.5" font-family="Helvetica,sans-Serif" font-size="10.00">&lt; T::tag_type, TagType &gt; &gt;</text>
<polyline fill="none" stroke="#bfbfbf" points="6.5,-154.5 155.5,-154.5 "/>
<text text-anchor="middle" x="81" y="-142.5" font-family="Helvetica,sans-Serif" font-size="10.00"> </text>
<polyline fill="none" stroke="#bfbfbf" points="6.5,-135.5 155.5,-135.5 "/>
<text text-anchor="middle" x="81" y="-123.5" font-family="Helvetica,sans-Serif" font-size="10.00"> </text>
</a>
</g>
</g>
<!-- Node2&#45;&gt;Node1 -->
<g id="edge1" class="edge">
<title>Node2&#45;&gt;Node1</title>
<path fill="none" stroke="midnightblue" d="M81,-106.15C81,-97.26 81,-88.1 81,-79.56"/>
<polygon fill="none" stroke="midnightblue" points="77.5,-106.4 81,-116.4 84.5,-106.4 77.5,-106.4"/>
</g>
</g>
</svg>
