<?xml version="1.0" encoding="UTF-8" standalone="no"?>
<!DOCTYPE svg PUBLIC "-//W3C//DTD SVG 1.1//EN"
 "http://www.w3.org/Graphics/SVG/1.1/DTD/svg11.dtd">
<!-- Generated by graphviz version 2.43.0 (0)
 -->
<!-- Title: Feel::is_filter&lt; T &gt; Pages: 1 -->
<svg width="116pt" height="160pt"
 viewBox="0.00 0.00 116.00 160.00" xmlns="http://www.w3.org/2000/svg" xmlns:xlink="http://www.w3.org/1999/xlink">
<g id="graph0" class="graph" transform="scale(1 1) rotate(0) translate(4 156)">
<title>Feel::is_filter&lt; T &gt;</title>
<polygon fill="white" stroke="transparent" points="-4,4 -4,-156 112,-156 112,4 -4,4"/>
<!-- Node1 -->
<g id="node1" class="node">
<title>Node1</title>
<g id="a_node1"><a xlink:title="Filters.">
<polygon fill="#bfbfbf" stroke="black" points="0,-0.5 0,-57.5 108,-57.5 108,-0.5 0,-0.5"/>
<text text-anchor="middle" x="54" y="-45.5" font-family="Helvetica,sans-Serif" font-size="10.00">Feel::is_filter&lt; T &gt;</text>
<polyline fill="none" stroke="black" points="0,-38.5 108,-38.5 "/>
<text text-anchor="middle" x="54" y="-26.5" font-family="Helvetica,sans-Serif" font-size="10.00"> </text>
<polyline fill="none" stroke="black" points="0,-19.5 108,-19.5 "/>
<text text-anchor="middle" x="54" y="-7.5" font-family="Helvetica,sans-Serif" font-size="10.00"> </text>
</a>
</g>
</g>
<!-- Node2 -->
<g id="node2" class="node">
<title>Node2</title>
<g id="a_node2"><a xlink:title=" ">
<polygon fill="white" stroke="#bfbfbf" points="20,-94.5 20,-151.5 88,-151.5 88,-94.5 20,-94.5"/>
<text text-anchor="middle" x="54" y="-139.5" font-family="Helvetica,sans-Serif" font-size="10.00">false_type</text>
<polyline fill="none" stroke="#bfbfbf" points="20,-132.5 88,-132.5 "/>
<text text-anchor="middle" x="54" y="-120.5" font-family="Helvetica,sans-Serif" font-size="10.00"> </text>
<polyline fill="none" stroke="#bfbfbf" points="20,-113.5 88,-113.5 "/>
<text text-anchor="middle" x="54" y="-101.5" font-family="Helvetica,sans-Serif" font-size="10.00"> </text>
</a>
</g>
</g>
<!-- Node2&#45;&gt;Node1 -->
<g id="edge1" class="edge">
<title>Node2&#45;&gt;Node1</title>
<path fill="none" stroke="midnightblue" d="M54,-84.21C54,-75.29 54,-65.95 54,-57.58"/>
<polygon fill="none" stroke="midnightblue" points="50.5,-84.4 54,-94.4 57.5,-84.4 50.5,-84.4"/>
</g>
</g>
</svg>
