<?xml version="1.0" encoding="UTF-8" standalone="no"?>
<!DOCTYPE svg PUBLIC "-//W3C//DTD SVG 1.1//EN"
 "http://www.w3.org/Graphics/SVG/1.1/DTD/svg11.dtd">
<!-- Generated by graphviz version 2.43.0 (0)
 -->
<!-- Title: Feel::is_edge&lt; T &gt; Pages: 1 -->
<svg width="182pt" height="215pt"
 viewBox="0.00 0.00 182.00 215.00" xmlns="http://www.w3.org/2000/svg" xmlns:xlink="http://www.w3.org/1999/xlink">
<g id="graph0" class="graph" transform="scale(1 1) rotate(0) translate(4 211)">
<title>Feel::is_edge&lt; T &gt;</title>
<polygon fill="white" stroke="transparent" points="-4,4 -4,-211 178,-211 178,4 -4,4"/>
<!-- Node1 -->
<g id="node1" class="node">
<title>Node1</title>
<g id="a_node1"><a xlink:title=" ">
<polygon fill="#bfbfbf" stroke="black" points="32.5,-0.5 32.5,-57.5 141.5,-57.5 141.5,-0.5 32.5,-0.5"/>
<text text-anchor="middle" x="87" y="-45.5" font-family="Helvetica,sans-Serif" font-size="10.00">Feel::is_edge&lt; T &gt;</text>
<polyline fill="none" stroke="black" points="32.5,-38.5 141.5,-38.5 "/>
<text text-anchor="middle" x="87" y="-26.5" font-family="Helvetica,sans-Serif" font-size="10.00"> </text>
<polyline fill="none" stroke="black" points="32.5,-19.5 141.5,-19.5 "/>
<text text-anchor="middle" x="87" y="-7.5" font-family="Helvetica,sans-Serif" font-size="10.00"> </text>
</a>
</g>
</g>
<!-- Node2 -->
<g id="node2" class="node">
<title>Node2</title>
<g id="a_node2"><a xlink:href="classboost_1_1mpl_1_1bool__.html" target="_top" xlink:title=" ">
<polygon fill="white" stroke="#bfbfbf" points="0,-94.5 0,-206.5 174,-206.5 174,-94.5 0,-94.5"/>
<text text-anchor="start" x="8" y="-194.5" font-family="Helvetica,sans-Serif" font-size="10.00">boost::mpl::bool_&lt;</text>
<text text-anchor="start" x="8" y="-183.5" font-family="Helvetica,sans-Serif" font-size="10.00">(decay_type&lt; T &gt;::nDim</text>
<text text-anchor="start" x="8" y="-172.5" font-family="Helvetica,sans-Serif" font-size="10.00">==1 &amp;&amp;decay_type&lt; T &gt;</text>
<text text-anchor="start" x="8" y="-161.5" font-family="Helvetica,sans-Serif" font-size="10.00">::nRealDim==3)||(decay</text>
<text text-anchor="start" x="8" y="-150.5" font-family="Helvetica,sans-Serif" font-size="10.00">_type&lt; T &gt;::nDim==1 &amp;&amp;decay</text>
<text text-anchor="middle" x="87" y="-139.5" font-family="Helvetica,sans-Serif" font-size="10.00">_type&lt; T &gt;::nRealDim==2)&gt;</text>
<polyline fill="none" stroke="#bfbfbf" points="0,-132.5 174,-132.5 "/>
<text text-anchor="middle" x="87" y="-120.5" font-family="Helvetica,sans-Serif" font-size="10.00"> </text>
<polyline fill="none" stroke="#bfbfbf" points="0,-113.5 174,-113.5 "/>
<text text-anchor="middle" x="87" y="-101.5" font-family="Helvetica,sans-Serif" font-size="10.00"> </text>
</a>
</g>
</g>
<!-- Node2&#45;&gt;Node1 -->
<g id="edge1" class="edge">
<title>Node2&#45;&gt;Node1</title>
<path fill="none" stroke="midnightblue" d="M87,-84.15C87,-74.82 87,-65.67 87,-57.63"/>
<polygon fill="none" stroke="midnightblue" points="83.5,-84.3 87,-94.3 90.5,-84.3 83.5,-84.3"/>
</g>
</g>
</svg>
