<?xml version="1.0" encoding="UTF-8" standalone="no"?>
<!DOCTYPE svg PUBLIC "-//W3C//DTD SVG 1.1//EN"
 "http://www.w3.org/Graphics/SVG/1.1/DTD/svg11.dtd">
<!-- Generated by graphviz version 2.43.0 (0)
 -->
<!-- Title: nlohmann::detail::is_constructible_object_type_impl&lt; BasicJsonType, ConstructibleObjectType, enable_if_t&lt; is_detected&lt; mapped_type_t, ConstructibleObjectType &gt;::value &amp;&amp;is_detected&lt; key_type_t, ConstructibleObjectType &gt;::value &gt; &gt; Pages: 1 -->
<svg width="214pt" height="259pt"
 viewBox="0.00 0.00 214.00 259.00" xmlns="http://www.w3.org/2000/svg" xmlns:xlink="http://www.w3.org/1999/xlink">
<g id="graph0" class="graph" transform="scale(1 1) rotate(0) translate(4 255)">
<title>nlohmann::detail::is_constructible_object_type_impl&lt; BasicJsonType, ConstructibleObjectType, enable_if_t&lt; is_detected&lt; mapped_type_t, ConstructibleObjectType &gt;::value &amp;&amp;is_detected&lt; key_type_t, ConstructibleObjectType &gt;::value &gt; &gt;</title>
<polygon fill="white" stroke="transparent" points="-4,4 -4,-255 210,-255 210,4 -4,4"/>
<!-- Node1 -->
<g id="node1" class="node">
<title>Node1</title>
<g id="a_node1"><a xlink:title=" ">
<polygon fill="#bfbfbf" stroke="black" points="0,-0.5 0,-145.5 206,-145.5 206,-0.5 0,-0.5"/>
<text text-anchor="start" x="8" y="-133.5" font-family="Helvetica,sans-Serif" font-size="10.00">nlohmann::detail::is</text>
<text text-anchor="start" x="8" y="-122.5" font-family="Helvetica,sans-Serif" font-size="10.00">_constructible_object</text>
<text text-anchor="start" x="8" y="-111.5" font-family="Helvetica,sans-Serif" font-size="10.00">_type_impl&lt; BasicJsonType,</text>
<text text-anchor="start" x="8" y="-100.5" font-family="Helvetica,sans-Serif" font-size="10.00"> ConstructibleObjectType,</text>
<text text-anchor="start" x="8" y="-89.5" font-family="Helvetica,sans-Serif" font-size="10.00"> enable_if_t&lt; is_detected</text>
<text text-anchor="start" x="8" y="-78.5" font-family="Helvetica,sans-Serif" font-size="10.00">&lt; mapped_type_t, ConstructibleObject</text>
<text text-anchor="start" x="8" y="-67.5" font-family="Helvetica,sans-Serif" font-size="10.00">Type &gt;::value &amp;&amp;is_detected&lt; key</text>
<text text-anchor="start" x="8" y="-56.5" font-family="Helvetica,sans-Serif" font-size="10.00">_type_t, ConstructibleObjectType</text>
<text text-anchor="middle" x="103" y="-45.5" font-family="Helvetica,sans-Serif" font-size="10.00"> &gt;::value &gt; &gt;</text>
<polyline fill="none" stroke="black" points="0,-38.5 206,-38.5 "/>
<text text-anchor="middle" x="103" y="-26.5" font-family="Helvetica,sans-Serif" font-size="10.00"> </text>
<polyline fill="none" stroke="black" points="0,-19.5 206,-19.5 "/>
<text text-anchor="middle" x="103" y="-7.5" font-family="Helvetica,sans-Serif" font-size="10.00"> </text>
</a>
</g>
</g>
<!-- Node2 -->
<g id="node2" class="node">
<title>Node2</title>
<g id="a_node2"><a xlink:href="classbool.html" target="_top" xlink:title=" ">
<polygon fill="white" stroke="#bfbfbf" points="84,-193.5 84,-250.5 122,-250.5 122,-193.5 84,-193.5"/>
<text text-anchor="middle" x="103" y="-238.5" font-family="Helvetica,sans-Serif" font-size="10.00">bool</text>
<polyline fill="none" stroke="#bfbfbf" points="84,-231.5 122,-231.5 "/>
<text text-anchor="middle" x="103" y="-219.5" font-family="Helvetica,sans-Serif" font-size="10.00"> </text>
<polyline fill="none" stroke="#bfbfbf" points="84,-212.5 122,-212.5 "/>
<text text-anchor="middle" x="103" y="-200.5" font-family="Helvetica,sans-Serif" font-size="10.00"> </text>
</a>
</g>
</g>
<!-- Node2&#45;&gt;Node1 -->
<g id="edge1" class="edge">
<title>Node2&#45;&gt;Node1</title>
<path fill="none" stroke="#404040" d="M103,-193.35C103,-183.01 103,-170.66 103,-157.89"/>
<polygon fill="none" stroke="#404040" points="103,-157.56 99,-151.56 103,-145.56 107,-151.56 103,-157.56"/>
<text text-anchor="middle" x="122.5" y="-167" font-family="Helvetica,sans-Serif" font-size="10.00"> +value</text>
</g>
</g>
</svg>
