<?xml version="1.0" encoding="UTF-8" standalone="no"?>
<!DOCTYPE svg PUBLIC "-//W3C//DTD SVG 1.1//EN"
 "http://www.w3.org/Graphics/SVG/1.1/DTD/svg11.dtd">
<!-- Generated by graphviz version 2.43.0 (0)
 -->
<!-- Title: Feel::detail::FunctionSpaceMeshSupport&lt; SpaceType &gt;::UpdateMeshSupport Pages: 1 -->
<svg width="163pt" height="237pt"
 viewBox="0.00 0.00 163.00 237.00" xmlns="http://www.w3.org/2000/svg" xmlns:xlink="http://www.w3.org/1999/xlink">
<g id="graph0" class="graph" transform="scale(1 1) rotate(0) translate(4 233)">
<title>Feel::detail::FunctionSpaceMeshSupport&lt; SpaceType &gt;::UpdateMeshSupport</title>
<polygon fill="white" stroke="transparent" points="-4,4 -4,-233 159,-233 159,4 -4,4"/>
<!-- Node1 -->
<g id="node1" class="node">
<title>Node1</title>
<g id="a_node1"><a xlink:title=" ">
<polygon fill="#bfbfbf" stroke="black" points="0,-0.5 0,-112.5 155,-112.5 155,-0.5 0,-0.5"/>
<text text-anchor="start" x="8" y="-100.5" font-family="Helvetica,sans-Serif" font-size="10.00">Feel::detail::FunctionSpace</text>
<text text-anchor="start" x="8" y="-89.5" font-family="Helvetica,sans-Serif" font-size="10.00">MeshSupport&lt; SpaceType &gt;</text>
<text text-anchor="middle" x="77.5" y="-78.5" font-family="Helvetica,sans-Serif" font-size="10.00">::UpdateMeshSupport</text>
<polyline fill="none" stroke="black" points="0,-71.5 155,-71.5 "/>
<text text-anchor="middle" x="77.5" y="-59.5" font-family="Helvetica,sans-Serif" font-size="10.00"> </text>
<polyline fill="none" stroke="black" points="0,-52.5 155,-52.5 "/>
<text text-anchor="start" x="8" y="-40.5" font-family="Helvetica,sans-Serif" font-size="10.00">+ operator()()</text>
<text text-anchor="start" x="8" y="-29.5" font-family="Helvetica,sans-Serif" font-size="10.00">+ updateImpl()</text>
<text text-anchor="start" x="8" y="-18.5" font-family="Helvetica,sans-Serif" font-size="10.00">+ updateImpl()</text>
<text text-anchor="start" x="8" y="-7.5" font-family="Helvetica,sans-Serif" font-size="10.00">+ UpdateMeshSupport()</text>
</a>
</g>
</g>
<!-- Node2 -->
<g id="node2" class="node">
<title>Node2</title>
<g id="a_node2"><a xlink:title=" ">
<polygon fill="white" stroke="#bfbfbf" points="2,-160.5 2,-228.5 153,-228.5 153,-160.5 2,-160.5"/>
<text text-anchor="start" x="10" y="-216.5" font-family="Helvetica,sans-Serif" font-size="10.00">FunctionSpaceMeshSupport</text>
<text text-anchor="middle" x="77.5" y="-205.5" font-family="Helvetica,sans-Serif" font-size="10.00">&lt; SpaceType &gt; &amp;</text>
<polyline fill="none" stroke="#bfbfbf" points="2,-198.5 153,-198.5 "/>
<text text-anchor="middle" x="77.5" y="-186.5" font-family="Helvetica,sans-Serif" font-size="10.00"> </text>
<polyline fill="none" stroke="#bfbfbf" points="2,-179.5 153,-179.5 "/>
<text text-anchor="middle" x="77.5" y="-167.5" font-family="Helvetica,sans-Serif" font-size="10.00"> </text>
</a>
</g>
</g>
<!-- Node2&#45;&gt;Node1 -->
<g id="edge1" class="edge">
<title>Node2&#45;&gt;Node1</title>
<path fill="none" stroke="#404040" d="M77.5,-160.23C77.5,-149.5 77.5,-137.18 77.5,-124.9"/>
<polygon fill="none" stroke="#404040" points="77.5,-124.68 73.5,-118.68 77.5,-112.68 81.5,-118.68 77.5,-124.68"/>
<text text-anchor="middle" x="102.5" y="-134" font-family="Helvetica,sans-Serif" font-size="10.00"> +M_fsms</text>
</g>
</g>
</svg>
