<?xml version="1.0" encoding="UTF-8" standalone="no"?>
<!DOCTYPE svg PUBLIC "-//W3C//DTD SVG 1.1//EN"
 "http://www.w3.org/Graphics/SVG/1.1/DTD/svg11.dtd">
<!-- Generated by graphviz version 2.43.0 (0)
 -->
<!-- Title: std::tuple_size&lt; boost::hana::tuple&lt; Types... &gt; &gt; Pages: 1 -->
<svg width="156pt" height="193pt"
 viewBox="0.00 0.00 156.00 193.00" xmlns="http://www.w3.org/2000/svg" xmlns:xlink="http://www.w3.org/1999/xlink">
<g id="graph0" class="graph" transform="scale(1 1) rotate(0) translate(4 189)">
<title>std::tuple_size&lt; boost::hana::tuple&lt; Types... &gt; &gt;</title>
<polygon fill="white" stroke="transparent" points="-4,4 -4,-189 152,-189 152,4 -4,4"/>
<!-- Node1 -->
<g id="node1" class="node">
<title>Node1</title>
<g id="a_node1"><a xlink:title=" ">
<polygon fill="#bfbfbf" stroke="black" points="0,-0.5 0,-68.5 148,-68.5 148,-0.5 0,-0.5"/>
<text text-anchor="start" x="8" y="-56.5" font-family="Helvetica,sans-Serif" font-size="10.00">std::tuple_size&lt; boost</text>
<text text-anchor="middle" x="74" y="-45.5" font-family="Helvetica,sans-Serif" font-size="10.00">::hana::tuple&lt; Types... &gt; &gt;</text>
<polyline fill="none" stroke="black" points="0,-38.5 148,-38.5 "/>
<text text-anchor="middle" x="74" y="-26.5" font-family="Helvetica,sans-Serif" font-size="10.00"> </text>
<polyline fill="none" stroke="black" points="0,-19.5 148,-19.5 "/>
<text text-anchor="middle" x="74" y="-7.5" font-family="Helvetica,sans-Serif" font-size="10.00"> </text>
</a>
</g>
</g>
<!-- Node2 -->
<g id="node2" class="node">
<title>Node2</title>
<g id="a_node2"><a xlink:href="classboost_1_1hana_1_1integral__constant.html" target="_top" xlink:title=" ">
<polygon fill="white" stroke="black" points="15.5,-105.5 15.5,-184.5 132.5,-184.5 132.5,-105.5 15.5,-105.5"/>
<text text-anchor="start" x="23.5" y="-172.5" font-family="Helvetica,sans-Serif" font-size="10.00">boost::hana::integral</text>
<text text-anchor="start" x="23.5" y="-161.5" font-family="Helvetica,sans-Serif" font-size="10.00">_constant&lt; std::size</text>
<text text-anchor="middle" x="74" y="-150.5" font-family="Helvetica,sans-Serif" font-size="10.00">_t, sizeof...(Types)&gt;</text>
<polyline fill="none" stroke="black" points="15.5,-143.5 132.5,-143.5 "/>
<text text-anchor="middle" x="74" y="-131.5" font-family="Helvetica,sans-Serif" font-size="10.00"> </text>
<polyline fill="none" stroke="black" points="15.5,-124.5 132.5,-124.5 "/>
<text text-anchor="middle" x="74" y="-112.5" font-family="Helvetica,sans-Serif" font-size="10.00"> </text>
</a>
</g>
</g>
<!-- Node2&#45;&gt;Node1 -->
<g id="edge1" class="edge">
<title>Node2&#45;&gt;Node1</title>
<path fill="none" stroke="midnightblue" d="M74,-95.35C74,-86.28 74,-77 74,-68.54"/>
<polygon fill="none" stroke="midnightblue" points="70.5,-95.44 74,-105.44 77.5,-95.44 70.5,-95.44"/>
</g>
</g>
</svg>
