<?xml version="1.0" encoding="UTF-8" standalone="no"?>
<!DOCTYPE svg PUBLIC "-//W3C//DTD SVG 1.1//EN"
 "http://www.w3.org/Graphics/SVG/1.1/DTD/svg11.dtd">
<!-- Generated by graphviz version 2.43.0 (0)
 -->
<!-- Title: nlohmann::detail::internal_iterator&lt; BasicJsonType &gt; Pages: 1 -->
<svg width="295pt" height="248pt"
 viewBox="0.00 0.00 294.57 248.00" xmlns="http://www.w3.org/2000/svg" xmlns:xlink="http://www.w3.org/1999/xlink">
<g id="graph0" class="graph" transform="scale(1 1) rotate(0) translate(4 244)">
<title>nlohmann::detail::internal_iterator&lt; BasicJsonType &gt;</title>
<polygon fill="white" stroke="transparent" points="-4,4 -4,-244 290.57,-244 290.57,4 -4,4"/>
<!-- Node1 -->
<g id="node1" class="node">
<title>Node1</title>
<g id="a_node1"><a xlink:title="an iterator value">
<polygon fill="#bfbfbf" stroke="black" points="31.57,-0.5 31.57,-68.5 180.57,-68.5 180.57,-0.5 31.57,-0.5"/>
<text text-anchor="start" x="39.57" y="-56.5" font-family="Helvetica,sans-Serif" font-size="10.00">nlohmann::detail::internal</text>
<text text-anchor="middle" x="106.07" y="-45.5" font-family="Helvetica,sans-Serif" font-size="10.00">_iterator&lt; BasicJsonType &gt;</text>
<polyline fill="none" stroke="black" points="31.57,-38.5 180.57,-38.5 "/>
<text text-anchor="middle" x="106.07" y="-26.5" font-family="Helvetica,sans-Serif" font-size="10.00"> </text>
<polyline fill="none" stroke="black" points="31.57,-19.5 180.57,-19.5 "/>
<text text-anchor="middle" x="106.07" y="-7.5" font-family="Helvetica,sans-Serif" font-size="10.00"> </text>
</a>
</g>
</g>
<!-- Node2 -->
<g id="node2" class="node">
<title>Node2</title>
<g id="a_node2"><a xlink:title=" ">
<polygon fill="white" stroke="#bfbfbf" points="22.57,-149.5 22.57,-206.5 75.57,-206.5 75.57,-149.5 22.57,-149.5"/>
<text text-anchor="middle" x="49.07" y="-194.5" font-family="Helvetica,sans-Serif" font-size="10.00">iterator</text>
<polyline fill="none" stroke="#bfbfbf" points="22.57,-187.5 75.57,-187.5 "/>
<text text-anchor="middle" x="49.07" y="-175.5" font-family="Helvetica,sans-Serif" font-size="10.00"> </text>
<polyline fill="none" stroke="#bfbfbf" points="22.57,-168.5 75.57,-168.5 "/>
<text text-anchor="middle" x="49.07" y="-156.5" font-family="Helvetica,sans-Serif" font-size="10.00"> </text>
</a>
</g>
</g>
<!-- Node2&#45;&gt;Node1 -->
<g id="edge1" class="edge">
<title>Node2&#45;&gt;Node1</title>
<path fill="none" stroke="#404040" d="M22.32,-151.1C6.7,-132.73 -7.65,-107.76 5.07,-87 9.42,-79.9 15.09,-73.73 21.53,-68.39"/>
<polygon fill="none" stroke="#404040" points="21.76,-68.23 24.25,-61.46 31.45,-61.15 28.97,-67.92 21.76,-68.23"/>
<text text-anchor="middle" x="44.57" y="-90" font-family="Helvetica,sans-Serif" font-size="10.00"> +array_iterator</text>
</g>
<!-- Node2&#45;&gt;Node1 -->
<g id="edge2" class="edge">
<title>Node2&#45;&gt;Node1</title>
<path fill="none" stroke="#404040" d="M61.91,-149.44C68.78,-134.37 77.21,-115.29 84.07,-98 86.34,-92.27 88.63,-86.19 90.82,-80.17"/>
<polygon fill="none" stroke="#404040" points="90.86,-80.06 89.12,-73.07 94.9,-68.76 96.65,-75.76 90.86,-80.06"/>
<text text-anchor="middle" x="129.57" y="-90" font-family="Helvetica,sans-Serif" font-size="10.00"> +object_iterator</text>
</g>
<!-- Node3 -->
<g id="node3" class="node">
<title>Node3</title>
<g id="a_node3"><a xlink:href="classnlohmann_1_1detail_1_1primitive__iterator__t.html" target="_top" xlink:title=" ">
<polygon fill="white" stroke="black" points="137.57,-116.5 137.57,-239.5 286.57,-239.5 286.57,-116.5 137.57,-116.5"/>
<text text-anchor="start" x="145.57" y="-227.5" font-family="Helvetica,sans-Serif" font-size="10.00">nlohmann::detail::primitive</text>
<text text-anchor="middle" x="212.07" y="-216.5" font-family="Helvetica,sans-Serif" font-size="10.00">_iterator_t</text>
<polyline fill="none" stroke="black" points="137.57,-209.5 286.57,-209.5 "/>
<text text-anchor="middle" x="212.07" y="-197.5" font-family="Helvetica,sans-Serif" font-size="10.00"> </text>
<polyline fill="none" stroke="black" points="137.57,-190.5 286.57,-190.5 "/>
<text text-anchor="start" x="145.57" y="-178.5" font-family="Helvetica,sans-Serif" font-size="10.00">+ get_value()</text>
<text text-anchor="start" x="145.57" y="-167.5" font-family="Helvetica,sans-Serif" font-size="10.00">+ is_begin()</text>
<text text-anchor="start" x="145.57" y="-156.5" font-family="Helvetica,sans-Serif" font-size="10.00">+ is_end()</text>
<text text-anchor="start" x="145.57" y="-145.5" font-family="Helvetica,sans-Serif" font-size="10.00">+ operator+()</text>
<text text-anchor="start" x="145.57" y="-134.5" font-family="Helvetica,sans-Serif" font-size="10.00">+ operator++()</text>
<text text-anchor="start" x="145.57" y="-123.5" font-family="Helvetica,sans-Serif" font-size="10.00">and 7 more...</text>
</a>
</g>
</g>
<!-- Node3&#45;&gt;Node1 -->
<g id="edge3" class="edge">
<title>Node3&#45;&gt;Node1</title>
<path fill="none" stroke="#404040" d="M192.47,-116.42C187.67,-106.06 181.9,-95.81 175.07,-87 172.34,-83.49 169.32,-80.09 166.1,-76.84"/>
<polygon fill="none" stroke="#404040" points="166,-76.75 158.88,-75.59 157.21,-68.57 164.33,-69.73 166,-76.75"/>
<text text-anchor="middle" x="230.57" y="-90" font-family="Helvetica,sans-Serif" font-size="10.00"> +primitive_iterator</text>
</g>
</g>
</svg>
