<?xml version="1.0" encoding="UTF-8" standalone="no"?>
<!DOCTYPE svg PUBLIC "-//W3C//DTD SVG 1.1//EN"
 "http://www.w3.org/Graphics/SVG/1.1/DTD/svg11.dtd">
<!-- Generated by graphviz version 2.43.0 (0)
 -->
<!-- Title: Feel::vf::One&lt; CType, Dim &gt;::tensor&lt; Geo_t, Basis_i_t, Basis_j_t &gt; Pages: 1 -->
<svg width="154pt" height="248pt"
 viewBox="0.00 0.00 154.00 248.00" xmlns="http://www.w3.org/2000/svg" xmlns:xlink="http://www.w3.org/1999/xlink">
<g id="graph0" class="graph" transform="scale(1 1) rotate(0) translate(4 244)">
<title>Feel::vf::One&lt; CType, Dim &gt;::tensor&lt; Geo_t, Basis_i_t, Basis_j_t &gt;</title>
<polygon fill="white" stroke="transparent" points="-4,4 -4,-244 150,-244 150,4 -4,4"/>
<!-- Node1 -->
<g id="node1" class="node">
<title>Node1</title>
<g id="a_node1"><a xlink:title=" ">
<polygon fill="#bfbfbf" stroke="black" points="1.5,-0.5 1.5,-134.5 132.5,-134.5 132.5,-0.5 1.5,-0.5"/>
<text text-anchor="start" x="9.5" y="-122.5" font-family="Helvetica,sans-Serif" font-size="10.00">Feel::vf::One&lt; CType,</text>
<text text-anchor="start" x="9.5" y="-111.5" font-family="Helvetica,sans-Serif" font-size="10.00"> Dim &gt;::tensor&lt; Geo_t,</text>
<text text-anchor="middle" x="67" y="-100.5" font-family="Helvetica,sans-Serif" font-size="10.00"> Basis_i_t, Basis_j_t &gt;</text>
<polyline fill="none" stroke="black" points="1.5,-93.5 132.5,-93.5 "/>
<text text-anchor="middle" x="67" y="-81.5" font-family="Helvetica,sans-Serif" font-size="10.00"> </text>
<polyline fill="none" stroke="black" points="1.5,-74.5 132.5,-74.5 "/>
<text text-anchor="start" x="9.5" y="-62.5" font-family="Helvetica,sans-Serif" font-size="10.00">+ evalijq()</text>
<text text-anchor="start" x="9.5" y="-51.5" font-family="Helvetica,sans-Serif" font-size="10.00">+ evalijq()</text>
<text text-anchor="start" x="9.5" y="-40.5" font-family="Helvetica,sans-Serif" font-size="10.00">+ evalijq()</text>
<text text-anchor="start" x="9.5" y="-29.5" font-family="Helvetica,sans-Serif" font-size="10.00">+ evaliq()</text>
<text text-anchor="start" x="9.5" y="-18.5" font-family="Helvetica,sans-Serif" font-size="10.00">+ evaliq()</text>
<text text-anchor="start" x="9.5" y="-7.5" font-family="Helvetica,sans-Serif" font-size="10.00">and 11 more...</text>
</a>
</g>
</g>
<!-- Node2 -->
<g id="node2" class="node">
<title>Node2</title>
<g id="a_node2"><a xlink:title=" ">
<polygon fill="white" stroke="#bfbfbf" points="0,-182.5 0,-239.5 134,-239.5 134,-182.5 0,-182.5"/>
<text text-anchor="middle" x="67" y="-227.5" font-family="Helvetica,sans-Serif" font-size="10.00">static const uint16_type</text>
<polyline fill="none" stroke="#bfbfbf" points="0,-220.5 134,-220.5 "/>
<text text-anchor="middle" x="67" y="-208.5" font-family="Helvetica,sans-Serif" font-size="10.00"> </text>
<polyline fill="none" stroke="#bfbfbf" points="0,-201.5 134,-201.5 "/>
<text text-anchor="middle" x="67" y="-189.5" font-family="Helvetica,sans-Serif" font-size="10.00"> </text>
</a>
</g>
</g>
<!-- Node2&#45;&gt;Node1 -->
<g id="edge1" class="edge">
<title>Node2&#45;&gt;Node1</title>
<path fill="none" stroke="#404040" d="M67,-182.38C67,-172.02 67,-159.66 67,-146.97"/>
<polygon fill="none" stroke="#404040" points="67,-146.75 63,-140.75 67,-134.75 71,-140.75 67,-146.75"/>
<text text-anchor="middle" x="106.5" y="-156" font-family="Helvetica,sans-Serif" font-size="10.00"> +nComponents</text>
</g>
</g>
</svg>
