<?xml version="1.0" encoding="UTF-8" standalone="no"?>
<!DOCTYPE svg PUBLIC "-//W3C//DTD SVG 1.1//EN"
 "http://www.w3.org/Graphics/SVG/1.1/DTD/svg11.dtd">
<!-- Generated by graphviz version 2.43.0 (0)
 -->
<!-- Title: Feel::detail::createWorldsComm&lt; SpaceType &gt; Pages: 1 -->
<svg width="257pt" height="447pt"
 viewBox="0.00 0.00 256.50 447.00" xmlns="http://www.w3.org/2000/svg" xmlns:xlink="http://www.w3.org/1999/xlink">
<g id="graph0" class="graph" transform="scale(1 1) rotate(0) translate(4 443)">
<title>Feel::detail::createWorldsComm&lt; SpaceType &gt;</title>
<polygon fill="white" stroke="transparent" points="-4,4 -4,-443 252.5,-443 252.5,4 -4,4"/>
<!-- Node1 -->
<g id="node1" class="node">
<title>Node1</title>
<g id="a_node1"><a xlink:title=" ">
<polygon fill="#bfbfbf" stroke="black" points="55.5,-0.5 55.5,-112.5 195.5,-112.5 195.5,-0.5 55.5,-0.5"/>
<text text-anchor="start" x="63.5" y="-100.5" font-family="Helvetica,sans-Serif" font-size="10.00">Feel::detail::createWorlds</text>
<text text-anchor="middle" x="125.5" y="-89.5" font-family="Helvetica,sans-Serif" font-size="10.00">Comm&lt; SpaceType &gt;</text>
<polyline fill="none" stroke="black" points="55.5,-82.5 195.5,-82.5 "/>
<text text-anchor="middle" x="125.5" y="-70.5" font-family="Helvetica,sans-Serif" font-size="10.00"> </text>
<polyline fill="none" stroke="black" points="55.5,-63.5 195.5,-63.5 "/>
<text text-anchor="start" x="63.5" y="-51.5" font-family="Helvetica,sans-Serif" font-size="10.00">+ createWorldsComm()</text>
<text text-anchor="start" x="63.5" y="-40.5" font-family="Helvetica,sans-Serif" font-size="10.00">+ init()</text>
<text text-anchor="start" x="63.5" y="-29.5" font-family="Helvetica,sans-Serif" font-size="10.00">+ init()</text>
<text text-anchor="start" x="63.5" y="-18.5" font-family="Helvetica,sans-Serif" font-size="10.00">+ worldsComm()</text>
<text text-anchor="start" x="63.5" y="-7.5" font-family="Helvetica,sans-Serif" font-size="10.00">+ worldsComm()</text>
</a>
</g>
</g>
<!-- Node2 -->
<g id="node2" class="node">
<title>Node2</title>
<g id="a_node2"><a xlink:title=" ">
<polygon fill="white" stroke="#bfbfbf" points="0,-160.5 0,-228.5 137,-228.5 137,-160.5 0,-160.5"/>
<text text-anchor="start" x="8" y="-216.5" font-family="Helvetica,sans-Serif" font-size="10.00">std::vector&lt; worldcomm</text>
<text text-anchor="middle" x="68.5" y="-205.5" font-family="Helvetica,sans-Serif" font-size="10.00">_ptr_t &gt;</text>
<polyline fill="none" stroke="#bfbfbf" points="0,-198.5 137,-198.5 "/>
<text text-anchor="middle" x="68.5" y="-186.5" font-family="Helvetica,sans-Serif" font-size="10.00"> </text>
<polyline fill="none" stroke="#bfbfbf" points="0,-179.5 137,-179.5 "/>
<text text-anchor="middle" x="68.5" y="-167.5" font-family="Helvetica,sans-Serif" font-size="10.00"> </text>
</a>
</g>
</g>
<!-- Node2&#45;&gt;Node1 -->
<g id="edge1" class="edge">
<title>Node2&#45;&gt;Node1</title>
<path fill="none" stroke="#404040" d="M65.18,-160.38C65.23,-150.69 66.3,-140.23 69.5,-131 70.34,-128.57 71.3,-126.16 72.35,-123.77"/>
<polygon fill="none" stroke="#404040" points="72.48,-123.5 71.63,-116.34 77.91,-112.8 78.76,-119.96 72.48,-123.5"/>
<text text-anchor="middle" x="115" y="-134" font-family="Helvetica,sans-Serif" font-size="10.00"> +M_worldsComm</text>
</g>
<!-- Node3 -->
<g id="node3" class="node">
<title>Node3</title>
<g id="a_node3"><a xlink:title="STL class.">
<polygon fill="white" stroke="#bfbfbf" points="9.5,-276.5 9.5,-333.5 127.5,-333.5 127.5,-276.5 9.5,-276.5"/>
<text text-anchor="middle" x="68.5" y="-321.5" font-family="Helvetica,sans-Serif" font-size="10.00">std::shared_ptr&lt; T &gt;</text>
<polyline fill="none" stroke="#bfbfbf" points="9.5,-314.5 127.5,-314.5 "/>
<text text-anchor="middle" x="68.5" y="-302.5" font-family="Helvetica,sans-Serif" font-size="10.00"> </text>
<polyline fill="none" stroke="#bfbfbf" points="9.5,-295.5 127.5,-295.5 "/>
<text text-anchor="start" x="17.5" y="-283.5" font-family="Helvetica,sans-Serif" font-size="10.00">+ operator&#45;&gt;()</text>
</a>
</g>
</g>
<!-- Node3&#45;&gt;Node2 -->
<g id="edge2" class="edge">
<title>Node3&#45;&gt;Node2</title>
<path fill="none" stroke="#404040" d="M68.5,-276.34C68.5,-265.53 68.5,-252.85 68.5,-240.77"/>
<polygon fill="none" stroke="#404040" points="68.5,-240.52 64.5,-234.52 68.5,-228.52 72.5,-234.52 68.5,-240.52"/>
<text text-anchor="middle" x="97.5" y="-250" font-family="Helvetica,sans-Serif" font-size="10.00"> +elements</text>
</g>
<!-- Node4 -->
<g id="node4" class="node">
<title>Node4</title>
<g id="a_node4"><a xlink:title=" ">
<polygon fill="white" stroke="#bfbfbf" points="54,-381.5 54,-438.5 83,-438.5 83,-381.5 54,-381.5"/>
<text text-anchor="middle" x="68.5" y="-426.5" font-family="Helvetica,sans-Serif" font-size="10.00">T</text>
<polyline fill="none" stroke="#bfbfbf" points="54,-419.5 83,-419.5 "/>
<text text-anchor="middle" x="68.5" y="-407.5" font-family="Helvetica,sans-Serif" font-size="10.00"> </text>
<polyline fill="none" stroke="#bfbfbf" points="54,-400.5 83,-400.5 "/>
<text text-anchor="middle" x="68.5" y="-388.5" font-family="Helvetica,sans-Serif" font-size="10.00"> </text>
</a>
</g>
</g>
<!-- Node4&#45;&gt;Node3 -->
<g id="edge3" class="edge">
<title>Node4&#45;&gt;Node3</title>
<path fill="none" stroke="#404040" d="M68.5,-381.4C68.5,-370.55 68.5,-357.87 68.5,-346.05"/>
<polygon fill="none" stroke="#404040" points="68.5,-345.68 64.5,-339.68 68.5,-333.68 72.5,-339.68 68.5,-345.68"/>
<text text-anchor="middle" x="81" y="-355" font-family="Helvetica,sans-Serif" font-size="10.00"> +ptr</text>
</g>
<!-- Node5 -->
<g id="node5" class="node">
<title>Node5</title>
<g id="a_node5"><a xlink:href="classbool.html" target="_top" xlink:title=" ">
<polygon fill="white" stroke="black" points="163.5,-166 163.5,-223 201.5,-223 201.5,-166 163.5,-166"/>
<text text-anchor="middle" x="182.5" y="-211" font-family="Helvetica,sans-Serif" font-size="10.00">bool</text>
<polyline fill="none" stroke="black" points="163.5,-204 201.5,-204 "/>
<text text-anchor="middle" x="182.5" y="-192" font-family="Helvetica,sans-Serif" font-size="10.00"> </text>
<polyline fill="none" stroke="black" points="163.5,-185 201.5,-185 "/>
<text text-anchor="middle" x="182.5" y="-173" font-family="Helvetica,sans-Serif" font-size="10.00"> </text>
</a>
</g>
</g>
<!-- Node5&#45;&gt;Node1 -->
<g id="edge4" class="edge">
<title>Node5&#45;&gt;Node1</title>
<path fill="none" stroke="#404040" d="M173.48,-165.88C169.72,-154.92 165.15,-142.27 160.5,-131 159.49,-128.56 158.45,-126.08 157.37,-123.59"/>
<polygon fill="none" stroke="#404040" points="157.36,-123.58 151.28,-119.71 152.51,-112.6 158.59,-116.47 157.36,-123.58"/>
<text text-anchor="middle" x="206.5" y="-134" font-family="Helvetica,sans-Serif" font-size="10.00"> +useMeshesList</text>
</g>
</g>
</svg>
