<?xml version="1.0" encoding="UTF-8" standalone="no"?>
<!DOCTYPE svg PUBLIC "-//W3C//DTD SVG 1.1//EN"
 "http://www.w3.org/Graphics/SVG/1.1/DTD/svg11.dtd">
<!-- Generated by graphviz version 2.43.0 (0)
 -->
<!-- Title: nlohmann::detail::internal_iterator&lt; BasicJsonType &gt; Pages: 1 -->
<svg width="334pt" height="248pt"
 viewBox="0.00 0.00 334.00 248.00" xmlns="http://www.w3.org/2000/svg" xmlns:xlink="http://www.w3.org/1999/xlink">
<g id="graph0" class="graph" transform="scale(1 1) rotate(0) translate(4 244)">
<title>nlohmann::detail::internal_iterator&lt; BasicJsonType &gt;</title>
<polygon fill="white" stroke="transparent" points="-4,4 -4,-244 330,-244 330,4 -4,4"/>
<!-- Node1 -->
<g id="node1" class="node">
<title>Node1</title>
<g id="a_node1"><a xlink:title="an iterator value">
<polygon fill="#bfbfbf" stroke="black" points="58,-0.5 58,-68.5 207,-68.5 207,-0.5 58,-0.5"/>
<text text-anchor="start" x="66" y="-56.5" font-family="Helvetica,sans-Serif" font-size="10.00">nlohmann::detail::internal</text>
<text text-anchor="middle" x="132.5" y="-45.5" font-family="Helvetica,sans-Serif" font-size="10.00">_iterator&lt; BasicJsonType &gt;</text>
<polyline fill="none" stroke="black" points="58,-38.5 207,-38.5 "/>
<text text-anchor="middle" x="132.5" y="-26.5" font-family="Helvetica,sans-Serif" font-size="10.00"> </text>
<polyline fill="none" stroke="black" points="58,-19.5 207,-19.5 "/>
<text text-anchor="middle" x="132.5" y="-7.5" font-family="Helvetica,sans-Serif" font-size="10.00"> </text>
</a>
</g>
</g>
<!-- Node2 -->
<g id="node2" class="node">
<title>Node2</title>
<g id="a_node2"><a xlink:title=" ">
<polygon fill="white" stroke="#bfbfbf" points="0,-149.5 0,-206.5 53,-206.5 53,-149.5 0,-149.5"/>
<text text-anchor="middle" x="26.5" y="-194.5" font-family="Helvetica,sans-Serif" font-size="10.00">iterator</text>
<polyline fill="none" stroke="#bfbfbf" points="0,-187.5 53,-187.5 "/>
<text text-anchor="middle" x="26.5" y="-175.5" font-family="Helvetica,sans-Serif" font-size="10.00"> </text>
<polyline fill="none" stroke="#bfbfbf" points="0,-168.5 53,-168.5 "/>
<text text-anchor="middle" x="26.5" y="-156.5" font-family="Helvetica,sans-Serif" font-size="10.00"> </text>
</a>
</g>
</g>
<!-- Node2&#45;&gt;Node1 -->
<g id="edge1" class="edge">
<title>Node2&#45;&gt;Node1</title>
<path fill="none" stroke="#404040" d="M26.67,-149.09C28.07,-130.02 32.56,-105.04 45.5,-87 48.11,-83.36 51.06,-79.94 54.26,-76.72"/>
<polygon fill="none" stroke="#404040" points="54.31,-76.68 56.11,-69.7 63.25,-68.69 61.44,-75.67 54.31,-76.68"/>
<text text-anchor="middle" x="87" y="-90" font-family="Helvetica,sans-Serif" font-size="10.00"> +object_iterator</text>
</g>
<!-- Node3 -->
<g id="node3" class="node">
<title>Node3</title>
<g id="a_node3"><a xlink:title=" ">
<polygon fill="white" stroke="#bfbfbf" points="106,-149.5 106,-206.5 159,-206.5 159,-149.5 106,-149.5"/>
<text text-anchor="middle" x="132.5" y="-194.5" font-family="Helvetica,sans-Serif" font-size="10.00">iterator</text>
<polyline fill="none" stroke="#bfbfbf" points="106,-187.5 159,-187.5 "/>
<text text-anchor="middle" x="132.5" y="-175.5" font-family="Helvetica,sans-Serif" font-size="10.00"> </text>
<polyline fill="none" stroke="#bfbfbf" points="106,-168.5 159,-168.5 "/>
<text text-anchor="middle" x="132.5" y="-156.5" font-family="Helvetica,sans-Serif" font-size="10.00"> </text>
</a>
</g>
</g>
<!-- Node3&#45;&gt;Node1 -->
<g id="edge2" class="edge">
<title>Node3&#45;&gt;Node1</title>
<path fill="none" stroke="#404040" d="M132.5,-149.38C132.5,-129.84 132.5,-103.19 132.5,-80.59"/>
<polygon fill="none" stroke="#404040" points="132.5,-80.52 128.5,-74.52 132.5,-68.52 136.5,-74.52 132.5,-80.52"/>
<text text-anchor="middle" x="172" y="-90" font-family="Helvetica,sans-Serif" font-size="10.00"> +array_iterator</text>
</g>
<!-- Node4 -->
<g id="node4" class="node">
<title>Node4</title>
<g id="a_node4"><a xlink:href="classnlohmann_1_1detail_1_1primitive__iterator__t.html" target="_top" xlink:title=" ">
<polygon fill="white" stroke="#bfbfbf" points="177,-116.5 177,-239.5 326,-239.5 326,-116.5 177,-116.5"/>
<text text-anchor="start" x="185" y="-227.5" font-family="Helvetica,sans-Serif" font-size="10.00">nlohmann::detail::primitive</text>
<text text-anchor="middle" x="251.5" y="-216.5" font-family="Helvetica,sans-Serif" font-size="10.00">_iterator_t</text>
<polyline fill="none" stroke="#bfbfbf" points="177,-209.5 326,-209.5 "/>
<text text-anchor="middle" x="251.5" y="-197.5" font-family="Helvetica,sans-Serif" font-size="10.00"> </text>
<polyline fill="none" stroke="#bfbfbf" points="177,-190.5 326,-190.5 "/>
<text text-anchor="start" x="185" y="-178.5" font-family="Helvetica,sans-Serif" font-size="10.00">+ get_value()</text>
<text text-anchor="start" x="185" y="-167.5" font-family="Helvetica,sans-Serif" font-size="10.00">+ is_begin()</text>
<text text-anchor="start" x="185" y="-156.5" font-family="Helvetica,sans-Serif" font-size="10.00">+ is_end()</text>
<text text-anchor="start" x="185" y="-145.5" font-family="Helvetica,sans-Serif" font-size="10.00">+ operator+()</text>
<text text-anchor="start" x="185" y="-134.5" font-family="Helvetica,sans-Serif" font-size="10.00">+ operator++()</text>
<text text-anchor="start" x="185" y="-123.5" font-family="Helvetica,sans-Serif" font-size="10.00">and 7 more...</text>
</a>
</g>
</g>
<!-- Node4&#45;&gt;Node1 -->
<g id="edge3" class="edge">
<title>Node4&#45;&gt;Node1</title>
<path fill="none" stroke="#404040" d="M233.46,-116.39C228.67,-105.92 222.75,-95.64 215.5,-87 212.4,-83.31 208.97,-79.8 205.31,-76.48"/>
<polygon fill="none" stroke="#404040" points="205.06,-76.27 197.89,-75.53 195.82,-68.62 202.99,-69.37 205.06,-76.27"/>
<text text-anchor="middle" x="271" y="-90" font-family="Helvetica,sans-Serif" font-size="10.00"> +primitive_iterator</text>
</g>
</g>
</svg>
