<?xml version="1.0" encoding="UTF-8" standalone="no"?>
<!DOCTYPE svg PUBLIC "-//W3C//DTD SVG 1.1//EN"
 "http://www.w3.org/Graphics/SVG/1.1/DTD/svg11.dtd">
<!-- Generated by graphviz version 2.43.0 (0)
 -->
<!-- Title: Feel::DofTableInfos Pages: 1 -->
<svg width="396pt" height="475pt"
 viewBox="0.00 0.00 396.00 475.00" xmlns="http://www.w3.org/2000/svg" xmlns:xlink="http://www.w3.org/1999/xlink">
<g id="graph0" class="graph" transform="scale(1 1) rotate(0) translate(4 471)">
<title>Feel::DofTableInfos</title>
<polygon fill="white" stroke="transparent" points="-4,4 -4,-471 392,-471 392,4 -4,4"/>
<!-- Node1 -->
<g id="node1" class="node">
<title>Node1</title>
<g id="a_node1"><a xlink:title=" ">
<polygon fill="#bfbfbf" stroke="black" points="93,-0.5 93,-134.5 205,-134.5 205,-0.5 93,-0.5"/>
<text text-anchor="middle" x="149" y="-122.5" font-family="Helvetica,sans-Serif" font-size="10.00">Feel::DofTableInfos</text>
<polyline fill="none" stroke="black" points="93,-115.5 205,-115.5 "/>
<text text-anchor="start" x="101" y="-103.5" font-family="Helvetica,sans-Serif" font-size="10.00">+ is_p0_continuous</text>
<text text-anchor="start" x="101" y="-92.5" font-family="Helvetica,sans-Serif" font-size="10.00">+ is_periodic</text>
<text text-anchor="start" x="101" y="-81.5" font-family="Helvetica,sans-Serif" font-size="10.00">+ is_vectorial</text>
<text text-anchor="start" x="101" y="-70.5" font-family="Helvetica,sans-Serif" font-size="10.00">+ nDofPerElement</text>
<polyline fill="none" stroke="black" points="93,-63.5 205,-63.5 "/>
<text text-anchor="start" x="101" y="-51.5" font-family="Helvetica,sans-Serif" font-size="10.00">+ DofTableInfos()</text>
<text text-anchor="start" x="101" y="-40.5" font-family="Helvetica,sans-Serif" font-size="10.00">+ DofTableInfos()</text>
<text text-anchor="start" x="101" y="-29.5" font-family="Helvetica,sans-Serif" font-size="10.00">+ DofTableInfos()</text>
<text text-anchor="start" x="101" y="-18.5" font-family="Helvetica,sans-Serif" font-size="10.00">+ operator=()</text>
<text text-anchor="start" x="101" y="-7.5" font-family="Helvetica,sans-Serif" font-size="10.00">+ operator=()</text>
</a>
</g>
</g>
<!-- Node2 -->
<g id="node2" class="node">
<title>Node2</title>
<g id="a_node2"><a xlink:title=" ">
<polygon fill="white" stroke="#bfbfbf" points="0,-303.5 0,-360.5 56,-360.5 56,-303.5 0,-303.5"/>
<text text-anchor="middle" x="28" y="-348.5" font-family="Helvetica,sans-Serif" font-size="10.00">uint16_t</text>
<polyline fill="none" stroke="#bfbfbf" points="0,-341.5 56,-341.5 "/>
<text text-anchor="middle" x="28" y="-329.5" font-family="Helvetica,sans-Serif" font-size="10.00"> </text>
<polyline fill="none" stroke="#bfbfbf" points="0,-322.5 56,-322.5 "/>
<text text-anchor="middle" x="28" y="-310.5" font-family="Helvetica,sans-Serif" font-size="10.00"> </text>
</a>
</g>
</g>
<!-- Node2&#45;&gt;Node1 -->
<g id="edge1" class="edge">
<title>Node2&#45;&gt;Node1</title>
<path fill="none" stroke="#404040" d="M24.78,-303.21C21.84,-266.5 21.28,-200.92 47,-153 55.79,-136.63 69.19,-122.17 83.42,-110.06"/>
<polygon fill="none" stroke="#404040" points="83.51,-109.98 85.67,-103.1 92.85,-102.44 90.69,-109.32 83.51,-109.98"/>
<text text-anchor="middle" x="96" y="-271.5" font-family="Helvetica,sans-Serif" font-size="10.00"> +nComponents1</text>
<text text-anchor="middle" x="96" y="-260.5" font-family="Helvetica,sans-Serif" font-size="10.00">+nComponents2</text>
<text text-anchor="middle" x="96" y="-249.5" font-family="Helvetica,sans-Serif" font-size="10.00">+Shape</text>
<text text-anchor="middle" x="96" y="-238.5" font-family="Helvetica,sans-Serif" font-size="10.00">+nDim</text>
<text text-anchor="middle" x="96" y="-227.5" font-family="Helvetica,sans-Serif" font-size="10.00">+nDofPerEdge</text>
<text text-anchor="middle" x="96" y="-216.5" font-family="Helvetica,sans-Serif" font-size="10.00">+nComponents</text>
<text text-anchor="middle" x="96" y="-205.5" font-family="Helvetica,sans-Serif" font-size="10.00">+nRealDim</text>
<text text-anchor="middle" x="96" y="-194.5" font-family="Helvetica,sans-Serif" font-size="10.00">+nOrder</text>
<text text-anchor="middle" x="96" y="-183.5" font-family="Helvetica,sans-Serif" font-size="10.00">+nDofComponents</text>
<text text-anchor="middle" x="96" y="-172.5" font-family="Helvetica,sans-Serif" font-size="10.00">+nRealComponents</text>
<text text-anchor="middle" x="96" y="-161.5" font-family="Helvetica,sans-Serif" font-size="10.00">...</text>
</g>
<!-- Node3 -->
<g id="node3" class="node">
<title>Node3</title>
<g id="a_node3"><a xlink:title="STL class.">
<polygon fill="white" stroke="#bfbfbf" points="116.5,-303.5 116.5,-360.5 181.5,-360.5 181.5,-303.5 116.5,-303.5"/>
<text text-anchor="middle" x="149" y="-348.5" font-family="Helvetica,sans-Serif" font-size="10.00">std::string</text>
<polyline fill="none" stroke="#bfbfbf" points="116.5,-341.5 181.5,-341.5 "/>
<text text-anchor="middle" x="149" y="-329.5" font-family="Helvetica,sans-Serif" font-size="10.00"> </text>
<polyline fill="none" stroke="#bfbfbf" points="116.5,-322.5 181.5,-322.5 "/>
<text text-anchor="middle" x="149" y="-310.5" font-family="Helvetica,sans-Serif" font-size="10.00"> </text>
</a>
</g>
</g>
<!-- Node3&#45;&gt;Node1 -->
<g id="edge2" class="edge">
<title>Node3&#45;&gt;Node1</title>
<path fill="none" stroke="#404040" d="M149,-303.4C149,-266.52 149,-199.67 149,-146.68"/>
<polygon fill="none" stroke="#404040" points="149,-146.57 145,-140.57 149,-134.57 153,-140.57 149,-146.57"/>
<text text-anchor="middle" x="191" y="-216.5" font-family="Helvetica,sans-Serif" font-size="10.00"> +feFamilyName</text>
</g>
<!-- Node4 -->
<g id="node4" class="node">
<title>Node4</title>
<g id="a_node4"><a xlink:title="STL class.">
<polygon fill="white" stroke="#bfbfbf" points="97,-398.5 97,-466.5 201,-466.5 201,-398.5 97,-398.5"/>
<text text-anchor="start" x="105" y="-454.5" font-family="Helvetica,sans-Serif" font-size="10.00">std::basic_string&lt;</text>
<text text-anchor="middle" x="149" y="-443.5" font-family="Helvetica,sans-Serif" font-size="10.00"> char &gt;</text>
<polyline fill="none" stroke="#bfbfbf" points="97,-436.5 201,-436.5 "/>
<text text-anchor="middle" x="149" y="-424.5" font-family="Helvetica,sans-Serif" font-size="10.00"> </text>
<polyline fill="none" stroke="#bfbfbf" points="97,-417.5 201,-417.5 "/>
<text text-anchor="middle" x="149" y="-405.5" font-family="Helvetica,sans-Serif" font-size="10.00"> </text>
</a>
</g>
</g>
<!-- Node4&#45;&gt;Node3 -->
<g id="edge3" class="edge">
<title>Node4&#45;&gt;Node3</title>
<path fill="none" stroke="midnightblue" d="M149,-388.38C149,-378.94 149,-369.2 149,-360.57"/>
<polygon fill="none" stroke="midnightblue" points="145.5,-388.43 149,-398.43 152.5,-388.43 145.5,-388.43"/>
</g>
<!-- Node5 -->
<g id="node5" class="node">
<title>Node5</title>
<g id="a_node5"><a xlink:href="classbool.html" target="_top" xlink:title=" ">
<polygon fill="white" stroke="black" points="237,-303.5 237,-360.5 275,-360.5 275,-303.5 237,-303.5"/>
<text text-anchor="middle" x="256" y="-348.5" font-family="Helvetica,sans-Serif" font-size="10.00">bool</text>
<polyline fill="none" stroke="black" points="237,-341.5 275,-341.5 "/>
<text text-anchor="middle" x="256" y="-329.5" font-family="Helvetica,sans-Serif" font-size="10.00"> </text>
<polyline fill="none" stroke="black" points="237,-322.5 275,-322.5 "/>
<text text-anchor="middle" x="256" y="-310.5" font-family="Helvetica,sans-Serif" font-size="10.00"> </text>
</a>
</g>
</g>
<!-- Node5&#45;&gt;Node1 -->
<g id="edge4" class="edge">
<title>Node5&#45;&gt;Node1</title>
<path fill="none" stroke="#404040" d="M258,-303.2C259.45,-266.77 257.91,-201.79 234,-153 228.71,-142.21 221.48,-131.99 213.46,-122.63"/>
<polygon fill="none" stroke="#404040" points="213.29,-122.44 206.29,-120.69 205.21,-113.56 212.21,-115.31 213.29,-122.44"/>
<text text-anchor="middle" x="323" y="-277" font-family="Helvetica,sans-Serif" font-size="10.00"> +is_discontinuous_totally</text>
<text text-anchor="middle" x="323" y="-266" font-family="Helvetica,sans-Serif" font-size="10.00">+is_hcurl_conforming</text>
<text text-anchor="middle" x="323" y="-255" font-family="Helvetica,sans-Serif" font-size="10.00">+is_product</text>
<text text-anchor="middle" x="323" y="-244" font-family="Helvetica,sans-Serif" font-size="10.00">+is_scalar</text>
<text text-anchor="start" x="258" y="-233" font-family="Helvetica,sans-Serif" font-size="10.00">+is_discontinuous</text>
<text text-anchor="middle" x="323" y="-222" font-family="Helvetica,sans-Serif" font-size="10.00">_locally</text>
<text text-anchor="middle" x="323" y="-211" font-family="Helvetica,sans-Serif" font-size="10.00">+is_tensor2symm</text>
<text text-anchor="middle" x="323" y="-200" font-family="Helvetica,sans-Serif" font-size="10.00">+is_continuous</text>
<text text-anchor="middle" x="323" y="-189" font-family="Helvetica,sans-Serif" font-size="10.00">+is_tensor2</text>
<text text-anchor="middle" x="323" y="-178" font-family="Helvetica,sans-Serif" font-size="10.00">+is_hdiv_conforming</text>
<text text-anchor="middle" x="323" y="-167" font-family="Helvetica,sans-Serif" font-size="10.00">+is_modal</text>
<text text-anchor="middle" x="323" y="-156" font-family="Helvetica,sans-Serif" font-size="10.00">...</text>
</g>
</g>
</svg>
