<?xml version="1.0" encoding="UTF-8" standalone="no"?>
<!DOCTYPE svg PUBLIC "-//W3C//DTD SVG 1.1//EN"
 "http://www.w3.org/Graphics/SVG/1.1/DTD/svg11.dtd">
<!-- Generated by graphviz version 2.43.0 (0)
 -->
<!-- Title: nlohmann::detail::dtoa_impl::boundaries Pages: 1 -->
<svg width="154pt" height="375pt"
 viewBox="0.00 0.00 153.50 375.00" xmlns="http://www.w3.org/2000/svg" xmlns:xlink="http://www.w3.org/1999/xlink">
<g id="graph0" class="graph" transform="scale(1 1) rotate(0) translate(4 371)">
<title>nlohmann::detail::dtoa_impl::boundaries</title>
<polygon fill="white" stroke="transparent" points="-4,4 -4,-371 149.5,-371 149.5,4 -4,4"/>
<!-- Node1 -->
<g id="node1" class="node">
<title>Node1</title>
<g id="a_node1"><a xlink:title=" ">
<polygon fill="#bfbfbf" stroke="black" points="0,-0.5 0,-68.5 127,-68.5 127,-0.5 0,-0.5"/>
<text text-anchor="start" x="8" y="-56.5" font-family="Helvetica,sans-Serif" font-size="10.00">nlohmann::detail::dtoa</text>
<text text-anchor="middle" x="63.5" y="-45.5" font-family="Helvetica,sans-Serif" font-size="10.00">_impl::boundaries</text>
<polyline fill="none" stroke="black" points="0,-38.5 127,-38.5 "/>
<text text-anchor="middle" x="63.5" y="-26.5" font-family="Helvetica,sans-Serif" font-size="10.00"> </text>
<polyline fill="none" stroke="black" points="0,-19.5 127,-19.5 "/>
<text text-anchor="middle" x="63.5" y="-7.5" font-family="Helvetica,sans-Serif" font-size="10.00"> </text>
</a>
</g>
</g>
<!-- Node2 -->
<g id="node2" class="node">
<title>Node2</title>
<g id="a_node2"><a xlink:href="structnlohmann_1_1detail_1_1dtoa__impl_1_1diyfp.html" target="_top" xlink:title=" ">
<polygon fill="white" stroke="black" points="0,-138.5 0,-250.5 127,-250.5 127,-138.5 0,-138.5"/>
<text text-anchor="start" x="8" y="-238.5" font-family="Helvetica,sans-Serif" font-size="10.00">nlohmann::detail::dtoa</text>
<text text-anchor="middle" x="63.5" y="-227.5" font-family="Helvetica,sans-Serif" font-size="10.00">_impl::diyfp</text>
<polyline fill="none" stroke="black" points="0,-220.5 127,-220.5 "/>
<text text-anchor="middle" x="63.5" y="-208.5" font-family="Helvetica,sans-Serif" font-size="10.00"> </text>
<polyline fill="none" stroke="black" points="0,-201.5 127,-201.5 "/>
<text text-anchor="start" x="8" y="-189.5" font-family="Helvetica,sans-Serif" font-size="10.00">+ diyfp()</text>
<text text-anchor="start" x="8" y="-178.5" font-family="Helvetica,sans-Serif" font-size="10.00">+ mul()</text>
<text text-anchor="start" x="8" y="-167.5" font-family="Helvetica,sans-Serif" font-size="10.00">+ normalize()</text>
<text text-anchor="start" x="8" y="-156.5" font-family="Helvetica,sans-Serif" font-size="10.00">+ normalize_to()</text>
<text text-anchor="start" x="8" y="-145.5" font-family="Helvetica,sans-Serif" font-size="10.00">+ sub()</text>
</a>
</g>
</g>
<!-- Node2&#45;&gt;Node1 -->
<g id="edge1" class="edge">
<title>Node2&#45;&gt;Node1</title>
<path fill="none" stroke="#404040" d="M63.5,-138.24C63.5,-119.53 63.5,-98.86 63.5,-81"/>
<polygon fill="none" stroke="#404040" points="63.5,-80.85 59.5,-74.85 63.5,-68.85 67.5,-74.85 63.5,-80.85"/>
<text text-anchor="middle" x="84.5" y="-112" font-family="Helvetica,sans-Serif" font-size="10.00"> +minus</text>
<text text-anchor="middle" x="84.5" y="-101" font-family="Helvetica,sans-Serif" font-size="10.00">+plus</text>
<text text-anchor="middle" x="84.5" y="-90" font-family="Helvetica,sans-Serif" font-size="10.00">+w</text>
</g>
<!-- Node3 -->
<g id="node3" class="node">
<title>Node3</title>
<g id="a_node3"><a xlink:title=" ">
<polygon fill="white" stroke="#bfbfbf" points="5.5,-309.5 5.5,-366.5 61.5,-366.5 61.5,-309.5 5.5,-309.5"/>
<text text-anchor="middle" x="33.5" y="-354.5" font-family="Helvetica,sans-Serif" font-size="10.00">uint64_t</text>
<polyline fill="none" stroke="#bfbfbf" points="5.5,-347.5 61.5,-347.5 "/>
<text text-anchor="middle" x="33.5" y="-335.5" font-family="Helvetica,sans-Serif" font-size="10.00"> </text>
<polyline fill="none" stroke="#bfbfbf" points="5.5,-328.5 61.5,-328.5 "/>
<text text-anchor="middle" x="33.5" y="-316.5" font-family="Helvetica,sans-Serif" font-size="10.00"> </text>
</a>
</g>
</g>
<!-- Node3&#45;&gt;Node2 -->
<g id="edge2" class="edge">
<title>Node3&#45;&gt;Node2</title>
<path fill="none" stroke="#404040" d="M39.36,-309.38C42.21,-295.92 45.78,-279.09 49.29,-262.53"/>
<polygon fill="none" stroke="#404040" points="49.33,-262.31 46.67,-255.61 51.82,-250.57 54.49,-257.27 49.33,-262.31"/>
<text text-anchor="middle" x="56.5" y="-277.5" font-family="Helvetica,sans-Serif" font-size="10.00"> +f</text>
</g>
<!-- Node4 -->
<g id="node4" class="node">
<title>Node4</title>
<g id="a_node4"><a xlink:href="classint.html" target="_top" xlink:title=" ">
<polygon fill="white" stroke="black" points="80,-309.5 80,-366.5 109,-366.5 109,-309.5 80,-309.5"/>
<text text-anchor="middle" x="94.5" y="-354.5" font-family="Helvetica,sans-Serif" font-size="10.00">int</text>
<polyline fill="none" stroke="black" points="80,-347.5 109,-347.5 "/>
<text text-anchor="middle" x="94.5" y="-335.5" font-family="Helvetica,sans-Serif" font-size="10.00"> </text>
<polyline fill="none" stroke="black" points="80,-328.5 109,-328.5 "/>
<text text-anchor="middle" x="94.5" y="-316.5" font-family="Helvetica,sans-Serif" font-size="10.00"> </text>
</a>
</g>
</g>
<!-- Node4&#45;&gt;Node2 -->
<g id="edge3" class="edge">
<title>Node4&#45;&gt;Node2</title>
<path fill="none" stroke="#404040" d="M88.45,-309.38C85.5,-295.92 81.81,-279.09 78.19,-262.53"/>
<polygon fill="none" stroke="#404040" points="78.13,-262.3 72.94,-257.29 75.57,-250.57 80.76,-255.58 78.13,-262.3"/>
<text text-anchor="middle" x="114.5" y="-283" font-family="Helvetica,sans-Serif" font-size="10.00"> +kPrecision</text>
<text text-anchor="middle" x="114.5" y="-272" font-family="Helvetica,sans-Serif" font-size="10.00">+e</text>
</g>
</g>
</svg>
