<?xml version="1.0" encoding="UTF-8" standalone="no"?>
<!DOCTYPE svg PUBLIC "-//W3C//DTD SVG 1.1//EN"
 "http://www.w3.org/Graphics/SVG/1.1/DTD/svg11.dtd">
<!-- Generated by graphviz version 2.43.0 (0)
 -->
<!-- Title: nlohmann::detail::is_compatible_type&lt; BasicJsonType, CompatibleType &gt; Pages: 1 -->
<svg width="201pt" height="298pt"
 viewBox="0.00 0.00 201.00 298.00" xmlns="http://www.w3.org/2000/svg" xmlns:xlink="http://www.w3.org/1999/xlink">
<g id="graph0" class="graph" transform="scale(1 1) rotate(0) translate(4 294)">
<title>nlohmann::detail::is_compatible_type&lt; BasicJsonType, CompatibleType &gt;</title>
<polygon fill="white" stroke="transparent" points="-4,4 -4,-294 197,-294 197,4 -4,4"/>
<!-- Node1 -->
<g id="node1" class="node">
<title>Node1</title>
<g id="a_node1"><a xlink:title=" ">
<polygon fill="#bfbfbf" stroke="black" points="16,-0.5 16,-79.5 177,-79.5 177,-0.5 16,-0.5"/>
<text text-anchor="start" x="24" y="-67.5" font-family="Helvetica,sans-Serif" font-size="10.00">nlohmann::detail::is</text>
<text text-anchor="start" x="24" y="-56.5" font-family="Helvetica,sans-Serif" font-size="10.00">_compatible_type&lt; BasicJson</text>
<text text-anchor="middle" x="96.5" y="-45.5" font-family="Helvetica,sans-Serif" font-size="10.00">Type, CompatibleType &gt;</text>
<polyline fill="none" stroke="black" points="16,-38.5 177,-38.5 "/>
<text text-anchor="middle" x="96.5" y="-26.5" font-family="Helvetica,sans-Serif" font-size="10.00"> </text>
<polyline fill="none" stroke="black" points="16,-19.5 177,-19.5 "/>
<text text-anchor="middle" x="96.5" y="-7.5" font-family="Helvetica,sans-Serif" font-size="10.00"> </text>
</a>
</g>
</g>
<!-- Node2 -->
<g id="node2" class="node">
<title>Node2</title>
<g id="a_node2"><a xlink:href="structnlohmann_1_1detail_1_1is__compatible__type__impl.html" target="_top" xlink:title=" ">
<polygon fill="white" stroke="black" points="0,-116.5 0,-195.5 193,-195.5 193,-116.5 0,-116.5"/>
<text text-anchor="start" x="8" y="-183.5" font-family="Helvetica,sans-Serif" font-size="10.00">nlohmann::detail::is</text>
<text text-anchor="start" x="8" y="-172.5" font-family="Helvetica,sans-Serif" font-size="10.00">_compatible_type_impl</text>
<text text-anchor="middle" x="96.5" y="-161.5" font-family="Helvetica,sans-Serif" font-size="10.00">&lt; BasicJsonType, CompatibleType &gt;</text>
<polyline fill="none" stroke="black" points="0,-154.5 193,-154.5 "/>
<text text-anchor="middle" x="96.5" y="-142.5" font-family="Helvetica,sans-Serif" font-size="10.00"> </text>
<polyline fill="none" stroke="black" points="0,-135.5 193,-135.5 "/>
<text text-anchor="middle" x="96.5" y="-123.5" font-family="Helvetica,sans-Serif" font-size="10.00"> </text>
</a>
</g>
</g>
<!-- Node2&#45;&gt;Node1 -->
<g id="edge1" class="edge">
<title>Node2&#45;&gt;Node1</title>
<path fill="none" stroke="midnightblue" d="M96.5,-106.15C96.5,-97.26 96.5,-88.1 96.5,-79.56"/>
<polygon fill="none" stroke="midnightblue" points="93,-106.4 96.5,-116.4 100,-106.4 93,-106.4"/>
</g>
<!-- Node3 -->
<g id="node3" class="node">
<title>Node3</title>
<g id="a_node3"><a xlink:title=" ">
<polygon fill="white" stroke="#bfbfbf" points="62.5,-232.5 62.5,-289.5 130.5,-289.5 130.5,-232.5 62.5,-232.5"/>
<text text-anchor="middle" x="96.5" y="-277.5" font-family="Helvetica,sans-Serif" font-size="10.00">false_type</text>
<polyline fill="none" stroke="#bfbfbf" points="62.5,-270.5 130.5,-270.5 "/>
<text text-anchor="middle" x="96.5" y="-258.5" font-family="Helvetica,sans-Serif" font-size="10.00"> </text>
<polyline fill="none" stroke="#bfbfbf" points="62.5,-251.5 130.5,-251.5 "/>
<text text-anchor="middle" x="96.5" y="-239.5" font-family="Helvetica,sans-Serif" font-size="10.00"> </text>
</a>
</g>
</g>
<!-- Node3&#45;&gt;Node2 -->
<g id="edge2" class="edge">
<title>Node3&#45;&gt;Node2</title>
<path fill="none" stroke="midnightblue" d="M96.5,-222.16C96.5,-213.47 96.5,-204.23 96.5,-195.52"/>
<polygon fill="none" stroke="midnightblue" points="93,-222.4 96.5,-232.4 100,-222.4 93,-222.4"/>
</g>
</g>
</svg>
