<?xml version="1.0" encoding="UTF-8" standalone="no"?>
<!DOCTYPE svg PUBLIC "-//W3C//DTD SVG 1.1//EN"
 "http://www.w3.org/Graphics/SVG/1.1/DTD/svg11.dtd">
<!-- Generated by graphviz version 2.43.0 (0)
 -->
<!-- Title: Feel::is_0d_real&lt; T &gt; Pages: 1 -->
<svg width="200pt" height="171pt"
 viewBox="0.00 0.00 200.00 171.00" xmlns="http://www.w3.org/2000/svg" xmlns:xlink="http://www.w3.org/1999/xlink">
<g id="graph0" class="graph" transform="scale(1 1) rotate(0) translate(4 167)">
<title>Feel::is_0d_real&lt; T &gt;</title>
<polygon fill="white" stroke="transparent" points="-4,4 -4,-167 196,-167 196,4 -4,4"/>
<!-- Node1 -->
<g id="node1" class="node">
<title>Node1</title>
<g id="a_node1"><a xlink:title=" ">
<polygon fill="#bfbfbf" stroke="black" points="35.5,-0.5 35.5,-57.5 156.5,-57.5 156.5,-0.5 35.5,-0.5"/>
<text text-anchor="middle" x="96" y="-45.5" font-family="Helvetica,sans-Serif" font-size="10.00">Feel::is_0d_real&lt; T &gt;</text>
<polyline fill="none" stroke="black" points="35.5,-38.5 156.5,-38.5 "/>
<text text-anchor="middle" x="96" y="-26.5" font-family="Helvetica,sans-Serif" font-size="10.00"> </text>
<polyline fill="none" stroke="black" points="35.5,-19.5 156.5,-19.5 "/>
<text text-anchor="middle" x="96" y="-7.5" font-family="Helvetica,sans-Serif" font-size="10.00"> </text>
</a>
</g>
</g>
<!-- Node2 -->
<g id="node2" class="node">
<title>Node2</title>
<g id="a_node2"><a xlink:href="classboost_1_1mpl_1_1bool__.html" target="_top" xlink:title=" ">
<polygon fill="white" stroke="#bfbfbf" points="0,-94.5 0,-162.5 192,-162.5 192,-94.5 0,-94.5"/>
<text text-anchor="start" x="8" y="-150.5" font-family="Helvetica,sans-Serif" font-size="10.00">boost::mpl::bool_&lt;</text>
<text text-anchor="middle" x="96" y="-139.5" font-family="Helvetica,sans-Serif" font-size="10.00"> decay_type&lt; T &gt;::nRealDim==0 &gt;</text>
<polyline fill="none" stroke="#bfbfbf" points="0,-132.5 192,-132.5 "/>
<text text-anchor="middle" x="96" y="-120.5" font-family="Helvetica,sans-Serif" font-size="10.00"> </text>
<polyline fill="none" stroke="#bfbfbf" points="0,-113.5 192,-113.5 "/>
<text text-anchor="middle" x="96" y="-101.5" font-family="Helvetica,sans-Serif" font-size="10.00"> </text>
</a>
</g>
</g>
<!-- Node2&#45;&gt;Node1 -->
<g id="edge1" class="edge">
<title>Node2&#45;&gt;Node1</title>
<path fill="none" stroke="midnightblue" d="M96,-84.45C96,-75.4 96,-66.09 96,-57.78"/>
<polygon fill="none" stroke="midnightblue" points="92.5,-84.49 96,-94.49 99.5,-84.49 92.5,-84.49"/>
</g>
</g>
</svg>
