<?xml version="1.0" encoding="UTF-8" standalone="no"?>
<!DOCTYPE svg PUBLIC "-//W3C//DTD SVG 1.1//EN"
 "http://www.w3.org/Graphics/SVG/1.1/DTD/svg11.dtd">
<!-- Generated by graphviz version 2.43.0 (0)
 -->
<!-- Title: Feel::faces_mesh&lt; MeshType, TheTag &gt; Pages: 1 -->
<svg width="172pt" height="182pt"
 viewBox="0.00 0.00 172.00 182.00" xmlns="http://www.w3.org/2000/svg" xmlns:xlink="http://www.w3.org/1999/xlink">
<g id="graph0" class="graph" transform="scale(1 1) rotate(0) translate(4 178)">
<title>Feel::faces_mesh&lt; MeshType, TheTag &gt;</title>
<polygon fill="white" stroke="transparent" points="-4,4 -4,-178 168,-178 168,4 -4,4"/>
<!-- Node1 -->
<g id="node1" class="node">
<title>Node1</title>
<g id="a_node1"><a xlink:title="get the mesh type of topological dimension d+1 if the real dimension of the mesh is d+1">
<polygon fill="#bfbfbf" stroke="black" points="0,-0.5 0,-68.5 164,-68.5 164,-0.5 0,-0.5"/>
<text text-anchor="start" x="8" y="-56.5" font-family="Helvetica,sans-Serif" font-size="10.00">Feel::faces_mesh&lt; MeshType,</text>
<text text-anchor="middle" x="82" y="-45.5" font-family="Helvetica,sans-Serif" font-size="10.00"> TheTag &gt;</text>
<polyline fill="none" stroke="black" points="0,-38.5 164,-38.5 "/>
<text text-anchor="middle" x="82" y="-26.5" font-family="Helvetica,sans-Serif" font-size="10.00"> </text>
<polyline fill="none" stroke="black" points="0,-19.5 164,-19.5 "/>
<text text-anchor="middle" x="82" y="-7.5" font-family="Helvetica,sans-Serif" font-size="10.00"> </text>
</a>
</g>
</g>
<!-- Node2 -->
<g id="node2" class="node">
<title>Node2</title>
<g id="a_node2"><a xlink:href="classint.html" target="_top" xlink:title=" ">
<polygon fill="white" stroke="#bfbfbf" points="67.5,-116.5 67.5,-173.5 96.5,-173.5 96.5,-116.5 67.5,-116.5"/>
<text text-anchor="middle" x="82" y="-161.5" font-family="Helvetica,sans-Serif" font-size="10.00">int</text>
<polyline fill="none" stroke="#bfbfbf" points="67.5,-154.5 96.5,-154.5 "/>
<text text-anchor="middle" x="82" y="-142.5" font-family="Helvetica,sans-Serif" font-size="10.00"> </text>
<polyline fill="none" stroke="#bfbfbf" points="67.5,-135.5 96.5,-135.5 "/>
<text text-anchor="middle" x="82" y="-123.5" font-family="Helvetica,sans-Serif" font-size="10.00"> </text>
</a>
</g>
</g>
<!-- Node2&#45;&gt;Node1 -->
<g id="edge1" class="edge">
<title>Node2&#45;&gt;Node1</title>
<path fill="none" stroke="#404040" d="M82,-116.34C82,-105.53 82,-92.85 82,-80.77"/>
<polygon fill="none" stroke="#404040" points="82,-80.52 78,-74.52 82,-68.52 86,-74.52 82,-80.52"/>
<text text-anchor="middle" x="104.5" y="-90" font-family="Helvetica,sans-Serif" font-size="10.00"> +nOrder</text>
</g>
</g>
</svg>
