<?xml version="1.0" encoding="UTF-8" standalone="no"?>
<!DOCTYPE svg PUBLIC "-//W3C//DTD SVG 1.1//EN"
 "http://www.w3.org/Graphics/SVG/1.1/DTD/svg11.dtd">
<!-- Generated by graphviz version 2.43.0 (0)
 -->
<!-- Title: Feel::InterpolationNonConforming Pages: 1 -->
<svg width="190pt" height="518pt"
 viewBox="0.00 0.00 190.00 518.00" xmlns="http://www.w3.org/2000/svg" xmlns:xlink="http://www.w3.org/1999/xlink">
<g id="graph0" class="graph" transform="scale(1 1) rotate(0) translate(4 514)">
<title>Feel::InterpolationNonConforming</title>
<polygon fill="white" stroke="transparent" points="-4,4 -4,-514 186,-514 186,4 -4,4"/>
<!-- Node1 -->
<g id="node1" class="node">
<title>Node1</title>
<g id="a_node1"><a xlink:title=" ">
<polygon fill="#bfbfbf" stroke="black" points="0,-0.5 0,-112.5 182,-112.5 182,-0.5 0,-0.5"/>
<text text-anchor="middle" x="91" y="-100.5" font-family="Helvetica,sans-Serif" font-size="10.00">Feel::InterpolationNonConforming</text>
<polyline fill="none" stroke="black" points="0,-93.5 182,-93.5 "/>
<text text-anchor="start" x="8" y="-81.5" font-family="Helvetica,sans-Serif" font-size="10.00">+ value</text>
<polyline fill="none" stroke="black" points="0,-74.5 182,-74.5 "/>
<text text-anchor="start" x="8" y="-62.5" font-family="Helvetica,sans-Serif" font-size="10.00">+ InterpolationNonConforming()</text>
<text text-anchor="start" x="8" y="-51.5" font-family="Helvetica,sans-Serif" font-size="10.00">+ InterpolationNonConforming()</text>
<text text-anchor="start" x="8" y="-40.5" font-family="Helvetica,sans-Serif" font-size="10.00">+ InterpolationNonConforming()</text>
<text text-anchor="start" x="8" y="-29.5" font-family="Helvetica,sans-Serif" font-size="10.00">+ InterpolationNonConforming()</text>
<text text-anchor="start" x="8" y="-18.5" font-family="Helvetica,sans-Serif" font-size="10.00">+ InterpolationNonConforming()</text>
<text text-anchor="start" x="8" y="-7.5" font-family="Helvetica,sans-Serif" font-size="10.00">+ operator=()</text>
</a>
</g>
</g>
<!-- Node2 -->
<g id="node2" class="node">
<title>Node2</title>
<g id="a_node2"><a xlink:href="classFeel_1_1InterpolationTypeBase.html" target="_top" xlink:title=" ">
<polygon fill="white" stroke="black" points="8.5,-149.5 8.5,-316.5 173.5,-316.5 173.5,-149.5 8.5,-149.5"/>
<text text-anchor="start" x="16.5" y="-304.5" font-family="Helvetica,sans-Serif" font-size="10.00">Feel::InterpolationTypeBase</text>
<text text-anchor="start" x="16.5" y="-293.5" font-family="Helvetica,sans-Serif" font-size="10.00">&lt; false, interpolation_operand</text>
<text text-anchor="middle" x="91" y="-282.5" font-family="Helvetica,sans-Serif" font-size="10.00">_type::ID &gt;</text>
<polyline fill="none" stroke="black" points="8.5,-275.5 173.5,-275.5 "/>
<text text-anchor="start" x="16.5" y="-263.5" font-family="Helvetica,sans-Serif" font-size="10.00">+ interpolation_operand</text>
<text text-anchor="start" x="16.5" y="-252.5" font-family="Helvetica,sans-Serif" font-size="10.00">+ is_conforming</text>
<polyline fill="none" stroke="black" points="8.5,-245.5 173.5,-245.5 "/>
<text text-anchor="start" x="16.5" y="-233.5" font-family="Helvetica,sans-Serif" font-size="10.00">+ InterpolationTypeBase()</text>
<text text-anchor="start" x="16.5" y="-222.5" font-family="Helvetica,sans-Serif" font-size="10.00">+ InterpolationTypeBase()</text>
<text text-anchor="start" x="16.5" y="-211.5" font-family="Helvetica,sans-Serif" font-size="10.00">+ InterpolationTypeBase()</text>
<text text-anchor="start" x="16.5" y="-200.5" font-family="Helvetica,sans-Serif" font-size="10.00">+ InterpolationTypeBase()</text>
<text text-anchor="start" x="16.5" y="-189.5" font-family="Helvetica,sans-Serif" font-size="10.00">+ operator=()</text>
<text text-anchor="start" x="16.5" y="-178.5" font-family="Helvetica,sans-Serif" font-size="10.00">+ operator=()</text>
<text text-anchor="start" x="16.5" y="-167.5" font-family="Helvetica,sans-Serif" font-size="10.00">+ operand()</text>
<text text-anchor="start" x="16.5" y="-156.5" font-family="Helvetica,sans-Serif" font-size="10.00">+ requiresDerivatives()</text>
</a>
</g>
</g>
<!-- Node2&#45;&gt;Node1 -->
<g id="edge1" class="edge">
<title>Node2&#45;&gt;Node1</title>
<path fill="none" stroke="midnightblue" d="M91,-139.23C91,-130.27 91,-121.39 91,-112.97"/>
<polygon fill="none" stroke="midnightblue" points="87.5,-139.35 91,-149.35 94.5,-139.35 87.5,-139.35"/>
</g>
<!-- Node3 -->
<g id="node3" class="node">
<title>Node3</title>
<g id="a_node3"><a xlink:href="classFeel_1_1InterpolationTypeBaseBase.html" target="_top" xlink:title=" ">
<polygon fill="white" stroke="black" points="7,-353.5 7,-509.5 175,-509.5 175,-353.5 7,-353.5"/>
<text text-anchor="start" x="15" y="-497.5" font-family="Helvetica,sans-Serif" font-size="10.00">Feel::InterpolationTypeBase</text>
<text text-anchor="middle" x="91" y="-486.5" font-family="Helvetica,sans-Serif" font-size="10.00">Base&lt; C, O &gt;</text>
<polyline fill="none" stroke="black" points="7,-479.5 175,-479.5 "/>
<text text-anchor="start" x="15" y="-467.5" font-family="Helvetica,sans-Serif" font-size="10.00">+ interpolation_operand</text>
<text text-anchor="start" x="15" y="-456.5" font-family="Helvetica,sans-Serif" font-size="10.00">+ is_conforming</text>
<polyline fill="none" stroke="black" points="7,-449.5 175,-449.5 "/>
<text text-anchor="start" x="15" y="-437.5" font-family="Helvetica,sans-Serif" font-size="10.00">+ componentsAreSamePoint()</text>
<text text-anchor="start" x="15" y="-426.5" font-family="Helvetica,sans-Serif" font-size="10.00">+ InterpolationTypeBaseBase()</text>
<text text-anchor="start" x="15" y="-415.5" font-family="Helvetica,sans-Serif" font-size="10.00">+ InterpolationTypeBaseBase()</text>
<text text-anchor="start" x="15" y="-404.5" font-family="Helvetica,sans-Serif" font-size="10.00">+ InterpolationTypeBaseBase()</text>
<text text-anchor="start" x="15" y="-393.5" font-family="Helvetica,sans-Serif" font-size="10.00">+ InterpolationTypeBaseBase()</text>
<text text-anchor="start" x="15" y="-382.5" font-family="Helvetica,sans-Serif" font-size="10.00">and 5 more...</text>
<text text-anchor="start" x="15" y="-371.5" font-family="Helvetica,sans-Serif" font-size="10.00">+ interpolationOperand()</text>
<text text-anchor="start" x="15" y="-360.5" font-family="Helvetica,sans-Serif" font-size="10.00">+ isConforming()</text>
</a>
</g>
</g>
<!-- Node3&#45;&gt;Node2 -->
<g id="edge2" class="edge">
<title>Node3&#45;&gt;Node2</title>
<path fill="none" stroke="midnightblue" d="M91,-343.15C91,-334.36 91,-325.45 91,-316.71"/>
<polygon fill="none" stroke="midnightblue" points="87.5,-343.4 91,-353.4 94.5,-343.4 87.5,-343.4"/>
</g>
</g>
</svg>
