<?xml version="1.0" encoding="UTF-8" standalone="no"?>
<!DOCTYPE svg PUBLIC "-//W3C//DTD SVG 1.1//EN"
 "http://www.w3.org/Graphics/SVG/1.1/DTD/svg11.dtd">
<!-- Generated by graphviz version 2.43.0 (0)
 -->
<!-- Title: Feel::vf::UnaryPlus&lt; ExprT &gt;::HasTrialFunction&lt; Func &gt; Pages: 1 -->
<svg width="162pt" height="193pt"
 viewBox="0.00 0.00 162.00 193.00" xmlns="http://www.w3.org/2000/svg" xmlns:xlink="http://www.w3.org/1999/xlink">
<g id="graph0" class="graph" transform="scale(1 1) rotate(0) translate(4 189)">
<title>Feel::vf::UnaryPlus&lt; ExprT &gt;::HasTrialFunction&lt; Func &gt;</title>
<polygon fill="white" stroke="transparent" points="-4,4 -4,-189 158,-189 158,4 -4,4"/>
<!-- Node1 -->
<g id="node1" class="node">
<title>Node1</title>
<g id="a_node1"><a xlink:title=" ">
<polygon fill="#bfbfbf" stroke="black" points="0,-0.5 0,-79.5 154,-79.5 154,-0.5 0,-0.5"/>
<text text-anchor="start" x="8" y="-67.5" font-family="Helvetica,sans-Serif" font-size="10.00">Feel::vf::UnaryPlus</text>
<text text-anchor="start" x="8" y="-56.5" font-family="Helvetica,sans-Serif" font-size="10.00">&lt; ExprT &gt;::HasTrialFunction</text>
<text text-anchor="middle" x="77" y="-45.5" font-family="Helvetica,sans-Serif" font-size="10.00">&lt; Func &gt;</text>
<polyline fill="none" stroke="black" points="0,-38.5 154,-38.5 "/>
<text text-anchor="middle" x="77" y="-26.5" font-family="Helvetica,sans-Serif" font-size="10.00"> </text>
<polyline fill="none" stroke="black" points="0,-19.5 154,-19.5 "/>
<text text-anchor="middle" x="77" y="-7.5" font-family="Helvetica,sans-Serif" font-size="10.00"> </text>
</a>
</g>
</g>
<!-- Node2 -->
<g id="node2" class="node">
<title>Node2</title>
<g id="a_node2"><a xlink:href="classbool.html" target="_top" xlink:title=" ">
<polygon fill="white" stroke="black" points="58,-127.5 58,-184.5 96,-184.5 96,-127.5 58,-127.5"/>
<text text-anchor="middle" x="77" y="-172.5" font-family="Helvetica,sans-Serif" font-size="10.00">bool</text>
<polyline fill="none" stroke="black" points="58,-165.5 96,-165.5 "/>
<text text-anchor="middle" x="77" y="-153.5" font-family="Helvetica,sans-Serif" font-size="10.00"> </text>
<polyline fill="none" stroke="black" points="58,-146.5 96,-146.5 "/>
<text text-anchor="middle" x="77" y="-134.5" font-family="Helvetica,sans-Serif" font-size="10.00"> </text>
</a>
</g>
</g>
<!-- Node2&#45;&gt;Node1 -->
<g id="edge1" class="edge">
<title>Node2&#45;&gt;Node1</title>
<path fill="none" stroke="#404040" d="M77,-127.4C77,-116.63 77,-103.93 77,-91.62"/>
<polygon fill="none" stroke="#404040" points="77,-91.54 73,-85.54 77,-79.54 81,-85.54 77,-91.54"/>
<text text-anchor="middle" x="97" y="-101" font-family="Helvetica,sans-Serif" font-size="10.00"> +result</text>
</g>
</g>
</svg>
