<?xml version="1.0" encoding="UTF-8" standalone="no"?>
<!DOCTYPE svg PUBLIC "-//W3C//DTD SVG 1.1//EN"
 "http://www.w3.org/Graphics/SVG/1.1/DTD/svg11.dtd">
<!-- Generated by graphviz version 2.43.0 (0)
 -->
<!-- Title: Feel::detail::createMeshSupport&lt; SpaceType &gt; Pages: 1 -->
<svg width="487pt" height="248pt"
 viewBox="0.00 0.00 487.00 248.00" xmlns="http://www.w3.org/2000/svg" xmlns:xlink="http://www.w3.org/1999/xlink">
<g id="graph0" class="graph" transform="scale(1 1) rotate(0) translate(4 244)">
<title>Feel::detail::createMeshSupport&lt; SpaceType &gt;</title>
<polygon fill="white" stroke="transparent" points="-4,4 -4,-244 483,-244 483,4 -4,4"/>
<!-- Node1 -->
<g id="node1" class="node">
<title>Node1</title>
<g id="a_node1"><a xlink:title=" ">
<polygon fill="#bfbfbf" stroke="black" points="126,-0.5 126,-134.5 260,-134.5 260,-0.5 126,-0.5"/>
<text text-anchor="start" x="134" y="-122.5" font-family="Helvetica,sans-Serif" font-size="10.00">Feel::detail::createMesh</text>
<text text-anchor="middle" x="193" y="-111.5" font-family="Helvetica,sans-Serif" font-size="10.00">Support&lt; SpaceType &gt;</text>
<polyline fill="none" stroke="black" points="126,-104.5 260,-104.5 "/>
<text text-anchor="middle" x="193" y="-92.5" font-family="Helvetica,sans-Serif" font-size="10.00"> </text>
<polyline fill="none" stroke="black" points="126,-85.5 260,-85.5 "/>
<text text-anchor="start" x="134" y="-73.5" font-family="Helvetica,sans-Serif" font-size="10.00">+ createMeshSupport()</text>
<text text-anchor="start" x="134" y="-62.5" font-family="Helvetica,sans-Serif" font-size="10.00">+ createMeshSupport()</text>
<text text-anchor="start" x="134" y="-51.5" font-family="Helvetica,sans-Serif" font-size="10.00">+ createMeshSupport()</text>
<text text-anchor="start" x="134" y="-40.5" font-family="Helvetica,sans-Serif" font-size="10.00">+ init()</text>
<text text-anchor="start" x="134" y="-29.5" font-family="Helvetica,sans-Serif" font-size="10.00">+ init()</text>
<text text-anchor="start" x="134" y="-18.5" font-family="Helvetica,sans-Serif" font-size="10.00">+ init2()</text>
<text text-anchor="start" x="134" y="-7.5" font-family="Helvetica,sans-Serif" font-size="10.00">+ init2()</text>
</a>
</g>
</g>
<!-- Node2 -->
<g id="node2" class="node">
<title>Node2</title>
<g id="a_node2"><a xlink:href="classbool.html" target="_top" xlink:title=" ">
<polygon fill="white" stroke="#bfbfbf" points="0,-182.5 0,-239.5 38,-239.5 38,-182.5 0,-182.5"/>
<text text-anchor="middle" x="19" y="-227.5" font-family="Helvetica,sans-Serif" font-size="10.00">bool</text>
<polyline fill="none" stroke="#bfbfbf" points="0,-220.5 38,-220.5 "/>
<text text-anchor="middle" x="19" y="-208.5" font-family="Helvetica,sans-Serif" font-size="10.00"> </text>
<polyline fill="none" stroke="#bfbfbf" points="0,-201.5 38,-201.5 "/>
<text text-anchor="middle" x="19" y="-189.5" font-family="Helvetica,sans-Serif" font-size="10.00"> </text>
</a>
</g>
</g>
<!-- Node2&#45;&gt;Node1 -->
<g id="edge1" class="edge">
<title>Node2&#45;&gt;Node1</title>
<path fill="none" stroke="#404040" d="M34.59,-182.42C41.04,-172.45 49.09,-161.55 58,-153 74.99,-136.69 95.61,-121.89 115.57,-109.38"/>
<polygon fill="none" stroke="#404040" points="115.68,-109.31 118.72,-102.77 125.93,-103.06 122.89,-109.6 115.68,-109.31"/>
<text text-anchor="middle" x="100" y="-156" font-family="Helvetica,sans-Serif" font-size="10.00"> +useMeshesList</text>
</g>
<!-- Node3 -->
<g id="node3" class="node">
<title>Node3</title>
<g id="a_node3"><a xlink:title=" ">
<polygon fill="white" stroke="#bfbfbf" points="60,-182.5 60,-239.5 184,-239.5 184,-182.5 60,-182.5"/>
<text text-anchor="middle" x="122" y="-227.5" font-family="Helvetica,sans-Serif" font-size="10.00">mesh_ptrtype const &amp;</text>
<polyline fill="none" stroke="#bfbfbf" points="60,-220.5 184,-220.5 "/>
<text text-anchor="middle" x="122" y="-208.5" font-family="Helvetica,sans-Serif" font-size="10.00"> </text>
<polyline fill="none" stroke="#bfbfbf" points="60,-201.5 184,-201.5 "/>
<text text-anchor="middle" x="122" y="-189.5" font-family="Helvetica,sans-Serif" font-size="10.00"> </text>
</a>
</g>
</g>
<!-- Node3&#45;&gt;Node1 -->
<g id="edge2" class="edge">
<title>Node3&#45;&gt;Node1</title>
<path fill="none" stroke="#404040" d="M135.86,-182.38C141.22,-171.7 147.64,-158.9 154.22,-145.79"/>
<polygon fill="none" stroke="#404040" points="154.37,-145.48 153.49,-138.32 159.76,-134.75 160.64,-141.91 154.37,-145.48"/>
<text text-anchor="middle" x="175.5" y="-156" font-family="Helvetica,sans-Serif" font-size="10.00"> +M_mesh</text>
</g>
<!-- Node4 -->
<g id="node4" class="node">
<title>Node4</title>
<g id="a_node4"><a xlink:title=" ">
<polygon fill="white" stroke="#bfbfbf" points="202.5,-182.5 202.5,-239.5 351.5,-239.5 351.5,-182.5 202.5,-182.5"/>
<text text-anchor="middle" x="277" y="-227.5" font-family="Helvetica,sans-Serif" font-size="10.00">mesh_support_vector_type</text>
<polyline fill="none" stroke="#bfbfbf" points="202.5,-220.5 351.5,-220.5 "/>
<text text-anchor="middle" x="277" y="-208.5" font-family="Helvetica,sans-Serif" font-size="10.00"> </text>
<polyline fill="none" stroke="#bfbfbf" points="202.5,-201.5 351.5,-201.5 "/>
<text text-anchor="middle" x="277" y="-189.5" font-family="Helvetica,sans-Serif" font-size="10.00"> </text>
</a>
</g>
</g>
<!-- Node4&#45;&gt;Node1 -->
<g id="edge3" class="edge">
<title>Node4&#45;&gt;Node1</title>
<path fill="none" stroke="#404040" d="M260.6,-182.38C254.2,-171.59 246.51,-158.64 238.65,-145.4"/>
<polygon fill="none" stroke="#404040" points="238.46,-145.07 231.95,-141.95 232.33,-134.75 238.83,-137.87 238.46,-145.07"/>
<text text-anchor="middle" x="308" y="-156" font-family="Helvetica,sans-Serif" font-size="10.00"> +M_meshSupportVector</text>
</g>
<!-- Node5 -->
<g id="node5" class="node">
<title>Node5</title>
<g id="a_node5"><a xlink:title=" ">
<polygon fill="white" stroke="#bfbfbf" points="386,-182.5 386,-239.5 424,-239.5 424,-182.5 386,-182.5"/>
<text text-anchor="middle" x="405" y="-227.5" font-family="Helvetica,sans-Serif" font-size="10.00">type</text>
<polyline fill="none" stroke="#bfbfbf" points="386,-220.5 424,-220.5 "/>
<text text-anchor="middle" x="405" y="-208.5" font-family="Helvetica,sans-Serif" font-size="10.00"> </text>
<polyline fill="none" stroke="#bfbfbf" points="386,-201.5 424,-201.5 "/>
<text text-anchor="middle" x="405" y="-189.5" font-family="Helvetica,sans-Serif" font-size="10.00"> </text>
</a>
</g>
</g>
<!-- Node5&#45;&gt;Node1 -->
<g id="edge4" class="edge">
<title>Node5&#45;&gt;Node1</title>
<path fill="none" stroke="#404040" d="M393.84,-182.37C388.68,-172.16 381.73,-161.11 373,-153 344.27,-126.28 305.57,-106.63 271.42,-93.04"/>
<polygon fill="none" stroke="#404040" points="271.23,-92.97 264.2,-94.55 260.03,-88.66 267.07,-87.08 271.23,-92.97"/>
<text text-anchor="middle" x="430.5" y="-156" font-family="Helvetica,sans-Serif" font-size="10.00"> +M_meshSupport0</text>
</g>
</g>
</svg>
