<?xml version="1.0" encoding="UTF-8" standalone="no"?>
<!DOCTYPE svg PUBLIC "-//W3C//DTD SVG 1.1//EN"
 "http://www.w3.org/Graphics/SVG/1.1/DTD/svg11.dtd">
<!-- Generated by graphviz version 2.43.0 (0)
 -->
<!-- Title: Feel::is_triangle&lt; T &gt; Pages: 1 -->
<svg width="130pt" height="160pt"
 viewBox="0.00 0.00 130.00 160.00" xmlns="http://www.w3.org/2000/svg" xmlns:xlink="http://www.w3.org/1999/xlink">
<g id="graph0" class="graph" transform="scale(1 1) rotate(0) translate(4 156)">
<title>Feel::is_triangle&lt; T &gt;</title>
<polygon fill="white" stroke="transparent" points="-4,4 -4,-156 126,-156 126,4 -4,4"/>
<!-- Node1 -->
<g id="node1" class="node">
<title>Node1</title>
<g id="a_node1"><a xlink:title=" ">
<polygon fill="#bfbfbf" stroke="black" points="0,-0.5 0,-57.5 122,-57.5 122,-0.5 0,-0.5"/>
<text text-anchor="middle" x="61" y="-45.5" font-family="Helvetica,sans-Serif" font-size="10.00">Feel::is_triangle&lt; T &gt;</text>
<polyline fill="none" stroke="black" points="0,-38.5 122,-38.5 "/>
<text text-anchor="middle" x="61" y="-26.5" font-family="Helvetica,sans-Serif" font-size="10.00"> </text>
<polyline fill="none" stroke="black" points="0,-19.5 122,-19.5 "/>
<text text-anchor="middle" x="61" y="-7.5" font-family="Helvetica,sans-Serif" font-size="10.00"> </text>
</a>
</g>
</g>
<!-- Node2 -->
<g id="node2" class="node">
<title>Node2</title>
<g id="a_node2"><a xlink:href="classboost_1_1mpl_1_1and__.html" target="_top" xlink:title=" ">
<polygon fill="white" stroke="black" points="41,-94.5 41,-151.5 81,-151.5 81,-94.5 41,-94.5"/>
<text text-anchor="middle" x="61" y="-139.5" font-family="Helvetica,sans-Serif" font-size="10.00">and_</text>
<polyline fill="none" stroke="black" points="41,-132.5 81,-132.5 "/>
<text text-anchor="middle" x="61" y="-120.5" font-family="Helvetica,sans-Serif" font-size="10.00"> </text>
<polyline fill="none" stroke="black" points="41,-113.5 81,-113.5 "/>
<text text-anchor="middle" x="61" y="-101.5" font-family="Helvetica,sans-Serif" font-size="10.00"> </text>
</a>
</g>
</g>
<!-- Node2&#45;&gt;Node1 -->
<g id="edge1" class="edge">
<title>Node2&#45;&gt;Node1</title>
<path fill="none" stroke="midnightblue" d="M61,-84.21C61,-75.29 61,-65.95 61,-57.58"/>
<polygon fill="none" stroke="midnightblue" points="57.5,-84.4 61,-94.4 64.5,-84.4 57.5,-84.4"/>
</g>
</g>
</svg>
