<?xml version="1.0" encoding="UTF-8" standalone="no"?>
<!DOCTYPE svg PUBLIC "-//W3C//DTD SVG 1.1//EN"
 "http://www.w3.org/Graphics/SVG/1.1/DTD/svg11.dtd">
<!-- Generated by graphviz version 2.43.0 (0)
 -->
<!-- Title: Feel::Line&lt; Dim &gt; Pages: 1 -->
<svg width="753pt" height="665pt"
 viewBox="0.00 0.00 753.00 665.00" xmlns="http://www.w3.org/2000/svg" xmlns:xlink="http://www.w3.org/1999/xlink">
<g id="graph0" class="graph" transform="scale(1 1) rotate(0) translate(4 661)">
<title>Feel::Line&lt; Dim &gt;</title>
<polygon fill="white" stroke="transparent" points="-4,4 -4,-661 749,-661 749,4 -4,4"/>
<!-- Node1 -->
<g id="node1" class="node">
<title>Node1</title>
<g id="a_node1"><a xlink:title=" ">
<polygon fill="#bfbfbf" stroke="black" points="359,-0.5 359,-57.5 465,-57.5 465,-0.5 359,-0.5"/>
<text text-anchor="middle" x="412" y="-45.5" font-family="Helvetica,sans-Serif" font-size="10.00">Feel::Line&lt; Dim &gt;</text>
<polyline fill="none" stroke="black" points="359,-38.5 465,-38.5 "/>
<text text-anchor="middle" x="412" y="-26.5" font-family="Helvetica,sans-Serif" font-size="10.00"> </text>
<polyline fill="none" stroke="black" points="359,-19.5 465,-19.5 "/>
<text text-anchor="middle" x="412" y="-7.5" font-family="Helvetica,sans-Serif" font-size="10.00"> </text>
</a>
</g>
</g>
<!-- Node2 -->
<g id="node2" class="node">
<title>Node2</title>
<g id="a_node2"><a xlink:href="classFeel_1_1Simplex.html" target="_top" xlink:title=" ">
<polygon fill="white" stroke="black" points="341,-95.5 341,-284.5 483,-284.5 483,-95.5 341,-95.5"/>
<text text-anchor="middle" x="412" y="-272.5" font-family="Helvetica,sans-Serif" font-size="10.00">Feel::Simplex&lt; 1, Dim &gt;</text>
<polyline fill="none" stroke="black" points="341,-265.5 483,-265.5 "/>
<text text-anchor="start" x="349" y="-253.5" font-family="Helvetica,sans-Serif" font-size="10.00">+ nbPtsPerVertex</text>
<polyline fill="none" stroke="black" points="341,-246.5 483,-246.5 "/>
<text text-anchor="start" x="349" y="-234.5" font-family="Helvetica,sans-Serif" font-size="10.00">+ dimension()</text>
<text text-anchor="start" x="349" y="-223.5" font-family="Helvetica,sans-Serif" font-size="10.00">+ operator=()</text>
<text text-anchor="start" x="349" y="-212.5" font-family="Helvetica,sans-Serif" font-size="10.00">+ operator=()</text>
<text text-anchor="start" x="349" y="-201.5" font-family="Helvetica,sans-Serif" font-size="10.00">+ Simplex()</text>
<text text-anchor="start" x="349" y="-190.5" font-family="Helvetica,sans-Serif" font-size="10.00">+ Simplex()</text>
<text text-anchor="start" x="349" y="-179.5" font-family="Helvetica,sans-Serif" font-size="10.00">+ Simplex()</text>
<text text-anchor="start" x="349" y="-168.5" font-family="Helvetica,sans-Serif" font-size="10.00">+ topologicalDimension()</text>
<text text-anchor="start" x="349" y="-157.5" font-family="Helvetica,sans-Serif" font-size="10.00">+ e2p()</text>
<text text-anchor="start" x="349" y="-146.5" font-family="Helvetica,sans-Serif" font-size="10.00">+ f2e()</text>
<text text-anchor="start" x="349" y="-135.5" font-family="Helvetica,sans-Serif" font-size="10.00">+ f2eLoc()</text>
<text text-anchor="start" x="349" y="-124.5" font-family="Helvetica,sans-Serif" font-size="10.00">+ f2p()</text>
<text text-anchor="start" x="349" y="-113.5" font-family="Helvetica,sans-Serif" font-size="10.00">+ getShape()</text>
<text text-anchor="start" x="349" y="-102.5" font-family="Helvetica,sans-Serif" font-size="10.00">and 12 more...</text>
</a>
</g>
</g>
<!-- Node2&#45;&gt;Node1 -->
<g id="edge1" class="edge">
<title>Node2&#45;&gt;Node1</title>
<path fill="none" stroke="midnightblue" d="M412,-85.08C412,-75.19 412,-65.85 412,-57.78"/>
<polygon fill="none" stroke="midnightblue" points="408.5,-85.13 412,-95.13 415.5,-85.13 408.5,-85.13"/>
</g>
<!-- Node3 -->
<g id="node3" class="node">
<title>Node3</title>
<g id="a_node3"><a xlink:href="classFeel_1_1Convex.html" target="_top" xlink:title=" ">
<polygon fill="white" stroke="black" points="39,-419 39,-520 153,-520 153,-419 39,-419"/>
<text text-anchor="start" x="47" y="-508" font-family="Helvetica,sans-Serif" font-size="10.00">Feel::Convex&lt; Dim,</text>
<text text-anchor="middle" x="96" y="-497" font-family="Helvetica,sans-Serif" font-size="10.00"> Order, Dim &gt;</text>
<polyline fill="none" stroke="black" points="39,-490 153,-490 "/>
<text text-anchor="middle" x="96" y="-478" font-family="Helvetica,sans-Serif" font-size="10.00"> </text>
<polyline fill="none" stroke="black" points="39,-471 153,-471 "/>
<text text-anchor="start" x="47" y="-459" font-family="Helvetica,sans-Serif" font-size="10.00">* Convex()</text>
<text text-anchor="start" x="47" y="-448" font-family="Helvetica,sans-Serif" font-size="10.00">* Convex()</text>
<text text-anchor="start" x="47" y="-437" font-family="Helvetica,sans-Serif" font-size="10.00">* ~Convex()</text>
<text text-anchor="start" x="47" y="-426" font-family="Helvetica,sans-Serif" font-size="10.00">* operator=()</text>
</a>
</g>
</g>
<!-- Node3&#45;&gt;Node2 -->
<g id="edge2" class="edge">
<title>Node3&#45;&gt;Node2</title>
<path fill="none" stroke="midnightblue" d="M113.19,-409.12C125.68,-374.6 145.62,-332.27 175,-303 221.03,-257.15 289.41,-227.61 340.91,-210.45"/>
<polygon fill="none" stroke="midnightblue" points="109.86,-408.04 109.86,-418.63 116.47,-410.35 109.86,-408.04"/>
</g>
<!-- Node4 -->
<g id="node4" class="node">
<title>Node4</title>
<g id="a_node4"><a xlink:href="classFeel_1_1ConvexBase.html" target="_top" xlink:title=" ">
<polygon fill="white" stroke="black" points="0,-599.5 0,-656.5 104,-656.5 104,-599.5 0,-599.5"/>
<text text-anchor="middle" x="52" y="-644.5" font-family="Helvetica,sans-Serif" font-size="10.00">Feel::ConvexBase</text>
<polyline fill="none" stroke="black" points="0,-637.5 104,-637.5 "/>
<text text-anchor="middle" x="52" y="-625.5" font-family="Helvetica,sans-Serif" font-size="10.00"> </text>
<polyline fill="none" stroke="black" points="0,-618.5 104,-618.5 "/>
<text text-anchor="middle" x="52" y="-606.5" font-family="Helvetica,sans-Serif" font-size="10.00"> </text>
</a>
</g>
</g>
<!-- Node4&#45;&gt;Node3 -->
<g id="edge3" class="edge">
<title>Node4&#45;&gt;Node3</title>
<path fill="none" stroke="midnightblue" d="M62.5,-589.66C68.34,-568.89 75.68,-542.77 82,-520.29"/>
<polygon fill="none" stroke="midnightblue" points="59.1,-588.81 59.77,-599.38 65.84,-590.7 59.1,-588.81"/>
</g>
<!-- Node5 -->
<g id="node5" class="node">
<title>Node5</title>
<g id="a_node5"><a xlink:title=" ">
<polygon fill="white" stroke="#bfbfbf" points="122,-599.5 122,-656.5 256,-656.5 256,-599.5 122,-599.5"/>
<text text-anchor="middle" x="189" y="-644.5" font-family="Helvetica,sans-Serif" font-size="10.00">static const uint16_type</text>
<polyline fill="none" stroke="#bfbfbf" points="122,-637.5 256,-637.5 "/>
<text text-anchor="middle" x="189" y="-625.5" font-family="Helvetica,sans-Serif" font-size="10.00"> </text>
<polyline fill="none" stroke="#bfbfbf" points="122,-618.5 256,-618.5 "/>
<text text-anchor="middle" x="189" y="-606.5" font-family="Helvetica,sans-Serif" font-size="10.00"> </text>
</a>
</g>
</g>
<!-- Node5&#45;&gt;Node2 -->
<g id="edge8" class="edge">
<title>Node5&#45;&gt;Node2</title>
<path fill="none" stroke="#404040" d="M184.24,-599.44C178.13,-556.67 171.37,-472.59 199,-409 227.12,-344.28 283.74,-287.83 331.54,-248.6"/>
<polygon fill="none" stroke="#404040" points="331.64,-248.52 333.79,-241.64 340.97,-240.98 338.82,-247.86 331.64,-248.52"/>
<text text-anchor="middle" x="258.5" y="-522" font-family="Helvetica,sans-Serif" font-size="10.00"> +numPoints</text>
<text text-anchor="middle" x="258.5" y="-511" font-family="Helvetica,sans-Serif" font-size="10.00">+nbPtsPerFace</text>
<text text-anchor="middle" x="258.5" y="-500" font-family="Helvetica,sans-Serif" font-size="10.00">+nbPtsPerEdge</text>
<text text-anchor="middle" x="258.5" y="-489" font-family="Helvetica,sans-Serif" font-size="10.00">+numNormals</text>
<text text-anchor="middle" x="258.5" y="-478" font-family="Helvetica,sans-Serif" font-size="10.00">+nbPtsPerVolume</text>
<text text-anchor="middle" x="258.5" y="-467" font-family="Helvetica,sans-Serif" font-size="10.00">+real_dimension</text>
<text text-anchor="middle" x="258.5" y="-456" font-family="Helvetica,sans-Serif" font-size="10.00">+nDim</text>
<text text-anchor="middle" x="258.5" y="-445" font-family="Helvetica,sans-Serif" font-size="10.00">+topological_dimension</text>
<text text-anchor="middle" x="258.5" y="-434" font-family="Helvetica,sans-Serif" font-size="10.00">+nRealDim</text>
<text text-anchor="middle" x="258.5" y="-423" font-family="Helvetica,sans-Serif" font-size="10.00">+nOrder</text>
<text text-anchor="middle" x="258.5" y="-412" font-family="Helvetica,sans-Serif" font-size="10.00">...</text>
</g>
<!-- Node5&#45;&gt;Node3 -->
<g id="edge4" class="edge">
<title>Node5&#45;&gt;Node3</title>
<path fill="none" stroke="#404040" d="M135.51,-599.38C128.83,-594.05 122.7,-587.93 118,-581 108.32,-566.74 102.7,-549.2 99.49,-532.34"/>
<polygon fill="none" stroke="#404040" points="99.45,-532.08 94.55,-526.79 97.55,-520.23 102.45,-525.53 99.45,-532.08"/>
<text text-anchor="middle" x="146.5" y="-573" font-family="Helvetica,sans-Serif" font-size="10.00"> +nDim</text>
<text text-anchor="middle" x="146.5" y="-562" font-family="Helvetica,sans-Serif" font-size="10.00">+nRealDim</text>
<text text-anchor="middle" x="146.5" y="-551" font-family="Helvetica,sans-Serif" font-size="10.00">+nOrder</text>
</g>
<!-- Node6 -->
<g id="node6" class="node">
<title>Node6</title>
<g id="a_node6"><a xlink:href="classFeel_1_1SimplexBase.html" target="_top" xlink:title=" ">
<polygon fill="white" stroke="black" points="326.5,-441 326.5,-498 433.5,-498 433.5,-441 326.5,-441"/>
<text text-anchor="middle" x="380" y="-486" font-family="Helvetica,sans-Serif" font-size="10.00">Feel::SimplexBase</text>
<polyline fill="none" stroke="black" points="326.5,-479 433.5,-479 "/>
<text text-anchor="middle" x="380" y="-467" font-family="Helvetica,sans-Serif" font-size="10.00"> </text>
<polyline fill="none" stroke="black" points="326.5,-460 433.5,-460 "/>
<text text-anchor="middle" x="380" y="-448" font-family="Helvetica,sans-Serif" font-size="10.00"> </text>
</a>
</g>
</g>
<!-- Node6&#45;&gt;Node2 -->
<g id="edge5" class="edge">
<title>Node6&#45;&gt;Node2</title>
<path fill="none" stroke="#8b1a1a" d="M384.33,-430.93C388.64,-393.54 395.43,-334.68 401.21,-284.61"/>
<polygon fill="none" stroke="#8b1a1a" points="380.85,-430.54 383.19,-440.88 387.81,-431.34 380.85,-430.54"/>
</g>
<!-- Node7 -->
<g id="node7" class="node">
<title>Node7</title>
<g id="a_node7"><a xlink:href="classsize__t.html" target="_top" xlink:title=" ">
<polygon fill="white" stroke="black" points="451.5,-441 451.5,-498 496.5,-498 496.5,-441 451.5,-441"/>
<text text-anchor="middle" x="474" y="-486" font-family="Helvetica,sans-Serif" font-size="10.00">size_t</text>
<polyline fill="none" stroke="black" points="451.5,-479 496.5,-479 "/>
<text text-anchor="middle" x="474" y="-467" font-family="Helvetica,sans-Serif" font-size="10.00"> </text>
<polyline fill="none" stroke="black" points="451.5,-460 496.5,-460 "/>
<text text-anchor="middle" x="474" y="-448" font-family="Helvetica,sans-Serif" font-size="10.00"> </text>
</a>
</g>
</g>
<!-- Node7&#45;&gt;Node2 -->
<g id="edge6" class="edge">
<title>Node7&#45;&gt;Node2</title>
<path fill="none" stroke="#404040" d="M462.67,-440.9C457.01,-426.27 450.45,-407.88 446,-391 438.02,-360.71 431.48,-327.32 426.35,-296.65"/>
<polygon fill="none" stroke="#404040" points="426.31,-296.43 421.4,-291.16 424.37,-284.59 429.29,-289.87 426.31,-296.43"/>
<text text-anchor="middle" x="476.5" y="-344.5" font-family="Helvetica,sans-Serif" font-size="10.00"> +Geometry</text>
</g>
<!-- Node8 -->
<g id="node8" class="node">
<title>Node8</title>
<g id="a_node8"><a xlink:href="classint.html" target="_top" xlink:title=" ">
<polygon fill="white" stroke="black" points="514.5,-441 514.5,-498 543.5,-498 543.5,-441 514.5,-441"/>
<text text-anchor="middle" x="529" y="-486" font-family="Helvetica,sans-Serif" font-size="10.00">int</text>
<polyline fill="none" stroke="black" points="514.5,-479 543.5,-479 "/>
<text text-anchor="middle" x="529" y="-467" font-family="Helvetica,sans-Serif" font-size="10.00"> </text>
<polyline fill="none" stroke="black" points="514.5,-460 543.5,-460 "/>
<text text-anchor="middle" x="529" y="-448" font-family="Helvetica,sans-Serif" font-size="10.00"> </text>
</a>
</g>
</g>
<!-- Node8&#45;&gt;Node2 -->
<g id="edge7" class="edge">
<title>Node8&#45;&gt;Node2</title>
<path fill="none" stroke="#404040" d="M529.99,-440.86C530.17,-406.93 527.11,-348.3 507,-303 502.43,-292.71 496.61,-282.64 490.11,-273.01"/>
<polygon fill="none" stroke="#404040" points="490.06,-272.94 483.32,-270.36 483.11,-263.15 489.84,-265.73 490.06,-272.94"/>
<text text-anchor="middle" x="583.5" y="-383" font-family="Helvetica,sans-Serif" font-size="10.00"> +numEdges</text>
<text text-anchor="middle" x="583.5" y="-372" font-family="Helvetica,sans-Serif" font-size="10.00">+Shape</text>
<text text-anchor="middle" x="583.5" y="-361" font-family="Helvetica,sans-Serif" font-size="10.00">+numFaces</text>
<text text-anchor="middle" x="583.5" y="-350" font-family="Helvetica,sans-Serif" font-size="10.00">+numTopologicalFaces</text>
<text text-anchor="middle" x="583.5" y="-339" font-family="Helvetica,sans-Serif" font-size="10.00">+numGeometricFaces</text>
<text text-anchor="middle" x="583.5" y="-328" font-family="Helvetica,sans-Serif" font-size="10.00">+shape_v</text>
<text text-anchor="middle" x="583.5" y="-317" font-family="Helvetica,sans-Serif" font-size="10.00">+numVolumes</text>
<text text-anchor="middle" x="583.5" y="-306" font-family="Helvetica,sans-Serif" font-size="10.00">+numVertices</text>
</g>
<!-- Node9 -->
<g id="node9" class="node">
<title>Node9</title>
<g id="a_node9"><a xlink:href="classbool.html" target="_top" xlink:title=" ">
<polygon fill="white" stroke="black" points="646,-441 646,-498 684,-498 684,-441 646,-441"/>
<text text-anchor="middle" x="665" y="-486" font-family="Helvetica,sans-Serif" font-size="10.00">bool</text>
<polyline fill="none" stroke="black" points="646,-479 684,-479 "/>
<text text-anchor="middle" x="665" y="-467" font-family="Helvetica,sans-Serif" font-size="10.00"> </text>
<polyline fill="none" stroke="black" points="646,-460 684,-460 "/>
<text text-anchor="middle" x="665" y="-448" font-family="Helvetica,sans-Serif" font-size="10.00"> </text>
</a>
</g>
</g>
<!-- Node9&#45;&gt;Node2 -->
<g id="edge9" class="edge">
<title>Node9&#45;&gt;Node2</title>
<path fill="none" stroke="#404040" d="M668.8,-440.71C672.09,-405.29 672.45,-343.76 643,-303 607.82,-254.32 545.67,-225.86 494.7,-209.81"/>
<polygon fill="none" stroke="#404040" points="494.49,-209.75 487.59,-211.85 483,-206.29 489.9,-204.19 494.49,-209.75"/>
<text text-anchor="middle" x="707" y="-350" font-family="Helvetica,sans-Serif" font-size="10.00"> +is_hypercube</text>
<text text-anchor="middle" x="707" y="-339" font-family="Helvetica,sans-Serif" font-size="10.00">+is_simplex</text>
</g>
</g>
</svg>
