<?xml version="1.0" encoding="UTF-8" standalone="no"?>
<!DOCTYPE svg PUBLIC "-//W3C//DTD SVG 1.1//EN"
 "http://www.w3.org/Graphics/SVG/1.1/DTD/svg11.dtd">
<!-- Generated by graphviz version 2.43.0 (0)
 -->
<!-- Title: Feel::vf::SymbolExprComponentSuffix Pages: 1 -->
<svg width="181pt" height="248pt"
 viewBox="0.00 0.00 181.00 248.00" xmlns="http://www.w3.org/2000/svg" xmlns:xlink="http://www.w3.org/1999/xlink">
<g id="graph0" class="graph" transform="scale(1 1) rotate(0) translate(4 244)">
<title>Feel::vf::SymbolExprComponentSuffix</title>
<polygon fill="white" stroke="transparent" points="-4,4 -4,-244 177,-244 177,4 -4,4"/>
<!-- Node1 -->
<g id="node1" class="node">
<title>Node1</title>
<g id="a_node1"><a xlink:title=" ">
<polygon fill="#bfbfbf" stroke="black" points="0,-0.5 0,-123.5 173,-123.5 173,-0.5 0,-0.5"/>
<text text-anchor="start" x="8" y="-111.5" font-family="Helvetica,sans-Serif" font-size="10.00">Feel::vf::SymbolExprComponent</text>
<text text-anchor="middle" x="86.5" y="-100.5" font-family="Helvetica,sans-Serif" font-size="10.00">Suffix</text>
<polyline fill="none" stroke="black" points="0,-93.5 173,-93.5 "/>
<text text-anchor="middle" x="86.5" y="-81.5" font-family="Helvetica,sans-Serif" font-size="10.00"> </text>
<polyline fill="none" stroke="black" points="0,-74.5 173,-74.5 "/>
<text text-anchor="start" x="8" y="-62.5" font-family="Helvetica,sans-Serif" font-size="10.00">+ nComp1()</text>
<text text-anchor="start" x="8" y="-51.5" font-family="Helvetica,sans-Serif" font-size="10.00">+ nComp2()</text>
<text text-anchor="start" x="8" y="-40.5" font-family="Helvetica,sans-Serif" font-size="10.00">+ operator=()</text>
<text text-anchor="start" x="8" y="-29.5" font-family="Helvetica,sans-Serif" font-size="10.00">+ operator=()</text>
<text text-anchor="start" x="8" y="-18.5" font-family="Helvetica,sans-Serif" font-size="10.00">+ print()</text>
<text text-anchor="start" x="8" y="-7.5" font-family="Helvetica,sans-Serif" font-size="10.00">and 4 more...</text>
</a>
</g>
</g>
<!-- Node2 -->
<g id="node2" class="node">
<title>Node2</title>
<g id="a_node2"><a xlink:title="STL class.">
<polygon fill="white" stroke="#bfbfbf" points="21,-160.5 21,-239.5 152,-239.5 152,-160.5 21,-160.5"/>
<text text-anchor="start" x="29" y="-227.5" font-family="Helvetica,sans-Serif" font-size="10.00">std::vector&lt; std::tuple</text>
<text text-anchor="start" x="29" y="-216.5" font-family="Helvetica,sans-Serif" font-size="10.00">&lt; std::string, std::array</text>
<text text-anchor="middle" x="86.5" y="-205.5" font-family="Helvetica,sans-Serif" font-size="10.00">&lt; uint16_type, 2 &gt; &gt; &gt;</text>
<polyline fill="none" stroke="#bfbfbf" points="21,-198.5 152,-198.5 "/>
<text text-anchor="start" x="29" y="-186.5" font-family="Helvetica,sans-Serif" font-size="10.00">+ elements</text>
<polyline fill="none" stroke="#bfbfbf" points="21,-179.5 152,-179.5 "/>
<text text-anchor="middle" x="86.5" y="-167.5" font-family="Helvetica,sans-Serif" font-size="10.00"> </text>
</a>
</g>
</g>
<!-- Node2&#45;&gt;Node1 -->
<g id="edge1" class="edge">
<title>Node2&#45;&gt;Node1</title>
<path fill="none" stroke="midnightblue" d="M86.5,-150.14C86.5,-141.53 86.5,-132.47 86.5,-123.57"/>
<polygon fill="none" stroke="midnightblue" points="83,-150.39 86.5,-160.39 90,-150.39 83,-150.39"/>
</g>
</g>
</svg>
