<?xml version="1.0" encoding="UTF-8" standalone="no"?>
<!DOCTYPE svg PUBLIC "-//W3C//DTD SVG 1.1//EN"
 "http://www.w3.org/Graphics/SVG/1.1/DTD/svg11.dtd">
<!-- Generated by graphviz version 2.43.0 (0)
 -->
<!-- Title: Feel::vf::ExprTensorsFromSymbolsExpr&lt; Geo_t &gt; Pages: 1 -->
<svg width="199pt" height="447pt"
 viewBox="0.00 0.00 199.00 447.00" xmlns="http://www.w3.org/2000/svg" xmlns:xlink="http://www.w3.org/1999/xlink">
<g id="graph0" class="graph" transform="scale(1 1) rotate(0) translate(4 443)">
<title>Feel::vf::ExprTensorsFromSymbolsExpr&lt; Geo_t &gt;</title>
<polygon fill="white" stroke="transparent" points="-4,4 -4,-443 195,-443 195,4 -4,4"/>
<!-- Node1 -->
<g id="node1" class="node">
<title>Node1</title>
<g id="a_node1"><a xlink:title=" ">
<polygon fill="#bfbfbf" stroke="black" points="0,-0.5 0,-112.5 191,-112.5 191,-0.5 0,-0.5"/>
<text text-anchor="start" x="8" y="-100.5" font-family="Helvetica,sans-Serif" font-size="10.00">Feel::vf::ExprTensorsFrom</text>
<text text-anchor="middle" x="95.5" y="-89.5" font-family="Helvetica,sans-Serif" font-size="10.00">SymbolsExpr&lt; Geo_t &gt;</text>
<polyline fill="none" stroke="black" points="0,-82.5 191,-82.5 "/>
<text text-anchor="middle" x="95.5" y="-70.5" font-family="Helvetica,sans-Serif" font-size="10.00"> </text>
<polyline fill="none" stroke="black" points="0,-63.5 191,-63.5 "/>
<text text-anchor="start" x="8" y="-51.5" font-family="Helvetica,sans-Serif" font-size="10.00">+ init()</text>
<text text-anchor="start" x="8" y="-40.5" font-family="Helvetica,sans-Serif" font-size="10.00">+ newObjectPtr()</text>
<text text-anchor="start" x="8" y="-29.5" font-family="Helvetica,sans-Serif" font-size="10.00">+ tensor()</text>
<text text-anchor="start" x="8" y="-18.5" font-family="Helvetica,sans-Serif" font-size="10.00">+ update()</text>
<text text-anchor="start" x="8" y="-7.5" font-family="Helvetica,sans-Serif" font-size="10.00">+ ~ExprTensorsFromSymbolsExpr()</text>
</a>
</g>
</g>
<!-- Node2 -->
<g id="node2" class="node">
<title>Node2</title>
<g id="a_node2"><a xlink:title=" ">
<polygon fill="white" stroke="#bfbfbf" points="40.5,-160.5 40.5,-228.5 150.5,-228.5 150.5,-160.5 40.5,-160.5"/>
<text text-anchor="start" x="48.5" y="-216.5" font-family="Helvetica,sans-Serif" font-size="10.00">std::vector&lt; tensor</text>
<text text-anchor="middle" x="95.5" y="-205.5" font-family="Helvetica,sans-Serif" font-size="10.00">_ptrtype &gt;</text>
<polyline fill="none" stroke="#bfbfbf" points="40.5,-198.5 150.5,-198.5 "/>
<text text-anchor="middle" x="95.5" y="-186.5" font-family="Helvetica,sans-Serif" font-size="10.00"> </text>
<polyline fill="none" stroke="#bfbfbf" points="40.5,-179.5 150.5,-179.5 "/>
<text text-anchor="middle" x="95.5" y="-167.5" font-family="Helvetica,sans-Serif" font-size="10.00"> </text>
</a>
</g>
</g>
<!-- Node2&#45;&gt;Node1 -->
<g id="edge1" class="edge">
<title>Node2&#45;&gt;Node1</title>
<path fill="none" stroke="#404040" d="M95.5,-160.23C95.5,-149.5 95.5,-137.18 95.5,-124.9"/>
<polygon fill="none" stroke="#404040" points="95.5,-124.68 91.5,-118.68 95.5,-112.68 99.5,-118.68 95.5,-124.68"/>
<text text-anchor="middle" x="124" y="-134" font-family="Helvetica,sans-Serif" font-size="10.00"> #M_tensor</text>
</g>
<!-- Node3 -->
<g id="node3" class="node">
<title>Node3</title>
<g id="a_node3"><a xlink:title="STL class.">
<polygon fill="white" stroke="#bfbfbf" points="36.5,-276.5 36.5,-333.5 154.5,-333.5 154.5,-276.5 36.5,-276.5"/>
<text text-anchor="middle" x="95.5" y="-321.5" font-family="Helvetica,sans-Serif" font-size="10.00">std::shared_ptr&lt; T &gt;</text>
<polyline fill="none" stroke="#bfbfbf" points="36.5,-314.5 154.5,-314.5 "/>
<text text-anchor="middle" x="95.5" y="-302.5" font-family="Helvetica,sans-Serif" font-size="10.00"> </text>
<polyline fill="none" stroke="#bfbfbf" points="36.5,-295.5 154.5,-295.5 "/>
<text text-anchor="start" x="44.5" y="-283.5" font-family="Helvetica,sans-Serif" font-size="10.00">+ operator&#45;&gt;()</text>
</a>
</g>
</g>
<!-- Node3&#45;&gt;Node2 -->
<g id="edge2" class="edge">
<title>Node3&#45;&gt;Node2</title>
<path fill="none" stroke="#404040" d="M95.5,-276.34C95.5,-265.53 95.5,-252.85 95.5,-240.77"/>
<polygon fill="none" stroke="#404040" points="95.5,-240.52 91.5,-234.52 95.5,-228.52 99.5,-234.52 95.5,-240.52"/>
<text text-anchor="middle" x="124.5" y="-250" font-family="Helvetica,sans-Serif" font-size="10.00"> +elements</text>
</g>
<!-- Node4 -->
<g id="node4" class="node">
<title>Node4</title>
<g id="a_node4"><a xlink:title=" ">
<polygon fill="white" stroke="#bfbfbf" points="81,-381.5 81,-438.5 110,-438.5 110,-381.5 81,-381.5"/>
<text text-anchor="middle" x="95.5" y="-426.5" font-family="Helvetica,sans-Serif" font-size="10.00">T</text>
<polyline fill="none" stroke="#bfbfbf" points="81,-419.5 110,-419.5 "/>
<text text-anchor="middle" x="95.5" y="-407.5" font-family="Helvetica,sans-Serif" font-size="10.00"> </text>
<polyline fill="none" stroke="#bfbfbf" points="81,-400.5 110,-400.5 "/>
<text text-anchor="middle" x="95.5" y="-388.5" font-family="Helvetica,sans-Serif" font-size="10.00"> </text>
</a>
</g>
</g>
<!-- Node4&#45;&gt;Node3 -->
<g id="edge3" class="edge">
<title>Node4&#45;&gt;Node3</title>
<path fill="none" stroke="#404040" d="M95.5,-381.4C95.5,-370.55 95.5,-357.87 95.5,-346.05"/>
<polygon fill="none" stroke="#404040" points="95.5,-345.68 91.5,-339.68 95.5,-333.68 99.5,-339.68 95.5,-345.68"/>
<text text-anchor="middle" x="108" y="-355" font-family="Helvetica,sans-Serif" font-size="10.00"> +ptr</text>
</g>
</g>
</svg>
