<?xml version="1.0" encoding="UTF-8" standalone="no"?>
<!DOCTYPE svg PUBLIC "-//W3C//DTD SVG 1.1//EN"
 "http://www.w3.org/Graphics/SVG/1.1/DTD/svg11.dtd">
<!-- Generated by graphviz version 2.43.0 (0)
 -->
<!-- Title: Feel::detail::SymmetricDD&lt; T, M &gt; Pages: 1 -->
<svg width="153pt" height="248pt"
 viewBox="0.00 0.00 153.00 248.00" xmlns="http://www.w3.org/2000/svg" xmlns:xlink="http://www.w3.org/1999/xlink">
<g id="graph0" class="graph" transform="scale(1 1) rotate(0) translate(4 244)">
<title>Feel::detail::SymmetricDD&lt; T, M &gt;</title>
<polygon fill="white" stroke="transparent" points="-4,4 -4,-244 149,-244 149,4 -4,4"/>
<!-- Node1 -->
<g id="node1" class="node">
<title>Node1</title>
<g id="a_node1"><a xlink:title=" ">
<polygon fill="#bfbfbf" stroke="black" points="0,-0.5 0,-134.5 145,-134.5 145,-0.5 0,-0.5"/>
<text text-anchor="start" x="8" y="-122.5" font-family="Helvetica,sans-Serif" font-size="10.00">Feel::detail::SymmetricDD</text>
<text text-anchor="middle" x="72.5" y="-111.5" font-family="Helvetica,sans-Serif" font-size="10.00">&lt; T, M &gt;</text>
<polyline fill="none" stroke="black" points="0,-104.5 145,-104.5 "/>
<text text-anchor="middle" x="72.5" y="-92.5" font-family="Helvetica,sans-Serif" font-size="10.00"> </text>
<polyline fill="none" stroke="black" points="0,-85.5 145,-85.5 "/>
<text text-anchor="start" x="8" y="-73.5" font-family="Helvetica,sans-Serif" font-size="10.00">+ load()</text>
<text text-anchor="start" x="8" y="-62.5" font-family="Helvetica,sans-Serif" font-size="10.00">+ operator()()</text>
<text text-anchor="start" x="8" y="-51.5" font-family="Helvetica,sans-Serif" font-size="10.00">+ operator[]()</text>
<text text-anchor="start" x="8" y="-40.5" font-family="Helvetica,sans-Serif" font-size="10.00">+ save()</text>
<text text-anchor="start" x="8" y="-29.5" font-family="Helvetica,sans-Serif" font-size="10.00">+ serialize()</text>
<text text-anchor="start" x="8" y="-18.5" font-family="Helvetica,sans-Serif" font-size="10.00">+ SymmetricDD()</text>
<text text-anchor="start" x="8" y="-7.5" font-family="Helvetica,sans-Serif" font-size="10.00">+ SymmetricDD()</text>
</a>
</g>
</g>
<!-- Node2 -->
<g id="node2" class="node">
<title>Node2</title>
<g id="a_node2"><a xlink:title=" ">
<polygon fill="white" stroke="#bfbfbf" points="0.5,-182.5 0.5,-239.5 144.5,-239.5 144.5,-182.5 0.5,-182.5"/>
<text text-anchor="middle" x="72.5" y="-227.5" font-family="Helvetica,sans-Serif" font-size="10.00">multi_array&lt; m_type, 1 &gt;</text>
<polyline fill="none" stroke="#bfbfbf" points="0.5,-220.5 144.5,-220.5 "/>
<text text-anchor="middle" x="72.5" y="-208.5" font-family="Helvetica,sans-Serif" font-size="10.00"> </text>
<polyline fill="none" stroke="#bfbfbf" points="0.5,-201.5 144.5,-201.5 "/>
<text text-anchor="middle" x="72.5" y="-189.5" font-family="Helvetica,sans-Serif" font-size="10.00"> </text>
</a>
</g>
</g>
<!-- Node2&#45;&gt;Node1 -->
<g id="edge1" class="edge">
<title>Node2&#45;&gt;Node1</title>
<path fill="none" stroke="#404040" d="M72.5,-182.38C72.5,-172.02 72.5,-159.66 72.5,-146.97"/>
<polygon fill="none" stroke="#404040" points="72.5,-146.75 68.5,-140.75 72.5,-134.75 76.5,-140.75 72.5,-146.75"/>
<text text-anchor="middle" x="96.5" y="-156" font-family="Helvetica,sans-Serif" font-size="10.00"> +M_grad</text>
</g>
</g>
</svg>
