<?xml version="1.0" encoding="UTF-8" standalone="no"?>
<!DOCTYPE svg PUBLIC "-//W3C//DTD SVG 1.1//EN"
 "http://www.w3.org/Graphics/SVG/1.1/DTD/svg11.dtd">
<!-- Generated by graphviz version 2.43.0 (0)
 -->
<!-- Title: Feel::vf::SymbolExprComponentSuffix Pages: 1 -->
<svg width="181pt" height="226pt"
 viewBox="0.00 0.00 181.00 226.00" xmlns="http://www.w3.org/2000/svg" xmlns:xlink="http://www.w3.org/1999/xlink">
<g id="graph0" class="graph" transform="scale(1 1) rotate(0) translate(4 222)">
<title>Feel::vf::SymbolExprComponentSuffix</title>
<polygon fill="white" stroke="transparent" points="-4,4 -4,-222 177,-222 177,4 -4,4"/>
<!-- Node1 -->
<g id="node1" class="node">
<title>Node1</title>
<g id="a_node1"><a xlink:title=" ">
<polygon fill="#bfbfbf" stroke="black" points="0,-0.5 0,-123.5 173,-123.5 173,-0.5 0,-0.5"/>
<text text-anchor="start" x="8" y="-111.5" font-family="Helvetica,sans-Serif" font-size="10.00">Feel::vf::SymbolExprComponent</text>
<text text-anchor="middle" x="86.5" y="-100.5" font-family="Helvetica,sans-Serif" font-size="10.00">Suffix</text>
<polyline fill="none" stroke="black" points="0,-93.5 173,-93.5 "/>
<text text-anchor="middle" x="86.5" y="-81.5" font-family="Helvetica,sans-Serif" font-size="10.00"> </text>
<polyline fill="none" stroke="black" points="0,-74.5 173,-74.5 "/>
<text text-anchor="start" x="8" y="-62.5" font-family="Helvetica,sans-Serif" font-size="10.00">+ nComp1()</text>
<text text-anchor="start" x="8" y="-51.5" font-family="Helvetica,sans-Serif" font-size="10.00">+ nComp2()</text>
<text text-anchor="start" x="8" y="-40.5" font-family="Helvetica,sans-Serif" font-size="10.00">+ operator=()</text>
<text text-anchor="start" x="8" y="-29.5" font-family="Helvetica,sans-Serif" font-size="10.00">+ operator=()</text>
<text text-anchor="start" x="8" y="-18.5" font-family="Helvetica,sans-Serif" font-size="10.00">+ print()</text>
<text text-anchor="start" x="8" y="-7.5" font-family="Helvetica,sans-Serif" font-size="10.00">and 4 more...</text>
</a>
</g>
</g>
<!-- Node2 -->
<g id="node2" class="node">
<title>Node2</title>
<g id="a_node2"><a xlink:title=" ">
<polygon fill="white" stroke="black" points="38,-160.5 38,-217.5 135,-217.5 135,-160.5 38,-160.5"/>
<text text-anchor="middle" x="86.5" y="-205.5" font-family="Helvetica,sans-Serif" font-size="10.00">std::vector&lt; T &gt;</text>
<polyline fill="none" stroke="black" points="38,-198.5 135,-198.5 "/>
<text text-anchor="start" x="46" y="-186.5" font-family="Helvetica,sans-Serif" font-size="10.00">+ elements</text>
<polyline fill="none" stroke="black" points="38,-179.5 135,-179.5 "/>
<text text-anchor="middle" x="86.5" y="-167.5" font-family="Helvetica,sans-Serif" font-size="10.00"> </text>
</a>
</g>
</g>
<!-- Node2&#45;&gt;Node1 -->
<g id="edge1" class="edge">
<title>Node2&#45;&gt;Node1</title>
<path fill="none" stroke="midnightblue" d="M86.5,-150.1C86.5,-141.74 86.5,-132.68 86.5,-123.67"/>
<polygon fill="none" stroke="midnightblue" points="83,-150.26 86.5,-160.26 90,-150.26 83,-150.26"/>
</g>
</g>
</svg>
