<?xml version="1.0" encoding="UTF-8" standalone="no"?>
<!DOCTYPE svg PUBLIC "-//W3C//DTD SVG 1.1//EN"
 "http://www.w3.org/Graphics/SVG/1.1/DTD/svg11.dtd">
<!-- Generated by graphviz version 2.43.0 (0)
 -->
<!-- Title: Feel::Repository::Dist Pages: 1 -->
<svg width="128pt" height="299pt"
 viewBox="0.00 0.00 128.00 299.00" xmlns="http://www.w3.org/2000/svg" xmlns:xlink="http://www.w3.org/1999/xlink">
<g id="graph0" class="graph" transform="scale(1 1) rotate(0) translate(4 295)">
<title>Feel::Repository::Dist</title>
<polygon fill="white" stroke="transparent" points="-4,4 -4,-295 124,-295 124,4 -4,4"/>
<!-- Node1 -->
<g id="node1" class="node">
<title>Node1</title>
<g id="a_node1"><a xlink:title=" ">
<polygon fill="#bfbfbf" stroke="black" points="0,-0.5 0,-57.5 120,-57.5 120,-0.5 0,-0.5"/>
<text text-anchor="middle" x="60" y="-45.5" font-family="Helvetica,sans-Serif" font-size="10.00">Feel::Repository::Dist</text>
<polyline fill="none" stroke="black" points="0,-38.5 120,-38.5 "/>
<text text-anchor="middle" x="60" y="-26.5" font-family="Helvetica,sans-Serif" font-size="10.00"> </text>
<polyline fill="none" stroke="black" points="0,-19.5 120,-19.5 "/>
<text text-anchor="middle" x="60" y="-7.5" font-family="Helvetica,sans-Serif" font-size="10.00"> </text>
</a>
</g>
</g>
<!-- Node2 -->
<g id="node2" class="node">
<title>Node2</title>
<g id="a_node2"><a xlink:title=" ">
<polygon fill="white" stroke="black" points="27.5,-127.5 27.5,-184.5 92.5,-184.5 92.5,-127.5 27.5,-127.5"/>
<text text-anchor="middle" x="60" y="-172.5" font-family="Helvetica,sans-Serif" font-size="10.00">std::string</text>
<polyline fill="none" stroke="black" points="27.5,-165.5 92.5,-165.5 "/>
<text text-anchor="middle" x="60" y="-153.5" font-family="Helvetica,sans-Serif" font-size="10.00"> </text>
<polyline fill="none" stroke="black" points="27.5,-146.5 92.5,-146.5 "/>
<text text-anchor="middle" x="60" y="-134.5" font-family="Helvetica,sans-Serif" font-size="10.00"> </text>
</a>
</g>
</g>
<!-- Node2&#45;&gt;Node1 -->
<g id="edge1" class="edge">
<title>Node2&#45;&gt;Node1</title>
<path fill="none" stroke="#404040" d="M60,-127.26C60,-110.35 60,-88.46 60,-69.73"/>
<polygon fill="none" stroke="#404040" points="60,-69.66 56,-63.66 60,-57.66 64,-63.66 60,-69.66"/>
<text text-anchor="middle" x="80" y="-101" font-family="Helvetica,sans-Serif" font-size="10.00"> +login</text>
<text text-anchor="middle" x="80" y="-90" font-family="Helvetica,sans-Serif" font-size="10.00">+name</text>
<text text-anchor="middle" x="80" y="-79" font-family="Helvetica,sans-Serif" font-size="10.00">+server</text>
</g>
<!-- Node3 -->
<g id="node3" class="node">
<title>Node3</title>
<g id="a_node3"><a xlink:title=" ">
<polygon fill="white" stroke="black" points="8,-222.5 8,-290.5 112,-290.5 112,-222.5 8,-222.5"/>
<text text-anchor="start" x="16" y="-278.5" font-family="Helvetica,sans-Serif" font-size="10.00">std::basic_string&lt;</text>
<text text-anchor="middle" x="60" y="-267.5" font-family="Helvetica,sans-Serif" font-size="10.00"> Char &gt;</text>
<polyline fill="none" stroke="black" points="8,-260.5 112,-260.5 "/>
<text text-anchor="middle" x="60" y="-248.5" font-family="Helvetica,sans-Serif" font-size="10.00"> </text>
<polyline fill="none" stroke="black" points="8,-241.5 112,-241.5 "/>
<text text-anchor="middle" x="60" y="-229.5" font-family="Helvetica,sans-Serif" font-size="10.00"> </text>
</a>
</g>
</g>
<!-- Node3&#45;&gt;Node2 -->
<g id="edge2" class="edge">
<title>Node3&#45;&gt;Node2</title>
<path fill="none" stroke="midnightblue" d="M60,-212.38C60,-202.94 60,-193.2 60,-184.57"/>
<polygon fill="none" stroke="midnightblue" points="56.5,-212.43 60,-222.43 63.5,-212.43 56.5,-212.43"/>
</g>
</g>
</svg>
