<?xml version="1.0" encoding="UTF-8" standalone="no"?>
<!DOCTYPE svg PUBLIC "-//W3C//DTD SVG 1.1//EN"
 "http://www.w3.org/Graphics/SVG/1.1/DTD/svg11.dtd">
<!-- Generated by graphviz version 2.43.0 (0)
 -->
<!-- Title: Feel::MeshStructuredBase Pages: 1 -->
<svg width="151pt" height="237pt"
 viewBox="0.00 0.00 151.00 237.00" xmlns="http://www.w3.org/2000/svg" xmlns:xlink="http://www.w3.org/1999/xlink">
<g id="graph0" class="graph" transform="scale(1 1) rotate(0) translate(4 233)">
<title>Feel::MeshStructuredBase</title>
<polygon fill="white" stroke="transparent" points="-4,4 -4,-233 147,-233 147,4 -4,4"/>
<!-- Node1 -->
<g id="node1" class="node">
<title>Node1</title>
<g id="a_node1"><a xlink:title="Structured mesh class.">
<polygon fill="#bfbfbf" stroke="black" points="0,-171.5 0,-228.5 143,-228.5 143,-171.5 0,-171.5"/>
<text text-anchor="middle" x="71.5" y="-216.5" font-family="Helvetica,sans-Serif" font-size="10.00">Feel::MeshStructuredBase</text>
<polyline fill="none" stroke="black" points="0,-209.5 143,-209.5 "/>
<text text-anchor="middle" x="71.5" y="-197.5" font-family="Helvetica,sans-Serif" font-size="10.00"> </text>
<polyline fill="none" stroke="black" points="0,-190.5 143,-190.5 "/>
<text text-anchor="middle" x="71.5" y="-178.5" font-family="Helvetica,sans-Serif" font-size="10.00"> </text>
</a>
</g>
</g>
<!-- Node2 -->
<g id="node2" class="node">
<title>Node2</title>
<g id="a_node2"><a xlink:href="classFeel_1_1MeshStructured.html" target="_top" xlink:title=" ">
<polygon fill="white" stroke="black" points="1.5,-0.5 1.5,-134.5 141.5,-134.5 141.5,-0.5 1.5,-0.5"/>
<text text-anchor="start" x="9.5" y="-122.5" font-family="Helvetica,sans-Serif" font-size="10.00">Feel::MeshStructured</text>
<text text-anchor="middle" x="71.5" y="-111.5" font-family="Helvetica,sans-Serif" font-size="10.00">&lt; GeoShape, T, IndexT &gt;</text>
<polyline fill="none" stroke="black" points="1.5,-104.5 141.5,-104.5 "/>
<text text-anchor="start" x="9.5" y="-92.5" font-family="Helvetica,sans-Serif" font-size="10.00">+ nDim</text>
<text text-anchor="start" x="9.5" y="-81.5" font-family="Helvetica,sans-Serif" font-size="10.00">+ nRealDim</text>
<polyline fill="none" stroke="black" points="1.5,-74.5 141.5,-74.5 "/>
<text text-anchor="start" x="9.5" y="-62.5" font-family="Helvetica,sans-Serif" font-size="10.00">+ MeshStructured()</text>
<text text-anchor="start" x="9.5" y="-51.5" font-family="Helvetica,sans-Serif" font-size="10.00">+ MeshStructured()</text>
<text text-anchor="start" x="9.5" y="-40.5" font-family="Helvetica,sans-Serif" font-size="10.00">+ MeshStructured()</text>
<text text-anchor="start" x="9.5" y="-29.5" font-family="Helvetica,sans-Serif" font-size="10.00">+ MeshStructured()</text>
<text text-anchor="start" x="9.5" y="-18.5" font-family="Helvetica,sans-Serif" font-size="10.00">+ MeshStructured()</text>
<text text-anchor="start" x="9.5" y="-7.5" font-family="Helvetica,sans-Serif" font-size="10.00">and 4 more...</text>
</a>
</g>
</g>
<!-- Node1&#45;&gt;Node2 -->
<g id="edge1" class="edge">
<title>Node1&#45;&gt;Node2</title>
<path fill="none" stroke="midnightblue" d="M71.5,-161.16C71.5,-152.78 71.5,-143.67 71.5,-134.53"/>
<polygon fill="none" stroke="midnightblue" points="68,-161.32 71.5,-171.32 75,-161.32 68,-161.32"/>
</g>
</g>
</svg>
