<?xml version="1.0" encoding="UTF-8" standalone="no"?>
<!DOCTYPE svg PUBLIC "-//W3C//DTD SVG 1.1//EN"
 "http://www.w3.org/Graphics/SVG/1.1/DTD/svg11.dtd">
<!-- Generated by graphviz version 2.43.0 (0)
 -->
<!-- Title: Feel::MeshMarkerName Pages: 1 -->
<svg width="221pt" height="287pt"
 viewBox="0.00 0.00 221.00 287.00" xmlns="http://www.w3.org/2000/svg" xmlns:xlink="http://www.w3.org/1999/xlink">
<g id="graph0" class="graph" transform="scale(1 1) rotate(0) translate(4 283)">
<title>Feel::MeshMarkerName</title>
<polygon fill="white" stroke="transparent" points="-4,4 -4,-283 217,-283 217,4 -4,4"/>
<!-- Node1 -->
<g id="node1" class="node">
<title>Node1</title>
<g id="a_node1"><a xlink:title=" ">
<polygon fill="#bfbfbf" stroke="black" points="37,-0.5 37,-57.5 169,-57.5 169,-0.5 37,-0.5"/>
<text text-anchor="middle" x="103" y="-45.5" font-family="Helvetica,sans-Serif" font-size="10.00">Feel::MeshMarkerName</text>
<polyline fill="none" stroke="black" points="37,-38.5 169,-38.5 "/>
<text text-anchor="middle" x="103" y="-26.5" font-family="Helvetica,sans-Serif" font-size="10.00"> </text>
<polyline fill="none" stroke="black" points="37,-19.5 169,-19.5 "/>
<text text-anchor="middle" x="103" y="-7.5" font-family="Helvetica,sans-Serif" font-size="10.00"> </text>
</a>
</g>
</g>
<!-- Node2 -->
<g id="node2" class="node">
<title>Node2</title>
<g id="a_node2"><a xlink:title=" ">
<polygon fill="white" stroke="black" points="19.5,-105.5 19.5,-162.5 84.5,-162.5 84.5,-105.5 19.5,-105.5"/>
<text text-anchor="middle" x="52" y="-150.5" font-family="Helvetica,sans-Serif" font-size="10.00">std::string</text>
<polyline fill="none" stroke="black" points="19.5,-143.5 84.5,-143.5 "/>
<text text-anchor="middle" x="52" y="-131.5" font-family="Helvetica,sans-Serif" font-size="10.00"> </text>
<polyline fill="none" stroke="black" points="19.5,-124.5 84.5,-124.5 "/>
<text text-anchor="middle" x="52" y="-112.5" font-family="Helvetica,sans-Serif" font-size="10.00"> </text>
</a>
</g>
</g>
<!-- Node2&#45;&gt;Node1 -->
<g id="edge1" class="edge">
<title>Node2&#45;&gt;Node1</title>
<path fill="none" stroke="#404040" d="M65.67,-105.4C71.27,-94.08 77.85,-80.79 83.91,-68.54"/>
<polygon fill="none" stroke="#404040" points="83.97,-68.43 83.05,-61.28 89.3,-57.68 90.22,-64.83 83.97,-68.43"/>
<text text-anchor="middle" x="100" y="-79" font-family="Helvetica,sans-Serif" font-size="10.00"> +name</text>
</g>
<!-- Node3 -->
<g id="node3" class="node">
<title>Node3</title>
<g id="a_node3"><a xlink:title=" ">
<polygon fill="white" stroke="black" points="0,-210.5 0,-278.5 104,-278.5 104,-210.5 0,-210.5"/>
<text text-anchor="start" x="8" y="-266.5" font-family="Helvetica,sans-Serif" font-size="10.00">std::basic_string&lt;</text>
<text text-anchor="middle" x="52" y="-255.5" font-family="Helvetica,sans-Serif" font-size="10.00"> Char &gt;</text>
<polyline fill="none" stroke="black" points="0,-248.5 104,-248.5 "/>
<text text-anchor="middle" x="52" y="-236.5" font-family="Helvetica,sans-Serif" font-size="10.00"> </text>
<polyline fill="none" stroke="black" points="0,-229.5 104,-229.5 "/>
<text text-anchor="middle" x="52" y="-217.5" font-family="Helvetica,sans-Serif" font-size="10.00"> </text>
</a>
</g>
</g>
<!-- Node3&#45;&gt;Node2 -->
<g id="edge2" class="edge">
<title>Node3&#45;&gt;Node2</title>
<path fill="none" stroke="midnightblue" d="M52,-200.06C52,-187.51 52,-174.15 52,-162.83"/>
<polygon fill="none" stroke="midnightblue" points="48.5,-200.36 52,-210.36 55.5,-200.36 48.5,-200.36"/>
</g>
<!-- Node4 -->
<g id="node4" class="node">
<title>Node4</title>
<g id="a_node4"><a xlink:title=" ">
<polygon fill="white" stroke="black" points="103,-105.5 103,-162.5 207,-162.5 207,-105.5 103,-105.5"/>
<text text-anchor="middle" x="155" y="-150.5" font-family="Helvetica,sans-Serif" font-size="10.00">std::vector&lt; int &gt;</text>
<polyline fill="none" stroke="black" points="103,-143.5 207,-143.5 "/>
<text text-anchor="middle" x="155" y="-131.5" font-family="Helvetica,sans-Serif" font-size="10.00"> </text>
<polyline fill="none" stroke="black" points="103,-124.5 207,-124.5 "/>
<text text-anchor="middle" x="155" y="-112.5" font-family="Helvetica,sans-Serif" font-size="10.00"> </text>
</a>
</g>
</g>
<!-- Node4&#45;&gt;Node1 -->
<g id="edge3" class="edge">
<title>Node4&#45;&gt;Node1</title>
<path fill="none" stroke="#404040" d="M141.06,-105.4C135.35,-94.08 128.64,-80.79 122.46,-68.54"/>
<polygon fill="none" stroke="#404040" points="122.38,-68.39 116.11,-64.84 116.97,-57.68 123.25,-61.23 122.38,-68.39"/>
<text text-anchor="middle" x="144" y="-79" font-family="Helvetica,sans-Serif" font-size="10.00"> +ids</text>
</g>
<!-- Node5 -->
<g id="node5" class="node">
<title>Node5</title>
<g id="a_node5"><a xlink:href="classint.html" target="_top" xlink:title=" ">
<polygon fill="white" stroke="#bfbfbf" points="140.5,-216 140.5,-273 169.5,-273 169.5,-216 140.5,-216"/>
<text text-anchor="middle" x="155" y="-261" font-family="Helvetica,sans-Serif" font-size="10.00">int</text>
<polyline fill="none" stroke="#bfbfbf" points="140.5,-254 169.5,-254 "/>
<text text-anchor="middle" x="155" y="-242" font-family="Helvetica,sans-Serif" font-size="10.00"> </text>
<polyline fill="none" stroke="#bfbfbf" points="140.5,-235 169.5,-235 "/>
<text text-anchor="middle" x="155" y="-223" font-family="Helvetica,sans-Serif" font-size="10.00"> </text>
</a>
</g>
</g>
<!-- Node5&#45;&gt;Node4 -->
<g id="edge4" class="edge">
<title>Node5&#45;&gt;Node4</title>
<path fill="none" stroke="#404040" d="M155,-215.84C155,-203.34 155,-188.34 155,-174.68"/>
<polygon fill="none" stroke="#404040" points="155,-174.61 151,-168.61 155,-162.61 159,-168.61 155,-174.61"/>
<text text-anchor="middle" x="184" y="-184" font-family="Helvetica,sans-Serif" font-size="10.00"> +elements</text>
</g>
</g>
</svg>
