<?xml version="1.0" encoding="UTF-8" standalone="no"?>
<!DOCTYPE svg PUBLIC "-//W3C//DTD SVG 1.1//EN"
 "http://www.w3.org/Graphics/SVG/1.1/DTD/svg11.dtd">
<!-- Generated by graphviz version 2.43.0 (0)
 -->
<!-- Title: Feel::vf::minmaxData&lt; Dim &gt; Pages: 1 -->
<svg width="131pt" height="248pt"
 viewBox="0.00 0.00 131.00 248.00" xmlns="http://www.w3.org/2000/svg" xmlns:xlink="http://www.w3.org/1999/xlink">
<g id="graph0" class="graph" transform="scale(1 1) rotate(0) translate(4 244)">
<title>Feel::vf::minmaxData&lt; Dim &gt;</title>
<polygon fill="white" stroke="transparent" points="-4,4 -4,-244 127,-244 127,4 -4,4"/>
<!-- Node1 -->
<g id="node1" class="node">
<title>Node1</title>
<g id="a_node1"><a xlink:title="data returned by minmax">
<polygon fill="#bfbfbf" stroke="black" points="0.5,-0.5 0.5,-123.5 122.5,-123.5 122.5,-0.5 0.5,-0.5"/>
<text text-anchor="start" x="8.5" y="-111.5" font-family="Helvetica,sans-Serif" font-size="10.00">Feel::vf::minmaxData</text>
<text text-anchor="middle" x="61.5" y="-100.5" font-family="Helvetica,sans-Serif" font-size="10.00">&lt; Dim &gt;</text>
<polyline fill="none" stroke="black" points="0.5,-93.5 122.5,-93.5 "/>
<text text-anchor="middle" x="61.5" y="-81.5" font-family="Helvetica,sans-Serif" font-size="10.00"> </text>
<polyline fill="none" stroke="black" points="0.5,-74.5 122.5,-74.5 "/>
<text text-anchor="start" x="8.5" y="-62.5" font-family="Helvetica,sans-Serif" font-size="10.00">+ argmax()</text>
<text text-anchor="start" x="8.5" y="-51.5" font-family="Helvetica,sans-Serif" font-size="10.00">+ argmin()</text>
<text text-anchor="start" x="8.5" y="-40.5" font-family="Helvetica,sans-Serif" font-size="10.00">+ coords()</text>
<text text-anchor="start" x="8.5" y="-29.5" font-family="Helvetica,sans-Serif" font-size="10.00">+ max()</text>
<text text-anchor="start" x="8.5" y="-18.5" font-family="Helvetica,sans-Serif" font-size="10.00">+ min()</text>
<text text-anchor="start" x="8.5" y="-7.5" font-family="Helvetica,sans-Serif" font-size="10.00">and 7 more...</text>
</a>
</g>
</g>
<!-- Node2 -->
<g id="node2" class="node">
<title>Node2</title>
<g id="a_node2"><a xlink:title=" ">
<polygon fill="white" stroke="#bfbfbf" points="0,-160.5 0,-239.5 123,-239.5 123,-160.5 0,-160.5"/>
<text text-anchor="start" x="8" y="-227.5" font-family="Helvetica,sans-Serif" font-size="10.00">boost::tuple&lt; double,</text>
<text text-anchor="start" x="8" y="-216.5" font-family="Helvetica,sans-Serif" font-size="10.00"> double, Eigen::Matrix</text>
<text text-anchor="middle" x="61.5" y="-205.5" font-family="Helvetica,sans-Serif" font-size="10.00">&lt; double, Dim, 2 &gt; &gt;</text>
<polyline fill="none" stroke="#bfbfbf" points="0,-198.5 123,-198.5 "/>
<text text-anchor="middle" x="61.5" y="-186.5" font-family="Helvetica,sans-Serif" font-size="10.00"> </text>
<polyline fill="none" stroke="#bfbfbf" points="0,-179.5 123,-179.5 "/>
<text text-anchor="middle" x="61.5" y="-167.5" font-family="Helvetica,sans-Serif" font-size="10.00"> </text>
</a>
</g>
</g>
<!-- Node2&#45;&gt;Node1 -->
<g id="edge1" class="edge">
<title>Node2&#45;&gt;Node1</title>
<path fill="none" stroke="midnightblue" d="M61.5,-150.14C61.5,-141.53 61.5,-132.47 61.5,-123.57"/>
<polygon fill="none" stroke="midnightblue" points="58,-150.39 61.5,-160.39 65,-150.39 58,-150.39"/>
</g>
</g>
</svg>
