<?xml version="1.0" encoding="UTF-8" standalone="no"?>
<!DOCTYPE svg PUBLIC "-//W3C//DTD SVG 1.1//EN"
 "http://www.w3.org/Graphics/SVG/1.1/DTD/svg11.dtd">
<!-- Generated by graphviz version 2.43.0 (0)
 -->
<!-- Title: Feel::FaceDof&lt; SizeT &gt; Pages: 1 -->
<svg width="160pt" height="369pt"
 viewBox="0.00 0.00 160.00 369.00" xmlns="http://www.w3.org/2000/svg" xmlns:xlink="http://www.w3.org/1999/xlink">
<g id="graph0" class="graph" transform="scale(1 1) rotate(0) translate(4 365)">
<title>Feel::FaceDof&lt; SizeT &gt;</title>
<polygon fill="white" stroke="transparent" points="-4,4 -4,-365 156,-365 156,4 -4,4"/>
<!-- Node1 -->
<g id="node1" class="node">
<title>Node1</title>
<g id="a_node1"><a xlink:title="Describe a Dof on a Face.">
<polygon fill="#bfbfbf" stroke="black" points="10.5,-0.5 10.5,-244.5 141.5,-244.5 141.5,-0.5 10.5,-0.5"/>
<text text-anchor="middle" x="76" y="-232.5" font-family="Helvetica,sans-Serif" font-size="10.00">Feel::FaceDof&lt; SizeT &gt;</text>
<polyline fill="none" stroke="black" points="10.5,-225.5 141.5,-225.5 "/>
<text text-anchor="middle" x="76" y="-213.5" font-family="Helvetica,sans-Serif" font-size="10.00"> </text>
<polyline fill="none" stroke="black" points="10.5,-206.5 141.5,-206.5 "/>
<text text-anchor="start" x="18.5" y="-194.5" font-family="Helvetica,sans-Serif" font-size="10.00">* FaceDof()</text>
<text text-anchor="start" x="18.5" y="-183.5" font-family="Helvetica,sans-Serif" font-size="10.00">* FaceDof()</text>
<text text-anchor="start" x="18.5" y="-172.5" font-family="Helvetica,sans-Serif" font-size="10.00">* FaceDof()</text>
<text text-anchor="start" x="18.5" y="-161.5" font-family="Helvetica,sans-Serif" font-size="10.00">* FaceDof()</text>
<text text-anchor="start" x="18.5" y="-150.5" font-family="Helvetica,sans-Serif" font-size="10.00">* FaceDof()</text>
<text text-anchor="start" x="18.5" y="-139.5" font-family="Helvetica,sans-Serif" font-size="10.00">and 3 more...</text>
<text text-anchor="start" x="18.5" y="-128.5" font-family="Helvetica,sans-Serif" font-size="10.00">* operator=()</text>
<text text-anchor="start" x="18.5" y="-117.5" font-family="Helvetica,sans-Serif" font-size="10.00">* operator=()</text>
<text text-anchor="start" x="18.5" y="-106.5" font-family="Helvetica,sans-Serif" font-size="10.00">* operator=()</text>
<text text-anchor="start" x="18.5" y="-95.5" font-family="Helvetica,sans-Serif" font-size="10.00">* operator=()</text>
<text text-anchor="start" x="18.5" y="-84.5" font-family="Helvetica,sans-Serif" font-size="10.00">* index()</text>
<text text-anchor="start" x="18.5" y="-73.5" font-family="Helvetica,sans-Serif" font-size="10.00">* sign()</text>
<text text-anchor="start" x="18.5" y="-62.5" font-family="Helvetica,sans-Serif" font-size="10.00">* isPeriodic()</text>
<text text-anchor="start" x="18.5" y="-51.5" font-family="Helvetica,sans-Serif" font-size="10.00">* localDof()</text>
<text text-anchor="start" x="18.5" y="-40.5" font-family="Helvetica,sans-Serif" font-size="10.00">* localDofInFace()</text>
<text text-anchor="start" x="18.5" y="-29.5" font-family="Helvetica,sans-Serif" font-size="10.00">* localDofInEntity()</text>
<text text-anchor="start" x="18.5" y="-18.5" font-family="Helvetica,sans-Serif" font-size="10.00">* localDofInElement()</text>
<text text-anchor="start" x="18.5" y="-7.5" font-family="Helvetica,sans-Serif" font-size="10.00">* setIndex()</text>
</a>
</g>
</g>
<!-- Node2 -->
<g id="node2" class="node">
<title>Node2</title>
<g id="a_node2"><a xlink:title=" ">
<polygon fill="white" stroke="#bfbfbf" points="0,-281.5 0,-360.5 152,-360.5 152,-281.5 0,-281.5"/>
<text text-anchor="start" x="8" y="-348.5" font-family="Helvetica,sans-Serif" font-size="10.00">std::tuple&lt; uint32</text>
<text text-anchor="start" x="8" y="-337.5" font-family="Helvetica,sans-Serif" font-size="10.00">_type, int16_type, bool,</text>
<text text-anchor="middle" x="76" y="-326.5" font-family="Helvetica,sans-Serif" font-size="10.00"> uint16_type, uint16_type &gt;</text>
<polyline fill="none" stroke="#bfbfbf" points="0,-319.5 152,-319.5 "/>
<text text-anchor="middle" x="76" y="-307.5" font-family="Helvetica,sans-Serif" font-size="10.00"> </text>
<polyline fill="none" stroke="#bfbfbf" points="0,-300.5 152,-300.5 "/>
<text text-anchor="middle" x="76" y="-288.5" font-family="Helvetica,sans-Serif" font-size="10.00"> </text>
</a>
</g>
</g>
<!-- Node2&#45;&gt;Node1 -->
<g id="edge1" class="edge">
<title>Node2&#45;&gt;Node1</title>
<path fill="none" stroke="midnightblue" d="M76,-271.02C76,-262.72 76,-253.78 76,-244.56"/>
<polygon fill="none" stroke="midnightblue" points="72.5,-271.18 76,-281.18 79.5,-271.18 72.5,-271.18"/>
</g>
</g>
</svg>
