<?xml version="1.0" encoding="UTF-8" standalone="no"?>
<!DOCTYPE svg PUBLIC "-//W3C//DTD SVG 1.1//EN"
 "http://www.w3.org/Graphics/SVG/1.1/DTD/svg11.dtd">
<!-- Generated by graphviz version 2.43.0 (0)
 -->
<!-- Title: Feel::StencilRangeMap0Type Pages: 1 -->
<svg width="292pt" height="171pt"
 viewBox="0.00 0.00 291.50 171.00" xmlns="http://www.w3.org/2000/svg" xmlns:xlink="http://www.w3.org/1999/xlink">
<g id="graph0" class="graph" transform="scale(1 1) rotate(0) translate(4 167)">
<title>Feel::StencilRangeMap0Type</title>
<polygon fill="white" stroke="transparent" points="-4,4 -4,-167 287.5,-167 287.5,4 -4,4"/>
<!-- Node1 -->
<g id="node1" class="node">
<title>Node1</title>
<g id="a_node1"><a xlink:title=" ">
<polygon fill="#bfbfbf" stroke="black" points="84,-0.5 84,-68.5 240,-68.5 240,-0.5 84,-0.5"/>
<text text-anchor="middle" x="162" y="-56.5" font-family="Helvetica,sans-Serif" font-size="10.00">Feel::StencilRangeMap0Type</text>
<polyline fill="none" stroke="black" points="84,-49.5 240,-49.5 "/>
<text text-anchor="middle" x="162" y="-37.5" font-family="Helvetica,sans-Serif" font-size="10.00"> </text>
<polyline fill="none" stroke="black" points="84,-30.5 240,-30.5 "/>
<text text-anchor="start" x="92" y="-18.5" font-family="Helvetica,sans-Serif" font-size="10.00">+ StencilRangeMap0Type()</text>
<text text-anchor="start" x="92" y="-7.5" font-family="Helvetica,sans-Serif" font-size="10.00">+ isNullRange()</text>
</a>
</g>
</g>
<!-- Node2 -->
<g id="node2" class="node">
<title>Node2</title>
<g id="a_node2"><a xlink:href="structFeel_1_1StencilRangeMapTypeBase.html" target="_top" xlink:title=" ">
<polygon fill="white" stroke="#bfbfbf" points="0,-105.5 0,-162.5 174,-162.5 174,-105.5 0,-105.5"/>
<text text-anchor="middle" x="87" y="-150.5" font-family="Helvetica,sans-Serif" font-size="10.00">Feel::StencilRangeMapTypeBase</text>
<polyline fill="none" stroke="#bfbfbf" points="0,-143.5 174,-143.5 "/>
<text text-anchor="middle" x="87" y="-131.5" font-family="Helvetica,sans-Serif" font-size="10.00"> </text>
<polyline fill="none" stroke="#bfbfbf" points="0,-124.5 174,-124.5 "/>
<text text-anchor="middle" x="87" y="-112.5" font-family="Helvetica,sans-Serif" font-size="10.00"> </text>
</a>
</g>
</g>
<!-- Node2&#45;&gt;Node1 -->
<g id="edge1" class="edge">
<title>Node2&#45;&gt;Node1</title>
<path fill="none" stroke="midnightblue" d="M114.43,-97.34C121.61,-88.01 129.32,-77.99 136.4,-68.79"/>
<polygon fill="none" stroke="midnightblue" points="111.61,-95.26 108.29,-105.32 117.16,-99.53 111.61,-95.26"/>
</g>
<!-- Node3 -->
<g id="node3" class="node">
<title>Node3</title>
<g id="a_node3"><a xlink:href="classboost_1_1fusion_1_1map.html" target="_top" xlink:title=" ">
<polygon fill="white" stroke="#bfbfbf" points="192.5,-105.5 192.5,-162.5 283.5,-162.5 283.5,-105.5 192.5,-105.5"/>
<text text-anchor="middle" x="238" y="-150.5" font-family="Helvetica,sans-Serif" font-size="10.00">fusion::map&lt;&gt;</text>
<polyline fill="none" stroke="#bfbfbf" points="192.5,-143.5 283.5,-143.5 "/>
<text text-anchor="middle" x="238" y="-131.5" font-family="Helvetica,sans-Serif" font-size="10.00"> </text>
<polyline fill="none" stroke="#bfbfbf" points="192.5,-124.5 283.5,-124.5 "/>
<text text-anchor="middle" x="238" y="-112.5" font-family="Helvetica,sans-Serif" font-size="10.00"> </text>
</a>
</g>
</g>
<!-- Node3&#45;&gt;Node1 -->
<g id="edge2" class="edge">
<title>Node3&#45;&gt;Node1</title>
<path fill="none" stroke="midnightblue" d="M210.2,-97.34C202.93,-88.01 195.12,-77.99 187.95,-68.79"/>
<polygon fill="none" stroke="midnightblue" points="207.52,-99.59 216.42,-105.32 213.04,-95.28 207.52,-99.59"/>
</g>
</g>
</svg>
