<?xml version="1.0" encoding="UTF-8" standalone="no"?>
<!DOCTYPE svg PUBLIC "-//W3C//DTD SVG 1.1//EN"
 "http://www.w3.org/Graphics/SVG/1.1/DTD/svg11.dtd">
<!-- Generated by graphviz version 2.43.0 (0)
 -->
<!-- Title: Feel::Region Pages: 1 -->
<svg width="518pt" height="160pt"
 viewBox="0.00 0.00 518.00 160.00" xmlns="http://www.w3.org/2000/svg" xmlns:xlink="http://www.w3.org/1999/xlink">
<g id="graph0" class="graph" transform="scale(1 1) rotate(0) translate(4 156)">
<title>Feel::Region</title>
<polygon fill="white" stroke="transparent" points="-4,4 -4,-156 514,-156 514,4 -4,4"/>
<!-- Node1 -->
<g id="node1" class="node">
<title>Node1</title>
<g id="a_node1"><a xlink:title=" ">
<polygon fill="#bfbfbf" stroke="black" points="214.5,-94.5 214.5,-151.5 291.5,-151.5 291.5,-94.5 214.5,-94.5"/>
<text text-anchor="middle" x="253" y="-139.5" font-family="Helvetica,sans-Serif" font-size="10.00">Feel::Region</text>
<polyline fill="none" stroke="black" points="214.5,-132.5 291.5,-132.5 "/>
<text text-anchor="middle" x="253" y="-120.5" font-family="Helvetica,sans-Serif" font-size="10.00"> </text>
<polyline fill="none" stroke="black" points="214.5,-113.5 291.5,-113.5 "/>
<text text-anchor="start" x="222.5" y="-101.5" font-family="Helvetica,sans-Serif" font-size="10.00">+ ~Region()</text>
</a>
</g>
</g>
<!-- Node2 -->
<g id="node2" class="node">
<title>Node2</title>
<g id="a_node2"><a xlink:href="structFeel_1_1RegionMarker.html" target="_top" xlink:title="class for RegionMarker">
<polygon fill="white" stroke="black" points="0,-0.5 0,-57.5 110,-57.5 110,-0.5 0,-0.5"/>
<text text-anchor="middle" x="55" y="-45.5" font-family="Helvetica,sans-Serif" font-size="10.00">Feel::RegionMarker</text>
<polyline fill="none" stroke="black" points="0,-38.5 110,-38.5 "/>
<text text-anchor="middle" x="55" y="-26.5" font-family="Helvetica,sans-Serif" font-size="10.00"> </text>
<polyline fill="none" stroke="black" points="0,-19.5 110,-19.5 "/>
<text text-anchor="start" x="8" y="-7.5" font-family="Helvetica,sans-Serif" font-size="10.00">+ apply()</text>
</a>
</g>
</g>
<!-- Node1&#45;&gt;Node2 -->
<g id="edge1" class="edge">
<title>Node1&#45;&gt;Node2</title>
<path fill="none" stroke="midnightblue" d="M204.96,-99.68C176.31,-86.37 139.83,-69.42 110.03,-55.57"/>
<polygon fill="none" stroke="midnightblue" points="203.81,-103 214.35,-104.04 206.76,-96.66 203.81,-103"/>
</g>
<!-- Node3 -->
<g id="node3" class="node">
<title>Node3</title>
<g id="a_node3"><a xlink:href="structFeel_1_1RegionMarker2.html" target="_top" xlink:title="class for RegionMarker2">
<polygon fill="white" stroke="black" points="128,-0.5 128,-57.5 244,-57.5 244,-0.5 128,-0.5"/>
<text text-anchor="middle" x="186" y="-45.5" font-family="Helvetica,sans-Serif" font-size="10.00">Feel::RegionMarker2</text>
<polyline fill="none" stroke="black" points="128,-38.5 244,-38.5 "/>
<text text-anchor="middle" x="186" y="-26.5" font-family="Helvetica,sans-Serif" font-size="10.00"> </text>
<polyline fill="none" stroke="black" points="128,-19.5 244,-19.5 "/>
<text text-anchor="start" x="136" y="-7.5" font-family="Helvetica,sans-Serif" font-size="10.00">+ apply()</text>
</a>
</g>
</g>
<!-- Node1&#45;&gt;Node3 -->
<g id="edge2" class="edge">
<title>Node1&#45;&gt;Node3</title>
<path fill="none" stroke="midnightblue" d="M226.95,-86.24C220.02,-76.72 212.65,-66.59 206.09,-57.58"/>
<polygon fill="none" stroke="midnightblue" points="224.18,-88.37 232.9,-94.4 229.84,-84.25 224.18,-88.37"/>
</g>
<!-- Node4 -->
<g id="node4" class="node">
<title>Node4</title>
<g id="a_node4"><a xlink:href="structFeel_1_1RegionMarker3.html" target="_top" xlink:title="class for RegionMarker3">
<polygon fill="white" stroke="black" points="262,-0.5 262,-57.5 378,-57.5 378,-0.5 262,-0.5"/>
<text text-anchor="middle" x="320" y="-45.5" font-family="Helvetica,sans-Serif" font-size="10.00">Feel::RegionMarker3</text>
<polyline fill="none" stroke="black" points="262,-38.5 378,-38.5 "/>
<text text-anchor="middle" x="320" y="-26.5" font-family="Helvetica,sans-Serif" font-size="10.00"> </text>
<polyline fill="none" stroke="black" points="262,-19.5 378,-19.5 "/>
<text text-anchor="start" x="270" y="-7.5" font-family="Helvetica,sans-Serif" font-size="10.00">+ apply()</text>
</a>
</g>
</g>
<!-- Node1&#45;&gt;Node4 -->
<g id="edge3" class="edge">
<title>Node1&#45;&gt;Node4</title>
<path fill="none" stroke="midnightblue" d="M279.05,-86.24C285.98,-76.72 293.35,-66.59 299.91,-57.58"/>
<polygon fill="none" stroke="midnightblue" points="276.16,-84.25 273.1,-94.4 281.82,-88.37 276.16,-84.25"/>
</g>
<!-- Node5 -->
<g id="node5" class="node">
<title>Node5</title>
<g id="a_node5"><a xlink:href="structFeel_1_1RegionProcess.html" target="_top" xlink:title="class for RegionProcess">
<polygon fill="white" stroke="black" points="396,-0.5 396,-57.5 510,-57.5 510,-0.5 396,-0.5"/>
<text text-anchor="middle" x="453" y="-45.5" font-family="Helvetica,sans-Serif" font-size="10.00">Feel::RegionProcess</text>
<polyline fill="none" stroke="black" points="396,-38.5 510,-38.5 "/>
<text text-anchor="middle" x="453" y="-26.5" font-family="Helvetica,sans-Serif" font-size="10.00"> </text>
<polyline fill="none" stroke="black" points="396,-19.5 510,-19.5 "/>
<text text-anchor="start" x="404" y="-7.5" font-family="Helvetica,sans-Serif" font-size="10.00">+ apply()</text>
</a>
</g>
</g>
<!-- Node1&#45;&gt;Node5 -->
<g id="edge4" class="edge">
<title>Node1&#45;&gt;Node5</title>
<path fill="none" stroke="midnightblue" d="M300.89,-99.97C329.36,-86.88 365.63,-70.19 395.62,-56.39"/>
<polygon fill="none" stroke="midnightblue" points="299.18,-96.9 291.56,-104.26 302.11,-103.26 299.18,-96.9"/>
</g>
</g>
</svg>
