<?xml version="1.0" encoding="UTF-8" standalone="no"?>
<!DOCTYPE svg PUBLIC "-//W3C//DTD SVG 1.1//EN"
 "http://www.w3.org/Graphics/SVG/1.1/DTD/svg11.dtd">
<!-- Generated by graphviz version 2.43.0 (0)
 -->
<!-- Title: Feel::RemoteData::ItemInfo Pages: 1 -->
<svg width="160pt" height="226pt"
 viewBox="0.00 0.00 160.00 226.00" xmlns="http://www.w3.org/2000/svg" xmlns:xlink="http://www.w3.org/1999/xlink">
<g id="graph0" class="graph" transform="scale(1 1) rotate(0) translate(4 222)">
<title>Feel::RemoteData::ItemInfo</title>
<polygon fill="white" stroke="transparent" points="-4,4 -4,-222 156,-222 156,4 -4,4"/>
<!-- Node1 -->
<g id="node1" class="node">
<title>Node1</title>
<g id="a_node1"><a xlink:title=" ">
<polygon fill="#bfbfbf" stroke="black" points="0,-0.5 0,-112.5 152,-112.5 152,-0.5 0,-0.5"/>
<text text-anchor="middle" x="76" y="-100.5" font-family="Helvetica,sans-Serif" font-size="10.00">Feel::RemoteData::ItemInfo</text>
<polyline fill="none" stroke="black" points="0,-93.5 152,-93.5 "/>
<text text-anchor="middle" x="76" y="-81.5" font-family="Helvetica,sans-Serif" font-size="10.00"> </text>
<polyline fill="none" stroke="black" points="0,-74.5 152,-74.5 "/>
<text text-anchor="start" x="8" y="-62.5" font-family="Helvetica,sans-Serif" font-size="10.00">+ add()</text>
<text text-anchor="start" x="8" y="-51.5" font-family="Helvetica,sans-Serif" font-size="10.00">+ id()</text>
<text text-anchor="start" x="8" y="-40.5" font-family="Helvetica,sans-Serif" font-size="10.00">+ ItemInfo()</text>
<text text-anchor="start" x="8" y="-29.5" font-family="Helvetica,sans-Serif" font-size="10.00">+ ItemInfo()</text>
<text text-anchor="start" x="8" y="-18.5" font-family="Helvetica,sans-Serif" font-size="10.00">+ ItemInfo()</text>
<text text-anchor="start" x="8" y="-7.5" font-family="Helvetica,sans-Serif" font-size="10.00">and 5 more...</text>
</a>
</g>
</g>
<!-- Node2 -->
<g id="node2" class="node">
<title>Node2</title>
<g id="a_node2"><a xlink:title=" ">
<polygon fill="white" stroke="#bfbfbf" points="10,-149.5 10,-217.5 142,-217.5 142,-149.5 10,-149.5"/>
<text text-anchor="start" x="18" y="-205.5" font-family="Helvetica,sans-Serif" font-size="10.00">std::tuple&lt; std::string,</text>
<text text-anchor="middle" x="76" y="-194.5" font-family="Helvetica,sans-Serif" font-size="10.00"> std::string, size_type &gt;</text>
<polyline fill="none" stroke="#bfbfbf" points="10,-187.5 142,-187.5 "/>
<text text-anchor="middle" x="76" y="-175.5" font-family="Helvetica,sans-Serif" font-size="10.00"> </text>
<polyline fill="none" stroke="#bfbfbf" points="10,-168.5 142,-168.5 "/>
<text text-anchor="middle" x="76" y="-156.5" font-family="Helvetica,sans-Serif" font-size="10.00"> </text>
</a>
</g>
</g>
<!-- Node2&#45;&gt;Node1 -->
<g id="edge1" class="edge">
<title>Node2&#45;&gt;Node1</title>
<path fill="none" stroke="midnightblue" d="M76,-139.18C76,-130.6 76,-121.49 76,-112.59"/>
<polygon fill="none" stroke="midnightblue" points="72.5,-139.33 76,-149.33 79.5,-139.33 72.5,-139.33"/>
</g>
</g>
</svg>
