<?xml version="1.0" encoding="UTF-8" standalone="no"?>
<!DOCTYPE svg PUBLIC "-//W3C//DTD SVG 1.1//EN"
 "http://www.w3.org/Graphics/SVG/1.1/DTD/svg11.dtd">
<!-- Generated by graphviz version 2.43.0 (0)
 -->
<!-- Title: Feel::is_square&lt; T &gt; Pages: 1 -->
<svg width="126pt" height="160pt"
 viewBox="0.00 0.00 126.00 160.00" xmlns="http://www.w3.org/2000/svg" xmlns:xlink="http://www.w3.org/1999/xlink">
<g id="graph0" class="graph" transform="scale(1 1) rotate(0) translate(4 156)">
<title>Feel::is_square&lt; T &gt;</title>
<polygon fill="white" stroke="transparent" points="-4,4 -4,-156 122,-156 122,4 -4,4"/>
<!-- Node1 -->
<g id="node1" class="node">
<title>Node1</title>
<g id="a_node1"><a xlink:title=" ">
<polygon fill="#bfbfbf" stroke="black" points="0,-0.5 0,-57.5 118,-57.5 118,-0.5 0,-0.5"/>
<text text-anchor="middle" x="59" y="-45.5" font-family="Helvetica,sans-Serif" font-size="10.00">Feel::is_square&lt; T &gt;</text>
<polyline fill="none" stroke="black" points="0,-38.5 118,-38.5 "/>
<text text-anchor="middle" x="59" y="-26.5" font-family="Helvetica,sans-Serif" font-size="10.00"> </text>
<polyline fill="none" stroke="black" points="0,-19.5 118,-19.5 "/>
<text text-anchor="middle" x="59" y="-7.5" font-family="Helvetica,sans-Serif" font-size="10.00"> </text>
</a>
</g>
</g>
<!-- Node2 -->
<g id="node2" class="node">
<title>Node2</title>
<g id="a_node2"><a xlink:href="classboost_1_1mpl_1_1and__.html" target="_top" xlink:title=" ">
<polygon fill="white" stroke="black" points="39,-94.5 39,-151.5 79,-151.5 79,-94.5 39,-94.5"/>
<text text-anchor="middle" x="59" y="-139.5" font-family="Helvetica,sans-Serif" font-size="10.00">and_</text>
<polyline fill="none" stroke="black" points="39,-132.5 79,-132.5 "/>
<text text-anchor="middle" x="59" y="-120.5" font-family="Helvetica,sans-Serif" font-size="10.00"> </text>
<polyline fill="none" stroke="black" points="39,-113.5 79,-113.5 "/>
<text text-anchor="middle" x="59" y="-101.5" font-family="Helvetica,sans-Serif" font-size="10.00"> </text>
</a>
</g>
</g>
<!-- Node2&#45;&gt;Node1 -->
<g id="edge1" class="edge">
<title>Node2&#45;&gt;Node1</title>
<path fill="none" stroke="midnightblue" d="M59,-84.21C59,-75.29 59,-65.95 59,-57.58"/>
<polygon fill="none" stroke="midnightblue" points="55.5,-84.4 59,-94.4 62.5,-84.4 55.5,-84.4"/>
</g>
</g>
</svg>
