<?xml version="1.0" encoding="UTF-8" standalone="no"?>
<!DOCTYPE svg PUBLIC "-//W3C//DTD SVG 1.1//EN"
 "http://www.w3.org/Graphics/SVG/1.1/DTD/svg11.dtd">
<!-- Generated by graphviz version 2.43.0 (0)
 -->
<!-- Title: Feel::CheckerExactFailed Pages: 1 -->
<svg width="145pt" height="287pt"
 viewBox="0.00 0.00 145.00 287.00" xmlns="http://www.w3.org/2000/svg" xmlns:xlink="http://www.w3.org/1999/xlink">
<g id="graph0" class="graph" transform="scale(1 1) rotate(0) translate(4 283)">
<title>Feel::CheckerExactFailed</title>
<polygon fill="white" stroke="transparent" points="-4,4 -4,-283 141,-283 141,4 -4,4"/>
<!-- Node1 -->
<g id="node1" class="node">
<title>Node1</title>
<g id="a_node1"><a xlink:title=" ">
<polygon fill="#bfbfbf" stroke="black" points="0,-0.5 0,-90.5 137,-90.5 137,-0.5 0,-0.5"/>
<text text-anchor="middle" x="68.5" y="-78.5" font-family="Helvetica,sans-Serif" font-size="10.00">Feel::CheckerExactFailed</text>
<polyline fill="none" stroke="black" points="0,-71.5 137,-71.5 "/>
<text text-anchor="middle" x="68.5" y="-59.5" font-family="Helvetica,sans-Serif" font-size="10.00"> </text>
<polyline fill="none" stroke="black" points="0,-52.5 137,-52.5 "/>
<text text-anchor="start" x="8" y="-40.5" font-family="Helvetica,sans-Serif" font-size="10.00">+ CheckerExactFailed()</text>
<text text-anchor="start" x="8" y="-29.5" font-family="Helvetica,sans-Serif" font-size="10.00">+ CheckerExactFailed()</text>
<text text-anchor="start" x="8" y="-18.5" font-family="Helvetica,sans-Serif" font-size="10.00">+ computedError()</text>
<text text-anchor="start" x="8" y="-7.5" font-family="Helvetica,sans-Serif" font-size="10.00">+ tolerance()</text>
</a>
</g>
</g>
<!-- Node2 -->
<g id="node2" class="node">
<title>Node2</title>
<g id="a_node2"><a xlink:title="STL class.">
<polygon fill="white" stroke="#bfbfbf" points="24,-127.5 24,-184.5 113,-184.5 113,-127.5 24,-127.5"/>
<text text-anchor="middle" x="68.5" y="-172.5" font-family="Helvetica,sans-Serif" font-size="10.00">std::logic_error</text>
<polyline fill="none" stroke="#bfbfbf" points="24,-165.5 113,-165.5 "/>
<text text-anchor="middle" x="68.5" y="-153.5" font-family="Helvetica,sans-Serif" font-size="10.00"> </text>
<polyline fill="none" stroke="#bfbfbf" points="24,-146.5 113,-146.5 "/>
<text text-anchor="middle" x="68.5" y="-134.5" font-family="Helvetica,sans-Serif" font-size="10.00"> </text>
</a>
</g>
</g>
<!-- Node2&#45;&gt;Node1 -->
<g id="edge1" class="edge">
<title>Node2&#45;&gt;Node1</title>
<path fill="none" stroke="midnightblue" d="M68.5,-117.21C68.5,-108.61 68.5,-99.39 68.5,-90.55"/>
<polygon fill="none" stroke="midnightblue" points="65,-117.34 68.5,-127.34 72,-117.34 65,-117.34"/>
</g>
<!-- Node3 -->
<g id="node3" class="node">
<title>Node3</title>
<g id="a_node3"><a xlink:title="STL class.">
<polygon fill="white" stroke="#bfbfbf" points="25.5,-221.5 25.5,-278.5 111.5,-278.5 111.5,-221.5 25.5,-221.5"/>
<text text-anchor="middle" x="68.5" y="-266.5" font-family="Helvetica,sans-Serif" font-size="10.00">std::exception</text>
<polyline fill="none" stroke="#bfbfbf" points="25.5,-259.5 111.5,-259.5 "/>
<text text-anchor="middle" x="68.5" y="-247.5" font-family="Helvetica,sans-Serif" font-size="10.00"> </text>
<polyline fill="none" stroke="#bfbfbf" points="25.5,-240.5 111.5,-240.5 "/>
<text text-anchor="middle" x="68.5" y="-228.5" font-family="Helvetica,sans-Serif" font-size="10.00"> </text>
</a>
</g>
</g>
<!-- Node3&#45;&gt;Node2 -->
<g id="edge2" class="edge">
<title>Node3&#45;&gt;Node2</title>
<path fill="none" stroke="midnightblue" d="M68.5,-211.21C68.5,-202.29 68.5,-192.95 68.5,-184.58"/>
<polygon fill="none" stroke="midnightblue" points="65,-211.4 68.5,-221.4 72,-211.4 65,-211.4"/>
</g>
</g>
</svg>
