<?xml version="1.0" encoding="UTF-8" standalone="no"?>
<!DOCTYPE svg PUBLIC "-//W3C//DTD SVG 1.1//EN"
 "http://www.w3.org/Graphics/SVG/1.1/DTD/svg11.dtd">
<!-- Generated by graphviz version 2.43.0 (0)
 -->
<!-- Title: Feel::PeriodicEntity Pages: 1 -->
<svg width="225pt" height="287pt"
 viewBox="0.00 0.00 225.00 287.00" xmlns="http://www.w3.org/2000/svg" xmlns:xlink="http://www.w3.org/1999/xlink">
<g id="graph0" class="graph" transform="scale(1 1) rotate(0) translate(4 283)">
<title>Feel::PeriodicEntity</title>
<polygon fill="white" stroke="transparent" points="-4,4 -4,-283 221,-283 221,4 -4,4"/>
<!-- Node1 -->
<g id="node1" class="node">
<title>Node1</title>
<g id="a_node1"><a xlink:title=" ">
<polygon fill="#bfbfbf" stroke="black" points="0,-0.5 0,-57.5 110,-57.5 110,-0.5 0,-0.5"/>
<text text-anchor="middle" x="55" y="-45.5" font-family="Helvetica,sans-Serif" font-size="10.00">Feel::PeriodicEntity</text>
<polyline fill="none" stroke="black" points="0,-38.5 110,-38.5 "/>
<text text-anchor="middle" x="55" y="-26.5" font-family="Helvetica,sans-Serif" font-size="10.00"> </text>
<polyline fill="none" stroke="black" points="0,-19.5 110,-19.5 "/>
<text text-anchor="start" x="8" y="-7.5" font-family="Helvetica,sans-Serif" font-size="10.00">+ PeriodicEntity()</text>
</a>
</g>
</g>
<!-- Node2 -->
<g id="node2" class="node">
<title>Node2</title>
<g id="a_node2"><a xlink:title=" ">
<polygon fill="white" stroke="#bfbfbf" points="79.5,-105.5 79.5,-162.5 192.5,-162.5 192.5,-105.5 79.5,-105.5"/>
<text text-anchor="middle" x="136" y="-150.5" font-family="Helvetica,sans-Serif" font-size="10.00">std::map&lt; int, int &gt;</text>
<polyline fill="none" stroke="#bfbfbf" points="79.5,-143.5 192.5,-143.5 "/>
<text text-anchor="middle" x="136" y="-131.5" font-family="Helvetica,sans-Serif" font-size="10.00"> </text>
<polyline fill="none" stroke="#bfbfbf" points="79.5,-124.5 192.5,-124.5 "/>
<text text-anchor="middle" x="136" y="-112.5" font-family="Helvetica,sans-Serif" font-size="10.00"> </text>
</a>
</g>
</g>
<!-- Node2&#45;&gt;Node1 -->
<g id="edge1" class="edge">
<title>Node2&#45;&gt;Node1</title>
<path fill="none" stroke="#404040" d="M114.29,-105.4C105.12,-93.74 94.3,-79.98 84.43,-67.42"/>
<polygon fill="none" stroke="#404040" points="84.18,-67.11 77.33,-64.87 76.77,-57.68 83.62,-59.92 84.18,-67.11"/>
<text text-anchor="middle" x="157" y="-79" font-family="Helvetica,sans-Serif" font-size="10.00"> +correspondingVertices</text>
</g>
<!-- Node3 -->
<g id="node3" class="node">
<title>Node3</title>
<g id="a_node3"><a xlink:href="classint.html" target="_top" xlink:title=" ">
<polygon fill="white" stroke="black" points="19.5,-221.5 19.5,-278.5 48.5,-278.5 48.5,-221.5 19.5,-221.5"/>
<text text-anchor="middle" x="34" y="-266.5" font-family="Helvetica,sans-Serif" font-size="10.00">int</text>
<polyline fill="none" stroke="black" points="19.5,-259.5 48.5,-259.5 "/>
<text text-anchor="middle" x="34" y="-247.5" font-family="Helvetica,sans-Serif" font-size="10.00"> </text>
<polyline fill="none" stroke="black" points="19.5,-240.5 48.5,-240.5 "/>
<text text-anchor="middle" x="34" y="-228.5" font-family="Helvetica,sans-Serif" font-size="10.00"> </text>
</a>
</g>
</g>
<!-- Node3&#45;&gt;Node1 -->
<g id="edge3" class="edge">
<title>Node3&#45;&gt;Node1</title>
<path fill="none" stroke="#404040" d="M29.39,-221.43C25.31,-192.28 21.01,-145.05 28,-105 30.1,-92.96 33.97,-80.3 38.13,-68.88"/>
<polygon fill="none" stroke="#404040" points="38.2,-68.71 36.62,-61.67 42.51,-57.51 44.09,-64.55 38.2,-68.71"/>
<text text-anchor="middle" x="49.5" y="-142.5" font-family="Helvetica,sans-Serif" font-size="10.00"> +slave</text>
<text text-anchor="middle" x="49.5" y="-131.5" font-family="Helvetica,sans-Serif" font-size="10.00">+dim</text>
<text text-anchor="middle" x="49.5" y="-120.5" font-family="Helvetica,sans-Serif" font-size="10.00">+master</text>
</g>
<!-- Node3&#45;&gt;Node2 -->
<g id="edge2" class="edge">
<title>Node3&#45;&gt;Node2</title>
<path fill="none" stroke="#404040" d="M48.61,-232.67C62.75,-216.86 84.68,-192.36 103.03,-171.85"/>
<polygon fill="none" stroke="#404040" points="103.17,-171.69 104.19,-164.56 111.17,-162.75 110.15,-169.89 103.17,-171.69"/>
<text text-anchor="middle" x="123" y="-195" font-family="Helvetica,sans-Serif" font-size="10.00"> +elements</text>
<text text-anchor="middle" x="123" y="-184" font-family="Helvetica,sans-Serif" font-size="10.00">+keys</text>
</g>
</g>
</svg>
