<?xml version="1.0" encoding="UTF-8" standalone="no"?>
<!DOCTYPE svg PUBLIC "-//W3C//DTD SVG 1.1//EN"
 "http://www.w3.org/Graphics/SVG/1.1/DTD/svg11.dtd">
<!-- Generated by graphviz version 2.43.0 (0)
 -->
<!-- Title: Feel::detail::gmcDefStencil&lt; EltType &gt; Pages: 1 -->
<svg width="156pt" height="182pt"
 viewBox="0.00 0.00 156.00 182.00" xmlns="http://www.w3.org/2000/svg" xmlns:xlink="http://www.w3.org/1999/xlink">
<g id="graph0" class="graph" transform="scale(1 1) rotate(0) translate(4 178)">
<title>Feel::detail::gmcDefStencil&lt; EltType &gt;</title>
<polygon fill="white" stroke="transparent" points="-4,4 -4,-178 152,-178 152,4 -4,4"/>
<!-- Node1 -->
<g id="node1" class="node">
<title>Node1</title>
<g id="a_node1"><a xlink:title=" ">
<polygon fill="#bfbfbf" stroke="black" points="0,-0.5 0,-68.5 148,-68.5 148,-0.5 0,-0.5"/>
<text text-anchor="start" x="8" y="-56.5" font-family="Helvetica,sans-Serif" font-size="10.00">Feel::detail::gmcDefStencil</text>
<text text-anchor="middle" x="74" y="-45.5" font-family="Helvetica,sans-Serif" font-size="10.00">&lt; EltType &gt;</text>
<polyline fill="none" stroke="black" points="0,-38.5 148,-38.5 "/>
<text text-anchor="middle" x="74" y="-26.5" font-family="Helvetica,sans-Serif" font-size="10.00"> </text>
<polyline fill="none" stroke="black" points="0,-19.5 148,-19.5 "/>
<text text-anchor="middle" x="74" y="-7.5" font-family="Helvetica,sans-Serif" font-size="10.00"> </text>
</a>
</g>
</g>
<!-- Node2 -->
<g id="node2" class="node">
<title>Node2</title>
<g id="a_node2"><a xlink:href="classsize__t.html" target="_top" xlink:title=" ">
<polygon fill="white" stroke="#bfbfbf" points="51.5,-116.5 51.5,-173.5 96.5,-173.5 96.5,-116.5 51.5,-116.5"/>
<text text-anchor="middle" x="74" y="-161.5" font-family="Helvetica,sans-Serif" font-size="10.00">size_t</text>
<polyline fill="none" stroke="#bfbfbf" points="51.5,-154.5 96.5,-154.5 "/>
<text text-anchor="middle" x="74" y="-142.5" font-family="Helvetica,sans-Serif" font-size="10.00"> </text>
<polyline fill="none" stroke="#bfbfbf" points="51.5,-135.5 96.5,-135.5 "/>
<text text-anchor="middle" x="74" y="-123.5" font-family="Helvetica,sans-Serif" font-size="10.00"> </text>
</a>
</g>
</g>
<!-- Node2&#45;&gt;Node1 -->
<g id="edge1" class="edge">
<title>Node2&#45;&gt;Node1</title>
<path fill="none" stroke="#404040" d="M74,-116.34C74,-105.53 74,-92.85 74,-80.77"/>
<polygon fill="none" stroke="#404040" points="74,-80.52 70,-74.52 74,-68.52 78,-74.52 74,-80.52"/>
<text text-anchor="middle" x="96" y="-90" font-family="Helvetica,sans-Serif" font-size="10.00"> +gmc_v</text>
</g>
</g>
</svg>
