<?xml version="1.0" encoding="UTF-8" standalone="no"?>
<!DOCTYPE svg PUBLIC "-//W3C//DTD SVG 1.1//EN"
 "http://www.w3.org/Graphics/SVG/1.1/DTD/svg11.dtd">
<!-- Generated by graphviz version 2.43.0 (0)
 -->
<!-- Title: Feel::Mesh&lt; GeoShape, T, Tag, IndexT &gt;::Inverse Pages: 1 -->
<svg width="219pt" height="292pt"
 viewBox="0.00 0.00 219.00 292.00" xmlns="http://www.w3.org/2000/svg" xmlns:xlink="http://www.w3.org/1999/xlink">
<g id="graph0" class="graph" transform="scale(1 1) rotate(0) translate(4 288)">
<title>Feel::Mesh&lt; GeoShape, T, Tag, IndexT &gt;::Inverse</title>
<polygon fill="white" stroke="transparent" points="-4,4 -4,-288 215,-288 215,4 -4,4"/>
<!-- Node1 -->
<g id="node1" class="node">
<title>Node1</title>
<g id="a_node1"><a xlink:title=" ">
<polygon fill="#bfbfbf" stroke="black" points="35.5,-0.5 35.5,-123.5 175.5,-123.5 175.5,-0.5 35.5,-0.5"/>
<text text-anchor="start" x="43.5" y="-111.5" font-family="Helvetica,sans-Serif" font-size="10.00">Feel::Mesh&lt; GeoShape,</text>
<text text-anchor="middle" x="105.5" y="-100.5" font-family="Helvetica,sans-Serif" font-size="10.00"> T, Tag, IndexT &gt;::Inverse</text>
<polyline fill="none" stroke="black" points="35.5,-93.5 175.5,-93.5 "/>
<text text-anchor="middle" x="105.5" y="-81.5" font-family="Helvetica,sans-Serif" font-size="10.00"> </text>
<polyline fill="none" stroke="black" points="35.5,-74.5 175.5,-74.5 "/>
<text text-anchor="start" x="43.5" y="-62.5" font-family="Helvetica,sans-Serif" font-size="10.00">+ distribute()</text>
<text text-anchor="start" x="43.5" y="-51.5" font-family="Helvetica,sans-Serif" font-size="10.00">+ Inverse()</text>
<text text-anchor="start" x="43.5" y="-40.5" font-family="Helvetica,sans-Serif" font-size="10.00">+ nPointsInConvex()</text>
<text text-anchor="start" x="43.5" y="-29.5" font-family="Helvetica,sans-Serif" font-size="10.00">+ pointsInConvex()</text>
<text text-anchor="start" x="43.5" y="-18.5" font-family="Helvetica,sans-Serif" font-size="10.00">+ referenceCoords()</text>
<text text-anchor="start" x="43.5" y="-7.5" font-family="Helvetica,sans-Serif" font-size="10.00">+ ~Inverse()</text>
</a>
</g>
</g>
<!-- Node2 -->
<g id="node2" class="node">
<title>Node2</title>
<g id="a_node2"><a xlink:title=" ">
<polygon fill="white" stroke="#bfbfbf" points="0,-160.5 0,-283.5 211,-283.5 211,-160.5 0,-160.5"/>
<text text-anchor="start" x="8" y="-271.5" font-family="Helvetica,sans-Serif" font-size="10.00">boost::mpl::if_::type</text>
<text text-anchor="start" x="8" y="-260.5" font-family="Helvetica,sans-Serif" font-size="10.00">::type&lt; mpl::bool_&lt; GeoShape</text>
<text text-anchor="start" x="8" y="-249.5" font-family="Helvetica,sans-Serif" font-size="10.00">::is_simplex &gt;, mpl::identity</text>
<text text-anchor="start" x="8" y="-238.5" font-family="Helvetica,sans-Serif" font-size="10.00">&lt; GeoMapInverse&lt; nDim, nOrder,</text>
<text text-anchor="start" x="8" y="-227.5" font-family="Helvetica,sans-Serif" font-size="10.00"> nRealDim, T, Simplex &gt; &gt;, mpl</text>
<text text-anchor="start" x="8" y="-216.5" font-family="Helvetica,sans-Serif" font-size="10.00">::identity&lt; GeoMapInverse&lt; nDim,</text>
<text text-anchor="middle" x="105.5" y="-205.5" font-family="Helvetica,sans-Serif" font-size="10.00"> nOrder, nRealDim, T, Hypercube &gt; &gt; &gt;</text>
<polyline fill="none" stroke="#bfbfbf" points="0,-198.5 211,-198.5 "/>
<text text-anchor="middle" x="105.5" y="-186.5" font-family="Helvetica,sans-Serif" font-size="10.00"> </text>
<polyline fill="none" stroke="#bfbfbf" points="0,-179.5 211,-179.5 "/>
<text text-anchor="middle" x="105.5" y="-167.5" font-family="Helvetica,sans-Serif" font-size="10.00"> </text>
</a>
</g>
</g>
<!-- Node2&#45;&gt;Node1 -->
<g id="edge1" class="edge">
<title>Node2&#45;&gt;Node1</title>
<path fill="none" stroke="midnightblue" d="M105.5,-150.12C105.5,-141.31 105.5,-132.37 105.5,-123.73"/>
<polygon fill="none" stroke="midnightblue" points="102,-150.36 105.5,-160.36 109,-150.36 102,-150.36"/>
</g>
</g>
</svg>
