<?xml version="1.0" encoding="UTF-8" standalone="no"?>
<!DOCTYPE svg PUBLIC "-//W3C//DTD SVG 1.1//EN"
 "http://www.w3.org/Graphics/SVG/1.1/DTD/svg11.dtd">
<!-- Generated by graphviz version 2.43.0 (0)
 -->
<!-- Title: Feel::Order&lt; PN, GN &gt; Pages: 1 -->
<svg width="271pt" height="193pt"
 viewBox="0.00 0.00 271.00 193.00" xmlns="http://www.w3.org/2000/svg" xmlns:xlink="http://www.w3.org/1999/xlink">
<g id="graph0" class="graph" transform="scale(1 1) rotate(0) translate(4 189)">
<title>Feel::Order&lt; PN, GN &gt;</title>
<polygon fill="white" stroke="transparent" points="-4,4 -4,-189 267,-189 267,4 -4,4"/>
<!-- Node1 -->
<g id="node1" class="node">
<title>Node1</title>
<g id="a_node1"><a xlink:title=" ">
<polygon fill="#bfbfbf" stroke="black" points="60.5,-0.5 60.5,-57.5 187.5,-57.5 187.5,-0.5 60.5,-0.5"/>
<text text-anchor="middle" x="124" y="-45.5" font-family="Helvetica,sans-Serif" font-size="10.00">Feel::Order&lt; PN, GN &gt;</text>
<polyline fill="none" stroke="black" points="60.5,-38.5 187.5,-38.5 "/>
<text text-anchor="middle" x="124" y="-26.5" font-family="Helvetica,sans-Serif" font-size="10.00"> </text>
<polyline fill="none" stroke="black" points="60.5,-19.5 187.5,-19.5 "/>
<text text-anchor="middle" x="124" y="-7.5" font-family="Helvetica,sans-Serif" font-size="10.00"> </text>
</a>
</g>
</g>
<!-- Node2 -->
<g id="node2" class="node">
<title>Node2</title>
<g id="a_node2"><a xlink:title=" ">
<polygon fill="white" stroke="#bfbfbf" points="0,-127.5 0,-184.5 134,-184.5 134,-127.5 0,-127.5"/>
<text text-anchor="middle" x="67" y="-172.5" font-family="Helvetica,sans-Serif" font-size="10.00">static const uint16_type</text>
<polyline fill="none" stroke="#bfbfbf" points="0,-165.5 134,-165.5 "/>
<text text-anchor="middle" x="67" y="-153.5" font-family="Helvetica,sans-Serif" font-size="10.00"> </text>
<polyline fill="none" stroke="#bfbfbf" points="0,-146.5 134,-146.5 "/>
<text text-anchor="middle" x="67" y="-134.5" font-family="Helvetica,sans-Serif" font-size="10.00"> </text>
</a>
</g>
</g>
<!-- Node2&#45;&gt;Node1 -->
<g id="edge1" class="edge">
<title>Node2&#45;&gt;Node1</title>
<path fill="none" stroke="#404040" d="M61.8,-127.37C60.15,-111.58 60.4,-91.83 68,-76 69.53,-72.81 71.4,-69.77 73.52,-66.87"/>
<polygon fill="none" stroke="#404040" points="73.67,-66.7 74.58,-59.55 81.54,-57.64 80.62,-64.79 73.67,-66.7"/>
<text text-anchor="middle" x="113.5" y="-95.5" font-family="Helvetica,sans-Serif" font-size="10.00"> +GeometricOrder</text>
<text text-anchor="middle" x="113.5" y="-84.5" font-family="Helvetica,sans-Serif" font-size="10.00">+PolynomialOrder</text>
</g>
<!-- Node3 -->
<g id="node3" class="node">
<title>Node3</title>
<g id="a_node3"><a xlink:href="classbool.html" target="_top" xlink:title=" ">
<polygon fill="white" stroke="#bfbfbf" points="162,-127.5 162,-184.5 200,-184.5 200,-127.5 162,-127.5"/>
<text text-anchor="middle" x="181" y="-172.5" font-family="Helvetica,sans-Serif" font-size="10.00">bool</text>
<polyline fill="none" stroke="#bfbfbf" points="162,-165.5 200,-165.5 "/>
<text text-anchor="middle" x="181" y="-153.5" font-family="Helvetica,sans-Serif" font-size="10.00"> </text>
<polyline fill="none" stroke="#bfbfbf" points="162,-146.5 200,-146.5 "/>
<text text-anchor="middle" x="181" y="-134.5" font-family="Helvetica,sans-Serif" font-size="10.00"> </text>
</a>
</g>
</g>
<!-- Node3&#45;&gt;Node1 -->
<g id="edge2" class="edge">
<title>Node3&#45;&gt;Node1</title>
<path fill="none" stroke="#404040" d="M176,-127.37C172.52,-111.76 167.04,-92.19 159,-76 157.63,-73.25 156.09,-70.5 154.44,-67.78"/>
<polygon fill="none" stroke="#404040" points="154.3,-67.58 147.64,-64.81 147.63,-57.6 154.29,-60.37 154.3,-67.58"/>
<text text-anchor="middle" x="216.5" y="-101" font-family="Helvetica,sans-Serif" font-size="10.00"> +is_isoparametric</text>
<text text-anchor="middle" x="216.5" y="-90" font-family="Helvetica,sans-Serif" font-size="10.00">+is_subparametric</text>
<text text-anchor="middle" x="216.5" y="-79" font-family="Helvetica,sans-Serif" font-size="10.00">+is_surparametric</text>
</g>
</g>
</svg>
