<?xml version="1.0" encoding="UTF-8" standalone="no"?>
<!DOCTYPE svg PUBLIC "-//W3C//DTD SVG 1.1//EN"
 "http://www.w3.org/Graphics/SVG/1.1/DTD/svg11.dtd">
<!-- Generated by graphviz version 2.43.0 (0)
 -->
<!-- Title: Feel::detail::DomainEltIdFromImageEltId&lt; DomainSpaceType, ImageSpaceType &gt; Pages: 1 -->
<svg width="349pt" height="226pt"
 viewBox="0.00 0.00 348.50 226.00" xmlns="http://www.w3.org/2000/svg" xmlns:xlink="http://www.w3.org/1999/xlink">
<g id="graph0" class="graph" transform="scale(1 1) rotate(0) translate(4 222)">
<title>Feel::detail::DomainEltIdFromImageEltId&lt; DomainSpaceType, ImageSpaceType &gt;</title>
<polygon fill="white" stroke="transparent" points="-4,4 -4,-222 344.5,-222 344.5,4 -4,4"/>
<!-- Node1 -->
<g id="node1" class="node">
<title>Node1</title>
<g id="a_node1"><a xlink:title=" ">
<polygon fill="#bfbfbf" stroke="black" points="33.5,-0.5 33.5,-101.5 231.5,-101.5 231.5,-0.5 33.5,-0.5"/>
<text text-anchor="start" x="41.5" y="-89.5" font-family="Helvetica,sans-Serif" font-size="10.00">Feel::detail::DomainEltId</text>
<text text-anchor="start" x="41.5" y="-78.5" font-family="Helvetica,sans-Serif" font-size="10.00">FromImageEltId&lt; DomainSpaceType,</text>
<text text-anchor="middle" x="132.5" y="-67.5" font-family="Helvetica,sans-Serif" font-size="10.00"> ImageSpaceType &gt;</text>
<polyline fill="none" stroke="black" points="33.5,-60.5 231.5,-60.5 "/>
<text text-anchor="middle" x="132.5" y="-48.5" font-family="Helvetica,sans-Serif" font-size="10.00"> </text>
<polyline fill="none" stroke="black" points="33.5,-41.5 231.5,-41.5 "/>
<text text-anchor="start" x="41.5" y="-29.5" font-family="Helvetica,sans-Serif" font-size="10.00">+ apply()</text>
<text text-anchor="start" x="41.5" y="-18.5" font-family="Helvetica,sans-Serif" font-size="10.00">+ apply()</text>
<text text-anchor="start" x="41.5" y="-7.5" font-family="Helvetica,sans-Serif" font-size="10.00">+ DomainEltIdFromImageEltId()</text>
</a>
</g>
</g>
<!-- Node2 -->
<g id="node2" class="node">
<title>Node2</title>
<g id="a_node2"><a xlink:title=" ">
<polygon fill="white" stroke="#bfbfbf" points="0,-160.5 0,-217.5 155,-217.5 155,-160.5 0,-160.5"/>
<text text-anchor="middle" x="77.5" y="-205.5" font-family="Helvetica,sans-Serif" font-size="10.00">static constexpr uint16_type</text>
<polyline fill="none" stroke="#bfbfbf" points="0,-198.5 155,-198.5 "/>
<text text-anchor="middle" x="77.5" y="-186.5" font-family="Helvetica,sans-Serif" font-size="10.00"> </text>
<polyline fill="none" stroke="#bfbfbf" points="0,-179.5 155,-179.5 "/>
<text text-anchor="middle" x="77.5" y="-167.5" font-family="Helvetica,sans-Serif" font-size="10.00"> </text>
</a>
</g>
</g>
<!-- Node2&#45;&gt;Node1 -->
<g id="edge1" class="edge">
<title>Node2&#45;&gt;Node1</title>
<path fill="none" stroke="#404040" d="M79.93,-160.21C81.65,-147.62 84.57,-132.75 89.5,-120 90.46,-117.51 91.52,-115.02 92.66,-112.53"/>
<polygon fill="none" stroke="#404040" points="92.69,-112.46 91.79,-105.3 98.05,-101.72 98.95,-108.88 92.69,-112.46"/>
<text text-anchor="middle" x="127.5" y="-134" font-family="Helvetica,sans-Serif" font-size="10.00"> +nDimDomain</text>
<text text-anchor="middle" x="127.5" y="-123" font-family="Helvetica,sans-Serif" font-size="10.00">+nDimImage</text>
</g>
<!-- Node3 -->
<g id="node3" class="node">
<title>Node3</title>
<g id="a_node3"><a xlink:href="classint.html" target="_top" xlink:title=" ">
<polygon fill="white" stroke="#bfbfbf" points="173,-160.5 173,-217.5 202,-217.5 202,-160.5 173,-160.5"/>
<text text-anchor="middle" x="187.5" y="-205.5" font-family="Helvetica,sans-Serif" font-size="10.00">int</text>
<polyline fill="none" stroke="#bfbfbf" points="173,-198.5 202,-198.5 "/>
<text text-anchor="middle" x="187.5" y="-186.5" font-family="Helvetica,sans-Serif" font-size="10.00"> </text>
<polyline fill="none" stroke="#bfbfbf" points="173,-179.5 202,-179.5 "/>
<text text-anchor="middle" x="187.5" y="-167.5" font-family="Helvetica,sans-Serif" font-size="10.00"> </text>
</a>
</g>
</g>
<!-- Node3&#45;&gt;Node1 -->
<g id="edge2" class="edge">
<title>Node3&#45;&gt;Node1</title>
<path fill="none" stroke="#404040" d="M179.47,-160.23C175.63,-147.78 170.73,-133.01 165.5,-120 164.56,-117.67 163.58,-115.31 162.57,-112.93"/>
<polygon fill="none" stroke="#404040" points="162.49,-112.75 156.4,-108.88 157.63,-101.78 163.72,-105.65 162.49,-112.75"/>
<text text-anchor="middle" x="256.5" y="-128.5" font-family="Helvetica,sans-Serif" font-size="10.00"> +nDimDiffBetweenDomainImage</text>
</g>
</g>
</svg>
