<?xml version="1.0" encoding="UTF-8" standalone="no"?>
<!DOCTYPE svg PUBLIC "-//W3C//DTD SVG 1.1//EN"
 "http://www.w3.org/Graphics/SVG/1.1/DTD/svg11.dtd">
<!-- Generated by graphviz version 2.43.0 (0)
 -->
<!-- Title: Feel::InterpolationConforming Pages: 1 -->
<svg width="430pt" height="624pt"
 viewBox="0.00 0.00 430.27 624.00" xmlns="http://www.w3.org/2000/svg" xmlns:xlink="http://www.w3.org/1999/xlink">
<g id="graph0" class="graph" transform="scale(1 1) rotate(0) translate(4 620)">
<title>Feel::InterpolationConforming</title>
<polygon fill="white" stroke="transparent" points="-4,4 -4,-620 426.27,-620 426.27,4 -4,4"/>
<!-- Node1 -->
<g id="node1" class="node">
<title>Node1</title>
<g id="a_node1"><a xlink:title=" ">
<polygon fill="#bfbfbf" stroke="black" points="191.27,-0.5 191.27,-112.5 353.27,-112.5 353.27,-0.5 191.27,-0.5"/>
<text text-anchor="middle" x="272.27" y="-100.5" font-family="Helvetica,sans-Serif" font-size="10.00">Feel::InterpolationConforming</text>
<polyline fill="none" stroke="black" points="191.27,-93.5 353.27,-93.5 "/>
<text text-anchor="middle" x="272.27" y="-81.5" font-family="Helvetica,sans-Serif" font-size="10.00"> </text>
<polyline fill="none" stroke="black" points="191.27,-74.5 353.27,-74.5 "/>
<text text-anchor="start" x="199.27" y="-62.5" font-family="Helvetica,sans-Serif" font-size="10.00">+ InterpolationConforming()</text>
<text text-anchor="start" x="199.27" y="-51.5" font-family="Helvetica,sans-Serif" font-size="10.00">+ InterpolationConforming()</text>
<text text-anchor="start" x="199.27" y="-40.5" font-family="Helvetica,sans-Serif" font-size="10.00">+ InterpolationConforming()</text>
<text text-anchor="start" x="199.27" y="-29.5" font-family="Helvetica,sans-Serif" font-size="10.00">+ InterpolationConforming()</text>
<text text-anchor="start" x="199.27" y="-18.5" font-family="Helvetica,sans-Serif" font-size="10.00">+ InterpolationConforming()</text>
<text text-anchor="start" x="199.27" y="-7.5" font-family="Helvetica,sans-Serif" font-size="10.00">+ operator=()</text>
</a>
</g>
</g>
<!-- Node2 -->
<g id="node2" class="node">
<title>Node2</title>
<g id="a_node2"><a xlink:href="classFeel_1_1InterpolationTypeBase.html" target="_top" xlink:title=" ">
<polygon fill="white" stroke="#bfbfbf" points="108.77,-160.5 108.77,-316.5 269.77,-316.5 269.77,-160.5 108.77,-160.5"/>
<text text-anchor="start" x="116.77" y="-304.5" font-family="Helvetica,sans-Serif" font-size="10.00">Feel::InterpolationTypeBase</text>
<text text-anchor="start" x="116.77" y="-293.5" font-family="Helvetica,sans-Serif" font-size="10.00">&lt; true, interpolation_operand</text>
<text text-anchor="middle" x="189.27" y="-282.5" font-family="Helvetica,sans-Serif" font-size="10.00">_type::ID &gt;</text>
<polyline fill="none" stroke="#bfbfbf" points="108.77,-275.5 269.77,-275.5 "/>
<text text-anchor="middle" x="189.27" y="-263.5" font-family="Helvetica,sans-Serif" font-size="10.00"> </text>
<polyline fill="none" stroke="#bfbfbf" points="108.77,-256.5 269.77,-256.5 "/>
<text text-anchor="start" x="116.77" y="-244.5" font-family="Helvetica,sans-Serif" font-size="10.00">+ InterpolationTypeBase()</text>
<text text-anchor="start" x="116.77" y="-233.5" font-family="Helvetica,sans-Serif" font-size="10.00">+ InterpolationTypeBase()</text>
<text text-anchor="start" x="116.77" y="-222.5" font-family="Helvetica,sans-Serif" font-size="10.00">+ InterpolationTypeBase()</text>
<text text-anchor="start" x="116.77" y="-211.5" font-family="Helvetica,sans-Serif" font-size="10.00">+ InterpolationTypeBase()</text>
<text text-anchor="start" x="116.77" y="-200.5" font-family="Helvetica,sans-Serif" font-size="10.00">+ operator=()</text>
<text text-anchor="start" x="116.77" y="-189.5" font-family="Helvetica,sans-Serif" font-size="10.00">+ operator=()</text>
<text text-anchor="start" x="116.77" y="-178.5" font-family="Helvetica,sans-Serif" font-size="10.00">+ operand()</text>
<text text-anchor="start" x="116.77" y="-167.5" font-family="Helvetica,sans-Serif" font-size="10.00">+ requiresDerivatives()</text>
</a>
</g>
</g>
<!-- Node2&#45;&gt;Node1 -->
<g id="edge1" class="edge">
<title>Node2&#45;&gt;Node1</title>
<path fill="none" stroke="midnightblue" d="M229.19,-150.94C235.19,-137.93 241.23,-124.82 246.82,-112.71"/>
<polygon fill="none" stroke="midnightblue" points="225.84,-149.83 224.83,-160.38 232.2,-152.77 225.84,-149.83"/>
</g>
<!-- Node3 -->
<g id="node3" class="node">
<title>Node3</title>
<g id="a_node3"><a xlink:href="classFeel_1_1InterpolationTypeBaseBase.html" target="_top" xlink:title=" ">
<polygon fill="white" stroke="#bfbfbf" points="105.27,-354.5 105.27,-499.5 273.27,-499.5 273.27,-354.5 105.27,-354.5"/>
<text text-anchor="start" x="113.27" y="-487.5" font-family="Helvetica,sans-Serif" font-size="10.00">Feel::InterpolationTypeBase</text>
<text text-anchor="middle" x="189.27" y="-476.5" font-family="Helvetica,sans-Serif" font-size="10.00">Base&lt; C, O &gt;</text>
<polyline fill="none" stroke="#bfbfbf" points="105.27,-469.5 273.27,-469.5 "/>
<text text-anchor="middle" x="189.27" y="-457.5" font-family="Helvetica,sans-Serif" font-size="10.00"> </text>
<polyline fill="none" stroke="#bfbfbf" points="105.27,-450.5 273.27,-450.5 "/>
<text text-anchor="start" x="113.27" y="-438.5" font-family="Helvetica,sans-Serif" font-size="10.00">+ componentsAreSamePoint()</text>
<text text-anchor="start" x="113.27" y="-427.5" font-family="Helvetica,sans-Serif" font-size="10.00">+ InterpolationTypeBaseBase()</text>
<text text-anchor="start" x="113.27" y="-416.5" font-family="Helvetica,sans-Serif" font-size="10.00">+ InterpolationTypeBaseBase()</text>
<text text-anchor="start" x="113.27" y="-405.5" font-family="Helvetica,sans-Serif" font-size="10.00">+ InterpolationTypeBaseBase()</text>
<text text-anchor="start" x="113.27" y="-394.5" font-family="Helvetica,sans-Serif" font-size="10.00">+ InterpolationTypeBaseBase()</text>
<text text-anchor="start" x="113.27" y="-383.5" font-family="Helvetica,sans-Serif" font-size="10.00">and 5 more...</text>
<text text-anchor="start" x="113.27" y="-372.5" font-family="Helvetica,sans-Serif" font-size="10.00">+ interpolationOperand()</text>
<text text-anchor="start" x="113.27" y="-361.5" font-family="Helvetica,sans-Serif" font-size="10.00">+ isConforming()</text>
</a>
</g>
</g>
<!-- Node3&#45;&gt;Node2 -->
<g id="edge2" class="edge">
<title>Node3&#45;&gt;Node2</title>
<path fill="none" stroke="midnightblue" d="M189.27,-344.21C189.27,-335.1 189.27,-325.83 189.27,-316.77"/>
<polygon fill="none" stroke="midnightblue" points="185.77,-344.43 189.27,-354.43 192.77,-344.43 185.77,-344.43"/>
</g>
<!-- Node4 -->
<g id="node4" class="node">
<title>Node4</title>
<g id="a_node4"><a xlink:href="classbool.html" target="_top" xlink:title=" ">
<polygon fill="white" stroke="#bfbfbf" points="31.27,-553 31.27,-610 69.27,-610 69.27,-553 31.27,-553"/>
<text text-anchor="middle" x="50.27" y="-598" font-family="Helvetica,sans-Serif" font-size="10.00">bool</text>
<polyline fill="none" stroke="#bfbfbf" points="31.27,-591 69.27,-591 "/>
<text text-anchor="middle" x="50.27" y="-579" font-family="Helvetica,sans-Serif" font-size="10.00"> </text>
<polyline fill="none" stroke="#bfbfbf" points="31.27,-572 69.27,-572 "/>
<text text-anchor="middle" x="50.27" y="-560" font-family="Helvetica,sans-Serif" font-size="10.00"> </text>
</a>
</g>
</g>
<!-- Node4&#45;&gt;Node2 -->
<g id="edge5" class="edge">
<title>Node4&#45;&gt;Node2</title>
<path fill="none" stroke="#404040" d="M35.63,-552.85C14.18,-508.23 -19.65,-418.8 15.27,-354 33.23,-320.68 65.59,-295.47 97.58,-277.3"/>
<polygon fill="none" stroke="#404040" points="97.85,-277.15 101.21,-270.77 108.39,-271.41 105.03,-277.79 97.85,-277.15"/>
<text text-anchor="middle" x="55.77" y="-424.5" font-family="Helvetica,sans-Serif" font-size="10.00"> +is_conforming</text>
</g>
<!-- Node4&#45;&gt;Node3 -->
<g id="edge3" class="edge">
<title>Node4&#45;&gt;Node3</title>
<path fill="none" stroke="#404040" d="M69.36,-554.02C77.87,-542.65 88.23,-529.39 98.27,-518 101.04,-514.86 103.89,-511.7 106.8,-508.54"/>
<polygon fill="none" stroke="#404040" points="106.94,-508.39 108.11,-501.27 115.13,-499.62 113.96,-506.73 106.94,-508.39"/>
<text text-anchor="middle" x="138.77" y="-521" font-family="Helvetica,sans-Serif" font-size="10.00"> +is_conforming</text>
</g>
<!-- Node5 -->
<g id="node5" class="node">
<title>Node5</title>
<g id="a_node5"><a xlink:title=" ">
<polygon fill="white" stroke="#bfbfbf" points="113.27,-547.5 113.27,-615.5 273.27,-615.5 273.27,-547.5 113.27,-547.5"/>
<text text-anchor="start" x="121.27" y="-603.5" font-family="Helvetica,sans-Serif" font-size="10.00">static constexpr interpolation</text>
<text text-anchor="middle" x="193.27" y="-592.5" font-family="Helvetica,sans-Serif" font-size="10.00">_operand_type</text>
<polyline fill="none" stroke="#bfbfbf" points="113.27,-585.5 273.27,-585.5 "/>
<text text-anchor="middle" x="193.27" y="-573.5" font-family="Helvetica,sans-Serif" font-size="10.00"> </text>
<polyline fill="none" stroke="#bfbfbf" points="113.27,-566.5 273.27,-566.5 "/>
<text text-anchor="middle" x="193.27" y="-554.5" font-family="Helvetica,sans-Serif" font-size="10.00"> </text>
</a>
</g>
</g>
<!-- Node5&#45;&gt;Node2 -->
<g id="edge6" class="edge">
<title>Node5&#45;&gt;Node2</title>
<path fill="none" stroke="#404040" d="M273.42,-555.98C284.87,-549.05 295.16,-540.23 302.27,-529 304.89,-524.87 302.57,-522.88 302.27,-518 297.82,-444.71 310.99,-421.58 282.27,-354 278.35,-344.77 273.45,-335.68 267.97,-326.91"/>
<polygon fill="none" stroke="#404040" points="267.88,-326.78 261.24,-323.98 261.28,-316.77 267.92,-319.57 267.88,-326.78"/>
<text text-anchor="middle" x="361.77" y="-424.5" font-family="Helvetica,sans-Serif" font-size="10.00"> +interpolation_operand</text>
</g>
<!-- Node5&#45;&gt;Node3 -->
<g id="edge4" class="edge">
<title>Node5&#45;&gt;Node3</title>
<path fill="none" stroke="#404040" d="M185.88,-547.39C184.79,-541.31 183.85,-534.98 183.27,-529 182.73,-523.34 182.42,-517.5 182.29,-511.61"/>
<polygon fill="none" stroke="#404040" points="182.29,-511.5 178.28,-505.51 182.27,-499.5 186.28,-505.5 182.29,-511.5"/>
<text text-anchor="middle" x="242.77" y="-521" font-family="Helvetica,sans-Serif" font-size="10.00"> +interpolation_operand</text>
</g>
<!-- Node6 -->
<g id="node6" class="node">
<title>Node6</title>
<g id="a_node6"><a xlink:title=" ">
<polygon fill="white" stroke="#bfbfbf" points="288.27,-210 288.27,-267 422.27,-267 422.27,-210 288.27,-210"/>
<text text-anchor="middle" x="355.27" y="-255" font-family="Helvetica,sans-Serif" font-size="10.00">static const uint16_type</text>
<polyline fill="none" stroke="#bfbfbf" points="288.27,-248 422.27,-248 "/>
<text text-anchor="middle" x="355.27" y="-236" font-family="Helvetica,sans-Serif" font-size="10.00"> </text>
<polyline fill="none" stroke="#bfbfbf" points="288.27,-229 422.27,-229 "/>
<text text-anchor="middle" x="355.27" y="-217" font-family="Helvetica,sans-Serif" font-size="10.00"> </text>
</a>
</g>
</g>
<!-- Node6&#45;&gt;Node1 -->
<g id="edge7" class="edge">
<title>Node6&#45;&gt;Node1</title>
<path fill="none" stroke="#404040" d="M342.49,-209.77C331.96,-186.95 316.61,-153.64 302.94,-124"/>
<polygon fill="none" stroke="#404040" points="302.82,-123.74 296.67,-119.97 297.79,-112.85 303.94,-116.62 302.82,-123.74"/>
<text text-anchor="middle" x="328.77" y="-134" font-family="Helvetica,sans-Serif" font-size="10.00"> +value</text>
</g>
</g>
</svg>
