<?xml version="1.0" encoding="UTF-8" standalone="no"?>
<!DOCTYPE svg PUBLIC "-//W3C//DTD SVG 1.1//EN"
 "http://www.w3.org/Graphics/SVG/1.1/DTD/svg11.dtd">
<!-- Generated by graphviz version 2.43.0 (0)
 -->
<!-- Title: Feel::vf::PrintExpr&lt; PrintExprT &gt;::tensor&lt; Geo_t, Basis_i_t, Basis_j_t &gt;::is_zero Pages: 1 -->
<svg width="146pt" height="204pt"
 viewBox="0.00 0.00 146.00 204.00" xmlns="http://www.w3.org/2000/svg" xmlns:xlink="http://www.w3.org/1999/xlink">
<g id="graph0" class="graph" transform="scale(1 1) rotate(0) translate(4 200)">
<title>Feel::vf::PrintExpr&lt; PrintExprT &gt;::tensor&lt; Geo_t, Basis_i_t, Basis_j_t &gt;::is_zero</title>
<polygon fill="white" stroke="transparent" points="-4,4 -4,-200 142,-200 142,4 -4,4"/>
<!-- Node1 -->
<g id="node1" class="node">
<title>Node1</title>
<g id="a_node1"><a xlink:title=" ">
<polygon fill="#bfbfbf" stroke="black" points="0,-0.5 0,-90.5 138,-90.5 138,-0.5 0,-0.5"/>
<text text-anchor="start" x="8" y="-78.5" font-family="Helvetica,sans-Serif" font-size="10.00">Feel::vf::PrintExpr</text>
<text text-anchor="start" x="8" y="-67.5" font-family="Helvetica,sans-Serif" font-size="10.00">&lt; PrintExprT &gt;::tensor</text>
<text text-anchor="start" x="8" y="-56.5" font-family="Helvetica,sans-Serif" font-size="10.00">&lt; Geo_t, Basis_i_t, Basis</text>
<text text-anchor="middle" x="69" y="-45.5" font-family="Helvetica,sans-Serif" font-size="10.00">_j_t &gt;::is_zero</text>
<polyline fill="none" stroke="black" points="0,-38.5 138,-38.5 "/>
<text text-anchor="middle" x="69" y="-26.5" font-family="Helvetica,sans-Serif" font-size="10.00"> </text>
<polyline fill="none" stroke="black" points="0,-19.5 138,-19.5 "/>
<text text-anchor="middle" x="69" y="-7.5" font-family="Helvetica,sans-Serif" font-size="10.00"> </text>
</a>
</g>
</g>
<!-- Node2 -->
<g id="node2" class="node">
<title>Node2</title>
<g id="a_node2"><a xlink:href="classbool.html" target="_top" xlink:title=" ">
<polygon fill="white" stroke="#bfbfbf" points="50,-138.5 50,-195.5 88,-195.5 88,-138.5 50,-138.5"/>
<text text-anchor="middle" x="69" y="-183.5" font-family="Helvetica,sans-Serif" font-size="10.00">bool</text>
<polyline fill="none" stroke="#bfbfbf" points="50,-176.5 88,-176.5 "/>
<text text-anchor="middle" x="69" y="-164.5" font-family="Helvetica,sans-Serif" font-size="10.00"> </text>
<polyline fill="none" stroke="#bfbfbf" points="50,-157.5 88,-157.5 "/>
<text text-anchor="middle" x="69" y="-145.5" font-family="Helvetica,sans-Serif" font-size="10.00"> </text>
</a>
</g>
</g>
<!-- Node2&#45;&gt;Node1 -->
<g id="edge1" class="edge">
<title>Node2&#45;&gt;Node1</title>
<path fill="none" stroke="#404040" d="M69,-138.28C69,-127.73 69,-115.29 69,-103.03"/>
<polygon fill="none" stroke="#404040" points="69,-102.91 65,-96.91 69,-90.91 73,-96.91 69,-102.91"/>
<text text-anchor="middle" x="88.5" y="-112" font-family="Helvetica,sans-Serif" font-size="10.00"> +value</text>
</g>
</g>
</svg>
