<?xml version="1.0" encoding="UTF-8" standalone="no"?>
<!DOCTYPE svg PUBLIC "-//W3C//DTD SVG 1.1//EN"
 "http://www.w3.org/Graphics/SVG/1.1/DTD/svg11.dtd">
<!-- Generated by graphviz version 2.43.0 (0)
 -->
<!-- Title: Feel::bases_list&lt; T &gt; Pages: 1 -->
<svg width="176pt" height="171pt"
 viewBox="0.00 0.00 176.00 171.00" xmlns="http://www.w3.org/2000/svg" xmlns:xlink="http://www.w3.org/1999/xlink">
<g id="graph0" class="graph" transform="scale(1 1) rotate(0) translate(4 167)">
<title>Feel::bases_list&lt; T &gt;</title>
<polygon fill="white" stroke="transparent" points="-4,4 -4,-167 172,-167 172,4 -4,4"/>
<!-- Node1 -->
<g id="node1" class="node">
<title>Node1</title>
<g id="a_node1"><a xlink:title=" ">
<polygon fill="#bfbfbf" stroke="black" points="24,-0.5 24,-57.5 144,-57.5 144,-0.5 24,-0.5"/>
<text text-anchor="middle" x="84" y="-45.5" font-family="Helvetica,sans-Serif" font-size="10.00">Feel::bases_list&lt; T &gt;</text>
<polyline fill="none" stroke="black" points="24,-38.5 144,-38.5 "/>
<text text-anchor="middle" x="84" y="-26.5" font-family="Helvetica,sans-Serif" font-size="10.00"> </text>
<polyline fill="none" stroke="black" points="24,-19.5 144,-19.5 "/>
<text text-anchor="middle" x="84" y="-7.5" font-family="Helvetica,sans-Serif" font-size="10.00"> </text>
</a>
</g>
</g>
<!-- Node2 -->
<g id="node2" class="node">
<title>Node2</title>
<g id="a_node2"><a xlink:href="classboost_1_1parameter_1_1template__keyword.html" target="_top" xlink:title=" ">
<polygon fill="white" stroke="#bfbfbf" points="0,-94.5 0,-162.5 168,-162.5 168,-94.5 0,-94.5"/>
<text text-anchor="start" x="8" y="-150.5" font-family="Helvetica,sans-Serif" font-size="10.00">boost::parameter::template</text>
<text text-anchor="middle" x="84" y="-139.5" font-family="Helvetica,sans-Serif" font-size="10.00">_keyword&lt; tag::bases_list, T &gt;</text>
<polyline fill="none" stroke="#bfbfbf" points="0,-132.5 168,-132.5 "/>
<text text-anchor="middle" x="84" y="-120.5" font-family="Helvetica,sans-Serif" font-size="10.00"> </text>
<polyline fill="none" stroke="#bfbfbf" points="0,-113.5 168,-113.5 "/>
<text text-anchor="middle" x="84" y="-101.5" font-family="Helvetica,sans-Serif" font-size="10.00"> </text>
</a>
</g>
</g>
<!-- Node2&#45;&gt;Node1 -->
<g id="edge1" class="edge">
<title>Node2&#45;&gt;Node1</title>
<path fill="none" stroke="midnightblue" d="M84,-84.45C84,-75.4 84,-66.09 84,-57.78"/>
<polygon fill="none" stroke="midnightblue" points="80.5,-84.49 84,-94.49 87.5,-84.49 80.5,-84.49"/>
</g>
</g>
</svg>
