<?xml version="1.0" encoding="UTF-8" standalone="no"?>
<!DOCTYPE svg PUBLIC "-//W3C//DTD SVG 1.1//EN"
 "http://www.w3.org/Graphics/SVG/1.1/DTD/svg11.dtd">
<!-- Generated by graphviz version 2.43.0 (0)
 -->
<!-- Title: Feel::is_filter&lt; boost::tuple&lt; T... &gt; &gt; Pages: 1 -->
<svg width="126pt" height="171pt"
 viewBox="0.00 0.00 126.00 171.00" xmlns="http://www.w3.org/2000/svg" xmlns:xlink="http://www.w3.org/1999/xlink">
<g id="graph0" class="graph" transform="scale(1 1) rotate(0) translate(4 167)">
<title>Feel::is_filter&lt; boost::tuple&lt; T... &gt; &gt;</title>
<polygon fill="white" stroke="transparent" points="-4,4 -4,-167 122,-167 122,4 -4,4"/>
<!-- Node1 -->
<g id="node1" class="node">
<title>Node1</title>
<g id="a_node1"><a xlink:title=" ">
<polygon fill="#bfbfbf" stroke="black" points="0,-0.5 0,-68.5 118,-68.5 118,-0.5 0,-0.5"/>
<text text-anchor="start" x="8" y="-56.5" font-family="Helvetica,sans-Serif" font-size="10.00">Feel::is_filter&lt; boost</text>
<text text-anchor="middle" x="59" y="-45.5" font-family="Helvetica,sans-Serif" font-size="10.00">::tuple&lt; T... &gt; &gt;</text>
<polyline fill="none" stroke="black" points="0,-38.5 118,-38.5 "/>
<text text-anchor="middle" x="59" y="-26.5" font-family="Helvetica,sans-Serif" font-size="10.00"> </text>
<polyline fill="none" stroke="black" points="0,-19.5 118,-19.5 "/>
<text text-anchor="middle" x="59" y="-7.5" font-family="Helvetica,sans-Serif" font-size="10.00"> </text>
</a>
</g>
</g>
<!-- Node2 -->
<g id="node2" class="node">
<title>Node2</title>
<g id="a_node2"><a xlink:title=" ">
<polygon fill="white" stroke="#bfbfbf" points="27.5,-105.5 27.5,-162.5 90.5,-162.5 90.5,-105.5 27.5,-105.5"/>
<text text-anchor="middle" x="59" y="-150.5" font-family="Helvetica,sans-Serif" font-size="10.00">true_type</text>
<polyline fill="none" stroke="#bfbfbf" points="27.5,-143.5 90.5,-143.5 "/>
<text text-anchor="middle" x="59" y="-131.5" font-family="Helvetica,sans-Serif" font-size="10.00"> </text>
<polyline fill="none" stroke="#bfbfbf" points="27.5,-124.5 90.5,-124.5 "/>
<text text-anchor="middle" x="59" y="-112.5" font-family="Helvetica,sans-Serif" font-size="10.00"> </text>
</a>
</g>
</g>
<!-- Node2&#45;&gt;Node1 -->
<g id="edge1" class="edge">
<title>Node2&#45;&gt;Node1</title>
<path fill="none" stroke="midnightblue" d="M59,-95.06C59,-86.39 59,-77.24 59,-68.79"/>
<polygon fill="none" stroke="midnightblue" points="55.5,-95.32 59,-105.32 62.5,-95.32 55.5,-95.32"/>
</g>
</g>
</svg>
