<?xml version="1.0" encoding="UTF-8" standalone="no"?>
<!DOCTYPE svg PUBLIC "-//W3C//DTD SVG 1.1//EN"
 "http://www.w3.org/Graphics/SVG/1.1/DTD/svg11.dtd">
<!-- Generated by graphviz version 2.43.0 (0)
 -->
<!-- Title: Feel::vf::map_vector_fields&lt; M, N, Order &gt; Pages: 1 -->
<svg width="151pt" height="292pt"
 viewBox="0.00 0.00 151.00 292.00" xmlns="http://www.w3.org/2000/svg" xmlns:xlink="http://www.w3.org/1999/xlink">
<g id="graph0" class="graph" transform="scale(1 1) rotate(0) translate(4 288)">
<title>Feel::vf::map_vector_fields&lt; M, N, Order &gt;</title>
<polygon fill="white" stroke="transparent" points="-4,4 -4,-288 147,-288 147,4 -4,4"/>
<!-- Node1 -->
<g id="node1" class="node">
<title>Node1</title>
<g id="a_node1"><a xlink:title=" ">
<polygon fill="#bfbfbf" stroke="black" points="4.5,-0.5 4.5,-134.5 138.5,-134.5 138.5,-0.5 4.5,-0.5"/>
<text text-anchor="start" x="12.5" y="-122.5" font-family="Helvetica,sans-Serif" font-size="10.00">Feel::vf::map_vector</text>
<text text-anchor="middle" x="71.5" y="-111.5" font-family="Helvetica,sans-Serif" font-size="10.00">_fields&lt; M, N, Order &gt;</text>
<polyline fill="none" stroke="black" points="4.5,-104.5 138.5,-104.5 "/>
<text text-anchor="middle" x="71.5" y="-92.5" font-family="Helvetica,sans-Serif" font-size="10.00"> </text>
<polyline fill="none" stroke="black" points="4.5,-85.5 138.5,-85.5 "/>
<text text-anchor="start" x="12.5" y="-73.5" font-family="Helvetica,sans-Serif" font-size="10.00">+ map_vector_fields()</text>
<text text-anchor="start" x="12.5" y="-62.5" font-family="Helvetica,sans-Serif" font-size="10.00">+ map_vector_fields()</text>
<text text-anchor="start" x="12.5" y="-51.5" font-family="Helvetica,sans-Serif" font-size="10.00">+ map_vector_fields()</text>
<text text-anchor="start" x="12.5" y="-40.5" font-family="Helvetica,sans-Serif" font-size="10.00">+ map_vector_fields()</text>
<text text-anchor="start" x="12.5" y="-29.5" font-family="Helvetica,sans-Serif" font-size="10.00">+ operator=()</text>
<text text-anchor="start" x="12.5" y="-18.5" font-family="Helvetica,sans-Serif" font-size="10.00">+ operator=()</text>
<text text-anchor="start" x="12.5" y="-7.5" font-family="Helvetica,sans-Serif" font-size="10.00">+ setParameterValues()</text>
</a>
</g>
</g>
<!-- Node2 -->
<g id="node2" class="node">
<title>Node2</title>
<g id="a_node2"><a xlink:title="STL class.">
<polygon fill="white" stroke="#bfbfbf" points="0,-171.5 0,-283.5 143,-283.5 143,-171.5 0,-171.5"/>
<text text-anchor="start" x="8" y="-271.5" font-family="Helvetica,sans-Serif" font-size="10.00">std::map&lt; std::string,</text>
<text text-anchor="start" x="8" y="-260.5" font-family="Helvetica,sans-Serif" font-size="10.00"> std::pair&lt; std::vector</text>
<text text-anchor="start" x="8" y="-249.5" font-family="Helvetica,sans-Serif" font-size="10.00">&lt; Expr&lt; GinacMatrix&lt; M,</text>
<text text-anchor="start" x="8" y="-238.5" font-family="Helvetica,sans-Serif" font-size="10.00"> 1, 2 &gt; &gt; &gt;, std::set&lt; std</text>
<text text-anchor="middle" x="71.5" y="-227.5" font-family="Helvetica,sans-Serif" font-size="10.00">::string &gt; &gt; &gt;</text>
<polyline fill="none" stroke="#bfbfbf" points="0,-220.5 143,-220.5 "/>
<text text-anchor="start" x="8" y="-208.5" font-family="Helvetica,sans-Serif" font-size="10.00">+ elements</text>
<text text-anchor="start" x="8" y="-197.5" font-family="Helvetica,sans-Serif" font-size="10.00">+ keys</text>
<polyline fill="none" stroke="#bfbfbf" points="0,-190.5 143,-190.5 "/>
<text text-anchor="middle" x="71.5" y="-178.5" font-family="Helvetica,sans-Serif" font-size="10.00"> </text>
</a>
</g>
</g>
<!-- Node2&#45;&gt;Node1 -->
<g id="edge1" class="edge">
<title>Node2&#45;&gt;Node1</title>
<path fill="none" stroke="midnightblue" d="M71.5,-161.09C71.5,-152.34 71.5,-143.35 71.5,-134.59"/>
<polygon fill="none" stroke="midnightblue" points="68,-161.24 71.5,-171.24 75,-161.24 68,-161.24"/>
</g>
</g>
</svg>
