<?xml version="1.0" encoding="UTF-8" standalone="no"?>
<!DOCTYPE svg PUBLIC "-//W3C//DTD SVG 1.1//EN"
 "http://www.w3.org/Graphics/SVG/1.1/DTD/svg11.dtd">
<!-- Generated by graphviz version 2.43.0 (0)
 -->
<!-- Title: Feel::vf::map_scalar_fields&lt; Order &gt; Pages: 1 -->
<svg width="200pt" height="376pt"
 viewBox="0.00 0.00 200.00 376.00" xmlns="http://www.w3.org/2000/svg" xmlns:xlink="http://www.w3.org/1999/xlink">
<g id="graph0" class="graph" transform="scale(1 1) rotate(0) translate(4 372)">
<title>Feel::vf::map_scalar_fields&lt; Order &gt;</title>
<polygon fill="white" stroke="transparent" points="-4,4 -4,-372 196,-372 196,4 -4,4"/>
<!-- Node1 -->
<g id="node1" class="node">
<title>Node1</title>
<g id="a_node1"><a xlink:title=" ">
<polygon fill="#bfbfbf" stroke="black" points="29.5,-0.5 29.5,-134.5 162.5,-134.5 162.5,-0.5 29.5,-0.5"/>
<text text-anchor="start" x="37.5" y="-122.5" font-family="Helvetica,sans-Serif" font-size="10.00">Feel::vf::map_scalar</text>
<text text-anchor="middle" x="96" y="-111.5" font-family="Helvetica,sans-Serif" font-size="10.00">_fields&lt; Order &gt;</text>
<polyline fill="none" stroke="black" points="29.5,-104.5 162.5,-104.5 "/>
<text text-anchor="middle" x="96" y="-92.5" font-family="Helvetica,sans-Serif" font-size="10.00"> </text>
<polyline fill="none" stroke="black" points="29.5,-85.5 162.5,-85.5 "/>
<text text-anchor="start" x="37.5" y="-73.5" font-family="Helvetica,sans-Serif" font-size="10.00">+ map_scalar_fields()</text>
<text text-anchor="start" x="37.5" y="-62.5" font-family="Helvetica,sans-Serif" font-size="10.00">+ map_scalar_fields()</text>
<text text-anchor="start" x="37.5" y="-51.5" font-family="Helvetica,sans-Serif" font-size="10.00">+ map_scalar_fields()</text>
<text text-anchor="start" x="37.5" y="-40.5" font-family="Helvetica,sans-Serif" font-size="10.00">+ map_scalar_fields()</text>
<text text-anchor="start" x="37.5" y="-29.5" font-family="Helvetica,sans-Serif" font-size="10.00">+ operator=()</text>
<text text-anchor="start" x="37.5" y="-18.5" font-family="Helvetica,sans-Serif" font-size="10.00">+ operator=()</text>
<text text-anchor="start" x="37.5" y="-7.5" font-family="Helvetica,sans-Serif" font-size="10.00">+ setParameterValues()</text>
</a>
</g>
</g>
<!-- Node2 -->
<g id="node2" class="node">
<title>Node2</title>
<g id="a_node2"><a xlink:title="STL class.">
<polygon fill="white" stroke="#bfbfbf" points="0,-172.5 0,-262.5 192,-262.5 192,-172.5 0,-172.5"/>
<text text-anchor="start" x="8" y="-250.5" font-family="Helvetica,sans-Serif" font-size="10.00">std::map&lt; std::string,</text>
<text text-anchor="start" x="8" y="-239.5" font-family="Helvetica,sans-Serif" font-size="10.00"> std::pair&lt; std::vector</text>
<text text-anchor="start" x="8" y="-228.5" font-family="Helvetica,sans-Serif" font-size="10.00">&lt; scalar_field_expression</text>
<text text-anchor="middle" x="96" y="-217.5" font-family="Helvetica,sans-Serif" font-size="10.00">&lt; 2 &gt; &gt;, std::set&lt; std::string &gt; &gt; &gt;</text>
<polyline fill="none" stroke="#bfbfbf" points="0,-210.5 192,-210.5 "/>
<text text-anchor="middle" x="96" y="-198.5" font-family="Helvetica,sans-Serif" font-size="10.00"> </text>
<polyline fill="none" stroke="#bfbfbf" points="0,-191.5 192,-191.5 "/>
<text text-anchor="middle" x="96" y="-179.5" font-family="Helvetica,sans-Serif" font-size="10.00"> </text>
</a>
</g>
</g>
<!-- Node2&#45;&gt;Node1 -->
<g id="edge1" class="edge">
<title>Node2&#45;&gt;Node1</title>
<path fill="none" stroke="midnightblue" d="M96,-162.46C96,-153.38 96,-143.87 96,-134.53"/>
<polygon fill="none" stroke="midnightblue" points="92.5,-162.5 96,-172.5 99.5,-162.5 92.5,-162.5"/>
</g>
<!-- Node3 -->
<g id="node3" class="node">
<title>Node3</title>
<g id="a_node3"><a xlink:title=" ">
<polygon fill="white" stroke="#bfbfbf" points="53.5,-310.5 53.5,-367.5 82.5,-367.5 82.5,-310.5 53.5,-310.5"/>
<text text-anchor="middle" x="68" y="-355.5" font-family="Helvetica,sans-Serif" font-size="10.00">K</text>
<polyline fill="none" stroke="#bfbfbf" points="53.5,-348.5 82.5,-348.5 "/>
<text text-anchor="middle" x="68" y="-336.5" font-family="Helvetica,sans-Serif" font-size="10.00"> </text>
<polyline fill="none" stroke="#bfbfbf" points="53.5,-329.5 82.5,-329.5 "/>
<text text-anchor="middle" x="68" y="-317.5" font-family="Helvetica,sans-Serif" font-size="10.00"> </text>
</a>
</g>
</g>
<!-- Node3&#45;&gt;Node2 -->
<g id="edge2" class="edge">
<title>Node3&#45;&gt;Node2</title>
<path fill="none" stroke="#404040" d="M66.33,-310.5C66.33,-301.06 66.95,-290.48 69,-281 69.5,-278.7 70.08,-276.39 70.73,-274.07"/>
<polygon fill="none" stroke="#404040" points="70.77,-273.93 68.83,-266.99 74.49,-262.52 76.43,-269.46 70.77,-273.93"/>
<text text-anchor="middle" x="86" y="-284" font-family="Helvetica,sans-Serif" font-size="10.00"> +keys</text>
</g>
<!-- Node4 -->
<g id="node4" class="node">
<title>Node4</title>
<g id="a_node4"><a xlink:title=" ">
<polygon fill="white" stroke="#bfbfbf" points="110.5,-310.5 110.5,-367.5 139.5,-367.5 139.5,-310.5 110.5,-310.5"/>
<text text-anchor="middle" x="125" y="-355.5" font-family="Helvetica,sans-Serif" font-size="10.00">T</text>
<polyline fill="none" stroke="#bfbfbf" points="110.5,-348.5 139.5,-348.5 "/>
<text text-anchor="middle" x="125" y="-336.5" font-family="Helvetica,sans-Serif" font-size="10.00"> </text>
<polyline fill="none" stroke="#bfbfbf" points="110.5,-329.5 139.5,-329.5 "/>
<text text-anchor="middle" x="125" y="-317.5" font-family="Helvetica,sans-Serif" font-size="10.00"> </text>
</a>
</g>
</g>
<!-- Node4&#45;&gt;Node2 -->
<g id="edge3" class="edge">
<title>Node4&#45;&gt;Node2</title>
<path fill="none" stroke="#404040" d="M118.27,-310.28C115.69,-299.62 112.63,-287.03 109.63,-274.65"/>
<polygon fill="none" stroke="#404040" points="109.61,-274.57 104.31,-269.69 106.78,-262.91 112.08,-267.8 109.61,-274.57"/>
<text text-anchor="middle" x="142" y="-284" font-family="Helvetica,sans-Serif" font-size="10.00"> +elements</text>
</g>
</g>
</svg>
