<?xml version="1.0" encoding="UTF-8" standalone="no"?>
<!DOCTYPE svg PUBLIC "-//W3C//DTD SVG 1.1//EN"
 "http://www.w3.org/Graphics/SVG/1.1/DTD/svg11.dtd">
<!-- Generated by graphviz version 2.43.0 (0)
 -->
<!-- Title: Feel::InterpolationCurl&lt; C &gt; Pages: 1 -->
<!--zoomable 603 -->
<svg id="main" version="1.1" xmlns="http://www.w3.org/2000/svg" xmlns:xlink="http://www.w3.org/1999/xlink" xml:space="preserve" onload="init(evt)">
<style type="text/css"><![CDATA[
.edge:hover path { stroke: red; }
.edge:hover polygon { stroke: red; fill: red; }
]]></style>
<script type="text/javascript"><![CDATA[
var edges = document.getElementsByTagName('g');
if (edges && edges.length) {
  for (var i=0;i<edges.length;i++) {
    if (edges[i].id.substr(0,4)=='edge') {
      edges[i].setAttribute('class','edge');
    }
  }
}
]]></script>
        <defs>
                <circle id="rim" cx="0" cy="0" r="7"/>
                <circle id="rim2" cx="0" cy="0" r="3.5"/>
                <g id="zoomPlus">
                        <use xlink:href="#rim" fill="#404040">
                                <set attributeName="fill" to="#808080" begin="zoomplus.mouseover" end="zoomplus.mouseout"/>
                        </use>
                        <path d="M-4,0h8M0,-4v8" fill="none" stroke="white" stroke-width="1.5" pointer-events="none"/>
                </g>
                <g id="zoomMin">
                        <use xlink:href="#rim" fill="#404040">
                                <set attributeName="fill" to="#808080" begin="zoomminus.mouseover" end="zoomminus.mouseout"/>
                        </use>
                        <path d="M-4,0h8" fill="none" stroke="white" stroke-width="1.5" pointer-events="none"/>
                </g>
                <g id="dirArrow">
                        <path fill="none" stroke="white" stroke-width="1.5" d="M0,-3.0v7 M-2.5,-0.5L0,-3.0L2.5,-0.5"/>
                </g>
               <g id="resetDef">
                       <use xlink:href="#rim2" fill="#404040">
                               <set attributeName="fill" to="#808080" begin="reset.mouseover" end="reset.mouseout"/>
                       </use>
               </g>
        </defs>

<script type="text/javascript">
var viewWidth = 431;
var viewHeight = 603;
var sectionId = 'dynsection-1';
</script>
<script xlink:href="svgpan.js"/>
<svg id="graph" class="graph">
<g id="viewport">
<title>Feel::InterpolationCurl&lt; C &gt;</title>
<polygon fill="white" stroke="transparent" points="-4,4 -4,-599 427.39,-599 427.39,4 -4,4"/>
<!-- Node1 -->
<g id="node1" class="node">
<title>Node1</title>
<g id="a_node1"><a xlink:title=" ">
<polygon fill="#bfbfbf" stroke="black" points="115.39,-0.5 115.39,-101.5 269.39,-101.5 269.39,-0.5 115.39,-0.5"/>
<text text-anchor="middle" x="192.39" y="-89.5" font-family="Helvetica,sans-Serif" font-size="10.00">Feel::InterpolationCurl&lt; C &gt;</text>
<polyline fill="none" stroke="black" points="115.39,-82.5 269.39,-82.5 "/>
<text text-anchor="middle" x="192.39" y="-70.5" font-family="Helvetica,sans-Serif" font-size="10.00"> </text>
<polyline fill="none" stroke="black" points="115.39,-63.5 269.39,-63.5 "/>
<text text-anchor="start" x="123.39" y="-51.5" font-family="Helvetica,sans-Serif" font-size="10.00">+ InterpolationCurl()</text>
<text text-anchor="start" x="123.39" y="-40.5" font-family="Helvetica,sans-Serif" font-size="10.00">+ InterpolationCurl()</text>
<text text-anchor="start" x="123.39" y="-29.5" font-family="Helvetica,sans-Serif" font-size="10.00">+ InterpolationCurl()</text>
<text text-anchor="start" x="123.39" y="-18.5" font-family="Helvetica,sans-Serif" font-size="10.00">+ InterpolationCurl()</text>
<text text-anchor="start" x="123.39" y="-7.5" font-family="Helvetica,sans-Serif" font-size="10.00">+ operator=()</text>
</a>
</g>
</g>
<!-- Node2 -->
<g id="node2" class="node">
<title>Node2</title>
<g id="a_node2"><a xlink:href="classFeel_1_1InterpolationTypeBase.html" target="_top" xlink:title=" ">
<polygon fill="white" stroke="#bfbfbf" points="95.39,-139.5 95.39,-295.5 289.39,-295.5 289.39,-139.5 95.39,-139.5"/>
<text text-anchor="start" x="103.39" y="-283.5" font-family="Helvetica,sans-Serif" font-size="10.00">Feel::InterpolationTypeBase</text>
<text text-anchor="start" x="103.39" y="-272.5" font-family="Helvetica,sans-Serif" font-size="10.00">&lt; is_conforming&lt; C &gt;, interpolation</text>
<text text-anchor="middle" x="192.39" y="-261.5" font-family="Helvetica,sans-Serif" font-size="10.00">_operand_type::CURL &gt;</text>
<polyline fill="none" stroke="#bfbfbf" points="95.39,-254.5 289.39,-254.5 "/>
<text text-anchor="middle" x="192.39" y="-242.5" font-family="Helvetica,sans-Serif" font-size="10.00"> </text>
<polyline fill="none" stroke="#bfbfbf" points="95.39,-235.5 289.39,-235.5 "/>
<text text-anchor="start" x="103.39" y="-223.5" font-family="Helvetica,sans-Serif" font-size="10.00">+ InterpolationTypeBase()</text>
<text text-anchor="start" x="103.39" y="-212.5" font-family="Helvetica,sans-Serif" font-size="10.00">+ InterpolationTypeBase()</text>
<text text-anchor="start" x="103.39" y="-201.5" font-family="Helvetica,sans-Serif" font-size="10.00">+ InterpolationTypeBase()</text>
<text text-anchor="start" x="103.39" y="-190.5" font-family="Helvetica,sans-Serif" font-size="10.00">+ InterpolationTypeBase()</text>
<text text-anchor="start" x="103.39" y="-179.5" font-family="Helvetica,sans-Serif" font-size="10.00">+ operator=()</text>
<text text-anchor="start" x="103.39" y="-168.5" font-family="Helvetica,sans-Serif" font-size="10.00">+ operator=()</text>
<text text-anchor="start" x="103.39" y="-157.5" font-family="Helvetica,sans-Serif" font-size="10.00">+ operand()</text>
<text text-anchor="start" x="103.39" y="-146.5" font-family="Helvetica,sans-Serif" font-size="10.00">+ requiresDerivatives()</text>
</a>
</g>
</g>
<!-- Node2&#45;&gt;Node1 -->
<g id="edge1" class="edge">
<title>Node2&#45;&gt;Node1</title>
<path fill="none" stroke="midnightblue" d="M192.39,-128.96C192.39,-119.66 192.39,-110.46 192.39,-101.82"/>
<polygon fill="none" stroke="midnightblue" points="188.89,-129.07 192.39,-139.07 195.89,-129.07 188.89,-129.07"/>
</g>
<!-- Node3 -->
<g id="node3" class="node">
<title>Node3</title>
<g id="a_node3"><a xlink:href="classFeel_1_1InterpolationTypeBaseBase.html" target="_top" xlink:title=" ">
<polygon fill="white" stroke="#bfbfbf" points="108.39,-333.5 108.39,-478.5 276.39,-478.5 276.39,-333.5 108.39,-333.5"/>
<text text-anchor="start" x="116.39" y="-466.5" font-family="Helvetica,sans-Serif" font-size="10.00">Feel::InterpolationTypeBase</text>
<text text-anchor="middle" x="192.39" y="-455.5" font-family="Helvetica,sans-Serif" font-size="10.00">Base&lt; C, O &gt;</text>
<polyline fill="none" stroke="#bfbfbf" points="108.39,-448.5 276.39,-448.5 "/>
<text text-anchor="middle" x="192.39" y="-436.5" font-family="Helvetica,sans-Serif" font-size="10.00"> </text>
<polyline fill="none" stroke="#bfbfbf" points="108.39,-429.5 276.39,-429.5 "/>
<text text-anchor="start" x="116.39" y="-417.5" font-family="Helvetica,sans-Serif" font-size="10.00">+ componentsAreSamePoint()</text>
<text text-anchor="start" x="116.39" y="-406.5" font-family="Helvetica,sans-Serif" font-size="10.00">+ InterpolationTypeBaseBase()</text>
<text text-anchor="start" x="116.39" y="-395.5" font-family="Helvetica,sans-Serif" font-size="10.00">+ InterpolationTypeBaseBase()</text>
<text text-anchor="start" x="116.39" y="-384.5" font-family="Helvetica,sans-Serif" font-size="10.00">+ InterpolationTypeBaseBase()</text>
<text text-anchor="start" x="116.39" y="-373.5" font-family="Helvetica,sans-Serif" font-size="10.00">+ InterpolationTypeBaseBase()</text>
<text text-anchor="start" x="116.39" y="-362.5" font-family="Helvetica,sans-Serif" font-size="10.00">and 5 more...</text>
<text text-anchor="start" x="116.39" y="-351.5" font-family="Helvetica,sans-Serif" font-size="10.00">+ interpolationOperand()</text>
<text text-anchor="start" x="116.39" y="-340.5" font-family="Helvetica,sans-Serif" font-size="10.00">+ isConforming()</text>
</a>
</g>
</g>
<!-- Node3&#45;&gt;Node2 -->
<g id="edge2" class="edge">
<title>Node3&#45;&gt;Node2</title>
<path fill="none" stroke="midnightblue" d="M192.39,-323.21C192.39,-314.1 192.39,-304.83 192.39,-295.77"/>
<polygon fill="none" stroke="midnightblue" points="188.89,-323.43 192.39,-333.43 195.89,-323.43 188.89,-323.43"/>
</g>
<!-- Node4 -->
<g id="node4" class="node">
<title>Node4</title>
<g id="a_node4"><a xlink:href="classbool.html" target="_top" xlink:title=" ">
<polygon fill="white" stroke="#bfbfbf" points="42.39,-532 42.39,-589 80.39,-589 80.39,-532 42.39,-532"/>
<text text-anchor="middle" x="61.39" y="-577" font-family="Helvetica,sans-Serif" font-size="10.00">bool</text>
<polyline fill="none" stroke="#bfbfbf" points="42.39,-570 80.39,-570 "/>
<text text-anchor="middle" x="61.39" y="-558" font-family="Helvetica,sans-Serif" font-size="10.00"> </text>
<polyline fill="none" stroke="#bfbfbf" points="42.39,-551 80.39,-551 "/>
<text text-anchor="middle" x="61.39" y="-539" font-family="Helvetica,sans-Serif" font-size="10.00"> </text>
</a>
</g>
</g>
<!-- Node4&#45;&gt;Node2 -->
<g id="edge5" class="edge">
<title>Node4&#45;&gt;Node2</title>
<path fill="none" stroke="#404040" d="M42.24,-531.84C33.08,-516.91 23.09,-497.75 18.39,-479 2.64,-416.05 -12.39,-390.12 18.39,-333 33.32,-305.32 58.18,-283.23 84.5,-266.13"/>
<polygon fill="none" stroke="#404040" points="84.85,-265.92 87.84,-259.35 95.04,-259.59 92.06,-266.15 84.85,-265.92"/>
<text text-anchor="middle" x="58.89" y="-403.5" font-family="Helvetica,sans-Serif" font-size="10.00"> +is_conforming</text>
</g>
<!-- Node4&#45;&gt;Node3 -->
<g id="edge3" class="edge">
<title>Node4&#45;&gt;Node3</title>
<path fill="none" stroke="#404040" d="M76.75,-531.78C83.45,-520.57 91.74,-507.77 100.39,-497 102.88,-493.91 105.46,-490.81 108.12,-487.73"/>
<polygon fill="none" stroke="#404040" points="108.31,-487.51 109.3,-480.37 116.27,-478.53 115.29,-485.67 108.31,-487.51"/>
<text text-anchor="middle" x="140.89" y="-500" font-family="Helvetica,sans-Serif" font-size="10.00"> +is_conforming</text>
</g>
<!-- Node5 -->
<g id="node5" class="node">
<title>Node5</title>
<g id="a_node5"><a xlink:title=" ">
<polygon fill="white" stroke="#bfbfbf" points="124.39,-526.5 124.39,-594.5 284.39,-594.5 284.39,-526.5 124.39,-526.5"/>
<text text-anchor="start" x="132.39" y="-582.5" font-family="Helvetica,sans-Serif" font-size="10.00">static constexpr interpolation</text>
<text text-anchor="middle" x="204.39" y="-571.5" font-family="Helvetica,sans-Serif" font-size="10.00">_operand_type</text>
<polyline fill="none" stroke="#bfbfbf" points="124.39,-564.5 284.39,-564.5 "/>
<text text-anchor="middle" x="204.39" y="-552.5" font-family="Helvetica,sans-Serif" font-size="10.00"> </text>
<polyline fill="none" stroke="#bfbfbf" points="124.39,-545.5 284.39,-545.5 "/>
<text text-anchor="middle" x="204.39" y="-533.5" font-family="Helvetica,sans-Serif" font-size="10.00"> </text>
</a>
</g>
</g>
<!-- Node5&#45;&gt;Node2 -->
<g id="edge6" class="edge">
<title>Node5&#45;&gt;Node2</title>
<path fill="none" stroke="#404040" d="M284.4,-530.14C292.71,-524.03 300.05,-516.73 305.39,-508 307.95,-503.83 305.69,-501.88 305.39,-497 300.94,-423.71 314.11,-400.58 285.39,-333 281.47,-323.77 276.57,-314.68 271.09,-305.91"/>
<polygon fill="none" stroke="#404040" points="271.01,-305.78 264.36,-302.98 264.4,-295.77 271.04,-298.57 271.01,-305.78"/>
<text text-anchor="middle" x="363.89" y="-403.5" font-family="Helvetica,sans-Serif" font-size="10.00"> +interpolation_operand</text>
</g>
<!-- Node5&#45;&gt;Node3 -->
<g id="edge4" class="edge">
<title>Node5&#45;&gt;Node3</title>
<path fill="none" stroke="#404040" d="M191.01,-526.41C189.09,-520.38 187.43,-514.07 186.39,-508 185.44,-502.4 184.83,-496.59 184.48,-490.74"/>
<polygon fill="none" stroke="#404040" points="184.48,-490.67 180.3,-484.79 184.12,-478.67 188.3,-484.55 184.48,-490.67"/>
<text text-anchor="middle" x="245.89" y="-500" font-family="Helvetica,sans-Serif" font-size="10.00"> +interpolation_operand</text>
</g>
</g>
</svg>
        <g id="navigator" transform="translate(0 0)" fill="#404254">
                <rect fill="#f2f5e9" fill-opacity="0.5" stroke="#606060" stroke-width=".5" x="0" y="0" width="60" height="60"/>
                <use id="zoomplus" xlink:href="#zoomPlus" x="17" y="9" onmousedown="handleZoom(evt,'in')"/>
                <use id="zoomminus" xlink:href="#zoomMin" x="42" y="9" onmousedown="handleZoom(evt,'out')"/>
                <use id="reset" xlink:href="#resetDef" x="30" y="36" onmousedown="handleReset()"/>
                <g id="arrowUp" xlink:href="#dirArrow" transform="translate(30 24)" onmousedown="handlePan(0,-1)">
                  <use xlink:href="#rim" fill="#404040">
                        <set attributeName="fill" to="#808080" begin="arrowUp.mouseover" end="arrowUp.mouseout"/>
                  </use>
                  <path fill="none" stroke="white" stroke-width="1.5" d="M0,-3.0v7 M-2.5,-0.5L0,-3.0L2.5,-0.5"/>
                </g>
                <g id="arrowRight" xlink:href="#dirArrow" transform="rotate(90) translate(36 -43)" onmousedown="handlePan(1,0)">
                  <use xlink:href="#rim" fill="#404040">
                        <set attributeName="fill" to="#808080" begin="arrowRight.mouseover" end="arrowRight.mouseout"/>
                  </use>
                  <path fill="none" stroke="white" stroke-width="1.5" d="M0,-3.0v7 M-2.5,-0.5L0,-3.0L2.5,-0.5"/>
                </g>
                <g id="arrowDown" xlink:href="#dirArrow" transform="rotate(180) translate(-30 -48)" onmousedown="handlePan(0,1)">
                  <use xlink:href="#rim" fill="#404040">
                        <set attributeName="fill" to="#808080" begin="arrowDown.mouseover" end="arrowDown.mouseout"/>
                  </use>
                  <path fill="none" stroke="white" stroke-width="1.5" d="M0,-3.0v7 M-2.5,-0.5L0,-3.0L2.5,-0.5"/>
                </g>
                <g id="arrowLeft" xlink:href="#dirArrow" transform="rotate(270) translate(-36 17)" onmousedown="handlePan(-1,0)">
                  <use xlink:href="#rim" fill="#404040">
                        <set attributeName="fill" to="#808080" begin="arrowLeft.mouseover" end="arrowLeft.mouseout"/>
                  </use>
                  <path fill="none" stroke="white" stroke-width="1.5" d="M0,-3.0v7 M-2.5,-0.5L0,-3.0L2.5,-0.5"/>
                </g>
        </g>
        <svg viewBox="0 0 15 15" width="100%" height="30px" preserveAspectRatio="xMaxYMin meet">
         <g id="arrow_out" transform="scale(0.3 0.3)">
          <a xlink:href="structFeel_1_1InterpolationCurl__coll__graph_org.svg" target="_base">
           <rect id="button" ry="5" rx="5" y="6" x="6" height="38" width="38"
                fill="#f2f5e9" fill-opacity="0.5" stroke="#606060" stroke-width="1.0"/>
           <path id="arrow"
             d="M 11.500037,31.436501 C 11.940474,20.09759 22.043105,11.32322 32.158766,21.979434 L 37.068811,17.246167 C 37.068811,17.246167 37.088388,32 37.088388,32 L 22.160133,31.978069 C 22.160133,31.978069 26.997745,27.140456 26.997745,27.140456 C 18.528582,18.264221 13.291696,25.230495 11.500037,31.436501 z"
             style="fill:#404040;"/>
          </a>
         </g>
        </svg>
</svg>
