<?xml version="1.0" encoding="UTF-8" standalone="no"?>
<!DOCTYPE svg PUBLIC "-//W3C//DTD SVG 1.1//EN"
 "http://www.w3.org/Graphics/SVG/1.1/DTD/svg11.dtd">
<!-- Generated by graphviz version 2.43.0 (0)
 -->
<!-- Title: Feel::StencilRangeMap2Type&lt; ThePair1Type, ThePair2Type &gt; Pages: 1 -->
<svg width="418pt" height="237pt"
 viewBox="0.00 0.00 417.50 237.00" xmlns="http://www.w3.org/2000/svg" xmlns:xlink="http://www.w3.org/1999/xlink">
<g id="graph0" class="graph" transform="scale(1 1) rotate(0) translate(4 233)">
<title>Feel::StencilRangeMap2Type&lt; ThePair1Type, ThePair2Type &gt;</title>
<polygon fill="white" stroke="transparent" points="-4,4 -4,-233 413.5,-233 413.5,4 -4,4"/>
<!-- Node1 -->
<g id="node1" class="node">
<title>Node1</title>
<g id="a_node1"><a xlink:title=" ">
<polygon fill="#bfbfbf" stroke="black" points="106,-0.5 106,-79.5 282,-79.5 282,-0.5 106,-0.5"/>
<text text-anchor="start" x="114" y="-67.5" font-family="Helvetica,sans-Serif" font-size="10.00">Feel::StencilRangeMap2Type</text>
<text text-anchor="middle" x="194" y="-56.5" font-family="Helvetica,sans-Serif" font-size="10.00">&lt; ThePair1Type, ThePair2Type &gt;</text>
<polyline fill="none" stroke="black" points="106,-49.5 282,-49.5 "/>
<text text-anchor="middle" x="194" y="-37.5" font-family="Helvetica,sans-Serif" font-size="10.00"> </text>
<polyline fill="none" stroke="black" points="106,-30.5 282,-30.5 "/>
<text text-anchor="start" x="114" y="-18.5" font-family="Helvetica,sans-Serif" font-size="10.00">+ StencilRangeMap2Type()</text>
<text text-anchor="start" x="114" y="-7.5" font-family="Helvetica,sans-Serif" font-size="10.00">+ isNullRange()</text>
</a>
</g>
</g>
<!-- Node2 -->
<g id="node2" class="node">
<title>Node2</title>
<g id="a_node2"><a xlink:href="structFeel_1_1StencilRangeMapTypeBase.html" target="_top" xlink:title=" ">
<polygon fill="white" stroke="#bfbfbf" points="0,-144 0,-201 174,-201 174,-144 0,-144"/>
<text text-anchor="middle" x="87" y="-189" font-family="Helvetica,sans-Serif" font-size="10.00">Feel::StencilRangeMapTypeBase</text>
<polyline fill="none" stroke="#bfbfbf" points="0,-182 174,-182 "/>
<text text-anchor="middle" x="87" y="-170" font-family="Helvetica,sans-Serif" font-size="10.00"> </text>
<polyline fill="none" stroke="#bfbfbf" points="0,-163 174,-163 "/>
<text text-anchor="middle" x="87" y="-151" font-family="Helvetica,sans-Serif" font-size="10.00"> </text>
</a>
</g>
</g>
<!-- Node2&#45;&gt;Node1 -->
<g id="edge1" class="edge">
<title>Node2&#45;&gt;Node1</title>
<path fill="none" stroke="midnightblue" d="M116.05,-136.07C130.4,-118.57 147.74,-97.42 162.41,-79.53"/>
<polygon fill="none" stroke="midnightblue" points="113.33,-133.87 109.69,-143.82 118.74,-138.31 113.33,-133.87"/>
</g>
<!-- Node3 -->
<g id="node3" class="node">
<title>Node3</title>
<g id="a_node3"><a xlink:href="classboost_1_1fusion_1_1map.html" target="_top" xlink:title=" ">
<polygon fill="white" stroke="#bfbfbf" points="192.5,-116.5 192.5,-228.5 409.5,-228.5 409.5,-116.5 192.5,-116.5"/>
<text text-anchor="start" x="200.5" y="-216.5" font-family="Helvetica,sans-Serif" font-size="10.00">boost::fusion::map</text>
<text text-anchor="start" x="200.5" y="-205.5" font-family="Helvetica,sans-Serif" font-size="10.00">&lt; fusion::pair&lt; ThePair1Type</text>
<text text-anchor="start" x="200.5" y="-194.5" font-family="Helvetica,sans-Serif" font-size="10.00">::first_type, ThePair1Type</text>
<text text-anchor="start" x="200.5" y="-183.5" font-family="Helvetica,sans-Serif" font-size="10.00">::second_type &gt;, fusion::pair</text>
<text text-anchor="start" x="200.5" y="-172.5" font-family="Helvetica,sans-Serif" font-size="10.00">&lt; ThePair2Type::first_type, ThePair2Type</text>
<text text-anchor="middle" x="301" y="-161.5" font-family="Helvetica,sans-Serif" font-size="10.00">::second_type &gt; &gt;</text>
<polyline fill="none" stroke="#bfbfbf" points="192.5,-154.5 409.5,-154.5 "/>
<text text-anchor="middle" x="301" y="-142.5" font-family="Helvetica,sans-Serif" font-size="10.00"> </text>
<polyline fill="none" stroke="#bfbfbf" points="192.5,-135.5 409.5,-135.5 "/>
<text text-anchor="middle" x="301" y="-123.5" font-family="Helvetica,sans-Serif" font-size="10.00"> </text>
</a>
</g>
</g>
<!-- Node3&#45;&gt;Node1 -->
<g id="edge2" class="edge">
<title>Node3&#45;&gt;Node1</title>
<path fill="none" stroke="midnightblue" d="M249.24,-108.37C241.25,-98.63 233.21,-88.82 225.83,-79.82"/>
<polygon fill="none" stroke="midnightblue" points="246.58,-110.64 255.62,-116.16 251.99,-106.2 246.58,-110.64"/>
</g>
</g>
</svg>
