<?xml version="1.0" encoding="UTF-8" standalone="no"?>
<!DOCTYPE svg PUBLIC "-//W3C//DTD SVG 1.1//EN"
 "http://www.w3.org/Graphics/SVG/1.1/DTD/svg11.dtd">
<!-- Generated by graphviz version 2.43.0 (0)
 -->
<!-- Title: Feel::vf::ExprTensorsFromSymbolsExprDummyImpl&lt; Geo_t &gt; Pages: 1 -->
<svg width="200pt" height="597pt"
 viewBox="0.00 0.00 200.00 597.00" xmlns="http://www.w3.org/2000/svg" xmlns:xlink="http://www.w3.org/1999/xlink">
<g id="graph0" class="graph" transform="scale(1 1) rotate(0) translate(4 593)">
<title>Feel::vf::ExprTensorsFromSymbolsExprDummyImpl&lt; Geo_t &gt;</title>
<polygon fill="white" stroke="transparent" points="-4,4 -4,-593 196,-593 196,4 -4,4"/>
<!-- Node1 -->
<g id="node1" class="node">
<title>Node1</title>
<g id="a_node1"><a xlink:title=" ">
<polygon fill="#bfbfbf" stroke="black" points="0,-0.5 0,-112.5 192,-112.5 192,-0.5 0,-0.5"/>
<text text-anchor="start" x="8" y="-100.5" font-family="Helvetica,sans-Serif" font-size="10.00">Feel::vf::ExprTensorsFrom</text>
<text text-anchor="middle" x="96" y="-89.5" font-family="Helvetica,sans-Serif" font-size="10.00">SymbolsExprDummyImpl&lt; Geo_t &gt;</text>
<polyline fill="none" stroke="black" points="0,-82.5 192,-82.5 "/>
<text text-anchor="middle" x="96" y="-70.5" font-family="Helvetica,sans-Serif" font-size="10.00"> </text>
<polyline fill="none" stroke="black" points="0,-63.5 192,-63.5 "/>
<text text-anchor="start" x="8" y="-51.5" font-family="Helvetica,sans-Serif" font-size="10.00">+ init()</text>
<text text-anchor="start" x="8" y="-40.5" font-family="Helvetica,sans-Serif" font-size="10.00">+ newObjectPtr()</text>
<text text-anchor="start" x="8" y="-29.5" font-family="Helvetica,sans-Serif" font-size="10.00">+ update()</text>
<text text-anchor="start" x="8" y="-18.5" font-family="Helvetica,sans-Serif" font-size="10.00">+ ~ExprTensorsFromSymbolsExpr</text>
<text text-anchor="start" x="8" y="-7.5" font-family="Helvetica,sans-Serif" font-size="10.00">DummyImpl()</text>
</a>
</g>
</g>
<!-- Node2 -->
<g id="node2" class="node">
<title>Node2</title>
<g id="a_node2"><a xlink:href="structFeel_1_1vf_1_1ExprTensorsFromSymbolsExpr.html" target="_top" xlink:title=" ">
<polygon fill="white" stroke="black" points="0.5,-150.5 0.5,-262.5 191.5,-262.5 191.5,-150.5 0.5,-150.5"/>
<text text-anchor="start" x="8.5" y="-250.5" font-family="Helvetica,sans-Serif" font-size="10.00">Feel::vf::ExprTensorsFrom</text>
<text text-anchor="middle" x="96" y="-239.5" font-family="Helvetica,sans-Serif" font-size="10.00">SymbolsExpr&lt; Geo_t &gt;</text>
<polyline fill="none" stroke="black" points="0.5,-232.5 191.5,-232.5 "/>
<text text-anchor="middle" x="96" y="-220.5" font-family="Helvetica,sans-Serif" font-size="10.00"> </text>
<polyline fill="none" stroke="black" points="0.5,-213.5 191.5,-213.5 "/>
<text text-anchor="start" x="8.5" y="-201.5" font-family="Helvetica,sans-Serif" font-size="10.00">+ init()</text>
<text text-anchor="start" x="8.5" y="-190.5" font-family="Helvetica,sans-Serif" font-size="10.00">+ newObjectPtr()</text>
<text text-anchor="start" x="8.5" y="-179.5" font-family="Helvetica,sans-Serif" font-size="10.00">+ tensor()</text>
<text text-anchor="start" x="8.5" y="-168.5" font-family="Helvetica,sans-Serif" font-size="10.00">+ update()</text>
<text text-anchor="start" x="8.5" y="-157.5" font-family="Helvetica,sans-Serif" font-size="10.00">+ ~ExprTensorsFromSymbolsExpr()</text>
</a>
</g>
</g>
<!-- Node2&#45;&gt;Node1 -->
<g id="edge1" class="edge">
<title>Node2&#45;&gt;Node1</title>
<path fill="none" stroke="midnightblue" d="M96,-140.14C96,-130.97 96,-121.61 96,-112.66"/>
<polygon fill="none" stroke="midnightblue" points="92.5,-140.39 96,-150.39 99.5,-140.39 92.5,-140.39"/>
</g>
<!-- Node3 -->
<g id="node3" class="node">
<title>Node3</title>
<g id="a_node3"><a xlink:title=" ">
<polygon fill="white" stroke="#bfbfbf" points="41,-310.5 41,-378.5 151,-378.5 151,-310.5 41,-310.5"/>
<text text-anchor="start" x="49" y="-366.5" font-family="Helvetica,sans-Serif" font-size="10.00">std::vector&lt; tensor</text>
<text text-anchor="middle" x="96" y="-355.5" font-family="Helvetica,sans-Serif" font-size="10.00">_ptrtype &gt;</text>
<polyline fill="none" stroke="#bfbfbf" points="41,-348.5 151,-348.5 "/>
<text text-anchor="middle" x="96" y="-336.5" font-family="Helvetica,sans-Serif" font-size="10.00"> </text>
<polyline fill="none" stroke="#bfbfbf" points="41,-329.5 151,-329.5 "/>
<text text-anchor="middle" x="96" y="-317.5" font-family="Helvetica,sans-Serif" font-size="10.00"> </text>
</a>
</g>
</g>
<!-- Node3&#45;&gt;Node2 -->
<g id="edge2" class="edge">
<title>Node3&#45;&gt;Node2</title>
<path fill="none" stroke="#404040" d="M96,-310.23C96,-299.5 96,-287.18 96,-274.9"/>
<polygon fill="none" stroke="#404040" points="96,-274.68 92,-268.68 96,-262.68 100,-268.68 96,-274.68"/>
<text text-anchor="middle" x="124.5" y="-284" font-family="Helvetica,sans-Serif" font-size="10.00"> #M_tensor</text>
</g>
<!-- Node4 -->
<g id="node4" class="node">
<title>Node4</title>
<g id="a_node4"><a xlink:title="STL class.">
<polygon fill="white" stroke="#bfbfbf" points="37,-426.5 37,-483.5 155,-483.5 155,-426.5 37,-426.5"/>
<text text-anchor="middle" x="96" y="-471.5" font-family="Helvetica,sans-Serif" font-size="10.00">std::shared_ptr&lt; T &gt;</text>
<polyline fill="none" stroke="#bfbfbf" points="37,-464.5 155,-464.5 "/>
<text text-anchor="middle" x="96" y="-452.5" font-family="Helvetica,sans-Serif" font-size="10.00"> </text>
<polyline fill="none" stroke="#bfbfbf" points="37,-445.5 155,-445.5 "/>
<text text-anchor="start" x="45" y="-433.5" font-family="Helvetica,sans-Serif" font-size="10.00">+ operator&#45;&gt;()</text>
</a>
</g>
</g>
<!-- Node4&#45;&gt;Node3 -->
<g id="edge3" class="edge">
<title>Node4&#45;&gt;Node3</title>
<path fill="none" stroke="#404040" d="M96,-426.34C96,-415.53 96,-402.85 96,-390.77"/>
<polygon fill="none" stroke="#404040" points="96,-390.52 92,-384.52 96,-378.52 100,-384.52 96,-390.52"/>
<text text-anchor="middle" x="125" y="-400" font-family="Helvetica,sans-Serif" font-size="10.00"> +elements</text>
</g>
<!-- Node5 -->
<g id="node5" class="node">
<title>Node5</title>
<g id="a_node5"><a xlink:title=" ">
<polygon fill="white" stroke="#bfbfbf" points="81.5,-531.5 81.5,-588.5 110.5,-588.5 110.5,-531.5 81.5,-531.5"/>
<text text-anchor="middle" x="96" y="-576.5" font-family="Helvetica,sans-Serif" font-size="10.00">T</text>
<polyline fill="none" stroke="#bfbfbf" points="81.5,-569.5 110.5,-569.5 "/>
<text text-anchor="middle" x="96" y="-557.5" font-family="Helvetica,sans-Serif" font-size="10.00"> </text>
<polyline fill="none" stroke="#bfbfbf" points="81.5,-550.5 110.5,-550.5 "/>
<text text-anchor="middle" x="96" y="-538.5" font-family="Helvetica,sans-Serif" font-size="10.00"> </text>
</a>
</g>
</g>
<!-- Node5&#45;&gt;Node4 -->
<g id="edge4" class="edge">
<title>Node5&#45;&gt;Node4</title>
<path fill="none" stroke="#404040" d="M96,-531.4C96,-520.55 96,-507.87 96,-496.05"/>
<polygon fill="none" stroke="#404040" points="96,-495.68 92,-489.68 96,-483.68 100,-489.68 96,-495.68"/>
<text text-anchor="middle" x="108.5" y="-505" font-family="Helvetica,sans-Serif" font-size="10.00"> +ptr</text>
</g>
</g>
</svg>
