<?xml version="1.0" encoding="UTF-8" standalone="no"?>
<!DOCTYPE svg PUBLIC "-//W3C//DTD SVG 1.1//EN"
 "http://www.w3.org/Graphics/SVG/1.1/DTD/svg11.dtd">
<!-- Generated by graphviz version 2.43.0 (0)
 -->
<!-- Title: Feel::Mesh&lt; GeoShape, T, Tag, IndexT, _EnableSharedFromThis &gt;::UpdateSetForAllReduce&lt; ContType &gt; Pages: 1 -->
<svg width="202pt" height="215pt"
 viewBox="0.00 0.00 202.00 215.00" xmlns="http://www.w3.org/2000/svg" xmlns:xlink="http://www.w3.org/1999/xlink">
<g id="graph0" class="graph" transform="scale(1 1) rotate(0) translate(4 211)">
<title>Feel::Mesh&lt; GeoShape, T, Tag, IndexT, _EnableSharedFromThis &gt;::UpdateSetForAllReduce&lt; ContType &gt;</title>
<polygon fill="white" stroke="transparent" points="-4,4 -4,-211 198,-211 198,4 -4,4"/>
<!-- Node1 -->
<g id="node1" class="node">
<title>Node1</title>
<g id="a_node1"><a xlink:title=" ">
<polygon fill="#bfbfbf" stroke="black" points="0,-0.5 0,-90.5 194,-90.5 194,-0.5 0,-0.5"/>
<text text-anchor="start" x="8" y="-78.5" font-family="Helvetica,sans-Serif" font-size="10.00">Feel::Mesh&lt; GeoShape,</text>
<text text-anchor="start" x="8" y="-67.5" font-family="Helvetica,sans-Serif" font-size="10.00"> T, Tag, IndexT, _EnableShared</text>
<text text-anchor="start" x="8" y="-56.5" font-family="Helvetica,sans-Serif" font-size="10.00">FromThis &gt;::UpdateSetForAllReduce</text>
<text text-anchor="middle" x="97" y="-45.5" font-family="Helvetica,sans-Serif" font-size="10.00">&lt; ContType &gt;</text>
<polyline fill="none" stroke="black" points="0,-38.5 194,-38.5 "/>
<text text-anchor="middle" x="97" y="-26.5" font-family="Helvetica,sans-Serif" font-size="10.00"> </text>
<polyline fill="none" stroke="black" points="0,-19.5 194,-19.5 "/>
<text text-anchor="start" x="8" y="-7.5" font-family="Helvetica,sans-Serif" font-size="10.00">+ operator()()</text>
</a>
</g>
</g>
<!-- Node2 -->
<g id="node2" class="node">
<title>Node2</title>
<g id="a_node2"><a xlink:title=" ">
<polygon fill="white" stroke="#bfbfbf" points="19,-127.5 19,-206.5 175,-206.5 175,-127.5 19,-127.5"/>
<text text-anchor="start" x="27" y="-194.5" font-family="Helvetica,sans-Serif" font-size="10.00">std::function&lt; ContType</text>
<text text-anchor="start" x="27" y="-183.5" font-family="Helvetica,sans-Serif" font-size="10.00">(ContType const &amp;, ContType</text>
<text text-anchor="middle" x="97" y="-172.5" font-family="Helvetica,sans-Serif" font-size="10.00"> const &amp;)&gt;</text>
<polyline fill="none" stroke="#bfbfbf" points="19,-165.5 175,-165.5 "/>
<text text-anchor="middle" x="97" y="-153.5" font-family="Helvetica,sans-Serif" font-size="10.00"> </text>
<polyline fill="none" stroke="#bfbfbf" points="19,-146.5 175,-146.5 "/>
<text text-anchor="middle" x="97" y="-134.5" font-family="Helvetica,sans-Serif" font-size="10.00"> </text>
</a>
</g>
</g>
<!-- Node2&#45;&gt;Node1 -->
<g id="edge1" class="edge">
<title>Node2&#45;&gt;Node1</title>
<path fill="none" stroke="midnightblue" d="M97,-117.19C97,-108.49 97,-99.48 97,-90.91"/>
<polygon fill="none" stroke="midnightblue" points="93.5,-117.2 97,-127.2 100.5,-117.2 93.5,-117.2"/>
</g>
</g>
</svg>
