<?xml version="1.0" encoding="UTF-8" standalone="no"?>
<!DOCTYPE svg PUBLIC "-//W3C//DTD SVG 1.1//EN"
 "http://www.w3.org/Graphics/SVG/1.1/DTD/svg11.dtd">
<!-- Generated by graphviz version 2.43.0 (0)
 -->
<!-- Title: Feel::RemoteData::FileInfo Pages: 1 -->
<svg width="154pt" height="226pt"
 viewBox="0.00 0.00 154.00 226.00" xmlns="http://www.w3.org/2000/svg" xmlns:xlink="http://www.w3.org/1999/xlink">
<g id="graph0" class="graph" transform="scale(1 1) rotate(0) translate(4 222)">
<title>Feel::RemoteData::FileInfo</title>
<polygon fill="white" stroke="transparent" points="-4,4 -4,-222 150,-222 150,4 -4,4"/>
<!-- Node1 -->
<g id="node1" class="node">
<title>Node1</title>
<g id="a_node1"><a xlink:title=" ">
<polygon fill="#bfbfbf" stroke="black" points="0,-0.5 0,-112.5 146,-112.5 146,-0.5 0,-0.5"/>
<text text-anchor="middle" x="73" y="-100.5" font-family="Helvetica,sans-Serif" font-size="10.00">Feel::RemoteData::FileInfo</text>
<polyline fill="none" stroke="black" points="0,-93.5 146,-93.5 "/>
<text text-anchor="middle" x="73" y="-81.5" font-family="Helvetica,sans-Serif" font-size="10.00"> </text>
<polyline fill="none" stroke="black" points="0,-74.5 146,-74.5 "/>
<text text-anchor="start" x="8" y="-62.5" font-family="Helvetica,sans-Serif" font-size="10.00">+ checksum()</text>
<text text-anchor="start" x="8" y="-51.5" font-family="Helvetica,sans-Serif" font-size="10.00">+ checksumType()</text>
<text text-anchor="start" x="8" y="-40.5" font-family="Helvetica,sans-Serif" font-size="10.00">+ FileInfo()</text>
<text text-anchor="start" x="8" y="-29.5" font-family="Helvetica,sans-Serif" font-size="10.00">+ FileInfo()</text>
<text text-anchor="start" x="8" y="-18.5" font-family="Helvetica,sans-Serif" font-size="10.00">+ FileInfo()</text>
<text text-anchor="start" x="8" y="-7.5" font-family="Helvetica,sans-Serif" font-size="10.00">and 9 more...</text>
</a>
</g>
</g>
<!-- Node2 -->
<g id="node2" class="node">
<title>Node2</title>
<g id="a_node2"><a xlink:title=" ">
<polygon fill="white" stroke="#bfbfbf" points="7,-149.5 7,-217.5 139,-217.5 139,-149.5 7,-149.5"/>
<text text-anchor="start" x="15" y="-205.5" font-family="Helvetica,sans-Serif" font-size="10.00">std::tuple&lt; std::string,</text>
<text text-anchor="middle" x="73" y="-194.5" font-family="Helvetica,sans-Serif" font-size="10.00"> std::string, size_type &gt;</text>
<polyline fill="none" stroke="#bfbfbf" points="7,-187.5 139,-187.5 "/>
<text text-anchor="middle" x="73" y="-175.5" font-family="Helvetica,sans-Serif" font-size="10.00"> </text>
<polyline fill="none" stroke="#bfbfbf" points="7,-168.5 139,-168.5 "/>
<text text-anchor="middle" x="73" y="-156.5" font-family="Helvetica,sans-Serif" font-size="10.00"> </text>
</a>
</g>
</g>
<!-- Node2&#45;&gt;Node1 -->
<g id="edge1" class="edge">
<title>Node2&#45;&gt;Node1</title>
<path fill="none" stroke="midnightblue" d="M73,-139.18C73,-130.6 73,-121.49 73,-112.59"/>
<polygon fill="none" stroke="midnightblue" points="69.5,-139.33 73,-149.33 76.5,-139.33 69.5,-139.33"/>
</g>
</g>
</svg>
