<?xml version="1.0" encoding="UTF-8" standalone="no"?>
<!DOCTYPE svg PUBLIC "-//W3C//DTD SVG 1.1//EN"
 "http://www.w3.org/Graphics/SVG/1.1/DTD/svg11.dtd">
<!-- Generated by graphviz version 2.43.0 (0)
 -->
<!-- Title: /data/cemosis/github&#45;actions&#45;runner/actions&#45;runner&#45;4/_work/feelpp/feelpp/feelpp/feel/feelcore/testsuite.hpp Pages: 1 -->
<!--zoomable 172 -->
<svg id="main" version="1.1" xmlns="http://www.w3.org/2000/svg" xmlns:xlink="http://www.w3.org/1999/xlink" xml:space="preserve" onload="init(evt)">
<style type="text/css"><![CDATA[
.edge:hover path { stroke: red; }
.edge:hover polygon { stroke: red; fill: red; }
]]></style>
<script type="text/javascript"><![CDATA[
var edges = document.getElementsByTagName('g');
if (edges && edges.length) {
  for (var i=0;i<edges.length;i++) {
    if (edges[i].id.substr(0,4)=='edge') {
      edges[i].setAttribute('class','edge');
    }
  }
}
]]></script>
        <defs>
                <circle id="rim" cx="0" cy="0" r="7"/>
                <circle id="rim2" cx="0" cy="0" r="3.5"/>
                <g id="zoomPlus">
                        <use xlink:href="#rim" fill="#404040">
                                <set attributeName="fill" to="#808080" begin="zoomplus.mouseover" end="zoomplus.mouseout"/>
                        </use>
                        <path d="M-4,0h8M0,-4v8" fill="none" stroke="white" stroke-width="1.5" pointer-events="none"/>
                </g>
                <g id="zoomMin">
                        <use xlink:href="#rim" fill="#404040">
                                <set attributeName="fill" to="#808080" begin="zoomminus.mouseover" end="zoomminus.mouseout"/>
                        </use>
                        <path d="M-4,0h8" fill="none" stroke="white" stroke-width="1.5" pointer-events="none"/>
                </g>
                <g id="dirArrow">
                        <path fill="none" stroke="white" stroke-width="1.5" d="M0,-3.0v7 M-2.5,-0.5L0,-3.0L2.5,-0.5"/>
                </g>
               <g id="resetDef">
                       <use xlink:href="#rim2" fill="#404040">
                               <set attributeName="fill" to="#808080" begin="reset.mouseover" end="reset.mouseout"/>
                       </use>
               </g>
        </defs>

<script type="text/javascript">
var viewWidth = 3144;
var viewHeight = 172;
var sectionId = 'dynsection-0';
</script>
<script xlink:href="svgpan.js"/>
<svg id="graph" class="graph">
<g id="viewport">
<title>/data/cemosis/github&#45;actions&#45;runner/actions&#45;runner&#45;4/_work/feelpp/feelpp/feelpp/feel/feelcore/testsuite.hpp</title>
<polygon fill="white" stroke="transparent" points="-4,4 -4,-168 3140,-168 3140,4 -4,4"/>
<!-- Node1 -->
<g id="node1" class="node">
<title>Node1</title>
<g id="a_node1"><a xlink:title=" ">
<polygon fill="#bfbfbf" stroke="black" points="1486,-100.5 1486,-163.5 1635,-163.5 1635,-100.5 1486,-100.5"/>
<text text-anchor="start" x="1494" y="-151.5" font-family="Helvetica,sans-Serif" font-size="10.00">/data/cemosis/github</text>
<text text-anchor="start" x="1494" y="-140.5" font-family="Helvetica,sans-Serif" font-size="10.00">&#45;actions&#45;runner/actions</text>
<text text-anchor="start" x="1494" y="-129.5" font-family="Helvetica,sans-Serif" font-size="10.00">&#45;runner&#45;4/_work/feelpp</text>
<text text-anchor="start" x="1494" y="-118.5" font-family="Helvetica,sans-Serif" font-size="10.00">/feelpp/feelpp/feel/feelcore</text>
<text text-anchor="middle" x="1560.5" y="-107.5" font-family="Helvetica,sans-Serif" font-size="10.00">/testsuite.hpp</text>
</a>
</g>
</g>
<!-- Node2 -->
<g id="node2" class="node">
<title>Node2</title>
<g id="a_node2"><a xlink:title=" ">
<polygon fill="white" stroke="#bfbfbf" points="0,-0.5 0,-63.5 139,-63.5 139,-0.5 0,-0.5"/>
<text text-anchor="start" x="8" y="-51.5" font-family="Helvetica,sans-Serif" font-size="10.00">/data/cemosis/github</text>
<text text-anchor="start" x="8" y="-40.5" font-family="Helvetica,sans-Serif" font-size="10.00">&#45;actions&#45;runner/actions</text>
<text text-anchor="start" x="8" y="-29.5" font-family="Helvetica,sans-Serif" font-size="10.00">&#45;runner&#45;4/_work/feelpp</text>
<text text-anchor="start" x="8" y="-18.5" font-family="Helvetica,sans-Serif" font-size="10.00">/feelpp/testsuite/feelcore</text>
<text text-anchor="middle" x="69.5" y="-7.5" font-family="Helvetica,sans-Serif" font-size="10.00">/test_boostmpi.cpp</text>
</a>
</g>
</g>
<!-- Node1&#45;&gt;Node2 -->
<g id="edge1" class="edge">
<title>Node1&#45;&gt;Node2</title>
<path fill="none" stroke="midnightblue" d="M1475.58,-130.64C1210.85,-128.93 403.04,-119.22 147.5,-64 144.79,-63.42 142.06,-62.75 139.32,-62.01"/>
<polygon fill="midnightblue" stroke="midnightblue" points="1475.88,-134.14 1485.9,-130.7 1475.92,-127.14 1475.88,-134.14"/>
</g>
<!-- Node3 -->
<g id="node3" class="node">
<title>Node3</title>
<g id="a_node3"><a xlink:title=" ">
<polygon fill="white" stroke="#bfbfbf" points="157,-0.5 157,-63.5 296,-63.5 296,-0.5 157,-0.5"/>
<text text-anchor="start" x="165" y="-51.5" font-family="Helvetica,sans-Serif" font-size="10.00">/data/cemosis/github</text>
<text text-anchor="start" x="165" y="-40.5" font-family="Helvetica,sans-Serif" font-size="10.00">&#45;actions&#45;runner/actions</text>
<text text-anchor="start" x="165" y="-29.5" font-family="Helvetica,sans-Serif" font-size="10.00">&#45;runner&#45;4/_work/feelpp</text>
<text text-anchor="start" x="165" y="-18.5" font-family="Helvetica,sans-Serif" font-size="10.00">/feelpp/testsuite/feelcore</text>
<text text-anchor="middle" x="226.5" y="-7.5" font-family="Helvetica,sans-Serif" font-size="10.00">/test_eigenrand.cpp</text>
</a>
</g>
</g>
<!-- Node1&#45;&gt;Node3 -->
<g id="edge2" class="edge">
<title>Node1&#45;&gt;Node3</title>
<path fill="none" stroke="midnightblue" d="M1475.48,-130.05C1230.88,-126.74 528.58,-113.12 304.5,-64 301.8,-63.41 299.06,-62.73 296.32,-61.99"/>
<polygon fill="midnightblue" stroke="midnightblue" points="1475.69,-133.55 1485.74,-130.18 1475.78,-126.55 1475.69,-133.55"/>
</g>
<!-- Node4 -->
<g id="node4" class="node">
<title>Node4</title>
<g id="a_node4"><a xlink:title=" ">
<polygon fill="white" stroke="#bfbfbf" points="314,-0.5 314,-63.5 453,-63.5 453,-0.5 314,-0.5"/>
<text text-anchor="start" x="322" y="-51.5" font-family="Helvetica,sans-Serif" font-size="10.00">/data/cemosis/github</text>
<text text-anchor="start" x="322" y="-40.5" font-family="Helvetica,sans-Serif" font-size="10.00">&#45;actions&#45;runner/actions</text>
<text text-anchor="start" x="322" y="-29.5" font-family="Helvetica,sans-Serif" font-size="10.00">&#45;runner&#45;4/_work/feelpp</text>
<text text-anchor="start" x="322" y="-18.5" font-family="Helvetica,sans-Serif" font-size="10.00">/feelpp/testsuite/feelcore</text>
<text text-anchor="middle" x="383.5" y="-7.5" font-family="Helvetica,sans-Serif" font-size="10.00">/test_enumerate.cpp</text>
</a>
</g>
</g>
<!-- Node1&#45;&gt;Node4 -->
<g id="edge3" class="edge">
<title>Node1&#45;&gt;Node4</title>
<path fill="none" stroke="midnightblue" d="M1475.77,-129.3C1252.94,-124.27 654.43,-107.06 461.5,-64 458.8,-63.4 456.07,-62.71 453.33,-61.96"/>
<polygon fill="midnightblue" stroke="midnightblue" points="1475.7,-132.8 1485.77,-129.52 1475.85,-125.8 1475.7,-132.8"/>
</g>
<!-- Node5 -->
<g id="node5" class="node">
<title>Node5</title>
<g id="a_node5"><a xlink:href="test__enums_8cpp.html" target="_top" xlink:title="&#45;*&#45; mode: c++; coding: utf&#45;8; tab&#45;width: 4; indent&#45;tabs&#45;mode: nil; c&#45;basic&#45;offset: 4; show&#45;trailing&#45;w...">
<polygon fill="white" stroke="black" points="471,-0.5 471,-63.5 610,-63.5 610,-0.5 471,-0.5"/>
<text text-anchor="start" x="479" y="-51.5" font-family="Helvetica,sans-Serif" font-size="10.00">/data/cemosis/github</text>
<text text-anchor="start" x="479" y="-40.5" font-family="Helvetica,sans-Serif" font-size="10.00">&#45;actions&#45;runner/actions</text>
<text text-anchor="start" x="479" y="-29.5" font-family="Helvetica,sans-Serif" font-size="10.00">&#45;runner&#45;4/_work/feelpp</text>
<text text-anchor="start" x="479" y="-18.5" font-family="Helvetica,sans-Serif" font-size="10.00">/feelpp/testsuite/feelcore</text>
<text text-anchor="middle" x="540.5" y="-7.5" font-family="Helvetica,sans-Serif" font-size="10.00">/test_enums.cpp</text>
</a>
</g>
</g>
<!-- Node1&#45;&gt;Node5 -->
<g id="edge4" class="edge">
<title>Node1&#45;&gt;Node5</title>
<path fill="none" stroke="midnightblue" d="M1475.78,-128.3C1276.06,-121.4 780.41,-101 618.5,-64 615.8,-63.38 613.07,-62.69 610.33,-61.93"/>
<polygon fill="midnightblue" stroke="midnightblue" points="1475.81,-131.8 1485.92,-128.65 1476.05,-124.81 1475.81,-131.8"/>
</g>
<!-- Node6 -->
<g id="node6" class="node">
<title>Node6</title>
<g id="a_node6"><a xlink:href="test__env_8cpp.html" target="_top" xlink:title=" ">
<polygon fill="white" stroke="black" points="628,-0.5 628,-63.5 767,-63.5 767,-0.5 628,-0.5"/>
<text text-anchor="start" x="636" y="-51.5" font-family="Helvetica,sans-Serif" font-size="10.00">/data/cemosis/github</text>
<text text-anchor="start" x="636" y="-40.5" font-family="Helvetica,sans-Serif" font-size="10.00">&#45;actions&#45;runner/actions</text>
<text text-anchor="start" x="636" y="-29.5" font-family="Helvetica,sans-Serif" font-size="10.00">&#45;runner&#45;4/_work/feelpp</text>
<text text-anchor="start" x="636" y="-18.5" font-family="Helvetica,sans-Serif" font-size="10.00">/feelpp/testsuite/feelcore</text>
<text text-anchor="middle" x="697.5" y="-7.5" font-family="Helvetica,sans-Serif" font-size="10.00">/test_env.cpp</text>
</a>
</g>
</g>
<!-- Node1&#45;&gt;Node6 -->
<g id="edge5" class="edge">
<title>Node1&#45;&gt;Node6</title>
<path fill="none" stroke="midnightblue" d="M1475.58,-131.83C1330.19,-131.46 1025.11,-122.9 775.5,-64 772.81,-63.36 770.08,-62.65 767.35,-61.88"/>
<polygon fill="midnightblue" stroke="midnightblue" points="1475.76,-135.33 1485.77,-131.84 1475.77,-128.33 1475.76,-135.33"/>
</g>
<!-- Node7 -->
<g id="node7" class="node">
<title>Node7</title>
<g id="a_node7"><a xlink:title=" ">
<polygon fill="white" stroke="#bfbfbf" points="785,-0.5 785,-63.5 924,-63.5 924,-0.5 785,-0.5"/>
<text text-anchor="start" x="793" y="-51.5" font-family="Helvetica,sans-Serif" font-size="10.00">/data/cemosis/github</text>
<text text-anchor="start" x="793" y="-40.5" font-family="Helvetica,sans-Serif" font-size="10.00">&#45;actions&#45;runner/actions</text>
<text text-anchor="start" x="793" y="-29.5" font-family="Helvetica,sans-Serif" font-size="10.00">&#45;runner&#45;4/_work/feelpp</text>
<text text-anchor="start" x="793" y="-18.5" font-family="Helvetica,sans-Serif" font-size="10.00">/feelpp/testsuite/feelcore</text>
<text text-anchor="middle" x="854.5" y="-7.5" font-family="Helvetica,sans-Serif" font-size="10.00">/test_feelio.cpp</text>
</a>
</g>
</g>
<!-- Node1&#45;&gt;Node7 -->
<g id="edge6" class="edge">
<title>Node1&#45;&gt;Node7</title>
<path fill="none" stroke="midnightblue" d="M1475.88,-129.24C1354.07,-125.08 1123,-111.08 932.5,-64 929.81,-63.34 927.09,-62.6 924.36,-61.81"/>
<polygon fill="midnightblue" stroke="midnightblue" points="1475.78,-132.74 1485.89,-129.57 1476.01,-125.74 1475.78,-132.74"/>
</g>
<!-- Node8 -->
<g id="node8" class="node">
<title>Node8</title>
<g id="a_node8"><a xlink:href="test__git_8cpp.html" target="_top" xlink:title=" ">
<polygon fill="white" stroke="black" points="942,-0.5 942,-63.5 1081,-63.5 1081,-0.5 942,-0.5"/>
<text text-anchor="start" x="950" y="-51.5" font-family="Helvetica,sans-Serif" font-size="10.00">/data/cemosis/github</text>
<text text-anchor="start" x="950" y="-40.5" font-family="Helvetica,sans-Serif" font-size="10.00">&#45;actions&#45;runner/actions</text>
<text text-anchor="start" x="950" y="-29.5" font-family="Helvetica,sans-Serif" font-size="10.00">&#45;runner&#45;4/_work/feelpp</text>
<text text-anchor="start" x="950" y="-18.5" font-family="Helvetica,sans-Serif" font-size="10.00">/feelpp/testsuite/feelcore</text>
<text text-anchor="middle" x="1011.5" y="-7.5" font-family="Helvetica,sans-Serif" font-size="10.00">/test_git.cpp</text>
</a>
</g>
</g>
<!-- Node1&#45;&gt;Node8 -->
<g id="edge7" class="edge">
<title>Node1&#45;&gt;Node8</title>
<path fill="none" stroke="midnightblue" d="M1475.84,-125.03C1380.62,-116.93 1221.97,-99.21 1089.5,-64 1086.82,-63.29 1084.12,-62.51 1081.39,-61.68"/>
<polygon fill="midnightblue" stroke="midnightblue" points="1475.74,-128.54 1485.99,-125.88 1476.32,-121.56 1475.74,-128.54"/>
</g>
<!-- Node9 -->
<g id="node9" class="node">
<title>Node9</title>
<g id="a_node9"><a xlink:title=" ">
<polygon fill="white" stroke="#bfbfbf" points="1099,-0.5 1099,-63.5 1238,-63.5 1238,-0.5 1099,-0.5"/>
<text text-anchor="start" x="1107" y="-51.5" font-family="Helvetica,sans-Serif" font-size="10.00">/data/cemosis/github</text>
<text text-anchor="start" x="1107" y="-40.5" font-family="Helvetica,sans-Serif" font-size="10.00">&#45;actions&#45;runner/actions</text>
<text text-anchor="start" x="1107" y="-29.5" font-family="Helvetica,sans-Serif" font-size="10.00">&#45;runner&#45;4/_work/feelpp</text>
<text text-anchor="start" x="1107" y="-18.5" font-family="Helvetica,sans-Serif" font-size="10.00">/feelpp/testsuite/feelcore</text>
<text text-anchor="middle" x="1168.5" y="-7.5" font-family="Helvetica,sans-Serif" font-size="10.00">/test_hana.cpp</text>
</a>
</g>
</g>
<!-- Node1&#45;&gt;Node9 -->
<g id="edge8" class="edge">
<title>Node1&#45;&gt;Node9</title>
<path fill="none" stroke="midnightblue" d="M1475.69,-116.9C1411.94,-105.34 1322.83,-87.13 1246.5,-64 1243.71,-63.15 1240.88,-62.25 1238.04,-61.31"/>
<polygon fill="midnightblue" stroke="midnightblue" points="1475.23,-120.37 1485.69,-118.7 1476.47,-113.48 1475.23,-120.37"/>
</g>
<!-- Node10 -->
<g id="node10" class="node">
<title>Node10</title>
<g id="a_node10"><a xlink:href="test__hdf5_8cpp.html" target="_top" xlink:title=" ">
<polygon fill="white" stroke="black" points="1256,-0.5 1256,-63.5 1395,-63.5 1395,-0.5 1256,-0.5"/>
<text text-anchor="start" x="1264" y="-51.5" font-family="Helvetica,sans-Serif" font-size="10.00">/data/cemosis/github</text>
<text text-anchor="start" x="1264" y="-40.5" font-family="Helvetica,sans-Serif" font-size="10.00">&#45;actions&#45;runner/actions</text>
<text text-anchor="start" x="1264" y="-29.5" font-family="Helvetica,sans-Serif" font-size="10.00">&#45;runner&#45;4/_work/feelpp</text>
<text text-anchor="start" x="1264" y="-18.5" font-family="Helvetica,sans-Serif" font-size="10.00">/feelpp/testsuite/feelcore</text>
<text text-anchor="middle" x="1325.5" y="-7.5" font-family="Helvetica,sans-Serif" font-size="10.00">/test_hdf5.cpp</text>
</a>
</g>
</g>
<!-- Node1&#45;&gt;Node10 -->
<g id="edge9" class="edge">
<title>Node1&#45;&gt;Node10</title>
<path fill="none" stroke="midnightblue" d="M1477.69,-96.47C1450.71,-85.21 1421.04,-72.84 1395.12,-62.03"/>
<polygon fill="midnightblue" stroke="midnightblue" points="1476.53,-99.78 1487.11,-100.4 1479.23,-93.32 1476.53,-99.78"/>
</g>
<!-- Node11 -->
<g id="node11" class="node">
<title>Node11</title>
<g id="a_node11"><a xlink:href="test__json_8cpp.html" target="_top" xlink:title=" ">
<polygon fill="white" stroke="black" points="1413,-0.5 1413,-63.5 1552,-63.5 1552,-0.5 1413,-0.5"/>
<text text-anchor="start" x="1421" y="-51.5" font-family="Helvetica,sans-Serif" font-size="10.00">/data/cemosis/github</text>
<text text-anchor="start" x="1421" y="-40.5" font-family="Helvetica,sans-Serif" font-size="10.00">&#45;actions&#45;runner/actions</text>
<text text-anchor="start" x="1421" y="-29.5" font-family="Helvetica,sans-Serif" font-size="10.00">&#45;runner&#45;4/_work/feelpp</text>
<text text-anchor="start" x="1421" y="-18.5" font-family="Helvetica,sans-Serif" font-size="10.00">/feelpp/testsuite/feelcore</text>
<text text-anchor="middle" x="1482.5" y="-7.5" font-family="Helvetica,sans-Serif" font-size="10.00">/test_json.cpp</text>
</a>
</g>
</g>
<!-- Node1&#45;&gt;Node11 -->
<g id="edge10" class="edge">
<title>Node1&#45;&gt;Node11</title>
<path fill="none" stroke="midnightblue" d="M1529.78,-92.4C1522.18,-82.85 1514.13,-72.74 1506.88,-63.63"/>
<polygon fill="midnightblue" stroke="midnightblue" points="1527.07,-94.62 1536.03,-100.26 1532.55,-90.26 1527.07,-94.62"/>
</g>
<!-- Node12 -->
<g id="node12" class="node">
<title>Node12</title>
<g id="a_node12"><a xlink:title=" ">
<polygon fill="white" stroke="#bfbfbf" points="1570,-0.5 1570,-63.5 1709,-63.5 1709,-0.5 1570,-0.5"/>
<text text-anchor="start" x="1578" y="-51.5" font-family="Helvetica,sans-Serif" font-size="10.00">/data/cemosis/github</text>
<text text-anchor="start" x="1578" y="-40.5" font-family="Helvetica,sans-Serif" font-size="10.00">&#45;actions&#45;runner/actions</text>
<text text-anchor="start" x="1578" y="-29.5" font-family="Helvetica,sans-Serif" font-size="10.00">&#45;runner&#45;4/_work/feelpp</text>
<text text-anchor="start" x="1578" y="-18.5" font-family="Helvetica,sans-Serif" font-size="10.00">/feelpp/testsuite/feelcore</text>
<text text-anchor="middle" x="1639.5" y="-7.5" font-family="Helvetica,sans-Serif" font-size="10.00">/test_mongo.cpp</text>
</a>
</g>
</g>
<!-- Node1&#45;&gt;Node12 -->
<g id="edge11" class="edge">
<title>Node1&#45;&gt;Node12</title>
<path fill="none" stroke="midnightblue" d="M1591.62,-92.4C1599.32,-82.85 1607.46,-72.74 1614.81,-63.63"/>
<polygon fill="midnightblue" stroke="midnightblue" points="1588.83,-90.28 1585.28,-100.26 1594.28,-94.67 1588.83,-90.28"/>
</g>
<!-- Node13 -->
<g id="node13" class="node">
<title>Node13</title>
<g id="a_node13"><a xlink:title=" ">
<polygon fill="white" stroke="#bfbfbf" points="1727,-0.5 1727,-63.5 1866,-63.5 1866,-0.5 1727,-0.5"/>
<text text-anchor="start" x="1735" y="-51.5" font-family="Helvetica,sans-Serif" font-size="10.00">/data/cemosis/github</text>
<text text-anchor="start" x="1735" y="-40.5" font-family="Helvetica,sans-Serif" font-size="10.00">&#45;actions&#45;runner/actions</text>
<text text-anchor="start" x="1735" y="-29.5" font-family="Helvetica,sans-Serif" font-size="10.00">&#45;runner&#45;4/_work/feelpp</text>
<text text-anchor="start" x="1735" y="-18.5" font-family="Helvetica,sans-Serif" font-size="10.00">/feelpp/testsuite/feelcore</text>
<text text-anchor="middle" x="1796.5" y="-7.5" font-family="Helvetica,sans-Serif" font-size="10.00">/test_observer.cpp</text>
</a>
</g>
</g>
<!-- Node1&#45;&gt;Node13 -->
<g id="edge12" class="edge">
<title>Node1&#45;&gt;Node13</title>
<path fill="none" stroke="midnightblue" d="M1643.71,-96.45C1670.93,-85.14 1700.87,-72.71 1726.98,-61.87"/>
<polygon fill="midnightblue" stroke="midnightblue" points="1642.09,-93.33 1634.2,-100.4 1644.78,-99.79 1642.09,-93.33"/>
</g>
<!-- Node14 -->
<g id="node14" class="node">
<title>Node14</title>
<g id="a_node14"><a xlink:title=" ">
<polygon fill="white" stroke="#bfbfbf" points="1884,-0.5 1884,-63.5 2023,-63.5 2023,-0.5 1884,-0.5"/>
<text text-anchor="start" x="1892" y="-51.5" font-family="Helvetica,sans-Serif" font-size="10.00">/data/cemosis/github</text>
<text text-anchor="start" x="1892" y="-40.5" font-family="Helvetica,sans-Serif" font-size="10.00">&#45;actions&#45;runner/actions</text>
<text text-anchor="start" x="1892" y="-29.5" font-family="Helvetica,sans-Serif" font-size="10.00">&#45;runner&#45;4/_work/feelpp</text>
<text text-anchor="start" x="1892" y="-18.5" font-family="Helvetica,sans-Serif" font-size="10.00">/feelpp/testsuite/feelcore</text>
<text text-anchor="middle" x="1953.5" y="-7.5" font-family="Helvetica,sans-Serif" font-size="10.00">/test_observer_mesh.cpp</text>
</a>
</g>
</g>
<!-- Node1&#45;&gt;Node14 -->
<g id="edge13" class="edge">
<title>Node1&#45;&gt;Node14</title>
<path fill="none" stroke="midnightblue" d="M1645.27,-116.98C1709.24,-105.44 1798.8,-87.22 1875.5,-64 1878.29,-63.16 1881.12,-62.25 1883.97,-61.31"/>
<polygon fill="midnightblue" stroke="midnightblue" points="1644.45,-113.57 1635.22,-118.78 1645.68,-120.46 1644.45,-113.57"/>
</g>
<!-- Node15 -->
<g id="node15" class="node">
<title>Node15</title>
<g id="a_node15"><a xlink:title=" ">
<polygon fill="white" stroke="#bfbfbf" points="2041,-0.5 2041,-63.5 2180,-63.5 2180,-0.5 2041,-0.5"/>
<text text-anchor="start" x="2049" y="-51.5" font-family="Helvetica,sans-Serif" font-size="10.00">/data/cemosis/github</text>
<text text-anchor="start" x="2049" y="-40.5" font-family="Helvetica,sans-Serif" font-size="10.00">&#45;actions&#45;runner/actions</text>
<text text-anchor="start" x="2049" y="-29.5" font-family="Helvetica,sans-Serif" font-size="10.00">&#45;runner&#45;4/_work/feelpp</text>
<text text-anchor="start" x="2049" y="-18.5" font-family="Helvetica,sans-Serif" font-size="10.00">/feelpp/testsuite/feelcore</text>
<text text-anchor="middle" x="2110.5" y="-7.5" font-family="Helvetica,sans-Serif" font-size="10.00">/test_ptree_editions.cpp</text>
</a>
</g>
</g>
<!-- Node1&#45;&gt;Node15 -->
<g id="edge14" class="edge">
<title>Node1&#45;&gt;Node15</title>
<path fill="none" stroke="midnightblue" d="M1645.34,-125.05C1740.76,-116.96 1899.75,-99.26 2032.5,-64 2035.18,-63.29 2037.88,-62.51 2040.61,-61.69"/>
<polygon fill="midnightblue" stroke="midnightblue" points="1644.84,-121.58 1635.17,-125.9 1645.42,-128.56 1644.84,-121.58"/>
</g>
<!-- Node16 -->
<g id="node16" class="node">
<title>Node16</title>
<g id="a_node16"><a xlink:title=" ">
<polygon fill="white" stroke="#bfbfbf" points="2198,-0.5 2198,-63.5 2337,-63.5 2337,-0.5 2198,-0.5"/>
<text text-anchor="start" x="2206" y="-51.5" font-family="Helvetica,sans-Serif" font-size="10.00">/data/cemosis/github</text>
<text text-anchor="start" x="2206" y="-40.5" font-family="Helvetica,sans-Serif" font-size="10.00">&#45;actions&#45;runner/actions</text>
<text text-anchor="start" x="2206" y="-29.5" font-family="Helvetica,sans-Serif" font-size="10.00">&#45;runner&#45;4/_work/feelpp</text>
<text text-anchor="start" x="2206" y="-18.5" font-family="Helvetica,sans-Serif" font-size="10.00">/feelpp/testsuite/feelcore</text>
<text text-anchor="middle" x="2267.5" y="-7.5" font-family="Helvetica,sans-Serif" font-size="10.00">/test_range.cpp</text>
</a>
</g>
</g>
<!-- Node1&#45;&gt;Node16 -->
<g id="edge15" class="edge">
<title>Node1&#45;&gt;Node16</title>
<path fill="none" stroke="midnightblue" d="M1645.25,-129.26C1767.26,-125.11 1998.69,-111.14 2189.5,-64 2192.19,-63.34 2194.91,-62.6 2197.64,-61.81"/>
<polygon fill="midnightblue" stroke="midnightblue" points="1645.11,-125.76 1635.23,-129.58 1645.33,-132.76 1645.11,-125.76"/>
</g>
<!-- Node17 -->
<g id="node17" class="node">
<title>Node17</title>
<g id="a_node17"><a xlink:title=" ">
<polygon fill="white" stroke="#bfbfbf" points="2355,-0.5 2355,-63.5 2508,-63.5 2508,-0.5 2355,-0.5"/>
<text text-anchor="start" x="2363" y="-51.5" font-family="Helvetica,sans-Serif" font-size="10.00">/data/cemosis/github</text>
<text text-anchor="start" x="2363" y="-40.5" font-family="Helvetica,sans-Serif" font-size="10.00">&#45;actions&#45;runner/actions</text>
<text text-anchor="start" x="2363" y="-29.5" font-family="Helvetica,sans-Serif" font-size="10.00">&#45;runner&#45;4/_work/feelpp</text>
<text text-anchor="start" x="2363" y="-18.5" font-family="Helvetica,sans-Serif" font-size="10.00">/feelpp/testsuite/feelcore</text>
<text text-anchor="middle" x="2431.5" y="-7.5" font-family="Helvetica,sans-Serif" font-size="10.00">/test_removecomments.cpp</text>
</a>
</g>
</g>
<!-- Node1&#45;&gt;Node17 -->
<g id="edge16" class="edge">
<title>Node1&#45;&gt;Node17</title>
<path fill="none" stroke="midnightblue" d="M1645.35,-131.07C1790.67,-129.58 2095.76,-119.38 2346.5,-64 2349.26,-63.39 2352.05,-62.71 2354.86,-61.98"/>
<polygon fill="midnightblue" stroke="midnightblue" points="1645.14,-127.57 1635.17,-131.16 1645.2,-134.57 1645.14,-127.57"/>
</g>
<!-- Node18 -->
<g id="node18" class="node">
<title>Node18</title>
<g id="a_node18"><a xlink:title=" ">
<polygon fill="white" stroke="#bfbfbf" points="2526,-0.5 2526,-63.5 2665,-63.5 2665,-0.5 2526,-0.5"/>
<text text-anchor="start" x="2534" y="-51.5" font-family="Helvetica,sans-Serif" font-size="10.00">/data/cemosis/github</text>
<text text-anchor="start" x="2534" y="-40.5" font-family="Helvetica,sans-Serif" font-size="10.00">&#45;actions&#45;runner/actions</text>
<text text-anchor="start" x="2534" y="-29.5" font-family="Helvetica,sans-Serif" font-size="10.00">&#45;runner&#45;4/_work/feelpp</text>
<text text-anchor="start" x="2534" y="-18.5" font-family="Helvetica,sans-Serif" font-size="10.00">/feelpp/testsuite/feelcore</text>
<text text-anchor="middle" x="2595.5" y="-7.5" font-family="Helvetica,sans-Serif" font-size="10.00">/test_serialization.cpp</text>
</a>
</g>
</g>
<!-- Node1&#45;&gt;Node18 -->
<g id="edge17" class="edge">
<title>Node1&#45;&gt;Node18</title>
<path fill="none" stroke="midnightblue" d="M1645.47,-128.4C1847.64,-121.68 2352.7,-101.56 2517.5,-64 2520.2,-63.38 2522.93,-62.69 2525.67,-61.93"/>
<polygon fill="midnightblue" stroke="midnightblue" points="1645.08,-124.91 1635.2,-128.74 1645.31,-131.91 1645.08,-124.91"/>
</g>
<!-- Node19 -->
<g id="node19" class="node">
<title>Node19</title>
<g id="a_node19"><a xlink:href="test__simget_8cpp.html" target="_top" xlink:title=" ">
<polygon fill="white" stroke="black" points="2683,-0.5 2683,-63.5 2822,-63.5 2822,-0.5 2683,-0.5"/>
<text text-anchor="start" x="2691" y="-51.5" font-family="Helvetica,sans-Serif" font-size="10.00">/data/cemosis/github</text>
<text text-anchor="start" x="2691" y="-40.5" font-family="Helvetica,sans-Serif" font-size="10.00">&#45;actions&#45;runner/actions</text>
<text text-anchor="start" x="2691" y="-29.5" font-family="Helvetica,sans-Serif" font-size="10.00">&#45;runner&#45;4/_work/feelpp</text>
<text text-anchor="start" x="2691" y="-18.5" font-family="Helvetica,sans-Serif" font-size="10.00">/feelpp/testsuite/feelcore</text>
<text text-anchor="middle" x="2752.5" y="-7.5" font-family="Helvetica,sans-Serif" font-size="10.00">/test_simget.cpp</text>
</a>
</g>
</g>
<!-- Node1&#45;&gt;Node19 -->
<g id="edge18" class="edge">
<title>Node1&#45;&gt;Node19</title>
<path fill="none" stroke="midnightblue" d="M1645.18,-129.38C1870.09,-124.53 2478.58,-107.64 2674.5,-64 2677.2,-63.4 2679.93,-62.71 2682.67,-61.97"/>
<polygon fill="midnightblue" stroke="midnightblue" points="1645.01,-125.88 1635.08,-129.6 1645.16,-132.88 1645.01,-125.88"/>
</g>
<!-- Node20 -->
<g id="node20" class="node">
<title>Node20</title>
<g id="a_node20"><a xlink:href="test__taskflow_8cpp.html" target="_top" xlink:title=" ">
<polygon fill="white" stroke="black" points="2840,-0.5 2840,-63.5 2979,-63.5 2979,-0.5 2840,-0.5"/>
<text text-anchor="start" x="2848" y="-51.5" font-family="Helvetica,sans-Serif" font-size="10.00">/data/cemosis/github</text>
<text text-anchor="start" x="2848" y="-40.5" font-family="Helvetica,sans-Serif" font-size="10.00">&#45;actions&#45;runner/actions</text>
<text text-anchor="start" x="2848" y="-29.5" font-family="Helvetica,sans-Serif" font-size="10.00">&#45;runner&#45;4/_work/feelpp</text>
<text text-anchor="start" x="2848" y="-18.5" font-family="Helvetica,sans-Serif" font-size="10.00">/feelpp/testsuite/feelcore</text>
<text text-anchor="middle" x="2909.5" y="-7.5" font-family="Helvetica,sans-Serif" font-size="10.00">/test_taskflow.cpp</text>
</a>
</g>
</g>
<!-- Node1&#45;&gt;Node20 -->
<g id="edge19" class="edge">
<title>Node1&#45;&gt;Node20</title>
<path fill="none" stroke="midnightblue" d="M1645.66,-130.11C1892.38,-126.96 2604.47,-113.69 2831.5,-64 2834.2,-63.41 2836.94,-62.73 2839.68,-61.99"/>
<polygon fill="midnightblue" stroke="midnightblue" points="1645.28,-126.61 1635.32,-130.24 1645.37,-133.61 1645.28,-126.61"/>
</g>
<!-- Node21 -->
<g id="node21" class="node">
<title>Node21</title>
<g id="a_node21"><a xlink:title=" ">
<polygon fill="white" stroke="#bfbfbf" points="2997,-0.5 2997,-63.5 3136,-63.5 3136,-0.5 2997,-0.5"/>
<text text-anchor="start" x="3005" y="-51.5" font-family="Helvetica,sans-Serif" font-size="10.00">/data/cemosis/github</text>
<text text-anchor="start" x="3005" y="-40.5" font-family="Helvetica,sans-Serif" font-size="10.00">&#45;actions&#45;runner/actions</text>
<text text-anchor="start" x="3005" y="-29.5" font-family="Helvetica,sans-Serif" font-size="10.00">&#45;runner&#45;4/_work/feelpp</text>
<text text-anchor="start" x="3005" y="-18.5" font-family="Helvetica,sans-Serif" font-size="10.00">/feelpp/testsuite/feelcore</text>
<text text-anchor="middle" x="3066.5" y="-7.5" font-family="Helvetica,sans-Serif" font-size="10.00">/test_worldcomm.cpp</text>
</a>
</g>
</g>
<!-- Node1&#45;&gt;Node21 -->
<g id="edge20" class="edge">
<title>Node1&#45;&gt;Node21</title>
<path fill="none" stroke="midnightblue" d="M1645.39,-130.69C1911.96,-129.13 2729.94,-119.81 2988.5,-64 2991.21,-63.42 2993.94,-62.75 2996.68,-62.01"/>
<polygon fill="midnightblue" stroke="midnightblue" points="1644.99,-127.19 1635,-130.75 1645.02,-134.19 1644.99,-127.19"/>
</g>
</g>
</svg>
        <g id="navigator" transform="translate(0 0)" fill="#404254">
                <rect fill="#f2f5e9" fill-opacity="0.5" stroke="#606060" stroke-width=".5" x="0" y="0" width="60" height="60"/>
                <use id="zoomplus" xlink:href="#zoomPlus" x="17" y="9" onmousedown="handleZoom(evt,'in')"/>
                <use id="zoomminus" xlink:href="#zoomMin" x="42" y="9" onmousedown="handleZoom(evt,'out')"/>
                <use id="reset" xlink:href="#resetDef" x="30" y="36" onmousedown="handleReset()"/>
                <g id="arrowUp" xlink:href="#dirArrow" transform="translate(30 24)" onmousedown="handlePan(0,-1)">
                  <use xlink:href="#rim" fill="#404040">
                        <set attributeName="fill" to="#808080" begin="arrowUp.mouseover" end="arrowUp.mouseout"/>
                  </use>
                  <path fill="none" stroke="white" stroke-width="1.5" d="M0,-3.0v7 M-2.5,-0.5L0,-3.0L2.5,-0.5"/>
                </g>
                <g id="arrowRight" xlink:href="#dirArrow" transform="rotate(90) translate(36 -43)" onmousedown="handlePan(1,0)">
                  <use xlink:href="#rim" fill="#404040">
                        <set attributeName="fill" to="#808080" begin="arrowRight.mouseover" end="arrowRight.mouseout"/>
                  </use>
                  <path fill="none" stroke="white" stroke-width="1.5" d="M0,-3.0v7 M-2.5,-0.5L0,-3.0L2.5,-0.5"/>
                </g>
                <g id="arrowDown" xlink:href="#dirArrow" transform="rotate(180) translate(-30 -48)" onmousedown="handlePan(0,1)">
                  <use xlink:href="#rim" fill="#404040">
                        <set attributeName="fill" to="#808080" begin="arrowDown.mouseover" end="arrowDown.mouseout"/>
                  </use>
                  <path fill="none" stroke="white" stroke-width="1.5" d="M0,-3.0v7 M-2.5,-0.5L0,-3.0L2.5,-0.5"/>
                </g>
                <g id="arrowLeft" xlink:href="#dirArrow" transform="rotate(270) translate(-36 17)" onmousedown="handlePan(-1,0)">
                  <use xlink:href="#rim" fill="#404040">
                        <set attributeName="fill" to="#808080" begin="arrowLeft.mouseover" end="arrowLeft.mouseout"/>
                  </use>
                  <path fill="none" stroke="white" stroke-width="1.5" d="M0,-3.0v7 M-2.5,-0.5L0,-3.0L2.5,-0.5"/>
                </g>
        </g>
        <svg viewBox="0 0 15 15" width="100%" height="30px" preserveAspectRatio="xMaxYMin meet">
         <g id="arrow_out" transform="scale(0.3 0.3)">
          <a xlink:href="testsuite_8hpp__dep__incl_org.svg" target="_base">
           <rect id="button" ry="5" rx="5" y="6" x="6" height="38" width="38"
                fill="#f2f5e9" fill-opacity="0.5" stroke="#606060" stroke-width="1.0"/>
           <path id="arrow"
             d="M 11.500037,31.436501 C 11.940474,20.09759 22.043105,11.32322 32.158766,21.979434 L 37.068811,17.246167 C 37.068811,17.246167 37.088388,32 37.088388,32 L 22.160133,31.978069 C 22.160133,31.978069 26.997745,27.140456 26.997745,27.140456 C 18.528582,18.264221 13.291696,25.230495 11.500037,31.436501 z"
             style="fill:#404040;"/>
          </a>
         </g>
        </svg>
</svg>
