<?xml version="1.0" encoding="UTF-8" standalone="no"?>
<!DOCTYPE svg PUBLIC "-//W3C//DTD SVG 1.1//EN"
 "http://www.w3.org/Graphics/SVG/1.1/DTD/svg11.dtd">
<!-- Generated by graphviz version 2.43.0 (0)
 -->
<!-- Title: /nvme0/prudhomm/github&#45;actions/actions&#45;runner&#45;1/_work/feelpp/feelpp/feelpp/feel/feelcore/testsuite.hpp Pages: 1 -->
<!--zoomable 150 -->
<svg id="main" version="1.1" xmlns="http://www.w3.org/2000/svg" xmlns:xlink="http://www.w3.org/1999/xlink" xml:space="preserve" onload="init(evt)">
<style type="text/css"><![CDATA[
.edge:hover path { stroke: red; }
.edge:hover polygon { stroke: red; fill: red; }
]]></style>
<script type="text/javascript"><![CDATA[
var edges = document.getElementsByTagName('g');
if (edges && edges.length) {
  for (var i=0;i<edges.length;i++) {
    if (edges[i].id.substr(0,4)=='edge') {
      edges[i].setAttribute('class','edge');
    }
  }
}
]]></script>
        <defs>
                <circle id="rim" cx="0" cy="0" r="7"/>
                <circle id="rim2" cx="0" cy="0" r="3.5"/>
                <g id="zoomPlus">
                        <use xlink:href="#rim" fill="#404040">
                                <set attributeName="fill" to="#808080" begin="zoomplus.mouseover" end="zoomplus.mouseout"/>
                        </use>
                        <path d="M-4,0h8M0,-4v8" fill="none" stroke="white" stroke-width="1.5" pointer-events="none"/>
                </g>
                <g id="zoomMin">
                        <use xlink:href="#rim" fill="#404040">
                                <set attributeName="fill" to="#808080" begin="zoomminus.mouseover" end="zoomminus.mouseout"/>
                        </use>
                        <path d="M-4,0h8" fill="none" stroke="white" stroke-width="1.5" pointer-events="none"/>
                </g>
                <g id="dirArrow">
                        <path fill="none" stroke="white" stroke-width="1.5" d="M0,-3.0v7 M-2.5,-0.5L0,-3.0L2.5,-0.5"/>
                </g>
               <g id="resetDef">
                       <use xlink:href="#rim2" fill="#404040">
                               <set attributeName="fill" to="#808080" begin="reset.mouseover" end="reset.mouseout"/>
                       </use>
               </g>
        </defs>

<script type="text/javascript">
var viewWidth = 3828;
var viewHeight = 150;
var sectionId = 'dynsection-0';
</script>
<script xlink:href="svgpan.js"/>
<svg id="graph" class="graph">
<g id="viewport">
<title>/nvme0/prudhomm/github&#45;actions/actions&#45;runner&#45;1/_work/feelpp/feelpp/feelpp/feel/feelcore/testsuite.hpp</title>
<polygon fill="white" stroke="transparent" points="-4,4 -4,-146 3824,-146 3824,4 -4,4"/>
<!-- Node1 -->
<g id="node1" class="node">
<title>Node1</title>
<g id="a_node1"><a xlink:title=" ">
<polygon fill="#bfbfbf" stroke="black" points="1811,-89.5 1811,-141.5 1971,-141.5 1971,-89.5 1811,-89.5"/>
<text text-anchor="start" x="1819" y="-129.5" font-family="Helvetica,sans-Serif" font-size="10.00">/nvme0/prudhomm/github</text>
<text text-anchor="start" x="1819" y="-118.5" font-family="Helvetica,sans-Serif" font-size="10.00">&#45;actions/actions&#45;runner</text>
<text text-anchor="start" x="1819" y="-107.5" font-family="Helvetica,sans-Serif" font-size="10.00">&#45;1/_work/feelpp/feelpp/feelpp</text>
<text text-anchor="middle" x="1891" y="-96.5" font-family="Helvetica,sans-Serif" font-size="10.00">/feel/feelcore/testsuite.hpp</text>
</a>
</g>
</g>
<!-- Node2 -->
<g id="node2" class="node">
<title>Node2</title>
<g id="a_node2"><a xlink:title=" ">
<polygon fill="white" stroke="#bfbfbf" points="0,-0.5 0,-52.5 172,-52.5 172,-0.5 0,-0.5"/>
<text text-anchor="start" x="8" y="-40.5" font-family="Helvetica,sans-Serif" font-size="10.00">/nvme0/prudhomm/github</text>
<text text-anchor="start" x="8" y="-29.5" font-family="Helvetica,sans-Serif" font-size="10.00">&#45;actions/actions&#45;runner</text>
<text text-anchor="start" x="8" y="-18.5" font-family="Helvetica,sans-Serif" font-size="10.00">&#45;1/_work/feelpp/feelpp/testsuite</text>
<text text-anchor="middle" x="86" y="-7.5" font-family="Helvetica,sans-Serif" font-size="10.00">/feelcore/test_boostmpi.cpp</text>
</a>
</g>
</g>
<!-- Node1&#45;&gt;Node2 -->
<g id="edge1" class="edge">
<title>Node1&#45;&gt;Node2</title>
<path fill="none" stroke="midnightblue" d="M1800.66,-113.95C1494.52,-111.64 497.8,-100.59 181,-53 178.04,-52.56 175.05,-52.05 172.03,-51.5"/>
<polygon fill="midnightblue" stroke="midnightblue" points="1800.8,-117.45 1810.82,-114.02 1800.85,-110.45 1800.8,-117.45"/>
</g>
<!-- Node3 -->
<g id="node3" class="node">
<title>Node3</title>
<g id="a_node3"><a xlink:title=" ">
<polygon fill="white" stroke="#bfbfbf" points="190,-0.5 190,-52.5 362,-52.5 362,-0.5 190,-0.5"/>
<text text-anchor="start" x="198" y="-40.5" font-family="Helvetica,sans-Serif" font-size="10.00">/nvme0/prudhomm/github</text>
<text text-anchor="start" x="198" y="-29.5" font-family="Helvetica,sans-Serif" font-size="10.00">&#45;actions/actions&#45;runner</text>
<text text-anchor="start" x="198" y="-18.5" font-family="Helvetica,sans-Serif" font-size="10.00">&#45;1/_work/feelpp/feelpp/testsuite</text>
<text text-anchor="middle" x="276" y="-7.5" font-family="Helvetica,sans-Serif" font-size="10.00">/feelcore/test_eigenrand.cpp</text>
</a>
</g>
</g>
<!-- Node1&#45;&gt;Node3 -->
<g id="edge2" class="edge">
<title>Node1&#45;&gt;Node3</title>
<path fill="none" stroke="midnightblue" d="M1800.75,-113.47C1517.62,-109.84 649.21,-95.43 371,-53 368.05,-52.55 365.05,-52.04 362.04,-51.49"/>
<polygon fill="midnightblue" stroke="midnightblue" points="1800.93,-116.98 1810.98,-113.6 1801.02,-109.98 1800.93,-116.98"/>
</g>
<!-- Node4 -->
<g id="node4" class="node">
<title>Node4</title>
<g id="a_node4"><a xlink:title=" ">
<polygon fill="white" stroke="#bfbfbf" points="380,-0.5 380,-52.5 552,-52.5 552,-0.5 380,-0.5"/>
<text text-anchor="start" x="388" y="-40.5" font-family="Helvetica,sans-Serif" font-size="10.00">/nvme0/prudhomm/github</text>
<text text-anchor="start" x="388" y="-29.5" font-family="Helvetica,sans-Serif" font-size="10.00">&#45;actions/actions&#45;runner</text>
<text text-anchor="start" x="388" y="-18.5" font-family="Helvetica,sans-Serif" font-size="10.00">&#45;1/_work/feelpp/feelpp/testsuite</text>
<text text-anchor="middle" x="466" y="-7.5" font-family="Helvetica,sans-Serif" font-size="10.00">/feelcore/test_enumerate.cpp</text>
</a>
</g>
</g>
<!-- Node1&#45;&gt;Node4 -->
<g id="edge3" class="edge">
<title>Node1&#45;&gt;Node4</title>
<path fill="none" stroke="midnightblue" d="M1800.63,-112.86C1541.77,-107.77 800.76,-90.27 561,-53 558.05,-52.54 555.05,-52.03 552.04,-51.46"/>
<polygon fill="midnightblue" stroke="midnightblue" points="1800.68,-116.37 1810.75,-113.06 1800.82,-109.37 1800.68,-116.37"/>
</g>
<!-- Node5 -->
<g id="node5" class="node">
<title>Node5</title>
<g id="a_node5"><a xlink:href="test__enums_8cpp.html" target="_top" xlink:title="&#45;*&#45; mode: c++; coding: utf&#45;8; tab&#45;width: 4; indent&#45;tabs&#45;mode: nil; c&#45;basic&#45;offset: 4; show&#45;trailing&#45;w...">
<polygon fill="white" stroke="black" points="570,-0.5 570,-52.5 742,-52.5 742,-0.5 570,-0.5"/>
<text text-anchor="start" x="578" y="-40.5" font-family="Helvetica,sans-Serif" font-size="10.00">/nvme0/prudhomm/github</text>
<text text-anchor="start" x="578" y="-29.5" font-family="Helvetica,sans-Serif" font-size="10.00">&#45;actions/actions&#45;runner</text>
<text text-anchor="start" x="578" y="-18.5" font-family="Helvetica,sans-Serif" font-size="10.00">&#45;1/_work/feelpp/feelpp/testsuite</text>
<text text-anchor="middle" x="656" y="-7.5" font-family="Helvetica,sans-Serif" font-size="10.00">/feelcore/test_enums.cpp</text>
</a>
</g>
</g>
<!-- Node1&#45;&gt;Node5 -->
<g id="edge4" class="edge">
<title>Node1&#45;&gt;Node5</title>
<path fill="none" stroke="midnightblue" d="M1800.81,-112.06C1568.3,-105.39 952.67,-85.14 751,-53 748.05,-52.53 745.06,-52 742.04,-51.43"/>
<polygon fill="midnightblue" stroke="midnightblue" points="1800.82,-115.56 1810.92,-112.35 1801.02,-108.57 1800.82,-115.56"/>
</g>
<!-- Node6 -->
<g id="node6" class="node">
<title>Node6</title>
<g id="a_node6"><a xlink:href="test__env_8cpp.html" target="_top" xlink:title=" ">
<polygon fill="white" stroke="black" points="760,-0.5 760,-52.5 932,-52.5 932,-0.5 760,-0.5"/>
<text text-anchor="start" x="768" y="-40.5" font-family="Helvetica,sans-Serif" font-size="10.00">/nvme0/prudhomm/github</text>
<text text-anchor="start" x="768" y="-29.5" font-family="Helvetica,sans-Serif" font-size="10.00">&#45;actions/actions&#45;runner</text>
<text text-anchor="start" x="768" y="-18.5" font-family="Helvetica,sans-Serif" font-size="10.00">&#45;1/_work/feelpp/feelpp/testsuite</text>
<text text-anchor="middle" x="846" y="-7.5" font-family="Helvetica,sans-Serif" font-size="10.00">/feelcore/test_env.cpp</text>
</a>
</g>
</g>
<!-- Node1&#45;&gt;Node6 -->
<g id="edge5" class="edge">
<title>Node1&#45;&gt;Node6</title>
<path fill="none" stroke="midnightblue" d="M1800.82,-114.57C1631.26,-113.4 1253.83,-104.59 941,-53 938.05,-52.51 935.06,-51.97 932.05,-51.39"/>
<polygon fill="midnightblue" stroke="midnightblue" points="1800.93,-118.07 1810.95,-114.63 1800.97,-111.07 1800.93,-118.07"/>
</g>
<!-- Node7 -->
<g id="node7" class="node">
<title>Node7</title>
<g id="a_node7"><a xlink:title=" ">
<polygon fill="white" stroke="#bfbfbf" points="950,-0.5 950,-52.5 1122,-52.5 1122,-0.5 950,-0.5"/>
<text text-anchor="start" x="958" y="-40.5" font-family="Helvetica,sans-Serif" font-size="10.00">/nvme0/prudhomm/github</text>
<text text-anchor="start" x="958" y="-29.5" font-family="Helvetica,sans-Serif" font-size="10.00">&#45;actions/actions&#45;runner</text>
<text text-anchor="start" x="958" y="-18.5" font-family="Helvetica,sans-Serif" font-size="10.00">&#45;1/_work/feelpp/feelpp/testsuite</text>
<text text-anchor="middle" x="1036" y="-7.5" font-family="Helvetica,sans-Serif" font-size="10.00">/feelcore/test_feelio.cpp</text>
</a>
</g>
</g>
<!-- Node1&#45;&gt;Node7 -->
<g id="edge6" class="edge">
<title>Node1&#45;&gt;Node7</title>
<path fill="none" stroke="midnightblue" d="M1800.75,-112.49C1657.73,-108.11 1370.63,-94.5 1131,-53 1128.06,-52.49 1125.07,-51.93 1122.06,-51.33"/>
<polygon fill="midnightblue" stroke="midnightblue" points="1800.7,-115.99 1810.8,-112.79 1800.91,-108.99 1800.7,-115.99"/>
</g>
<!-- Node8 -->
<g id="node8" class="node">
<title>Node8</title>
<g id="a_node8"><a xlink:href="test__git_8cpp.html" target="_top" xlink:title=" ">
<polygon fill="white" stroke="black" points="1140,-0.5 1140,-52.5 1312,-52.5 1312,-0.5 1140,-0.5"/>
<text text-anchor="start" x="1148" y="-40.5" font-family="Helvetica,sans-Serif" font-size="10.00">/nvme0/prudhomm/github</text>
<text text-anchor="start" x="1148" y="-29.5" font-family="Helvetica,sans-Serif" font-size="10.00">&#45;actions/actions&#45;runner</text>
<text text-anchor="start" x="1148" y="-18.5" font-family="Helvetica,sans-Serif" font-size="10.00">&#45;1/_work/feelpp/feelpp/testsuite</text>
<text text-anchor="middle" x="1226" y="-7.5" font-family="Helvetica,sans-Serif" font-size="10.00">/feelcore/test_git.cpp</text>
</a>
</g>
</g>
<!-- Node1&#45;&gt;Node8 -->
<g id="edge7" class="edge">
<title>Node1&#45;&gt;Node8</title>
<path fill="none" stroke="midnightblue" d="M1800.67,-109.09C1687.75,-101.33 1488.86,-84.39 1321,-53 1318.06,-52.45 1315.08,-51.86 1312.08,-51.23"/>
<polygon fill="midnightblue" stroke="midnightblue" points="1800.45,-112.58 1810.66,-109.76 1800.92,-105.6 1800.45,-112.58"/>
</g>
<!-- Node9 -->
<g id="node9" class="node">
<title>Node9</title>
<g id="a_node9"><a xlink:title=" ">
<polygon fill="white" stroke="#bfbfbf" points="1330,-0.5 1330,-52.5 1502,-52.5 1502,-0.5 1330,-0.5"/>
<text text-anchor="start" x="1338" y="-40.5" font-family="Helvetica,sans-Serif" font-size="10.00">/nvme0/prudhomm/github</text>
<text text-anchor="start" x="1338" y="-29.5" font-family="Helvetica,sans-Serif" font-size="10.00">&#45;actions/actions&#45;runner</text>
<text text-anchor="start" x="1338" y="-18.5" font-family="Helvetica,sans-Serif" font-size="10.00">&#45;1/_work/feelpp/feelpp/testsuite</text>
<text text-anchor="middle" x="1416" y="-7.5" font-family="Helvetica,sans-Serif" font-size="10.00">/feelcore/test_hana.cpp</text>
</a>
</g>
</g>
<!-- Node1&#45;&gt;Node9 -->
<g id="edge8" class="edge">
<title>Node1&#45;&gt;Node9</title>
<path fill="none" stroke="midnightblue" d="M1800.68,-102.52C1723.38,-91.64 1609.34,-74.1 1511,-53 1508.08,-52.37 1505.11,-51.71 1502.12,-51.03"/>
<polygon fill="midnightblue" stroke="midnightblue" points="1800.47,-106.03 1810.86,-103.95 1801.44,-99.1 1800.47,-106.03"/>
</g>
<!-- Node10 -->
<g id="node10" class="node">
<title>Node10</title>
<g id="a_node10"><a xlink:href="test__hdf5_8cpp.html" target="_top" xlink:title=" ">
<polygon fill="white" stroke="black" points="1520,-0.5 1520,-52.5 1692,-52.5 1692,-0.5 1520,-0.5"/>
<text text-anchor="start" x="1528" y="-40.5" font-family="Helvetica,sans-Serif" font-size="10.00">/nvme0/prudhomm/github</text>
<text text-anchor="start" x="1528" y="-29.5" font-family="Helvetica,sans-Serif" font-size="10.00">&#45;actions/actions&#45;runner</text>
<text text-anchor="start" x="1528" y="-18.5" font-family="Helvetica,sans-Serif" font-size="10.00">&#45;1/_work/feelpp/feelpp/testsuite</text>
<text text-anchor="middle" x="1606" y="-7.5" font-family="Helvetica,sans-Serif" font-size="10.00">/feelcore/test_hdf5.cpp</text>
</a>
</g>
</g>
<!-- Node1&#45;&gt;Node10 -->
<g id="edge9" class="edge">
<title>Node1&#45;&gt;Node10</title>
<path fill="none" stroke="midnightblue" d="M1801.27,-87.11C1765.02,-76.04 1723.45,-63.35 1688.02,-52.54"/>
<polygon fill="midnightblue" stroke="midnightblue" points="1800.27,-90.46 1810.85,-90.03 1802.31,-83.77 1800.27,-90.46"/>
</g>
<!-- Node11 -->
<g id="node11" class="node">
<title>Node11</title>
<g id="a_node11"><a xlink:href="test__json_8cpp.html" target="_top" xlink:title=" ">
<polygon fill="white" stroke="black" points="1710,-0.5 1710,-52.5 1882,-52.5 1882,-0.5 1710,-0.5"/>
<text text-anchor="start" x="1718" y="-40.5" font-family="Helvetica,sans-Serif" font-size="10.00">/nvme0/prudhomm/github</text>
<text text-anchor="start" x="1718" y="-29.5" font-family="Helvetica,sans-Serif" font-size="10.00">&#45;actions/actions&#45;runner</text>
<text text-anchor="start" x="1718" y="-18.5" font-family="Helvetica,sans-Serif" font-size="10.00">&#45;1/_work/feelpp/feelpp/testsuite</text>
<text text-anchor="middle" x="1796" y="-7.5" font-family="Helvetica,sans-Serif" font-size="10.00">/feelcore/test_json.cpp</text>
</a>
</g>
</g>
<!-- Node1&#45;&gt;Node11 -->
<g id="edge10" class="edge">
<title>Node1&#45;&gt;Node11</title>
<path fill="none" stroke="midnightblue" d="M1855.91,-82.36C1845.18,-72.54 1833.55,-61.89 1823.42,-52.61"/>
<polygon fill="midnightblue" stroke="midnightblue" points="1853.78,-85.16 1863.52,-89.34 1858.51,-80 1853.78,-85.16"/>
</g>
<!-- Node12 -->
<g id="node12" class="node">
<title>Node12</title>
<g id="a_node12"><a xlink:title=" ">
<polygon fill="white" stroke="#bfbfbf" points="1900,-0.5 1900,-52.5 2072,-52.5 2072,-0.5 1900,-0.5"/>
<text text-anchor="start" x="1908" y="-40.5" font-family="Helvetica,sans-Serif" font-size="10.00">/nvme0/prudhomm/github</text>
<text text-anchor="start" x="1908" y="-29.5" font-family="Helvetica,sans-Serif" font-size="10.00">&#45;actions/actions&#45;runner</text>
<text text-anchor="start" x="1908" y="-18.5" font-family="Helvetica,sans-Serif" font-size="10.00">&#45;1/_work/feelpp/feelpp/testsuite</text>
<text text-anchor="middle" x="1986" y="-7.5" font-family="Helvetica,sans-Serif" font-size="10.00">/feelcore/test_mongo.cpp</text>
</a>
</g>
</g>
<!-- Node1&#45;&gt;Node12 -->
<g id="edge11" class="edge">
<title>Node1&#45;&gt;Node12</title>
<path fill="none" stroke="midnightblue" d="M1926.09,-82.36C1936.82,-72.54 1948.45,-61.89 1958.58,-52.61"/>
<polygon fill="midnightblue" stroke="midnightblue" points="1923.49,-80 1918.48,-89.34 1928.22,-85.16 1923.49,-80"/>
</g>
<!-- Node13 -->
<g id="node13" class="node">
<title>Node13</title>
<g id="a_node13"><a xlink:title=" ">
<polygon fill="white" stroke="#bfbfbf" points="2090,-0.5 2090,-52.5 2262,-52.5 2262,-0.5 2090,-0.5"/>
<text text-anchor="start" x="2098" y="-40.5" font-family="Helvetica,sans-Serif" font-size="10.00">/nvme0/prudhomm/github</text>
<text text-anchor="start" x="2098" y="-29.5" font-family="Helvetica,sans-Serif" font-size="10.00">&#45;actions/actions&#45;runner</text>
<text text-anchor="start" x="2098" y="-18.5" font-family="Helvetica,sans-Serif" font-size="10.00">&#45;1/_work/feelpp/feelpp/testsuite</text>
<text text-anchor="middle" x="2176" y="-7.5" font-family="Helvetica,sans-Serif" font-size="10.00">/feelcore/test_observer.cpp</text>
</a>
</g>
</g>
<!-- Node1&#45;&gt;Node13 -->
<g id="edge12" class="edge">
<title>Node1&#45;&gt;Node13</title>
<path fill="none" stroke="midnightblue" d="M1980.73,-87.11C2016.98,-76.04 2058.55,-63.35 2093.98,-52.54"/>
<polygon fill="midnightblue" stroke="midnightblue" points="1979.69,-83.77 1971.15,-90.03 1981.73,-90.46 1979.69,-83.77"/>
</g>
<!-- Node14 -->
<g id="node14" class="node">
<title>Node14</title>
<g id="a_node14"><a xlink:title=" ">
<polygon fill="white" stroke="#bfbfbf" points="2280,-0.5 2280,-52.5 2462,-52.5 2462,-0.5 2280,-0.5"/>
<text text-anchor="start" x="2288" y="-40.5" font-family="Helvetica,sans-Serif" font-size="10.00">/nvme0/prudhomm/github</text>
<text text-anchor="start" x="2288" y="-29.5" font-family="Helvetica,sans-Serif" font-size="10.00">&#45;actions/actions&#45;runner</text>
<text text-anchor="start" x="2288" y="-18.5" font-family="Helvetica,sans-Serif" font-size="10.00">&#45;1/_work/feelpp/feelpp/testsuite</text>
<text text-anchor="middle" x="2371" y="-7.5" font-family="Helvetica,sans-Serif" font-size="10.00">/feelcore/test_observer_mesh.cpp</text>
</a>
</g>
</g>
<!-- Node1&#45;&gt;Node14 -->
<g id="edge13" class="edge">
<title>Node1&#45;&gt;Node14</title>
<path fill="none" stroke="midnightblue" d="M1981.26,-102.21C2058.51,-91.13 2172.53,-73.48 2271,-53 2273.89,-52.4 2276.83,-51.77 2279.79,-51.12"/>
<polygon fill="midnightblue" stroke="midnightblue" points="1980.48,-98.78 1971.08,-103.66 1981.47,-105.71 1980.48,-98.78"/>
</g>
<!-- Node15 -->
<g id="node15" class="node">
<title>Node15</title>
<g id="a_node15"><a xlink:title=" ">
<polygon fill="white" stroke="#bfbfbf" points="2480,-0.5 2480,-52.5 2656,-52.5 2656,-0.5 2480,-0.5"/>
<text text-anchor="start" x="2488" y="-40.5" font-family="Helvetica,sans-Serif" font-size="10.00">/nvme0/prudhomm/github</text>
<text text-anchor="start" x="2488" y="-29.5" font-family="Helvetica,sans-Serif" font-size="10.00">&#45;actions/actions&#45;runner</text>
<text text-anchor="start" x="2488" y="-18.5" font-family="Helvetica,sans-Serif" font-size="10.00">&#45;1/_work/feelpp/feelpp/testsuite</text>
<text text-anchor="middle" x="2568" y="-7.5" font-family="Helvetica,sans-Serif" font-size="10.00">/feelcore/test_ptree_editions.cpp</text>
</a>
</g>
</g>
<!-- Node1&#45;&gt;Node15 -->
<g id="edge14" class="edge">
<title>Node1&#45;&gt;Node15</title>
<path fill="none" stroke="midnightblue" d="M1981.43,-109.17C2096.05,-101.44 2299.39,-84.47 2471,-53 2473.91,-52.47 2476.86,-51.89 2479.84,-51.28"/>
<polygon fill="midnightblue" stroke="midnightblue" points="1981.04,-105.69 1971.29,-109.84 1981.5,-112.67 1981.04,-105.69"/>
</g>
<!-- Node16 -->
<g id="node16" class="node">
<title>Node16</title>
<g id="a_node16"><a xlink:title=" ">
<polygon fill="white" stroke="#bfbfbf" points="2674,-0.5 2674,-52.5 2846,-52.5 2846,-0.5 2674,-0.5"/>
<text text-anchor="start" x="2682" y="-40.5" font-family="Helvetica,sans-Serif" font-size="10.00">/nvme0/prudhomm/github</text>
<text text-anchor="start" x="2682" y="-29.5" font-family="Helvetica,sans-Serif" font-size="10.00">&#45;actions/actions&#45;runner</text>
<text text-anchor="start" x="2682" y="-18.5" font-family="Helvetica,sans-Serif" font-size="10.00">&#45;1/_work/feelpp/feelpp/testsuite</text>
<text text-anchor="middle" x="2760" y="-7.5" font-family="Helvetica,sans-Serif" font-size="10.00">/feelcore/test_range.cpp</text>
</a>
</g>
</g>
<!-- Node1&#45;&gt;Node16 -->
<g id="edge15" class="edge">
<title>Node1&#45;&gt;Node16</title>
<path fill="none" stroke="midnightblue" d="M1981.46,-112.67C2126.62,-108.53 2420.15,-95.22 2665,-53 2667.94,-52.49 2670.93,-51.93 2673.94,-51.34"/>
<polygon fill="midnightblue" stroke="midnightblue" points="1981.17,-109.17 1971.27,-112.95 1981.36,-116.17 1981.17,-109.17"/>
</g>
<!-- Node17 -->
<g id="node17" class="node">
<title>Node17</title>
<g id="a_node17"><a xlink:title=" ">
<polygon fill="white" stroke="#bfbfbf" points="2864,-0.5 2864,-52.5 3060,-52.5 3060,-0.5 2864,-0.5"/>
<text text-anchor="start" x="2872" y="-40.5" font-family="Helvetica,sans-Serif" font-size="10.00">/nvme0/prudhomm/github</text>
<text text-anchor="start" x="2872" y="-29.5" font-family="Helvetica,sans-Serif" font-size="10.00">&#45;actions/actions&#45;runner</text>
<text text-anchor="start" x="2872" y="-18.5" font-family="Helvetica,sans-Serif" font-size="10.00">&#45;1/_work/feelpp/feelpp/testsuite</text>
<text text-anchor="middle" x="2962" y="-7.5" font-family="Helvetica,sans-Serif" font-size="10.00">/feelcore/test_removecomments.cpp</text>
</a>
</g>
</g>
<!-- Node1&#45;&gt;Node17 -->
<g id="edge16" class="edge">
<title>Node1&#45;&gt;Node17</title>
<path fill="none" stroke="midnightblue" d="M1981.39,-113.85C2152.74,-111.49 2536.24,-100.79 2855,-53 2857.93,-52.56 2860.89,-52.08 2863.88,-51.57"/>
<polygon fill="midnightblue" stroke="midnightblue" points="1981.11,-110.35 1971.15,-113.98 1981.2,-117.35 1981.11,-110.35"/>
</g>
<!-- Node18 -->
<g id="node18" class="node">
<title>Node18</title>
<g id="a_node18"><a xlink:title=" ">
<polygon fill="white" stroke="#bfbfbf" points="3078,-0.5 3078,-52.5 3250,-52.5 3250,-0.5 3078,-0.5"/>
<text text-anchor="start" x="3086" y="-40.5" font-family="Helvetica,sans-Serif" font-size="10.00">/nvme0/prudhomm/github</text>
<text text-anchor="start" x="3086" y="-29.5" font-family="Helvetica,sans-Serif" font-size="10.00">&#45;actions/actions&#45;runner</text>
<text text-anchor="start" x="3086" y="-18.5" font-family="Helvetica,sans-Serif" font-size="10.00">&#45;1/_work/feelpp/feelpp/testsuite</text>
<text text-anchor="middle" x="3164" y="-7.5" font-family="Helvetica,sans-Serif" font-size="10.00">/feelcore/test_serialization.cpp</text>
</a>
</g>
</g>
<!-- Node1&#45;&gt;Node18 -->
<g id="edge17" class="edge">
<title>Node1&#45;&gt;Node18</title>
<path fill="none" stroke="midnightblue" d="M1981.28,-112.24C2219.25,-105.89 2859.75,-86.17 3069,-53 3071.95,-52.53 3074.94,-52.01 3077.96,-51.44"/>
<polygon fill="midnightblue" stroke="midnightblue" points="1981.18,-108.74 1971.27,-112.51 1981.36,-115.74 1981.18,-108.74"/>
</g>
<!-- Node19 -->
<g id="node19" class="node">
<title>Node19</title>
<g id="a_node19"><a xlink:href="test__simget_8cpp.html" target="_top" xlink:title=" ">
<polygon fill="white" stroke="black" points="3268,-0.5 3268,-52.5 3440,-52.5 3440,-0.5 3268,-0.5"/>
<text text-anchor="start" x="3276" y="-40.5" font-family="Helvetica,sans-Serif" font-size="10.00">/nvme0/prudhomm/github</text>
<text text-anchor="start" x="3276" y="-29.5" font-family="Helvetica,sans-Serif" font-size="10.00">&#45;actions/actions&#45;runner</text>
<text text-anchor="start" x="3276" y="-18.5" font-family="Helvetica,sans-Serif" font-size="10.00">&#45;1/_work/feelpp/feelpp/testsuite</text>
<text text-anchor="middle" x="3354" y="-7.5" font-family="Helvetica,sans-Serif" font-size="10.00">/feelcore/test_simget.cpp</text>
</a>
</g>
</g>
<!-- Node1&#45;&gt;Node19 -->
<g id="edge18" class="edge">
<title>Node1&#45;&gt;Node19</title>
<path fill="none" stroke="midnightblue" d="M1981.61,-112.99C2245.72,-108.2 3011.65,-91.29 3259,-53 3261.95,-52.54 3264.95,-52.03 3267.96,-51.47"/>
<polygon fill="midnightblue" stroke="midnightblue" points="1981.24,-109.5 1971.3,-113.18 1981.36,-116.5 1981.24,-109.5"/>
</g>
<!-- Node20 -->
<g id="node20" class="node">
<title>Node20</title>
<g id="a_node20"><a xlink:href="test__taskflow_8cpp.html" target="_top" xlink:title=" ">
<polygon fill="white" stroke="black" points="3458,-0.5 3458,-52.5 3630,-52.5 3630,-0.5 3458,-0.5"/>
<text text-anchor="start" x="3466" y="-40.5" font-family="Helvetica,sans-Serif" font-size="10.00">/nvme0/prudhomm/github</text>
<text text-anchor="start" x="3466" y="-29.5" font-family="Helvetica,sans-Serif" font-size="10.00">&#45;actions/actions&#45;runner</text>
<text text-anchor="start" x="3466" y="-18.5" font-family="Helvetica,sans-Serif" font-size="10.00">&#45;1/_work/feelpp/feelpp/testsuite</text>
<text text-anchor="middle" x="3544" y="-7.5" font-family="Helvetica,sans-Serif" font-size="10.00">/feelcore/test_taskflow.cpp</text>
</a>
</g>
</g>
<!-- Node1&#45;&gt;Node20 -->
<g id="edge19" class="edge">
<title>Node1&#45;&gt;Node20</title>
<path fill="none" stroke="midnightblue" d="M1981.5,-113.57C2269.59,-110.21 3163.17,-96.45 3449,-53 3451.95,-52.55 3454.95,-52.04 3457.96,-51.49"/>
<polygon fill="midnightblue" stroke="midnightblue" points="1981.05,-110.08 1971.09,-113.69 1981.13,-117.08 1981.05,-110.08"/>
</g>
<!-- Node21 -->
<g id="node21" class="node">
<title>Node21</title>
<g id="a_node21"><a xlink:title=" ">
<polygon fill="white" stroke="#bfbfbf" points="3648,-0.5 3648,-52.5 3820,-52.5 3820,-0.5 3648,-0.5"/>
<text text-anchor="start" x="3656" y="-40.5" font-family="Helvetica,sans-Serif" font-size="10.00">/nvme0/prudhomm/github</text>
<text text-anchor="start" x="3656" y="-29.5" font-family="Helvetica,sans-Serif" font-size="10.00">&#45;actions/actions&#45;runner</text>
<text text-anchor="start" x="3656" y="-18.5" font-family="Helvetica,sans-Serif" font-size="10.00">&#45;1/_work/feelpp/feelpp/testsuite</text>
<text text-anchor="middle" x="3734" y="-7.5" font-family="Helvetica,sans-Serif" font-size="10.00">/feelcore/test_worldcomm.cpp</text>
</a>
</g>
</g>
<!-- Node1&#45;&gt;Node21 -->
<g id="edge20" class="edge">
<title>Node1&#45;&gt;Node21</title>
<path fill="none" stroke="midnightblue" d="M1981.47,-114.03C2292.2,-111.98 3314.5,-101.61 3639,-53 3641.96,-52.56 3644.95,-52.06 3647.97,-51.51"/>
<polygon fill="midnightblue" stroke="midnightblue" points="1981.14,-110.53 1971.16,-114.09 1981.18,-117.53 1981.14,-110.53"/>
</g>
</g>
</svg>
        <g id="navigator" transform="translate(0 0)" fill="#404254">
                <rect fill="#f2f5e9" fill-opacity="0.5" stroke="#606060" stroke-width=".5" x="0" y="0" width="60" height="60"/>
                <use id="zoomplus" xlink:href="#zoomPlus" x="17" y="9" onmousedown="handleZoom(evt,'in')"/>
                <use id="zoomminus" xlink:href="#zoomMin" x="42" y="9" onmousedown="handleZoom(evt,'out')"/>
                <use id="reset" xlink:href="#resetDef" x="30" y="36" onmousedown="handleReset()"/>
                <g id="arrowUp" xlink:href="#dirArrow" transform="translate(30 24)" onmousedown="handlePan(0,-1)">
                  <use xlink:href="#rim" fill="#404040">
                        <set attributeName="fill" to="#808080" begin="arrowUp.mouseover" end="arrowUp.mouseout"/>
                  </use>
                  <path fill="none" stroke="white" stroke-width="1.5" d="M0,-3.0v7 M-2.5,-0.5L0,-3.0L2.5,-0.5"/>
                </g>
                <g id="arrowRight" xlink:href="#dirArrow" transform="rotate(90) translate(36 -43)" onmousedown="handlePan(1,0)">
                  <use xlink:href="#rim" fill="#404040">
                        <set attributeName="fill" to="#808080" begin="arrowRight.mouseover" end="arrowRight.mouseout"/>
                  </use>
                  <path fill="none" stroke="white" stroke-width="1.5" d="M0,-3.0v7 M-2.5,-0.5L0,-3.0L2.5,-0.5"/>
                </g>
                <g id="arrowDown" xlink:href="#dirArrow" transform="rotate(180) translate(-30 -48)" onmousedown="handlePan(0,1)">
                  <use xlink:href="#rim" fill="#404040">
                        <set attributeName="fill" to="#808080" begin="arrowDown.mouseover" end="arrowDown.mouseout"/>
                  </use>
                  <path fill="none" stroke="white" stroke-width="1.5" d="M0,-3.0v7 M-2.5,-0.5L0,-3.0L2.5,-0.5"/>
                </g>
                <g id="arrowLeft" xlink:href="#dirArrow" transform="rotate(270) translate(-36 17)" onmousedown="handlePan(-1,0)">
                  <use xlink:href="#rim" fill="#404040">
                        <set attributeName="fill" to="#808080" begin="arrowLeft.mouseover" end="arrowLeft.mouseout"/>
                  </use>
                  <path fill="none" stroke="white" stroke-width="1.5" d="M0,-3.0v7 M-2.5,-0.5L0,-3.0L2.5,-0.5"/>
                </g>
        </g>
        <svg viewBox="0 0 15 15" width="100%" height="30px" preserveAspectRatio="xMaxYMin meet">
         <g id="arrow_out" transform="scale(0.3 0.3)">
          <a xlink:href="testsuite_8hpp__dep__incl_org.svg" target="_base">
           <rect id="button" ry="5" rx="5" y="6" x="6" height="38" width="38"
                fill="#f2f5e9" fill-opacity="0.5" stroke="#606060" stroke-width="1.0"/>
           <path id="arrow"
             d="M 11.500037,31.436501 C 11.940474,20.09759 22.043105,11.32322 32.158766,21.979434 L 37.068811,17.246167 C 37.068811,17.246167 37.088388,32 37.088388,32 L 22.160133,31.978069 C 22.160133,31.978069 26.997745,27.140456 26.997745,27.140456 C 18.528582,18.264221 13.291696,25.230495 11.500037,31.436501 z"
             style="fill:#404040;"/>
          </a>
         </g>
        </svg>
</svg>
