<?xml version="1.0" encoding="UTF-8" standalone="no"?>
<!DOCTYPE svg PUBLIC "-//W3C//DTD SVG 1.1//EN"
 "http://www.w3.org/Graphics/SVG/1.1/DTD/svg11.dtd">
<!-- Generated by graphviz version 2.43.0 (0)
 -->
<!-- Title: /data/cemosis/github&#45;actions&#45;runner/actions&#45;runner&#45;feelpp&#45;1/_work/feelpp/feelpp/testsuite/feelcore/test_factory.cpp Pages: 1 -->
<svg width="350pt" height="128pt"
 viewBox="0.00 0.00 349.50 128.00" xmlns="http://www.w3.org/2000/svg" xmlns:xlink="http://www.w3.org/1999/xlink">
<g id="graph0" class="graph" transform="scale(1 1) rotate(0) translate(4 124)">
<title>/data/cemosis/github&#45;actions&#45;runner/actions&#45;runner&#45;feelpp&#45;1/_work/feelpp/feelpp/testsuite/feelcore/test_factory.cpp</title>
<polygon fill="white" stroke="transparent" points="-4,4 -4,-124 345.5,-124 345.5,4 -4,4"/>
<!-- Node1 -->
<g id="node1" class="node">
<title>Node1</title>
<g id="a_node1"><a xlink:title=" ">
<polygon fill="#bfbfbf" stroke="black" points="69,-56.5 69,-119.5 195,-119.5 195,-56.5 69,-56.5"/>
<text text-anchor="start" x="77" y="-107.5" font-family="Helvetica,sans-Serif" font-size="10.00">/data/cemosis/github</text>
<text text-anchor="start" x="77" y="-96.5" font-family="Helvetica,sans-Serif" font-size="10.00">&#45;actions&#45;runner/actions</text>
<text text-anchor="start" x="77" y="-85.5" font-family="Helvetica,sans-Serif" font-size="10.00">&#45;runner&#45;feelpp&#45;1/_work</text>
<text text-anchor="start" x="77" y="-74.5" font-family="Helvetica,sans-Serif" font-size="10.00">/feelpp/feelpp/testsuite</text>
<text text-anchor="middle" x="132" y="-63.5" font-family="Helvetica,sans-Serif" font-size="10.00">/feelcore/test_factory.cpp</text>
</a>
</g>
</g>
<!-- Node2 -->
<g id="node2" class="node">
<title>Node2</title>
<g id="a_node2"><a xlink:title=" ">
<polygon fill="white" stroke="#bfbfbf" points="0,-0.5 0,-19.5 54,-19.5 54,-0.5 0,-0.5"/>
<text text-anchor="middle" x="27" y="-7.5" font-family="Helvetica,sans-Serif" font-size="10.00">iostream</text>
</a>
</g>
</g>
<!-- Node1&#45;&gt;Node2 -->
<g id="edge1" class="edge">
<title>Node1&#45;&gt;Node2</title>
<path fill="none" stroke="midnightblue" d="M89.6,-56.31C75.08,-45.8 59.5,-34.52 47.51,-25.85"/>
<polygon fill="midnightblue" stroke="midnightblue" points="49.27,-22.8 39.12,-19.77 45.17,-28.47 49.27,-22.8"/>
</g>
<!-- Node3 -->
<g id="node3" class="node">
<title>Node3</title>
<g id="a_node3"><a xlink:title=" ">
<polygon fill="white" stroke="#bfbfbf" points="72,-0.5 72,-19.5 192,-19.5 192,-0.5 72,-0.5"/>
<text text-anchor="middle" x="132" y="-7.5" font-family="Helvetica,sans-Serif" font-size="10.00">feel/feelcore/factory.hpp</text>
</a>
</g>
</g>
<!-- Node1&#45;&gt;Node3 -->
<g id="edge2" class="edge">
<title>Node1&#45;&gt;Node3</title>
<path fill="none" stroke="midnightblue" d="M132,-56.09C132,-47.15 132,-37.67 132,-29.72"/>
<polygon fill="midnightblue" stroke="midnightblue" points="135.5,-29.72 132,-19.72 128.5,-29.72 135.5,-29.72"/>
</g>
<!-- Node4 -->
<g id="node4" class="node">
<title>Node4</title>
<g id="a_node4"><a xlink:href="singleton_8hpp.html" target="_top" xlink:title=" ">
<polygon fill="white" stroke="black" points="210.5,-0.5 210.5,-19.5 341.5,-19.5 341.5,-0.5 210.5,-0.5"/>
<text text-anchor="middle" x="276" y="-7.5" font-family="Helvetica,sans-Serif" font-size="10.00">feel/feelcore/singleton.hpp</text>
</a>
</g>
</g>
<!-- Node1&#45;&gt;Node4 -->
<g id="edge3" class="edge">
<title>Node1&#45;&gt;Node4</title>
<path fill="none" stroke="midnightblue" d="M190.16,-56.31C211.17,-45.22 233.81,-33.27 250.57,-24.42"/>
<polygon fill="midnightblue" stroke="midnightblue" points="252.48,-27.37 259.69,-19.61 249.22,-21.18 252.48,-27.37"/>
</g>
</g>
</svg>
