<?xml version="1.0" encoding="UTF-8" standalone="no"?>
<!DOCTYPE svg PUBLIC "-//W3C//DTD SVG 1.1//EN"
 "http://www.w3.org/Graphics/SVG/1.1/DTD/svg11.dtd">
<!-- Generated by graphviz version 2.43.0 (0)
 -->
<!-- Title: /nvme0/prudhomm/actions&#45;runner/_work/feelpp/feelpp/feelpp/feel/feelcore/testsuite.hpp Pages: 1 -->
<svg width="3676pt" height="139pt"
 viewBox="0.00 0.00 3676.00 139.00" xmlns="http://www.w3.org/2000/svg" xmlns:xlink="http://www.w3.org/1999/xlink">
<g id="graph0" class="graph" transform="scale(1 1) rotate(0) translate(4 135)">
<title>/nvme0/prudhomm/actions&#45;runner/_work/feelpp/feelpp/feelpp/feel/feelcore/testsuite.hpp</title>
<polygon fill="white" stroke="transparent" points="-4,4 -4,-135 3672,-135 3672,4 -4,4"/>
<!-- Node1 -->
<g id="node1" class="node">
<title>Node1</title>
<g id="a_node1"><a xlink:title=" ">
<polygon fill="#bfbfbf" stroke="black" points="1674,-89.5 1674,-130.5 1856,-130.5 1856,-89.5 1674,-89.5"/>
<text text-anchor="start" x="1682" y="-118.5" font-family="Helvetica,sans-Serif" font-size="10.00">/nvme0/prudhomm/actions</text>
<text text-anchor="start" x="1682" y="-107.5" font-family="Helvetica,sans-Serif" font-size="10.00">&#45;runner/_work/feelpp/feelpp</text>
<text text-anchor="middle" x="1765" y="-96.5" font-family="Helvetica,sans-Serif" font-size="10.00">/feelpp/feel/feelcore/testsuite.hpp</text>
</a>
</g>
</g>
<!-- Node2 -->
<g id="node2" class="node">
<title>Node2</title>
<g id="a_node2"><a xlink:title=" ">
<polygon fill="white" stroke="#bfbfbf" points="0,-6 0,-47 198,-47 198,-6 0,-6"/>
<text text-anchor="start" x="8" y="-35" font-family="Helvetica,sans-Serif" font-size="10.00">/nvme0/prudhomm/actions</text>
<text text-anchor="start" x="8" y="-24" font-family="Helvetica,sans-Serif" font-size="10.00">&#45;runner/_work/feelpp/feelpp</text>
<text text-anchor="middle" x="99" y="-13" font-family="Helvetica,sans-Serif" font-size="10.00">/testsuite/feelcore/test_boostmpi.cpp</text>
</a>
</g>
</g>
<!-- Node1&#45;&gt;Node2 -->
<g id="edge1" class="edge">
<title>Node1&#45;&gt;Node2</title>
<path fill="none" stroke="midnightblue" d="M1663.46,-107.95C1364.37,-104.44 489.91,-91.11 207,-53 196.02,-51.52 184.53,-49.42 173.3,-47.05"/>
<polygon fill="midnightblue" stroke="midnightblue" points="1663.82,-111.45 1673.86,-108.07 1663.9,-104.45 1663.82,-111.45"/>
</g>
<!-- Node3 -->
<g id="node3" class="node">
<title>Node3</title>
<g id="a_node3"><a xlink:href="test__enums_8cpp.html" target="_top" xlink:title="&#45;*&#45; mode: c++; coding: utf&#45;8; tab&#45;width: 4; indent&#45;tabs&#45;mode: nil; c&#45;basic&#45;offset: 4; show&#45;trailing&#45;w...">
<polygon fill="white" stroke="black" points="216.5,-6 216.5,-47 401.5,-47 401.5,-6 216.5,-6"/>
<text text-anchor="start" x="224.5" y="-35" font-family="Helvetica,sans-Serif" font-size="10.00">/nvme0/prudhomm/actions</text>
<text text-anchor="start" x="224.5" y="-24" font-family="Helvetica,sans-Serif" font-size="10.00">&#45;runner/_work/feelpp/feelpp</text>
<text text-anchor="middle" x="309" y="-13" font-family="Helvetica,sans-Serif" font-size="10.00">/testsuite/feelcore/test_enums.cpp</text>
</a>
</g>
</g>
<!-- Node1&#45;&gt;Node3 -->
<g id="edge2" class="edge">
<title>Node1&#45;&gt;Node3</title>
<path fill="none" stroke="midnightblue" d="M1663.47,-107.48C1391.8,-102.98 652.55,-87.82 411,-53 400.61,-51.5 389.74,-49.39 379.14,-47.02"/>
<polygon fill="midnightblue" stroke="midnightblue" points="1663.66,-110.98 1673.71,-107.65 1663.77,-103.98 1663.66,-110.98"/>
</g>
<!-- Node4 -->
<g id="node4" class="node">
<title>Node4</title>
<g id="a_node4"><a xlink:href="test__env_8cpp.html" target="_top" xlink:title=" ">
<polygon fill="white" stroke="black" points="420,-6 420,-47 590,-47 590,-6 420,-6"/>
<text text-anchor="start" x="428" y="-35" font-family="Helvetica,sans-Serif" font-size="10.00">/nvme0/prudhomm/actions</text>
<text text-anchor="start" x="428" y="-24" font-family="Helvetica,sans-Serif" font-size="10.00">&#45;runner/_work/feelpp/feelpp</text>
<text text-anchor="middle" x="505" y="-13" font-family="Helvetica,sans-Serif" font-size="10.00">/testsuite/feelcore/test_env.cpp</text>
</a>
</g>
</g>
<!-- Node1&#45;&gt;Node4 -->
<g id="edge3" class="edge">
<title>Node1&#45;&gt;Node4</title>
<path fill="none" stroke="midnightblue" d="M1663.53,-106.95C1419.06,-101.56 802.64,-85.12 599,-53 589.48,-51.5 579.54,-49.4 569.84,-47.05"/>
<polygon fill="midnightblue" stroke="midnightblue" points="1663.76,-110.46 1673.83,-107.18 1663.91,-103.46 1663.76,-110.46"/>
</g>
<!-- Node5 -->
<g id="node5" class="node">
<title>Node5</title>
<g id="a_node5"><a xlink:title=" ">
<polygon fill="white" stroke="#bfbfbf" points="608,-6 608,-47 788,-47 788,-6 608,-6"/>
<text text-anchor="start" x="616" y="-35" font-family="Helvetica,sans-Serif" font-size="10.00">/nvme0/prudhomm/actions</text>
<text text-anchor="start" x="616" y="-24" font-family="Helvetica,sans-Serif" font-size="10.00">&#45;runner/_work/feelpp/feelpp</text>
<text text-anchor="middle" x="698" y="-13" font-family="Helvetica,sans-Serif" font-size="10.00">/testsuite/feelcore/test_feelio.cpp</text>
</a>
</g>
</g>
<!-- Node1&#45;&gt;Node5 -->
<g id="edge4" class="edge">
<title>Node1&#45;&gt;Node5</title>
<path fill="none" stroke="midnightblue" d="M1663.89,-109.59C1487.02,-109.18 1110.46,-101.96 797,-53 787.09,-51.45 776.74,-49.35 766.61,-47"/>
<polygon fill="midnightblue" stroke="midnightblue" points="1663.96,-113.09 1673.96,-109.6 1663.97,-106.09 1663.96,-113.09"/>
</g>
<!-- Node6 -->
<g id="node6" class="node">
<title>Node6</title>
<g id="a_node6"><a xlink:href="test__git_8cpp.html" target="_top" xlink:title=" ">
<polygon fill="white" stroke="black" points="806.5,-6 806.5,-47 971.5,-47 971.5,-6 806.5,-6"/>
<text text-anchor="start" x="814.5" y="-35" font-family="Helvetica,sans-Serif" font-size="10.00">/nvme0/prudhomm/actions</text>
<text text-anchor="start" x="814.5" y="-24" font-family="Helvetica,sans-Serif" font-size="10.00">&#45;runner/_work/feelpp/feelpp</text>
<text text-anchor="middle" x="889" y="-13" font-family="Helvetica,sans-Serif" font-size="10.00">/testsuite/feelcore/test_git.cpp</text>
</a>
</g>
</g>
<!-- Node1&#45;&gt;Node6 -->
<g id="edge5" class="edge">
<title>Node1&#45;&gt;Node6</title>
<path fill="none" stroke="midnightblue" d="M1663.62,-108.18C1513.46,-105.52 1223.53,-94.84 981,-53 971.94,-51.44 962.48,-49.35 953.22,-47.05"/>
<polygon fill="midnightblue" stroke="midnightblue" points="1663.69,-111.68 1673.75,-108.35 1663.81,-104.68 1663.69,-111.68"/>
</g>
<!-- Node7 -->
<g id="node7" class="node">
<title>Node7</title>
<g id="a_node7"><a xlink:title=" ">
<polygon fill="white" stroke="#bfbfbf" points="990,-6 990,-47 1166,-47 1166,-6 990,-6"/>
<text text-anchor="start" x="998" y="-35" font-family="Helvetica,sans-Serif" font-size="10.00">/nvme0/prudhomm/actions</text>
<text text-anchor="start" x="998" y="-24" font-family="Helvetica,sans-Serif" font-size="10.00">&#45;runner/_work/feelpp/feelpp</text>
<text text-anchor="middle" x="1078" y="-13" font-family="Helvetica,sans-Serif" font-size="10.00">/testsuite/feelcore/test_hana.cpp</text>
</a>
</g>
</g>
<!-- Node1&#45;&gt;Node7 -->
<g id="edge6" class="edge">
<title>Node1&#45;&gt;Node7</title>
<path fill="none" stroke="midnightblue" d="M1663.81,-104.4C1545.76,-97.88 1345.05,-83.21 1175,-53 1165.74,-51.36 1156.07,-49.27 1146.58,-47"/>
<polygon fill="midnightblue" stroke="midnightblue" points="1663.74,-107.9 1673.92,-104.95 1664.12,-100.91 1663.74,-107.9"/>
</g>
<!-- Node8 -->
<g id="node8" class="node">
<title>Node8</title>
<g id="a_node8"><a xlink:href="test__hdf5_8cpp.html" target="_top" xlink:title=" ">
<polygon fill="white" stroke="black" points="1184,-6 1184,-47 1358,-47 1358,-6 1184,-6"/>
<text text-anchor="start" x="1192" y="-35" font-family="Helvetica,sans-Serif" font-size="10.00">/nvme0/prudhomm/actions</text>
<text text-anchor="start" x="1192" y="-24" font-family="Helvetica,sans-Serif" font-size="10.00">&#45;runner/_work/feelpp/feelpp</text>
<text text-anchor="middle" x="1271" y="-13" font-family="Helvetica,sans-Serif" font-size="10.00">/testsuite/feelcore/test_hdf5.cpp</text>
</a>
</g>
</g>
<!-- Node1&#45;&gt;Node8 -->
<g id="edge7" class="edge">
<title>Node1&#45;&gt;Node8</title>
<path fill="none" stroke="midnightblue" d="M1663.81,-98.16C1583.03,-88.68 1467.18,-73.28 1367,-53 1358.38,-51.26 1349.38,-49.19 1340.51,-47.01"/>
<polygon fill="midnightblue" stroke="midnightblue" points="1663.64,-101.66 1673.98,-99.34 1664.45,-94.71 1663.64,-101.66"/>
</g>
<!-- Node9 -->
<g id="node9" class="node">
<title>Node9</title>
<g id="a_node9"><a xlink:href="test__json_8cpp.html" target="_top" xlink:title=" ">
<polygon fill="white" stroke="black" points="1376.5,-6 1376.5,-47 1549.5,-47 1549.5,-6 1376.5,-6"/>
<text text-anchor="start" x="1384.5" y="-35" font-family="Helvetica,sans-Serif" font-size="10.00">/nvme0/prudhomm/actions</text>
<text text-anchor="start" x="1384.5" y="-24" font-family="Helvetica,sans-Serif" font-size="10.00">&#45;runner/_work/feelpp/feelpp</text>
<text text-anchor="middle" x="1463" y="-13" font-family="Helvetica,sans-Serif" font-size="10.00">/testsuite/feelcore/test_json.cpp</text>
</a>
</g>
</g>
<!-- Node1&#45;&gt;Node9 -->
<g id="edge8" class="edge">
<title>Node1&#45;&gt;Node9</title>
<path fill="none" stroke="midnightblue" d="M1682.99,-86.87C1636.84,-74.41 1579.73,-59 1535.27,-47"/>
<polygon fill="midnightblue" stroke="midnightblue" points="1682.1,-90.25 1692.66,-89.48 1683.92,-83.49 1682.1,-90.25"/>
</g>
<!-- Node10 -->
<g id="node10" class="node">
<title>Node10</title>
<g id="a_node10"><a xlink:title=" ">
<polygon fill="white" stroke="#bfbfbf" points="1568,-6 1568,-47 1754,-47 1754,-6 1568,-6"/>
<text text-anchor="start" x="1576" y="-35" font-family="Helvetica,sans-Serif" font-size="10.00">/nvme0/prudhomm/actions</text>
<text text-anchor="start" x="1576" y="-24" font-family="Helvetica,sans-Serif" font-size="10.00">&#45;runner/_work/feelpp/feelpp</text>
<text text-anchor="middle" x="1661" y="-13" font-family="Helvetica,sans-Serif" font-size="10.00">/testsuite/feelcore/test_mongo.cpp</text>
</a>
</g>
</g>
<!-- Node1&#45;&gt;Node10 -->
<g id="edge9" class="edge">
<title>Node1&#45;&gt;Node10</title>
<path fill="none" stroke="midnightblue" d="M1732.1,-83.22C1717.21,-71.55 1699.89,-57.97 1686.07,-47.14"/>
<polygon fill="midnightblue" stroke="midnightblue" points="1730.06,-86.07 1740.09,-89.48 1734.38,-80.56 1730.06,-86.07"/>
</g>
<!-- Node11 -->
<g id="node11" class="node">
<title>Node11</title>
<g id="a_node11"><a xlink:title=" ">
<polygon fill="white" stroke="#bfbfbf" points="1771.5,-6 1771.5,-47 1966.5,-47 1966.5,-6 1771.5,-6"/>
<text text-anchor="start" x="1779.5" y="-35" font-family="Helvetica,sans-Serif" font-size="10.00">/nvme0/prudhomm/actions</text>
<text text-anchor="start" x="1779.5" y="-24" font-family="Helvetica,sans-Serif" font-size="10.00">&#45;runner/_work/feelpp/feelpp</text>
<text text-anchor="middle" x="1869" y="-13" font-family="Helvetica,sans-Serif" font-size="10.00">/testsuite/feelcore/test_observer.cpp</text>
</a>
</g>
</g>
<!-- Node1&#45;&gt;Node11 -->
<g id="edge10" class="edge">
<title>Node1&#45;&gt;Node11</title>
<path fill="none" stroke="midnightblue" d="M1797.9,-83.22C1812.79,-71.55 1830.11,-57.97 1843.93,-47.14"/>
<polygon fill="midnightblue" stroke="midnightblue" points="1795.62,-80.56 1789.91,-89.48 1799.94,-86.07 1795.62,-80.56"/>
</g>
<!-- Node12 -->
<g id="node12" class="node">
<title>Node12</title>
<g id="a_node12"><a xlink:title=" ">
<polygon fill="white" stroke="#bfbfbf" points="1984.5,-0.5 1984.5,-52.5 2159.5,-52.5 2159.5,-0.5 1984.5,-0.5"/>
<text text-anchor="start" x="1992.5" y="-40.5" font-family="Helvetica,sans-Serif" font-size="10.00">/nvme0/prudhomm/actions</text>
<text text-anchor="start" x="1992.5" y="-29.5" font-family="Helvetica,sans-Serif" font-size="10.00">&#45;runner/_work/feelpp/feelpp</text>
<text text-anchor="start" x="1992.5" y="-18.5" font-family="Helvetica,sans-Serif" font-size="10.00">/testsuite/feelcore/test_observer</text>
<text text-anchor="middle" x="2072" y="-7.5" font-family="Helvetica,sans-Serif" font-size="10.00">_mesh.cpp</text>
</a>
</g>
</g>
<!-- Node1&#45;&gt;Node12 -->
<g id="edge11" class="edge">
<title>Node1&#45;&gt;Node12</title>
<path fill="none" stroke="midnightblue" d="M1848.41,-86.87C1887.2,-76.57 1933.96,-64.16 1976,-53 1978.75,-52.27 1981.54,-51.53 1984.37,-50.78"/>
<polygon fill="midnightblue" stroke="midnightblue" points="1847.49,-83.49 1838.73,-89.44 1849.29,-90.25 1847.49,-83.49"/>
</g>
<!-- Node13 -->
<g id="node13" class="node">
<title>Node13</title>
<g id="a_node13"><a xlink:title=" ">
<polygon fill="white" stroke="#bfbfbf" points="2178,-0.5 2178,-52.5 2336,-52.5 2336,-0.5 2178,-0.5"/>
<text text-anchor="start" x="2186" y="-40.5" font-family="Helvetica,sans-Serif" font-size="10.00">/nvme0/prudhomm/actions</text>
<text text-anchor="start" x="2186" y="-29.5" font-family="Helvetica,sans-Serif" font-size="10.00">&#45;runner/_work/feelpp/feelpp</text>
<text text-anchor="start" x="2186" y="-18.5" font-family="Helvetica,sans-Serif" font-size="10.00">/testsuite/feelcore/test_ptree</text>
<text text-anchor="middle" x="2257" y="-7.5" font-family="Helvetica,sans-Serif" font-size="10.00">_editions.cpp</text>
</a>
</g>
</g>
<!-- Node1&#45;&gt;Node13 -->
<g id="edge12" class="edge">
<title>Node1&#45;&gt;Node13</title>
<path fill="none" stroke="midnightblue" d="M1866.39,-99.05C1948.53,-90.01 2066.95,-74.74 2169,-53 2171.96,-52.37 2174.96,-51.69 2177.98,-50.98"/>
<polygon fill="midnightblue" stroke="midnightblue" points="1865.87,-95.59 1856.31,-100.15 1866.63,-102.54 1865.87,-95.59"/>
</g>
<!-- Node14 -->
<g id="node14" class="node">
<title>Node14</title>
<g id="a_node14"><a xlink:title=" ">
<polygon fill="white" stroke="#bfbfbf" points="2354,-6 2354,-47 2534,-47 2534,-6 2354,-6"/>
<text text-anchor="start" x="2362" y="-35" font-family="Helvetica,sans-Serif" font-size="10.00">/nvme0/prudhomm/actions</text>
<text text-anchor="start" x="2362" y="-24" font-family="Helvetica,sans-Serif" font-size="10.00">&#45;runner/_work/feelpp/feelpp</text>
<text text-anchor="middle" x="2444" y="-13" font-family="Helvetica,sans-Serif" font-size="10.00">/testsuite/feelcore/test_range.cpp</text>
</a>
</g>
</g>
<!-- Node1&#45;&gt;Node14 -->
<g id="edge13" class="edge">
<title>Node1&#45;&gt;Node14</title>
<path fill="none" stroke="midnightblue" d="M1866.31,-104.01C1982.58,-97.18 2178.65,-82.27 2345,-53 2354.35,-51.35 2364.12,-49.28 2373.72,-47.04"/>
<polygon fill="midnightblue" stroke="midnightblue" points="1865.79,-100.54 1856.01,-104.61 1866.19,-107.52 1865.79,-100.54"/>
</g>
<!-- Node15 -->
<g id="node15" class="node">
<title>Node15</title>
<g id="a_node15"><a xlink:title=" ">
<polygon fill="white" stroke="#bfbfbf" points="2552,-6 2552,-47 2794,-47 2794,-6 2552,-6"/>
<text text-anchor="start" x="2560" y="-35" font-family="Helvetica,sans-Serif" font-size="10.00">/nvme0/prudhomm/actions</text>
<text text-anchor="start" x="2560" y="-24" font-family="Helvetica,sans-Serif" font-size="10.00">&#45;runner/_work/feelpp/feelpp</text>
<text text-anchor="middle" x="2673" y="-13" font-family="Helvetica,sans-Serif" font-size="10.00">/testsuite/feelcore/test_removecomments.cpp</text>
</a>
</g>
</g>
<!-- Node1&#45;&gt;Node15 -->
<g id="edge14" class="edge">
<title>Node1&#45;&gt;Node15</title>
<path fill="none" stroke="midnightblue" d="M1866.14,-105.65C2014.95,-99.84 2301.41,-85.27 2543,-53 2555.31,-51.36 2568.21,-49.27 2580.91,-47"/>
<polygon fill="midnightblue" stroke="midnightblue" points="1865.96,-102.16 1856.1,-106.04 1866.23,-109.15 1865.96,-102.16"/>
</g>
<!-- Node16 -->
<g id="node16" class="node">
<title>Node16</title>
<g id="a_node16"><a xlink:title=" ">
<polygon fill="white" stroke="#bfbfbf" points="2812,-6 2812,-47 3024,-47 3024,-6 2812,-6"/>
<text text-anchor="start" x="2820" y="-35" font-family="Helvetica,sans-Serif" font-size="10.00">/nvme0/prudhomm/actions</text>
<text text-anchor="start" x="2820" y="-24" font-family="Helvetica,sans-Serif" font-size="10.00">&#45;runner/_work/feelpp/feelpp</text>
<text text-anchor="middle" x="2918" y="-13" font-family="Helvetica,sans-Serif" font-size="10.00">/testsuite/feelcore/test_serialization.cpp</text>
</a>
</g>
</g>
<!-- Node1&#45;&gt;Node16 -->
<g id="edge15" class="edge">
<title>Node1&#45;&gt;Node16</title>
<path fill="none" stroke="midnightblue" d="M1866.12,-109.04C2052.35,-107.9 2461.73,-99.72 2803,-53 2814.35,-51.45 2826.23,-49.35 2837.88,-47.03"/>
<polygon fill="midnightblue" stroke="midnightblue" points="1866.05,-105.54 1856.07,-109.1 1866.09,-112.54 1866.05,-105.54"/>
</g>
<!-- Node17 -->
<g id="node17" class="node">
<title>Node17</title>
<g id="a_node17"><a xlink:href="test__simget_8cpp.html" target="_top" xlink:title=" ">
<polygon fill="white" stroke="black" points="3042,-6 3042,-47 3228,-47 3228,-6 3042,-6"/>
<text text-anchor="start" x="3050" y="-35" font-family="Helvetica,sans-Serif" font-size="10.00">/nvme0/prudhomm/actions</text>
<text text-anchor="start" x="3050" y="-24" font-family="Helvetica,sans-Serif" font-size="10.00">&#45;runner/_work/feelpp/feelpp</text>
<text text-anchor="middle" x="3135" y="-13" font-family="Helvetica,sans-Serif" font-size="10.00">/testsuite/feelcore/test_simget.cpp</text>
</a>
</g>
</g>
<!-- Node1&#45;&gt;Node17 -->
<g id="edge16" class="edge">
<title>Node1&#45;&gt;Node17</title>
<path fill="none" stroke="midnightblue" d="M1866.45,-107.15C2125.86,-101.99 2808.67,-85.66 3033,-53 3043.3,-51.5 3054.06,-49.41 3064.58,-47.05"/>
<polygon fill="midnightblue" stroke="midnightblue" points="1866.21,-103.65 1856.28,-107.35 1866.35,-110.65 1866.21,-103.65"/>
</g>
<!-- Node18 -->
<g id="node18" class="node">
<title>Node18</title>
<g id="a_node18"><a xlink:href="test__taskflow_8cpp.html" target="_top" xlink:title=" ">
<polygon fill="white" stroke="black" points="3246,-6 3246,-47 3440,-47 3440,-6 3246,-6"/>
<text text-anchor="start" x="3254" y="-35" font-family="Helvetica,sans-Serif" font-size="10.00">/nvme0/prudhomm/actions</text>
<text text-anchor="start" x="3254" y="-24" font-family="Helvetica,sans-Serif" font-size="10.00">&#45;runner/_work/feelpp/feelpp</text>
<text text-anchor="middle" x="3343" y="-13" font-family="Helvetica,sans-Serif" font-size="10.00">/testsuite/feelcore/test_taskflow.cpp</text>
</a>
</g>
</g>
<!-- Node1&#45;&gt;Node18 -->
<g id="edge17" class="edge">
<title>Node1&#45;&gt;Node18</title>
<path fill="none" stroke="midnightblue" d="M1866.22,-107.76C2153.69,-103.82 2971.45,-89.62 3237,-53 3247.78,-51.51 3259.07,-49.41 3270.09,-47.04"/>
<polygon fill="midnightblue" stroke="midnightblue" points="1866.17,-104.26 1856.21,-107.89 1866.26,-111.26 1866.17,-104.26"/>
</g>
<!-- Node19 -->
<g id="node19" class="node">
<title>Node19</title>
<g id="a_node19"><a xlink:title=" ">
<polygon fill="white" stroke="#bfbfbf" points="3458,-6 3458,-47 3668,-47 3668,-6 3458,-6"/>
<text text-anchor="start" x="3466" y="-35" font-family="Helvetica,sans-Serif" font-size="10.00">/nvme0/prudhomm/actions</text>
<text text-anchor="start" x="3466" y="-24" font-family="Helvetica,sans-Serif" font-size="10.00">&#45;runner/_work/feelpp/feelpp</text>
<text text-anchor="middle" x="3563" y="-13" font-family="Helvetica,sans-Serif" font-size="10.00">/testsuite/feelcore/test_worldcomm.cpp</text>
</a>
</g>
</g>
<!-- Node1&#45;&gt;Node19 -->
<g id="edge18" class="edge">
<title>Node1&#45;&gt;Node19</title>
<path fill="none" stroke="midnightblue" d="M1866.24,-108.11C2181.06,-104.96 3140.23,-92.32 3449,-53 3460.57,-51.53 3472.69,-49.43 3484.54,-47.06"/>
<polygon fill="midnightblue" stroke="midnightblue" points="1866.18,-104.61 1856.21,-108.21 1866.25,-111.61 1866.18,-104.61"/>
</g>
</g>
</svg>
