<?xml version="1.0" encoding="UTF-8" standalone="no"?>
<!DOCTYPE svg PUBLIC "-//W3C//DTD SVG 1.1//EN"
 "http://www.w3.org/Graphics/SVG/1.1/DTD/svg11.dtd">
<!-- Generated by graphviz version 2.43.0 (0)
 -->
<!-- Title: /nvme0/prudhomm/actions&#45;runner&#45;3/_work/feelpp/feelpp/feelpp/feel/feelcore/worldcomm.cpp Pages: 1 -->
<svg width="640pt" height="117pt"
 viewBox="0.00 0.00 639.50 117.00" xmlns="http://www.w3.org/2000/svg" xmlns:xlink="http://www.w3.org/1999/xlink">
<g id="graph0" class="graph" transform="scale(1 1) rotate(0) translate(4 113)">
<title>/nvme0/prudhomm/actions&#45;runner&#45;3/_work/feelpp/feelpp/feelpp/feel/feelcore/worldcomm.cpp</title>
<polygon fill="white" stroke="transparent" points="-4,4 -4,-113 635.5,-113 635.5,4 -4,4"/>
<!-- Node1 -->
<g id="node1" class="node">
<title>Node1</title>
<g id="a_node1"><a xlink:title=" ">
<polygon fill="#bfbfbf" stroke="black" points="213,-56.5 213,-108.5 362,-108.5 362,-56.5 213,-56.5"/>
<text text-anchor="start" x="221" y="-96.5" font-family="Helvetica,sans-Serif" font-size="10.00">/nvme0/prudhomm/actions</text>
<text text-anchor="start" x="221" y="-85.5" font-family="Helvetica,sans-Serif" font-size="10.00">&#45;runner&#45;3/_work/feelpp</text>
<text text-anchor="start" x="221" y="-74.5" font-family="Helvetica,sans-Serif" font-size="10.00">/feelpp/feelpp/feel/feelcore</text>
<text text-anchor="middle" x="287.5" y="-63.5" font-family="Helvetica,sans-Serif" font-size="10.00">/worldcomm.cpp</text>
</a>
</g>
</g>
<!-- Node2 -->
<g id="node2" class="node">
<title>Node2</title>
<g id="a_node2"><a xlink:href="feel_8hpp.html" target="_top" xlink:title="&#45;*&#45; mode: c++; coding: utf&#45;8; tab&#45;width: 4; indent&#45;tabs&#45;mode: nil; c&#45;basic&#45;offset: 4; show&#45;trailing&#45;w...">
<polygon fill="white" stroke="black" points="0,-0.5 0,-19.5 121,-19.5 121,-0.5 0,-0.5"/>
<text text-anchor="middle" x="60.5" y="-7.5" font-family="Helvetica,sans-Serif" font-size="10.00">feel/feelcore/feel.hpp</text>
</a>
</g>
</g>
<!-- Node1&#45;&gt;Node2 -->
<g id="edge1" class="edge">
<title>Node1&#45;&gt;Node2</title>
<path fill="none" stroke="midnightblue" d="M212.86,-58.32C174.26,-46.33 128.85,-32.23 97.71,-22.56"/>
<polygon fill="midnightblue" stroke="midnightblue" points="98.71,-19.2 88.12,-19.58 96.64,-25.89 98.71,-19.2"/>
</g>
<!-- Node3 -->
<g id="node3" class="node">
<title>Node3</title>
<g id="a_node3"><a xlink:href="debug_8hpp.html" target="_top" xlink:title=" ">
<polygon fill="white" stroke="black" points="139.5,-0.5 139.5,-19.5 271.5,-19.5 271.5,-0.5 139.5,-0.5"/>
<text text-anchor="middle" x="205.5" y="-7.5" font-family="Helvetica,sans-Serif" font-size="10.00">feel/feelcore/debug.hpp</text>
</a>
</g>
</g>
<!-- Node1&#45;&gt;Node3 -->
<g id="edge2" class="edge">
<title>Node1&#45;&gt;Node3</title>
<path fill="none" stroke="midnightblue" d="M258.36,-56.45C246.71,-46.43 233.66,-35.21 223.44,-26.42"/>
<polygon fill="midnightblue" stroke="midnightblue" points="225.48,-23.56 215.61,-19.7 220.91,-28.87 225.48,-23.56"/>
</g>
<!-- Node4 -->
<g id="node4" class="node">
<title>Node4</title>
<g id="a_node4"><a xlink:href="worldcomm_8hpp.html" target="_top" xlink:title=" ">
<polygon fill="white" stroke="black" points="289.5,-0.5 289.5,-19.5 449.5,-19.5 449.5,-0.5 289.5,-0.5"/>
<text text-anchor="middle" x="369.5" y="-7.5" font-family="Helvetica,sans-Serif" font-size="10.00">feel/feelcore/worldcomm.hpp</text>
</a>
</g>
</g>
<!-- Node1&#45;&gt;Node4 -->
<g id="edge3" class="edge">
<title>Node1&#45;&gt;Node4</title>
<path fill="none" stroke="midnightblue" d="M316.64,-56.45C328.29,-46.43 341.34,-35.21 351.56,-26.42"/>
<polygon fill="midnightblue" stroke="midnightblue" points="354.09,-28.87 359.39,-19.7 349.52,-23.56 354.09,-28.87"/>
</g>
<!-- Node5 -->
<g id="node5" class="node">
<title>Node5</title>
<g id="a_node5"><a xlink:href="environment_8hpp.html" target="_top" xlink:title="&#45;*&#45; mode: c++; coding: utf&#45;8; tab&#45;width: 4; indent&#45;tabs&#45;mode: nil; c&#45;basic&#45;offset: 4; show&#45;trailing&#45;w...">
<polygon fill="white" stroke="black" points="467.5,-0.5 467.5,-19.5 631.5,-19.5 631.5,-0.5 467.5,-0.5"/>
<text text-anchor="middle" x="549.5" y="-7.5" font-family="Helvetica,sans-Serif" font-size="10.00">feel/feelcore/environment.hpp</text>
</a>
</g>
</g>
<!-- Node1&#45;&gt;Node5 -->
<g id="edge4" class="edge">
<title>Node1&#45;&gt;Node5</title>
<path fill="none" stroke="midnightblue" d="M362.23,-61.39C409.43,-48.69 468.68,-32.75 507.74,-22.24"/>
<polygon fill="midnightblue" stroke="midnightblue" points="508.96,-25.53 517.71,-19.55 507.14,-18.77 508.96,-25.53"/>
</g>
</g>
</svg>
