$MeshFormat
4.1 0 8
$EndMeshFormat
$PhysicalNames
17
0 33 "5b"
0 34 "5h"
0 35 "6h"
0 36 "6b"
0 37 "7b"
0 38 "7h"
0 39 "8b"
0 40 "8h"
0 41 "1b"
0 42 "1h"
0 43 "2b"
0 44 "2h"
0 45 "3b"
0 46 "3h"
0 47 "4b"
0 48 "4h"
3 49 "patch"
$EndPhysicalNames
$Entities
16 32 22 5
1 4 2 -0.5 1 41 
2 18 3 -0.5 1 43 
3 16 8 -0.5 1 45 
4 8 8 -0.5 1 47 
5 0 0 -0.5 1 33 
6 24 0 -0.5 1 36 
7 24 12 -0.5 1 37 
8 0 12 -0.5 1 39 
9 8 8 0.5 1 48 
10 0 12 0.5 1 40 
11 4 2 0.5 1 42 
12 0 0 0.5 1 34 
13 24 0 0.5 1 35 
14 18 3 0.5 1 44 
15 16 8 0.5 1 46 
16 24 12 0.5 1 38 
1 3.999999900000001 1.9999999 -0.5000000999999999 18.0000001 3.0000001 -0.4999999 0 2 1 -2 
2 15.9999999 2.9999999 -0.5000000999999999 18.0000001 8.000000099999999 -0.4999999 0 2 2 -3 
3 7.9999999 7.9999999 -0.5000000999999999 16.0000001 8.000000099999999 -0.4999999 0 2 3 -4 
4 3.9999999 1.9999999 -0.5000000999999999 8.000000099999999 8.000000099999999 -0.4999999 0 2 4 -1 
5 -9.99999993922529e-08 -1e-07 -0.5000000999999999 24.0000001 1e-07 -0.4999999 0 2 5 -6 
6 23.9999999 -1.000000002804313e-07 -0.5000000999999999 24.0000001 12.0000001 -0.4999999 0 2 6 -7 
7 -9.99999993922529e-08 11.9999999 -0.5000000999999999 24.0000001 12.0000001 -0.4999999 0 2 7 -8 
8 -1e-07 -1.000000002804313e-07 -0.5000000999999999 1e-07 12.0000001 -0.4999999 0 2 8 -5 
9 -9.999999983634211e-08 -9.999999994736442e-08 -0.5000000999999999 4.0000001 2.0000001 -0.4999999 0 2 1 -5 
10 17.9999999 -1.000000000583867e-07 -0.5000000999999999 24.0000001 3.0000001 -0.4999999 0 2 2 -6 
11 15.9999999 7.9999999 -0.5000000999999999 24.0000001 12.0000001 -0.4999999 0 2 3 -7 
12 -9.999999983634211e-08 7.9999999 -0.5000000999999999 8.000000099999999 12.0000001 -0.4999999 0 2 4 -8 
13 7.9999999 7.9999999 -0.5000000999999999 8.000000099999999 8.000000099999999 0.5000000999999999 0 2 4 -9 
14 -1e-07 11.9999999 -0.5000000999999999 1e-07 12.0000001 0.5000000999999999 0 2 8 -10 
15 -9.999999983634211e-08 7.9999999 0.4999999 8.000000099999999 12.0000001 0.5000000999999999 0 2 9 -10 
16 3.9999999 1.9999999 -0.5000000999999999 4.0000001 2.0000001 0.5000000999999999 0 2 1 -11 
17 3.9999999 1.9999999 0.4999999 8.000000099999999 8.000000099999999 0.5000000999999999 0 2 9 -11 
18 -1e-07 -1e-07 -0.5000000999999999 1e-07 1e-07 0.5000000999999999 0 2 5 -12 
19 -9.999999983634211e-08 -9.999999994736442e-08 0.4999999 4.0000001 2.0000001 0.5000000999999999 0 2 11 -12 
20 -1e-07 -1.000000002804313e-07 0.4999999 1e-07 12.0000001 0.5000000999999999 0 2 10 -12 
21 23.9999999 -1e-07 -0.5000000999999999 24.0000001 1e-07 0.5000000999999999 0 2 6 -13 
22 -9.99999993922529e-08 -1e-07 0.4999999 24.0000001 1e-07 0.5000000999999999 0 2 12 -13 
23 17.9999999 2.9999999 -0.5000000999999999 18.0000001 3.0000001 0.5000000999999999 0 2 2 -14 
24 17.9999999 -1.000000000583867e-07 0.4999999 24.0000001 3.0000001 0.5000000999999999 0 2 14 -13 
25 3.999999900000001 1.9999999 0.4999999 18.0000001 3.0000001 0.5000000999999999 0 2 11 -14 
26 15.9999999 7.9999999 -0.5000000999999999 16.0000001 8.000000099999999 0.5000000999999999 0 2 3 -15 
27 23.9999999 11.9999999 -0.5000000999999999 24.0000001 12.0000001 0.5000000999999999 0 2 7 -16 
28 15.9999999 7.9999999 0.4999999 24.0000001 12.0000001 0.5000000999999999 0 2 15 -16 
29 23.9999999 -1.000000002804313e-07 0.4999999 24.0000001 12.0000001 0.5000000999999999 0 2 13 -16 
30 15.9999999 2.9999999 0.4999999 18.0000001 8.000000099999999 0.5000000999999999 0 2 14 -15 
31 -9.99999993922529e-08 11.9999999 0.4999999 24.0000001 12.0000001 0.5000000999999999 0 2 16 -10 
32 7.9999999 7.9999999 0.4999999 16.0000001 8.000000099999999 0.5000000999999999 0 2 15 -9 
1 -2.771762738554412 -1.877623414116917 -0.5000001000000002 9.003702534598782 12.6500001 -0.4999998999999994 0 4 -12 4 9 -8 
2 -1.196681867854721 -0.5370514458900169 -0.5000000999999999 25.2500001 3.277208828075583 -0.4999998999999999 0 4 9 5 -10 -1 
3 15.16831324954157 -1.450773451245554 -0.5000000999999999 25.83226020236141 12.6250001 -0.4999998999999996 0 4 11 -6 -10 2 
4 -1.200000099999997 7.79999989999999 -0.5000001000000003 25.20000010000002 12.2000001 -0.4999998999999997 0 4 11 7 -12 -3 
5 2.527598257016013 0.9259762208311244 -0.5000000999999999 18.65000009999999 9.505360877909817 -0.4999998999999997 0 4 3 4 1 2 
6 -9.999999983634211e-08 7.9999999 -0.5000000999999999 8.000000099999999 12.0000001 0.5000000999999999 0 4 13 15 -14 -12 
7 3.9999999 1.9999999 -0.5000000999999999 8.000000099999999 8.000000099999999 0.5000000999999999 0 4 13 17 -16 -4 
8 -9.999999983634211e-08 -9.999999994736442e-08 -0.5000000999999999 4.0000001 2.0000001 0.5000000999999999 0 4 16 19 -18 -9 
9 -1e-07 -1.000000002804313e-07 -0.5000000999999999 1e-07 12.0000001 0.5000000999999999 0 4 14 20 -18 -8 
10 -2.771762738554412 -1.877623414116917 0.4999998999999998 9.003702534598782 12.6500001 0.5000001000000006 0 4 -15 17 19 -20 
11 -9.99999993922529e-08 -1e-07 -0.5000000999999999 24.0000001 1e-07 0.5000000999999999 0 4 18 22 -21 -5 
12 17.9999999 -1.000000000583867e-07 -0.5000000999999999 24.0000001 3.0000001 0.5000000999999999 0 4 23 24 -21 -10 
13 3.999999900000001 1.9999999 -0.5000000999999999 18.0000001 3.0000001 0.5000000999999999 0 4 16 25 -23 -1 
14 -1.196681867854721 -0.5370514458900169 0.4999999 25.2500001 3.277208828075583 0.5000001000000001 0 4 19 22 -24 -25 
15 15.9999999 7.9999999 -0.5000000999999999 24.0000001 12.0000001 0.5000000999999999 0 4 26 28 -27 -11 
16 23.9999999 -1.000000002804313e-07 -0.5000000999999999 24.0000001 12.0000001 0.5000000999999999 0 4 21 29 -27 -6 
17 15.9999999 2.9999999 -0.5000000999999999 18.0000001 8.000000099999999 0.5000000999999999 0 4 23 30 -26 -2 
18 15.16831324954157 -1.450773451245554 0.4999999 25.83226020236141 12.6250001 0.5000001000000004 0 4 28 -29 -24 30 
19 -9.99999993922529e-08 11.9999999 -0.5000000999999999 24.0000001 12.0000001 0.5000000999999999 0 4 27 31 -14 -7 
20 7.9999999 7.9999999 -0.5000000999999999 16.0000001 8.000000099999999 0.5000000999999999 0 4 26 32 -13 -3 
21 -1.200000099999997 7.79999989999999 0.4999998999999997 25.20000010000002 12.2000001 0.5000001000000002 0 4 28 31 -15 -32 
22 2.527598257016013 0.9259762208311244 0.4999999 18.65000009999999 9.505360877909817 0.5000001000000002 0 4 32 17 25 30 
1 -2.771762738554412 -1.877623414116917 -0.5000001000000002 9.003702534598782 12.6500001 0.5000001000000006 1 49 6 -6 7 8 -9 1 -10 
2 -1.196681867854721 -0.5370514458900169 -0.5000001000000001 25.2500001 3.277208828075583 0.5000001000000001 1 49 6 -8 -11 12 13 -2 14 
3 15.16831324954157 -1.450773451245554 -0.5000000999999999 25.83226020236141 12.6250001 0.5000001000000004 1 49 6 15 -16 -12 17 3 -18 
4 -1.200000099999997 7.79999989999999 -0.5000001000000003 25.20000010000002 12.2000001 0.5000001000000003 1 49 6 -15 -19 6 20 -4 21 
5 2.527598257016013 0.9259762208311244 -0.5000000999999999 18.65000009999999 9.505360877909817 0.5000001000000002 1 49 6 -20 -7 -13 -17 -5 22 
$EndEntities
$Nodes
21 16 1 16
0 1 0 1
1
4 2 -0.5
0 2 0 1
2
18 3 -0.5
0 3 0 1
3
16 8 -0.5
0 4 0 1
4
8 8 -0.5
0 5 0 1
5
0 0 -0.5
0 6 0 1
6
24 0 -0.5
0 7 0 1
7
24 12 -0.5
0 8 0 1
8
0 12 -0.5
0 9 0 1
9
8 8 0.5
0 10 0 1
10
0 12 0.5
0 11 0 1
11
4 2 0.5
0 12 0 1
12
0 0 0.5
0 13 0 1
13
24 0 0.5
0 14 0 1
14
18 3 0.5
0 15 0 1
15
16 8 0.5
0 16 0 1
16
24 12 0.5
3 1 0 0
3 2 0 0
3 3 0 0
3 4 0 0
3 5 0 0
$EndNodes
$Elements
21 21 1 21
0 1 15 1
1 1 
0 2 15 1
2 2 
0 3 15 1
3 3 
0 4 15 1
4 4 
0 5 15 1
5 5 
0 6 15 1
6 6 
0 7 15 1
7 7 
0 8 15 1
8 8 
0 9 15 1
9 9 
0 10 15 1
10 10 
0 11 15 1
11 11 
0 12 15 1
12 12 
0 13 15 1
13 13 
0 14 15 1
14 14 
0 15 15 1
15 15 
0 16 15 1
16 16 
3 1 5 1
17 12 10 9 11 5 8 4 1 
3 2 5 1
18 12 11 14 13 5 1 2 6 
3 3 5 1
19 13 14 15 16 6 2 3 7 
3 4 5 1
20 4 3 7 8 9 15 16 10 
3 5 5 1
21 3 4 1 2 15 9 11 14 
$EndElements
