$MeshFormat
4.1 0 8
$EndMeshFormat
$PhysicalNames
5
2 11 "clamping"
2 13 "pressure"
2 14 "symmetry_x"
2 15 "symmetry_y"
3 10 "plaque"
$EndPhysicalNames
$Entities
6 9 5 1
1 0 0 0 0 
2 100 0 0 0 
3 0 100 0 0 
4 0 0 1 0 
5 100 0 1 0 
6 0 100 1 0 
1 -0.09389097257652423 -0.09389097257652118 -0.09389097257652118 100.0938909725765 0.09389097257652118 0.09389097257652118 0 2 1 -2 
2 -0.09389097257652118 -0.09389097257652423 -0.09389097257652118 0.09389097257652118 100.0938909725765 0.09389097257652118 0 2 1 -3 
3 -0.09389097257652423 -0.09389097257652423 -0.09389097257652118 100.0938909725765 100.0938909725765 0.09389097257652118 0 2 2 -3 
4 -0.0020001004 -0.0020001004 -0.002000100399999982 0.0020001004 0.0020001004 1.0020001004 0 2 1 -4 
5 99.9979998996 -0.0020001004 -0.002000100399999982 100.0020001004 0.0020001004 1.0020001004 0 2 2 -5 
6 -0.09389097257652423 -0.09389097257652118 0.9061090274234789 100.0938909725765 0.09389097257652118 1.093890972576521 0 2 4 -5 
7 -0.0020001004 99.9979998996 -0.002000100399999982 0.0020001004 100.0020001004 1.0020001004 0 2 3 -6 
8 -0.09389097257652423 -0.09389097257652423 0.9061090274234789 100.0938909725765 100.0938909725765 1.093890972576521 0 2 5 -6 
9 -0.09389097257652118 -0.09389097257652423 0.9061090274234789 0.09389097257652118 100.0938909725765 1.093890972576521 0 2 4 -6 
1 -1.547868384221829e-05 -1.547868384221829e-05 -1.547868384090874e-05 100.0000154786838 100.0000154786838 1.547868384090874e-05 0 3 1 3 -2 
2 -1.000000011686097e-07 -1e-07 -9.999999994736442e-08 100.0000001 1e-07 1.0000001 1 14 4 4 6 -5 -1 
3 -0.02379739200910791 -0.02379739200910791 -0.02379739200910597 100.0237973920091 100.0237973920091 1.023797392009106 1 11 4 5 8 -7 -3 
4 -1e-07 -1.000000011686097e-07 -9.999999994736442e-08 1e-07 100.0000001 1.0000001 1 15 4 4 9 -7 -2 
5 -1.547868384221829e-05 -1.547868384221829e-05 0.9999845213161591 100.0000154786838 100.0000154786838 1.000015478683841 1 13 3 6 8 -9 
1 -0.02379739200910791 -0.02379739200910791 -0.02379739200910597 100.0237973920091 100.0237973920091 1.023797392009106 1 10 5 -2 -3 4 -1 5 
$EndEntities
$Nodes
18 68 1 68
0 1 0 1
1
0 0 0
0 2 0 1
2
100 0 0
0 3 0 1
3
0 100 0
0 4 0 1
4
0 0 1
0 5 0 1
5
100 0 1
0 6 0 1
6
0 100 1
1 1 0 4
7
8
9
10
20 0 0
40 0 0
60.00000000000001 0 0
80 0 0
1 2 0 4
11
12
13
14
0 20 0
0 40 0
0 60.00000000000001 0
0 80 0
1 3 0 7
15
16
17
18
19
20
21
98.07852804032305 19.50903220161279 0
92.38795325112868 38.26834323650897 0
83.14696123025455 55.55702330196019 0
70.71067811865477 70.71067811865474 0
55.55702330196029 83.14696123025448 0
38.26834323650903 92.38795325112865 0
19.50903220161287 98.07852804032304 0
1 6 0 4
22
23
24
25
20 0 1
40 0 1
60.00000000000001 0 1
80 0 1
1 8 0 7
26
27
28
29
30
31
32
98.07852804032305 19.50903220161279 1
92.38795325112868 38.26834323650897 1
83.14696123025455 55.55702330196019 1
70.71067811865477 70.71067811865474 1
55.55702330196029 83.14696123025448 1
38.26834323650903 92.38795325112865 1
19.50903220161287 98.07852804032304 1
1 9 0 4
33
34
35
36
0 20 1
0 40 1
0 60.00000000000001 1
0 80 1
2 1 0 16
37
38
39
40
41
42
43
44
45
46
47
48
49
50
51
52
35.8615784710256 72.20125524803132 0
51.43569756401691 67.12586060386339 0
19.08073122596992 19.06841646733611 0
18.36569087952437 38.08662045618671 0
18.04468763981219 57.12728911710345 0
38.11411944036339 18.35094956510399 0
36.48825772279584 36.44322022610508 0
35.52361242855369 54.18569768431344 0
57.15343176346259 18.05570954070545 0
54.24116644844008 35.5069957148249 0
51.90199598253842 51.79915938953047 0
18.35011620327452 76.70676336657527 0
67.03651893266635 51.5045366582045 0
72.15415731880542 35.95585380505081 0
76.69888461354768 18.39785259530081 0
63.23762032197435 63.19501704931929 0
2 2 0 0
2 3 0 0
2 4 0 0
2 5 0 16
53
54
55
56
57
58
59
60
61
62
63
64
65
66
67
68
35.86157847102665 72.20125524803015 1
51.43569756402172 67.12586060386494 1
19.08073122596807 19.06841646733581 1
18.36569087952544 38.08662045618635 1
18.04468763981459 57.12728911710299 1
38.11411944036082 18.35094956510594 1
36.48825772279424 36.44322022610604 1
35.52361242855753 54.18569768431352 1
57.15343176346171 18.05570954070744 1
54.24116644843733 35.50699571482879 1
51.90199598254033 51.79915938953556 1
18.35011620327891 76.70676336657641 1
67.03651893266382 51.50453665820575 1
72.15415731880404 35.95585380505504 1
76.69888461354867 18.39785259530335 1
63.23762032197469 63.19501704932064 1
3 1 0 0
$EndNodes
$Elements
5 66 1 66
2 2 3 5
1 1 7 22 4 
2 7 8 23 22 
3 8 9 24 23 
4 9 10 25 24 
5 10 2 5 25 
2 3 3 8
6 2 15 26 5 
7 15 16 27 26 
8 16 17 28 27 
9 17 18 29 28 
10 18 19 30 29 
11 19 20 31 30 
12 20 21 32 31 
13 21 3 6 32 
2 4 3 5
14 1 4 33 11 
15 11 33 34 12 
16 12 34 35 13 
17 13 35 36 14 
18 14 36 6 3 
2 5 3 24
19 56 59 60 57 
20 57 60 53 64 
21 23 24 61 58 
22 58 61 62 59 
23 59 62 63 60 
24 60 63 54 53 
25 24 25 67 61 
26 61 67 66 62 
27 62 66 65 63 
28 63 65 68 54 
29 25 5 26 67 
30 67 26 27 66 
31 66 27 28 65 
32 65 28 29 68 
33 29 30 54 68 
34 30 31 53 54 
35 31 32 64 53 
36 32 6 36 64 
37 55 58 59 56 
38 22 23 58 55 
39 35 57 64 36 
40 34 56 57 35 
41 33 55 56 34 
42 4 22 55 33 
3 1 5 24
43 40 43 44 41 56 59 60 57 
44 41 44 37 48 57 60 53 64 
45 8 9 45 42 23 24 61 58 
46 42 45 46 43 58 61 62 59 
47 43 46 47 44 59 62 63 60 
48 44 47 38 37 60 63 54 53 
49 9 10 51 45 24 25 67 61 
50 45 51 50 46 61 67 66 62 
51 46 50 49 47 62 66 65 63 
52 47 49 52 38 63 65 68 54 
53 10 2 15 51 25 5 26 67 
54 51 15 16 50 67 26 27 66 
55 50 16 17 49 66 27 28 65 
56 49 17 18 52 65 28 29 68 
57 18 19 38 52 29 30 54 68 
58 19 20 37 38 30 31 53 54 
59 20 21 48 37 31 32 64 53 
60 21 3 14 48 32 6 36 64 
61 39 42 43 40 55 58 59 56 
62 7 8 42 39 22 23 58 55 
63 13 41 48 14 35 57 64 36 
64 12 40 41 13 34 56 57 35 
65 11 39 40 12 33 55 56 34 
66 1 7 39 11 4 22 55 33 
$EndElements
